mtllib SM_Book_01_LOD2.mtl
g SM_Book_01_LOD2
#Vertices 44
#Indices 54
#Section 0 Offset 0 NumIndices 54 MaterialIndex 0 MI_Books
v 0.135730 0.035575 -0.088120
v -0.112003 0.027279 -0.083051
v 0.136040 0.005957 -0.087368
v 0.136040 0.005957 -0.087368
v -0.112003 0.027279 -0.083051
v 0.135730 0.035575 -0.088120
v 0.136040 0.005957 -0.087368
v -0.112003 0.027279 -0.083051
v 0.135521 0.001040 -0.083133
v -0.120507 -0.000924 0.092088
v -0.112003 0.027279 -0.083051
v -0.121676 0.002880 0.093604
v 0.169729 -0.008413 0.125881
v 0.136040 0.005957 -0.087368
v 0.135521 0.001040 -0.083133
v -0.120603 0.037970 -0.084511
v -0.147045 0.046087 0.164790
v -0.112003 0.027279 -0.083051
v 0.135730 0.035575 -0.088120
v 0.171624 0.049345 0.127609
v 0.135278 0.039934 -0.083134
v -0.121676 0.002880 0.093604
v 0.169729 -0.008413 0.125881
v -0.120507 -0.000924 0.092088
v -0.120603 0.037970 -0.084511
v 0.135278 0.039934 -0.083134
v -0.147045 0.046087 0.164790
v 0.171624 0.049345 0.127609
v 0.135730 0.035575 -0.088120
v -0.112003 0.027279 -0.083051
v -0.147045 0.046087 0.164790
v 0.171624 0.049345 0.127609
v 0.135730 0.035575 -0.088120
v -0.120603 0.037970 -0.084511
v -0.112003 0.027279 -0.083051
v 0.135278 0.039934 -0.083134
v 0.135521 0.001040 -0.083133
v -0.120507 -0.000924 0.092088
v 0.169729 -0.008413 0.125881
v -0.112003 0.027279 -0.083051
v 0.136040 0.005957 -0.087368
v -0.121676 0.002880 0.093604
v -0.112003 0.027279 -0.083051
v 0.169729 -0.008413 0.125881
vt 0.937500 0.000000
vt 0.934570 0.154297
vt 0.917480 0.000000
vt 0.347168 0.938721
vt 0.174438 0.922607
vt 0.347168 0.920105
vt 0.979980 0.726807
vt 0.989258 0.911560
vt 0.976562 0.727295
vt 0.478271 0.289062
vt 0.608887 0.302246
vt 0.478271 0.291504
vt 0.148315 0.877869
vt 0.305420 0.875488
vt 0.302734 0.878296
vt 0.478271 0.284180
vt 0.660156 0.278809
vt 0.479736 0.288574
vt 0.020721 0.963989
vt 0.178833 0.965332
vt 0.023911 0.966461
vt 0.893066 0.383301
vt 0.894043 0.206055
vt 0.895996 0.383301
vt 0.621582 0.385254
vt 0.621582 0.228027
vt 0.799316 0.401367
vt 0.771973 0.205078
vt 0.366943 0.567871
vt 0.194092 0.563965
vt 0.170166 0.407715
vt 0.392090 0.432617
vt 0.977539 0.530273
vt 0.980957 0.724609
vt 0.978027 0.718262
vt 0.980957 0.530762
vt 0.500977 0.567139
vt 0.374756 0.724365
vt 0.351562 0.546143
vt 0.500000 0.719238
vt 0.442871 -0.001953
vt 0.262939 0.112793
vt 0.269775 0.001465
vt 0.466309 0.132324
vt1 0.446533 0.213867
vt1 0.023392 0.207031
vt1 0.447021 0.166504
vt1 0.640625 0.667725
vt1 0.684570 0.244629
vt1 0.691895 0.667480
vt1 0.888672 0.230957
vt1 0.917969 0.647949
vt1 0.878906 0.231445
vt1 0.685059 0.146484
vt1 0.992676 0.184570
vt1 0.685059 0.153320
vt1 0.944336 0.166992
vt1 0.951660 0.530762
vt1 0.943359 0.524414
vt1 0.982422 0.365234
vt1 0.997070 0.794678
vt1 0.968750 0.368164
vt1 0.982910 0.680664
vt1 0.978516 1.047638
vt1 0.975586 0.687988
vt1 0.008064 0.065430
vt1 0.508789 0.067871
vt1 0.008064 0.072754
vt1 0.475586 0.689697
vt1 0.913574 0.689697
vt1 0.430908 1.116821
vt1 0.976074 1.050018
vt1 0.448486 0.999352
vt1 0.024597 0.988441
vt1 -0.034210 0.563232
vt1 0.510254 0.630615
vt1 0.913086 0.230957
vt1 0.923828 0.669434
vt1 0.914062 0.654785
vt1 0.923828 0.231445
vt1 0.632812 0.231445
vt1 0.330566 0.669434
vt1 0.275391 0.172852
vt1 0.630371 0.654785
vt1 0.320068 0.667725
vt1 0.008064 0.227051
vt1 0.310303 0.244141
vt1 -0.044617 0.725586
vn 0.000000 0.165354 -0.984252
vn 0.000000 0.118110 -0.992126
vn 0.000000 -0.133858 -0.992126
vn 0.000000 0.212599 0.976378
vn 0.000000 -0.165354 0.984252
vn 0.000000 -0.220472 0.976378
vn 0.007874 -0.677165 -0.732283
vn 0.007874 0.047244 -1.000000
vn 0.007874 -0.968504 -0.259842
vn -0.944882 -0.322835 0.000000
vn -0.944882 -0.322835 -0.015748
vn -0.944882 -0.322835 0.000000
vn 0.905512 -0.417323 0.055118
vn 0.889764 -0.417323 -0.173228
vn 0.905512 -0.417323 -0.094488
vn -0.944882 0.314961 -0.070866
vn -0.944882 0.299213 0.125984
vn -0.937008 0.314961 -0.149606
vn 0.889764 0.433071 -0.165354
vn 0.905512 0.417323 0.055118
vn 0.897638 0.433071 -0.094488
vn 0.000000 -0.370079 0.929134
vn 0.000000 -0.370079 0.929134
vn 0.000000 -0.370079 0.929134
vn -0.007874 0.968504 -0.259843
vn -0.007874 0.968504 -0.259843
vn -0.007874 0.992126 0.102362
vn -0.007874 1.000000 0.047244
vn 0.007874 -0.944882 0.338583
vn 0.007874 -0.944882 0.322835
vn 0.007874 -0.992126 -0.125984
vn 0.007874 -1.000000 -0.062992
vn 0.000000 0.669291 -0.748031
vn -0.007874 0.968504 -0.259843
vn 0.000000 0.708661 -0.700787
vn -0.007874 0.968504 -0.259843
vn 0.007874 -0.968504 -0.259842
vn 0.007874 -1.000000 0.000000
vn 0.007874 -1.000000 0.047244
vn 0.007874 -0.968504 -0.259842
vn -0.007874 0.944882 0.338583
vn -0.007874 1.000000 -0.000000
vn -0.007874 0.944882 0.330709
vn -0.007874 1.000000 -0.055118
tan 0.984252 0.007750 0.001302 1.000000
tan 0.992126 0.007812 0.000930 1.000000
tan 0.992126 0.007812 -0.001054 1.000000
tan -0.007688 0.976378 -0.212599 1.000000
tan -0.007750 0.984252 0.165354 1.000000
tan -0.007688 0.976378 0.220472 1.000000
tan 0.988034 0.033480 -0.020336 1.000000
tan 1.000000 0.055118 0.010478 1.000000
tan 0.972596 0.007874 0.000124 1.000000
tan 0.322835 -0.944882 0.000000 1.000000
tan 0.322835 -0.944882 0.000000 1.000000
tan 0.322835 -0.944882 0.000000 1.000000
tan 0.418191 0.905512 -0.014260 1.000000
tan 0.426871 0.891128 0.045756 1.000000
tan 0.420299 0.907000 0.021948 1.000000
tan 0.316635 0.945440 -0.019840 1.000000
tan 0.303181 0.944882 0.029760 1.000000
tan 0.320851 0.937008 -0.036890 1.000000
tan 0.442185 -0.891066 0.045632 1.000000
tan 0.418191 -0.905512 -0.014260 1.000000
tan 0.436047 -0.899126 0.021452 1.000000
tan 0.893918 0.314589 0.125302 1.000000
tan 0.858888 0.351169 0.139872 1.000000
tan 0.893918 0.314589 0.125302 1.000000
tan 0.972596 0.007874 -0.000124 1.000000
tan 0.972596 0.007874 -0.000124 1.000000
tan 0.992126 0.007874 -0.000000 1.000000
tan 1.000000 0.007874 -0.000000 1.000000
tan 0.000000 0.338583 0.944882 1.000000
tan 0.000000 0.322835 0.944882 1.000000
tan -0.007812 -0.126046 0.992126 1.000000
tan -0.007874 -0.063054 1.000000 1.000000
tan 0.992622 0.047120 0.042160 1.000000
tan 0.972596 0.007874 -0.000124 1.000000
tan 0.969868 0.038626 0.039060 1.000000
tan 0.972596 0.007874 -0.000124 1.000000
tan 0.972596 0.007874 0.000124 1.000000
tan 1.000000 0.007874 -0.000000 1.000000
tan 1.000000 0.007874 -0.000000 1.000000
tan 0.968504 0.007874 -0.000000 1.000000
tan 0.000000 0.338583 -0.944882 1.000000
tan 0.007874 0.000062 -1.000000 1.000000
tan 0.000000 0.330709 -0.944882 1.000000
tan 0.007874 -0.055056 -1.000000 1.000000
f 3/3/3 2/2/2 1/1/1
f 6/6/6 5/5/5 4/4/4
f 9/9/9 8/8/8 7/7/7
f 12/12/12 11/11/11 10/10/10
f 15/15/15 14/14/14 13/13/13
f 18/18/18 17/17/17 16/16/16
f 21/21/21 20/20/20 19/19/19
f 24/24/24 23/23/23 22/22/22
f 27/27/27 26/26/26 25/25/25
f 27/27/27 28/28/28 26/26/26
f 31/31/31 30/30/30 29/29/29
f 32/32/32 31/31/31 29/29/29
f 35/35/35 34/34/34 33/33/33
f 36/36/36 33/33/33 34/34/34
f 39/39/39 38/38/38 37/37/37
f 40/40/40 37/37/37 38/38/38
f 43/43/43 42/42/42 41/41/41
f 44/44/44 41/41/41 42/42/42
