mtllib SM_Book_02_LOD2.mtl
g SM_Book_02_LOD2
#Vertices 44
#Indices 54
#Section 0 Offset 0 NumIndices 54 MaterialIndex 0 MI_Books
v -0.113633 0.014158 -0.091457
v 0.137009 0.042681 -0.095637
v 0.135278 0.047299 -0.087612
v 0.137009 0.042681 -0.095637
v -0.113633 0.014158 -0.091457
v 0.135203 0.006897 -0.090068
v 0.135203 0.006897 -0.090068
v -0.113633 0.014158 -0.091457
v 0.137009 0.042681 -0.095637
v 0.173049 0.054518 0.125701
v -0.121871 0.040444 0.089125
v -0.120750 0.044972 0.087609
v -0.113633 0.014158 -0.091457
v -0.144577 -0.006275 0.151669
v -0.120360 -0.001106 -0.088987
v 0.168870 -0.006738 0.121404
v 0.135203 0.006897 -0.090068
v 0.135521 0.001221 -0.087610
v -0.113633 0.014158 -0.091457
v -0.120750 0.044972 0.087609
v -0.121871 0.040444 0.089125
v 0.137009 0.042681 -0.095637
v 0.173049 0.054518 0.125701
v 0.135278 0.047299 -0.087612
v -0.113633 0.014158 -0.091457
v 0.135278 0.047299 -0.087612
v -0.120750 0.044972 0.087609
v 0.173049 0.054518 0.125701
v 0.137009 0.042681 -0.095637
v -0.113633 0.014158 -0.091457
v -0.121871 0.040444 0.089125
v 0.173049 0.054518 0.125701
v 0.135521 0.001221 -0.087610
v -0.144577 -0.006275 0.151669
v 0.168870 -0.006738 0.121404
v -0.120360 -0.001106 -0.088987
v 0.135203 0.006897 -0.090068
v -0.144577 -0.006275 0.151669
v -0.113633 0.014158 -0.091457
v 0.168870 -0.006738 0.121404
v -0.120360 -0.001106 -0.088987
v 0.135203 0.006897 -0.090068
v -0.113633 0.014158 -0.091457
v 0.135521 0.001221 -0.087610
vt 0.895020 0.848511
vt 0.893066 0.658203
vt 0.897461 0.659424
vt 0.900879 0.000000
vt 0.885742 0.168457
vt 0.880371 0.000488
vt 0.366455 0.913269
vt 0.177612 0.908691
vt 0.367676 0.895264
vt 0.984375 0.330078
vt 0.984375 0.524170
vt 0.980469 0.524170
vt 0.312500 0.857788
vt 0.121033 0.846558
vt 0.310547 0.850464
vt 0.142334 0.952332
vt 0.310303 0.948853
vt 0.308838 0.951691
vt 0.169434 0.857056
vt 0.310791 0.845337
vt 0.310791 0.848022
vt 0.587891 0.896973
vt 0.763672 0.896240
vt 0.593750 0.899719
vt 0.556152 0.605469
vt 0.558105 0.452148
vt 0.684082 0.609619
vt 0.710449 0.428711
vt 0.180420 0.466309
vt 0.005379 0.462891
vt 0.000000 0.348633
vt 0.205688 0.326660
vt 0.604492 0.114258
vt 0.432373 0.286621
vt 0.455322 0.093750
vt 0.604492 0.271973
vt 0.430176 0.336914
vt 0.235352 0.490234
vt 0.256592 0.336914
vt 0.453613 0.469727
vt 0.968750 0.528076
vt 0.971680 0.329590
vt 0.975098 0.522705
vt 0.968750 0.329590
vt1 0.900391 0.648193
vt1 0.895020 0.231445
vt1 0.908203 0.233887
vt1 0.773926 0.231445
vt1 0.734863 0.657471
vt1 0.720703 0.234375
vt1 0.445312 0.214355
vt1 0.021835 0.201172
vt1 0.447754 0.162109
vt1 0.981445 0.073730
vt1 0.475586 0.072754
vt1 0.475586 0.064453
vt1 0.992188 0.167480
vt1 0.575195 0.134277
vt1 0.987793 0.145508
vt1 0.924805 0.168457
vt1 0.936035 0.527588
vt1 0.927246 0.524414
vt1 0.930664 0.362793
vt1 0.967773 0.669434
vt1 0.959473 0.669434
vt1 0.967773 0.677002
vt1 0.970215 1.052521
vt1 0.959473 0.689453
vt1 0.486816 0.687012
vt1 0.911621 0.691162
vt1 0.475586 0.991936
vt1 0.976074 1.054108
vt1 0.448486 1.004501
vt1 0.021194 0.995438
vt1 0.008064 0.687500
vt1 0.510254 0.627930
vt1 0.631348 0.233887
vt1 0.221069 0.710449
vt1 0.275635 0.177246
vt1 0.631348 0.669434
vt1 0.315430 0.666260
vt1 -0.099304 0.190430
vt1 0.315674 0.242676
vt1 -0.044373 0.723877
vt1 0.862793 0.669434
vt1 0.871582 0.234375
vt1 0.882812 0.657715
vt1 0.862793 0.233887
vn -0.007874 0.803149 -0.590551
vn 0.000000 0.590551 -0.803150
vn -0.007874 0.968504 -0.259843
vn 0.000000 0.133858 -0.992126
vn 0.000000 -0.078740 -1.000000
vn 0.000000 -0.149606 -0.984252
vn 0.000000 0.204724 0.976378
vn 0.000000 0.110236 0.992126
vn 0.000000 -0.181102 0.984252
vn -0.007874 0.370079 0.929134
vn -0.007874 0.370079 0.929134
vn -0.007874 0.370079 0.929134
vn -0.929134 -0.322835 -0.173228
vn -0.944882 -0.314961 0.094488
vn -0.944882 -0.322835 -0.070866
vn 0.905512 -0.417323 0.070866
vn 0.889764 -0.417323 -0.173228
vn 0.905512 -0.417323 -0.094488
vn -0.944882 0.314961 -0.007874
vn -0.952756 0.307087 -0.000000
vn -0.952756 0.307087 -0.000000
vn 0.881890 0.433071 -0.173228
vn 0.905512 0.425197 -0.000000
vn 0.897638 0.433071 -0.094488
vn -0.007874 0.968504 -0.259843
vn -0.007874 0.968504 -0.259843
vn -0.007874 1.000000 -0.000000
vn -0.007874 1.000000 0.055118
vn 0.007874 -0.937008 0.346457
vn 0.007874 -0.944882 0.330709
vn 0.007874 -1.000000 0.000000
vn 0.007874 -1.000000 -0.062992
vn 0.007874 -0.968504 -0.259842
vn 0.007874 -0.992126 0.094488
vn 0.007874 -1.000000 0.047244
vn 0.007874 -0.968504 -0.259842
vn -0.007874 0.944882 0.330709
vn -0.007874 0.992126 -0.110236
vn -0.007874 0.944882 0.330709
vn -0.007874 1.000000 -0.055118
vn 0.007874 -0.968504 -0.259842
vn 0.007874 -0.732283 -0.685039
vn 0.007874 -0.307087 -0.952756
vn 0.007874 -0.968504 -0.259842
tan 0.976688 0.034968 0.034534 1.000000
tan 0.926654 0.018972 0.013950 1.000000
tan 0.972596 0.007874 -0.000124 1.000000
tan 0.992126 0.007812 0.001054 1.000000
tan 1.000000 0.007874 -0.000620 1.000000
tan 0.984252 0.007750 -0.001178 1.000000
tan -0.007688 0.976378 -0.204724 1.000000
tan -0.007812 0.992126 -0.110236 1.000000
tan -0.007750 0.984252 0.181102 1.000000
tan 0.880836 -0.299895 0.126914 1.000000
tan 0.915866 -0.262880 0.112468 1.000000
tan 0.915866 -0.262880 0.112468 1.000000
tan 0.331019 -0.929134 -0.043896 1.000000
tan 0.317193 -0.944882 0.022320 1.000000
tan 0.324509 -0.945440 -0.019778 1.000000
tan 0.418439 0.905512 -0.014260 1.000000
tan 0.426871 0.891128 0.045756 1.000000
tan 0.420299 0.907000 0.021948 1.000000
tan 0.314961 0.944882 -0.000000 1.000000
tan 0.307087 0.952756 -0.000000 1.000000
tan 0.307087 0.952756 -0.000000 1.000000
tan 0.442619 -0.883254 0.045198 1.000000
tan 0.425197 -0.905512 0.000000 1.000000
tan 0.436047 -0.899126 0.021452 1.000000
tan 0.968504 0.007874 -0.000000 1.000000
tan 0.972596 0.007874 -0.000124 1.000000
tan 1.000000 0.007874 -0.000000 1.000000
tan 1.000000 0.007874 -0.000000 1.000000
tan 0.000000 0.346457 0.937008 1.000000
tan 0.000000 0.330709 0.944882 1.000000
tan -0.007874 -0.000062 1.000000 1.000000
tan -0.007874 -0.063054 1.000000 1.000000
tan 0.972596 0.007874 0.000124 1.000000
tan 0.992126 0.007874 -0.000000 1.000000
tan 1.000000 0.007874 -0.000000 1.000000
tan 0.972596 0.007874 0.000124 1.000000
tan 0.000000 0.330709 -0.944882 1.000000
tan 0.007812 -0.110174 -0.992126 1.000000
tan 0.000000 0.330709 -0.944882 1.000000
tan 0.007874 -0.055056 -1.000000 1.000000
tan 0.972596 0.007874 0.000124 1.000000
tan 1.001240 0.027528 -0.017918 1.000000
tan 0.947920 0.014880 0.003038 1.000000
tan 0.972596 0.007874 0.000124 1.000000
f 3/3/3 2/2/2 1/1/1
f 6/6/6 5/5/5 4/4/4
f 9/9/9 8/8/8 7/7/7
f 12/12/12 11/11/11 10/10/10
f 15/15/15 14/14/14 13/13/13
f 18/18/18 17/17/17 16/16/16
f 21/21/21 20/20/20 19/19/19
f 24/24/24 23/23/23 22/22/22
f 27/27/27 26/26/26 25/25/25
f 27/27/27 28/28/28 26/26/26
f 31/31/31 30/30/30 29/29/29
f 32/32/32 31/31/31 29/29/29
f 35/35/35 34/34/34 33/33/33
f 36/36/36 33/33/33 34/34/34
f 39/39/39 38/38/38 37/37/37
f 40/40/40 37/37/37 38/38/38
f 43/43/43 42/42/42 41/41/41
f 44/44/44 41/41/41 42/42/42
