mtllib SM_Bottles_07_LOD3.mtl
g SM_Bottles_07_LOD3
#Vertices 131
#Indices 276
#Section 0 Offset 0 NumIndices 60 MaterialIndex 0 MI_Bottles
#Section 1 Offset 60 NumIndices 216 MaterialIndex 1 MI_Bottles_Glass_1
v -0.009825 0.294877 -0.010614
v 0.010488 0.294970 -0.009357
v -0.000000 0.295106 -0.000008
v 0.010488 0.294970 -0.009357
v 0.012240 0.294996 0.005797
v -0.000000 0.295106 -0.000008
v 0.012240 0.294996 0.005797
v -0.000017 0.294726 0.014223
v -0.000000 0.295106 -0.000008
v -0.000017 0.294726 0.014223
v -0.013060 0.295476 0.003484
v -0.000000 0.295106 -0.000008
v -0.013060 0.295476 0.003484
v -0.009825 0.294877 -0.010614
v -0.000000 0.295106 -0.000008
v -0.034074 0.148169 -0.018880
v -0.031390 0.064356 -0.016673
v 0.000150 0.064346 -0.035921
v 0.006277 0.148203 -0.035076
v 0.028587 0.064340 -0.019421
v 0.028044 0.148178 -0.018813
v -0.013060 0.295476 0.003484
v -0.013081 0.245255 0.002585
v -0.009825 0.294877 -0.010614
v -0.009257 0.244648 -0.009132
v 0.005906 0.244468 -0.011862
v 0.010488 0.294970 -0.009357
v 0.012029 0.244699 0.002458
v 0.012240 0.294996 0.005797
v -0.000017 0.294726 0.014223
v 0.005067 0.244419 0.008475
v -0.005654 0.245470 0.012542
v -0.013081 0.245255 0.002585
v -0.013060 0.295476 0.003484
v -0.009399 0.001023 -0.029472
v -0.016714 0.000095 -0.017816
v -0.000000 0.000263 -0.000007
v -0.001437 0.000261 -0.025271
v -0.009399 0.001023 -0.029472
v -0.000000 0.000263 -0.000007
v 0.007073 0.000794 -0.030300
v -0.001437 0.000261 -0.025271
v -0.000000 0.000263 -0.000007
v 0.013441 0.000115 -0.019841
v 0.007073 0.000794 -0.030300
v -0.000000 0.000263 -0.000007
v 0.025629 0.000867 -0.017539
v 0.013441 0.000115 -0.019841
v -0.000000 0.000263 -0.000007
v 0.024587 0.000262 -0.008115
v 0.025629 0.000867 -0.017539
v -0.000000 0.000263 -0.000007
v 0.033920 0.003051 -0.002069
v 0.024587 0.000262 -0.008115
v -0.000000 0.000263 -0.000007
v 0.020194 -0.000201 0.013029
v 0.033920 0.003051 -0.002069
v -0.000000 0.000263 -0.000007
v 0.005705 0.000231 0.024685
v 0.020194 -0.000201 0.013029
v -0.000000 0.000263 -0.000007
v -0.008052 0.000037 0.023153
v 0.005705 0.000231 0.024685
v -0.000000 0.000263 -0.000007
v -0.020124 0.000852 0.024035
v -0.008052 0.000037 0.023153
v -0.000000 0.000263 -0.000007
v -0.021166 0.000261 0.013879
v -0.020124 0.000852 0.024035
v -0.000000 0.000263 -0.000007
v -0.029706 0.000804 0.009763
v -0.021166 0.000261 0.013879
v -0.000000 0.000263 -0.000007
v -0.024709 0.000165 -0.001960
v -0.029706 0.000804 0.009763
v -0.000000 0.000263 -0.000007
v -0.016714 0.000095 -0.017816
v -0.024709 0.000165 -0.001960
v -0.000000 0.000263 -0.000007
v 0.007073 0.000794 -0.030300
v -0.009399 0.001023 -0.029472
v -0.001437 0.000261 -0.025271
v 0.013441 0.000115 -0.019841
v 0.025629 0.000867 -0.017539
v 0.024587 0.000262 -0.008115
v 0.033920 0.003051 -0.002069
v -0.029946 0.003843 -0.019528
v -0.016714 0.000095 -0.017816
v -0.024709 0.000165 -0.001960
v -0.029706 0.000804 0.009763
v -0.020124 0.000852 0.024035
v -0.021166 0.000261 0.013879
v -0.008052 0.000037 0.023153
v -0.004322 0.002349 0.034902
v 0.005705 0.000231 0.024685
v 0.019564 0.002640 0.029172
v 0.020194 -0.000201 0.013029
v -0.032079 0.004773 0.012751
v -0.020124 0.000852 0.024035
v -0.029706 0.000804 0.009763
v -0.004322 0.002349 0.034902
v -0.029946 0.003843 -0.019528
v -0.012088 0.182157 0.034737
v 0.019564 0.002640 0.029172
v 0.018393 0.181529 0.028040
v 0.016690 0.193505 0.025400
v -0.034421 0.181900 0.003980
v -0.021651 0.201137 0.020480
v 0.005067 0.244419 0.008475
v -0.005654 0.245470 0.012542
v -0.013081 0.245255 0.002585
v -0.026251 0.196476 -0.012645
v -0.009257 0.244648 -0.009132
v -0.026515 0.181451 -0.021298
v -0.000846 0.201141 -0.027141
v 0.005906 0.244468 -0.011862
v -0.003947 0.181667 -0.034869
v -0.003263 0.004873 -0.033794
v -0.009399 0.001023 -0.029472
v 0.007073 0.000794 -0.030300
v 0.023467 0.004304 -0.026116
v 0.025629 0.000867 -0.017539
v 0.033920 0.003051 -0.002069
v 0.028353 0.181482 -0.021608
v 0.032263 0.181597 0.011667
v 0.019564 0.002640 0.029172
v 0.018393 0.181529 0.028040
v 0.029376 0.200941 -0.006264
v 0.016690 0.193505 0.025400
v 0.012029 0.244699 0.002458
v 0.005067 0.244419 0.008475
vt 0.207642 0.952057
vt 0.211182 0.890259
vt 0.240234 0.921936
vt 0.211670 0.889587
vt 0.258057 0.883972
vt 0.240234 0.921936
vt 0.258301 0.884277
vt 0.284180 0.921753
vt 0.240234 0.921936
vt 0.284180 0.922302
vt 0.251221 0.962097
vt 0.240234 0.921936
vt 0.251221 0.962341
vt 0.208008 0.952454
vt 0.240234 0.921936
vt 0.568848 0.260254
vt 0.570801 0.000488
vt 0.684570 0.000488
vt 0.702148 0.260254
vt 0.785645 0.000488
vt 0.786621 0.260254
vt 0.777832 0.541016
vt 0.935059 0.543945
vt 0.780273 0.583252
vt 0.937012 0.581299
vt 0.937012 0.630127
vt 0.779785 0.644775
vt 0.937012 0.681885
vt 0.779297 0.690430
vt 0.781250 0.733887
vt 0.937500 0.713623
vt 0.933105 0.751465
vt 0.933105 0.787354
vt 0.777832 0.784912
vt 0.949707 0.354980
vt 0.941895 0.341309
vt 0.961914 0.320801
vt 0.959473 0.350586
vt 0.949707 0.354980
vt 0.961914 0.320801
vt 0.969238 0.356934
vt 0.959473 0.350586
vt 0.961914 0.320801
vt 0.977051 0.344727
vt 0.969238 0.356934
vt 0.961914 0.320801
vt 0.991699 0.342285
vt 0.977051 0.344727
vt 0.961914 0.320801
vt 0.990723 0.331055
vt 0.991699 0.342285
vt 0.961914 0.320801
vt 1.001953 0.324707
vt 0.990723 0.331055
vt 0.961914 0.320801
vt 0.986328 0.306641
vt 1.001953 0.324707
vt 0.961914 0.320801
vt 0.969727 0.291992
vt 0.986328 0.306152
vt 0.961914 0.320801
vt 0.953125 0.293457
vt 0.969727 0.291992
vt 0.961914 0.320801
vt 0.938965 0.291992
vt 0.953125 0.293457
vt 0.961914 0.320801
vt 0.937500 0.303711
vt 0.938965 0.291992
vt 0.961914 0.320801
vt 0.927246 0.308105
vt 0.937500 0.303711
vt 0.961914 0.320801
vt 0.933105 0.322266
vt 0.927246 0.308105
vt 0.961914 0.320801
vt 0.941895 0.341309
vt 0.933105 0.322266
vt 0.961914 0.320801
vt 0.969238 0.356934
vt 0.950195 0.354980
vt 0.959473 0.350586
vt 0.977051 0.344727
vt 0.991699 0.342285
vt 0.990723 0.331055
vt 1.001953 0.324219
vt 0.925781 0.343262
vt 0.941895 0.341309
vt 0.933105 0.322266
vt 0.927246 0.308105
vt 0.938965 0.291992
vt 0.937500 0.303711
vt 0.953125 0.292969
vt 0.958008 0.279785
vt 0.969727 0.291992
vt 0.986328 0.287109
vt 0.986328 0.306152
vt 0.361572 0.662109
vt 0.342041 0.657227
vt 0.364014 0.656494
vt 0.320068 0.660645
vt 0.399658 0.660400
vt 0.336670 0.874390
vt 0.291016 0.659912
vt 0.302002 0.877380
vt 0.309570 0.895264
vt 0.376953 0.870117
vt 0.360107 0.896057
vt 0.362549 0.956482
vt 0.374512 0.951141
vt 0.391602 0.948273
vt 0.398926 0.887451
vt 0.411377 0.946411
vt 0.405029 0.868530
vt 0.433594 0.893311
vt 0.437988 0.947174
vt 0.432129 0.868896
vt 0.434814 0.661621
vt 0.426514 0.656494
vt 0.447998 0.656006
vt 0.467529 0.661377
vt 0.477051 0.656738
vt 0.498291 0.660645
vt 0.467773 0.871094
vt 0.504883 0.874634
vt 0.539062 0.660645
vt 0.529297 0.877319
vt 0.477539 0.896484
vt 0.521973 0.895752
vt 0.460205 0.951569
vt 0.469482 0.956726
vt1 0.012772 0.984390
vt1 0.016815 0.915283
vt1 0.049316 0.950684
vt1 0.017365 0.914551
vt1 0.069153 0.908203
vt1 0.049316 0.950684
vt1 0.069641 0.908569
vt1 0.098389 0.950500
vt1 0.049316 0.950684
vt1 0.098450 0.951111
vt1 0.061523 0.995632
vt1 0.049316 0.950684
vt1 0.061523 0.995892
vt1 0.013237 0.984818
vt1 0.049316 0.950684
vt1 0.732910 0.991776
vt1 0.735352 0.701172
vt1 0.862305 0.701416
vt1 0.882324 0.991920
vt1 0.975586 0.701416
vt1 0.976562 0.991882
vt1 0.749512 0.393555
vt1 0.925781 0.396973
vt1 0.752441 0.440918
vt1 0.927734 0.438477
vt1 0.928223 0.493164
vt1 0.751953 0.509521
vt1 0.927734 0.551025
vt1 0.750977 0.560547
vt1 0.753418 0.609131
vt1 0.928223 0.586426
vt1 0.923340 0.628906
vt1 0.923340 0.668945
vt1 0.749512 0.666260
vt1 0.834473 0.375977
vt1 0.810547 0.334961
vt1 0.870117 0.274902
vt1 0.862305 0.362305
vt1 0.834473 0.375977
vt1 0.870117 0.274902
vt1 0.891113 0.380859
vt1 0.862305 0.362305
vt1 0.870117 0.274902
vt1 0.914551 0.345215
vt1 0.891113 0.380859
vt1 0.870117 0.274902
vt1 0.957031 0.338379
vt1 0.914551 0.345215
vt1 0.870117 0.274902
vt1 0.954590 0.305664
vt1 0.957031 0.338379
vt1 0.870117 0.274902
vt1 0.987305 0.286133
vt1 0.954590 0.305664
vt1 0.870117 0.274902
vt1 0.941406 0.232422
vt1 0.987305 0.286133
vt1 0.870117 0.274902
vt1 0.892090 0.189941
vt1 0.941406 0.232422
vt1 0.870117 0.274902
vt1 0.844238 0.193848
vt1 0.892090 0.189941
vt1 0.870117 0.274902
vt1 0.802734 0.189941
vt1 0.844238 0.193848
vt1 0.870117 0.274902
vt1 0.798340 0.224609
vt1 0.802734 0.189941
vt1 0.870117 0.274902
vt1 0.768066 0.238281
vt1 0.798340 0.224609
vt1 0.870117 0.274902
vt1 0.784180 0.279297
vt1 0.768066 0.238281
vt1 0.870117 0.274902
vt1 0.810059 0.334961
vt1 0.784180 0.279297
vt1 0.870117 0.274902
vt1 0.891602 0.380859
vt1 0.834473 0.376465
vt1 0.862305 0.362305
vt1 0.914551 0.345215
vt1 0.957031 0.338867
vt1 0.954590 0.305664
vt1 0.988770 0.285156
vt1 0.762695 0.340332
vt1 0.810059 0.334961
vt1 0.784180 0.279297
vt1 0.768066 0.238281
vt1 0.802734 0.189453
vt1 0.798340 0.224609
vt1 0.844238 0.193848
vt1 0.858398 0.153809
vt1 0.892090 0.189941
vt1 0.941895 0.175293
vt1 0.941406 0.232422
vt1 0.214478 0.130371
vt1 0.155884 0.115723
vt1 0.221436 0.113770
vt1 0.090759 0.125977
vt1 0.327148 0.125488
vt1 0.140625 0.752686
vt1 0.005039 0.124023
vt1 0.037537 0.761597
vt1 0.059631 0.813965
vt1 0.260010 0.740479
vt1 0.209839 0.816406
vt1 0.217041 0.993534
vt1 0.252441 0.977890
vt1 0.303223 0.969467
vt1 0.324707 0.791138
vt1 0.362061 0.964020
vt1 0.343262 0.735840
vt1 0.427979 0.808350
vt1 0.440918 0.966278
vt1 0.423828 0.736816
vt1 0.431152 0.129395
vt1 0.406982 0.113770
vt1 0.470703 0.112793
vt1 0.528320 0.127930
vt1 0.556641 0.114746
vt1 0.619629 0.126465
vt1 0.529785 0.742920
vt1 0.639648 0.753540
vt1 0.741211 0.126465
vt1 0.712402 0.761475
vt1 0.558105 0.817627
vt1 0.690918 0.815430
vt1 0.506836 0.979172
vt1 0.534180 0.994274
vn 0.000000 1.000000 -0.000000
vn 0.000000 1.000000 -0.000000
vn 0.000000 1.000000 -0.000000
vn 0.000000 1.000000 -0.000000
vn 0.000000 1.000000 -0.000000
vn 0.000000 1.000000 -0.000000
vn 0.000000 1.000000 -0.000000
vn 0.000000 1.000000 -0.000000
vn 0.000000 1.000000 -0.000000
vn 0.000000 1.000000 -0.000000
vn 0.000000 1.000000 -0.000000
vn 0.000000 1.000000 -0.000000
vn 0.000000 1.000000 -0.000000
vn 0.000000 1.000000 -0.000000
vn 0.000000 1.000000 -0.000000
vn -0.842520 -0.000000 -0.535433
vn -0.842520 -0.000000 -0.535433
vn 0.007874 -0.000000 -1.000000
vn 0.204724 -0.000000 -0.976378
vn 0.787402 -0.000000 -0.622047
vn 0.755906 -0.000000 -0.653543
vn -0.960630 0.078740 0.259842
vn -0.984252 0.007874 0.165354
vn -0.669291 -0.007874 -0.748031
vn -0.716535 0.047244 -0.700787
vn 0.440945 0.055118 -0.897638
vn 0.740157 0.007874 -0.677165
vn 0.976378 -0.007874 0.228346
vn 0.905512 0.062992 0.425197
vn 0.015748 -0.023622 1.000000
vn 0.519685 0.055118 0.850394
vn -0.417323 0.078740 0.905512
vn -0.968504 -0.070866 0.228346
vn -0.952756 0.070866 0.283465
vn 0.000000 -1.000000 0.000000
vn 0.000000 -1.000000 0.000000
vn 0.000000 -1.000000 0.000000
vn 0.000000 -1.000000 0.000000
vn 0.000000 -1.000000 0.000000
vn 0.000000 -1.000000 0.000000
vn 0.000000 -1.000000 0.000000
vn 0.000000 -1.000000 0.000000
vn 0.000000 -1.000000 0.000000
vn 0.000000 -1.000000 0.000000
vn 0.000000 -1.000000 0.000000
vn 0.000000 -1.000000 0.000000
vn 0.000000 -1.000000 0.000000
vn 0.000000 -1.000000 0.000000
vn 0.000000 -1.000000 0.000000
vn 0.000000 -1.000000 0.000000
vn 0.000000 -1.000000 0.000000
vn 0.000000 -1.000000 0.000000
vn 0.000000 -1.000000 0.000000
vn 0.000000 -1.000000 0.000000
vn 0.000000 -1.000000 0.000000
vn 0.000000 -1.000000 0.000000
vn 0.000000 -1.000000 0.000000
vn 0.000000 -1.000000 0.000000
vn 0.000000 -1.000000 0.000000
vn 0.000000 -1.000000 0.000000
vn 0.000000 -1.000000 0.000000
vn 0.000000 -1.000000 0.000000
vn 0.000000 -1.000000 0.000000
vn 0.000000 -1.000000 0.000000
vn 0.000000 -1.000000 0.000000
vn 0.000000 -1.000000 0.000000
vn 0.000000 -1.000000 0.000000
vn 0.000000 -1.000000 0.000000
vn 0.000000 -1.000000 0.000000
vn 0.000000 -1.000000 0.000000
vn 0.000000 -1.000000 0.000000
vn 0.000000 -1.000000 0.000000
vn 0.000000 -1.000000 0.000000
vn 0.000000 -1.000000 0.000000
vn 0.000000 -1.000000 0.000000
vn 0.000000 -1.000000 0.000000
vn 0.000000 -1.000000 0.000000
vn 0.000000 -1.000000 0.000000
vn 0.000000 -1.000000 0.000000
vn 0.078740 -0.929134 -0.362205
vn -0.110236 -0.929134 -0.354331
vn -0.007874 -0.984252 -0.173228
vn 0.047244 -0.992126 -0.086614
vn 0.307087 -0.929134 -0.212598
vn 0.165354 -0.984252 -0.055118
vn 0.488189 -0.874016 -0.015748
vn -0.425197 -0.858268 -0.267716
vn -0.086614 -0.992126 -0.094488
vn -0.133858 -0.992126 0.000000
vn -0.346457 -0.929134 0.110236
vn -0.244094 -0.929134 0.283465
vn -0.149606 -0.984252 0.094488
vn -0.055118 -0.992126 0.110236
vn -0.047244 -0.858268 0.511811
vn 0.031496 -0.984252 0.157480
vn 0.267717 -0.874016 0.401575
vn 0.070866 -0.992126 0.070866
vn -0.929134 -0.007874 0.370079
vn -0.307087 -0.897638 0.314961
vn -0.393701 -0.913386 0.118110
vn -0.133858 -0.015748 0.992126
vn -0.834646 -0.015748 -0.551181
vn -0.330709 0.007874 0.944882
vn 0.566929 -0.023622 0.826772
vn 0.551181 0.007874 0.834646
vn 0.503937 0.440945 0.740157
vn -0.992126 0.007874 0.118110
vn -0.606299 0.456693 0.645669
vn 0.409449 0.157480 0.897638
vn -0.440945 0.070866 0.897638
vn -0.984252 0.110236 0.149606
vn -0.779528 0.464567 -0.409449
vn -0.716535 0.118110 -0.692913
vn -0.779528 0.007874 -0.629921
vn -0.015748 0.488189 -0.874016
vn 0.527559 0.039370 -0.850394
vn -0.110236 0.007874 -0.992126
vn -0.094488 -0.007874 -0.992126
vn -0.157480 -0.881890 -0.448819
vn 0.062992 -0.913386 -0.409449
vn 0.669291 -0.007874 -0.748031
vn 0.354331 -0.897638 -0.244094
vn 1.000000 -0.023622 -0.055118
vn 0.795276 0.007874 -0.606299
vn 0.937008 0.007874 0.338583
vn 0.582677 -0.015748 0.811023
vn 0.551181 0.007874 0.834646
vn 0.858268 0.480315 -0.181102
vn 0.464567 0.456693 0.763779
vn 0.984252 0.007874 0.188976
vn 0.629921 0.125984 0.763779
tan 1.000000 0.000000 0.000000 1.000000
tan 1.000000 0.000000 0.000000 1.000000
tan 1.000000 0.000000 0.000000 1.000000
tan 1.000000 0.000000 0.000000 1.000000
tan 1.000000 0.000000 0.000000 1.000000
tan 1.000000 0.000000 0.000000 1.000000
tan 1.000000 0.000000 0.000000 1.000000
tan 1.000000 0.000000 0.000000 1.000000
tan 1.000000 0.000000 0.000000 1.000000
tan 1.000000 0.000000 0.000000 1.000000
tan 1.000000 0.000000 0.000000 1.000000
tan 1.000000 0.000000 0.000000 1.000000
tan 1.000000 0.000000 0.000000 1.000000
tan 1.000000 0.000000 0.000000 1.000000
tan 1.000000 0.000000 0.000000 1.000000
tan -0.008432 -0.979168 0.013268 1.000000
tan -0.004216 -0.915990 0.006634 1.000000
tan 0.000000 -1.000000 0.000000 1.000000
tan 0.000000 -0.974766 0.000000 1.000000
tan 0.000000 -0.961808 0.000000 1.000000
tan 0.000000 -0.985988 0.000000 1.000000
tan 0.254883 -0.060512 0.960630 1.000000
tan 0.165540 0.023250 0.984252 1.000000
tan -0.748031 0.000000 0.669291 1.000000
tan -0.701159 -0.000124 0.716907 1.000000
tan -0.897638 -0.000000 -0.440945 1.000000
tan -0.677227 0.005828 -0.740157 1.000000
tan 0.228470 0.015376 -0.976378 1.000000
tan 0.426189 -0.014260 -0.905512 1.000000
tan 1.000000 -0.007874 -0.015934 1.000000
tan 0.850394 0.013392 -0.520553 1.000000
tan 0.905512 0.000000 0.417323 1.000000
tan 0.233926 -0.076260 0.968504 1.000000
tan 0.287929 0.060016 0.952756 1.000000
tan -0.031496 0.000000 1.000000 1.000000
tan -0.031496 0.000000 1.000000 1.000000
tan -0.031496 0.000000 1.000000 1.000000
tan -0.031496 0.000000 1.000000 1.000000
tan -0.031496 0.000000 1.000000 1.000000
tan -0.031496 0.000000 1.000000 1.000000
tan -0.031496 0.000000 1.000000 1.000000
tan -0.031496 0.000000 1.000000 1.000000
tan -0.031496 0.000000 1.000000 1.000000
tan -0.031496 0.000000 1.000000 1.000000
tan -0.031496 0.000000 1.000000 1.000000
tan -0.031496 0.000000 1.000000 1.000000
tan -0.031496 0.000000 1.000000 1.000000
tan -0.031496 0.000000 1.000000 1.000000
tan -0.031496 0.000000 1.000000 1.000000
tan -0.031496 0.000000 1.000000 1.000000
tan -0.031496 0.000000 1.000000 1.000000
tan -0.031496 0.000000 1.000000 1.000000
tan -0.031496 0.000000 1.000000 1.000000
tan -0.031496 0.000000 1.000000 1.000000
tan -0.031496 0.000000 1.000000 1.000000
tan -0.031496 0.000000 1.000000 1.000000
tan -0.031496 0.000000 1.000000 1.000000
tan -0.031496 0.000000 1.000000 1.000000
tan -0.039370 0.000000 1.000000 1.000000
tan -0.039370 0.000000 1.000000 1.000000
tan -0.039370 0.000000 1.000000 1.000000
tan -0.031496 0.000000 1.000000 1.000000
tan -0.031496 0.000000 1.000000 1.000000
tan -0.031496 0.000000 1.000000 1.000000
tan -0.031496 0.000000 1.000000 1.000000
tan -0.031496 0.000000 1.000000 1.000000
tan -0.031496 0.000000 1.000000 1.000000
tan -0.031496 0.000000 1.000000 1.000000
tan -0.031496 0.000000 1.000000 1.000000
tan -0.031496 0.000000 1.000000 1.000000
tan -0.031496 0.000000 1.000000 1.000000
tan -0.031496 0.000000 1.000000 1.000000
tan -0.031496 0.000000 1.000000 1.000000
tan -0.031496 0.000000 1.000000 1.000000
tan -0.031496 0.000000 1.000000 1.000000
tan -0.031496 0.000000 1.000000 1.000000
tan -0.031496 0.000000 1.000000 1.000000
tan -0.031496 0.000000 1.000000 1.000000
tan -0.031496 0.000000 1.000000 1.000000
tan -0.029264 -0.364685 0.929134 1.000000
tan 0.000000 -0.354331 0.929134 1.000000
tan -0.031000 -0.172980 0.984252 1.000000
tan -0.023436 -0.087730 0.992126 1.000000
tan -0.080476 -0.237522 0.921818 1.000000
tan -0.038316 -0.061628 0.985554 1.000000
tan -0.096348 -0.069440 0.867134 1.000000
tan 0.033790 -0.284456 0.858268 1.000000
tan -0.031248 -0.091760 0.992126 1.000000
tan -0.039060 0.005270 0.992126 1.000000
tan -0.087792 0.142104 0.921818 1.000000
tan -0.058528 0.298841 0.929134 1.000000
tan -0.038006 0.100378 0.985430 1.000000
tan -0.031248 0.111972 0.992126 1.000000
tan -0.006758 0.512183 0.858268 1.000000
tan -0.031000 0.156488 0.984252 1.000000
tan 0.034410 0.412115 0.874016 1.000000
tan -0.023436 0.069192 0.992126 1.000000
tan -0.000868 -0.932048 -0.022010 1.000000
tan 0.417013 -0.420423 -0.791617 1.000000
tan 0.906194 -0.403621 -0.100688 1.000000
tan -0.007812 -0.992126 -0.016802 1.000000
tan 0.072044 -0.888834 -0.083700 1.000000
tan -0.312543 -0.895406 -0.101928 1.000000
tan 0.141732 -0.849464 -0.121458 1.000000
tan -0.050468 -0.949346 0.042284 1.000000
tan -0.199640 -0.745117 0.579825 1.000000
tan -0.010664 -0.992126 -0.023436 1.000000
tan -0.393577 -0.878914 0.252093 1.000000
tan -0.790378 -0.434373 0.436729 1.000000
tan -0.651373 -0.621861 -0.270878 1.000000
tan -0.132060 -0.968752 -0.155000 1.000000
tan -0.458119 -0.811767 -0.048856 1.000000
tan -0.023002 -0.984500 -0.144026 1.000000
tan 0.032488 -0.969930 -0.052328 1.000000
tan 0.034410 -0.874016 -0.488809 1.000000
tan -0.719449 -0.491785 -0.469093 1.000000
tan -0.007812 -0.992126 -0.007006 1.000000
tan -0.007812 -0.992126 0.008618 1.000000
tan 0.124992 -0.467605 0.874946 1.000000
tan -0.083080 -0.412177 0.906690 1.000000
tan -0.126914 -0.945502 -0.103602 1.000000
tan -0.832104 -0.419555 0.334987 1.000000
tan -0.025792 -1.000000 -0.039370 1.000000
tan -0.260773 -0.864282 -0.353277 1.000000
tan 0.058466 -0.929630 -0.140182 1.000000
tan 0.025482 -0.979354 -0.037324 1.000000
tan 0.107260 -0.942774 -0.061938 1.000000
tan 0.478889 -0.862546 -0.018104 1.000000
tan 0.302933 -0.766879 0.274289 1.000000
tan 0.104966 -0.844752 -0.511501 1.000000
tan 0.743629 -0.254077 -0.571393 1.000000
f 3/3/3 2/2/2 1/1/1
f 6/6/6 5/5/5 4/4/4
f 9/9/9 8/8/8 7/7/7
f 12/12/12 11/11/11 10/10/10
f 15/15/15 14/14/14 13/13/13
f 18/18/18 17/17/17 16/16/16
f 19/19/19 18/18/18 16/16/16
f 18/18/18 19/19/19 20/20/20
f 21/21/21 20/20/20 19/19/19
f 24/24/24 23/23/23 22/22/22
f 25/25/25 23/23/23 24/24/24
f 25/25/25 24/24/24 26/26/26
f 27/27/27 26/26/26 24/24/24
f 28/28/28 26/26/26 27/27/27
f 29/29/29 28/28/28 27/27/27
f 30/30/30 28/28/28 29/29/29
f 30/30/30 31/31/31 28/28/28
f 31/31/31 30/30/30 32/32/32
f 32/32/32 30/30/30 33/33/33
f 34/34/34 33/33/33 30/30/30
f 37/37/37 36/36/36 35/35/35
f 40/40/40 39/39/39 38/38/38
f 43/43/43 42/42/42 41/41/41
f 46/46/46 45/45/45 44/44/44
f 49/49/49 48/48/48 47/47/47
f 52/52/52 51/51/51 50/50/50
f 55/55/55 54/54/54 53/53/53
f 58/58/58 57/57/57 56/56/56
f 61/61/61 60/60/60 59/59/59
f 64/64/64 63/63/63 62/62/62
f 67/67/67 66/66/66 65/65/65
f 70/70/70 69/69/69 68/68/68
f 73/73/73 72/72/72 71/71/71
f 76/76/76 75/75/75 74/74/74
f 79/79/79 78/78/78 77/77/77
f 82/82/82 81/81/81 80/80/80
f 84/84/84 83/83/83 80/80/80
f 86/86/86 85/85/85 84/84/84
f 88/88/88 87/87/87 81/81/81
f 88/88/88 89/89/89 87/87/87
f 87/87/87 89/89/89 90/90/90
f 92/92/92 91/91/91 90/90/90
f 94/94/94 91/91/91 93/93/93
f 95/95/95 94/94/94 93/93/93
f 94/94/94 95/95/95 96/96/96
f 95/95/95 97/97/97 96/96/96
f 97/97/97 86/86/86 96/96/96
f 100/100/100 99/99/99 98/98/98
f 99/99/99 101/101/101 98/98/98
f 102/102/102 100/100/100 98/98/98
f 98/98/98 101/101/101 103/103/103
f 104/104/104 103/103/103 101/101/101
f 105/105/105 103/103/103 104/104/104
f 105/105/105 106/106/106 103/103/103
f 103/103/103 107/107/107 98/98/98
f 98/98/98 107/107/107 102/102/102
f 108/108/108 103/103/103 106/106/106
f 103/103/103 108/108/108 107/107/107
f 106/106/106 109/109/109 108/108/108
f 110/110/110 108/108/108 109/109/109
f 111/111/111 108/108/108 110/110/110
f 112/112/112 108/108/108 111/111/111
f 112/112/112 107/107/107 108/108/108
f 111/111/111 113/113/113 112/112/112
f 114/114/114 107/107/107 112/112/112
f 114/114/114 102/102/102 107/107/107
f 112/112/112 113/113/113 115/115/115
f 116/116/116 115/115/115 113/113/113
f 114/114/114 112/112/112 117/117/117
f 114/114/114 117/117/117 102/102/102
f 115/115/115 117/117/117 112/112/112
f 118/118/118 102/102/102 117/117/117
f 119/119/119 102/102/102 118/118/118
f 120/120/120 119/119/119 118/118/118
f 121/121/121 120/120/120 118/118/118
f 118/118/118 117/117/117 121/121/121
f 120/120/120 121/121/121 122/122/122
f 122/122/122 121/121/121 123/123/123
f 124/124/124 121/121/121 117/117/117
f 121/121/121 124/124/124 123/123/123
f 124/124/124 117/117/117 115/115/115
f 125/125/125 123/123/123 124/124/124
f 123/123/123 125/125/125 126/126/126
f 125/125/125 127/127/127 126/126/126
f 124/124/124 115/115/115 128/128/128
f 124/124/124 128/128/128 125/125/125
f 125/125/125 128/128/128 127/127/127
f 115/115/115 116/116/116 128/128/128
f 129/129/129 127/127/127 128/128/128
f 130/130/130 128/128/128 116/116/116
f 131/131/131 129/129/129 128/128/128
f 128/128/128 130/130/130 131/131/131
