mtllib SM_Book_03_LOD3.mtl
g SM_Book_03_LOD3
#Vertices 20
#Indices 24
#Section 0 Offset 0 NumIndices 24 MaterialIndex 0 MI_Books
v 0.133992 0.016168 -0.079594
v 0.169853 0.059544 0.122478
v -0.123385 0.055247 0.040400
v 0.133992 0.016168 -0.079594
v -0.123385 0.055247 0.040400
v -0.112118 0.034813 -0.105426
v -0.171778 -0.027165 0.127056
v 0.157687 -0.029333 0.055036
v -0.112118 0.034813 -0.105426
v 0.133992 0.016168 -0.079594
v -0.112118 0.034813 -0.105426
v 0.157687 -0.029333 0.055036
v 0.133992 0.016168 -0.079594
v -0.112118 0.034813 -0.105426
v -0.123385 0.055247 0.040400
v 0.169853 0.059544 0.122478
v 0.133992 0.016168 -0.079594
v -0.171778 -0.027165 0.127056
v -0.112118 0.034813 -0.105426
v 0.157687 -0.029333 0.055036
vt 0.321533 0.729004
vt 0.462891 0.705811
vt 0.407227 0.884583
vt 0.948242 0.003418
vt 1.001953 0.195312
vt 0.946777 0.194336
vt 0.153442 0.867920
vt 0.207275 0.668457
vt 0.319336 0.832397
vt 0.968262 0.660889
vt 0.977539 0.854492
vt 0.972168 0.628906
vt 0.175049 0.683838
vt 0.006508 0.698730
vt -0.000906 0.606201
vt 0.201782 0.557861
vt 0.682129 0.616943
vt 0.472656 0.749512
vt 0.512695 0.602051
vt 0.697754 0.703369
vt1 0.851074 0.721680
vt1 0.913086 1.045746
vt1 0.437988 0.918457
vt1 0.897461 0.149902
vt1 1.052734 0.544678
vt1 0.894043 0.543213
vt1 0.245972 0.765869
vt1 0.368896 0.238281
vt1 0.625977 0.671875
vt1 0.418457 0.086914
vt1 0.020462 0.116211
vt1 0.484131 0.099121
vt1 0.417236 0.978714
vt1 0.023270 1.017715
vt1 0.005943 0.777100
vt1 0.479736 0.651855
vt1 0.284424 0.679688
vt1 -0.060120 0.188965
vt1 0.322754 0.283203
vt1 0.059967 0.716309
vn -0.007874 0.968504 -0.244095
vn -0.007874 1.000000 0.047244
vn -0.007874 1.000000 -0.070866
vn 0.007874 0.023622 -1.000000
vn -0.015748 0.858268 0.519685
vn 0.007874 0.070866 -1.000000
vn 0.007874 -1.000000 0.062992
vn 0.007874 -1.000000 -0.047244
vn 0.007874 -0.960630 -0.283464
vn 0.007874 -0.661417 -0.748031
vn 0.007874 0.015748 -1.000000
vn 0.007874 -0.212599 -0.976378
vn 0.007874 -0.944882 0.314961
vn 0.007874 -0.937008 0.354331
vn 0.007874 -1.000000 0.086614
vn 0.007874 -1.000000 -0.055118
vn -0.007874 0.944882 0.314960
vn -0.007874 1.000000 -0.078740
vn -0.007874 0.937008 0.354331
vn -0.007874 1.000000 0.062992
tan 0.968504 0.007874 -0.000000 1.000000
tan 1.000000 0.007874 -0.000000 1.000000
tan 1.000000 0.007874 -0.000000 1.000000
tan 1.000000 0.039370 0.008804 1.000000
tan 0.967698 0.035588 -0.029450 1.000000
tan 1.000000 0.039370 0.010664 1.000000
tan 1.000000 0.007874 -0.000000 1.000000
tan 1.000000 0.007874 -0.000000 1.000000
tan 0.960630 0.007874 -0.000000 1.000000
tan 0.897266 0.048546 -0.033480 1.000000
tan 1.000000 0.047244 0.008618 1.000000
tan 0.972720 0.169570 -0.029078 1.000000
tan 0.000000 0.314961 0.944882 1.000000
tan 0.000000 0.354331 0.937008 1.000000
tan -0.007874 0.086552 1.000000 1.000000
tan -0.007874 -0.055180 1.000000 1.000000
tan 0.000000 0.314960 -0.944882 1.000000
tan 0.007874 -0.078678 -1.000000 1.000000
tan 0.000000 0.354331 -0.937008 1.000000
tan 0.007874 0.063054 -1.000000 1.000000
f 3/3/3 2/2/2 1/1/1
f 6/6/6 5/5/5 4/4/4
f 9/9/9 8/8/8 7/7/7
f 12/12/12 11/11/11 10/10/10
f 15/15/15 14/14/14 13/13/13
f 16/16/16 15/15/15 13/13/13
f 19/19/19 18/18/18 17/17/17
f 20/20/20 17/17/17 18/18/18
