mtllib SM_Beams_04_LOD4.mtl
g SM_Beams_04_LOD4
#Vertices 86
#Indices 282
#Section 0 Offset 0 NumIndices 282 MaterialIndex 0 MI_Beams
v -0.104161 2.475183 0.073751
v 0.103174 2.490829 0.107765
v -0.030073 2.480942 0.115441
v -0.088721 2.476167 -0.032322
v 0.100502 2.478798 -0.112397
v -0.090791 2.463876 -0.116114
v -0.103577 2.460754 -0.101663
v -0.091368 2.464262 -0.048719
v 0.088483 1.793286 -0.057729
v 0.083340 1.784487 -0.107359
v 0.089921 1.767405 -0.005667
v 0.089761 1.528124 -0.055555
v 0.085659 1.787769 0.103822
v 0.085399 1.619334 -0.108242
v 0.108666 0.024845 0.098940
v 0.080683 1.771400 0.114946
v 0.095730 1.305591 -0.099099
v 0.074727 1.198366 -0.111319
v 0.091301 0.815989 -0.112515
v 0.096545 0.121623 -0.108030
v 0.076223 0.163984 -0.109313
v 0.106460 0.035345 -0.095575
v 0.095916 -0.000943 -0.085771
v 0.098100 0.006365 0.112912
v 0.072089 1.473021 0.120315
v -0.037229 1.766698 0.119221
v -0.097321 1.800474 0.122796
v -0.083964 0.287707 0.115548
v -0.090516 0.003782 0.112841
v -0.106378 1.796893 0.115816
v -0.097235 0.195965 0.091074
v -0.092747 -0.000956 0.019534
v -0.093558 0.005364 -0.093890
v -0.098739 1.296858 -0.102272
v -0.105982 1.770682 -0.004156
v -0.106546 1.814113 -0.067754
v -0.091085 0.000958 -0.111151
v -0.104719 1.814043 -0.106947
v -0.083006 0.131173 -0.113894
v 0.062360 0.000216 -0.109758
v -0.078657 0.881805 -0.117127
v -0.084563 1.816942 -0.109282
v 0.106460 0.035345 -0.095575
v 0.095916 -0.000943 -0.085771
v 0.076223 0.163984 -0.109313
v 0.096545 0.121623 -0.108030
v 0.091301 0.815989 -0.112515
v 0.074727 1.198366 -0.111319
v 0.085399 1.619334 -0.108242
v 0.083340 1.784487 -0.107359
v -0.091085 0.000958 -0.111151
v -0.093558 0.005364 -0.093890
v -0.092747 -0.000956 0.019534
v 0.062360 0.000216 -0.109758
v 0.095916 -0.000943 -0.085771
v 0.098100 0.006365 0.112912
v -0.090516 0.003782 0.112841
v 0.100502 2.478798 -0.112397
v -0.090791 2.463876 -0.116114
v 0.083340 1.784487 -0.107359
v -0.084563 1.816942 -0.109282
v -0.104719 1.814043 -0.106947
v -0.104839 2.181602 -0.085184
v -0.106546 1.814113 -0.067754
v -0.103577 2.460754 -0.101663
v -0.105982 1.770682 -0.004156
v -0.091368 2.464262 -0.048719
v -0.100412 2.157022 -0.040817
v -0.088721 2.476167 -0.032322
v -0.106031 2.218187 0.110920
v -0.106378 1.796893 0.115816
v -0.104161 2.475183 0.073751
v -0.097321 1.800474 0.122796
v -0.093988 2.246062 0.124387
v -0.030073 2.480942 0.115441
v -0.037229 1.766698 0.119221
v 0.057684 2.373294 0.119260
v 0.080683 1.771400 0.114946
v 0.103174 2.490829 0.107765
v 0.085659 1.787769 0.103822
v 0.105836 2.467736 0.022266
v 0.089921 1.767405 -0.005667
v 0.100502 2.478798 -0.112397
v 0.088483 1.793286 -0.057729
v 0.102603 2.434448 -0.080246
v 0.083340 1.784487 -0.107359
vt 0.000222 0.558838
vt 0.029129 0.565674
vt 0.010590 0.567383
vt 0.002480 0.536621
vt 0.029022 0.520264
vt 0.002430 0.519043
vt 0.000527 0.521973
vt 0.001718 0.532959
vt 0.448730 0.449219
vt 0.459229 0.450195
vt 0.437988 0.453125
vt 0.448730 0.486328
vt 0.415527 0.450195
vt 0.459229 0.473633
vt 0.416992 0.695557
vt 0.412598 0.452637
vt 0.457275 0.517090
vt 0.461670 0.532227
vt 0.460938 0.585205
vt 0.460693 0.682129
vt 0.463379 0.676025
vt 0.457764 0.694092
vt 0.455078 0.699463
vt 0.413574 0.698242
vt 0.411377 0.494141
vt 0.395752 0.453125
vt 0.387939 0.448730
vt 0.388428 0.658936
vt 0.387451 0.698242
vt 0.385742 0.448730
vt 0.382812 0.671875
vt 0.368408 0.699463
vt 0.344727 0.698730
vt 0.341064 0.518555
vt 0.361084 0.452637
vt 0.347900 0.446777
vt 0.341309 0.699219
vt 0.339355 0.446777
vt 0.339355 0.681152
vt 0.319824 0.699951
vt 0.337891 0.576660
vt 0.336914 0.446289
vt 0.313477 0.695312
vt 0.313232 0.701416
vt 0.316895 0.677002
vt 0.314697 0.683105
vt 0.314697 0.585938
vt 0.314941 0.532715
vt 0.312988 0.473633
vt 0.313965 0.450684
vt 0.032928 0.570801
vt 0.032440 0.567139
vt 0.032867 0.543701
vt 0.054291 0.570557
vt 0.058990 0.565674
vt 0.059570 0.524414
vt 0.033325 0.524414
vt 0.452148 0.890564
vt 0.479004 0.892090
vt 0.457764 0.987839
vt 0.480957 0.982498
vt 0.483154 0.982941
vt 0.487061 0.931458
vt 0.490967 0.982864
vt 0.483398 0.892578
vt 0.503906 0.988953
vt 0.495117 0.891846
vt 0.497314 0.934814
vt 0.500977 0.890320
vt 0.528320 0.927246
vt 0.529297 0.985649
vt 0.524414 0.891541
vt 0.530273 0.984940
vt 0.531738 0.923706
vt 0.538574 0.890930
vt 0.538574 0.989830
vt 0.552246 0.905640
vt 0.555176 0.989212
vt 0.558105 0.889038
vt 0.558105 0.987083
vt 0.575195 0.892090
vt 0.581055 0.989929
vt 0.603027 0.890320
vt 0.591797 0.986366
vt 0.596680 0.896606
vt 0.602051 0.987724
vt1 0.623047 0.879028
vt1 0.604492 0.994686
vt1 0.600098 0.920532
vt1 0.683105 0.888062
vt1 0.727539 0.994232
vt1 0.730957 0.887878
vt1 0.723145 0.880249
vt1 0.693359 0.885010
vt1 0.529297 0.014648
vt1 0.569824 0.019043
vt1 0.487793 0.028809
vt1 0.528809 0.158203
vt1 0.400391 0.018066
vt1 0.569336 0.108887
vt1 0.405518 0.972321
vt1 0.388916 0.026855
vt1 0.562988 0.278809
vt1 0.579102 0.336914
vt1 0.577148 0.543457
vt1 0.575684 0.919983
vt1 0.586426 0.896790
vt1 0.563965 0.966949
vt1 0.554199 0.987701
vt1 0.392822 0.982239
vt1 0.383789 0.188477
vt1 0.323730 0.029785
vt1 0.292480 0.011719
vt1 0.294922 0.829468
vt1 0.291260 0.983002
vt1 0.284180 0.012695
vt1 0.273193 0.879761
vt1 0.217407 0.987152
vt1 0.125122 0.984413
vt1 0.110840 0.284668
vt1 0.189087 0.027832
vt1 0.137329 0.003906
vt1 0.111450 0.986397
vt1 0.104614 0.004883
vt1 0.104187 0.916687
vt1 0.028687 0.989464
vt1 0.098938 0.510010
vt1 0.094482 0.002930
vt1 0.003328 0.971237
vt1 0.002726 0.994946
vt1 0.017273 0.900085
vt1 0.007919 0.924194
vt1 0.008629 0.546387
vt1 0.009544 0.339355
vt1 0.001621 0.110352
vt1 0.005322 0.020996
vt1 0.740723 0.889465
vt1 0.750488 0.887512
vt1 0.813965 0.889160
vt1 0.741211 0.974869
vt1 0.754395 0.993748
vt1 0.865723 0.996101
vt1 0.865723 0.890991
vt1 0.989746 0.885681
vt1 0.983887 0.799683
vt1 0.601074 0.868164
vt1 0.622559 0.794189
vt1 0.620605 0.786621
vt1 0.826660 0.774048
vt1 0.621094 0.761597
vt1 0.981934 0.786255
vt1 0.596680 0.719482
vt1 0.984863 0.748535
vt1 0.812988 0.741699
vt1 0.991211 0.730225
vt1 0.843262 0.642090
vt1 0.609863 0.639648
vt1 0.985840 0.655518
vt1 0.612793 0.636230
vt1 0.857422 0.631348
vt1 0.988281 0.609863
vt1 0.593262 0.609375
vt1 0.929688 0.566162
vt1 0.595703 0.556396
vt1 0.996094 0.547607
vt1 0.604004 0.546875
vt1 0.983887 0.492188
vt1 0.592773 0.474609
vt1 0.991211 0.404297
vt1 0.606934 0.439941
vt1 0.965820 0.424805
vt1 0.601562 0.406738
vn -0.511811 0.834646 -0.204724
vn 0.259843 0.952756 0.173228
vn -0.149606 0.748031 0.645669
vn -0.251969 0.968504 -0.015748
vn 0.149606 0.968504 -0.188976
vn -0.165354 0.842520 -0.511811
vn -0.543307 0.818897 -0.204724
vn -0.779528 0.307087 0.543307
vn 1.000000 0.000000 0.031496
vn 0.968504 -0.000000 -0.236220
vn 1.000000 -0.007874 -0.007874
vn 1.000000 -0.000000 -0.015748
vn 1.000000 -0.015748 0.047244
vn 0.645669 -0.007874 -0.763779
vn 0.992126 -0.007874 0.133858
vn 0.354331 0.015748 0.937008
vn 1.000000 0.031496 -0.039370
vn 0.149606 0.007874 -0.992126
vn 0.259843 -0.000000 -0.968504
vn 0.259843 0.007874 -0.968504
vn -0.015748 -0.000000 -1.000000
vn 0.976378 -0.000000 -0.228346
vn 0.511811 -0.803150 -0.299212
vn 0.181102 -0.023622 0.984252
vn 0.133858 0.000000 0.992126
vn 0.007874 0.007874 1.000000
vn -0.110236 0.015748 0.992126
vn -0.118110 -0.015748 0.992126
vn -0.543307 -0.228346 0.811023
vn -0.992126 0.000000 0.133858
vn -0.992126 0.000000 0.125984
vn -0.874016 -0.488189 -0.086614
vn -0.992126 -0.078740 -0.062992
vn -0.976378 -0.000000 -0.204724
vn -1.000000 -0.015748 0.007874
vn -1.000000 0.023622 0.007874
vn -0.543307 -0.133858 -0.834646
vn -0.543307 0.031496 -0.842520
vn -0.023622 0.007874 -1.000000
vn 0.204724 -0.322835 -0.929134
vn -0.133858 -0.000000 -0.992126
vn -0.110236 0.015748 -0.992126
vn 0.275591 -0.125984 -0.952756
vn 0.330709 -0.897638 -0.283464
vn 0.055118 -0.000000 -1.000000
vn 0.062992 0.007874 -1.000000
vn 0.133858 -0.000000 -0.992126
vn 0.141732 0.007874 -0.992126
vn 0.133858 0.015748 -0.992126
vn 0.181102 -0.007874 -0.984252
vn -0.283465 -0.755905 -0.590551
vn -0.897638 -0.425197 -0.086614
vn -0.354331 -0.929134 0.110236
vn 0.181102 -0.779527 -0.598425
vn 0.110236 -0.992126 -0.023622
vn 0.393701 -0.889764 0.236221
vn -0.346457 -0.858268 0.377953
vn 0.141732 0.086614 -0.984252
vn -0.165354 0.055118 -0.984252
vn 0.133858 -0.023622 -0.992126
vn -0.102362 -0.039370 -0.992126
vn -0.787402 0.055118 -0.614173
vn -1.000000 -0.039370 -0.055118
vn -1.000000 0.023622 -0.000000
vn -0.960630 0.267716 -0.031496
vn -1.000000 -0.015748 -0.062992
vn -0.748031 0.078740 0.661417
vn -1.000000 0.062992 -0.047244
vn -0.937008 0.110236 -0.338583
vn -1.000000 -0.007874 0.047244
vn -0.889764 -0.007874 0.456693
vn -0.881890 0.314961 0.354331
vn -0.330709 0.000000 0.944882
vn -0.157480 0.047244 0.984252
vn -0.173228 0.157480 0.968504
vn -0.031496 0.023622 1.000000
vn 0.110236 -0.007874 0.992126
vn 0.196850 0.000000 0.976378
vn 0.748031 0.149606 0.653543
vn 0.992126 -0.023622 0.149606
vn 1.000000 -0.007874 -0.039370
vn 1.000000 -0.031496 0.015748
vn 0.787402 0.196850 -0.590551
vn 1.000000 -0.000000 -0.007874
vn 1.000000 -0.031496 -0.055118
vn 0.795276 -0.023622 -0.606299
tan -0.034596 -0.228905 -0.846736 1.000000
tan -0.022506 0.179366 -0.952756 1.000000
tan -0.010168 0.645669 -0.750387 1.000000
tan -0.076260 -0.035588 -0.968504 1.000000
tan 0.022878 -0.192510 -0.968504 1.000000
tan -0.006634 -0.513113 -0.842520 1.000000
tan -0.106392 -0.280117 -0.838117 1.000000
tan -0.497923 0.117180 -0.780643 1.000000
tan 0.000248 1.000000 -0.007874 1.000000
tan -0.007440 0.970364 -0.030504 1.000000
tan 0.007812 1.000000 -0.007874 1.000000
tan 0.000000 1.000000 -0.000000 1.000000
tan 0.016492 1.000000 -0.015748 1.000000
tan -0.099758 0.919028 -0.093806 1.000000
tan 0.005766 0.992126 0.015624 1.000000
tan 0.065534 0.949160 -0.040734 1.000000
tan -0.032116 1.000000 -0.015748 1.000000
tan -0.039060 0.992126 0.001984 1.000000
tan -0.045756 0.968504 -0.012276 1.000000
tan -0.007626 0.968504 0.005828 1.000000
tan 0.000000 1.000000 -0.000000 1.000000
tan 0.010788 0.976378 0.046128 1.000000
tan 0.806250 0.552545 -0.104036 1.000000
tan 0.000000 0.984252 0.023622 1.000000
tan 0.000000 0.992126 -0.000000 1.000000
tan 0.007874 1.000000 -0.007936 1.000000
tan 0.000000 0.992126 -0.015748 1.000000
tan -0.007812 0.992126 0.014818 1.000000
tan 0.164548 0.909914 0.366421 1.000000
tan 0.001054 0.992126 0.007812 1.000000
tan 0.002976 0.992126 0.023436 1.000000
tan -0.486825 0.874016 -0.013764 1.000000
tan -0.078740 0.992126 -0.000000 1.000000
tan -0.004836 0.976378 0.023064 1.000000
tan -0.015748 1.000000 -0.000000 1.000000
tan 0.023684 1.000000 0.007874 1.000000
tan -0.052328 0.860314 -0.103912 1.000000
tan -0.043710 0.882944 0.061194 1.000000
tan -0.015748 1.000000 0.008246 1.000000
tan -0.043896 0.929134 -0.332507 1.000000
tan -0.015624 0.992126 0.002108 1.000000
tan -0.007812 0.992126 0.016616 1.000000
tan -0.060016 0.952756 -0.143344 1.000000
tan 0.487693 0.418501 -0.756277 1.000000
tan -0.007874 1.000000 -0.000434 1.000000
tan -0.062992 1.000000 0.003906 1.000000
tan -0.015624 0.992126 -0.002108 1.000000
tan -0.031248 0.992126 0.003410 1.000000
tan 0.015624 0.992126 0.017856 1.000000
tan -0.007750 0.984252 -0.009300 1.000000
tan -0.043152 -0.588319 0.773762 1.000000
tan -0.039060 -0.100316 0.897266 1.000000
tan -0.012896 0.115816 0.934714 1.000000
tan -0.004278 -0.602703 0.783805 1.000000
tan -0.023436 -0.026226 0.992126 1.000000
tan 0.007006 0.239321 0.889764 1.000000
tan -0.051088 0.399777 0.860996 1.000000
tan -0.007750 0.984252 0.085498 1.000000
tan -0.077500 0.984252 0.068138 1.000000
tan -0.054684 0.992126 -0.031000 1.000000
tan -0.039060 0.992126 -0.035340 1.000000
tan 0.107880 0.834398 -0.063426 1.000000
tan -0.040672 1.000000 0.023622 1.000000
tan 0.023622 1.000000 -0.000000 1.000000
tan 0.266477 0.960630 0.037820 1.000000
tan -0.015748 1.000000 -0.000000 1.000000
tan 0.150412 0.809164 0.073780 1.000000
tan 0.062992 1.000000 -0.000000 1.000000
tan 0.128898 0.939674 -0.050778 1.000000
tan -0.009734 1.000000 -0.039370 1.000000
tan -0.033046 0.896956 -0.048918 1.000000
tan 0.154070 0.865522 -0.385889 1.000000
tan -0.022320 0.944882 -0.007812 1.000000
tan -0.023250 0.984252 -0.050964 1.000000
tan 0.015252 0.968504 -0.154752 1.000000
tan 0.000000 1.000000 -0.023622 1.000000
tan 0.023436 0.992126 0.005270 1.000000
tan -0.007688 0.976378 0.001550 1.000000
tan 0.227416 0.741211 -0.429971 1.000000
tan 0.023622 0.992126 -0.000000 1.000000
tan 0.007564 1.000000 -0.007874 1.000000
tan 0.031496 1.000000 -0.000000 1.000000
tan -0.265051 0.897452 -0.054250 1.000000
tan 0.000062 1.000000 0.007874 1.000000
tan 0.029760 1.000000 -0.031496 1.000000
tan 0.468411 0.629859 0.589869 1.000000
f 3/3/3 2/2/2 1/1/1
f 2/2/2 4/4/4 1/1/1
f 2/2/2 5/5/5 4/4/4
f 4/4/4 5/5/5 6/6/6
f 4/4/4 6/6/6 7/7/7
f 7/7/7 8/8/8 4/4/4
f 11/11/11 10/10/10 9/9/9
f 12/12/12 10/10/10 11/11/11
f 13/13/13 12/12/12 11/11/11
f 14/14/14 10/10/10 12/12/12
f 12/12/12 13/13/13 15/15/15
f 13/13/13 16/16/16 15/15/15
f 14/14/14 12/12/12 17/17/17
f 12/12/12 15/15/15 17/17/17
f 19/19/19 18/18/18 14/14/14
f 17/17/17 19/19/19 14/14/14
f 21/21/21 19/19/19 20/20/20
f 19/19/19 17/17/17 20/20/20
f 22/22/22 20/20/20 17/17/17
f 17/17/17 15/15/15 22/22/22
f 15/15/15 23/23/23 22/22/22
f 23/23/23 15/15/15 24/24/24
f 25/25/25 15/15/15 16/16/16
f 24/24/24 15/15/15 25/25/25
f 16/16/16 26/26/26 25/25/25
f 25/25/25 26/26/26 27/27/27
f 28/28/28 24/24/24 25/25/25
f 28/28/28 25/25/25 27/27/27
f 24/24/24 28/28/28 29/29/29
f 30/30/30 28/28/28 27/27/27
f 28/28/28 30/30/30 29/29/29
f 29/29/29 30/30/30 31/31/31
f 29/29/29 31/31/31 32/32/32
f 32/32/32 31/31/31 33/33/33
f 31/31/31 30/30/30 34/34/34
f 31/31/31 34/34/34 33/33/33
f 35/35/35 34/34/34 30/30/30
f 34/34/34 35/35/35 36/36/36
f 34/34/34 37/37/37 33/33/33
f 36/36/36 38/38/38 34/34/34
f 39/39/39 37/37/37 34/34/34
f 40/40/40 37/37/37 39/39/39
f 41/41/41 34/34/34 38/38/38
f 41/41/41 39/39/39 34/34/34
f 41/41/41 38/38/38 42/42/42
f 40/40/40 39/39/39 43/43/43
f 44/44/44 40/40/40 43/43/43
f 45/45/45 43/43/43 39/39/39
f 46/46/46 43/43/43 45/45/45
f 45/45/45 39/39/39 41/41/41
f 41/41/41 47/47/47 45/45/45
f 47/47/47 41/41/41 48/48/48
f 49/49/49 48/48/48 41/41/41
f 41/41/41 42/42/42 49/49/49
f 50/50/50 49/49/49 42/42/42
f 53/53/53 52/52/52 51/51/51
f 54/54/54 53/53/53 51/51/51
f 53/53/53 54/54/54 55/55/55
f 53/53/53 55/55/55 56/56/56
f 56/56/56 57/57/57 53/53/53
f 60/60/60 59/59/59 58/58/58
f 61/61/61 59/59/59 60/60/60
f 61/61/61 62/62/62 59/59/59
f 63/63/63 59/59/59 62/62/62
f 64/64/64 63/63/63 62/62/62
f 63/63/63 65/65/65 59/59/59
f 63/63/63 64/64/64 66/66/66
f 63/63/63 67/67/67 65/65/65
f 63/63/63 68/68/68 67/67/67
f 63/63/63 66/66/66 68/68/68
f 67/67/67 68/68/68 69/69/69
f 66/66/66 70/70/70 68/68/68
f 69/69/69 68/68/68 70/70/70
f 71/71/71 70/70/70 66/66/66
f 70/70/70 72/72/72 69/69/69
f 71/71/71 73/73/73 70/70/70
f 74/74/74 72/72/72 70/70/70
f 73/73/73 74/74/74 70/70/70
f 72/72/72 74/74/74 75/75/75
f 73/73/73 76/76/76 74/74/74
f 77/77/77 75/75/75 74/74/74
f 74/74/74 76/76/76 77/77/77
f 76/76/76 78/78/78 77/77/77
f 77/77/77 79/79/79 75/75/75
f 77/77/77 78/78/78 79/79/79
f 79/79/79 78/78/78 80/80/80
f 81/81/81 79/79/79 80/80/80
f 80/80/80 82/82/82 81/81/81
f 81/81/81 83/83/83 79/79/79
f 84/84/84 81/81/81 82/82/82
f 81/81/81 85/85/85 83/83/83
f 85/85/85 81/81/81 84/84/84
f 86/86/86 83/83/83 85/85/85
f 86/86/86 85/85/85 84/84/84
