mtllib SM_Brush_LOD3.mtl
g SM_Brush_LOD3
#Vertices 120
#Indices 150
#Section 0 Offset 0 NumIndices 150 MaterialIndex 0 MI_Brush
v -0.000581 -0.011032 0.056979
v 0.051161 0.069362 0.027575
v 0.073104 -0.019081 0.037324
v 0.073104 -0.019081 0.037324
v 0.099272 0.091802 0.006073
v 0.157138 -0.002425 0.030425
v 0.099272 0.091802 0.006073
v 0.114451 -0.010821 -0.003206
v 0.157138 -0.002425 0.030425
v 0.099272 0.091802 0.006073
v 0.092412 -0.009682 -0.045088
v 0.114451 -0.010821 -0.003206
v 0.051320 0.070361 -0.024585
v 0.000803 -0.010559 -0.054666
v 0.092412 -0.009682 -0.045088
v 0.000803 -0.010559 -0.054666
v -0.051813 0.070935 -0.024498
v -0.069438 -0.018068 -0.035832
v -0.069438 -0.018068 -0.035832
v -0.097195 0.090669 0.005644
v -0.156721 -0.000519 -0.028125
v -0.097195 0.090669 0.005644
v -0.116831 -0.014185 0.007576
v -0.156721 -0.000519 -0.028125
v -0.052149 0.075771 0.024420
v -0.000581 -0.011032 0.056979
v -0.078966 -0.014761 0.044149
v -0.000000 -0.000104 0.001246
v -0.000581 -0.011032 0.056979
v 0.073104 -0.019081 0.037324
v -0.000000 -0.000104 0.001246
v 0.073104 -0.019081 0.037324
v 0.114451 -0.010821 -0.003206
v -0.000000 -0.000104 0.001246
v 0.114451 -0.010821 -0.003206
v 0.092412 -0.009682 -0.045088
v -0.000000 -0.000104 0.001246
v 0.092412 -0.009682 -0.045088
v 0.000803 -0.010559 -0.054666
v -0.000000 -0.000104 0.001246
v 0.000803 -0.010559 -0.054666
v -0.069438 -0.018068 -0.035832
v -0.000000 -0.000104 0.001246
v -0.069438 -0.018068 -0.035832
v -0.116831 -0.014185 0.007576
v -0.000000 -0.000104 0.001246
v -0.116831 -0.014185 0.007576
v -0.078966 -0.014761 0.044149
v -0.000000 -0.000104 0.001246
v -0.078966 -0.014761 0.044149
v -0.000581 -0.011032 0.056979
v -0.116831 -0.014185 0.007576
v -0.069438 -0.018068 -0.035832
v -0.156721 -0.000519 -0.028125
v 0.114451 -0.010821 -0.003206
v 0.073104 -0.019081 0.037324
v 0.157138 -0.002425 0.030425
v -0.097195 0.090669 0.005644
v -0.078966 -0.014761 0.044149
v -0.116831 -0.014185 0.007576
v 0.073104 -0.019081 0.037324
v 0.051161 0.069362 0.027575
v 0.099272 0.091802 0.006073
v 0.099272 0.091802 0.006073
v 0.051320 0.070361 -0.024585
v 0.092412 -0.009682 -0.045088
v -0.069438 -0.018068 -0.035832
v -0.051813 0.070935 -0.024498
v -0.097195 0.090669 0.005644
v -0.052149 0.075771 0.024420
v 0.051161 0.069362 0.027575
v -0.000581 -0.011032 0.056979
v -0.097195 0.090669 0.005644
v -0.052149 0.075771 0.024420
v -0.078966 -0.014761 0.044149
v -0.000575 0.568559 0.027699
v -0.030534 0.566412 0.011611
v 0.008345 0.572754 -0.036792
v 0.051320 0.070361 -0.024585
v -0.000006 0.070798 -0.028799
v 0.000803 -0.010559 -0.054666
v 0.000803 -0.010559 -0.054666
v -0.051813 0.070935 -0.024498
v -0.111257 0.069702 -0.037096
v 0.110300 0.069315 -0.037048
v 0.079404 0.121047 -0.027593
v -0.079188 0.121605 -0.026219
v -0.079188 0.121605 -0.026219
v 0.079404 0.121047 -0.027593
v 0.078653 0.121510 0.027380
v -0.079144 0.121335 0.026623
v -0.112211 0.070518 0.037381
v 0.078653 0.121510 0.027380
v 0.111085 0.068564 0.036264
v -0.079144 0.121335 0.026623
v 0.079404 0.121047 -0.027593
v 0.111085 0.068564 0.036264
v 0.078653 0.121510 0.027380
v 0.110300 0.069315 -0.037048
v -0.079188 0.121605 -0.026219
v -0.112211 0.070518 0.037381
v -0.111257 0.069702 -0.037096
v -0.079144 0.121335 0.026623
v -0.111257 0.069702 -0.037096
v -0.112211 0.070518 0.037381
v -0.000050 0.069007 0.000107
v 0.110300 0.069315 -0.037048
v -0.000050 0.069007 0.000107
v 0.111085 0.068564 0.036264
v -0.000050 0.069007 0.000107
v -0.000050 0.069007 0.000107
v -0.000575 0.568559 0.027699
v -0.000948 0.106772 0.024695
v -0.030534 0.566412 0.011611
v -0.024301 0.107871 0.000533
v 0.008345 0.572754 -0.036792
v 0.014693 0.107505 -0.022451
v 0.025776 0.551031 0.012125
v -0.000575 0.568559 0.027699
v -0.000948 0.106772 0.024695
vt 0.462158 0.327637
vt 0.621094 0.421875
vt 0.460449 0.461914
vt 0.464111 0.477539
vt 0.672852 0.511719
vt 0.491943 0.620361
vt 0.471191 0.139648
vt 0.318359 0.057129
vt 0.328125 0.000000
vt 0.487061 0.125977
vt 0.278320 0.148438
vt 0.303223 0.087891
vt 0.431641 0.225098
vt 0.274902 0.322754
vt 0.275391 0.157227
vt 0.273682 0.329102
vt 0.437988 0.419922
vt 0.275635 0.458496
vt 0.280273 0.471680
vt 0.494385 0.507080
vt 0.316162 0.622314
vt 0.665527 0.145508
vt 0.503418 0.051758
vt 0.525879 -0.001953
vt 0.634277 0.226562
vt 0.462646 0.321777
vt 0.463867 0.180176
vt 0.598145 0.649658
vt 0.595703 0.752319
vt 0.464844 0.718506
vt 0.598145 0.649658
vt 0.465332 0.719482
vt 0.387695 0.659668
vt 0.605469 0.763428
vt 0.816895 0.779053
vt 0.775391 0.850952
vt 0.605469 0.763428
vt 0.775391 0.850830
vt 0.608398 0.866455
vt 0.605469 0.763428
vt 0.600586 0.866333
vt 0.476562 0.829590
vt 0.605469 0.763428
vt 0.476807 0.830200
vt 0.389893 0.762085
vt 0.598145 0.649658
vt 0.814453 0.664551
vt 0.745605 0.725830
vt 0.598145 0.649658
vt 0.746094 0.725342
vt 0.605469 0.752197
vt 0.395264 0.758911
vt 0.475098 0.832153
vt 0.316650 0.812988
vt 0.391357 0.657715
vt 0.459961 0.722656
vt 0.310547 0.707764
vt 0.670898 0.139160
vt 0.465088 0.172852
vt 0.483887 0.099121
vt 0.465088 0.471680
vt 0.620605 0.421387
vt 0.673828 0.514893
vt 0.487793 0.125488
vt 0.431641 0.225098
vt 0.278076 0.150391
vt 0.280518 0.469727
vt 0.437744 0.419922
vt 0.493652 0.511719
vt 0.633789 0.227051
vt 0.621094 0.421387
vt 0.464600 0.324219
vt 0.670898 0.138184
vt 0.633789 0.227051
vt 0.465820 0.174316
vt 0.398926 0.073242
vt 0.346191 0.045410
vt 0.416992 -0.039062
vt 0.431641 0.225098
vt 0.432129 0.322266
vt 0.276123 0.323730
vt 0.276367 0.326172
vt 0.437744 0.419922
vt 0.900879 0.344238
vt 0.900391 0.747070
vt 0.996094 0.694336
vt 0.999023 0.398438
vt 0.998535 0.001953
vt 1.000977 0.298828
vt 0.900879 0.297363
vt 0.902344 0.001953
vt 0.805664 -0.007812
vt 0.901855 0.343262
vt 0.802734 0.398438
vt 0.900391 0.048828
vt 0.682129 0.630127
vt 0.800293 0.517090
vt 0.787109 0.628662
vt 0.666016 0.518066
vt 0.784668 0.516602
vt 0.665527 0.407227
vt 0.801758 0.406250
vt 0.684082 0.518799
vt 0.803711 0.407227
vt 0.666016 0.408691
vt 0.734863 0.201660
vt 0.803711 -0.001953
vt 0.734863 0.201660
vt 0.667969 -0.003906
vt 0.734863 0.201660
vt 0.734863 0.201660
vt -0.000472 0.861206
vt 0.031952 0.001465
vt 0.060577 0.853271
vt 0.092346 0.003906
vt 0.170166 0.862671
vt 0.171265 0.003418
vt 0.253418 0.823853
vt 0.309570 0.859985
vt 0.262207 0.000000
vt1 0.000000 0.000000
vt1 0.000000 0.000000
vt1 0.000000 0.000000
vt1 0.000000 0.000000
vt1 0.000000 0.000000
vt1 0.000000 0.000000
vt1 0.000000 0.000000
vt1 0.000000 0.000000
vt1 0.000000 0.000000
vt1 0.000000 0.000000
vt1 0.000000 0.000000
vt1 0.000000 0.000000
vt1 0.000000 0.000000
vt1 0.000000 0.000000
vt1 0.000000 0.000000
vt1 0.000000 0.000000
vt1 0.000000 0.000000
vt1 0.000000 0.000000
vt1 0.000000 0.000000
vt1 0.000000 0.000000
vt1 0.000000 0.000000
vt1 0.000000 0.000000
vt1 0.000000 0.000000
vt1 0.000000 0.000000
vt1 0.000000 0.000000
vt1 0.000000 0.000000
vt1 0.000000 0.000000
vt1 0.000000 0.000000
vt1 0.000000 0.000000
vt1 0.000000 0.000000
vt1 0.000000 0.000000
vt1 0.000000 0.000000
vt1 0.000000 0.000000
vt1 0.000000 0.000000
vt1 0.000000 0.000000
vt1 0.000000 0.000000
vt1 0.000000 0.000000
vt1 0.000000 0.000000
vt1 0.000000 0.000000
vt1 0.000000 0.000000
vt1 0.000000 0.000000
vt1 0.000000 0.000000
vt1 0.000000 0.000000
vt1 0.000000 0.000000
vt1 0.000000 0.000000
vt1 0.000000 0.000000
vt1 0.000000 0.000000
vt1 0.000000 0.000000
vt1 0.000000 0.000000
vt1 0.000000 0.000000
vt1 0.000000 0.000000
vt1 0.000000 0.000000
vt1 0.000000 0.000000
vt1 0.000000 0.000000
vt1 0.000000 0.000000
vt1 0.000000 0.000000
vt1 0.000000 0.000000
vt1 0.000000 0.000000
vt1 0.000000 0.000000
vt1 0.000000 0.000000
vt1 0.000000 0.000000
vt1 0.000000 0.000000
vt1 0.000000 0.000000
vt1 0.000000 0.000000
vt1 0.000000 0.000000
vt1 0.000000 0.000000
vt1 0.000000 0.000000
vt1 0.000000 0.000000
vt1 0.000000 0.000000
vt1 0.000000 0.000000
vt1 0.000000 0.000000
vt1 0.000000 0.000000
vt1 0.000000 0.000000
vt1 0.000000 0.000000
vt1 0.000000 0.000000
vt1 0.999023 0.090820
vt1 0.946289 0.106934
vt1 0.937012 0.004883
vt1 0.000000 0.000000
vt1 0.000000 0.000000
vt1 0.000000 0.000000
vt1 0.000000 0.000000
vt1 0.000000 0.000000
vt1 0.704590 0.453613
vt1 0.705566 0.832642
vt1 0.615234 0.780151
vt1 0.613770 0.508057
vt1 0.859863 0.506348
vt1 0.861816 0.778687
vt1 0.768066 0.777466
vt1 0.769531 0.506592
vt1 0.898438 0.060547
vt1 0.987793 0.387695
vt1 0.895508 0.442871
vt1 0.987793 0.116699
vt1 0.825195 0.893677
vt1 0.720215 0.785034
vt1 0.826172 0.797852
vt1 0.721191 0.908386
vt1 0.428955 0.778564
vt1 0.324707 0.887329
vt1 0.324219 0.762085
vt1 0.428955 0.870483
vt1 0.996094 0.824707
vt1 0.872559 0.825928
vt1 0.934082 0.803223
vt1 0.996094 0.448242
vt1 0.975098 0.636230
vt1 0.873535 0.448242
vt1 0.893555 0.636230
vt1 0.934082 0.469238
vt1 0.006603 0.795532
vt1 0.039246 0.007812
vt1 0.063782 0.792847
vt1 0.095581 0.011719
vt1 0.165161 0.803345
vt1 0.168945 0.011230
vt1 0.242310 0.765503
vt1 0.294922 0.795166
vt1 0.253662 0.007324
vn -0.023622 0.133858 0.992126
vn 0.307087 0.173228 0.937008
vn 0.362205 0.015748 0.929134
vn 0.448819 0.173228 0.874016
vn 0.740157 0.236221 0.629921
vn 0.826772 0.204724 0.519685
vn 0.944882 0.322835 0.015748
vn 0.866142 0.251968 -0.440945
vn 0.976378 0.220472 -0.000000
vn 0.834646 0.275590 -0.472441
vn 0.393701 0.118110 -0.913386
vn 0.716535 0.220472 -0.669291
vn 0.291339 0.181102 -0.937008
vn 0.015748 0.133858 -0.992126
vn 0.314961 0.055118 -0.944882
vn 0.062992 0.118110 -0.992126
vn -0.330709 0.181102 -0.929134
vn 0.055118 -0.062992 -1.000000
vn -0.559055 0.165354 -0.811023
vn -0.708661 0.244094 -0.661417
vn -0.811024 0.212598 -0.551181
vn -0.944882 0.322835 -0.007874
vn -0.881890 0.251969 0.393701
vn -0.976378 0.220472 -0.015748
vn -0.299213 0.181102 0.937008
vn -0.023622 0.141732 0.992126
vn -0.362205 0.125984 0.921260
vn 0.000000 -1.000000 0.000000
vn 0.000000 -0.992126 0.094488
vn 0.015748 -1.000000 0.070866
vn 0.000000 -1.000000 0.000000
vn 0.015748 -1.000000 0.070866
vn 0.039370 -1.000000 0.023622
vn 0.000000 -1.000000 0.000000
vn 0.031496 -1.000000 -0.031496
vn 0.023622 -0.992126 -0.094488
vn 0.000000 -1.000000 0.000000
vn 0.023622 -0.992126 -0.094488
vn 0.000000 -0.992126 -0.094488
vn 0.000000 -1.000000 0.000000
vn 0.000000 -0.992126 -0.094488
vn -0.015748 -1.000000 -0.070866
vn 0.000000 -1.000000 0.000000
vn -0.015748 -1.000000 -0.070866
vn -0.039370 -1.000000 -0.023622
vn 0.000000 -1.000000 0.000000
vn -0.031496 -1.000000 0.039370
vn -0.015748 -1.000000 0.086614
vn 0.000000 -1.000000 0.000000
vn -0.023622 -1.000000 0.086614
vn 0.000000 -0.992126 0.094488
vn -0.031496 -1.000000 -0.023622
vn -0.023622 -1.000000 -0.055118
vn -0.070866 -1.000000 -0.039370
vn 0.031496 -1.000000 0.007874
vn 0.031496 -0.992126 0.102362
vn 0.070866 -1.000000 0.031496
vn -0.771654 0.251969 0.582677
vn -0.354331 0.118110 0.929134
vn -0.598425 0.125984 0.787401
vn 0.433071 0.173228 0.881890
vn 0.307087 0.173228 0.937008
vn 0.755906 0.244095 0.606299
vn 0.850394 0.251968 -0.464567
vn 0.299213 0.181102 -0.937008
vn 0.377953 0.125984 -0.921260
vn -0.543307 0.165354 -0.826772
vn -0.307087 0.173228 -0.937008
vn -0.732283 0.251968 -0.629921
vn -0.291339 0.173228 0.944882
vn 0.291339 0.125984 0.944882
vn -0.023622 0.149606 0.992126
vn -0.779528 0.251969 0.574803
vn -0.314961 0.181102 0.929134
vn -0.370079 0.125984 0.921260
vn 0.000000 0.952756 0.307086
vn -0.338583 0.929134 0.125984
vn 0.110236 0.905512 -0.409449
vn 0.283465 0.173228 -0.944882
vn 0.000000 0.118110 -0.992126
vn 0.031496 0.157480 -0.984252
vn 0.023622 0.149606 -0.984252
vn -0.314961 0.165354 -0.937008
vn -0.055118 -0.047244 -1.000000
vn 0.070866 -0.055118 -0.992126
vn 0.039370 0.322834 -0.944882
vn -0.055118 0.440945 -0.897638
vn -0.031496 0.984252 -0.165354
vn 0.039370 0.968504 -0.251969
vn 0.031496 0.984252 0.181102
vn -0.039370 0.968504 0.244094
vn -0.055118 -0.015748 1.000000
vn 0.039370 0.330709 0.944882
vn 0.086614 -0.094488 0.992126
vn -0.055118 0.440945 0.897638
vn 0.803150 0.582677 -0.125984
vn 0.905512 0.385827 0.173228
vn 0.755906 0.622047 0.196850
vn 0.913386 0.291339 -0.291339
vn -0.803150 0.582677 -0.102362
vn -0.905512 0.377953 0.196850
vn -0.897638 0.330709 -0.283465
vn -0.763780 0.629921 0.165354
vn -0.062992 -0.952756 -0.291338
vn -0.062992 -0.952756 0.299213
vn 0.000000 -1.000000 0.000000
vn 0.062992 -0.960630 -0.283464
vn 0.000000 -1.000000 0.000000
vn 0.055118 -0.952756 0.299213
vn 0.000000 -1.000000 0.000000
vn 0.000000 -1.000000 0.000000
vn 0.015748 0.047244 1.000000
vn -0.015748 -0.015748 1.000000
vn -0.952756 0.055118 0.307087
vn -1.000000 -0.015748 0.000000
vn 0.220472 0.015748 -0.976378
vn 0.574803 -0.007874 -0.818897
vn 0.889764 -0.007874 0.448819
vn 0.015748 0.086614 1.000000
vn 0.212598 0.000000 0.976378
tan -0.992126 -0.031248 -0.019406 1.000000
tan -0.937008 0.036890 0.300267 1.000000
tan -0.929134 0.073160 0.360965 1.000000
tan -0.876744 0.055242 0.439271 1.000000
tan -0.647281 0.069936 0.734329 1.000000
tan -0.545353 0.136710 0.813752 1.000000
tan 0.236406 -0.721681 0.610081 1.000000
tan 0.499969 -0.286440 0.818402 1.000000
tan 0.151032 -0.668857 0.707297 1.000000
tan 0.501271 -0.094860 0.830244 1.000000
tan 0.914316 -0.060636 0.386261 1.000000
tan 0.684853 -0.072974 0.709157 1.000000
tan 0.937008 -0.007378 0.289913 1.000000
tan 0.992126 0.054684 0.023126 1.000000
tan 0.944882 -0.037200 0.312791 1.000000
tan 0.992126 -0.015624 0.061132 1.000000
tan 0.930560 0.061132 -0.319301 1.000000
tan 1.000000 -0.015748 0.056110 1.000000
tan 0.813628 0.047120 -0.551243 1.000000
tan 0.672949 0.033480 -0.708661 1.000000
tan 0.579329 0.140492 -0.798251 1.000000
tan -0.233616 -0.699361 -0.639841 1.000000
tan -0.463637 -0.374977 -0.798561 1.000000
tan -0.147064 -0.699609 -0.676545 1.000000
tan -0.937008 -0.036890 -0.292083 1.000000
tan -0.992126 0.023436 -0.026970 1.000000
tan -0.922252 -0.053630 -0.355261 1.000000
tan -0.023622 -0.000000 -1.000000 1.000000
tan -0.023436 -0.094488 -0.992126 1.000000
tan -0.023622 -0.071238 -1.000000 1.000000
tan -0.023622 -0.000000 -1.000000 1.000000
tan -0.023622 -0.071238 -1.000000 1.000000
tan -0.023622 -0.024552 -1.000000 1.000000
tan -0.015748 0.000000 1.000000 1.000000
tan -0.015748 -0.031992 1.000000 1.000000
tan -0.015624 -0.094860 0.992126 1.000000
tan -0.015748 0.000000 1.000000 1.000000
tan -0.015624 -0.094860 0.992126 1.000000
tan -0.015624 -0.094488 0.992126 1.000000
tan -0.015748 0.000000 1.000000 1.000000
tan -0.015624 -0.094488 0.992126 1.000000
tan -0.007874 -0.070742 1.000000 1.000000
tan -0.015748 0.000000 1.000000 1.000000
tan -0.015748 -0.070618 1.000000 1.000000
tan -0.007874 -0.023312 1.000000 1.000000
tan -0.023622 -0.000000 -1.000000 1.000000
tan -0.015748 -0.038874 -1.000000 1.000000
tan -0.015748 -0.086366 -1.000000 1.000000
tan -0.023622 -0.000000 -1.000000 1.000000
tan -0.015748 -0.086242 -1.000000 1.000000
tan -0.023436 -0.094488 -0.992126 1.000000
tan -0.015748 -0.023126 1.000000 1.000000
tan -0.007874 -0.054932 1.000000 1.000000
tan -0.007874 -0.038812 1.000000 1.000000
tan -0.023622 -0.008618 -1.000000 1.000000
tan -0.023436 -0.103106 -0.992126 1.000000
tan -0.023622 -0.033170 -1.000000 1.000000
tan -0.603881 -0.078988 -0.765577 1.000000
tan -0.929134 -0.043896 -0.348751 1.000000
tan -0.788394 -0.017112 -0.596441 1.000000
tan -0.884618 0.062372 0.422159 1.000000
tan -0.937008 0.051646 0.297539 1.000000
tan -0.624589 0.071424 0.749953 1.000000
tan 0.503193 -0.167400 0.830306 1.000000
tan 0.937008 -0.014756 0.296361 1.000000
tan 0.921260 -0.050778 0.371009 1.000000
tan 0.828074 0.049848 -0.534193 1.000000
tan 0.937008 0.081158 -0.292083 1.000000
tan 0.643809 0.040362 -0.732283 1.000000
tan -0.944882 -0.059520 -0.280427 1.000000
tan -0.944882 0.059520 0.283403 1.000000
tan -0.992126 -0.007812 -0.022444 1.000000
tan -0.598053 -0.085932 -0.773389 1.000000
tan -0.930560 -0.024428 -0.310683 1.000000
tan -0.922252 -0.053692 -0.363135 1.000000
tan -0.015004 0.307086 -0.952756 1.000000
tan 0.014632 0.131316 -0.929134 1.000000
tan 0.007130 -0.410317 -0.905512 1.000000
tan 0.944882 -0.037200 0.276644 1.000000
tan 0.992126 0.031248 0.003720 1.000000
tan 0.984252 0.023250 0.035216 1.000000
tan 0.984252 0.023250 0.027156 1.000000
tan 0.937008 0.081158 -0.300639 1.000000
tan -1.000000 0.047244 0.052886 1.000000
tan -0.992126 -0.062496 -0.067394 1.000000
tan -0.944882 -0.066960 -0.062248 1.000000
tan -0.890446 0.161696 0.134106 1.000000
tan -0.984252 -0.039308 -0.046500 1.000000
tan -0.970488 0.057226 0.068324 1.000000
tan -0.984252 0.041478 -0.054250 1.000000
tan -0.970426 -0.060512 0.083576 1.000000
tan -1.000000 0.055118 -0.054250 1.000000
tan -0.937442 -0.081840 0.067704 1.000000
tan -0.992126 -0.054684 0.081406 1.000000
tan -0.890446 0.168764 -0.137578 1.000000
tan 0.587637 -0.805133 0.022444 1.000000
tan 0.388555 -0.905512 -0.014260 1.000000
tan 0.631099 -0.762353 -0.014384 1.000000
tan 0.307397 -0.915680 0.048050 1.000000
tan -0.585901 -0.804761 0.016120 1.000000
tan -0.384153 -0.905512 -0.028520 1.000000
tan -0.346333 -0.899870 0.046872 1.000000
tan -0.640337 -0.770289 -0.023312 1.000000
tan 0.952756 -0.065286 0.007502 1.000000
tan 0.952756 -0.065348 -0.007502 1.000000
tan 1.000000 0.000000 0.000000 1.000000
tan 0.960630 0.065224 -0.007564 1.000000
tan 1.000000 0.000000 0.000000 1.000000
tan 0.955112 0.057474 0.007068 1.000000
tan 1.000000 0.000000 0.000000 1.000000
tan 1.000000 0.000000 0.000000 1.000000
tan -0.086614 -1.000000 0.048608 1.000000
tan 0.102362 -0.992126 -0.014012 1.000000
tan -0.144398 -0.910162 -0.284642 1.000000
tan 0.015748 -1.000000 0.047244 1.000000
tan 0.023312 -0.979850 -0.010540 1.000000
tan 0.125426 -0.980160 0.097464 1.000000
tan 0.045260 -0.921694 -0.105896 1.000000
tan 0.039370 -1.000000 0.085994 1.000000
tan -0.130696 -0.970364 0.028458 1.000000
f 3/3/3 2/2/2 1/1/1
f 6/6/6 5/5/5 4/4/4
f 9/9/9 8/8/8 7/7/7
f 12/12/12 11/11/11 10/10/10
f 15/15/15 14/14/14 13/13/13
f 18/18/18 17/17/17 16/16/16
f 21/21/21 20/20/20 19/19/19
f 24/24/24 23/23/23 22/22/22
f 27/27/27 26/26/26 25/25/25
f 30/30/30 29/29/29 28/28/28
f 33/33/33 32/32/32 31/31/31
f 36/36/36 35/35/35 34/34/34
f 39/39/39 38/38/38 37/37/37
f 42/42/42 41/41/41 40/40/40
f 45/45/45 44/44/44 43/43/43
f 48/48/48 47/47/47 46/46/46
f 51/51/51 50/50/50 49/49/49
f 54/54/54 53/53/53 52/52/52
f 57/57/57 56/56/56 55/55/55
f 60/60/60 59/59/59 58/58/58
f 63/63/63 62/62/62 61/61/61
f 66/66/66 65/65/65 64/64/64
f 69/69/69 68/68/68 67/67/67
f 72/72/72 71/71/71 70/70/70
f 75/75/75 74/74/74 73/73/73
f 78/78/78 77/77/77 76/76/76
f 81/81/81 80/80/80 79/79/79
f 83/83/83 80/80/80 82/82/82
f 86/86/86 85/85/85 84/84/84
f 87/87/87 86/86/86 84/84/84
f 90/90/90 89/89/89 88/88/88
f 91/91/91 90/90/90 88/88/88
f 94/94/94 93/93/93 92/92/92
f 95/95/95 92/92/92 93/93/93
f 98/98/98 97/97/97 96/96/96
f 99/99/99 96/96/96 97/97/97
f 102/102/102 101/101/101 100/100/100
f 103/103/103 100/100/100 101/101/101
f 106/106/106 105/105/105 104/104/104
f 108/108/108 104/104/104 107/107/107
f 110/110/110 109/109/109 105/105/105
f 111/111/111 107/107/107 109/109/109
f 114/114/114 113/113/113 112/112/112
f 113/113/113 114/114/114 115/115/115
f 116/116/116 115/115/115 114/114/114
f 116/116/116 117/117/117 115/115/115
f 118/118/118 117/117/117 116/116/116
f 116/116/116 119/119/119 118/118/118
f 117/117/117 118/118/118 120/120/120
f 118/118/118 119/119/119 120/120/120
