mtllib SM_Beams_04_LOD5.mtl
g SM_Beams_04_LOD5
#Vertices 51
#Indices 138
#Section 0 Offset 0 NumIndices 138 MaterialIndex 0 MI_Beams
v 0.098100 0.006365 0.112912
v 0.106188 -0.001366 -0.097528
v -0.085823 0.001735 0.114351
v -0.085108 0.004150 -0.112908
v -0.093558 0.005364 -0.093890
v -0.090791 2.463876 -0.116114
v 0.101647 2.479781 -0.111871
v -0.096570 2.465729 -0.091253
v 0.106534 2.490323 0.102800
v -0.103127 2.475977 0.088915
v -0.001520 2.483316 0.126127
v 0.101647 2.479781 -0.111871
v -0.090791 2.463876 -0.116114
v 0.087777 1.779601 -0.108709
v -0.096263 1.817563 -0.113760
v -0.096570 2.465729 -0.091253
v -0.106546 1.814113 -0.067754
v -0.105982 1.770682 -0.004156
v -0.103127 2.475977 0.088915
v -0.106378 1.796893 0.115816
v -0.096713 1.782143 0.122349
v -0.001520 2.483316 0.126127
v 0.080634 1.771010 0.118634
v 0.106534 2.490323 0.102800
v 0.085659 1.787769 0.103822
v 0.087777 1.779601 -0.108709
v 0.101647 2.479781 -0.111871
v 0.087777 1.779601 -0.108709
v 0.074727 1.198366 -0.111319
v 0.091301 0.815989 -0.112515
v 0.081807 0.160028 -0.110592
v 0.106188 -0.001366 -0.097528
v 0.108666 0.024845 0.098940
v 0.085659 1.787769 0.103822
v 0.098100 0.006365 0.112912
v 0.080634 1.771010 0.118634
v -0.085823 0.001735 0.114351
v -0.096713 1.782143 0.122349
v -0.106378 1.796893 0.115816
v -0.097235 0.195965 0.091074
v -0.093558 0.005364 -0.093890
v -0.098739 1.296858 -0.102272
v -0.105982 1.770682 -0.004156
v -0.106546 1.814113 -0.067754
v -0.085108 0.004150 -0.112908
v -0.096263 1.817563 -0.113760
v 0.106188 -0.001366 -0.097528
v 0.081807 0.160028 -0.110592
v 0.091301 0.815989 -0.112515
v 0.074727 1.198366 -0.111319
v 0.087777 1.779601 -0.108709
vt 0.059570 0.524414
vt 0.060394 0.568115
vt 0.033966 0.524170
vt 0.033752 0.571045
vt 0.032440 0.567139
vt 0.002430 0.519043
vt 0.029175 0.520264
vt 0.001421 0.524170
vt 0.029602 0.564697
vt 0.000358 0.562012
vt 0.014580 0.569580
vt 0.451904 0.890442
vt 0.479004 0.892090
vt 0.457031 0.988541
vt 0.482178 0.982391
vt 0.486816 0.891541
vt 0.490967 0.982864
vt 0.503906 0.988953
vt 0.525391 0.891418
vt 0.529297 0.985649
vt 0.530273 0.987679
vt 0.543457 0.890625
vt 0.555176 0.989265
vt 0.558594 0.889038
vt 0.558105 0.987083
vt 0.602539 0.988266
vt 0.603027 0.890198
vt 0.459229 0.451172
vt 0.461670 0.532227
vt 0.460938 0.585205
vt 0.462646 0.676758
vt 0.458008 0.699219
vt 0.416992 0.695557
vt 0.415527 0.450195
vt 0.413574 0.698242
vt 0.412598 0.452637
vt 0.387939 0.698730
vt 0.387939 0.451172
vt 0.385742 0.448730
vt 0.382812 0.671875
vt 0.344727 0.698730
vt 0.341064 0.518555
vt 0.361084 0.452637
vt 0.347900 0.446777
vt 0.340088 0.698975
vt 0.338623 0.446289
vt 0.313721 0.700439
vt 0.316162 0.677490
vt 0.314697 0.585938
vt 0.314941 0.532715
vt 0.312500 0.451660
vt1 0.865723 0.996101
vt1 0.748047 0.999366
vt1 0.866699 0.893555
vt1 0.739746 0.892700
vt1 0.750488 0.887512
vt1 0.730957 0.887878
vt1 0.727539 0.994888
vt1 0.716797 0.883850
vt1 0.606934 0.996563
vt1 0.614258 0.879578
vt1 0.594238 0.936462
vt1 0.990234 0.886230
vt1 0.983887 0.799683
vt1 0.598633 0.869995
vt1 0.623047 0.790039
vt1 0.986328 0.775269
vt1 0.621094 0.761597
vt1 0.596680 0.719482
vt1 0.986328 0.651855
vt1 0.609863 0.639648
vt1 0.602051 0.635498
vt1 0.989746 0.594238
vt1 0.595703 0.556641
vt1 0.996094 0.545166
vt1 0.604004 0.546875
vt1 0.599609 0.406250
vt1 0.991211 0.404297
vt1 0.569824 0.021973
vt1 0.579102 0.336914
vt1 0.577148 0.543457
vt1 0.583008 0.898987
vt1 0.565430 0.986794
vt1 0.405518 0.972321
vt1 0.400391 0.018066
vt1 0.392822 0.982239
vt1 0.389160 0.027344
vt1 0.293213 0.984192
vt1 0.292480 0.021484
vt1 0.284180 0.012695
vt1 0.273193 0.879761
vt1 0.125122 0.984413
vt1 0.110840 0.284668
vt1 0.189087 0.027832
vt1 0.137329 0.003906
vt1 0.106873 0.985260
vt1 0.101746 0.002441
vt1 0.004478 0.991051
vt1 0.014313 0.902222
vt1 0.008629 0.546387
vt1 0.009544 0.339355
vt1 -0.000052 0.023438
vn 0.393701 -0.889764 0.236221
vn 0.188976 -0.960630 -0.212598
vn -0.275591 -0.881890 0.385827
vn -0.267717 -0.763779 -0.590551
vn -0.897638 -0.425197 -0.086614
vn -0.165354 0.842520 -0.511811
vn 0.157480 0.968504 -0.181102
vn -0.251969 0.960630 -0.125984
vn 0.267717 0.952756 0.165354
vn -0.527559 0.834646 -0.165354
vn -0.023622 0.661417 0.748031
vn 0.141732 0.086614 -0.984252
vn -0.165354 0.055118 -0.984252
vn 0.141732 -0.023622 -0.992126
vn -0.307087 -0.007874 -0.952756
vn -0.992126 0.086614 -0.078740
vn -1.000000 0.023622 -0.000000
vn -1.000000 -0.015748 -0.062992
vn -0.984252 0.141732 0.125984
vn -0.889764 -0.007874 0.456693
vn -0.196850 0.023622 0.984252
vn -0.062992 0.031496 1.000000
vn 0.188976 0.000000 0.984252
vn 0.937008 0.055118 0.346457
vn 0.992126 -0.023622 0.149606
vn 0.976378 -0.000000 -0.196850
vn 0.937008 0.047244 -0.346457
vn 0.992126 0.015748 -0.102362
vn 0.149606 0.007874 -0.992126
vn 0.259843 -0.000000 -0.968504
vn -0.039370 -0.000000 -1.000000
vn 0.968504 -0.039370 -0.251968
vn 0.992126 -0.007874 0.133858
vn 1.000000 -0.015748 0.047244
vn 0.181102 -0.023622 0.984252
vn 0.212598 0.007874 0.976378
vn -0.259843 -0.094488 0.960630
vn -0.110236 0.015748 0.992126
vn -0.992126 0.000000 0.133858
vn -0.992126 0.000000 0.125984
vn -0.992126 -0.078740 -0.062992
vn -0.976378 -0.000000 -0.204724
vn -1.000000 -0.015748 0.007874
vn -1.000000 0.023622 0.007874
vn -0.141732 -0.070866 -0.984252
vn -0.181102 0.023622 -0.984252
vn 0.322835 -0.236221 -0.913386
vn 0.062992 -0.000000 -1.000000
vn 0.133858 -0.000000 -0.992126
vn 0.141732 0.007874 -0.992126
vn 0.149606 0.015748 -0.992126
tan 0.007006 0.239321 0.889764 1.000000
tan -0.022692 -0.217062 0.960630 1.000000
tan -0.020832 0.392337 0.881890 1.000000
tan -0.024614 -0.588443 0.772211 1.000000
tan -0.039060 -0.100316 0.897266 1.000000
tan -0.006634 -0.513113 -0.842520 1.000000
tan 0.022878 -0.184822 -0.968504 1.000000
tan -0.075640 -0.145824 -0.960630 1.000000
tan -0.022506 0.171678 -0.952756 1.000000
tan -0.051274 -0.198586 -0.838800 1.000000
tan -0.000682 0.748217 -0.661603 1.000000
tan -0.007750 0.984252 0.085498 1.000000
tan -0.077500 0.984252 0.068138 1.000000
tan -0.054684 0.992126 -0.031434 1.000000
tan 0.007502 0.952756 -0.010292 1.000000
tan 0.082894 0.992126 0.046872 1.000000
tan 0.023622 1.000000 -0.000000 1.000000
tan -0.015748 1.000000 -0.000000 1.000000
tan 0.117676 0.968752 -0.170500 1.000000
tan -0.033046 0.896956 -0.048918 1.000000
tan -0.015500 0.984252 -0.026722 1.000000
tan -0.007874 1.000000 -0.031992 1.000000
tan -0.007750 0.984252 0.001488 1.000000
tan 0.059768 0.888090 -0.302933 1.000000
tan 0.023622 0.992126 -0.000000 1.000000
tan 0.038750 0.961002 0.192200 1.000000
tan -0.039060 0.942464 0.022878 1.000000
tan -0.018972 0.992126 -0.031248 1.000000
tan -0.039060 0.992126 0.001984 1.000000
tan -0.045756 0.968504 -0.012276 1.000000
tan -0.015748 1.000000 0.000620 1.000000
tan 0.051274 0.968504 0.045756 1.000000
tan 0.005766 0.992126 0.015624 1.000000
tan 0.016492 1.000000 -0.015748 1.000000
tan 0.000000 0.984252 0.023622 1.000000
tan 0.015376 0.976378 -0.011222 1.000000
tan 0.105152 0.955112 0.122388 1.000000
tan 0.000000 0.992126 -0.015748 1.000000
tan 0.001054 0.992126 0.007812 1.000000
tan 0.002976 0.992126 0.023436 1.000000
tan -0.078740 0.992126 -0.000000 1.000000
tan -0.004836 0.976378 0.023064 1.000000
tan -0.015748 1.000000 -0.000000 1.000000
tan 0.023684 1.000000 0.007874 1.000000
tan -0.031000 0.984252 -0.066402 1.000000
tan -0.007750 0.984252 0.025048 1.000000
tan -0.064728 0.913386 -0.259099 1.000000
tan -0.015748 1.000000 -0.000992 1.000000
tan -0.015624 0.992126 -0.002108 1.000000
tan -0.031248 0.992126 0.003410 1.000000
tan 0.015624 0.992126 0.018104 1.000000
f 3/3/3 2/2/2 1/1/1
f 2/2/2 3/3/3 4/4/4
f 3/3/3 5/5/5 4/4/4
f 8/8/8 7/7/7 6/6/6
f 9/9/9 7/7/7 8/8/8
f 9/9/9 8/8/8 10/10/10
f 11/11/11 9/9/9 10/10/10
f 14/14/14 13/13/13 12/12/12
f 15/15/15 13/13/13 14/14/14
f 16/16/16 13/13/13 15/15/15
f 17/17/17 16/16/16 15/15/15
f 16/16/16 17/17/17 18/18/18
f 18/18/18 19/19/19 16/16/16
f 20/20/20 19/19/19 18/18/18
f 20/20/20 21/21/21 19/19/19
f 21/21/21 22/22/22 19/19/19
f 21/21/21 23/23/23 22/22/22
f 22/22/22 23/23/23 24/24/24
f 24/24/24 23/23/23 25/25/25
f 25/25/25 26/26/26 24/24/24
f 27/27/27 24/24/24 26/26/26
f 30/30/30 29/29/29 28/28/28
f 30/30/30 28/28/28 31/31/31
f 32/32/32 31/31/31 28/28/28
f 28/28/28 33/33/33 32/32/32
f 28/28/28 34/34/34 33/33/33
f 32/32/32 33/33/33 35/35/35
f 34/34/34 36/36/36 33/33/33
f 35/35/35 33/33/33 36/36/36
f 37/37/37 35/35/35 36/36/36
f 37/37/37 36/36/36 38/38/38
f 39/39/39 37/37/37 38/38/38
f 37/37/37 39/39/39 40/40/40
f 37/37/37 40/40/40 41/41/41
f 40/40/40 39/39/39 42/42/42
f 40/40/40 42/42/42 41/41/41
f 43/43/43 42/42/42 39/39/39
f 42/42/42 43/43/43 44/44/44
f 42/42/42 45/45/45 41/41/41
f 44/44/44 46/46/46 42/42/42
f 46/46/46 45/45/45 42/42/42
f 48/48/48 47/47/47 45/45/45
f 48/48/48 45/45/45 46/46/46
f 46/46/46 49/49/49 48/48/48
f 49/49/49 46/46/46 50/50/50
f 51/51/51 50/50/50 46/46/46
