mtllib SM_BreakfastProps_Knife_LOD3.mtl
g SM_BreakfastProps_Knife_LOD3
#Vertices 86
#Indices 324
#Section 0 Offset 0 NumIndices 324 MaterialIndex 0 MI_BreakfastProps
v -0.006325 0.005628 -0.008857
v -0.014922 0.005164 0.060656
v -0.004935 0.003349 -0.009766
v -0.013915 0.003884 0.068650
v -0.014518 0.004834 0.088089
v 0.011075 0.002632 -0.009822
v -0.005952 0.004374 0.111931
v -0.010699 0.006077 0.103648
v 0.001832 0.005973 0.126562
v 0.011945 0.003780 0.123955
v 0.015414 0.005958 0.129136
v 0.016114 0.004879 0.127434
v 0.015964 0.004861 0.081697
v 0.014651 0.004107 -0.009656
v 0.016231 0.005253 0.052606
v 0.015449 0.005075 -0.009592
v 0.016231 0.005253 0.052606
v 0.015224 0.006062 -0.009366
v 0.015449 0.005075 -0.009592
v 0.015887 0.005695 0.069829
v 0.016114 0.004879 0.127434
v 0.011367 0.007853 -0.009825
v 0.015414 0.005958 0.129136
v 0.011870 0.006737 0.124593
v 0.001832 0.005973 0.126562
v -0.010699 0.006077 0.103648
v -0.010699 0.006677 0.085062
v -0.003151 0.007397 -0.009863
v -0.014149 0.006153 0.061127
v -0.014518 0.004834 0.088089
v -0.006325 0.005628 -0.008857
v -0.014922 0.005164 0.060656
v 0.019216 0.005253 -0.004151
v 0.019141 0.003990 0.000455
v 0.016128 0.007735 0.002077
v 0.018849 0.006919 -0.006994
v 0.019198 0.005253 -0.119837
v 0.016242 0.009512 -0.009745
v 0.018766 0.006968 -0.116627
v 0.018328 0.006257 -0.122555
v 0.005046 0.010693 0.001239
v 0.016078 0.008887 -0.115415
v -0.009027 0.010223 -0.010254
v -0.010027 0.007783 0.001570
v 0.006226 0.011547 -0.099398
v 0.005718 0.011269 -0.114668
v -0.021907 0.007039 -0.068255
v -0.011137 0.005184 0.000256
v -0.022591 0.005253 -0.071846
v -0.019033 0.009056 -0.081353
v -0.017982 0.007537 -0.096838
v -0.019254 0.005253 -0.095783
v -0.000593 0.005253 -0.120617
v -0.000985 0.007479 -0.118188
v 0.016128 0.007735 0.002077
v 0.019141 0.003990 0.000455
v 0.014973 0.002215 0.001976
v -0.003727 0.002798 0.001264
v 0.005046 -0.000187 0.001239
v -0.009953 0.002682 0.001307
v -0.011137 0.005184 0.000256
v -0.010027 0.007783 0.001570
v -0.003351 0.007895 0.001239
v 0.005046 0.010693 0.001239
v 0.019198 0.005253 -0.119837
v 0.019141 0.003990 0.000455
v 0.019216 0.005253 -0.004151
v 0.018766 0.003539 -0.116627
v 0.016799 0.002345 -0.120920
v 0.018328 0.006257 -0.122555
v -0.000593 0.005253 -0.120617
v 0.016236 0.000994 -0.009352
v 0.014973 0.002215 0.001976
v 0.005046 -0.000187 0.001239
v 0.016078 0.001619 -0.115415
v -0.000985 0.003028 -0.118188
v -0.008976 0.000276 -0.010374
v -0.009953 0.002682 0.001307
v 0.006226 -0.001041 -0.099398
v 0.005718 -0.000762 -0.114668
v -0.019033 0.001450 -0.081353
v -0.021907 0.003468 -0.068255
v -0.011137 0.005184 0.000256
v -0.022591 0.005253 -0.071846
v -0.017982 0.002970 -0.096838
v -0.019254 0.005253 -0.095783
vt 0.025574 0.001465
vt 0.032593 0.073242
vt 0.023239 0.000977
vt 0.031113 0.081055
vt 0.031921 0.101074
vt 0.006161 0.000488
vt 0.023560 0.125488
vt 0.028717 0.117188
vt 0.016251 0.141113
vt 0.005356 0.138184
vt 0.001819 0.144043
vt 0.001136 0.142090
vt 0.000227 0.094727
vt 0.002815 0.000488
vt -0.000140 0.064453
vt 0.001523 0.000488
vt 0.496338 0.064453
vt 0.492676 0.000977
vt 0.493652 0.000488
vt 0.496338 0.082520
vt 0.497314 0.142090
vt 0.489014 0.000488
vt 0.496094 0.143555
vt 0.492676 0.139160
vt 0.482178 0.141113
vt 0.469238 0.117676
vt 0.469238 0.098633
vt 0.473389 0.000977
vt 0.464844 0.074219
vt 0.465088 0.101562
vt 0.469971 0.002441
vt 0.463867 0.073730
vt 0.431396 0.988373
vt 0.432617 0.993042
vt 0.426514 0.994717
vt 0.429688 0.985474
vt 0.431396 0.868286
vt 0.426025 0.982498
vt 0.429688 0.871704
vt 0.427002 0.865356
vt 0.414307 0.993599
vt 0.426270 0.873291
vt 0.400146 0.981674
vt 0.398438 0.993866
vt 0.416016 0.890198
vt 0.414551 0.874634
vt 0.386719 0.921997
vt 0.395264 0.992752
vt 0.384766 0.918396
vt 0.390381 0.908752
vt 0.390381 0.893005
vt 0.387939 0.893616
vt 0.406738 0.866455
vt 0.407227 0.870361
vt 0.506836 0.027832
vt 0.502441 0.030273
vt 0.500977 0.025879
vt 0.503418 0.006836
vt 0.499756 0.015625
vt 0.503906 0.000488
vt 0.506836 0.000000
vt 0.509277 0.000977
vt 0.508789 0.007812
vt 0.510742 0.016602
vt 0.997559 0.911865
vt 0.996094 0.786865
vt 0.997559 0.791748
vt 0.996094 0.908325
vt 0.991211 0.912598
vt 0.994141 0.915649
vt 0.973145 0.913635
vt 0.992188 0.797119
vt 0.991211 0.785522
vt 0.980469 0.786499
vt 0.992188 0.906799
vt 0.973145 0.909790
vt 0.966309 0.798584
vt 0.964355 0.786499
vt 0.982422 0.889893
vt 0.980957 0.905457
vt 0.956543 0.871338
vt 0.952637 0.858154
vt 0.961426 0.787354
vt 0.950684 0.861694
vt 0.956543 0.887085
vt 0.954102 0.886475
vt1 0.947754 0.160645
vt1 0.988770 0.577881
vt1 0.934082 0.155273
vt1 0.979980 0.625000
vt1 0.984375 0.740967
vt1 0.833984 0.152832
vt1 0.936035 0.883484
vt1 0.965820 0.834717
vt1 0.893066 0.974045
vt1 0.829590 0.958038
vt1 0.808594 0.990791
vt1 0.804688 0.979736
vt1 0.799316 0.703125
vt1 0.814453 0.154297
vt1 0.797363 0.527344
vt1 0.807129 0.154297
vt1 0.777832 0.526855
vt1 0.755371 0.155762
vt1 0.760742 0.154297
vt1 0.777832 0.631104
vt1 0.783203 0.979202
vt1 0.733887 0.153320
vt1 0.776367 0.989235
vt1 0.755371 0.961914
vt1 0.693848 0.973953
vt1 0.619141 0.836548
vt1 0.619141 0.726562
vt1 0.643555 0.156738
vt1 0.593750 0.584717
vt1 0.594238 0.744873
vt1 0.622559 0.163574
vt1 0.587402 0.581787
vt1 0.569336 0.959930
vt1 0.575684 0.987213
vt1 0.541504 0.996988
vt1 0.559082 0.943024
vt1 0.569336 0.258301
vt1 0.538086 0.925659
vt1 0.559570 0.278809
vt1 0.543945 0.241211
vt1 0.469727 0.990471
vt1 0.539551 0.287598
vt1 0.387207 0.920776
vt1 0.376953 0.992035
vt1 0.480225 0.386719
vt1 0.471680 0.295898
vt1 0.308838 0.572266
vt1 0.359131 0.985527
vt1 0.296387 0.551514
vt1 0.329590 0.495117
vt1 0.330566 0.402832
vt1 0.315430 0.406738
vt1 0.426025 0.248047
vt1 0.428711 0.270508
vt1 0.048859 0.201172
vt1 0.024918 0.215820
vt1 0.016449 0.190918
vt1 0.030930 0.079590
vt1 0.008064 0.130371
vt1 0.034180 0.042969
vt1 0.050720 0.037598
vt1 0.064514 0.045410
vt1 0.061157 0.084961
vt1 0.073059 0.136719
vt1 0.279541 0.969299
vt1 0.271240 0.239746
vt1 0.278564 0.267578
vt1 0.269775 0.948853
vt1 0.244019 0.973785
vt1 0.260254 0.991341
vt1 0.135864 0.979874
vt1 0.247803 0.299805
vt1 0.241455 0.231445
vt1 0.179321 0.237305
vt1 0.249512 0.939941
vt1 0.138550 0.957245
vt1 0.097168 0.307617
vt1 0.086914 0.237305
vt1 0.189941 0.841187
vt1 0.181519 0.932007
vt1 0.039429 0.732666
vt1 0.018524 0.655518
vt1 0.069214 0.242188
vt1 0.006268 0.676270
vt1 0.040314 0.824829
vt1 0.025421 0.821289
vn -0.984252 -0.047244 -0.165354
vn -0.803150 -0.598425 -0.070866
vn -0.228346 -0.976378 -0.023622
vn -0.157480 -0.984252 0.007874
vn -0.417323 -0.905512 0.055118
vn 0.102362 -0.992126 0.007874
vn -0.157480 -0.984252 0.062992
vn -0.826772 -0.480315 0.291339
vn -0.425197 -0.779527 0.456693
vn 0.078740 -1.000000 0.000000
vn 0.204724 -0.850394 0.488189
vn 0.551181 -0.834646 0.047244
vn 0.377953 -0.929134 0.007874
vn 0.464567 -0.881890 -0.015748
vn 1.000000 0.015748 -0.000000
vn 0.968504 -0.259842 -0.039370
vn 1.000000 -0.015748 0.000000
vn 0.629921 0.771653 -0.015748
vn 0.984252 -0.141732 -0.086614
vn 0.370079 0.929134 0.007874
vn 1.000000 -0.015748 0.062992
vn 0.110236 0.992126 0.007874
vn 0.338583 0.929134 0.141732
vn 0.078740 1.000000 -0.000000
vn -0.362205 0.842520 0.401575
vn -0.259843 0.960630 0.086614
vn -0.094488 0.992126 0.015748
vn -0.157480 0.984252 -0.015748
vn -0.338583 0.937008 -0.023622
vn -0.897638 0.433071 0.118110
vn -0.834646 0.527559 -0.133858
vn -0.984252 0.165354 -0.086614
vn 1.000000 0.000000 0.015748
vn 0.779528 -0.283464 0.559055
vn 0.393701 0.881890 0.267716
vn 0.803150 0.598425 -0.007874
vn 1.000000 -0.007874 -0.039370
vn 0.354331 0.937008 -0.007874
vn 0.771654 0.637795 -0.000000
vn 0.330709 0.307086 -0.889764
vn 0.000000 0.960630 0.267716
vn 0.385827 0.921260 0.015748
vn -0.267717 0.960630 0.031496
vn -0.574803 0.787401 0.212598
vn 0.086614 1.000000 -0.000000
vn -0.125984 0.984252 -0.133858
vn -0.685039 0.724409 0.070866
vn -0.968504 -0.047244 0.251968
vn -1.000000 -0.007874 0.055118
vn -0.283465 0.960630 -0.000000
vn -0.527559 0.818897 -0.220473
vn -0.921260 -0.039370 -0.393701
vn -0.535433 0.007874 -0.842520
vn -0.456693 0.700787 -0.551181
vn 0.110236 0.086614 0.992126
vn 0.740157 -0.377953 0.559055
vn 0.118110 -0.165354 0.976378
vn -0.007874 -0.023622 1.000000
vn 0.000000 -0.960630 0.267717
vn -0.409449 -0.692913 0.590551
vn -0.700787 -0.062992 0.716535
vn -0.535433 0.614173 0.590551
vn 0.000000 0.000000 1.000000
vn 0.000000 0.960630 0.267716
vn 1.000000 0.007874 -0.039370
vn 0.866142 -0.496063 0.047244
vn 1.000000 0.000000 0.015748
vn 0.771654 -0.637795 0.000000
vn 0.275591 -0.629921 -0.732283
vn 0.307087 0.204724 -0.929134
vn -0.535433 -0.007874 -0.842520
vn 0.346457 -0.937008 -0.007874
vn 0.283465 -0.929134 0.228347
vn 0.000000 -0.960630 0.267717
vn 0.385827 -0.921260 0.015748
vn -0.456693 -0.700787 -0.551181
vn -0.259843 -0.960630 0.031496
vn -0.566929 -0.803149 0.165354
vn 0.086614 -1.000000 0.000000
vn -0.125984 -0.984252 -0.133858
vn -0.283465 -0.960630 0.000000
vn -0.685039 -0.724409 0.070866
vn -0.960630 0.000000 0.291339
vn -1.000000 0.007874 0.055118
vn -0.527559 -0.818897 -0.220472
vn -0.921260 0.039370 -0.393701
tan 0.158844 0.107198 -0.976130 1.000000
tan -0.074152 0.212412 -0.953314 1.000000
tan 0.030752 0.016430 -0.976378 1.000000
tan 0.015500 -0.010354 -0.984252 1.000000
tan 0.028520 -0.068262 -0.905512 1.000000
tan 0.023436 -0.005456 -0.992126 1.000000
tan -0.023250 -0.059272 -0.984252 1.000000
tan 0.014942 -0.526753 -0.826028 1.000000
tan 0.072602 -0.496621 -0.780085 1.000000
tan -0.031496 -0.002480 -1.000000 1.000000
tan -0.013392 -0.491413 -0.850394 1.000000
tan -0.128092 -0.133300 -0.860562 1.000000
tan -0.007254 -0.010850 -0.932110 1.000000
tan 0.006324 0.019406 -0.900180 1.000000
tan -0.000248 0.015748 -1.000000 1.000000
tan -0.027094 0.045756 -0.968504 1.000000
tan -0.000620 -0.039370 -1.000000 1.000000
tan 0.122760 -0.118916 -0.916486 1.000000
tan -0.101556 -0.108500 -0.976502 1.000000
tan 0.087854 -0.027156 -0.924732 1.000000
tan 0.063984 0.094488 -0.992126 1.000000
tan 0.046872 0.002666 -0.992126 1.000000
tan -0.013516 0.147064 -0.931800 1.000000
tan -0.007874 0.000620 -1.000000 1.000000
tan 0.030008 0.415835 -0.845372 1.000000
tan 0.030256 0.094798 -0.960630 1.000000
tan 0.023436 0.017980 -0.992126 1.000000
tan 0.046500 -0.008308 -0.984252 1.000000
tan 0.066402 0.000372 -0.937008 1.000000
tan 0.004340 0.262632 -0.930002 1.000000
tan 0.154442 -0.003286 -0.975944 1.000000
tan 0.081406 -0.031000 -0.984252 1.000000
tan 0.015748 0.015748 -1.000000 1.000000
tan 0.568045 -0.007192 -0.795709 1.000000
tan 0.015996 0.261516 -0.884990 1.000000
tan -0.087792 0.106206 -0.883130 1.000000
tan -0.040114 -0.173228 -0.984252 1.000000
tan -0.022134 0.000496 -0.937008 1.000000
tan 0.321409 -0.388865 -0.789695 1.000000
tan -0.179738 -0.871350 -0.367537 1.000000
tan 0.000000 0.267716 -0.960630 1.000000
tan 0.145080 -0.045260 -0.906752 1.000000
tan -0.022692 0.025172 -0.960630 1.000000
tan 0.091264 0.320603 -0.940666 1.000000
tan 0.023622 -0.002046 -1.000000 1.000000
tan -0.007750 -0.134850 -0.984252 1.000000
tan 0.123566 0.211110 -0.963544 1.000000
tan -0.256309 0.129642 -0.960878 1.000000
tan -0.055118 -0.000000 -1.000000 1.000000
tan 0.000000 -0.000000 -0.960630 1.000000
tan -0.183768 -0.344721 -0.840659 1.000000
tan 0.386881 -0.275653 -0.877736 1.000000
tan 0.722859 -0.441441 -0.463513 1.000000
tan 0.011098 -0.579205 -0.745613 1.000000
tan -0.968690 -0.226548 0.127410 1.000000
tan -0.612747 -0.078368 0.758261 1.000000
tan -0.969992 0.129766 0.139314 1.000000
tan -0.992126 -0.110236 -0.010416 1.000000
tan -0.896770 -0.096968 -0.347945 1.000000
tan -0.341187 -0.444107 -0.757641 1.000000
tan -0.715047 0.000372 -0.699299 1.000000
tan -0.731539 0.025172 -0.689441 1.000000
tan -0.992126 -0.094488 0.000000 1.000000
tan -0.889206 -0.103292 0.370637 1.000000
tan 0.040114 -0.173228 0.984252 1.000000
tan 0.059334 0.185628 0.861306 1.000000
tan -0.015748 0.015748 1.000000 1.000000
tan -0.316387 -0.382789 0.789696 1.000000
tan 0.041974 -0.736623 0.649451 1.000000
tan 0.695021 -0.614545 0.094302 1.000000
tan -0.722859 -0.448075 0.463575 1.000000
tan 0.022134 0.000310 0.937008 1.000000
tan -0.005518 0.226115 0.926902 1.000000
tan 0.000000 0.267717 0.960630 1.000000
tan -0.145080 -0.045260 0.906752 1.000000
tan -0.011098 -0.579205 0.745614 1.000000
tan 0.022692 0.025358 0.960630 1.000000
tan -0.069006 0.243475 0.945998 1.000000
tan -0.023622 -0.002046 1.000000 1.000000
tan 0.007750 -0.134850 0.984252 1.000000
tan 0.000000 0.000000 0.960630 1.000000
tan -0.117862 0.205716 0.963544 1.000000
tan 0.289045 0.113460 0.953066 1.000000
tan 0.055118 0.000000 1.000000 1.000000
tan 0.183768 -0.344721 0.840660 1.000000
tan -0.386881 -0.275652 0.877736 1.000000
f 3/3/3 2/2/2 1/1/1
f 2/2/2 3/3/3 4/4/4
f 4/4/4 5/5/5 2/2/2
f 4/4/4 3/3/3 6/6/6
f 4/4/4 7/7/7 5/5/5
f 5/5/5 7/7/7 8/8/8
f 7/7/7 9/9/9 8/8/8
f 4/4/4 10/10/10 7/7/7
f 7/7/7 10/10/10 9/9/9
f 10/10/10 4/4/4 6/6/6
f 11/11/11 9/9/9 10/10/10
f 10/10/10 12/12/12 11/11/11
f 6/6/6 13/13/13 10/10/10
f 12/12/12 10/10/10 13/13/13
f 14/14/14 13/13/13 6/6/6
f 12/12/12 13/13/13 15/15/15
f 14/14/14 16/16/16 13/13/13
f 15/15/15 13/13/13 16/16/16
f 19/19/19 18/18/18 17/17/17
f 20/20/20 17/17/17 18/18/18
f 21/21/21 17/17/17 20/20/20
f 22/22/22 20/20/20 18/18/18
f 23/23/23 21/21/21 20/20/20
f 23/23/23 20/20/20 24/24/24
f 22/22/22 24/24/24 20/20/20
f 23/23/23 24/24/24 25/25/25
f 24/24/24 26/26/26 25/25/25
f 24/24/24 22/22/22 27/27/27
f 27/27/27 26/26/26 24/24/24
f 27/27/27 22/22/22 28/28/28
f 27/27/27 29/29/29 26/26/26
f 29/29/29 27/27/27 28/28/28
f 26/26/26 29/29/29 30/30/30
f 31/31/31 29/29/29 28/28/28
f 30/30/30 29/29/29 32/32/32
f 29/29/29 31/31/31 32/32/32
f 35/35/35 34/34/34 33/33/33
f 33/33/33 36/36/36 35/35/35
f 36/36/36 33/33/33 37/37/37
f 36/36/36 38/38/38 35/35/35
f 37/37/37 39/39/39 36/36/36
f 38/38/38 36/36/36 39/39/39
f 39/39/39 37/37/37 40/40/40
f 35/35/35 38/38/38 41/41/41
f 42/42/42 39/39/39 40/40/40
f 39/39/39 42/42/42 38/38/38
f 43/43/43 41/41/41 38/38/38
f 41/41/41 43/43/43 44/44/44
f 45/45/45 38/38/38 42/42/42
f 38/38/38 45/45/45 43/43/43
f 42/42/42 40/40/40 46/46/46
f 46/46/46 45/45/45 42/42/42
f 44/44/44 43/43/43 47/47/47
f 48/48/48 44/44/44 47/47/47
f 48/48/48 47/47/47 49/49/49
f 43/43/43 45/45/45 50/50/50
f 43/43/43 50/50/50 47/47/47
f 50/50/50 45/45/45 46/46/46
f 47/47/47 51/51/51 49/49/49
f 51/51/51 47/47/47 50/50/50
f 46/46/46 51/51/51 50/50/50
f 52/52/52 49/49/49 51/51/51
f 53/53/53 52/52/52 51/51/51
f 51/51/51 46/46/46 54/54/54
f 51/51/51 54/54/54 53/53/53
f 54/54/54 46/46/46 40/40/40
f 53/53/53 54/54/54 40/40/40
f 57/57/57 56/56/56 55/55/55
f 57/57/57 55/55/55 58/58/58
f 57/57/57 58/58/58 59/59/59
f 58/58/58 60/60/60 59/59/59
f 61/61/61 60/60/60 58/58/58
f 62/62/62 61/61/61 58/58/58
f 63/63/63 58/58/58 55/55/55
f 63/63/63 62/62/62 58/58/58
f 55/55/55 64/64/64 63/63/63
f 62/62/62 63/63/63 64/64/64
f 67/67/67 66/66/66 65/65/65
f 65/65/65 66/66/66 68/68/68
f 68/68/68 69/69/69 65/65/65
f 70/70/70 65/65/65 69/69/69
f 70/70/70 69/69/69 71/71/71
f 66/66/66 72/72/72 68/68/68
f 72/72/72 66/66/66 73/73/73
f 73/73/73 74/74/74 72/72/72
f 75/75/75 69/69/69 68/68/68
f 68/68/68 72/72/72 75/75/75
f 76/76/76 71/71/71 69/69/69
f 77/77/77 72/72/72 74/74/74
f 74/74/74 78/78/78 77/77/77
f 79/79/79 75/75/75 72/72/72
f 72/72/72 77/77/77 79/79/79
f 75/75/75 80/80/80 69/69/69
f 80/80/80 75/75/75 79/79/79
f 69/69/69 80/80/80 76/76/76
f 77/77/77 81/81/81 79/79/79
f 79/79/79 81/81/81 80/80/80
f 77/77/77 78/78/78 82/82/82
f 77/77/77 82/82/82 81/81/81
f 83/83/83 82/82/82 78/78/78
f 82/82/82 83/83/83 84/84/84
f 85/85/85 80/80/80 81/81/81
f 85/85/85 81/81/81 82/82/82
f 85/85/85 76/76/76 80/80/80
f 82/82/82 84/84/84 85/85/85
f 85/85/85 71/71/71 76/76/76
f 86/86/86 85/85/85 84/84/84
f 71/71/71 85/85/85 86/86/86
