mtllib SM_BreakfastProps_BreadCrumb_02.mtl
g SM_BreakfastProps_BreadCrumb_02
#Vertices 18
#Indices 72
#Section 0 Offset 0 NumIndices 72 MaterialIndex 0 MI_BreakfastProps
v 0.005448 0.005591 -0.003710
v 0.009551 0.008780 0.001367
v 0.000319 0.008480 0.004687
v -0.001405 0.006329 -0.003422
v -0.002012 0.001977 -0.005817
v 0.006714 0.001392 -0.006087
v 0.009896 0.004141 0.001101
v 0.009551 0.008780 0.001367
v 0.001505 0.000400 0.001442
v 0.001452 0.005040 0.008368
v 0.000056 0.006631 0.014272
v -0.007467 -0.000031 0.000635
v -0.001405 0.006329 -0.003422
v -0.004213 0.001465 0.010928
v -0.005352 0.004361 0.002118
v 0.000319 0.008480 0.004687
v 0.009551 0.008780 0.001367
v -0.005204 0.005821 0.013609
vt 0.038086 0.011230
vt 0.030594 0.009277
vt 0.036133 0.000488
vt 0.044250 0.005371
vt 0.050018 0.009277
vt 0.041718 0.012695
vt 0.037964 0.019043
vt 0.034027 0.021973
vt 0.046265 0.017578
vt 0.047089 0.026367
vt 0.052979 0.031738
vt 0.052673 0.016602
vt 0.057587 0.011719
vt 0.051971 0.025391
vt 0.056549 0.018066
vt 0.062744 0.023438
vt 0.072266 0.028320
vt 0.054657 0.027344
vt1 0.184692 0.341797
vt1 0.008064 0.293457
vt1 0.138672 0.008301
vt1 0.330078 0.171875
vt1 0.466064 0.281738
vt1 0.270264 0.391113
vt1 0.181763 0.589111
vt1 0.089111 0.684326
vt1 0.377441 0.548340
vt1 0.397461 0.814087
vt1 0.535645 0.991936
vt1 0.528809 0.521240
vt1 0.644043 0.356445
vt1 0.512207 0.787964
vt1 0.619629 0.560791
vt1 0.767090 0.730225
vt1 0.991699 0.876831
vt1 0.575684 0.854736
vn 0.188976 0.748031 -0.629921
vn 0.590551 0.803149 0.023622
vn -0.236220 0.968504 -0.039370
vn -0.362205 0.795275 -0.488189
vn -0.307087 -0.606299 -0.732283
vn 0.448819 -0.811024 -0.377953
vn 0.740157 -0.622047 0.267717
vn 0.590551 0.803149 0.023622
vn 0.244094 -0.960630 0.157480
vn 0.488189 -0.732283 0.464567
vn 0.259843 0.771653 0.582677
vn -0.488189 -0.874016 -0.055118
vn -0.362205 0.795275 -0.488189
vn -0.307087 -0.826771 0.472441
vn -0.803150 0.574803 -0.125984
vn -0.236220 0.968504 -0.039370
vn 0.590551 0.803149 0.023622
vn -0.464567 0.771653 0.440945
tan -0.907682 0.375969 0.174158 1.000000
tan -0.696943 0.497365 0.513175 1.000000
tan -0.625767 -0.121520 0.765205 1.000000
tan -0.622605 0.184264 0.762105 1.000000
tan 0.112096 0.740281 -0.659929 1.000000
tan -0.032984 0.406969 -0.912456 1.000000
tan 0.151280 -0.233245 -0.960196 1.000000
tan 0.798686 -0.584227 -0.103416 1.000000
tan -0.171988 -0.201934 -0.965218 1.000000
tan -0.036208 -0.548453 -0.826461 1.000000
tan -0.069316 -0.584289 0.804700 1.000000
tan 0.061318 0.028954 -1.002232 1.000000
tan 0.379937 -0.352409 -0.855974 1.000000
tan -0.563581 -0.243661 -0.792733 1.000000
tan 0.055924 -0.137640 -0.984500 1.000000
tan -0.488251 -0.153760 -0.852998 1.000000
tan -0.630541 0.481555 -0.609337 1.000000
tan -0.841094 -0.222518 -0.496745 1.000000
f 3/3/3 2/2/2 1/1/1
f 3/3/3 1/1/1 4/4/4
f 5/5/5 4/4/4 1/1/1
f 6/6/6 5/5/5 1/1/1
f 1/1/1 7/7/7 6/6/6
f 8/8/8 7/7/7 1/1/1
f 9/9/9 5/5/5 6/6/6
f 6/6/6 7/7/7 9/9/9
f 7/7/7 8/8/8 10/10/10
f 9/9/9 7/7/7 10/10/10
f 11/11/11 10/10/10 8/8/8
f 12/12/12 5/5/5 9/9/9
f 9/9/9 10/10/10 12/12/12
f 5/5/5 12/12/12 13/13/13
f 14/14/14 12/12/12 10/10/10
f 10/10/10 11/11/11 14/14/14
f 15/15/15 13/13/13 12/12/12
f 15/15/15 12/12/12 14/14/14
f 16/16/16 13/13/13 15/15/15
f 16/16/16 11/11/11 17/17/17
f 14/14/14 18/18/18 15/15/15
f 18/18/18 14/14/14 11/11/11
f 16/16/16 15/15/15 18/18/18
f 16/16/16 18/18/18 11/11/11
