mtllib SM_BreakfastProps_Coffee_LOD2.mtl
g SM_BreakfastProps_Coffee_LOD2
#Vertices 7
#Indices 15
#Section 0 Offset 0 NumIndices 15 MaterialIndex 0 MI_BreakfastProps_Coffee
v -0.054927 0.093463 -0.015326
v -0.032483 0.093463 -0.044710
v 0.002868 0.093463 -0.057026
v -0.041832 0.093463 0.041957
v 0.016530 0.093463 0.055036
v 0.050318 0.093463 0.025638
v 0.051623 0.093463 -0.028045
vt 0.001443 0.208496
vt 0.117310 0.055664
vt 0.300293 -0.008789
vt 0.070496 0.505371
vt 0.373535 0.572021
vt 0.548340 0.418945
vt 0.553711 0.140625
vt1 0.010536 0.365723
vt1 0.209229 0.103516
vt1 0.523438 -0.006836
vt1 0.129028 0.875000
vt1 0.648926 0.989342
vt1 0.948730 0.726562
vt1 0.958496 0.249023
vn 0.000000 1.000000 -0.000000
vn 0.000000 1.000000 -0.000000
vn 0.000000 1.000000 -0.000000
vn 0.000000 1.000000 -0.000000
vn 0.000000 1.000000 -0.000000
vn 0.000000 1.000000 -0.000000
vn 0.000000 1.000000 -0.000000
tan 0.000000 -0.000000 -1.000000 1.000000
tan 0.000000 -0.000000 -1.000000 1.000000
tan 0.000000 -0.000000 -1.000000 1.000000
tan 0.000000 -0.000000 -1.000000 1.000000
tan 0.000000 -0.000000 -1.000000 1.000000
tan 0.000000 -0.000000 -1.000000 1.000000
tan 0.000000 -0.000000 -1.000000 1.000000
f 3/3/3 2/2/2 1/1/1
f 3/3/3 1/1/1 4/4/4
f 3/3/3 4/4/4 5/5/5
f 3/3/3 5/5/5 6/6/6
f 3/3/3 6/6/6 7/7/7
