mtllib SM_Bottles_03_LOD3.mtl
g SM_Bottles_03_LOD3
#Vertices 101
#Indices 312
#Section 0 Offset 0 NumIndices 78 MaterialIndex 0 MI_Bottles
#Section 1 Offset 78 NumIndices 234 MaterialIndex 1 MI_Bottles_Glass_1
v -0.005861 0.314519 -0.011907
v 0.004686 0.314699 -0.013083
v -0.000001 0.314233 0.000002
v 0.004686 0.314699 -0.013083
v 0.011891 0.314830 -0.005866
v -0.000001 0.314233 0.000002
v 0.011891 0.314830 -0.005866
v 0.013088 0.314775 0.004026
v -0.000001 0.314233 0.000002
v 0.013088 0.314775 0.004026
v 0.004714 0.315121 0.012576
v -0.000001 0.314233 0.000002
v 0.004714 0.315121 0.012576
v -0.008215 0.314508 0.011245
v -0.000001 0.314233 0.000002
v -0.008215 0.314508 0.011245
v -0.013435 0.315387 -0.002691
v -0.000001 0.314233 0.000002
v -0.013435 0.315387 -0.002691
v -0.005861 0.314519 -0.011907
v -0.000001 0.314233 0.000002
v 0.035687 0.051099 -0.015762
v 0.034955 0.140044 -0.015220
v 0.018126 0.140045 -0.035630
v 0.010737 0.051098 -0.038615
v -0.012335 0.140045 -0.037193
v -0.018506 0.051091 -0.034180
v -0.036777 0.140033 -0.016343
v -0.035656 0.051093 -0.015684
v -0.013435 0.315387 -0.002691
v -0.011751 0.280417 0.006408
v -0.013223 0.280557 -0.004281
v -0.008215 0.314508 0.011245
v -0.001712 0.280374 0.013494
v 0.004714 0.315121 0.012576
v 0.009081 0.280558 0.010293
v 0.013088 0.314775 0.004026
v 0.012334 0.280384 -0.005482
v 0.011891 0.314830 -0.005866
v 0.004686 0.314699 -0.013083
v 0.000968 0.280381 -0.013883
v -0.005861 0.314519 -0.011907
v -0.013223 0.280557 -0.004281
v -0.013435 0.315387 -0.002691
v 0.020536 0.000450 0.026674
v 0.035286 0.000026 0.005211
v -0.002501 -0.000068 0.034912
v 0.028031 0.000166 -0.016981
v 0.011578 -0.001267 -0.033055
v -0.014498 0.000161 -0.030889
v -0.031714 0.000014 -0.014981
v -0.030953 0.001149 0.016297
v 0.009081 0.280558 0.010293
v 0.010720 0.219207 0.015148
v -0.001712 0.280374 0.013494
v -0.011949 0.215573 0.013866
v -0.011751 0.280417 0.006408
v -0.002323 0.204413 0.028067
v 0.021351 0.192740 0.027692
v 0.024133 0.179675 0.031603
v -0.018410 0.217131 0.000452
v -0.013223 0.280557 -0.004281
v -0.024641 0.197892 0.021530
v -0.006081 0.215890 -0.018372
v 0.000968 0.280381 -0.013883
v -0.028437 0.203783 -0.009782
v 0.014693 0.215968 -0.011670
v 0.012334 0.280384 -0.005482
v -0.011051 0.179839 0.036954
v 0.016892 0.218896 0.006160
v 0.009081 0.280558 0.010293
v 0.010720 0.219207 0.015148
v 0.028366 0.203079 0.004018
v 0.021351 0.192740 0.027692
v 0.023007 0.198234 -0.024347
v 0.036687 0.178747 0.013599
v 0.024133 0.179675 0.031603
v 0.022972 0.016470 0.029888
v 0.034225 0.179234 -0.019839
v 0.040140 0.016237 0.000430
v 0.020536 0.000450 0.026674
v 0.035286 0.000026 0.005211
v 0.028031 0.000166 -0.016981
v 0.011578 -0.001267 -0.033055
v 0.022906 0.016469 -0.029902
v 0.004903 0.179759 -0.039168
v -0.007694 0.015244 -0.038462
v -0.031714 0.000014 -0.014981
v -0.014498 0.000161 -0.030889
v -0.008103 0.198295 -0.030792
v -0.022783 0.178621 -0.031310
v -0.032834 0.016490 -0.019202
v -0.036587 0.180486 -0.011739
v -0.038120 0.016539 0.006423
v -0.030953 0.001149 0.016297
v -0.034542 0.179332 0.018297
v -0.022914 0.015680 0.031783
v -0.002501 -0.000068 0.034912
v 0.005866 0.015758 0.037954
v 0.020536 0.000450 0.026674
v 0.022972 0.016470 0.029888
vt 0.646484 0.911804
vt 0.642578 0.879150
vt 0.683105 0.893616
vt 0.642578 0.879028
vt 0.665039 0.856812
vt 0.683105 0.893616
vt 0.665039 0.856812
vt 0.695312 0.853027
vt 0.683105 0.893616
vt 0.695801 0.853027
vt 0.722168 0.878967
vt 0.683105 0.893616
vt 0.722168 0.879089
vt 0.718262 0.919067
vt 0.683105 0.893616
vt 0.717773 0.919067
vt 0.674805 0.935303
vt 0.683105 0.893616
vt 0.674805 0.935242
vt 0.646484 0.911804
vt 0.683105 0.893616
vt 0.564453 0.000488
vt 0.565430 0.275879
vt 0.483643 0.275879
vt 0.459961 0.000488
vt 0.389648 0.275879
vt 0.368896 0.000488
vt 0.289795 0.275879
vt 0.291016 0.000488
vt 0.410156 0.656250
vt 0.301270 0.685547
vt 0.300537 0.652344
vt 0.406738 0.703369
vt 0.301270 0.724609
vt 0.408936 0.744385
vt 0.302002 0.760132
vt 0.407959 0.782104
vt 0.301514 0.811768
vt 0.407959 0.813477
vt 0.407471 0.845459
vt 0.301514 0.856323
vt 0.406982 0.878174
vt 0.301270 0.910706
vt 0.409912 0.916504
vt 0.277344 0.270020
vt 0.306396 0.288086
vt 0.249023 0.273438
vt 0.307617 0.315430
vt 0.296875 0.339844
vt 0.268311 0.349121
vt 0.243286 0.340820
vt 0.228516 0.308594
vt 0.089050 0.999986
vt 0.061646 0.930969
vt 0.101624 0.996983
vt 0.090088 0.919189
vt 0.116394 0.994686
vt 0.059570 0.905945
vt 0.023422 0.897522
vt 0.013077 0.878052
vt 0.113281 0.918457
vt 0.128784 0.993771
vt 0.082397 0.892944
vt 0.148560 0.916138
vt 0.150513 0.993641
vt 0.119934 0.898193
vt 0.181519 0.918518
vt 0.167725 0.995487
vt 0.053131 0.873535
vt 0.204224 0.926636
vt 0.186401 0.999282
vt 0.219604 0.931946
vt 0.217529 0.903564
vt 0.253662 0.896790
vt 0.187134 0.892517
vt 0.240479 0.873779
vt 0.265137 0.877991
vt 0.276611 0.677734
vt 0.204590 0.869995
vt 0.236328 0.677734
vt 0.273682 0.657227
vt 0.241699 0.659180
vt 0.212036 0.656982
vt 0.181763 0.656738
vt 0.195801 0.677002
vt 0.168335 0.868042
vt 0.158081 0.675049
vt 0.117798 0.657471
vt 0.147705 0.655762
vt 0.152466 0.890381
vt 0.139893 0.866211
vt 0.121521 0.676758
vt 0.115784 0.868896
vt 0.091064 0.677246
vt 0.076965 0.659424
vt 0.084595 0.869263
vt 0.056793 0.677246
vt 0.033325 0.658936
vt 0.022293 0.677979
vt 0.003052 0.657715
vt 0.000000 0.678223
vt1 0.011086 0.970261
vt1 0.007454 0.937805
vt1 0.047760 0.952209
vt1 0.007519 0.937683
vt1 0.029678 0.915588
vt1 0.047760 0.952209
vt1 0.029709 0.915588
vt1 0.060028 0.911865
vt1 0.047760 0.952209
vt1 0.060181 0.911926
vt1 0.086487 0.937653
vt1 0.047760 0.952209
vt1 0.086487 0.937775
vt1 0.082397 0.977493
vt1 0.047760 0.952209
vt1 0.082397 0.977524
vt1 0.039520 0.993641
vt1 0.047760 0.952209
vt1 0.039368 0.993572
vt1 0.011093 0.970276
vt1 0.047760 0.952209
vt1 0.990234 0.718018
vt1 0.991699 0.991806
vt1 0.910156 0.991936
vt1 0.886719 0.718018
vt1 0.816406 0.991936
vt1 0.796387 0.718018
vt1 0.717773 0.991737
vt1 0.718750 0.717773
vt1 0.875488 0.214355
vt1 0.767090 0.243164
vt1 0.766602 0.210449
vt1 0.872070 0.261230
vt1 0.767090 0.282227
vt1 0.874023 0.301758
vt1 0.768066 0.317383
vt1 0.873047 0.339355
vt1 0.767578 0.369141
vt1 0.873535 0.370605
vt1 0.873047 0.402344
vt1 0.767090 0.413086
vt1 0.872070 0.435059
vt1 0.767090 0.467285
vt1 0.875488 0.473145
vt1 0.850098 0.499023
vt1 0.925781 0.547363
vt1 0.776855 0.507812
vt1 0.928711 0.619141
vt1 0.901367 0.684082
vt1 0.827148 0.708740
vt1 0.762207 0.686279
vt1 0.724121 0.601562
vt1 0.243286 0.993305
vt1 0.170898 0.813599
vt1 0.276367 0.985481
vt1 0.245972 0.782959
vt1 0.315430 0.979507
vt1 0.165405 0.748535
vt1 0.069885 0.726562
vt1 0.042572 0.675781
vt1 0.307129 0.781006
vt1 0.348389 0.977127
vt1 0.225586 0.714600
vt1 0.400391 0.774902
vt1 0.405518 0.976791
vt1 0.324707 0.728271
vt1 0.487305 0.781128
vt1 0.451172 0.981583
vt1 0.148438 0.664062
vt1 0.547363 0.802368
vt1 0.500488 0.991470
vt1 0.587891 0.816162
vt1 0.582520 0.742432
vt1 0.678223 0.724609
vt1 0.502441 0.713623
vt1 0.643066 0.664795
vt1 0.708496 0.675781
vt1 0.738770 0.153809
vt1 0.548340 0.654785
vt1 0.631836 0.154297
vt1 0.730469 0.100586
vt1 0.646484 0.105957
vt1 0.567871 0.100098
vt1 0.488037 0.099609
vt1 0.524902 0.152344
vt1 0.452637 0.649902
vt1 0.425781 0.146973
vt1 0.319092 0.101562
vt1 0.398193 0.097168
vt1 0.410645 0.708008
vt1 0.377686 0.644775
vt1 0.328857 0.151367
vt1 0.313721 0.651855
vt1 0.248535 0.152832
vt1 0.211304 0.106445
vt1 0.231445 0.653076
vt1 0.158081 0.152832
vt1 0.096069 0.105469
vt1 0.066895 0.154785
vt1 0.016113 0.102051
vt1 0.008064 0.155762
vn 0.000000 1.000000 -0.000000
vn 0.000000 1.000000 -0.000000
vn 0.000000 1.000000 -0.000000
vn 0.000000 1.000000 -0.000000
vn 0.000000 1.000000 -0.000000
vn 0.000000 1.000000 -0.000000
vn 0.000000 1.000000 -0.000000
vn 0.000000 1.000000 -0.000000
vn 0.000000 1.000000 -0.000000
vn 0.000000 1.000000 -0.000000
vn 0.000000 1.000000 -0.000000
vn 0.000000 1.000000 -0.000000
vn 0.000000 1.000000 -0.000000
vn 0.000000 1.000000 -0.000000
vn 0.000000 1.000000 -0.000000
vn 0.000000 1.000000 -0.000000
vn 0.000000 1.000000 -0.000000
vn 0.000000 1.000000 -0.000000
vn 0.000000 1.000000 -0.000000
vn 0.000000 1.000000 -0.000000
vn 0.000000 1.000000 -0.000000
vn 0.881890 -0.000000 -0.464567
vn 0.866142 -0.000000 -0.496063
vn 0.480315 -0.000000 -0.874016
vn 0.275591 -0.000000 -0.960630
vn -0.322835 -0.000000 -0.944882
vn -0.480315 -0.000000 -0.874016
vn -0.897638 -0.000000 -0.440945
vn -0.881890 -0.000000 -0.472441
vn -0.984252 0.062992 -0.188976
vn -0.874016 -0.062992 0.480315
vn -0.952756 -0.070866 -0.291339
vn -0.606299 0.055118 0.795275
vn -0.118110 -0.062992 0.992126
vn 0.346457 0.062992 0.937008
vn 0.692913 -0.062992 0.716535
vn 0.952756 0.062992 0.291339
vn 0.913386 -0.062992 -0.409449
vn 0.897638 0.062992 -0.440945
vn 0.338583 0.055118 -0.937008
vn 0.070866 -0.062992 -0.992126
vn -0.440945 0.062992 -0.897638
vn -0.937008 -0.062992 -0.354331
vn -0.976378 0.062992 -0.212598
vn 0.173228 -0.960630 0.228347
vn 0.299213 -0.952756 0.047244
vn -0.023622 -0.960630 0.291339
vn 0.236220 -0.960630 -0.141732
vn 0.102362 -0.952756 -0.283464
vn -0.125984 -0.952756 -0.267716
vn -0.267717 -0.952756 -0.125984
vn -0.267717 -0.952756 0.141732
vn 0.661417 0.047244 0.748031
vn 0.535433 0.188976 0.818897
vn -0.149606 0.039370 0.984252
vn -0.645669 0.228347 0.724409
vn -0.881890 0.047244 0.472441
vn -0.039370 0.700787 0.716535
vn 0.535433 0.480315 0.692913
vn 0.590551 0.015748 0.811023
vn -0.984252 0.157480 0.039370
vn -0.929134 0.039370 -0.362205
vn -0.598425 0.614173 0.519685
vn -0.283465 0.228346 -0.929134
vn 0.078740 0.039370 -1.000000
vn -0.685039 0.685039 -0.259843
vn 0.779528 0.212598 -0.590551
vn 0.913386 0.047244 -0.409449
vn -0.291339 0.007874 0.960630
vn 0.929134 0.133858 0.338583
vn 0.692913 0.039370 0.724409
vn 0.566929 0.330709 0.755905
vn 0.708661 0.700787 0.118110
vn 0.535433 0.472441 0.700787
vn 0.551181 0.606299 -0.574803
vn 0.937008 0.000000 0.346457
vn 0.598425 0.015748 0.803149
vn 0.606299 -0.007874 0.795275
vn 0.866142 0.007874 -0.503937
vn 1.000000 -0.007874 0.007874
vn 0.440945 -0.669291 0.590551
vn 0.732283 -0.669291 0.078740
vn 0.307087 -0.937008 -0.157480
vn 0.220472 -0.645669 -0.732283
vn 0.606299 -0.007874 -0.795275
vn 0.125984 -0.000000 -0.992126
vn -0.196850 -0.007874 -0.976378
vn -0.700787 -0.637795 -0.322835
vn -0.157480 -0.929134 -0.330709
vn -0.228346 0.622047 -0.748031
vn -0.590551 -0.000000 -0.811023
vn -0.866142 -0.007874 -0.503937
vn -0.952756 0.007874 -0.307087
vn -0.984252 -0.007874 0.165354
vn -0.653543 -0.677165 0.330709
vn -0.881890 0.007874 0.464567
vn -0.582677 -0.007874 0.811023
vn -0.062992 -0.716535 0.692913
vn 0.149606 -0.007874 0.992126
vn 0.456693 -0.677165 0.574803
vn 0.606299 -0.007874 0.795275
tan 1.000000 0.000000 0.000000 1.000000
tan 1.000000 0.000000 0.000000 1.000000
tan 1.000000 0.000000 0.000000 1.000000
tan 1.000000 0.000000 0.000000 1.000000
tan 1.000000 0.000000 0.000000 1.000000
tan 1.000000 0.000000 0.000000 1.000000
tan 1.000000 0.000000 0.000000 1.000000
tan 1.000000 0.000000 0.000000 1.000000
tan 1.000000 0.000000 0.000000 1.000000
tan 1.000000 0.000000 0.000000 1.000000
tan 1.000000 0.000000 0.000000 1.000000
tan 1.000000 0.000000 0.000000 1.000000
tan 1.000000 0.000000 0.000000 1.000000
tan 1.000000 0.000000 0.000000 1.000000
tan 1.000000 0.000000 0.000000 1.000000
tan 1.000000 0.000000 0.000000 1.000000
tan 1.000000 0.000000 0.000000 1.000000
tan 1.000000 0.000000 0.000000 1.000000
tan 1.000000 0.000000 0.000000 1.000000
tan 1.000000 0.000000 0.000000 1.000000
tan 1.000000 0.000000 0.000000 1.000000
tan 0.000000 -0.896522 0.000000 1.000000
tan 0.000000 -0.946246 0.000000 1.000000
tan 0.006882 -0.916300 0.003782 1.000000
tan 0.000000 -0.958460 0.000000 1.000000
tan 0.000000 -0.942340 0.000000 1.000000
tan 0.000000 -0.892926 0.000000 1.000000
tan -0.003472 -0.908054 0.007068 1.000000
tan -0.003720 -0.896770 0.006944 1.000000
tan 0.185504 -0.054250 -0.984252 1.000000
tan -0.481803 0.020646 -0.874016 1.000000
tan 0.287433 0.052514 -0.952756 1.000000
tan -0.795276 0.006262 -0.606733 1.000000
tan -0.992126 -0.000000 -0.118110 1.000000
tan -0.937008 -0.007378 0.346953 1.000000
tan -0.717031 -0.005456 0.692913 1.000000
tan -0.291835 0.007502 0.952756 1.000000
tan 0.409945 0.007192 0.913386 1.000000
tan 0.441937 -0.014136 0.897638 1.000000
tan 0.937008 0.007378 0.339017 1.000000
tan 0.992126 -0.007812 0.071362 1.000000
tan 0.897638 -0.007068 -0.441441 1.000000
tan 0.355819 -0.022134 -0.937008 1.000000
tan 0.215078 0.038440 -0.976378 1.000000
tan 0.340381 0.275343 0.900118 1.000000
tan 0.502635 0.198028 0.810218 1.000000
tan 0.355509 0.261951 0.892554 1.000000
tan 0.363073 -0.042408 0.892554 1.000000
tan 0.247566 -0.247938 0.922748 1.000000
tan 0.337591 -0.295492 0.892740 1.000000
tan 0.547647 -0.257052 0.780209 1.000000
tan 0.502635 -0.020708 0.810218 1.000000
tan -0.698679 -0.290408 0.636121 1.000000
tan -0.566433 -0.601401 0.509145 1.000000
tan -0.162750 -0.968752 0.014012 1.000000
tan -0.647157 -0.528985 -0.410069 1.000000
tan -0.268213 -0.770785 -0.423585 1.000000
tan -0.005022 -0.718085 0.702027 1.000000
tan -0.255503 -0.680265 0.668981 1.000000
tan -0.170314 -0.864530 0.140802 1.000000
tan -0.159650 -0.984252 -0.054250 1.000000
tan -0.004836 -0.930374 -0.088722 1.000000
tan -0.571765 -0.762229 0.242421 1.000000
tan 0.056854 -0.940294 -0.248434 1.000000
tan -0.062992 -1.000000 -0.044330 1.000000
tan -0.691177 -0.691177 0.000000 1.000000
tan -0.366421 -0.513361 -0.668485 1.000000
tan -0.131316 -0.823858 -0.387997 1.000000
tan -0.113460 -0.953066 -0.026598 1.000000
tan 0.234174 -0.882572 -0.293694 1.000000
tan 0.672205 -0.402257 -0.621117 1.000000
tan 0.703081 -0.407713 -0.348937 1.000000
tan 0.696137 -0.703081 -0.005208 1.000000
tan 0.531093 -0.679893 0.052576 1.000000
tan 0.444975 -0.792113 -0.408829 1.000000
tan 0.070928 -0.912146 -0.191828 1.000000
tan 0.205840 -0.890818 -0.135904 1.000000
tan -0.034534 -0.974642 0.016678 1.000000
tan -0.219170 -0.806374 -0.389299 1.000000
tan -0.007874 -1.000000 0.000000 1.000000
tan -0.326121 -0.703763 -0.554095 1.000000
tan -0.669291 -0.732283 0.000000 1.000000
tan -0.841094 -0.345093 0.413169 1.000000
tan -0.010168 -0.735755 0.645669 1.000000
tan -0.053320 -0.974642 -0.031000 1.000000
tan -0.007812 -0.992126 -0.000992 1.000000
tan 0.000000 -0.976378 0.007874 1.000000
tan 0.640337 -0.716039 0.024614 1.000000
tan 0.248744 -0.359849 0.892554 1.000000
tan 0.000000 -0.748031 -0.622047 1.000000
tan 0.000000 -0.905202 0.000000 1.000000
tan 0.019778 -0.901854 -0.019902 1.000000
tan 0.006634 -0.952756 -0.045012 1.000000
tan 0.006572 -0.984252 -0.007750 1.000000
tan 0.666625 -0.687457 -0.090272 1.000000
tan -0.182838 -0.834398 -0.332941 1.000000
tan -0.304545 -0.868436 -0.227230 1.000000
tan 0.010726 -0.692417 -0.715047 1.000000
tan -0.039060 -0.992126 -0.001984 1.000000
tan -0.131006 -0.683365 -0.700973 1.000000
tan 0.046872 -0.968380 -0.045322 1.000000
f 3/3/3 2/2/2 1/1/1
f 6/6/6 5/5/5 4/4/4
f 9/9/9 8/8/8 7/7/7
f 12/12/12 11/11/11 10/10/10
f 15/15/15 14/14/14 13/13/13
f 18/18/18 17/17/17 16/16/16
f 21/21/21 20/20/20 19/19/19
f 24/24/24 23/23/23 22/22/22
f 25/25/25 24/24/24 22/22/22
f 24/24/24 25/25/25 26/26/26
f 25/25/25 27/27/27 26/26/26
f 26/26/26 27/27/27 28/28/28
f 29/29/29 28/28/28 27/27/27
f 32/32/32 31/31/31 30/30/30
f 31/31/31 33/33/33 30/30/30
f 34/34/34 33/33/33 31/31/31
f 35/35/35 33/33/33 34/34/34
f 36/36/36 35/35/35 34/34/34
f 35/35/35 36/36/36 37/37/37
f 38/38/38 37/37/37 36/36/36
f 38/38/38 39/39/39 37/37/37
f 38/38/38 40/40/40 39/39/39
f 41/41/41 40/40/40 38/38/38
f 41/41/41 42/42/42 40/40/40
f 43/43/43 42/42/42 41/41/41
f 43/43/43 44/44/44 42/42/42
f 47/47/47 46/46/46 45/45/45
f 47/47/47 48/48/48 46/46/46
f 47/47/47 49/49/49 48/48/48
f 47/47/47 50/50/50 49/49/49
f 47/47/47 51/51/51 50/50/50
f 47/47/47 52/52/52 51/51/51
f 55/55/55 54/54/54 53/53/53
f 54/54/54 55/55/55 56/56/56
f 55/55/55 57/57/57 56/56/56
f 54/54/54 56/56/56 58/58/58
f 54/54/54 58/58/58 59/59/59
f 58/58/58 60/60/60 59/59/59
f 56/56/56 57/57/57 61/61/61
f 62/62/62 61/61/61 57/57/57
f 63/63/63 58/58/58 56/56/56
f 61/61/61 62/62/62 64/64/64
f 65/65/65 64/64/64 62/62/62
f 56/56/56 61/61/61 66/66/66
f 66/66/66 61/61/61 64/64/64
f 63/63/63 56/56/56 66/66/66
f 67/67/67 64/64/64 65/65/65
f 68/68/68 67/67/67 65/65/65
f 69/69/69 58/58/58 63/63/63
f 60/60/60 58/58/58 69/69/69
f 67/67/67 68/68/68 70/70/70
f 71/71/71 70/70/70 68/68/68
f 72/72/72 70/70/70 71/71/71
f 70/70/70 72/72/72 73/73/73
f 70/70/70 73/73/73 67/67/67
f 74/74/74 73/73/73 72/72/72
f 67/67/67 73/73/73 75/75/75
f 75/75/75 64/64/64 67/67/67
f 73/73/73 74/74/74 76/76/76
f 77/77/77 76/76/76 74/74/74
f 77/77/77 78/78/78 76/76/76
f 79/79/79 73/73/73 76/76/76
f 73/73/73 79/79/79 75/75/75
f 78/78/78 80/80/80 76/76/76
f 79/79/79 76/76/76 80/80/80
f 78/78/78 81/81/81 80/80/80
f 82/82/82 80/80/80 81/81/81
f 84/84/84 82/82/82 83/83/83
f 82/82/82 84/84/84 80/80/80
f 85/85/85 79/79/79 80/80/80
f 84/84/84 85/85/85 80/80/80
f 79/79/79 85/85/85 86/86/86
f 79/79/79 86/86/86 75/75/75
f 85/85/85 84/84/84 87/87/87
f 87/87/87 86/86/86 85/85/85
f 84/84/84 89/89/89 88/88/88
f 84/84/84 88/88/88 87/87/87
f 75/75/75 86/86/86 90/90/90
f 75/75/75 90/90/90 64/64/64
f 90/90/90 66/66/66 64/64/64
f 91/91/91 90/90/90 86/86/86
f 91/91/91 86/86/86 87/87/87
f 90/90/90 91/91/91 66/66/66
f 88/88/88 92/92/92 87/87/87
f 92/92/92 91/91/91 87/87/87
f 93/93/93 66/66/66 91/91/91
f 91/91/91 92/92/92 93/93/93
f 92/92/92 88/88/88 94/94/94
f 94/94/94 93/93/93 92/92/92
f 95/95/95 94/94/94 88/88/88
f 96/96/96 66/66/66 93/93/93
f 93/93/93 94/94/94 96/96/96
f 66/66/66 96/96/96 63/63/63
f 63/63/63 96/96/96 69/69/69
f 97/97/97 94/94/94 95/95/95
f 97/97/97 96/96/96 94/94/94
f 96/96/96 97/97/97 69/69/69
f 98/98/98 97/97/97 95/95/95
f 97/97/97 99/99/99 69/69/69
f 97/97/97 98/98/98 99/99/99
f 60/60/60 69/69/69 99/99/99
f 99/99/99 98/98/98 100/100/100
f 101/101/101 60/60/60 99/99/99
f 101/101/101 99/99/99 100/100/100
