mtllib SM_Beams_05_LOD4.mtl
g SM_Beams_05_LOD4
#Vertices 91
#Indices 168
#Section 0 Offset 0 NumIndices 168 MaterialIndex 0 MI_Beams
v 0.095344 3.012997 0.081282
v 0.096046 2.898905 0.077926
v 0.087032 3.007531 0.086958
v 0.096046 2.898905 0.077926
v 0.094604 2.714471 0.079972
v 0.083982 2.723330 0.089040
v 0.094604 2.714471 0.079972
v 0.091681 2.394792 0.090125
v 0.083982 2.723330 0.089040
v 0.091681 2.394792 0.090125
v 0.094399 2.179856 0.082467
v 0.084676 2.183132 0.089300
v -0.098314 1.538746 0.061611
v -0.101249 1.549015 0.089118
v -0.098791 1.357834 0.084009
v 0.092292 1.743142 0.094047
v 0.084676 2.183132 0.089300
v 0.094399 2.179856 0.082467
v -0.094207 2.442958 -0.085595
v -0.089089 2.845102 -0.085281
v -0.094567 2.853198 -0.074953
v -0.089089 2.845102 -0.085281
v -0.090027 3.037425 -0.084803
v -0.094567 2.853198 -0.074953
v 0.094543 0.000432 -0.090332
v 0.100107 0.003496 0.075673
v 0.095924 1.495907 -0.085923
v 0.092670 1.441267 0.089924
v 0.092848 3.025324 -0.084337
v 0.095344 3.012997 0.081282
v -0.100987 3.021715 0.080554
v -0.090027 3.037425 -0.084803
v 0.095924 1.495907 -0.085923
v 0.092670 1.441267 0.089924
v 0.092292 1.743142 0.094047
v 0.095703 2.234250 -0.081379
v 0.094399 2.179856 0.082467
v 0.091681 2.394792 0.090125
v 0.094604 2.714471 0.079972
v 0.092848 3.025324 -0.084337
v 0.096046 2.898905 0.077926
v 0.095344 3.012997 0.081282
v -0.100987 3.021715 0.080554
v 0.087032 3.007531 0.086958
v 0.083982 2.723330 0.089040
v 0.096046 2.898905 0.077926
v -0.101249 1.549015 0.089118
v 0.091681 2.394792 0.090125
v 0.084676 2.183132 0.089300
v 0.092292 1.743142 0.094047
v 0.092670 1.441267 0.089924
v -0.098632 1.500156 -0.082905
v 0.095924 1.495907 -0.085923
v -0.102409 2.116053 -0.082170
v 0.095703 2.234250 -0.081379
v -0.094207 2.442958 -0.085595
v 0.095703 2.234250 -0.081379
v 0.092848 3.025324 -0.084337
v -0.089089 2.845102 -0.085281
v -0.090027 3.037425 -0.084803
v -0.098314 1.538746 0.061611
v -0.098791 1.357834 0.084009
v -0.098632 1.500156 -0.082905
v -0.099949 0.795451 0.081812
v -0.090457 0.553313 -0.092036
v -0.092213 -0.003417 0.078259
v -0.093865 -0.002877 -0.078899
v -0.099949 0.795451 0.081812
v -0.078537 -0.000804 0.084622
v 0.092670 1.441267 0.089924
v 0.100107 0.003496 0.075673
v -0.098791 1.357834 0.084009
v -0.101249 1.549015 0.089118
v 0.094543 0.000432 -0.090332
v -0.093865 -0.002877 -0.078899
v 0.100107 0.003496 0.075673
v -0.092213 -0.003417 0.078259
v -0.078537 -0.000804 0.084622
v -0.090027 3.037425 -0.084803
v -0.100987 3.021715 0.080554
v -0.094567 2.853198 -0.074953
v -0.094207 2.442958 -0.085595
v -0.101249 1.549015 0.089118
v -0.102409 2.116053 -0.082170
v -0.098632 1.500156 -0.082905
v -0.098314 1.538746 0.061611
v 0.094543 0.000432 -0.090332
v -0.090457 0.553313 -0.092036
v -0.093865 -0.002877 -0.078899
v 0.095924 1.495907 -0.085923
v -0.098632 1.500156 -0.082905
vt 0.374023 0.440918
vt 0.372803 0.408691
vt 0.376709 0.439453
vt 0.372803 0.408691
vt 0.373291 0.356934
vt 0.376465 0.359375
vt 0.373535 0.356934
vt 0.375488 0.266602
vt 0.377441 0.359375
vt 0.375488 0.266602
vt 0.373779 0.206055
vt 0.376709 0.207031
vt 0.625000 0.438477
vt 0.618652 0.441406
vt 0.619629 0.387695
vt 0.375977 0.082520
vt 0.376709 0.207031
vt 0.373535 0.206055
vt 0.283203 0.280273
vt 0.284180 0.393555
vt 0.281494 0.395996
vt 0.284180 0.393555
vt 0.284912 0.447754
vt 0.281250 0.395996
vt 0.527832 0.004395
vt 0.565918 0.005859
vt 0.525879 0.425781
vt 0.567383 0.410645
vt 0.899902 0.180664
vt 0.860840 0.180664
vt 0.862793 0.125000
vt 0.901367 0.128906
vt 0.334473 0.013184
vt 0.375488 -0.001953
vt 0.376465 0.082520
vt 0.335449 0.221191
vt 0.373779 0.206055
vt 0.375732 0.266602
vt 0.373535 0.356445
vt 0.335205 0.444336
vt 0.373047 0.408691
vt 0.374023 0.440918
vt 0.429443 0.443359
vt 0.376465 0.439453
vt 0.377197 0.359375
vt 0.373291 0.408691
vt 0.428955 0.027832
vt 0.375000 0.266602
vt 0.376709 0.207031
vt 0.374512 0.082520
vt 0.374756 -0.001953
vt 0.281006 0.014160
vt 0.335693 0.013184
vt 0.280762 0.187988
vt 0.335693 0.221191
vt 0.282471 0.280273
vt 0.335938 0.221191
vt 0.335693 0.444336
vt 0.284180 0.393555
vt 0.283936 0.447754
vt 0.625000 0.438477
vt 0.619629 0.387207
vt 0.658691 0.427734
vt 0.620605 0.229004
vt 0.661621 0.160645
vt 0.619141 0.003906
vt 0.655762 0.002930
vt 0.621582 0.229004
vt 0.615723 0.004395
vt 0.566895 0.410645
vt 0.565430 0.005859
vt 0.620605 0.387207
vt 0.621094 0.441406
vt 0.946289 0.141602
vt 0.944336 0.194824
vt 0.907227 0.140625
vt 0.907715 0.194824
vt 0.905762 0.190918
vt 0.467041 0.447754
vt 0.428711 0.443359
vt 0.465088 0.395996
vt 0.468018 0.280273
vt 0.427246 0.027832
vt 0.467529 0.187988
vt 0.466797 0.014160
vt 0.433105 0.024902
vt 0.528809 0.004395
vt 0.474609 0.159668
vt 0.475586 0.002930
vt 0.526855 0.426270
vt 0.473145 0.427246
vt1 0.218018 0.982071
vt1 0.215576 0.914001
vt1 0.224243 0.978653
vt1 0.215454 0.913757
vt1 0.216675 0.803711
vt1 0.224121 0.808838
vt1 0.217163 0.803711
vt1 0.221436 0.612305
vt1 0.226074 0.808838
vt1 0.221802 0.612549
vt1 0.217407 0.483887
vt1 0.224609 0.485840
vt1 0.799316 0.993645
vt1 0.784668 0.999932
vt1 0.787109 0.885864
vt1 0.222900 0.222656
vt1 0.224487 0.486328
vt1 0.217041 0.484375
vt1 0.008751 0.641602
vt1 0.010910 0.882019
vt1 0.004379 0.886902
vt1 0.010910 0.882019
vt1 0.012466 0.996920
vt1 0.004242 0.886902
vt1 0.574707 0.073730
vt1 0.663574 0.076172
vt1 0.571289 0.967102
vt1 0.666504 0.934875
vt1 0.991699 0.994026
vt1 0.892578 0.993946
vt1 0.896484 0.876038
vt1 0.995605 0.884277
vt1 0.126953 0.075195
vt1 0.221680 0.042480
vt1 0.223999 0.222656
vt1 0.129395 0.516602
vt1 0.217529 0.483887
vt1 0.222168 0.612549
vt1 0.217041 0.803589
vt1 0.128784 0.989578
vt1 0.216064 0.913879
vt1 0.218262 0.982101
vt1 0.346436 0.987007
vt1 0.224121 0.978729
vt1 0.225708 0.808838
vt1 0.216675 0.913818
vt1 0.344727 0.106934
vt1 0.220215 0.612549
vt1 0.224487 0.485840
vt1 0.219238 0.222656
vt1 0.219727 0.042480
vt1 0.003384 0.078125
vt1 0.129639 0.075195
vt1 0.002871 0.446289
vt1 0.129517 0.516357
vt1 0.006966 0.641357
vt1 0.130493 0.516602
vt1 0.129517 0.989555
vt1 0.010910 0.882019
vt1 0.010414 0.996958
vt1 0.799805 0.993752
vt1 0.787598 0.885620
vt1 0.876953 0.970810
vt1 0.790039 0.549561
vt1 0.883789 0.404297
vt1 0.786621 0.072266
vt1 0.870605 0.070801
vt1 0.791992 0.549316
vt1 0.777832 0.073730
vt1 0.665039 0.934937
vt1 0.662598 0.076172
vt1 0.789551 0.885620
vt1 0.790527 1.000024
vt1 0.885254 0.749512
vt1 0.890625 0.862061
vt1 0.984375 0.747070
vt1 0.984375 0.862061
vt1 0.988281 0.853882
vt1 0.433105 0.996901
vt1 0.344238 0.987045
vt1 0.428467 0.886780
vt1 0.435303 0.641113
vt1 0.341064 0.106934
vt1 0.434082 0.445801
vt1 0.432129 0.077148
vt1 0.354492 0.100586
vt1 0.577148 0.073730
vt1 0.452148 0.403320
vt1 0.454834 0.070312
vt1 0.573242 0.967529
vt1 0.448486 0.969940
vn 0.566929 0.023622 0.818897
vn 0.566929 0.023622 0.818897
vn 0.566929 0.023622 0.818897
vn 0.921260 -0.015748 0.393701
vn 0.921260 -0.015748 0.393701
vn 0.921260 -0.015748 0.393701
vn 0.519685 0.031496 0.858268
vn 0.519685 0.031496 0.858268
vn 0.519685 0.031496 0.858268
vn 0.653543 0.007874 0.755905
vn 0.653543 0.007874 0.755905
vn 0.653543 0.007874 0.755905
vn -0.960630 0.007874 0.267716
vn -0.960630 0.007874 0.267716
vn -0.960630 0.007874 0.267716
vn 0.622047 0.000000 0.779527
vn 0.622047 0.000000 0.779527
vn 0.622047 0.000000 0.779527
vn -0.866142 -0.000000 -0.503937
vn -0.866142 -0.000000 -0.503937
vn -0.866142 -0.000000 -0.503937
vn -0.881890 0.023622 -0.472441
vn -0.881890 0.023622 -0.472441
vn -0.881890 0.023622 -0.472441
vn 1.000000 -0.062992 -0.015748
vn 1.000000 -0.015748 -0.007874
vn 1.000000 0.023622 -0.007874
vn 1.000000 0.007874 0.007874
vn 0.062992 1.000000 -0.007874
vn 0.740157 0.669291 0.078740
vn -0.244094 0.937008 0.236220
vn 0.007874 1.000000 -0.086614
vn 1.000000 -0.000000 -0.007874
vn 1.000000 0.007874 0.039370
vn 1.000000 0.000000 0.000000
vn 1.000000 -0.007874 -0.007874
vn 1.000000 0.000000 0.000000
vn 1.000000 -0.007874 0.007874
vn 1.000000 0.000000 0.023622
vn 1.000000 0.062992 -0.007874
vn 1.000000 -0.055118 0.000000
vn 0.771654 0.637795 0.078740
vn -0.070866 0.039370 1.000000
vn 0.015748 0.039370 1.000000
vn 0.023622 0.007874 1.000000
vn 0.165354 -0.047244 0.984252
vn -0.031496 -0.015748 1.000000
vn 0.031496 0.000000 1.000000
vn 0.007874 0.000000 1.000000
vn 0.039370 -0.007874 1.000000
vn 0.015748 0.000000 1.000000
vn -0.023622 -0.000000 -1.000000
vn 0.015748 0.007874 -1.000000
vn -0.007874 -0.000000 -1.000000
vn 0.000000 -0.000000 -1.000000
vn -0.015748 -0.000000 -1.000000
vn 0.031496 -0.015748 -1.000000
vn 0.023622 0.039370 -1.000000
vn -0.007874 -0.000000 -1.000000
vn -0.015748 0.102362 -0.992126
vn -1.000000 0.007874 -0.023622
vn -1.000000 -0.007874 -0.023622
vn -1.000000 -0.000000 -0.015748
vn -1.000000 -0.000000 -0.007874
vn -1.000000 0.015748 -0.039370
vn -0.944882 -0.165354 0.283465
vn -0.992126 -0.094488 0.000000
vn -0.062992 0.000000 1.000000
vn -0.007874 -0.047244 1.000000
vn 0.023622 0.007874 1.000000
vn 0.039370 -0.062992 1.000000
vn -0.015748 0.000000 1.000000
vn -0.023622 -0.007874 1.000000
vn 0.070866 -0.992126 -0.102362
vn -0.055118 -0.992126 -0.078740
vn 0.157480 -0.976378 0.133858
vn -0.141732 -0.984252 0.070866
vn -0.055118 -0.149606 0.984252
vn -1.000000 0.062992 -0.023622
vn -1.000000 0.023622 -0.015748
vn -1.000000 0.007874 -0.015748
vn -1.000000 -0.000000 -0.023622
vn -1.000000 -0.007874 -0.023622
vn -1.000000 -0.000000 -0.023622
vn -1.000000 -0.000000 -0.023622
vn -1.000000 -0.007874 -0.015748
vn -0.007874 -0.031496 -1.000000
vn -0.031496 0.047244 -1.000000
vn -0.023622 -0.275591 -0.960630
vn 0.023622 -0.000000 -1.000000
vn -0.023622 -0.000000 -1.000000
tan -0.047864 -0.895282 0.058962 1.000000
tan -0.040672 -0.913138 0.054498 1.000000
tan -0.054312 -0.895282 0.063426 1.000000
tan -0.018848 -0.930560 0.006882 1.000000
tan -0.018848 -0.921260 0.007254 1.000000
tan -0.018848 -0.927460 0.007006 1.000000
tan -0.003038 -0.912890 0.035340 1.000000
tan -0.012772 -0.870544 0.039680 1.000000
tan -0.012028 -0.882820 0.039680 1.000000
tan -0.032426 -0.957220 0.038006 1.000000
tan -0.038998 -0.929568 0.043400 1.000000
tan -0.014198 -0.970240 0.022382 1.000000
tan -0.012090 -0.960630 -0.015128 1.000000
tan -0.012090 -0.960630 -0.015128 1.000000
tan -0.012090 -0.960630 -0.015128 1.000000
tan -0.049104 -0.832166 0.039184 1.000000
tan -0.012276 -0.932482 0.009796 1.000000
tan -0.018414 -0.903156 0.014694 1.000000
tan 0.003968 -0.897886 -0.006820 1.000000
tan 0.000000 -0.951702 0.000000 1.000000
tan 0.003968 -0.897886 -0.006820 1.000000
tan -0.015996 -0.945626 -0.017422 1.000000
tan -0.016182 -0.900490 -0.014818 1.000000
tan -0.016182 -0.900490 -0.014818 1.000000
tan -0.063116 -1.000000 -0.007874 1.000000
tan -0.015810 -1.000000 -0.007874 1.000000
tan 0.023622 -1.000000 0.000000 1.000000
tan 0.007874 -1.000000 0.000000 1.000000
tan -1.000000 0.063302 0.039370 1.000000
tan -0.671151 0.740777 0.012214 1.000000
tan -0.929630 -0.264493 0.088536 1.000000
tan -1.000000 0.010602 0.031496 1.000000
tan 0.000000 -1.000000 0.000000 1.000000
tan 0.007874 -1.000000 0.000000 1.000000
tan 0.000000 -1.000000 0.000000 1.000000
tan -0.007874 -1.000000 0.000000 1.000000
tan 0.000000 -1.000000 0.000000 1.000000
tan -0.007874 -1.000000 0.000000 1.000000
tan 0.000000 -1.000000 0.000000 1.000000
tan 0.062992 -1.000000 0.000000 1.000000
tan -0.055118 -1.000000 -0.007874 1.000000
tan 0.616591 -0.767561 0.174654 1.000000
tan 0.000000 -1.000000 0.039370 1.000000
tan 0.000000 -1.000000 0.039370 1.000000
tan 0.000000 -1.000000 0.007874 1.000000
tan -0.007750 -0.984252 -0.045942 1.000000
tan 0.000000 -1.000000 -0.015748 1.000000
tan 0.000000 -1.000000 0.000000 1.000000
tan 0.000000 -1.000000 0.000000 1.000000
tan 0.000000 -1.000000 -0.007874 1.000000
tan 0.007874 -1.000000 -0.000124 1.000000
tan 0.000000 -1.000000 0.000000 1.000000
tan 0.007874 -1.000000 -0.007750 1.000000
tan 0.000000 -1.000000 0.000000 1.000000
tan 0.000000 -1.000000 0.000000 1.000000
tan 0.000000 -1.000000 0.000000 1.000000
tan 0.000000 -1.000000 0.015748 1.000000
tan 0.000000 -1.000000 -0.039370 1.000000
tan 0.000000 -1.000000 0.000000 1.000000
tan 0.007812 -0.992126 -0.102486 1.000000
tan -0.007874 -1.000000 0.000000 1.000000
tan 0.007874 -1.000000 0.000000 1.000000
tan 0.000000 -1.000000 0.000000 1.000000
tan 0.000000 -1.000000 0.000000 1.000000
tan -0.015748 -1.000000 0.000000 1.000000
tan 0.137268 -0.950834 -0.097092 1.000000
tan 0.094488 -0.992126 0.039060 1.000000
tan 0.007874 -1.000000 0.000496 1.000000
tan 0.000000 -1.000000 -0.047244 1.000000
tan 0.007874 -1.000000 0.007688 1.000000
tan -0.007874 -1.000000 -0.062682 1.000000
tan 0.000000 -1.000000 0.000000 1.000000
tan 0.007874 -1.000000 -0.007688 1.000000
tan 0.992126 0.072478 -0.015624 1.000000
tan 0.992126 -0.052638 -0.031248 1.000000
tan 0.976378 0.158534 0.007688 1.000000
tan 0.984252 -0.142290 -0.007750 1.000000
tan 0.984252 0.031000 0.059830 1.000000
tan -0.063178 -1.000000 0.007874 1.000000
tan -0.023746 -1.000000 0.007874 1.000000
tan -0.007998 -1.000000 0.007874 1.000000
tan 0.000000 -1.000000 0.000000 1.000000
tan 0.008060 -1.000000 -0.007874 1.000000
tan 0.000000 -1.000000 0.000000 1.000000
tan 0.000186 -1.000000 -0.007874 1.000000
tan 0.007874 -1.000000 0.000000 1.000000
tan -0.015748 -1.000000 0.031620 1.000000
tan 0.000000 -1.000000 -0.047244 1.000000
tan -0.007564 -0.960630 0.275777 1.000000
tan 0.007874 -1.000000 0.000186 1.000000
tan 0.000000 -1.000000 0.000000 1.000000
f 3/3/3 2/2/2 1/1/1
f 6/6/6 5/5/5 4/4/4
f 9/9/9 8/8/8 7/7/7
f 12/12/12 11/11/11 10/10/10
f 15/15/15 14/14/14 13/13/13
f 18/18/18 17/17/17 16/16/16
f 21/21/21 20/20/20 19/19/19
f 24/24/24 23/23/23 22/22/22
f 27/27/27 26/26/26 25/25/25
f 26/26/26 27/27/27 28/28/28
f 31/31/31 30/30/30 29/29/29
f 29/29/29 32/32/32 31/31/31
f 35/35/35 34/34/34 33/33/33
f 35/35/35 33/33/33 36/36/36
f 35/35/35 36/36/36 37/37/37
f 36/36/36 38/38/38 37/37/37
f 39/39/39 38/38/38 36/36/36
f 36/36/36 40/40/40 39/39/39
f 40/40/40 41/41/41 39/39/39
f 42/42/42 41/41/41 40/40/40
f 44/44/44 42/42/42 43/43/43
f 43/43/43 45/45/45 44/44/44
f 46/46/46 44/44/44 45/45/45
f 47/47/47 45/45/45 43/43/43
f 45/45/45 47/47/47 48/48/48
f 48/48/48 47/47/47 49/49/49
f 47/47/47 50/50/50 49/49/49
f 51/51/51 50/50/50 47/47/47
f 54/54/54 53/53/53 52/52/52
f 55/55/55 53/53/53 54/54/54
f 57/57/57 54/54/54 56/56/56
f 58/58/58 57/57/57 56/56/56
f 56/56/56 59/59/59 58/58/58
f 58/58/58 59/59/59 60/60/60
f 63/63/63 62/62/62 61/61/61
f 64/64/64 62/62/62 63/63/63
f 64/64/64 63/63/63 65/65/65
f 66/66/66 64/64/64 65/65/65
f 67/67/67 66/66/66 65/65/65
f 66/66/66 69/69/69 68/68/68
f 70/70/70 68/68/68 69/69/69
f 69/69/69 71/71/71 70/70/70
f 72/72/72 68/68/68 70/70/70
f 72/72/72 70/70/70 73/73/73
f 76/76/76 75/75/75 74/74/74
f 77/77/77 75/75/75 76/76/76
f 77/77/77 76/76/76 78/78/78
f 81/81/81 80/80/80 79/79/79
f 81/81/81 82/82/82 80/80/80
f 82/82/82 83/83/83 80/80/80
f 83/83/83 82/82/82 84/84/84
f 85/85/85 83/83/83 84/84/84
f 85/85/85 86/86/86 83/83/83
f 89/89/89 88/88/88 87/87/87
f 87/87/87 88/88/88 90/90/90
f 90/90/90 88/88/88 91/91/91
