mtllib SM_BreakfastProps_Jam_01_LOD2.mtl
g SM_BreakfastProps_Jam_01_LOD2
#Vertices 26
#Indices 120
#Section 0 Offset 0 NumIndices 120 MaterialIndex 0 MI_BreakfastProps
v 0.006647 0.001595 0.007246
v 0.006618 0.003792 0.005272
v 0.008589 0.001513 0.005326
v 0.004113 0.001636 0.009634
v 0.010607 0.001608 0.000069
v 0.001160 0.003765 0.010057
v -0.001142 0.001734 0.012408
v 0.009117 0.003779 -0.002577
v -0.004005 0.003752 0.010292
v -0.003360 0.001889 0.012560
v -0.000321 0.004967 -0.000568
v -0.008138 0.002419 0.007681
v -0.010909 0.001328 0.002143
v -0.008887 0.003796 0.002933
v -0.010597 0.002405 -0.002018
v -0.007341 0.001169 -0.010329
v -0.008751 0.003769 -0.004404
v -0.007161 0.002501 -0.009579
v -0.001483 0.002580 -0.012244
v -0.005928 0.003760 -0.009273
v -0.000422 0.001112 -0.012158
v -0.001858 0.003759 -0.010934
v 0.004223 0.003771 -0.008633
v 0.005414 0.002507 -0.009213
v 0.009489 0.001075 -0.005766
v 0.008992 0.002456 -0.005053
vt 0.059052 0.001953
vt 0.059326 0.001953
vt 0.059235 0.002441
vt 0.058868 0.001953
vt 0.059784 0.002441
vt 0.058960 0.001465
vt 0.058685 0.000977
vt 0.060059 0.002441
vt 0.058990 0.000977
vt 0.058685 0.000977
vt 0.059998 0.001465
vt 0.059296 0.000488
vt 0.059875 0.000000
vt 0.059784 0.000488
vt 0.060272 0.000488
vt 0.061157 0.000977
vt 0.060486 0.000488
vt 0.061005 0.000977
vt 0.061188 0.001465
vt 0.060913 0.000977
vt 0.061249 0.001465
vt 0.061035 0.001465
vt 0.060730 0.001953
vt 0.060791 0.001953
vt 0.060425 0.002441
vt 0.060333 0.002441
vt1 0.165894 0.762695
vt1 0.263428 0.747314
vt1 0.233887 0.859375
vt1 0.086853 0.634033
vt1 0.430176 0.967285
vt1 0.121094 0.494141
vt1 0.020950 0.383301
vt1 0.539062 0.887390
vt1 0.139771 0.281738
vt1 0.027313 0.275391
vt1 0.511719 0.493164
vt1 0.245972 0.110352
vt1 0.465088 -0.019531
vt1 0.427979 0.120605
vt1 0.619141 0.056641
vt1 0.941895 0.229004
vt1 0.693848 0.168457
vt1 0.884766 0.253906
vt1 0.953125 0.512695
vt1 0.853027 0.314453
vt1 0.980957 0.566895
vt1 0.893066 0.488281
vt1 0.783203 0.724854
vt1 0.812012 0.790527
vt1 0.677246 0.977295
vt1 0.635254 0.917847
vn 0.511811 0.228347 0.826772
vn 0.173228 0.968504 0.173228
vn 0.897638 0.220472 0.393701
vn 0.677165 0.244095 0.692913
vn 0.952756 0.212598 0.204724
vn 0.141732 0.968504 0.204724
vn 0.141732 0.259843 0.952756
vn 0.244094 0.968504 -0.039370
vn -0.118110 0.976378 0.188976
vn -0.425197 0.259843 0.866142
vn 0.000000 1.000000 -0.000000
vn -0.732283 0.456693 0.503937
vn -0.976378 0.141732 0.149606
vn -0.244094 0.968504 0.062992
vn -0.905512 0.417323 -0.094488
vn -0.724409 0.165354 -0.669291
vn -0.259843 0.960630 -0.070866
vn -0.669291 0.480315 -0.566929
vn 0.039370 0.511811 -0.858268
vn -0.181102 0.968504 -0.173228
vn 0.212598 0.204724 -0.960630
vn 0.007874 0.968504 -0.236221
vn 0.157480 0.968504 -0.196850
vn 0.574803 0.480315 -0.661417
vn 0.803150 0.173228 -0.574803
vn 0.700787 0.464567 -0.535433
tan -0.813752 0.149730 0.462397 1.000000
tan -0.968504 0.166408 0.038130 1.000000
tan -0.431149 0.660425 0.613181 1.000000
tan -0.702523 0.059396 0.665633 1.000000
tan -0.265361 0.900242 0.300080 1.000000
tan -0.953252 0.107260 0.152520 1.000000
tan -0.945254 -0.105028 0.169260 1.000000
tan -0.960878 0.247132 0.122016 1.000000
tan -0.953314 -0.154008 0.199888 1.000000
tan -0.850456 -0.167152 -0.367351 1.000000
tan -0.992126 0.000000 0.133858 1.000000
tan -0.637237 -0.695579 -0.295616 1.000000
tan -0.151156 -0.976378 -0.061504 1.000000
tan -0.960878 -0.249612 0.114390 1.000000
tan -0.425197 -0.898382 0.106950 1.000000
tan -0.683551 -0.111910 0.712195 1.000000
tan -0.960630 -0.253704 0.083204 1.000000
tan -0.742761 -0.422841 0.518631 1.000000
tan -0.843326 0.217186 0.090830 1.000000
tan -0.960878 -0.159216 0.114390 1.000000
tan -0.953066 0.143716 -0.180296 1.000000
tan -0.953252 0.046810 0.160146 1.000000
tan -0.953252 0.190650 0.175398 1.000000
tan -0.751566 0.455453 -0.322401 1.000000
tan -0.599045 0.277388 -0.753425 1.000000
tan -0.666005 0.681877 -0.280055 1.000000
f 3/3/3 2/2/2 1/1/1
f 1/1/1 2/2/2 4/4/4
f 3/3/3 5/5/5 2/2/2
f 2/2/2 6/6/6 4/4/4
f 4/4/4 6/6/6 7/7/7
f 8/8/8 2/2/2 5/5/5
f 6/6/6 9/9/9 7/7/7
f 10/10/10 7/7/7 9/9/9
f 2/2/2 11/11/11 6/6/6
f 11/11/11 9/9/9 6/6/6
f 8/8/8 11/11/11 2/2/2
f 12/12/12 10/10/10 9/9/9
f 10/10/10 12/12/12 13/13/13
f 9/9/9 14/14/14 12/12/12
f 11/11/11 14/14/14 9/9/9
f 15/15/15 13/13/13 12/12/12
f 12/12/12 14/14/14 15/15/15
f 16/16/16 13/13/13 15/15/15
f 14/14/14 17/17/17 15/15/15
f 17/17/17 14/14/14 11/11/11
f 15/15/15 18/18/18 16/16/16
f 18/18/18 15/15/15 17/17/17
f 19/19/19 16/16/16 18/18/18
f 17/17/17 20/20/20 18/18/18
f 17/17/17 11/11/11 20/20/20
f 19/19/19 18/18/18 20/20/20
f 16/16/16 19/19/19 21/21/21
f 22/22/22 20/20/20 11/11/11
f 19/19/19 20/20/20 22/22/22
f 23/23/23 22/22/22 11/11/11
f 22/22/22 23/23/23 19/19/19
f 8/8/8 23/23/23 11/11/11
f 21/21/21 19/19/19 24/24/24
f 24/24/24 19/19/19 23/23/23
f 25/25/25 21/21/21 24/24/24
f 26/26/26 23/23/23 8/8/8
f 26/26/26 24/24/24 23/23/23
f 26/26/26 25/25/25 24/24/24
f 8/8/8 5/5/5 26/26/26
f 5/5/5 25/25/25 26/26/26
