mtllib SM_BreakfastProps_BreadCrumb_03_LOD2.mtl
g SM_BreakfastProps_BreadCrumb_03_LOD2
#Vertices 16
#Indices 66
#Section 0 Offset 0 NumIndices 66 MaterialIndex 0 MI_BreakfastProps
v -0.005990 -0.000415 -0.000354
v -0.006626 0.002016 -0.008349
v -0.008925 0.001760 -0.000274
v -0.006528 0.006226 0.000346
v -0.001643 -0.000275 -0.007890
v 0.008026 0.002214 0.002204
v 0.002217 0.002191 -0.007702
v 0.007061 0.005798 0.001634
v 0.000729 0.008724 -0.001235
v 0.003283 0.008133 0.004072
v 0.005289 0.004625 0.005595
v 0.008026 0.002214 0.002204
v -0.006243 0.001995 0.005978
v -0.008925 0.001760 -0.000274
v -0.005990 -0.000415 -0.000354
v -0.004093 0.000070 0.004269
vt 0.543945 0.000488
vt 0.543945 0.003906
vt 0.540527 0.001953
vt 0.540039 0.008789
vt 0.546387 0.003906
vt 0.553711 0.006836
vt 0.547363 0.005371
vt 0.549805 0.011230
vt 0.545410 0.009277
vt 0.546387 0.011230
vt 0.547363 0.013184
vt 0.549805 0.016113
vt 0.541016 0.013184
vt 0.537598 0.012695
vt 0.539062 0.016113
vt 0.541504 0.014648
vt1 0.422852 0.008301
vt1 0.409180 0.202637
vt1 0.204346 0.114746
vt1 0.165283 0.474121
vt1 0.598633 0.201172
vt1 1.110352 0.365234
vt1 0.647949 0.299316
vt1 0.814453 0.619141
vt1 0.518066 0.501953
vt1 0.598633 0.622314
vt1 0.662598 0.733398
vt1 0.843262 0.874634
vt1 0.223755 0.726807
vt1 -0.004879 0.706055
vt1 0.090271 0.885742
vt1 0.271240 0.807861
vn -0.094488 -0.992126 -0.007874
vn -0.637795 0.259842 -0.724409
vn -1.000000 -0.078740 0.000000
vn -0.677165 0.724409 0.118110
vn 0.078740 -0.968504 -0.220472
vn 0.661417 -0.748031 0.102362
vn 0.566929 0.393701 -0.724409
vn 0.763780 0.590551 -0.267717
vn 0.157480 0.897638 -0.409449
vn 0.110236 0.803150 0.590551
vn 0.433071 0.039370 0.897638
vn 0.606299 -0.779527 0.165354
vn -0.574803 0.094488 0.811023
vn -1.000000 -0.039370 0.007874
vn -0.094488 -0.992126 -0.007874
vn 0.007874 -0.952756 0.307087
tan 0.273421 -0.033604 0.953066 1.000000
tan -0.649265 -0.692417 0.323269 1.000000
tan 0.078120 -0.992126 0.133858 1.000000
tan 0.053506 0.204538 -0.947734 1.000000
tan -0.632959 -0.218116 0.732097 1.000000
tan -0.747226 -0.667059 -0.046438 1.000000
tan -0.254076 -0.754169 -0.608717 1.000000
tan -0.604439 0.503007 -0.614855 1.000000
tan -0.053320 -0.399529 -0.896398 1.000000
tan -0.115506 0.602393 -0.797694 1.000000
tan -0.029512 0.911278 -0.025730 1.000000
tan 0.748837 0.629301 0.220968 1.000000
tan -0.538781 0.650877 -0.457685 1.000000
tan -0.039556 1.000000 -0.023622 1.000000
tan -0.804638 0.071982 0.585901 1.000000
tan -0.292579 0.290161 0.907744 1.000000
f 3/3/3 2/2/2 1/1/1
f 4/4/4 2/2/2 3/3/3
f 5/5/5 1/1/1 2/2/2
f 1/1/1 5/5/5 6/6/6
f 6/6/6 5/5/5 7/7/7
f 2/2/2 7/7/7 5/5/5
f 6/6/6 7/7/7 8/8/8
f 2/2/2 9/9/9 7/7/7
f 8/8/8 7/7/7 9/9/9
f 2/2/2 4/4/4 9/9/9
f 8/8/8 9/9/9 10/10/10
f 9/9/9 4/4/4 10/10/10
f 8/8/8 10/10/10 11/11/11
f 8/8/8 11/11/11 12/12/12
f 10/10/10 4/4/4 13/13/13
f 10/10/10 13/13/13 11/11/11
f 13/13/13 4/4/4 14/14/14
f 15/15/15 13/13/13 14/14/14
f 12/12/12 11/11/11 16/16/16
f 13/13/13 16/16/16 11/11/11
f 12/12/12 16/16/16 15/15/15
f 15/15/15 16/16/16 13/13/13
