mtllib SM_Book_06_LOD1.mtl
g SM_Book_06_LOD1
#Vertices 80
#Indices 108
#Section 0 Offset 0 NumIndices 108 MaterialIndex 0 MI_Books
v 0.132613 0.024842 -0.093088
v 0.132372 0.023376 0.086229
v 0.133166 0.040942 0.088136
v 0.132372 0.023376 0.086229
v 0.132613 0.024842 -0.093088
v 0.133358 0.005825 0.088137
v -0.117779 0.021182 0.084883
v -0.117722 0.019715 -0.094436
v -0.118768 0.038733 0.086780
v -0.117722 0.019715 -0.094436
v -0.117779 0.021182 0.084883
v -0.118576 0.003616 0.086781
v -0.121871 0.039011 0.089125
v 0.135131 0.045623 0.088986
v 0.136755 0.041279 0.090517
v 0.135131 0.045623 0.088986
v -0.121871 0.039011 0.089125
v -0.120750 0.043379 0.087609
v -0.121676 0.003283 0.089127
v 0.135374 0.001180 0.088987
v -0.120507 -0.001064 0.087610
v 0.135374 0.001180 0.088987
v -0.121676 0.003283 0.089127
v 0.136950 0.005551 0.090518
v 0.133358 0.005825 0.088137
v -0.117779 0.021182 0.084883
v 0.132372 0.023376 0.086229
v -0.118576 0.003616 0.086781
v 0.132372 0.023376 0.086229
v -0.118768 0.038733 0.086780
v 0.133166 0.040942 0.088136
v -0.117779 0.021182 0.084883
v -0.120603 0.043379 -0.088988
v 0.135278 0.045623 -0.087612
v -0.120750 0.043379 0.087609
v 0.135131 0.045623 0.088986
v 0.137002 0.041166 -0.095547
v -0.119837 0.037631 -0.091772
v -0.121871 0.039011 0.089125
v 0.136755 0.041279 0.090517
v 0.137002 0.041166 -0.095547
v -0.120603 0.043379 -0.088988
v -0.119837 0.037631 -0.091772
v 0.135278 0.045623 -0.087612
v 0.135521 0.001180 -0.087610
v -0.120507 -0.001064 0.087610
v 0.135374 0.001180 0.088987
v -0.120360 -0.001064 -0.088987
v -0.119157 0.004598 -0.093731
v 0.135599 0.006726 -0.091676
v -0.119837 0.037631 -0.091772
v 0.137002 0.041166 -0.095547
v 0.135599 0.006726 -0.091676
v -0.121676 0.003283 0.089127
v -0.119157 0.004598 -0.093731
v 0.136950 0.005551 0.090518
v 0.135599 0.006726 -0.091676
v -0.119837 0.037631 -0.091772
v 0.137002 0.041166 -0.095547
v -0.119157 0.004598 -0.093731
v -0.120360 -0.001064 -0.088987
v 0.135599 0.006726 -0.091676
v -0.119157 0.004598 -0.093731
v 0.135521 0.001180 -0.087610
v -0.119157 0.004598 -0.093731
v -0.120507 -0.001064 0.087610
v -0.120360 -0.001064 -0.088987
v -0.121676 0.003283 0.089127
v 0.135374 0.001180 0.088987
v 0.135599 0.006726 -0.091676
v 0.135521 0.001180 -0.087610
v 0.136950 0.005551 0.090518
v -0.120603 0.043379 -0.088988
v -0.120750 0.043379 0.087609
v -0.119837 0.037631 -0.091772
v -0.121871 0.039011 0.089125
v 0.137002 0.041166 -0.095547
v 0.135131 0.045623 0.088986
v 0.135278 0.045623 -0.087612
v 0.136755 0.041279 0.090517
vt 0.820801 0.497070
vt 0.946289 0.496094
vt 0.947266 0.506592
vt 0.946777 0.493652
vt 0.821289 0.494141
vt 0.947754 0.482910
vt 0.947266 0.466797
vt 0.820801 0.467773
vt 0.949219 0.456055
vt 0.820801 0.470215
vt 0.947754 0.469238
vt 0.948730 0.480469
vt 0.995605 0.335938
vt 0.992676 0.170898
vt 0.995605 0.170898
vt 0.992676 0.170898
vt 0.995605 0.335938
vt 0.992676 0.335938
vt 0.996582 0.714600
vt 1.000000 0.549316
vt 1.000000 0.714600
vt 1.000000 0.549316
vt 0.996582 0.714600
vt 0.996582 0.549316
vt 0.552246 0.928833
vt 0.367432 0.918518
vt 0.551758 0.918518
vt 0.366699 0.928833
vt 0.759277 0.927979
vt 0.573730 0.917664
vt 0.759766 0.917664
vt 0.574707 0.927979
vt 0.689453 0.702637
vt 0.689453 0.546631
vt 0.814453 0.702637
vt 0.814453 0.546631
vt 0.553223 0.569092
vt 0.375977 0.565918
vt 0.374756 0.453125
vt 0.553223 0.453125
vt 0.905273 0.658203
vt 0.909668 0.855713
vt 0.906250 0.855103
vt 0.909668 0.659424
vt 0.124451 0.691406
vt 0.000000 0.847534
vt 0.000000 0.691406
vt 0.124451 0.847534
vt 0.900879 0.167480
vt 0.900391 0.000000
vt 0.920410 0.167969
vt 0.919922 0.000000
vt 0.177734 0.461914
vt 0.000000 0.575195
vt 0.001646 0.461426
vt 0.178711 0.575195
vt 0.566406 0.919983
vt 0.375977 0.901917
vt 0.567383 0.902466
vt 0.376465 0.920349
vt 0.956543 0.598145
vt 0.960449 0.400391
vt 0.960938 0.597168
vt 0.956543 0.400391
vt 0.311768 0.868652
vt 0.171387 0.865723
vt 0.308594 0.865723
vt 0.171387 0.868286
vt 0.171387 0.858154
vt 0.313477 0.855225
vt 0.310791 0.858154
vt 0.171387 0.855591
vt 0.171387 0.870850
vt 0.308594 0.870850
vt 0.169678 0.873901
vt 0.308594 0.873413
vt 0.165649 0.860596
vt 0.310547 0.863281
vt 0.171387 0.863281
vt 0.310547 0.860718
vt1 0.007099 0.126465
vt1 0.313477 0.123535
vt1 0.316895 0.153320
vt1 0.652344 0.153320
vt1 0.345703 0.156250
vt1 0.655273 0.123535
vt1 0.781250 0.201660
vt1 0.474609 0.204590
vt1 0.784668 0.171875
vt1 0.825195 0.359863
vt1 0.828125 0.666260
vt1 0.798340 0.669434
vt1 0.475586 0.072754
vt1 0.915527 0.064453
vt1 0.915527 0.072754
vt1 0.915527 0.064453
vt1 0.475586 0.072754
vt1 0.475586 0.064453
vt1 0.008064 0.064453
vt1 0.447754 0.072754
vt1 0.008064 0.072754
vt1 0.447754 0.072754
vt1 0.008064 0.064453
vt1 0.447754 0.064453
vt1 0.749512 0.669434
vt1 0.779785 0.240234
vt1 0.779785 0.667969
vt1 0.749512 0.238770
vt1 0.701172 0.667969
vt1 0.731445 0.238770
vt1 0.731445 0.669434
vt1 0.701172 0.240234
vt1 0.475586 0.690186
vt1 0.913086 0.690186
vt1 0.475586 0.991936
vt1 0.913086 0.991936
vt1 0.450195 1.004387
vt1 0.011261 0.995586
vt1 0.008064 0.686523
vt1 0.450195 0.686523
vt1 0.911133 0.229492
vt1 0.924316 0.669434
vt1 0.914062 0.668213
vt1 0.924316 0.231934
vt1 0.632324 0.231934
vt1 0.330566 0.669434
vt1 0.330566 0.231934
vt1 0.632324 0.669434
vt1 0.010483 0.160645
vt1 0.445557 0.159180
vt1 0.009293 0.211914
vt1 0.447510 0.210938
vt1 0.319092 0.666992
vt1 0.008064 0.227539
vt1 0.320312 0.231934
vt1 0.008064 0.669434
vt1 0.641113 0.667236
vt1 0.693848 0.230957
vt1 0.692383 0.668945
vt1 0.640137 0.231934
vt1 0.878906 0.669434
vt1 0.889160 0.231934
vt1 0.890137 0.667480
vt1 0.878906 0.231934
vt1 0.996094 0.154785
vt1 0.685059 0.145508
vt1 0.989258 0.145508
vt1 0.685059 0.153320
vt1 0.943359 0.220703
vt1 0.952637 0.530518
vt1 0.943359 0.524414
vt1 0.951660 0.220703
vt1 0.983398 0.365723
vt1 0.983398 0.669434
vt1 0.973633 0.362305
vt1 0.975586 0.669434
vt1 0.983887 0.675781
vt1 0.975586 0.991936
vt1 0.975586 0.688232
vt1 0.983887 0.991936
vn 1.000000 0.000000 0.000000
vn 1.000000 0.007874 -0.000000
vn 1.000000 -0.055118 0.000000
vn 1.000000 0.007874 -0.000000
vn 1.000000 0.000000 0.000000
vn 1.000000 0.070866 -0.000000
vn -1.000000 -0.007874 0.000000
vn -1.000000 0.000000 0.000000
vn -1.000000 -0.070866 0.000000
vn -1.000000 0.000000 0.000000
vn -1.000000 -0.007874 0.000000
vn -1.000000 0.055118 -0.000000
vn -0.007874 0.370079 0.929134
vn -0.007874 0.370079 0.929134
vn -0.007874 0.370079 0.929134
vn -0.007874 0.370079 0.929134
vn -0.007874 0.370079 0.929134
vn -0.007874 0.370079 0.929134
vn 0.000000 -0.370079 0.929134
vn 0.000000 -0.370079 0.929134
vn 0.000000 -0.370079 0.929134
vn 0.000000 -0.370079 0.929134
vn 0.000000 -0.370079 0.929134
vn 0.000000 -0.370079 0.929134
vn 0.000000 0.125984 0.992126
vn 0.000000 0.000000 1.000000
vn 0.000000 0.000000 1.000000
vn 0.000000 0.125984 0.992126
vn 0.000000 0.000000 1.000000
vn 0.000000 -0.125984 0.992126
vn 0.000000 -0.125984 0.992126
vn 0.000000 0.000000 1.000000
vn -0.007874 0.968504 -0.259843
vn -0.007874 0.968504 -0.259843
vn -0.007874 1.000000 -0.000000
vn -0.007874 1.000000 -0.000000
vn 0.007874 -0.937008 0.346457
vn 0.007874 -0.944882 0.330709
vn 0.007874 -1.000000 0.000000
vn 0.007874 -1.000000 0.000000
vn 0.000000 0.590551 -0.803150
vn -0.007874 0.968504 -0.259843
vn 0.000000 0.700787 -0.716535
vn -0.007874 0.968504 -0.259843
vn 0.007874 -0.968504 -0.259842
vn 0.007874 -1.000000 0.000000
vn 0.007874 -1.000000 0.000000
vn 0.007874 -0.968504 -0.259842
vn 0.000000 -0.141732 -0.992126
vn 0.000000 -0.149606 -0.992126
vn 0.000000 0.141732 -0.992126
vn 0.000000 0.133858 -0.992126
vn -0.007874 0.944882 0.338583
vn -0.007874 1.000000 -0.000000
vn -0.007874 0.944882 0.338583
vn -0.007874 1.000000 -0.000000
vn 0.000000 0.204724 0.976378
vn 0.000000 -0.196850 0.984252
vn 0.000000 -0.181102 0.984252
vn 0.000000 0.212599 0.976378
vn 0.007874 -0.968504 -0.259842
vn 0.007874 -0.677165 -0.740157
vn 0.007874 -0.637795 -0.771653
vn 0.007874 -0.968504 -0.259842
vn -0.937008 -0.322835 -0.133858
vn -0.944882 -0.322835 0.000000
vn -0.944882 -0.322835 -0.070866
vn -0.944882 -0.322835 0.000000
vn 0.905512 -0.417323 0.000000
vn 0.889764 -0.417323 -0.173228
vn 0.905512 -0.417323 -0.094488
vn 0.905512 -0.417323 0.000000
vn -0.944882 0.314961 -0.070866
vn -0.952756 0.307087 -0.000000
vn -0.937008 0.314961 -0.133858
vn -0.952756 0.307087 -0.000000
vn 0.881890 0.433071 -0.173228
vn 0.905512 0.425197 -0.000000
vn 0.897638 0.433071 -0.094488
vn 0.905512 0.425197 -0.000000
tan 0.000000 -1.000000 0.000000 1.000000
tan 0.007874 -1.000000 0.000000 1.000000
tan -0.055118 -1.000000 0.000000 1.000000
tan 0.007874 -1.000000 0.000000 1.000000
tan 0.000000 -1.000000 0.000000 1.000000
tan 0.070866 -1.000000 0.000000 1.000000
tan -0.007874 1.000000 -0.000000 1.000000
tan 0.000000 1.000000 -0.000000 1.000000
tan -0.070866 1.000000 -0.000000 1.000000
tan 0.000000 1.000000 -0.000000 1.000000
tan -0.007874 1.000000 -0.000000 1.000000
tan 0.055118 1.000000 -0.000000 1.000000
tan 0.869056 0.373551 -0.141422 1.000000
tan 0.869056 0.373551 -0.141422 1.000000
tan 0.869056 0.373551 -0.141422 1.000000
tan 0.908550 -0.270197 0.115320 1.000000
tan 0.908550 -0.270197 0.115320 1.000000
tan 0.908550 -0.270197 0.115320 1.000000
tan 0.908550 0.278009 0.110732 1.000000
tan 0.908550 0.278009 0.110732 1.000000
tan 0.908550 0.278009 0.110732 1.000000
tan 0.876372 -0.365801 -0.145700 1.000000
tan 0.876372 -0.365801 -0.145700 1.000000
tan 0.876372 -0.365801 -0.145700 1.000000
tan -0.007812 0.992126 -0.125984 1.000000
tan -0.007874 1.000000 -0.000000 1.000000
tan -0.007874 1.000000 -0.000000 1.000000
tan -0.007812 0.992126 -0.125984 1.000000
tan -0.007874 1.000000 -0.000000 1.000000
tan -0.007812 0.992126 0.125984 1.000000
tan -0.007812 0.992126 0.125984 1.000000
tan -0.007874 1.000000 -0.000000 1.000000
tan 0.972596 0.007874 -0.000124 1.000000
tan 0.972596 0.007874 -0.000124 1.000000
tan 1.000000 0.007874 -0.000000 1.000000
tan 1.000000 0.007874 -0.000000 1.000000
tan 0.000000 0.346457 0.937008 1.000000
tan 0.000000 0.330709 0.944882 1.000000
tan -0.007874 -0.000062 1.000000 1.000000
tan -0.007874 -0.000062 1.000000 1.000000
tan 0.926654 0.018972 0.013950 1.000000
tan 0.972596 0.007874 -0.000124 1.000000
tan 0.989584 0.016926 0.016554 1.000000
tan 0.972596 0.007874 -0.000124 1.000000
tan 0.972596 0.007874 0.000124 1.000000
tan 1.000000 0.007874 -0.000000 1.000000
tan 1.000000 0.007874 -0.000000 1.000000
tan 0.972596 0.007874 0.000124 1.000000
tan 0.992126 0.007812 -0.001116 1.000000
tan 0.992126 0.007812 -0.001178 1.000000
tan 0.992126 0.007812 0.001116 1.000000
tan 0.992126 0.007812 0.001054 1.000000
tan 0.000000 0.338583 -0.944882 1.000000
tan 0.007874 0.000062 -1.000000 1.000000
tan 0.000000 0.338583 -0.944882 1.000000
tan 0.007874 0.000062 -1.000000 1.000000
tan -0.007688 0.976378 -0.204724 1.000000
tan -0.007750 0.984252 0.196850 1.000000
tan -0.007750 0.984252 0.181102 1.000000
tan -0.007688 0.976378 -0.212599 1.000000
tan 0.972596 0.007874 0.000124 1.000000
tan 0.990514 0.056854 -0.041478 1.000000
tan 0.915990 0.050840 -0.032674 1.000000
tan 0.972596 0.007874 0.000124 1.000000
tan 0.328105 -0.937008 -0.036890 1.000000
tan 0.322835 -0.944882 0.000000 1.000000
tan 0.324509 -0.945440 -0.019778 1.000000
tan 0.322835 -0.944882 0.000000 1.000000
tan 0.417323 0.905512 -0.000000 1.000000
tan 0.426871 0.891128 0.045756 1.000000
tan 0.420299 0.907000 0.021948 1.000000
tan 0.417323 0.905512 -0.000000 1.000000
tan 0.316635 0.945440 -0.019840 1.000000
tan 0.307087 0.952756 -0.000000 1.000000
tan 0.319177 0.937008 -0.029512 1.000000
tan 0.307087 0.952756 -0.000000 1.000000
tan 0.442619 -0.883254 0.045198 1.000000
tan 0.425197 -0.905512 0.000000 1.000000
tan 0.436047 -0.899126 0.021452 1.000000
tan 0.425197 -0.905512 0.000000 1.000000
f 3/3/3 2/2/2 1/1/1
f 6/6/6 5/5/5 4/4/4
f 9/9/9 8/8/8 7/7/7
f 12/12/12 11/11/11 10/10/10
f 15/15/15 14/14/14 13/13/13
f 18/18/18 17/17/17 16/16/16
f 21/21/21 20/20/20 19/19/19
f 24/24/24 23/23/23 22/22/22
f 27/27/27 26/26/26 25/25/25
f 28/28/28 25/25/25 26/26/26
f 31/31/31 30/30/30 29/29/29
f 32/32/32 29/29/29 30/30/30
f 35/35/35 34/34/34 33/33/33
f 35/35/35 36/36/36 34/34/34
f 39/39/39 38/38/38 37/37/37
f 40/40/40 39/39/39 37/37/37
f 43/43/43 42/42/42 41/41/41
f 44/44/44 41/41/41 42/42/42
f 47/47/47 46/46/46 45/45/45
f 48/48/48 45/45/45 46/46/46
f 51/51/51 50/50/50 49/49/49
f 50/50/50 51/51/51 52/52/52
f 55/55/55 54/54/54 53/53/53
f 56/56/56 53/53/53 54/54/54
f 59/59/59 58/58/58 57/57/57
f 60/60/60 57/57/57 58/58/58
f 63/63/63 62/62/62 61/61/61
f 64/64/64 61/61/61 62/62/62
f 67/67/67 66/66/66 65/65/65
f 68/68/68 65/65/65 66/66/66
f 71/71/71 70/70/70 69/69/69
f 69/69/69 70/70/70 72/72/72
f 75/75/75 74/74/74 73/73/73
f 76/76/76 74/74/74 75/75/75
f 79/79/79 78/78/78 77/77/77
f 80/80/80 77/77/77 78/78/78
