mtllib SM_BreakfastProps_Jam_01.mtl
g SM_BreakfastProps_Jam_01
#Vertices 97
#Indices 480
#Section 0 Offset 0 NumIndices 480 MaterialIndex 0 MI_BreakfastProps
v -0.008727 0.001110 0.006545
v -0.007186 0.002407 0.008914
v -0.007303 0.001110 0.009120
v -0.005122 0.001110 0.010572
v -0.008598 0.002381 0.006405
v -0.009746 0.001110 0.004147
v -0.005031 0.002422 0.010325
v -0.009584 0.002390 0.004045
v -0.010248 0.001110 0.002392
v -0.006340 0.003756 0.008024
v -0.007583 0.003760 0.005834
v -0.004329 0.003750 0.009338
v -0.010058 0.002396 0.002326
v -0.010349 0.001110 0.000428
v -0.008495 0.003770 0.003630
v -0.010150 0.002399 0.000414
v -0.008907 0.003770 0.002114
v -0.000321 0.004967 -0.000568
v -0.008986 0.003775 0.000384
v -0.008947 0.003772 -0.002188
v -0.010108 0.002394 -0.002288
v -0.010301 0.001110 -0.002319
v -0.008620 0.003769 -0.004685
v -0.009735 0.002390 -0.005099
v -0.009914 0.001110 -0.005174
v -0.007540 0.003768 -0.006389
v -0.008545 0.002391 -0.006977
v -0.008703 0.001110 -0.007084
v -0.006515 0.003760 -0.008440
v -0.007448 0.002403 -0.009178
v -0.007594 0.001110 -0.009345
v -0.005392 0.003759 -0.009568
v -0.005993 0.002418 -0.010634
v -0.006114 0.001110 -0.010850
v -0.004346 0.001110 -0.011567
v -0.004267 0.002431 -0.011316
v -0.002764 0.001110 -0.012257
v -0.003819 0.003756 -0.010204
v -0.002711 0.002440 -0.011978
v -0.000862 0.001110 -0.012171
v -0.002462 0.003756 -0.010772
v -0.000848 0.002442 -0.011886
v 0.001058 0.002436 -0.011380
v 0.001083 0.001110 -0.011654
v -0.000986 0.003757 -0.010679
v 0.000725 0.003760 -0.010226
v 0.002475 0.003766 -0.009489
v 0.002944 0.002434 -0.010587
v 0.003007 0.001110 -0.010844
v 0.004089 0.003766 -0.008631
v 0.004754 0.002429 -0.009630
v 0.004855 0.001110 -0.009872
v 0.006395 0.002440 -0.008039
v 0.006533 0.001110 -0.008283
v 0.008127 0.001110 -0.006271
v 0.005557 0.003772 -0.007178
v 0.007948 0.002432 -0.006086
v 0.009751 0.001110 -0.004589
v 0.007066 0.003771 -0.005284
v 0.009533 0.002426 -0.004452
v 0.010260 0.001110 -0.002537
v 0.008468 0.003766 -0.003836
v 0.010048 0.002409 -0.002460
v 0.010349 0.001110 -0.000294
v 0.008892 0.003767 -0.002215
v 0.010135 0.002400 -0.000274
v 0.009301 0.001110 0.002349
v 0.008943 0.003769 -0.000422
v 0.009091 0.002395 0.002373
v 0.008577 0.001110 0.005147
v 0.007957 0.003776 0.002093
v 0.008374 0.002387 0.005134
v 0.007275 0.003771 0.004650
v 0.007379 0.002402 0.006375
v 0.007561 0.001110 0.006503
v 0.006419 0.001110 0.007204
v 0.006484 0.003769 0.005599
v 0.006262 0.002406 0.007054
v 0.005270 0.001110 0.007962
v 0.005617 0.003774 0.006076
v 0.005136 0.002430 0.007747
v 0.004022 0.002432 0.008996
v 0.004062 0.001110 0.009333
v 0.004398 0.003777 0.006805
v 0.003149 0.003776 0.008192
v 0.002310 0.003767 0.009173
v 0.002651 0.002377 0.010436
v 0.002719 0.001110 0.010684
v 0.000957 0.001110 0.011607
v 0.000502 0.003753 0.010247
v 0.000918 0.002415 0.011368
v -0.001281 0.001110 0.012257
v -0.001193 0.003751 0.010778
v -0.001276 0.002402 0.012017
v -0.002975 0.003747 0.010713
v -0.003466 0.002421 0.011911
v -0.003529 0.001110 0.012176
vt 0.059357 0.000488
vt 0.059143 0.000488
vt 0.059082 0.000488
vt 0.058868 0.000488
vt 0.059418 0.000488
vt 0.059631 0.000488
vt 0.058960 0.000977
vt 0.059662 0.000488
vt 0.059845 0.000488
vt 0.059235 0.000488
vt 0.059479 0.000488
vt 0.059082 0.000977
vt 0.059845 0.000488
vt 0.060059 0.000488
vt 0.059692 0.000488
vt 0.060028 0.000488
vt 0.059845 0.000488
vt 0.059998 0.001465
vt 0.060028 0.000488
vt 0.060272 0.000488
vt 0.060303 0.000488
vt 0.060333 0.000488
vt 0.060516 0.000488
vt 0.060577 0.000488
vt 0.060638 0.000488
vt 0.060669 0.000977
vt 0.060760 0.000488
vt 0.060852 0.000488
vt 0.060852 0.000977
vt 0.060974 0.000977
vt 0.061066 0.000977
vt 0.060944 0.000977
vt 0.061096 0.000977
vt 0.061188 0.000977
vt 0.061249 0.000977
vt 0.061127 0.000977
vt 0.061279 0.001465
vt 0.060974 0.000977
vt 0.061157 0.001465
vt 0.061249 0.001465
vt 0.061005 0.001465
vt 0.061157 0.001465
vt 0.061066 0.001953
vt 0.061188 0.001953
vt 0.060974 0.001465
vt 0.060913 0.001465
vt 0.060822 0.001953
vt 0.060974 0.001953
vt 0.061066 0.001953
vt 0.060730 0.001953
vt 0.060852 0.001953
vt 0.060944 0.001953
vt 0.060669 0.002441
vt 0.060760 0.002441
vt 0.060516 0.002441
vt 0.060577 0.001953
vt 0.060455 0.002441
vt 0.060272 0.002441
vt 0.060364 0.002441
vt 0.060242 0.002441
vt 0.060059 0.002441
vt 0.060211 0.002441
vt 0.060059 0.002441
vt 0.059814 0.002441
vt 0.060028 0.002441
vt 0.059814 0.002441
vt 0.059509 0.002441
vt 0.059875 0.002441
vt 0.059570 0.002441
vt 0.059235 0.002441
vt 0.059631 0.001953
vt 0.059296 0.002441
vt 0.059387 0.001953
vt 0.059174 0.001953
vt 0.059113 0.001953
vt 0.059021 0.001953
vt 0.059296 0.001953
vt 0.059113 0.001953
vt 0.058960 0.001953
vt 0.059265 0.001953
vt 0.059052 0.001953
vt 0.058960 0.001953
vt 0.058838 0.001953
vt 0.059204 0.001953
vt 0.059082 0.001465
vt 0.059021 0.001465
vt 0.058838 0.001465
vt 0.058716 0.001465
vt 0.058655 0.001465
vt 0.058929 0.001465
vt 0.058777 0.001465
vt 0.058655 0.000977
vt 0.058929 0.000977
vt 0.058746 0.000977
vt 0.058960 0.000977
vt 0.058807 0.000977
vt 0.058716 0.000977
vt1 0.276123 0.051270
vt1 0.195312 0.145508
vt1 0.168457 0.108887
vt1 0.092957 0.192871
vt1 0.293457 0.093750
vt1 0.377197 0.019043
vt1 0.127197 0.224121
vt1 0.387451 0.064941
vt1 0.451172 0.008301
vt1 0.233032 0.199219
vt1 0.316895 0.158691
vt1 0.174927 0.272949
vt1 0.454590 0.055664
vt1 0.531738 0.011719
vt1 0.401123 0.132812
vt1 0.527344 0.060059
vt1 0.458008 0.124512
vt1 0.511719 0.493164
vt1 0.520996 0.130371
vt1 0.614258 0.146973
vt1 0.629395 0.079102
vt1 0.640625 0.033203
vt1 0.702637 0.176758
vt1 0.731445 0.116699
vt1 0.750488 0.075684
vt1 0.759766 0.229492
vt1 0.799316 0.173340
vt1 0.826660 0.135254
vt1 0.826660 0.285156
vt1 0.872070 0.240234
vt1 0.905273 0.210449
vt1 0.860840 0.337402
vt1 0.916504 0.312012
vt1 0.954590 0.291992
vt1 0.979980 0.376465
vt1 0.936523 0.387695
vt1 0.991699 0.457031
vt1 0.876465 0.404785
vt1 0.949219 0.458496
vt1 0.982422 0.545654
vt1 0.889160 0.462891
vt1 0.938965 0.537109
vt1 0.913574 0.616455
vt1 0.954590 0.633789
vt1 0.879883 0.522461
vt1 0.856934 0.589844
vt1 0.822266 0.657471
vt1 0.875488 0.693359
vt1 0.913574 0.718018
vt1 0.783691 0.718750
vt1 0.829102 0.763672
vt1 0.862793 0.794678
vt1 0.762695 0.826538
vt1 0.791504 0.864258
vt1 0.704590 0.926758
vt1 0.724121 0.771729
vt1 0.681641 0.883423
vt1 0.619629 0.977020
vt1 0.647949 0.822876
vt1 0.606934 0.932068
vt1 0.533203 0.991943
vt1 0.587402 0.868042
vt1 0.530273 0.944153
vt1 0.441162 0.982361
vt1 0.526855 0.875916
vt1 0.448730 0.935730
vt1 0.334961 0.931091
vt1 0.461670 0.868652
vt1 0.349854 0.885925
vt1 0.231934 0.871582
vt1 0.374023 0.818970
vt1 0.252930 0.831543
vt1 0.285645 0.774292
vt1 0.211060 0.784302
vt1 0.180786 0.817261
vt1 0.150513 0.765503
vt1 0.254150 0.737549
vt1 0.185303 0.736572
vt1 0.122620 0.712646
vt1 0.239258 0.700684
vt1 0.160889 0.686279
vt1 0.122681 0.627686
vt1 0.080383 0.646240
vt1 0.217041 0.647461
vt1 0.174072 0.587158
vt1 0.144897 0.546387
vt1 0.080261 0.556885
vt1 0.040375 0.571045
vt1 0.015488 0.482910
vt1 0.118408 0.465820
vt1 0.058167 0.477051
vt1 0.008064 0.374512
vt1 0.110291 0.394531
vt1 0.050018 0.380371
vt1 0.122375 0.322754
vt1 0.068787 0.291504
vt1 0.031189 0.271973
vn -0.889764 0.141732 0.440945
vn -0.661417 0.456693 0.598425
vn -0.724409 0.173228 0.669291
vn -0.622047 0.181102 0.763779
vn -0.803150 0.440945 0.393701
vn -0.929134 0.141732 0.338583
vn -0.551181 0.480315 0.685039
vn -0.842520 0.440945 0.307087
vn -0.976378 0.149606 0.157480
vn -0.181102 0.968504 0.165354
vn -0.212598 0.968504 0.125984
vn -0.125984 0.976378 0.165354
vn -0.889764 0.440945 0.141732
vn -0.992126 0.149606 0.007874
vn -0.236220 0.968504 0.086614
vn -0.897638 0.448819 0.007874
vn -0.236220 0.968504 0.039370
vn 0.000000 1.000000 -0.000000
vn -0.259843 0.968504 -0.000000
vn -0.267717 0.960630 -0.031496
vn -0.889764 0.440945 -0.070866
vn -0.984252 0.149606 -0.078740
vn -0.259843 0.960630 -0.086614
vn -0.850394 0.440945 -0.283465
vn -0.937008 0.149606 -0.314961
vn -0.212598 0.968504 -0.110236
vn -0.779528 0.448819 -0.433071
vn -0.866142 0.149606 -0.480315
vn -0.212598 0.968504 -0.149606
vn -0.740157 0.440945 -0.503937
vn -0.811024 0.165354 -0.566929
vn -0.141732 0.968504 -0.196850
vn -0.496063 0.456693 -0.740157
vn -0.551181 0.181102 -0.811023
vn -0.377953 0.196850 -0.905512
vn -0.338583 0.480315 -0.811024
vn -0.165354 0.204724 -0.960630
vn -0.086614 0.976378 -0.204724
vn -0.149606 0.472441 -0.874016
vn 0.149606 0.204724 -0.968504
vn -0.031496 0.968504 -0.236221
vn 0.141732 0.472441 -0.874016
vn 0.283465 0.472441 -0.834646
vn 0.314961 0.196850 -0.929134
vn 0.039370 0.968504 -0.236221
vn 0.078740 0.968504 -0.236221
vn 0.102362 0.968504 -0.220473
vn 0.377953 0.472441 -0.795276
vn 0.417323 0.196850 -0.889764
vn 0.149606 0.968504 -0.204724
vn 0.527559 0.464567 -0.708661
vn 0.574803 0.196850 -0.795275
vn 0.653543 0.472441 -0.590551
vn 0.724409 0.188976 -0.661417
vn 0.740157 0.188976 -0.645669
vn 0.188976 0.968504 -0.173228
vn 0.661417 0.472441 -0.574803
vn 0.850394 0.188976 -0.488189
vn 0.196850 0.968504 -0.157480
vn 0.771654 0.456693 -0.448819
vn 0.976378 0.173228 -0.141732
vn 0.236220 0.960630 -0.141732
vn 0.881890 0.448819 -0.125984
vn 0.968504 0.157480 0.188976
vn 0.236220 0.968504 -0.031496
vn 0.881890 0.440945 0.181102
vn 0.937008 0.149606 0.307087
vn 0.267717 0.960630 0.055118
vn 0.842520 0.456693 0.275590
vn 0.913386 0.157480 0.377953
vn 0.251969 0.960630 0.078740
vn 0.826772 0.440945 0.354331
vn 0.251969 0.960630 0.110236
vn 0.606299 0.433071 0.661417
vn 0.677165 0.157480 0.716535
vn 0.519685 0.165354 0.834646
vn 0.173228 0.968504 0.157480
vn 0.464567 0.456693 0.755905
vn 0.653543 0.181102 0.732283
vn 0.133858 0.968504 0.220472
vn 0.574803 0.488189 0.653543
vn 0.653543 0.456693 0.598425
vn 0.716535 0.181102 0.669291
vn 0.157480 0.968504 0.188976
vn 0.196850 0.960630 0.181102
vn 0.141732 0.968504 0.196850
vn 0.527559 0.464567 0.716535
vn 0.582677 0.188976 0.787401
vn 0.362205 0.181102 0.913386
vn 0.094488 0.968504 0.212598
vn 0.338583 0.464567 0.818897
vn 0.118110 0.188976 0.976378
vn 0.015748 0.976378 0.220472
vn 0.110236 0.456693 0.881890
vn -0.102362 0.968504 0.228346
vn -0.362205 0.472441 0.803149
vn -0.393701 0.196850 0.897638
tan -0.311613 -0.884928 -0.344349 1.000000
tan -0.676421 -0.713497 -0.203112 1.000000
tan -0.564883 -0.713683 -0.426685 1.000000
tan -0.700415 -0.563395 -0.436853 1.000000
tan -0.529481 -0.829561 -0.151032 1.000000
tan -0.221216 -0.954616 -0.207452 1.000000
tan -0.773514 -0.596627 -0.204042 1.000000
tan -0.480563 -0.875256 -0.061690 1.000000
tan -0.159650 -0.984562 -0.054498 1.000000
tan -0.967760 -0.205468 0.143530 1.000000
tan -0.964164 -0.229090 0.134106 1.000000
tan -0.976750 -0.152954 0.158968 1.000000
tan -0.443053 -0.901730 0.023994 1.000000
tan -0.147436 -0.984562 0.129704 1.000000
tan -0.958026 -0.245458 0.131874 1.000000
tan -0.444417 -0.891066 0.127224 1.000000
tan -0.961188 -0.239320 0.120156 1.000000
tan -0.992126 0.000000 0.133858 1.000000
tan -0.960878 -0.257796 0.122574 1.000000
tan -0.955298 -0.261640 0.139996 1.000000
tan -0.443239 -0.858950 0.220535 1.000000
tan -0.166780 -0.931862 0.314217 1.000000
tan -0.955732 -0.246884 0.129022 1.000000
tan -0.521793 -0.774505 0.360593 1.000000
tan -0.291153 -0.826833 0.473433 1.000000
tan -0.968008 -0.199702 0.112344 1.000000
tan -0.609523 -0.686775 0.385393 1.000000
tan -0.427739 -0.718147 0.547647 1.000000
tan -0.971542 -0.189906 0.151218 1.000000
tan -0.660673 -0.583793 0.459545 1.000000
tan -0.554653 -0.533077 0.637981 1.000000
tan -0.979850 -0.115568 0.136896 1.000000
tan -0.865026 -0.345341 0.366669 1.000000
tan -0.808482 -0.339885 0.473557 1.000000
tan -0.919462 -0.195052 0.341373 1.000000
tan -0.945688 -0.207886 0.271685 1.000000
tan -0.979850 -0.018724 0.164672 1.000000
tan -0.989150 -0.061318 0.126046 1.000000
tan -0.990266 -0.021328 0.157976 1.000000
tan -0.983136 0.132122 -0.123938 1.000000
tan -0.986174 -0.000496 0.129456 1.000000
tan -0.980780 0.199950 -0.050964 1.000000
tan -0.929878 0.335793 -0.125736 1.000000
tan -0.924856 0.291649 -0.251720 1.000000
tan -0.984314 0.071300 0.128278 1.000000
tan -0.982454 0.112840 0.135160 1.000000
tan -0.975510 0.136524 0.146816 1.000000
tan -0.876434 0.451919 -0.148056 1.000000
tan -0.851324 0.421539 -0.306033 1.000000
tan -0.975076 0.178746 0.133052 1.000000
tan -0.785232 0.576291 -0.206770 1.000000
tan -0.730175 0.561349 -0.388803 1.000000
tan -0.689131 0.690805 -0.209994 1.000000
tan -0.570649 0.705809 -0.423337 1.000000
tan -0.495505 0.801909 -0.333313 1.000000
tan -0.970178 0.214520 0.140988 1.000000
tan -0.651001 0.739413 -0.141360 1.000000
tan -0.346085 0.901978 -0.253705 1.000000
tan -0.956600 0.222890 0.175026 1.000000
tan -0.554777 0.827950 -0.111352 1.000000
tan -0.181908 0.986546 -0.047368 1.000000
tan -0.951330 0.258541 0.166780 1.000000
tan -0.446277 0.891810 0.053134 1.000000
tan -0.198896 0.957158 0.221712 1.000000
tan -0.960878 0.238576 0.129642 1.000000
tan -0.472069 0.858578 0.208320 1.000000
tan -0.274723 0.859694 0.419431 1.000000
tan -0.957406 0.261702 0.089156 1.000000
tan -0.528551 0.782441 0.319239 1.000000
tan -0.349433 0.777978 0.520305 1.000000
tan -0.961126 0.243784 0.101432 1.000000
tan -0.565441 0.700291 0.447889 1.000000
tan -0.961126 0.235848 0.141608 1.000000
tan -0.767376 0.526443 0.358733 1.000000
tan -0.647963 0.584165 0.483973 1.000000
tan -0.780148 0.483105 0.390043 1.000000
tan -0.980532 0.163060 0.075764 1.000000
tan -0.858950 0.423151 0.272242 1.000000
tan -0.708351 0.472689 0.515283 1.000000
tan -0.994234 0.123752 0.060016 1.000000
tan -0.806622 0.462521 0.363941 1.000000
tan -0.750821 0.469527 0.461653 1.000000
tan -0.668671 0.431521 0.599107 1.000000
tan -0.982826 0.140368 0.099634 1.000000
tan -0.975014 0.172236 0.146196 1.000000
tan -0.981400 0.112468 0.153264 1.000000
tan -0.855788 0.332941 0.414223 1.000000
tan -0.802034 0.271933 0.528241 1.000000
tan -0.927460 0.085684 0.350797 1.000000
tan -0.978920 0.060636 0.158844 1.000000
tan -0.939736 0.161510 0.296919 1.000000
tan -0.984562 -0.126542 0.143592 1.000000
tan -0.986546 -0.017856 0.149544 1.000000
tan -0.989646 -0.033852 0.141236 1.000000
tan -0.986546 -0.127906 0.100254 1.000000
tan -0.915494 -0.347945 -0.208196 1.000000
tan -0.887408 -0.347077 -0.313101 1.000000
f 3/3/3 2/2/2 1/1/1
f 4/4/4 2/2/2 3/3/3
f 5/5/5 1/1/1 2/2/2
f 1/1/1 5/5/5 6/6/6
f 7/7/7 2/2/2 4/4/4
f 8/8/8 6/6/6 5/5/5
f 6/6/6 8/8/8 9/9/9
f 2/2/2 10/10/10 5/5/5
f 2/2/2 7/7/7 10/10/10
f 10/10/10 11/11/11 5/5/5
f 5/5/5 11/11/11 8/8/8
f 12/12/12 10/10/10 7/7/7
f 10/10/10 12/12/12 11/11/11
f 13/13/13 9/9/9 8/8/8
f 9/9/9 13/13/13 14/14/14
f 11/11/11 15/15/15 8/8/8
f 8/8/8 15/15/15 13/13/13
f 16/16/16 14/14/14 13/13/13
f 15/15/15 17/17/17 13/13/13
f 13/13/13 17/17/17 16/16/16
f 15/15/15 11/11/11 18/18/18
f 17/17/17 15/15/15 18/18/18
f 18/18/18 11/11/11 12/12/12
f 17/17/17 19/19/19 16/16/16
f 19/19/19 17/17/17 18/18/18
f 19/19/19 20/20/20 16/16/16
f 20/20/20 19/19/19 18/18/18
f 16/16/16 21/21/21 14/14/14
f 21/21/21 16/16/16 20/20/20
f 22/22/22 14/14/14 21/21/21
f 20/20/20 23/23/23 21/21/21
f 20/20/20 18/18/18 23/23/23
f 21/21/21 24/24/24 22/22/22
f 24/24/24 21/21/21 23/23/23
f 25/25/25 22/22/22 24/24/24
f 23/23/23 26/26/26 24/24/24
f 18/18/18 26/26/26 23/23/23
f 24/24/24 27/27/27 25/25/25
f 27/27/27 24/24/24 26/26/26
f 28/28/28 25/25/25 27/27/27
f 26/26/26 29/29/29 27/27/27
f 26/26/26 18/18/18 29/29/29
f 27/27/27 30/30/30 28/28/28
f 30/30/30 27/27/27 29/29/29
f 31/31/31 28/28/28 30/30/30
f 29/29/29 32/32/32 30/30/30
f 29/29/29 18/18/18 32/32/32
f 30/30/30 33/33/33 31/31/31
f 33/33/33 30/30/30 32/32/32
f 34/34/34 31/31/31 33/33/33
f 34/34/34 33/33/33 35/35/35
f 36/36/36 35/35/35 33/33/33
f 36/36/36 33/33/33 32/32/32
f 35/35/35 36/36/36 37/37/37
f 36/36/36 32/32/32 38/38/38
f 38/38/38 32/32/32 18/18/18
f 39/39/39 37/37/37 36/36/36
f 39/39/39 36/36/36 38/38/38
f 37/37/37 39/39/39 40/40/40
f 39/39/39 38/38/38 41/41/41
f 38/38/38 18/18/18 41/41/41
f 42/42/42 40/40/40 39/39/39
f 42/42/42 39/39/39 41/41/41
f 40/40/40 42/42/42 43/43/43
f 44/44/44 40/40/40 43/43/43
f 42/42/42 41/41/41 45/45/45
f 45/45/45 41/41/41 18/18/18
f 45/45/45 46/46/46 42/42/42
f 43/43/43 42/42/42 46/46/46
f 46/46/46 45/45/45 18/18/18
f 46/46/46 47/47/47 43/43/43
f 47/47/47 46/46/46 18/18/18
f 44/44/44 43/43/43 48/48/48
f 48/48/48 43/43/43 47/47/47
f 49/49/49 44/44/44 48/48/48
f 47/47/47 50/50/50 48/48/48
f 50/50/50 47/47/47 18/18/18
f 49/49/49 48/48/48 51/51/51
f 51/51/51 48/48/48 50/50/50
f 52/52/52 49/49/49 51/51/51
f 52/52/52 51/51/51 53/53/53
f 53/53/53 51/51/51 50/50/50
f 54/54/54 52/52/52 53/53/53
f 54/54/54 53/53/53 55/55/55
f 53/53/53 50/50/50 56/56/56
f 50/50/50 18/18/18 56/56/56
f 57/57/57 55/55/55 53/53/53
f 57/57/57 53/53/53 56/56/56
f 55/55/55 57/57/57 58/58/58
f 57/57/57 56/56/56 59/59/59
f 59/59/59 56/56/56 18/18/18
f 60/60/60 58/58/58 57/57/57
f 58/58/58 60/60/60 61/61/61
f 59/59/59 62/62/62 57/57/57
f 60/60/60 57/57/57 62/62/62
f 63/63/63 61/61/61 60/60/60
f 62/62/62 63/63/63 60/60/60
f 61/61/61 63/63/63 64/64/64
f 62/62/62 59/59/59 65/65/65
f 65/65/65 63/63/63 62/62/62
f 18/18/18 65/65/65 59/59/59
f 66/66/66 64/64/64 63/63/63
f 65/65/65 66/66/66 63/63/63
f 64/64/64 66/66/66 67/67/67
f 68/68/68 66/66/66 65/65/65
f 68/68/68 65/65/65 18/18/18
f 69/69/69 67/67/67 66/66/66
f 67/67/67 69/69/69 70/70/70
f 68/68/68 71/71/71 66/66/66
f 69/69/69 66/66/66 71/71/71
f 68/68/68 18/18/18 71/71/71
f 72/72/72 70/70/70 69/69/69
f 71/71/71 73/73/73 69/69/69
f 72/72/72 69/69/69 73/73/73
f 74/74/74 70/70/70 72/72/72
f 72/72/72 73/73/73 74/74/74
f 74/74/74 75/75/75 70/70/70
f 75/75/75 74/74/74 76/76/76
f 73/73/73 71/71/71 77/77/77
f 77/77/77 74/74/74 73/73/73
f 18/18/18 77/77/77 71/71/71
f 78/78/78 76/76/76 74/74/74
f 77/77/77 78/78/78 74/74/74
f 76/76/76 78/78/78 79/79/79
f 80/80/80 78/78/78 77/77/77
f 80/80/80 77/77/77 18/18/18
f 81/81/81 79/79/79 78/78/78
f 78/78/78 80/80/80 81/81/81
f 82/82/82 79/79/79 81/81/81
f 82/82/82 83/83/83 79/79/79
f 80/80/80 84/84/84 81/81/81
f 84/84/84 80/80/80 18/18/18
f 84/84/84 85/85/85 81/81/81
f 84/84/84 18/18/18 85/85/85
f 82/82/82 81/81/81 85/85/85
f 86/86/86 85/85/85 18/18/18
f 85/85/85 86/86/86 82/82/82
f 87/87/87 83/83/83 82/82/82
f 87/87/87 82/82/82 86/86/86
f 87/87/87 88/88/88 83/83/83
f 88/88/88 87/87/87 89/89/89
f 86/86/86 18/18/18 90/90/90
f 86/86/86 90/90/90 87/87/87
f 91/91/91 89/89/89 87/87/87
f 91/91/91 87/87/87 90/90/90
f 89/89/89 91/91/91 92/92/92
f 18/18/18 93/93/93 90/90/90
f 18/18/18 12/12/12 93/93/93
f 91/91/91 90/90/90 94/94/94
f 93/93/93 94/94/94 90/90/90
f 94/94/94 92/92/92 91/91/91
f 95/95/95 93/93/93 12/12/12
f 93/93/93 95/95/95 94/94/94
f 12/12/12 7/7/7 95/95/95
f 94/94/94 96/96/96 92/92/92
f 96/96/96 94/94/94 95/95/95
f 95/95/95 7/7/7 96/96/96
f 92/92/92 96/96/96 97/97/97
f 7/7/7 4/4/4 96/96/96
f 97/97/97 96/96/96 4/4/4
