mtllib SM_Book_05_LOD3.mtl
g SM_Book_05_LOD3
#Vertices 18
#Indices 24
#Section 0 Offset 0 NumIndices 24 MaterialIndex 0 MI_Books
v 0.130827 0.029708 -0.094228
v -0.152195 -0.019607 -0.091351
v 0.169729 -0.008413 0.121403
v -0.121676 0.002880 0.089127
v 0.169729 -0.008413 0.121403
v -0.152195 -0.019607 -0.091351
v -0.152195 -0.019607 -0.091351
v 0.130827 0.029708 -0.094228
v -0.147046 0.046087 0.160313
v 0.171624 0.049344 0.123131
v 0.130827 0.029708 -0.094228
v -0.152195 -0.019607 -0.091351
v -0.147046 0.046087 0.160313
v 0.171624 0.049344 0.123131
v 0.130827 0.029708 -0.094228
v -0.121676 0.002880 0.089127
v -0.152195 -0.019607 -0.091351
v 0.169729 -0.008413 0.121403
vt 0.636230 0.727539
vt 0.630859 0.899719
vt 0.483643 0.704834
vt 0.139526 0.845581
vt 0.140381 0.670166
vt 0.205688 0.890381
vt 0.687012 0.876648
vt 0.686523 0.707520
vt 0.865723 0.877014
vt 0.837891 0.682861
vt 0.784668 0.228027
vt 0.590820 0.228027
vt 0.592773 0.069336
vt 0.812500 0.093750
vt 0.357910 0.563477
vt 0.183350 0.678955
vt 0.164673 0.571045
vt 0.384766 0.697998
vt1 0.646484 0.236328
vt1 0.633301 0.720703
vt1 0.275391 0.172852
vt1 0.008064 0.065430
vt1 0.508789 0.067871
vt1 -0.119995 0.230469
vt1 0.431885 0.683838
vt1 0.906738 0.681885
vt1 0.430908 1.116821
vt1 0.976074 1.050018
vt1 0.440918 0.999618
vt1 -0.039398 0.999886
vt1 -0.034210 0.563232
vt1 0.510254 0.630615
vt1 0.325684 0.658936
vt1 0.008064 0.227051
vt1 0.304688 0.181152
vt1 -0.044617 0.725586
vn 0.007874 -0.960630 -0.267716
vn 0.007874 -0.968504 -0.259842
vn 0.007874 -1.000000 0.047244
vn 0.000000 -0.370079 0.929134
vn 0.000000 -0.370079 0.929134
vn 0.000000 -0.370079 0.929134
vn -0.007874 0.960630 -0.267717
vn -0.007874 0.960630 -0.267717
vn -0.007874 0.992126 0.102362
vn -0.007874 1.000000 0.047244
vn 0.007874 -0.944882 0.338583
vn 0.007874 -0.944882 0.338583
vn 0.007874 -0.992126 -0.125984
vn 0.007874 -1.000000 -0.062992
vn -0.007874 0.937008 0.338583
vn -0.007874 1.000000 -0.000000
vn -0.007874 0.944882 0.322834
vn -0.007874 1.000000 -0.055118
tan 0.960630 0.007874 -0.000000 1.000000
tan 0.968504 0.007874 -0.000000 1.000000
tan 1.000000 0.007874 -0.000000 1.000000
tan 0.893918 0.314589 0.125302 1.000000
tan 0.858888 0.351169 0.139872 1.000000
tan 0.866204 0.343853 0.136958 1.000000
tan 0.960630 0.007874 -0.000000 1.000000
tan 0.960630 0.007874 -0.000000 1.000000
tan 0.992126 0.007874 -0.000000 1.000000
tan 1.000000 0.007874 -0.000000 1.000000
tan 0.000000 0.338583 0.944882 1.000000
tan 0.000000 0.338583 0.944882 1.000000
tan -0.007812 -0.126046 0.992126 1.000000
tan -0.007874 -0.063054 1.000000 1.000000
tan 0.000000 0.338583 -0.937008 1.000000
tan 0.007874 0.000062 -1.000000 1.000000
tan 0.000000 0.322834 -0.944882 1.000000
tan 0.007874 -0.055056 -1.000000 1.000000
f 3/3/3 2/2/2 1/1/1
f 6/6/6 5/5/5 4/4/4
f 9/9/9 8/8/8 7/7/7
f 9/9/9 10/10/10 8/8/8
f 13/13/13 12/12/12 11/11/11
f 14/14/14 13/13/13 11/11/11
f 17/17/17 16/16/16 15/15/15
f 18/18/18 15/15/15 16/16/16
