mtllib SM_BreakfastProps_BreadCrumb_03_LOD4.mtl
g SM_BreakfastProps_BreadCrumb_03_LOD4
#Vertices 7
#Indices 18
#Section 0 Offset 0 NumIndices 18 MaterialIndex 0 MI_BreakfastProps
v -0.009464 -0.000412 0.001252
v -0.008582 0.007326 0.003708
v 0.008026 0.002214 0.002204
v 0.007346 0.008139 0.000428
v -0.002350 -0.000421 -0.012350
v 0.008026 0.002214 0.002204
v -0.009464 -0.000412 0.001252
vt 0.538086 0.014648
vt 0.539062 0.010254
vt 0.549805 0.016113
vt 0.548340 0.010742
vt 0.545898 0.002930
vt 0.553711 0.006836
vt 0.541992 0.000000
vt1 0.025620 0.807739
vt1 0.098999 0.560791
vt1 0.843262 0.874634
vt1 0.744629 0.594727
vt1 0.568359 0.153320
vt1 1.110352 0.365234
vt1 0.294678 -0.036133
vn -0.267717 -0.960630 0.094488
vn -0.637795 0.582677 0.503937
vn 0.606299 -0.779527 0.165354
vn 0.598425 0.732283 -0.322835
vn -0.070866 -0.236221 -0.968504
vn 0.661417 -0.748031 0.102362
vn -0.291339 -0.952756 0.047244
tan -0.696633 0.259409 0.663525 1.000000
tan 0.147684 0.679211 -0.598425 1.000000
tan 0.748837 0.629301 0.220968 1.000000
tan -0.540579 0.123876 -0.721061 1.000000
tan -0.621427 -0.746233 0.227479 1.000000
tan -0.747226 -0.667059 -0.046438 1.000000
tan 0.502635 -0.113522 0.810218 1.000000
f 3/3/3 2/2/2 1/1/1
f 4/4/4 2/2/2 3/3/3
f 5/5/5 2/2/2 4/4/4
f 6/6/6 5/5/5 4/4/4
f 2/2/2 5/5/5 7/7/7
f 7/7/7 5/5/5 6/6/6
