mtllib SM_BreakfastProps_BreadCrumb_03_LOD1.mtl
g SM_BreakfastProps_BreadCrumb_03_LOD1
#Vertices 30
#Indices 138
#Section 0 Offset 0 NumIndices 138 MaterialIndex 0 MI_BreakfastProps
v -0.008595 0.000537 -0.000382
v -0.008300 0.002878 -0.000324
v -0.005696 0.002904 0.005565
v -0.006528 0.006226 0.000346
v -0.005877 0.000746 0.005500
v -0.005990 -0.000415 -0.000354
v -0.004093 0.000070 0.004269
v 0.005557 0.001400 0.000890
v 0.005289 0.004625 0.005595
v 0.004542 0.001726 0.003878
v 0.008066 0.003598 0.001699
v 0.007061 0.005798 0.001634
v 0.003283 0.008133 0.004072
v 0.001060 0.009473 0.000168
v 0.005255 0.003611 -0.002359
v 0.008066 0.003598 0.001699
v 0.000534 0.006782 -0.003686
v 0.004567 0.001286 -0.002534
v 0.005557 0.001400 0.000890
v 0.003459 0.001523 -0.006258
v 0.000278 0.000125 -0.004272
v -0.003535 0.000038 -0.006995
v -0.005990 -0.000415 -0.000354
v 0.000496 0.000375 -0.008333
v 0.000614 0.002688 -0.008359
v -0.007263 0.000943 -0.005048
v -0.008595 0.000537 -0.000382
v -0.003950 0.000978 -0.009238
v -0.005888 0.003492 -0.007060
v -0.008300 0.002878 -0.000324
vt 0.538086 0.013672
vt 0.538086 0.011719
vt 0.541016 0.012695
vt 0.540039 0.008789
vt 0.541016 0.013672
vt 0.539062 0.016113
vt 0.541504 0.014648
vt 0.548340 0.017578
vt 0.547363 0.013184
vt 0.547363 0.015137
vt 0.549805 0.013184
vt 0.549805 0.011230
vt 0.546387 0.011230
vt 0.545410 0.009766
vt 0.549316 0.007812
vt 0.551758 0.009766
vt 0.545410 0.007812
vt 0.549805 0.005859
vt 0.552734 0.004883
vt 0.548340 0.005859
vt 0.548340 0.003418
vt 0.545410 0.003418
vt 0.543945 0.000488
vt 0.546875 0.004883
vt 0.546387 0.005859
vt 0.543457 0.002930
vt 0.541504 0.001465
vt 0.544922 0.003906
vt 0.543457 0.004883
vt 0.540039 0.003418
vt1 0.008064 0.760986
vt1 0.017166 0.641602
vt1 0.238892 0.700195
vt1 0.165283 0.474121
vt1 0.232666 0.756226
vt1 0.090271 0.885742
vt1 0.271240 0.807861
vt1 0.735352 0.951691
vt1 0.662598 0.733398
vt1 0.656250 0.836670
vt1 0.843262 0.722656
vt1 0.814453 0.619141
vt1 0.598633 0.622314
vt1 0.533203 0.528076
vt1 0.804199 0.422363
vt1 0.951172 0.525146
vt1 0.534668 0.436035
vt1 0.842285 0.325684
vt1 1.046875 0.257324
vt1 0.717285 0.306152
vt1 0.715332 0.179688
vt1 0.539062 0.172363
vt1 0.422852 0.008301
vt1 0.626953 0.250977
vt1 0.595215 0.307617
vt1 0.378662 0.160645
vt1 0.258545 0.084961
vt1 0.500000 0.221680
vt1 0.396484 0.250488
vt1 0.170776 0.192871
vn -0.842520 -0.535433 -0.023622
vn -0.929134 0.377953 0.015748
vn -0.543307 0.314961 0.779527
vn -0.677165 0.724409 0.118110
vn -0.511811 -0.370079 0.779527
vn -0.094488 -0.992126 -0.007874
vn 0.007874 -0.952756 0.307087
vn 0.393701 -0.913386 0.094488
vn 0.433071 0.039370 0.897638
vn 0.385827 -0.881890 0.267717
vn 0.944882 -0.299213 0.125984
vn 0.763780 0.590551 -0.267717
vn 0.110236 0.803150 0.590551
vn 0.125984 0.944882 -0.307087
vn 0.645669 0.472441 -0.598425
vn 0.960630 -0.259842 -0.094488
vn 0.228346 0.811023 -0.535433
vn 0.456693 -0.881890 -0.094488
vn 0.425197 -0.905512 0.078740
vn 0.795276 -0.078740 -0.598425
vn 0.173228 -0.984252 -0.039370
vn -0.055118 -0.976378 -0.188976
vn -0.094488 -0.992126 -0.007874
vn 0.307087 -0.866142 -0.401575
vn 0.362205 0.614173 -0.700787
vn -0.779528 -0.440945 -0.440945
vn -0.842520 -0.535433 -0.023622
vn -0.417323 -0.157480 -0.889764
vn -0.511811 0.590551 -0.622047
vn -0.929134 0.377953 0.015748
tan -0.534007 0.835328 0.112158 1.000000
tan 0.368901 0.914750 -0.188852 1.000000
tan -0.365181 0.743443 -0.554901 1.000000
tan 0.053506 0.204538 -0.947734 1.000000
tan -0.335545 0.844999 0.180854 1.000000
tan -0.804638 0.071982 0.585901 1.000000
tan -0.292579 0.290161 0.907744 1.000000
tan 0.553041 0.313845 0.729493 1.000000
tan -0.029512 0.911278 -0.025730 1.000000
tan 0.576353 0.454523 0.666625 1.000000
tan 0.312729 0.936450 -0.121396 1.000000
tan -0.604439 0.503007 -0.614855 1.000000
tan -0.115506 0.602393 -0.797694 1.000000
tan -0.173538 -0.279435 -0.930994 1.000000
tan -0.160952 -0.679397 -0.710025 1.000000
tan -0.273979 -0.930374 -0.226920 1.000000
tan -0.076384 -0.521049 -0.821811 1.000000
tan -0.860314 -0.465249 0.184140 1.000000
tan -0.905512 -0.422097 0.035650 1.000000
tan -0.284333 -0.899312 -0.259532 1.000000
tan -0.790502 -0.162688 0.589001 1.000000
tan -0.384401 -0.152396 0.899498 1.000000
tan 0.273421 -0.033604 0.953066 1.000000
tan -0.633269 -0.501457 0.597309 1.000000
tan -0.108872 -0.713125 -0.681257 1.000000
tan 0.270817 -0.848224 0.369459 1.000000
tan 0.512617 -0.817657 0.250233 1.000000
tan -0.449191 -0.780085 0.348751 1.000000
tan -0.621985 -0.751627 -0.201810 1.000000
tan -0.378077 -0.929134 -0.007316 1.000000
f 3/3/3 2/2/2 1/1/1
f 3/3/3 4/4/4 2/2/2
f 5/5/5 3/3/3 1/1/1
f 6/6/6 5/5/5 1/1/1
f 6/6/6 7/7/7 5/5/5
f 8/8/8 7/7/7 6/6/6
f 5/5/5 9/9/9 3/3/3
f 5/5/5 7/7/7 9/9/9
f 10/10/10 7/7/7 8/8/8
f 10/10/10 9/9/9 7/7/7
f 10/10/10 8/8/8 11/11/11
f 11/11/11 9/9/9 10/10/10
f 12/12/12 9/9/9 11/11/11
f 13/13/13 3/3/3 9/9/9
f 12/12/12 13/13/13 9/9/9
f 13/13/13 4/4/4 3/3/3
f 12/12/12 14/14/14 13/13/13
f 14/14/14 4/4/4 13/13/13
f 12/12/12 15/15/15 14/14/14
f 16/16/16 15/15/15 12/12/12
f 14/14/14 17/17/17 4/4/4
f 17/17/17 14/14/14 15/15/15
f 16/16/16 18/18/18 15/15/15
f 19/19/19 18/18/18 16/16/16
f 20/20/20 15/15/15 18/18/18
f 15/15/15 20/20/20 17/17/17
f 21/21/21 18/18/18 19/19/19
f 18/18/18 21/21/21 20/20/20
f 21/21/21 19/19/19 22/22/22
f 23/23/23 22/22/22 19/19/19
f 24/24/24 20/20/20 21/21/21
f 24/24/24 21/21/21 22/22/22
f 25/25/25 17/17/17 20/20/20
f 20/20/20 24/24/24 25/25/25
f 22/22/22 23/23/23 26/26/26
f 27/27/27 26/26/26 23/23/23
f 28/28/28 24/24/24 22/22/22
f 26/26/26 28/28/28 22/22/22
f 28/28/28 25/25/25 24/24/24
f 26/26/26 27/27/27 29/29/29
f 28/28/28 26/26/26 29/29/29
f 28/28/28 29/29/29 25/25/25
f 29/29/29 17/17/17 25/25/25
f 29/29/29 4/4/4 17/17/17
f 30/30/30 29/29/29 27/27/27
f 4/4/4 29/29/29 30/30/30
