mtllib SM_Book_03_LOD2.mtl
g SM_Book_03_LOD2
#Vertices 44
#Indices 54
#Section 0 Offset 0 NumIndices 54 MaterialIndex 0 MI_Books
v 0.134721 0.047321 -0.091275
v -0.112118 0.034813 -0.105426
v 0.133677 0.007060 -0.083269
v 0.133677 0.007060 -0.083269
v -0.112118 0.034813 -0.105426
v 0.134721 0.047321 -0.091275
v 0.133677 0.007060 -0.083269
v -0.112118 0.034813 -0.105426
v 0.135521 0.001316 -0.087610
v -0.120507 -0.001316 0.087610
v -0.112118 0.034813 -0.105426
v -0.121676 0.003783 0.089127
v 0.164890 -0.008711 0.121091
v 0.133677 0.007060 -0.083269
v 0.135521 0.001316 -0.087610
v -0.120603 0.050810 -0.088988
v -0.147346 0.029556 0.143248
v -0.112118 0.034813 -0.105426
v 0.134721 0.047321 -0.091275
v 0.169853 0.059544 0.122478
v 0.135278 0.053442 -0.087612
v -0.121676 0.003783 0.089127
v 0.164890 -0.008711 0.121091
v -0.120507 -0.001316 0.087610
v -0.120603 0.050810 -0.088988
v 0.135278 0.053442 -0.087612
v -0.147346 0.029556 0.143248
v 0.169853 0.059544 0.122478
v 0.134721 0.047321 -0.091275
v -0.112118 0.034813 -0.105426
v -0.147346 0.029556 0.143248
v 0.169853 0.059544 0.122478
v 0.134721 0.047321 -0.091275
v -0.120603 0.050810 -0.088988
v -0.112118 0.034813 -0.105426
v 0.135278 0.053442 -0.087612
v 0.135521 0.001316 -0.087610
v -0.120507 -0.001316 0.087610
v 0.164890 -0.008711 0.121091
v -0.112118 0.034813 -0.105426
v 0.133677 0.007060 -0.083269
v -0.121676 0.003783 0.089127
v -0.112118 0.034813 -0.105426
v 0.164890 -0.008711 0.121091
vt 0.880371 0.000977
vt 0.876465 0.176758
vt 0.860840 0.001465
vt 0.841797 0.879761
vt 0.645020 0.864258
vt 0.842773 0.858643
vt 0.966309 0.660889
vt 0.977539 0.854492
vt 0.964844 0.659424
vt 0.171387 0.891846
vt 0.328857 0.906067
vt 0.171387 0.894592
vt 0.236572 0.175781
vt 0.406982 0.170410
vt 0.411133 0.172852
vt 0.825195 0.877380
vt 1.015625 0.884338
vt 0.811523 0.884644
vt 0.144897 0.839966
vt 0.322021 0.842896
vt 0.147461 0.842896
vt 0.988770 0.725098
vt 0.992676 0.529297
vt 0.992188 0.725098
vt 0.314941 0.882629
vt 0.314941 0.727051
vt 0.478516 0.899048
vt 0.462891 0.705811
vt 0.177246 0.690674
vt 0.006508 0.698730
vt -0.018097 0.544678
vt 0.201782 0.557861
vt 0.953613 0.000488
vt 0.957520 0.201172
vt 0.946777 0.194336
vt 0.957520 0.000000
vt 0.307861 0.681396
vt 0.183350 0.837646
vt 0.160889 0.663330
vt 0.319336 0.832397
vt 0.682617 0.615234
vt 0.506348 0.723389
vt 0.512695 0.602051
vt 0.704102 0.742188
vt1 0.661133 0.273438
vt1 0.650879 0.672607
vt1 0.608887 0.275391
vt1 0.669922 0.680176
vt1 0.717285 0.282227
vt1 0.734375 0.682129
vt1 0.418457 0.081055
vt1 0.020462 0.116211
vt1 0.421387 0.075684
vt1 0.952148 0.269531
vt1 0.906738 0.579346
vt1 0.943359 0.269531
vt1 0.868652 0.653564
vt1 0.886719 0.983826
vt1 0.878906 0.991936
vt1 0.314453 0.047852
vt1 0.687012 0.070312
vt1 0.287598 0.071289
vt1 0.003149 0.047363
vt1 0.347656 0.057129
vt1 0.008064 0.056641
vt1 0.943359 0.991936
vt1 0.953125 0.528564
vt1 0.952148 0.991936
vt1 0.443359 0.706543
vt1 0.856934 0.706543
vt1 0.399658 1.081543
vt1 0.913086 1.045746
vt1 0.422363 0.996803
vt1 0.023270 1.017715
vt1 -0.034241 0.617188
vt1 0.479736 0.651855
vt1 0.912598 0.144531
vt1 0.924316 0.556641
vt1 0.894043 0.543213
vt1 0.924316 0.143066
vt1 0.599609 0.271973
vt1 0.314453 0.685547
vt1 0.262695 0.224609
vt1 0.625977 0.671875
vt1 0.288574 0.680176
vt1 0.008064 0.267578
vt1 0.322754 0.283203
vt1 -0.041168 0.730713
vn 0.000000 0.118110 -0.992126
vn 0.000000 0.062992 -1.000000
vn 0.000000 -0.141732 -0.992126
vn 0.000000 0.212599 0.976378
vn 0.000000 -0.110236 0.992126
vn 0.000000 -0.220472 0.976378
vn 0.007874 -0.866142 -0.503937
vn 0.007874 0.015748 -1.000000
vn 0.007874 -0.968504 -0.259842
vn -0.944882 -0.322835 0.000000
vn -0.937008 -0.322835 -0.133858
vn -0.944882 -0.322835 0.000000
vn 0.905512 -0.409449 0.094488
vn 0.897638 -0.417323 -0.157480
vn 0.905512 -0.417323 -0.094488
vn -0.944882 0.314961 -0.070866
vn -0.952756 0.307087 0.007874
vn -0.937008 0.314961 -0.181102
vn 0.889764 0.433071 -0.165354
vn 0.905512 0.417323 0.062992
vn 0.897638 0.433071 -0.094488
vn 0.000000 -0.370079 0.929134
vn 0.000000 -0.370079 0.929134
vn 0.000000 -0.370079 0.929134
vn -0.007874 0.968504 -0.259843
vn -0.007874 0.968504 -0.259843
vn -0.007874 1.000000 0.078740
vn -0.007874 1.000000 0.047244
vn 0.007874 -0.944882 0.338583
vn 0.007874 -0.937008 0.354331
vn 0.007874 -0.992126 -0.094488
vn 0.007874 -1.000000 -0.055118
vn 0.000000 0.645669 -0.763779
vn -0.007874 0.968504 -0.259843
vn 0.007874 0.070866 -1.000000
vn -0.007874 0.968504 -0.259843
vn 0.007874 -0.968504 -0.259842
vn 0.007874 -1.000000 0.000000
vn 0.007874 -1.000000 0.047244
vn 0.007874 -0.960630 -0.283464
vn -0.007874 0.944882 0.322834
vn -0.007874 1.000000 -0.000000
vn -0.007874 0.937008 0.354331
vn -0.007874 1.000000 -0.055118
tan 0.992126 0.007812 0.000930 1.000000
tan 1.000000 0.007874 0.000496 1.000000
tan 0.992126 0.007812 -0.001116 1.000000
tan -0.007688 0.976378 -0.212599 1.000000
tan -0.007812 0.992126 0.110236 1.000000
tan -0.007688 0.976378 0.220472 1.000000
tan 0.934714 0.011780 -0.005642 1.000000
tan 1.000000 0.047244 0.008618 1.000000
tan 0.972596 0.007874 0.000124 1.000000
tan 0.322835 -0.944882 0.000000 1.000000
tan 0.327051 -0.937008 -0.029512 1.000000
tan 0.322835 -0.944882 0.000000 1.000000
tan 0.411681 0.905512 -0.021390 1.000000
tan 0.424763 0.898878 0.039122 1.000000
tan 0.420299 0.907000 0.021948 1.000000
tan 0.316635 0.945440 -0.019840 1.000000
tan 0.307087 0.952756 -0.000000 1.000000
tan 0.323517 0.937008 -0.044268 1.000000
tan 0.442185 -0.891066 0.045632 1.000000
tan 0.418315 -0.905512 -0.014260 1.000000
tan 0.436047 -0.899126 0.021452 1.000000
tan 0.915866 0.248744 0.099076 1.000000
tan 0.888152 0.285325 0.113646 1.000000
tan 0.915866 0.248744 0.099076 1.000000
tan 0.972596 0.007874 -0.000124 1.000000
tan 0.972596 0.007874 -0.000124 1.000000
tan 1.000000 0.007874 -0.000000 1.000000
tan 1.000000 0.007874 -0.000000 1.000000
tan 0.000000 0.338583 0.944882 1.000000
tan 0.000000 0.354331 0.937008 1.000000
tan -0.007812 -0.094550 0.992126 1.000000
tan -0.007874 -0.055180 1.000000 1.000000
tan 0.921818 0.030070 0.025420 1.000000
tan 0.972596 0.007874 -0.000124 1.000000
tan 1.000000 0.039370 0.010664 1.000000
tan 0.972596 0.007874 -0.000124 1.000000
tan 0.972596 0.007874 0.000124 1.000000
tan 1.000000 0.007874 -0.000000 1.000000
tan 1.000000 0.007874 -0.000000 1.000000
tan 0.960630 0.007874 -0.000000 1.000000
tan 0.000000 0.322834 -0.944882 1.000000
tan 0.007874 0.000062 -1.000000 1.000000
tan 0.000000 0.354331 -0.937008 1.000000
tan 0.007874 -0.055056 -1.000000 1.000000
f 3/3/3 2/2/2 1/1/1
f 6/6/6 5/5/5 4/4/4
f 9/9/9 8/8/8 7/7/7
f 12/12/12 11/11/11 10/10/10
f 15/15/15 14/14/14 13/13/13
f 18/18/18 17/17/17 16/16/16
f 21/21/21 20/20/20 19/19/19
f 24/24/24 23/23/23 22/22/22
f 27/27/27 26/26/26 25/25/25
f 27/27/27 28/28/28 26/26/26
f 31/31/31 30/30/30 29/29/29
f 32/32/32 31/31/31 29/29/29
f 35/35/35 34/34/34 33/33/33
f 36/36/36 33/33/33 34/34/34
f 39/39/39 38/38/38 37/37/37
f 40/40/40 37/37/37 38/38/38
f 43/43/43 42/42/42 41/41/41
f 44/44/44 41/41/41 42/42/42
