mtllib SM_BreakfastProps_Jam_02_LOD1.mtl
g SM_BreakfastProps_Jam_02_LOD1
#Vertices 47
#Indices 237
#Section 0 Offset 0 NumIndices 237 MaterialIndex 0 MI_BreakfastProps
v 0.002593 0.000000 0.021394
v 0.002394 0.002594 0.020361
v 0.012323 -0.000002 0.021274
v -0.001722 0.000020 0.019239
v 0.012197 0.002621 0.020559
v 0.017546 0.000027 0.016377
v -0.001259 0.002494 0.018759
v 0.016350 0.002556 0.016607
v 0.019785 0.000023 0.005961
v 0.010963 0.003295 0.019707
v 0.001249 0.003308 0.019515
v 0.013680 0.003295 0.018258
v -0.003942 0.003791 0.015771
v -0.005598 0.002503 0.015342
v -0.007451 0.000012 0.015379
v 0.015512 0.003295 0.015801
v -0.011743 0.002511 0.012175
v -0.016663 -0.000010 0.008415
v 0.017900 0.003304 0.004722
v 0.018708 0.002493 0.005590
v 0.017838 0.002513 -0.002193
v 0.016711 -0.000020 -0.009432
v 0.016406 0.003295 -0.004664
v 0.015087 0.002571 -0.010637
v 0.008417 0.000015 -0.018758
v 0.013733 0.003294 -0.010955
v 0.008190 0.002569 -0.017955
v -0.000152 0.000004 -0.021080
v 0.007880 0.003303 -0.017194
v -0.001938 0.002532 -0.020608
v -0.002384 0.003284 -0.019862
v -0.006144 0.002532 -0.019520
v -0.012283 -0.000054 -0.018156
v -0.011513 0.003295 -0.016059
v -0.011674 0.002562 -0.017030
v -0.015343 0.002502 -0.013271
v -0.019224 -0.000000 -0.007043
v -0.014932 0.003301 -0.012328
v -0.018430 0.002532 -0.006857
v -0.019440 0.000005 0.001096
v -0.017609 0.003295 -0.006658
v -0.017679 0.003290 0.002169
v -0.018155 0.002532 -0.001812
v -0.018748 0.002532 0.002211
v -0.016724 0.002532 0.006462
v -0.016044 0.003295 0.006160
v -0.011036 0.003295 0.011741
vt 0.051208 0.001953
vt 0.051453 0.001953
vt 0.050964 0.002930
vt 0.051544 0.001465
vt 0.051208 0.002930
vt 0.051361 0.003906
vt 0.051697 0.001953
vt 0.051453 0.003418
vt 0.052338 0.004395
vt 0.051331 0.002930
vt 0.051575 0.001953
vt 0.051392 0.002930
vt 0.052063 0.001465
vt 0.052124 0.001465
vt 0.052063 0.000977
vt 0.051575 0.003418
vt 0.052612 0.000977
vt 0.053040 0.000488
vt 0.052551 0.003906
vt 0.052460 0.003906
vt 0.053223 0.003906
vt 0.053986 0.004395
vt 0.053497 0.003906
vt 0.054108 0.003906
vt 0.055176 0.003906
vt 0.054169 0.003906
vt 0.054993 0.003418
vt 0.055664 0.002930
vt 0.054901 0.003418
vt 0.055481 0.002441
vt 0.055420 0.002441
vt 0.055511 0.002441
vt 0.055664 0.001465
vt 0.055298 0.001465
vt 0.055420 0.001465
vt 0.055145 0.000977
vt 0.054718 0.000488
vt 0.055023 0.001465
vt 0.054596 0.000977
vt 0.053894 0.000488
vt 0.054565 0.000977
vt 0.053711 0.000488
vt 0.054108 0.000488
vt 0.053741 0.000488
vt 0.053284 0.000488
vt 0.053314 0.000488
vt 0.052643 0.000977
vt1 0.055115 0.417480
vt1 0.103149 0.432129
vt1 0.004967 0.660889
vt1 0.121277 0.317871
vt1 0.052368 0.658447
vt1 0.084839 0.832397
vt1 0.152466 0.357910
vt1 0.104553 0.779663
vt1 0.289551 0.963928
vt1 0.078918 0.635498
vt1 0.129028 0.415527
vt1 0.093201 0.705811
vt1 0.230591 0.319824
vt1 0.242676 0.274902
vt1 0.231934 0.205078
vt1 0.130493 0.762939
vt1 0.343506 0.156738
vt1 0.432129 0.034180
vt1 0.333252 0.888672
vt1 0.312256 0.906555
vt1 0.471191 0.935791
vt1 0.628906 0.987846
vt1 0.528320 0.911682
vt1 0.654297 0.921814
vt1 0.873047 0.842163
vt1 0.666992 0.886902
vt1 0.836426 0.805664
vt1 0.973633 0.642822
vt1 0.819824 0.789429
vt1 0.940430 0.586670
vt1 0.925293 0.571533
vt1 0.943359 0.483887
vt1 0.978027 0.319336
vt1 0.898926 0.340820
vt1 0.922363 0.340820
vt1 0.868652 0.233398
vt1 0.778809 0.076172
vt1 0.843262 0.241211
vt1 0.756348 0.124512
vt1 0.608398 0.014160
vt1 0.745605 0.146484
vt1 0.574219 0.088379
vt1 0.656250 0.094727
vt1 0.577637 0.062988
vt1 0.483643 0.080566
vt1 0.486816 0.103516
vt1 0.350098 0.180664
vn -0.070866 0.299213 0.952756
vn -0.094488 0.448819 0.889764
vn 0.196850 0.314961 0.929134
vn -0.622047 0.244095 0.740157
vn 0.196850 0.456693 0.866142
vn 0.889764 0.354331 0.299213
vn -0.590551 0.370079 0.716535
vn 0.811024 0.519685 0.275590
vn 0.944882 0.322835 0.062992
vn 0.007874 1.000000 0.078740
vn -0.023622 1.000000 0.070866
vn 0.039370 1.000000 0.047244
vn -0.039370 1.000000 0.062992
vn -0.409449 0.456693 0.795275
vn -0.417323 0.314961 0.850394
vn 0.070866 1.000000 0.031496
vn -0.574803 0.425197 0.700787
vn -0.771654 0.267717 0.574803
vn 0.086614 1.000000 -0.000000
vn 0.881890 0.472441 0.062992
vn 0.881890 0.440945 -0.188976
vn 0.866142 0.307087 -0.393701
vn 0.078740 1.000000 -0.023622
vn 0.771654 0.440945 -0.456693
vn 0.488189 0.291338 -0.826772
vn 0.070866 1.000000 -0.047244
vn 0.433071 0.425197 -0.795276
vn 0.125984 0.283464 -0.952756
vn 0.039370 1.000000 -0.062992
vn 0.000000 0.425197 -0.905512
vn -0.007874 1.000000 -0.070866
vn -0.291339 0.456693 -0.842520
vn -0.566929 0.299212 -0.771653
vn -0.031496 1.000000 -0.047244
vn -0.472441 0.456693 -0.755905
vn -0.755906 0.409449 -0.511811
vn -0.937008 0.307087 -0.173228
vn -0.062992 1.000000 -0.039370
vn -0.889764 0.433071 -0.165354
vn -0.944882 0.307087 0.078740
vn -0.070866 1.000000 -0.015748
vn -0.062992 1.000000 0.015748
vn -0.889764 0.456693 -0.031496
vn -0.889764 0.433071 0.157480
vn -0.771654 0.401575 0.496063
vn -0.070866 1.000000 0.039370
vn -0.047244 1.000000 0.062992
tan -0.917168 -0.302313 0.026722 1.000000
tan -0.770786 -0.465373 0.152892 1.000000
tan -0.929134 0.014632 0.191890 1.000000
tan -0.749395 -0.287495 -0.534999 1.000000
tan -0.880898 -0.099820 0.252836 1.000000
tan -0.461901 0.686589 0.560481 1.000000
tan -0.748279 -0.424949 -0.397235 1.000000
tan -0.585095 0.744993 0.317006 1.000000
tan -0.325935 0.900242 0.275280 1.000000
tan -0.968504 -0.012214 0.251968 1.000000
tan -0.952756 -0.044268 0.307087 1.000000
tan -0.968504 0.026598 0.244094 1.000000
tan -0.960630 -0.055180 0.275591 1.000000
tan -0.679335 -0.559179 -0.028644 1.000000
tan -0.747226 -0.458243 -0.196974 1.000000
tan -0.960630 0.059644 0.267716 1.000000
tan -0.733585 -0.545353 -0.270816 1.000000
tan -0.600099 -0.593403 -0.529233 1.000000
tan -0.976378 0.084568 0.228346 1.000000
tan -0.476905 0.867506 0.170376 1.000000
tan -0.434993 0.884866 0.034720 1.000000
tan -0.403497 0.841342 -0.231447 1.000000
tan -0.968504 0.082026 0.244094 1.000000
tan -0.560481 0.765081 -0.208320 1.000000
tan -0.799182 0.273110 -0.375659 1.000000
tan -0.960630 0.081468 0.283465 1.000000
tan -0.694773 0.495195 -0.113584 1.000000
tan -0.922748 0.247566 -0.048360 1.000000
tan -0.944882 0.057536 0.322835 1.000000
tan -0.895778 0.278071 0.130572 1.000000
tan -0.960630 0.012524 0.283465 1.000000
tan -0.901730 0.068944 0.349185 1.000000
tan -0.783434 -0.064852 0.550437 1.000000
tan -0.976378 -0.020708 0.212598 1.000000
tan -0.823114 -0.093744 0.457809 1.000000
tan -0.656891 -0.488251 0.579577 1.000000
tan -0.351603 -0.818959 0.450059 1.000000
tan -0.984252 -0.054250 0.196850 1.000000
tan -0.462769 -0.818401 0.346705 1.000000
tan -0.292889 -0.937442 0.141360 1.000000
tan -0.976378 -0.065596 0.228346 1.000000
tan -0.968504 -0.064728 0.236220 1.000000
tan -0.452353 -0.868002 0.192944 1.000000
tan -0.423151 -0.897204 0.076508 1.000000
tan -0.530101 -0.828074 -0.154256 1.000000
tan -0.952756 -0.079608 0.307087 1.000000
tan -0.937008 -0.065596 0.338583 1.000000
f 3/3/3 2/2/2 1/1/1
f 1/1/1 2/2/2 4/4/4
f 2/2/2 3/3/3 5/5/5
f 5/5/5 3/3/3 6/6/6
f 7/7/7 4/4/4 2/2/2
f 5/5/5 6/6/6 8/8/8
f 8/8/8 6/6/6 9/9/9
f 5/5/5 10/10/10 2/2/2
f 11/11/11 2/2/2 10/10/10
f 2/2/2 11/11/11 7/7/7
f 10/10/10 5/5/5 12/12/12
f 10/10/10 12/12/12 11/11/11
f 5/5/5 8/8/8 12/12/12
f 13/13/13 7/7/7 11/11/11
f 13/13/13 11/11/11 12/12/12
f 7/7/7 14/14/14 4/4/4
f 7/7/7 13/13/13 14/14/14
f 4/4/4 14/14/14 15/15/15
f 16/16/16 12/12/12 8/8/8
f 14/14/14 17/17/17 15/15/15
f 15/15/15 17/17/17 18/18/18
f 16/16/16 19/19/19 12/12/12
f 8/8/8 19/19/19 16/16/16
f 13/13/13 12/12/12 19/19/19
f 19/19/19 8/8/8 20/20/20
f 8/8/8 9/9/9 20/20/20
f 20/20/20 9/9/9 21/21/21
f 19/19/19 20/20/20 21/21/21
f 22/22/22 21/21/21 9/9/9
f 21/21/21 23/23/23 19/19/19
f 23/23/23 13/13/13 19/19/19
f 21/21/21 22/22/22 24/24/24
f 24/24/24 23/23/23 21/21/21
f 25/25/25 24/24/24 22/22/22
f 23/23/23 24/24/24 26/26/26
f 26/26/26 13/13/13 23/23/23
f 24/24/24 25/25/25 27/27/27
f 25/25/25 28/28/28 27/27/27
f 26/26/26 24/24/24 29/29/29
f 27/27/27 29/29/29 24/24/24
f 29/29/29 13/13/13 26/26/26
f 27/27/27 28/28/28 30/30/30
f 29/29/29 27/27/27 31/31/31
f 30/30/30 31/31/31 27/27/27
f 13/13/13 29/29/29 31/31/31
f 30/30/30 28/28/28 32/32/32
f 32/32/32 31/31/31 30/30/30
f 33/33/33 32/32/32 28/28/28
f 31/31/31 32/32/32 34/34/34
f 34/34/34 13/13/13 31/31/31
f 32/32/32 33/33/33 35/35/35
f 35/35/35 34/34/34 32/32/32
f 36/36/36 35/35/35 33/33/33
f 34/34/34 35/35/35 36/36/36
f 33/33/33 37/37/37 36/36/36
f 36/36/36 38/38/38 34/34/34
f 38/38/38 13/13/13 34/34/34
f 39/39/39 36/36/36 37/37/37
f 37/37/37 40/40/40 39/39/39
f 38/38/38 36/36/36 41/41/41
f 39/39/39 41/41/41 36/36/36
f 41/41/41 42/42/42 38/38/38
f 13/13/13 38/38/38 42/42/42
f 39/39/39 43/43/43 41/41/41
f 42/42/42 41/41/41 43/43/43
f 43/43/43 39/39/39 40/40/40
f 44/44/44 42/42/42 43/43/43
f 43/43/43 40/40/40 44/44/44
f 44/44/44 40/40/40 45/45/45
f 44/44/44 45/45/45 42/42/42
f 18/18/18 45/45/45 40/40/40
f 45/45/45 18/18/18 17/17/17
f 46/46/46 42/42/42 45/45/45
f 46/46/46 45/45/45 17/17/17
f 13/13/13 42/42/42 46/46/46
f 17/17/17 47/47/47 46/46/46
f 47/47/47 13/13/13 46/46/46
f 47/47/47 17/17/17 14/14/14
f 14/14/14 13/13/13 47/47/47
