mtllib SM_Book_06_LOD3.mtl
g SM_Book_06_LOD3
#Vertices 20
#Indices 24
#Section 0 Offset 0 NumIndices 24 MaterialIndex 0 MI_Books
v -0.113222 0.013490 -0.091230
v 0.140749 0.001479 -0.023449
v -0.119461 0.032795 0.090316
v 0.140749 0.001479 -0.023449
v -0.113222 0.013490 -0.091230
v -0.119461 0.032795 0.090316
v -0.120360 -0.001064 -0.088987
v 0.140749 0.001479 -0.023449
v -0.113222 0.013490 -0.091230
v -0.113222 0.013490 -0.091230
v -0.144960 -0.002861 0.151965
v -0.120360 -0.001064 -0.088987
v 0.140749 0.001479 -0.023449
v -0.144960 -0.002861 0.151965
v 0.169747 -0.006334 0.121605
v -0.120360 -0.001064 -0.088987
v 0.140749 0.001479 -0.023449
v -0.144960 -0.002861 0.151965
v -0.113222 0.013490 -0.091230
v 0.169747 -0.006334 0.121605
vt 0.687988 0.698242
vt 0.730957 0.547852
vt 0.814941 0.702637
vt 0.551758 0.529297
vt 0.380371 0.565674
vt 0.375977 0.453125
vt 0.956543 0.598145
vt 0.957031 0.401855
vt 0.963379 0.592285
vt 0.310303 0.872681
vt 0.121887 0.863281
vt 0.308594 0.865723
vt 0.079285 0.688232
vt -0.045441 0.862427
vt -0.022858 0.670410
vt 0.124451 0.847534
vt 0.181274 0.504150
vt -0.016022 0.614502
vt 0.005817 0.462891
vt 0.201416 0.594482
vt1 0.487549 0.686523
vt1 0.909180 0.790649
vt1 0.475586 0.993408
vt1 0.446045 0.895569
vt1 0.021988 0.995041
vt1 0.010994 0.686768
vt1 0.878906 0.669434
vt1 0.878906 0.234863
vt1 0.897461 0.656982
vt1 0.993164 0.166992
vt1 0.574707 0.138184
vt1 0.989258 0.145508
vt1 0.522461 0.223145
vt1 0.220337 0.711182
vt1 0.275146 0.173340
vt1 0.632324 0.669434
vt1 0.202637 0.675781
vt1 -0.099792 0.187988
vt1 0.316162 0.242188
vt1 -0.044861 0.725342
vn -0.007874 0.968504 -0.259843
vn -0.007874 0.984252 -0.173228
vn -0.007874 1.000000 -0.000000
vn 0.007874 -0.976378 0.228347
vn 0.007874 -0.944882 0.330709
vn 0.007874 -1.000000 0.000000
vn 0.007874 -0.968504 -0.259842
vn 0.007874 -0.732283 -0.677165
vn 0.007874 -0.385827 -0.921260
vn -0.929134 -0.322835 -0.173228
vn -0.944882 -0.322835 0.086614
vn -0.944882 -0.322835 -0.070866
vn 0.007874 -0.984252 -0.165354
vn 0.007874 -0.992126 0.094488
vn 0.007874 -1.000000 0.047244
vn 0.007874 -0.968504 -0.259842
vn -0.007874 0.976378 0.212598
vn -0.007874 0.992126 -0.110236
vn -0.007874 0.944882 0.330709
vn -0.007874 1.000000 -0.055118
tan 0.968504 0.007874 -0.000000 1.000000
tan 0.984252 0.007874 -0.000000 1.000000
tan 1.000000 0.007874 -0.000000 1.000000
tan 0.000000 0.228347 0.976378 1.000000
tan 0.000000 0.330709 0.944882 1.000000
tan -0.007874 -0.000062 1.000000 1.000000
tan 0.972596 0.007874 0.000124 1.000000
tan 0.846116 0.039370 -0.032736 1.000000
tan 0.924298 0.043586 -0.010354 1.000000
tan 0.331019 -0.929134 -0.043896 1.000000
tan 0.324881 -0.944882 0.022320 1.000000
tan 0.324509 -0.945440 -0.019778 1.000000
tan 0.984252 0.007874 -0.000000 1.000000
tan 0.992126 0.007874 -0.000000 1.000000
tan 1.000000 0.007874 -0.000000 1.000000
tan 0.972596 0.007874 0.000124 1.000000
tan 0.000000 0.212598 -0.976378 1.000000
tan 0.007812 -0.110174 -0.992126 1.000000
tan 0.000000 0.330709 -0.944882 1.000000
tan 0.007874 -0.055056 -1.000000 1.000000
f 3/3/3 2/2/2 1/1/1
f 6/6/6 5/5/5 4/4/4
f 9/9/9 8/8/8 7/7/7
f 12/12/12 11/11/11 10/10/10
f 15/15/15 14/14/14 13/13/13
f 16/16/16 13/13/13 14/14/14
f 19/19/19 18/18/18 17/17/17
f 20/20/20 17/17/17 18/18/18
