mtllib SM_Beams_02_LOD5.mtl
g SM_Beams_02_LOD5
#Vertices 114
#Indices 114
#Section 0 Offset 0 NumIndices 114 MaterialIndex 0 MI_Beams
v -0.126257 2.954883 -0.075509
v 0.050582 2.845634 0.121081
v -0.113420 2.547326 0.083521
v 0.111003 2.352451 0.085769
v -0.155965 2.103399 -0.065687
v -0.113420 2.547326 0.083521
v 0.130648 2.665994 -0.152836
v -0.126257 2.954883 -0.075509
v -0.113420 2.547326 0.083521
v 0.130648 2.665994 -0.152836
v -0.113420 2.547326 0.083521
v 0.007304 2.353302 -0.104626
v 0.130648 2.665994 -0.152836
v 0.007304 2.353302 -0.104626
v 0.111003 2.352451 0.085769
v 0.121457 1.414379 0.043632
v 0.158627 1.977734 -0.047537
v 0.028738 1.580881 -0.176274
v -0.084958 1.304064 0.108374
v 0.028738 1.580881 -0.176274
v -0.084357 1.730407 0.100050
v 0.121457 1.414379 0.043632
v 0.097087 0.894812 0.128321
v -0.084958 1.304064 0.108374
v 0.097087 0.894812 0.128321
v 0.035414 0.561890 0.136798
v -0.150311 0.801273 -0.064633
v 0.127847 0.523175 -0.070635
v 0.035414 0.561890 0.136798
v 0.097087 0.894812 0.128321
v -0.150311 0.801273 -0.064633
v 0.035414 0.561890 0.136798
v -0.181882 0.220195 0.008062
v 0.074634 0.115631 -0.185149
v -0.181882 0.220195 0.008062
v 0.057770 0.212031 0.124636
v 0.045345 0.997317 -0.118908
v -0.084958 1.304064 0.108374
v -0.150311 0.801273 -0.064633
v 0.045345 0.997317 -0.118908
v 0.127847 0.523175 -0.070635
v 0.097087 0.894812 0.128321
v 0.127847 0.523175 -0.070635
v 0.074634 0.115631 -0.185149
v 0.057770 0.212031 0.124636
v -0.150311 0.801273 -0.064633
v -0.181882 0.220195 0.008062
v 0.074634 0.115631 -0.185149
v 0.127847 0.523175 -0.070635
v 0.057770 0.212031 0.124636
v 0.035414 0.561890 0.136798
v 0.007304 2.353302 -0.104626
v 0.158627 1.977734 -0.047537
v 0.111003 2.352451 0.085769
v 0.026462 2.012757 0.169637
v -0.084357 1.730407 0.100050
v -0.155965 2.103399 -0.065687
v -0.155965 2.103399 -0.065687
v 0.111003 2.352451 0.085769
v 0.026462 2.012757 0.169637
v 0.050582 2.845634 0.121081
v 0.111003 2.352451 0.085769
v -0.113420 2.547326 0.083521
v 0.111003 2.352451 0.085769
v 0.158627 1.977734 -0.047537
v 0.026462 2.012757 0.169637
v 0.121457 1.414379 0.043632
v -0.084958 1.304064 0.108374
v -0.084357 1.730407 0.100050
v -0.155965 2.103399 -0.065687
v -0.084357 1.730407 0.100050
v 0.028738 1.580881 -0.176274
v -0.084958 1.304064 0.108374
v 0.097087 0.894812 0.128321
v -0.150311 0.801273 -0.064633
v 0.045345 0.997317 -0.118908
v 0.097087 0.894812 0.128321
v 0.121457 1.414379 0.043632
v 0.127847 0.523175 -0.070635
v 0.045345 0.997317 -0.118908
v 0.074634 0.115631 -0.185149
v 0.074634 0.115631 -0.185149
v 0.045345 0.997317 -0.118908
v -0.150311 0.801273 -0.064633
v 0.121457 1.414379 0.043632
v 0.028738 1.580881 -0.176274
v 0.045345 0.997317 -0.118908
v -0.084958 1.304064 0.108374
v 0.045345 0.997317 -0.118908
v 0.028738 1.580881 -0.176274
v 0.035414 0.561890 0.136798
v 0.057770 0.212031 0.124636
v -0.181882 0.220195 0.008062
v 0.028738 1.580881 -0.176274
v 0.158627 1.977734 -0.047537
v -0.155965 2.103399 -0.065687
v 0.007304 2.353302 -0.104626
v -0.155965 2.103399 -0.065687
v 0.158627 1.977734 -0.047537
v -0.113420 2.547326 0.083521
v -0.155965 2.103399 -0.065687
v 0.007304 2.353302 -0.104626
v -0.126257 2.954883 -0.075509
v 0.130648 2.665994 -0.152836
v 0.050582 2.845634 0.121081
v 0.121457 1.414379 0.043632
v -0.084357 1.730407 0.100050
v 0.158627 1.977734 -0.047537
v -0.084357 1.730407 0.100050
v 0.026462 2.012757 0.169637
v 0.158627 1.977734 -0.047537
v 0.130648 2.665994 -0.152836
v 0.111003 2.352451 0.085769
v 0.050582 2.845634 0.121081
vt 0.229492 0.804932
vt 0.175659 0.776489
vt 0.216553 0.716064
vt 0.165405 0.645752
vt 0.230957 0.599121
vt 0.213135 0.688721
vt 0.286133 0.727539
vt 0.244385 0.805908
vt 0.213745 0.708252
vt 0.103638 0.733887
vt 0.040375 0.699219
vt 0.092346 0.660156
vt 0.102600 0.733154
vt 0.113037 0.659180
vt 0.157349 0.660156
vt 0.148682 0.426758
vt 0.127075 0.563477
vt 0.093201 0.464355
vt 0.612305 0.765869
vt 0.680176 0.825928
vt 0.611816 0.864136
vt 0.567871 0.787354
vt 0.569824 0.659180
vt 0.615234 0.757202
vt 0.567383 0.659668
vt 0.582520 0.577637
vt 0.639648 0.638916
vt 0.531250 0.568115
vt 0.576660 0.582275
vt 0.567871 0.661621
vt 0.637207 0.632080
vt 0.589355 0.578857
vt 0.635742 0.495117
vt 0.890137 0.125977
vt 0.921387 0.090820
vt 0.937988 0.128906
vt 0.675293 0.695068
vt 0.621582 0.758057
vt 0.642578 0.647217
vt 0.513184 0.684814
vt 0.528320 0.569092
vt 0.565918 0.660400
vt 0.526367 0.567383
vt 0.502441 0.492676
vt 0.570801 0.494629
vt 0.651855 0.637695
vt 0.625000 0.495605
vt 0.692871 0.464355
vt 0.524902 0.567139
vt 0.580078 0.497559
vt 0.578613 0.579590
vt 0.107971 0.658691
vt 0.124390 0.564697
vt 0.153076 0.652344
vt 0.186523 0.576660
vt 0.201050 0.506592
vt 0.254150 0.589355
vt 0.235718 0.603760
vt 0.162476 0.657715
vt 0.175171 0.571045
vt 0.173096 0.776611
vt 0.158569 0.656250
vt 0.211670 0.704102
vt 0.157227 0.655762
vt 0.123047 0.565918
vt 0.182373 0.573242
vt 0.561523 0.791138
vt 0.608398 0.764526
vt 0.617676 0.866211
vt 0.242310 0.595947
vt 0.204224 0.504150
vt 0.265137 0.468262
vt 0.614258 0.757935
vt 0.569336 0.661377
vt 0.630371 0.637451
vt 0.516602 0.687744
vt 0.573730 0.667969
vt 0.549316 0.784668
vt 0.525391 0.569580
vt 0.505859 0.686523
vt 0.500000 0.469238
vt 0.511719 0.468750
vt 0.503418 0.686768
vt 0.455811 0.638916
vt 0.543945 0.770020
vt 0.500488 0.782227
vt 0.506836 0.696777
vt 0.615723 0.750488
vt 0.678223 0.695557
vt 0.674805 0.784424
vt 0.580566 0.578369
vt 0.575684 0.495117
vt 0.636719 0.493164
vt 0.084106 0.470215
vt 0.125000 0.558838
vt 0.057495 0.597412
vt 0.087891 0.655273
vt 0.053497 0.592773
vt 0.129272 0.565186
vt 0.222412 0.686768
vt 0.239136 0.597656
vt 0.266602 0.657227
vt 0.079407 0.815308
vt 0.116028 0.730225
vt 0.131592 0.786499
vt 0.163940 0.430664
vt 0.200806 0.501221
vt 0.130615 0.559082
vt 0.210815 0.512451
vt 0.180176 0.575684
vt 0.134766 0.544678
vt 0.121216 0.739746
vt 0.154663 0.656982
vt 0.186401 0.771973
vt1 0.543457 1.012321
vt1 0.685059 0.937500
vt1 0.577637 0.777588
vt1 0.712402 0.592285
vt1 0.539551 0.469238
vt1 0.586426 0.705811
vt1 0.393799 0.808472
vt1 0.503906 1.014877
vt1 0.584961 0.757568
vt1 0.875488 0.824707
vt1 1.042969 0.733643
vt1 0.905273 0.630615
vt1 0.878418 0.823242
vt1 0.851074 0.627930
vt1 0.733887 0.630371
vt1 0.756836 0.014160
vt1 0.813477 0.375488
vt1 0.903320 0.114258
vt1 0.349365 0.803589
vt1 0.514160 0.949097
vt1 0.348145 1.041870
vt1 0.241211 0.855469
vt1 0.246094 0.544434
vt1 0.355957 0.782227
vt1 0.239502 0.545654
vt1 0.276367 0.346680
vt1 0.414551 0.495117
vt1 0.152344 0.323242
vt1 0.261963 0.357422
vt1 0.241577 0.549805
vt1 0.409668 0.478516
vt1 0.293457 0.349121
vt1 0.406250 0.145996
vt1 0.634766 0.028320
vt1 0.727051 0.111328
vt1 0.625977 0.154785
vt1 0.501953 0.631104
vt1 0.371826 0.784302
vt1 0.421875 0.515381
vt1 0.107727 0.606445
vt1 0.144897 0.325684
vt1 0.236450 0.546875
vt1 0.140015 0.321289
vt1 0.082275 0.139648
vt1 0.248047 0.145020
vt1 0.445312 0.492188
vt1 0.379150 0.146973
vt1 0.544922 0.070312
vt1 0.136475 0.320801
vt1 0.270996 0.151855
vt1 0.266357 0.351074
vt1 0.864258 0.626953
vt1 0.820801 0.378906
vt1 0.744629 0.610107
vt1 0.656738 0.410156
vt1 0.618652 0.225098
vt1 0.478271 0.443848
vt1 0.526855 0.481934
vt1 0.720215 0.623779
vt1 0.686523 0.395996
vt1 0.692383 0.937805
vt1 0.730469 0.620361
vt1 0.590332 0.746338
vt1 0.733887 0.618896
vt1 0.824219 0.381836
vt1 0.667480 0.400879
vt1 0.225830 0.864868
vt1 0.339111 0.800049
vt1 0.361572 1.047119
vt1 0.509277 0.461426
vt1 0.609863 0.219238
vt1 0.449219 0.124512
vt1 0.354248 0.784180
vt1 0.244507 0.549561
vt1 0.392578 0.491699
vt1 0.116028 0.613281
vt1 0.255127 0.565674
vt1 0.195801 0.848999
vt1 0.137573 0.326660
vt1 0.090515 0.610596
vt1 0.076660 0.082520
vt1 0.105164 0.081055
vt1 0.084351 0.610840
vt1 -0.031128 0.495117
vt1 0.182495 0.813477
vt1 0.077515 0.843140
vt1 0.092712 0.635742
vt1 0.357178 0.766113
vt1 0.509277 0.632324
vt1 0.500488 0.848389
vt1 0.271973 0.348145
vt1 0.260254 0.145508
vt1 0.407715 0.140625
vt1 0.927246 0.129883
vt1 0.818848 0.363770
vt1 0.997559 0.465332
vt1 0.916992 0.617432
vt1 1.007812 0.452637
vt1 0.808105 0.380371
vt1 0.562012 0.700439
vt1 0.517578 0.465820
vt1 0.445557 0.623047
vt1 0.939453 1.039795
vt1 0.842773 0.815186
vt1 0.801758 0.963928
vt1 0.716309 0.025391
vt1 0.619141 0.211426
vt1 0.804199 0.364258
vt1 0.592285 0.241211
vt1 0.673340 0.407715
vt1 0.793457 0.326172
vt1 0.829102 0.840576
vt1 0.740723 0.622070
vt1 0.656738 0.925537
vn -0.811024 0.440945 0.377953
vn 0.582677 -0.007874 0.811023
vn -0.370079 -0.267716 0.889764
vn 0.503937 -0.055118 0.858268
vn -0.826772 0.055118 0.559055
vn -0.062992 -0.015748 1.000000
vn -0.748031 -0.204724 -0.637795
vn -0.858268 0.275591 0.425197
vn -0.937008 -0.212598 -0.267716
vn 0.330709 -0.031496 -0.944882
vn -0.724409 0.023622 -0.685039
vn -0.031496 0.023622 -1.000000
vn 0.929134 -0.110236 0.346457
vn 0.937008 0.086614 -0.338583
vn 0.866142 0.228346 -0.448819
vn 0.850394 0.141732 -0.511811
vn 0.992126 -0.023622 -0.086614
vn 0.984252 -0.023622 -0.165354
vn -0.456693 0.165354 0.874016
vn -0.818898 -0.031496 -0.574803
vn -0.984252 -0.047244 0.188976
vn 0.740157 0.023622 0.677165
vn -0.102362 0.047244 0.992126
vn 0.023622 -0.007874 1.000000
vn 0.496063 0.023622 0.866142
vn -0.086614 0.078740 0.992126
vn -0.425197 -0.039370 0.905512
vn 0.905512 0.031496 -0.425197
vn 0.448819 -0.094488 0.889764
vn 0.992126 0.062992 0.086614
vn -0.913386 0.039370 0.409449
vn 0.125984 -0.007874 0.992126
vn -0.866142 0.062992 0.496063
vn 0.023622 -0.992126 -0.118110
vn -0.370079 -0.858268 0.362205
vn 0.157480 -0.716535 0.677165
vn -0.755906 0.055118 -0.653543
vn -0.968504 -0.055118 0.251968
vn -0.968504 0.070866 0.220472
vn 0.535433 -0.000000 -0.842520
vn 1.000000 -0.000000 -0.015748
vn 0.921260 0.031496 0.385827
vn 0.952756 -0.141732 -0.259842
vn 0.976378 0.086614 0.196850
vn 0.937008 0.062992 0.354331
vn -0.992126 0.015748 -0.149606
vn -0.897638 0.039370 0.448819
vn -0.314961 0.015748 -0.952756
vn 0.944882 -0.086614 -0.307087
vn 0.905512 0.000000 0.425197
vn 0.755906 -0.118110 0.637795
vn 0.393701 -0.102362 -0.913386
vn 0.763780 0.157480 0.629921
vn 0.929134 -0.157480 -0.330709
vn -0.708661 -0.007874 0.708661
vn -0.992126 0.047244 -0.078740
vn -0.913386 -0.023622 -0.409449
vn -0.818898 0.102362 0.566929
vn 0.574803 -0.149606 0.803149
vn 0.559055 -0.062992 0.826772
vn 0.118110 -0.133858 0.984252
vn 0.196850 0.133858 0.968504
vn 0.125984 0.023622 0.992126
vn 0.992126 0.023622 -0.133858
vn 1.000000 -0.000000 -0.007874
vn 0.976378 0.062992 0.220472
vn 0.322835 -0.110236 0.944882
vn -0.188976 0.007874 0.984252
vn -0.165354 0.070866 0.984252
vn -0.984252 0.039370 0.165354
vn -0.992126 0.007874 -0.110236
vn -0.992126 -0.070866 -0.078740
vn -0.094488 -0.062992 0.992126
vn 0.330709 0.031496 0.944882
vn -0.393701 0.251969 0.881890
vn 0.984252 -0.015748 -0.157480
vn 0.992126 -0.023622 0.125984
vn 0.992126 0.094488 0.086614
vn 0.031496 -0.015748 -1.000000
vn -0.007874 -0.007874 -1.000000
vn 0.007874 0.023622 -1.000000
vn -0.055118 0.031496 -1.000000
vn 0.015748 -0.015748 -1.000000
vn 0.078740 -0.007874 -1.000000
vn 0.362205 0.015748 -0.929134
vn 0.125984 0.023622 -0.992126
vn -0.015748 -0.039370 -1.000000
vn -0.921260 -0.055118 0.377953
vn -0.559055 0.078740 -0.826772
vn -0.937008 -0.094488 -0.346457
vn 0.070866 -0.015748 1.000000
vn 0.062992 -0.062992 0.992126
vn -0.236220 0.031496 0.968504
vn 0.157480 0.007874 -0.984252
vn 0.338583 -0.015748 -0.944882
vn -0.377953 0.007874 -0.929134
vn -0.212598 -0.007874 -0.976378
vn -0.511811 -0.039370 -0.858268
vn 0.535433 0.047244 -0.842520
vn -1.000000 -0.000000 -0.070866
vn -0.905512 0.000000 0.417323
vn -0.677165 0.007874 -0.732283
vn -0.181102 0.448819 -0.874016
vn 0.023622 -0.267717 -0.960630
vn 0.685039 0.314961 -0.661417
vn 0.472441 0.062992 0.874016
vn -0.196850 -0.007874 0.984252
vn 0.590551 0.000000 0.803149
vn -0.251969 -0.023622 0.968504
vn -0.055118 -0.031496 1.000000
vn 0.543307 -0.031496 0.842520
vn 0.960630 0.086614 0.267716
vn 0.456693 0.165354 0.874016
vn -0.062992 -0.149606 0.984252
tan 0.246513 -0.326678 0.910100 1.000000
tan -0.242668 -0.772707 0.166842 1.000000
tan -0.378325 -0.805692 -0.399777 1.000000
tan 0.027032 -0.858268 -0.070990 1.000000
tan -0.123256 -0.545849 -0.128464 1.000000
tan 0.007874 -1.000000 -0.015252 1.000000
tan 0.059272 -0.730361 0.164920 1.000000
tan -0.229896 -0.851510 0.087854 1.000000
tan 0.202058 -0.937008 0.036890 1.000000
tan -0.260401 -0.907682 -0.060884 1.000000
tan 0.469279 -0.501643 -0.513547 1.000000
tan 0.086614 -1.000000 -0.026350 1.000000
tan -0.102052 -0.929134 -0.021948 1.000000
tan 0.097278 -0.937008 0.029512 1.000000
tan 0.249550 -0.866142 0.040920 1.000000
tan 0.209126 -0.843698 0.113832 1.000000
tan -0.025668 -0.992126 -0.023436 1.000000
tan -0.028830 -0.984252 -0.031000 1.000000
tan -0.804080 -0.425569 -0.339637 1.000000
tan -0.248559 -0.747411 0.395065 1.000000
tan 0.080724 -0.967264 0.178622 1.000000
tan -0.170438 -0.661665 0.209374 1.000000
tan 0.000000 -0.992126 0.047244 1.000000
tan 0.000000 -1.000000 -0.007874 1.000000
tan -0.013640 -0.866142 0.031434 1.000000
tan -0.015624 -0.992126 0.077376 1.000000
tan -0.014260 -0.905512 -0.046066 1.000000
tan -0.128092 -0.848038 -0.335607 1.000000
tan -0.728315 -0.543245 0.309691 1.000000
tan 0.024614 -0.914006 0.382789 1.000000
tan -0.397607 -0.326865 -0.855540 1.000000
tan 0.242172 -0.960878 -0.038378 1.000000
tan -0.498109 -0.132618 -0.852874 1.000000
tan -0.992126 -0.014322 -0.078120 1.000000
tan -0.851510 0.312977 -0.128402 1.000000
tan -0.682063 -0.387501 -0.251410 1.000000
tan -0.065410 -0.797073 0.008432 1.000000
tan 0.053134 -0.968504 -0.007626 1.000000
tan -0.074338 -0.968504 -0.015252 1.000000
tan 0.371505 -0.507161 0.236096 1.000000
tan 0.000248 -1.000000 0.015748 1.000000
tan 0.037572 -0.921260 -0.014508 1.000000
tan -0.147870 -0.952756 -0.022506 1.000000
tan 0.081964 -0.976378 0.023064 1.000000
tan 0.046252 -0.937008 0.044268 1.000000
tan -0.005146 -0.990948 -0.070184 1.000000
tan -0.042904 -0.887036 -0.007998 1.000000
tan -0.146010 -0.984686 0.031992 1.000000
tan -0.096286 -0.944882 -0.029760 1.000000
tan -0.013392 -0.905512 0.028520 1.000000
tan -0.280117 -0.732097 0.196416 1.000000
tan -0.651311 -0.662781 -0.206460 1.000000
tan -0.159960 -0.751875 0.381921 1.000000
tan -0.259533 -0.886230 -0.307148 1.000000
tan -0.249365 -0.664021 -0.256742 1.000000
tan -0.047244 -0.992126 0.000000 1.000000
tan 0.023622 -0.913386 0.000000 1.000000
tan -0.148924 -0.561969 -0.113646 1.000000
tan -0.012648 -0.803149 -0.140554 1.000000
tan 0.013020 -0.826772 -0.071796 1.000000
tan 0.000000 -0.984252 -0.133858 1.000000
tan 0.015252 -0.968504 0.130758 1.000000
tan 0.007812 -0.992126 0.022630 1.000000
tan 0.024676 -0.992126 0.007812 1.000000
tan 0.000000 -1.000000 0.000000 1.000000
tan 0.062992 -0.976378 0.000000 1.000000
tan -0.052080 -0.944882 -0.092442 1.000000
tan -0.054250 -0.984252 -0.002542 1.000000
tan -0.062000 -0.984252 0.060450 1.000000
tan -0.048484 -0.984252 -0.054250 1.000000
tan -0.002666 -0.992126 -0.046872 1.000000
tan 0.074586 -0.992126 -0.046872 1.000000
tan -0.023436 -0.992126 -0.065224 1.000000
tan -0.059520 -0.944882 0.052328 1.000000
tan -0.013888 -0.881890 0.245769 1.000000
tan -0.012028 -0.984252 0.023250 1.000000
tan -0.025606 -0.992126 0.015624 1.000000
tan 0.092442 -0.992126 0.023436 1.000000
tan -0.015748 -1.000000 0.015252 1.000000
tan -0.015748 -1.000000 0.007998 1.000000
tan -0.007874 -1.000000 -0.023684 1.000000
tan 0.000000 -1.000000 -0.031496 1.000000
tan 0.000000 -1.000000 0.015748 1.000000
tan 0.000000 -1.000000 0.007874 1.000000
tan 0.036580 -0.929134 -0.001488 1.000000
tan 0.023436 -0.992126 -0.020646 1.000000
tan 0.023622 -1.000000 0.038998 1.000000
tan 0.046190 -0.924236 -0.022196 1.000000
tan -0.090520 -0.680451 -0.003596 1.000000
tan 0.220720 -0.860500 -0.362267 1.000000
tan -0.031496 -1.000000 -0.013516 1.000000
tan -0.031248 -0.992126 -0.061008 1.000000
tan -0.038130 -0.968504 0.022196 1.000000
tan -0.007750 -0.984252 -0.009114 1.000000
tan -0.007440 -0.944882 0.013082 1.000000
tan -0.007316 -0.929134 -0.004898 1.000000
tan 0.015376 -0.976378 0.004526 1.000000
tan 0.033790 -0.858268 0.019220 1.000000
tan -0.013268 -0.842520 -0.055676 1.000000
tan -0.000558 -1.000000 0.007874 1.000000
tan -0.006572 -0.905512 -0.014260 1.000000
tan -0.036704 -0.694463 0.026474 1.000000
tan -0.158286 -0.860252 -0.408953 1.000000
tan 0.317689 -0.907682 0.260773 1.000000
tan -0.393329 -0.536611 -0.662905 1.000000
tan -0.055056 -0.874016 0.092752 1.000000
tan 0.031000 -0.984252 -0.001674 1.000000
tan 0.063240 -0.803149 -0.046500 1.000000
tan -0.022878 -0.968504 -0.029574 1.000000
tan -0.007874 -1.000000 -0.031930 1.000000
tan 0.026536 -0.842520 -0.048608 1.000000
tan -0.195176 -0.472813 0.853308 1.000000
tan 0.039990 -0.870420 0.143778 1.000000
tan -0.023250 -0.984252 -0.151094 1.000000
f 3/3/3 2/2/2 1/1/1
f 6/6/6 5/5/5 4/4/4
f 9/9/9 8/8/8 7/7/7
f 12/12/12 11/11/11 10/10/10
f 15/15/15 14/14/14 13/13/13
f 18/18/18 17/17/17 16/16/16
f 21/21/21 20/20/20 19/19/19
f 24/24/24 23/23/23 22/22/22
f 27/27/27 26/26/26 25/25/25
f 30/30/30 29/29/29 28/28/28
f 33/33/33 32/32/32 31/31/31
f 36/36/36 35/35/35 34/34/34
f 39/39/39 38/38/38 37/37/37
f 42/42/42 41/41/41 40/40/40
f 45/45/45 44/44/44 43/43/43
f 48/48/48 47/47/47 46/46/46
f 51/51/51 50/50/50 49/49/49
f 54/54/54 53/53/53 52/52/52
f 57/57/57 56/56/56 55/55/55
f 60/60/60 59/59/59 58/58/58
f 63/63/63 62/62/62 61/61/61
f 66/66/66 65/65/65 64/64/64
f 69/69/69 68/68/68 67/67/67
f 72/72/72 71/71/71 70/70/70
f 75/75/75 74/74/74 73/73/73
f 78/78/78 77/77/77 76/76/76
f 81/81/81 80/80/80 79/79/79
f 84/84/84 83/83/83 82/82/82
f 87/87/87 86/86/86 85/85/85
f 90/90/90 89/89/89 88/88/88
f 93/93/93 92/92/92 91/91/91
f 96/96/96 95/95/95 94/94/94
f 99/99/99 98/98/98 97/97/97
f 102/102/102 101/101/101 100/100/100
f 105/105/105 104/104/104 103/103/103
f 108/108/108 107/107/107 106/106/106
f 111/111/111 110/110/110 109/109/109
f 114/114/114 113/113/113 112/112/112
