mtllib SM_BookOpen_01_LOD3.mtl
g SM_BookOpen_01_LOD3
#Vertices 58
#Indices 60
#Section 0 Offset 0 NumIndices 60 MaterialIndex 0 MI_Books
v 0.131488 0.025289 -0.157570
v -0.136677 0.037287 -0.005579
v -0.114675 0.025491 -0.165971
v -0.136677 0.037287 -0.005579
v 0.131488 0.025289 -0.157570
v 0.133903 0.030126 -0.006082
v 0.132682 0.021360 0.165903
v -0.136677 0.037287 -0.005579
v 0.133903 0.030126 -0.006082
v -0.136677 0.037287 -0.005579
v 0.132682 0.021360 0.165903
v -0.112285 0.018831 0.170313
v -0.186983 -0.037485 -0.233325
v 0.142160 -0.002855 -0.019420
v 0.161559 -0.005924 -0.220215
v 0.142160 -0.002855 -0.019420
v -0.186983 -0.037485 -0.233325
v -0.136988 0.030084 -0.020407
v 0.134977 0.006804 -0.033251
v -0.186983 -0.037485 -0.233325
v 0.161559 -0.005924 -0.220215
v -0.186983 -0.037485 -0.233325
v 0.134977 0.006804 -0.033251
v -0.136988 0.030084 -0.020407
v 0.161559 -0.005924 -0.220215
v 0.142160 -0.002855 -0.019420
v 0.134977 0.006804 -0.033251
v -0.185320 0.041049 0.233462
v 0.143829 0.009522 0.015898
v 0.166309 0.004021 0.223114
v 0.143829 0.009522 0.015898
v -0.185320 0.041049 0.233462
v -0.122031 -0.014404 0.022541
v 0.134822 0.000019 0.033936
v -0.185320 0.041049 0.233462
v 0.166309 0.004021 0.223114
v -0.185320 0.041049 0.233462
v 0.134822 0.000019 0.033936
v -0.122031 -0.014404 0.022541
v 0.134822 0.000019 0.033936
v 0.166309 0.004021 0.223114
v 0.143829 0.009522 0.015898
v 0.143829 0.009522 0.015898
v -0.122031 -0.014404 0.022541
v -0.136988 0.030084 -0.020407
v 0.142160 -0.002855 -0.019420
v -0.136988 0.030084 -0.020407
v 0.134977 0.006804 -0.033251
v 0.143829 0.009522 0.015898
v -0.136988 0.030084 -0.020407
v 0.142160 -0.002855 -0.019420
v 0.143829 0.009522 0.015898
v -0.122031 -0.014404 0.022541
v 0.134822 0.000019 0.033936
v 0.142160 -0.002855 -0.019420
v -0.122031 -0.014404 0.022541
v 0.143829 0.009522 0.015898
v -0.136988 0.030084 -0.020407
vt 0.475342 0.339844
vt 0.374023 0.159180
vt 0.480469 0.175781
vt 0.373779 0.159180
vt 0.475342 0.339844
vt 0.375000 0.335938
vt 0.247925 0.338867
vt 0.360840 0.159180
vt 0.363037 0.337891
vt 0.360596 0.159180
vt 0.248047 0.338867
vt 0.244629 0.175293
vt 0.275391 0.394043
vt 0.136719 0.171387
vt 0.267090 0.158203
vt 0.136719 0.171387
vt 0.278809 0.391602
vt 0.136597 0.360840
vt 0.106628 0.000977
vt -0.025284 0.220215
vt -0.015617 -0.016602
vt -0.027252 0.219238
vt 0.106628 0.000977
vt 0.115601 0.186523
vt 0.144775 0.882507
vt 0.335205 0.884094
vt 0.322266 0.888367
vt 0.281982 0.219727
vt 0.139893 -0.004883
vt 0.275146 -0.020508
vt 0.139893 -0.004883
vt 0.285400 0.217285
vt 0.144897 0.176758
vt 0.100891 0.176270
vt -0.029404 0.392090
vt -0.021591 0.153809
vt -0.031128 0.391113
vt 0.100891 0.176270
vt 0.107849 0.350098
vt 0.386475 0.885071
vt 0.566895 0.891296
vt 0.369141 0.889465
vt 0.138794 -0.004883
vt 0.144165 0.176758
vt 0.111694 0.185059
vt 0.113342 -0.003906
vt 0.105530 0.186523
vt 0.106628 0.000977
vt 0.133789 -0.004883
vt 0.120422 0.187012
vt 0.114746 -0.002930
vt 0.111877 0.170410
vt 0.101624 0.350098
vt 0.100891 0.176270
vt 0.135620 0.170898
vt 0.113098 0.350098
vt 0.113098 0.170410
vt 0.140747 0.360352
vt1 0.997559 0.619385
vt1 0.791992 0.257324
vt1 1.008789 0.287109
vt1 0.791504 0.257324
vt1 0.997559 0.619385
vt1 0.793945 0.622559
vt1 0.536133 0.623779
vt1 0.764648 0.257812
vt1 0.768555 0.623047
vt1 0.764648 0.257812
vt1 0.536133 0.623779
vt1 0.526367 0.293457
vt1 0.581055 0.716309
vt1 0.292969 0.272461
vt1 0.563965 0.246582
vt1 0.292969 0.272461
vt1 0.588379 0.711426
vt1 0.292725 0.649414
vt1 0.231934 0.651611
vt1 -0.044983 1.085083
vt1 -0.024719 0.616211
vt1 -0.049133 1.082581
vt1 0.231934 0.651611
vt1 0.250488 1.018646
vt1 0.568359 0.048828
vt1 0.296143 0.043945
vt1 0.314941 0.030762
vt1 0.600098 1.083496
vt1 0.301758 0.639648
vt1 0.585938 0.608398
vt1 0.301758 0.639648
vt1 0.607422 1.078857
vt1 0.312256 0.998511
vt1 0.218384 0.281738
vt1 -0.053223 0.712402
vt1 -0.036957 0.238770
vt1 -0.056793 0.710205
vt1 0.218384 0.281738
vt1 0.232910 0.628662
vt1 0.223511 0.040527
vt1 -0.033356 0.022461
vt1 0.247925 0.027832
vt1 0.299316 0.639648
vt1 0.310547 0.998542
vt1 0.242432 1.016769
vt1 0.245850 0.642090
vt1 0.229614 1.018646
vt1 0.231934 0.651611
vt1 0.289062 0.638916
vt1 0.260742 1.019745
vt1 0.248779 0.641846
vt1 0.241333 0.270508
vt1 0.219849 0.628662
vt1 0.218384 0.281738
vt1 0.290283 0.271484
vt1 0.243774 0.628418
vt1 0.243896 0.270020
vt1 0.300781 0.648926
vn 0.007874 1.000000 -0.070866
vn 0.007874 1.000000 -0.047244
vn 0.007874 1.000000 -0.070866
vn 0.007874 1.000000 -0.047244
vn 0.007874 1.000000 -0.070866
vn 0.007874 1.000000 -0.047244
vn -0.007874 0.992126 0.118110
vn -0.007874 1.000000 0.086614
vn -0.007874 1.000000 0.086614
vn -0.007874 1.000000 0.086614
vn -0.007874 0.992126 0.118110
vn -0.007874 0.992126 0.118110
vn 0.000000 -1.000000 -0.015748
vn 0.000000 -1.000000 0.031496
vn 0.000000 -1.000000 -0.015748
vn 0.000000 -1.000000 0.031496
vn 0.000000 -1.000000 -0.023622
vn 0.000000 -1.000000 0.031496
vn 0.000000 1.000000 -0.031496
vn 0.000000 1.000000 0.007874
vn 0.000000 1.000000 0.007874
vn 0.000000 1.000000 0.007874
vn 0.000000 1.000000 -0.031496
vn 0.000000 1.000000 -0.031496
vn 1.000000 0.000000 0.007874
vn 1.000000 0.000000 0.007874
vn 1.000000 0.000000 0.007874
vn 0.000000 1.000000 -0.023622
vn 0.000000 1.000000 0.007874
vn 0.000000 1.000000 -0.023622
vn 0.000000 1.000000 0.007874
vn 0.000000 1.000000 -0.023622
vn 0.000000 1.000000 0.007874
vn 0.000000 -1.000000 -0.007874
vn 0.000000 -1.000000 0.023622
vn 0.000000 -1.000000 0.023622
vn 0.000000 -1.000000 0.023622
vn 0.000000 -1.000000 -0.007874
vn 0.000000 -1.000000 -0.007874
vn 1.000000 0.000000 0.000000
vn 1.000000 0.000000 0.000000
vn 1.000000 0.000000 0.000000
vn 0.000000 0.984252 0.188976
vn 0.000000 0.968504 0.259842
vn 0.000000 0.992126 -0.149606
vn 0.000000 0.992126 -0.149606
vn 0.000000 1.000000 -0.015748
vn 0.000000 1.000000 -0.031496
vn 0.000000 0.984252 0.188976
vn 0.000000 0.984252 -0.165354
vn 0.000000 0.952756 -0.307087
vn 0.000000 -0.976378 -0.220472
vn 0.000000 -1.000000 -0.023622
vn 0.000000 -1.000000 -0.007874
vn 0.000000 -1.000000 0.086614
vn 0.000000 -0.976378 -0.204724
vn 0.000000 -0.976378 -0.204724
vn 0.000000 -0.992126 0.149606
tan -1.000000 0.008990 0.015748 1.000000
tan -1.000000 0.008618 0.015748 1.000000
tan -1.000000 0.008990 0.015748 1.000000
tan -1.000000 0.010478 0.055118 1.000000
tan -1.000000 0.011780 0.055118 1.000000
tan -1.000000 0.010478 0.055118 1.000000
tan -0.992126 -0.006014 -0.015624 1.000000
tan -1.000000 -0.006510 -0.015748 1.000000
tan -1.000000 -0.006510 -0.015748 1.000000
tan -1.000000 -0.007874 0.000000 1.000000
tan -0.992126 -0.007874 0.000000 1.000000
tan -0.992126 -0.007874 0.000000 1.000000
tan 1.000000 0.000000 0.000000 1.000000
tan 1.000000 0.000000 0.000000 1.000000
tan 1.000000 0.000000 0.000000 1.000000
tan 1.000000 0.000000 0.000000 1.000000
tan 1.000000 0.000000 0.000000 1.000000
tan 1.000000 0.000000 0.000000 1.000000
tan 1.000000 0.000248 0.007874 1.000000
tan 1.000000 -0.000062 0.007874 1.000000
tan 1.000000 -0.000062 0.007874 1.000000
tan 1.000000 0.000000 0.000000 1.000000
tan 1.000000 0.000000 0.000000 1.000000
tan 1.000000 0.000000 0.000000 1.000000
tan -0.000062 -1.000000 0.007874 1.000000
tan -0.000062 -1.000000 0.007874 1.000000
tan -0.000062 -1.000000 0.007874 1.000000
tan 1.000000 0.000000 0.000000 1.000000
tan 1.000000 0.000000 0.000000 1.000000
tan 1.000000 0.000000 0.000000 1.000000
tan 1.000000 0.000000 0.000000 1.000000
tan 1.000000 0.000000 0.000000 1.000000
tan 1.000000 0.000000 0.000000 1.000000
tan 1.000000 -0.000062 0.007874 1.000000
tan 1.000000 0.000186 0.007874 1.000000
tan 1.000000 0.000186 0.007874 1.000000
tan 1.000000 0.000000 0.000000 1.000000
tan 1.000000 0.000000 0.000000 1.000000
tan 1.000000 0.000000 0.000000 1.000000
tan 0.000000 -1.000000 0.007874 1.000000
tan 0.000000 -1.000000 0.007874 1.000000
tan 0.000000 -1.000000 0.007874 1.000000
tan 0.984252 0.002976 -0.015500 1.000000
tan 0.968504 0.004092 -0.015252 1.000000
tan 0.992126 -0.001178 -0.007812 1.000000
tan 0.992126 -0.005890 -0.039060 1.000000
tan 1.000000 -0.000620 -0.039370 1.000000
tan 1.000000 -0.001240 -0.039370 1.000000
tan 0.984252 -0.002976 0.015500 1.000000
tan 0.984252 0.003906 0.023250 1.000000
tan 0.952756 0.007254 0.022506 1.000000
tan 0.976378 0.000000 0.000000 1.000000
tan 1.000000 0.000000 0.000000 1.000000
tan 1.000000 0.000000 0.000000 1.000000
tan 1.000000 -0.000682 -0.007874 1.000000
tan 0.976378 0.003224 -0.015376 1.000000
tan 0.976378 0.003224 -0.015376 1.000000
tan 0.992126 -0.001178 -0.007812 1.000000
f 3/3/3 2/2/2 1/1/1
f 6/6/6 5/5/5 4/4/4
f 9/9/9 8/8/8 7/7/7
f 12/12/12 11/11/11 10/10/10
f 15/15/15 14/14/14 13/13/13
f 18/18/18 17/17/17 16/16/16
f 21/21/21 20/20/20 19/19/19
f 24/24/24 23/23/23 22/22/22
f 27/27/27 26/26/26 25/25/25
f 30/30/30 29/29/29 28/28/28
f 33/33/33 32/32/32 31/31/31
f 36/36/36 35/35/35 34/34/34
f 39/39/39 38/38/38 37/37/37
f 42/42/42 41/41/41 40/40/40
f 45/45/45 44/44/44 43/43/43
f 48/48/48 47/47/47 46/46/46
f 51/51/51 50/50/50 49/49/49
f 54/54/54 53/53/53 52/52/52
f 57/57/57 56/56/56 55/55/55
f 58/58/58 55/55/55 56/56/56
