mtllib SM_Beams_07_LOD4.mtl
g SM_Beams_07_LOD4
#Vertices 85
#Indices 282
#Section 0 Offset 0 NumIndices 282 MaterialIndex 0 MI_Beams
v 0.078295 0.001361 0.082724
v -0.053406 -0.002067 0.037736
v -0.051953 0.001502 0.084481
v 0.077417 0.000313 -0.050081
v -0.050806 0.001156 -0.060131
v -0.055249 0.001607 -0.047619
v 0.054882 0.963214 -0.055360
v 0.051629 0.646766 -0.058680
v 0.066282 0.437820 -0.059532
v 0.057526 0.966170 -0.051441
v 0.077032 0.062566 -0.057126
v 0.060512 0.090206 -0.057212
v 0.081372 0.028532 -0.042961
v 0.077417 0.000313 -0.050081
v 0.085759 0.011357 0.048202
v 0.055265 0.952417 0.008807
v 0.053712 0.967121 0.072228
v 0.078295 0.001361 0.082724
v 0.082645 0.021592 0.080097
v 0.052872 0.954872 0.084403
v 0.047338 0.820281 0.088781
v 0.049132 0.956686 0.085606
v -0.030573 0.950565 0.088436
v -0.072220 0.971337 0.090751
v -0.050900 0.166354 0.086103
v -0.051953 0.001502 0.084481
v -0.075789 0.866564 0.082574
v -0.074328 0.967270 0.086945
v -0.076775 0.951992 0.020735
v -0.078119 0.978070 -0.038176
v -0.058055 0.097606 0.070260
v -0.053406 -0.002067 0.037736
v -0.055249 0.001607 -0.047619
v -0.061847 0.397856 -0.046853
v -0.050806 0.001156 -0.060131
v -0.064565 0.609157 -0.059808
v -0.074088 0.978889 -0.057460
v 0.077032 0.062566 -0.057126
v 0.077417 0.000313 -0.050081
v 0.060512 0.090206 -0.057212
v -0.052563 0.466339 -0.062306
v 0.054882 0.963214 -0.055360
v 0.066282 0.437820 -0.059532
v 0.051629 0.646766 -0.058680
v 0.059848 1.334596 -0.059760
v -0.072105 1.328194 -0.061570
v 0.054882 0.963214 -0.055360
v -0.074088 0.978889 -0.057460
v -0.079757 1.159039 -0.049666
v -0.085337 1.324484 -0.047764
v -0.078119 0.978070 -0.038176
v -0.067319 1.177366 -0.019807
v -0.060872 1.331078 -0.014872
v -0.079879 1.139500 -0.002107
v -0.076775 0.951992 0.020735
v -0.068900 1.204178 -0.004893
v -0.083164 1.332179 0.036531
v -0.081161 1.192359 0.083056
v -0.074328 0.967270 0.086945
v -0.072220 0.971337 0.090751
v -0.077338 1.220865 0.090018
v -0.077008 1.335683 0.060248
v -0.029231 1.336914 0.085992
v 0.030555 1.341622 0.087643
v 0.049132 0.956686 0.085606
v -0.030573 0.950565 0.088436
v 0.061131 1.344608 0.077765
v 0.052872 0.954872 0.084403
v 0.053712 0.967121 0.072228
v 0.063254 1.330244 0.026731
v 0.055265 0.952417 0.008807
v 0.062750 1.334752 -0.046584
v 0.057526 0.966170 -0.051441
v 0.054882 0.963214 -0.055360
v 0.059848 1.334596 -0.059760
v -0.029231 1.336914 0.085992
v -0.077008 1.335683 0.060248
v 0.030555 1.341622 0.087643
v 0.061131 1.344608 0.077765
v 0.062750 1.334752 -0.046584
v -0.083164 1.332179 0.036531
v -0.060872 1.331078 -0.014872
v -0.072105 1.328194 -0.061570
v -0.085337 1.324484 -0.047764
v 0.059848 1.334596 -0.059760
vt 0.285156 0.524170
vt 0.257080 0.539307
vt 0.257324 0.523438
vt 0.284668 0.569336
vt 0.257324 0.572754
vt 0.256348 0.568359
vt 0.994141 0.198242
vt 0.997070 0.274414
vt 0.996582 0.324707
vt 0.993164 0.197266
vt 0.996094 0.415527
vt 0.999023 0.408691
vt 0.991699 0.423828
vt 0.993164 0.431152
vt 0.963867 0.428223
vt 0.975098 0.200684
vt 0.955566 0.197266
vt 0.952637 0.430664
vt 0.954102 0.425293
vt 0.951660 0.200195
vt 0.950195 0.232422
vt 0.950684 0.199707
vt 0.935547 0.200684
vt 0.927734 0.195801
vt 0.928711 0.390137
vt 0.927734 0.429688
vt 0.925293 0.220703
vt 0.926758 0.196777
vt 0.906738 0.200195
vt 0.888184 0.193848
vt 0.923340 0.406738
vt 0.914062 0.430664
vt 0.887695 0.430176
vt 0.887207 0.334473
vt 0.883789 0.430176
vt 0.882324 0.283203
vt 0.882812 0.193848
vt 0.859375 0.416504
vt 0.859375 0.431641
vt 0.861816 0.409668
vt 0.881836 0.317871
vt 0.857910 0.198242
vt 0.859863 0.325684
vt 0.859863 0.274902
vt 0.299316 0.896851
vt 0.324463 0.897278
vt 0.304199 0.987022
vt 0.328369 0.981827
vt 0.329834 0.938080
vt 0.330566 0.898132
vt 0.333496 0.982040
vt 0.339355 0.933472
vt 0.342041 0.896484
vt 0.344727 0.942902
vt 0.351318 0.988380
vt 0.344727 0.927002
vt 0.359131 0.896667
vt 0.370605 0.931030
vt 0.371826 0.985008
vt 0.372803 0.983994
vt 0.373291 0.924683
vt 0.367676 0.896423
vt 0.380371 0.896545
vt 0.392822 0.895447
vt 0.395508 0.988159
vt 0.380127 0.989281
vt 0.399170 0.894653
vt 0.396484 0.988640
vt 0.400146 0.985748
vt 0.414551 0.897888
vt 0.419678 0.989403
vt 0.436523 0.896667
vt 0.437988 0.986107
vt 0.439453 0.986900
vt 0.440430 0.896606
vt 0.290039 0.521729
vt 0.279785 0.512939
vt 0.302734 0.522217
vt 0.309082 0.518799
vt 0.309570 0.476562
vt 0.278809 0.505371
vt 0.283203 0.487305
vt 0.281250 0.471191
vt 0.278320 0.476074
vt 0.309326 0.472168
vt1 0.899902 0.256836
vt1 0.769043 0.300781
vt1 0.770996 0.254883
vt1 0.897949 0.388672
vt1 0.770996 0.398438
vt1 0.765625 0.385742
vt1 0.546387 0.027344
vt1 0.557617 0.341309
vt1 0.555664 0.548096
vt1 0.541504 0.023926
vt1 0.553223 0.921143
vt1 0.564941 0.893066
vt1 0.536621 0.955078
vt1 0.542969 0.983627
vt1 0.425293 0.971954
vt1 0.470215 0.038086
vt1 0.392334 0.023926
vt1 0.380859 0.981628
vt1 0.387207 0.961273
vt1 0.378174 0.036133
vt1 0.371094 0.168945
vt1 0.373779 0.034180
vt1 0.312988 0.038574
vt1 0.282959 0.017578
vt1 0.285889 0.815186
vt1 0.283447 0.978424
vt1 0.272461 0.120605
vt1 0.279297 0.021484
vt1 0.198608 0.036133
vt1 0.126099 0.010742
vt1 0.265137 0.883606
vt1 0.227905 0.983261
vt1 0.123901 0.980408
vt1 0.120605 0.587158
vt1 0.107788 0.981171
vt1 0.102783 0.376953
vt1 0.103149 0.010254
vt1 0.010284 0.925110
vt1 0.011574 0.986954
vt1 0.020599 0.896301
vt1 0.099915 0.519531
vt1 0.005234 0.028320
vt1 0.012360 0.551025
vt1 0.013374 0.343750
vt1 0.969238 0.419922
vt1 0.967285 0.521484
vt1 0.598633 0.439941
vt1 0.620117 0.537109
vt1 0.799805 0.542969
vt1 0.964355 0.546143
vt1 0.619141 0.557861
vt1 0.818848 0.581787
vt1 0.970703 0.592529
vt1 0.779785 0.602539
vt1 0.592773 0.629639
vt1 0.845215 0.603027
vt1 0.969727 0.661133
vt1 0.829102 0.706543
vt1 0.606934 0.711426
vt1 0.610840 0.716064
vt1 0.854980 0.717285
vt1 0.971191 0.695312
vt1 0.970703 0.746094
vt1 0.975098 0.796021
vt1 0.593750 0.806763
vt1 0.589355 0.745605
vt1 0.978516 0.821533
vt1 0.591797 0.810913
vt1 0.604004 0.826050
vt1 0.964844 0.882996
vt1 0.588867 0.904541
vt1 0.969727 0.972260
vt1 0.602051 0.978043
vt1 0.599121 0.983154
vt1 0.970215 0.987267
vt1 0.589355 0.320801
vt1 0.615234 0.273438
vt1 0.587891 0.379883
vt1 0.597168 0.409668
vt1 0.721680 0.412109
vt1 0.637207 0.268066
vt1 0.690430 0.289551
vt1 0.737305 0.279785
vt1 0.723633 0.265625
vt1 0.734375 0.410156
vn 0.409449 -0.905512 0.086614
vn -0.377953 -0.897638 0.228347
vn -0.393701 -0.700787 0.598425
vn 0.244094 -0.944882 -0.228346
vn -0.236220 -0.716535 -0.661417
vn -0.905512 -0.409449 -0.094488
vn 0.653543 -0.000000 -0.755905
vn 0.125984 0.007874 -0.992126
vn 0.220472 -0.000000 -0.976378
vn 1.000000 0.039370 -0.070866
vn 0.275591 0.015748 -0.960630
vn -0.015748 -0.000000 -1.000000
vn 0.976378 0.023622 -0.212598
vn 0.527559 -0.748031 -0.409449
vn 1.000000 -0.007874 0.015748
vn 1.000000 0.015748 -0.015748
vn 0.992126 0.047244 0.133858
vn 0.149606 -0.055118 0.984252
vn 0.921260 -0.023622 0.385827
vn 0.771654 0.039370 0.637795
vn 0.110236 0.000000 0.992126
vn 0.110236 0.023622 0.992126
vn 0.000000 0.007874 1.000000
vn -0.078740 0.007874 1.000000
vn -0.094488 -0.007874 0.992126
vn -0.425197 -0.157480 0.889764
vn -0.992126 -0.015748 0.125984
vn -0.929134 -0.015748 0.370079
vn -1.000000 -0.031496 -0.023622
vn -1.000000 -0.023622 -0.055118
vn -0.992126 -0.023622 0.125984
vn -0.858268 -0.519685 -0.031496
vn -0.992126 -0.102362 -0.070866
vn -0.984252 -0.007874 -0.188976
vn -0.125984 -0.055118 -0.992126
vn -0.905512 -0.047244 -0.425197
vn -0.165354 0.015748 -0.984252
vn 0.165354 0.007874 -0.984252
vn 0.338583 -0.417323 -0.842520
vn 0.047244 -0.000000 -1.000000
vn -0.125984 -0.000000 -0.992126
vn 0.118110 0.015748 -0.992126
vn 0.110236 -0.000000 -0.992126
vn 0.118110 0.007874 -0.992126
vn 0.118110 0.078740 -0.992126
vn -0.149606 0.062992 -0.984252
vn 0.118110 -0.015748 -0.992126
vn -0.196850 -0.023622 -0.984252
vn -0.952756 -0.062992 -0.283465
vn -0.976378 0.165354 0.133858
vn -0.992126 0.007874 -0.094488
vn -0.645669 0.055118 0.763779
vn -0.960630 0.102362 0.244094
vn -1.000000 -0.007874 -0.047244
vn -1.000000 -0.047244 -0.015748
vn -0.700787 -0.015748 -0.708661
vn -0.929134 0.228346 -0.283465
vn -0.992126 -0.023622 0.094488
vn -0.834646 -0.023622 0.551181
vn -0.062992 -0.039370 1.000000
vn -0.322835 0.110236 0.937008
vn -0.755906 0.173228 0.637795
vn -0.149606 0.141732 0.976378
vn 0.086614 0.070866 0.992126
vn 0.102362 0.015748 0.992126
vn 0.023622 0.000000 1.000000
vn 0.795276 0.110236 0.598425
vn 0.669291 -0.023622 0.740157
vn 0.992126 0.000000 0.118110
vn 1.000000 0.007874 -0.047244
vn 1.000000 0.000000 0.023622
vn 0.992126 0.039370 -0.133858
vn 0.976378 -0.007874 -0.212598
vn 0.622047 -0.007874 -0.779527
vn 0.645669 -0.023622 -0.763779
vn -0.133858 0.724409 0.677165
vn -0.267717 0.960630 -0.039370
vn 0.000000 0.818898 0.574803
vn 0.244094 0.960630 0.102362
vn 0.102362 0.992126 -0.094488
vn -0.661417 0.637795 -0.393701
vn -0.228346 0.976378 -0.023622
vn -0.157480 0.811023 -0.566929
vn -0.692913 0.708661 0.094488
vn 0.094488 0.464567 -0.881890
tan 0.028520 0.099510 0.905512 1.000000
tan -0.008742 0.234299 0.906566 1.000000
tan -0.034720 0.623225 0.706987 1.000000
tan -0.014880 -0.232190 0.944882 1.000000
tan -0.010416 -0.661417 0.720255 1.000000
tan -0.032488 -0.136214 0.901606 1.000000
tan -0.220224 0.817162 -0.190402 1.000000
tan -0.046872 0.992126 0.001922 1.000000
tan -0.053816 0.974642 -0.012152 1.000000
tan -0.042160 1.000000 -0.039370 1.000000
tan -0.037820 0.960630 0.004898 1.000000
tan -0.023622 1.000000 0.000372 1.000000
tan -0.025296 0.976378 -0.007688 1.000000
tan 0.745924 0.590179 -0.117118 1.000000
tan 0.007874 1.000000 -0.000000 1.000000
tan -0.015748 1.000000 -0.000000 1.000000
tan -0.048298 0.992126 0.007812 1.000000
tan -0.015500 0.984252 0.057474 1.000000
tan 0.020584 0.918222 0.007068 1.000000
tan -0.311923 0.882758 0.322896 1.000000
tan -0.023436 0.992126 0.002604 1.000000
tan -0.023436 0.992126 -0.021018 1.000000
tan -0.015748 1.000000 -0.007874 1.000000
tan -0.015748 1.000000 -0.009114 1.000000
tan -0.023436 0.992126 0.005642 1.000000
tan 0.026350 0.913200 0.174220 1.000000
tan -0.015748 0.992126 -0.000000 1.000000
tan -0.024490 0.940790 -0.021452 1.000000
tan -0.031496 1.000000 -0.000000 1.000000
tan -0.024490 1.000000 0.015748 1.000000
tan -0.021638 0.992126 0.015624 1.000000
tan -0.519933 0.858764 -0.001426 1.000000
tan -0.102920 0.992126 0.007812 1.000000
tan -0.013826 0.984252 0.031000 1.000000
tan -0.046872 0.992126 -0.049166 1.000000
tan -0.074028 0.898816 0.057784 1.000000
tan -0.031000 0.984252 0.020956 1.000000
tan -0.046500 0.984252 0.000062 1.000000
tan -0.033232 0.847852 -0.433319 1.000000
tan -0.023622 1.000000 -0.001116 1.000000
tan -0.031248 0.992126 0.003968 1.000000
tan -0.015624 0.992126 0.013888 1.000000
tan -0.031248 0.992126 -0.003472 1.000000
tan -0.046872 0.992126 0.002294 1.000000
tan -0.031248 0.992126 0.075020 1.000000
tan -0.054250 0.984252 0.071238 1.000000
tan -0.062496 0.992126 -0.023188 1.000000
tan -0.038936 0.985802 -0.015872 1.000000
tan -0.089280 0.947486 0.089528 1.000000
tan 0.166408 0.975324 0.008990 1.000000
tan 0.007874 0.992126 -0.000000 1.000000
tan 0.295245 0.833034 0.189472 1.000000
tan 0.096596 0.964474 -0.024304 1.000000
tan -0.005642 1.000000 -0.047244 1.000000
tan -0.047120 1.000000 -0.007874 1.000000
tan 0.203236 0.829810 -0.219419 1.000000
tan 0.250666 0.929134 -0.073160 1.000000
tan -0.026598 0.992126 -0.031248 1.000000
tan -0.096658 0.916858 -0.107074 1.000000
tan -0.039370 1.000000 0.036890 1.000000
tan -0.036890 0.937008 -0.122946 1.000000
tan -0.246141 0.788641 -0.505921 1.000000
tan 0.000000 0.976378 -0.141732 1.000000
tan 0.000000 0.992126 -0.070866 1.000000
tan -0.023436 0.992126 -0.013330 1.000000
tan -0.023622 1.000000 0.000558 1.000000
tan -0.026660 0.888028 -0.128154 1.000000
tan -0.313225 0.823114 0.309505 1.000000
tan -0.001860 0.992126 0.015624 1.000000
tan -0.008246 1.000000 -0.007874 1.000000
tan -0.000186 1.000000 0.007874 1.000000
tan -0.042532 0.992126 -0.023436 1.000000
tan 0.017918 0.976378 0.046128 1.000000
tan 0.479695 0.681133 0.375907 1.000000
tan -0.105772 0.985926 -0.119908 1.000000
tan -0.010664 0.677165 -0.726517 1.000000
tan 0.000000 -0.039370 -0.960630 1.000000
tan 0.000000 0.574803 -0.818898 1.000000
tan -0.015128 0.106206 -0.960630 1.000000
tan 0.015624 -0.096100 -0.992126 1.000000
tan -0.331949 -0.719573 -0.608035 1.000000
tan -0.076880 -0.041602 -0.976378 1.000000
tan -0.006386 -0.568169 -0.811023 1.000000
tan -0.088908 0.036456 -0.925414 1.000000
tan -0.062496 -0.881890 -0.471263 1.000000
f 3/3/3 2/2/2 1/1/1
f 2/2/2 4/4/4 1/1/1
f 4/4/4 2/2/2 5/5/5
f 2/2/2 6/6/6 5/5/5
f 9/9/9 8/8/8 7/7/7
f 10/10/10 9/9/9 7/7/7
f 12/12/12 9/9/9 11/11/11
f 9/9/9 10/10/10 11/11/11
f 13/13/13 11/11/11 10/10/10
f 11/11/11 13/13/13 14/14/14
f 10/10/10 15/15/15 13/13/13
f 15/15/15 14/14/14 13/13/13
f 15/15/15 10/10/10 16/16/16
f 15/15/15 16/16/16 17/17/17
f 14/14/14 15/15/15 18/18/18
f 15/15/15 17/17/17 19/19/19
f 18/18/18 15/15/15 19/19/19
f 20/20/20 19/19/19 17/17/17
f 20/20/20 18/18/18 19/19/19
f 20/20/20 21/21/21 18/18/18
f 22/22/22 21/21/21 20/20/20
f 22/22/22 23/23/23 21/21/21
f 21/21/21 23/23/23 24/24/24
f 25/25/25 18/18/18 21/21/21
f 25/25/25 21/21/21 24/24/24
f 18/18/18 25/25/25 26/26/26
f 24/24/24 27/27/27 25/25/25
f 27/27/27 26/26/26 25/25/25
f 24/24/24 28/28/28 27/27/27
f 27/27/27 28/28/28 29/29/29
f 29/29/29 30/30/30 27/27/27
f 27/27/27 31/31/31 26/26/26
f 26/26/26 31/31/31 32/32/32
f 32/32/32 31/31/31 33/33/33
f 34/34/34 31/31/31 27/27/27
f 31/31/31 34/34/34 33/33/33
f 30/30/30 34/34/34 27/27/27
f 34/34/34 35/35/35 33/33/33
f 34/34/34 30/30/30 36/36/36
f 36/36/36 30/30/30 37/37/37
f 39/39/39 35/35/35 38/38/38
f 40/40/40 38/38/38 35/35/35
f 37/37/37 41/41/41 36/36/36
f 34/34/34 36/36/36 41/41/41
f 41/41/41 35/35/35 34/34/34
f 40/40/40 35/35/35 41/41/41
f 41/41/41 37/37/37 42/42/42
f 41/41/41 43/43/43 40/40/40
f 42/42/42 44/44/44 41/41/41
f 43/43/43 41/41/41 44/44/44
f 47/47/47 46/46/46 45/45/45
f 48/48/48 46/46/46 47/47/47
f 48/48/48 49/49/49 46/46/46
f 49/49/49 50/50/50 46/46/46
f 51/51/51 49/49/49 48/48/48
f 49/49/49 52/52/52 50/50/50
f 53/53/53 50/50/50 52/52/52
f 51/51/51 54/54/54 49/49/49
f 54/54/54 52/52/52 49/49/49
f 51/51/51 55/55/55 54/54/54
f 53/53/53 52/52/52 56/56/56
f 56/56/56 52/52/52 54/54/54
f 56/56/56 57/57/57 53/53/53
f 57/57/57 56/56/56 54/54/54
f 58/58/58 54/54/54 55/55/55
f 58/58/58 57/57/57 54/54/54
f 59/59/59 58/58/58 55/55/55
f 59/59/59 60/60/60 58/58/58
f 61/61/61 57/57/57 58/58/58
f 60/60/60 61/61/61 58/58/58
f 61/61/61 62/62/62 57/57/57
f 62/62/62 61/61/61 63/63/63
f 63/63/63 61/61/61 60/60/60
f 64/64/64 63/63/63 60/60/60
f 60/60/60 65/65/65 64/64/64
f 65/65/65 60/60/60 66/66/66
f 64/64/64 65/65/65 67/67/67
f 67/67/67 65/65/65 68/68/68
f 68/68/68 69/69/69 67/67/67
f 69/69/69 70/70/70 67/67/67
f 71/71/71 70/70/70 69/69/69
f 70/70/70 72/72/72 67/67/67
f 72/72/72 70/70/70 71/71/71
f 73/73/73 72/72/72 71/71/71
f 72/72/72 73/73/73 74/74/74
f 74/74/74 75/75/75 72/72/72
f 78/78/78 77/77/77 76/76/76
f 79/79/79 77/77/77 78/78/78
f 80/80/80 77/77/77 79/79/79
f 77/77/77 82/82/82 81/81/81
f 77/77/77 80/80/80 82/82/82
f 82/82/82 80/80/80 83/83/83
f 82/82/82 83/83/83 84/84/84
f 83/83/83 80/80/80 85/85/85
