mtllib SM_Book_04_LOD2.mtl
g SM_Book_04_LOD2
#Vertices 44
#Indices 54
#Section 0 Offset 0 NumIndices 54 MaterialIndex 0 MI_Books
v 0.135456 0.034154 -0.086326
v -0.114318 0.025005 -0.085167
v 0.136081 0.005571 -0.091739
v 0.136081 0.005571 -0.091739
v -0.114318 0.025005 -0.085167
v 0.135456 0.034154 -0.086326
v 0.136081 0.005571 -0.091739
v -0.114318 0.025005 -0.085167
v 0.135521 0.000996 -0.087610
v -0.120507 -0.000881 0.087610
v -0.114318 0.025005 -0.085167
v -0.121676 0.002756 0.089127
v 0.170041 -0.009299 0.121680
v 0.136081 0.005571 -0.091739
v 0.135521 0.000996 -0.087610
v -0.120603 0.036306 -0.088988
v -0.139638 0.063025 0.145851
v -0.114318 0.025005 -0.085167
v 0.135456 0.034154 -0.086326
v 0.165149 0.053015 0.119676
v 0.135278 0.038183 -0.087612
v -0.121676 0.002756 0.089127
v 0.170041 -0.009299 0.121680
v -0.120507 -0.000881 0.087610
v -0.120603 0.036306 -0.088988
v 0.135278 0.038183 -0.087612
v -0.139638 0.063025 0.145851
v 0.165149 0.053015 0.119676
v 0.135456 0.034154 -0.086326
v -0.114318 0.025005 -0.085167
v -0.139638 0.063025 0.145851
v 0.165149 0.053015 0.119676
v 0.135456 0.034154 -0.086326
v -0.120603 0.036306 -0.088988
v -0.114318 0.025005 -0.085167
v 0.135278 0.038183 -0.087612
v 0.135521 0.000996 -0.087610
v -0.120507 -0.000881 0.087610
v 0.170041 -0.009299 0.121680
v -0.114318 0.025005 -0.085167
v 0.136081 0.005571 -0.091739
v -0.121676 0.002756 0.089127
v -0.114318 0.025005 -0.085167
v 0.170041 -0.009299 0.121680
vt 0.949219 0.160156
vt 0.949707 0.310059
vt 0.934570 0.159668
vt 0.939453 0.931824
vt 0.770508 0.916626
vt 0.938965 0.916626
vt 0.991699 0.355957
vt 0.997070 0.538330
vt 0.988770 0.355957
vt 0.478271 0.327637
vt 0.602539 0.337891
vt 0.478271 0.330078
vt 0.427979 0.976089
vt 0.580078 0.974136
vt 0.577637 0.976410
vt 0.478271 0.332520
vt 0.646484 0.319336
vt 0.481201 0.337891
vt 0.479736 0.298828
vt 0.628418 0.304199
vt 0.478271 0.301270
vt 0.454346 0.878479
vt 0.455322 0.705811
vt 0.457275 0.878479
vt 0.689453 0.544189
vt 0.689453 0.387695
vt 0.856445 0.555176
vt 0.836426 0.369629
vt 0.616211 0.448242
vt 0.443604 0.446777
vt 0.427246 0.301758
vt 0.636719 0.320312
vt 0.932129 0.659424
vt 0.933594 0.850586
vt 0.929688 0.845825
vt 0.933594 0.659424
vt 0.877930 0.228027
vt 0.753418 0.383789
vt 0.730469 0.206543
vt 0.875000 0.379883
vt 0.628418 -0.001953
vt 0.450439 0.111816
vt 0.455566 0.002930
vt 0.651855 0.130859
vt1 0.444336 0.204102
vt1 0.019363 0.205078
vt1 0.446533 0.170410
vt1 0.641113 0.667725
vt1 0.681152 0.240723
vt1 0.681152 0.666260
vt1 0.888672 0.231445
vt1 0.905273 0.650146
vt1 0.878906 0.232422
vt1 0.685059 0.146484
vt1 0.986816 0.176270
vt1 0.685059 0.153320
vt1 0.944336 0.166992
vt1 0.950684 0.530518
vt1 0.943359 0.524414
vt1 0.982422 0.366211
vt1 1.020508 0.774414
vt1 0.966309 0.373047
vt1 0.981934 0.691895
vt1 0.966309 1.043823
vt1 0.975586 0.688477
vt1 0.008064 0.065430
vt1 0.508301 0.067871
vt1 0.008064 0.072754
vt1 0.475586 0.690186
vt1 0.912598 0.690186
vt1 0.444580 1.093079
vt1 0.963867 1.044098
vt1 0.447266 0.988625
vt1 0.020569 0.984444
vt1 -0.019775 0.586426
vt1 0.498535 0.636963
vt1 0.919922 0.232422
vt1 0.923828 0.669434
vt1 0.913086 0.658691
vt1 0.923828 0.232422
vt1 0.632324 0.232422
vt1 0.330566 0.669434
vt1 0.274902 0.173340
vt1 0.625488 0.658936
vt1 0.319336 0.667725
vt1 0.008064 0.227539
vt1 0.305908 0.240723
vt1 -0.044983 0.726074
vn 0.000000 0.102362 -0.992126
vn 0.000000 0.110236 -0.992126
vn 0.000000 -0.125984 -0.992126
vn 0.000000 0.220473 0.976378
vn 0.000000 -0.141732 0.992126
vn 0.000000 -0.141732 0.992126
vn 0.007874 -0.692913 -0.724409
vn 0.007874 -0.118110 -0.992126
vn 0.007874 -0.968504 -0.259842
vn -0.944882 -0.322835 0.000000
vn -0.944882 -0.322835 0.000000
vn -0.944882 -0.322835 0.000000
vn 0.905512 -0.417323 0.062992
vn 0.889764 -0.417323 -0.173228
vn 0.905512 -0.417323 -0.094488
vn -0.944882 0.314961 -0.070866
vn -0.937008 0.299213 0.173228
vn -0.937008 0.314961 -0.157480
vn 0.889764 0.433071 -0.157480
vn 0.905512 0.417323 0.102362
vn 0.897638 0.433071 -0.094488
vn 0.000000 -0.370079 0.929134
vn 0.000000 -0.370079 0.929134
vn 0.000000 -0.370079 0.929134
vn -0.007874 0.968504 -0.259843
vn -0.007874 0.968504 -0.259843
vn -0.007874 1.000000 0.086614
vn -0.007874 1.000000 0.047244
vn 0.007874 -0.944882 0.330709
vn 0.007874 -0.944882 0.322835
vn 0.007874 -0.992126 -0.102362
vn 0.007874 -1.000000 -0.055118
vn -0.007874 0.889764 -0.464567
vn -0.007874 0.968504 -0.259843
vn 0.000000 0.669291 -0.740157
vn -0.007874 0.968504 -0.259843
vn 0.007874 -0.968504 -0.259842
vn 0.007874 -1.000000 0.000000
vn 0.007874 -1.000000 0.047244
vn 0.007874 -0.968504 -0.251968
vn -0.007874 0.944882 0.338583
vn -0.007874 1.000000 -0.000000
vn -0.007874 0.944882 0.322834
vn -0.007874 1.000000 -0.055118
tan 0.992126 0.007812 0.000806 1.000000
tan 0.992126 0.007812 0.000868 1.000000
tan 0.992126 0.007812 -0.000992 1.000000
tan -0.007688 0.976378 -0.220473 1.000000
tan -0.007812 0.992126 0.141732 1.000000
tan -0.007812 0.992126 0.141732 1.000000
tan 1.000682 0.033604 -0.021266 1.000000
tan 0.992126 0.054684 0.001364 1.000000
tan 0.972596 0.007874 0.000124 1.000000
tan 0.322835 -0.944882 0.000000 1.000000
tan 0.322835 -0.944882 0.000000 1.000000
tan 0.322835 -0.944882 0.000000 1.000000
tan 0.418315 0.905512 -0.014260 1.000000
tan 0.426871 0.891128 0.045756 1.000000
tan 0.420299 0.907000 0.021948 1.000000
tan 0.316635 0.945440 -0.019840 1.000000
tan 0.307397 0.937008 0.044268 1.000000
tan 0.321161 0.937008 -0.036890 1.000000
tan 0.440511 -0.891004 0.038626 1.000000
tan 0.419741 -0.905512 -0.021390 1.000000
tan 0.436047 -0.899126 0.021452 1.000000
tan 0.893918 0.321905 0.128216 1.000000
tan 0.858888 0.365801 0.145700 1.000000
tan 0.893918 0.321905 0.128216 1.000000
tan 0.972596 0.007874 -0.000124 1.000000
tan 0.972596 0.007874 -0.000124 1.000000
tan 1.000000 0.007874 -0.000000 1.000000
tan 1.000000 0.007874 -0.000000 1.000000
tan 0.000000 0.330709 0.944882 1.000000
tan 0.000000 0.322835 0.944882 1.000000
tan -0.007812 -0.102424 0.992126 1.000000
tan -0.007874 -0.055180 1.000000 1.000000
tan 0.941286 0.007812 -0.000992 1.000000
tan 0.972596 0.007874 -0.000124 1.000000
tan 0.940108 0.040796 0.036890 1.000000
tan 0.972596 0.007874 -0.000124 1.000000
tan 0.972596 0.007874 0.000124 1.000000
tan 1.000000 0.007874 -0.000000 1.000000
tan 1.000000 0.007874 -0.000000 1.000000
tan 0.968504 0.007874 -0.000000 1.000000
tan 0.000000 0.338583 -0.944882 1.000000
tan 0.007874 0.000062 -1.000000 1.000000
tan 0.000000 0.322834 -0.944882 1.000000
tan 0.007874 -0.055056 -1.000000 1.000000
f 3/3/3 2/2/2 1/1/1
f 6/6/6 5/5/5 4/4/4
f 9/9/9 8/8/8 7/7/7
f 12/12/12 11/11/11 10/10/10
f 15/15/15 14/14/14 13/13/13
f 18/18/18 17/17/17 16/16/16
f 21/21/21 20/20/20 19/19/19
f 24/24/24 23/23/23 22/22/22
f 27/27/27 26/26/26 25/25/25
f 27/27/27 28/28/28 26/26/26
f 31/31/31 30/30/30 29/29/29
f 32/32/32 31/31/31 29/29/29
f 35/35/35 34/34/34 33/33/33
f 36/36/36 33/33/33 34/34/34
f 39/39/39 38/38/38 37/37/37
f 40/40/40 37/37/37 38/38/38
f 43/43/43 42/42/42 41/41/41
f 44/44/44 41/41/41 42/42/42
