mtllib SM_Bottles_05_LOD3.mtl
g SM_Bottles_05_LOD3
#Vertices 143
#Indices 336
#Section 0 Offset 0 NumIndices 63 MaterialIndex 0 MI_Bottles
#Section 1 Offset 63 NumIndices 273 MaterialIndex 1 MI_Bottles_Glass_1
v 0.014037 0.301588 -0.000265
v 0.007091 0.302295 0.011935
v 0.000009 0.301416 -0.000005
v 0.007091 0.302295 0.011935
v -0.008189 0.302124 0.011891
v 0.000009 0.301416 -0.000005
v -0.008189 0.302124 0.011891
v -0.013631 0.302765 -0.002191
v 0.000009 0.301416 -0.000005
v 0.009709 0.301212 -0.009789
v 0.014037 0.301588 -0.000265
v 0.000009 0.301416 -0.000005
v -0.001675 0.302163 -0.013503
v 0.009709 0.301212 -0.009789
v 0.000009 0.301416 -0.000005
v -0.013631 0.302765 -0.002191
v -0.001675 0.302163 -0.013503
v 0.000009 0.301416 -0.000005
v -0.013631 0.302765 -0.002191
v -0.008189 0.302124 0.011891
v -0.013680 0.279038 0.001618
v -0.000729 0.279654 0.015088
v 0.007091 0.302295 0.011935
v 0.012872 0.279208 0.007695
v 0.014037 0.301588 -0.000265
v 0.009414 0.279569 -0.011742
v 0.009709 0.301212 -0.009789
v -0.001675 0.302163 -0.013503
v -0.009876 0.279506 -0.010517
v -0.013631 0.302765 -0.002191
v -0.013680 0.279038 0.001618
v -0.000534 0.105828 -0.050818
v 0.035048 0.028356 -0.021255
v 0.038757 0.105787 -0.023105
v 0.002404 0.028394 -0.042599
v -0.035869 0.028420 -0.022063
v -0.038698 0.105787 -0.023201
v 0.016976 0.000438 0.022085
v 0.030217 0.002033 0.018349
v 0.000171 0.000735 0.000002
v 0.007514 0.000735 0.027896
v 0.016976 0.000438 0.022085
v 0.000171 0.000735 0.000002
v -0.003550 0.000510 0.027581
v 0.007514 0.000735 0.027896
v 0.000171 0.000735 0.000002
v -0.018084 0.002005 0.030268
v -0.003550 0.000510 0.027581
v 0.000171 0.000735 0.000002
v -0.021967 0.000516 0.016903
v -0.018084 0.002005 0.030268
v 0.000171 0.000735 0.000002
v -0.034023 0.001710 0.008694
v -0.021967 0.000516 0.016903
v 0.000171 0.000735 0.000002
v 0.030217 0.002033 0.018349
v 0.028007 0.000381 0.003592
v 0.000171 0.000735 0.000002
v 0.028007 0.000381 0.003592
v 0.035732 0.002312 -0.008751
v 0.000171 0.000735 0.000002
v 0.035732 0.002312 -0.008751
v 0.022182 0.000509 -0.016913
v 0.000171 0.000735 0.000002
v 0.022182 0.000509 -0.016913
v 0.014487 0.000736 -0.025010
v 0.000171 0.000735 0.000002
v 0.014487 0.000736 -0.025010
v 0.003711 0.000590 -0.027538
v 0.000171 0.000735 0.000002
v 0.003711 0.000590 -0.027538
v -0.008827 0.001534 -0.033379
v 0.000171 0.000735 0.000002
v -0.008827 0.001534 -0.033379
v -0.020398 0.000736 -0.020459
v 0.000171 0.000735 0.000002
v -0.020398 0.000736 -0.020459
v -0.028494 0.000746 -0.007775
v 0.000171 0.000735 0.000002
v -0.028494 0.000746 -0.007775
v -0.034023 0.001710 0.008694
v 0.000171 0.000735 0.000002
v 0.028007 0.000381 0.003592
v 0.030217 0.002033 0.018349
v 0.035732 0.002312 -0.008751
v 0.000384 0.004877 0.039021
v 0.016976 0.000438 0.022085
v 0.007514 0.000735 0.027896
v -0.003550 0.000510 0.027581
v -0.018084 0.002005 0.030268
v -0.021967 0.000516 0.016903
v -0.034023 0.001710 0.008694
v -0.030581 0.003062 -0.019596
v -0.028494 0.000746 -0.007775
v -0.020398 0.000736 -0.020459
v -0.008827 0.001534 -0.033379
v 0.017443 0.003202 -0.032062
v 0.003711 0.000590 -0.027538
v 0.014487 0.000736 -0.025010
v 0.022182 0.000509 -0.016913
v 0.000031 0.187327 0.018517
v -0.000729 0.279654 0.015088
v 0.012872 0.279208 0.007695
v 0.015684 0.179381 0.013631
v -0.000056 0.147891 0.038579
v 0.019212 0.182102 -0.005154
v 0.009414 0.279569 -0.011742
v 0.040300 0.154437 0.005961
v 0.004405 0.187111 -0.019527
v -0.009876 0.279506 -0.010517
v 0.017212 0.158751 -0.029197
v 0.042324 0.123237 0.027000
v 0.000068 0.124768 0.045994
v -0.018286 0.187048 -0.008254
v -0.013680 0.279038 0.001618
v 0.027246 0.009215 0.029975
v 0.000384 0.004877 0.039021
v 0.030217 0.002033 0.018349
v 0.035732 0.002312 -0.008751
v 0.038785 0.010076 -0.001271
v 0.041346 0.122653 -0.023408
v 0.022439 0.009715 -0.033070
v 0.017443 0.003202 -0.032062
v 0.014091 0.122412 -0.046161
v -0.012641 0.009424 -0.036514
v -0.008827 0.001534 -0.033379
v -0.030581 0.003062 -0.019596
v -0.016476 0.159017 -0.030396
v -0.022294 0.122933 -0.041449
v -0.037437 0.009759 -0.015367
v -0.034023 0.001710 0.008694
v -0.043675 0.122688 -0.018130
v -0.033486 0.009223 0.020695
v -0.018084 0.002005 0.030268
v 0.000384 0.004877 0.039021
v -0.045203 0.121165 0.016582
v -0.020417 0.123606 0.042098
v 0.000068 0.124768 0.045994
v -0.000056 0.147891 0.038579
v -0.038811 0.155973 0.005582
v -0.015602 0.182545 0.012838
v 0.000031 0.187327 0.018517
v -0.000729 0.279654 0.015088
vt 0.875000 0.213867
vt 0.853516 0.251465
vt 0.831543 0.214355
vt 0.853516 0.251465
vt 0.806641 0.251465
vt 0.831543 0.214355
vt 0.806152 0.251465
vt 0.789551 0.208008
vt 0.831543 0.214355
vt 0.861816 0.184082
vt 0.875000 0.213867
vt 0.831543 0.214355
vt 0.826660 0.172852
vt 0.861816 0.184082
vt 0.831543 0.214355
vt 0.789551 0.207520
vt 0.826172 0.172852
vt 0.831543 0.214355
vt 0.923828 0.449219
vt 0.926270 0.402832
vt 0.998535 0.438477
vt 0.996582 0.379395
vt 0.925293 0.353027
vt 0.998047 0.332031
vt 0.927734 0.307617
vt 0.996582 0.270020
vt 0.928711 0.274414
vt 0.925781 0.235352
vt 0.997070 0.208984
vt 0.923828 0.181152
vt 0.998535 0.169434
vt 0.137085 0.295410
vt 0.001854 0.535645
vt 0.000000 0.295410
vt 0.128662 0.535645
vt 0.270020 0.535645
vt 0.272217 0.295410
vt 0.655762 0.018555
vt 0.670898 0.024902
vt 0.632324 0.041016
vt 0.645996 0.010254
vt 0.655762 0.018555
vt 0.632324 0.041016
vt 0.632812 0.008301
vt 0.645996 0.010254
vt 0.632324 0.041016
vt 0.615723 0.002930
vt 0.632324 0.008301
vt 0.632324 0.041016
vt 0.609375 0.018066
vt 0.615723 0.002930
vt 0.632324 0.041016
vt 0.594238 0.025879
vt 0.609375 0.018066
vt 0.632324 0.041016
vt 0.670898 0.024902
vt 0.665527 0.041992
vt 0.632324 0.041016
vt 0.665527 0.041992
vt 0.672363 0.057617
vt 0.632324 0.041016
vt 0.672363 0.057617
vt 0.655273 0.064453
vt 0.632324 0.041016
vt 0.655273 0.064453
vt 0.645020 0.072754
vt 0.632324 0.041016
vt 0.645020 0.072754
vt 0.631836 0.073730
vt 0.632324 0.041016
vt 0.631836 0.073730
vt 0.616699 0.078613
vt 0.632324 0.041016
vt 0.616699 0.078613
vt 0.604980 0.061523
vt 0.632324 0.041016
vt 0.604980 0.061523
vt 0.597656 0.045898
vt 0.632324 0.041016
vt 0.597656 0.045898
vt 0.594238 0.025879
vt 0.632324 0.041016
vt 0.665527 0.041992
vt 0.670898 0.024902
vt 0.672363 0.057617
vt 0.639648 -0.004883
vt 0.656250 0.018555
vt 0.645996 0.010254
vt 0.632324 0.008301
vt 0.615723 0.002930
vt 0.609375 0.018066
vt 0.594238 0.025879
vt 0.592773 0.059082
vt 0.597656 0.045898
vt 0.604980 0.061523
vt 0.616699 0.078613
vt 0.647461 0.082031
vt 0.631836 0.073730
vt 0.645020 0.072754
vt 0.655273 0.064453
vt 0.700195 0.623779
vt 0.668457 0.729736
vt 0.651367 0.726318
vt 0.687012 0.609375
vt 0.751953 0.573486
vt 0.657227 0.608887
vt 0.627441 0.724854
vt 0.687012 0.571289
vt 0.624512 0.613281
vt 0.605469 0.724609
vt 0.638672 0.576172
vt 0.714844 0.534668
vt 0.765137 0.538086
vt 0.585449 0.614014
vt 0.590332 0.725098
vt 0.724609 0.396484
vt 0.757324 0.387207
vt 0.711914 0.387695
vt 0.677246 0.389160
vt 0.686035 0.398926
vt 0.664551 0.532227
vt 0.645508 0.398926
vt 0.640625 0.390137
vt 0.631836 0.531006
vt 0.604004 0.398438
vt 0.606934 0.388184
vt 0.574707 0.390625
vt 0.599609 0.576416
vt 0.596680 0.531738
vt 0.566895 0.398926
vt 0.539062 0.388184
vt 0.566895 0.531982
vt 0.524414 0.396973
vt 0.504883 0.386719
vt 0.479736 0.388184
vt 0.532227 0.531494
vt 0.495361 0.536133
vt 0.471680 0.537842
vt 0.485352 0.572754
vt 0.550293 0.574219
vt 0.552734 0.612305
vt 0.536133 0.623047
vt 0.567871 0.729004
vt1 0.187134 0.951141
vt1 0.166138 0.987953
vt1 0.144775 0.951935
vt1 0.166016 0.988029
vt1 0.120239 0.987923
vt1 0.144775 0.951935
vt1 0.119995 0.987831
vt1 0.103577 0.945557
vt1 0.144775 0.951935
vt1 0.174072 0.922424
vt1 0.187134 0.951141
vt1 0.144775 0.951935
vt1 0.139648 0.911133
vt1 0.174072 0.922424
vt1 0.144775 0.951935
vt1 0.103699 0.945099
vt1 0.139404 0.911316
vt1 0.144775 0.951935
vt1 0.004059 0.997601
vt1 0.006149 0.951813
vt1 0.076111 0.986847
vt1 0.074158 0.928772
vt1 0.005394 0.903076
vt1 0.075562 0.882446
vt1 0.007648 0.858643
vt1 0.074524 0.821655
vt1 0.008842 0.826050
vt1 0.005810 0.787598
vt1 0.074646 0.761353
vt1 0.003855 0.734131
vt1 0.076050 0.722656
vt1 0.770508 0.757812
vt1 0.638672 0.991920
vt1 0.636719 0.757568
vt1 0.762207 0.991859
vt1 0.899902 0.991798
vt1 0.902344 0.757568
vt1 0.947266 0.570312
vt1 0.985352 0.587402
vt1 0.887207 0.628662
vt1 0.921875 0.548584
vt1 0.947266 0.570312
vt1 0.887207 0.628662
vt1 0.887695 0.544189
vt1 0.921875 0.548584
vt1 0.887207 0.628662
vt1 0.844727 0.530762
vt1 0.887207 0.544678
vt1 0.887207 0.628662
vt1 0.828125 0.569092
vt1 0.844727 0.530762
vt1 0.887207 0.628662
vt1 0.788574 0.588867
vt1 0.828125 0.569336
vt1 0.887207 0.628662
vt1 0.985352 0.587402
vt1 0.971680 0.630371
vt1 0.887207 0.628662
vt1 0.972168 0.630615
vt1 0.989746 0.670410
vt1 0.887207 0.628662
vt1 0.989258 0.670410
vt1 0.945801 0.688721
vt1 0.887207 0.628662
vt1 0.945801 0.688965
vt1 0.919434 0.709717
vt1 0.887207 0.628662
vt1 0.919434 0.709717
vt1 0.886230 0.712646
vt1 0.887207 0.628662
vt1 0.886230 0.712646
vt1 0.846680 0.724854
vt1 0.887207 0.628662
vt1 0.846680 0.724854
vt1 0.817383 0.681396
vt1 0.887207 0.628662
vt1 0.817383 0.681396
vt1 0.798828 0.640137
vt1 0.887207 0.628662
vt1 0.798828 0.640137
vt1 0.789062 0.588867
vt1 0.887207 0.628662
vt1 0.972168 0.630371
vt1 0.985352 0.587158
vt1 0.990234 0.670410
vt1 0.906250 0.509521
vt1 0.947754 0.570068
vt1 0.921875 0.548584
vt1 0.887695 0.544434
vt1 0.844238 0.530518
vt1 0.828125 0.569092
vt1 0.789062 0.588867
vt1 0.786133 0.675293
vt1 0.798828 0.640137
vt1 0.817383 0.681396
vt1 0.846680 0.724609
vt1 0.925781 0.733398
vt1 0.886230 0.712891
vt1 0.919434 0.709717
vt1 0.945801 0.688965
vt1 0.602539 0.725586
vt1 0.520996 0.995216
vt1 0.475830 0.986710
vt1 0.567871 0.689209
vt1 0.737305 0.597412
vt1 0.491211 0.687744
vt1 0.413574 0.983032
vt1 0.568848 0.592285
vt1 0.406250 0.698730
vt1 0.356445 0.982437
vt1 0.443115 0.604736
vt1 0.641113 0.499023
vt1 0.772461 0.507568
vt1 0.304443 0.700684
vt1 0.317383 0.983521
vt1 0.666992 0.146973
vt1 0.751953 0.123535
vt1 0.632812 0.124023
vt1 0.543457 0.127930
vt1 0.566406 0.153320
vt1 0.509766 0.492676
vt1 0.460938 0.152832
vt1 0.447510 0.131348
vt1 0.424561 0.489746
vt1 0.352539 0.152344
vt1 0.360596 0.125977
vt1 0.276367 0.131836
vt1 0.340820 0.605225
vt1 0.333740 0.491211
vt1 0.256592 0.153320
vt1 0.183472 0.125488
vt1 0.255859 0.492188
vt1 0.146118 0.148926
vt1 0.094238 0.122070
vt1 0.028992 0.126465
vt1 0.165894 0.490723
vt1 0.069702 0.502441
vt1 0.008064 0.506592
vt1 0.043365 0.595947
vt1 0.212769 0.599365
vt1 0.218750 0.696777
vt1 0.175903 0.723389
vt1 0.258789 0.993439
vn 0.000000 1.000000 -0.000000
vn 0.000000 1.000000 -0.000000
vn 0.000000 1.000000 -0.000000
vn 0.000000 1.000000 -0.000000
vn 0.000000 1.000000 -0.000000
vn 0.000000 1.000000 -0.000000
vn 0.000000 1.000000 -0.000000
vn 0.000000 1.000000 -0.000000
vn 0.000000 1.000000 -0.000000
vn 0.000000 1.000000 -0.000000
vn 0.000000 1.000000 -0.000000
vn 0.000000 1.000000 -0.000000
vn 0.000000 1.000000 -0.000000
vn 0.000000 1.000000 -0.000000
vn 0.000000 1.000000 -0.000000
vn 0.000000 1.000000 -0.000000
vn 0.000000 1.000000 -0.000000
vn 0.000000 1.000000 -0.000000
vn -0.984252 0.141732 -0.110236
vn -0.574803 0.141732 0.803149
vn -0.984252 -0.102362 0.133858
vn -0.086614 -0.125984 0.984252
vn 0.511811 0.204724 0.834646
vn 0.858268 -0.086614 0.511811
vn 0.992126 0.149606 -0.031496
vn 0.622047 -0.110236 -0.771653
vn 0.692913 0.133858 -0.708661
vn -0.125984 0.196850 -0.976378
vn -0.685039 -0.125984 -0.716535
vn -0.960630 0.220472 -0.188976
vn -0.984252 -0.125984 0.102362
vn -0.007874 -0.062992 -1.000000
vn 0.811024 -0.062992 -0.574803
vn 0.787402 -0.070866 -0.606299
vn 0.055118 -0.062992 -1.000000
vn -0.811024 -0.062992 -0.582677
vn -0.787402 -0.070866 -0.606299
vn 0.000000 -1.000000 0.000000
vn 0.000000 -1.000000 0.000000
vn 0.000000 -1.000000 0.000000
vn 0.000000 -1.000000 0.000000
vn 0.000000 -1.000000 0.000000
vn 0.000000 -1.000000 0.000000
vn 0.000000 -1.000000 0.000000
vn 0.000000 -1.000000 0.000000
vn 0.000000 -1.000000 0.000000
vn 0.000000 -1.000000 0.000000
vn 0.000000 -1.000000 0.000000
vn 0.000000 -1.000000 0.000000
vn 0.000000 -1.000000 0.000000
vn 0.000000 -1.000000 0.000000
vn 0.000000 -1.000000 0.000000
vn 0.000000 -1.000000 0.000000
vn 0.000000 -1.000000 0.000000
vn 0.000000 -1.000000 0.000000
vn 0.000000 -1.000000 0.000000
vn 0.000000 -1.000000 0.000000
vn 0.000000 -1.000000 0.000000
vn 0.000000 -1.000000 0.000000
vn 0.000000 -1.000000 0.000000
vn 0.000000 -1.000000 0.000000
vn 0.000000 -1.000000 0.000000
vn 0.000000 -1.000000 0.000000
vn 0.000000 -1.000000 0.000000
vn 0.000000 -1.000000 0.000000
vn 0.000000 -1.000000 0.000000
vn 0.000000 -1.000000 0.000000
vn 0.000000 -1.000000 0.000000
vn 0.000000 -1.000000 0.000000
vn 0.000000 -1.000000 0.000000
vn 0.000000 -1.000000 0.000000
vn 0.000000 -1.000000 0.000000
vn 0.000000 -1.000000 0.000000
vn 0.000000 -1.000000 0.000000
vn 0.000000 -1.000000 0.000000
vn 0.000000 -1.000000 0.000000
vn 0.000000 -1.000000 0.000000
vn 0.000000 -1.000000 0.000000
vn 0.000000 -1.000000 0.000000
vn 0.000000 -1.000000 0.000000
vn 0.000000 -1.000000 0.000000
vn 0.000000 -1.000000 0.000000
vn 0.330709 -0.944882 0.039370
vn 0.503937 -0.803149 0.314961
vn 0.645669 -0.748031 -0.157480
vn 0.023622 -0.692913 0.716535
vn 0.196850 -0.952756 0.236221
vn 0.094488 -0.937008 0.346457
vn -0.047244 -0.944882 0.314961
vn -0.299213 -0.818897 0.496063
vn -0.236220 -0.952756 0.196850
vn -0.566929 -0.811023 0.133858
vn -0.511811 -0.787401 -0.338583
vn -0.362205 -0.929134 -0.086614
vn -0.251969 -0.937008 -0.251968
vn -0.149606 -0.834646 -0.527559
vn 0.299213 -0.779527 -0.551181
vn 0.047244 -0.952756 -0.307086
vn 0.181102 -0.937008 -0.307086
vn 0.244094 -0.944882 -0.212598
vn -0.007874 0.125984 0.992126
vn -0.070866 0.023622 1.000000
vn 0.850394 0.023622 0.527559
vn 0.724409 0.228346 0.645669
vn -0.015748 0.559055 0.834646
vn 0.944882 0.173228 -0.267717
vn 0.637795 0.023622 -0.763779
vn 0.834646 0.527559 0.165354
vn 0.220472 0.110236 -0.968504
vn -0.685039 0.023622 -0.724409
vn 0.385827 0.590551 -0.708661
vn 0.834646 -0.047244 0.551181
vn 0.000000 -0.055118 1.000000
vn -0.889764 0.118110 -0.440945
vn -0.992126 0.031496 0.149606
vn 0.661417 -0.070866 0.740157
vn 0.007874 -0.165354 0.984252
vn 0.472441 -0.842520 0.275591
vn 0.629921 -0.755905 -0.181102
vn 1.000000 -0.078740 -0.039370
vn 0.866142 -0.039370 -0.503937
vn 0.574803 -0.078740 -0.811023
vn 0.307087 -0.763779 -0.574803
vn 0.291339 -0.047244 -0.952756
vn -0.322835 -0.078740 -0.944882
vn -0.118110 -0.866142 -0.488189
vn -0.551181 -0.755905 -0.346457
vn -0.377953 0.598425 -0.708661
vn -0.480315 -0.039370 -0.874016
vn -0.921260 -0.070866 -0.385827
vn -0.574803 -0.803149 0.149606
vn -0.921260 -0.039370 -0.377953
vn -0.850394 -0.078740 0.527559
vn -0.267717 -0.834646 0.480315
vn -0.039370 -0.110236 0.992126
vn -0.929134 -0.047244 0.362205
vn -0.433071 -0.039370 0.897638
vn 0.000000 -0.055118 1.000000
vn 0.031496 0.566929 0.826771
vn -0.811024 0.559055 0.173228
vn -0.748031 0.196850 0.637795
vn 0.007874 0.133858 0.992126
vn -0.149606 0.015748 0.984252
tan 0.000000 -0.000000 -1.000000 1.000000
tan 0.000000 -0.000000 -1.000000 1.000000
tan 0.000000 -0.000000 -1.000000 1.000000
tan 0.000000 -0.000000 -1.000000 1.000000
tan 0.000000 -0.000000 -1.000000 1.000000
tan 0.000000 -0.000000 -1.000000 1.000000
tan 0.000000 -0.000000 -1.000000 1.000000
tan 0.000000 -0.000000 -1.000000 1.000000
tan 0.000000 -0.000000 -1.000000 1.000000
tan 0.000000 -0.000000 -1.000000 1.000000
tan 0.000000 -0.000000 -1.000000 1.000000
tan 0.000000 -0.000000 -1.000000 1.000000
tan 0.000000 -0.000000 -1.000000 1.000000
tan 0.000000 -0.000000 -1.000000 1.000000
tan 0.000000 -0.000000 -1.000000 1.000000
tan 0.000000 -0.000000 -1.000000 1.000000
tan 0.000000 -0.000000 -1.000000 1.000000
tan 0.000000 -0.000000 -1.000000 1.000000
tan -0.106888 0.023250 0.984252 1.000000
tan 0.804266 -0.008122 0.577035 1.000000
tan 0.136276 -0.023250 0.984252 1.000000
tan 0.984252 -0.007750 0.085622 1.000000
tan 0.836258 0.022258 -0.518259 1.000000
tan 0.512493 0.006758 -0.858268 1.000000
tan -0.033852 0.015624 -0.992126 1.000000
tan -0.771654 0.006076 -0.622915 1.000000
tan -0.710769 -0.000248 -0.695021 1.000000
tan -0.976378 0.000000 0.125984 1.000000
tan -0.718519 0.005146 0.686031 1.000000
tan -0.206336 -0.075640 0.960630 1.000000
tan 0.100378 0.015500 0.984252 1.000000
tan 0.007874 1.000000 -0.063054 1.000000
tan 0.056978 0.914068 -0.019778 1.000000
tan 0.064728 0.972224 -0.029574 1.000000
tan 0.000000 1.000000 -0.062992 1.000000
tan -0.068696 0.959018 -0.008060 1.000000
tan -0.064170 0.966024 -0.029574 1.000000
tan -0.149606 0.000000 0.992126 1.000000
tan -0.149606 0.000000 0.992126 1.000000
tan -0.149606 0.000000 0.992126 1.000000
tan -0.149606 0.000000 0.992126 1.000000
tan -0.149606 0.000000 0.992126 1.000000
tan -0.149606 0.000000 0.992126 1.000000
tan -0.157480 0.000000 0.984252 1.000000
tan -0.157480 0.000000 0.984252 1.000000
tan -0.157480 0.000000 0.984252 1.000000
tan -0.133858 0.000000 0.992126 1.000000
tan -0.133858 0.000000 0.992126 1.000000
tan -0.133858 0.000000 0.992126 1.000000
tan -0.133858 0.000000 0.992126 1.000000
tan -0.133858 0.000000 0.992126 1.000000
tan -0.133858 0.000000 0.992126 1.000000
tan -0.133858 0.000000 0.992126 1.000000
tan -0.133858 0.000000 0.992126 1.000000
tan -0.133858 0.000000 0.992126 1.000000
tan -0.149606 0.000000 0.992126 1.000000
tan -0.149606 0.000000 0.992126 1.000000
tan -0.149606 0.000000 0.992126 1.000000
tan -0.149606 0.000000 0.992126 1.000000
tan -0.149606 0.000000 0.992126 1.000000
tan -0.149606 0.000000 0.992126 1.000000
tan -0.141732 0.000000 0.992126 1.000000
tan -0.141732 0.000000 0.992126 1.000000
tan -0.141732 0.000000 0.992126 1.000000
tan -0.141732 0.000000 0.992126 1.000000
tan -0.141732 0.000000 0.992126 1.000000
tan -0.141732 0.000000 0.992126 1.000000
tan -0.141732 0.000000 0.992126 1.000000
tan -0.141732 0.000000 0.992126 1.000000
tan -0.141732 0.000000 0.992126 1.000000
tan -0.141732 0.000000 0.992126 1.000000
tan -0.141732 0.000000 0.992126 1.000000
tan -0.141732 0.000000 0.992126 1.000000
tan -0.133858 0.000000 0.992126 1.000000
tan -0.133858 0.000000 0.992126 1.000000
tan -0.133858 0.000000 0.992126 1.000000
tan -0.133858 0.000000 0.992126 1.000000
tan -0.133858 0.000000 0.992126 1.000000
tan -0.133858 0.000000 0.992126 1.000000
tan -0.133858 0.000000 0.992126 1.000000
tan -0.133858 0.000000 0.992126 1.000000
tan -0.133858 0.000000 0.992126 1.000000
tan -0.089590 0.007812 0.940046 1.000000
tan -0.081716 0.276769 0.836505 1.000000
tan -0.648211 -0.643933 0.401017 1.000000
tan 0.005456 0.716721 0.692913 1.000000
tan -0.127534 0.208011 0.945254 1.000000
tan -0.116126 0.332569 0.931118 1.000000
tan -0.119040 0.318433 0.937442 1.000000
tan -0.079918 0.522785 0.814805 1.000000
tan -0.075020 0.215451 0.952756 1.000000
tan -0.560977 0.492157 0.605989 1.000000
tan -0.024056 -0.348007 0.845682 1.000000
tan -0.169632 -0.019654 0.920206 1.000000
tan -0.105834 -0.224192 0.939550 1.000000
tan -0.023870 -0.524025 0.835824 1.000000
tan -0.083390 -0.582181 0.778101 1.000000
tan -0.120032 -0.310620 0.945254 1.000000
tan -0.135346 -0.329345 0.925104 1.000000
tan -0.089280 -0.233988 0.937442 1.000000
tan 0.343729 -0.929630 0.120776 1.000000
tan 0.125984 -0.992126 0.032364 1.000000
tan 0.394383 -0.651559 -0.606547 1.000000
tan 0.661727 -0.467481 -0.577097 1.000000
tan 0.050406 -0.834522 0.559923 1.000000
tan 0.104532 -0.915122 -0.223200 1.000000
tan -0.487259 -0.754417 -0.430219 1.000000
tan 0.531217 -0.842396 0.006262 1.000000
tan -0.038130 -0.968504 -0.118916 1.000000
tan 0.326493 -0.855974 -0.336661 1.000000
tan 0.022320 -0.726889 -0.593589 1.000000
tan 0.108004 -0.914378 -0.241924 1.000000
tan -0.023622 -1.000000 -0.055118 1.000000
tan 0.031682 -0.885796 -0.301196 1.000000
tan -0.043276 -0.992126 -0.078120 1.000000
tan -0.221402 -0.957158 0.106206 1.000000
tan -0.093000 -0.976502 -0.163308 1.000000
tan -0.811644 -0.524831 -0.213094 1.000000
tan -0.757331 -0.638477 0.030752 1.000000
tan -0.078430 -1.000000 0.007874 1.000000
tan -0.071114 -0.878046 -0.053630 1.000000
tan 0.007316 -0.967078 0.099076 1.000000
tan -0.150350 -0.626201 0.751751 1.000000
tan -0.007502 -0.952756 0.044950 1.000000
tan 0.000000 -0.944882 0.078740 1.000000
tan 0.075020 -0.494575 0.859322 1.000000
tan 0.714241 -0.632649 0.244033 1.000000
tan -0.046252 -0.741398 -0.601401 1.000000
tan 0.028148 -0.881580 0.024242 1.000000
tan 0.073904 -0.930374 -0.005580 1.000000
tan 0.801972 -0.580693 -0.036146 1.000000
tan 0.051274 -0.921260 -0.029016 1.000000
tan 0.164734 -0.882696 0.133796 1.000000
tan 0.199950 -0.530535 -0.810465 1.000000
tan 0.109368 -0.984314 -0.105028 1.000000
tan 0.021576 -0.926282 -0.065472 1.000000
tan -0.027962 -0.901048 -0.053010 1.000000
tan -0.007874 -1.000000 -0.055118 1.000000
tan -0.069936 -0.825779 0.568913 1.000000
tan -0.562837 -0.818278 0.005704 1.000000
tan -0.636927 -0.499907 -0.592721 1.000000
tan -0.320293 -0.937442 0.129022 1.000000
tan -0.372001 -0.914502 -0.041912 1.000000
f 3/3/3 2/2/2 1/1/1
f 6/6/6 5/5/5 4/4/4
f 9/9/9 8/8/8 7/7/7
f 12/12/12 11/11/11 10/10/10
f 15/15/15 14/14/14 13/13/13
f 18/18/18 17/17/17 16/16/16
f 21/21/21 20/20/20 19/19/19
f 22/22/22 20/20/20 21/21/21
f 23/23/23 20/20/20 22/22/22
f 23/23/23 22/22/22 24/24/24
f 25/25/25 23/23/23 24/24/24
f 26/26/26 25/25/25 24/24/24
f 25/25/25 26/26/26 27/27/27
f 26/26/26 28/28/28 27/27/27
f 29/29/29 28/28/28 26/26/26
f 29/29/29 30/30/30 28/28/28
f 30/30/30 29/29/29 31/31/31
f 34/34/34 33/33/33 32/32/32
f 35/35/35 32/32/32 33/33/33
f 35/35/35 36/36/36 32/32/32
f 32/32/32 36/36/36 37/37/37
f 40/40/40 39/39/39 38/38/38
f 43/43/43 42/42/42 41/41/41
f 46/46/46 45/45/45 44/44/44
f 49/49/49 48/48/48 47/47/47
f 52/52/52 51/51/51 50/50/50
f 55/55/55 54/54/54 53/53/53
f 58/58/58 57/57/57 56/56/56
f 61/61/61 60/60/60 59/59/59
f 64/64/64 63/63/63 62/62/62
f 67/67/67 66/66/66 65/65/65
f 70/70/70 69/69/69 68/68/68
f 73/73/73 72/72/72 71/71/71
f 76/76/76 75/75/75 74/74/74
f 79/79/79 78/78/78 77/77/77
f 82/82/82 81/81/81 80/80/80
f 85/85/85 84/84/84 83/83/83
f 87/87/87 84/84/84 86/86/86
f 88/88/88 87/87/87 86/86/86
f 88/88/88 86/86/86 89/89/89
f 86/86/86 90/90/90 89/89/89
f 92/92/92 91/91/91 90/90/90
f 94/94/94 92/92/92 93/93/93
f 93/93/93 95/95/95 94/94/94
f 95/95/95 93/93/93 96/96/96
f 98/98/98 96/96/96 97/97/97
f 98/98/98 97/97/97 99/99/99
f 100/100/100 99/99/99 97/97/97
f 85/85/85 100/100/100 97/97/97
f 103/103/103 102/102/102 101/101/101
f 101/101/101 104/104/104 103/103/103
f 101/101/101 105/105/105 104/104/104
f 104/104/104 106/106/106 103/103/103
f 103/103/103 106/106/106 107/107/107
f 108/108/108 104/104/104 105/105/105
f 106/106/106 104/104/104 108/108/108
f 107/107/107 106/106/106 109/109/109
f 107/107/107 109/109/109 110/110/110
f 106/106/106 108/108/108 111/111/111
f 111/111/111 109/109/109 106/106/106
f 108/108/108 105/105/105 112/112/112
f 113/113/113 112/112/112 105/105/105
f 114/114/114 110/110/110 109/109/109
f 115/115/115 110/110/110 114/114/114
f 112/112/112 113/113/113 116/116/116
f 116/116/116 113/113/113 117/117/117
f 117/117/117 118/118/118 116/116/116
f 116/116/116 118/118/118 119/119/119
f 120/120/120 112/112/112 116/116/116
f 120/120/120 116/116/116 119/119/119
f 121/121/121 108/108/108 112/112/112
f 112/112/112 120/120/120 121/121/121
f 108/108/108 121/121/121 111/111/111
f 120/120/120 119/119/119 122/122/122
f 122/122/122 121/121/121 120/120/120
f 122/122/122 119/119/119 123/123/123
f 111/111/111 121/121/121 124/124/124
f 121/121/121 122/122/122 124/124/124
f 122/122/122 123/123/123 125/125/125
f 122/122/122 125/125/125 124/124/124
f 126/126/126 125/125/125 123/123/123
f 125/125/125 126/126/126 127/127/127
f 111/111/111 124/124/124 128/128/128
f 111/111/111 128/128/128 109/109/109
f 109/109/109 128/128/128 114/114/114
f 124/124/124 125/125/125 129/129/129
f 128/128/128 124/124/124 129/129/129
f 127/127/127 130/130/130 125/125/125
f 125/125/125 130/130/130 129/129/129
f 130/130/130 127/127/127 131/131/131
f 129/129/129 132/132/132 128/128/128
f 129/129/129 130/130/130 132/132/132
f 133/133/133 130/130/130 131/131/131
f 131/131/131 134/134/134 133/133/133
f 134/134/134 135/135/135 133/133/133
f 136/136/136 132/132/132 130/130/130
f 130/130/130 133/133/133 136/136/136
f 133/133/133 135/135/135 137/137/137
f 137/137/137 136/136/136 133/133/133
f 138/138/138 137/137/137 135/135/135
f 139/139/139 137/137/137 138/138/138
f 136/136/136 140/140/140 132/132/132
f 136/136/136 137/137/137 140/140/140
f 132/132/132 140/140/140 128/128/128
f 137/137/137 139/139/139 140/140/140
f 114/114/114 128/128/128 140/140/140
f 139/139/139 141/141/141 140/140/140
f 114/114/114 140/140/140 141/141/141
f 142/142/142 141/141/141 139/139/139
f 141/141/141 115/115/115 114/114/114
f 141/141/141 142/142/142 143/143/143
f 143/143/143 115/115/115 141/141/141
