mtllib SM_Carpet_04_LOD3.mtl
g SM_Carpet_04_LOD3
#Vertices 34
#Indices 48
#Section 0 Offset 0 NumIndices 48 MaterialIndex 0 MI_Carpet_Inst
v -0.610021 0.005000 -0.001146
v -0.597507 0.006607 0.953827
v -0.616911 0.002782 1.019539
v 0.598343 0.006825 0.953746
v 0.609806 0.004757 -0.001144
v 0.611910 0.001150 1.009153
v -0.590305 0.006963 -0.000000
v -0.597507 0.006607 0.953827
v -0.610021 0.005000 -0.001146
v -0.596800 0.006731 -0.955959
v -0.590305 0.006963 -0.000000
v 0.609806 0.004757 -0.001144
v 0.598343 0.006825 0.953746
v 0.590305 0.006963 -0.000000
v 0.596897 0.006761 -0.953787
v 0.609806 0.004757 -0.001144
v -0.597507 0.006607 0.953827
v 0.598343 0.006825 0.953746
v 0.611910 0.001150 1.009153
v -0.616911 0.002782 1.019539
v 0.590305 0.006963 -0.000000
v -0.596800 0.006731 -0.955959
v 0.596897 0.006761 -0.953787
v -0.590305 0.006963 -0.000000
v 0.590305 0.006963 -0.000000
v 0.598343 0.006825 0.953746
v -0.597507 0.006607 0.953827
v -0.596800 0.006731 -0.955959
v 0.601851 0.000925 -0.989680
v 0.596897 0.006761 -0.953787
v -0.611724 0.001060 -0.991250
v -0.611724 0.001060 -0.991250
v -0.616645 0.006392 -1.027375
v 0.616645 0.006392 -1.027375
vt 0.746582 0.739502
vt 0.749023 0.932495
vt 0.745605 0.945923
vt 0.991211 0.935425
vt 0.996094 0.740723
vt 0.993652 0.946838
vt 0.750488 0.739746
vt 0.749512 0.932556
vt 0.746582 0.739502
vt 0.751465 0.546143
vt 0.750488 0.739746
vt 0.996094 0.740723
vt 0.990723 0.935425
vt 0.991699 0.740967
vt 0.992676 0.546387
vt 0.995605 0.740723
vt 0.002077 0.431641
vt 0.002129 0.983231
vt 0.029434 0.989494
vt 0.033936 0.422363
vt 0.991699 0.740967
vt 0.751465 0.546143
vt 0.992676 0.546387
vt 0.750488 0.739746
vt 0.991699 0.740967
vt 0.990723 0.935425
vt 0.749023 0.932495
vt 0.002123 0.432129
vt 0.020111 0.984901
vt 0.000959 0.982559
vt 0.020599 0.424805
vt 0.020660 0.424805
vt 0.037659 0.422852
vt 0.037811 0.991684
vt1 0.015640 0.496582
vt1 0.023865 0.980209
vt1 0.012451 1.013809
vt1 0.773926 0.987526
vt1 0.789062 0.500000
vt1 0.781738 1.016159
vt1 0.028244 0.497559
vt1 0.024414 0.980331
vt1 0.015762 0.496582
vt1 0.030960 0.012695
vt1 0.028244 0.497559
vt1 0.788574 0.500000
vt1 0.772949 0.987572
vt1 0.776367 0.500244
vt1 0.778809 0.013184
vt1 0.788574 0.500000
vt1 0.808105 0.023926
vt1 0.808105 0.977020
vt1 0.866699 0.987839
vt1 0.875977 0.008301
vt1 0.776367 0.500244
vt1 0.030823 0.012695
vt1 0.778809 0.013672
vt1 0.028244 0.497559
vt1 0.776367 0.500244
vt1 0.772949 0.987534
vt1 0.024261 0.980240
vt1 0.904785 0.024414
vt1 0.943359 0.979904
vt1 0.902344 0.975845
vt1 0.944336 0.012207
vt1 0.944336 0.012207
vt1 0.980957 0.008789
vt1 0.981445 0.991631
vn -0.228346 0.976378 -0.000000
vn -0.362205 0.937008 -0.000000
vn -0.724409 0.692913 -0.000000
vn -0.102362 0.992126 -0.000000
vn 0.188976 0.984252 -0.000000
vn 0.574803 0.818897 -0.000000
vn 0.000000 1.000000 -0.000000
vn -0.322835 0.944882 -0.000000
vn -0.212598 0.976378 -0.000000
vn -0.165354 0.984252 -0.000000
vn 0.000000 1.000000 -0.000000
vn 0.173228 0.984252 -0.000000
vn 0.078740 1.000000 -0.000000
vn 0.000000 1.000000 -0.000000
vn 0.070866 1.000000 -0.000000
vn 0.165354 0.984252 -0.000000
vn 0.000000 0.259843 0.968504
vn 0.000000 0.275591 0.960630
vn 0.000000 0.960630 -0.275591
vn 0.000000 0.968504 -0.244095
vn 0.000000 1.000000 -0.000000
vn 0.000000 1.000000 -0.000000
vn 0.000000 1.000000 -0.015748
vn 0.000000 1.000000 -0.000000
vn 0.000000 1.000000 -0.000000
vn 0.000000 1.000000 -0.000000
vn 0.000000 1.000000 -0.000000
vn -0.007874 0.275590 -0.960630
vn 0.000000 1.000000 0.062992
vn 0.000000 0.212598 -0.976378
vn 0.000000 1.000000 0.062992
vn 0.000000 0.992126 0.094488
vn 0.000000 0.992126 0.149606
vn 0.000000 0.992126 0.149606
tan -0.030752 -0.007192 -0.974580 1.000000
tan -0.014756 -0.005704 -0.919896 1.000000
tan 0.365553 0.382169 -0.849898 1.000000
tan 0.218736 0.022568 -0.968690 1.000000
tan 0.062000 -0.011904 -0.984252 1.000000
tan -0.619009 0.434497 -0.634199 1.000000
tan 0.000000 -0.000000 -1.000000 1.000000
tan 0.007440 0.002542 -0.947424 1.000000
tan -0.007688 -0.001674 -0.976378 1.000000
tan -0.023250 -0.003906 -0.984252 1.000000
tan -0.007874 -0.000000 -1.000000 1.000000
tan -0.015500 0.002728 -0.984252 1.000000
tan -0.015748 0.001240 -1.000000 1.000000
tan -0.007874 -0.000000 -1.000000 1.000000
tan 0.007874 -0.000558 -1.000000 1.000000
tan 0.000000 -0.000000 -0.984252 1.000000
tan -0.966458 -0.007626 0.002046 1.000000
tan -0.958460 0.007564 -0.002170 1.000000
tan -0.964970 0.000000 0.000000 1.000000
tan -0.972348 0.000000 0.000000 1.000000
tan 0.000000 -0.000000 -1.000000 1.000000
tan 0.000000 -0.000000 -1.000000 1.000000
tan 0.000000 -0.015748 -1.000000 1.000000
tan -0.007874 -0.000000 -1.000000 1.000000
tan -0.007874 -0.000000 -1.000000 1.000000
tan -0.015748 -0.000000 -1.000000 1.000000
tan -0.007874 -0.000000 -1.000000 1.000000
tan -0.956290 -0.022568 0.001364 1.000000
tan -1.000000 0.000000 0.000000 1.000000
tan -0.974704 0.007688 0.001674 1.000000
tan -1.000000 0.000000 0.000000 1.000000
tan -0.992126 0.000000 0.000000 1.000000
tan -0.992126 0.000000 0.000000 1.000000
tan -0.992126 0.000000 0.000000 1.000000
f 3/3/3 2/2/2 1/1/1
f 6/6/6 5/5/5 4/4/4
f 9/9/9 8/8/8 7/7/7
f 11/11/11 10/10/10 9/9/9
f 14/14/14 13/13/13 12/12/12
f 16/16/16 15/15/15 14/14/14
f 19/19/19 18/18/18 17/17/17
f 20/20/20 19/19/19 17/17/17
f 23/23/23 22/22/22 21/21/21
f 24/24/24 21/21/21 22/22/22
f 24/24/24 26/26/26 25/25/25
f 27/27/27 26/26/26 24/24/24
f 30/30/30 29/29/29 28/28/28
f 29/29/29 31/31/31 28/28/28
f 29/29/29 33/33/33 32/32/32
f 33/33/33 29/29/29 34/34/34
