mtllib SM_Carpet_02_LOD2.mtl
g SM_Carpet_02_LOD2
#Vertices 64
#Indices 99
#Section 0 Offset 0 NumIndices 99 MaterialIndex 0 MI_Carpet_Inst
v -0.872125 0.003886 1.309299
v 0.790890 0.008152 1.307071
v 0.803363 0.002125 1.312628
v -0.912500 0.008260 -0.000000
v -0.883962 0.001826 1.356215
v -0.931010 0.003761 0.000028
v -0.872125 0.003886 1.309299
v -0.872125 0.003886 1.309299
v -0.890628 0.009537 -0.000000
v -0.853358 0.009537 1.298842
v -0.912500 0.008260 -0.000000
v -0.931010 0.003761 0.000028
v -0.949562 0.003515 -1.315588
v -0.966313 0.001494 -1.355853
v 0.829166 0.008260 -0.000000
v 0.790890 0.008152 1.307071
v 0.807294 0.009537 -0.000000
v 0.770024 0.009537 1.298842
v 0.847574 0.003685 0.000056
v 0.803363 0.002125 1.312628
v 0.829166 0.008260 -0.000000
v 0.790890 0.008152 1.307071
v 0.770024 0.009537 1.298842
v -0.872125 0.003886 1.309299
v -0.853358 0.009537 1.298842
v 0.790890 0.008152 1.307071
v -0.853358 0.009537 1.298842
v 0.807294 0.009537 -0.000000
v 0.770024 0.009537 1.298842
v -0.890628 0.009537 -0.000000
v -0.927823 0.009537 -1.296212
v 0.807294 0.009537 -0.000000
v 0.844489 0.009537 -1.296212
v -0.949562 0.003515 -1.315588
v 0.867291 0.004299 -1.315376
v -0.927823 0.009537 -1.296212
v -0.872125 0.003886 1.309299
v 0.803363 0.002125 1.312628
v 0.777299 0.001491 1.357934
v -0.883962 0.001826 1.356215
v -0.883962 0.001826 1.356215
v 0.777299 0.001491 1.357934
v 0.775572 0.008755 1.407267
v -0.858967 0.008749 1.407266
v -0.927823 0.009537 -1.296212
v -0.912500 0.008260 -0.000000
v -0.949562 0.003515 -1.315588
v -0.890628 0.009537 -0.000000
v 0.829166 0.008260 -0.000000
v 0.844489 0.009537 -1.296212
v 0.867291 0.004299 -1.315376
v 0.807294 0.009537 -0.000000
v 0.847574 0.003685 0.000056
v 0.867291 0.004299 -1.315376
v 0.882405 0.001676 -1.355707
v 0.829166 0.008260 -0.000000
v 0.882405 0.001676 -1.355707
v -0.949562 0.003515 -1.315588
v -0.966313 0.001494 -1.355853
v 0.867291 0.004299 -1.315376
v 0.857201 0.008757 -1.407267
v -0.966313 0.001494 -1.355853
v -0.940547 0.008757 -1.407268
v 0.882405 0.001676 -1.355707
vt 0.479492 0.533203
vt 0.815430 0.536133
vt 0.817871 0.537842
vt 0.470703 0.268066
vt 0.477051 0.542480
vt 0.466797 0.268066
vt 0.479248 0.532959
vt 0.479492 0.532959
vt 0.475098 0.268066
vt 0.483398 0.530762
vt 0.470703 0.268066
vt 0.466797 0.268066
vt 0.465820 0.001465
vt 0.462646 -0.006836
vt 0.826660 0.269531
vt 0.815430 0.536133
vt 0.822266 0.269531
vt 0.811035 0.534424
vt 0.830566 0.269531
vt 0.817871 0.537354
vt 0.826660 0.269531
vt 0.815430 0.536133
vt 0.811035 0.534424
vt 0.479492 0.532959
vt 0.483398 0.530762
vt 0.815430 0.536133
vt 0.483398 0.530762
vt 0.822266 0.269531
vt 0.811035 0.534424
vt 0.475098 0.268066
vt 0.470459 0.005371
vt 0.822266 0.269531
vt 0.828613 0.005371
vt 0.466064 0.001465
vt 0.833496 0.001465
vt 0.470459 0.005371
vt 0.080444 0.446777
vt 0.081482 0.988518
vt 0.095520 0.980530
vt 0.094971 0.442871
vt 0.095032 0.442871
vt 0.095581 0.980530
vt 0.109558 0.980423
vt 0.109558 0.450195
vt 0.470459 0.005371
vt 0.470703 0.268066
vt 0.466064 0.001465
vt 0.475098 0.268066
vt 0.826660 0.269531
vt 0.828613 0.005371
vt 0.833496 0.001465
vt 0.822266 0.269531
vt 0.830566 0.269531
vt 0.833496 0.001465
vt 0.836426 -0.006836
vt 0.826660 0.269531
vt 0.094788 0.442383
vt 0.081604 0.983871
vt 0.094910 0.988480
vt 0.081543 0.446777
vt 0.109558 0.450195
vt 0.095093 0.988449
vt 0.109558 0.980423
vt 0.094971 0.442383
vt1 0.048828 0.982742
vt1 0.779297 0.987854
vt1 0.785156 0.990898
vt1 0.029877 0.498047
vt1 0.043304 0.999636
vt1 0.021454 0.498047
vt1 0.048431 0.982086
vt1 0.048798 0.982071
vt1 0.039551 0.498047
vt1 0.057190 0.978149
vt1 0.029877 0.498047
vt1 0.021515 0.497559
vt1 0.019165 0.010742
vt1 0.012115 -0.003906
vt1 0.803711 0.500488
vt1 0.779297 0.987907
vt1 0.794434 0.500488
vt1 0.770508 0.984688
vt1 0.812500 0.500488
vt1 0.785645 0.990242
vt1 0.803711 0.500488
vt1 0.779297 0.987907
vt1 0.770508 0.984688
vt1 0.048889 0.982254
vt1 0.057190 0.978149
vt1 0.779297 0.987877
vt1 0.057190 0.978149
vt1 0.794434 0.500488
vt1 0.770508 0.984688
vt1 0.039551 0.498047
vt1 0.029114 0.018066
vt1 0.794434 0.500488
vt1 0.808594 0.017090
vt1 0.019531 0.010742
vt1 0.818848 0.010254
vt1 0.029114 0.018066
vt1 0.923828 0.018555
vt1 0.926270 0.990059
vt1 0.956055 0.975723
vt1 0.955078 0.011230
vt1 0.955078 0.010742
vt1 0.956543 0.975708
vt1 0.986328 0.975540
vt1 0.986328 0.024902
vt1 0.029114 0.018066
vt1 0.029877 0.498047
vt1 0.019470 0.010742
vt1 0.039551 0.498047
vt1 0.803711 0.500488
vt1 0.808594 0.017090
vt1 0.818848 0.010254
vt1 0.794434 0.500488
vt1 0.812500 0.500488
vt1 0.818848 0.010254
vt1 0.825684 -0.004883
vt1 0.803711 0.500488
vt1 0.874023 0.010742
vt1 0.845703 0.981705
vt1 0.874023 0.989983
vt1 0.845703 0.018066
vt1 0.905273 0.024902
vt1 0.874512 0.989922
vt1 0.905273 0.975540
vt1 0.874512 0.010742
vn 0.000000 0.606299 0.795275
vn 0.000000 0.929134 0.377953
vn 0.000000 0.228347 0.976378
vn -0.125984 0.992126 -0.000000
vn -0.685039 0.724409 -0.000000
vn -0.385827 0.921260 0.007874
vn -0.496063 0.866142 -0.000000
vn -0.488189 0.874016 -0.000000
vn 0.000000 1.000000 -0.000000
vn 0.000000 1.000000 -0.000000
vn -0.125984 0.992126 -0.000000
vn -0.385827 0.921260 0.007874
vn -0.503937 0.866142 -0.000000
vn -0.700787 0.716535 -0.000000
vn 0.125984 0.992126 -0.000000
vn 0.157480 0.984252 -0.000000
vn 0.000000 1.000000 -0.000000
vn 0.000000 1.000000 -0.000000
vn 0.385827 0.921260 0.007874
vn 0.685039 0.732283 -0.000000
vn 0.125984 0.992126 -0.000000
vn 0.165354 0.984252 -0.000000
vn 0.000000 1.000000 -0.000000
vn 0.000000 0.897638 0.448819
vn 0.000000 1.000000 -0.000000
vn 0.000000 0.937008 0.346457
vn 0.000000 1.000000 -0.000000
vn 0.000000 1.000000 -0.000000
vn 0.000000 1.000000 -0.000000
vn 0.000000 1.000000 -0.000000
vn 0.000000 1.000000 -0.000000
vn 0.000000 1.000000 -0.000000
vn 0.000000 1.000000 -0.000000
vn 0.000000 0.677165 -0.740157
vn 0.000000 0.606299 -0.795276
vn 0.000000 1.000000 -0.000000
vn 0.000000 0.330709 0.944882
vn 0.000000 0.385827 0.921260
vn 0.000000 1.000000 -0.070866
vn 0.000000 1.000000 -0.039370
vn 0.000000 0.992126 -0.086614
vn 0.000000 0.992126 -0.094488
vn 0.000000 0.992126 -0.149606
vn 0.000000 0.992126 -0.149606
vn 0.000000 1.000000 -0.000000
vn -0.125984 0.992126 -0.000000
vn -0.480315 0.874016 -0.000000
vn 0.000000 1.000000 -0.000000
vn 0.125984 0.992126 -0.000000
vn 0.000000 1.000000 -0.000000
vn 0.149606 0.992126 -0.000000
vn 0.000000 1.000000 -0.000000
vn 0.417323 0.913386 0.007874
vn 0.165354 0.984252 -0.000000
vn 0.637795 0.771653 -0.000000
vn 0.125984 0.992126 -0.000000
vn 0.000000 1.000000 0.023622
vn 0.000000 0.393701 -0.921260
vn 0.000000 1.000000 0.023622
vn 0.000000 0.393701 -0.921260
vn 0.000000 0.992126 0.149606
vn 0.000000 0.992126 0.094488
vn 0.000000 0.992126 0.149606
vn 0.000000 0.992126 0.094488
tan 0.000000 0.795275 -0.606299 1.000000
tan -0.007316 0.377953 -0.929134 1.000000
tan -0.007688 0.976378 -0.228347 1.000000
tan 0.015624 0.001984 -0.992126 1.000000
tan 0.233864 0.221154 -0.943642 1.000000
tan -0.000062 0.007874 -0.924298 1.000000
tan 0.088660 0.050778 -0.867134 1.000000
tan 0.006882 0.003844 -0.904768 1.000000
tan 0.000000 -0.000000 -1.000000 1.000000
tan 0.007874 -0.000000 -1.000000 1.000000
tan 0.000000 -0.000000 -0.992126 1.000000
tan -0.050964 -0.013392 -0.930374 1.000000
tan -0.047740 -0.027776 -0.874078 1.000000
tan -0.394941 -0.386261 -0.837126 1.000000
tan -0.007812 0.000992 -0.992126 1.000000
tan -0.015500 0.002480 -0.984252 1.000000
tan -0.015748 -0.000000 -1.000000 1.000000
tan -0.015748 -0.000000 -1.000000 1.000000
tan -0.007192 0.010912 -0.924298 1.000000
tan -0.328663 0.307458 -0.897824 1.000000
tan -0.023436 0.002976 -0.992126 1.000000
tan -0.046500 0.007812 -0.984252 1.000000
tan -0.007874 -0.000000 -1.000000 1.000000
tan -0.007068 0.448819 -0.897638 1.000000
tan -0.007874 -0.000000 -1.000000 1.000000
tan -0.007378 0.346457 -0.937008 1.000000
tan -0.007874 -0.000000 -1.000000 1.000000
tan -0.007874 -0.000000 -1.000000 1.000000
tan -0.007874 -0.000000 -1.000000 1.000000
tan -0.007874 -0.000000 -1.000000 1.000000
tan 0.000000 -0.000000 -1.000000 1.000000
tan 0.000000 -0.000000 -1.000000 1.000000
tan 0.000000 -0.000000 -1.000000 1.000000
tan 0.000000 -0.740157 -0.677165 1.000000
tan 0.000000 -0.795276 -0.606299 1.000000
tan 0.000000 -0.000000 -1.000000 1.000000
tan -0.937442 -0.126480 0.044268 1.000000
tan -0.924298 0.007254 -0.003038 1.000000
tan -1.000000 -0.002232 -0.031496 1.000000
tan -1.000000 0.000310 0.007874 1.000000
tan -0.992126 0.002728 0.031248 1.000000
tan -0.992126 0.000000 0.000000 1.000000
tan -0.992126 -0.004712 -0.031248 1.000000
tan -0.992126 0.000000 0.000000 1.000000
tan -0.007874 -0.000000 -1.000000 1.000000
tan -0.007812 -0.000992 -0.992126 1.000000
tan -0.034410 -0.018910 -0.900490 1.000000
tan 0.000000 -0.000000 -1.000000 1.000000
tan 0.000000 -0.000000 -0.992126 1.000000
tan 0.000000 -0.000000 -1.000000 1.000000
tan 0.007812 -0.001178 -0.992126 1.000000
tan -0.007874 -0.000000 -1.000000 1.000000
tan 0.036146 -0.008556 -0.923244 1.000000
tan 0.015500 -0.002604 -0.984252 1.000000
tan 0.352409 -0.291277 -0.890446 1.000000
tan -0.007812 0.000992 -0.992126 1.000000
tan 1.000000 -0.000744 0.031496 1.000000
tan 0.920206 -0.101556 -0.043400 1.000000
tan 1.000000 0.000186 -0.007874 1.000000
tan 0.927460 -0.007254 -0.003100 1.000000
tan 0.992126 -0.004712 0.031248 1.000000
tan 0.992126 0.002976 -0.031248 1.000000
tan 0.992126 0.000000 0.000000 1.000000
tan 0.992126 0.000000 0.000000 1.000000
f 3/3/3 2/2/2 1/1/1
f 6/6/6 5/5/5 4/4/4
f 7/7/7 4/4/4 5/5/5
f 10/10/10 9/9/9 8/8/8
f 11/11/11 8/8/8 9/9/9
f 11/11/11 13/13/13 12/12/12
f 14/14/14 12/12/12 13/13/13
f 17/17/17 16/16/16 15/15/15
f 18/18/18 16/16/16 17/17/17
f 21/21/21 20/20/20 19/19/19
f 22/22/22 20/20/20 21/21/21
f 25/25/25 24/24/24 23/23/23
f 26/26/26 23/23/23 24/24/24
f 29/29/29 28/28/28 27/27/27
f 30/30/30 27/27/27 28/28/28
f 30/30/30 32/32/32 31/31/31
f 33/33/33 31/31/31 32/32/32
f 33/33/33 35/35/35 34/34/34
f 36/36/36 33/33/33 34/34/34
f 39/39/39 38/38/38 37/37/37
f 40/40/40 39/39/39 37/37/37
f 43/43/43 42/42/42 41/41/41
f 44/44/44 43/43/43 41/41/41
f 47/47/47 46/46/46 45/45/45
f 48/48/48 45/45/45 46/46/46
f 51/51/51 50/50/50 49/49/49
f 52/52/52 49/49/49 50/50/50
f 55/55/55 54/54/54 53/53/53
f 56/56/56 53/53/53 54/54/54
f 59/59/59 58/58/58 57/57/57
f 60/60/60 57/57/57 58/58/58
f 63/63/63 62/62/62 61/61/61
f 64/64/64 61/61/61 62/62/62
