mtllib SM_Cup_LOD3.mtl
g SM_Cup_LOD3
#Vertices 95
#Indices 162
#Section 0 Offset 0 NumIndices 162 MaterialIndex 0 MI_Cup
v -0.029733 0.106027 -0.024445
v -0.038200 0.099211 -0.000018
v -0.046746 0.099164 -0.000270
v -0.001667 0.099195 -0.046300
v 0.039382 0.097635 -0.030336
v 0.027702 0.099200 0.027770
v 0.046925 0.099428 0.003020
v 0.031881 0.099643 0.031681
v -0.002483 0.100953 0.040140
v 0.000123 0.099527 0.046282
v -0.032034 0.099729 0.032279
v -0.028507 0.099282 0.027545
v -0.046746 0.099164 -0.000270
v -0.038200 0.099211 -0.000018
v 0.027702 0.099200 0.027770
v 0.027428 0.005674 0.022349
v 0.039382 0.097635 -0.030336
v 0.026144 0.006151 -0.022142
v -0.040570 -0.001192 0.003166
v -0.032034 0.099729 0.032279
v -0.026760 -0.000784 0.030196
v -0.046746 0.099164 -0.000270
v -0.029784 -0.000849 -0.027618
v -0.046746 0.099164 -0.000270
v -0.040570 -0.001192 0.003166
v -0.029733 0.106027 -0.024445
v -0.038200 0.099211 -0.000018
v -0.033954 0.005850 -0.002553
v -0.025816 0.006071 0.022493
v -0.028507 0.099282 0.027545
v -0.029733 0.106027 -0.024445
v -0.033954 0.005850 -0.002553
v -0.038200 0.099211 -0.000018
v -0.021473 0.005787 -0.023897
v 0.026144 0.006151 -0.022142
v 0.027428 0.005674 0.022349
v -0.000000 0.006977 0.000000
v 0.002822 0.005397 -0.034138
v 0.026144 0.006151 -0.022142
v -0.021473 0.005787 -0.023897
v 0.002822 0.005397 -0.034138
v -0.033954 0.005850 -0.002553
v -0.021473 0.005787 -0.023897
v -0.025816 0.006071 0.022493
v -0.033954 0.005850 -0.002553
v 0.027428 0.005674 0.022349
v -0.001402 0.003560 0.033483
v -0.001402 0.003560 0.033483
v -0.025816 0.006071 0.022493
v 0.004134 -0.001750 -0.040130
v -0.029784 -0.000849 -0.027618
v -0.000000 0.000000 0.000000
v -0.029784 -0.000849 -0.027618
v -0.040570 -0.001192 0.003166
v -0.040570 -0.001192 0.003166
v -0.026760 -0.000784 0.030196
v -0.026760 -0.000784 0.030196
v 0.004340 -0.001723 0.040379
v 0.004340 -0.001723 0.040379
v 0.030476 -0.001814 0.025205
v 0.030476 -0.001814 0.025205
v 0.038894 -0.000883 -0.005249
v 0.038894 -0.000883 -0.005249
v 0.030232 -0.000829 -0.026795
v 0.030232 -0.000829 -0.026795
v 0.004134 -0.001750 -0.040130
v -0.029733 0.106027 -0.024445
v -0.029784 -0.000849 -0.027618
v -0.001667 0.099195 -0.046300
v 0.004134 -0.001750 -0.040130
v 0.039382 0.097635 -0.030336
v 0.030232 -0.000829 -0.026795
v -0.028507 0.099282 0.027545
v -0.025816 0.006071 0.022493
v -0.002483 0.100953 0.040140
v -0.001402 0.003560 0.033483
v 0.027702 0.099200 0.027770
v 0.027428 0.005674 0.022349
v 0.004340 -0.001723 0.040379
v 0.031881 0.099643 0.031681
v 0.030476 -0.001814 0.025205
v 0.000123 0.099527 0.046282
v -0.026760 -0.000784 0.030196
v -0.032034 0.099729 0.032279
v -0.029733 0.106027 -0.024445
v 0.002822 0.005397 -0.034138
v -0.021473 0.005787 -0.023897
v 0.039382 0.097635 -0.030336
v 0.026144 0.006151 -0.022142
v 0.030232 -0.000829 -0.026795
v 0.046925 0.099428 0.003020
v 0.039382 0.097635 -0.030336
v 0.038894 -0.000883 -0.005249
v 0.030476 -0.001814 0.025205
v 0.031881 0.099643 0.031681
vt 0.112549 0.381348
vt 0.008186 0.375000
vt -0.000973 0.344727
vt 0.233521 0.348145
vt 0.380127 0.366211
vt 0.591797 0.376465
vt 0.480957 0.352051
vt 0.589355 0.352051
vt 0.719238 0.373535
vt 0.708984 0.348633
vt 0.826172 0.345215
vt 0.830566 0.371094
vt 0.949219 0.347168
vt 0.938477 0.374023
vt 0.346680 0.727051
vt 0.372559 0.397461
vt 0.554199 0.724121
vt 0.534180 0.398926
vt 0.912598 -0.013672
vt 0.825195 0.344238
vt 0.803711 -0.008789
vt 0.949219 0.343750
vt 0.128174 -0.010742
vt -0.000786 0.344238
vt 0.010788 -0.016602
vt 0.099609 0.366211
vt 0.032654 0.693359
vt 0.079102 0.367188
vt 0.171631 0.382324
vt 0.135010 0.709229
vt 0.786133 0.730957
vt 0.808594 0.370117
vt 0.873047 0.693359
vt 0.721191 0.382324
vt 0.124329 0.955566
vt 0.003336 0.866333
vt 0.121033 0.836304
vt 0.209595 0.917053
vt 0.128540 0.956146
vt 0.233643 0.827515
vt 0.210449 0.916809
vt 0.200684 0.747559
vt 0.233154 0.826050
vt 0.113770 0.716797
vt 0.199585 0.746338
vt 0.000028 0.864014
vt 0.030289 0.761230
vt 0.030838 0.760864
vt 0.111572 0.716553
vt 0.666992 0.816040
vt 0.752930 0.723389
vt 0.803223 0.856689
vt 0.753906 0.722900
vt 0.867676 0.729004
vt 0.868164 0.729492
vt 0.937012 0.810181
vt 0.937012 0.811035
vt 0.928223 0.924805
vt 0.927734 0.925903
vt 0.844238 0.989326
vt 0.842773 0.989403
vt 0.733398 0.976013
vt 0.733887 0.976151
vt 0.675781 0.919373
vt 0.675293 0.918640
vt 0.666992 0.816528
vt 0.114624 0.365723
vt 0.130249 -0.009766
vt 0.232300 0.345703
vt 0.262695 -0.009766
vt 0.382568 0.342773
vt 0.369141 -0.004883
vt 0.133789 0.708984
vt 0.170044 0.382324
vt 0.232910 0.725830
vt 0.266357 0.383789
vt 0.347412 0.727051
vt 0.375244 0.398438
vt 0.683105 -0.009766
vt 0.589844 0.349121
vt 0.573242 -0.008789
vt 0.708008 0.346680
vt 0.803223 -0.008789
vt 0.827148 0.344238
vt 0.775879 0.733398
vt 0.626465 0.391602
vt 0.719727 0.382812
vt 0.526855 0.725830
vt 0.533691 0.399414
vt 0.369629 -0.004883
vt 0.482910 0.349121
vt 0.369873 0.343262
vt 0.454102 -0.004883
vt 0.572754 -0.008789
vt 0.590820 0.349121
vt1 0.216797 0.877686
vt1 0.298828 0.906128
vt1 0.298340 0.929260
vt1 0.149658 0.782104
vt1 0.196411 0.649170
vt1 0.393555 0.684082
vt1 0.307373 0.627441
vt1 0.402100 0.673584
vt1 0.434570 0.785767
vt1 0.449219 0.776611
vt1 0.402832 0.880188
vt1 0.390625 0.874512
vt1 0.298584 0.930054
vt1 0.298828 0.906189
vt1 -0.000042 0.680420
vt1 0.016678 0.352051
vt1 0.181641 0.675537
vt1 0.166504 0.354004
vt1 0.512207 -0.000977
vt1 0.419434 0.350098
vt1 0.421631 0.000000
vt1 0.526367 0.348145
vt1 0.621094 0.000000
vt1 0.527344 0.348145
vt1 0.514648 -0.000977
vt1 0.615234 0.371094
vt1 0.685059 0.680420
vt1 0.676270 0.353516
vt1 0.762695 0.354004
vt1 0.775879 0.680664
vt1 0.604492 0.704102
vt1 0.673828 0.353027
vt1 0.685059 0.680420
vt1 0.599609 0.352539
vt1 -1.547852 0.122559
vt1 3.351562 0.268555
vt1 0.500000 1.000000
vt1 -1.618164 0.128906
vt1 1.278320 -0.015625
vt1 -0.731445 0.080566
vt1 2.291016 0.074707
vt1 -1.630859 0.137207
vt1 1.126953 0.041504
vt1 -1.664062 0.136230
vt1 1.256836 -0.011719
vt1 -0.404297 -0.043945
vt1 2.962891 0.217285
vt1 -1.713867 0.168945
vt1 1.218750 -0.018555
vt1 -1.351562 0.095703
vt1 2.117188 0.060059
vt1 0.500000 1.000000
vt1 -1.758789 0.155273
vt1 1.305664 -0.012695
vt1 -1.636719 0.130859
vt1 1.234375 -0.007812
vt1 -0.755859 0.028809
vt1 2.371094 0.092285
vt1 -1.516602 0.114746
vt1 1.337891 0.019043
vt1 -1.494141 0.146484
vt1 1.494141 0.036133
vt1 -0.473633 0.034180
vt1 1.757812 0.027832
vt1 -0.234619 -0.009766
vt1 2.535156 0.124512
vt1 0.630371 0.371094
vt1 0.635254 0.000000
vt1 0.734863 0.348145
vt1 0.755371 -0.002930
vt1 0.868164 0.343262
vt1 0.844238 0.000000
vt1 0.409912 0.680908
vt1 0.413086 0.354004
vt1 0.492676 0.686523
vt1 0.499268 0.345215
vt1 0.593262 0.680420
vt1 0.594727 0.353027
vt1 0.335938 0.357910
vt1 0.426025 0.003906
vt1 0.427246 0.358398
vt1 0.320312 0.004395
vt1 0.227173 0.354492
vt1 0.214355 0.003906
vt1 0.772461 0.325684
vt1 0.877930 0.678955
vt1 0.794922 0.677490
vt1 0.992188 0.354980
vt1 0.960449 0.676025
vt1 0.013161 0.000000
vt1 0.116333 0.349121
vt1 0.013481 0.343750
vt1 0.087524 0.000000
vt1 0.193481 -0.003906
vt1 0.210083 0.350098
vn 0.456693 0.393701 0.795275
vn 0.669291 0.740157 0.047244
vn -0.700787 0.708661 -0.047244
vn -0.039370 0.763779 -0.645669
vn -0.062992 0.976378 0.196850
vn -0.551181 0.598425 -0.582677
vn 0.566929 0.811023 0.110236
vn 0.362205 0.818898 0.440945
vn 0.070866 0.724409 -0.685039
vn 0.000000 0.811024 0.582677
vn -0.472441 0.771653 0.425197
vn 0.661417 0.661417 -0.354331
vn -0.559055 0.826772 0.039370
vn 0.677165 0.732283 -0.039370
vn -0.637795 0.409449 -0.653543
vn -0.803150 0.062992 -0.590551
vn -0.740157 0.338583 0.582677
vn -0.771654 0.062992 0.629921
vn -0.984252 -0.094488 0.118110
vn -0.653543 0.362205 0.669291
vn -0.661417 -0.094488 0.748031
vn -0.937008 0.354331 -0.007874
vn -0.748031 -0.094488 -0.653543
vn -0.937008 0.362205 -0.000000
vn -0.992126 -0.094488 0.078740
vn -0.724409 0.401575 -0.566929
vn 0.913386 0.409449 -0.000000
vn 0.992126 0.070866 0.078740
vn 0.779528 0.062992 -0.622047
vn 0.653543 0.401575 -0.645669
vn 0.692913 0.433071 0.574803
vn 0.992126 0.070866 0.110236
vn 0.913386 0.409449 -0.000000
vn 0.677165 0.070866 0.732283
vn -0.181102 0.976378 0.141732
vn -0.181102 0.968504 -0.141732
vn 0.000000 1.000000 -0.000000
vn -0.023622 0.976378 0.228346
vn -0.173228 0.968504 0.149606
vn 0.149606 0.976378 0.165354
vn -0.015748 0.976378 0.236220
vn 0.228346 0.976378 0.015748
vn 0.149606 0.976378 0.157480
vn 0.173228 0.976378 -0.149606
vn 0.228346 0.976378 0.015748
vn -0.188976 0.968504 -0.157480
vn 0.007874 0.976378 -0.228347
vn 0.007874 0.976378 -0.228347
vn 0.173228 0.976378 -0.157480
vn 0.015748 -0.984252 -0.196850
vn -0.141732 -0.984252 -0.133858
vn 0.000000 -1.000000 0.000000
vn -0.141732 -0.984252 -0.133858
vn -0.196850 -0.984252 0.015748
vn -0.196850 -0.984252 0.015748
vn -0.125984 -0.984252 0.149606
vn -0.125984 -0.984252 0.149606
vn 0.023622 -0.984252 0.196850
vn 0.023622 -0.984252 0.196850
vn 0.149606 -0.984252 0.125984
vn 0.149606 -0.984252 0.118110
vn 0.188976 -0.984252 -0.023622
vn 0.188976 -0.984252 -0.023622
vn 0.149606 -0.984252 -0.125984
vn 0.149606 -0.984252 -0.133858
vn 0.023622 -0.984252 -0.196850
vn -0.669291 0.385827 -0.629921
vn -0.700787 -0.094488 -0.708661
vn -0.031496 0.362205 -0.929134
vn 0.125984 -0.094488 -0.984252
vn 0.763780 0.330709 -0.551181
vn 0.748031 -0.094488 -0.661417
vn 0.661417 0.409449 -0.629921
vn 0.748031 0.070866 -0.661417
vn 0.062992 0.401575 -0.913386
vn 0.000000 0.055118 -1.000000
vn -0.653543 0.401575 -0.645669
vn -0.779528 0.062992 -0.622047
vn 0.125984 -0.094488 0.984252
vn 0.661417 0.362205 0.653543
vn 0.763780 -0.094488 0.637795
vn 0.000000 0.362205 0.929134
vn -0.645669 -0.094488 0.763779
vn -0.661417 0.362205 0.653543
vn 0.669291 0.409449 0.622047
vn -0.047244 0.062992 1.000000
vn 0.661417 0.070866 0.740157
vn -0.740157 0.314961 0.590551
vn -0.755906 0.070866 0.653543
vn 0.763780 -0.094488 -0.637795
vn 0.937008 0.354331 0.062992
vn 0.716535 0.362205 -0.598425
vn 0.984252 -0.094488 -0.133858
vn 0.771654 -0.102362 0.629921
vn 0.661417 0.362205 0.661417
tan -0.080724 0.861864 -0.380309 1.000000
tan -0.739413 0.671523 -0.045508 1.000000
tan -0.708661 -0.700415 0.005580 1.000000
tan -0.012028 -0.646289 -0.763779 1.000000
tan 0.622729 0.192076 -0.753425 1.000000
tan 0.382169 0.800174 0.460289 1.000000
tan 0.811024 -0.569533 0.019158 1.000000
tan 0.525265 -0.570649 0.628309 1.000000
tan 0.011718 0.683365 0.723851 1.000000
tan -0.006386 -0.582677 0.811024 1.000000
tan -0.617025 -0.633517 0.464133 1.000000
tan -0.609337 0.746047 0.255192 1.000000
tan -0.826772 -0.560605 0.032550 1.000000
tan -0.731353 0.679025 0.050592 1.000000
tan -0.380867 -0.904706 -0.195114 1.000000
tan -0.159154 -0.877178 0.122884 1.000000
tan -0.415525 -0.880402 -0.016244 1.000000
tan -0.197408 -0.910410 -0.150784 1.000000
tan 0.096348 -0.983322 0.016244 1.000000
tan -0.335731 -0.926902 0.173786 1.000000
tan -0.121706 -0.962180 -0.229152 1.000000
tan -0.354765 -0.937132 0.046066 1.000000
tan -0.088660 -0.878790 0.228533 1.000000
tan -0.362205 -0.937008 -0.036890 1.000000
tan 0.094488 -0.992126 0.000000 1.000000
tan -0.390415 -0.897018 -0.136524 1.000000
tan 0.406225 -0.906194 -0.122264 1.000000
tan 0.082150 -0.976502 -0.156240 1.000000
tan -0.302065 -0.733833 -0.452849 1.000000
tan 0.144584 -0.870606 -0.395127 1.000000
tan 0.201934 -0.850828 0.397607 1.000000
tan 0.054684 -0.984314 0.140616 1.000000
tan 0.406225 -0.906194 0.122264 1.000000
tan -0.490483 -0.698617 0.521173 1.000000
tan -0.814930 -0.229276 0.538161 1.000000
tan -0.831236 -0.082894 0.495691 1.000000
tan -0.795276 0.000000 0.606299 1.000000
tan -0.661169 -0.183210 0.714985 1.000000
tan -0.770228 -0.228470 0.587203 1.000000
tan -0.791866 0.024986 0.568913 1.000000
tan -0.661169 -0.183644 0.714985 1.000000
tan -0.868746 0.195982 0.445905 1.000000
tan -0.791866 0.028334 0.576601 1.000000
tan -0.768802 0.228285 0.599665 1.000000
tan -0.853370 0.191890 0.476657 1.000000
tan -0.800732 -0.068200 0.541447 1.000000
tan -0.661169 0.172546 0.714985 1.000000
tan -0.661169 0.172546 0.714985 1.000000
tan -0.768802 0.233121 0.599665 1.000000
tan -0.868002 0.077562 -0.457251 1.000000
tan -0.883502 0.186248 -0.434001 1.000000
tan -0.921260 -0.000000 -0.385827 1.000000
tan -0.891252 0.185256 -0.418501 1.000000
tan -0.937752 0.182838 -0.294501 1.000000
tan -0.945502 0.184884 -0.263501 1.000000
tan -0.930002 0.069564 -0.325501 1.000000
tan -0.930002 0.070742 -0.317751 1.000000
tan -0.852502 -0.118110 -0.488251 1.000000
tan -0.852502 -0.118110 -0.488251 1.000000
tan -0.899002 -0.188232 -0.403001 1.000000
tan -0.899002 -0.185008 -0.403001 1.000000
tan -0.937752 -0.172980 -0.294501 1.000000
tan -0.937752 -0.172794 -0.302251 1.000000
tan -0.937752 -0.103850 -0.302251 1.000000
tan -0.937752 -0.100378 -0.310001 1.000000
tan -0.883502 0.064046 -0.426251 1.000000
tan -0.331329 -0.917602 -0.209994 1.000000
tan -0.147684 -0.846053 0.258851 1.000000
tan -0.007316 -0.929134 -0.361957 1.000000
tan -0.015500 -0.984252 0.092504 1.000000
tan 0.267345 -0.918966 -0.180916 1.000000
tan -0.126480 -0.979168 -0.003162 1.000000
tan 0.156240 -0.895282 -0.417881 1.000000
tan -0.433195 -0.695579 -0.564449 1.000000
tan -0.010354 -0.912890 -0.402071 1.000000
tan -0.062992 -1.000000 -0.055118 1.000000
tan -0.311365 -0.915246 -0.254076 1.000000
tan -0.236282 -0.921322 0.202802 1.000000
tan -0.007750 -0.984252 -0.093496 1.000000
tan 0.201252 -0.926406 0.309753 1.000000
tan -0.124248 -0.970860 0.004960 1.000000
tan 0.000000 -0.929134 0.362205 1.000000
tan -0.069378 -0.882076 -0.167772 1.000000
tan -0.286441 -0.926468 0.223573 1.000000
tan -0.123256 -0.761547 0.633889 1.000000
tan -0.007874 -1.000000 0.062620 1.000000
tan -0.472193 -0.719573 0.490855 1.000000
tan -0.326741 -0.938496 0.091016 1.000000
tan -0.258169 -0.937256 -0.196974 1.000000
tan -0.107322 -0.881332 0.002046 1.000000
tan 0.354827 -0.936512 -0.010168 1.000000
tan 0.299585 -0.917478 -0.196602 1.000000
tan -0.094488 -0.984252 0.000000 1.000000
tan -0.126480 -0.932482 0.003410 1.000000
tan 0.241056 -0.937442 0.272305 1.000000
f 3/3/3 2/2/2 1/1/1
f 1/1/1 5/5/5 4/4/4
f 7/7/7 5/5/5 6/6/6
f 6/6/6 8/8/8 7/7/7
f 8/8/8 6/6/6 9/9/9
f 8/8/8 9/9/9 10/10/10
f 9/9/9 11/11/11 10/10/10
f 9/9/9 12/12/12 11/11/11
f 12/12/12 13/13/13 11/11/11
f 13/13/13 12/12/12 14/14/14
f 17/17/17 16/16/16 15/15/15
f 16/16/16 17/17/17 18/18/18
f 21/21/21 20/20/20 19/19/19
f 22/22/22 19/19/19 20/20/20
f 25/25/25 24/24/24 23/23/23
f 24/24/24 26/26/26 23/23/23
f 29/29/29 28/28/28 27/27/27
f 30/30/30 29/29/29 27/27/27
f 33/33/33 32/32/32 31/31/31
f 34/34/34 31/31/31 32/32/32
f 37/37/37 36/36/36 35/35/35
f 37/37/37 39/39/39 38/38/38
f 37/37/37 41/41/41 40/40/40
f 37/37/37 43/43/43 42/42/42
f 37/37/37 45/45/45 44/44/44
f 37/37/37 47/47/47 46/46/46
f 37/37/37 49/49/49 48/48/48
f 52/52/52 51/51/51 50/50/50
f 52/52/52 54/54/54 53/53/53
f 52/52/52 56/56/56 55/55/55
f 52/52/52 58/58/58 57/57/57
f 52/52/52 60/60/60 59/59/59
f 52/52/52 62/62/62 61/61/61
f 52/52/52 64/64/64 63/63/63
f 52/52/52 66/66/66 65/65/65
f 69/69/69 68/68/68 67/67/67
f 70/70/70 68/68/68 69/69/69
f 69/69/69 71/71/71 70/70/70
f 72/72/72 70/70/70 71/71/71
f 75/75/75 74/74/74 73/73/73
f 76/76/76 74/74/74 75/75/75
f 75/75/75 77/77/77 76/76/76
f 78/78/78 76/76/76 77/77/77
f 81/81/81 80/80/80 79/79/79
f 80/80/80 82/82/82 79/79/79
f 79/79/79 82/82/82 83/83/83
f 84/84/84 83/83/83 82/82/82
f 87/87/87 86/86/86 85/85/85
f 88/88/88 85/85/85 86/86/86
f 89/89/89 88/88/88 86/86/86
f 92/92/92 91/91/91 90/90/90
f 93/93/93 90/90/90 91/91/91
f 94/94/94 93/93/93 91/91/91
f 95/95/95 94/94/94 91/91/91
