mtllib SM_Chest_LOD4.mtl
g SM_Chest_LOD4
#Vertices 120
#Indices 258
#Section 0 Offset 0 NumIndices 258 MaterialIndex 0 MI_Chest
v 0.161058 -0.000030 -0.102022
v 0.160483 0.124834 -0.103232
v 0.106439 0.127589 -0.103936
v 0.105318 0.000005 -0.105928
v -0.094889 -0.000080 0.106018
v -0.152568 0.125747 0.102704
v -0.098914 0.127172 0.104353
v -0.152728 0.000342 0.102713
v 0.080771 -0.000004 -0.103779
v 0.080414 0.125105 -0.103401
v -0.073332 0.128326 -0.102012
v -0.074377 0.000030 -0.103407
v -0.094889 -0.000080 0.106018
v -0.072138 0.125233 0.103418
v -0.072158 0.000004 0.103267
v -0.098914 0.127172 0.104353
v 0.105318 0.000005 -0.105928
v 0.106439 0.127589 -0.103936
v 0.080414 0.125105 -0.103401
v 0.080771 -0.000004 -0.103779
v -0.074377 0.000030 -0.103407
v -0.073332 0.128326 -0.102012
v -0.099566 0.129806 -0.103268
v -0.098734 -0.000024 -0.103936
v -0.154203 -0.000022 -0.100568
v -0.147832 0.121347 -0.101514
v -0.154151 0.124363 -0.095348
v -0.152728 0.000342 0.102713
v -0.152568 0.125747 0.102704
v 0.107911 0.131755 0.103698
v 0.106116 -0.000054 0.103400
v 0.082785 0.000011 0.103348
v 0.085181 0.134289 0.101653
v 0.079688 0.121419 0.102055
v 0.081758 0.188687 -0.093691
v -0.072405 0.125389 -0.103378
v 0.078535 0.125053 -0.103562
v -0.073408 0.207946 -0.077357
v 0.080556 0.214482 -0.047157
v -0.072533 0.215607 0.049715
v 0.082198 0.213499 0.050797
v 0.079458 0.182831 0.095451
v -0.070475 0.174800 0.098155
v -0.070715 0.125064 0.103473
v 0.080431 0.125127 0.103407
v 0.107239 0.125309 -0.105566
v 0.081758 0.188687 -0.093691
v 0.078535 0.125053 -0.103562
v 0.105109 0.210212 -0.081065
v 0.080556 0.214482 -0.047157
v 0.105867 0.210954 0.079907
v 0.082198 0.213499 0.050797
v 0.079458 0.182831 0.095451
v 0.080431 0.125127 0.103407
v 0.108876 0.125126 0.102856
v -0.070475 0.174800 0.098155
v -0.070715 0.125064 0.103473
v -0.099540 0.125497 0.105022
v -0.096935 0.209197 0.081194
v -0.072533 0.215607 0.049715
v -0.073408 0.207946 -0.077357
v -0.096862 0.212805 -0.078378
v -0.072405 0.125389 -0.103378
v -0.100874 0.125123 -0.102852
v 0.155852 0.121348 0.101510
v 0.107911 0.131755 0.103698
v 0.162230 0.124548 0.096010
v 0.106116 -0.000054 0.103400
v 0.162396 0.000001 0.099725
v 0.162230 0.124548 0.096010
v 0.160483 0.124834 -0.103232
v 0.161058 -0.000030 -0.102022
v 0.162396 0.000001 0.099725
v 0.155852 0.121348 0.101510
v -0.147832 0.121347 -0.101514
v -0.099566 0.129806 -0.103268
v -0.154151 0.124363 -0.095348
v -0.154203 -0.000022 -0.100568
v -0.098734 -0.000024 -0.103936
v 0.079688 0.121419 0.102055
v 0.082785 0.000011 0.103348
v -0.072158 0.000004 0.103267
v -0.072138 0.125233 0.103418
v 0.085181 0.134289 0.101653
v 0.162641 0.125106 0.100169
v 0.108876 0.125126 0.102856
v 0.105867 0.210954 0.079907
v 0.154229 0.165302 0.098050
v 0.155700 0.213963 0.054146
v 0.105109 0.210212 -0.081065
v 0.156632 0.211367 -0.060962
v 0.153407 0.173342 -0.098338
v 0.160577 0.125231 -0.103997
v 0.107239 0.125309 -0.105566
v -0.099540 0.125497 0.105022
v -0.152710 0.125778 0.103793
v -0.096935 0.209197 0.081194
v -0.148980 0.190272 0.092110
v -0.146938 0.213946 0.042728
v -0.096862 0.212805 -0.078378
v -0.147707 0.212499 -0.053623
v -0.146645 0.178778 -0.093766
v -0.154183 0.125319 -0.101996
v -0.100874 0.125123 -0.102852
v 0.160577 0.125231 -0.103997
v 0.161176 0.202357 -0.066137
v 0.153407 0.173342 -0.098338
v 0.162641 0.125106 0.100169
v 0.156632 0.211367 -0.060962
v 0.162714 0.203083 0.065613
v 0.154229 0.165302 0.098050
v 0.155700 0.213963 0.054146
v -0.154183 0.125319 -0.101996
v -0.146645 0.178778 -0.093766
v -0.154473 0.202363 -0.060460
v -0.147707 0.212499 -0.053623
v -0.152710 0.125778 0.103793
v -0.146938 0.213946 0.042728
v -0.153178 0.205865 0.043959
v -0.148980 0.190272 0.092110
vt 0.478271 0.601807
vt 0.683105 0.603027
vt 0.687012 0.691650
vt 0.478271 0.693604
vt 0.465820 0.757446
vt 0.259033 0.852295
vt 0.257324 0.764038
vt 0.465088 0.852539
vt 0.468262 0.356445
vt 0.667969 0.359863
vt 0.684570 0.605957
vt 0.468506 0.618164
vt 0.958984 0.772949
vt 0.919922 0.978958
vt 0.915527 0.773315
vt 0.967285 0.981873
vt 0.891602 0.000488
vt 0.896973 0.211426
vt 0.851074 0.206543
vt 0.847656 0.001953
vt 0.964355 0.546143
vt 0.967773 0.756836
vt 0.920898 0.759399
vt 0.920898 0.545898
vt 0.470703 0.356445
vt 0.260742 0.354004
vt 0.259033 0.338379
vt 0.455322 0.007812
vt 0.257324 0.026367
vt 0.457520 0.373535
vt 0.458740 0.589844
vt 0.416260 0.590088
vt 0.417480 0.370117
vt 0.406494 0.389160
vt -0.003284 0.427246
vt 0.250732 0.528809
vt 0.002716 0.531250
vt 0.251465 0.389648
vt -0.001473 0.343262
vt 0.249878 0.184570
vt -0.004372 0.183105
vt -0.000014 0.096680
vt 0.246216 0.082031
vt 0.245972 0.000488
vt -0.002375 0.002441
vt 0.703613 0.966125
vt 0.747559 0.859985
vt 0.753418 0.966553
vt 0.708008 0.824829
vt 0.749023 0.771118
vt 0.707031 0.564941
vt 0.748047 0.608398
vt 0.752441 0.518311
vt 0.751465 0.422363
vt 0.702148 0.422363
vt 0.968750 0.461914
vt 0.971680 0.545166
vt 0.921387 0.544678
vt 0.925293 0.403320
vt 0.967285 0.355469
vt 0.965332 0.145508
vt 0.928223 0.147461
vt 0.970215 0.001465
vt 0.920410 0.000977
vt 0.604492 0.765747
vt 0.620117 0.687012
vt 0.616699 0.776733
vt 0.405273 0.684082
vt 0.405273 0.776611
vt 0.680176 0.027344
vt 0.670898 0.345703
vt 0.470947 0.350098
vt 0.470947 0.008789
vt 0.677246 0.012695
vt 0.677734 0.842041
vt 0.690918 0.762695
vt 0.684570 0.852905
vt 0.478271 0.852539
vt 0.478027 0.761353
vt 0.050171 0.530762
vt 0.249634 0.525879
vt 0.249634 0.780396
vt 0.043854 0.780273
vt 0.039062 0.521973
vt 0.748535 0.410156
vt 0.836914 0.409180
vt 0.841309 0.548584
vt 0.762207 0.476074
vt 0.759277 0.583496
vt 0.840820 0.800293
vt 0.756348 0.771484
vt 0.761230 0.858276
vt 0.749512 0.937561
vt 0.836914 0.937988
vt 0.836426 0.302734
vt 0.923828 0.303711
vt 0.832520 0.439941
vt 0.916992 0.410156
vt 0.913574 0.498535
vt 0.829590 0.689941
vt 0.913574 0.656250
vt 0.911621 0.741943
vt 0.923828 0.830444
vt 0.836426 0.831055
vt 0.685059 0.415527
vt 0.811035 0.352051
vt 0.767090 0.409668
vt 0.684570 0.077148
vt 0.827637 0.344238
vt 0.812988 0.136230
vt 0.754395 0.075684
vt 0.835449 0.152832
vt 0.403809 0.709229
vt 0.311768 0.699951
vt 0.276611 0.639893
vt 0.255127 0.629395
vt 0.401855 0.368164
vt 0.254150 0.469238
vt 0.271240 0.468262
vt 0.296875 0.390625
vt1 0.395020 0.264648
vt1 0.587402 0.265625
vt1 0.591309 0.349121
vt1 0.395020 0.351074
vt1 0.700195 0.250488
vt1 0.611328 0.056152
vt1 0.693848 0.054199
vt1 0.610840 0.249512
vt1 0.878906 0.783569
vt1 0.875488 0.971527
vt1 0.643555 0.987076
vt1 0.632324 0.783691
vt1 0.857910 0.020508
vt1 0.820801 0.214355
vt1 0.816895 0.020508
vt1 0.865723 0.217285
vt1 0.222900 0.062988
vt1 0.024521 0.067871
vt1 0.029114 0.024414
vt1 0.221558 0.021484
vt1 0.463379 0.064453
vt1 0.265137 0.067871
vt1 0.262695 0.023926
vt1 0.463623 0.023438
vt1 0.272705 0.992214
vt1 0.275391 0.794434
vt1 0.289795 0.792847
vt1 0.601074 0.977783
vt1 0.583496 0.791260
vt1 0.437744 0.143555
vt1 0.234009 0.144531
vt1 0.233887 0.104980
vt1 0.440918 0.105957
vt1 0.422852 0.095703
vt1 0.004974 0.894104
vt1 0.243774 0.989456
vt1 0.010612 0.991905
vt1 0.244385 0.858887
vt1 0.006676 0.814941
vt1 0.242920 0.666016
vt1 0.003952 0.664551
vt1 0.008049 0.583252
vt1 0.239502 0.569336
vt1 0.239258 0.492676
vt1 0.005829 0.494629
vt1 0.823242 0.765137
vt1 0.864258 0.665039
vt1 0.870117 0.765503
vt1 0.827637 0.632080
vt1 0.865723 0.581543
vt1 0.826660 0.387695
vt1 0.865234 0.428223
vt1 0.869141 0.343750
vt1 0.868164 0.253418
vt1 0.821777 0.253418
vt1 0.947754 0.912781
vt1 0.950684 0.991150
vt1 0.902832 0.990654
vt1 0.906738 0.857666
vt1 0.946289 0.812622
vt1 0.944824 0.614990
vt1 0.909180 0.616943
vt1 0.949219 0.479492
vt1 0.902344 0.479004
vt1 0.582520 0.250000
vt1 0.597168 0.176270
vt1 0.593262 0.260254
vt1 0.395020 0.173340
vt1 0.395020 0.260254
vt1 0.204834 0.164062
vt1 0.196411 0.463379
vt1 0.008041 0.467773
vt1 0.008141 0.146973
vt1 0.202271 0.150391
vt1 0.717285 0.234863
vt1 0.791992 0.247559
vt1 0.707520 0.241699
vt1 0.707520 0.047363
vt1 0.793457 0.047363
vt1 0.410156 0.373535
vt1 0.597656 0.368652
vt1 0.597656 0.608154
vt1 0.404297 0.607910
vt1 0.399902 0.365234
vt1 0.704590 0.269531
vt1 0.787598 0.269043
vt1 0.791992 0.399902
vt1 0.717285 0.331543
vt1 0.714355 0.432617
vt1 0.791504 0.636475
vt1 0.711914 0.609375
vt1 0.716797 0.690918
vt1 0.705566 0.765625
vt1 0.787598 0.765991
vt1 0.620117 0.269531
vt1 0.701660 0.270508
vt1 0.616211 0.398438
vt1 0.695801 0.370605
vt1 0.692383 0.453613
vt1 0.613281 0.633545
vt1 0.692383 0.601807
vt1 0.690430 0.682129
vt1 0.702148 0.765381
vt1 0.619629 0.765991
vt1 0.378174 0.501221
vt1 0.259521 0.441895
vt1 0.301025 0.496094
vt1 0.378418 0.183105
vt1 0.243896 0.434570
vt1 0.257568 0.238770
vt1 0.312744 0.182129
vt1 0.236816 0.254395
vt1 0.272461 0.765625
vt1 0.281006 0.679199
vt1 0.337646 0.646240
vt1 0.347412 0.625977
vt1 0.592773 0.763916
vt1 0.498047 0.625244
vt1 0.499023 0.641113
vt1 0.571777 0.665283
vn 0.015748 -0.000000 -1.000000
vn 0.015748 0.031496 -1.000000
vn -0.007874 0.055118 -1.000000
vn -0.007874 -0.000000 -1.000000
vn 0.007874 0.000000 1.000000
vn -0.015748 0.047244 1.000000
vn 0.015748 0.086614 0.992126
vn -0.015748 0.000000 1.000000
vn -0.007874 -0.000000 -1.000000
vn -0.007874 0.094488 -0.992126
vn -0.007874 0.055118 -1.000000
vn -0.007874 -0.000000 -1.000000
vn -0.291339 0.007874 0.960630
vn 0.440945 0.039370 0.897638
vn 0.905512 0.000000 0.425197
vn -0.527559 0.094488 0.842520
vn 0.267717 0.007874 -0.960630
vn 0.488189 0.086614 -0.866142
vn -0.330709 0.047244 -0.944882
vn -0.527559 -0.007874 -0.850394
vn 0.291339 0.007874 -0.952756
vn 0.543307 0.102362 -0.834646
vn -0.330709 0.070866 -0.944882
vn -0.417323 -0.000000 -0.913386
vn -1.000000 -0.000000 -0.055118
vn -0.023622 0.007874 -1.000000
vn -1.000000 0.031496 -0.007874
vn -1.000000 0.000000 0.039370
vn -0.992126 0.055118 0.070866
vn 0.322835 0.070866 0.944882
vn 0.401575 0.000000 0.913386
vn -0.299213 0.007874 0.952756
vn -0.322835 0.125984 0.937008
vn -0.944882 0.000000 0.322835
vn 0.000000 0.543307 -0.842520
vn -0.015748 -0.031496 -1.000000
vn 0.000000 -0.000000 -1.000000
vn -0.015748 0.858268 -0.511811
vn 0.007874 0.992126 -0.125984
vn -0.007874 0.984252 0.157480
vn 0.007874 0.984252 0.181102
vn 0.015748 0.480315 0.881890
vn 0.000000 0.409449 0.913386
vn 0.000000 0.000000 1.000000
vn 0.015748 0.000000 1.000000
vn 0.299213 -0.007874 -0.952756
vn -0.204724 0.535433 -0.818898
vn -0.440945 -0.007874 -0.897638
vn 0.259843 0.811023 -0.519685
vn -0.236220 0.960630 -0.118110
vn 0.196850 0.842520 0.496063
vn -0.291339 0.929134 0.236220
vn -0.354331 0.480315 0.803149
vn -0.283465 0.007874 0.960630
vn 0.448819 -0.007874 0.897638
vn 0.228346 0.385827 0.897638
vn 0.409449 -0.023622 0.913386
vn -0.291339 -0.007874 0.960630
vn -0.228346 0.850394 0.464567
vn 0.275591 0.937008 0.204724
vn 0.228346 0.874016 -0.433071
vn -0.275591 0.787401 -0.559055
vn 0.267717 -0.007874 -0.960630
vn -0.448819 -0.007874 -0.897638
vn 0.023622 0.007874 1.000000
vn 0.000000 0.220473 0.976378
vn 0.023622 0.858268 0.519685
vn 0.000000 0.000000 1.000000
vn 0.023622 0.000000 1.000000
vn 1.000000 0.031496 0.007874
vn 1.000000 0.055118 -0.062992
vn 1.000000 -0.000000 -0.039370
vn 1.000000 0.000000 0.047244
vn 0.023622 0.007874 1.000000
vn -0.023622 0.007874 -1.000000
vn -0.007874 0.102362 -0.992126
vn -0.055118 0.732283 -0.677165
vn -0.023622 -0.007874 -1.000000
vn 0.000000 -0.000000 -1.000000
vn 0.007874 0.007874 1.000000
vn 0.007874 0.000000 1.000000
vn 0.007874 0.000000 1.000000
vn 0.007874 0.102362 0.992126
vn 0.007874 0.850394 0.527559
vn 0.039370 -0.047244 1.000000
vn -0.023622 0.000000 1.000000
vn -0.023622 0.834646 0.543307
vn 0.031496 0.307087 0.952756
vn 0.023622 0.976378 0.220472
vn -0.031496 0.874016 -0.488189
vn 0.023622 0.952756 -0.299213
vn 0.015748 0.401575 -0.913386
vn 0.023622 -0.023622 -1.000000
vn -0.039370 -0.000000 -1.000000
vn 0.039370 0.000000 1.000000
vn -0.023622 -0.023622 1.000000
vn 0.039370 0.818898 0.574803
vn -0.015748 0.598425 0.803149
vn -0.023622 0.992126 0.086614
vn 0.031496 0.889764 -0.456693
vn -0.023622 0.968504 -0.244095
vn -0.031496 0.472441 -0.881890
vn -0.039370 -0.039370 -1.000000
vn 0.023622 -0.000000 -1.000000
vn 1.000000 -0.007874 -0.062992
vn 1.000000 0.015748 -0.007874
vn 0.047244 0.417323 -0.905512
vn 1.000000 0.000000 0.023622
vn 0.559055 0.795275 -0.236221
vn 1.000000 0.086614 0.023622
vn 0.031496 0.307087 0.952756
vn 0.204724 0.944882 0.251968
vn -1.000000 -0.000000 -0.047244
vn -0.125984 0.448819 -0.881890
vn -1.000000 0.031496 -0.000000
vn -0.196850 0.944882 -0.251969
vn -1.000000 0.007874 0.055118
vn -0.346457 0.929134 0.118110
vn -1.000000 0.000000 0.007874
vn -0.755906 0.417323 0.496063
tan 1.000000 0.000000 0.015748 1.000000
tan 1.000000 -0.007874 0.015500 1.000000
tan 1.000000 -0.007874 -0.008308 1.000000
tan 1.000000 -0.000000 -0.007874 1.000000
tan 1.000000 -0.000000 -0.007874 1.000000
tan 1.000000 0.007874 0.015376 1.000000
tan 0.992126 0.007812 -0.016430 1.000000
tan 1.000000 0.000000 0.015748 1.000000
tan 1.000000 -0.007874 -0.007874 1.000000
tan 0.992126 0.062496 -0.001922 1.000000
tan 0.992126 0.118110 -0.001302 1.000000
tan 1.000000 0.015748 -0.007874 1.000000
tan 0.264679 -0.925104 0.087854 1.000000
tan -0.444355 -0.787897 0.252837 1.000000
tan -0.318061 -0.612747 0.677351 1.000000
tan 0.495319 -0.695765 0.388183 1.000000
tan 0.053072 -0.964846 0.006882 1.000000
tan -0.320541 -0.836382 -0.264306 1.000000
tan 0.155124 -0.937814 -0.101184 1.000000
tan 0.209250 -0.915680 -0.121334 1.000000
tan -0.292393 -0.914626 -0.096968 1.000000
tan -0.615351 -0.571455 -0.470643 1.000000
tan 0.401761 -0.855602 -0.204786 1.000000
tan 0.359601 -0.873706 -0.164300 1.000000
tan -0.055118 0.007874 1.000000 1.000000
tan -0.929134 0.370079 0.024862 1.000000
tan -0.007378 0.015748 1.000000 1.000000
tan 0.039370 -0.086614 1.000000 1.000000
tan 0.069130 -0.031248 0.992126 1.000000
tan 0.401761 0.855602 -0.201438 1.000000
tan 0.381177 0.858702 -0.167586 1.000000
tan -0.269887 0.922314 -0.092380 1.000000
tan -0.330027 0.883068 -0.232439 1.000000
tan -0.294873 0.379441 -0.863042 1.000000
tan 0.000000 0.842520 0.543307 1.000000
tan -0.007874 1.000000 -0.031372 1.000000
tan -0.007874 1.000000 -0.000000 1.000000
tan 0.000000 0.511811 0.858268 1.000000
tan 0.000000 0.125984 0.992126 1.000000
tan 0.000000 -0.157480 0.984252 1.000000
tan 0.000000 -0.181102 0.984252 1.000000
tan 0.000000 -0.881890 0.480315 1.000000
tan 0.000000 -0.913386 0.409449 1.000000
tan -0.007874 -1.000000 0.000000 1.000000
tan -0.007874 -1.000000 0.000124 1.000000
tan 0.367723 0.882448 0.108190 1.000000
tan -0.084072 0.817286 0.555397 1.000000
tan -0.566123 0.730857 0.271684 1.000000
tan -0.160146 0.562651 0.798003 1.000000
tan 0.179676 0.160890 0.949222 1.000000
tan 0.054622 -0.511563 0.847170 1.000000
tan -0.336413 -0.327299 0.872466 1.000000
tan 0.220100 -0.777109 0.561845 1.000000
tan 0.317565 -0.912146 0.101184 1.000000
tan -0.552049 -0.749209 0.269453 1.000000
tan 0.212040 0.869366 -0.427615 1.000000
tan 0.533511 0.763345 -0.219418 1.000000
tan -0.363197 0.897142 -0.102796 1.000000
tan 0.072416 0.484283 -0.850890 1.000000
tan -0.393577 0.302560 -0.854982 1.000000
tan 0.206522 -0.475169 -0.850084 1.000000
tan -0.116188 -0.600161 -0.788021 1.000000
tan -0.416083 -0.864406 -0.108872 1.000000
tan 0.552049 -0.749210 -0.269452 1.000000
tan -1.000000 0.000000 0.023622 1.000000
tan -0.978114 -0.023064 0.005208 1.000000
tan -0.882820 0.011346 0.021390 1.000000
tan -1.000000 0.000000 0.000000 1.000000
tan -1.000000 0.000000 0.023622 1.000000
tan -0.007378 -0.015748 1.000000 1.000000
tan 0.067704 -0.094488 0.992126 1.000000
tan 0.039370 0.031496 1.000000 1.000000
tan -0.047244 -0.031496 1.000000 1.000000
tan -0.937008 -0.338583 0.024800 1.000000
tan 1.000000 -0.000000 -0.023622 1.000000
tan 0.992126 -0.007812 -0.008680 1.000000
tan 0.879410 0.004960 -0.066216 1.000000
tan 1.000000 -0.000000 -0.023622 1.000000
tan 1.000000 0.000000 0.000000 1.000000
tan 1.000000 -0.000000 -0.007874 1.000000
tan 1.000000 -0.000000 -0.007874 1.000000
tan 1.000000 -0.000000 -0.007874 1.000000
tan 0.992126 0.007812 -0.008680 1.000000
tan 0.958150 0.025668 -0.055676 1.000000
tan 0.000000 -1.000000 -0.047244 1.000000
tan 0.000000 -1.000000 0.000000 1.000000
tan 0.000000 -0.543307 0.834646 1.000000
tan -0.007502 -0.952756 0.307335 1.000000
tan 0.007688 -0.220658 0.976378 1.000000
tan 0.006882 0.488437 0.874016 1.000000
tan 0.000000 0.299213 0.952756 1.000000
tan 0.007192 0.913386 0.401699 1.000000
tan 0.000000 1.000000 -0.023622 1.000000
tan 0.000000 1.000000 -0.000000 1.000000
tan 0.000000 -1.000000 0.000000 1.000000
tan 0.000000 -1.000000 -0.023622 1.000000
tan 0.000000 -0.574803 0.818898 1.000000
tan 0.000000 -0.803149 0.598425 1.000000
tan 0.007812 -0.086428 0.992126 1.000000
tan 0.000000 0.456693 0.889764 1.000000
tan 0.007626 0.244281 0.968504 1.000000
tan -0.006944 0.881890 0.472689 1.000000
tan 0.000000 1.000000 -0.039370 1.000000
tan 0.000000 1.000000 -0.000000 1.000000
tan 0.063240 0.031496 1.000000 1.000000
tan 0.008370 -0.031496 1.000000 1.000000
tan 0.729989 0.555025 0.293881 1.000000
tan -0.023622 -0.007874 1.000000 1.000000
tan 0.496187 -0.131626 0.731167 1.000000
tan -0.029078 0.062992 1.000000 1.000000
tan -0.864902 -0.411619 0.161262 1.000000
tan -0.180544 -0.209312 0.931614 1.000000
tan -0.047244 0.007874 1.000000 1.000000
tan -0.670283 0.580321 0.391097 1.000000
tan -0.000744 -0.023622 1.000000 1.000000
tan -0.225184 0.197532 0.916672 1.000000
tan 0.054870 -0.031496 1.000000 1.000000
tan 0.365925 0.024862 0.877798 1.000000
tan 0.007874 0.015748 1.000000 1.000000
tan 0.520491 -0.036084 0.823486 1.000000
f 3/3/3 2/2/2 1/1/1
f 4/4/4 3/3/3 1/1/1
f 7/7/7 6/6/6 5/5/5
f 8/8/8 5/5/5 6/6/6
f 11/11/11 10/10/10 9/9/9
f 12/12/12 11/11/11 9/9/9
f 15/15/15 14/14/14 13/13/13
f 16/16/16 13/13/13 14/14/14
f 19/19/19 18/18/18 17/17/17
f 20/20/20 19/19/19 17/17/17
f 23/23/23 22/22/22 21/21/21
f 24/24/24 23/23/23 21/21/21
f 27/27/27 26/26/26 25/25/25
f 28/28/28 27/27/27 25/25/25
f 29/29/29 27/27/27 28/28/28
f 32/32/32 31/31/31 30/30/30
f 33/33/33 32/32/32 30/30/30
f 33/33/33 34/34/34 32/32/32
f 37/37/37 36/36/36 35/35/35
f 38/38/38 35/35/35 36/36/36
f 35/35/35 38/38/38 39/39/39
f 40/40/40 39/39/39 38/38/38
f 39/39/39 40/40/40 41/41/41
f 41/41/41 40/40/40 42/42/42
f 43/43/43 42/42/42 40/40/40
f 43/43/43 44/44/44 42/42/42
f 42/42/42 44/44/44 45/45/45
f 48/48/48 47/47/47 46/46/46
f 47/47/47 49/49/49 46/46/46
f 49/49/49 47/47/47 50/50/50
f 49/49/49 50/50/50 51/51/51
f 52/52/52 51/51/51 50/50/50
f 53/53/53 51/51/51 52/52/52
f 53/53/53 54/54/54 51/51/51
f 54/54/54 55/55/55 51/51/51
f 58/58/58 57/57/57 56/56/56
f 59/59/59 58/58/58 56/56/56
f 60/60/60 59/59/59 56/56/56
f 59/59/59 60/60/60 61/61/61
f 61/61/61 62/62/62 59/59/59
f 62/62/62 61/61/61 63/63/63
f 64/64/64 62/62/62 63/63/63
f 67/67/67 66/66/66 65/65/65
f 66/66/66 68/68/68 65/65/65
f 68/68/68 69/69/69 65/65/65
f 72/72/72 71/71/71 70/70/70
f 73/73/73 72/72/72 70/70/70
f 73/73/73 70/70/70 74/74/74
f 77/77/77 76/76/76 75/75/75
f 75/75/75 76/76/76 78/78/78
f 79/79/79 78/78/78 76/76/76
f 82/82/82 81/81/81 80/80/80
f 83/83/83 82/82/82 80/80/80
f 84/84/84 83/83/83 80/80/80
f 87/87/87 86/86/86 85/85/85
f 88/88/88 87/87/87 85/85/85
f 89/89/89 87/87/87 88/88/88
f 87/87/87 89/89/89 90/90/90
f 91/91/91 90/90/90 89/89/89
f 92/92/92 90/90/90 91/91/91
f 93/93/93 90/90/90 92/92/92
f 94/94/94 90/90/90 93/93/93
f 97/97/97 96/96/96 95/95/95
f 96/96/96 97/97/97 98/98/98
f 98/98/98 97/97/97 99/99/99
f 97/97/97 100/100/100 99/99/99
f 101/101/101 99/99/99 100/100/100
f 101/101/101 100/100/100 102/102/102
f 102/102/102 100/100/100 103/103/103
f 104/104/104 103/103/103 100/100/100
f 107/107/107 106/106/106 105/105/105
f 105/105/105 106/106/106 108/108/108
f 109/109/109 106/106/106 107/107/107
f 106/106/106 110/110/110 108/108/108
f 109/109/109 110/110/110 106/106/106
f 111/111/111 108/108/108 110/110/110
f 110/110/110 109/109/109 112/112/112
f 110/110/110 112/112/112 111/111/111
f 115/115/115 114/114/114 113/113/113
f 115/115/115 116/116/116 114/114/114
f 113/113/113 117/117/117 115/115/115
f 116/116/116 115/115/115 118/118/118
f 115/115/115 117/117/117 119/119/119
f 118/118/118 115/115/115 119/119/119
f 117/117/117 120/120/120 119/119/119
f 119/119/119 120/120/120 118/118/118
