mtllib SM_Carpet_03_LOD4.mtl
g SM_Carpet_03_LOD4
#Vertices 18
#Indices 27
#Section 0 Offset 0 NumIndices 27 MaterialIndex 0 MI_Carpet_Inst
v 0.780631 0.009504 0.000023
v 0.799272 0.001775 1.372095
v 0.778183 0.009203 1.306580
v -0.859287 0.009293 1.308796
v 0.780631 0.009504 0.000023
v 0.778183 0.009203 1.306580
v -0.859270 0.009508 -0.000002
v 0.776302 0.009306 -1.305554
v 0.780631 0.009504 0.000023
v -0.859299 0.008307 -1.305713
v -0.859287 0.009293 1.308796
v 0.778183 0.009203 1.306580
v 0.799272 0.001775 1.372095
v -0.883229 0.002687 1.373472
v -0.859299 0.008307 -1.305713
v 0.775526 0.006218 -1.401965
v 0.776302 0.009306 -1.305554
v -0.886327 0.008756 -1.407264
vt 0.460693 0.730957
vt 0.463623 1.011116
vt 0.459473 0.997580
vt 0.128418 0.997656
vt 0.460449 0.731201
vt 0.459229 0.997616
vt 0.125366 0.732910
vt 0.456055 0.464844
vt 0.460449 0.731201
vt 0.125366 0.468750
vt 0.041290 0.431641
vt 0.040588 0.983292
vt 0.064514 0.990471
vt 0.065063 0.423340
vt 0.040619 0.431641
vt 0.074890 0.982422
vt 0.039276 0.982666
vt 0.076477 0.422852
vt1 0.782227 0.500000
vt1 0.788574 1.012260
vt1 0.779297 0.987511
vt1 0.031082 0.987648
vt1 0.781738 0.500244
vt1 0.778809 0.987579
vt1 0.024063 0.503906
vt1 0.771484 0.013672
vt1 0.781738 0.500244
vt1 0.024261 0.020508
vt1 0.809570 0.024414
vt1 0.808105 0.977158
vt1 0.859375 0.989555
vt1 0.860352 0.010254
vt1 0.904785 0.024414
vt1 0.978027 0.975647
vt1 0.902344 0.976074
vt1 0.981445 0.008789
vn -0.173228 0.984252 -0.000000
vn 0.645669 0.763779 -0.000000
vn -0.141732 0.992126 -0.000000
vn 0.000000 1.000000 -0.000000
vn 0.000000 1.000000 -0.000000
vn 0.000000 1.000000 0.015748
vn 0.000000 1.000000 -0.000000
vn 0.000000 1.000000 -0.000000
vn 0.000000 1.000000 -0.000000
vn 0.000000 1.000000 -0.000000
vn -0.007874 0.307087 0.952756
vn 0.015748 0.275591 0.960630
vn 0.000000 0.976378 -0.220473
vn 0.007874 0.952756 -0.299213
vn 0.000000 0.748031 -0.661417
vn 0.000000 0.968504 0.259842
vn 0.000000 0.267716 -0.960630
vn 0.000000 0.992126 0.149606
tan 0.317751 0.055924 -0.931366 1.000000
tan -0.589373 0.498233 -0.635873 1.000000
tan 0.257797 0.036828 -0.961994 1.000000
tan 0.000000 -0.000000 -1.000000 1.000000
tan 0.000000 -0.000000 -1.000000 1.000000
tan 0.000000 0.015748 -1.000000 1.000000
tan 0.007874 -0.000000 -1.000000 1.000000
tan 0.007874 -0.000000 -1.000000 1.000000
tan 0.007874 -0.000000 -1.000000 1.000000
tan 0.007874 -0.000000 -1.000000 1.000000
tan -0.947920 -0.037386 0.004216 1.000000
tan -0.956290 0.030008 0.007068 1.000000
tan -0.978114 -0.001736 -0.007688 1.000000
tan -0.959824 0.005518 -0.007688 1.000000
tan -0.957902 -0.015624 -0.017670 1.000000
tan -0.970550 0.000000 0.000000 1.000000
tan -0.958522 0.015128 0.004216 1.000000
tan -0.992126 0.000000 0.000000 1.000000
f 3/3/3 2/2/2 1/1/1
f 6/6/6 5/5/5 4/4/4
f 7/7/7 4/4/4 5/5/5
f 9/9/9 8/8/8 7/7/7
f 10/10/10 7/7/7 8/8/8
f 13/13/13 12/12/12 11/11/11
f 13/13/13 11/11/11 14/14/14
f 17/17/17 16/16/16 15/15/15
f 18/18/18 15/15/15 16/16/16
