mtllib SM_Carpet_01_LOD4.mtl
g SM_Carpet_01_LOD4
#Vertices 11
#Indices 27
#Section 0 Offset 0 NumIndices 27 MaterialIndex 0 MI_Carpet_Inst
v -0.000011 0.027044 1.114071
v -0.507152 0.027253 0.995538
v -1.069125 0.027414 0.401646
v 0.495300 0.027386 1.003225
v 1.020528 0.027081 0.517304
v 1.105462 0.027365 -0.173873
v 0.897107 0.027311 -0.651512
v 0.490976 0.027231 -1.017569
v -0.179650 0.027274 -1.105008
v -0.788881 0.026778 -0.806571
v -1.055244 0.024231 -0.354200
vt 0.027115 0.332031
vt 0.001781 0.229004
vt 0.057434 0.072754
vt 0.092834 0.411621
vt 0.229248 0.461426
vt 0.362305 0.413086
vt 0.429443 0.331543
vt 0.458252 0.224121
vt 0.412109 0.094727
vt 0.302002 0.011719
vt 0.195557 0.005371
vt1 0.066345 0.721191
vt1 0.011894 0.500244
vt1 0.131470 0.163574
vt1 0.207642 0.891846
vt1 0.500977 0.999816
vt1 0.786621 0.895813
vt1 0.931152 0.719971
vt1 0.993164 0.489746
vt1 0.894043 0.210938
vt1 0.657227 0.033203
vt1 0.428467 0.019043
vn 0.000000 1.000000 0.007874
vn 0.000000 1.000000 0.007874
vn -0.007874 1.000000 -0.000000
vn 0.000000 1.000000 0.007874
vn 0.015748 1.000000 0.007874
vn 0.007874 1.000000 -0.000000
vn 0.007874 1.000000 -0.007874
vn 0.000000 1.000000 -0.007874
vn 0.000000 1.000000 -0.007874
vn -0.007874 1.000000 -0.007874
vn -0.062992 1.000000 -0.015748
tan -0.889764 0.003596 -0.456693 1.000000
tan -0.889764 0.003596 -0.456693 1.000000
tan -0.889764 -0.007006 -0.456693 1.000000
tan -0.889764 0.003596 -0.456693 1.000000
tan -0.889764 0.017546 -0.448819 1.000000
tan -0.889764 0.007006 -0.456693 1.000000
tan -0.889764 0.003410 -0.456693 1.000000
tan -0.889764 -0.003596 -0.456693 1.000000
tan -0.889764 -0.003596 -0.456693 1.000000
tan -0.889764 -0.010602 -0.456693 1.000000
tan -0.897638 -0.063488 -0.440945 1.000000
f 3/3/3 2/2/2 1/1/1
f 3/3/3 1/1/1 4/4/4
f 3/3/3 4/4/4 5/5/5
f 3/3/3 5/5/5 6/6/6
f 3/3/3 6/6/6 7/7/7
f 3/3/3 7/7/7 8/8/8
f 3/3/3 8/8/8 9/9/9
f 3/3/3 9/9/9 10/10/10
f 3/3/3 10/10/10 11/11/11
