mtllib SM_Carpet_03_LOD3.mtl
g SM_Carpet_03_LOD3
#Vertices 35
#Indices 51
#Section 0 Offset 0 NumIndices 51 MaterialIndex 0 MI_Carpet_Inst
v 0.793800 0.007004 -0.001240
v 0.801215 0.001714 1.355750
v 0.778183 0.009203 1.306580
v -0.859299 0.008307 -1.305713
v 0.793244 0.004991 -1.311749
v 0.766913 0.009537 -1.296212
v -0.850246 0.009537 -0.000000
v -0.859287 0.009293 1.308796
v -0.877055 0.007010 -0.000001
v -0.859299 0.008307 -1.305713
v -0.850246 0.009537 -0.000000
v 0.793800 0.007004 -0.001240
v 0.778183 0.009203 1.306580
v 0.766913 0.009537 -0.000000
v 0.793244 0.004991 -1.311749
v 0.793800 0.007004 -0.001240
v 0.766913 0.009537 -1.296212
v -0.859287 0.009293 1.308796
v 0.766913 0.009537 -0.000000
v 0.778183 0.009203 1.306580
v -0.850246 0.009537 -0.000000
v 0.766913 0.009537 -1.296212
v 0.766913 0.009537 -0.000000
v -0.859299 0.008307 -1.305713
v -0.859299 0.008307 -1.305713
v 0.775526 0.006218 -1.401965
v 0.793244 0.004991 -1.311749
v -0.886327 0.008756 -1.407264
v -0.859287 0.009293 1.308796
v 0.778183 0.009203 1.306580
v 0.801215 0.001714 1.355750
v -0.879278 0.001477 1.358103
v -0.886327 0.008756 1.407264
v -0.879278 0.001477 1.358103
v 0.802994 0.008756 1.407264
vt 0.463135 0.730957
vt 0.463867 1.007797
vt 0.459473 0.997580
vt 0.125366 0.468750
vt 0.459473 0.463379
vt 0.454102 0.466797
vt 0.127197 0.732910
vt 0.128418 0.997667
vt 0.121704 0.733154
vt 0.125366 0.468750
vt 0.127197 0.732910
vt 0.463135 0.730957
vt 0.458984 0.997623
vt 0.457764 0.731201
vt 0.459473 0.463867
vt 0.463135 0.730957
vt 0.454102 0.466797
vt 0.128418 0.997656
vt 0.457764 0.731201
vt 0.459229 0.997616
vt 0.127197 0.732910
vt 0.454102 0.466797
vt 0.457764 0.731201
vt 0.125366 0.468750
vt 0.040619 0.431641
vt 0.074890 0.982422
vt 0.041534 0.988380
vt 0.076477 0.422852
vt 0.041290 0.431641
vt 0.040588 0.983292
vt 0.058807 0.991142
vt 0.059601 0.424805
vt 0.076477 0.422852
vt 0.059631 0.424805
vt 0.076477 0.991669
vt1 0.787598 0.500000
vt1 0.789551 1.006191
vt1 0.779297 0.987511
vt1 0.024216 0.020996
vt1 0.779297 0.011230
vt1 0.767578 0.017090
vt1 0.028214 0.503662
vt1 0.031204 0.987671
vt1 0.015839 0.503906
vt1 0.024307 0.020508
vt1 0.028214 0.503662
vt1 0.787598 0.500000
vt1 0.778809 0.987595
vt1 0.775391 0.500244
vt1 0.779297 0.011230
vt1 0.787598 0.500000
vt1 0.767578 0.017090
vt1 0.031082 0.987648
vt1 0.775391 0.500244
vt1 0.778809 0.987579
vt1 0.028214 0.503662
vt1 0.767578 0.017090
vt1 0.775391 0.500244
vt1 0.024261 0.020508
vt1 0.904785 0.024414
vt1 0.978027 0.975647
vt1 0.906738 0.985939
vt1 0.981445 0.008789
vt1 0.809570 0.024414
vt1 0.808105 0.977158
vt1 0.847168 0.990715
vt1 0.848633 0.012695
vt1 0.884766 0.008789
vt1 0.848633 0.012695
vt1 0.884766 0.991631
vn 0.259843 0.968504 -0.000000
vn 0.692913 0.724409 -0.000000
vn -0.141732 0.992126 -0.000000
vn 0.000000 0.960630 -0.275591
vn 0.000000 0.881890 -0.472441
vn 0.000000 1.000000 -0.000000
vn 0.000000 1.000000 -0.000000
vn -0.165354 0.984252 -0.000000
vn -0.212598 0.976378 -0.000000
vn -0.299213 0.952756 -0.000000
vn 0.000000 1.000000 -0.000000
vn 0.173228 0.984252 -0.000000
vn 0.078740 1.000000 -0.000000
vn 0.000000 1.000000 -0.000000
vn 0.188976 0.984252 -0.000000
vn 0.165354 0.984252 -0.000000
vn 0.000000 1.000000 -0.000000
vn 0.000000 1.000000 -0.000000
vn 0.000000 1.000000 -0.000000
vn 0.000000 1.000000 0.015748
vn 0.000000 1.000000 -0.000000
vn 0.000000 1.000000 -0.000000
vn 0.000000 1.000000 -0.000000
vn 0.000000 1.000000 -0.000000
vn 0.000000 0.748031 -0.661417
vn 0.000000 0.968504 0.259842
vn 0.000000 0.322834 -0.944882
vn 0.000000 0.992126 0.149606
vn -0.007874 0.307087 0.952756
vn 0.015748 0.275591 0.960630
vn 0.000000 1.000000 -0.062992
vn 0.007874 1.000000 -0.070866
vn 0.000000 0.992126 -0.149606
vn 0.000000 0.992126 -0.086614
vn 0.000000 0.992126 -0.149606
tan -0.038130 0.010230 -0.970550 1.000000
tan -0.404985 0.387377 -0.830306 1.000000
tan 0.257797 0.036828 -0.961994 1.000000
tan 0.007564 -0.275591 -0.960630 1.000000
tan 0.006944 -0.472441 -0.881890 1.000000
tan 0.007874 -0.000000 -1.000000 1.000000
tan 0.015748 -0.000000 -1.000000 1.000000
tan 0.023250 0.003906 -0.984252 1.000000
tan 0.007688 0.001674 -0.976378 1.000000
tan -0.007502 -0.002356 -0.955112 1.000000
tan 0.000000 -0.000000 -1.000000 1.000000
tan -0.007750 0.001364 -0.984252 1.000000
tan -0.007874 0.000620 -1.000000 1.000000
tan 0.007874 -0.000000 -1.000000 1.000000
tan 0.023250 -0.004464 -0.984252 1.000000
tan 0.015500 -0.002604 -0.984252 1.000000
tan 0.015748 -0.000000 -1.000000 1.000000
tan 0.000000 -0.000000 -1.000000 1.000000
tan 0.000000 -0.000000 -1.000000 1.000000
tan 0.000000 0.015748 -1.000000 1.000000
tan 0.007874 -0.000000 -1.000000 1.000000
tan 0.007874 -0.000000 -1.000000 1.000000
tan 0.007874 -0.000000 -1.000000 1.000000
tan 0.007874 -0.000000 -1.000000 1.000000
tan -0.957902 -0.015624 -0.017670 1.000000
tan -0.970550 0.000000 0.000000 1.000000
tan -0.942340 0.014880 0.005084 1.000000
tan -0.992126 0.000000 0.000000 1.000000
tan -0.947920 -0.037386 0.004216 1.000000
tan -0.956290 0.030008 0.007068 1.000000
tan -1.000000 0.000000 0.000000 1.000000
tan -1.000000 0.008432 0.007874 1.000000
tan -0.992126 0.000000 0.000000 1.000000
tan -0.992126 0.000000 0.000000 1.000000
tan -0.992126 0.000000 0.000000 1.000000
f 3/3/3 2/2/2 1/1/1
f 6/6/6 5/5/5 4/4/4
f 9/9/9 8/8/8 7/7/7
f 9/9/9 11/11/11 10/10/10
f 14/14/14 13/13/13 12/12/12
f 16/16/16 15/15/15 14/14/14
f 17/17/17 14/14/14 15/15/15
f 20/20/20 19/19/19 18/18/18
f 21/21/21 18/18/18 19/19/19
f 23/23/23 22/22/22 21/21/21
f 24/24/24 21/21/21 22/22/22
f 27/27/27 26/26/26 25/25/25
f 28/28/28 25/25/25 26/26/26
f 31/31/31 30/30/30 29/29/29
f 31/31/31 29/29/29 32/32/32
f 34/34/34 33/33/33 31/31/31
f 33/33/33 35/35/35 31/31/31
