mtllib SM_Carpet_02_LOD3.mtl
g SM_Carpet_02_LOD3
#Vertices 37
#Indices 51
#Section 0 Offset 0 NumIndices 51 MaterialIndex 0 MI_Carpet_Inst
v -0.883962 0.001826 1.356215
v -0.918944 0.006880 0.000229
v -0.863300 0.009211 1.306879
v -0.918944 0.006880 0.000229
v -0.939347 0.009239 -1.308516
v -0.890628 0.009537 -0.000000
v 0.821733 0.009522 -0.000022
v 0.856822 0.009210 -1.305760
v 0.882405 0.001676 -1.355707
v -0.890628 0.009537 -0.000000
v -0.863300 0.009211 1.306879
v -0.918944 0.006880 0.000229
v -0.939347 0.009239 -1.308516
v -0.966313 0.001494 -1.355853
v -0.863300 0.009211 1.306879
v 0.821733 0.009522 -0.000022
v 0.779053 0.009283 1.306079
v -0.890628 0.009537 -0.000000
v -0.939347 0.009239 -1.308516
v 0.821733 0.009522 -0.000022
v 0.856822 0.009210 -1.305760
v -0.863300 0.009211 1.306879
v 0.779053 0.009283 1.306079
v 0.777299 0.001491 1.357934
v -0.883962 0.001826 1.356215
v -0.883962 0.001826 1.356215
v 0.777299 0.001491 1.357934
v 0.775572 0.008755 1.407267
v -0.858967 0.008749 1.407266
v 0.882405 0.001676 -1.355707
v -0.939347 0.009239 -1.308516
v -0.966313 0.001494 -1.355853
v 0.856822 0.009210 -1.305760
v 0.857201 0.008757 -1.407267
v -0.966313 0.001494 -1.355853
v -0.940547 0.008757 -1.407268
v 0.882405 0.001676 -1.355707
vt 0.477051 0.542480
vt 0.469482 0.268066
vt 0.481201 0.532227
vt 0.469482 0.268066
vt 0.468262 0.002930
vt 0.475098 0.268066
vt 0.825195 0.269531
vt 0.831543 0.003418
vt 0.836426 -0.006836
vt 0.475098 0.268066
vt 0.481445 0.532471
vt 0.469482 0.268066
vt 0.468018 0.002930
vt 0.462646 -0.006836
vt 0.481201 0.532471
vt 0.825195 0.269531
vt 0.812988 0.535889
vt 0.475098 0.268066
vt 0.468018 0.002930
vt 0.825195 0.269531
vt 0.831055 0.003418
vt 0.079590 0.449707
vt 0.079346 0.980591
vt 0.095520 0.980530
vt 0.094971 0.442871
vt 0.095032 0.442871
vt 0.095581 0.980530
vt 0.109558 0.980423
vt 0.109558 0.450195
vt 0.094788 0.442383
vt 0.079102 0.980835
vt 0.094910 0.988480
vt 0.078247 0.449707
vt 0.109558 0.450195
vt 0.095093 0.988449
vt 0.109558 0.980423
vt 0.094971 0.442383
vt1 0.043304 0.999636
vt1 0.026993 0.498047
vt1 0.052521 0.981033
vt1 0.027023 0.498047
vt1 0.024246 0.013184
vt1 0.039551 0.498047
vt1 0.800781 0.500732
vt1 0.814453 0.013672
vt1 0.825684 -0.004883
vt1 0.039551 0.498047
vt1 0.053009 0.981155
vt1 0.026947 0.498047
vt1 0.023758 0.013672
vt1 0.012115 -0.003906
vt1 0.052795 0.981094
vt1 0.800781 0.500488
vt1 0.774414 0.987427
vt1 0.039551 0.498047
vt1 0.024033 0.013184
vt1 0.800781 0.500488
vt1 0.813965 0.013672
vt1 0.922363 0.023926
vt1 0.921875 0.975830
vt1 0.956055 0.975723
vt1 0.955078 0.011230
vt1 0.955078 0.010742
vt1 0.956543 0.975708
vt1 0.986328 0.975540
vt1 0.986328 0.024902
vt1 0.874023 0.010742
vt1 0.840332 0.976273
vt1 0.874023 0.989983
vt1 0.838867 0.023438
vt1 0.905273 0.024902
vt1 0.874512 0.989922
vt1 0.905273 0.975540
vt1 0.874512 0.010742
vn -0.685039 0.724409 -0.000000
vn -0.220472 0.976378 0.007874
vn -0.354331 0.937008 -0.000000
vn -0.212598 0.976378 0.007874
vn -0.181102 0.984252 -0.000000
vn 0.000000 1.000000 -0.000000
vn -0.251969 0.968504 0.007874
vn -0.173228 0.984252 -0.000000
vn 0.637795 0.771653 -0.000000
vn 0.000000 1.000000 -0.000000
vn -0.322835 0.944882 -0.000000
vn -0.204724 0.976378 0.007874
vn -0.362205 0.929134 -0.000000
vn -0.700787 0.716535 -0.000000
vn 0.000000 1.000000 -0.000000
vn 0.000000 1.000000 -0.000000
vn 0.000000 1.000000 -0.000000
vn 0.000000 1.000000 -0.000000
vn 0.000000 1.000000 -0.000000
vn 0.000000 1.000000 -0.000000
vn 0.000000 1.000000 -0.015748
vn 0.000000 0.275591 0.960630
vn 0.000000 0.267717 0.960630
vn 0.000000 1.000000 -0.070866
vn 0.000000 1.000000 -0.039370
vn 0.000000 0.992126 -0.086614
vn 0.000000 0.992126 -0.094488
vn 0.000000 0.992126 -0.149606
vn 0.000000 0.992126 -0.149606
vn 0.000000 1.000000 0.023622
vn 0.000000 0.251968 -0.968504
vn 0.000000 1.000000 0.023622
vn 0.000000 0.204724 -0.976378
vn 0.000000 0.992126 0.149606
vn 0.000000 0.992126 0.094488
vn 0.000000 0.992126 0.149606
vn 0.000000 0.992126 0.094488
tan 0.233864 0.221154 -0.943642 1.000000
tan 0.038378 0.016554 -0.978114 1.000000
tan -0.044268 -0.016740 -0.917478 1.000000
tan -0.015376 0.004526 -0.976378 1.000000
tan -0.015500 -0.002852 -0.984252 1.000000
tan 0.000000 -0.000000 -1.000000 1.000000
tan -0.396677 -0.095976 -0.888586 1.000000
tan -0.255751 -0.045012 -0.954616 1.000000
tan 0.352409 -0.291277 -0.890446 1.000000
tan 0.000000 -0.000000 -1.000000 1.000000
tan 0.000000 -0.000000 -0.947424 1.000000
tan 0.053816 0.019158 -0.976378 1.000000
tan 0.234112 0.091264 -0.885610 1.000000
tan -0.394941 -0.386261 -0.837126 1.000000
tan -0.007874 -0.000000 -1.000000 1.000000
tan -0.007874 -0.000000 -1.000000 1.000000
tan -0.007874 -0.000000 -1.000000 1.000000
tan -0.007874 -0.000000 -1.000000 1.000000
tan 0.000000 -0.000000 -1.000000 1.000000
tan 0.000000 -0.000000 -1.000000 1.000000
tan 0.000000 -0.015748 -1.000000 1.000000
tan -0.950896 -0.136152 0.039060 1.000000
tan -0.958522 0.007564 -0.002108 1.000000
tan -1.000000 -0.002232 -0.031496 1.000000
tan -1.000000 0.000310 0.007874 1.000000
tan -0.992126 0.002728 0.031248 1.000000
tan -0.992126 0.000000 0.000000 1.000000
tan -0.992126 -0.004712 -0.031248 1.000000
tan -0.992126 0.000000 0.000000 1.000000
tan 1.000000 -0.000744 0.031496 1.000000
tan 0.958894 -0.106764 -0.027776 1.000000
tan 1.000000 0.000186 -0.007874 1.000000
tan 0.974766 -0.015376 -0.003224 1.000000
tan 0.992126 -0.004712 0.031248 1.000000
tan 0.992126 0.002976 -0.031248 1.000000
tan 0.992126 0.000000 0.000000 1.000000
tan 0.992126 0.000000 0.000000 1.000000
f 3/3/3 2/2/2 1/1/1
f 6/6/6 5/5/5 4/4/4
f 9/9/9 8/8/8 7/7/7
f 12/12/12 11/11/11 10/10/10
f 14/14/14 12/12/12 13/13/13
f 17/17/17 16/16/16 15/15/15
f 18/18/18 15/15/15 16/16/16
f 18/18/18 20/20/20 19/19/19
f 21/21/21 19/19/19 20/20/20
f 24/24/24 23/23/23 22/22/22
f 25/25/25 24/24/24 22/22/22
f 28/28/28 27/27/27 26/26/26
f 29/29/29 28/28/28 26/26/26
f 32/32/32 31/31/31 30/30/30
f 33/33/33 30/30/30 31/31/31
f 36/36/36 35/35/35 34/34/34
f 37/37/37 34/34/34 35/35/35
