mtllib SM_Cabinet_03_LOD4.mtl
g SM_Cabinet_03_LOD4
#Vertices 80
#Indices 96
#Section 0 Offset 0 NumIndices 96 MaterialIndex 0 MI_Cabinet_03
v -0.192476 1.009588 -0.162548
v -0.251645 0.166892 -0.188544
v -0.158088 0.238856 -0.135904
v -0.286262 0.998412 -0.133462
v -0.260245 0.236010 -0.084299
v -0.251645 0.166892 -0.188544
v -0.260245 0.236010 -0.084299
v -0.185013 1.021131 -0.086194
v -0.158088 0.238856 -0.135904
v -0.260245 0.236010 -0.084299
v -0.158088 0.238856 -0.135904
v -0.251645 0.166892 -0.188544
v -0.184641 1.020020 0.149072
v -0.143745 0.124699 0.239788
v -0.194721 1.007693 0.245546
v -0.266048 0.164846 0.226265
v -0.194721 1.007693 0.245546
v -0.143745 0.124699 0.239788
v -0.263969 1.006330 0.157065
v -0.266048 0.164846 0.226265
v -0.261036 0.239776 0.147936
v -0.143745 0.124699 0.239788
v -0.261036 0.239776 0.147936
v -0.266048 0.164846 0.226265
v -0.184641 1.020020 0.149072
v -0.261036 0.239776 0.147936
v -0.143745 0.124699 0.239788
v 0.474506 0.145287 -0.112538
v 0.550004 1.049075 -0.028415
v 0.629920 0.176623 -0.151901
v 0.629920 0.176623 -0.151901
v 0.501824 1.020674 -0.167477
v 0.474506 0.145287 -0.112538
v 0.446931 1.055744 0.172684
v 0.565533 0.172767 0.266847
v 0.562337 0.252025 0.111344
v 0.565533 0.172767 0.266847
v 0.604908 1.007079 0.154296
v 0.562337 0.252025 0.111344
v -0.192476 1.009588 -0.162548
v -0.158088 0.238856 -0.135904
v -0.185013 1.021131 -0.086194
v -0.286262 0.998412 -0.133462
v -0.251645 0.166892 -0.188544
v -0.185013 1.021131 -0.086194
v -0.260245 0.236010 -0.084299
v -0.266048 0.164846 0.226265
v -0.263969 1.006330 0.157065
v -0.194721 1.007693 0.245546
v -0.261036 0.239776 0.147936
v -0.184641 1.020020 0.149072
v 0.501824 1.020674 -0.167477
v 0.629920 0.176623 -0.151901
v 0.550004 1.049075 -0.028415
v 0.474506 0.145287 -0.112538
v 0.550004 1.049075 -0.028415
v 0.565533 0.172767 0.266847
v 0.446931 1.055744 0.172684
v 0.604908 1.007079 0.154296
v 0.446931 1.055744 0.172684
v 0.562337 0.252025 0.111344
v -0.222653 1.002503 -0.154149
v 0.543007 0.250000 -0.154148
v 0.543007 1.002503 -0.154149
v -0.222653 0.250000 -0.154148
v 0.557588 0.237714 0.225235
v 0.557588 1.010923 0.225235
v 0.557588 0.237714 -0.128785
v 0.557588 1.010923 -0.128785
v -0.237235 1.010923 -0.128785
v -0.237235 0.237714 0.225235
v -0.237235 0.237714 -0.128785
v -0.237235 1.010923 0.225235
v -0.287629 1.056959 -0.166555
v 0.614954 1.110931 0.229262
v -0.288495 0.904924 0.238497
v 0.634583 0.984609 -0.212514
v -0.288495 0.904924 0.238497
v 0.614954 1.110931 0.229262
v -0.287629 1.056959 -0.166555
vt 0.856934 0.830933
vt 0.830078 0.488770
vt 0.870605 0.517090
vt 0.819824 0.826416
vt 0.800781 0.516113
vt 0.841797 0.488281
vt 0.801758 0.516113
vt 0.771484 0.835327
vt 0.760254 0.515137
vt 0.801758 0.516357
vt 0.760742 0.511230
vt 0.786133 0.486328
vt 0.416992 0.905945
vt 0.451904 0.541260
vt 0.456299 0.901001
vt 0.477783 0.558594
vt 0.448975 0.901001
vt 0.432373 0.541748
vt 0.500000 0.900391
vt 0.472412 0.558594
vt 0.503906 0.588379
vt 0.502930 0.524414
vt 0.501953 0.589111
vt 0.493652 0.554443
vt 0.532715 0.905762
vt 0.501953 0.588623
vt 0.550781 0.539307
vt 0.426758 0.547852
vt 0.390625 0.919067
vt 0.368408 0.561279
vt 0.368408 0.563232
vt 0.321045 0.906067
vt 0.311035 0.549561
vt 0.867188 0.434082
vt 0.856934 0.070801
vt 0.903809 0.103516
vt 0.846191 0.073730
vt 0.803711 0.413086
vt 0.786133 0.104980
vt 0.856445 0.830933
vt 0.868164 0.516846
vt 0.886719 0.835571
vt 0.817383 0.826416
vt 0.835938 0.488281
vt 0.771484 0.835693
vt 0.801758 0.515869
vt 0.475098 0.558350
vt 0.500000 0.900452
vt 0.453125 0.900940
vt 0.502441 0.588379
vt 0.532227 0.906006
vt 0.330322 0.906433
vt 0.365479 0.562012
vt 0.393066 0.918579
vt 0.309082 0.548828
vt 0.269775 0.918213
vt 0.840820 0.072754
vt 0.873535 0.433105
vt 0.808594 0.413086
vt 0.750000 0.433594
vt 0.792480 0.104980
vt 0.738770 0.029785
vt 0.583008 0.292969
vt 0.583008 0.029785
vt 0.738770 0.292969
vt 0.768066 0.321289
vt 0.768066 0.636230
vt 0.538574 0.321289
vt 0.538574 0.636230
vt 0.768066 0.315430
vt 0.538574 0.000488
vt 0.768066 0.000488
vt 0.538574 0.315430
vt 0.271729 0.491699
vt 0.531250 -0.011719
vt 0.537109 0.497070
vt 0.268311 -0.023438
vt 0.007198 0.494141
vt -0.000344 -0.011719
vt 0.276611 0.491699
vt1 0.905762 0.743652
vt1 0.883301 0.453125
vt1 0.916992 0.477539
vt1 0.874512 0.739746
vt1 0.858398 0.476562
vt1 0.894043 0.452637
vt1 0.859863 0.477051
vt1 0.833496 0.747559
vt1 0.823242 0.477051
vt1 0.859375 0.477051
vt1 0.824219 0.472656
vt1 0.845703 0.451172
vt1 0.708984 0.748779
vt1 0.738770 0.438965
vt1 0.742676 0.744385
vt1 0.760254 0.453613
vt1 0.735840 0.744385
vt1 0.721680 0.440430
vt1 0.779785 0.743896
vt1 0.755859 0.453613
vt1 0.782715 0.479492
vt1 0.781738 0.424805
vt1 0.780762 0.479980
vt1 0.773438 0.450684
vt1 0.807617 0.748779
vt1 0.781250 0.479004
vt1 0.821777 0.439453
vt1 0.837891 0.068848
vt1 0.807617 0.381836
vt1 0.788574 0.077637
vt1 0.789062 0.080078
vt1 0.748535 0.371582
vt1 0.740234 0.069336
vt1 0.682129 0.384766
vt1 0.672363 0.076660
vt1 0.712402 0.104980
vt1 0.664551 0.079102
vt1 0.627441 0.366699
vt1 0.612305 0.104980
vt1 0.905762 0.743652
vt1 0.915039 0.477539
vt1 0.931152 0.747559
vt1 0.872559 0.739746
vt1 0.888672 0.452637
vt1 0.833984 0.747559
vt1 0.859863 0.476562
vt1 0.758301 0.453613
vt1 0.779297 0.743896
vt1 0.739746 0.744385
vt1 0.781250 0.479004
vt1 0.807129 0.748779
vt1 0.756348 0.371582
vt1 0.786133 0.079102
vt1 0.809570 0.381836
vt1 0.738770 0.068848
vt1 0.705078 0.381836
vt1 0.659180 0.078125
vt1 0.687012 0.383789
vt1 0.631836 0.366699
vt1 0.582031 0.384277
vt1 0.618164 0.105469
vt1 0.576172 0.390137
vt1 0.500000 0.014648
vt1 0.576172 0.014648
vt1 0.500000 0.390137
vt1 0.256836 0.497559
vt1 0.256836 0.764526
vt1 0.061890 0.497559
vt1 0.061890 0.764526
vt1 0.482422 0.763916
vt1 0.287598 0.496582
vt1 0.482422 0.496582
vt1 0.287598 0.763916
vt1 0.478516 0.238770
vt1 0.050842 0.018066
vt1 0.483154 0.013184
vt1 0.041504 0.241699
vt1 0.480713 0.463379
vt1 0.050873 0.469727
vt1 0.478516 0.234863
vn 0.078740 -0.000000 -1.000000
vn -0.086614 -0.000000 -1.000000
vn 0.157480 -0.000000 -0.984252
vn -1.000000 -0.000000 -0.023622
vn -1.000000 0.000000 0.078740
vn -0.992126 -0.000000 -0.133858
vn -0.086614 0.000000 1.000000
vn 0.094488 0.000000 0.992126
vn 0.157480 0.000000 0.984252
vn -0.110236 -0.047244 0.992126
vn 0.204724 -0.047244 0.976378
vn 0.047244 -0.047244 1.000000
vn 1.000000 -0.000000 -0.078740
vn 0.992126 0.000000 0.102362
vn 0.992126 0.000000 0.133858
vn -0.102362 0.000000 0.992126
vn 0.070866 0.000000 1.000000
vn 0.165354 0.000000 0.984252
vn -1.000000 -0.000000 -0.062992
vn -1.000000 0.000000 0.086614
vn -1.000000 -0.000000 -0.078740
vn -0.047244 -0.055118 -1.000000
vn -0.133858 -0.047244 -0.992126
vn -0.204724 -0.047244 -0.976378
vn 0.094488 -0.000000 -0.992126
vn -0.086614 -0.000000 -0.992126
vn 0.188976 -0.000000 -0.984252
vn -0.173228 0.000000 0.984252
vn 0.023622 0.000000 1.000000
vn 0.165354 0.000000 0.984252
vn 0.173228 -0.000000 -0.984252
vn -0.110236 -0.000000 -0.992126
vn -0.165354 -0.000000 -0.984252
vn -1.000000 0.000000 0.023622
vn -1.000000 0.000000 0.078740
vn -0.984252 -0.000000 -0.157480
vn 0.984252 0.000000 0.157480
vn 1.000000 -0.000000 -0.062992
vn 0.992126 -0.000000 -0.149606
vn 0.582677 -0.000000 -0.811023
vn 0.984252 0.000000 0.165354
vn 0.960630 0.000000 0.283465
vn -1.000000 0.000000 0.007874
vn -0.039370 -0.000000 -1.000000
vn 0.267717 0.000000 0.960630
vn -0.181102 0.000000 0.984252
vn -0.685039 0.000000 0.732283
vn -0.897638 -0.000000 -0.440945
vn -0.102362 0.000000 0.992126
vn -0.362205 -0.000000 -0.929134
vn 0.275591 -0.000000 -0.960630
vn -0.480315 -0.000000 -0.881890
vn 0.913386 -0.000000 -0.401575
vn 0.645669 0.000000 0.763779
vn -0.944882 -0.000000 -0.322835
vn -0.763780 0.000000 0.645669
vn 0.464567 0.000000 0.889764
vn -0.874016 0.000000 0.488189
vn 0.960630 -0.000000 -0.275591
vn -0.622047 -0.000000 -0.787401
vn -0.110236 -0.000000 -0.992126
vn 0.000000 -0.000000 -1.000000
vn 0.000000 -0.000000 -1.000000
vn 0.000000 -0.000000 -1.000000
vn 0.000000 -0.000000 -1.000000
vn 1.000000 0.000000 0.000000
vn 1.000000 0.000000 0.000000
vn 1.000000 0.000000 0.000000
vn 1.000000 0.000000 0.000000
vn -1.000000 0.000000 0.000000
vn -1.000000 0.000000 0.000000
vn -1.000000 0.000000 0.000000
vn -1.000000 0.000000 0.000000
vn 0.000000 1.000000 -0.031496
vn 0.000000 1.000000 -0.000000
vn 0.000000 1.000000 -0.000000
vn 0.000000 -0.944882 -0.330709
vn 0.000000 -1.000000 0.070866
vn 0.000000 -1.000000 0.000000
vn 0.000000 0.464567 -0.889764
tan 0.007874 -1.000000 0.000620 1.000000
tan 0.007874 -1.000000 -0.000682 1.000000
tan 0.015500 -0.984252 0.002480 1.000000
tan -0.000186 -1.000000 0.007874 1.000000
tan 0.000620 -1.000000 0.007874 1.000000
tan -0.001054 -0.992126 0.007812 1.000000
tan 0.047244 -1.000000 0.004092 1.000000
tan 0.046872 -0.992126 -0.004464 1.000000
tan 0.046500 -0.984252 -0.007440 1.000000
tan 0.078120 -0.992126 -0.038564 1.000000
tan 0.092256 -0.968690 -0.066216 1.000000
tan 0.086614 -1.000000 -0.051336 1.000000
tan 0.000000 -1.000000 0.000000 1.000000
tan 0.000000 -0.992126 0.000000 1.000000
tan 0.000000 -0.992126 0.000000 1.000000
tan 0.023436 -0.992126 0.002418 1.000000
tan 0.023622 -1.000000 -0.001674 1.000000
tan 0.023250 -0.984252 -0.003906 1.000000
tan 0.001488 -1.000000 -0.023622 1.000000
tan -0.002046 -1.000000 -0.023622 1.000000
tan 0.001860 -1.000000 -0.023622 1.000000
tan 0.141732 -0.992126 0.047988 1.000000
tan 0.132804 -0.984314 0.028954 1.000000
tan 0.130696 -0.968690 0.019468 1.000000
tan 0.046872 -0.992126 0.004464 1.000000
tan 0.046872 -0.992126 -0.004092 1.000000
tan 0.046500 -0.984252 0.008928 1.000000
tan -0.046500 -0.984252 -0.008184 1.000000
tan -0.047244 -1.000000 0.001116 1.000000
tan -0.046500 -0.984252 0.007812 1.000000
tan -0.023250 -0.984252 -0.004092 1.000000
tan -0.023436 -0.992126 0.002604 1.000000
tan -0.023250 -0.984252 0.003906 1.000000
tan -0.001116 -1.000000 -0.047244 1.000000
tan -0.003720 -1.000000 -0.047244 1.000000
tan 0.007440 -0.984252 -0.046500 1.000000
tan 0.003720 -0.984252 -0.023250 1.000000
tan -0.001488 -1.000000 -0.023622 1.000000
tan -0.003534 -0.992126 -0.023436 1.000000
tan 0.000000 -0.979354 0.000000 1.000000
tan 0.000000 -0.985554 0.000000 1.000000
tan 0.000000 -0.967326 0.000000 1.000000
tan 0.000000 -1.000000 0.000000 1.000000
tan 0.000000 -1.000000 0.000000 1.000000
tan 0.000000 -0.962738 0.000000 1.000000
tan 0.000000 -0.984252 0.000000 1.000000
tan 0.000000 -0.993428 0.000000 1.000000
tan 0.000000 -0.942650 0.000000 1.000000
tan 0.000000 -0.992126 0.000000 1.000000
tan 0.000000 -0.940542 0.000000 1.000000
tan 0.000000 -0.962800 0.000000 1.000000
tan 0.000000 -0.959390 0.000000 1.000000
tan 0.000000 -0.944138 0.000000 1.000000
tan 0.000000 -0.990948 0.000000 1.000000
tan 0.000000 -0.957592 0.000000 1.000000
tan 0.000000 -0.921818 0.000000 1.000000
tan -0.007006 -0.945254 0.003658 1.000000
tan 0.000000 -0.986484 0.000000 1.000000
tan 0.000000 -0.964970 0.000000 1.000000
tan 0.000000 -0.919338 0.000000 1.000000
tan 0.000000 -0.992126 0.000000 1.000000
tan 0.000000 1.000000 -0.000000 1.000000
tan 0.000000 1.000000 -0.000000 1.000000
tan 0.000000 1.000000 -0.000000 1.000000
tan 0.000000 1.000000 -0.000000 1.000000
tan 0.000000 -1.000000 0.000000 1.000000
tan 0.000000 -1.000000 0.000000 1.000000
tan 0.000000 -1.000000 0.000000 1.000000
tan 0.000000 -1.000000 0.000000 1.000000
tan 0.000000 -1.000000 0.000000 1.000000
tan 0.000000 -1.000000 0.000000 1.000000
tan 0.000000 -1.000000 0.000000 1.000000
tan 0.000000 -1.000000 0.000000 1.000000
tan 1.000000 0.000000 0.000000 1.000000
tan 1.000000 0.000000 0.000000 1.000000
tan 1.000000 0.000000 0.000000 1.000000
tan 0.947486 0.000000 0.000000 1.000000
tan 1.000000 0.000000 0.000000 1.000000
tan 1.000000 0.000000 0.000000 1.000000
tan 0.933970 0.000000 0.000000 1.000000
f 3/3/3 2/2/2 1/1/1
f 6/6/6 5/5/5 4/4/4
f 9/9/9 8/8/8 7/7/7
f 12/12/12 11/11/11 10/10/10
f 15/15/15 14/14/14 13/13/13
f 18/18/18 17/17/17 16/16/16
f 21/21/21 20/20/20 19/19/19
f 24/24/24 23/23/23 22/22/22
f 27/27/27 26/26/26 25/25/25
f 30/30/30 29/29/29 28/28/28
f 33/33/33 32/32/32 31/31/31
f 36/36/36 35/35/35 34/34/34
f 39/39/39 38/38/38 37/37/37
f 42/42/42 41/41/41 40/40/40
f 40/40/40 44/44/44 43/43/43
f 43/43/43 46/46/46 45/45/45
f 49/49/49 48/48/48 47/47/47
f 51/51/51 50/50/50 48/48/48
f 54/54/54 53/53/53 52/52/52
f 56/56/56 52/52/52 55/55/55
f 59/59/59 58/58/58 57/57/57
f 59/59/59 61/61/61 60/60/60
f 64/64/64 63/63/63 62/62/62
f 65/65/65 62/62/62 63/63/63
f 68/68/68 67/67/67 66/66/66
f 67/67/67 68/68/68 69/69/69
f 72/72/72 71/71/71 70/70/70
f 73/73/73 70/70/70 71/71/71
f 76/76/76 75/75/75 74/74/74
f 75/75/75 77/77/77 74/74/74
f 79/79/79 78/78/78 77/77/77
f 78/78/78 80/80/80 77/77/77
