mtllib SM_Chimney_LOD3.mtl
g SM_Chimney_LOD3
#Vertices 68
#Indices 126
#Section 0 Offset 0 NumIndices 126 MaterialIndex 0 MI_Chimney
v 0.568153 1.266351 0.668771
v 0.521403 1.264687 -0.606749
v 0.520968 1.186601 -0.606630
v 0.377789 0.998544 0.378580
v 0.235734 0.866296 -0.655708
v 0.191678 0.727229 0.676847
v 0.806919 0.792165 0.700044
v 0.807271 0.792227 -0.698900
v 0.806636 0.695912 -0.699706
v 0.807173 0.695962 0.701381
v 0.847217 0.029820 -0.490604
v 0.809763 0.036545 0.491682
v 0.215539 0.039678 -0.491103
v 0.215539 0.039679 0.491544
v 0.227664 0.546607 -0.443013
v 0.227665 0.000000 0.481134
v 0.227664 0.546607 0.437069
v 0.227665 -0.000000 -0.487723
v 0.227664 0.546607 -0.443013
v 0.779451 0.546607 0.437069
v 0.779451 0.546607 -0.443013
v 0.227664 0.546607 0.437069
v 0.227665 -0.000000 -0.487723
v 0.779451 0.546607 -0.443013
v 0.809651 -0.000000 -0.487723
v 0.227664 0.546607 -0.443013
v 0.779451 0.546607 0.437069
v 0.227665 0.000000 0.481134
v 0.809651 0.000000 0.481134
v 0.227664 0.546607 0.437069
v 0.807173 0.695962 0.701381
v 0.000135 0.645002 0.674391
v 0.806919 0.792165 0.700044
v 0.000367 0.791993 -0.698245
v 0.807271 0.792227 -0.698900
v 0.806636 0.695912 -0.699706
v 0.000135 0.645002 0.674391
v 0.807173 0.695962 0.701381
v 0.000001 1.255435 0.388487
v 0.000002 3.253590 0.235410
v 0.370000 1.256805 0.386258
v 0.476393 3.249646 0.003405
v 0.371309 1.256979 -0.384866
v 0.000002 3.253590 -0.234970
v 0.000001 1.255435 -0.388047
v 0.520968 1.186601 -0.606630
v -0.000023 1.161674 0.589108
v 0.568153 1.266351 0.668771
v 0.002773 1.355195 0.026101
v 0.521403 1.264687 -0.606749
v 0.568153 1.266351 0.668771
v -0.000023 1.161674 0.589108
v 0.235734 0.866296 -0.655708
v 0.482090 1.184161 0.575987
v 0.096412 1.203726 -0.832015
v 0.377789 0.998544 0.378580
v 0.191678 0.727229 0.676847
v 0.000001 1.185163 0.575885
v 0.763970 0.718954 0.666044
v 0.045621 0.004040 0.841633
v 0.000000 0.719692 0.663543
v 0.809651 0.000000 0.481134
v 0.779451 0.546607 0.437069
v 0.765642 0.718523 -0.665413
v 0.779451 0.546607 -0.443013
v 0.809651 -0.000000 -0.487723
v 0.044307 0.004181 -0.838988
v 0.000000 0.719692 -0.663102
vt 1.011719 0.936707
vt 0.691406 0.936279
vt 0.691406 0.916687
vt 0.994141 0.818604
vt 0.733398 0.807007
vt 1.057617 0.759521
vt 0.354492 0.940521
vt 0.002371 0.940491
vt 0.002188 0.916321
vt 0.354736 0.916321
vt 0.343018 0.498047
vt 0.351562 0.250977
vt 0.500488 0.498535
vt 0.500488 0.250977
vt 0.523438 0.388672
vt 0.755859 0.251465
vt 0.744629 0.388672
vt 0.511719 0.251465
vt 0.768066 0.472656
vt 0.906738 0.251465
vt 0.907227 0.472656
vt 0.768066 0.251465
vt 0.909668 0.629150
vt 0.770508 0.767212
vt 0.763184 0.629150
vt 0.909668 0.767212
vt 0.990723 0.619873
vt 0.851562 0.481934
vt 0.998047 0.481934
vt 0.851562 0.620117
vt 0.752930 0.512451
vt 0.727539 0.714355
vt 0.728516 0.512451
vt 0.376465 0.715576
vt 0.376465 0.512451
vt 0.351807 0.512451
vt 0.013489 0.715576
vt -0.000776 0.512451
vt 0.338135 0.000488
vt 0.338379 0.503906
vt 0.253174 0.000488
vt 0.160889 0.504395
vt 0.090149 0.000488
vt 0.000000 0.503906
vt 0.000099 0.000488
vt 0.694824 0.131348
vt 0.989746 0.000488
vt 1.016602 0.144043
vt 0.589355 0.000000
vt 0.675293 0.131348
vt 0.345215 0.143555
vt 0.343750 0.000488
vt 0.541504 0.172363
vt 0.878906 0.241699
vt 0.483643 0.236328
vt 0.831055 0.192383
vt 0.939453 0.132812
vt 0.998535 0.242188
vt 0.552246 0.906555
vt 0.720215 0.724854
vt 0.747070 0.906860
vt 0.487061 0.724854
vt 0.487061 0.863037
vt 0.195923 0.906067
vt 0.259033 0.863037
vt 0.259033 0.727051
vt 0.026962 0.724365
vt 0.000393 0.906494
vt1 0.328613 0.257812
vt1 0.003971 0.257324
vt1 0.004055 0.237793
vt1 0.272949 0.477539
vt1 0.284668 0.213867
vt1 0.332764 0.541992
vt1 0.888184 0.747803
vt1 0.888184 0.392090
vt1 0.912598 0.391602
vt1 0.912598 0.748291
vt1 0.002205 0.323242
vt1 0.251953 0.332031
vt1 0.001968 0.482422
vt1 0.251953 0.482422
vt1 0.980957 0.336914
vt1 0.745605 0.197754
vt1 0.756836 0.336914
vt1 0.992188 0.197754
vt1 0.548828 0.230469
vt1 0.689453 0.006836
vt1 0.689453 0.230469
vt1 0.548828 0.006836
vt1 0.842773 0.051758
vt1 0.702148 0.191406
vt1 0.694824 0.051758
vt1 0.842773 0.191406
vt1 0.179077 0.171875
vt1 0.318604 0.031250
vt1 0.318604 0.179199
vt1 0.179077 0.031250
vt1 0.553711 0.997419
vt1 0.349609 0.971786
vt1 0.553711 0.972794
vt1 0.348389 0.617188
vt1 0.553711 0.616943
vt1 0.553711 0.592041
vt1 0.348389 0.250000
vt1 0.553711 0.235840
vt1 0.343750 0.488281
vt1 0.343994 0.998032
vt1 0.257812 0.488770
vt1 0.164673 0.998465
vt1 0.093079 0.488770
vt1 0.001968 0.998032
vt1 0.002068 0.488281
vt1 0.749023 0.689941
vt1 0.881348 0.987732
vt1 0.735840 1.014961
vt1 0.882324 0.583252
vt1 0.749023 0.670166
vt1 0.736816 0.336914
vt1 0.881348 0.334961
vt1 0.081238 0.159668
vt1 0.421143 0.230469
vt1 0.022980 0.225098
vt1 0.373291 0.180176
vt1 0.482178 0.119629
vt1 0.541992 0.230469
vt1 0.557129 0.801392
vt1 0.742188 0.970245
vt1 0.556641 0.997637
vt1 0.742188 0.735840
vt1 0.601562 0.735840
vt1 0.557617 0.442871
vt1 0.601562 0.506348
vt1 0.739746 0.506348
vt1 0.742676 0.272949
vt1 0.557129 0.246094
vn 0.960630 0.275591 0.007874
vn 0.921260 0.393701 -0.015748
vn 0.960630 -0.275591 -0.007874
vn 1.000000 0.007874 -0.000000
vn 1.000000 0.007874 -0.000000
vn 1.000000 0.007874 -0.000000
vn 0.976378 0.212598 0.007874
vn 0.944882 0.314961 -0.015748
vn 0.976378 -0.212598 -0.007874
vn 0.952756 -0.307087 0.015748
vn 0.165354 0.984252 -0.000000
vn 0.062992 1.000000 -0.000000
vn 0.000000 1.000000 -0.000000
vn 0.000000 1.000000 -0.000000
vn 1.000000 0.000000 0.000000
vn 1.000000 0.000000 0.000000
vn 1.000000 0.000000 0.000000
vn 1.000000 0.000000 0.000000
vn 0.000000 -1.000000 0.000000
vn 0.000000 -1.000000 0.000000
vn 0.000000 -1.000000 0.000000
vn 0.000000 -1.000000 0.000000
vn 0.000000 -0.078740 1.000000
vn 0.000000 -0.078740 1.000000
vn 0.000000 -0.078740 1.000000
vn 0.000000 -0.078740 1.000000
vn 0.000000 -0.078740 -1.000000
vn 0.000000 -0.078740 -1.000000
vn 0.000000 -0.078740 -1.000000
vn 0.000000 -0.078740 -1.000000
vn 0.007874 -0.212598 0.976378
vn 0.000000 0.850394 0.527559
vn 0.007874 1.000000 0.039370
vn 0.000000 1.000000 -0.070866
vn 0.007874 1.000000 -0.070866
vn 0.007874 -1.000000 -0.070866
vn 0.000000 -1.000000 0.000000
vn 0.007874 -1.000000 0.007874
vn 0.000000 0.078740 1.000000
vn 0.000000 0.078740 1.000000
vn 0.850394 0.039370 0.527559
vn 0.992126 0.023622 0.133858
vn 0.740157 0.047244 -0.669291
vn 0.000000 0.078740 -1.000000
vn 0.000000 0.078740 -1.000000
vn 0.015748 -1.000000 -0.070866
vn 0.000000 -1.000000 0.007874
vn 0.015748 -1.000000 0.007874
vn 0.000000 1.000000 -0.007874
vn 0.015748 1.000000 -0.062992
vn 0.023622 0.897638 0.440945
vn 0.000000 -0.614173 0.787401
vn 0.771654 0.031496 -0.629921
vn 0.755906 0.055118 0.653543
vn 0.078740 0.078740 -0.992126
vn 1.000000 0.007874 0.007874
vn 0.409449 0.078740 0.905512
vn 0.000000 0.078740 1.000000
vn 0.433071 0.133858 0.889764
vn 0.023622 0.125984 0.992126
vn 0.000000 0.125984 0.992126
vn 1.000000 0.055118 -0.000000
vn 1.000000 0.055118 -0.000000
vn 0.511811 0.133858 -0.850394
vn 1.000000 0.055118 -0.000000
vn 1.000000 0.055118 -0.000000
vn 0.023622 0.125984 -0.992126
vn 0.000000 0.125984 -0.992126
tan 0.275405 -0.960630 0.022692 1.000000
tan 0.393825 -0.921508 0.001054 1.000000
tan -0.275343 -0.960630 0.030256 1.000000
tan 0.007874 -1.000000 0.000000 1.000000
tan 0.007874 -1.000000 0.000000 1.000000
tan 0.007874 -1.000000 0.000000 1.000000
tan 0.212412 -0.976378 0.023064 1.000000
tan 0.314961 -0.945006 -0.002480 1.000000
tan -0.212350 -0.976378 0.030752 1.000000
tan -0.307211 -0.952880 0.005084 1.000000
tan 0.000000 0.000000 0.984252 1.000000
tan 0.000000 0.000000 1.000000 1.000000
tan 0.000000 0.000000 1.000000 1.000000
tan 0.000000 0.000000 1.000000 1.000000
tan 0.000000 -1.000000 0.000000 1.000000
tan 0.000000 -1.000000 0.000000 1.000000
tan 0.000000 -1.000000 0.000000 1.000000
tan 0.000000 -1.000000 0.000000 1.000000
tan 0.000000 0.000000 1.000000 1.000000
tan 0.000000 0.000000 1.000000 1.000000
tan 0.000000 0.000000 1.000000 1.000000
tan 0.000000 0.000000 1.000000 1.000000
tan 0.000000 -1.000000 -0.078740 1.000000
tan 0.000000 -1.000000 -0.078740 1.000000
tan 0.000000 -1.000000 -0.078740 1.000000
tan 0.000000 -1.000000 -0.078740 1.000000
tan 0.000000 -1.000000 0.078740 1.000000
tan 0.000000 -1.000000 0.078740 1.000000
tan 0.000000 -1.000000 0.078740 1.000000
tan 0.000000 -1.000000 0.078740 1.000000
tan 0.976378 -0.000000 -0.007874 1.000000
tan 0.891934 0.000000 0.000000 1.000000
tan 1.000000 -0.007564 -0.007874 1.000000
tan 1.000000 0.000000 0.000000 1.000000
tan 1.000000 -0.007316 0.007874 1.000000
tan 1.000000 0.007316 0.007874 1.000000
tan 1.000000 0.000000 0.000000 1.000000
tan 1.000000 0.007874 -0.000000 1.000000
tan 0.000000 -1.000000 0.078740 1.000000
tan 0.000000 -1.000000 0.078740 1.000000
tan 0.050902 -0.950772 -0.011098 1.000000
tan 0.025730 -0.993180 -0.015438 1.000000
tan 0.063922 -0.994420 0.000496 1.000000
tan 0.000000 -1.000000 -0.078740 1.000000
tan 0.000000 -1.000000 -0.078740 1.000000
tan -1.000000 -0.015190 -0.007874 1.000000
tan -1.000000 0.000000 0.000000 1.000000
tan -1.000000 -0.015748 0.000000 1.000000
tan -1.000000 0.000000 0.000000 1.000000
tan -1.000000 0.015252 -0.007874 1.000000
tan -0.932234 0.019964 0.009300 1.000000
tan -0.891066 0.000000 0.000000 1.000000
tan 0.038192 -0.965466 -0.001488 1.000000
tan 0.076880 -0.991134 -0.005332 1.000000
tan 0.007812 -0.992126 -0.078120 1.000000
tan 0.007874 -1.000000 0.000000 1.000000
tan 0.029450 -0.940294 0.068448 1.000000
tan 0.000000 -1.000000 0.078740 1.000000
tan 0.084816 -0.930498 0.098704 1.000000
tan 0.015624 -0.992126 0.125612 1.000000
tan 0.000000 -0.992126 0.125984 1.000000
tan 0.055118 -1.000000 0.000000 1.000000
tan 0.055118 -1.000000 0.000000 1.000000
tan 0.049600 -0.943146 -0.118606 1.000000
tan 0.055118 -1.000000 0.000000 1.000000
tan 0.055118 -1.000000 -0.007874 1.000000
tan -0.015624 -0.992126 -0.126356 1.000000
tan 0.007812 -0.992126 -0.125984 1.000000
f 3/3/3 2/2/2 1/1/1
f 6/6/6 5/5/5 4/4/4
f 9/9/9 8/8/8 7/7/7
f 7/7/7 10/10/10 9/9/9
f 13/13/13 12/12/12 11/11/11
f 14/14/14 12/12/12 13/13/13
f 17/17/17 16/16/16 15/15/15
f 18/18/18 15/15/15 16/16/16
f 21/21/21 20/20/20 19/19/19
f 22/22/22 19/19/19 20/20/20
f 25/25/25 24/24/24 23/23/23
f 26/26/26 23/23/23 24/24/24
f 29/29/29 28/28/28 27/27/27
f 30/30/30 27/27/27 28/28/28
f 33/33/33 32/32/32 31/31/31
f 32/32/32 33/33/33 34/34/34
f 34/34/34 33/33/33 35/35/35
f 35/35/35 36/36/36 34/34/34
f 37/37/37 34/34/34 36/36/36
f 38/38/38 37/37/37 36/36/36
f 41/41/41 40/40/40 39/39/39
f 42/42/42 40/40/40 41/41/41
f 41/41/41 43/43/43 42/42/42
f 42/42/42 43/43/43 44/44/44
f 45/45/45 44/44/44 43/43/43
f 48/48/48 47/47/47 46/46/46
f 47/47/47 49/49/49 46/46/46
f 50/50/50 46/46/46 49/49/49
f 49/49/49 51/51/51 50/50/50
f 49/49/49 52/52/52 51/51/51
f 55/55/55 54/54/54 53/53/53
f 56/56/56 53/53/53 54/54/54
f 56/56/56 54/54/54 57/57/57
f 58/58/58 57/57/57 54/54/54
f 61/61/61 60/60/60 59/59/59
f 60/60/60 62/62/62 59/59/59
f 63/63/63 59/59/59 62/62/62
f 59/59/59 63/63/63 64/64/64
f 64/64/64 63/63/63 65/65/65
f 65/65/65 66/66/66 64/64/64
f 66/66/66 67/67/67 64/64/64
f 67/67/67 68/68/68 64/64/64
