mtllib SM_CerealBox_02_LOD5.mtl
g SM_CerealBox_02_LOD5
#Vertices 8
#Indices 12
#Section 0 Offset 0 NumIndices 12 MaterialIndex 0 MI_CerealBox
v 0.186007 0.420910 -0.049350
v -0.181693 0.414478 0.065479
v -0.192754 -0.047215 -0.044320
v 0.192677 -0.040994 0.071808
v 0.192677 -0.040994 0.071808
v -0.192754 -0.047215 -0.044320
v -0.181693 0.414478 0.065479
v 0.186007 0.420910 -0.049350
vt 0.430176 0.350586
vt 0.842773 0.356445
vt 0.852539 0.872192
vt 0.421387 0.867798
vt 0.455322 0.866455
vt 0.026886 0.872437
vt 0.041534 0.357910
vt 0.449219 0.350586
vt1 0.542969 0.419922
vt1 1.055664 0.427734
vt1 1.067383 1.068726
vt1 0.531738 1.063171
vt1 0.574219 1.061554
vt1 0.041504 1.068970
vt1 0.059723 0.429199
vt1 0.566406 0.419922
vn 0.039370 0.007874 -1.000000
vn -0.047244 0.007874 -1.000000
vn -0.031496 -0.007874 -1.000000
vn 0.062992 -0.007874 -1.000000
vn 0.031496 -0.007874 1.000000
vn -0.062992 -0.007874 1.000000
vn -0.031496 0.007874 1.000000
vn 0.047244 0.007874 1.000000
tan 0.000000 1.000000 0.007874 1.000000
tan 0.000000 1.000000 0.007874 1.000000
tan 0.000000 1.000000 -0.007874 1.000000
tan 0.000000 1.000000 -0.007874 1.000000
tan 0.000000 1.000000 0.007874 1.000000
tan 0.000000 1.000000 0.007874 1.000000
tan 0.000000 1.000000 -0.007874 1.000000
tan 0.000000 1.000000 -0.007874 1.000000
f 3/3/3 2/2/2 1/1/1
f 4/4/4 3/3/3 1/1/1
f 7/7/7 6/6/6 5/5/5
f 8/8/8 7/7/7 5/5/5
