mtllib SM_Cabinet_04_LOD3.mtl
g SM_Cabinet_04_LOD3
#Vertices 87
#Indices 195
#Section 0 Offset 0 NumIndices 195 MaterialIndex 0 MI_Cabinet_03
v 0.022363 1.010923 -0.134462
v -0.516196 1.010923 -0.134462
v -0.516196 0.237714 -0.134462
v 0.022363 0.237714 -0.134462
v 0.518304 1.010923 -0.134462
v 0.022019 1.010923 -0.134462
v 0.022019 0.237714 -0.134462
v 0.518304 0.237714 -0.134462
v 0.557588 1.010923 -0.086832
v 0.557588 0.237714 -0.086832
v 0.557588 1.010924 0.516196
v 0.557588 0.237714 0.516196
v -0.557588 1.010923 -0.086832
v -0.557588 0.237714 0.516196
v -0.557588 0.237714 -0.086832
v -0.557588 1.010924 0.516196
v -0.511802 0.002191 -0.071425
v -0.506220 1.003820 -0.067595
v -0.508487 -0.000357 -0.128965
v -0.508155 1.003742 -0.141018
v -0.572678 0.001274 -0.139113
v -0.582028 1.004321 -0.137206
v -0.578432 0.000180 -0.079210
v -0.580348 1.004409 -0.066653
v -0.562379 0.000204 -0.067808
v -0.506220 1.003820 -0.067595
v -0.511802 0.002191 -0.071425
v 0.515207 0.003243 -0.068329
v 0.509961 1.003766 -0.066482
v 0.574221 0.000198 -0.067404
v 0.606291 1.003866 -0.095654
v 0.579274 0.001401 -0.139313
v 0.520799 1.004290 -0.142306
v 0.514335 0.000288 -0.133961
v 0.509270 1.004348 -0.128504
v 0.515207 0.003243 -0.068329
v 0.509961 1.003766 -0.066482
v -0.596111 1.001272 0.520165
v -0.591752 1.001668 -0.136067
v -0.603258 1.039972 -0.157530
v -0.595169 1.057733 0.520112
v -0.591752 1.057507 -0.136067
v 0.591752 1.001668 -0.136067
v 0.595234 1.001447 0.520113
v 0.603370 1.021213 -0.156508
v 0.596107 1.057903 0.520164
v 0.591752 1.057507 -0.136067
v -0.506236 1.003836 0.440802
v -0.571596 0.000192 0.440225
v -0.513891 0.003538 0.444374
v -0.605868 1.003995 0.472701
v -0.576095 0.001240 0.512962
v -0.507773 1.003612 0.513710
v -0.508594 0.000126 0.503383
v -0.506236 1.003836 0.440802
v -0.513891 0.003538 0.444374
v 0.574398 0.000114 0.440225
v 0.509121 1.003824 0.440569
v 0.514698 0.002207 0.444394
v 0.583667 1.003471 0.439492
v 0.581361 0.000461 0.500437
v 0.583389 1.004391 0.512139
v 0.565110 0.000231 0.511879
v 0.510839 1.003594 0.513644
v 0.511380 -0.000365 0.501972
v 0.509121 1.003824 0.440569
v 0.514698 0.002207 0.444394
v -0.591752 1.057507 -0.136067
v 0.596107 1.057903 0.520164
v -0.595169 1.057733 0.520112
v 0.591752 1.057507 -0.136067
v -0.603258 1.039972 -0.157530
v 0.603370 1.021213 -0.156508
v -0.591752 1.001668 -0.136067
v 0.591752 1.001668 -0.136067
v -0.596111 1.001272 0.520165
v 0.595234 1.001447 0.520113
v 0.574971 0.261108 -0.137676
v 0.570338 0.234475 0.469512
v 0.571660 0.280617 0.469390
v 0.564834 0.234729 -0.138142
v 0.565686 0.281803 -0.139162
v -0.565770 0.233777 -0.139256
v -0.564834 0.280936 -0.138142
v -0.574964 0.254395 -0.137571
v -0.570338 0.281190 0.469512
v -0.571660 0.235048 0.469390
vt 0.583008 0.315430
vt 0.736816 0.315430
vt 0.736816 0.000488
vt 0.583008 0.000488
vt 0.583008 0.315430
vt 0.736816 0.315430
vt 0.736816 0.000488
vt 0.583008 0.000488
vt 0.538574 0.636230
vt 0.538574 0.321289
vt 0.768066 0.636230
vt 0.768066 0.321289
vt 0.768066 0.315430
vt 0.538574 0.000488
vt 0.768066 0.000488
vt 0.538574 0.315430
vt 0.881836 0.418945
vt 0.887207 0.828369
vt 0.857910 0.419922
vt 0.858398 0.828491
vt 0.832031 0.421387
vt 0.829102 0.828735
vt 0.807617 0.420410
vt 0.801270 0.828735
vt 0.798828 0.419922
vt 0.771973 0.828369
vt 0.780762 0.418945
vt 0.403809 0.490234
vt 0.411133 0.899231
vt 0.381592 0.490723
vt 0.370117 0.899475
vt 0.353271 0.492188
vt 0.328857 0.899597
vt 0.328125 0.491211
vt 0.321289 0.899597
vt 0.301270 0.490234
vt 0.295898 0.899353
vt 0.994629 0.682617
vt 0.997070 0.934814
vt 0.979004 0.942169
vt 0.970215 0.682617
vt 0.968750 0.934875
vt 0.971191 0.478516
vt 0.972656 0.226074
vt 0.982422 0.485352
vt 0.997070 0.226074
vt 0.999512 0.478516
vt 0.532227 0.899231
vt 0.502441 0.490723
vt 0.524414 0.490723
vt 0.489990 0.899536
vt 0.474121 0.492188
vt 0.446045 0.899231
vt 0.447021 0.490723
vt 0.417725 0.899231
vt 0.424316 0.490234
vt 0.802246 0.002441
vt 0.772461 0.411133
vt 0.780762 0.001465
vt 0.801270 0.411133
vt 0.827148 0.003418
vt 0.830078 0.411621
vt 0.835938 0.003418
vt 0.858398 0.411133
vt 0.857910 0.002441
vt 0.887207 0.411133
vt 0.881836 0.001465
vt 0.280029 0.482422
vt 0.531250 -0.000977
vt 0.531250 0.483887
vt 0.280029 0.000488
vt 0.269043 0.487305
vt 0.262695 -0.003906
vt 0.251221 0.482422
vt 0.251221 0.000488
vt 0.000015 0.484375
vt 0.000005 -0.000977
vt 0.906738 0.223145
vt 0.895996 0.000000
vt 0.915039 0.000488
vt 0.895996 0.223633
vt 0.915527 0.223145
vt 0.895996 0.683594
vt 0.915527 0.683350
vt 0.904785 0.683594
vt 0.915527 0.906494
vt 0.896484 0.906250
vt1 0.482422 0.763916
vt1 0.287598 0.763916
vt1 0.287598 0.496582
vt1 0.482422 0.496582
vt1 0.482422 0.763916
vt1 0.287598 0.763916
vt1 0.287598 0.496582
vt1 0.482422 0.496582
vt1 0.061890 0.764526
vt1 0.061890 0.497559
vt1 0.256836 0.764526
vt1 0.256836 0.497559
vt1 0.482422 0.763916
vt1 0.287598 0.496582
vt1 0.482422 0.496582
vt1 0.287598 0.763916
vt1 0.927246 0.394043
vt1 0.932129 0.741455
vt1 0.906738 0.394531
vt1 0.907227 0.741455
vt1 0.884766 0.395996
vt1 0.882812 0.741699
vt1 0.864258 0.395020
vt1 0.858887 0.741699
vt1 0.856934 0.394531
vt1 0.834473 0.741455
vt1 0.841309 0.394531
vt1 0.818848 0.018555
vt1 0.825195 0.365234
vt1 0.799805 0.019043
vt1 0.790527 0.365723
vt1 0.775879 0.020020
vt1 0.755371 0.365723
vt1 0.754883 0.019043
vt1 0.749023 0.365723
vt1 0.731934 0.019043
vt1 0.727539 0.365723
vt1 0.892578 0.144043
vt1 0.894531 0.357910
vt1 0.879395 0.364746
vt1 0.871582 0.144043
vt1 0.870605 0.357910
vt1 0.602051 0.607910
vt1 0.603516 0.394531
vt1 0.611816 0.614502
vt1 0.624023 0.394531
vt1 0.626465 0.607910
vt1 0.807129 0.742676
vt1 0.781250 0.396484
vt1 0.799805 0.395996
vt1 0.770996 0.742920
vt1 0.757324 0.396973
vt1 0.733887 0.742676
vt1 0.734375 0.396484
vt1 0.709473 0.742676
vt1 0.714844 0.395996
vt1 0.626953 0.018555
vt1 0.601074 0.365234
vt1 0.607910 0.018066
vt1 0.625977 0.365234
vt1 0.647461 0.019531
vt1 0.649902 0.365723
vt1 0.654785 0.019043
vt1 0.674316 0.365234
vt1 0.673828 0.018555
vt1 0.698730 0.365234
vt1 0.693848 0.018066
vt1 0.470947 0.231445
vt1 0.060364 0.018066
vt1 0.472168 0.018066
vt1 0.061890 0.231445
vt1 0.474854 0.240723
vt1 0.057861 0.246094
vt1 0.470947 0.255859
vt1 0.061890 0.255859
vt1 0.472412 0.469238
vt1 0.060699 0.469238
vt1 0.024490 0.208008
vt1 0.015358 0.017578
vt1 0.031464 0.017578
vt1 0.015472 0.207031
vt1 0.031769 0.206543
vt1 0.015381 0.599365
vt1 0.031677 0.599121
vt1 0.022629 0.597900
vt1 0.031799 0.788330
vt1 0.015686 0.788208
vn 0.000000 -0.000000 -1.000000
vn 0.000000 -0.000000 -1.000000
vn 0.000000 -0.000000 -1.000000
vn 0.000000 -0.000000 -1.000000
vn 0.000000 -0.000000 -1.000000
vn 0.000000 -0.000000 -1.000000
vn 0.000000 -0.000000 -1.000000
vn 0.000000 -0.000000 -1.000000
vn 1.000000 0.000000 0.000000
vn 1.000000 0.000000 0.000000
vn 1.000000 0.000000 0.000000
vn 1.000000 0.000000 0.000000
vn -1.000000 0.000000 0.000000
vn -1.000000 0.000000 0.000000
vn -1.000000 0.000000 0.000000
vn -1.000000 0.000000 0.000000
vn 0.952756 -0.031496 0.299213
vn 0.976378 0.000000 0.212598
vn 0.913386 -0.031496 -0.401575
vn 0.590551 -0.000000 -0.811023
vn -0.519685 -0.031496 -0.850394
vn -0.881890 -0.000000 -0.472441
vn -0.992126 -0.023622 0.086614
vn -0.692913 0.000000 0.716535
vn -0.062992 -0.023622 1.000000
vn 0.291339 0.000000 0.952756
vn 0.346457 -0.039370 0.937008
vn -0.267717 -0.031496 0.960630
vn -0.267717 0.000000 0.960630
vn 0.456693 -0.031496 0.889764
vn 1.000000 0.000000 0.023622
vn 0.748031 -0.023622 -0.669291
vn -0.125984 -0.000000 -0.992126
vn -0.787402 -0.039370 -0.614173
vn -1.000000 -0.000000 -0.055118
vn -0.976378 -0.023622 0.212598
vn -0.960630 0.000000 0.283465
vn -0.763780 -0.645669 0.000000
vn 0.000000 -1.000000 -0.007874
vn -0.984252 0.165354 -0.039370
vn -0.598425 0.803149 -0.000000
vn 0.000000 1.000000 -0.007874
vn 0.000000 -1.000000 -0.007874
vn 0.598425 -0.803149 0.000000
vn 0.992126 -0.125984 -0.039370
vn 0.763780 0.645669 -0.000000
vn 0.000000 1.000000 -0.007874
vn 0.291339 -0.000000 -0.952756
vn -0.464567 -0.031496 -0.881890
vn 0.299213 -0.031496 -0.952756
vn -1.000000 0.000000 0.055118
vn -0.716535 -0.023622 0.692913
vn 0.606299 0.000000 0.795275
vn 0.913386 -0.031496 0.409449
vn 0.976378 -0.000000 -0.204724
vn 0.968504 -0.031496 -0.236220
vn 0.456693 -0.031496 -0.889764
vn -0.291339 -0.000000 -0.952756
vn -0.346457 -0.039370 -0.937008
vn 0.811024 -0.000000 -0.590551
vn 0.992126 -0.023622 0.086614
vn 0.748031 0.000000 0.669291
vn 0.047244 -0.023622 1.000000
vn -0.606299 0.000000 0.795275
vn -0.913386 -0.031496 0.401575
vn -0.976378 -0.000000 -0.212598
vn -0.952756 -0.031496 -0.299213
vn 0.000000 1.000000 -0.007874
vn 0.000000 1.000000 -0.000000
vn 0.000000 1.000000 -0.000000
vn 0.000000 1.000000 -0.007874
vn 0.000000 0.086614 -1.000000
vn 0.000000 -0.078740 -1.000000
vn 0.000000 -1.000000 -0.007874
vn 0.000000 -1.000000 -0.007874
vn 0.000000 -1.000000 0.000000
vn 0.000000 -1.000000 0.000000
vn 0.992126 0.047244 0.141732
vn 0.921260 -0.385827 0.023622
vn 0.976378 0.228346 0.007874
vn 0.031496 -0.417323 -0.905512
vn 0.007874 0.283464 -0.960630
vn -0.007874 -0.283465 -0.960630
vn -0.031496 0.417323 -0.905512
vn -0.992126 -0.047244 0.141732
vn -0.921260 0.385827 0.023622
vn -0.976378 -0.228346 0.007874
tan 0.000000 -1.000000 0.000000 1.000000
tan 0.000000 -1.000000 0.000000 1.000000
tan 0.000000 -1.000000 0.000000 1.000000
tan 0.000000 -1.000000 0.000000 1.000000
tan 0.000000 -1.000000 0.000000 1.000000
tan 0.000000 -1.000000 0.000000 1.000000
tan 0.000000 -1.000000 0.000000 1.000000
tan 0.000000 -1.000000 0.000000 1.000000
tan 0.000000 -1.000000 0.000000 1.000000
tan 0.000000 -1.000000 0.000000 1.000000
tan 0.000000 -1.000000 0.000000 1.000000
tan 0.000000 -1.000000 0.000000 1.000000
tan 0.000000 -1.000000 0.000000 1.000000
tan 0.000000 -1.000000 0.000000 1.000000
tan 0.000000 -1.000000 0.000000 1.000000
tan 0.000000 -1.000000 0.000000 1.000000
tan -0.101184 -0.922748 0.225061 1.000000
tan -0.003348 -0.976378 0.015376 1.000000
tan 0.013020 -0.937814 0.103168 1.000000
tan 0.025544 -0.972100 0.018600 1.000000
tan 0.013888 -0.948974 0.026660 1.000000
tan 0.000000 -0.945626 0.000000 1.000000
tan 0.027714 -0.992126 0.046872 1.000000
tan 0.011284 -0.989956 0.010912 1.000000
tan 0.086614 -1.000000 -0.018166 1.000000
tan 0.067518 -0.959638 -0.020646 1.000000
tan 0.308637 -0.896274 -0.151776 1.000000
tan -0.151280 -0.945502 -0.073160 1.000000
tan -0.022692 -0.964846 -0.006324 1.000000
tan -0.122822 -0.929692 0.030132 1.000000
tan -0.000372 -1.000000 0.015748 1.000000
tan -0.014260 -0.992622 0.019096 1.000000
tan -0.007812 -0.992126 0.000992 1.000000
tan -0.085870 -0.947238 0.170810 1.000000
tan -0.000434 -1.000000 0.007874 1.000000
tan 0.061752 -0.961002 0.176824 1.000000
tan 0.004464 -0.960630 0.015128 1.000000
tan -0.081344 0.096224 0.933350 1.000000
tan -0.228346 -0.007688 0.976378 1.000000
tan -0.051088 -0.069750 0.984252 1.000000
tan -0.069564 -0.051832 0.990886 1.000000
tan -0.173228 0.007750 0.984252 1.000000
tan 0.173228 -0.007750 0.984252 1.000000
tan 0.069564 0.051832 0.990886 1.000000
tan 0.046314 0.054684 0.992126 1.000000
tan 0.081344 -0.096224 0.933350 1.000000
tan 0.228346 0.007688 0.976378 1.000000
tan 0.030008 -0.959638 0.009176 1.000000
tan 0.114824 -0.922872 -0.027528 1.000000
tan 0.202554 -0.930250 0.094364 1.000000
tan -0.000868 -1.000000 -0.015748 1.000000
tan 0.023312 -0.994482 -0.009796 1.000000
tan 0.031310 -0.976440 -0.023870 1.000000
tan 0.020336 -0.935210 -0.117304 1.000000
tan -0.004836 -0.976378 -0.023064 1.000000
tan -0.070060 -0.955112 -0.159898 1.000000
tan -0.108810 -0.929692 -0.022940 1.000000
tan -0.067518 -0.959638 0.020646 1.000000
tan -0.316015 -0.896274 0.154504 1.000000
tan -0.018600 -0.975014 -0.025544 1.000000
tan -0.021576 -0.992126 -0.023436 1.000000
tan 0.000000 -1.004712 0.000000 1.000000
tan -0.023622 -1.000000 -0.022506 1.000000
tan -0.031310 -0.976440 -0.023870 1.000000
tan -0.016182 -0.937814 -0.110360 1.000000
tan 0.003348 -0.976378 -0.015376 1.000000
tan 0.101184 -0.922748 -0.225060 1.000000
tan 1.000000 0.000000 0.000000 1.000000
tan 1.000000 0.000000 0.000000 1.000000
tan 1.000000 0.000000 0.000000 1.000000
tan 1.000000 0.000000 0.000000 1.000000
tan 1.000000 0.000000 0.000000 1.000000
tan 1.000000 0.000000 0.000000 1.000000
tan 1.000000 0.000000 0.000000 1.000000
tan 1.000000 0.000000 0.000000 1.000000
tan 1.000000 0.000000 0.000000 1.000000
tan 1.000000 0.000000 0.000000 1.000000
tan -0.144708 0.062496 0.992126 1.000000
tan -0.011470 0.030690 0.948602 1.000000
tan 0.017360 -0.107694 0.970488 1.000000
tan 0.870916 -0.318619 0.177134 1.000000
tan 0.942402 0.196540 0.065720 1.000000
tan 0.949966 0.181412 -0.061318 1.000000
tan 0.870916 -0.318619 -0.177134 1.000000
tan -0.144708 0.062496 -0.992126 1.000000
tan -0.011470 0.030690 -0.948602 1.000000
tan 0.017360 -0.107694 -0.970488 1.000000
f 3/3/3 2/2/2 1/1/1
f 4/4/4 3/3/3 1/1/1
f 7/7/7 6/6/6 5/5/5
f 8/8/8 7/7/7 5/5/5
f 11/11/11 10/10/10 9/9/9
f 11/11/11 12/12/12 10/10/10
f 15/15/15 14/14/14 13/13/13
f 16/16/16 13/13/13 14/14/14
f 19/19/19 18/18/18 17/17/17
f 18/18/18 19/19/19 20/20/20
f 19/19/19 21/21/21 20/20/20
f 20/20/20 21/21/21 22/22/22
f 21/21/21 23/23/23 22/22/22
f 24/24/24 22/22/22 23/23/23
f 25/25/25 24/24/24 23/23/23
f 24/24/24 25/25/25 26/26/26
f 27/27/27 26/26/26 25/25/25
f 30/30/30 29/29/29 28/28/28
f 31/31/31 29/29/29 30/30/30
f 32/32/32 31/31/31 30/30/30
f 31/31/31 32/32/32 33/33/33
f 34/34/34 33/33/33 32/32/32
f 35/35/35 33/33/33 34/34/34
f 34/34/34 36/36/36 35/35/35
f 37/37/37 35/35/35 36/36/36
f 40/40/40 39/39/39 38/38/38
f 41/41/41 40/40/40 38/38/38
f 40/40/40 41/41/41 42/42/42
f 45/45/45 44/44/44 43/43/43
f 46/46/46 44/44/44 45/45/45
f 47/47/47 46/46/46 45/45/45
f 50/50/50 49/49/49 48/48/48
f 48/48/48 49/49/49 51/51/51
f 49/49/49 52/52/52 51/51/51
f 51/51/51 52/52/52 53/53/53
f 54/54/54 53/53/53 52/52/52
f 53/53/53 54/54/54 55/55/55
f 56/56/56 55/55/55 54/54/54
f 59/59/59 58/58/58 57/57/57
f 60/60/60 57/57/57 58/58/58
f 57/57/57 60/60/60 61/61/61
f 62/62/62 61/61/61 60/60/60
f 61/61/61 62/62/62 63/63/63
f 62/62/62 64/64/64 63/63/63
f 63/63/63 64/64/64 65/65/65
f 64/64/64 66/66/66 65/65/65
f 67/67/67 65/65/65 66/66/66
f 70/70/70 69/69/69 68/68/68
f 71/71/71 68/68/68 69/69/69
f 68/68/68 71/71/71 72/72/72
f 73/73/73 72/72/72 71/71/71
f 72/72/72 73/73/73 74/74/74
f 75/75/75 74/74/74 73/73/73
f 76/76/76 74/74/74 75/75/75
f 77/77/77 76/76/76 75/75/75
f 80/80/80 79/79/79 78/78/78
f 78/78/78 79/79/79 81/81/81
f 80/80/80 78/78/78 82/82/82
f 78/78/78 81/81/81 82/82/82
f 81/81/81 83/83/83 82/82/82
f 83/83/83 84/84/84 82/82/82
f 83/83/83 85/85/85 84/84/84
f 85/85/85 86/86/86 84/84/84
f 87/87/87 85/85/85 83/83/83
f 86/86/86 85/85/85 87/87/87
