mtllib SM_Crayon06_LOD3.mtl
g SM_Crayon06_LOD3
#Vertices 78
#Indices 84
#Section 0 Offset 0 NumIndices 84 MaterialIndex 0 MI_OfficeSupplies
v 0.097338 0.006479 -0.001839
v 0.072547 0.003463 0.003465
v 0.075239 0.009935 0.003906
v 0.097338 0.006479 -0.001839
v 0.072526 0.001191 -0.002141
v 0.072547 0.003463 0.003465
v 0.097338 0.006479 -0.001839
v 0.071121 0.003947 -0.005784
v 0.072526 0.001191 -0.002141
v 0.097338 0.006479 -0.001839
v 0.072388 0.006849 -0.006567
v 0.071121 0.003947 -0.005784
v 0.072388 0.006849 -0.006567
v 0.097338 0.006479 -0.001839
v 0.071201 0.009764 -0.005788
v 0.071201 0.009764 -0.005788
v 0.097338 0.006479 -0.001839
v 0.072822 0.012557 -0.002025
v 0.072822 0.012557 -0.002025
v 0.097338 0.006479 -0.001839
v 0.075239 0.009935 0.003906
v -0.090428 0.004941 0.003893
v 0.075239 0.009935 0.003906
v 0.072547 0.003463 0.003465
v 0.075239 0.009935 0.003906
v -0.090428 0.004941 0.003893
v -0.084147 0.009185 0.004170
v -0.085590 0.012394 0.000227
v 0.072822 0.012557 -0.002025
v 0.075239 0.009935 0.003906
v -0.085590 0.012394 0.000227
v 0.075239 0.009935 0.003906
v -0.084147 0.009185 0.004170
v 0.072822 0.012557 -0.002025
v -0.085590 0.012394 0.000227
v -0.085009 0.011424 -0.004028
v -0.085009 0.011424 -0.004028
v 0.071201 0.009764 -0.005788
v 0.072822 0.012557 -0.002025
v 0.071201 0.009764 -0.005788
v -0.085009 0.011424 -0.004028
v -0.084155 0.008836 -0.006150
v -0.084155 0.008836 -0.006150
v 0.072388 0.006849 -0.006567
v 0.071201 0.009764 -0.005788
v 0.072388 0.006849 -0.006567
v -0.084155 0.008836 -0.006150
v -0.084069 0.004777 -0.005957
v 0.072388 0.006849 -0.006567
v -0.084069 0.004777 -0.005957
v 0.071121 0.003947 -0.005784
v 0.071121 0.003947 -0.005784
v -0.084069 0.004777 -0.005957
v -0.084801 0.002277 -0.004031
v 0.071121 0.003947 -0.005784
v -0.084801 0.002277 -0.004031
v 0.072526 0.001191 -0.002141
v 0.072526 0.001191 -0.002141
v -0.084801 0.002277 -0.004031
v -0.084661 0.001171 0.000070
v -0.084661 0.001171 0.000070
v 0.072547 0.003463 0.003465
v 0.072526 0.001191 -0.002141
v 0.072547 0.003463 0.003465
v -0.084661 0.001171 0.000070
v -0.090428 0.004941 0.003893
v -0.090428 0.004941 0.003893
v -0.084801 0.002277 -0.004031
v -0.084069 0.004777 -0.005957
v -0.084155 0.008836 -0.006150
v -0.090428 0.004941 0.003893
v -0.085009 0.011424 -0.004028
v -0.084661 0.001171 0.000070
v -0.084801 0.002277 -0.004031
v -0.085009 0.011424 -0.004028
v -0.085590 0.012394 0.000227
v -0.084147 0.009185 0.004170
v -0.090428 0.004941 0.003893
vt 0.112915 0.838623
vt 0.117859 0.788940
vt 0.128662 0.796631
vt 0.112549 0.838745
vt 0.105835 0.789551
vt 0.117432 0.788940
vt 0.113220 0.838745
vt 0.095520 0.789673
vt 0.104309 0.789795
vt 0.114014 0.838623
vt 0.090149 0.794800
vt 0.094116 0.790161
vt 0.089783 0.794922
vt 0.114136 0.838501
vt 0.083862 0.795898
vt 0.152222 0.802979
vt 0.115112 0.839600
vt 0.143555 0.799072
vt 0.142212 0.798218
vt 0.114868 0.839233
vt 0.129272 0.796387
vt 0.341064 0.666504
vt 0.351807 0.991623
vt 0.339355 0.986282
vt 0.352051 0.991608
vt 0.341553 0.666504
vt 0.349609 0.678955
vt 0.359619 0.676025
vt 0.364258 0.987083
vt 0.351562 0.991631
vt 0.359619 0.676025
vt 0.351562 0.991669
vt 0.349609 0.678955
vt 0.364502 0.987106
vt 0.359619 0.676025
vt 0.368164 0.677246
vt 0.301270 0.677246
vt 0.306641 0.984085
vt 0.297363 0.987343
vt 0.306641 0.984055
vt 0.301270 0.677490
vt 0.307861 0.678955
vt 0.307617 0.678955
vt 0.312500 0.986328
vt 0.306641 0.984070
vt 0.312500 0.986328
vt 0.307617 0.678955
vt 0.315674 0.679199
vt 0.312500 0.986328
vt 0.315674 0.679199
vt 0.318359 0.983795
vt 0.318359 0.983810
vt 0.315674 0.679199
vt 0.322021 0.677734
vt 0.318359 0.983795
vt 0.322021 0.677734
vt 0.327393 0.986465
vt 0.327393 0.986481
vt 0.322021 0.677734
vt 0.330322 0.677979
vt 0.330078 0.677979
vt 0.339111 0.986351
vt 0.327393 0.986473
vt 0.338623 0.986382
vt 0.331055 0.677979
vt 0.338135 0.666748
vt 0.086487 0.778809
vt 0.099182 0.774780
vt 0.103271 0.779419
vt 0.103638 0.787598
vt 0.085510 0.779419
vt 0.098999 0.791992
vt 0.091675 0.772705
vt 0.099182 0.775024
vt 0.099426 0.792114
vt 0.091736 0.793335
vt 0.083740 0.788330
vt 0.085938 0.778564
vt1 0.239136 0.154297
vt1 0.359863 0.057129
vt1 0.366943 0.097656
vt1 0.238159 0.153809
vt1 0.332764 0.031738
vt1 0.359131 0.056152
vt1 0.239624 0.155273
vt1 0.310059 0.009277
vt1 0.328857 0.028809
vt1 0.241943 0.156738
vt1 0.287109 0.008301
vt1 0.305908 0.007324
vt1 0.285889 0.007812
vt1 0.242310 0.156738
vt1 0.270996 -0.002930
vt1 0.404053 0.164062
vt1 0.241821 0.161133
vt1 0.393555 0.136230
vt1 0.392578 0.131348
vt1 0.242065 0.160156
vt1 0.368408 0.099121
vt1 0.138428 -0.021484
vt1 0.168579 0.987900
vt1 0.130005 0.971466
vt1 0.169189 0.987885
vt1 0.139404 -0.021484
vt1 0.164673 0.016602
vt1 0.195801 0.007812
vt1 0.207031 0.973267
vt1 0.167969 0.987900
vt1 0.195557 0.007812
vt1 0.167847 0.987915
vt1 0.164551 0.016602
vt1 0.207520 0.973267
vt1 0.195435 0.007812
vt1 0.221924 0.011230
vt1 0.014374 0.011230
vt1 0.028168 0.963440
vt1 -0.000199 0.973328
vt1 0.028503 0.963440
vt1 0.014389 0.011230
vt1 0.034729 0.016602
vt1 0.034424 0.016602
vt1 0.046753 0.970673
vt1 0.028366 0.963440
vt1 0.046692 0.970673
vt1 0.034607 0.016602
vt1 0.059479 0.017090
vt1 0.046661 0.970657
vt1 0.059479 0.017090
vt1 0.064941 0.962921
vt1 0.064880 0.962921
vt1 0.059479 0.017090
vt1 0.078674 0.012695
vt1 0.065125 0.962921
vt1 0.078674 0.012695
vt1 0.092773 0.971436
vt1 0.092590 0.971436
vt1 0.078735 0.012695
vt1 0.104553 0.013184
vt1 0.103638 0.013184
vt1 0.129395 0.971481
vt1 0.093079 0.971436
vt1 0.127808 0.971512
vt1 0.107361 0.013184
vt1 0.129395 -0.021484
vt1 0.423340 0.031250
vt1 0.464355 0.025879
vt1 0.474121 0.042969
vt1 0.470459 0.067871
vt1 0.419922 0.032227
vt1 0.453613 0.078613
vt1 0.442627 0.015625
vt1 0.464355 0.027344
vt1 0.455078 0.079102
vt1 0.430908 0.078613
vt1 0.409424 0.058594
vt1 0.421631 0.029785
vn 0.275591 -0.614173 0.740157
vn 0.031496 -0.661417 0.748031
vn 0.228346 0.488189 0.842520
vn 0.393701 -0.748031 0.535433
vn 0.078740 -0.992126 -0.070866
vn 0.086614 -0.629921 0.771653
vn 0.409449 -0.598425 -0.685039
vn 0.062992 -0.574803 -0.818897
vn 0.078740 -0.976378 -0.212598
vn 0.307087 -0.141732 -0.937008
vn 0.094488 -0.007874 -0.992126
vn 0.078740 -0.511811 -0.858268
vn 0.094488 -0.015748 -0.992126
vn 0.338583 0.291338 -0.889764
vn 0.078740 0.472441 -0.881890
vn 0.078740 0.551181 -0.826772
vn 0.314961 0.629921 -0.708661
vn 0.094488 0.976378 -0.196850
vn 0.086614 1.000000 -0.015748
vn 0.314961 0.763779 0.559055
vn 0.110236 0.543307 0.834646
vn 0.000000 -0.307086 0.952756
vn 0.000000 0.472441 0.881890
vn 0.000000 -0.503937 0.866142
vn 0.000000 0.519685 0.858268
vn 0.000000 -0.291338 0.952756
vn 0.000000 0.417323 0.905512
vn 0.000000 0.976378 0.212598
vn 0.000000 1.000000 -0.047244
vn 0.000000 0.543307 0.842520
vn 0.000000 0.976378 0.228346
vn 0.000000 0.535433 0.842520
vn 0.000000 0.425197 0.905512
vn 0.000000 0.984252 -0.173228
vn 0.000000 0.984252 0.173228
vn 0.000000 0.834646 -0.551181
vn 0.000000 0.826771 -0.566929
vn 0.000000 0.543307 -0.834646
vn 0.000000 0.984252 -0.188976
vn 0.000000 0.511811 -0.858268
vn 0.000000 0.818897 -0.574803
vn 0.000000 0.346457 -0.937008
vn 0.000000 0.354331 -0.937008
vn 0.000000 -0.000000 -1.000000
vn 0.000000 0.519685 -0.858268
vn 0.000000 -0.000000 -1.000000
vn 0.000000 0.338583 -0.944882
vn 0.000000 -0.385827 -0.921260
vn 0.000000 -0.000000 -1.000000
vn 0.000000 -0.385827 -0.921260
vn 0.000000 -0.519685 -0.858268
vn 0.000000 -0.519685 -0.850394
vn 0.000000 -0.385827 -0.921260
vn 0.000000 -0.826772 -0.566929
vn 0.000000 -0.543307 -0.834646
vn 0.000000 -0.826772 -0.559055
vn 0.000000 -0.976378 -0.204724
vn 0.000000 -0.984252 -0.188976
vn 0.000000 -0.834646 -0.551181
vn 0.000000 -0.984252 0.157480
vn 0.000000 -0.984252 0.181102
vn 0.000000 -0.606299 0.795276
vn 0.000000 -1.000000 -0.070866
vn 0.000000 -0.637795 0.771653
vn 0.000000 -0.960630 0.275591
vn 0.000000 -0.606299 0.795276
vn -1.000000 0.000000 0.000000
vn -1.000000 0.000000 0.000000
vn -1.000000 0.000000 0.000000
vn -1.000000 0.000000 0.000000
vn -1.000000 0.000000 0.000000
vn -1.000000 0.000000 0.000000
vn -1.000000 0.000000 0.000000
vn -1.000000 0.000000 0.000000
vn -1.000000 0.000000 0.000000
vn -1.000000 0.000000 0.000000
vn -1.000000 0.000000 0.000000
vn -1.000000 0.000000 0.000000
tan -0.526257 -0.581189 -0.286317 1.000000
tan -0.526009 -0.561039 -0.473929 1.000000
tan -0.819828 0.200818 0.105834 1.000000
tan -0.743071 -0.545973 -0.216380 1.000000
tan -0.984314 -0.086490 0.117180 1.000000
tan -0.937442 -0.059024 0.057040 1.000000
tan -0.784860 -0.602021 0.056792 1.000000
tan -0.163122 -0.799057 0.548329 1.000000
tan -0.953314 -0.123752 0.215264 1.000000
tan -0.885362 -0.309877 -0.243288 1.000000
tan -0.882758 -0.453097 -0.080476 1.000000
tan -0.605493 -0.615599 0.311551 1.000000
tan -0.867134 -0.476533 -0.075020 1.000000
tan -0.817286 -0.358981 -0.428545 1.000000
tan -0.479137 -0.743010 -0.440821 1.000000
tan -0.041230 0.815922 0.540021 1.000000
tan -0.046500 0.723541 0.622481 1.000000
tan -0.745737 0.200818 0.638105 1.000000
tan -0.937008 0.086490 0.338583 1.000000
tan -0.463823 -0.283650 0.648831 1.000000
tan -0.290843 -0.784301 0.548949 1.000000
tan -0.952756 0.000000 0.000000 1.000000
tan -0.881890 -0.006944 0.003720 1.000000
tan -0.866142 0.000000 0.000000 1.000000
tan -0.858268 0.006758 -0.004092 1.000000
tan -0.952756 0.000000 0.000000 1.000000
tan -0.912084 0.000000 0.000000 1.000000
tan -0.974704 0.000000 0.000000 1.000000
tan -1.000000 -0.001860 -0.039370 1.000000
tan -0.937690 -0.106144 0.068448 1.000000
tan -0.974580 0.000000 0.000000 1.000000
tan -0.926220 0.019902 -0.012648 1.000000
tan -0.925600 0.007130 -0.003348 1.000000
tan -0.984252 0.000000 0.000000 1.000000
tan -0.984252 0.000000 0.000000 1.000000
tan -0.860686 -0.004340 -0.006572 1.000000
tan -0.932234 -0.022320 -0.032550 1.000000
tan -0.930436 -0.052576 -0.034224 1.000000
tan -0.982764 0.000000 0.000000 1.000000
tan -0.907930 -0.006758 -0.004030 1.000000
tan -0.945068 -0.004526 -0.006448 1.000000
tan -0.937008 -0.007378 -0.002728 1.000000
tan -0.939798 -0.014756 -0.005580 1.000000
tan -1.000000 -0.007874 0.000000 1.000000
tan -0.878728 -0.020274 -0.012276 1.000000
tan -1.000000 0.000000 0.000000 1.000000
tan -0.947548 0.000000 0.000000 1.000000
tan -0.948602 -0.007254 0.003038 1.000000
tan -1.000000 -0.007874 0.000000 1.000000
tan -0.948602 -0.014508 0.006076 1.000000
tan -0.862360 -0.020274 0.012276 1.000000
tan -0.905078 -0.013392 0.008184 1.000000
tan -0.948602 -0.007254 0.003038 1.000000
tan -0.941162 -0.008928 0.013020 1.000000
tan -0.930436 -0.052576 0.034224 1.000000
tan -0.930498 -0.022010 0.032550 1.000000
tan -0.974766 0.000000 0.000000 1.000000
tan -0.984252 -0.001488 0.007750 1.000000
tan -0.860686 -0.004340 0.006572 1.000000
tan -0.984252 0.000000 0.000000 1.000000
tan -0.982826 -0.005704 -0.031000 1.000000
tan -0.941224 0.175336 0.133672 1.000000
tan -0.992126 0.006696 -0.094488 1.000000
tan -0.977866 0.024304 0.020088 1.000000
tan -0.958460 0.000000 0.000000 1.000000
tan -0.989584 0.031310 0.023870 1.000000
tan 0.000000 -1.000000 0.000000 1.000000
tan 0.000000 -1.000000 0.000000 1.000000
tan 0.000000 -1.000000 0.000000 1.000000
tan 0.000000 -1.000000 0.000000 1.000000
tan 0.000000 -1.000000 0.000000 1.000000
tan 0.000000 -1.000000 0.000000 1.000000
tan 0.000000 -1.000000 0.000000 1.000000
tan 0.000000 -1.000000 0.000000 1.000000
tan 0.000000 -1.000000 0.000000 1.000000
tan 0.000000 -1.000000 0.000000 1.000000
tan 0.000000 -1.000000 0.000000 1.000000
tan 0.000000 -1.000000 0.000000 1.000000
f 3/3/3 2/2/2 1/1/1
f 6/6/6 5/5/5 4/4/4
f 9/9/9 8/8/8 7/7/7
f 12/12/12 11/11/11 10/10/10
f 15/15/15 14/14/14 13/13/13
f 18/18/18 17/17/17 16/16/16
f 21/21/21 20/20/20 19/19/19
f 24/24/24 23/23/23 22/22/22
f 27/27/27 26/26/26 25/25/25
f 30/30/30 29/29/29 28/28/28
f 33/33/33 32/32/32 31/31/31
f 36/36/36 35/35/35 34/34/34
f 39/39/39 38/38/38 37/37/37
f 42/42/42 41/41/41 40/40/40
f 45/45/45 44/44/44 43/43/43
f 48/48/48 47/47/47 46/46/46
f 51/51/51 50/50/50 49/49/49
f 54/54/54 53/53/53 52/52/52
f 57/57/57 56/56/56 55/55/55
f 60/60/60 59/59/59 58/58/58
f 63/63/63 62/62/62 61/61/61
f 66/66/66 65/65/65 64/64/64
f 69/69/69 68/68/68 67/67/67
f 69/69/69 71/71/71 70/70/70
f 70/70/70 71/71/71 72/72/72
f 74/74/74 73/73/73 71/71/71
f 76/76/76 75/75/75 71/71/71
f 76/76/76 78/78/78 77/77/77
