mtllib SM_CerealBox_01_LOD3.mtl
g SM_CerealBox_01_LOD3
#Vertices 28
#Indices 42
#Section 0 Offset 0 NumIndices 42 MaterialIndex 0 MI_CerealBox
v -0.131736 0.008285 0.040944
v 0.137313 0.005168 0.042561
v -0.140636 0.001731 0.039285
v 0.137703 0.375164 -0.041988
v -0.140551 0.374617 -0.042031
v -0.137347 0.005219 -0.042566
v 0.141154 0.004628 -0.041641
v 0.137703 0.375164 -0.041988
v -0.137627 0.375215 0.042038
v -0.140551 0.374617 -0.042031
v 0.140483 0.374599 0.042041
v 0.141154 0.004628 -0.041641
v -0.137347 0.005219 -0.042566
v -0.140636 0.001731 0.039285
v 0.137313 0.005168 0.042561
v 0.137313 0.005168 0.042561
v 0.140483 0.374599 0.042041
v 0.141154 0.004628 -0.041641
v 0.137703 0.375164 -0.041988
v -0.140551 0.374617 -0.042031
v -0.140636 0.001731 0.039285
v -0.137347 0.005219 -0.042566
v -0.137627 0.375215 0.042038
v -0.140636 0.001731 0.039285
v -0.137627 0.375215 0.042038
v -0.131736 0.008285 0.040944
v 0.137313 0.005168 0.042561
v 0.140483 0.374599 0.042041
vt 0.895508 0.012695
vt 0.892090 0.315430
vt 0.887695 0.003906
vt 0.483887 -0.002930
vt 0.793945 -0.002930
vt 0.790527 0.408691
vt 0.480225 0.409668
vt 0.891602 0.956573
vt 0.796875 0.650146
vt 0.890625 0.646484
vt 0.797852 0.960114
vt 0.797363 0.318359
vt 0.797363 0.007812
vt 0.888672 0.004395
vt 0.891113 0.314453
vt 0.392822 0.408691
vt 0.393311 -0.002930
vt 0.486572 0.409668
vt 0.486816 -0.002930
vt -0.002193 -0.002930
vt 0.088379 0.412598
vt -0.002777 0.408691
vt 0.091431 -0.002930
vt 0.085205 0.412598
vt 0.088562 -0.002930
vt 0.095154 0.405273
vt 0.395020 0.408691
vt 0.398438 -0.002930
vt1 0.633301 0.459961
vt1 0.020767 0.453125
vt1 0.651367 0.444824
vt1 0.609863 0.483398
vt1 0.995605 0.484375
vt1 0.991211 0.996048
vt1 0.604980 0.996918
vt1 0.022949 0.226562
vt1 0.644043 0.034668
vt1 0.651367 0.224609
vt1 0.015793 0.036621
vt1 0.015076 0.261230
vt1 0.644043 0.261230
vt1 0.650879 0.446289
vt1 0.023071 0.451660
vt1 0.496338 0.996189
vt1 0.497070 0.484375
vt1 0.612793 0.996922
vt1 0.613281 0.483398
vt1 0.005333 0.484375
vt1 0.117920 1.001005
vt1 0.004608 0.996187
vt1 0.121704 0.483398
vt1 0.114014 1.001006
vt1 0.118164 0.483398
vt1 0.126343 0.991920
vt1 0.499268 0.996189
vt1 0.503418 0.484375
vn -0.015748 -0.007874 1.000000
vn 0.007874 -0.181102 0.984252
vn -0.023622 -0.401575 0.913386
vn 0.023622 0.007874 -1.000000
vn -0.039370 0.007874 -1.000000
vn -0.023622 -0.007874 -1.000000
vn 0.047244 -0.007874 -1.000000
vn 0.023622 1.000000 -0.078740
vn -0.015748 1.000000 0.078740
vn -0.031496 0.992126 -0.118110
vn 0.023622 0.992126 0.118110
vn 0.023622 -1.000000 -0.070866
vn -0.031496 -0.992126 -0.125984
vn -0.015748 -1.000000 0.070866
vn 0.023622 -0.992126 0.125984
vn 0.992126 -0.007874 0.110236
vn 0.992126 0.007874 0.094488
vn 0.992126 -0.007874 -0.086614
vn 0.992126 0.007874 -0.110236
vn -0.992126 0.007874 -0.094488
vn -1.000000 -0.007874 0.086614
vn -0.992126 -0.007874 -0.110236
vn -0.992126 0.007874 0.110236
vn -0.519685 0.000000 0.858268
vn -0.023622 0.007874 1.000000
vn -0.015748 -0.007874 1.000000
vn 0.023622 -0.007874 1.000000
vn 0.039370 0.007874 1.000000
tan -0.992126 0.125984 -0.014632 1.000000
tan -0.968752 -0.170500 -0.023622 1.000000
tan -0.841466 0.352409 0.133176 1.000000
tan 0.000000 1.000000 0.007874 1.000000
tan 0.000000 1.000000 0.007874 1.000000
tan 0.000000 1.000000 -0.007874 1.000000
tan 0.000000 1.000000 -0.007874 1.000000
tan -1.000000 0.023622 -0.000000 1.000000
tan -1.000000 -0.015748 0.000000 1.000000
tan -0.992126 -0.033356 -0.015624 1.000000
tan -0.992126 0.025482 -0.015624 1.000000
tan -1.000000 -0.024180 0.007874 1.000000
tan -0.992126 0.033480 -0.015624 1.000000
tan -1.000000 0.016306 0.007874 1.000000
tan -0.992126 -0.026598 -0.023436 1.000000
tan 0.007874 0.992126 -0.000000 1.000000
tan -0.007874 0.992126 -0.000000 1.000000
tan 0.007874 0.992126 -0.000000 1.000000
tan -0.007874 0.992126 -0.000000 1.000000
tan 0.007874 0.992126 -0.000000 1.000000
tan -0.007874 1.000000 -0.000000 1.000000
tan -0.007874 0.992126 -0.000000 1.000000
tan 0.007874 0.992126 -0.000000 1.000000
tan 0.000000 0.858268 -0.000000 1.000000
tan 0.000000 1.000000 -0.007874 1.000000
tan 0.000000 1.000000 0.007874 1.000000
tan 0.000000 1.000000 0.007874 1.000000
tan 0.000000 1.000000 -0.007874 1.000000
f 3/3/3 2/2/2 1/1/1
f 6/6/6 5/5/5 4/4/4
f 7/7/7 6/6/6 4/4/4
f 10/10/10 9/9/9 8/8/8
f 11/11/11 8/8/8 9/9/9
f 14/14/14 13/13/13 12/12/12
f 15/15/15 14/14/14 12/12/12
f 18/18/18 17/17/17 16/16/16
f 17/17/17 18/18/18 19/19/19
f 22/22/22 21/21/21 20/20/20
f 23/23/23 20/20/20 21/21/21
f 26/26/26 25/25/25 24/24/24
f 25/25/25 26/26/26 27/27/27
f 28/28/28 25/25/25 27/27/27
