mtllib SM_Cabinet_04_LOD4.mtl
g SM_Cabinet_04_LOD4
#Vertices 55
#Indices 99
#Section 0 Offset 0 NumIndices 99 MaterialIndex 0 MI_Cabinet_03
v -0.614789 0.947390 0.520534
v -0.591752 1.001668 -0.136067
v -0.594650 1.058846 -0.138919
v 0.022363 1.010923 -0.134462
v -0.516196 1.010923 -0.134462
v -0.516196 0.237714 -0.134462
v 0.022363 0.237714 -0.134462
v 0.518304 1.010923 -0.134462
v 0.022019 1.010923 -0.134462
v 0.022019 0.237714 -0.134462
v 0.518304 0.237714 -0.134462
v 0.594563 1.000252 -0.142551
v 0.596107 1.057903 0.520164
v 0.591752 1.057507 -0.136067
v 0.595234 1.001447 0.520113
v 0.557588 1.010923 -0.086832
v 0.557588 0.237714 -0.086832
v 0.557588 1.010924 0.516196
v 0.557588 0.237714 0.516196
v -0.557588 1.010923 -0.086832
v -0.557588 0.237714 0.516196
v -0.557588 0.237714 -0.086832
v -0.557588 1.010924 0.516196
v -0.506236 1.003836 0.440802
v -0.491803 0.002569 0.444758
v -0.559960 1.003685 0.540360
v -0.663529 -0.001181 0.485154
v -0.506236 1.003836 0.440802
v -0.491803 0.002569 0.444758
v 0.515207 0.003243 -0.068329
v 0.509961 1.003766 -0.066482
v 0.645928 -0.001072 -0.137318
v 0.551415 1.004965 -0.179535
v 0.515207 0.003243 -0.068329
v 0.509961 1.003766 -0.066482
v 0.493684 0.001201 0.446132
v 0.509121 1.003824 0.440569
v 0.562866 1.003634 0.539824
v 0.666873 -0.000575 0.484658
v 0.509121 1.003824 0.440569
v 0.493684 0.001201 0.446132
v -0.613297 0.002036 -0.093348
v -0.506220 1.003820 -0.067595
v -0.491659 0.001284 -0.071968
v -0.576042 1.003811 -0.204527
v -0.491659 0.001284 -0.071968
v -0.506220 1.003820 -0.067595
v -0.594650 1.058846 -0.138919
v 0.596107 1.057903 0.520164
v -0.614789 0.947390 0.520534
v 0.591752 1.057507 -0.136067
v 0.594563 1.000252 -0.142551
v -0.591752 1.001668 -0.136067
v -0.614789 0.947390 0.520534
v 0.595234 1.001447 0.520113
vt 1.018555 0.682861
vt 0.997070 0.934814
vt 0.970703 0.935181
vt 0.583008 0.315430
vt 0.736816 0.315430
vt 0.736816 0.000488
vt 0.583008 0.000488
vt 0.583008 0.315430
vt 0.736816 0.315430
vt 0.736816 0.000488
vt 0.583008 0.000488
vt 0.972656 0.479980
vt 0.997070 0.226074
vt 0.999512 0.478516
vt 0.972656 0.226074
vt 0.538574 0.636230
vt 0.538574 0.321289
vt 0.768066 0.636230
vt 0.768066 0.321289
vt 0.768066 0.315430
vt 0.538574 0.000488
vt 0.768066 0.000488
vt 0.538574 0.315430
vt 0.417725 0.899231
vt 0.427979 0.490723
vt 0.468750 0.899475
vt 0.485107 0.491699
vt 0.532227 0.899231
vt 0.532715 0.489258
vt 0.403809 0.490234
vt 0.411133 0.899231
vt 0.358398 0.491211
vt 0.347412 0.899658
vt 0.301270 0.490234
vt 0.295898 0.899353
vt 0.876953 0.001953
vt 0.887207 0.411133
vt 0.835938 0.411621
vt 0.819824 0.003418
vt 0.772461 0.411133
vt 0.772949 0.000488
vt 0.819336 0.420898
vt 0.771973 0.828369
vt 0.773438 0.417969
vt 0.833496 0.828979
vt 0.877441 0.419434
vt 0.887207 0.828369
vt 0.278809 0.483398
vt 0.531250 -0.000977
vt 0.531738 0.491699
vt 0.280029 0.000488
vt 0.253906 -0.000977
vt 0.251221 0.482422
vt -0.000113 0.491699
vt 0.000005 -0.000977
vt1 0.912598 0.144043
vt1 0.894531 0.357910
vt1 0.872070 0.358398
vt1 0.482422 0.763916
vt1 0.287598 0.763916
vt1 0.287598 0.496582
vt1 0.482422 0.496582
vt1 0.482422 0.763916
vt1 0.287598 0.763916
vt1 0.287598 0.496582
vt1 0.482422 0.496582
vt1 0.603516 0.609863
vt1 0.624023 0.394531
vt1 0.626465 0.607910
vt1 0.603516 0.394531
vt1 0.061890 0.764526
vt1 0.061890 0.497559
vt1 0.256836 0.764526
vt1 0.256836 0.497559
vt1 0.482422 0.763916
vt1 0.287598 0.496582
vt1 0.482422 0.496582
vt1 0.287598 0.763916
vt1 0.709473 0.742676
vt1 0.718262 0.396484
vt1 0.752930 0.742920
vt1 0.766113 0.396484
vt1 0.807129 0.742676
vt1 0.807129 0.395508
vt1 0.818848 0.018555
vt1 0.825195 0.365234
vt1 0.780273 0.019043
vt1 0.770996 0.365723
vt1 0.731934 0.019043
vt1 0.727539 0.365723
vt1 0.689941 0.018555
vt1 0.698730 0.365234
vt1 0.655273 0.365234
vt1 0.641602 0.019043
vt1 0.601074 0.365234
vt1 0.601562 0.017090
vt1 0.874512 0.395508
vt1 0.834473 0.741455
vt1 0.834961 0.393555
vt1 0.886230 0.741699
vt1 0.923340 0.394531
vt1 0.932129 0.741455
vt1 0.471924 0.232422
vt1 0.060364 0.018066
vt1 0.479004 0.017578
vt1 0.061890 0.231445
vt1 0.060913 0.253418
vt1 0.470947 0.255859
vt1 0.479004 0.469238
vt1 0.060699 0.469238
vn -0.299213 -0.952756 0.007874
vn 0.000000 -1.000000 -0.007874
vn -0.724409 0.685039 -0.031496
vn 0.000000 -0.000000 -1.000000
vn 0.000000 -0.000000 -1.000000
vn 0.000000 -0.000000 -1.000000
vn 0.000000 -0.000000 -1.000000
vn 0.000000 -0.000000 -1.000000
vn 0.000000 -0.000000 -1.000000
vn 0.000000 -0.000000 -1.000000
vn 0.000000 -0.000000 -1.000000
vn 0.708661 -0.700787 -0.031496
vn 0.763780 0.645669 -0.000000
vn 0.000000 1.000000 -0.007874
vn 0.598425 -0.803149 0.000000
vn 1.000000 0.000000 0.000000
vn 1.000000 0.000000 0.000000
vn 1.000000 0.000000 0.000000
vn 1.000000 0.000000 0.000000
vn -1.000000 0.000000 0.000000
vn -1.000000 0.000000 0.000000
vn -1.000000 0.000000 0.000000
vn -1.000000 0.000000 0.000000
vn 0.976378 -0.000000 -0.204724
vn 0.992126 -0.031496 -0.110236
vn -0.118110 0.000000 0.992126
vn -0.992126 -0.023622 0.110236
vn 0.291339 -0.000000 -0.952756
vn 0.519685 -0.031496 -0.850394
vn -0.267717 -0.031496 0.960630
vn -0.267717 0.000000 0.960630
vn 0.976378 -0.039370 -0.220472
vn -0.110236 -0.000000 -0.992126
vn -0.976378 -0.023622 0.212598
vn -0.960630 0.000000 0.283465
vn -0.992126 -0.031496 -0.125984
vn -0.976378 -0.000000 -0.212598
vn 0.110236 0.000000 0.992126
vn 0.992126 -0.015748 0.110236
vn -0.291339 -0.000000 -0.952756
vn -0.551181 -0.031496 -0.834646
vn -1.000000 -0.031496 0.055118
vn 0.291339 0.000000 0.952756
vn 0.551181 -0.031496 0.834646
vn -0.417323 -0.000000 -0.905512
vn 0.984252 -0.031496 0.157480
vn 0.976378 0.000000 0.212598
vn 0.000000 1.000000 -0.055118
vn 0.000000 1.000000 -0.000000
vn 0.000000 1.000000 -0.000000
vn 0.000000 1.000000 -0.007874
vn 0.000000 -1.000000 -0.086614
vn 0.000000 -1.000000 -0.007874
vn 0.000000 -1.000000 0.000000
vn 0.000000 -1.000000 0.000000
tan -0.269639 0.092380 0.931738 1.000000
tan -0.228346 -0.007688 0.976378 1.000000
tan -0.240560 -0.211296 0.937194 1.000000
tan 0.000000 -1.000000 0.000000 1.000000
tan 0.000000 -1.000000 0.000000 1.000000
tan 0.000000 -1.000000 0.000000 1.000000
tan 0.000000 -1.000000 0.000000 1.000000
tan 0.000000 -1.000000 0.000000 1.000000
tan 0.000000 -1.000000 0.000000 1.000000
tan 0.000000 -1.000000 0.000000 1.000000
tan 0.000000 -1.000000 0.000000 1.000000
tan 0.243785 0.204105 0.943828 1.000000
tan 0.081344 -0.096224 0.933350 1.000000
tan 0.228346 0.007688 0.976378 1.000000
tan 0.069564 0.051832 0.990886 1.000000
tan 0.000000 -1.000000 0.000000 1.000000
tan 0.000000 -1.000000 0.000000 1.000000
tan 0.000000 -1.000000 0.000000 1.000000
tan 0.000000 -1.000000 0.000000 1.000000
tan 0.000000 -1.000000 0.000000 1.000000
tan 0.000000 -1.000000 0.000000 1.000000
tan 0.000000 -1.000000 0.000000 1.000000
tan 0.000000 -1.000000 0.000000 1.000000
tan -0.004836 -0.976378 -0.023064 1.000000
tan -0.044268 -0.984314 -0.117180 1.000000
tan 0.007812 -0.993056 0.000930 1.000000
tan 0.020150 -0.992126 -0.031248 1.000000
tan 0.030008 -0.959638 0.009176 1.000000
tan 0.274041 -0.811706 0.197532 1.000000
tan -0.151280 -0.945502 -0.073160 1.000000
tan -0.022692 -0.964846 -0.006324 1.000000
tan -0.034162 -0.979850 0.023684 1.000000
tan -0.007812 -0.992126 0.000868 1.000000
tan 0.061752 -0.961002 0.176824 1.000000
tan 0.004464 -0.960630 0.015128 1.000000
tan 0.048112 -0.984314 -0.132804 1.000000
tan 0.003348 -0.976378 -0.015376 1.000000
tan -0.015624 -0.992994 0.001736 1.000000
tan -0.016616 -0.992126 0.007812 1.000000
tan -0.067518 -0.959638 0.020646 1.000000
tan -0.445905 -0.720565 0.321657 1.000000
tan 0.036456 -0.992126 0.094488 1.000000
tan 0.067518 -0.959638 -0.020646 1.000000
tan 0.397917 -0.775002 -0.292020 1.000000
tan 0.021390 -0.937814 -0.009858 1.000000
tan -0.053568 -0.977742 0.139252 1.000000
tan -0.003348 -0.976378 0.015376 1.000000
tan 1.000000 0.000000 0.000000 1.000000
tan 1.000000 0.000000 0.000000 1.000000
tan 1.000000 0.000000 0.000000 1.000000
tan 1.000000 0.000000 0.000000 1.000000
tan 1.000000 0.000000 0.000000 1.000000
tan 1.000000 0.000000 0.000000 1.000000
tan 1.000000 0.000000 0.000000 1.000000
tan 1.000000 0.000000 0.000000 1.000000
f 3/3/3 2/2/2 1/1/1
f 6/6/6 5/5/5 4/4/4
f 7/7/7 6/6/6 4/4/4
f 10/10/10 9/9/9 8/8/8
f 11/11/11 10/10/10 8/8/8
f 14/14/14 13/13/13 12/12/12
f 13/13/13 15/15/15 12/12/12
f 18/18/18 17/17/17 16/16/16
f 18/18/18 19/19/19 17/17/17
f 22/22/22 21/21/21 20/20/20
f 23/23/23 20/20/20 21/21/21
f 26/26/26 25/25/25 24/24/24
f 25/25/25 26/26/26 27/27/27
f 28/28/28 27/27/27 26/26/26
f 29/29/29 27/27/27 28/28/28
f 32/32/32 31/31/31 30/30/30
f 33/33/33 31/31/31 32/32/32
f 32/32/32 34/34/34 33/33/33
f 35/35/35 33/33/33 34/34/34
f 38/38/38 37/37/37 36/36/36
f 39/39/39 38/38/38 36/36/36
f 38/38/38 39/39/39 40/40/40
f 41/41/41 40/40/40 39/39/39
f 44/44/44 43/43/43 42/42/42
f 45/45/45 42/42/42 43/43/43
f 46/46/46 42/42/42 45/45/45
f 47/47/47 46/46/46 45/45/45
f 50/50/50 49/49/49 48/48/48
f 51/51/51 48/48/48 49/49/49
f 52/52/52 48/48/48 51/51/51
f 48/48/48 52/52/52 53/53/53
f 54/54/54 53/53/53 52/52/52
f 55/55/55 54/54/54 52/52/52
