mtllib SM_Carpet_02_LOD5.mtl
g SM_Carpet_02_LOD5
#Vertices 7
#Indices 12
#Section 0 Offset 0 NumIndices 12 MaterialIndex 0 MI_Carpet_Inst
v -0.870790 0.009039 1.325314
v 0.821733 0.009522 -0.000022
v 0.776336 0.009043 1.329222
v -0.907853 0.009497 0.000017
v -0.949040 0.009054 -1.326487
v 0.821733 0.009522 -0.000022
v 0.865708 0.008920 -1.328517
vt 0.479736 0.536133
vt 0.825195 0.269531
vt 0.812500 0.540527
vt 0.471680 0.268066
vt 0.466064 0.000000
vt 0.825195 0.269531
vt 0.833008 -0.000977
vt1 0.049438 0.987923
vt1 0.800781 0.500488
vt1 0.772949 0.996048
vt1 0.031921 0.498047
vt1 0.019775 0.006836
vt1 0.800781 0.500488
vt1 0.817871 0.005371
vn 0.000000 1.000000 -0.000000
vn 0.000000 1.000000 -0.000000
vn 0.000000 1.000000 -0.000000
vn 0.000000 1.000000 -0.000000
vn 0.000000 1.000000 -0.000000
vn 0.000000 1.000000 -0.000000
vn 0.000000 1.000000 -0.015748
tan -0.007874 -0.000000 -1.000000 1.000000
tan -0.007874 -0.000000 -1.000000 1.000000
tan -0.007874 -0.000000 -1.000000 1.000000
tan -0.007874 -0.000000 -1.000000 1.000000
tan 0.000000 -0.000000 -1.000000 1.000000
tan 0.000000 -0.000000 -1.000000 1.000000
tan 0.000000 -0.015748 -1.000000 1.000000
f 3/3/3 2/2/2 1/1/1
f 4/4/4 1/1/1 2/2/2
f 4/4/4 6/6/6 5/5/5
f 7/7/7 5/5/5 6/6/6
