mtllib SM_Carpet_01_LOD5.mtl
g SM_Carpet_01_LOD5
#Vertices 7
#Indices 15
#Section 0 Offset 0 NumIndices 15 MaterialIndex 0 MI_Carpet_Inst
v 0.310695 0.027289 1.109604
v -0.507152 0.027253 0.995538
v -1.069125 0.027414 0.401646
v 1.020528 0.027081 0.517304
v 1.083110 0.027381 -0.383147
v 0.177206 0.027378 -1.180436
v -0.981595 0.025763 -0.636315
vt 0.056580 0.387695
vt 0.001781 0.229004
vt 0.057434 0.072754
vt 0.229248 0.461426
vt 0.397949 0.390137
vt 0.458740 0.152344
vt 0.253418 -0.006836
vt1 0.129639 0.841064
vt1 0.011894 0.500244
vt1 0.131470 0.163574
vt1 0.500977 0.999816
vt1 0.863770 0.845703
vt1 0.994141 0.334961
vt1 0.552734 -0.007812
vn 0.000000 1.000000 0.007874
vn 0.000000 1.000000 0.007874
vn -0.007874 1.000000 -0.000000
vn 0.015748 1.000000 0.007874
vn 0.007874 1.000000 -0.000000
vn 0.000000 1.000000 -0.007874
vn -0.031496 1.000000 -0.015748
tan -0.889764 0.003596 -0.456693 1.000000
tan -0.889764 0.003596 -0.456693 1.000000
tan -0.889764 -0.007006 -0.456693 1.000000
tan -0.889764 0.017546 -0.448819 1.000000
tan -0.889764 0.007006 -0.456693 1.000000
tan -0.889764 -0.003596 -0.456693 1.000000
tan -0.889764 -0.035092 -0.448819 1.000000
f 3/3/3 2/2/2 1/1/1
f 3/3/3 1/1/1 4/4/4
f 3/3/3 4/4/4 5/5/5
f 3/3/3 5/5/5 6/6/6
f 3/3/3 6/6/6 7/7/7
