mtllib SM_CerealBox_01.mtl
g SM_CerealBox_01
#Vertices 128
#Indices 324
#Section 0 Offset 0 NumIndices 324 MaterialIndex 0 MI_CerealBox
v -0.137296 0.371642 -0.039511
v -0.137296 0.008285 -0.039511
v -0.131429 0.371642 -0.041916
v -0.131429 0.008285 -0.041916
v 0.131735 0.371642 -0.040943
v 0.131735 0.008285 -0.040943
v 0.137585 0.371642 -0.038495
v 0.137585 0.008285 -0.038495
v 0.137585 0.371642 -0.038495
v 0.137585 0.008285 -0.038495
v 0.139990 0.371642 -0.032628
v 0.139990 0.008285 -0.032627
v 0.139745 0.371642 0.033661
v 0.139745 0.008285 0.033661
v 0.137297 0.371642 0.039510
v 0.137297 0.008285 0.039510
v -0.137585 0.371642 0.038495
v -0.137585 0.008285 0.038495
v -0.139990 0.371642 0.032627
v -0.139990 0.008285 0.032627
v -0.139745 0.371642 -0.033661
v -0.139745 0.008285 -0.033661
v -0.137296 0.371642 -0.039511
v -0.137296 0.008285 -0.039511
v -0.137585 0.008285 0.038495
v -0.137585 0.371642 0.038495
v -0.131736 0.008285 0.040944
v -0.131736 0.371642 0.040944
v 0.131430 0.008285 0.041915
v 0.131430 0.371642 0.041915
v 0.137297 0.008285 0.039510
v 0.137297 0.371642 0.039510
v -0.139745 0.008285 -0.033661
v -0.136224 0.003504 -0.038429
v -0.137296 0.008285 -0.039511
v -0.137318 0.002427 -0.033652
v -0.139990 0.008285 0.032627
v -0.137564 0.002427 0.032637
v -0.136505 0.003504 0.037423
v -0.137585 0.008285 0.038495
v 0.131735 0.008285 -0.040943
v 0.136505 0.003504 -0.037423
v 0.137585 0.008285 -0.038495
v 0.131726 0.002427 -0.038516
v -0.131429 0.008285 -0.041916
v -0.131438 0.002427 -0.039489
v -0.136224 0.003504 -0.038429
v -0.137296 0.008285 -0.039511
v -0.136224 0.376424 -0.038429
v -0.139745 0.371642 -0.033661
v -0.137296 0.371642 -0.039511
v -0.137318 0.377500 -0.033652
v -0.139990 0.371642 0.032627
v -0.137564 0.377500 0.032637
v -0.136505 0.376424 0.037423
v -0.137585 0.371642 0.038495
v 0.136505 0.376424 -0.037423
v 0.131735 0.371642 -0.040943
v 0.137585 0.371642 -0.038495
v 0.131726 0.377500 -0.038516
v -0.131429 0.371642 -0.041916
v -0.131438 0.377500 -0.039489
v -0.136224 0.376424 -0.038429
v -0.137296 0.371642 -0.039511
v -0.136505 0.376424 0.037423
v -0.131736 0.371642 0.040944
v -0.137585 0.371642 0.038495
v -0.131727 0.377500 0.038517
v 0.131430 0.371642 0.041915
v 0.131438 0.377500 0.039488
v 0.136224 0.376424 0.038430
v 0.137297 0.371642 0.039510
v 0.136224 0.376424 0.038430
v 0.139745 0.371642 0.033661
v 0.137297 0.371642 0.039510
v 0.137318 0.377500 0.033652
v 0.139990 0.371642 -0.032628
v 0.137564 0.377500 -0.032637
v 0.136505 0.376424 -0.037423
v 0.137585 0.371642 -0.038495
v -0.131736 0.008285 0.040944
v -0.136505 0.003504 0.037423
v -0.137585 0.008285 0.038495
v -0.131727 0.002427 0.038517
v 0.131430 0.008285 0.041915
v 0.131438 0.002427 0.039489
v 0.136224 0.003504 0.038430
v 0.137297 0.008285 0.039510
v 0.139745 0.008285 0.033661
v 0.136224 0.003504 0.038430
v 0.137297 0.008285 0.039510
v 0.137318 0.002427 0.033652
v 0.139990 0.008285 -0.032627
v 0.137564 0.002427 -0.032637
v 0.136505 0.003504 -0.037423
v 0.137585 0.008285 -0.038495
v 0.136224 0.376424 0.038430
v 0.131461 0.379927 0.033630
v 0.137318 0.377500 0.033652
v 0.131438 0.377500 0.039488
v 0.137564 0.377500 -0.032637
v -0.131705 0.379927 0.032659
v -0.131727 0.377500 0.038517
v -0.136505 0.376424 0.037423
v -0.137564 0.377500 0.032637
v -0.137318 0.377500 -0.033652
v 0.131705 0.379927 -0.032658
v 0.136505 0.376424 -0.037423
v 0.131726 0.377500 -0.038516
v -0.131438 0.377500 -0.039489
v -0.131460 0.379927 -0.033631
v -0.136224 0.376424 -0.038429
v 0.131461 0.000000 0.033630
v 0.136224 0.003504 0.038430
v 0.137318 0.002427 0.033652
v 0.137564 0.002427 -0.032637
v 0.131438 0.002427 0.039489
v 0.131705 0.000000 -0.032658
v 0.136505 0.003504 -0.037423
v 0.131726 0.002427 -0.038516
v -0.131438 0.002427 -0.039489
v -0.131705 0.000000 0.032659
v -0.131727 0.002427 0.038517
v -0.136505 0.003504 0.037423
v -0.137564 0.002427 0.032637
v -0.137318 0.002427 -0.033652
v -0.131460 0.000000 -0.033631
v -0.136224 0.003504 -0.038429
vt 0.791016 0.000000
vt 0.791016 0.405273
vt 0.783691 0.000488
vt 0.784180 0.405273
vt 0.490723 0.000488
vt 0.490723 0.405273
vt 0.483643 0.000488
vt 0.483643 0.405273
vt 0.483643 0.000488
vt 0.483643 0.405273
vt 0.476562 0.000488
vt 0.476562 0.405273
vt 0.402588 0.000488
vt 0.402588 0.405273
vt 0.395508 0.000488
vt 0.395508 0.405273
vt 0.088013 0.000488
vt 0.088074 0.405273
vt 0.080933 0.000488
vt 0.080994 0.405273
vt 0.007069 0.000488
vt 0.007126 0.405273
vt 0.000000 0.000488
vt 0.000057 0.405273
vt 0.088074 0.405273
vt 0.088013 0.000488
vt 0.095154 0.405273
vt 0.095093 0.000488
vt 0.388428 0.405273
vt 0.388428 0.000488
vt 0.395508 0.405273
vt 0.395508 0.000488
vt 0.805664 0.000000
vt 0.801758 0.008789
vt 0.797852 0.004883
vt 0.807129 0.007324
vt 0.882812 0.000488
vt 0.881836 0.007324
vt 0.887207 0.008789
vt 0.890625 0.004883
vt 0.793457 0.309082
vt 0.801758 0.313477
vt 0.798340 0.316895
vt 0.800293 0.308105
vt 0.793457 0.012695
vt 0.800293 0.014160
vt 0.801758 0.008789
vt 0.797852 0.004883
vt 0.887207 0.651123
vt 0.882812 0.642822
vt 0.890625 0.647461
vt 0.881836 0.649658
vt 0.805664 0.642578
vt 0.807129 0.649658
vt 0.801758 0.650879
vt 0.797852 0.647461
vt 0.887207 0.955566
vt 0.895508 0.951263
vt 0.890625 0.959167
vt 0.888672 0.950195
vt 0.895508 0.655273
vt 0.888184 0.656250
vt 0.887207 0.651123
vt 0.890625 0.647461
vt 0.801758 0.650879
vt 0.793457 0.655273
vt 0.797852 0.647461
vt 0.800293 0.656250
vt 0.793457 0.951294
vt 0.800293 0.950226
vt 0.801758 0.955566
vt 0.798340 0.959137
vt 0.801758 0.955566
vt 0.806152 0.963776
vt 0.798340 0.959137
vt 0.807129 0.956909
vt 0.882812 0.963928
vt 0.881836 0.956909
vt 0.887207 0.955566
vt 0.890625 0.959167
vt 0.895508 0.012695
vt 0.887207 0.008789
vt 0.890625 0.004883
vt 0.888184 0.014160
vt 0.895508 0.309082
vt 0.888672 0.308105
vt 0.887207 0.313477
vt 0.890625 0.316895
vt 0.882812 0.321777
vt 0.887207 0.313477
vt 0.890625 0.316895
vt 0.881836 0.314453
vt 0.806152 0.321289
vt 0.807129 0.314453
vt 0.801758 0.313477
vt 0.798340 0.316895
vt 0.801758 0.955566
vt 0.807617 0.949951
vt 0.807129 0.956909
vt 0.800293 0.950226
vt 0.881836 0.956909
vt 0.807129 0.656738
vt 0.800293 0.656250
vt 0.801758 0.650879
vt 0.807129 0.649658
vt 0.881836 0.649658
vt 0.881348 0.949921
vt 0.887207 0.955566
vt 0.888672 0.950195
vt 0.888184 0.656250
vt 0.881348 0.656494
vt 0.887207 0.651123
vt 0.881348 0.307617
vt 0.887207 0.313477
vt 0.881836 0.314453
vt 0.807129 0.314453
vt 0.888672 0.308105
vt 0.807617 0.307617
vt 0.801758 0.313477
vt 0.800293 0.308105
vt 0.800293 0.014160
vt 0.881348 0.014160
vt 0.888184 0.014160
vt 0.887207 0.008789
vt 0.881836 0.007324
vt 0.807129 0.007324
vt 0.807129 0.014160
vt 0.801758 0.008789
vt1 0.991699 0.488281
vt1 0.991699 0.991798
vt1 0.982910 0.488281
vt1 0.982910 0.991798
vt1 0.618164 0.488281
vt1 0.618164 0.991852
vt1 0.609375 0.488281
vt1 0.609375 0.991852
vt1 0.609375 0.488281
vt1 0.609375 0.991852
vt1 0.600586 0.488281
vt1 0.600586 0.991859
vt1 0.508301 0.488281
vt1 0.508789 0.991867
vt1 0.499756 0.488281
vt1 0.500000 0.991867
vt1 0.117493 0.488281
vt1 0.117615 0.991920
vt1 0.108704 0.488281
vt1 0.108826 0.991928
vt1 0.016846 0.488281
vt1 0.016922 0.991936
vt1 0.008064 0.488281
vt1 0.008133 0.991936
vt1 0.117615 0.991920
vt1 0.117493 0.488281
vt1 0.126343 0.991920
vt1 0.126221 0.488281
vt1 0.491211 0.991875
vt1 0.490967 0.488281
vt1 0.500000 0.991867
vt1 0.499756 0.488281
vt1 0.658691 0.278320
vt1 0.642090 0.269531
vt1 0.649414 0.262207
vt1 0.644531 0.280762
vt1 0.658691 0.434082
vt1 0.644531 0.432129
vt1 0.642090 0.442871
vt1 0.649414 0.450195
vt1 0.033630 0.252930
vt1 0.024994 0.270020
vt1 0.017715 0.262695
vt1 0.035797 0.267090
vt1 0.633301 0.252930
vt1 0.631348 0.267090
vt1 0.642090 0.269531
vt1 0.649414 0.262207
vt1 0.642090 0.217285
vt1 0.658691 0.208496
vt1 0.649414 0.224609
vt1 0.644531 0.206055
vt1 0.659180 0.052734
vt1 0.644531 0.054688
vt1 0.642090 0.043945
vt1 0.649414 0.036621
vt1 0.024994 0.217285
vt1 0.033722 0.233887
vt1 0.017715 0.224609
vt1 0.035858 0.220215
vt1 0.633301 0.233887
vt1 0.631348 0.219727
vt1 0.642090 0.217285
vt1 0.649414 0.224609
vt1 0.642090 0.043945
vt1 0.633301 0.027344
vt1 0.649414 0.036621
vt1 0.631348 0.041016
vt1 0.033661 0.027344
vt1 0.035828 0.041504
vt1 0.025024 0.043945
vt1 0.017731 0.036621
vt1 0.025024 0.043945
vt1 0.008369 0.052734
vt1 0.017731 0.036621
vt1 0.022293 0.055176
vt1 0.008064 0.208496
vt1 0.022293 0.206543
vt1 0.024994 0.217285
vt1 0.017715 0.224609
vt1 0.633301 0.459961
vt1 0.642090 0.442871
vt1 0.649414 0.450195
vt1 0.631348 0.445801
vt1 0.033722 0.459961
vt1 0.035858 0.445801
vt1 0.024994 0.442871
vt1 0.017715 0.450195
vt1 0.008064 0.434570
vt1 0.024994 0.442871
vt1 0.017715 0.450195
vt1 0.022293 0.432129
vt1 0.008347 0.278320
vt1 0.022263 0.280762
vt1 0.024994 0.270020
vt1 0.017715 0.262695
vt1 0.025024 0.043945
vt1 0.036377 0.055664
vt1 0.022293 0.055176
vt1 0.035828 0.041504
vt1 0.022293 0.206543
vt1 0.630371 0.055664
vt1 0.631348 0.041016
vt1 0.642090 0.043945
vt1 0.644531 0.054688
vt1 0.644531 0.206055
vt1 0.036438 0.205566
vt1 0.024994 0.217285
vt1 0.035858 0.220215
vt1 0.631348 0.219727
vt1 0.630859 0.205566
vt1 0.642090 0.217285
vt1 0.036438 0.431641
vt1 0.024994 0.442871
vt1 0.022293 0.432129
vt1 0.022263 0.280762
vt1 0.035858 0.445801
vt1 0.036346 0.281738
vt1 0.024994 0.270020
vt1 0.035797 0.267090
vt1 0.631348 0.267090
vt1 0.630859 0.431152
vt1 0.631348 0.445801
vt1 0.642090 0.442871
vt1 0.644531 0.432129
vt1 0.644531 0.280762
vt1 0.630371 0.281250
vt1 0.642090 0.269531
vn -0.377953 0.007874 -0.929134
vn -0.377953 -0.007874 -0.929134
vn -0.007874 0.007874 -1.000000
vn -0.007874 -0.007874 -1.000000
vn 0.015748 0.007874 -1.000000
vn 0.015748 -0.007874 -1.000000
vn 0.385827 0.007874 -0.921260
vn 0.385827 -0.007874 -0.921260
vn 0.929134 0.007874 -0.377953
vn 0.929134 -0.007874 -0.377953
vn 1.000000 0.007874 -0.031496
vn 1.000000 -0.007874 -0.031496
vn 1.000000 0.007874 0.039370
vn 1.000000 -0.007874 0.039370
vn 0.921260 0.007874 0.385827
vn 0.921260 -0.007874 0.385827
vn -0.929134 0.007874 0.377953
vn -0.929134 -0.007874 0.377953
vn -1.000000 0.007874 0.031496
vn -1.000000 -0.007874 0.031496
vn -1.000000 0.007874 -0.039370
vn -1.000000 -0.007874 -0.039370
vn -0.921260 0.007874 -0.385827
vn -0.921260 -0.007874 -0.385827
vn -0.385827 -0.007874 0.921260
vn -0.385827 0.007874 0.921260
vn -0.015748 -0.007874 1.000000
vn -0.015748 0.007874 1.000000
vn 0.007874 -0.007874 1.000000
vn 0.007874 0.007874 1.000000
vn 0.377953 -0.007874 0.929134
vn 0.377953 0.007874 0.929134
vn -1.000000 -0.007874 -0.039370
vn -0.889764 -0.322835 -0.330709
vn -0.921260 -0.007874 -0.385827
vn -0.921260 -0.377953 -0.023622
vn -1.000000 -0.007874 0.031496
vn -0.921260 -0.377953 0.015748
vn -0.889764 -0.322835 0.322835
vn -0.929134 -0.007874 0.377953
vn 0.015748 -0.007874 -1.000000
vn 0.330709 -0.322835 -0.889764
vn 0.385827 -0.007874 -0.921260
vn 0.007874 -0.385827 -0.921260
vn -0.007874 -0.007874 -1.000000
vn 0.000000 -0.385827 -0.921260
vn -0.322835 -0.322835 -0.889764
vn -0.377953 -0.007874 -0.929134
vn -0.889764 0.322835 -0.330709
vn -1.000000 0.007874 -0.039370
vn -0.921260 0.007874 -0.385827
vn -0.921260 0.377953 -0.023622
vn -1.000000 0.007874 0.031496
vn -0.921260 0.377953 0.015748
vn -0.889764 0.322835 0.322835
vn -0.929134 0.007874 0.377953
vn 0.330709 0.322834 -0.889764
vn 0.015748 0.007874 -1.000000
vn 0.385827 0.007874 -0.921260
vn 0.007874 0.385827 -0.921260
vn -0.007874 0.007874 -1.000000
vn 0.000000 0.385827 -0.921260
vn -0.322835 0.322834 -0.889764
vn -0.377953 0.007874 -0.929134
vn -0.330709 0.322835 0.889764
vn -0.015748 0.007874 1.000000
vn -0.385827 0.007874 0.921260
vn -0.007874 0.385827 0.921260
vn 0.007874 0.007874 1.000000
vn 0.000000 0.385827 0.921260
vn 0.322835 0.322835 0.889764
vn 0.377953 0.007874 0.929134
vn 0.889764 0.322835 0.330709
vn 1.000000 0.007874 0.039370
vn 0.921260 0.007874 0.385827
vn 0.921260 0.377953 0.023622
vn 1.000000 0.007874 -0.031496
vn 0.921260 0.377953 -0.015748
vn 0.889764 0.322835 -0.322835
vn 0.929134 0.007874 -0.377953
vn -0.015748 -0.007874 1.000000
vn -0.330709 -0.322834 0.889764
vn -0.385827 -0.007874 0.921260
vn -0.007874 -0.385827 0.921260
vn 0.007874 -0.007874 1.000000
vn 0.000000 -0.385827 0.921260
vn 0.322835 -0.322834 0.889764
vn 0.377953 -0.007874 0.929134
vn 1.000000 -0.007874 0.039370
vn 0.889764 -0.322835 0.330709
vn 0.921260 -0.007874 0.385827
vn 0.921260 -0.377953 0.023622
vn 1.000000 -0.007874 -0.031496
vn 0.921260 -0.377953 -0.015748
vn 0.889764 -0.322835 -0.322835
vn 0.929134 -0.007874 -0.377953
vn 0.322835 0.889764 0.322834
vn 0.007874 1.000000 0.031496
vn 0.377953 0.921260 0.023622
vn 0.007874 0.921260 0.385827
vn 0.377953 0.921260 -0.023622
vn -0.007874 1.000000 0.031496
vn -0.007874 0.921260 0.385827
vn -0.322835 0.889764 0.322834
vn -0.377953 0.921260 0.023622
vn -0.377953 0.921260 -0.023622
vn 0.007874 1.000000 -0.031496
vn 0.322835 0.889764 -0.322835
vn 0.007874 0.921260 -0.385827
vn -0.007874 0.921260 -0.385827
vn -0.007874 1.000000 -0.031496
vn -0.322835 0.889764 -0.322835
vn 0.007874 -1.000000 0.031496
vn 0.322835 -0.889764 0.322835
vn 0.377953 -0.921260 0.023622
vn 0.377953 -0.921260 -0.023622
vn 0.007874 -0.921260 0.385827
vn 0.007874 -1.000000 -0.031496
vn 0.322835 -0.889764 -0.322834
vn 0.007874 -0.921260 -0.385827
vn -0.007874 -0.921260 -0.385827
vn -0.007874 -1.000000 0.031496
vn -0.007874 -0.921260 0.385827
vn -0.322835 -0.889764 0.322835
vn -0.377953 -0.921260 0.023622
vn -0.377953 -0.921260 -0.023622
vn -0.007874 -1.000000 -0.031496
vn -0.322835 -0.889764 -0.322834
tan 0.002976 1.006138 0.007316 1.000000
tan -0.002976 1.006138 -0.007316 1.000000
tan 0.000062 1.000062 0.007874 1.000000
tan -0.000062 1.000062 -0.007874 1.000000
tan -0.000124 1.000248 0.007874 1.000000
tan 0.000124 1.000248 -0.007874 1.000000
tan -0.003038 0.997582 0.007254 1.000000
tan 0.003038 0.997582 -0.007254 1.000000
tan -0.007316 1.006138 0.002976 1.000000
tan 0.007316 1.006138 -0.002976 1.000000
tan -0.007874 1.000992 0.000248 1.000000
tan 0.007874 1.000992 -0.000248 1.000000
tan -0.007874 1.001550 -0.000310 1.000000
tan 0.007874 1.001550 0.000310 1.000000
tan -0.007254 0.997582 -0.003038 1.000000
tan 0.007254 0.997582 0.003038 1.000000
tan 0.007316 1.006138 -0.002976 1.000000
tan -0.007316 1.006138 0.002976 1.000000
tan 0.007874 1.000992 -0.000248 1.000000
tan -0.007874 1.000992 0.000248 1.000000
tan 0.007874 1.001550 0.000310 1.000000
tan -0.007874 1.001550 -0.000310 1.000000
tan 0.007254 0.997582 0.003038 1.000000
tan -0.007254 0.997582 -0.003038 1.000000
tan -0.003038 0.997582 0.007254 1.000000
tan 0.003038 0.997582 -0.007254 1.000000
tan -0.000124 1.000248 0.007874 1.000000
tan 0.000124 1.000248 -0.007874 1.000000
tan 0.000062 1.000062 0.007874 1.000000
tan -0.000062 1.000062 -0.007874 1.000000
tan 0.002976 1.006138 0.007316 1.000000
tan -0.002976 1.006138 -0.007316 1.000000
tan -0.018724 0.961870 0.283216 1.000000
tan -0.446525 0.779094 0.440821 1.000000
tan -0.263687 0.747721 0.614359 1.000000
tan -0.376093 0.905636 0.177444 1.000000
tan -0.018972 0.929878 -0.369893 1.000000
tan -0.376837 0.913510 -0.120714 1.000000
tan -0.442309 0.778225 -0.440821 1.000000
tan -0.252526 0.758261 -0.604997 1.000000
tan -0.992188 -0.126108 -0.014632 1.000000
tan -0.923864 -0.331577 -0.223076 1.000000
tan -0.828322 -0.436791 -0.343171 1.000000
tan -0.987290 -0.140802 0.050530 1.000000
tan -0.976440 0.212660 0.006014 1.000000
tan -0.994544 0.043524 -0.018228 1.000000
tan -0.921322 0.325811 0.216070 1.000000
tan -0.835328 0.435613 0.336103 1.000000
tan -0.446525 -0.779093 0.440821 1.000000
tan -0.021886 -0.930374 0.369831 1.000000
tan -0.257673 -0.758013 0.599789 1.000000
tan -0.377767 -0.913448 0.117738 1.000000
tan -0.016492 -0.961374 -0.283278 1.000000
tan -0.374729 -0.905884 -0.180420 1.000000
tan -0.442309 -0.775684 -0.443363 1.000000
tan -0.258417 -0.750945 -0.619629 1.000000
tan -0.923864 0.331577 -0.223076 1.000000
tan -0.976440 0.212722 -0.013702 1.000000
tan -0.828322 0.436791 -0.343171 1.000000
tan -0.997582 0.046562 0.010974 1.000000
tan -0.992188 -0.126046 0.006820 1.000000
tan -0.987290 -0.137826 -0.057722 1.000000
tan -0.923864 -0.335359 0.213528 1.000000
tan -0.835328 -0.435613 0.336103 1.000000
tan -0.923864 -0.331577 -0.223076 1.000000
tan -0.976440 -0.212722 -0.013702 1.000000
tan -0.828322 -0.436791 -0.343171 1.000000
tan -0.997582 -0.046562 0.010974 1.000000
tan -0.992188 0.126046 0.006820 1.000000
tan -0.987290 0.137826 -0.057722 1.000000
tan -0.921322 0.332817 0.213528 1.000000
tan -0.835328 0.435613 0.336103 1.000000
tan -0.446525 0.779094 0.440821 1.000000
tan -0.021886 0.930374 0.369831 1.000000
tan -0.257673 0.758013 0.599789 1.000000
tan -0.377767 0.913448 0.117738 1.000000
tan -0.016244 0.961374 -0.275405 1.000000
tan -0.374729 0.905884 -0.180420 1.000000
tan -0.442309 0.775683 -0.443363 1.000000
tan -0.258417 0.750945 -0.619629 1.000000
tan -0.992188 0.126108 -0.014632 1.000000
tan -0.923864 0.331577 -0.223076 1.000000
tan -0.828322 0.436791 -0.343171 1.000000
tan -0.987290 0.140802 0.050530 1.000000
tan -0.976440 -0.212660 0.006014 1.000000
tan -0.994544 -0.043524 -0.018228 1.000000
tan -0.921322 -0.325811 0.216070 1.000000
tan -0.835328 -0.435613 0.336103 1.000000
tan -0.018724 -0.961870 0.283217 1.000000
tan -0.446525 -0.779093 0.440821 1.000000
tan -0.263687 -0.747721 0.614359 1.000000
tan -0.376093 -0.905636 0.177444 1.000000
tan -0.018972 -0.929878 -0.369893 1.000000
tan -0.376837 -0.913510 -0.120714 1.000000
tan -0.442309 -0.778226 -0.440821 1.000000
tan -0.252526 -0.758261 -0.604997 1.000000
tan -0.943022 0.307583 0.095294 1.000000
tan -1.000992 0.008370 -0.015500 1.000000
tan -0.922376 0.376837 0.061380 1.000000
tan -0.997582 0.013330 -0.011470 1.000000
tan -0.922190 0.377023 -0.051150 1.000000
tan -1.000992 -0.007874 -0.000248 1.000000
tan -0.994544 -0.022444 0.033294 1.000000
tan -0.943022 -0.305041 -0.102300 1.000000
tan -0.922190 -0.377023 -0.051150 1.000000
tan -0.922376 -0.376837 0.061380 1.000000
tan -1.000992 0.007874 -0.000248 1.000000
tan -0.943022 0.305041 -0.102300 1.000000
tan -0.994544 0.022444 0.033294 1.000000
tan -0.997582 -0.013330 -0.011470 1.000000
tan -1.000992 -0.008370 -0.015500 1.000000
tan -0.943022 -0.307583 0.095294 1.000000
tan -1.000992 -0.008122 -0.007626 1.000000
tan -0.943022 -0.307583 0.095294 1.000000
tan -0.922190 -0.377209 0.043896 1.000000
tan -0.922376 -0.376651 -0.068634 1.000000
tan -0.994544 -0.022444 -0.033294 1.000000
tan -1.000992 -0.008122 0.007626 1.000000
tan -0.943022 -0.305041 -0.102300 1.000000
tan -0.997582 -0.010292 0.004216 1.000000
tan -0.994544 0.022444 -0.033294 1.000000
tan -1.000992 0.008122 0.007626 1.000000
tan -0.997582 0.010292 0.004216 1.000000
tan -0.943022 0.305041 -0.102300 1.000000
tan -0.922376 0.376651 -0.068634 1.000000
tan -0.922190 0.377209 0.043896 1.000000
tan -1.000992 0.008122 -0.007626 1.000000
tan -0.943022 0.307583 0.095294 1.000000
f 3/3/3 2/2/2 1/1/1
f 4/4/4 2/2/2 3/3/3
f 4/4/4 3/3/3 5/5/5
f 6/6/6 4/4/4 5/5/5
f 7/7/7 6/6/6 5/5/5
f 8/8/8 6/6/6 7/7/7
f 11/11/11 10/10/10 9/9/9
f 10/10/10 11/11/11 12/12/12
f 13/13/13 12/12/12 11/11/11
f 12/12/12 13/13/13 14/14/14
f 13/13/13 15/15/15 14/14/14
f 16/16/16 14/14/14 15/15/15
f 19/19/19 18/18/18 17/17/17
f 18/18/18 19/19/19 20/20/20
f 19/19/19 21/21/21 20/20/20
f 22/22/22 20/20/20 21/21/21
f 21/21/21 23/23/23 22/22/22
f 24/24/24 22/22/22 23/23/23
f 27/27/27 26/26/26 25/25/25
f 28/28/28 26/26/26 27/27/27
f 28/28/28 27/27/27 29/29/29
f 30/30/30 28/28/28 29/29/29
f 31/31/31 30/30/30 29/29/29
f 32/32/32 30/30/30 31/31/31
f 35/35/35 34/34/34 33/33/33
f 36/36/36 33/33/33 34/34/34
f 36/36/36 37/37/37 33/33/33
f 38/38/38 37/37/37 36/36/36
f 38/38/38 39/39/39 37/37/37
f 40/40/40 37/37/37 39/39/39
f 43/43/43 42/42/42 41/41/41
f 44/44/44 41/41/41 42/42/42
f 44/44/44 45/45/45 41/41/41
f 45/45/45 44/44/44 46/46/46
f 46/46/46 47/47/47 45/45/45
f 48/48/48 45/45/45 47/47/47
f 51/51/51 50/50/50 49/49/49
f 52/52/52 49/49/49 50/50/50
f 50/50/50 53/53/53 52/52/52
f 54/54/54 52/52/52 53/53/53
f 54/54/54 53/53/53 55/55/55
f 56/56/56 55/55/55 53/53/53
f 59/59/59 58/58/58 57/57/57
f 60/60/60 57/57/57 58/58/58
f 58/58/58 61/61/61 60/60/60
f 62/62/62 60/60/60 61/61/61
f 62/62/62 61/61/61 63/63/63
f 64/64/64 63/63/63 61/61/61
f 67/67/67 66/66/66 65/65/65
f 68/68/68 65/65/65 66/66/66
f 66/66/66 69/69/69 68/68/68
f 70/70/70 68/68/68 69/69/69
f 70/70/70 69/69/69 71/71/71
f 72/72/72 71/71/71 69/69/69
f 75/75/75 74/74/74 73/73/73
f 76/76/76 73/73/73 74/74/74
f 74/74/74 77/77/77 76/76/76
f 78/78/78 76/76/76 77/77/77
f 78/78/78 77/77/77 79/79/79
f 80/80/80 79/79/79 77/77/77
f 83/83/83 82/82/82 81/81/81
f 84/84/84 81/81/81 82/82/82
f 84/84/84 85/85/85 81/81/81
f 85/85/85 84/84/84 86/86/86
f 86/86/86 87/87/87 85/85/85
f 88/88/88 85/85/85 87/87/87
f 91/91/91 90/90/90 89/89/89
f 92/92/92 89/89/89 90/90/90
f 89/89/89 92/92/92 93/93/93
f 93/93/93 92/92/92 94/94/94
f 94/94/94 95/95/95 93/93/93
f 96/96/96 93/93/93 95/95/95
f 99/99/99 98/98/98 97/97/97
f 100/100/100 97/97/97 98/98/98
f 99/99/99 101/101/101 98/98/98
f 98/98/98 102/102/102 100/100/100
f 103/103/103 100/100/100 102/102/102
f 103/103/103 102/102/102 104/104/104
f 105/105/105 104/104/104 102/102/102
f 105/105/105 102/102/102 106/106/106
f 107/107/107 98/98/98 101/101/101
f 98/98/98 107/107/107 102/102/102
f 101/101/101 108/108/108 107/107/107
f 109/109/109 107/107/107 108/108/108
f 109/109/109 110/110/110 107/107/107
f 111/111/111 106/106/106 102/102/102
f 111/111/111 102/102/102 107/107/107
f 111/111/111 107/107/107 110/110/110
f 106/106/106 111/111/111 112/112/112
f 110/110/110 112/112/112 111/111/111
f 115/115/115 114/114/114 113/113/113
f 115/115/115 113/113/113 116/116/116
f 117/117/117 113/113/113 114/114/114
f 116/116/116 113/113/113 118/118/118
f 116/116/116 118/118/118 119/119/119
f 120/120/120 119/119/119 118/118/118
f 118/118/118 121/121/121 120/120/120
f 117/117/117 122/122/122 113/113/113
f 113/113/113 122/122/122 118/118/118
f 122/122/122 117/117/117 123/123/123
f 123/123/123 124/124/124 122/122/122
f 125/125/125 122/122/122 124/124/124
f 125/125/125 126/126/126 122/122/122
f 122/122/122 127/127/127 118/118/118
f 127/127/127 122/122/122 126/126/126
f 121/121/121 118/118/118 127/127/127
f 126/126/126 128/128/128 127/127/127
f 121/121/121 127/127/127 128/128/128
