mtllib SM_Carpet_01_LOD3.mtl
g SM_Carpet_01_LOD3
#Vertices 20
#Indices 54
#Section 0 Offset 0 NumIndices 54 MaterialIndex 0 MI_Carpet_Inst
v -0.898678 0.026846 0.646160
v -1.058644 0.023493 0.344147
v -1.106807 0.027375 0.006057
v -0.648804 0.027132 0.893320
v -0.336969 0.027241 1.054185
v -0.000011 0.027044 1.114071
v 0.342062 0.027290 1.054525
v 0.655176 0.027195 0.900320
v 0.906083 0.027098 0.651404
v 1.061938 0.027160 0.350480
v 1.108070 0.027331 -0.002627
v 1.059148 0.027224 -0.343944
v 0.897107 0.027311 -0.651512
v 0.654175 0.027190 -0.900975
v 0.342023 0.027292 -1.054521
v 0.000093 0.027046 -1.114057
v -0.331287 0.027230 -1.055190
v -0.653084 0.027227 -0.892248
v -0.904407 0.025573 -0.653393
v -1.055244 0.024231 -0.354200
vt 0.028900 0.125977
vt 0.068787 0.069336
vt 0.125610 0.029297
vt 0.007217 0.193848
vt 0.006866 0.265625
vt 0.027115 0.332031
vt 0.069458 0.388184
vt 0.126221 0.430664
vt 0.194458 0.453125
vt 0.263184 0.453613
vt 0.331543 0.429688
vt 0.388672 0.389160
vt 0.429443 0.331543
vt 0.452148 0.264648
vt 0.451172 0.193848
vt 0.430420 0.126465
vt 0.389160 0.071777
vt 0.330078 0.028320
vt 0.263672 0.004883
vt 0.195557 0.005371
vt1 0.070190 0.278809
vt1 0.156006 0.156250
vt1 0.278076 0.070801
vt1 0.023575 0.424805
vt1 0.022812 0.578125
vt1 0.066345 0.721191
vt1 0.157349 0.842407
vt1 0.279297 0.933655
vt1 0.426025 0.981888
vt1 0.574219 0.982864
vt1 0.720703 0.930786
vt1 0.843750 0.844116
vt1 0.931152 0.719971
vt1 0.979980 0.575928
vt1 0.978027 0.424316
vt1 0.933594 0.279297
vt1 0.844727 0.162109
vt1 0.717285 0.068848
vt1 0.574707 0.018555
vt1 0.428467 0.019043
vn -0.007874 1.000000 0.007874
vn -0.007874 1.000000 -0.000000
vn -0.007874 1.000000 -0.000000
vn -0.007874 1.000000 0.007874
vn 0.000000 1.000000 0.007874
vn 0.000000 1.000000 0.007874
vn 0.000000 1.000000 0.007874
vn 0.007874 1.000000 0.007874
vn 0.015748 1.000000 0.007874
vn 0.015748 1.000000 0.007874
vn 0.007874 1.000000 -0.000000
vn 0.007874 1.000000 -0.000000
vn 0.007874 1.000000 -0.007874
vn 0.007874 1.000000 -0.007874
vn 0.000000 1.000000 -0.007874
vn 0.000000 1.000000 -0.007874
vn 0.000000 1.000000 -0.007874
vn -0.007874 1.000000 -0.007874
vn -0.023622 1.000000 -0.015748
vn -0.062992 1.000000 -0.015748
tan -0.889764 -0.003410 -0.456693 1.000000
tan -0.889764 -0.007006 -0.456693 1.000000
tan -0.889764 -0.007006 -0.456693 1.000000
tan -0.889764 -0.003410 -0.456693 1.000000
tan -0.889764 0.003596 -0.456693 1.000000
tan -0.889764 0.003596 -0.456693 1.000000
tan -0.889764 0.003596 -0.456693 1.000000
tan -0.889764 0.010602 -0.456693 1.000000
tan -0.889764 0.017608 -0.456693 1.000000
tan -0.889764 0.017546 -0.448819 1.000000
tan -0.889764 0.007006 -0.456693 1.000000
tan -0.889764 0.007006 -0.456693 1.000000
tan -0.889764 0.003410 -0.456693 1.000000
tan -0.889764 0.003410 -0.456693 1.000000
tan -0.889764 -0.003596 -0.456693 1.000000
tan -0.889764 -0.003596 -0.456693 1.000000
tan -0.889764 -0.003596 -0.456693 1.000000
tan -0.889764 -0.010602 -0.456693 1.000000
tan -0.889764 -0.028210 -0.456693 1.000000
tan -0.897638 -0.063488 -0.440945 1.000000
f 3/3/3 2/2/2 1/1/1
f 3/3/3 1/1/1 4/4/4
f 3/3/3 4/4/4 5/5/5
f 3/3/3 5/5/5 6/6/6
f 3/3/3 6/6/6 7/7/7
f 3/3/3 7/7/7 8/8/8
f 3/3/3 8/8/8 9/9/9
f 3/3/3 9/9/9 10/10/10
f 3/3/3 10/10/10 11/11/11
f 3/3/3 11/11/11 12/12/12
f 3/3/3 12/12/12 13/13/13
f 3/3/3 13/13/13 14/14/14
f 3/3/3 14/14/14 15/15/15
f 3/3/3 15/15/15 16/16/16
f 3/3/3 16/16/16 17/17/17
f 3/3/3 17/17/17 18/18/18
f 3/3/3 18/18/18 19/19/19
f 3/3/3 19/19/19 20/20/20
