mtllib SM_Crayon03_LOD2.mtl
g SM_Crayon03_LOD2
#Vertices 149
#Indices 162
#Section 0 Offset 0 NumIndices 162 MaterialIndex 0 MI_OfficeSupplies
v 0.072981 0.003025 0.003864
v 0.069687 0.005499 0.005236
v 0.074868 0.008659 0.005165
v 0.094976 0.005588 -0.000181
v 0.072981 0.003025 0.003864
v 0.074868 0.008659 0.005165
v 0.094976 0.005588 -0.000181
v 0.072321 0.001364 0.000741
v 0.072981 0.003025 0.003864
v 0.072321 0.001364 0.000741
v 0.094976 0.005588 -0.000181
v 0.071507 0.001778 -0.002136
v 0.094976 0.005588 -0.000181
v 0.070548 0.002953 -0.003930
v 0.071507 0.001778 -0.002136
v 0.092845 0.008107 -0.001289
v 0.071991 0.004694 -0.005128
v 0.094976 0.005588 -0.000181
v 0.094976 0.005588 -0.000181
v 0.071991 0.004694 -0.005128
v 0.070548 0.002953 -0.003930
v 0.092845 0.008107 -0.001289
v 0.072329 0.006868 -0.005568
v 0.071991 0.004694 -0.005128
v 0.072329 0.006868 -0.005568
v 0.092845 0.008107 -0.001289
v 0.071130 0.009005 -0.005138
v 0.092845 0.008107 -0.001289
v 0.071630 0.010786 -0.003944
v 0.071130 0.009005 -0.005138
v 0.071630 0.010786 -0.003944
v 0.092845 0.008107 -0.001289
v 0.072952 0.011993 -0.002077
v 0.072952 0.011993 -0.002077
v 0.092845 0.008107 -0.001289
v 0.071565 0.012322 0.000756
v 0.094976 0.005588 -0.000181
v 0.072156 0.010739 0.003816
v 0.092845 0.008107 -0.001289
v 0.071565 0.012322 0.000756
v 0.092845 0.008107 -0.001289
v 0.072156 0.010739 0.003816
v 0.072156 0.010739 0.003816
v 0.094976 0.005588 -0.000181
v 0.074868 0.008659 0.005165
v -0.084058 0.006865 0.005541
v 0.074868 0.008659 0.005165
v 0.069687 0.005499 0.005236
v 0.074868 0.008659 0.005165
v -0.084058 0.006865 0.005541
v -0.084151 0.009185 0.005170
v -0.084151 0.009185 0.005170
v 0.072156 0.010739 0.003816
v 0.074868 0.008659 0.005165
v -0.084062 0.011906 0.002173
v 0.071565 0.012322 0.000756
v 0.072156 0.010739 0.003816
v -0.084062 0.011906 0.002173
v 0.072156 0.010739 0.003816
v -0.084151 0.009185 0.005170
v 0.071565 0.012322 0.000756
v -0.084062 0.011906 0.002173
v -0.084064 0.012321 0.000085
v 0.072952 0.011993 -0.002077
v -0.084064 0.012321 0.000085
v -0.084066 0.011906 -0.002004
v -0.084064 0.012321 0.000085
v 0.072952 0.011993 -0.002077
v 0.071565 0.012322 0.000756
v 0.071630 0.010786 -0.003944
v -0.084066 0.011906 -0.002004
v -0.084068 0.010723 -0.003774
v -0.084066 0.011906 -0.002004
v 0.071630 0.010786 -0.003944
v 0.072952 0.011993 -0.002077
v -0.084068 0.010723 -0.003774
v 0.071130 0.009005 -0.005138
v 0.071630 0.010786 -0.003944
v 0.071130 0.009005 -0.005138
v -0.084068 0.010723 -0.003774
v -0.084069 0.008953 -0.004957
v -0.084069 0.008953 -0.004957
v 0.072329 0.006868 -0.005568
v 0.071130 0.009005 -0.005138
v 0.072329 0.006868 -0.005568
v -0.084069 0.008953 -0.004957
v -0.084155 0.004908 -0.005152
v 0.072329 0.006868 -0.005568
v -0.084155 0.004908 -0.005152
v 0.071991 0.004694 -0.005128
v 0.071991 0.004694 -0.005128
v -0.084068 0.003006 -0.003774
v 0.070548 0.002953 -0.003930
v 0.070548 0.002953 -0.003930
v -0.084066 0.001823 -0.002004
v 0.071507 0.001778 -0.002136
v 0.071507 0.001778 -0.002136
v -0.084066 0.001823 -0.002004
v -0.084064 0.001408 0.000085
v 0.071507 0.001778 -0.002136
v -0.084064 0.001408 0.000085
v 0.072321 0.001364 0.000741
v 0.072321 0.001364 0.000741
v -0.084064 0.001408 0.000085
v -0.084062 0.001823 0.002173
v -0.084062 0.001823 0.002173
v 0.072981 0.003025 0.003864
v 0.072321 0.001364 0.000741
v 0.072981 0.003025 0.003864
v -0.084062 0.001823 0.002173
v -0.091083 0.004130 0.002661
v 0.072981 0.003025 0.003864
v -0.091083 0.004130 0.002661
v -0.084059 0.004777 0.005126
v 0.072981 0.003025 0.003864
v -0.084059 0.004777 0.005126
v 0.069687 0.005499 0.005236
v 0.069687 0.005499 0.005236
v -0.084059 0.004777 0.005126
v -0.084058 0.006865 0.005541
v -0.091083 0.004130 0.002661
v -0.084064 0.001408 0.000085
v -0.084066 0.001823 -0.002004
v -0.084068 0.003006 -0.003774
v -0.091083 0.004130 0.002661
v -0.084064 0.001408 0.000085
v -0.084062 0.001823 0.002173
v -0.084068 0.010723 -0.003774
v -0.084069 0.008953 -0.004957
v -0.084066 0.011906 -0.002004
v -0.091083 0.004130 0.002661
v -0.084064 0.012321 0.000085
v -0.091083 0.004130 0.002661
v -0.084155 0.004908 -0.005152
v -0.091083 0.004130 0.002661
v -0.084068 0.003006 -0.003774
v -0.091083 0.004130 0.002661
v -0.084064 0.012321 0.000085
v -0.084062 0.011906 0.002173
v -0.084151 0.009185 0.005170
v -0.084062 0.011906 0.002173
v -0.091083 0.004130 0.002661
v -0.084058 0.006865 0.005541
v -0.084059 0.004777 0.005126
v 0.071991 0.004694 -0.005128
v -0.084155 0.004908 -0.005152
v -0.084068 0.003006 -0.003774
v 0.070548 0.002953 -0.003930
v -0.084066 0.001823 -0.002004
vt 0.485352 0.986977
vt 0.490479 0.980637
vt 0.496338 0.990379
vt 0.112427 0.725098
vt 0.116577 0.681396
vt 0.126587 0.687012
vt 0.112732 0.725342
vt 0.109131 0.680420
vt 0.116028 0.681396
vt 0.108032 0.680420
vt 0.113525 0.725342
vt 0.102417 0.679932
vt 0.113770 0.725342
vt 0.097473 0.679443
vt 0.101746 0.680176
vt 0.107605 0.723633
vt 0.094055 0.683594
vt 0.114075 0.725342
vt 0.114014 0.725342
vt 0.094238 0.683594
vt 0.096985 0.679443
vt 0.107483 0.723633
vt 0.090027 0.686279
vt 0.093506 0.683838
vt 0.089722 0.686523
vt 0.107239 0.723633
vt 0.085083 0.686523
vt 0.107544 0.723633
vt 0.081726 0.689941
vt 0.084412 0.687012
vt 0.149902 0.693359
vt 0.120483 0.723633
vt 0.145020 0.692139
vt 0.144409 0.691650
vt 0.121155 0.724121
vt 0.141357 0.686279
vt 0.115967 0.726318
vt 0.134277 0.683838
vt 0.120789 0.723633
vt 0.140625 0.686035
vt 0.120911 0.723633
vt 0.134277 0.683838
vt 0.133911 0.683594
vt 0.114502 0.725830
vt 0.127441 0.686768
vt 0.492432 0.679199
vt 0.496826 0.990883
vt 0.490723 0.980682
vt 0.496826 0.990891
vt 0.492432 0.679199
vt 0.496826 0.678955
vt 0.496826 0.678955
vt 0.501465 0.985611
vt 0.496826 0.990883
vt 0.504883 0.678955
vt 0.508301 0.984566
vt 0.501465 0.985619
vt 0.504883 0.678955
vt 0.501465 0.985611
vt 0.496826 0.678955
vt 0.508301 0.984589
vt 0.504883 0.678955
vt 0.508789 0.678955
vt 0.513672 0.987358
vt 0.508789 0.678955
vt 0.513184 0.678955
vt 0.508789 0.678955
vt 0.513672 0.987358
vt 0.508301 0.984573
vt 0.451416 0.984940
vt 0.446289 0.679199
vt 0.450439 0.679199
vt 0.446289 0.679199
vt 0.451416 0.984940
vt 0.447021 0.987579
vt 0.450439 0.679199
vt 0.455566 0.983917
vt 0.451416 0.984940
vt 0.455566 0.983917
vt 0.450439 0.679199
vt 0.454590 0.679199
vt 0.454590 0.679199
vt 0.459717 0.986214
vt 0.455566 0.983917
vt 0.459717 0.986214
vt 0.454590 0.679199
vt 0.462646 0.678955
vt 0.459717 0.986214
vt 0.462646 0.678955
vt 0.464111 0.985512
vt 0.464111 0.985512
vt 0.467285 0.679199
vt 0.468262 0.982651
vt 0.468262 0.982651
vt 0.471436 0.679199
vt 0.472412 0.984489
vt 0.472412 0.984489
vt 0.471436 0.679199
vt 0.475586 0.679199
vt 0.472412 0.984489
vt 0.475586 0.679199
vt 0.478027 0.986023
vt 0.478027 0.986031
vt 0.475586 0.679199
vt 0.479736 0.679199
vt 0.479736 0.679199
vt 0.485107 0.987221
vt 0.478027 0.986023
vt 0.485107 0.987221
vt 0.479736 0.679199
vt 0.482910 0.665283
vt 0.485107 0.987221
vt 0.484375 0.665283
vt 0.488037 0.679199
vt 0.485107 0.987221
vt 0.488037 0.679199
vt 0.490479 0.980698
vt 0.490479 0.980713
vt 0.488037 0.679199
vt 0.492432 0.679199
vt 0.130981 0.722412
vt 0.135986 0.717041
vt 0.140015 0.717773
vt 0.143311 0.720215
vt 0.130981 0.722412
vt 0.135986 0.717041
vt 0.131958 0.717773
vt 0.143311 0.735596
vt 0.145630 0.732178
vt 0.140015 0.738037
vt 0.130981 0.722412
vt 0.135986 0.738770
vt 0.131104 0.722168
vt 0.145996 0.724121
vt 0.131348 0.722900
vt 0.143311 0.720215
vt 0.130737 0.722412
vt 0.135986 0.738770
vt 0.131958 0.738037
vt 0.126099 0.732666
vt 0.131958 0.738037
vt 0.130981 0.722656
vt 0.125366 0.728027
vt 0.126221 0.723633
vt 0.464111 0.985512
vt 0.462646 0.678955
vt 0.467285 0.679199
vt 0.468262 0.982651
vt 0.471436 0.679199
vt1 0.126953 0.973618
vt1 0.141724 0.953949
vt1 0.160034 0.984680
vt1 0.251465 0.142578
vt1 0.357666 0.056641
vt1 0.367676 0.090332
vt1 0.251709 0.143555
vt1 0.343994 0.037598
vt1 0.356689 0.055176
vt1 0.341309 0.035156
vt1 0.253418 0.145508
vt1 0.330322 0.021484
vt1 0.254150 0.145996
vt1 0.320557 0.009277
vt1 0.328369 0.020508
vt1 0.244507 0.127930
vt1 0.303711 0.011230
vt1 0.254883 0.145996
vt1 0.254883 0.145996
vt1 0.304443 0.011230
vt1 0.319336 0.008789
vt1 0.244141 0.127930
vt1 0.289307 0.007812
vt1 0.302002 0.010254
vt1 0.288086 0.007812
vt1 0.243408 0.127930
vt1 0.278076 -0.001953
vt1 0.244629 0.127930
vt1 0.262939 -0.001953
vt1 0.275635 -0.002930
vt1 0.404053 0.156250
vt1 0.272461 0.156738
vt1 0.395508 0.143066
vt1 0.395508 0.140625
vt1 0.273193 0.159180
vt1 0.400879 0.122070
vt1 0.256348 0.152832
vt1 0.390869 0.101074
vt1 0.272949 0.157715
vt1 0.399902 0.119629
vt1 0.273193 0.158203
vt1 0.390869 0.101074
vt1 0.390381 0.099609
vt1 0.254639 0.148438
vt1 0.369385 0.092285
vt1 0.150513 0.015625
vt1 0.161499 0.985672
vt1 0.142456 0.954041
vt1 0.161621 0.985672
vt1 0.150513 0.015625
vt1 0.164917 0.015137
vt1 0.164551 0.015137
vt1 0.176514 0.969147
vt1 0.161377 0.985672
vt1 0.189575 0.015625
vt1 0.197266 0.965607
vt1 0.176392 0.969147
vt1 0.189575 0.015625
vt1 0.176392 0.969147
vt1 0.164795 0.015137
vt1 0.197510 0.965607
vt1 0.189575 0.015625
vt1 0.202637 0.015625
vt1 0.214844 0.974091
vt1 0.202637 0.015625
vt1 0.215576 0.015625
vt1 0.202637 0.015625
vt1 0.214844 0.974091
vt1 0.197510 0.965607
vt1 0.020538 0.966095
vt1 0.007591 0.015625
vt1 0.020599 0.015625
vt1 0.007591 0.015625
vt1 0.020538 0.966095
vt1 0.006954 0.974136
vt1 0.020599 0.015625
vt1 0.033508 0.963013
vt1 0.020432 0.966095
vt1 0.033508 0.963013
vt1 0.020599 0.015625
vt1 0.033600 0.015625
vt1 0.033600 0.015625
vt1 0.046753 0.970322
vt1 0.033417 0.963013
vt1 0.046722 0.970322
vt1 0.033600 0.015625
vt1 0.058411 0.015137
vt1 0.046661 0.970322
vt1 0.058563 0.015137
vt1 0.060211 0.968262
vt1 0.060120 0.968262
vt1 0.072571 0.015625
vt1 0.072998 0.959412
vt1 0.072937 0.959412
vt1 0.085571 0.015625
vt1 0.085999 0.965240
vt1 0.085938 0.965240
vt1 0.085571 0.015625
vt1 0.098572 0.015625
vt1 0.085938 0.965240
vt1 0.098572 0.015625
vt1 0.103699 0.970169
vt1 0.103577 0.970184
vt1 0.098572 0.015625
vt1 0.111572 0.015625
vt1 0.111572 0.015625
vt1 0.125122 0.974152
vt1 0.103699 0.970169
vt1 0.125122 0.974152
vt1 0.111572 0.015625
vt1 0.121887 -0.027344
vt1 0.125000 0.974152
vt1 0.125854 -0.027344
vt1 0.137573 0.015625
vt1 0.125000 0.974152
vt1 0.137573 0.015625
vt1 0.142212 0.954041
vt1 0.142212 0.954041
vt1 0.137573 0.015625
vt1 0.150513 0.015625
vt1 0.434326 0.028809
vt1 0.452637 0.015137
vt1 0.464355 0.020020
vt1 0.473389 0.029297
vt1 0.434326 0.028809
vt1 0.452637 0.015137
vt1 0.439941 0.015137
vt1 0.464355 0.076172
vt1 0.473389 0.066895
vt1 0.452637 0.081543
vt1 0.434326 0.028809
vt1 0.439941 0.081543
vt1 0.434814 0.028320
vt1 0.479248 0.042480
vt1 0.435059 0.030273
vt1 0.473389 0.029297
vt1 0.433594 0.028809
vt1 0.439941 0.081543
vt1 0.427979 0.076660
vt1 0.413574 0.056641
vt1 0.427979 0.076660
vt1 0.434326 0.029785
vt1 0.414062 0.042480
vt1 0.418945 0.029785
vt1 0.060120 0.968262
vt1 0.058258 0.015137
vt1 0.072571 0.015625
vt1 0.072937 0.959412
vt1 0.085571 0.015625
vn 0.102362 -0.637795 0.763779
vn -0.086614 -0.267716 0.960630
vn 0.007874 0.259843 0.968504
vn 0.220472 -0.692913 0.685039
vn 0.015748 -0.740157 0.677165
vn 0.212598 0.330709 0.921260
vn 0.370079 -0.755905 0.543307
vn 0.078740 -0.984252 0.165354
vn 0.094488 -0.708661 0.700787
vn 0.094488 -0.992126 0.110236
vn 0.307087 -0.944882 -0.078740
vn 0.086614 -0.921260 -0.385827
vn 0.393701 -0.732283 -0.559055
vn 0.062992 -0.732283 -0.677165
vn 0.070866 -0.921260 -0.377953
vn 0.173228 0.251968 -0.952756
vn 0.094488 -0.456693 -0.881890
vn 0.354331 -0.574803 -0.740157
vn 0.377953 -0.748031 -0.543307
vn 0.078740 -0.393701 -0.913386
vn 0.062992 -0.700787 -0.716535
vn 0.259843 0.118110 -0.960630
vn 0.094488 -0.007874 -0.992126
vn 0.094488 -0.385827 -0.921260
vn 0.094488 -0.015748 -0.992126
vn 0.283465 0.488189 -0.826772
vn 0.078740 0.346457 -0.937008
vn 0.299213 0.456693 -0.834646
vn 0.086614 0.708661 -0.700787
vn 0.078740 0.409449 -0.905512
vn 0.086614 0.716535 -0.692913
vn 0.283465 0.724409 -0.629921
vn 0.102362 0.929134 -0.362205
vn 0.078740 0.952756 -0.299213
vn 0.362205 0.905512 -0.220473
vn 0.070866 0.976378 0.196850
vn 0.283465 0.645669 0.708661
vn 0.102362 0.724409 0.685039
vn 0.283465 0.881890 0.370079
vn 0.086614 0.976378 0.188976
vn 0.283465 0.881890 0.377953
vn 0.094488 0.716535 0.692913
vn 0.094488 0.692913 0.716535
vn 0.291339 0.535433 0.795275
vn 0.118110 0.330709 0.937008
vn 0.000000 0.000000 1.000000
vn 0.000000 0.330709 0.944882
vn 0.000000 -0.228346 0.976378
vn 0.000000 0.330709 0.944882
vn 0.000000 0.000000 1.000000
vn 0.000000 0.417323 0.905512
vn 0.000000 0.409449 0.913386
vn 0.000000 0.708661 0.708661
vn 0.000000 0.322835 0.944882
vn 0.000000 0.921260 0.385827
vn 0.000000 0.984252 0.173228
vn 0.000000 0.700787 0.708661
vn 0.000000 0.921260 0.385827
vn 0.000000 0.700787 0.708661
vn 0.000000 0.425197 0.905512
vn 0.000000 0.992126 0.149606
vn 0.000000 0.921260 0.385827
vn 0.000000 1.000000 -0.000000
vn 0.000000 0.929134 -0.362205
vn 0.000000 1.000000 -0.000000
vn 0.000000 0.921260 -0.385827
vn 0.000000 1.000000 -0.000000
vn 0.000000 0.929134 -0.362205
vn 0.000000 0.992126 0.141732
vn 0.000000 0.708661 -0.700787
vn 0.000000 0.921260 -0.385827
vn 0.000000 0.708661 -0.708661
vn 0.000000 0.921260 -0.385827
vn 0.000000 0.708661 -0.700787
vn 0.000000 0.929134 -0.362205
vn 0.000000 0.708661 -0.708661
vn 0.000000 0.385827 -0.921260
vn 0.000000 0.716535 -0.700787
vn 0.000000 0.385827 -0.921260
vn 0.000000 0.708661 -0.708661
vn 0.000000 0.385827 -0.921260
vn 0.000000 0.385827 -0.921260
vn 0.000000 -0.000000 -1.000000
vn 0.000000 0.393701 -0.921260
vn 0.000000 -0.000000 -1.000000
vn 0.000000 0.385827 -0.921260
vn 0.000000 -0.338583 -0.944882
vn 0.000000 -0.000000 -1.000000
vn 0.000000 -0.354331 -0.937008
vn 0.000000 -0.393701 -0.921260
vn 0.000000 -0.393701 -0.921260
vn 0.000000 -0.708661 -0.708661
vn 0.000000 -0.716535 -0.700787
vn 0.000000 -0.708661 -0.700787
vn 0.000000 -0.921260 -0.385827
vn 0.000000 -0.929134 -0.370079
vn 0.000000 -0.929134 -0.377953
vn 0.000000 -0.921260 -0.385827
vn 0.000000 -1.000000 0.000000
vn 0.000000 -0.929134 -0.377953
vn 0.000000 -1.000000 0.000000
vn 0.000000 -0.992126 0.141732
vn 0.000000 -0.992126 0.149606
vn 0.000000 -1.000000 0.000000
vn 0.000000 -0.921260 0.385827
vn 0.000000 -0.921260 0.385827
vn 0.000000 -0.692913 0.716535
vn 0.000000 -0.984252 0.173228
vn 0.000000 -0.692913 0.716535
vn 0.000000 -0.921260 0.385827
vn 0.000000 -0.763779 0.645669
vn 0.000000 -0.700787 0.716535
vn 0.000000 -0.677165 0.732283
vn 0.000000 -0.385827 0.921260
vn 0.000000 -0.700787 0.716535
vn 0.000000 -0.385827 0.921260
vn 0.000000 -0.259842 0.968504
vn 0.000000 -0.251968 0.968504
vn 0.000000 -0.385827 0.921260
vn 0.000000 0.000000 1.000000
vn -1.000000 0.000000 0.000000
vn -1.000000 0.000000 0.000000
vn -1.000000 0.000000 0.000000
vn -1.000000 0.000000 0.000000
vn -1.000000 0.000000 0.000000
vn -1.000000 0.000000 0.000000
vn -1.000000 0.000000 0.000000
vn -1.000000 0.000000 0.000000
vn -1.000000 0.000000 0.000000
vn -1.000000 0.000000 0.000000
vn -1.000000 0.000000 0.000000
vn -1.000000 0.000000 0.000000
vn -1.000000 0.000000 0.000000
vn -1.000000 0.000000 0.000000
vn -1.000000 0.000000 0.000000
vn -1.000000 0.000000 0.000000
vn -1.000000 0.000000 0.000000
vn -1.000000 0.000000 0.000000
vn -1.000000 0.000000 0.000000
vn -1.000000 0.000000 0.000000
vn -1.000000 0.000000 0.000000
vn -1.000000 0.000000 0.000000
vn -1.000000 0.000000 0.000000
vn -1.000000 0.000000 0.000000
vn 0.000000 -0.393701 -0.921260
vn 0.000000 -0.346457 -0.937008
vn 0.000000 -0.708661 -0.708661
vn 0.000000 -0.708661 -0.700787
vn 0.000000 -0.921260 -0.385827
tan -0.777854 0.099014 0.186930 1.000000
tan -0.960630 -0.022692 -0.092938 1.000000
tan -0.968504 0.007626 0.005828 1.000000
tan -0.426871 -0.597991 -0.467481 1.000000
tan -0.602641 -0.406597 -0.430405 1.000000
tan -0.923864 0.037944 0.199578 1.000000
tan -0.812636 -0.490855 -0.129394 1.000000
tan -0.973898 -0.061194 0.099510 1.000000
tan -0.986918 -0.067580 0.064728 1.000000
tan -0.984314 -0.079856 0.124992 1.000000
tan -0.944882 -0.313287 0.074400 1.000000
tan -0.863228 -0.217868 0.326431 1.000000
tan -0.835824 -0.496559 0.061814 1.000000
tan -0.379937 -0.643685 0.660735 1.000000
tan -0.819704 -0.232686 0.413479 1.000000
tan -0.939736 -0.148676 -0.210180 1.000000
tan -0.722673 -0.530721 0.197408 1.000000
tan -0.412177 -0.786905 0.413789 1.000000
tan -0.748962 -0.581065 0.279001 1.000000
tan -0.719201 -0.560977 0.179800 1.000000
tan -0.318247 -0.690433 0.647281 1.000000
tan -0.922810 -0.272305 -0.283092 1.000000
tan -0.882758 -0.453097 -0.080476 1.000000
tan -0.767748 -0.523777 0.140616 1.000000
tan -0.867134 -0.476533 -0.075020 1.000000
tan -0.629983 -0.546655 -0.538781 1.000000
tan -0.664021 -0.664021 -0.301320 1.000000
tan -0.655465 -0.527125 -0.523405 1.000000
tan -0.155372 -0.685721 -0.712629 1.000000
tan -0.549011 -0.720131 -0.373365 1.000000
tan -0.144646 0.697687 0.703391 1.000000
tan -0.129704 0.666873 0.708537 1.000000
tan -0.585281 0.346829 0.724285 1.000000
tan -0.817720 0.220720 0.487631 1.000000
tan -0.855602 0.415153 0.299461 1.000000
tan -0.707297 -0.085064 0.676545 1.000000
tan -0.397917 -0.588133 0.695021 1.000000
tan -0.511439 -0.548453 0.656395 1.000000
tan -0.759812 0.053878 0.453593 1.000000
tan -0.821130 -0.028210 0.522103 1.000000
tan -0.712257 0.006696 0.518569 1.000000
tan -0.488127 -0.573625 0.659743 1.000000
tan -0.561101 -0.557443 0.613057 1.000000
tan -0.473867 -0.636431 0.602083 1.000000
tan -0.804204 -0.479571 0.270631 1.000000
tan -1.000000 -0.007874 0.000000 1.000000
tan -0.947486 -0.007440 0.002604 1.000000
tan -0.976378 0.000000 0.000000 1.000000
tan -0.944882 0.007440 -0.002604 1.000000
tan -1.000000 0.000000 0.000000 1.000000
tan -0.912084 0.000000 0.000000 1.000000
tan -0.923058 -0.021576 0.009672 1.000000
tan -0.998822 -0.066960 0.066960 1.000000
tan -0.942340 -0.007440 0.002542 1.000000
tan -0.948602 -0.009114 0.021762 1.000000
tan -0.982888 0.001364 -0.007750 1.000000
tan -0.993366 -0.044640 0.044144 1.000000
tan -0.948602 0.000000 0.000000 1.000000
tan -0.998884 0.011160 -0.011036 1.000000
tan -0.925600 0.007130 -0.003348 1.000000
tan -0.992126 0.000000 0.000000 1.000000
tan -0.948602 0.000000 0.000000 1.000000
tan -1.000000 0.000000 0.000000 1.000000
tan -0.931986 0.000000 0.000000 1.000000
tan -1.000000 0.000000 0.000000 1.000000
tan -0.948602 0.000000 0.000000 1.000000
tan -1.000000 0.000000 0.007874 1.000000
tan -0.929134 0.005704 0.014632 1.000000
tan -0.992126 -0.001116 0.007812 1.000000
tan -0.998946 -0.005518 -0.005580 1.000000
tan -0.948602 0.000000 0.000000 1.000000
tan -1.004402 -0.005580 -0.005580 1.000000
tan -0.948602 -0.003038 -0.007254 1.000000
tan -0.998946 -0.027590 -0.027900 1.000000
tan -0.929134 -0.005704 -0.014632 1.000000
tan -1.004402 -0.016740 -0.016740 1.000000
tan -0.927336 -0.014508 -0.006076 1.000000
tan -1.004774 -0.033108 -0.033852 1.000000
tan -0.927336 -0.007254 -0.003038 1.000000
tan -1.004402 -0.005580 -0.005580 1.000000
tan -0.948602 0.000000 0.000000 1.000000
tan -0.948602 -0.014508 -0.006076 1.000000
tan -1.000000 -0.007874 0.000000 1.000000
tan -0.927460 -0.014508 -0.006200 1.000000
tan -1.000000 0.000000 0.000000 1.000000
tan -0.948602 0.000000 0.000000 1.000000
tan -0.947548 -0.007440 0.002666 1.000000
tan -1.000000 -0.007874 0.000000 1.000000
tan -0.939798 -0.014756 0.005580 1.000000
tan -0.921260 -0.014508 0.006200 1.000000
tan -0.921260 -0.014508 0.006200 1.000000
tan -1.004402 -0.011160 0.011160 1.000000
tan -1.004774 -0.022072 0.022568 1.000000
tan -0.998946 -0.027590 0.027900 1.000000
tan -0.948602 -0.006076 0.014508 1.000000
tan -0.932048 -0.005828 0.014632 1.000000
tan -0.932110 -0.002976 0.007316 1.000000
tan -0.948602 -0.003038 0.007254 1.000000
tan -1.000000 0.000000 0.007874 1.000000
tan -0.932110 -0.005952 0.014632 1.000000
tan -1.000000 0.000000 0.007874 1.000000
tan -0.992126 0.001116 0.007812 1.000000
tan -0.992126 0.001178 0.007812 1.000000
tan -1.000000 0.000000 0.007874 1.000000
tan -0.948602 0.003038 0.007254 1.000000
tan -0.948602 0.006076 0.014508 1.000000
tan -0.988654 0.078988 0.076384 1.000000
tan -0.982888 -0.004092 -0.023250 1.000000
tan -0.999752 0.011284 0.010912 1.000000
tan -0.948602 0.003038 0.007254 1.000000
tan -0.978610 0.010168 0.012028 1.000000
tan -1.004898 0.011284 0.011036 1.000000
tan -0.993366 0.011532 0.010664 1.000000
tan -0.948602 0.007254 0.003038 1.000000
tan -0.993738 0.062062 0.060698 1.000000
tan -0.948602 0.014508 0.006076 1.000000
tan -0.964412 -0.007626 -0.002046 1.000000
tan -0.968504 0.007626 0.001984 1.000000
tan -0.948602 0.007254 0.003038 1.000000
tan -1.000000 0.000000 0.000000 1.000000
tan 0.000000 -1.000000 0.000000 1.000000
tan 0.000000 -1.000000 0.000000 1.000000
tan 0.000000 -1.000000 0.000000 1.000000
tan 0.000000 -1.000000 0.000000 1.000000
tan 0.000000 -1.000000 0.000000 1.000000
tan 0.000000 -1.000000 0.000000 1.000000
tan 0.000000 -1.000000 0.000000 1.000000
tan 0.000000 -1.000000 0.000000 1.000000
tan 0.000000 -1.000000 0.000000 1.000000
tan 0.000000 -1.000000 0.000000 1.000000
tan 0.000000 -1.000000 0.000000 1.000000
tan 0.000000 -1.000000 0.000000 1.000000
tan 0.000000 -1.000000 0.000000 1.000000
tan 0.000000 -1.000000 0.000000 1.000000
tan 0.000000 -1.000000 0.000000 1.000000
tan 0.000000 -1.000000 0.000000 1.000000
tan 0.000000 -1.000000 0.000000 1.000000
tan 0.000000 -1.000000 0.000000 1.000000
tan 0.000000 -1.000000 0.000000 1.000000
tan 0.000000 -1.000000 0.000000 1.000000
tan 0.000000 -1.000000 0.000000 1.000000
tan 0.000000 -1.000000 0.000000 1.000000
tan 0.000000 -1.000000 0.000000 1.000000
tan 0.000000 -1.000000 0.000000 1.000000
tan -0.921260 -0.007254 0.003100 1.000000
tan -0.937008 -0.007378 0.002728 1.000000
tan -1.004402 -0.005580 0.005580 1.000000
tan -0.998946 -0.011036 0.011160 1.000000
tan -0.948602 -0.003038 0.007254 1.000000
f 3/3/3 2/2/2 1/1/1
f 6/6/6 5/5/5 4/4/4
f 9/9/9 8/8/8 7/7/7
f 12/12/12 11/11/11 10/10/10
f 15/15/15 14/14/14 13/13/13
f 18/18/18 17/17/17 16/16/16
f 21/21/21 20/20/20 19/19/19
f 24/24/24 23/23/23 22/22/22
f 27/27/27 26/26/26 25/25/25
f 30/30/30 29/29/29 28/28/28
f 33/33/33 32/32/32 31/31/31
f 36/36/36 35/35/35 34/34/34
f 39/39/39 38/38/38 37/37/37
f 42/42/42 41/41/41 40/40/40
f 45/45/45 44/44/44 43/43/43
f 48/48/48 47/47/47 46/46/46
f 51/51/51 50/50/50 49/49/49
f 54/54/54 53/53/53 52/52/52
f 57/57/57 56/56/56 55/55/55
f 60/60/60 59/59/59 58/58/58
f 63/63/63 62/62/62 61/61/61
f 66/66/66 65/65/65 64/64/64
f 69/69/69 68/68/68 67/67/67
f 72/72/72 71/71/71 70/70/70
f 75/75/75 74/74/74 73/73/73
f 78/78/78 77/77/77 76/76/76
f 81/81/81 80/80/80 79/79/79
f 84/84/84 83/83/83 82/82/82
f 87/87/87 86/86/86 85/85/85
f 90/90/90 89/89/89 88/88/88
f 93/93/93 92/92/92 91/91/91
f 96/96/96 95/95/95 94/94/94
f 99/99/99 98/98/98 97/97/97
f 102/102/102 101/101/101 100/100/100
f 105/105/105 104/104/104 103/103/103
f 108/108/108 107/107/107 106/106/106
f 111/111/111 110/110/110 109/109/109
f 114/114/114 113/113/113 112/112/112
f 117/117/117 116/116/116 115/115/115
f 120/120/120 119/119/119 118/118/118
f 123/123/123 122/122/122 121/121/121
f 123/123/123 125/125/125 124/124/124
f 127/127/127 125/125/125 126/126/126
f 129/129/129 125/125/125 128/128/128
f 128/128/128 131/131/131 130/130/130
f 130/130/130 133/133/133 132/132/132
f 134/134/134 133/133/133 129/129/129
f 136/136/136 135/135/135 134/134/134
f 139/139/139 138/138/138 137/137/137
f 141/141/141 137/137/137 140/140/140
f 143/143/143 140/140/140 142/142/142
f 143/143/143 142/142/142 144/144/144
f 147/147/147 146/146/146 145/145/145
f 149/149/149 147/147/147 148/148/148
