mtllib SM_Chest_LOD5.mtl
g SM_Chest_LOD5
#Vertices 72
#Indices 126
#Section 0 Offset 0 NumIndices 126 MaterialIndex 0 MI_Chest
v -0.154078 0.207292 -0.075195
v -0.152710 0.125778 0.103793
v -0.154183 0.125319 -0.101996
v -0.151936 0.209751 0.079759
v 0.161546 0.128778 0.106938
v 0.161029 0.205128 -0.080657
v 0.160577 0.125231 -0.103997
v 0.158933 0.214015 0.064443
v 0.161058 -0.000030 -0.102022
v 0.160483 0.124834 -0.103232
v 0.093429 0.123353 -0.103824
v 0.093297 -0.000136 -0.104444
v 0.162033 0.124797 0.101287
v 0.162396 0.000001 0.099725
v 0.094358 -0.000215 0.103597
v 0.094672 0.128422 0.102277
v 0.162033 0.124797 0.101287
v 0.160483 0.124834 -0.103232
v 0.161058 -0.000030 -0.102022
v 0.162396 0.000001 0.099725
v -0.154203 -0.000022 -0.100568
v -0.154124 0.124570 -0.100321
v -0.152728 0.000342 0.102713
v -0.152568 0.125747 0.102704
v -0.083783 -0.000446 0.104289
v -0.152568 0.125747 0.102704
v -0.085477 0.123059 0.103875
v -0.152728 0.000342 0.102713
v -0.086447 0.126843 -0.102476
v -0.154203 -0.000022 -0.100568
v -0.086432 -0.000103 -0.103700
v -0.154124 0.124570 -0.100321
v 0.094672 0.128422 0.102277
v 0.094358 -0.000215 0.103597
v -0.083783 -0.000446 0.104289
v -0.085477 0.123059 0.103875
v 0.093297 -0.000136 -0.104444
v 0.093429 0.123353 -0.103824
v -0.086447 0.126843 -0.102476
v -0.086432 -0.000103 -0.103700
v -0.086973 0.131264 0.111275
v -0.152710 0.125778 0.103793
v -0.096935 0.209197 0.081194
v -0.151936 0.209751 0.079759
v -0.096862 0.212805 -0.078378
v -0.154078 0.207292 -0.075195
v -0.154183 0.125319 -0.101996
v -0.086791 0.127666 -0.102645
v 0.094920 0.126149 0.102333
v -0.086973 0.131264 0.111275
v 0.079662 0.206718 0.079884
v -0.074474 0.235027 0.025001
v 0.080936 0.214912 -0.076255
v -0.086791 0.127666 -0.102645
v 0.092387 0.126900 -0.103633
v -0.086973 0.131264 0.111275
v -0.096935 0.209197 0.081194
v -0.074474 0.235027 0.025001
v -0.096862 0.212805 -0.078378
v -0.086791 0.127666 -0.102645
v 0.111733 0.255596 -0.003001
v 0.094920 0.126149 0.102333
v 0.079662 0.206718 0.079884
v 0.080936 0.214912 -0.076255
v 0.092387 0.126900 -0.103633
v 0.161546 0.128778 0.106938
v 0.094920 0.126149 0.102333
v 0.111733 0.255596 -0.003001
v 0.158933 0.214015 0.064443
v 0.161029 0.205128 -0.080657
v 0.160577 0.125231 -0.103997
v 0.092387 0.126900 -0.103633
vt 0.268799 0.664062
vt 0.401855 0.368164
vt 0.403809 0.709229
vt 0.265381 0.410156
vt 0.690918 0.065918
vt 0.815430 0.375977
vt 0.685059 0.415527
vt 0.831055 0.138184
vt 0.478271 0.601807
vt 0.683105 0.603027
vt 0.680176 0.713135
vt 0.478027 0.713135
vt 0.610352 0.775879
vt 0.405273 0.776611
vt 0.404785 0.664795
vt 0.614258 0.665527
vt 0.680664 0.018555
vt 0.670898 0.345703
vt 0.470947 0.350098
vt 0.470947 0.008789
vt 0.470703 0.356445
vt 0.258789 0.346680
vt 0.455322 0.007812
vt 0.257324 0.026367
vt 0.466553 0.739258
vt 0.259033 0.852295
vt 0.264160 0.742188
vt 0.465088 0.852539
vt 0.686035 0.741211
vt 0.478271 0.852539
vt 0.478027 0.741211
vt 0.682617 0.852417
vt 0.039276 0.506348
vt 0.250000 0.506836
vt 0.250244 0.799438
vt 0.047394 0.802246
vt 0.467773 0.335449
vt 0.664551 0.338867
vt 0.682617 0.627686
vt 0.468262 0.638428
vt 0.815918 0.308594
vt 0.923828 0.303711
vt 0.832520 0.439941
vt 0.920898 0.440918
vt 0.829590 0.689941
vt 0.921387 0.690186
vt 0.923828 0.830444
vt 0.812988 0.827148
vt -0.026199 0.003906
vt 0.272949 0.012695
vt -0.000530 0.139160
vt 0.253174 0.235840
vt -0.001698 0.385254
vt 0.274170 0.524658
vt -0.020050 0.528809
vt 0.951172 0.535400
vt 0.925293 0.403320
vt 0.969727 0.302734
vt 0.928223 0.147461
vt 0.945801 0.004395
vt 0.704590 0.698975
vt 0.727539 0.423828
vt 0.746582 0.560547
vt 0.746582 0.815796
vt 0.728516 0.963226
vt 0.748047 0.416504
vt 0.859863 0.410156
vt 0.829102 0.676758
vt 0.754883 0.568115
vt 0.751465 0.802490
vt 0.749512 0.937561
vt 0.861328 0.934753
vt1 0.314941 0.638672
vt1 0.592773 0.763916
vt1 0.272461 0.765625
vt1 0.553223 0.635498
vt1 0.372559 0.172852
vt1 0.255371 0.464355
vt1 0.378174 0.501221
vt1 0.240601 0.240723
vt1 0.395020 0.264648
vt1 0.587402 0.265625
vt1 0.584961 0.369141
vt1 0.394775 0.369141
vt1 0.587891 0.259766
vt1 0.395020 0.260254
vt1 0.394531 0.155273
vt1 0.591797 0.155762
vt1 0.205322 0.155762
vt1 0.196411 0.463379
vt1 0.008041 0.467773
vt1 0.008141 0.146973
vt1 0.272705 0.992214
vt1 0.282227 0.792603
vt1 0.601074 0.977783
vt1 0.583496 0.791260
vt1 0.717285 0.250977
vt1 0.611328 0.056152
vt1 0.714844 0.060547
vt1 0.610840 0.249512
vt1 0.812500 0.242676
vt1 0.707520 0.047363
vt1 0.812500 0.047363
vt1 0.708008 0.239746
vt1 0.400146 0.350586
vt1 0.598145 0.351074
vt1 0.598145 0.625977
vt1 0.407715 0.628662
vt1 0.897949 0.782959
vt1 0.895020 0.967987
vt1 0.623535 0.985229
vt1 0.613281 0.783569
vt1 0.600586 0.274902
vt1 0.701660 0.270508
vt1 0.616211 0.398438
vt1 0.699219 0.399414
vt1 0.613281 0.633545
vt1 0.699707 0.633545
vt1 0.702148 0.765381
vt1 0.598145 0.762451
vt1 -0.016556 0.496582
vt1 0.264648 0.504395
vt1 0.007565 0.623291
vt1 0.245972 0.714355
vt1 0.006466 0.854736
vt1 0.265869 0.985519
vt1 -0.010780 0.989548
vt1 0.931152 0.981995
vt1 0.906738 0.857666
vt1 0.948730 0.762695
vt1 0.909180 0.616943
vt1 0.926270 0.481934
vt1 0.823730 0.513672
vt1 0.845703 0.254883
vt1 0.863770 0.383301
vt1 0.863281 0.623535
vt1 0.846680 0.762329
vt1 0.704590 0.275391
vt1 0.809570 0.270020
vt1 0.780762 0.520264
vt1 0.710449 0.418457
vt1 0.707520 0.638672
vt1 0.705566 0.765625
vt1 0.810547 0.762939
vn -0.984252 0.125984 -0.102362
vn -1.000000 0.007874 0.055118
vn -1.000000 -0.000000 -0.047244
vn -0.913386 0.322835 0.236220
vn 1.000000 0.023622 0.070866
vn 0.992126 0.102362 -0.110236
vn 1.000000 -0.007874 -0.062992
vn 0.937008 0.330709 0.110236
vn 0.015748 -0.000000 -1.000000
vn 0.015748 0.031496 -1.000000
vn -0.015748 0.055118 -1.000000
vn -0.015748 -0.000000 -1.000000
vn 0.023622 0.015748 1.000000
vn 0.023622 0.000000 1.000000
vn 0.000000 0.023622 1.000000
vn 0.000000 0.259843 0.968504
vn 1.000000 0.031496 0.023622
vn 1.000000 0.055118 -0.062992
vn 1.000000 -0.000000 -0.039370
vn 1.000000 0.000000 0.047244
vn -1.000000 -0.000000 -0.055118
vn -1.000000 0.031496 -0.023622
vn -1.000000 0.000000 0.039370
vn -0.992126 0.055118 0.070866
vn 0.015748 0.007874 1.000000
vn -0.015748 0.047244 1.000000
vn 0.023622 0.094488 0.992126
vn -0.015748 0.000000 1.000000
vn 0.000000 0.102362 -0.992126
vn -0.023622 -0.007874 -1.000000
vn 0.000000 -0.000000 -1.000000
vn -0.031496 0.039370 -1.000000
vn 0.007874 0.062992 1.000000
vn 0.007874 0.000000 1.000000
vn 0.007874 0.000000 1.000000
vn 0.007874 0.102362 0.992126
vn -0.007874 -0.000000 -1.000000
vn -0.007874 0.094488 -0.992126
vn -0.007874 0.055118 -1.000000
vn -0.007874 -0.000000 -1.000000
vn 0.055118 0.047244 1.000000
vn -0.023622 -0.023622 1.000000
vn 0.039370 0.818898 0.574803
vn -0.023622 0.913386 0.401575
vn 0.031496 0.889764 -0.456693
vn -0.031496 0.881890 -0.464567
vn -0.039370 -0.039370 -1.000000
vn 0.039370 0.039370 -1.000000
vn 0.015748 0.015748 1.000000
vn 0.000000 0.047244 1.000000
vn 0.015748 0.818898 0.566929
vn -0.007874 1.000000 -0.031496
vn 0.007874 0.897638 -0.440945
vn -0.015748 -0.015748 -1.000000
vn 0.000000 0.023622 -1.000000
vn 0.031496 0.023622 1.000000
vn -0.228346 0.850394 0.464567
vn 0.283465 0.952756 0.055118
vn -0.275591 0.787401 -0.559055
vn -0.078740 -0.007874 -1.000000
vn 0.259843 0.968504 -0.015748
vn 0.062992 0.015748 1.000000
vn -0.299213 0.803150 0.511811
vn -0.181102 0.881890 -0.440945
vn -0.055118 0.007874 -1.000000
vn 0.031496 -0.039370 1.000000
vn -0.039370 0.031496 1.000000
vn -0.015748 1.000000 -0.015748
vn 0.031496 0.960630 0.275590
vn 0.023622 0.858268 -0.511811
vn 0.023622 -0.023622 -1.000000
vn -0.055118 0.031496 -1.000000
tan -0.108314 -0.046500 0.984252 1.000000
tan 0.054870 -0.031496 1.000000 1.000000
tan -0.047244 0.007874 1.000000 1.000000
tan 0.288425 0.154504 0.904086 1.000000
tan -0.070680 -0.007874 1.000000 1.000000
tan 0.120652 -0.109368 0.984314 1.000000
tan 0.063240 0.031496 1.000000 1.000000
tan -0.158844 0.135842 0.942650 1.000000
tan 1.000000 0.000000 0.015748 1.000000
tan 1.000000 -0.007874 0.015500 1.000000
tan 1.000000 -0.007874 -0.016182 1.000000
tan 1.000000 -0.000000 -0.015748 1.000000
tan -1.000000 0.000000 0.023622 1.000000
tan -1.000000 0.000000 0.023622 1.000000
tan -1.000000 0.000000 0.000000 1.000000
tan -0.968504 -0.030504 0.008184 1.000000
tan -0.023374 -0.007874 1.000000 1.000000
tan 0.067704 -0.094488 0.992126 1.000000
tan 0.039370 0.031496 1.000000 1.000000
tan -0.047244 -0.031496 1.000000 1.000000
tan -0.055118 0.007874 1.000000 1.000000
tan -0.023126 0.015748 1.000000 1.000000
tan 0.039370 -0.086614 1.000000 1.000000
tan 0.069130 -0.031248 0.992126 1.000000
tan 1.000000 -0.000000 -0.015748 1.000000
tan 1.000000 0.007874 0.015376 1.000000
tan 0.992126 0.007812 -0.024366 1.000000
tan 1.000000 0.000000 0.015748 1.000000
tan 0.992126 -0.007812 -0.000806 1.000000
tan 1.000000 -0.000000 -0.023622 1.000000
tan 1.000000 0.000000 0.000000 1.000000
tan 1.000000 -0.000000 -0.031496 1.000000
tan 1.000000 0.007874 -0.008370 1.000000
tan 1.000000 -0.000000 -0.007874 1.000000
tan 1.000000 -0.000000 -0.007874 1.000000
tan 0.992126 0.007812 -0.008680 1.000000
tan 1.000000 -0.007874 -0.007874 1.000000
tan 0.992126 0.054684 -0.002666 1.000000
tan 0.992126 0.118110 -0.001302 1.000000
tan 1.000000 0.023622 -0.007874 1.000000
tan 0.000000 -1.000000 0.047244 1.000000
tan 0.000000 -1.000000 -0.023622 1.000000
tan 0.000000 -0.574803 0.818898 1.000000
tan 0.000000 -0.401575 0.913386 1.000000
tan 0.000000 0.456693 0.889764 1.000000
tan 0.006944 0.464815 0.881890 1.000000
tan 0.000000 1.000000 -0.039370 1.000000
tan 0.000000 1.000000 0.039370 1.000000
tan -0.007874 -1.000000 0.015872 1.000000
tan -0.007874 -1.000000 0.047244 1.000000
tan 0.000000 -0.566929 0.818898 1.000000
tan 0.000000 0.031496 1.000000 1.000000
tan 0.000000 0.440945 0.897638 1.000000
tan -0.007874 1.000000 -0.015624 1.000000
tan -0.007874 1.000000 0.023622 1.000000
tan 0.125984 0.992126 -0.027404 1.000000
tan 0.072416 0.484283 -0.850890 1.000000
tan -0.195052 0.111848 -0.930250 1.000000
tan -0.116188 -0.600161 -0.788021 1.000000
tan -0.062992 -1.000000 0.012834 1.000000
tan 0.061008 -0.000620 0.968504 1.000000
tan -0.015748 -1.000000 0.016740 1.000000
tan -0.146568 -0.563333 0.798313 1.000000
tan 0.072912 0.456631 0.883316 1.000000
tan 0.015748 1.000000 0.007006 1.000000
tan -0.007874 -1.000000 -0.039122 1.000000
tan 0.000000 -1.000000 0.031496 1.000000
tan 0.007874 0.015872 1.000000 1.000000
tan 0.007564 -0.275838 0.960630 1.000000
tan 0.000000 0.511811 0.858268 1.000000
tan 0.000000 1.000000 -0.023622 1.000000
tan 0.000000 1.000000 0.031496 1.000000
f 3/3/3 2/2/2 1/1/1
f 1/1/1 2/2/2 4/4/4
f 7/7/7 6/6/6 5/5/5
f 6/6/6 8/8/8 5/5/5
f 11/11/11 10/10/10 9/9/9
f 12/12/12 11/11/11 9/9/9
f 15/15/15 14/14/14 13/13/13
f 16/16/16 15/15/15 13/13/13
f 19/19/19 18/18/18 17/17/17
f 20/20/20 19/19/19 17/17/17
f 23/23/23 22/22/22 21/21/21
f 24/24/24 22/22/22 23/23/23
f 27/27/27 26/26/26 25/25/25
f 28/28/28 25/25/25 26/26/26
f 31/31/31 30/30/30 29/29/29
f 32/32/32 29/29/29 30/30/30
f 35/35/35 34/34/34 33/33/33
f 36/36/36 35/35/35 33/33/33
f 39/39/39 38/38/38 37/37/37
f 40/40/40 39/39/39 37/37/37
f 43/43/43 42/42/42 41/41/41
f 42/42/42 43/43/43 44/44/44
f 43/43/43 45/45/45 44/44/44
f 46/46/46 44/44/44 45/45/45
f 46/46/46 45/45/45 47/47/47
f 48/48/48 47/47/47 45/45/45
f 51/51/51 50/50/50 49/49/49
f 50/50/50 51/51/51 52/52/52
f 53/53/53 52/52/52 51/51/51
f 52/52/52 53/53/53 54/54/54
f 55/55/55 54/54/54 53/53/53
f 58/58/58 57/57/57 56/56/56
f 58/58/58 59/59/59 57/57/57
f 59/59/59 58/58/58 60/60/60
f 63/63/63 62/62/62 61/61/61
f 63/63/63 61/61/61 64/64/64
f 64/64/64 61/61/61 65/65/65
f 68/68/68 67/67/67 66/66/66
f 69/69/69 68/68/68 66/66/66
f 70/70/70 68/68/68 69/69/69
f 71/71/71 68/68/68 70/70/70
f 72/72/72 68/68/68 71/71/71
