mtllib SM_ClayVases_03_LOD3.mtl
g SM_ClayVases_03_LOD3
#Vertices 111
#Indices 531
#Section 0 Offset 0 NumIndices 531 MaterialIndex 0 MI_ClayVases
v -0.004167 0.011887 -0.060794
v -0.000670 0.104348 -0.088123
v 0.008124 0.011817 -0.056323
v 0.047557 0.081236 -0.063167
v 0.037104 0.011730 -0.037927
v 0.048576 0.158122 -0.038469
v -0.005027 0.171294 -0.048989
v 0.077543 0.079854 0.010192
v 0.050658 0.012198 0.007657
v 0.018989 0.011038 0.056023
v 0.031575 0.194220 -0.029705
v -0.005208 0.186811 -0.047002
v -0.003641 0.231666 -0.062177
v -0.002979 0.227455 -0.069602
v 0.067218 0.135655 0.021369
v 0.036689 0.085846 0.076564
v -0.026506 0.081223 0.082383
v -0.038832 0.012088 0.054156
v 0.005083 0.136955 0.079859
v 0.038526 0.171257 0.026677
v -0.086852 0.082129 0.045902
v -0.069044 0.011635 0.016627
v -0.086462 0.136605 0.040512
v -0.092175 0.081701 -0.033340
v -0.058808 0.012143 -0.039333
v -0.025692 0.170941 0.049750
v -0.040499 0.081277 -0.079487
v -0.004167 0.011887 -0.060794
v -0.000670 0.104348 -0.088123
v -0.056780 0.136643 -0.067106
v -0.005027 0.171294 -0.048989
v -0.067431 0.171037 -0.012208
v -0.005208 0.186811 -0.047002
v 0.023304 0.192938 0.045201
v -0.049195 0.193541 0.035466
v -0.056166 0.194939 -0.028217
v -0.038800 0.231019 -0.057589
v -0.003641 0.231666 -0.062177
v -0.073633 0.231620 -0.000010
v -0.039942 0.234811 -0.062040
v -0.002979 0.227455 -0.069602
v -0.064564 0.231665 -0.031835
v -0.055345 0.226853 -0.056659
v -0.072004 0.232363 -0.032732
v -0.078326 0.234246 0.004688
v -0.061265 0.231645 0.038203
v -0.026641 0.231881 0.061278
v -0.040194 0.235253 0.064225
v -0.083939 0.226753 0.016302
v 0.010340 0.235236 0.064458
v -0.055407 0.193698 -0.035445
v -0.004842 0.186315 -0.051236
v -0.004136 0.177402 -0.057857
v -0.021090 0.224910 0.071543
v -0.059536 0.194970 0.028325
v -0.068491 0.169383 0.005891
v -0.078994 0.140435 -0.052093
v -0.001324 0.125047 -0.086256
v -0.036082 0.170485 0.048838
v -0.068653 0.085164 -0.074692
v -0.001823 0.075463 -0.083057
v -0.090807 0.137018 0.025704
v -0.046839 0.016313 -0.053759
v 0.004662 0.006832 -0.071682
v -0.076571 0.005044 -0.034355
v -0.101168 0.084765 0.004834
v -0.080116 0.012515 -0.001484
v -0.071828 0.007133 -0.029127
v -0.074697 0.007517 0.031218
v -0.019285 0.017139 0.073102
v -0.073591 0.085219 0.062981
v -0.044058 0.139666 0.077988
v -0.011780 0.085163 0.091873
v 0.018748 0.169747 0.049810
v 0.026290 0.137882 0.075370
v 0.042521 0.021135 0.048945
v 0.062708 0.088536 0.058895
v 0.078243 0.143560 -0.015098
v 0.081886 0.085508 -0.003957
v 0.046724 0.009355 0.038582
v 0.068489 0.006021 -0.007902
v 0.053325 0.011091 -0.006925
v 0.057082 0.007068 -0.012029
v 0.040144 0.000399 -0.052238
v 0.004662 0.006832 -0.071682
v 0.030152 0.017046 -0.052275
v -0.001823 0.075463 -0.083057
v 0.048194 0.085197 -0.069136
v -0.001324 0.125047 -0.086256
v 0.048462 0.169258 -0.020091
v -0.004136 0.177402 -0.057857
v 0.023874 0.193345 0.051915
v 0.038637 0.194610 -0.031077
v -0.004842 0.186315 -0.051236
v 0.032953 0.226111 0.055731
v 0.062149 0.226736 0.006251
v 0.034194 0.227554 -0.058591
v 0.050908 0.234156 0.031376
v 0.056778 0.234011 -0.020315
v 0.044813 0.231658 -0.030967
v 0.052289 0.231787 0.016714
v 0.019470 0.231925 0.057186
v 0.050658 0.012198 0.007657
v 0.018989 0.011038 0.056023
v -0.010176 0.011817 0.000000
v 0.037104 0.011730 -0.037927
v -0.038832 0.012088 0.054156
v 0.008124 0.011817 -0.056323
v -0.069044 0.011635 0.016627
v -0.004167 0.011887 -0.060794
v -0.058808 0.012143 -0.039333
vt 0.447510 0.008789
vt 0.474365 0.110840
vt 0.433838 0.011719
vt 0.416260 0.088379
vt 0.397217 0.019043
vt 0.394043 0.158691
vt 0.440186 0.192871
vt 0.350342 0.088379
vt 0.347412 0.023438
vt 0.288330 0.023438
vt 0.391602 0.213379
vt 0.435547 0.205078
vt 0.443604 0.249512
vt 0.446533 0.262695
vt 0.340332 0.132812
vt 0.292480 0.094238
vt 0.245117 0.087891
vt 0.228760 0.022949
vt 0.267822 0.132812
vt 0.322510 0.179199
vt 0.191528 0.086426
vt 0.181274 0.019043
vt 0.186279 0.128906
vt 0.130981 0.081543
vt 0.122253 0.011230
vt 0.235229 0.176758
vt 0.072449 0.073730
vt 0.064575 -0.005859
vt 0.024109 0.091309
vt 0.088501 0.125488
vt 0.049774 0.181152
vt 0.138916 0.173828
vt 0.054291 0.195312
vt 0.295654 0.208008
vt 0.200439 0.206543
vt 0.116760 0.205078
vt 0.080444 0.246094
vt 0.044312 0.242188
vt 0.149780 0.250977
vt 0.079041 0.251465
vt 0.040894 0.255859
vt 0.117004 0.249023
vt 0.091858 0.260742
vt 0.119019 0.257324
vt 0.155029 0.256836
vt 0.192871 0.252930
vt 0.235107 0.253906
vt 0.223877 0.260254
vt 0.166138 0.265137
vt 0.273193 0.259766
vt 0.103455 0.300293
vt 0.043121 0.301270
vt 0.042938 0.311035
vt 0.244751 0.269531
vt 0.182373 0.304199
vt 0.153076 0.335449
vt 0.097595 0.373047
vt 0.009583 0.373535
vt 0.219116 0.336426
vt 0.073792 0.418945
vt 0.008484 0.434570
vt 0.164795 0.381348
vt 0.071533 0.492188
vt 0.014847 0.511475
vt 0.106140 0.509766
vt 0.144775 0.421875
vt 0.139160 0.493652
vt 0.109375 0.502930
vt 0.172607 0.504395
vt 0.240967 0.492676
vt 0.197021 0.422852
vt 0.223633 0.378418
vt 0.250732 0.423340
vt 0.287842 0.337891
vt 0.282715 0.381348
vt 0.309326 0.485352
vt 0.313477 0.419434
vt 0.371826 0.371582
vt 0.365723 0.421387
vt 0.320068 0.502441
vt 0.368896 0.510742
vt 0.371826 0.495117
vt 0.374756 0.503418
vt 0.418457 0.511230
vt 0.458252 0.507324
vt 0.426514 0.491699
vt 0.476318 0.436035
vt 0.427490 0.420410
vt 0.476562 0.375488
vt 0.381592 0.335449
vt 0.448975 0.313477
vt 0.290039 0.308594
vt 0.391602 0.303223
vt 0.443359 0.306152
vt 0.296387 0.268555
vt 0.350098 0.267578
vt 0.412109 0.263184
vt 0.324219 0.260254
vt 0.372803 0.261230
vt 0.385498 0.253906
vt 0.337402 0.255371
vt 0.284180 0.254883
vt 0.811523 0.894470
vt 0.808594 0.943451
vt 0.763672 0.914673
vt 0.782227 0.866699
vt 0.765625 0.966614
vt 0.752930 0.865479
vt 0.727051 0.951843
vt 0.742188 0.867432
vt 0.710938 0.906372
vt1 0.686523 0.052734
vt1 0.728516 0.204102
vt1 0.666016 0.057617
vt1 0.641113 0.171875
vt1 0.611816 0.068359
vt1 0.608398 0.277344
vt1 0.677734 0.328125
vt1 0.542480 0.171875
vt1 0.537598 0.075684
vt1 0.450439 0.076172
vt1 0.604492 0.359375
vt1 0.670898 0.346680
vt1 0.683105 0.414551
vt1 0.687012 0.434082
vt1 0.527832 0.238770
vt1 0.456543 0.181152
vt1 0.385742 0.171875
vt1 0.362061 0.075195
vt1 0.419678 0.238770
vt1 0.501465 0.308594
vt1 0.306152 0.169434
vt1 0.291504 0.068848
vt1 0.297852 0.232910
vt1 0.215820 0.161621
vt1 0.203369 0.055664
vt1 0.370850 0.304688
vt1 0.128296 0.148926
vt1 0.116760 0.030273
vt1 0.055603 0.174805
vt1 0.151733 0.227051
vt1 0.093079 0.310059
vt1 0.226929 0.299805
vt1 0.099670 0.331055
vt1 0.460938 0.351562
vt1 0.318848 0.348633
vt1 0.193604 0.346680
vt1 0.138916 0.408203
vt1 0.084045 0.402344
vt1 0.243042 0.415527
vt1 0.136841 0.416016
vt1 0.079529 0.423340
vt1 0.193848 0.413086
vt1 0.156128 0.430176
vt1 0.196899 0.424805
vt1 0.250732 0.424805
vt1 0.307129 0.418457
vt1 0.370361 0.420410
vt1 0.353516 0.429199
vt1 0.267334 0.436523
vt1 0.427002 0.428711
vt1 0.173462 0.490234
vt1 0.083313 0.491211
vt1 0.082581 0.506104
vt1 0.384521 0.443359
vt1 0.291504 0.496094
vt1 0.247681 0.542725
vt1 0.164673 0.599121
vt1 0.031708 0.600342
vt1 0.346436 0.544434
vt1 0.129028 0.668945
vt1 0.031433 0.693115
vt1 0.265137 0.611328
vt1 0.126221 0.779175
vt1 0.041565 0.809448
vt1 0.178101 0.804810
vt1 0.235352 0.672852
vt1 0.227173 0.780396
vt1 0.182739 0.794800
vt1 0.276855 0.796387
vt1 0.378906 0.778687
vt1 0.313232 0.673828
vt1 0.353027 0.607422
vt1 0.393555 0.674805
vt1 0.449219 0.546631
vt1 0.441406 0.611328
vt1 0.480957 0.767944
vt1 0.487305 0.669189
vt1 0.574707 0.597656
vt1 0.565430 0.672852
vt1 0.496582 0.793823
vt1 0.569336 0.806763
vt1 0.574219 0.783447
vt1 0.578125 0.795776
vt1 0.643066 0.808228
vt1 0.702637 0.803345
vt1 0.655273 0.779053
vt1 0.730957 0.695557
vt1 0.657715 0.671631
vt1 0.732910 0.604248
vt1 0.589355 0.543457
vt1 0.690430 0.510010
vt1 0.452393 0.501953
vt1 0.604004 0.494629
vt1 0.681641 0.499023
vt1 0.461914 0.442383
vt1 0.541992 0.440918
vt1 0.635254 0.434570
vt1 0.503418 0.430176
vt1 0.576172 0.431152
vt1 0.595215 0.420410
vt1 0.523438 0.422363
vt1 0.443604 0.421875
vt1 0.939453 0.848877
vt1 0.934570 0.934265
vt1 0.855469 0.884033
vt1 0.888184 0.800415
vt1 0.858887 0.974670
vt1 0.837402 0.798218
vt1 0.792480 0.948914
vt1 0.818359 0.801636
vt1 0.764160 0.869629
vn -0.086614 0.322835 0.944882
vn -0.086614 -0.070866 0.992126
vn -0.291339 0.330709 0.897638
vn -0.661417 0.236221 0.716535
vn -0.748031 0.322835 0.582677
vn -0.692913 -0.559055 0.456693
vn -0.094488 -0.488189 0.866142
vn -0.960630 0.236220 -0.110236
vn -0.937008 0.322835 -0.125984
vn -0.440945 0.307086 -0.842520
vn -0.787402 0.267717 0.551181
vn -0.102362 0.165354 0.984252
vn -0.094488 0.370079 0.921260
vn 0.094488 -0.299213 -0.952756
vn -0.858268 -0.456693 -0.236220
vn -0.519685 0.173228 -0.834646
vn 0.188976 0.244094 -0.952756
vn 0.456693 0.322835 -0.826772
vn -0.165354 -0.456693 -0.874016
vn -0.771654 -0.456693 -0.440945
vn 0.842520 0.212598 -0.496063
vn 0.913386 0.314961 -0.267717
vn 0.795276 -0.440945 -0.409449
vn 0.905512 0.220472 0.370079
vn 0.716535 0.314961 0.622047
vn 0.267717 -0.480315 -0.834646
vn 0.354331 0.236221 0.905512
vn -0.062992 0.314961 0.944882
vn -0.110236 -0.078740 0.992126
vn 0.527559 -0.448819 0.724409
vn -0.094488 -0.488189 0.866142
vn 0.874016 -0.456693 0.188976
vn -0.094488 0.173228 0.984252
vn -0.574803 0.236220 -0.779527
vn 0.716535 0.251968 -0.653543
vn 0.826772 0.251969 0.503937
vn 0.433071 0.362205 0.826771
vn -0.094488 0.370079 0.921260
vn 0.929134 0.370079 0.007874
vn -0.125984 0.952756 -0.267717
vn 0.094488 -0.322835 -0.944882
vn 0.803150 0.370079 0.464567
vn -0.566929 -0.346457 -0.748031
vn -0.685039 0.637795 -0.362205
vn -0.503937 0.858268 0.055118
vn 0.740157 0.362205 -0.566929
vn 0.259843 0.370079 -0.889764
vn -0.259843 0.787401 0.559055
vn -0.889764 -0.393701 0.228346
vn 0.125984 0.897638 0.433071
vn -0.740157 -0.330709 -0.590551
vn 0.086614 -0.196850 -0.976378
vn -0.055118 0.433071 -0.897638
vn -0.125984 -0.385827 0.913386
vn -0.811024 -0.346457 0.464567
vn -0.850394 0.511811 0.086614
vn -0.677165 0.527559 -0.519685
vn 0.110236 0.409449 -0.905512
vn -0.409449 0.472441 0.779527
vn -0.598425 -0.244095 -0.763779
vn 0.133858 -0.307087 -0.944882
vn -0.818898 0.503937 0.267716
vn -0.543307 -0.212598 -0.811023
vn 0.165354 0.614173 -0.771653
vn -0.866142 0.165354 -0.480315
vn -0.960630 -0.267716 0.047244
vn -0.968504 -0.259842 -0.007874
vn -0.385827 0.897638 -0.212599
vn -0.724409 0.582677 0.377953
vn -0.149606 -0.204724 0.968504
vn -0.677165 -0.267716 0.685039
vn -0.346457 0.527559 0.779527
vn -0.015748 -0.259842 0.968504
vn 0.433071 0.511811 0.740157
vn 0.377953 0.519685 0.763779
vn 0.700787 -0.299212 0.645669
vn 0.755906 -0.204724 0.614173
vn 0.834646 0.535433 -0.157480
vn 0.968504 -0.259842 -0.047244
vn 0.614173 0.669291 0.425197
vn 0.992126 0.110236 -0.000000
vn 0.952756 -0.251969 -0.149606
vn 0.503937 0.866142 -0.031496
vn 0.677165 0.070866 -0.732283
vn 0.062992 0.913386 -0.409449
vn 0.590551 -0.275591 -0.755905
vn 0.110236 -0.307087 -0.944882
vn 0.614173 -0.259843 -0.748031
vn 0.078740 0.417323 -0.905512
vn 0.803150 0.503937 -0.314961
vn 0.078740 0.425197 -0.905512
vn 0.519685 -0.314961 0.795276
vn 0.795276 -0.338583 -0.503937
vn 0.102362 -0.228347 -0.968504
vn 0.566929 -0.393701 0.724409
vn 0.921260 -0.385827 0.062992
vn 0.574803 -0.220472 -0.787401
vn 0.448819 0.866142 0.228346
vn 0.645669 0.740157 -0.165354
vn -0.811024 0.370079 0.448819
vn -0.905512 0.362205 -0.220472
vn -0.433071 0.370079 -0.826772
vn 0.000000 1.000000 -0.000000
vn 0.000000 1.000000 -0.000000
vn 0.000000 1.000000 -0.000000
vn 0.000000 1.000000 -0.000000
vn 0.000000 1.000000 -0.000000
vn 0.000000 1.000000 -0.000000
vn 0.000000 1.000000 -0.000000
vn 0.000000 1.000000 -0.000000
vn 0.000000 1.000000 -0.000000
tan -0.223200 -0.915122 0.292207 1.000000
tan 0.015624 -0.992126 -0.069502 1.000000
tan -0.240684 -0.894600 0.251473 1.000000
tan -0.252527 -0.941782 0.077376 1.000000
tan -0.496249 -0.827454 -0.178622 1.000000
tan 0.618947 -0.771653 -0.005518 1.000000
tan 0.252836 -0.845558 -0.449005 1.000000
tan -0.237088 -0.960630 0.007564 1.000000
tan -0.319859 -0.936016 -0.019592 1.000000
tan -0.026598 -0.880712 -0.307086 1.000000
tan -0.159464 -0.866762 0.193192 1.000000
tan 0.031000 -0.984252 0.168578 1.000000
tan -0.139314 -0.916238 0.353773 1.000000
tan 0.015004 0.952756 -0.297725 1.000000
tan 0.452973 -0.858268 0.013516 1.000000
tan -0.062124 -0.863290 -0.140492 1.000000
tan -0.022506 -0.952756 -0.248558 1.000000
tan -0.074462 -0.834646 -0.367041 1.000000
tan -0.006882 -0.874016 0.457995 1.000000
tan 0.435365 -0.854982 0.123628 1.000000
tan 0.113832 -0.885114 -0.186000 1.000000
tan 0.291773 -0.911278 -0.076632 1.000000
tan -0.465745 -0.870172 0.032488 1.000000
tan 0.256618 -0.904210 -0.089218 1.000000
tan 0.590303 -0.741831 -0.304359 1.000000
tan -0.024490 -0.840970 0.476099 1.000000
tan 0.212040 -0.874202 0.145080 1.000000
tan 0.245520 -0.915122 0.321409 1.000000
tan 0.085932 -0.984314 -0.068572 1.000000
tan -0.103354 -0.862608 -0.459173 1.000000
tan -0.174344 -0.844938 -0.495257 1.000000
tan -0.455205 -0.887408 -0.039246 1.000000
tan 0.038750 -0.984252 0.176948 1.000000
tan -0.161262 -0.951578 -0.169446 1.000000
tan 0.085188 -0.950152 -0.272924 1.000000
tan 0.267841 -0.897080 0.009114 1.000000
tan 0.073656 -0.837002 0.328105 1.000000
tan 0.152334 -0.906752 0.379875 1.000000
tan 0.370265 -0.929134 -0.021948 1.000000
tan 0.262571 0.291897 0.915246 1.000000
tan 0.007440 0.944882 -0.322091 1.000000
tan 0.396429 -0.840722 -0.015624 1.000000
tan 0.092132 0.845186 -0.461281 1.000000
tan 0.646351 0.713559 0.034038 1.000000
tan 0.858268 0.504371 -0.006758 1.000000
tan 0.309381 -0.870358 -0.152148 1.000000
tan -0.021018 -0.889764 -0.376217 1.000000
tan 0.088598 0.585343 -0.783247 1.000000
tan -0.393701 0.893360 0.006200 1.000000
tan -0.084816 0.441565 -0.890570 1.000000
tan -0.047058 0.873458 -0.430157 1.000000
tan 0.099944 0.968690 -0.186434 1.000000
tan 0.099448 0.888834 0.422717 1.000000
tan -0.001116 0.911402 0.384835 1.000000
tan -0.383967 0.844876 -0.040238 1.000000
tan 0.510447 0.849712 -0.009362 1.000000
tan 0.506293 0.837002 0.189968 1.000000
tan 0.170438 0.889516 0.422965 1.000000
tan -0.014694 0.782751 -0.482113 1.000000
tan 0.047244 0.894724 -0.322959 1.000000
tan -0.061938 0.943828 -0.315519 1.000000
tan 0.491289 0.814681 -0.030752 1.000000
tan -0.133052 0.828197 -0.127968 1.000000
tan -0.013268 0.776861 0.615475 1.000000
tan 0.094674 0.901668 0.139686 1.000000
tan -0.268461 0.960630 -0.015128 1.000000
tan -0.259967 0.968566 0.013206 1.000000
tan 0.876434 0.426933 0.212040 1.000000
tan 0.575113 0.769297 -0.083700 1.000000
tan 0.001612 0.967326 0.204724 1.000000
tan -0.209684 0.955236 0.166036 1.000000
tan 0.027094 0.801351 -0.530287 1.000000
tan 0.000000 0.968504 0.259842 1.000000
tan -0.105214 0.821563 -0.506541 1.000000
tan -0.010354 0.775683 -0.522661 1.000000
tan 0.253209 0.953872 0.167214 1.000000
tan 0.254696 0.927398 -0.004340 1.000000
tan -0.547337 0.837994 -0.051708 1.000000
tan 0.259843 0.968504 -0.000000 1.000000
tan -0.648211 0.698617 -0.163370 1.000000
tan -0.110236 0.992126 -0.000000 1.000000
tan 0.254324 0.950400 0.018972 1.000000
tan -0.866638 0.505425 0.032984 1.000000
tan 0.332569 0.846798 0.389485 1.000000
tan -0.078368 0.414409 0.912394 1.000000
tan 0.243102 0.839792 -0.116250 1.000000
tan 0.126480 0.937442 -0.289913 1.000000
tan 0.069254 0.938496 -0.269143 1.000000
tan -0.195796 0.884742 0.390725 1.000000
tan -0.522289 0.838986 0.010540 1.000000
tan -0.206336 0.885362 0.397793 1.000000
tan 0.136648 0.929320 0.278752 1.000000
tan 0.174344 0.881146 -0.316883 1.000000
tan -0.099138 0.960878 -0.237027 1.000000
tan 0.164300 0.892554 0.356501 1.000000
tan 0.385827 0.921260 -0.000000 1.000000
tan -0.065968 0.911464 -0.303367 1.000000
tan -0.859322 0.477649 -0.122760 1.000000
tan -0.740157 0.657387 0.052452 1.000000
tan -0.381301 -0.843512 0.006510 1.000000
tan -0.360469 -0.907248 -0.009982 1.000000
tan -0.018166 -0.840412 -0.366669 1.000000
tan 0.503937 -0.000000 -0.866142 1.000000
tan 0.503937 -0.000000 -0.866142 1.000000
tan 0.503937 -0.000000 -0.866142 1.000000
tan 0.503937 -0.000000 -0.866142 1.000000
tan 0.503937 -0.000000 -0.866142 1.000000
tan 0.503937 -0.000000 -0.866142 1.000000
tan 0.503937 -0.000000 -0.866142 1.000000
tan 0.503937 -0.000000 -0.866142 1.000000
tan 0.503937 -0.000000 -0.866142 1.000000
f 3/3/3 2/2/2 1/1/1
f 4/4/4 2/2/2 3/3/3
f 5/5/5 4/4/4 3/3/3
f 6/6/6 2/2/2 4/4/4
f 7/7/7 2/2/2 6/6/6
f 4/4/4 5/5/5 8/8/8
f 8/8/8 6/6/6 4/4/4
f 9/9/9 8/8/8 5/5/5
f 9/9/9 10/10/10 8/8/8
f 6/6/6 11/11/11 7/7/7
f 12/12/12 7/7/7 11/11/11
f 11/11/11 13/13/13 12/12/12
f 13/13/13 11/11/11 14/14/14
f 6/6/6 8/8/8 15/15/15
f 8/8/8 10/10/10 16/16/16
f 15/15/15 8/8/8 16/16/16
f 16/16/16 10/10/10 17/17/17
f 18/18/18 17/17/17 10/10/10
f 15/15/15 16/16/16 19/19/19
f 16/16/16 17/17/17 19/19/19
f 15/15/15 20/20/20 6/6/6
f 19/19/19 20/20/20 15/15/15
f 6/6/6 20/20/20 11/11/11
f 17/17/17 18/18/18 21/21/21
f 22/22/22 21/21/21 18/18/18
f 19/19/19 17/17/17 23/23/23
f 17/17/17 21/21/21 23/23/23
f 21/21/21 22/22/22 24/24/24
f 21/21/21 24/24/24 23/23/23
f 25/25/25 24/24/24 22/22/22
f 23/23/23 26/26/26 19/19/19
f 20/20/20 19/19/19 26/26/26
f 24/24/24 25/25/25 27/27/27
f 28/28/28 27/27/27 25/25/25
f 27/27/27 28/28/28 29/29/29
f 24/24/24 27/27/27 30/30/30
f 30/30/30 27/27/27 29/29/29
f 23/23/23 24/24/24 30/30/30
f 29/29/29 31/31/31 30/30/30
f 30/30/30 32/32/32 23/23/23
f 32/32/32 30/30/30 31/31/31
f 32/32/32 26/26/26 23/23/23
f 31/31/31 33/33/33 32/32/32
f 20/20/20 26/26/26 34/34/34
f 11/11/11 20/20/20 34/34/34
f 32/32/32 35/35/35 26/26/26
f 34/34/34 26/26/26 35/35/35
f 36/36/36 32/32/32 33/33/33
f 35/35/35 32/32/32 36/36/36
f 33/33/33 37/37/37 36/36/36
f 38/38/38 37/37/37 33/33/33
f 36/36/36 39/39/39 35/35/35
f 37/37/37 38/38/38 40/40/40
f 41/41/41 40/40/40 38/38/38
f 37/37/37 42/42/42 36/36/36
f 37/37/37 40/40/40 42/42/42
f 42/42/42 39/39/39 36/36/36
f 43/43/43 40/40/40 41/41/41
f 42/42/42 40/40/40 44/44/44
f 43/43/43 44/44/44 40/40/40
f 39/39/39 42/42/42 45/45/45
f 44/44/44 45/45/45 42/42/42
f 46/46/46 35/35/35 39/39/39
f 45/45/45 46/46/46 39/39/39
f 47/47/47 35/35/35 46/46/46
f 35/35/35 47/47/47 34/34/34
f 46/46/46 45/45/45 48/48/48
f 47/47/47 46/46/46 48/48/48
f 49/49/49 45/45/45 44/44/44
f 48/48/48 45/45/45 49/49/49
f 49/49/49 44/44/44 43/43/43
f 48/48/48 50/50/50 47/47/47
f 41/41/41 51/51/51 43/43/43
f 43/43/43 51/51/51 49/49/49
f 52/52/52 51/51/51 41/41/41
f 53/53/53 51/51/51 52/52/52
f 54/54/54 48/48/48 49/49/49
f 48/48/48 54/54/54 50/50/50
f 55/55/55 49/49/49 51/51/51
f 49/49/49 55/55/55 54/54/54
f 53/53/53 56/56/56 51/51/51
f 55/55/55 51/51/51 56/56/56
f 56/56/56 53/53/53 57/57/57
f 57/57/57 53/53/53 58/58/58
f 59/59/59 55/55/55 56/56/56
f 58/58/58 60/60/60 57/57/57
f 61/61/61 60/60/60 58/58/58
f 57/57/57 62/62/62 56/56/56
f 63/63/63 60/60/60 61/61/61
f 61/61/61 64/64/64 63/63/63
f 65/65/65 63/63/63 64/64/64
f 66/66/66 57/57/57 60/60/60
f 62/62/62 57/57/57 66/66/66
f 67/67/67 60/60/60 63/63/63
f 60/60/60 67/67/67 66/66/66
f 68/68/68 63/63/63 65/65/65
f 68/68/68 67/67/67 63/63/63
f 65/65/65 69/69/69 68/68/68
f 69/69/69 67/67/67 68/68/68
f 70/70/70 69/69/69 65/65/65
f 69/69/69 70/70/70 67/67/67
f 71/71/71 66/66/66 67/67/67
f 67/67/67 70/70/70 71/71/71
f 66/66/66 71/71/71 62/62/62
f 72/72/72 56/56/56 62/62/62
f 62/62/62 71/71/71 72/72/72
f 59/59/59 56/56/56 72/72/72
f 71/71/71 70/70/70 73/73/73
f 73/73/73 72/72/72 71/71/71
f 59/59/59 72/72/72 74/74/74
f 75/75/75 72/72/72 73/73/73
f 75/75/75 74/74/74 72/72/72
f 76/76/76 73/73/73 70/70/70
f 73/73/73 77/77/77 75/75/75
f 77/77/77 73/73/73 76/76/76
f 78/78/78 75/75/75 77/77/77
f 78/78/78 74/74/74 75/75/75
f 77/77/77 76/76/76 79/79/79
f 77/77/77 79/79/79 78/78/78
f 76/76/76 70/70/70 80/80/80
f 81/81/81 80/80/80 70/70/70
f 82/82/82 79/79/79 76/76/76
f 76/76/76 80/80/80 82/82/82
f 81/81/81 83/83/83 80/80/80
f 83/83/83 82/82/82 80/80/80
f 83/83/83 81/81/81 84/84/84
f 84/84/84 85/85/85 83/83/83
f 85/85/85 86/86/86 83/83/83
f 82/82/82 83/83/83 86/86/86
f 86/86/86 85/85/85 87/87/87
f 86/86/86 88/88/88 82/82/82
f 88/88/88 86/86/86 87/87/87
f 79/79/79 82/82/82 88/88/88
f 79/79/79 88/88/88 78/78/78
f 88/88/88 87/87/87 89/89/89
f 88/88/88 89/89/89 78/78/78
f 90/90/90 78/78/78 89/89/89
f 74/74/74 78/78/78 90/90/90
f 90/90/90 89/89/89 91/91/91
f 74/74/74 90/90/90 92/92/92
f 74/74/74 92/92/92 59/59/59
f 55/55/55 59/59/59 92/92/92
f 92/92/92 54/54/54 55/55/55
f 90/90/90 91/91/91 93/93/93
f 93/93/93 92/92/92 90/90/90
f 94/94/94 93/93/93 91/91/91
f 94/94/94 14/14/14 93/93/93
f 95/95/95 54/54/54 92/92/92
f 54/54/54 95/95/95 50/50/50
f 93/93/93 96/96/96 92/92/92
f 95/95/95 92/92/92 96/96/96
f 97/97/97 93/93/93 14/14/14
f 96/96/96 93/93/93 97/97/97
f 97/97/97 14/14/14 11/11/11
f 98/98/98 95/95/95 96/96/96
f 50/50/50 95/95/95 98/98/98
f 96/96/96 97/97/97 99/99/99
f 98/98/98 96/96/96 99/99/99
f 11/11/11 100/100/100 97/97/97
f 99/99/99 97/97/97 100/100/100
f 100/100/100 11/11/11 101/101/101
f 101/101/101 99/99/99 100/100/100
f 101/101/101 98/98/98 99/99/99
f 34/34/34 101/101/101 11/11/11
f 101/101/101 102/102/102 98/98/98
f 101/101/101 34/34/34 102/102/102
f 102/102/102 50/50/50 98/98/98
f 102/102/102 34/34/34 47/47/47
f 102/102/102 47/47/47 50/50/50
f 105/105/105 104/104/104 103/103/103
f 105/105/105 103/103/103 106/106/106
f 105/105/105 107/107/107 104/104/104
f 105/105/105 106/106/106 108/108/108
f 105/105/105 109/109/109 107/107/107
f 105/105/105 108/108/108 110/110/110
f 105/105/105 111/111/111 109/109/109
f 105/105/105 110/110/110 111/111/111
