mtllib SM_Carpet_01_LOD2.mtl
g SM_Carpet_01_LOD2
#Vertices 68
#Indices 102
#Section 0 Offset 0 NumIndices 102 MaterialIndex 0 MI_Carpet_Inst
v 0.650040 0.027383 0.892402
v 0.906083 0.027098 0.651404
v 0.660364 0.009462 0.909052
v 0.339059 0.027392 1.043516
v 0.650040 0.027383 0.892402
v 0.344435 0.021056 1.060447
v 0.660364 0.009462 0.909052
v 0.344435 0.021056 1.060447
v 0.650040 0.027383 0.892402
v 0.344435 0.021056 1.060447
v -0.000080 0.027351 1.104429
v 0.339059 0.027392 1.043516
v -0.000080 0.027351 1.104429
v 0.344435 0.021056 1.060447
v 0.000068 0.009315 1.123059
v 0.000068 0.009315 1.123059
v -0.336969 0.027241 1.054185
v -0.000080 0.027351 1.104429
v 0.000057 0.027350 -1.104411
v -0.331287 0.027230 -1.055190
v 0.000068 0.009315 -1.123059
v 0.339059 0.027392 -1.043516
v 0.000057 0.027350 -1.104411
v 0.344473 0.021045 -1.060434
v 0.344473 0.021045 -1.060434
v 0.000057 0.027350 -1.104411
v 0.000068 0.009315 -1.123059
v 0.344473 0.021045 -1.060434
v 0.648571 0.027380 -0.893415
v 0.339059 0.027392 -1.043516
v 0.648571 0.027380 -0.893415
v 0.344473 0.021045 -1.060434
v 0.660111 0.009280 -0.908880
v 0.887668 0.027392 -0.644928
v 0.648571 0.027380 -0.893415
v 0.902295 0.020707 -0.655273
v 0.660111 0.009280 -0.908880
v 0.902295 0.020707 -0.655273
v 0.648571 0.027380 -0.893415
v 0.902295 0.020707 -0.655273
v 1.050247 0.027379 -0.340884
v 0.887668 0.027392 -0.644928
v 1.050247 0.027379 -0.340884
v 0.902295 0.020707 -0.655273
v 1.068250 0.009244 -0.347400
v 1.068250 0.009244 -0.347400
v 1.108070 0.027331 -0.002627
v 1.050247 0.027379 -0.340884
v -0.898678 0.026846 0.646160
v -1.058644 0.023493 0.344147
v -1.106807 0.027375 0.006057
v -0.648804 0.027132 0.893320
v -0.336969 0.027241 1.054185
v -0.000080 0.027351 1.104429
v 0.339059 0.027392 1.043516
v 0.650040 0.027383 0.892402
v 0.906083 0.027098 0.651404
v 1.061938 0.027160 0.350480
v 1.108070 0.027331 -0.002627
v 1.050247 0.027379 -0.340884
v 0.887668 0.027392 -0.644928
v 0.648571 0.027380 -0.893415
v 0.339059 0.027392 -1.043516
v 0.000057 0.027350 -1.104411
v -0.331287 0.027230 -1.055190
v -0.653084 0.027227 -0.892248
v -0.904407 0.025573 -0.653393
v -1.055244 0.024231 -0.354200
vt 0.127197 0.429199
vt 0.194580 0.452637
vt 0.124573 0.434082
vt 0.071167 0.386719
vt 0.127197 0.429199
vt 0.068420 0.389648
vt 0.124451 0.433594
vt 0.068420 0.389648
vt 0.127075 0.429199
vt 0.068420 0.389648
vt 0.028900 0.331055
vt 0.071167 0.386719
vt 0.028854 0.331055
vt 0.068481 0.389648
vt 0.024200 0.333496
vt 0.024170 0.333496
vt 0.006973 0.265137
vt 0.028809 0.331055
vt 0.428711 0.126953
vt 0.388916 0.071777
vt 0.433350 0.125000
vt 0.448975 0.194336
vt 0.428711 0.127441
vt 0.452637 0.193848
vt 0.452881 0.193848
vt 0.428711 0.127441
vt 0.433350 0.125000
vt 0.452637 0.193848
vt 0.450195 0.264160
vt 0.448975 0.194336
vt 0.450439 0.264160
vt 0.452637 0.193848
vt 0.455566 0.265137
vt 0.427490 0.330566
vt 0.450195 0.264160
vt 0.430908 0.332031
vt 0.455566 0.265137
vt 0.430908 0.332031
vt 0.450439 0.264160
vt 0.430908 0.332031
vt 0.387207 0.387695
vt 0.427490 0.330566
vt 0.387451 0.387695
vt 0.430908 0.332031
vt 0.391357 0.391602
vt 0.391113 0.391602
vt 0.331055 0.429688
vt 0.387451 0.387695
vt 0.028900 0.125977
vt 0.068787 0.069336
vt 0.125610 0.029297
vt 0.007217 0.193848
vt 0.006866 0.265625
vt 0.028854 0.331055
vt 0.071167 0.386719
vt 0.127197 0.429199
vt 0.194458 0.453125
vt 0.263184 0.453613
vt 0.331543 0.429688
vt 0.387451 0.387695
vt 0.427490 0.330566
vt 0.450439 0.264160
vt 0.448975 0.194336
vt 0.428711 0.127441
vt 0.389160 0.071777
vt 0.330078 0.028320
vt 0.263672 0.004883
vt 0.195557 0.005371
vt1 0.281494 0.930176
vt1 0.426514 0.980835
vt1 0.275879 0.940094
vt1 0.161011 0.838989
vt1 0.281494 0.929993
vt1 0.155151 0.844849
vt1 0.275635 0.940002
vt1 0.155151 0.844849
vt1 0.281250 0.930115
vt1 0.155151 0.844727
vt1 0.070190 0.718994
vt1 0.161011 0.838989
vt1 0.070068 0.719238
vt1 0.155273 0.844971
vt1 0.060089 0.724365
vt1 0.060028 0.724365
vt1 0.023056 0.577637
vt1 0.070007 0.718994
vt1 0.929688 0.281250
vt1 0.844238 0.161621
vt1 0.939453 0.275879
vt1 0.973145 0.425293
vt1 0.929688 0.281250
vt1 0.981445 0.423828
vt1 0.981445 0.423828
vt1 0.929688 0.281250
vt1 0.939941 0.276367
vt1 0.981445 0.423828
vt1 0.976074 0.575439
vt1 0.973145 0.425293
vt1 0.976074 0.575195
vt1 0.981445 0.423828
vt1 0.987793 0.577148
vt1 0.926758 0.717773
vt1 0.976074 0.575195
vt1 0.934082 0.721436
vt1 0.987305 0.577393
vt1 0.934082 0.721680
vt1 0.976074 0.575439
vt1 0.934082 0.721680
vt1 0.840820 0.841187
vt1 0.926758 0.717773
vt1 0.840820 0.841187
vt1 0.934082 0.721680
vt1 0.849121 0.848999
vt1 0.849121 0.849243
vt1 0.719727 0.930664
vt1 0.840820 0.841309
vt1 0.070190 0.278809
vt1 0.156006 0.156250
vt1 0.278076 0.070801
vt1 0.023575 0.424805
vt1 0.022812 0.578125
vt1 0.070068 0.719238
vt1 0.161011 0.838989
vt1 0.281494 0.930054
vt1 0.426025 0.981888
vt1 0.574219 0.982864
vt1 0.720703 0.930786
vt1 0.840820 0.841187
vt1 0.926758 0.717773
vt1 0.976074 0.575439
vt1 0.973145 0.425293
vt1 0.929688 0.281250
vt1 0.844727 0.162109
vt1 0.717285 0.068848
vt1 0.574707 0.018555
vt1 0.428467 0.019043
vn 0.244094 0.905512 0.338583
vn 0.433071 0.850394 0.307086
vn 0.448819 0.661417 0.606299
vn 0.000000 1.000000 0.007874
vn 0.118110 0.968504 0.204724
vn 0.220472 0.771653 0.598425
vn 0.433071 0.653543 0.614173
vn 0.181102 0.818898 0.551181
vn 0.244094 0.913386 0.330709
vn 0.173228 0.771653 0.614173
vn 0.023622 0.968504 0.251968
vn 0.000000 1.000000 0.007874
vn 0.000000 0.944882 0.322834
vn 0.188976 0.842520 0.503937
vn 0.000000 0.362205 0.929134
vn 0.000000 0.362205 0.929134
vn -0.204724 0.905512 0.362205
vn 0.000000 0.944882 0.330709
vn 0.000000 0.944882 -0.322835
vn -0.228346 0.866142 -0.440945
vn 0.000000 0.362205 -0.929134
vn 0.000000 1.000000 -0.007874
vn 0.023622 0.968504 -0.251969
vn 0.173228 0.771653 -0.614173
vn 0.188976 0.842520 -0.503937
vn 0.000000 0.944882 -0.322835
vn 0.000000 0.362205 -0.929134
vn 0.220472 0.771653 -0.598425
vn 0.125984 0.968504 -0.212599
vn 0.000000 1.000000 -0.007874
vn 0.244094 0.913386 -0.330709
vn 0.181102 0.818897 -0.551181
vn 0.433071 0.653543 -0.614173
vn 0.007874 1.000000 -0.007874
vn 0.165354 0.952756 -0.259843
vn 0.267717 0.944882 -0.196850
vn 0.440945 0.653543 -0.606299
vn 0.543307 0.748031 -0.385827
vn 0.244094 0.913386 -0.330709
vn 0.275591 0.944882 -0.181102
vn 0.110236 0.992126 -0.047244
vn 0.007874 1.000000 -0.007874
vn 0.582677 0.787401 -0.188976
vn 0.590551 0.692913 -0.417323
vn 0.850394 0.456693 -0.275591
vn 0.866142 0.417323 -0.283465
vn 0.574803 0.818897 0.039370
vn 0.574803 0.795275 -0.188976
vn -0.007874 1.000000 0.007874
vn -0.007874 1.000000 -0.000000
vn -0.007874 1.000000 -0.000000
vn -0.007874 1.000000 0.007874
vn 0.000000 1.000000 0.007874
vn 0.000000 1.000000 0.007874
vn 0.000000 1.000000 0.007874
vn 0.007874 1.000000 0.007874
vn 0.015748 1.000000 0.007874
vn 0.015748 1.000000 0.007874
vn 0.007874 1.000000 -0.000000
vn 0.007874 1.000000 -0.000000
vn 0.007874 1.000000 -0.007874
vn 0.007874 1.000000 -0.007874
vn 0.000000 1.000000 -0.007874
vn 0.000000 1.000000 -0.007874
vn 0.000000 1.000000 -0.007874
vn -0.007874 1.000000 -0.007874
vn -0.023622 1.000000 -0.015748
vn -0.062992 1.000000 -0.015748
tan -0.779838 0.382789 -0.461529 1.000000
tan -0.792548 0.516027 -0.311303 1.000000
tan -0.541633 0.738545 -0.404737 1.000000
tan -0.881890 0.003658 -0.464567 1.000000
tan -0.808358 0.211420 -0.533821 1.000000
tan -0.502821 0.610825 -0.602393 1.000000
tan -0.586707 0.718271 -0.350611 1.000000
tan -0.516213 0.552545 -0.651311 1.000000
tan -0.805506 0.374109 -0.438713 1.000000
tan -0.496745 0.597681 -0.610825 1.000000
tan -0.772212 0.171554 -0.587017 1.000000
tan -0.881890 0.003720 -0.472441 1.000000
tan -0.748899 0.195734 -0.572881 1.000000
tan -0.581065 0.501953 -0.621303 1.000000
tan -0.736065 0.563333 -0.219604 1.000000
tan -0.787278 0.490173 -0.191084 1.000000
tan -0.641701 0.108748 -0.634571 1.000000
tan -0.763718 0.192696 -0.550561 1.000000
tan -0.748899 -0.195734 -0.572881 1.000000
tan -0.474053 -0.495567 -0.727943 1.000000
tan -0.736065 -0.563333 -0.219604 1.000000
tan -0.889764 -0.003658 -0.464567 1.000000
tan -0.779838 -0.129828 -0.572137 1.000000
tan -0.557381 -0.366173 -0.617273 1.000000
tan -0.624775 -0.231633 -0.621551 1.000000
tan -0.763780 -0.188108 -0.550561 1.000000
tan -0.787278 -0.490173 -0.191084 1.000000
tan -0.596565 -0.290657 -0.594581 1.000000
tan -0.832910 0.000992 -0.489057 1.000000
tan -0.889764 -0.003596 -0.456693 1.000000
tan -0.786534 0.040238 -0.469403 1.000000
tan -0.628309 -0.276645 -0.617459 1.000000
tan -0.794656 0.002542 -0.557629 1.000000
tan -0.897638 0.003534 -0.448819 1.000000
tan -0.844318 0.023064 -0.452725 1.000000
tan -0.855602 0.160270 -0.394321 1.000000
tan -0.820820 0.079856 -0.510881 1.000000
tan -0.791680 0.426499 -0.287929 1.000000
tan -0.808110 0.059024 -0.433443 1.000000
tan -0.863042 0.177568 -0.386881 1.000000
tan -0.898382 0.079732 -0.421849 1.000000
tan -0.897638 0.003596 -0.440945 1.000000
tan -0.786658 0.533201 -0.203856 1.000000
tan -0.774134 0.481059 -0.296733 1.000000
tan -0.533759 0.720999 -0.452229 1.000000
tan -0.503255 0.745613 -0.440015 1.000000
tan -0.813070 0.574307 -0.074772 1.000000
tan -0.796144 0.535991 -0.165974 1.000000
tan -0.889764 -0.003410 -0.456693 1.000000
tan -0.889764 -0.007006 -0.456693 1.000000
tan -0.889764 -0.007006 -0.456693 1.000000
tan -0.889764 -0.003410 -0.456693 1.000000
tan -0.889764 0.003596 -0.456693 1.000000
tan -0.889764 0.003596 -0.456693 1.000000
tan -0.889764 0.003596 -0.456693 1.000000
tan -0.889764 0.010602 -0.456693 1.000000
tan -0.889764 0.017608 -0.456693 1.000000
tan -0.889764 0.017546 -0.448819 1.000000
tan -0.889764 0.007006 -0.456693 1.000000
tan -0.889764 0.007006 -0.456693 1.000000
tan -0.889764 0.003410 -0.456693 1.000000
tan -0.889764 0.003410 -0.456693 1.000000
tan -0.889764 -0.003596 -0.456693 1.000000
tan -0.889764 -0.003596 -0.456693 1.000000
tan -0.889764 -0.003596 -0.456693 1.000000
tan -0.889764 -0.010602 -0.456693 1.000000
tan -0.889764 -0.028210 -0.456693 1.000000
tan -0.897638 -0.063488 -0.440945 1.000000
f 3/3/3 2/2/2 1/1/1
f 6/6/6 5/5/5 4/4/4
f 9/9/9 8/8/8 7/7/7
f 12/12/12 11/11/11 10/10/10
f 15/15/15 14/14/14 13/13/13
f 18/18/18 17/17/17 16/16/16
f 21/21/21 20/20/20 19/19/19
f 24/24/24 23/23/23 22/22/22
f 27/27/27 26/26/26 25/25/25
f 30/30/30 29/29/29 28/28/28
f 33/33/33 32/32/32 31/31/31
f 36/36/36 35/35/35 34/34/34
f 39/39/39 38/38/38 37/37/37
f 42/42/42 41/41/41 40/40/40
f 45/45/45 44/44/44 43/43/43
f 48/48/48 47/47/47 46/46/46
f 51/51/51 50/50/50 49/49/49
f 51/51/51 49/49/49 52/52/52
f 51/51/51 52/52/52 53/53/53
f 51/51/51 53/53/53 54/54/54
f 51/51/51 54/54/54 55/55/55
f 51/51/51 55/55/55 56/56/56
f 51/51/51 56/56/56 57/57/57
f 51/51/51 57/57/57 58/58/58
f 51/51/51 58/58/58 59/59/59
f 51/51/51 59/59/59 60/60/60
f 51/51/51 60/60/60 61/61/61
f 51/51/51 61/61/61 62/62/62
f 51/51/51 62/62/62 63/63/63
f 51/51/51 63/63/63 64/64/64
f 51/51/51 64/64/64 65/65/65
f 51/51/51 65/65/65 66/66/66
f 51/51/51 66/66/66 67/67/67
f 51/51/51 67/67/67 68/68/68
