mtllib SM_Carpet_03_LOD5.mtl
g SM_Carpet_03_LOD5
#Vertices 10
#Indices 15
#Section 0 Offset 0 NumIndices 15 MaterialIndex 0 MI_Carpet_Inst
v 0.777227 0.009011 -1.340885
v -0.859299 0.008307 -1.305713
v -0.886327 0.008756 -1.407264
v -0.860064 0.009115 1.332099
v 0.780631 0.009504 0.000023
v 0.786082 0.008903 1.329386
v -0.859270 0.009508 -0.000002
v 0.777227 0.009011 -1.340885
v 0.780631 0.009504 0.000023
v -0.859299 0.008307 -1.305713
vt 0.052673 0.982986
vt 0.040619 0.431641
vt 0.076477 0.422852
vt 0.128296 1.002388
vt 0.460449 0.731201
vt 0.460693 1.002270
vt 0.125366 0.732910
vt 0.456299 0.458008
vt 0.460449 0.731201
vt 0.125366 0.468750
vt1 0.930664 0.976639
vt1 0.904785 0.024414
vt1 0.981445 0.008789
vt1 0.030762 0.996304
vt1 0.781738 0.500244
vt1 0.782227 0.996086
vt1 0.024063 0.503906
vt1 0.771973 0.000488
vt1 0.781738 0.500244
vt1 0.024261 0.020508
vn 0.000000 0.826771 -0.559055
vn 0.000000 0.748031 -0.661417
vn 0.000000 0.992126 0.149606
vn 0.000000 1.000000 -0.000000
vn 0.000000 1.000000 -0.000000
vn 0.000000 1.000000 0.015748
vn 0.000000 1.000000 -0.000000
vn 0.000000 1.000000 -0.000000
vn 0.000000 1.000000 -0.000000
vn 0.000000 1.000000 -0.000000
tan -0.977370 0.000000 0.000000 1.000000
tan -0.957902 -0.015624 -0.017670 1.000000
tan -0.992126 0.000000 0.000000 1.000000
tan 0.000000 -0.000000 -1.000000 1.000000
tan 0.000000 -0.000000 -1.000000 1.000000
tan 0.000000 0.015748 -1.000000 1.000000
tan 0.007874 -0.000000 -1.000000 1.000000
tan 0.007874 -0.000000 -1.000000 1.000000
tan 0.007874 -0.000000 -1.000000 1.000000
tan 0.007874 -0.000000 -1.000000 1.000000
f 3/3/3 2/2/2 1/1/1
f 6/6/6 5/5/5 4/4/4
f 7/7/7 4/4/4 5/5/5
f 9/9/9 8/8/8 7/7/7
f 10/10/10 7/7/7 8/8/8
