mtllib SM_Carpet_05_LOD4.mtl
g SM_Carpet_05_LOD4
#Vertices 16
#Indices 18
#Section 0 Offset 0 NumIndices 18 MaterialIndex 0 MI_Carpet_Inst
v -0.694773 0.003616 1.043282
v -0.655638 0.010272 -1.023386
v -0.630101 0.010577 1.010445
v -0.655638 0.010272 -1.023386
v 0.694773 0.003616 -1.043282
v 0.630039 0.010755 -1.010239
v 0.694773 0.003616 -1.043282
v 0.655653 0.010456 1.022353
v 0.630039 0.010755 -1.010239
v 0.655653 0.010456 1.022353
v -0.694773 0.003616 1.043282
v -0.630101 0.010577 1.010445
v 0.630039 0.010755 -1.010239
v 0.655653 0.010456 1.022353
v -0.655638 0.010272 -1.023386
v -0.630101 0.010577 1.010445
vt 0.851562 0.435059
vt 0.859375 0.013184
vt 0.864746 0.427734
vt 0.908203 0.017090
vt 0.912598 0.294434
vt 0.906250 0.280762
vt 0.883789 0.008789
vt 0.875977 0.430176
vt 0.870605 0.016113
vt 0.895020 0.285645
vt 0.891113 0.008789
vt 0.897461 0.022461
vt 0.733887 0.545166
vt 0.739258 0.958435
vt 0.472656 0.542480
vt 0.477783 0.955963
vt1 0.846680 0.991936
vt1 0.868652 0.018555
vt1 0.882812 0.975327
vt1 0.970215 0.037109
vt1 0.987305 0.991936
vt1 0.960449 0.944580
vt1 0.930176 0.991936
vt1 0.907715 0.019043
vt1 0.893555 0.975235
vt1 0.799316 0.963928
vt1 0.782227 0.008301
vt1 0.809082 0.055176
vt1 0.752441 0.012207
vt1 0.767090 0.994007
vt1 0.006989 0.005859
vt1 0.021667 0.988167
vn 0.000000 1.000000 -0.000000
vn 0.000000 1.000000 -0.000000
vn 0.000000 1.000000 -0.000000
vn 0.000000 1.000000 -0.000000
vn 0.000000 1.000000 -0.000000
vn 0.000000 1.000000 -0.000000
vn 0.000000 1.000000 -0.000000
vn 0.000000 1.000000 -0.000000
vn 0.000000 1.000000 -0.000000
vn 0.000000 1.000000 -0.000000
vn 0.000000 1.000000 -0.000000
vn 0.000000 1.000000 -0.000000
vn 0.000000 1.000000 -0.015748
vn 0.000000 1.000000 0.007874
vn 0.000000 1.000000 -0.007874
vn 0.000000 1.000000 0.015748
tan 0.039370 -0.000000 -1.000000 1.000000
tan -0.031496 -0.000000 -1.000000 1.000000
tan -0.015748 -0.000000 -1.000000 1.000000
tan -1.000000 -0.000000 -0.015748 1.000000
tan -1.000000 0.000000 0.007874 1.000000
tan -1.000000 0.000000 0.086614 1.000000
tan 0.039370 -0.000000 -1.000000 1.000000
tan -0.031496 -0.000000 -1.000000 1.000000
tan -0.015748 -0.000000 -1.000000 1.000000
tan -1.000000 -0.000000 -0.015748 1.000000
tan -1.000000 0.000000 0.007874 1.000000
tan -1.000000 0.000000 0.086614 1.000000
tan 0.000000 -0.015748 -1.000000 1.000000
tan 0.000000 0.007874 -1.000000 1.000000
tan 0.000000 -0.007874 -1.000000 1.000000
tan 0.000000 0.015748 -1.000000 1.000000
f 3/3/3 2/2/2 1/1/1
f 6/6/6 5/5/5 4/4/4
f 9/9/9 8/8/8 7/7/7
f 12/12/12 11/11/11 10/10/10
f 15/15/15 14/14/14 13/13/13
f 16/16/16 14/14/14 15/15/15
