mtllib SM_Crayon02_LOD3.mtl
g SM_Crayon02_LOD3
#Vertices 80
#Indices 84
#Section 0 Offset 0 NumIndices 84 MaterialIndex 0 MI_OfficeSupplies
v 0.097337 0.006479 -0.001601
v 0.072556 0.003459 0.003702
v 0.075239 0.009933 0.004146
v 0.097337 0.006479 -0.001601
v 0.072523 0.001191 -0.001900
v 0.072556 0.003459 0.003702
v 0.097337 0.006479 -0.001601
v 0.071135 0.003946 -0.005536
v 0.072523 0.001191 -0.001900
v 0.097337 0.006479 -0.001601
v 0.072329 0.006868 -0.006329
v 0.071135 0.003946 -0.005536
v 0.072329 0.006868 -0.006329
v 0.097337 0.006479 -0.001601
v 0.071186 0.009771 -0.005557
v 0.071186 0.009771 -0.005557
v 0.097337 0.006479 -0.001601
v 0.072822 0.012556 -0.001786
v 0.072822 0.012556 -0.001786
v 0.097337 0.006479 -0.001601
v 0.075239 0.009933 0.004146
v -0.091048 0.004112 0.001906
v -0.084671 0.001179 0.000302
v -0.084388 0.002273 -0.003794
v -0.084722 0.007328 0.005446
v -0.091048 0.004112 0.001906
v -0.085196 0.012401 0.000483
v -0.084722 0.007328 0.005446
v 0.075239 0.009933 0.004146
v 0.072556 0.003459 0.003702
v -0.085196 0.012401 0.000483
v 0.072822 0.012556 -0.001786
v 0.075239 0.009933 0.004146
v -0.085196 0.012401 0.000483
v 0.075239 0.009933 0.004146
v -0.084722 0.007328 0.005446
v 0.072822 0.012556 -0.001786
v -0.085196 0.012401 0.000483
v -0.084998 0.011434 -0.003784
v -0.084998 0.011434 -0.003784
v 0.071186 0.009771 -0.005557
v 0.072822 0.012556 -0.001786
v 0.071186 0.009771 -0.005557
v -0.084998 0.011434 -0.003784
v -0.084069 0.008953 -0.005718
v -0.084069 0.008953 -0.005718
v 0.072329 0.006868 -0.006329
v 0.071186 0.009771 -0.005557
v 0.072329 0.006868 -0.006329
v -0.084069 0.008953 -0.005718
v -0.084150 0.004909 -0.005914
v 0.072329 0.006868 -0.006329
v -0.084150 0.004909 -0.005914
v 0.071135 0.003946 -0.005536
v 0.071135 0.003946 -0.005536
v -0.084150 0.004909 -0.005914
v -0.084388 0.002273 -0.003794
v 0.071135 0.003946 -0.005536
v -0.084388 0.002273 -0.003794
v 0.072523 0.001191 -0.001900
v 0.072523 0.001191 -0.001900
v -0.084388 0.002273 -0.003794
v -0.084671 0.001179 0.000302
v -0.084671 0.001179 0.000302
v 0.072556 0.003459 0.003702
v 0.072523 0.001191 -0.001900
v 0.072556 0.003459 0.003702
v -0.084671 0.001179 0.000302
v -0.091048 0.004112 0.001906
v 0.072556 0.003459 0.003702
v -0.091048 0.004112 0.001906
v -0.084722 0.007328 0.005446
v -0.091048 0.004112 0.001906
v -0.084388 0.002273 -0.003794
v -0.084150 0.004909 -0.005914
v -0.084069 0.008953 -0.005718
v -0.091048 0.004112 0.001906
v -0.084998 0.011434 -0.003784
v -0.091048 0.004112 0.001906
v -0.085196 0.012401 0.000483
vt 0.112915 0.782959
vt 0.117859 0.733398
vt 0.128662 0.740967
vt 0.112549 0.783081
vt 0.105835 0.733887
vt 0.117432 0.733398
vt 0.113220 0.783081
vt 0.095581 0.734131
vt 0.104309 0.734131
vt 0.114014 0.782837
vt 0.090027 0.739014
vt 0.094177 0.734619
vt 0.089722 0.739258
vt 0.114136 0.782837
vt 0.083862 0.740234
vt 0.152222 0.747314
vt 0.115112 0.783936
vt 0.143555 0.743408
vt 0.142212 0.742676
vt 0.114868 0.783569
vt 0.129272 0.740723
vt 0.088623 0.722412
vt 0.091614 0.717041
vt 0.099365 0.718994
vt 0.082581 0.729004
vt 0.088379 0.722412
vt 0.091797 0.738525
vt 0.419189 0.677734
vt 0.425293 0.991623
vt 0.412842 0.986305
vt 0.432861 0.676758
vt 0.437500 0.987083
vt 0.425049 0.991631
vt 0.432861 0.676758
vt 0.425049 0.991669
vt 0.418945 0.677734
vt 0.437744 0.987106
vt 0.432861 0.676758
vt 0.441406 0.677246
vt 0.374512 0.677490
vt 0.379883 0.984055
vt 0.370850 0.987343
vt 0.380127 0.984024
vt 0.374512 0.677490
vt 0.380615 0.679199
vt 0.380615 0.679199
vt 0.385986 0.986214
vt 0.379883 0.984039
vt 0.385742 0.986214
vt 0.380615 0.679199
vt 0.388672 0.678955
vt 0.385742 0.986214
vt 0.388672 0.678955
vt 0.391846 0.983826
vt 0.391846 0.983826
vt 0.388672 0.678955
vt 0.395264 0.678467
vt 0.391846 0.983826
vt 0.395264 0.678467
vt 0.400635 0.986465
vt 0.400635 0.986473
vt 0.395264 0.678467
vt 0.403564 0.677979
vt 0.403320 0.677979
vt 0.412598 0.986374
vt 0.400879 0.986465
vt 0.412109 0.986397
vt 0.404541 0.677979
vt 0.408936 0.665283
vt 0.412109 0.986382
vt 0.410400 0.665283
vt 0.417236 0.677734
vt 0.088867 0.722900
vt 0.099487 0.718994
vt 0.103638 0.724121
vt 0.103271 0.732178
vt 0.088684 0.722412
vt 0.099060 0.736572
vt 0.088562 0.722412
vt 0.091553 0.738037
vt1 0.241455 0.154785
vt1 0.362305 0.057617
vt1 0.369385 0.097656
vt1 0.240356 0.153809
vt1 0.335205 0.031738
vt1 0.361572 0.056152
vt1 0.241943 0.155762
vt1 0.312500 0.009277
vt1 0.331299 0.029297
vt1 0.244263 0.156738
vt1 0.289551 0.007812
vt1 0.308350 0.007324
vt1 0.288330 0.007812
vt1 0.244629 0.156738
vt1 0.273438 -0.002930
vt1 0.406494 0.164062
vt1 0.244141 0.161621
vt1 0.396240 0.136230
vt1 0.395020 0.131836
vt1 0.244385 0.160156
vt1 0.371094 0.099121
vt1 0.434570 0.028320
vt1 0.447021 0.013672
vt1 0.469482 0.024414
vt1 0.412354 0.044434
vt1 0.433838 0.028320
vt1 0.435059 0.079102
vt1 0.153442 0.011719
vt1 0.168945 0.987900
vt1 0.130249 0.971497
vt1 0.196045 0.008789
vt1 0.207397 0.973251
vt1 0.168213 0.987892
vt1 0.195923 0.008789
vt1 0.168091 0.987907
vt1 0.152710 0.011719
vt1 0.207886 0.973251
vt1 0.195679 0.008789
vt1 0.222290 0.009766
vt1 0.014420 0.009766
vt1 0.028305 0.963318
vt1 -0.000115 0.973297
vt1 0.028580 0.963318
vt1 0.014473 0.010254
vt1 0.033630 0.015625
vt1 0.033630 0.015625
vt1 0.046783 0.970276
vt1 0.028458 0.963318
vt1 0.046753 0.970276
vt1 0.033630 0.015625
vt1 0.058441 0.015137
vt1 0.046692 0.970276
vt1 0.058594 0.015137
vt1 0.065125 0.962982
vt1 0.065002 0.962982
vt1 0.058289 0.015137
vt1 0.078857 0.013672
vt1 0.065308 0.962982
vt1 0.078857 0.013672
vt1 0.093018 0.971390
vt1 0.092773 0.971390
vt1 0.078918 0.013672
vt1 0.104736 0.012207
vt1 0.103821 0.012207
vt1 0.129639 0.971512
vt1 0.093323 0.971390
vt1 0.128052 0.971542
vt1 0.107605 0.011719
vt1 0.121887 -0.026367
vt1 0.128418 0.971497
vt1 0.125854 -0.026367
vt1 0.147095 0.011719
vt1 0.435303 0.029785
vt1 0.469727 0.023926
vt1 0.479492 0.041992
vt1 0.473633 0.066895
vt1 0.435059 0.028320
vt1 0.458496 0.077148
vt1 0.434570 0.028320
vt1 0.434326 0.077637
vn 0.275591 -0.614173 0.740157
vn 0.031496 -0.661417 0.748031
vn 0.228346 0.488189 0.842520
vn 0.393701 -0.748031 0.535433
vn 0.078740 -0.992126 -0.070866
vn 0.086614 -0.629921 0.771653
vn 0.409449 -0.598425 -0.685039
vn 0.062992 -0.574803 -0.818897
vn 0.078740 -0.976378 -0.212598
vn 0.307087 -0.141732 -0.937008
vn 0.094488 -0.007874 -0.992126
vn 0.078740 -0.503937 -0.858268
vn 0.094488 -0.015748 -0.992126
vn 0.338583 0.291338 -0.889764
vn 0.078740 0.472441 -0.881890
vn 0.078740 0.551181 -0.826772
vn 0.314961 0.629921 -0.708661
vn 0.094488 0.976378 -0.196850
vn 0.086614 1.000000 -0.015748
vn 0.314961 0.763779 0.559055
vn 0.110236 0.543307 0.834646
vn -1.000000 0.000000 0.000000
vn -1.000000 0.000000 0.000000
vn -1.000000 0.000000 0.000000
vn -1.000000 0.000000 0.000000
vn -1.000000 0.000000 0.000000
vn -1.000000 0.000000 0.000000
vn 0.000000 0.055118 1.000000
vn 0.000000 0.472441 0.881890
vn 0.000000 -0.503937 0.866142
vn 0.000000 0.976378 0.212598
vn 0.000000 1.000000 -0.047244
vn 0.000000 0.543307 0.842520
vn 0.000000 0.976378 0.236220
vn 0.000000 0.535433 0.842520
vn 0.000000 0.181102 0.984252
vn 0.000000 0.984252 -0.173228
vn 0.000000 0.984252 0.181102
vn 0.000000 0.834646 -0.551181
vn 0.000000 0.826771 -0.559055
vn 0.000000 0.543307 -0.834646
vn 0.000000 0.984252 -0.188976
vn 0.000000 0.519685 -0.858268
vn 0.000000 0.818897 -0.574803
vn 0.000000 0.385827 -0.921260
vn 0.000000 0.385827 -0.921260
vn 0.000000 -0.000000 -1.000000
vn 0.000000 0.519685 -0.858268
vn 0.000000 -0.000000 -1.000000
vn 0.000000 0.385827 -0.921260
vn 0.000000 -0.338583 -0.944882
vn 0.000000 -0.000000 -1.000000
vn 0.000000 -0.354331 -0.937008
vn 0.000000 -0.519685 -0.858268
vn 0.000000 -0.519685 -0.850394
vn 0.000000 -0.346457 -0.937008
vn 0.000000 -0.826772 -0.566929
vn 0.000000 -0.551181 -0.834646
vn 0.000000 -0.826772 -0.559055
vn 0.000000 -0.976378 -0.204724
vn 0.000000 -0.984252 -0.188976
vn 0.000000 -0.834646 -0.551181
vn 0.000000 -0.984252 0.157480
vn 0.000000 -0.984252 0.173228
vn 0.000000 -0.606299 0.795276
vn 0.000000 -1.000000 -0.070866
vn 0.000000 -0.637795 0.771653
vn 0.000000 -0.960630 0.275591
vn 0.000000 -0.763779 0.645669
vn 0.000000 -0.622047 0.779527
vn 0.000000 -0.677165 0.732283
vn 0.000000 -0.125984 0.992126
vn -1.000000 0.000000 0.000000
vn -1.000000 0.000000 0.000000
vn -1.000000 0.000000 0.000000
vn -1.000000 0.000000 0.000000
vn -1.000000 0.000000 0.000000
vn -1.000000 0.000000 0.000000
vn -1.000000 0.000000 0.000000
vn -1.000000 0.000000 0.000000
tan -0.526257 -0.581189 -0.286317 1.000000
tan -0.526009 -0.561039 -0.473929 1.000000
tan -0.819828 0.200818 0.105834 1.000000
tan -0.743071 -0.550189 -0.222270 1.000000
tan -0.984314 -0.086490 0.117180 1.000000
tan -0.937442 -0.059024 0.057040 1.000000
tan -0.784860 -0.602021 0.056792 1.000000
tan -0.163122 -0.799057 0.548329 1.000000
tan -0.953314 -0.123752 0.215264 1.000000
tan -0.885362 -0.309877 -0.243288 1.000000
tan -0.882758 -0.453097 -0.080476 1.000000
tan -0.605431 -0.615599 0.305909 1.000000
tan -0.867134 -0.476533 -0.075020 1.000000
tan -0.817286 -0.358981 -0.428545 1.000000
tan -0.479137 -0.743010 -0.440821 1.000000
tan -0.041230 0.815922 0.540021 1.000000
tan -0.046500 0.723541 0.622481 1.000000
tan -0.745737 0.200818 0.638105 1.000000
tan -0.937008 0.086490 0.338583 1.000000
tan -0.463823 -0.283650 0.648831 1.000000
tan -0.290843 -0.784301 0.548949 1.000000
tan 0.000000 -1.000000 0.000000 1.000000
tan 0.000000 -1.000000 0.000000 1.000000
tan 0.000000 -1.000000 0.000000 1.000000
tan 0.000000 -1.000000 0.000000 1.000000
tan 0.000000 -1.000000 0.000000 1.000000
tan 0.000000 -1.000000 0.000000 1.000000
tan -1.000000 -0.007874 0.000434 1.000000
tan -0.881890 -0.006944 0.003720 1.000000
tan -0.866142 0.000000 0.000000 1.000000
tan -0.974704 0.000000 0.000000 1.000000
tan -1.000000 -0.001860 -0.039370 1.000000
tan -0.937690 -0.106144 0.068448 1.000000
tan -0.974518 0.000000 0.000000 1.000000
tan -0.922004 0.019902 -0.012648 1.000000
tan -0.982826 0.007750 -0.001426 1.000000
tan -0.984252 0.000000 0.000000 1.000000
tan -0.984252 0.000000 0.000000 1.000000
tan -0.860686 -0.004340 -0.006572 1.000000
tan -0.930498 -0.022010 -0.032550 1.000000
tan -0.930436 -0.052576 -0.034224 1.000000
tan -0.982764 0.000000 0.000000 1.000000
tan -0.908798 -0.006758 -0.004092 1.000000
tan -0.940542 -0.004526 -0.006448 1.000000
tan -0.948602 0.000000 0.000000 1.000000
tan -0.948602 -0.014508 -0.006076 1.000000
tan -1.000000 -0.007874 0.000000 1.000000
tan -0.878728 -0.020274 -0.012276 1.000000
tan -1.000000 0.000000 0.000000 1.000000
tan -0.948602 0.000000 0.000000 1.000000
tan -0.947548 -0.007440 0.002666 1.000000
tan -1.000000 -0.007874 0.000000 1.000000
tan -0.939798 -0.014756 0.005580 1.000000
tan -0.862360 -0.020274 0.012276 1.000000
tan -0.896894 -0.013392 0.008184 1.000000
tan -0.937008 -0.007378 0.002728 1.000000
tan -0.934652 -0.008928 0.013020 1.000000
tan -0.932110 -0.052576 0.034720 1.000000
tan -0.930498 -0.022010 0.032550 1.000000
tan -0.974766 0.000000 0.000000 1.000000
tan -0.984252 -0.001488 0.007750 1.000000
tan -0.860686 -0.004340 0.006572 1.000000
tan -0.984252 0.000000 0.000000 1.000000
tan -0.982888 -0.005456 -0.031000 1.000000
tan -0.934962 0.175336 0.133672 1.000000
tan -0.992126 0.006696 -0.094488 1.000000
tan -0.982888 0.024304 0.020088 1.000000
tan -0.958460 0.000000 0.000000 1.000000
tan -0.978610 0.010168 0.012028 1.000000
tan -0.966706 0.018414 0.014694 1.000000
tan -0.992932 0.011532 0.010664 1.000000
tan -0.992126 0.000000 0.000000 1.000000
tan 0.000000 -1.000000 0.000000 1.000000
tan 0.000000 -1.000000 0.000000 1.000000
tan 0.000000 -1.000000 0.000000 1.000000
tan 0.000000 -1.000000 0.000000 1.000000
tan 0.000000 -1.000000 0.000000 1.000000
tan 0.000000 -1.000000 0.000000 1.000000
tan 0.000000 -1.000000 0.000000 1.000000
tan 0.000000 -1.000000 0.000000 1.000000
f 3/3/3 2/2/2 1/1/1
f 6/6/6 5/5/5 4/4/4
f 9/9/9 8/8/8 7/7/7
f 12/12/12 11/11/11 10/10/10
f 15/15/15 14/14/14 13/13/13
f 18/18/18 17/17/17 16/16/16
f 21/21/21 20/20/20 19/19/19
f 24/24/24 23/23/23 22/22/22
f 27/27/27 26/26/26 25/25/25
f 30/30/30 29/29/29 28/28/28
f 33/33/33 32/32/32 31/31/31
f 36/36/36 35/35/35 34/34/34
f 39/39/39 38/38/38 37/37/37
f 42/42/42 41/41/41 40/40/40
f 45/45/45 44/44/44 43/43/43
f 48/48/48 47/47/47 46/46/46
f 51/51/51 50/50/50 49/49/49
f 54/54/54 53/53/53 52/52/52
f 57/57/57 56/56/56 55/55/55
f 60/60/60 59/59/59 58/58/58
f 63/63/63 62/62/62 61/61/61
f 66/66/66 65/65/65 64/64/64
f 69/69/69 68/68/68 67/67/67
f 72/72/72 71/71/71 70/70/70
f 75/75/75 74/74/74 73/73/73
f 75/75/75 77/77/77 76/76/76
f 76/76/76 79/79/79 78/78/78
f 78/78/78 77/77/77 80/80/80
