mtllib SM_Ceiling.mtl
g SM_Ceiling
#Vertices 68
#Indices 132
#Section 0 Offset 0 NumIndices 132 MaterialIndex 0 MI_Ceiling_01
v -4.250000 3.424115 4.456284
v -4.250000 3.161674 8.291665
v -4.250000 3.161674 4.456284
v -4.250000 3.424115 8.291665
v -3.583331 3.424115 4.456284
v -4.250000 3.424115 4.456284
v -4.250000 3.161674 4.456284
v -3.583331 3.161674 4.456284
v 5.416667 3.424115 8.291665
v 7.166667 3.424115 4.456284
v 7.166667 3.161674 4.456284
v 5.416667 3.161674 8.291665
v 0.375000 3.424114 -5.281059
v -3.583331 3.424114 -5.281054
v -3.583331 3.161673 -5.281054
v 0.375000 3.161673 -5.281059
v 7.166667 3.424115 4.456284
v 8.833330 3.424114 0.833339
v 8.833330 3.161674 0.833339
v 7.166667 3.161674 4.456284
v -3.583331 3.424114 -5.281054
v -3.583331 3.161674 4.456284
v -3.583331 3.161673 -5.281054
v -3.583331 3.424115 4.456284
v 8.833330 3.424113 -14.416663
v 0.375000 3.424113 -14.416663
v 0.375000 3.161672 -14.416663
v 8.833330 3.161672 -14.416663
v 0.375000 3.424113 -14.416663
v 0.375000 3.161673 -5.281059
v 0.375000 3.161672 -14.416663
v 0.375000 3.424114 -5.281059
v 8.833330 3.161672 -14.416663
v 0.375000 3.161672 -14.416663
v 8.833330 3.161673 -5.281072
v 0.375000 3.161673 -5.281059
v 8.833330 3.161674 0.833339
v 7.166667 3.161674 4.456284
v -3.583331 3.161674 4.456284
v -3.583331 3.161673 -5.281054
v 5.416667 3.161674 8.291665
v -3.583331 3.161674 8.291665
v -4.250000 3.161674 8.291665
v -4.250000 3.161674 4.456284
v 8.833330 3.424113 -14.416663
v 8.833330 3.424114 -5.281072
v 0.375000 3.424113 -14.416663
v 0.375000 3.424114 -5.281059
v 8.833330 3.424114 0.833339
v 7.166667 3.424115 4.456284
v -3.583331 3.424115 4.456284
v -3.583331 3.424114 -5.281054
v 5.416667 3.424115 8.291665
v -3.583331 3.424115 8.291665
v -4.250000 3.424115 8.291665
v -4.250000 3.424115 4.456284
v -4.250000 3.424115 8.291665
v -3.583331 3.161674 8.291665
v -4.250000 3.161674 8.291665
v -3.583331 3.424115 8.291665
v 5.416667 3.161674 8.291665
v 5.416667 3.424115 8.291665
v 8.833330 3.424114 -5.281072
v 8.833330 3.424113 -14.416663
v 8.833330 3.161672 -14.416663
v 8.833330 3.161673 -5.281072
v 8.833330 3.424114 0.833339
v 8.833330 3.161674 0.833339
vt 2.166016 2.134766
vt 3.125000 2.134766
vt 2.166016 2.134766
vt 3.125000 2.134766
vt 2.166016 1.968262
vt 2.166016 2.134766
vt 2.166016 2.134766
vt 2.166016 1.968262
vt 3.125000 -0.281250
vt 2.166016 -0.717773
vt 2.166016 -0.717773
vt 3.125000 -0.281250
vt -0.266846 0.979095
vt -0.266846 1.968262
vt -0.266846 1.968262
vt -0.266846 0.979095
vt 2.166016 -0.717773
vt 1.261719 -1.134766
vt 1.261719 -1.134766
vt 2.166016 -0.717773
vt -0.266846 1.968262
vt 2.166016 1.968262
vt -0.266846 1.968262
vt 2.166016 1.968262
vt -2.550781 -1.134766
vt -2.550781 0.979095
vt -2.550781 0.979095
vt -2.550781 -1.134766
vt -2.550781 0.979095
vt -0.266846 0.979095
vt -2.550781 0.979095
vt -0.266846 0.979095
vt -2.550781 -1.134766
vt -2.550781 0.979095
vt -0.266846 -1.134766
vt -0.266846 0.979095
vt 1.261719 -1.134766
vt 2.166016 -0.717773
vt 2.166016 1.968262
vt -0.266846 1.968262
vt 3.125000 -0.281250
vt 3.125000 1.968262
vt 3.125000 2.134766
vt 2.166016 2.134766
vt -2.550781 -1.134766
vt -0.266846 -1.134766
vt -2.550781 0.979095
vt -0.266846 0.979095
vt 1.261719 -1.134766
vt 2.166016 -0.717773
vt 2.166016 1.968262
vt -0.266846 1.968262
vt 3.125000 -0.281250
vt 3.125000 1.968262
vt 3.125000 2.134766
vt 2.166016 2.134766
vt 3.125000 2.134766
vt 3.125000 1.968262
vt 3.125000 2.134766
vt 3.125000 1.968262
vt 3.125000 -0.281250
vt 3.125000 -0.281250
vt -0.266846 -1.134766
vt -2.550781 -1.134766
vt -2.550781 -1.134766
vt -0.266846 -1.134766
vt 1.261719 -1.134766
vt 1.261719 -1.134766
vt1 0.951172 0.814209
vt1 0.941895 0.950684
vt1 0.941895 0.814209
vt1 0.951172 0.950684
vt1 0.936035 0.814209
vt1 0.936035 0.837891
vt1 0.926758 0.837891
vt1 0.926758 0.814209
vt1 0.956543 0.001953
vt1 0.956543 0.138672
vt1 0.947266 0.138672
vt1 0.947266 0.001953
vt1 0.966797 0.814209
vt1 0.966797 0.955048
vt1 0.957520 0.955048
vt1 0.957520 0.814209
vt1 0.956543 0.138672
vt1 0.956543 0.267578
vt1 0.947266 0.267578
vt1 0.947266 0.138672
vt1 0.972168 0.001953
vt1 0.962891 0.348633
vt1 0.962891 0.001953
vt1 0.972168 0.348633
vt1 0.982422 0.352539
vt1 0.982422 0.653564
vt1 0.973145 0.653564
vt1 0.973145 0.352539
vt1 0.997559 0.350098
vt1 0.988281 0.675293
vt1 0.988281 0.350098
vt1 0.997559 0.675293
vt1 0.939453 0.810181
vt1 0.638184 0.810181
vt1 0.939453 0.485352
vt1 0.638184 0.485352
vt1 0.939453 0.267578
vt1 0.879883 0.138672
vt1 0.497559 0.138672
vt1 0.497559 0.485352
vt1 0.817871 0.001953
vt1 0.497559 0.001953
vt1 0.473633 0.001953
vt1 0.473633 0.138672
vt1 0.467529 0.001953
vt1 0.467529 0.327148
vt1 0.166504 0.001953
vt1 0.166504 0.327148
vt1 0.467529 0.544922
vt1 0.408203 0.673828
vt1 0.025711 0.673828
vt1 0.025711 0.327148
vt1 0.345947 0.810181
vt1 0.025711 0.810181
vt1 0.001991 0.810181
vt1 0.001991 0.673828
vt1 0.978516 0.346191
vt1 0.987793 0.322266
vt1 0.987793 0.346191
vt1 0.978516 0.322266
vt1 0.987793 0.001953
vt1 0.978516 0.001953
vt1 0.956543 0.485352
vt1 0.956543 0.810181
vt1 0.947266 0.810181
vt1 0.947266 0.485352
vt1 0.956543 0.267578
vt1 0.947266 0.267578
vn -1.000000 0.000000 0.000000
vn -1.000000 0.000000 0.000000
vn -1.000000 0.000000 0.000000
vn -1.000000 0.000000 0.000000
vn 0.000000 -0.000000 -1.000000
vn 0.000000 -0.000000 -1.000000
vn 0.000000 -0.000000 -1.000000
vn 0.000000 -0.000000 -1.000000
vn 0.913386 0.000000 0.417323
vn 0.913386 0.000000 0.417323
vn 0.913386 0.000000 0.417323
vn 0.913386 0.000000 0.417323
vn 0.000000 -0.000000 -1.000000
vn 0.000000 -0.000000 -1.000000
vn 0.000000 -0.000000 -1.000000
vn 0.000000 -0.000000 -1.000000
vn 0.905512 0.000000 0.417323
vn 0.905512 0.000000 0.417323
vn 0.905512 0.000000 0.417323
vn 0.905512 0.000000 0.417323
vn -1.000000 0.000000 0.000000
vn -1.000000 0.000000 0.000000
vn -1.000000 0.000000 0.000000
vn -1.000000 0.000000 0.000000
vn 0.000000 -0.000000 -1.000000
vn 0.000000 -0.000000 -1.000000
vn 0.000000 -0.000000 -1.000000
vn 0.000000 -0.000000 -1.000000
vn -1.000000 0.000000 0.000000
vn -1.000000 0.000000 0.000000
vn -1.000000 0.000000 0.000000
vn -1.000000 0.000000 0.000000
vn 0.000000 -1.000000 0.000000
vn 0.000000 -1.000000 0.000000
vn 0.000000 -1.000000 0.000000
vn 0.000000 -1.000000 0.000000
vn 0.000000 -1.000000 0.000000
vn 0.000000 -1.000000 0.000000
vn 0.000000 -1.000000 0.000000
vn 0.000000 -1.000000 0.000000
vn 0.000000 -1.000000 0.000000
vn 0.000000 -1.000000 0.000000
vn 0.000000 -1.000000 0.000000
vn 0.000000 -1.000000 0.000000
vn 0.000000 1.000000 -0.000000
vn 0.000000 1.000000 -0.000000
vn 0.000000 1.000000 -0.000000
vn 0.000000 1.000000 -0.000000
vn 0.000000 1.000000 -0.000000
vn 0.000000 1.000000 -0.000000
vn 0.000000 1.000000 -0.000000
vn 0.000000 1.000000 -0.000000
vn 0.000000 1.000000 -0.000000
vn 0.000000 1.000000 -0.000000
vn 0.000000 1.000000 -0.000000
vn 0.000000 1.000000 -0.000000
vn 0.000000 0.000000 1.000000
vn 0.000000 0.000000 1.000000
vn 0.000000 0.000000 1.000000
vn 0.000000 0.000000 1.000000
vn 0.000000 0.000000 1.000000
vn 0.000000 0.000000 1.000000
vn 1.000000 0.000000 0.000000
vn 1.000000 0.000000 0.000000
vn 1.000000 0.000000 0.000000
vn 1.000000 0.000000 0.000000
vn 1.000000 0.000000 0.000000
vn 1.000000 0.000000 0.000000
tan 0.000000 0.000000 0.000000 1.000000
tan 0.000000 0.000000 0.000000 1.000000
tan 0.000000 0.000000 0.000000 1.000000
tan 0.000000 0.000000 0.000000 1.000000
tan 0.000000 -1.000000 0.000000 1.000000
tan 0.000000 -1.000000 0.000000 1.000000
tan 0.000000 -1.000000 0.000000 1.000000
tan 0.000000 -1.000000 0.000000 1.000000
tan 0.000000 0.417323 -0.000000 1.000000
tan 0.000000 0.417323 -0.000000 1.000000
tan 0.000000 0.417323 -0.000000 1.000000
tan 0.000000 0.417323 -0.000000 1.000000
tan 0.000000 -1.000000 0.000000 1.000000
tan 0.000000 -1.000000 0.000000 1.000000
tan 0.000000 -1.000000 0.000000 1.000000
tan 0.000000 -1.000000 0.000000 1.000000
tan 0.000000 0.417323 -0.000000 1.000000
tan 0.000000 0.417323 -0.000000 1.000000
tan 0.000000 0.417323 -0.000000 1.000000
tan 0.000000 0.417323 -0.000000 1.000000
tan 0.000000 0.000000 0.000000 1.000000
tan 0.000000 0.000000 0.000000 1.000000
tan 0.000000 0.000000 0.000000 1.000000
tan 0.000000 0.000000 0.000000 1.000000
tan 0.000000 -1.000000 0.000000 1.000000
tan 0.000000 -1.000000 0.000000 1.000000
tan 0.000000 -1.000000 0.000000 1.000000
tan 0.000000 -1.000000 0.000000 1.000000
tan 0.000000 0.000000 0.000000 1.000000
tan 0.000000 0.000000 0.000000 1.000000
tan 0.000000 0.000000 0.000000 1.000000
tan 0.000000 0.000000 0.000000 1.000000
tan 1.000000 0.000000 0.000000 1.000000
tan 1.000000 0.000000 0.000000 1.000000
tan 1.000000 0.000000 0.000000 1.000000
tan 1.000000 0.000000 0.000000 1.000000
tan 1.000000 0.000000 0.000000 1.000000
tan 1.000000 0.000000 0.000000 1.000000
tan 1.000000 0.000000 0.000000 1.000000
tan 1.000000 0.000000 0.000000 1.000000
tan 1.000000 0.000000 0.000000 1.000000
tan 1.000000 0.000000 0.000000 1.000000
tan 1.000000 0.000000 0.000000 1.000000
tan 1.000000 0.000000 0.000000 1.000000
tan 1.000000 0.000000 0.000000 1.000000
tan 1.000000 0.000000 0.000000 1.000000
tan 1.000000 0.000000 0.000000 1.000000
tan 1.000000 0.000000 0.000000 1.000000
tan 1.000000 0.000000 0.000000 1.000000
tan 1.000000 0.000000 0.000000 1.000000
tan 1.000000 0.000000 0.000000 1.000000
tan 1.000000 0.000000 0.000000 1.000000
tan 1.000000 0.000000 0.000000 1.000000
tan 1.000000 0.000000 0.000000 1.000000
tan 1.000000 0.000000 0.000000 1.000000
tan 1.000000 0.000000 0.000000 1.000000
tan 0.000000 1.000000 -0.000000 1.000000
tan 0.000000 1.000000 -0.000000 1.000000
tan 0.000000 1.000000 -0.000000 1.000000
tan 0.000000 1.000000 -0.000000 1.000000
tan 0.000000 1.000000 -0.000000 1.000000
tan 0.000000 1.000000 -0.000000 1.000000
tan 0.000000 0.000000 0.000000 1.000000
tan 0.000000 0.000000 0.000000 1.000000
tan 0.000000 0.000000 0.000000 1.000000
tan 0.000000 0.000000 0.000000 1.000000
tan 0.000000 0.000000 0.000000 1.000000
tan 0.000000 0.000000 0.000000 1.000000
f 3/3/3 2/2/2 1/1/1
f 4/4/4 1/1/1 2/2/2
f 7/7/7 6/6/6 5/5/5
f 8/8/8 7/7/7 5/5/5
f 11/11/11 10/10/10 9/9/9
f 9/9/9 12/12/12 11/11/11
f 15/15/15 14/14/14 13/13/13
f 16/16/16 15/15/15 13/13/13
f 19/19/19 18/18/18 17/17/17
f 17/17/17 20/20/20 19/19/19
f 23/23/23 22/22/22 21/21/21
f 24/24/24 21/21/21 22/22/22
f 27/27/27 26/26/26 25/25/25
f 28/28/28 27/27/27 25/25/25
f 31/31/31 30/30/30 29/29/29
f 32/32/32 29/29/29 30/30/30
f 35/35/35 34/34/34 33/33/33
f 35/35/35 36/36/36 34/34/34
f 36/36/36 35/35/35 37/37/37
f 37/37/37 38/38/38 36/36/36
f 39/39/39 36/36/36 38/38/38
f 40/40/40 36/36/36 39/39/39
f 41/41/41 39/39/39 38/38/38
f 39/39/39 41/41/41 42/42/42
f 42/42/42 43/43/43 39/39/39
f 44/44/44 39/39/39 43/43/43
f 47/47/47 46/46/46 45/45/45
f 48/48/48 46/46/46 47/47/47
f 46/46/46 48/48/48 49/49/49
f 49/49/49 48/48/48 50/50/50
f 50/50/50 48/48/48 51/51/51
f 52/52/52 51/51/51 48/48/48
f 53/53/53 50/50/50 51/51/51
f 54/54/54 53/53/53 51/51/51
f 55/55/55 54/54/54 51/51/51
f 51/51/51 56/56/56 55/55/55
f 59/59/59 58/58/58 57/57/57
f 60/60/60 57/57/57 58/58/58
f 60/60/60 58/58/58 61/61/61
f 62/62/62 60/60/60 61/61/61
f 65/65/65 64/64/64 63/63/63
f 63/63/63 66/66/66 65/65/65
f 66/66/66 63/63/63 67/67/67
f 67/67/67 68/68/68 66/66/66
