mtllib SM_Carpet_01_LOD1.mtl
g SM_Carpet_01_LOD1
#Vertices 140
#Indices 210
#Section 0 Offset 0 NumIndices 210 MaterialIndex 0 MI_Carpet_Inst
v 1.114918 0.020614 -0.000182
v 1.050228 0.027401 0.338721
v 1.097217 0.027392 0.000000
v 1.050228 0.027401 0.338721
v 1.114918 0.020614 -0.000182
v 1.068525 0.009537 0.346900
v 0.644929 0.027392 0.887668
v 0.891375 0.027388 0.650306
v 0.653079 0.023723 0.898886
v 0.660364 0.009462 0.909052
v 0.344435 0.021056 1.060447
v 0.653079 0.023723 0.898886
v 0.000000 0.023723 1.111083
v 0.344435 0.021056 1.060447
v 0.000068 0.009315 1.123059
v 0.000068 0.009315 1.123059
v -0.347412 0.020790 1.060071
v 0.000000 0.023723 1.111083
v -1.056703 0.023723 0.343344
v -0.900927 0.020231 0.657834
v -1.068150 0.009124 0.347123
v -1.115564 0.019997 -0.001397
v -1.056703 0.023723 0.343344
v -1.068150 0.009124 0.347123
v -1.115564 0.019997 -0.001397
v -1.050636 0.026464 -0.349622
v -1.097296 0.027392 0.000001
v -1.050636 0.026464 -0.349622
v -1.115564 0.019997 -0.001397
v -1.068623 0.009560 -0.347313
v -0.644929 0.027392 -0.887668
v -0.900554 0.027044 -0.644127
v -0.655140 0.020759 -0.902452
v -0.908455 0.009203 -0.660714
v -0.655140 0.020759 -0.902452
v -0.900554 0.027044 -0.644127
v 0.000000 0.023723 -1.111083
v -0.347439 0.020350 -1.060348
v 0.000068 0.009315 -1.123059
v 0.344473 0.021045 -1.060434
v 0.000000 0.023723 -1.111083
v 0.000068 0.009315 -1.123059
v 0.653079 0.023723 -0.898885
v 0.344473 0.021045 -1.060434
v 0.660111 0.009280 -0.908880
v 0.660111 0.009280 -0.908880
v 0.902295 0.020707 -0.655273
v 0.653079 0.023723 -0.898885
v 1.056703 0.023723 -0.343343
v 0.902295 0.020707 -0.655273
v 1.068250 0.009244 -0.347400
v 1.068250 0.009244 -0.347400
v 1.114918 0.020614 -0.000182
v 1.056703 0.023723 -0.343343
v 0.660364 0.009462 0.909052
v 0.891375 0.027388 0.650306
v 0.909191 0.010057 0.660547
v 0.653079 0.023723 0.898886
v 0.653079 0.023723 0.898886
v 0.344435 0.021056 1.060447
v 0.644929 0.027392 0.887668
v 0.339059 0.027392 1.043516
v 0.344435 0.021056 1.060447
v 0.000000 0.027392 1.097218
v 0.339059 0.027392 1.043516
v 0.000000 0.023723 1.111083
v 0.000000 0.023723 1.111083
v -0.347412 0.020790 1.060071
v 0.000000 0.027392 1.097218
v -0.339059 0.027392 1.043516
v -0.347412 0.020790 1.060071
v -0.644929 0.027392 0.887668
v -0.339059 0.027392 1.043516
v -0.654955 0.020970 0.902498
v -0.654955 0.020970 0.902498
v -0.887668 0.027392 0.644928
v -0.644929 0.027392 0.887668
v -0.900927 0.020231 0.657834
v -1.043516 0.027392 0.339059
v -0.887668 0.027392 0.644928
v -1.056703 0.023723 0.343344
v -0.900927 0.020231 0.657834
v -1.097296 0.027392 0.000001
v -1.043516 0.027392 0.339059
v -1.115564 0.019997 -0.001397
v -1.056703 0.023723 0.343344
v -1.068623 0.009560 -0.347313
v -0.900554 0.027044 -0.644127
v -1.050636 0.026464 -0.349622
v -0.908455 0.009203 -0.660714
v -0.655140 0.020759 -0.902452
v -0.339059 0.027392 -1.043516
v -0.644929 0.027392 -0.887668
v -0.347439 0.020350 -1.060348
v -0.347439 0.020350 -1.060348
v 0.000000 0.027392 -1.097218
v -0.339059 0.027392 -1.043516
v 0.000000 0.023723 -1.111083
v 0.344473 0.021045 -1.060434
v 0.000000 0.027392 -1.097218
v 0.000000 0.023723 -1.111083
v 0.339059 0.027392 -1.043516
v 0.644928 0.027392 -0.887668
v 0.344473 0.021045 -1.060434
v 0.653079 0.023723 -0.898885
v 0.339059 0.027392 -1.043516
v 0.653079 0.023723 -0.898885
v 0.887668 0.027392 -0.644928
v 0.644928 0.027392 -0.887668
v 0.902295 0.020707 -0.655273
v 0.902295 0.020707 -0.655273
v 1.043516 0.027392 -0.339059
v 0.887668 0.027392 -0.644928
v 1.056703 0.023723 -0.343343
v 1.056703 0.023723 -0.343343
v 1.097217 0.027392 0.000000
v 1.043516 0.027392 -0.339059
v 1.114918 0.020614 -0.000182
v 0.909191 0.010057 0.660547
v 1.050228 0.027401 0.338721
v 1.068525 0.009537 0.346900
v 0.891375 0.027388 0.650306
v -1.097296 0.027392 0.000001
v 1.097217 0.027392 0.000000
v 0.644929 0.027392 0.887668
v 1.043516 0.027392 -0.339059
v 0.339059 0.027392 1.043516
v 0.887668 0.027392 -0.644928
v 0.000000 0.027392 1.097218
v 0.644928 0.027392 -0.887668
v -0.339059 0.027392 1.043516
v 0.339059 0.027392 -1.043516
v -0.644929 0.027392 0.887668
v 0.000000 0.027392 -1.097218
v -0.887668 0.027392 0.644928
v -1.043516 0.027392 0.339059
v -0.339059 0.027392 -1.043516
v -0.644929 0.027392 -0.887668
v -0.900554 0.027044 -0.644127
v -1.050636 0.026464 -0.349622
vt 0.331787 0.431152
vt 0.264160 0.450684
vt 0.330078 0.427734
vt 0.264404 0.450684
vt 0.331787 0.431152
vt 0.264648 0.456055
vt 0.127563 0.427734
vt 0.193359 0.450684
vt 0.126221 0.430176
vt 0.124451 0.433594
vt 0.068420 0.389648
vt 0.126221 0.430176
vt 0.027557 0.331543
vt 0.068481 0.389648
vt 0.024200 0.333496
vt 0.024170 0.333496
vt 0.004536 0.264160
vt 0.027557 0.331543
vt 0.069092 0.069336
vt 0.026230 0.126465
vt 0.066284 0.066895
vt 0.125977 0.026855
vt 0.069092 0.069336
vt 0.066345 0.066895
vt 0.125977 0.026855
vt 0.195190 0.006836
vt 0.127563 0.030273
vt 0.195190 0.006836
vt 0.125854 0.026855
vt 0.192749 0.002441
vt 0.329834 0.030273
vt 0.262207 0.006836
vt 0.331787 0.026855
vt 0.264893 0.002441
vt 0.331787 0.026855
vt 0.262207 0.006836
vt 0.429932 0.126465
vt 0.388916 0.067871
vt 0.433350 0.125000
vt 0.452881 0.193848
vt 0.429932 0.126465
vt 0.433350 0.125000
vt 0.451904 0.264648
vt 0.452637 0.193848
vt 0.455566 0.265137
vt 0.455566 0.265137
vt 0.430908 0.332031
vt 0.451904 0.264648
vt 0.388428 0.388672
vt 0.430908 0.332031
vt 0.391357 0.391602
vt 0.391113 0.391602
vt 0.331787 0.431152
vt 0.388428 0.388672
vt 0.124573 0.434082
vt 0.193237 0.450684
vt 0.192871 0.456055
vt 0.126221 0.430176
vt 0.126221 0.430176
vt 0.068420 0.389648
vt 0.127563 0.427734
vt 0.071167 0.386719
vt 0.068420 0.389648
vt 0.030167 0.330566
vt 0.071167 0.386719
vt 0.027557 0.331543
vt 0.027557 0.331543
vt 0.004620 0.264160
vt 0.030167 0.330566
vt 0.008598 0.264160
vt 0.004608 0.264160
vt 0.008598 0.194336
vt 0.008598 0.264160
vt 0.004776 0.193848
vt 0.004780 0.193848
vt 0.030151 0.127930
vt 0.008598 0.194336
vt 0.026352 0.126465
vt 0.071106 0.071289
vt 0.030151 0.127930
vt 0.069092 0.069336
vt 0.026367 0.126465
vt 0.127563 0.030273
vt 0.071106 0.071289
vt 0.125977 0.026855
vt 0.069092 0.069336
vt 0.192871 0.002441
vt 0.262207 0.006836
vt 0.195190 0.006836
vt 0.264648 0.002441
vt 0.331787 0.026855
vt 0.386475 0.071289
vt 0.329834 0.030273
vt 0.388916 0.068359
vt 0.388916 0.068359
vt 0.427490 0.127930
vt 0.386475 0.071289
vt 0.429932 0.126465
vt 0.452637 0.193848
vt 0.427490 0.127930
vt 0.429932 0.126465
vt 0.448975 0.194336
vt 0.448975 0.264160
vt 0.452637 0.193848
vt 0.451904 0.264648
vt 0.448975 0.194336
vt 0.451904 0.264648
vt 0.427490 0.330566
vt 0.448975 0.264160
vt 0.430908 0.332031
vt 0.430908 0.332031
vt 0.386475 0.386719
vt 0.427490 0.330566
vt 0.388428 0.388672
vt 0.388428 0.388672
vt 0.330078 0.427734
vt 0.386475 0.386719
vt 0.331787 0.431152
vt 0.192871 0.456055
vt 0.264404 0.450684
vt 0.264648 0.456055
vt 0.193237 0.450684
vt 0.127563 0.030273
vt 0.330078 0.427734
vt 0.127563 0.427734
vt 0.386475 0.386719
vt 0.071167 0.386719
vt 0.427490 0.330566
vt 0.030167 0.330566
vt 0.448975 0.264160
vt 0.008598 0.264160
vt 0.448975 0.194336
vt 0.008598 0.194336
vt 0.427490 0.127930
vt 0.030151 0.127930
vt 0.071106 0.071289
vt 0.386475 0.071289
vt 0.329834 0.030273
vt 0.262207 0.006836
vt 0.195190 0.006836
vt1 0.721191 0.934448
vt1 0.576172 0.975906
vt1 0.717285 0.927124
vt1 0.576172 0.975998
vt1 0.721680 0.934570
vt1 0.577148 0.987610
vt1 0.282227 0.927124
vt1 0.423584 0.975876
vt1 0.279541 0.932739
vt1 0.275635 0.940002
vt1 0.155151 0.844849
vt1 0.279541 0.932739
vt1 0.067322 0.720703
vt1 0.155273 0.844971
vt1 0.060089 0.724365
vt1 0.060028 0.724365
vt1 0.017807 0.575195
vt1 0.067322 0.720703
vt1 0.156494 0.156738
vt1 0.064453 0.279785
vt1 0.150635 0.151367
vt1 0.278809 0.064941
vt1 0.156494 0.156738
vt1 0.150757 0.150879
vt1 0.278809 0.065430
vt1 0.427490 0.021973
vt1 0.282227 0.073242
vt1 0.427490 0.021973
vt1 0.278564 0.064941
vt1 0.422607 0.012695
vt1 0.717285 0.073242
vt1 0.571777 0.021973
vt1 0.721191 0.065918
vt1 0.577148 0.012695
vt1 0.721680 0.065918
vt1 0.571777 0.021973
vt1 0.932617 0.279785
vt1 0.843750 0.154297
vt1 0.939453 0.275879
vt1 0.981445 0.423828
vt1 0.932617 0.279785
vt1 0.939941 0.276367
vt1 0.979492 0.576172
vt1 0.981445 0.423828
vt1 0.987793 0.577148
vt1 0.987305 0.577393
vt1 0.934082 0.721680
vt1 0.979492 0.576172
vt1 0.843262 0.843384
vt1 0.934082 0.721680
vt1 0.849121 0.848999
vt1 0.849121 0.849243
vt1 0.721191 0.934631
vt1 0.843262 0.843384
vt1 0.275879 0.940094
vt1 0.423584 0.975998
vt1 0.422607 0.987633
vt1 0.279541 0.932739
vt1 0.279541 0.932739
vt1 0.155151 0.844849
vt1 0.282227 0.927124
vt1 0.161011 0.838989
vt1 0.155151 0.844727
vt1 0.072876 0.717773
vt1 0.161011 0.838989
vt1 0.067322 0.720703
vt1 0.067322 0.720703
vt1 0.017990 0.575195
vt1 0.072876 0.717773
vt1 0.026550 0.575195
vt1 0.017960 0.575195
vt1 0.026550 0.425293
vt1 0.026550 0.575195
vt1 0.018326 0.424316
vt1 0.018341 0.424316
vt1 0.072876 0.282715
vt1 0.026550 0.425293
vt1 0.064697 0.279785
vt1 0.161011 0.161133
vt1 0.072876 0.282715
vt1 0.156494 0.156738
vt1 0.064758 0.279785
vt1 0.282227 0.073242
vt1 0.161011 0.161133
vt1 0.278809 0.065430
vt1 0.156494 0.156738
vt1 0.422607 0.012207
vt1 0.571777 0.022461
vt1 0.427490 0.022461
vt1 0.577148 0.012207
vt1 0.721191 0.065918
vt1 0.838867 0.161133
vt1 0.717285 0.073242
vt1 0.843750 0.154297
vt1 0.843750 0.154297
vt1 0.926758 0.282715
vt1 0.838867 0.161133
vt1 0.932617 0.279785
vt1 0.981445 0.423828
vt1 0.926758 0.282715
vt1 0.932617 0.279785
vt1 0.973145 0.425293
vt1 0.973145 0.575195
vt1 0.981445 0.423828
vt1 0.979492 0.576172
vt1 0.973145 0.425293
vt1 0.979492 0.576172
vt1 0.926758 0.717773
vt1 0.973145 0.575195
vt1 0.934082 0.721436
vt1 0.934082 0.721680
vt1 0.838867 0.838989
vt1 0.926758 0.717773
vt1 0.843262 0.843384
vt1 0.843262 0.843384
vt1 0.717285 0.927124
vt1 0.838867 0.838989
vt1 0.721191 0.934387
vt1 0.422852 0.987679
vt1 0.576172 0.975983
vt1 0.577148 0.987640
vt1 0.423584 0.975967
vt1 0.282227 0.073242
vt1 0.717285 0.927124
vt1 0.282227 0.927124
vt1 0.838867 0.838989
vt1 0.161011 0.838989
vt1 0.926758 0.717773
vt1 0.072876 0.717773
vt1 0.973145 0.575195
vt1 0.026550 0.575195
vt1 0.973145 0.425293
vt1 0.026550 0.425293
vt1 0.926758 0.282715
vt1 0.072876 0.282715
vt1 0.161011 0.161133
vt1 0.838867 0.161133
vt1 0.717285 0.073242
vt1 0.571777 0.021973
vt1 0.427490 0.021973
vn 0.637795 0.771653 -0.000000
vn 0.228346 0.968504 0.102362
vn 0.007874 1.000000 -0.000000
vn 0.330709 0.937008 0.133858
vn 0.708661 0.708661 -0.015748
vn 0.724409 0.653543 0.228346
vn 0.007874 1.000000 0.007874
vn 0.212598 0.968504 0.118110
vn 0.307087 0.858268 0.417323
vn 0.433071 0.653543 0.614173
vn 0.181102 0.818898 0.551181
vn 0.307087 0.858268 0.417323
vn 0.000000 0.858268 0.519685
vn 0.188976 0.842520 0.503937
vn 0.000000 0.362205 0.929134
vn 0.000000 0.362205 0.929134
vn -0.228346 0.748031 0.622047
vn 0.000000 0.858268 0.519685
vn -0.669291 0.708661 0.220472
vn -0.464567 0.811024 0.354331
vn -0.866142 0.417323 0.283464
vn -0.779528 0.629921 -0.007874
vn -0.669291 0.708661 0.220472
vn -0.866142 0.417323 0.283464
vn -0.346457 0.937008 -0.000000
vn -0.157480 0.984252 -0.031496
vn -0.007874 1.000000 -0.000000
vn -0.590551 0.779527 -0.204724
vn -0.779528 0.629921 0.007874
vn -0.866142 0.417323 -0.275591
vn -0.007874 1.000000 -0.007874
vn -0.133858 0.984252 -0.086614
vn -0.196850 0.944882 -0.267717
vn -0.566929 0.708661 -0.409449
vn -0.409449 0.708661 -0.566929
vn -0.574803 0.708661 -0.409449
vn 0.000000 0.858268 -0.519685
vn -0.251969 0.669291 -0.700787
vn 0.000000 0.362205 -0.929134
vn 0.188976 0.842520 -0.503937
vn 0.000000 0.858268 -0.519685
vn 0.000000 0.362205 -0.929134
vn 0.307087 0.858268 -0.417323
vn 0.181102 0.818897 -0.551181
vn 0.433071 0.653543 -0.614173
vn 0.440945 0.653543 -0.606299
vn 0.543307 0.748031 -0.385827
vn 0.307087 0.858268 -0.417323
vn 0.669291 0.708661 -0.220472
vn 0.590551 0.692913 -0.417323
vn 0.850394 0.456693 -0.275591
vn 0.866142 0.417323 -0.283465
vn 0.700787 0.716535 0.007874
vn 0.669291 0.708661 -0.220472
vn 0.448819 0.661417 0.606299
vn 0.338583 0.913386 0.228346
vn 0.606299 0.661417 0.440945
vn 0.307087 0.858268 0.417323
vn 0.307087 0.858268 0.417323
vn 0.220472 0.771653 0.598425
vn 0.007874 1.000000 0.007874
vn 0.000000 1.000000 0.007874
vn 0.173228 0.771653 0.614173
vn 0.000000 1.000000 0.007874
vn 0.000000 1.000000 0.007874
vn 0.000000 0.858268 0.519685
vn 0.000000 0.858268 0.519685
vn -0.173228 0.763779 0.614173
vn 0.000000 1.000000 0.007874
vn 0.000000 1.000000 0.007874
vn -0.236220 0.748031 0.622047
vn -0.007874 1.000000 0.007874
vn 0.000000 1.000000 0.007874
vn -0.377953 0.763779 0.519685
vn -0.393701 0.771653 0.503937
vn -0.007874 1.000000 0.007874
vn -0.007874 1.000000 0.007874
vn -0.535433 0.748031 0.393701
vn -0.007874 1.000000 -0.000000
vn -0.007874 1.000000 0.007874
vn -0.244094 0.968504 0.078740
vn -0.527559 0.763779 0.377953
vn -0.007874 1.000000 -0.000000
vn -0.007874 1.000000 -0.000000
vn -0.338583 0.944882 0.015748
vn -0.244094 0.968504 0.078740
vn -0.850394 0.440945 -0.275591
vn -0.543307 0.740157 -0.401575
vn -0.614173 0.763779 -0.204724
vn -0.574803 0.700787 -0.417323
vn -0.188976 0.944882 -0.275591
vn 0.000000 1.000000 -0.007874
vn -0.007874 1.000000 -0.007874
vn -0.110236 0.937008 -0.330709
vn -0.094488 0.929134 -0.370079
vn 0.000000 1.000000 -0.007874
vn 0.000000 1.000000 -0.007874
vn 0.000000 0.858268 -0.519685
vn 0.173228 0.771653 -0.614173
vn 0.000000 1.000000 -0.007874
vn 0.000000 0.858268 -0.519685
vn 0.000000 1.000000 -0.007874
vn 0.007874 1.000000 -0.007874
vn 0.220472 0.771653 -0.598425
vn 0.307087 0.858268 -0.417323
vn 0.000000 1.000000 -0.007874
vn 0.307087 0.858268 -0.417323
vn 0.007874 1.000000 -0.007874
vn 0.007874 1.000000 -0.007874
vn 0.267717 0.944882 -0.196850
vn 0.275591 0.944882 -0.181102
vn 0.007874 1.000000 -0.000000
vn 0.007874 1.000000 -0.007874
vn 0.244094 0.968504 -0.078740
vn 0.244094 0.968504 -0.078740
vn 0.007874 1.000000 -0.000000
vn 0.007874 1.000000 -0.000000
vn 0.637795 0.771653 -0.000000
vn 0.645669 0.622047 0.448819
vn 0.007874 1.000000 -0.000000
vn 0.748031 0.622047 0.244094
vn 0.007874 1.000000 0.007874
vn -0.007874 1.000000 -0.000000
vn 0.007874 1.000000 -0.000000
vn 0.007874 1.000000 0.007874
vn 0.007874 1.000000 -0.000000
vn 0.000000 1.000000 0.007874
vn 0.007874 1.000000 -0.007874
vn 0.000000 1.000000 0.007874
vn 0.007874 1.000000 -0.007874
vn 0.000000 1.000000 0.007874
vn 0.000000 1.000000 -0.007874
vn -0.007874 1.000000 0.007874
vn 0.000000 1.000000 -0.007874
vn -0.007874 1.000000 0.007874
vn -0.007874 1.000000 -0.000000
vn 0.000000 1.000000 -0.007874
vn -0.007874 1.000000 -0.007874
vn -0.015748 1.000000 -0.015748
vn -0.062992 1.000000 -0.015748
tan -0.765577 0.632773 -0.129456 1.000000
tan -0.884618 0.249674 -0.388927 1.000000
tan -0.897638 0.007068 -0.448819 1.000000
tan -0.856904 0.355819 -0.373675 1.000000
tan -0.704445 0.701593 -0.128340 1.000000
tan -0.634013 0.747473 -0.127968 1.000000
tan -0.889764 0.010664 -0.464567 1.000000
tan -0.884618 0.242544 -0.396553 1.000000
tan -0.732407 0.488065 -0.464815 1.000000
tan -0.586707 0.718271 -0.350611 1.000000
tan -0.516213 0.552545 -0.651311 1.000000
tan -0.755967 0.482175 -0.435365 1.000000
tan -0.710335 0.343729 -0.567673 1.000000
tan -0.581065 0.501953 -0.621303 1.000000
tan -0.736065 0.563333 -0.219604 1.000000
tan -0.787278 0.490173 -0.191084 1.000000
tan -0.619009 0.347449 -0.645049 1.000000
tan -0.734702 0.327361 -0.540641 1.000000
tan -0.727881 -0.578461 -0.350301 1.000000
tan -0.815364 -0.351417 -0.264678 1.000000
tan -0.504681 -0.709281 -0.497861 1.000000
tan -0.618823 -0.767685 -0.151342 1.000000
tan -0.732098 -0.597681 -0.301320 1.000000
tan -0.503255 -0.745614 -0.440015 1.000000
tan -0.870606 -0.321905 -0.339389 1.000000
tan -0.891252 -0.155992 -0.418501 1.000000
tan -0.897638 -0.007068 -0.448819 1.000000
tan -0.757890 -0.623349 -0.187302 1.000000
tan -0.625829 -0.773017 -0.115692 1.000000
tan -0.358671 -0.863352 -0.180110 1.000000
tan -0.889764 -0.010664 -0.464567 1.000000
tan -0.883502 -0.158348 -0.434001 1.000000
tan -0.818402 -0.303305 -0.468721 1.000000
tan -0.689813 -0.669849 -0.204228 1.000000
tan -0.550189 -0.689193 -0.464133 1.000000
tan -0.688945 -0.675305 -0.201624 1.000000
tan -0.710335 -0.343729 -0.567673 1.000000
tan -0.453097 -0.701345 -0.506913 1.000000
tan -0.736065 -0.563333 -0.219604 1.000000
tan -0.624775 -0.231633 -0.621551 1.000000
tan -0.734702 -0.327361 -0.540641 1.000000
tan -0.787278 -0.490173 -0.191084 1.000000
tan -0.798686 0.048422 -0.488127 1.000000
tan -0.628309 -0.276645 -0.617459 1.000000
tan -0.794656 0.002542 -0.557629 1.000000
tan -0.820820 0.079856 -0.510881 1.000000
tan -0.791680 0.426499 -0.287929 1.000000
tan -0.825718 0.081096 -0.440821 1.000000
tan -0.727881 0.578461 -0.350301 1.000000
tan -0.774134 0.481059 -0.296733 1.000000
tan -0.533759 0.720999 -0.452229 1.000000
tan -0.503255 0.745613 -0.440015 1.000000
tan -0.710149 0.696075 -0.139562 1.000000
tan -0.732098 0.597681 -0.301321 1.000000
tan -0.541633 0.738545 -0.404737 1.000000
tan -0.839668 0.401823 -0.362267 1.000000
tan -0.659681 0.711761 -0.160580 1.000000
tan -0.732407 0.488065 -0.464815 1.000000
tan -0.749210 0.483043 -0.442123 1.000000
tan -0.502821 0.610825 -0.602393 1.000000
tan -0.881890 0.010664 -0.472441 1.000000
tan -0.881890 0.003658 -0.464567 1.000000
tan -0.496745 0.597681 -0.610825 1.000000
tan -0.881890 0.003658 -0.464567 1.000000
tan -0.881890 0.003720 -0.472441 1.000000
tan -0.727943 0.331453 -0.547399 1.000000
tan -0.734702 0.327361 -0.540641 1.000000
tan -0.557319 0.366173 -0.612561 1.000000
tan -0.881890 0.003658 -0.464567 1.000000
tan -0.889764 0.003658 -0.464567 1.000000
tan -0.571145 0.312791 -0.593031 1.000000
tan -0.889764 -0.003410 -0.456693 1.000000
tan -0.889764 0.003596 -0.456693 1.000000
tan -0.713063 -0.048360 -0.447517 1.000000
tan -0.731849 -0.098952 -0.420237 1.000000
tan -0.897638 -0.003534 -0.448819 1.000000
tan -0.889764 -0.003472 -0.448819 1.000000
tan -0.761982 -0.408953 -0.259284 1.000000
tan -0.897638 -0.007068 -0.440945 1.000000
tan -0.897638 -0.003596 -0.440945 1.000000
tan -0.878232 -0.187550 -0.415649 1.000000
tan -0.772398 -0.408581 -0.252464 1.000000
tan -0.897638 -0.007068 -0.440945 1.000000
tan -0.897638 -0.007068 -0.440945 1.000000
tan -0.877922 -0.308761 -0.349681 1.000000
tan -0.878232 -0.188170 -0.408023 1.000000
tan -0.425755 -0.859074 -0.060760 1.000000
tan -0.694525 -0.655465 -0.268460 1.000000
tan -0.748527 -0.641577 -0.147994 1.000000
tan -0.658751 -0.690557 -0.252278 1.000000
tan -0.825842 -0.299709 -0.461281 1.000000
tan -0.881890 -0.003658 -0.464567 1.000000
tan -0.881890 -0.010664 -0.472441 1.000000
tan -0.789448 -0.272553 -0.509083 1.000000
tan -0.763779 -0.287185 -0.526009 1.000000
tan -0.881890 -0.003658 -0.464567 1.000000
tan -0.881890 -0.003720 -0.472441 1.000000
tan -0.727943 -0.331453 -0.547399 1.000000
tan -0.557381 -0.366173 -0.617273 1.000000
tan -0.881890 -0.003658 -0.464567 1.000000
tan -0.734702 -0.327361 -0.540641 1.000000
tan -0.889764 -0.003658 -0.464567 1.000000
tan -0.889764 0.003410 -0.456693 1.000000
tan -0.596565 -0.290657 -0.594581 1.000000
tan -0.825718 0.081096 -0.440821 1.000000
tan -0.889764 -0.003596 -0.456693 1.000000
tan -0.825718 0.084382 -0.434063 1.000000
tan -0.897638 0.003534 -0.448819 1.000000
tan -0.889764 0.003472 -0.448819 1.000000
tan -0.855602 0.160270 -0.394321 1.000000
tan -0.863042 0.177568 -0.386881 1.000000
tan -0.897638 0.007068 -0.440945 1.000000
tan -0.897638 0.003596 -0.440945 1.000000
tan -0.878232 0.187550 -0.415649 1.000000
tan -0.878232 0.188170 -0.408023 1.000000
tan -0.897638 0.007068 -0.440945 1.000000
tan -0.897638 0.007068 -0.440945 1.000000
tan -0.759502 0.627751 -0.146630 1.000000
tan -0.605431 0.751441 -0.170500 1.000000
tan -0.889764 0.007006 -0.456693 1.000000
tan -0.609461 0.765205 -0.082336 1.000000
tan -0.889764 0.010602 -0.456693 1.000000
tan -0.889764 -0.007006 -0.456693 1.000000
tan -0.889764 0.007006 -0.456693 1.000000
tan -0.889764 0.010602 -0.456693 1.000000
tan -0.889764 0.007006 -0.456693 1.000000
tan -0.889764 0.003596 -0.456693 1.000000
tan -0.889764 0.003410 -0.456693 1.000000
tan -0.889764 0.003596 -0.456693 1.000000
tan -0.889764 0.003410 -0.456693 1.000000
tan -0.889764 0.003596 -0.456693 1.000000
tan -0.889764 -0.003596 -0.456693 1.000000
tan -0.889764 -0.003410 -0.456693 1.000000
tan -0.889764 -0.003596 -0.456693 1.000000
tan -0.889764 -0.003410 -0.456693 1.000000
tan -0.889764 -0.007006 -0.456693 1.000000
tan -0.889764 -0.003596 -0.456693 1.000000
tan -0.889764 -0.010602 -0.456693 1.000000
tan -0.889764 -0.021204 -0.456693 1.000000
tan -0.897638 -0.063612 -0.448819 1.000000
f 3/3/3 2/2/2 1/1/1
f 6/6/6 5/5/5 4/4/4
f 9/9/9 8/8/8 7/7/7
f 12/12/12 11/11/11 10/10/10
f 15/15/15 14/14/14 13/13/13
f 18/18/18 17/17/17 16/16/16
f 21/21/21 20/20/20 19/19/19
f 24/24/24 23/23/23 22/22/22
f 27/27/27 26/26/26 25/25/25
f 30/30/30 29/29/29 28/28/28
f 33/33/33 32/32/32 31/31/31
f 36/36/36 35/35/35 34/34/34
f 39/39/39 38/38/38 37/37/37
f 42/42/42 41/41/41 40/40/40
f 45/45/45 44/44/44 43/43/43
f 48/48/48 47/47/47 46/46/46
f 51/51/51 50/50/50 49/49/49
f 54/54/54 53/53/53 52/52/52
f 57/57/57 56/56/56 55/55/55
f 55/55/55 56/56/56 58/58/58
f 61/61/61 60/60/60 59/59/59
f 60/60/60 61/61/61 62/62/62
f 65/65/65 64/64/64 63/63/63
f 66/66/66 63/63/63 64/64/64
f 69/69/69 68/68/68 67/67/67
f 70/70/70 68/68/68 69/69/69
f 73/73/73 72/72/72 71/71/71
f 74/74/74 71/71/71 72/72/72
f 77/77/77 76/76/76 75/75/75
f 78/78/78 75/75/75 76/76/76
f 81/81/81 80/80/80 79/79/79
f 82/82/82 80/80/80 81/81/81
f 85/85/85 84/84/84 83/83/83
f 86/86/86 84/84/84 85/85/85
f 89/89/89 88/88/88 87/87/87
f 90/90/90 87/87/87 88/88/88
f 93/93/93 92/92/92 91/91/91
f 94/94/94 91/91/91 92/92/92
f 97/97/97 96/96/96 95/95/95
f 98/98/98 95/95/95 96/96/96
f 101/101/101 100/100/100 99/99/99
f 99/99/99 100/100/100 102/102/102
f 105/105/105 104/104/104 103/103/103
f 106/106/106 103/103/103 104/104/104
f 109/109/109 108/108/108 107/107/107
f 110/110/110 107/107/107 108/108/108
f 113/113/113 112/112/112 111/111/111
f 114/114/114 111/111/111 112/112/112
f 117/117/117 116/116/116 115/115/115
f 118/118/118 115/115/115 116/116/116
f 121/121/121 120/120/120 119/119/119
f 122/122/122 119/119/119 120/120/120
f 123/123/123 122/122/122 120/120/120
f 123/123/123 120/120/120 124/124/124
f 123/123/123 125/125/125 122/122/122
f 123/123/123 124/124/124 126/126/126
f 123/123/123 127/127/127 125/125/125
f 123/123/123 126/126/126 128/128/128
f 123/123/123 129/129/129 127/127/127
f 123/123/123 128/128/128 130/130/130
f 123/123/123 131/131/131 129/129/129
f 123/123/123 130/130/130 132/132/132
f 123/123/123 133/133/133 131/131/131
f 123/123/123 132/132/132 134/134/134
f 123/123/123 135/135/135 133/133/133
f 123/123/123 136/136/136 135/135/135
f 123/123/123 134/134/134 137/137/137
f 123/123/123 137/137/137 138/138/138
f 123/123/123 138/138/138 139/139/139
f 123/123/123 139/139/139 140/140/140
