mtllib SM_Carpet_04_LOD5.mtl
g SM_Carpet_04_LOD5
#Vertices 7
#Indices 12
#Section 0 Offset 0 NumIndices 12 MaterialIndex 0 MI_Carpet_Inst
v 0.600249 0.006933 0.000026
v -0.597342 0.006599 -0.972834
v 0.595431 0.006570 -0.970783
v -0.600440 0.006929 0.000016
v 0.600249 0.006933 0.000026
v 0.603695 0.006578 0.973627
v -0.603377 0.006412 0.976560
vt 0.993652 0.740967
vt 0.751465 0.542725
vt 0.992676 0.542969
vt 0.748535 0.739746
vt 0.993652 0.740967
vt 0.991699 0.939453
vt 0.748047 0.937073
vt1 0.782715 0.500488
vt1 0.030533 0.004395
vt1 0.777832 0.004883
vt1 0.021835 0.497070
vt1 0.782715 0.500488
vt1 0.776367 0.997671
vt1 0.020599 0.991714
vn 0.000000 1.000000 -0.000000
vn 0.000000 1.000000 -0.000000
vn 0.000000 1.000000 -0.015748
vn 0.000000 1.000000 -0.000000
vn 0.000000 1.000000 -0.000000
vn 0.000000 1.000000 -0.000000
vn 0.000000 1.000000 -0.000000
tan 0.000000 -0.000000 -1.000000 1.000000
tan 0.000000 -0.000000 -1.000000 1.000000
tan 0.000000 -0.015748 -1.000000 1.000000
tan -0.007874 -0.000000 -1.000000 1.000000
tan -0.007874 -0.000000 -1.000000 1.000000
tan -0.015748 -0.000000 -1.000000 1.000000
tan -0.007874 -0.000000 -1.000000 1.000000
f 3/3/3 2/2/2 1/1/1
f 4/4/4 1/1/1 2/2/2
f 4/4/4 6/6/6 5/5/5
f 7/7/7 6/6/6 4/4/4
