mtllib SM_Cabinet_04_LOD5.mtl
g SM_Cabinet_04_LOD5
#Vertices 28
#Indices 48
#Section 0 Offset 0 NumIndices 48 MaterialIndex 0 MI_Cabinet_03
v 0.022363 1.010923 -0.134462
v -0.516196 1.010923 -0.134462
v -0.516196 0.237714 -0.134462
v 0.022363 0.237714 -0.134462
v 0.518304 1.010923 -0.134462
v 0.022019 1.010923 -0.134462
v 0.022019 0.237714 -0.134462
v 0.518304 0.237714 -0.134462
v 0.557588 1.010923 -0.086832
v 0.557588 0.237714 -0.086832
v 0.557588 1.010924 0.516196
v 0.557588 0.237714 0.516196
v -0.557588 1.010923 -0.086832
v -0.557588 0.237714 0.516196
v -0.557588 0.237714 -0.086832
v -0.557588 1.010924 0.516196
v -0.613297 0.002036 -0.093348
v -0.506220 1.003820 -0.067595
v -0.491659 0.001284 -0.071968
v -0.576042 1.003811 -0.204527
v -0.491659 0.001284 -0.071968
v -0.506220 1.003820 -0.067595
v -0.601107 1.073265 -0.292972
v 0.607782 1.112372 0.535775
v -0.614789 0.947390 0.520534
v 0.599460 0.988665 -0.291696
v -0.614789 0.947390 0.520534
v 0.607782 1.112372 0.535775
vt 0.583008 0.315430
vt 0.736816 0.315430
vt 0.736816 0.000488
vt 0.583008 0.000488
vt 0.583008 0.315430
vt 0.736816 0.315430
vt 0.736816 0.000488
vt 0.583008 0.000488
vt 0.538574 0.636230
vt 0.538574 0.321289
vt 0.768066 0.636230
vt 0.768066 0.321289
vt 0.768066 0.315430
vt 0.538574 0.000488
vt 0.768066 0.000488
vt 0.538574 0.315430
vt 0.819336 0.420898
vt 0.771973 0.828369
vt 0.773438 0.417969
vt 0.833496 0.828979
vt 0.877441 0.419434
vt 0.887207 0.828369
vt 0.253418 0.486328
vt 0.535645 -0.006836
vt 0.531738 0.491699
vt 0.276367 -0.002930
vt -0.000113 0.491699
vt -0.006069 -0.007812
vt1 0.482422 0.763916
vt1 0.287598 0.763916
vt1 0.287598 0.496582
vt1 0.482422 0.496582
vt1 0.482422 0.763916
vt1 0.287598 0.763916
vt1 0.287598 0.496582
vt1 0.482422 0.496582
vt1 0.061890 0.764526
vt1 0.061890 0.497559
vt1 0.256836 0.764526
vt1 0.256836 0.497559
vt1 0.482422 0.763916
vt1 0.287598 0.496582
vt1 0.482422 0.496582
vt1 0.287598 0.763916
vt1 0.874512 0.395508
vt1 0.834473 0.741455
vt1 0.834961 0.393555
vt1 0.886230 0.741699
vt1 0.923340 0.394531
vt1 0.932129 0.741455
vt1 0.474365 0.253906
vt1 0.055481 0.014160
vt1 0.479004 0.017578
vt1 0.059265 0.234375
vt1 0.479004 0.469238
vt1 0.054657 0.474121
vn 0.000000 -0.000000 -1.000000
vn 0.000000 -0.000000 -1.000000
vn 0.000000 -0.000000 -1.000000
vn 0.000000 -0.000000 -1.000000
vn 0.000000 -0.000000 -1.000000
vn 0.000000 -0.000000 -1.000000
vn 0.000000 -0.000000 -1.000000
vn 0.000000 -0.000000 -1.000000
vn 1.000000 0.000000 0.000000
vn 1.000000 0.000000 0.000000
vn 1.000000 0.000000 0.000000
vn 1.000000 0.000000 0.000000
vn -1.000000 0.000000 0.000000
vn -1.000000 0.000000 0.000000
vn -1.000000 0.000000 0.000000
vn -1.000000 0.000000 0.000000
vn -1.000000 -0.031496 0.055118
vn 0.291339 0.000000 0.952756
vn 0.551181 -0.031496 0.834646
vn -0.417323 -0.000000 -0.905512
vn 0.984252 -0.031496 0.157480
vn 0.976378 0.000000 0.212598
vn -0.007874 0.992126 -0.110236
vn 0.000000 1.000000 -0.000000
vn 0.000000 1.000000 -0.000000
vn 0.007874 -0.976378 -0.220472
vn 0.000000 -1.000000 0.000000
vn 0.000000 -1.000000 0.000000
tan 0.000000 -1.000000 0.000000 1.000000
tan 0.000000 -1.000000 0.000000 1.000000
tan 0.000000 -1.000000 0.000000 1.000000
tan 0.000000 -1.000000 0.000000 1.000000
tan 0.000000 -1.000000 0.000000 1.000000
tan 0.000000 -1.000000 0.000000 1.000000
tan 0.000000 -1.000000 0.000000 1.000000
tan 0.000000 -1.000000 0.000000 1.000000
tan 0.000000 -1.000000 0.000000 1.000000
tan 0.000000 -1.000000 0.000000 1.000000
tan 0.000000 -1.000000 0.000000 1.000000
tan 0.000000 -1.000000 0.000000 1.000000
tan 0.000000 -1.000000 0.000000 1.000000
tan 0.000000 -1.000000 0.000000 1.000000
tan 0.000000 -1.000000 0.000000 1.000000
tan 0.000000 -1.000000 0.000000 1.000000
tan 0.036456 -0.992126 0.094488 1.000000
tan 0.067518 -0.959638 -0.020646 1.000000
tan 0.397917 -0.775002 -0.292020 1.000000
tan 0.021390 -0.937814 -0.009858 1.000000
tan -0.053568 -0.977742 0.139252 1.000000
tan -0.003348 -0.976378 0.015376 1.000000
tan 0.992126 0.007874 -0.000000 1.000000
tan 1.000000 0.000000 0.000000 1.000000
tan 1.000000 0.000000 0.000000 1.000000
tan 0.976378 0.007874 -0.000000 1.000000
tan 1.000000 0.000000 0.000000 1.000000
tan 1.000000 0.000000 0.000000 1.000000
f 3/3/3 2/2/2 1/1/1
f 4/4/4 3/3/3 1/1/1
f 7/7/7 6/6/6 5/5/5
f 8/8/8 7/7/7 5/5/5
f 11/11/11 10/10/10 9/9/9
f 11/11/11 12/12/12 10/10/10
f 15/15/15 14/14/14 13/13/13
f 16/16/16 13/13/13 14/14/14
f 19/19/19 18/18/18 17/17/17
f 20/20/20 17/17/17 18/18/18
f 21/21/21 17/17/17 20/20/20
f 22/22/22 21/21/21 20/20/20
f 25/25/25 24/24/24 23/23/23
f 26/26/26 23/23/23 24/24/24
f 27/27/27 23/23/23 26/26/26
f 28/28/28 27/27/27 26/26/26
