mtllib SM_Carpet_04_LOD2.mtl
g SM_Carpet_04_LOD2
#Vertices 59
#Indices 99
#Section 0 Offset 0 NumIndices 99 MaterialIndex 0 MI_Carpet_Inst
v 0.609151 0.003416 -0.960319
v -0.604915 0.005140 -0.958625
v -0.615246 0.000855 -0.963324
v 0.605513 0.006030 -0.000000
v 0.609151 0.003416 -0.960319
v 0.618306 0.002658 -0.000090
v 0.618306 0.002658 -0.000090
v 0.605017 0.003405 0.956181
v 0.616033 0.005809 1.025322
v 0.605017 0.003405 0.956181
v 0.616033 0.005809 1.025322
v 0.590305 0.001148 0.992079
v -0.603844 0.003021 0.956010
v 0.605017 0.003405 0.956181
v -0.615269 0.000314 0.979488
v 0.616033 0.005809 1.025322
v -0.616645 0.006392 1.027375
v -0.603844 0.003021 0.956010
v -0.590305 0.006963 -0.000000
v -0.590305 0.006963 0.948221
v -0.605513 0.006030 -0.000000
v -0.590305 0.006962 -0.946301
v -0.590305 0.006963 -0.000000
v -0.604915 0.005140 -0.958625
v 0.590305 0.006963 0.948221
v 0.605513 0.006030 -0.000000
v 0.605017 0.003405 0.956181
v 0.590305 0.006963 -0.000000
v 0.609151 0.003416 -0.960319
v 0.605513 0.006030 -0.000000
v 0.590305 0.006962 -0.946301
v 0.590305 0.006963 0.948221
v -0.603844 0.003021 0.956010
v -0.590305 0.006963 0.948221
v 0.605017 0.003405 0.956181
v -0.605513 0.006030 -0.000000
v -0.615246 0.000855 -0.963324
v -0.604915 0.005140 -0.958625
v -0.618348 0.002643 -0.000011
v -0.605513 0.006030 -0.000000
v -0.603844 0.003021 0.956010
v -0.615269 0.000314 0.979488
v 0.590305 0.006963 -0.000000
v 0.590305 0.006963 0.948221
v -0.590305 0.006963 -0.000000
v -0.590305 0.006963 0.948221
v -0.590305 0.006962 -0.946301
v 0.590305 0.006963 -0.000000
v 0.590305 0.006962 -0.946301
v -0.604915 0.005140 -0.958625
v 0.609151 0.003416 -0.960319
v -0.590305 0.006962 -0.946301
v -0.615246 0.000855 -0.963324
v 0.601851 0.000925 -0.989680
v 0.609151 0.003416 -0.960319
v -0.611724 0.001060 -0.991250
v -0.611724 0.001060 -0.991250
v -0.616645 0.006392 -1.027375
v 0.616645 0.006392 -1.027375
vt 0.995117 0.544922
vt 0.749512 0.545654
vt 0.747559 0.544434
vt 0.995117 0.740967
vt 0.995117 0.544922
vt 0.997559 0.740967
vt 0.997559 0.740967
vt 0.992188 0.935974
vt 0.994141 0.950195
vt 0.004093 0.986298
vt 0.037842 0.991547
vt 0.021317 0.979523
vt 0.003313 0.428711
vt 0.003445 0.986313
vt 0.015251 0.423340
vt 0.036865 0.991402
vt 0.037720 0.422852
vt 0.748047 0.932983
vt 0.750488 0.739746
vt 0.750488 0.931396
vt 0.747559 0.739746
vt 0.752441 0.548096
vt 0.750488 0.739746
vt 0.749512 0.545654
vt 0.989258 0.934265
vt 0.995117 0.740967
vt 0.992188 0.935974
vt 0.991699 0.740967
vt 0.995117 0.544922
vt 0.995117 0.740967
vt 0.991211 0.547852
vt 0.989258 0.934265
vt 0.748047 0.933105
vt 0.750488 0.931396
vt 0.992188 0.936035
vt 0.747559 0.739746
vt 0.747559 0.544434
vt 0.749512 0.545654
vt 0.744629 0.739746
vt 0.747559 0.739746
vt 0.747559 0.932983
vt 0.745605 0.937805
vt 0.991699 0.740967
vt 0.989258 0.934265
vt 0.750488 0.739746
vt 0.750488 0.931396
vt 0.752441 0.548096
vt 0.991699 0.740967
vt 0.991211 0.547852
vt 0.749512 0.545654
vt 0.995117 0.544922
vt 0.752441 0.548096
vt 0.006096 0.423340
vt 0.020111 0.984901
vt 0.004547 0.988220
vt 0.020599 0.424805
vt 0.020660 0.424805
vt 0.037659 0.422852
vt 0.037811 0.991684
vt1 0.786621 0.009766
vt1 0.025696 0.011230
vt1 0.019135 0.008301
vt1 0.785645 0.500488
vt1 0.787109 0.009766
vt1 0.793945 0.500488
vt1 0.793945 0.500488
vt1 0.777344 0.988914
vt1 0.783691 1.024506
vt1 0.812500 0.982315
vt1 0.884766 0.991386
vt1 0.849121 0.970627
vt1 0.810547 0.019043
vt1 0.811035 0.982346
vt1 0.836426 0.009766
vt1 0.882324 0.991142
vt1 0.884277 0.008789
vt1 0.020126 0.981445
vt1 0.028244 0.497559
vt1 0.028763 0.977448
vt1 0.018631 0.497070
vt1 0.034882 0.017578
vt1 0.028244 0.497559
vt1 0.025742 0.011230
vt1 0.768066 0.984688
vt1 0.785645 0.500488
vt1 0.777344 0.988907
vt1 0.776367 0.500244
vt1 0.786621 0.010254
vt1 0.785645 0.500488
vt1 0.774902 0.017090
vt1 0.768066 0.984688
vt1 0.020218 0.981750
vt1 0.028763 0.977448
vt1 0.776855 0.989075
vt1 0.018631 0.497070
vt1 0.018753 0.008789
vt1 0.025513 0.011230
vt1 0.010277 0.497070
vt1 0.018631 0.497070
vt1 0.019745 0.981430
vt1 0.012840 0.993511
vt1 0.776367 0.500244
vt1 0.768066 0.984688
vt1 0.028244 0.497559
vt1 0.028763 0.977448
vt1 0.034882 0.017578
vt1 0.776367 0.500244
vt1 0.774902 0.017090
vt1 0.025711 0.011230
vt1 0.786621 0.009766
vt1 0.034882 0.017578
vt1 0.913574 0.009766
vt1 0.943359 0.979904
vt1 0.910156 0.985641
vt1 0.944336 0.012207
vt1 0.944336 0.012207
vt1 0.980957 0.008789
vt1 0.981445 0.991631
vn 0.000000 0.417323 -0.905512
vn 0.000000 0.417323 -0.905512
vn 0.000000 0.417323 -0.905512
vn 0.133858 0.992126 -0.000000
vn 0.472441 0.881890 -0.000000
vn 0.401575 0.913386 -0.000000
vn 0.433071 0.905512 -0.000000
vn 0.165354 0.984252 -0.000000
vn 0.716535 0.700787 -0.000000
vn 0.417323 0.425197 0.803149
vn 0.015748 0.826771 -0.559055
vn 0.000000 0.992126 -0.094488
vn 0.000000 0.330709 0.944882
vn 0.000000 0.338583 0.944882
vn 0.000000 1.000000 0.039370
vn 0.000000 0.992126 -0.141732
vn 0.000000 0.992126 -0.149606
vn -0.480315 0.874016 -0.000000
vn 0.000000 1.000000 -0.000000
vn 0.000000 1.000000 -0.000000
vn -0.133858 0.992126 -0.000000
vn 0.000000 1.000000 -0.000000
vn 0.000000 1.000000 -0.000000
vn -0.496063 0.866142 -0.000000
vn 0.000000 1.000000 -0.000000
vn 0.133858 0.992126 -0.000000
vn 0.149606 0.992126 -0.000000
vn 0.000000 1.000000 -0.000000
vn 0.188976 0.984252 -0.000000
vn 0.133858 0.992126 -0.000000
vn 0.000000 1.000000 -0.000000
vn 0.000000 1.000000 -0.000000
vn 0.000000 0.881890 0.464567
vn 0.000000 1.000000 -0.000000
vn 0.000000 0.889764 0.456693
vn -0.133858 0.992126 -0.000000
vn -0.700787 0.708661 -0.000000
vn -0.503937 0.866142 -0.000000
vn -0.401575 0.913386 -0.000000
vn -0.133858 0.992126 -0.000000
vn -0.488189 0.874016 -0.000000
vn -0.700787 0.716535 -0.000000
vn 0.000000 1.000000 -0.000000
vn 0.000000 1.000000 -0.000000
vn 0.000000 1.000000 -0.000000
vn 0.000000 1.000000 -0.000000
vn 0.000000 1.000000 -0.000000
vn 0.000000 1.000000 -0.000000
vn 0.000000 1.000000 -0.000000
vn 0.000000 0.740157 -0.669291
vn 0.000000 0.566929 -0.826772
vn 0.000000 1.000000 -0.000000
vn -0.007874 0.472441 -0.881890
vn 0.000000 1.000000 0.062992
vn 0.000000 0.393701 -0.921260
vn 0.000000 1.000000 0.062992
vn 0.000000 0.992126 0.094488
vn 0.000000 0.992126 0.149606
vn 0.000000 0.992126 0.149606
tan 0.000000 -0.905512 -0.417323 1.000000
tan 0.000000 -0.905512 -0.417323 1.000000
tan 0.000000 -0.905512 -0.417323 1.000000
tan -0.007812 0.001054 -0.992126 1.000000
tan 0.298593 -0.159960 -0.897514 1.000000
tan 0.021576 -0.009486 -0.919710 1.000000
tan -0.078430 0.037510 -0.919152 1.000000
tan -0.031000 0.005208 -0.984252 1.000000
tan -0.474549 0.485213 -0.737305 1.000000
tan -0.841838 0.265051 0.297105 1.000000
tan -0.950586 0.076632 0.086552 1.000000
tan -0.992126 0.000000 0.000000 1.000000
tan -0.944882 -0.007440 0.002604 1.000000
tan -0.944882 0.007440 -0.002666 1.000000
tan -1.000000 -0.000310 0.007874 1.000000
tan -0.992126 0.000000 0.000000 1.000000
tan -0.992126 0.000000 0.000000 1.000000
tan 0.006882 0.003782 -0.900490 1.000000
tan 0.000000 -0.000000 -1.000000 1.000000
tan 0.007874 -0.000000 -1.000000 1.000000
tan -0.007812 -0.001054 -0.992126 1.000000
tan -0.015748 -0.000000 -1.000000 1.000000
tan -0.007874 -0.000000 -1.000000 1.000000
tan -0.020460 -0.011718 -0.897390 1.000000
tan -0.015748 -0.000000 -1.000000 1.000000
tan -0.015624 0.002108 -0.992126 1.000000
tan -0.023436 0.003534 -0.992126 1.000000
tan -0.007874 -0.000000 -1.000000 1.000000
tan 0.015500 -0.002976 -0.984252 1.000000
tan 0.000000 -0.000000 -0.992126 1.000000
tan 0.000000 -0.000000 -1.000000 1.000000
tan -0.015748 -0.000000 -1.000000 1.000000
tan -0.006944 0.464567 -0.881890 1.000000
tan -0.015748 -0.000000 -1.000000 1.000000
tan -0.007006 0.456693 -0.889764 1.000000
tan -0.023436 -0.003162 -0.992126 1.000000
tan -0.156240 -0.154504 -0.971046 1.000000
tan -0.102300 -0.059520 -0.871226 1.000000
tan 0.000000 -0.000000 -0.922872 1.000000
tan 0.015624 0.002108 -0.992126 1.000000
tan 0.082584 0.046128 -0.874822 1.000000
tan 0.203112 0.198648 -0.959762 1.000000
tan -0.007874 -0.000000 -1.000000 1.000000
tan -0.015748 -0.000000 -1.000000 1.000000
tan -0.007874 -0.000000 -1.000000 1.000000
tan -0.007874 -0.000000 -1.000000 1.000000
tan 0.000000 -0.000000 -1.000000 1.000000
tan 0.000000 -0.000000 -1.000000 1.000000
tan 0.000000 -0.000000 -1.000000 1.000000
tan 0.000000 -0.669291 -0.740157 1.000000
tan 0.000000 -0.826772 -0.566929 1.000000
tan 0.000000 -0.000000 -1.000000 1.000000
tan -0.893050 -0.021018 -0.003286 1.000000
tan -1.000000 0.000000 0.000000 1.000000
tan -0.927460 0.007254 0.003100 1.000000
tan -1.000000 0.000000 0.000000 1.000000
tan -0.992126 0.000000 0.000000 1.000000
tan -0.992126 0.000000 0.000000 1.000000
tan -0.992126 0.000000 0.000000 1.000000
f 3/3/3 2/2/2 1/1/1
f 6/6/6 5/5/5 4/4/4
f 4/4/4 8/8/8 7/7/7
f 9/9/9 7/7/7 8/8/8
f 12/12/12 11/11/11 10/10/10
f 12/12/12 14/14/14 13/13/13
f 15/15/15 12/12/12 13/13/13
f 16/16/16 12/12/12 15/15/15
f 17/17/17 16/16/16 15/15/15
f 20/20/20 19/19/19 18/18/18
f 21/21/21 18/18/18 19/19/19
f 23/23/23 22/22/22 21/21/21
f 24/24/24 21/21/21 22/22/22
f 27/27/27 26/26/26 25/25/25
f 28/28/28 25/25/25 26/26/26
f 30/30/30 29/29/29 28/28/28
f 31/31/31 28/28/28 29/29/29
f 34/34/34 33/33/33 32/32/32
f 35/35/35 32/32/32 33/33/33
f 38/38/38 37/37/37 36/36/36
f 39/39/39 36/36/36 37/37/37
f 39/39/39 41/41/41 40/40/40
f 42/42/42 41/41/41 39/39/39
f 45/45/45 44/44/44 43/43/43
f 46/46/46 44/44/44 45/45/45
f 45/45/45 48/48/48 47/47/47
f 49/49/49 47/47/47 48/48/48
f 51/51/51 50/50/50 49/49/49
f 52/52/52 49/49/49 50/50/50
f 55/55/55 54/54/54 53/53/53
f 54/54/54 56/56/56 53/53/53
f 54/54/54 58/58/58 57/57/57
f 58/58/58 54/54/54 59/59/59
