mtllib SM_CerealBox_01_LOD5.mtl
g SM_CerealBox_01_LOD5
#Vertices 8
#Indices 12
#Section 0 Offset 0 NumIndices 12 MaterialIndex 0 MI_CerealBox
v 0.186007 0.420910 -0.049351
v -0.181694 0.414477 0.065479
v -0.192754 -0.047216 -0.044319
v 0.192677 -0.040994 0.071807
v 0.192677 -0.040994 0.071807
v -0.192754 -0.047216 -0.044319
v -0.181694 0.414477 0.065479
v 0.186007 0.420910 -0.049351
vt 0.430176 -0.054688
vt 0.842773 -0.047852
vt 0.852539 0.467285
vt 0.421387 0.462891
vt 0.455322 0.461426
vt 0.026886 0.467285
vt 0.041534 -0.046875
vt 0.449219 -0.054688
vt1 0.542969 0.419922
vt1 1.055664 0.427734
vt1 1.067383 1.068726
vt1 0.531738 1.063171
vt1 0.574219 1.061554
vt1 0.041504 1.068970
vt1 0.059723 0.429199
vt1 0.566406 0.419922
vn 0.039370 0.007874 -1.000000
vn -0.047244 0.007874 -1.000000
vn -0.031496 -0.007874 -1.000000
vn 0.062992 -0.007874 -1.000000
vn 0.031496 -0.007874 1.000000
vn -0.062992 -0.007874 1.000000
vn -0.031496 0.007874 1.000000
vn 0.047244 0.007874 1.000000
tan 0.000000 1.000000 0.007874 1.000000
tan 0.000000 1.000000 0.007874 1.000000
tan 0.000000 1.000000 -0.007874 1.000000
tan 0.000000 1.000000 -0.007874 1.000000
tan 0.000000 1.000000 0.007874 1.000000
tan 0.000000 1.000000 0.007874 1.000000
tan 0.000000 1.000000 -0.007874 1.000000
tan 0.000000 1.000000 -0.007874 1.000000
f 3/3/3 2/2/2 1/1/1
f 4/4/4 3/3/3 1/1/1
f 7/7/7 6/6/6 5/5/5
f 8/8/8 7/7/7 5/5/5
