mtllib SM_DoorBack_Frame_LOD1.mtl
g SM_DoorBack_Frame_LOD1
#Vertices 72
#Indices 144
#Section 0 Offset 0 NumIndices 144 MaterialIndex 0 MI_DoorBack
v -0.391079 2.093684 -0.001216
v 0.390408 2.093910 -0.071722
v -0.390700 2.093692 -0.071774
v 0.390676 2.092826 -0.001208
v 0.390197 0.035982 -0.071752
v 0.390676 2.092826 -0.001208
v 0.390816 0.037371 -0.001206
v 0.390408 2.093910 -0.071722
v -0.390956 0.036381 -0.001207
v -0.391079 2.093684 -0.001216
v -0.390527 0.035976 -0.071748
v -0.390700 2.093692 -0.071774
v -0.507847 -0.000065 -0.068287
v 0.390197 0.035982 -0.071752
v -0.390527 0.035976 -0.071748
v 0.507655 -0.000349 -0.067417
v 0.390197 0.035982 -0.071752
v -0.390956 0.036381 -0.001207
v -0.390527 0.035976 -0.071748
v 0.390816 0.037371 -0.001206
v 0.390300 2.042353 -0.071680
v 0.364953 0.079414 -0.081229
v 0.391564 2.043216 -0.117509
v 0.458214 0.041905 -0.117713
v 0.464411 2.112980 -0.116888
v 0.465118 0.035000 -0.110809
v 0.465118 2.113617 -0.047044
v 0.465118 0.035000 -0.047043
v 0.507473 2.158100 -0.001211
v 0.507655 -0.000349 -0.067417
v 0.507135 -0.000000 -0.001208
v 0.506043 2.159019 -0.071411
v 0.501368 0.007819 -0.071878
v 0.390408 2.093910 -0.071722
v 0.390197 0.035982 -0.071752
v 0.507655 -0.000349 -0.067417
v -0.507847 -0.000065 -0.068287
v -0.507450 2.157437 -0.001209
v -0.507135 -0.000000 -0.001208
v -0.506262 2.158886 -0.071785
v -0.500839 0.008537 -0.071878
v -0.390700 2.093692 -0.071774
v -0.390527 0.035976 -0.071748
v -0.507847 -0.000065 -0.068287
v -0.376756 0.085762 -0.078247
v 0.390300 0.078013 -0.001076
v -0.390635 0.078013 -0.001076
v 0.364953 0.079414 -0.081229
v -0.454435 0.037597 -0.120529
v 0.458214 0.041905 -0.117713
v 0.465118 0.035000 -0.110809
v 0.465118 0.035000 -0.047043
v -0.455832 0.035000 -0.047043
v -0.455832 2.113617 -0.047044
v 0.464411 2.112980 -0.116888
v 0.465118 2.113617 -0.047044
v -0.456283 2.111187 -0.118847
v 0.391564 2.043216 -0.117509
v -0.357926 2.016880 -0.080517
v 0.390300 2.042353 -0.071680
v -0.455832 0.035000 -0.047043
v -0.456283 2.111187 -0.118847
v -0.455832 2.113617 -0.047044
v -0.454435 0.037597 -0.120529
v -0.357926 2.016880 -0.080517
v -0.376756 0.085762 -0.078247
v -0.506262 2.158886 -0.071785
v 0.507473 2.158100 -0.001211
v -0.507450 2.157437 -0.001209
v 0.506043 2.159019 -0.071411
v 0.390408 2.093910 -0.071722
v -0.390700 2.093692 -0.071774
vt 0.074890 0.392090
vt 0.049622 0.674805
vt 0.049561 0.392090
vt 0.074951 0.674561
vt 0.661133 0.013184
vt 0.635254 0.756714
vt 0.635254 0.013672
vt 0.661133 0.757080
vt 0.822266 0.013672
vt 0.822266 0.757080
vt 0.796875 0.013184
vt 0.796875 0.757080
vt 1.000000 -0.001953
vt 0.986816 0.322266
vt 0.986816 0.040039
vt 1.000000 0.364746
vt 0.986816 0.322266
vt 0.961426 0.040039
vt 0.986816 0.040039
vt 0.961426 0.322754
vt 0.825684 0.726074
vt 0.830078 0.016602
vt 0.841309 0.726318
vt 0.865234 0.002930
vt 0.867188 0.751465
vt 0.868652 0.000488
vt 0.892090 0.751709
vt 0.892090 0.000488
vt 0.727539 0.780273
vt 0.703613 0.000000
vt 0.727539 0.000488
vt 0.702637 0.780640
vt 0.701172 0.002930
vt 0.661133 0.757080
vt 0.661133 0.013184
vt 0.703613 0.000488
vt 0.754395 0.000488
vt 0.730469 0.780029
vt 0.730469 0.000488
vt 0.755371 0.780640
vt 0.756836 0.003418
vt 0.796875 0.757080
vt 0.796875 0.013184
vt 0.754395 0.000488
vt 0.422607 0.652344
vt 0.451416 0.375000
vt 0.451416 0.657227
vt 0.420410 0.384277
vt 0.396729 0.680420
vt 0.397705 0.350586
vt 0.394287 0.348145
vt 0.371094 0.348145
vt 0.371094 0.680908
vt 0.487793 0.348633
vt 0.512695 0.681396
vt 0.487793 0.681641
vt 0.513184 0.348633
vt 0.536621 0.655029
vt 0.548828 0.384277
vt 0.552734 0.654541
vt 0.894531 0.000488
vt 0.919434 0.750854
vt 0.894531 0.751709
vt 0.919434 0.001465
vt 0.956055 0.716797
vt 0.952637 0.018555
vt 0.026901 0.350586
vt 0.001845 0.717041
vt 0.001892 0.350098
vt 0.026810 0.716553
vt 0.049927 0.674805
vt 0.049927 0.392090
vt1 0.388672 0.412598
vt1 0.343506 0.918701
vt1 0.343262 0.412109
vt1 0.388916 0.918579
vt1 0.036896 0.020508
vt1 0.004383 0.968201
vt1 0.004330 0.021484
vt1 0.036835 0.968719
vt1 0.248291 0.020996
vt1 0.248169 0.968628
vt1 0.215698 0.020508
vt1 0.215698 0.968628
vt1 0.954102 0.342773
vt1 0.930664 0.924377
vt1 0.930176 0.418945
vt1 0.954102 1.000447
vt1 0.930176 0.924377
vt1 0.884766 0.418457
vt1 0.930176 0.418945
vt1 0.884766 0.924805
vt1 0.400635 0.962036
vt1 0.406494 0.025391
vt1 0.421631 0.962433
vt1 0.453125 0.007324
vt1 0.455566 0.995728
vt1 0.457764 0.004395
vt1 0.488281 0.996033
vt1 0.488281 0.004395
vt1 0.121643 0.998286
vt1 0.091492 0.003906
vt1 0.121948 0.004395
vt1 0.089844 0.998701
vt1 0.088257 0.007812
vt1 0.036957 0.968719
vt1 0.036896 0.020508
vt1 0.091248 0.004395
vt1 0.161743 0.004395
vt1 0.130981 0.997976
vt1 0.130859 0.004395
vt1 0.162842 0.998640
vt1 0.164673 0.008301
vt1 0.215576 0.968628
vt1 0.215698 0.020508
vt1 0.161377 0.004395
vt1 0.595703 0.944824
vt1 0.647949 0.448242
vt1 0.647461 0.953827
vt1 0.592285 0.464844
vt1 0.549805 0.995129
vt1 0.551270 0.404297
vt1 0.544922 0.399902
vt1 0.503906 0.399902
vt1 0.503906 0.996029
vt1 0.757812 0.399902
vt1 0.802246 0.995575
vt1 0.757812 0.996029
vt1 0.803223 0.399414
vt1 0.845703 0.948395
vt1 0.867188 0.462891
vt1 0.874023 0.947601
vt1 0.662598 0.004395
vt1 0.695801 0.994877
vt1 0.662598 0.996029
vt1 0.695801 0.005371
vt1 0.743652 0.949799
vt1 0.739258 0.028320
vt1 0.302734 0.337402
vt1 0.257812 0.994610
vt1 0.257812 0.336426
vt1 0.302490 0.993614
vt1 0.343994 0.918701
vt1 0.343994 0.412109
vn 0.000000 -1.000000 0.000000
vn 0.000000 -1.000000 0.000000
vn 0.000000 -1.000000 0.000000
vn 0.000000 -1.000000 0.000000
vn -1.000000 0.000000 0.000000
vn -1.000000 0.000000 0.000000
vn -1.000000 0.000000 0.000000
vn -1.000000 0.000000 0.000000
vn 1.000000 0.000000 0.000000
vn 1.000000 0.000000 0.000000
vn 1.000000 0.000000 0.000000
vn 1.000000 0.000000 0.000000
vn 0.000000 -0.000000 -1.000000
vn 0.000000 -0.000000 -1.000000
vn 0.000000 -0.000000 -1.000000
vn 0.000000 -0.000000 -1.000000
vn 0.000000 1.000000 -0.000000
vn 0.000000 1.000000 -0.000000
vn 0.000000 1.000000 -0.000000
vn 0.000000 1.000000 -0.000000
vn -1.000000 0.000000 0.000000
vn -0.968504 -0.000000 -0.236220
vn -0.362205 -0.000000 -0.929134
vn 0.181102 -0.000000 -0.984252
vn 0.771654 -0.000000 -0.637795
vn 1.000000 -0.000000 -0.062992
vn 1.000000 0.000000 0.000000
vn 1.000000 0.000000 0.000000
vn 1.000000 0.000000 0.000000
vn 1.000000 -0.000000 -0.047244
vn 1.000000 0.000000 0.000000
vn 0.551181 -0.000000 -0.834646
vn 0.086614 -0.000000 -1.000000
vn 0.000000 -0.000000 -1.000000
vn 0.000000 -0.000000 -1.000000
vn 0.015748 -0.000000 -1.000000
vn -1.000000 -0.000000 -0.055118
vn -1.000000 0.000000 0.000000
vn -1.000000 0.000000 0.000000
vn -0.551181 -0.000000 -0.834646
vn -0.086614 -0.000000 -1.000000
vn 0.000000 -0.000000 -1.000000
vn 0.000000 -0.000000 -1.000000
vn -0.015748 -0.000000 -1.000000
vn 0.000000 0.992126 -0.110236
vn 0.000000 1.000000 -0.000000
vn 0.000000 1.000000 -0.000000
vn 0.000000 0.976378 -0.220473
vn 0.000000 -0.842520 -0.535433
vn 0.000000 -0.488189 -0.874016
vn 0.000000 -1.000000 -0.062992
vn 0.000000 -1.000000 0.000000
vn 0.000000 -1.000000 0.000000
vn 0.000000 1.000000 -0.000000
vn 0.000000 0.889764 -0.448819
vn 0.000000 1.000000 -0.000000
vn 0.000000 0.582677 -0.811024
vn 0.000000 -0.519685 -0.850394
vn 0.000000 -0.929134 -0.362205
vn 0.000000 -1.000000 0.000000
vn -1.000000 0.000000 0.000000
vn -0.826772 -0.000000 -0.566929
vn -1.000000 0.000000 0.000000
vn -0.527559 -0.000000 -0.850394
vn 0.905512 -0.000000 -0.417323
vn 0.984252 -0.000000 -0.173228
vn -0.007874 0.842520 -0.535433
vn 0.015748 1.000000 -0.000000
vn -0.023622 1.000000 -0.000000
vn 0.007874 0.826771 -0.566929
vn 0.000000 -0.000000 -1.000000
vn 0.000000 -0.007874 -1.000000
tan -1.000000 0.000000 0.000000 1.000000
tan -1.000000 0.000000 0.000000 1.000000
tan -1.000000 -0.000000 -0.007874 1.000000
tan -1.000000 0.000000 0.007874 1.000000
tan 0.000000 -1.000000 0.000000 1.000000
tan 0.000000 -1.000000 0.000000 1.000000
tan 0.000000 -1.000000 0.000000 1.000000
tan 0.000000 -1.000000 0.000000 1.000000
tan 0.000000 -1.000000 0.000000 1.000000
tan 0.000000 -1.000000 0.000000 1.000000
tan 0.000000 -1.000000 0.000000 1.000000
tan 0.000000 -1.000000 0.000000 1.000000
tan -1.000000 0.000000 0.000000 1.000000
tan -1.000000 0.000000 0.000000 1.000000
tan -1.000000 0.000000 0.000000 1.000000
tan -1.000000 0.000000 0.000000 1.000000
tan -1.000000 0.000000 0.000000 1.000000
tan -1.000000 0.000000 0.000000 1.000000
tan -1.000000 0.000000 0.000000 1.000000
tan -1.000000 0.000000 0.000000 1.000000
tan 0.000000 -1.000000 0.000000 1.000000
tan 0.000000 -0.970364 0.000000 1.000000
tan 0.000000 -0.949098 0.000000 1.000000
tan 0.000000 -0.985678 0.000000 1.000000
tan 0.000000 -0.993490 0.000000 1.000000
tan 0.000000 -1.000000 0.000000 1.000000
tan 0.000000 -1.000000 0.000000 1.000000
tan 0.000000 -1.000000 0.000000 1.000000
tan 0.000000 -1.000000 0.000000 1.000000
tan 0.000372 -1.000000 0.007874 1.000000
tan 0.000000 -1.000000 0.000000 1.000000
tan 0.000000 -0.947238 0.000000 1.000000
tan 0.000000 -1.000000 0.000000 1.000000
tan 0.000000 -1.000000 0.000000 1.000000
tan -0.015748 -1.000000 0.000000 1.000000
tan -0.007874 -1.000000 -0.000124 1.000000
tan -0.000434 -1.000000 0.007874 1.000000
tan 0.000000 -1.000000 0.000000 1.000000
tan 0.000000 -1.000000 0.000000 1.000000
tan 0.000000 -0.947238 0.000000 1.000000
tan 0.000000 -1.000000 0.000000 1.000000
tan 0.000000 -1.000000 0.000000 1.000000
tan 0.015748 -1.000000 0.000000 1.000000
tan 0.007874 -1.000000 -0.000124 1.000000
tan 0.992126 0.000000 0.000000 1.000000
tan 1.000000 0.000000 0.000000 1.000000
tan 1.000000 0.000000 0.000000 1.000000
tan 0.978114 0.000000 0.000000 1.000000
tan 0.964722 0.000000 0.000000 1.000000
tan 0.940976 0.000000 0.000000 1.000000
tan 1.000000 0.000000 0.000000 1.000000
tan 1.000000 0.000000 0.000000 1.000000
tan 1.000000 0.000000 0.000000 1.000000
tan -1.000000 0.000000 0.000000 1.000000
tan -0.942836 0.000000 0.000000 1.000000
tan -1.000000 0.000000 0.000000 1.000000
tan -0.923120 0.000000 0.000000 1.000000
tan -0.948974 0.000000 0.000000 1.000000
tan -0.960506 0.000000 0.000000 1.000000
tan -1.000000 0.000000 0.000000 1.000000
tan 0.000000 -1.000000 0.000000 1.000000
tan 0.000000 -0.973526 0.000000 1.000000
tan 0.000000 -1.000000 0.000000 1.000000
tan 0.000000 -0.922624 0.000000 1.000000
tan 0.000000 -0.956972 0.000000 1.000000
tan 0.000000 -0.984252 0.000000 1.000000
tan -0.967140 -0.024366 -0.024118 1.000000
tan -1.000000 0.015748 -0.000000 1.000000
tan -1.000000 -0.023622 0.000000 1.000000
tan -0.987290 0.047368 0.055366 1.000000
tan -1.000000 0.039370 -0.000000 1.000000
tan -1.000000 -0.055118 0.000434 1.000000
f 3/3/3 2/2/2 1/1/1
f 4/4/4 1/1/1 2/2/2
f 7/7/7 6/6/6 5/5/5
f 8/8/8 5/5/5 6/6/6
f 11/11/11 10/10/10 9/9/9
f 10/10/10 11/11/11 12/12/12
f 15/15/15 14/14/14 13/13/13
f 16/16/16 13/13/13 14/14/14
f 19/19/19 18/18/18 17/17/17
f 20/20/20 17/17/17 18/18/18
f 23/23/23 22/22/22 21/21/21
f 22/22/22 23/23/23 24/24/24
f 25/25/25 24/24/24 23/23/23
f 24/24/24 25/25/25 26/26/26
f 27/27/27 26/26/26 25/25/25
f 26/26/26 27/27/27 28/28/28
f 31/31/31 30/30/30 29/29/29
f 32/32/32 29/29/29 30/30/30
f 33/33/33 32/32/32 30/30/30
f 32/32/32 33/33/33 34/34/34
f 35/35/35 34/34/34 33/33/33
f 33/33/33 36/36/36 35/35/35
f 39/39/39 38/38/38 37/37/37
f 40/40/40 37/37/37 38/38/38
f 37/37/37 40/40/40 41/41/41
f 40/40/40 42/42/42 41/41/41
f 43/43/43 41/41/41 42/42/42
f 41/41/41 43/43/43 44/44/44
f 47/47/47 46/46/46 45/45/45
f 48/48/48 45/45/45 46/46/46
f 45/45/45 48/48/48 49/49/49
f 50/50/50 49/49/49 48/48/48
f 50/50/50 51/51/51 49/49/49
f 52/52/52 49/49/49 51/51/51
f 49/49/49 52/52/52 53/53/53
f 56/56/56 55/55/55 54/54/54
f 57/57/57 54/54/54 55/55/55
f 55/55/55 58/58/58 57/57/57
f 59/59/59 57/57/57 58/58/58
f 60/60/60 59/59/59 58/58/58
f 63/63/63 62/62/62 61/61/61
f 64/64/64 61/61/61 62/62/62
f 65/65/65 64/64/64 62/62/62
f 66/66/66 64/64/64 65/65/65
f 69/69/69 68/68/68 67/67/67
f 70/70/70 67/67/67 68/68/68
f 70/70/70 71/71/71 67/67/67
f 72/72/72 67/67/67 71/71/71
