mtllib SM_DoorBack_Frame_LOD2.mtl
g SM_DoorBack_Frame_LOD2
#Vertices 48
#Indices 72
#Section 0 Offset 0 NumIndices 72 MaterialIndex 0 MI_DoorBack
v -0.552286 2.172742 -0.010127
v 0.390408 2.093910 -0.071722
v 0.543577 2.174099 -0.008135
v -0.390700 2.093692 -0.071774
v -0.391079 2.093684 -0.001216
v 0.390408 2.093910 -0.071722
v -0.390700 2.093692 -0.071774
v 0.390676 2.092826 -0.001208
v 0.390408 2.093910 -0.071722
v 0.589122 0.000711 -0.011577
v 0.543577 2.174099 -0.008135
v 0.390197 0.035982 -0.071752
v 0.390197 0.035982 -0.071752
v 0.390676 2.092826 -0.001208
v 0.390816 0.037371 -0.001206
v 0.390408 2.093910 -0.071722
v -0.390956 0.036381 -0.001207
v -0.391079 2.093684 -0.001216
v -0.390527 0.035976 -0.071748
v -0.390700 2.093692 -0.071774
v -0.390700 2.093692 -0.071774
v -0.581873 0.025304 -0.023255
v -0.390527 0.035976 -0.071748
v -0.552286 2.172742 -0.010127
v -0.581873 0.025304 -0.023255
v 0.390197 0.035982 -0.071752
v -0.390527 0.035976 -0.071748
v 0.589122 0.000711 -0.011577
v 0.390197 0.035982 -0.071752
v -0.390956 0.036381 -0.001207
v -0.390527 0.035976 -0.071748
v 0.390816 0.037371 -0.001206
v 0.496487 2.127622 -0.086682
v -0.502535 2.138286 -0.059101
v -0.357926 2.016880 -0.080517
v 0.390300 2.042353 -0.071680
v -0.502535 2.138286 -0.059101
v -0.455832 0.035000 -0.047043
v -0.375995 0.128733 -0.110736
v -0.357926 2.016880 -0.080517
v 0.390300 2.042353 -0.071680
v 0.361569 0.094677 -0.075105
v 0.496487 2.127622 -0.086682
v 0.518231 -0.005702 -0.061043
v 0.361569 0.094677 -0.075105
v -0.375995 0.128733 -0.110736
v 0.518231 -0.005702 -0.061043
v -0.455832 0.035000 -0.047043
vt 0.008827 0.333984
vt 0.049927 0.674805
vt 0.008392 0.730225
vt 0.049927 0.392090
vt 0.074890 0.392090
vt 0.049622 0.674805
vt 0.049561 0.392090
vt 0.074951 0.674561
vt 0.661133 0.757080
vt 0.732422 0.000977
vt 0.722168 0.786011
vt 0.661133 0.013184
vt 0.661133 0.013184
vt 0.635254 0.756714
vt 0.635254 0.013672
vt 0.661133 0.757080
vt 0.822266 0.013672
vt 0.822266 0.757080
vt 0.796875 0.013184
vt 0.796875 0.757080
vt 0.796875 0.757080
vt 0.729492 0.009766
vt 0.796875 0.013184
vt 0.735352 0.785645
vt 1.001953 -0.028320
vt 0.986816 0.322266
vt 0.986816 0.040039
vt 1.001953 0.394531
vt 0.986816 0.322266
vt 0.961426 0.040039
vt 0.986816 0.040039
vt 0.961426 0.322754
vt 0.505371 0.692871
vt 0.496338 0.332031
vt 0.548828 0.384277
vt 0.552734 0.654541
vt 0.903320 0.760620
vt 0.894531 0.000488
vt 0.939453 0.034180
vt 0.956055 0.716797
vt 0.825684 0.726074
vt 0.828613 0.021973
vt 0.876465 0.756714
vt 0.886719 -0.013672
vt 0.424805 0.385742
vt 0.420654 0.652344
vt 0.380127 0.329102
vt 0.371094 0.680908
vt1 0.270264 0.308105
vt1 0.343994 0.918701
vt1 0.269531 1.017990
vt1 0.343994 0.412109
vt1 0.388672 0.412598
vt1 0.343506 0.918701
vt1 0.343262 0.412109
vt1 0.388916 0.918579
vt1 0.036957 0.968719
vt1 0.128174 0.004883
vt1 0.114685 1.005657
vt1 0.036896 0.020508
vt1 0.036896 0.020508
vt1 0.004383 0.968201
vt1 0.004330 0.021484
vt1 0.036835 0.968719
vt1 0.248291 0.020996
vt1 0.248169 0.968628
vt1 0.215698 0.020508
vt1 0.215698 0.968628
vt1 0.215576 0.968628
vt1 0.129761 0.016113
vt1 0.215698 0.020508
vt1 0.137207 1.005032
vt1 0.957520 0.295410
vt1 0.930664 0.924377
vt1 0.930176 0.418945
vt1 0.957520 1.053223
vt1 0.930176 0.924377
vt1 0.884766 0.418457
vt1 0.930176 0.418945
vt1 0.884766 0.924805
vt1 0.790039 1.016144
vt1 0.773438 0.369629
vt1 0.867188 0.462891
vt1 0.874023 0.947601
vt1 0.673828 1.007820
vt1 0.662598 0.004395
vt1 0.722168 0.048828
vt1 0.743652 0.949799
vt1 0.400635 0.962036
vt1 0.405029 0.032715
vt1 0.467773 1.002638
vt1 0.481689 -0.014648
vt1 0.600098 0.466797
vt1 0.592773 0.944702
vt1 0.520020 0.365234
vt1 0.503906 0.996029
vn -0.007874 0.992126 -0.141732
vn 0.000000 -0.000000 -1.000000
vn 0.015748 0.984252 -0.157480
vn 0.000000 -0.007874 -1.000000
vn 0.000000 -1.000000 0.000000
vn 0.000000 -1.000000 0.000000
vn 0.000000 -1.000000 0.000000
vn 0.000000 -1.000000 0.000000
vn 0.000000 -0.000000 -1.000000
vn 0.937008 -0.000000 -0.354331
vn 0.937008 -0.000000 -0.346457
vn 0.000000 -0.000000 -1.000000
vn -1.000000 0.000000 0.000000
vn -1.000000 0.000000 0.000000
vn -1.000000 0.000000 0.000000
vn -1.000000 0.000000 0.000000
vn 1.000000 0.000000 0.000000
vn 1.000000 0.000000 0.000000
vn 1.000000 0.000000 0.000000
vn 1.000000 0.000000 0.000000
vn 0.000000 -0.000000 -1.000000
vn -0.905512 -0.000000 -0.425197
vn 0.000000 -0.000000 -1.000000
vn -0.937008 -0.000000 -0.346457
vn 0.000000 -0.000000 -1.000000
vn 0.000000 -0.000000 -1.000000
vn 0.000000 -0.000000 -1.000000
vn 0.000000 -0.000000 -1.000000
vn 0.000000 1.000000 -0.000000
vn 0.000000 1.000000 -0.000000
vn 0.000000 1.000000 -0.000000
vn 0.000000 1.000000 -0.000000
vn 0.000000 0.818897 -0.566929
vn 0.000000 0.929134 -0.362205
vn 0.000000 -0.929134 -0.362205
vn 0.000000 -1.000000 0.000000
vn -0.984252 -0.000000 -0.188976
vn -1.000000 0.000000 0.000000
vn 0.401575 -0.000000 -0.913386
vn 0.905512 -0.000000 -0.417323
vn -1.000000 0.000000 0.000000
vn -0.976378 -0.000000 -0.204724
vn 0.803150 -0.000000 -0.598425
vn 0.960630 -0.000000 -0.291339
vn 0.000000 0.984252 -0.165354
vn 0.000000 0.685039 -0.732283
vn 0.000000 -0.984252 -0.188976
vn 0.000000 -1.000000 0.000000
tan -0.992126 -0.010106 -0.015624 1.000000
tan -1.000000 0.039370 -0.000000 1.000000
tan -0.984252 0.019468 0.023250 1.000000
tan -1.000000 -0.055118 0.000434 1.000000
tan -1.000000 0.000000 0.000000 1.000000
tan -1.000000 0.000000 0.000000 1.000000
tan -1.000000 -0.000000 -0.007874 1.000000
tan -1.000000 0.000000 0.007874 1.000000
tan 0.000000 -1.000000 0.000000 1.000000
tan 0.005580 -0.967698 0.014756 1.000000
tan 0.000000 -0.961560 0.000000 1.000000
tan -0.015748 -1.000000 0.000000 1.000000
tan 0.000000 -1.000000 0.000000 1.000000
tan 0.000000 -1.000000 0.000000 1.000000
tan 0.000000 -1.000000 0.000000 1.000000
tan 0.000000 -1.000000 0.000000 1.000000
tan 0.000000 -1.000000 0.000000 1.000000
tan 0.000000 -1.000000 0.000000 1.000000
tan 0.000000 -1.000000 0.000000 1.000000
tan 0.000000 -1.000000 0.000000 1.000000
tan 0.000000 -1.000000 0.000000 1.000000
tan -0.006696 -0.961560 0.014260 1.000000
tan 0.015748 -1.000000 0.000000 1.000000
tan 0.000000 -0.964288 0.000000 1.000000
tan -1.000000 0.000000 0.000000 1.000000
tan -1.000000 0.000000 0.000000 1.000000
tan -1.000000 0.000000 0.000000 1.000000
tan -1.000000 0.000000 0.000000 1.000000
tan -1.000000 0.000000 0.000000 1.000000
tan -1.000000 0.000000 0.000000 1.000000
tan -1.000000 0.000000 0.000000 1.000000
tan -1.000000 0.000000 0.000000 1.000000
tan -0.945378 0.000000 0.000000 1.000000
tan -0.956042 0.000000 0.000000 1.000000
tan -0.960506 0.000000 0.000000 1.000000
tan -1.000000 0.000000 0.000000 1.000000
tan 0.000000 -0.984252 0.000000 1.000000
tan 0.000000 -1.000000 0.000000 1.000000
tan 0.000000 -0.962242 0.000000 1.000000
tan 0.000000 -0.956972 0.000000 1.000000
tan 0.000000 -1.000000 0.000000 1.000000
tan 0.000000 -0.976378 0.000000 1.000000
tan 0.000000 -0.941162 0.000000 1.000000
tan 0.000000 -0.969806 0.000000 1.000000
tan 0.984252 0.000000 0.000000 1.000000
tan 0.996032 0.000000 0.000000 1.000000
tan 0.985740 0.000000 0.000000 1.000000
tan 1.000000 0.000000 0.000000 1.000000
f 3/3/3 2/2/2 1/1/1
f 4/4/4 1/1/1 2/2/2
f 7/7/7 6/6/6 5/5/5
f 8/8/8 5/5/5 6/6/6
f 11/11/11 10/10/10 9/9/9
f 12/12/12 9/9/9 10/10/10
f 15/15/15 14/14/14 13/13/13
f 16/16/16 13/13/13 14/14/14
f 19/19/19 18/18/18 17/17/17
f 18/18/18 19/19/19 20/20/20
f 23/23/23 22/22/22 21/21/21
f 24/24/24 21/21/21 22/22/22
f 27/27/27 26/26/26 25/25/25
f 28/28/28 25/25/25 26/26/26
f 31/31/31 30/30/30 29/29/29
f 32/32/32 29/29/29 30/30/30
f 35/35/35 34/34/34 33/33/33
f 36/36/36 35/35/35 33/33/33
f 39/39/39 38/38/38 37/37/37
f 40/40/40 39/39/39 37/37/37
f 43/43/43 42/42/42 41/41/41
f 42/42/42 43/43/43 44/44/44
f 47/47/47 46/46/46 45/45/45
f 46/46/46 47/47/47 48/48/48
