mtllib SM_DoorBack_Frame_LOD4.mtl
g SM_DoorBack_Frame_LOD4
#Vertices 14
#Indices 18
#Section 0 Offset 0 NumIndices 18 MaterialIndex 0 MI_DoorBack
v -0.477230 2.146625 -0.043580
v 0.375715 2.085019 -0.068505
v 0.543577 2.174099 -0.008135
v -0.477230 2.146625 -0.043580
v -0.581873 0.025304 -0.023255
v -0.373785 0.075916 -0.044947
v 0.375715 2.085019 -0.068505
v 0.589122 0.000711 -0.011577
v 0.543577 2.174099 -0.008135
v 0.363689 0.052517 -0.061963
v -0.581873 0.025304 -0.023255
v 0.363689 0.052517 -0.061963
v -0.373785 0.075916 -0.044947
v 0.589122 0.000711 -0.011577
vt 0.025253 0.361328
vt 0.051941 0.669434
vt 0.008392 0.730225
vt 0.765137 0.776123
vt 0.729492 0.009766
vt 0.800293 0.027832
vt 0.656738 0.753784
vt 0.732422 0.000977
vt 0.722168 0.786011
vt 0.653320 0.019043
vt 1.001953 -0.028320
vt 0.986328 0.312500
vt 0.992188 0.046387
vt 1.001953 0.394531
vt1 0.299805 0.356445
vt1 0.347656 0.909180
vt1 0.269531 1.017990
vt1 0.175415 0.992992
vt1 0.129761 0.016113
vt1 0.219849 0.039062
vt1 0.031174 0.964630
vt1 0.128174 0.004883
vt1 0.114685 1.005657
vt1 0.027023 0.028320
vt1 0.957520 0.295410
vt1 0.929688 0.906982
vt1 0.939941 0.430176
vt1 0.957520 1.053223
vn -0.015748 0.787401 -0.614173
vn 0.000000 -0.047244 -1.000000
vn 0.015748 0.984252 -0.157480
vn -0.559055 -0.000000 -0.826772
vn -0.905512 -0.000000 -0.425197
vn 0.039370 -0.000000 -1.000000
vn -0.062992 -0.000000 -1.000000
vn 0.937008 -0.000000 -0.354331
vn 0.937008 -0.000000 -0.346457
vn -0.094488 -0.000000 -0.992126
vn 0.000000 -0.000000 -1.000000
vn 0.000000 -0.000000 -1.000000
vn 0.000000 -0.000000 -1.000000
vn 0.000000 -0.000000 -1.000000
tan -0.945750 -0.048608 -0.038068 1.000000
tan -1.000000 0.031496 -0.001488 1.000000
tan -0.984252 0.019468 0.023250 1.000000
tan -0.006510 -0.979478 0.004402 1.000000
tan -0.006696 -0.961560 0.014260 1.000000
tan 0.015748 -1.000000 0.000620 1.000000
tan 0.000000 -1.000000 0.000000 1.000000
tan 0.005580 -0.967698 0.014756 1.000000
tan 0.000000 -0.961560 0.000000 1.000000
tan -0.015624 -0.992126 0.001488 1.000000
tan -1.000000 0.000000 0.000000 1.000000
tan -1.000000 0.000000 0.000000 1.000000
tan -1.000000 0.000000 0.000000 1.000000
tan -1.000000 0.000000 0.000000 1.000000
f 3/3/3 2/2/2 1/1/1
f 6/6/6 5/5/5 4/4/4
f 9/9/9 8/8/8 7/7/7
f 10/10/10 7/7/7 8/8/8
f 13/13/13 12/12/12 11/11/11
f 14/14/14 11/11/11 12/12/12
