mtllib SM_DoorBack_Frame_LOD3.mtl
g SM_DoorBack_Frame_LOD3
#Vertices 28
#Indices 36
#Section 0 Offset 0 NumIndices 36 MaterialIndex 0 MI_DoorBack
v 0.446088 2.090272 -0.084674
v -0.502535 2.138286 -0.059101
v -0.357926 2.016880 -0.080517
v -0.502535 2.138286 -0.059101
v -0.425700 0.069779 -0.084625
v -0.357926 2.016880 -0.080517
v 0.518231 -0.005702 -0.061043
v 0.446088 2.090272 -0.084674
v 0.361569 0.094677 -0.075105
v 0.361569 0.094677 -0.075105
v -0.425700 0.069779 -0.084625
v 0.518231 -0.005702 -0.061043
v -0.552286 2.172742 -0.010127
v 0.375715 2.085019 -0.068505
v 0.543577 2.174099 -0.008135
v -0.378732 2.074455 -0.068782
v 0.375715 2.085019 -0.068505
v 0.589122 0.000711 -0.011577
v 0.543577 2.174099 -0.008135
v 0.363689 0.052517 -0.061963
v -0.378732 2.074455 -0.068782
v -0.581873 0.025304 -0.023255
v -0.373785 0.075916 -0.044947
v -0.552286 2.172742 -0.010127
v -0.581873 0.025304 -0.023255
v 0.363689 0.052517 -0.061963
v -0.373785 0.075916 -0.044947
v 0.589122 0.000711 -0.011577
vt 0.523438 0.674561
vt 0.496338 0.332031
vt 0.548828 0.384277
vt 0.903320 0.760620
vt 0.916992 0.013184
vt 0.956055 0.716797
vt 0.886719 -0.013672
vt 0.854980 0.743164
vt 0.828613 0.021973
vt 0.424805 0.385742
vt 0.392090 0.669922
vt 0.380127 0.329102
vt 0.008827 0.333984
vt 0.051941 0.669434
vt 0.008392 0.730225
vt 0.055298 0.396484
vt 0.656738 0.753784
vt 0.732422 0.000977
vt 0.722168 0.786011
vt 0.653320 0.019043
vt 0.800781 0.750122
vt 0.729492 0.009766
vt 0.800293 0.027832
vt 0.735352 0.785645
vt 1.001953 -0.028320
vt 0.986328 0.312500
vt 0.992188 0.046387
vt 1.001953 0.394531
vt1 0.821777 0.983475
vt1 0.773438 0.369629
vt1 0.867188 0.462891
vt1 0.673828 1.007820
vt1 0.691895 0.020996
vt1 0.743652 0.949799
vt1 0.481689 -0.014648
vt1 0.439453 0.984802
vt1 0.405029 0.032715
vt1 0.600098 0.466797
vt1 0.541016 0.976349
vt1 0.520020 0.365234
vt1 0.270264 0.308105
vt1 0.347656 0.909180
vt1 0.269531 1.017990
vt1 0.353516 0.419922
vt1 0.031174 0.964630
vt1 0.128174 0.004883
vt1 0.114685 1.005657
vt1 0.027023 0.028320
vt1 0.220459 0.959747
vt1 0.129761 0.016113
vt1 0.219849 0.039062
vt1 0.137207 1.005032
vt1 0.957520 0.295410
vt1 0.929688 0.906982
vt1 0.939941 0.430176
vt1 0.957520 1.053223
vn 0.000000 0.322834 -0.944882
vn 0.000000 0.929134 -0.362205
vn 0.000000 -0.929134 -0.362205
vn -0.984252 -0.000000 -0.188976
vn -0.496063 -0.000000 -0.866142
vn 0.905512 -0.000000 -0.417323
vn 0.960630 -0.000000 -0.291339
vn 0.133858 -0.000000 -0.992126
vn -0.976378 -0.000000 -0.204724
vn 0.000000 0.984252 -0.165354
vn 0.000000 -0.637795 -0.771653
vn 0.000000 -0.984252 -0.188976
vn -0.007874 0.992126 -0.141732
vn 0.000000 -0.047244 -1.000000
vn 0.015748 0.984252 -0.157480
vn 0.000000 -0.118110 -0.992126
vn -0.062992 -0.000000 -1.000000
vn 0.937008 -0.000000 -0.354331
vn 0.937008 -0.000000 -0.346457
vn -0.094488 -0.000000 -0.992126
vn 0.055118 -0.000000 -1.000000
vn -0.905512 -0.000000 -0.425197
vn 0.039370 -0.000000 -1.000000
vn -0.937008 -0.000000 -0.346457
vn 0.000000 -0.000000 -1.000000
vn 0.000000 -0.000000 -1.000000
vn 0.000000 -0.000000 -1.000000
vn 0.000000 -0.000000 -1.000000
tan -0.978114 0.000000 0.000000 1.000000
tan -0.956042 0.000000 0.000000 1.000000
tan -0.960506 0.000000 0.000000 1.000000
tan 0.000000 -0.984252 0.000000 1.000000
tan 0.000000 -0.959948 0.000000 1.000000
tan 0.000000 -0.956972 0.000000 1.000000
tan 0.000000 -0.969806 0.000000 1.000000
tan 0.000000 -0.994234 0.000000 1.000000
tan 0.000000 -0.976378 0.000000 1.000000
tan 0.984252 0.000000 0.000000 1.000000
tan 0.985802 0.000000 0.000000 1.000000
tan 0.985740 0.000000 0.000000 1.000000
tan -0.992126 -0.010106 -0.015624 1.000000
tan -1.000000 0.031496 -0.001488 1.000000
tan -0.984252 0.019468 0.023250 1.000000
tan -0.992126 -0.054684 0.006510 1.000000
tan 0.000000 -1.000000 0.000000 1.000000
tan 0.005580 -0.967698 0.014756 1.000000
tan 0.000000 -0.961560 0.000000 1.000000
tan -0.015624 -0.992126 0.001488 1.000000
tan 0.000000 -1.000000 0.000000 1.000000
tan -0.006696 -0.961560 0.014260 1.000000
tan 0.015748 -1.000000 0.000620 1.000000
tan 0.000000 -0.964288 0.000000 1.000000
tan -1.000000 0.000000 0.000000 1.000000
tan -1.000000 0.000000 0.000000 1.000000
tan -1.000000 0.000000 0.000000 1.000000
tan -1.000000 0.000000 0.000000 1.000000
f 3/3/3 2/2/2 1/1/1
f 6/6/6 5/5/5 4/4/4
f 9/9/9 8/8/8 7/7/7
f 12/12/12 11/11/11 10/10/10
f 15/15/15 14/14/14 13/13/13
f 16/16/16 13/13/13 14/14/14
f 19/19/19 18/18/18 17/17/17
f 20/20/20 17/17/17 18/18/18
f 23/23/23 22/22/22 21/21/21
f 24/24/24 21/21/21 22/22/22
f 27/27/27 26/26/26 25/25/25
f 28/28/28 25/25/25 26/26/26
