mtllib SM_DoorBack_Frame_LOD5.mtl
g SM_DoorBack_Frame_LOD5
#Vertices 6
#Indices 6
#Section 0 Offset 0 NumIndices 6 MaterialIndex 0 MI_DoorBack
v 0.589122 0.000711 -0.011577
v 0.462820 2.134540 -0.040974
v 0.363689 0.052517 -0.061963
v 0.363689 0.052517 -0.061963
v -0.478244 0.058708 -0.035629
v 0.589122 0.000711 -0.011577
vt 0.732422 0.000977
vt 0.688965 0.771729
vt 0.653320 0.019043
vt 0.986328 0.312500
vt 0.994629 0.008789
vt 1.001953 0.394531
vt1 0.128174 0.004883
vt1 0.072815 0.987473
vt1 0.027023 0.028320
vt1 0.929688 0.906982
vt1 0.944824 0.362305
vt1 0.957520 1.053223
vn 0.937008 -0.000000 -0.354331
vn 0.511811 -0.000000 -0.858268
vn -0.094488 -0.000000 -0.992126
vn 0.000000 -0.000000 -1.000000
vn 0.000000 -0.000000 -1.000000
vn 0.000000 -0.000000 -1.000000
tan 0.005580 -0.967698 0.014756 1.000000
tan 0.006758 -0.965528 0.004030 1.000000
tan -0.015624 -0.992126 0.001488 1.000000
tan -1.000000 0.000000 0.000000 1.000000
tan -1.000000 0.000000 0.000000 1.000000
tan -1.000000 0.000000 0.000000 1.000000
f 3/3/3 2/2/2 1/1/1
f 6/6/6 5/5/5 4/4/4
