mtllib SM_DoorBack_Bottom_LOD5.mtl
g SM_DoorBack_Bottom_LOD5
#Vertices 52
#Indices 138
#Section 0 Offset 0 NumIndices 138 MaterialIndex 0 MI_DoorBack
v 0.467651 -0.028968 0.003964
v 0.469352 0.571504 0.004100
v 0.658462 -0.023267 0.001892
v 0.660817 0.577587 0.002447
v 0.333704 0.577081 0.004213
v 0.331549 -0.023518 0.002454
v 0.140396 -0.028617 0.003507
v 0.142182 0.571937 0.002011
v 0.798702 -0.213805 0.026549
v 0.797852 -0.212896 -0.024231
v 0.003009 -0.214774 -0.024274
v 0.003616 -0.215020 0.026149
v 0.658469 -0.023224 -0.023794
v 0.660874 0.577328 -0.023831
v 0.468988 0.572400 -0.024385
v 0.467596 -0.028937 -0.023787
v 0.142466 0.571557 -0.022836
v 0.139382 -0.029641 -0.023993
v 0.334186 0.578148 -0.024185
v 0.331416 -0.023526 -0.022771
v 0.819568 0.705373 0.034587
v -0.005174 0.760793 0.052024
v 0.807514 0.778918 -0.027010
v 0.002468 0.732205 -0.033614
v 0.819568 0.705373 0.034587
v -0.005174 0.760793 0.052024
v 0.798209 0.733226 -0.024179
v 0.798702 -0.213805 0.026549
v 0.799990 0.733153 0.025362
v 0.797852 -0.212896 -0.024231
v 0.658469 -0.023224 -0.023794
v 0.003009 -0.214774 -0.024274
v 0.660874 0.577328 -0.023831
v 0.468988 0.572400 -0.024385
v 0.467596 -0.028937 -0.023787
v 0.334186 0.578148 -0.024185
v 0.142466 0.571557 -0.022836
v 0.331416 -0.023526 -0.022771
v 0.002709 0.733551 -0.023790
v 0.139382 -0.029641 -0.023993
v 0.001934 0.733451 0.025794
v 0.003616 -0.215020 0.026149
v 0.140396 -0.028617 0.003507
v 0.142182 0.571937 0.002011
v 0.331549 -0.023518 0.002454
v 0.333704 0.577081 0.004213
v 0.467651 -0.028968 0.003964
v 0.658462 -0.023267 0.001892
v 0.469352 0.571504 0.004100
v 0.798702 -0.213805 0.026549
v 0.660817 0.577587 0.002447
v 0.799990 0.733153 0.025362
vt 0.507324 0.276855
vt 0.508301 0.062500
vt 0.573730 0.275391
vt 0.575195 0.060547
vt 0.453857 0.060059
vt 0.452881 0.274902
vt 0.386475 0.276855
vt 0.387451 0.062012
vt 0.964844 0.333984
vt 0.982910 0.334473
vt 0.982910 0.621826
vt 0.964844 0.621582
vt 0.074707 0.275391
vt 0.073730 0.059570
vt 0.140503 0.061523
vt 0.140991 0.276855
vt 0.261719 0.061523
vt 0.262939 0.277344
vt 0.195190 0.059570
vt 0.196167 0.274902
vt 0.199829 0.645752
vt 0.184814 0.944336
vt 0.162109 0.650391
vt 0.145386 0.941315
vt 0.124268 0.645996
vt 0.114624 0.944427
vt 0.020752 0.000977
vt 0.003199 0.346191
vt 0.003176 0.001465
vt 0.021317 0.346191
vt 0.071899 0.276367
vt 0.315674 0.346680
vt 0.070862 0.058594
vt 0.143433 0.060547
vt 0.143921 0.277832
vt 0.192261 0.058594
vt 0.264648 0.060547
vt 0.193237 0.275879
vt 0.315674 0.001465
vt 0.265869 0.278320
vt 0.333008 0.000977
vt 0.333252 0.347168
vt 0.383545 0.277832
vt 0.384521 0.061035
vt 0.455566 0.275879
vt 0.456787 0.059082
vt 0.504883 0.277832
vt 0.576172 0.276367
vt 0.505859 0.061523
vt 0.627930 0.346191
vt 0.577637 0.059082
vt 0.629395 0.002441
vt1 0.802246 0.883789
vt1 0.803711 0.546631
vt1 0.906250 0.881104
vt1 0.908203 0.543213
vt1 0.717773 0.542969
vt1 0.715820 0.880737
vt1 0.611328 0.883850
vt1 0.612793 0.545410
vt1 0.864258 0.129883
vt1 0.863281 0.183105
vt1 0.014107 0.183594
vt1 0.014847 0.129883
vt1 0.121277 0.881165
vt1 0.119751 0.542236
vt1 0.224731 0.545410
vt1 0.225586 0.883850
vt1 0.415527 0.545410
vt1 0.417236 0.884399
vt1 0.310791 0.541992
vt1 0.312256 0.880676
vt1 0.879883 0.446777
vt1 -0.002325 0.402832
vt1 0.866211 0.335449
vt1 0.006546 0.286133
vt1 0.879395 0.223633
vt1 -0.002605 0.195312
vt1 0.036469 0.450195
vt1 0.008842 0.992916
vt1 0.008804 0.450684
vt1 0.037323 0.992359
vt1 0.116943 0.882935
vt1 0.500000 0.993347
vt1 0.115295 0.540527
vt1 0.229370 0.543701
vt1 0.230225 0.885437
vt1 0.306152 0.540527
vt1 0.419922 0.543945
vt1 0.307861 0.882324
vt1 0.500000 0.450684
vt1 0.421875 0.886169
vt1 0.527344 0.449707
vt1 0.527832 0.993931
vt1 0.606934 0.885559
vt1 0.608398 0.544189
vt1 0.720215 0.882324
vt1 0.722168 0.541504
vt1 0.797852 0.885376
vt1 0.910156 0.882751
vt1 0.799316 0.544922
vt1 0.991211 0.992577
vt1 0.912598 0.541748
vt1 0.993652 0.452148
vn 0.000000 0.000000 1.000000
vn 0.000000 0.000000 1.000000
vn 0.000000 0.000000 1.000000
vn 0.000000 0.000000 1.000000
vn 0.000000 0.000000 1.000000
vn 0.000000 0.000000 1.000000
vn 0.000000 0.000000 1.000000
vn 0.000000 0.000000 1.000000
vn 0.023622 -0.929134 0.370079
vn 0.039370 -0.874016 -0.480315
vn -0.031496 -0.952756 -0.307086
vn -0.023622 -0.913386 0.417323
vn 0.015748 -0.000000 -1.000000
vn 0.031496 0.007874 -1.000000
vn -0.015748 0.007874 -1.000000
vn -0.023622 -0.007874 -1.000000
vn -0.031496 -0.000000 -1.000000
vn -0.023622 -0.000000 -1.000000
vn 0.015748 0.007874 -1.000000
vn 0.031496 -0.000000 -1.000000
vn 0.000000 -0.433071 0.897638
vn -0.007874 0.606299 0.795275
vn 0.007874 0.913386 -0.401575
vn -0.007874 -0.795276 -0.606299
vn 0.000000 -0.992126 0.094488
vn 0.000000 -0.984252 0.188976
vn 0.259843 -0.000000 -0.968504
vn 0.944882 -0.007874 0.330709
vn 0.874016 -0.023622 0.488189
vn 0.251969 -0.031496 -0.968504
vn -0.031496 -0.000000 -1.000000
vn -0.275591 -0.039370 -0.960630
vn -0.039370 -0.000000 -1.000000
vn -0.015748 -0.000000 -1.000000
vn 0.007874 -0.000000 -1.000000
vn -0.007874 -0.000000 -1.000000
vn 0.023622 -0.000000 -1.000000
vn 0.015748 -0.000000 -1.000000
vn -0.188976 -0.000000 -0.984252
vn 0.031496 -0.000000 -1.000000
vn -0.173228 -0.086614 0.984252
vn -0.062992 0.055118 1.000000
vn 0.157480 0.039370 0.984252
vn 0.173228 -0.031496 0.984252
vn 0.015748 0.062992 1.000000
vn 0.007874 -0.062992 1.000000
vn 0.007874 0.062992 1.000000
vn -0.133858 0.039370 0.992126
vn 0.015748 -0.062992 1.000000
vn -0.007874 0.023622 1.000000
vn -0.133858 -0.039370 0.992126
vn -0.023622 -0.047244 1.000000
tan 0.000000 1.000000 -0.000000 1.000000
tan 0.000000 1.000000 -0.000000 1.000000
tan -0.007874 1.000000 -0.000000 1.000000
tan 0.000000 1.000000 -0.000000 1.000000
tan -0.007874 1.000000 -0.000000 1.000000
tan 0.000000 1.000000 -0.000000 1.000000
tan 0.000000 1.000000 -0.000000 1.000000
tan 0.000000 1.000000 -0.000000 1.000000
tan 0.937876 0.023622 -0.000558 1.000000
tan 0.915618 0.046934 -0.010354 1.000000
tan 0.955174 -0.036332 0.014756 1.000000
tan 0.929816 -0.023622 0.000930 1.000000
tan -0.007874 1.000000 -0.000124 1.000000
tan 0.000000 1.000000 0.007874 1.000000
tan 0.000000 1.000000 0.007874 1.000000
tan 0.000000 1.000000 -0.007874 1.000000
tan 0.000000 1.000000 -0.000000 1.000000
tan 0.000000 1.000000 -0.000000 1.000000
tan 0.000000 1.000000 0.007874 1.000000
tan 0.000000 1.000000 -0.000000 1.000000
tan 0.921508 0.000000 0.000000 1.000000
tan 1.002170 0.005208 0.005952 1.000000
tan 0.938682 -0.007874 0.000496 1.000000
tan 0.982702 -0.007130 -0.003410 1.000000
tan 0.992126 0.000000 0.000000 1.000000
tan 0.984252 0.000000 0.000000 1.000000
tan 0.000000 0.972596 -0.000000 1.000000
tan 0.007874 0.950090 0.000124 1.000000
tan 0.046500 0.928638 -0.038316 1.000000
tan 0.000496 0.972472 -0.031496 1.000000
tan 0.000000 1.000000 -0.000000 1.000000
tan -0.008494 0.967140 -0.037200 1.000000
tan 0.007874 1.000000 -0.000310 1.000000
tan 0.000000 1.000000 -0.000000 1.000000
tan 0.000000 1.000000 -0.000000 1.000000
tan 0.000000 1.000000 -0.000000 1.000000
tan -0.007874 1.000000 -0.000186 1.000000
tan 0.000000 1.000000 -0.000000 1.000000
tan 0.000000 0.985740 -0.000000 1.000000
tan 0.000000 1.000000 -0.000000 1.000000
tan -0.016182 0.985616 0.083886 1.000000
tan 0.007874 1.000000 -0.054622 1.000000
tan 0.000000 0.984252 -0.039370 1.000000
tan -0.007750 0.984252 0.032860 1.000000
tan 0.000000 1.000000 -0.062992 1.000000
tan 0.000000 1.000000 0.062992 1.000000
tan 0.000000 1.000000 -0.062992 1.000000
tan 0.000000 0.992126 -0.039370 1.000000
tan 0.000000 1.000000 0.062992 1.000000
tan 0.000000 1.000000 -0.023622 1.000000
tan 0.007812 0.992126 0.040424 1.000000
tan -0.007874 1.000000 0.047058 1.000000
f 3/3/3 2/2/2 1/1/1
f 4/4/4 2/2/2 3/3/3
f 7/7/7 6/6/6 5/5/5
f 5/5/5 8/8/8 7/7/7
f 11/11/11 10/10/10 9/9/9
f 11/11/11 9/9/9 12/12/12
f 15/15/15 14/14/14 13/13/13
f 13/13/13 16/16/16 15/15/15
f 19/19/19 18/18/18 17/17/17
f 20/20/20 18/18/18 19/19/19
f 23/23/23 22/22/22 21/21/21
f 24/24/24 22/22/22 23/23/23
f 25/25/25 24/24/24 23/23/23
f 26/26/26 24/24/24 25/25/25
f 29/29/29 28/28/28 27/27/27
f 28/28/28 30/30/30 27/27/27
f 30/30/30 31/31/31 27/27/27
f 30/30/30 32/32/32 31/31/31
f 33/33/33 27/27/27 31/31/31
f 34/34/34 27/27/27 33/33/33
f 35/35/35 31/31/31 32/32/32
f 36/36/36 27/27/27 34/34/34
f 36/36/36 34/34/34 35/35/35
f 36/36/36 37/37/37 27/27/27
f 35/35/35 38/38/38 36/36/36
f 32/32/32 38/38/38 35/35/35
f 39/39/39 27/27/27 37/37/37
f 38/38/38 32/32/32 40/40/40
f 37/37/37 40/40/40 39/39/39
f 40/40/40 32/32/32 39/39/39
f 41/41/41 39/39/39 32/32/32
f 42/42/42 41/41/41 32/32/32
f 42/42/42 43/43/43 41/41/41
f 44/44/44 41/41/41 43/43/43
f 45/45/45 43/43/43 42/42/42
f 46/46/46 41/41/41 44/44/44
f 47/47/47 45/45/45 42/42/42
f 47/47/47 46/46/46 45/45/45
f 47/47/47 42/42/42 48/48/48
f 49/49/49 46/46/46 47/47/47
f 46/46/46 49/49/49 41/41/41
f 50/50/50 48/48/48 42/42/42
f 49/49/49 51/51/51 41/41/41
f 50/50/50 52/52/52 48/48/48
f 52/52/52 41/41/41 51/51/51
f 51/51/51 48/48/48 52/52/52
