mtllib SM_Food_SM_Orange_LOD1.mtl
g SM_Food_SM_Orange_LOD1
#Vertices 66
#Indices 222
#Section 0 Offset 0 NumIndices 222 MaterialIndex 0 MI_Food
v 0.026965 -0.005174 0.010120
v -0.003033 -0.002578 0.003196
v -0.005750 -0.003159 0.018177
v 0.037391 0.002687 0.022642
v -0.007916 0.007486 0.043939
v 0.036322 0.029939 0.045110
v 0.049713 0.021038 0.022335
v 0.057423 0.043761 0.018790
v 0.050150 0.052379 0.026448
v 0.030749 0.063818 0.045476
v 0.006514 0.046050 0.057304
v -0.010347 0.071741 0.049950
v -0.033600 0.032268 0.047424
v -0.041655 0.065983 0.026803
v -0.038690 0.005664 0.015177
v -0.005750 -0.003159 0.018177
v -0.003033 -0.002578 0.003196
v -0.037948 0.004304 -0.009598
v -0.047939 0.028272 -0.020276
v -0.054510 0.041952 0.016282
v -0.052041 0.061464 0.002443
v -0.046381 0.045119 -0.024634
v 0.037787 0.085990 0.012231
v 0.057423 0.043761 0.018790
v 0.050150 0.052379 0.026448
v 0.030749 0.063818 0.045476
v 0.011729 0.089709 0.032395
v 0.008608 0.095591 -0.003412
v -0.010347 0.071741 0.049950
v -0.024891 0.091025 0.017552
v -0.041655 0.065983 0.026803
v -0.031069 0.087008 -0.016699
v -0.052041 0.061464 0.002443
v -0.046381 0.045119 -0.024634
v 0.049713 0.021038 0.022335
v 0.057423 0.043761 0.018790
v 0.057201 0.043331 -0.006182
v 0.051534 0.019748 -0.018661
v 0.035436 0.053798 -0.043397
v 0.026965 -0.005174 0.010120
v 0.037391 0.002687 0.022642
v 0.030685 0.023674 -0.044367
v 0.010804 0.045695 -0.053149
v 0.025998 -0.003035 -0.015976
v -0.000778 0.008959 -0.045310
v -0.011103 0.044535 -0.053233
v -0.006659 -0.005165 -0.020919
v -0.003033 -0.002578 0.003196
v -0.037948 0.004304 -0.009598
v -0.030559 0.022487 -0.040453
v -0.032295 0.050730 -0.040938
v -0.047939 0.028272 -0.020276
v -0.046381 0.045119 -0.024634
v -0.031069 0.087008 -0.016699
v -0.046381 0.045119 -0.024634
v -0.032295 0.050730 -0.040938
v -0.006878 0.074751 -0.045375
v -0.011103 0.044535 -0.053233
v 0.010804 0.045695 -0.053149
v 0.035436 0.053798 -0.043397
v 0.018445 0.087459 -0.029188
v 0.008608 0.095591 -0.003412
v 0.037787 0.085990 0.012231
v 0.043598 0.078840 -0.012112
v 0.057201 0.043331 -0.006182
v 0.057423 0.043761 0.018790
vt 0.808594 0.740479
vt 0.796387 0.761963
vt 0.786621 0.755737
vt 0.805176 0.727539
vt 0.771484 0.740723
vt 0.786133 0.708740
vt 0.806152 0.708496
vt 0.803711 0.689453
vt 0.793457 0.686768
vt 0.769043 0.689209
vt 0.759766 0.711670
vt 0.736328 0.706055
vt 0.746582 0.738525
vt 0.717773 0.736816
vt 0.755371 0.766479
vt 0.780273 0.760986
vt 0.782715 0.772827
vt 0.753418 0.784058
vt 0.730469 0.786133
vt 0.727539 0.756958
vt 0.710938 0.759277
vt 0.716309 0.785767
vt 0.440918 0.794800
vt 0.475830 0.787964
vt 0.470459 0.795898
vt 0.462646 0.816650
vt 0.437256 0.819092
vt 0.413330 0.804810
vt 0.443115 0.843384
vt 0.415039 0.834961
vt 0.416260 0.858154
vt 0.389404 0.831299
vt 0.395264 0.859497
vt 0.370850 0.860352
vt 0.482666 0.803711
vt 0.484131 0.784546
vt 0.504395 0.783325
vt 0.511719 0.800781
vt 0.541992 0.784180
vt 0.496094 0.831299
vt 0.484375 0.821777
vt 0.534668 0.805786
vt 0.558105 0.803711
vt 0.514648 0.825439
vt 0.543457 0.828369
vt 0.568848 0.819702
vt 0.529785 0.843750
vt 0.513672 0.851929
vt 0.543945 0.865723
vt 0.560547 0.843018
vt 0.580566 0.837646
vt 0.566895 0.861694
vt 0.579590 0.855835
vt 0.800781 0.903015
vt 0.771484 0.882751
vt 0.785156 0.872925
vt 0.810059 0.875488
vt 0.797363 0.856812
vt 0.813965 0.850220
vt 0.835449 0.851929
vt 0.832031 0.881714
vt 0.835938 0.902771
vt 0.863770 0.892883
vt 0.854004 0.876831
vt 0.870605 0.854370
vt 0.887207 0.864258
vt1 0.522949 0.750000
vt1 0.458740 0.863525
vt1 0.406006 0.830811
vt1 0.505371 0.681152
vt1 0.326904 0.751099
vt1 0.402832 0.580566
vt1 0.509766 0.579590
vt1 0.496338 0.479004
vt1 0.441650 0.464355
vt1 0.312012 0.477539
vt1 0.264893 0.597168
vt1 0.138062 0.567139
vt1 0.193848 0.739258
vt1 0.040192 0.730469
vt1 0.240112 0.887512
vt1 0.372803 0.858521
vt1 0.386963 0.921143
vt1 0.230347 0.980591
vt1 0.106873 0.991936
vt1 0.093262 0.837402
vt1 0.004616 0.849609
vt1 0.032349 0.989830
vt1 0.798828 0.643555
vt1 0.983887 0.607422
vt1 0.954590 0.649170
vt1 0.913574 0.759644
vt1 0.779785 0.772583
vt1 0.653320 0.696777
vt1 0.811035 0.901489
vt1 0.661133 0.857056
vt1 0.667969 0.980392
vt1 0.525879 0.837524
vt1 0.557129 0.987373
vt1 0.427246 0.991936
vt1 0.527344 0.145996
vt1 0.519531 0.043945
vt1 0.411377 0.037109
vt1 0.371582 0.130371
vt1 0.212158 0.042480
vt1 0.456299 0.292480
vt1 0.518066 0.241699
vt1 0.249634 0.156738
vt1 0.125977 0.145996
vt1 0.357178 0.261230
vt1 0.204468 0.276855
vt1 0.068298 0.230957
vt1 0.276123 0.358887
vt1 0.362305 0.402344
vt1 0.202393 0.475586
vt1 0.113647 0.354980
vt1 0.008064 0.326172
vt1 0.079895 0.454102
vt1 0.012764 0.422852
vt1 0.547363 0.513672
vt1 0.654785 0.669434
vt1 0.707031 0.597168
vt1 0.693359 0.463867
vt1 0.792480 0.531494
vt1 0.827637 0.444824
vt1 0.817871 0.329590
vt1 0.660156 0.347168
vt1 0.548340 0.326660
vt1 0.600586 0.178711
vt1 0.686035 0.232422
vt1 0.805664 0.142578
vt1 0.752930 0.055664
vn 0.354331 -0.929134 0.118110
vn -0.118110 -0.992126 0.039370
vn -0.118110 -0.984252 0.118110
vn 0.543307 -0.748031 0.377953
vn -0.157480 -0.669291 0.724409
vn 0.598425 -0.283464 0.748031
vn 0.795276 -0.393701 0.464567
vn 0.952756 -0.047244 0.299213
vn 0.826772 0.173228 0.535433
vn 0.496063 0.362205 0.787401
vn 0.078740 0.062992 0.992126
vn -0.196850 0.464567 0.866142
vn -0.590551 -0.196850 0.779527
vn -0.763780 0.425197 0.488189
vn -0.653543 -0.724409 0.212598
vn -0.118110 -0.984252 0.118110
vn -0.118110 -0.992126 0.039370
vn -0.629921 -0.763779 -0.125984
vn -0.889764 -0.259843 -0.377953
vn -0.968504 -0.031496 0.244094
vn -0.937008 0.346457 -0.007874
vn -0.858268 0.078740 -0.503937
vn 0.629921 0.755905 0.196850
vn 0.944882 0.039370 0.322835
vn 0.826772 0.173228 0.535433
vn 0.519685 0.370079 0.771653
vn 0.181102 0.834646 0.519685
vn 0.110236 0.992126 -0.070866
vn -0.196850 0.488189 0.850394
vn -0.417323 0.874016 0.244094
vn -0.763780 0.425197 0.488189
vn -0.519685 0.795275 -0.314961
vn -0.937008 0.346457 -0.000000
vn -0.858268 0.078740 -0.503937
vn 0.811024 -0.425197 0.393701
vn 0.944882 -0.055118 0.314961
vn 0.992126 0.047244 -0.141732
vn 0.834646 -0.425197 -0.338583
vn 0.614173 0.236220 -0.755905
vn 0.354331 -0.929134 0.118110
vn 0.598425 -0.708661 0.377953
vn 0.503937 -0.377953 -0.779527
vn 0.173228 0.055118 -0.984252
vn 0.346457 -0.889764 -0.299212
vn -0.055118 -0.614173 -0.787401
vn -0.259843 0.062992 -0.960630
vn -0.165354 -0.952756 -0.259842
vn -0.118110 -0.992126 0.039370
vn -0.637795 -0.755905 -0.157480
vn -0.566929 -0.385827 -0.724409
vn -0.622047 0.204724 -0.755905
vn -0.889764 -0.259843 -0.377953
vn -0.858268 0.078740 -0.503937
vn -0.527559 0.779527 -0.330709
vn -0.858268 0.078740 -0.503937
vn -0.622047 0.204724 -0.755905
vn -0.149606 0.582677 -0.795276
vn -0.259843 0.062992 -0.960630
vn 0.173228 0.055118 -0.984252
vn 0.606299 0.244094 -0.755905
vn 0.314961 0.795275 -0.519685
vn 0.102362 0.992126 -0.007874
vn 0.590551 0.787401 0.196850
vn 0.740157 0.614173 -0.275591
vn 0.992126 0.047244 -0.141732
vn 0.952756 0.055118 0.307087
tan 0.795586 0.364561 0.481121 1.000000
tan 0.757766 -0.064790 0.640585 1.000000
tan 0.729431 -0.007440 0.667431 1.000000
tan 0.709901 0.644677 0.255440 1.000000
tan 0.145266 0.704321 0.682311 1.000000
tan 0.694153 0.487693 -0.370513 1.000000
tan 0.522537 0.785417 -0.228905 1.000000
tan 0.170004 0.862732 -0.405109 1.000000
tan 0.199268 0.753363 -0.551429 1.000000
tan 0.550437 0.572943 -0.610329 1.000000
tan 0.640585 0.757765 -0.098952 1.000000
tan 0.506169 0.725401 -0.274041 1.000000
tan 0.759564 0.182652 0.621551 1.000000
tan 0.648893 0.471263 0.604749 1.000000
tan -0.150908 0.400893 0.902102 1.000000
tan 0.162750 0.096720 0.968752 1.000000
tan 0.140616 0.022320 0.984314 1.000000
tan -0.538781 0.321409 0.745365 1.000000
tan -0.430591 0.216319 0.864964 1.000000
tan 0.210056 0.396553 0.884618 1.000000
tan 0.206584 0.575547 0.740529 1.000000
tan -0.475913 0.207452 0.842954 1.000000
tan 0.732531 -0.502201 -0.415649 1.000000
tan 0.325005 -0.052080 -0.944882 1.000000
tan 0.555769 -0.100316 -0.825718 1.000000
tan 0.767748 0.159712 -0.593651 1.000000
tan 0.487817 0.340877 -0.717465 1.000000
tan 0.874946 -0.130696 -0.468721 1.000000
tan 0.359725 0.781387 -0.365305 1.000000
tan 0.818960 0.477525 -0.309691 1.000000
tan 0.455577 0.867754 -0.043028 1.000000
tan 0.807676 0.502325 -0.064294 1.000000
tan 0.335545 0.907496 -0.221341 1.000000
tan 0.394941 0.695951 -0.563891 1.000000
tan 0.514105 0.800979 -0.193998 1.000000
tan 0.146754 0.900242 -0.282721 1.000000
tan -0.041664 0.992126 0.039060 1.000000
tan 0.453841 0.833406 0.072168 1.000000
tan 0.602269 0.483973 0.640585 1.000000
tan 0.918222 0.327361 -0.179428 1.000000
tan 0.736189 0.648521 0.050344 1.000000
tan 0.617707 0.629239 0.094240 1.000000
tan 0.720751 0.666501 0.164176 1.000000
tan 0.808110 0.440573 -0.374419 1.000000
tan 0.332197 0.726827 -0.590179 1.000000
tan 0.878418 0.389857 -0.212040 1.000000
tan 0.773390 0.022692 -0.575361 1.000000
tan 0.843698 -0.121210 -0.523405 1.000000
tan 0.736561 -0.558001 -0.304668 1.000000
tan 0.705375 0.194432 -0.655589 1.000000
tan 0.774630 0.140678 -0.599355 1.000000
tan 0.382045 0.009796 -0.906132 1.000000
tan 0.510261 0.163370 -0.843512 1.000000
tan -0.125178 -0.443859 -0.846550 1.000000
tan 0.413665 -0.434001 -0.772335 1.000000
tan 0.599789 -0.493583 -0.627255 1.000000
tan 0.103106 -0.786658 -0.595759 1.000000
tan 0.528489 -0.805878 -0.195796 1.000000
tan 0.349185 -0.923616 0.009734 1.000000
tan 0.046748 -0.921942 -0.260214 1.000000
tan 0.329717 -0.603633 -0.723913 1.000000
tan 0.609337 -0.069068 -0.781201 1.000000
tan 0.779652 -0.528551 -0.224750 1.000000
tan 0.554095 -0.761733 -0.209436 1.000000
tan -0.024180 -0.874946 -0.460909 1.000000
tan 0.254697 -0.685101 -0.667245 1.000000
f 3/3/3 2/2/2 1/1/1
f 3/3/3 1/1/1 4/4/4
f 5/5/5 3/3/3 4/4/4
f 6/6/6 5/5/5 4/4/4
f 4/4/4 7/7/7 6/6/6
f 8/8/8 6/6/6 7/7/7
f 6/6/6 8/8/8 9/9/9
f 6/6/6 9/9/9 10/10/10
f 6/6/6 10/10/10 11/11/11
f 5/5/5 6/6/6 11/11/11
f 11/11/11 10/10/10 12/12/12
f 12/12/12 13/13/13 11/11/11
f 13/13/13 5/5/5 11/11/11
f 13/13/13 12/12/12 14/14/14
f 5/5/5 13/13/13 15/15/15
f 15/15/15 16/16/16 5/5/5
f 16/16/16 15/15/15 17/17/17
f 15/15/15 18/18/18 17/17/17
f 15/15/15 19/19/19 18/18/18
f 14/14/14 20/20/20 13/13/13
f 15/15/15 13/13/13 20/20/20
f 15/15/15 20/20/20 19/19/19
f 20/20/20 14/14/14 21/21/21
f 19/19/19 20/20/20 22/22/22
f 21/21/21 22/22/22 20/20/20
f 25/25/25 24/24/24 23/23/23
f 25/25/25 23/23/23 26/26/26
f 27/27/27 26/26/26 23/23/23
f 23/23/23 28/28/28 27/27/27
f 26/26/26 27/27/27 29/29/29
f 27/27/27 28/28/28 30/30/30
f 27/27/27 30/30/30 29/29/29
f 31/31/31 29/29/29 30/30/30
f 28/28/28 32/32/32 30/30/30
f 30/30/30 33/33/33 31/31/31
f 32/32/32 33/33/33 30/30/30
f 33/33/33 32/32/32 34/34/34
f 37/37/37 36/36/36 35/35/35
f 38/38/38 37/37/37 35/35/35
f 38/38/38 39/39/39 37/37/37
f 35/35/35 41/41/41 40/40/40
f 40/40/40 38/38/38 35/35/35
f 39/39/39 38/38/38 42/42/42
f 39/39/39 42/42/42 43/43/43
f 40/40/40 44/44/44 38/38/38
f 42/42/42 38/38/38 44/44/44
f 43/43/43 42/42/42 45/45/45
f 44/44/44 45/45/45 42/42/42
f 43/43/43 45/45/45 46/46/46
f 47/47/47 44/44/44 40/40/40
f 45/45/45 44/44/44 47/47/47
f 48/48/48 47/47/47 40/40/40
f 48/48/48 49/49/49 47/47/47
f 49/49/49 45/45/45 47/47/47
f 50/50/50 46/46/46 45/45/45
f 45/45/45 49/49/49 50/50/50
f 46/46/46 50/50/50 51/51/51
f 49/49/49 52/52/52 50/50/50
f 51/51/51 50/50/50 53/53/53
f 52/52/52 53/53/53 50/50/50
f 56/56/56 55/55/55 54/54/54
f 56/56/56 54/54/54 57/57/57
f 57/57/57 58/58/58 56/56/56
f 58/58/58 57/57/57 59/59/59
f 60/60/60 59/59/59 57/57/57
f 54/54/54 61/61/61 57/57/57
f 57/57/57 61/61/61 60/60/60
f 61/61/61 54/54/54 62/62/62
f 61/61/61 62/62/62 63/63/63
f 61/61/61 64/64/64 60/60/60
f 61/61/61 63/63/63 64/64/64
f 65/65/65 60/60/60 64/64/64
f 66/66/66 64/64/64 63/63/63
f 65/65/65 64/64/64 66/66/66
