mtllib SM_Frames_03_LOD2.mtl
g SM_Frames_03_LOD2
#Vertices 44
#Indices 66
#Section 0 Offset 0 NumIndices 66 MaterialIndex 0 MI_Frames
v -0.002235 0.044827 -0.145082
v -0.008249 -0.000014 -0.182387
v 0.010117 0.000918 -0.182033
v -0.003261 -0.009705 0.182518
v -0.008260 0.037512 0.146054
v 0.010161 0.036471 0.146427
v 0.010006 0.401320 0.182024
v 0.000352 0.406304 0.184508
v -0.002752 0.365455 0.138010
v 0.010049 0.000585 0.183526
v 0.007686 0.036939 0.144364
v -0.008228 0.000114 0.184211
v -0.002439 0.365559 -0.140749
v -0.008226 0.403435 -0.184216
v 0.010145 0.403022 -0.183159
v -0.003494 0.000099 -0.193637
v -0.008226 0.037052 -0.147967
v 0.010191 0.036623 -0.149136
v 0.001768 0.369264 -0.148187
v 0.001768 0.036819 -0.148187
v 0.001768 0.369264 0.148341
v 0.001768 0.036819 0.148341
v 0.008329 0.409282 -0.185096
v 0.007958 0.362945 0.145881
v -0.001866 0.419397 0.182680
v -0.002520 0.356341 -0.145014
v -0.008260 0.037512 0.146054
v -0.002235 0.044827 -0.145082
v 0.010161 0.036471 0.146427
v 0.010117 0.000918 -0.182033
v -0.003261 -0.009705 0.182518
v -0.008249 -0.000014 -0.182387
v 0.000352 0.406304 0.184508
v 0.010049 0.000585 0.183526
v -0.008228 0.000114 0.184211
v 0.010006 0.401320 0.182024
v 0.007686 0.036939 0.144364
v -0.002752 0.365455 0.138010
v -0.003494 0.000099 -0.193637
v 0.010145 0.403022 -0.183159
v -0.008226 0.403435 -0.184216
v 0.010191 0.036623 -0.149136
v -0.002439 0.365559 -0.140749
v -0.008226 0.037052 -0.147967
vt 0.338867 0.811279
vt 0.346680 0.902222
vt 0.321289 0.900879
vt 0.339355 0.809448
vt 0.346680 0.902344
vt 0.321045 0.900818
vt 0.348877 0.898315
vt 0.335938 0.905640
vt 0.331055 0.807495
vt 0.349121 0.821167
vt 0.345459 0.906860
vt 0.323486 0.820312
vt 0.339111 0.810913
vt 0.346680 0.902771
vt 0.321045 0.901184
vt 0.339844 0.809326
vt 0.346680 0.902893
vt 0.321045 0.901123
vt 0.000000 0.688721
vt 0.000000 0.455078
vt 0.208618 0.688721
vt 0.208618 0.455078
vt 0.447266 0.931335
vt 0.416260 0.695801
vt 0.453613 0.669678
vt 0.410889 0.902710
vt 0.509766 0.695557
vt 0.504883 0.902832
vt 0.497559 0.695312
vt 0.472656 0.929138
vt 0.464355 0.669678
vt 0.460205 0.929382
vt 0.809570 0.956512
vt 0.803711 0.667969
vt 0.815918 0.667480
vt 0.802734 0.952972
vt 0.776855 0.693848
vt 0.771484 0.927368
vt 0.720215 0.667480
vt 0.728516 0.954163
vt 0.715820 0.954468
vt 0.752441 0.693604
vt 0.759766 0.927551
vt 0.764648 0.693848
vt1 0.299805 0.349609
vt1 0.180298 0.360352
vt1 0.182007 0.326172
vt1 0.031769 0.246094
vt1 0.041473 0.368652
vt1 0.007526 0.366211
vt1 0.463623 0.363281
vt1 0.446289 0.372559
vt1 0.439941 0.245117
vt1 0.334717 0.262695
vt1 0.329834 0.374512
vt1 0.301025 0.261719
vt1 0.186157 0.285645
vt1 0.066772 0.295898
vt1 0.068848 0.261719
vt1 0.386963 0.247070
vt1 0.396240 0.369141
vt1 0.362061 0.366699
vt1 0.008064 0.991936
vt1 0.008064 0.389160
vt1 0.545898 0.991936
vt1 0.545898 0.389160
vt1 0.003275 0.210449
vt1 0.603516 0.129883
vt1 0.669922 0.227051
vt1 0.076233 0.115723
vt1 0.992188 0.395996
vt1 0.978516 0.924072
vt1 0.959473 0.395508
vt1 0.894531 0.991104
vt1 0.873047 0.330078
vt1 0.862305 0.991753
vt1 0.828125 0.996946
vt1 0.812500 0.261230
vt1 0.844727 0.260254
vt1 0.810547 0.987907
vt1 0.742188 0.327148
vt1 0.728027 0.922668
vt1 0.582520 0.260254
vt1 0.604492 0.990997
vt1 0.571777 0.991745
vt1 0.666504 0.326660
vt1 0.686035 0.923035
vt1 0.699219 0.327148
vn 0.000000 0.692913 -0.716535
vn 0.000000 0.692913 -0.716535
vn 0.000000 0.692913 -0.716535
vn 0.000000 0.700787 0.716535
vn 0.000000 0.700787 0.716535
vn 0.000000 0.700787 0.716535
vn 0.000000 0.700787 -0.716535
vn 0.000000 0.700787 -0.716535
vn 0.000000 0.700787 -0.716535
vn 0.000000 -0.700787 -0.716535
vn 0.000000 -0.700787 -0.716535
vn 0.000000 -0.700787 -0.716535
vn 0.000000 0.700787 0.716535
vn 0.000000 0.700787 0.716535
vn 0.000000 0.700787 0.716535
vn 0.000000 -0.700787 0.716535
vn 0.000000 -0.700787 0.716535
vn 0.000000 -0.700787 0.716535
vn 1.000000 0.000000 0.000000
vn 1.000000 0.000000 0.000000
vn 1.000000 0.000000 0.000000
vn 1.000000 0.000000 0.000000
vn 0.897638 0.433071 -0.000000
vn 0.952756 -0.299213 0.000000
vn 0.543307 0.834646 -0.000000
vn 0.614173 -0.787401 0.000000
vn 0.000000 1.000000 -0.000000
vn 0.417323 0.905512 -0.000000
vn 0.976378 0.228346 -0.000000
vn 0.921260 -0.393701 0.000000
vn 0.322835 -0.944882 0.000000
vn 0.000000 -1.000000 0.000000
vn -0.141732 0.000000 0.992126
vn 0.834646 0.000000 0.559055
vn 0.000000 0.000000 1.000000
vn 0.984252 0.000000 0.157480
vn 0.944882 -0.000000 -0.322835
vn 0.590551 -0.000000 -0.803149
vn 0.291339 -0.000000 -0.952756
vn 0.913386 -0.000000 -0.409449
vn 0.000000 -0.000000 -1.000000
vn 0.968504 0.000000 0.236220
vn 0.401575 0.000000 0.913386
vn 0.000000 0.000000 1.000000
tan -0.261269 0.693967 0.671089 1.000000
tan -0.344411 0.671399 0.649265 1.000000
tan 0.288921 0.688325 0.665633 1.000000
tan -0.279249 -0.688325 0.673197 1.000000
tan -0.329531 -0.677041 0.662161 1.000000
tan 0.290409 -0.688325 0.673197 1.000000
tan 0.747970 -0.473929 -0.463513 1.000000
tan 0.162006 -0.705251 -0.689751 1.000000
tan 0.202430 -0.648831 -0.634571 1.000000
tan 0.722053 -0.016926 0.016554 1.000000
tan 0.364003 -0.665757 0.651125 1.000000
tan 0.078492 -0.716535 0.700787 1.000000
tan -0.128402 -0.710893 0.695269 1.000000
tan -0.351727 -0.671399 0.656643 1.000000
tan 0.173042 -0.705251 0.689751 1.000000
tan -0.134044 -0.710893 -0.695269 1.000000
tan -0.351727 -0.671399 -0.656643 1.000000
tan 0.173042 -0.705251 -0.689751 1.000000
tan 0.000000 -1.000000 0.000000 1.000000
tan 0.000000 -1.000000 0.000000 1.000000
tan 0.000000 -1.000000 0.000000 1.000000
tan 0.000000 -1.000000 0.000000 1.000000
tan 0.000000 0.000000 0.921508 1.000000
tan 0.000000 0.000000 0.959824 1.000000
tan 0.000000 0.000000 0.999008 1.000000
tan 0.000000 0.000000 0.996590 1.000000
tan 0.000000 0.000000 1.000000 1.000000
tan 0.000000 0.000000 0.954244 1.000000
tan 0.000000 0.000000 0.979974 1.000000
tan 0.000000 0.000000 0.939860 1.000000
tan 0.000000 0.000000 0.960134 1.000000
tan 0.000000 0.000000 1.000000 1.000000
tan 0.000000 -0.992126 0.000000 1.000000
tan 0.000000 -0.942588 0.000000 1.000000
tan 0.000000 -1.000000 0.000000 1.000000
tan 0.000000 -0.985492 0.000000 1.000000
tan 0.000000 -0.955050 0.000000 1.000000
tan 0.000000 -0.997148 0.000000 1.000000
tan 0.000000 -0.961932 0.000000 1.000000
tan 0.000000 -0.935954 0.000000 1.000000
tan 0.000000 -1.000000 0.000000 1.000000
tan 0.000000 -0.972224 0.000000 1.000000
tan 0.000000 -0.950462 0.000000 1.000000
tan 0.000000 -1.000000 0.000000 1.000000
f 3/3/3 2/2/2 1/1/1
f 6/6/6 5/5/5 4/4/4
f 9/9/9 8/8/8 7/7/7
f 12/12/12 11/11/11 10/10/10
f 15/15/15 14/14/14 13/13/13
f 18/18/18 17/17/17 16/16/16
f 21/21/21 20/20/20 19/19/19
f 21/21/21 22/22/22 20/20/20
f 25/25/25 24/24/24 23/23/23
f 26/26/26 23/23/23 24/24/24
f 29/29/29 28/28/28 27/27/27
f 28/28/28 29/29/29 30/30/30
f 29/29/29 31/31/31 30/30/30
f 32/32/32 30/30/30 31/31/31
f 35/35/35 34/34/34 33/33/33
f 36/36/36 33/33/33 34/34/34
f 34/34/34 37/37/37 36/36/36
f 38/38/38 36/36/36 37/37/37
f 41/41/41 40/40/40 39/39/39
f 42/42/42 39/39/39 40/40/40
f 43/43/43 42/42/42 40/40/40
f 44/44/44 42/42/42 43/43/43
