mtllib SM_Frames_01_LOD1.mtl
g SM_Frames_01_LOD1
#Vertices 68
#Indices 132
#Section 0 Offset 0 NumIndices 132 MaterialIndex 0 MI_Frames
v -0.002534 0.397407 -0.313132
v -0.008212 0.435337 -0.356725
v 0.010147 0.434923 -0.355660
v -0.003570 0.000139 -0.366145
v -0.008209 0.037054 -0.320475
v 0.010191 0.036622 -0.321645
v 0.010093 0.001297 0.356048
v 0.007713 0.037049 0.316897
v -0.008204 0.001467 0.356802
v 0.001768 0.401166 0.320850
v 0.001768 0.401166 -0.320696
v 0.001768 0.036819 -0.320696
v 0.001768 0.036819 0.320850
v -0.008144 0.398372 -0.319911
v -0.008132 0.398324 0.318554
v 0.008005 0.398323 0.318542
v 0.010048 0.398960 -0.319518
v 0.010006 0.400324 0.320487
v 0.010006 0.433837 -0.353062
v 0.010036 0.435238 0.354465
v 0.008005 0.435837 -0.355001
v -0.008140 0.435842 0.354886
v -0.008125 0.435839 -0.354990
v -0.008139 -0.000007 -0.354890
v -0.008140 -0.000009 0.354889
v 0.008005 0.000000 0.355001
v 0.008005 -0.000000 -0.355001
v 0.010006 0.002001 0.353057
v 0.010006 0.002001 -0.353062
v 0.010006 0.035514 0.320487
v 0.010006 0.035514 -0.320579
v 0.008005 0.037515 0.318542
v 0.008005 0.037515 -0.318639
v -0.008131 0.037514 0.318552
v -0.008135 0.037514 -0.318651
v -0.003570 0.000139 -0.366145
v 0.010147 0.434923 -0.355660
v -0.008212 0.435337 -0.356725
v 0.010191 0.036622 -0.321645
v -0.002534 0.397407 -0.313132
v -0.008209 0.037054 -0.320475
v 0.008201 0.437916 0.362439
v 0.010093 0.001297 0.356048
v -0.008204 0.001467 0.356802
v 0.007713 0.037049 0.316897
v -0.002828 0.397294 0.310321
v 0.010048 0.398960 -0.319518
v -0.008125 0.435839 -0.354990
v -0.008144 0.398372 -0.319911
v 0.010006 0.433837 -0.353062
v 0.008005 0.435837 -0.355001
v 0.010036 0.435238 0.354465
v -0.008132 0.398324 0.318554
v -0.008140 0.435842 0.354886
v 0.010006 0.400324 0.320487
v 0.008005 0.398323 0.318542
v -0.008135 0.037514 -0.318651
v 0.010006 0.035514 -0.320579
v 0.008005 0.037515 -0.318639
v -0.008139 -0.000007 -0.354890
v 0.010006 0.002001 -0.353062
v 0.008005 -0.000000 -0.355001
v -0.008140 -0.000009 0.354889
v 0.010006 0.002001 0.353057
v 0.008005 0.000000 0.355001
v -0.008131 0.037514 0.318552
v 0.010006 0.035514 0.320487
v 0.008005 0.037515 0.318542
vt 0.331299 0.912048
vt 0.323730 0.820068
vt 0.349365 0.821655
vt 0.330566 0.913330
vt 0.323730 0.819946
vt 0.349365 0.821655
vt 0.349121 0.821655
vt 0.345459 0.907043
vt 0.323730 0.821533
vt 0.256348 0.000488
vt 0.256348 0.451660
vt 0.000000 0.451660
vt 0.000000 0.000488
vt 0.715820 0.480957
vt 0.715820 0.026367
vt 0.727539 0.026367
vt 0.728516 0.480469
vt 0.729004 0.024902
vt 0.752930 0.504150
vt 0.753418 0.000488
vt 0.754395 0.505615
vt 0.765625 0.000488
vt 0.765625 0.505615
vt 0.662109 0.722168
vt 0.662109 0.215332
vt 0.673828 0.215332
vt 0.673828 0.722168
vt 0.675293 0.216797
vt 0.675293 0.720703
vt 0.699219 0.239746
vt 0.699219 0.697510
vt 0.700684 0.241211
vt 0.700684 0.696289
vt 0.712402 0.241211
vt 0.712402 0.696289
vt 0.609863 0.395996
vt 0.618652 0.705322
vt 0.605957 0.705566
vt 0.642090 0.421875
vt 0.649902 0.678467
vt 0.654785 0.422363
vt 0.898926 0.774780
vt 0.895996 0.464355
vt 0.908203 0.464355
vt 0.869141 0.489746
vt 0.863281 0.745850
vt 0.348877 0.821777
vt 0.323975 0.902344
vt 0.323730 0.821899
vt 0.348877 0.898315
vt 0.348877 0.898315
vt 0.349121 0.821533
vt 0.323975 0.902344
vt 0.323730 0.820801
vt 0.348877 0.898315
vt 0.348877 0.898315
vt 0.346680 0.820679
vt 0.321533 0.824463
vt 0.321533 0.824463
vt 0.346436 0.902222
vt 0.321533 0.898315
vt 0.321533 0.898315
vt 0.712402 0.215332
vt 0.699219 0.216797
vt 0.700684 0.215332
vt 0.712402 0.241211
vt 0.699219 0.239746
vt 0.700684 0.241211
vt1 0.800781 0.280762
vt1 0.892090 0.272949
vt1 0.890625 0.298828
vt1 0.774902 0.281250
vt1 0.768066 0.187988
vt1 0.793945 0.189941
vt1 0.987305 0.347168
vt1 0.902344 0.343262
vt1 0.987793 0.321289
vt1 0.514160 0.101074
vt1 0.514160 0.991936
vt1 0.008064 0.991936
vt1 0.008064 0.101074
vt1 0.652832 0.943329
vt1 0.652832 0.058594
vt1 0.675293 0.058594
vt1 0.676758 0.942780
vt1 0.677734 0.056152
vt1 0.724609 0.989250
vt1 0.725586 0.009277
vt1 0.727051 0.991936
vt1 0.749512 0.008301
vt1 0.749512 0.991928
vt1 0.623047 0.991783
vt1 0.623047 0.008301
vt1 0.601074 0.008301
vt1 0.601074 0.991936
vt1 0.598145 0.011230
vt1 0.598145 0.989250
vt1 0.551758 0.056152
vt1 0.551758 0.944244
vt1 0.548828 0.058594
vt1 0.548828 0.941559
vt1 0.526367 0.058594
vt1 0.526367 0.941589
vt1 0.773438 0.387207
vt1 0.790527 0.991211
vt1 0.765625 0.991791
vt1 0.838379 0.437988
vt1 0.853027 0.939087
vt1 0.863281 0.438477
vt1 0.958008 0.995415
vt1 0.951172 0.389160
vt1 0.976074 0.389160
vt1 0.897949 0.438477
vt1 0.886719 0.938812
vt1 0.907715 0.395508
vt1 0.826172 0.370117
vt1 0.907227 0.369629
vt1 0.830566 0.395508
vt1 0.830566 0.395508
vt1 0.793945 0.285645
vt1 0.768066 0.367188
vt1 0.768066 0.285156
vt1 0.793457 0.363281
vt1 0.793457 0.363281
vt1 0.892578 0.344727
vt1 0.888672 0.319336
vt1 0.888672 0.319336
vt1 0.810547 0.344727
vt1 0.814453 0.319336
vt1 0.814453 0.319336
vt1 0.526367 0.008301
vt1 0.551758 0.011230
vt1 0.548828 0.008301
vt1 0.526367 0.058594
vt1 0.551758 0.056152
vt1 0.548828 0.058594
vn 0.000000 0.700787 0.716535
vn 0.000000 0.700787 0.716535
vn 0.000000 0.700787 0.716535
vn 0.000000 -0.700787 0.716535
vn 0.000000 -0.700787 0.716535
vn 0.000000 -0.700787 0.716535
vn 0.000000 -0.700787 -0.716535
vn 0.000000 -0.700787 -0.716535
vn 0.000000 -0.700787 -0.716535
vn 1.000000 0.000000 0.000000
vn 1.000000 0.000000 0.000000
vn 1.000000 0.000000 0.000000
vn 1.000000 0.000000 0.000000
vn 0.000000 -1.000000 0.000000
vn 0.000000 -1.000000 0.000000
vn 0.149606 -0.992126 0.000000
vn 0.905512 -0.425197 0.000000
vn 1.000000 -0.023622 0.000000
vn 0.992126 0.141732 -0.000000
vn 0.850394 0.527559 -0.000000
vn 0.070866 1.000000 -0.000000
vn 0.000000 1.000000 -0.000000
vn 0.000000 1.000000 -0.000000
vn 0.000000 -1.000000 0.000000
vn 0.000000 -1.000000 0.000000
vn 0.070866 -1.000000 0.000000
vn 0.070866 -1.000000 0.000000
vn 0.992126 -0.141732 0.000000
vn 0.992126 -0.141732 0.000000
vn 1.000000 0.023622 -0.000000
vn 1.000000 0.023622 -0.000000
vn 0.149606 0.992126 -0.000000
vn 0.149606 0.992126 -0.000000
vn 0.000000 1.000000 -0.000000
vn 0.000000 1.000000 -0.000000
vn 0.291339 -0.000000 -0.952756
vn 0.913386 -0.000000 -0.401575
vn 0.000000 -0.000000 -1.000000
vn 0.968504 0.000000 0.236220
vn 0.393701 0.000000 0.921260
vn 0.000000 0.000000 1.000000
vn 0.889764 0.000000 0.464567
vn 0.834646 0.000000 0.551181
vn 0.000000 0.000000 1.000000
vn 0.944882 -0.000000 -0.322835
vn 0.590551 -0.000000 -0.811023
vn 0.000000 -0.692913 -0.716535
vn 0.000000 -0.692913 -0.716535
vn 0.000000 -0.692913 -0.716535
vn 0.000000 -0.692913 -0.716535
vn 0.000000 -0.692913 -0.716535
vn 0.000000 -0.700787 0.716535
vn 0.000000 -0.700787 0.716535
vn 0.000000 -0.700787 0.716535
vn 0.000000 -0.700787 0.716535
vn 0.000000 -0.700787 0.716535
vn 0.000000 0.692913 -0.716535
vn 0.000000 0.692913 -0.716535
vn 0.000000 0.692913 -0.716535
vn 0.000000 0.692913 -0.716535
vn 0.000000 0.692913 -0.716535
vn 0.000000 0.692913 -0.716535
vn 0.000000 0.700787 0.716535
vn 0.000000 0.700787 0.716535
vn 0.000000 0.700787 0.716535
vn 0.000000 0.700787 0.716535
vn 0.000000 0.700787 0.716535
vn 0.000000 0.700787 0.716535
tan 0.290409 -0.688325 0.673197 1.000000
tan -0.117242 0.710893 -0.695269 1.000000
tan 0.340567 0.671399 -0.656643 1.000000
tan 0.323889 -0.677041 -0.662161 1.000000
tan -0.117242 0.710893 0.695269 1.000000
tan 0.340567 0.671399 0.656643 1.000000
tan -0.005642 -0.716535 0.700787 1.000000
tan 0.217806 -0.699609 0.684233 1.000000
tan 0.033480 -0.716535 0.700787 1.000000
tan 0.000000 0.000000 1.000000 1.000000
tan 0.000000 0.000000 1.000000 1.000000
tan 0.000000 0.000000 1.000000 1.000000
tan 0.000000 0.000000 1.000000 1.000000
tan 0.000000 0.000000 1.000000 1.000000
tan 0.000000 0.000000 1.000000 1.000000
tan 0.000000 0.000000 0.992126 1.000000
tan 0.000000 0.000000 0.941906 1.000000
tan 0.000000 0.000000 1.000000 1.000000
tan 0.000000 0.000000 0.992126 1.000000
tan 0.000000 0.000000 0.936698 1.000000
tan 0.000000 0.000000 1.000000 1.000000
tan 0.000000 0.000000 1.000000 1.000000
tan 0.000000 0.000000 1.000000 1.000000
tan 0.000000 0.000000 1.000000 1.000000
tan 0.000000 0.000000 1.000000 1.000000
tan 0.000000 0.000000 1.000000 1.000000
tan 0.000000 0.000000 1.000000 1.000000
tan 0.000000 0.000000 0.992126 1.000000
tan 0.000000 0.000000 0.992126 1.000000
tan 0.000000 0.000000 1.000000 1.000000
tan 0.000000 0.000000 1.000000 1.000000
tan 0.000000 0.000000 0.992126 1.000000
tan 0.000000 0.000000 0.992126 1.000000
tan 0.000000 0.000000 1.000000 1.000000
tan 0.000000 0.000000 1.000000 1.000000
tan 0.000000 -0.961932 0.000000 1.000000
tan 0.000000 -0.935520 0.000000 1.000000
tan 0.000000 -1.000000 0.000000 1.000000
tan 0.000000 -0.972224 0.000000 1.000000
tan 0.000000 -0.957406 0.000000 1.000000
tan 0.000000 -1.000000 0.000000 1.000000
tan 0.000000 -0.922686 0.000000 1.000000
tan 0.000000 -0.940790 0.000000 1.000000
tan 0.000000 -1.000000 0.000000 1.000000
tan 0.000000 -0.955050 0.000000 1.000000
tan 0.000000 -1.000682 0.000000 1.000000
tan -0.011098 -0.716535 0.692913 1.000000
tan 0.050034 -0.716535 0.692913 1.000000
tan 0.033294 -0.716535 0.692913 1.000000
tan 0.899684 -0.304669 0.294625 1.000000
tan -0.744125 0.479571 -0.463761 1.000000
tan 0.716535 0.022568 0.022072 1.000000
tan 0.055924 0.716535 0.700787 1.000000
tan 0.078492 0.716535 0.700787 1.000000
tan 0.893174 0.327237 0.320045 1.000000
tan -0.748093 -0.479571 -0.469031 1.000000
tan -0.722301 0.490855 0.474673 1.000000
tan 0.294377 0.682683 0.660177 1.000000
tan 0.000000 0.716535 0.692913 1.000000
tan -0.338955 0.671399 0.649265 1.000000
tan 0.499783 0.620621 0.600161 1.000000
tan 0.372063 0.665757 0.643809 1.000000
tan 0.000000 -0.716535 0.700787 1.000000
tan 0.000000 -0.716535 0.700787 1.000000
tan 0.000000 -0.716535 0.700787 1.000000
tan 0.000000 -0.716535 0.700787 1.000000
tan 0.000000 -0.716535 0.700787 1.000000
tan 0.000000 -0.716535 0.700787 1.000000
f 3/3/3 2/2/2 1/1/1
f 6/6/6 5/5/5 4/4/4
f 9/9/9 8/8/8 7/7/7
f 12/12/12 11/11/11 10/10/10
f 10/10/10 13/13/13 12/12/12
f 16/16/16 15/15/15 14/14/14
f 14/14/14 17/17/17 16/16/16
f 16/16/16 17/17/17 18/18/18
f 17/17/17 19/19/19 18/18/18
f 20/20/20 18/18/18 19/19/19
f 19/19/19 21/21/21 20/20/20
f 20/20/20 21/21/21 22/22/22
f 23/23/23 22/22/22 21/21/21
f 26/26/26 25/25/25 24/24/24
f 24/24/24 27/27/27 26/26/26
f 26/26/26 27/27/27 28/28/28
f 29/29/29 28/28/28 27/27/27
f 30/30/30 28/28/28 29/29/29
f 31/31/31 30/30/30 29/29/29
f 30/30/30 31/31/31 32/32/32
f 33/33/33 32/32/32 31/31/31
f 32/32/32 33/33/33 34/34/34
f 35/35/35 34/34/34 33/33/33
f 38/38/38 37/37/37 36/36/36
f 36/36/36 37/37/37 39/39/39
f 40/40/40 39/39/39 37/37/37
f 41/41/41 39/39/39 40/40/40
f 44/44/44 43/43/43 42/42/42
f 43/43/43 45/45/45 42/42/42
f 46/46/46 42/42/42 45/45/45
f 49/49/49 48/48/48 47/47/47
f 47/47/47 48/48/48 50/50/50
f 51/51/51 50/50/50 48/48/48
f 54/54/54 53/53/53 52/52/52
f 52/52/52 53/53/53 55/55/55
f 56/56/56 55/55/55 53/53/53
f 59/59/59 58/58/58 57/57/57
f 60/60/60 57/57/57 58/58/58
f 61/61/61 60/60/60 58/58/58
f 62/62/62 60/60/60 61/61/61
f 65/65/65 64/64/64 63/63/63
f 66/66/66 63/63/63 64/64/64
f 67/67/67 66/66/66 64/64/64
f 68/68/68 66/66/66 67/67/67
