mtllib SM_FlowerPot_10_LOD3.mtl
g SM_FlowerPot_10_LOD3
#Vertices 105
#Indices 369
#Section 0 Offset 0 NumIndices 369 MaterialIndex 0 MI_FlowerPot
v 0.046279 0.002819 0.033032
v 0.052505 0.000294 0.000678
v 0.003828 0.002249 0.057480
v 0.013837 -0.000992 0.038625
v -0.033114 0.002229 0.045079
v -0.031003 0.000254 0.024978
v -0.056431 0.002566 0.013842
v -0.036734 -0.000018 -0.012662
v -0.040404 0.002820 -0.043210
v 0.000045 0.000200 -0.041493
v 0.016403 0.003153 -0.055570
v 0.052505 0.000294 0.000678
v 0.049391 0.003153 -0.027257
v 0.002708 0.016363 -0.063740
v -0.039127 0.019430 -0.053231
v -0.053859 0.011846 -0.041898
v -0.062528 0.022145 0.005440
v -0.054718 0.011675 0.034041
v -0.003040 0.010201 0.068580
v -0.030740 0.022502 0.056540
v 0.037710 0.023001 0.049554
v 0.050087 0.011757 0.040272
v 0.058813 0.016932 -0.000638
v 0.058813 0.016932 -0.000638
v 0.049391 0.003153 -0.027257
v 0.052505 0.000294 0.000678
v 0.044034 0.015759 -0.043584
v 0.016403 0.003153 -0.055570
v 0.002708 0.016363 -0.063740
v -0.040404 0.002820 -0.043210
v -0.053859 0.011846 -0.041898
v -0.056431 0.002566 0.013842
v -0.054718 0.011675 0.034041
v -0.033114 0.002229 0.045079
v -0.003040 0.010201 0.068580
v 0.003828 0.002249 0.057480
v 0.046279 0.002819 0.033032
v 0.050087 0.011757 0.040272
v 0.058813 0.016932 -0.000638
v 0.052505 0.000294 0.000678
v 0.089049 0.172117 -0.001287
v 0.101879 0.137924 0.000000
v 0.091447 0.137175 -0.046618
v 0.048008 0.137330 -0.092146
v 0.036575 0.168838 -0.074920
v -0.014918 0.137152 -0.101614
v 0.054989 0.177006 -0.060271
v 0.080629 0.177015 -0.002674
v -0.032275 0.171728 -0.077376
v -0.080952 0.137402 -0.065562
v 0.073998 0.177733 -0.052164
v 0.087422 0.176048 -0.000000
v 0.125285 0.093312 -0.000168
v 0.044034 0.015759 -0.043584
v 0.058813 0.016932 -0.000638
v 0.020610 0.177288 -0.086676
v 0.089513 0.098679 -0.093884
v 0.002708 0.016363 -0.063740
v -0.002561 0.177203 -0.079447
v -0.052620 0.090867 -0.123920
v -0.039127 0.019430 -0.053231
v -0.049773 0.176897 -0.075818
v -0.056033 0.176689 -0.057912
v -0.121895 0.073168 0.007101
v -0.062528 0.022145 0.005440
v -0.030740 0.022502 0.056540
v -0.109144 0.149901 -0.030924
v -0.085645 0.179046 -0.016228
v -0.081400 0.171183 -0.014888
v -0.101470 0.137167 -0.000000
v -0.078486 0.144196 0.092268
v -0.056945 0.042327 0.083023
v 0.037710 0.023001 0.049554
v -0.070003 0.177390 0.055443
v 0.093789 0.082185 0.087046
v 0.058813 0.016932 -0.000638
v 0.125285 0.093312 -0.000168
v 0.021117 0.098254 0.125065
v -0.015645 0.178499 0.087580
v 0.040553 0.176974 0.080552
v 0.078716 0.177828 0.040548
v 0.087422 0.176048 -0.000000
v 0.080629 0.177015 -0.002674
v 0.032201 0.177805 0.077913
v 0.074219 0.169470 0.036797
v 0.089049 0.172117 -0.001287
v 0.101879 0.137924 0.000000
v 0.081015 0.136770 0.066915
v -0.003405 0.172938 0.086959
v 0.015406 0.137203 0.101417
v -0.047695 0.137659 0.091532
v -0.035115 0.176147 0.071861
v -0.075621 0.170091 0.037778
v -0.091456 0.137152 0.046616
v -0.070384 0.176276 0.035453
v -0.014918 0.137152 -0.101614
v 0.048008 0.137330 -0.092146
v 0.091447 0.137175 -0.046618
v -0.080952 0.137402 -0.065562
v -0.101470 0.137167 -0.000000
v -0.091456 0.137152 0.046616
v -0.047695 0.137659 0.091532
v 0.015406 0.137203 0.101417
v 0.081015 0.136770 0.066915
v 0.101879 0.137924 0.000000
vt 0.887207 0.430176
vt 0.905273 0.420898
vt 0.874023 0.456055
vt 0.887207 0.452637
vt 0.867676 0.476074
vt 0.877930 0.487793
vt 0.864746 0.499023
vt 0.877441 0.520020
vt 0.864746 0.536133
vt 0.884277 0.557617
vt 0.875000 0.570312
vt 0.906738 0.598145
vt 0.889648 0.591309
vt 0.864258 0.565918
vt 0.854980 0.543213
vt 0.857910 0.532471
vt 0.850586 0.504883
vt 0.858887 0.489258
vt 0.864258 0.455078
vt 0.853516 0.469727
vt 0.870117 0.430176
vt 0.880859 0.426758
vt 0.897461 0.408691
vt 0.897461 0.607422
vt 0.889648 0.591309
vt 0.904785 0.598877
vt 0.877930 0.588623
vt 0.875977 0.570312
vt 0.866211 0.564941
vt 0.866211 0.536865
vt 0.857910 0.532227
vt 0.864258 0.500000
vt 0.858887 0.488770
vt 0.867188 0.477051
vt 0.865723 0.455566
vt 0.873047 0.454102
vt 0.887207 0.430664
vt 0.881348 0.427734
vt 0.899414 0.411621
vt 0.904297 0.420898
vt 0.787109 0.670410
vt 0.767090 0.679932
vt 0.758789 0.656250
vt 0.749512 0.624512
vt 0.770508 0.617188
vt 0.739746 0.590820
vt 0.781738 0.629883
vt 0.790527 0.669678
vt 0.760254 0.572266
vt 0.730957 0.549072
vt 0.789062 0.640137
vt 0.794922 0.671631
vt 0.853027 0.664795
vt 0.874023 0.592773
vt 0.895996 0.612305
vt 0.778320 0.602539
vt 0.826172 0.616699
vt 0.860352 0.569336
vt 0.770508 0.590332
vt 0.812500 0.560791
vt 0.850098 0.544434
vt 0.768555 0.559326
vt 0.761719 0.551514
vt 0.813477 0.505859
vt 0.849121 0.504883
vt 0.853516 0.470703
vt 0.782715 0.522217
vt 0.762207 0.517822
vt 0.753906 0.518311
vt 0.729004 0.508057
vt 0.788574 0.464844
vt 0.832520 0.469727
vt 0.869629 0.431152
vt 0.766113 0.472656
vt 0.836914 0.399902
vt 0.896973 0.407227
vt 0.856445 0.354004
vt 0.817871 0.427734
vt 0.772949 0.434570
vt 0.783691 0.400391
vt 0.792969 0.367676
vt 0.798828 0.342773
vt 0.794922 0.340820
vt 0.776855 0.403320
vt 0.781738 0.364258
vt 0.789062 0.340332
vt 0.770020 0.333008
vt 0.757324 0.367188
vt 0.765625 0.423828
vt 0.744629 0.407227
vt 0.734863 0.443359
vt 0.765137 0.447754
vt 0.753418 0.481934
vt 0.729980 0.479980
vt 0.759766 0.482910
vt 0.634766 0.728271
vt 0.645508 0.760376
vt 0.634277 0.792114
vt 0.601562 0.705566
vt 0.565430 0.711670
vt 0.545410 0.727783
vt 0.534668 0.759399
vt 0.545410 0.791748
vt 0.577637 0.814575
vt 0.614746 0.808350
vt1 0.456299 0.283203
vt1 0.507812 0.257324
vt1 0.419678 0.356445
vt1 0.456055 0.347656
vt1 0.401855 0.414062
vt1 0.430664 0.446777
vt1 0.392822 0.479492
vt1 0.429688 0.538330
vt1 0.392578 0.584473
vt1 0.448242 0.645508
vt1 0.421875 0.681396
vt1 0.512207 0.760010
vt1 0.463623 0.740967
vt1 0.391846 0.668701
vt1 0.365234 0.604248
vt1 0.373047 0.573730
vt1 0.353027 0.495605
vt1 0.375732 0.450195
vt1 0.392090 0.354004
vt1 0.361816 0.395020
vt1 0.407959 0.282715
vt1 0.438232 0.274414
vt1 0.485596 0.222656
vt1 0.485840 0.786621
vt1 0.463379 0.740723
vt1 0.506836 0.761841
vt1 0.429932 0.733398
vt1 0.424805 0.680908
vt1 0.397217 0.666016
vt1 0.396973 0.586426
vt1 0.374268 0.573486
vt1 0.391846 0.481934
vt1 0.375732 0.450195
vt1 0.400391 0.416016
vt1 0.395508 0.355957
vt1 0.416260 0.351562
vt1 0.457275 0.284668
vt1 0.439941 0.276367
vt1 0.491699 0.231445
vt1 0.504883 0.257812
vt1 0.173584 0.964783
vt1 0.116333 0.991753
vt1 0.093262 0.924866
vt1 0.065857 0.834839
vt1 0.126343 0.813965
vt1 0.038269 0.739258
vt1 0.157959 0.849976
vt1 0.182495 0.963013
vt1 0.096985 0.686523
vt1 0.014206 0.620850
vt1 0.177979 0.879272
vt1 0.195435 0.968140
vt1 0.359131 0.949188
vt1 0.419678 0.744873
vt1 0.481689 0.800049
vt1 0.148560 0.772827
vt1 0.282959 0.812866
vt1 0.379883 0.678467
vt1 0.125366 0.738037
vt1 0.245117 0.654541
vt1 0.351562 0.607422
vt1 0.120483 0.649902
vt1 0.100525 0.627930
vt1 0.248047 0.498535
vt1 0.349121 0.495605
vt1 0.360596 0.398926
vt1 0.160767 0.544922
vt1 0.102356 0.532227
vt1 0.078186 0.533936
vt1 0.008064 0.504883
vt1 0.176392 0.381348
vt1 0.302002 0.395508
vt1 0.406494 0.285645
vt1 0.113770 0.403320
vt1 0.313965 0.197754
vt1 0.483887 0.218262
vt1 0.369385 0.067383
vt1 0.260742 0.276855
vt1 0.133057 0.296387
vt1 0.163452 0.199219
vt1 0.190063 0.106934
vt1 0.206421 0.035156
vt1 0.194336 0.030762
vt1 0.144165 0.208008
vt1 0.158203 0.096680
vt1 0.178833 0.028320
vt1 0.124329 0.008301
vt1 0.087952 0.105469
vt1 0.112427 0.265625
vt1 0.051971 0.217773
vt1 0.025070 0.321777
vt1 0.109985 0.333008
vt1 0.077454 0.430664
vt1 0.011246 0.424805
vt1 0.095093 0.432617
vt1 0.501953 0.369141
vt1 0.449951 0.525146
vt1 0.503906 0.678955
vt1 0.663086 0.258789
vt1 0.838379 0.288574
vt1 0.934082 0.366699
vt1 0.986328 0.520264
vt1 0.935059 0.677490
vt1 0.778320 0.788330
vt1 0.599121 0.757812
vn 0.259843 -0.944882 0.181102
vn 0.188976 -0.984252 0.000000
vn 0.031496 -0.960630 0.291339
vn 0.047244 -1.000000 0.047244
vn -0.196850 -0.952756 0.244095
vn -0.007874 -1.000000 0.031496
vn -0.322835 -0.944882 0.078740
vn -0.031496 -1.000000 0.015748
vn -0.244094 -0.929134 -0.267716
vn 0.000000 -1.000000 -0.023622
vn 0.094488 -0.937008 -0.338583
vn 0.173228 -0.984252 0.031496
vn 0.275591 -0.952756 -0.149606
vn 0.031496 0.181102 -0.984252
vn -0.535433 0.488189 -0.692913
vn -0.795276 -0.007874 -0.606299
vn -0.889764 0.448819 0.110236
vn -0.842520 -0.039370 0.535433
vn -0.062992 -0.039370 1.000000
vn -0.322835 0.669291 0.677165
vn 0.456693 0.645669 0.614173
vn 0.779528 -0.007874 0.622047
vn 0.960630 0.259842 0.015748
vn 0.763780 -0.645669 -0.031496
vn 0.677165 -0.637795 -0.370079
vn 0.763780 -0.645669 0.007874
vn 0.535433 -0.637795 -0.551181
vn 0.220472 -0.637795 -0.740157
vn 0.015748 -0.637795 -0.771653
vn -0.527559 -0.622047 -0.574803
vn -0.629921 -0.614173 -0.472441
vn -0.748031 -0.637795 0.188976
vn -0.661417 -0.629921 0.401575
vn -0.448819 -0.645669 0.614173
vn -0.031496 -0.614173 0.787401
vn 0.055118 -0.637795 0.771653
vn 0.629921 -0.629921 0.448819
vn 0.598425 -0.629921 0.488189
vn 0.763780 -0.645669 0.007874
vn 0.763780 -0.645669 0.007874
vn -0.818898 -0.566929 0.078740
vn -0.905512 -0.425197 0.000000
vn -0.803150 -0.433071 0.409449
vn -0.417323 -0.425197 0.803150
vn -0.385827 -0.511811 0.771653
vn 0.133858 -0.433071 0.889764
vn -0.204724 0.960630 0.196850
vn -0.448819 0.889764 0.110236
vn 0.307087 -0.614173 0.724409
vn 0.700787 -0.425197 0.574803
vn 0.566929 0.724409 -0.401575
vn 0.669291 0.748031 -0.000000
vn 0.984252 -0.173228 -0.007874
vn 0.283465 -0.913386 -0.291338
vn 0.370079 -0.929134 0.007874
vn 0.165354 0.748031 -0.645669
vn 0.685039 -0.102362 -0.724409
vn 0.023622 -0.897638 -0.433071
vn 0.007874 0.866142 0.496063
vn -0.385827 -0.196850 -0.905512
vn -0.267717 -0.889764 -0.370079
vn -0.362205 0.755905 -0.551181
vn 0.496063 0.700787 0.503937
vn -0.937008 -0.338583 0.055118
vn -0.370079 -0.929134 0.031496
vn -0.173228 -0.921260 0.346457
vn -0.866142 0.433071 -0.244095
vn -0.527559 0.850394 -0.078740
vn 0.763780 -0.629921 0.149606
vn 0.897638 -0.433071 0.000000
vn -0.606299 0.354331 0.708661
vn -0.425197 -0.653543 0.622047
vn 0.220472 -0.929134 0.291339
vn -0.503937 0.771653 0.385827
vn 0.708661 -0.244094 0.661417
vn 0.377953 -0.929134 -0.015748
vn 0.984252 -0.165354 0.007874
vn 0.165354 -0.125984 0.976378
vn -0.118110 0.724409 0.677165
vn 0.314961 0.732283 0.606299
vn 0.559055 0.771653 0.299212
vn 0.669291 0.748031 -0.000000
vn -0.511811 0.858268 0.031496
vn -0.173228 0.858268 -0.488189
vn -0.732283 -0.582677 -0.362205
vn -0.803150 -0.590551 0.015748
vn -0.905512 -0.425197 0.000000
vn -0.700787 -0.417323 -0.574803
vn 0.023622 -0.629921 -0.779527
vn -0.141732 -0.433071 -0.889764
vn 0.417323 -0.433071 -0.803149
vn 0.322835 0.653543 -0.685039
vn 0.700787 -0.622047 -0.354331
vn 0.803150 -0.433071 -0.409449
vn 0.645669 0.692913 -0.330709
vn 0.000000 1.000000 -0.000000
vn 0.000000 1.000000 -0.000000
vn 0.000000 1.000000 -0.000000
vn 0.000000 1.000000 -0.000000
vn 0.000000 1.000000 -0.000000
vn 0.000000 1.000000 -0.000000
vn 0.000000 1.000000 -0.000000
vn 0.000000 1.000000 -0.000000
vn 0.000000 1.000000 -0.000000
vn 0.000000 1.000000 -0.000000
tan 0.922562 0.216628 -0.193440 1.000000
tan 0.899002 0.172608 -0.403001 1.000000
tan 0.907682 0.126108 0.317689 1.000000
tan 0.976378 0.055800 0.204724 1.000000
tan 0.622667 0.055862 0.720193 1.000000
tan 0.590551 0.020646 0.803149 1.000000
tan 0.156240 0.024118 0.930002 1.000000
tan -0.228346 0.022568 0.976378 1.000000
tan -0.526753 -0.082956 0.768181 1.000000
tan -0.929134 -0.008928 0.377953 1.000000
tan -0.914874 -0.161572 0.191828 1.000000
tan -0.852502 -0.165664 -0.488251 1.000000
tan -0.930250 -0.234918 -0.217558 1.000000
tan -0.806002 -0.565751 -0.129890 1.000000
tan -0.823982 -0.135656 0.541137 1.000000
tan -0.605927 -0.028024 0.795151 1.000000
tan 0.081964 -0.058652 0.900366 1.000000
tan 0.534193 0.022320 0.842210 1.000000
tan 0.937008 0.354331 0.072974 1.000000
tan 0.825904 -0.062434 0.455453 1.000000
tan 0.208940 0.570773 -0.755409 1.000000
tan 0.618265 0.134974 -0.773079 1.000000
tan -0.228594 0.869862 -0.408457 1.000000
tan -0.643561 -0.757269 -0.082336 1.000000
tan -0.715481 -0.627689 -0.227416 1.000000
tan -0.639531 -0.758261 -0.142910 1.000000
tan -0.818526 -0.519933 -0.193502 1.000000
tan -0.696261 -0.564821 0.279311 1.000000
tan -0.332631 -0.718581 0.587141 1.000000
tan -0.579019 -0.167152 0.712319 1.000000
tan -0.652489 0.102920 0.736189 1.000000
tan 0.364003 -0.167214 0.876496 1.000000
tan 0.626325 -0.186186 0.739537 1.000000
tan 0.536797 0.336103 0.745613 1.000000
tan 0.250109 0.749458 0.594581 1.000000
tan 0.361957 0.716969 0.566743 1.000000
tan 0.741521 0.578957 -0.228161 1.000000
tan 0.752806 0.557753 -0.203112 1.000000
tan 0.646289 0.763593 -0.075392 1.000000
tan 0.636679 0.751255 -0.154938 1.000000
tan -0.570277 0.796453 -0.196416 1.000000
tan -0.247753 0.527621 -0.741087 1.000000
tan -0.569285 0.375969 -0.719015 1.000000
tan -0.840350 0.118606 -0.373861 1.000000
tan -0.823982 0.151900 -0.311241 1.000000
tan -0.752868 0.487259 0.350425 1.000000
tan -0.462955 0.075268 -0.848782 1.000000
tan -0.074400 0.074028 -0.900428 1.000000
tan -0.232624 0.676545 0.672205 1.000000
tan -0.612623 0.004216 0.750015 1.000000
tan -0.468783 -0.038688 -0.731601 1.000000
tan -0.064790 0.057970 -0.991382 1.000000
tan -0.109988 -0.589001 -0.790501 1.000000
tan -0.911092 -0.260524 -0.069688 1.000000
tan -0.877922 -0.352223 -0.299957 1.000000
tan -0.150970 -0.613367 -0.749271 1.000000
tan -0.730051 -0.043462 -0.684233 1.000000
tan -0.615165 -0.330089 0.650629 1.000000
tan -0.907186 0.085870 -0.135532 1.000000
tan -0.899932 -0.111042 0.407589 1.000000
tan -0.390601 -0.212040 0.792361 1.000000
tan -0.736065 -0.072044 0.384897 1.000000
tan -0.656891 0.038006 0.593775 1.000000
tan 0.118234 -0.175336 0.932916 1.000000
tan 0.190464 -0.045012 0.910100 1.000000
tan 0.544051 0.175956 0.739909 1.000000
tan -0.382169 -0.306901 0.811582 1.000000
tan -0.686713 -0.377209 0.527125 1.000000
tan -0.524769 -0.485027 0.636865 1.000000
tan 0.013640 0.028272 0.938310 1.000000
tan 0.764462 0.079484 0.614297 1.000000
tan 0.342427 0.503007 0.762539 1.000000
tan 0.921818 0.182032 -0.117056 1.000000
tan 0.619753 0.124806 0.559861 1.000000
tan 0.700725 0.163680 -0.690371 1.000000
tan 0.892678 0.367537 -0.260401 1.000000
tan 0.120280 0.682001 -0.713001 1.000000
tan 0.868746 0.453593 -0.088598 1.000000
tan 0.977866 0.103912 0.059396 1.000000
tan 0.293509 0.483601 -0.736561 1.000000
tan 0.435613 -0.018476 -0.766259 1.000000
tan 0.011780 -0.010540 -0.997272 1.000000
tan -0.096596 -0.025172 -0.883750 1.000000
tan 0.437163 -0.350053 -0.770537 1.000000
tan 0.672577 -0.657573 -0.301940 1.000000
tan 0.523281 -0.722053 -0.389671 1.000000
tan 0.251101 -0.534751 -0.733957 1.000000
tan 0.690557 -0.216070 -0.685039 1.000000
tan 0.258975 -0.736747 0.603199 1.000000
tan 0.875380 -0.235662 -0.024738 1.000000
tan 0.786658 -0.239072 0.537665 1.000000
tan 0.930746 -0.109740 0.333933 1.000000
tan 0.671647 0.401947 0.622729 1.000000
tan 0.478021 0.103664 0.828012 1.000000
tan 0.624465 -0.237212 0.722177 1.000000
tan -0.889764 -0.000000 -0.456693 1.000000
tan -0.889764 -0.000000 -0.456693 1.000000
tan -0.889764 -0.000000 -0.456693 1.000000
tan -0.889764 -0.000000 -0.456693 1.000000
tan -0.889764 -0.000000 -0.456693 1.000000
tan -0.889764 -0.000000 -0.456693 1.000000
tan -0.889764 -0.000000 -0.456693 1.000000
tan -0.889764 -0.000000 -0.456693 1.000000
tan -0.889764 -0.000000 -0.456693 1.000000
tan -0.889764 -0.000000 -0.456693 1.000000
f 3/3/3 2/2/2 1/1/1
f 4/4/4 2/2/2 3/3/3
f 3/3/3 5/5/5 4/4/4
f 5/5/5 6/6/6 4/4/4
f 7/7/7 6/6/6 5/5/5
f 6/6/6 7/7/7 8/8/8
f 9/9/9 8/8/8 7/7/7
f 9/9/9 10/10/10 8/8/8
f 11/11/11 10/10/10 9/9/9
f 12/12/12 10/10/10 11/11/11
f 11/11/11 13/13/13 12/12/12
f 16/16/16 15/15/15 14/14/14
f 15/15/15 16/16/16 17/17/17
f 16/16/16 18/18/18 17/17/17
f 19/19/19 17/17/17 18/18/18
f 20/20/20 17/17/17 19/19/19
f 20/20/20 19/19/19 21/21/21
f 21/21/21 19/19/19 22/22/22
f 22/22/22 23/23/23 21/21/21
f 26/26/26 25/25/25 24/24/24
f 27/27/27 24/24/24 25/25/25
f 28/28/28 27/27/27 25/25/25
f 28/28/28 29/29/29 27/27/27
f 28/28/28 30/30/30 29/29/29
f 31/31/31 29/29/29 30/30/30
f 32/32/32 31/31/31 30/30/30
f 33/33/33 31/31/31 32/32/32
f 33/33/33 32/32/32 34/34/34
f 33/33/33 34/34/34 35/35/35
f 36/36/36 35/35/35 34/34/34
f 36/36/36 37/37/37 35/35/35
f 38/38/38 35/35/35 37/37/37
f 38/38/38 37/37/37 39/39/39
f 39/39/39 37/37/37 40/40/40
f 43/43/43 42/42/42 41/41/41
f 41/41/41 44/44/44 43/43/43
f 41/41/41 45/45/45 44/44/44
f 45/45/45 46/46/46 44/44/44
f 47/47/47 45/45/45 41/41/41
f 41/41/41 48/48/48 47/47/47
f 46/46/46 45/45/45 49/49/49
f 50/50/50 46/46/46 49/49/49
f 47/47/47 48/48/48 51/51/51
f 48/48/48 52/52/52 51/51/51
f 52/52/52 53/53/53 51/51/51
f 53/53/53 55/55/55 54/54/54
f 51/51/51 56/56/56 47/47/47
f 47/47/47 56/56/56 45/45/45
f 57/57/57 51/51/51 53/53/53
f 54/54/54 57/57/57 53/53/53
f 57/57/57 56/56/56 51/51/51
f 57/57/57 54/54/54 58/58/58
f 56/56/56 59/59/59 45/45/45
f 49/49/49 45/45/45 59/59/59
f 57/57/57 58/58/58 60/60/60
f 56/56/56 57/57/57 60/60/60
f 58/58/58 61/61/61 60/60/60
f 59/59/59 56/56/56 62/62/62
f 62/62/62 56/56/56 60/60/60
f 59/59/59 63/63/63 49/49/49
f 63/63/63 59/59/59 62/62/62
f 61/61/61 64/64/64 60/60/60
f 61/61/61 65/65/65 64/64/64
f 66/66/66 64/64/64 65/65/65
f 67/67/67 62/62/62 60/60/60
f 67/67/67 60/60/60 64/64/64
f 62/62/62 68/68/68 63/63/63
f 67/67/67 68/68/68 62/62/62
f 63/63/63 69/69/69 49/49/49
f 68/68/68 69/69/69 63/63/63
f 69/69/69 50/50/50 49/49/49
f 69/69/69 70/70/70 50/50/50
f 64/64/64 71/71/71 67/67/67
f 67/67/67 71/71/71 68/68/68
f 64/64/64 66/66/66 72/72/72
f 71/71/71 64/64/64 72/72/72
f 66/66/66 73/73/73 72/72/72
f 74/74/74 68/68/68 71/71/71
f 75/75/75 72/72/72 73/73/73
f 75/75/75 73/73/73 76/76/76
f 76/76/76 77/77/77 75/75/75
f 71/71/71 72/72/72 78/78/78
f 78/78/78 72/72/72 75/75/75
f 79/79/79 71/71/71 78/78/78
f 74/74/74 71/71/71 79/79/79
f 80/80/80 78/78/78 75/75/75
f 79/79/79 78/78/78 80/80/80
f 81/81/81 75/75/75 77/77/77
f 80/80/80 75/75/75 81/81/81
f 77/77/77 82/82/82 81/81/81
f 83/83/83 81/81/81 82/82/82
f 79/79/79 80/80/80 84/84/84
f 80/80/80 81/81/81 84/84/84
f 81/81/81 83/83/83 85/85/85
f 85/85/85 84/84/84 81/81/81
f 86/86/86 85/85/85 83/83/83
f 86/86/86 87/87/87 85/85/85
f 88/88/88 85/85/85 87/87/87
f 89/89/89 85/85/85 88/88/88
f 89/89/89 84/84/84 85/85/85
f 88/88/88 90/90/90 89/89/89
f 91/91/91 89/89/89 90/90/90
f 84/84/84 92/92/92 79/79/79
f 89/89/89 92/92/92 84/84/84
f 92/92/92 74/74/74 79/79/79
f 89/89/89 91/91/91 93/93/93
f 93/93/93 92/92/92 89/89/89
f 91/91/91 94/94/94 93/93/93
f 94/94/94 70/70/70 93/93/93
f 69/69/69 93/93/93 70/70/70
f 95/95/95 74/74/74 92/92/92
f 95/95/95 92/92/92 93/93/93
f 93/93/93 69/69/69 95/95/95
f 95/95/95 68/68/68 74/74/74
f 68/68/68 95/95/95 69/69/69
f 98/98/98 97/97/97 96/96/96
f 98/98/98 96/96/96 99/99/99
f 98/98/98 99/99/99 100/100/100
f 98/98/98 100/100/100 101/101/101
f 98/98/98 101/101/101 102/102/102
f 98/98/98 102/102/102 103/103/103
f 98/98/98 103/103/103 104/104/104
f 98/98/98 104/104/104 105/105/105
