mtllib SM_FoodPot_15_LOD3.mtl
g SM_FoodPot_15_LOD3
#Vertices 36
#Indices 84
#Section 0 Offset 0 NumIndices 84 MaterialIndex 0 MI_FoodPot
v 0.056380 0.118700 0.057251
v -0.057773 0.120968 0.056800
v -0.055281 0.140654 0.055722
v 0.058164 0.137305 0.056668
v 0.053029 0.139902 0.053029
v 0.057772 0.120963 -0.056772
v 0.056380 0.118700 0.057251
v 0.058164 0.137305 0.056668
v 0.055280 0.140653 -0.055748
v 0.053029 0.139902 0.053029
v -0.053028 0.139902 -0.053029
v -0.055281 0.140654 0.055722
v -0.058117 0.137228 -0.056693
v -0.057773 0.120968 0.056800
v -0.056355 0.118706 -0.057188
v 0.055013 0.000221 0.056791
v -0.051124 0.129253 0.056306
v 0.056523 0.129265 0.055379
v -0.051228 0.000000 0.056402
v -0.056511 0.129231 0.051298
v -0.056306 0.000000 0.051125
v -0.056420 0.129227 -0.051197
v -0.056306 -0.000000 -0.051125
v -0.051228 0.000000 -0.056402
v -0.051124 0.129253 -0.056306
v 0.051125 -0.000000 -0.056306
v 0.051228 0.129253 -0.056403
v 0.056421 0.000026 -0.051197
v 0.056306 0.129253 -0.051125
v 0.056523 0.129265 0.055379
v 0.055013 0.000221 0.056791
v 0.055280 0.140653 -0.055748
v -0.053028 0.139902 -0.053029
v -0.058117 0.137228 -0.056693
v -0.056355 0.118706 -0.057188
v 0.057772 0.120963 -0.056772
vt 0.034943 0.654297
vt 0.033081 0.789429
vt 0.009918 0.786255
vt 0.013489 0.652344
vt 0.007416 0.657471
vt 0.639648 0.736084
vt 0.642578 0.870850
vt 0.621094 0.870117
vt 0.617188 0.737305
vt 0.614746 0.865845
vt 0.489258 0.740479
vt 0.486816 0.869019
vt 0.482666 0.736084
vt 0.464111 0.870239
vt 0.461426 0.735596
vt 0.525879 0.152832
vt 0.400635 0.000488
vt 0.527832 0.000488
vt 0.400391 0.153320
vt 0.391357 0.000488
vt 0.391113 0.153320
vt 0.270020 0.000488
vt 0.270264 0.153320
vt 0.260986 0.153320
vt 0.260742 0.000488
vt 0.139893 0.153320
vt 0.139771 0.000488
vt 0.130493 0.152832
vt 0.130371 0.000488
vt 0.004604 0.000488
vt 0.002815 0.152832
vt 0.972168 0.227051
vt 0.969238 0.098145
vt 0.975586 0.093262
vt 0.997070 0.095215
vt 0.995117 0.230469
vt1 0.491943 0.208496
vt1 0.021179 0.201660
vt1 0.032410 0.121094
vt1 0.499023 0.133301
vt1 0.480713 0.112305
vt1 0.638184 0.233887
vt1 0.646973 0.702881
vt1 0.573242 0.700439
vt1 0.559570 0.237793
vt1 0.550293 0.685547
vt1 0.114075 0.249023
vt1 0.105103 0.696533
vt1 0.090881 0.233887
vt1 0.026276 0.700928
vt1 0.017380 0.231934
vt1 1.000000 0.991455
vt1 0.763672 0.703857
vt1 1.003906 0.703857
vt1 0.763184 0.991928
vt1 0.746094 0.703857
vt1 0.745605 0.991920
vt1 0.517578 0.703857
vt1 0.517578 0.991905
vt1 0.500000 0.991905
vt1 0.500000 0.703857
vt1 0.271729 0.991890
vt1 0.271484 0.703857
vt1 0.254150 0.991829
vt1 0.253906 0.703857
vt1 0.016739 0.703613
vt1 0.013374 0.991364
vt1 0.694336 0.661377
vt1 0.685059 0.212891
vt1 0.707031 0.194824
vt1 0.781738 0.201660
vt1 0.774902 0.672363
vn 0.047244 -0.551181 0.834646
vn -0.141732 -0.527559 0.834646
vn -0.047244 0.606299 0.795275
vn 0.078740 0.464567 0.881890
vn 0.007874 1.000000 0.007874
vn 0.913386 -0.409449 -0.023622
vn 0.755906 -0.661417 0.031496
vn 0.944882 0.338583 0.007874
vn 0.165354 0.984252 -0.007874
vn 0.007874 1.000000 0.007874
vn -0.007874 1.000000 -0.007874
vn -0.165354 0.984252 0.007874
vn -0.944882 0.330709 -0.007874
vn -0.913386 -0.409449 0.023622
vn -0.748031 -0.661417 -0.031496
vn 0.007874 0.000000 1.000000
vn -0.007874 0.000000 1.000000
vn 0.007874 0.000000 1.000000
vn -0.023622 0.000000 1.000000
vn -1.000000 0.000000 0.039370
vn -1.000000 0.000000 0.007874
vn -1.000000 -0.000000 -0.023622
vn -1.000000 -0.000000 -0.007874
vn -0.023622 -0.000000 -1.000000
vn -0.007874 -0.000000 -1.000000
vn 0.007874 -0.000000 -1.000000
vn 0.023622 -0.000000 -1.000000
vn 1.000000 -0.000000 -0.023622
vn 1.000000 -0.000000 -0.007874
vn 1.000000 0.000000 0.055118
vn 0.992126 0.000000 0.125984
vn 0.047244 0.606299 -0.795276
vn -0.007874 1.000000 -0.007874
vn -0.078740 0.448819 -0.889764
vn -0.047244 -0.559055 -0.826771
vn 0.141732 -0.527559 -0.834646
tan 0.757642 -0.411061 -0.314341 1.000000
tan 0.890074 0.207576 0.282348 1.000000
tan 0.834398 -0.268088 0.253953 1.000000
tan 0.847914 0.282225 -0.224378 1.000000
tan 0.984252 -0.006262 -0.188976 1.000000
tan -0.026846 -0.006076 -0.932730 1.000000
tan 0.025296 -0.013392 -0.888338 1.000000
tan 0.007874 0.000310 -0.958212 1.000000
tan -0.000062 -0.007874 -0.985554 1.000000
tan 0.000000 0.007874 -1.000000 1.000000
tan 0.000000 -0.007874 -1.000000 1.000000
tan -0.000062 0.007874 -0.985554 1.000000
tan 0.007874 -0.000310 -0.957902 1.000000
tan -0.026846 0.006076 -0.932730 1.000000
tan 0.025296 0.013578 -0.885920 1.000000
tan 0.000000 1.000000 -0.000000 1.000000
tan 0.000000 1.000000 -0.000000 1.000000
tan 0.000000 1.000000 -0.000000 1.000000
tan 0.000000 1.000000 -0.000000 1.000000
tan 0.000000 1.000000 -0.000000 1.000000
tan 0.000000 1.000000 -0.000000 1.000000
tan 0.000000 1.000000 -0.000000 1.000000
tan 0.000000 1.000000 -0.000000 1.000000
tan 0.000000 1.000000 -0.000000 1.000000
tan 0.000000 1.000000 -0.000000 1.000000
tan 0.000000 1.000000 -0.000000 1.000000
tan 0.000000 1.000000 -0.000000 1.000000
tan 0.000000 1.000000 -0.000000 1.000000
tan 0.000000 1.000000 -0.000000 1.000000
tan 0.000000 1.000000 -0.000000 1.000000
tan 0.000000 0.992126 -0.000000 1.000000
tan -0.834398 -0.261827 -0.249178 1.000000
tan -0.984252 -0.006262 0.188976 1.000000
tan -0.854858 0.291773 0.222828 1.000000
tan -0.731788 -0.446215 0.343543 1.000000
tan -0.890074 0.207576 -0.282349 1.000000
f 3/3/3 2/2/2 1/1/1
f 4/4/4 3/3/3 1/1/1
f 4/4/4 5/5/5 3/3/3
f 8/8/8 7/7/7 6/6/6
f 6/6/6 9/9/9 8/8/8
f 10/10/10 8/8/8 9/9/9
f 11/11/11 10/10/10 9/9/9
f 12/12/12 10/10/10 11/11/11
f 13/13/13 12/12/12 11/11/11
f 12/12/12 13/13/13 14/14/14
f 15/15/15 14/14/14 13/13/13
f 18/18/18 17/17/17 16/16/16
f 17/17/17 19/19/19 16/16/16
f 17/17/17 20/20/20 19/19/19
f 19/19/19 20/20/20 21/21/21
f 20/20/20 22/22/22 21/21/21
f 23/23/23 21/21/21 22/22/22
f 24/24/24 23/23/23 22/22/22
f 25/25/25 24/24/24 22/22/22
f 24/24/24 25/25/25 26/26/26
f 27/27/27 26/26/26 25/25/25
f 26/26/26 27/27/27 28/28/28
f 29/29/29 28/28/28 27/27/27
f 30/30/30 28/28/28 29/29/29
f 30/30/30 31/31/31 28/28/28
f 34/34/34 33/33/33 32/32/32
f 35/35/35 34/34/34 32/32/32
f 36/36/36 35/35/35 32/32/32
