mtllib SM_Food_SM_Apple_01_LOD3.mtl
g SM_Food_SM_Apple_01_LOD3
#Vertices 30
#Indices 54
#Section 0 Offset 0 NumIndices 54 MaterialIndex 0 MI_Food
v 0.011919 -0.018384 -0.011548
v -0.010945 -0.015317 0.004703
v 0.005291 -0.009070 0.026621
v -0.025927 0.090129 0.005510
v -0.005818 0.076347 -0.016711
v 0.006423 0.092842 0.006771
v -0.020640 0.040871 0.036083
v -0.044218 0.031264 -0.019772
v -0.025927 0.090129 0.005510
v 0.003465 0.029954 -0.044980
v -0.005818 0.076347 -0.016711
v -0.020640 0.040871 0.036083
v 0.005291 -0.009070 0.026621
v -0.044218 0.031264 -0.019772
v -0.010945 -0.015317 0.004703
v 0.003465 0.029954 -0.044980
v 0.011919 -0.018384 -0.011548
v -0.020640 0.040871 0.036083
v 0.030561 0.043374 0.033976
v 0.005291 -0.009070 0.026621
v 0.011919 -0.018384 -0.011548
v 0.038559 0.045497 -0.026226
v 0.003465 0.029954 -0.044980
v 0.038559 0.045497 -0.026226
v -0.005818 0.076347 -0.016711
v 0.003465 0.029954 -0.044980
v 0.006423 0.092842 0.006771
v 0.030561 0.043374 0.033976
v -0.020640 0.040871 0.036083
v -0.025927 0.090129 0.005510
vt 0.940430 0.145508
vt 0.937988 0.137695
vt 0.951660 0.123535
vt 0.649902 0.109375
vt 0.625977 0.100098
vt 0.646973 0.092285
vt 0.886719 0.305176
vt 0.906250 0.261230
vt 0.929688 0.303711
vt 0.944336 0.243164
vt 0.946289 0.288086
vt 0.079956 0.363770
vt 0.062073 0.401855
vt 0.033630 0.351562
vt 0.043823 0.395508
vt -0.002605 0.374023
vt 0.030731 0.405762
vt 0.588867 0.936035
vt 0.548828 0.932434
vt 0.574707 0.897400
vt 0.554199 0.876343
vt 0.511230 0.900879
vt 0.511230 0.868042
vt 0.892090 0.571533
vt 0.853027 0.553711
vt 0.897461 0.542480
vt 0.845703 0.574463
vt 0.865723 0.614502
vt 0.824219 0.617188
vt 0.828613 0.576172
vt1 0.363525 1.009445
vt1 0.347412 0.952301
vt1 0.439209 0.848999
vt1 0.011955 0.220703
vt1 0.077515 0.047363
vt1 0.133179 0.198242
vt1 0.447754 0.118652
vt1 0.310303 0.430176
vt1 0.145020 0.128906
vt1 0.039764 0.559814
vt1 0.025940 0.241699
vt1 0.425537 0.403809
vt1 0.552246 0.136719
vt1 0.753418 0.491211
vt1 0.681641 0.182129
vt1 1.009766 0.333496
vt1 0.773926 0.106934
vt1 0.423584 0.998405
vt1 0.706543 0.972992
vt1 0.523438 0.724121
vt1 0.669922 0.574219
vt1 0.973145 0.748779
vt1 0.972168 0.515137
vt1 0.492432 0.658203
vt1 0.215942 0.531982
vt1 0.529297 0.451660
vt1 0.165649 0.678711
vt1 0.305664 0.961914
vt1 0.013680 0.981476
vt1 0.043427 0.689697
vn 0.118110 -0.960630 0.236221
vn 0.236220 -0.968504 0.070866
vn -0.086614 -0.748031 -0.653543
vn -0.047244 0.866142 -0.496063
vn -0.181102 0.984252 -0.062992
vn -0.511811 0.818897 -0.275591
vn -0.535433 -0.031496 0.842520
vn -0.897638 -0.181102 -0.409449
vn -0.456693 0.889764 0.047244
vn 0.078740 -0.157480 -0.984252
vn -0.125984 0.992126 0.047244
vn -0.511811 -0.039370 0.858268
vn -0.133858 -0.818897 0.559055
vn -0.921260 -0.204724 -0.330709
vn -0.204724 -0.976378 -0.015748
vn 0.141732 -0.133858 -0.984252
vn 0.102362 -0.992126 0.015748
vn -0.488189 -0.039370 0.874016
vn 0.685039 0.086614 0.724409
vn 0.070866 -0.771653 0.629921
vn 0.291339 -0.944882 -0.125984
vn 0.811024 0.094488 -0.574803
vn 0.086614 -0.149606 -0.984252
vn 0.826772 0.110236 -0.559055
vn -0.314961 0.937008 -0.133858
vn 0.125984 -0.125984 -0.984252
vn 0.125984 0.968504 0.228346
vn 0.700787 0.110236 0.708661
vn -0.488189 -0.039370 0.874016
vn -0.346457 0.921260 0.165354
tan -0.552173 0.125550 0.786657 1.000000
tan -0.526195 -0.068634 0.815984 1.000000
tan 0.070680 -0.656581 0.742141 1.000000
tan 0.361461 0.472813 0.791121 1.000000
tan 0.868002 0.129456 -0.472751 1.000000
tan 0.818898 0.533511 0.064480 1.000000
tan -0.829004 -0.150164 -0.532457 1.000000
tan 0.446649 -0.446649 -0.781635 1.000000
tan -0.814930 -0.398165 -0.378883 1.000000
tan 0.347511 -0.922872 0.175460 1.000000
tan -0.093744 0.034968 -0.984314 1.000000
tan -0.765516 0.416145 -0.437411 1.000000
tan -0.481369 0.544113 0.681753 1.000000
tan -0.310001 0.874202 0.322401 1.000000
tan -0.945502 0.201996 -0.232252 1.000000
tan -0.705251 0.682001 -0.194308 1.000000
tan -0.812450 -0.092876 -0.570277 1.000000
tan 0.125736 -0.883316 0.030442 1.000000
tan 0.676173 -0.444541 -0.586273 1.000000
tan -0.128092 -0.634447 -0.762787 1.000000
tan -0.914130 -0.252403 -0.220906 1.000000
tan -0.560605 -0.087544 -0.805381 1.000000
tan -0.953252 -0.255750 -0.045012 1.000000
tan -0.559365 0.325873 -0.762973 1.000000
tan -0.737801 -0.330213 -0.575485 1.000000
tan -0.923244 -0.349743 -0.073408 1.000000
tan -0.207700 0.249736 -0.944634 1.000000
tan 0.633269 0.372063 -0.684109 1.000000
tan -0.167028 0.883316 -0.053506 1.000000
tan 0.060078 0.189906 -0.932172 1.000000
f 3/3/3 2/2/2 1/1/1
f 6/6/6 5/5/5 4/4/4
f 9/9/9 8/8/8 7/7/7
f 10/10/10 8/8/8 9/9/9
f 10/10/10 9/9/9 11/11/11
f 14/14/14 13/13/13 12/12/12
f 13/13/13 14/14/14 15/15/15
f 14/14/14 16/16/16 15/15/15
f 16/16/16 17/17/17 15/15/15
f 20/20/20 19/19/19 18/18/18
f 19/19/19 20/20/20 21/21/21
f 21/21/21 22/22/22 19/19/19
f 22/22/22 21/21/21 23/23/23
f 26/26/26 25/25/25 24/24/24
f 24/24/24 25/25/25 27/27/27
f 28/28/28 24/24/24 27/27/27
f 29/29/29 28/28/28 27/27/27
f 27/27/27 30/30/30 29/29/29
