mtllib SM_Frames_08_LOD5.mtl
g SM_Frames_08_LOD5
#Vertices 9
#Indices 12
#Section 0 Offset 0 NumIndices 12 MaterialIndex 0 MI_Frames
v -0.059167 -0.004582 -0.115660
v 0.082496 0.214038 -0.006836
v -0.105232 0.000144 0.046256
v 0.082496 0.214038 -0.006836
v -0.059167 -0.004582 -0.115660
v -0.000055 0.326226 -0.136078
v 0.087011 0.038072 -0.136078
v -0.000055 0.326226 0.136219
v 0.087011 0.038072 0.136219
vt 0.670410 0.218262
vt 0.618164 0.400391
vt 0.582520 0.214844
vt 0.548340 0.401855
vt 0.471436 0.213379
vt 0.212280 0.661865
vt 0.212280 0.455078
vt 0.407959 0.661865
vt 0.407959 0.455078
vt1 0.908691 1.024872
vt1 0.473633 0.889954
vt1 0.916992 0.797852
vt1 0.469238 0.710449
vt1 0.920410 0.510986
vt1 0.008064 0.991936
vt1 0.008064 0.486816
vt1 0.465332 0.991936
vt1 0.465332 0.486816
vn -0.251969 0.228346 -0.937008
vn -0.850394 0.511811 -0.110236
vn -0.803150 0.511811 0.307087
vn 0.866142 -0.472441 0.165354
vn 0.866142 -0.488189 -0.118110
vn 0.960630 0.291339 -0.000000
vn 0.960630 0.291339 -0.000000
vn 0.960630 0.291339 -0.000000
vn 0.960630 0.291339 -0.000000
tan 0.483725 -0.809288 -0.327299 1.000000
tan -0.510075 -0.851262 -0.017422 1.000000
tan -0.542439 -0.824353 -0.044764 1.000000
tan -0.453097 -0.861926 -0.089280 1.000000
tan -0.490979 -0.867072 -0.016616 1.000000
tan 0.291339 -0.960630 0.000000 1.000000
tan 0.291339 -0.960630 0.000000 1.000000
tan 0.291339 -0.960630 0.000000 1.000000
tan 0.291339 -0.960630 0.000000 1.000000
f 3/3/3 2/2/2 1/1/1
f 5/5/5 4/4/4 3/3/3
f 8/8/8 7/7/7 6/6/6
f 8/8/8 9/9/9 7/7/7
