mtllib SM_Fence_09_LOD1.mtl
g SM_Fence_09_LOD1
#Vertices 46
#Indices 102
#Section 0 Offset 0 NumIndices 102 MaterialIndex 0 MI_Fences
v 0.005595 -0.000248 0.038352
v 0.009752 1.079546 0.045793
v 0.030077 1.079547 0.025884
v 0.025957 0.000008 0.008052
v 0.036236 1.079769 -0.013041
v 0.022380 -0.000075 -0.020779
v 0.009752 1.079546 -0.045793
v 0.004836 -0.000000 -0.037280
v -0.043127 1.079546 -0.045793
v -0.039184 -0.000804 -0.039618
v -0.016538 1.079552 -0.054065
v 0.004836 -0.000000 -0.037280
v 0.009752 1.079546 -0.045793
v -0.055679 -0.000010 0.020931
v -0.043127 1.079546 0.045793
v -0.038212 0.000000 0.037280
v -0.069539 1.079620 0.013342
v -0.059375 -0.000005 -0.007807
v -0.063559 1.079556 -0.025699
v -0.039184 -0.000804 -0.039618
v -0.043127 1.079546 -0.045793
v 0.005595 -0.000248 0.038352
v -0.016546 1.079601 0.054063
v 0.009752 1.079546 0.045793
v -0.016895 0.000005 0.043394
v -0.038212 0.000000 0.037280
v -0.043127 1.079546 0.045793
v 0.005595 -0.000248 0.038352
v 0.025957 0.000008 0.008052
v 0.022380 -0.000075 -0.020779
v -0.016895 0.000005 0.043394
v -0.038212 0.000000 0.037280
v -0.055679 -0.000010 0.020931
v -0.059375 -0.000005 -0.007807
v -0.039184 -0.000804 -0.039618
v 0.004836 -0.000000 -0.037280
v 0.036236 1.079769 -0.013041
v -0.016538 1.079552 -0.054065
v 0.009752 1.079546 -0.045793
v -0.043127 1.079546 -0.045793
v -0.063559 1.079556 -0.025699
v -0.069539 1.079620 0.013342
v -0.043127 1.079546 0.045793
v -0.016546 1.079601 0.054063
v 0.009752 1.079546 0.045793
v 0.030077 1.079547 0.025884
vt 0.318359 0.001953
vt 0.321777 0.462402
vt 0.313232 0.462891
vt 0.305664 0.002441
vt 0.296387 0.462891
vt 0.293213 0.001953
vt 0.282715 0.462402
vt 0.286377 0.001953
vt 0.405518 0.462402
vt 0.407715 0.001953
vt 0.416748 0.462891
vt 0.426025 0.001953
vt 0.427979 0.462402
vt 0.369385 0.001953
vt 0.358643 0.462402
vt 0.362305 0.001953
vt 0.372314 0.462891
vt 0.381348 0.001953
vt 0.389160 0.462891
vt 0.394775 0.001953
vt 0.397705 0.462402
vt 0.349854 0.462891
vt 0.340820 0.001953
vt 0.352051 0.001953
vt 0.340576 0.462402
vt 0.331543 0.462402
vt 0.329590 0.001953
vt 0.142212 0.726074
vt 0.155151 0.717529
vt 0.167358 0.718994
vt 0.140015 0.735840
vt 0.142700 0.744873
vt 0.149658 0.752319
vt 0.161743 0.753784
vt 0.175415 0.745361
vt 0.174438 0.726318
vt 0.042725 0.666016
vt 0.025253 0.688477
vt 0.028793 0.677246
vt 0.028793 0.699707
vt 0.037323 0.708252
vt 0.053986 0.710938
vt 0.067810 0.699707
vt 0.071289 0.688477
vt 0.067810 0.677246
vt 0.059326 0.668701
vt1 0.007828 0.453613
vt1 0.991699 0.459961
vt1 0.991699 0.441895
vt1 0.008064 0.425781
vt1 0.991699 0.406250
vt1 0.007996 0.399414
vt1 0.991699 0.376465
vt1 0.008064 0.384277
vt1 0.008064 0.186035
vt1 0.992188 0.190918
vt1 0.008057 0.210449
vt1 0.991699 0.229492
vt1 0.008064 0.233887
vt1 0.991699 0.286621
vt1 0.008064 0.263672
vt1 0.991699 0.271484
vt1 0.007996 0.292969
vt1 0.991699 0.312500
vt1 0.008049 0.329102
vt1 0.992188 0.341309
vt1 0.008064 0.347168
vt1 0.007843 0.165527
vt1 0.991699 0.145996
vt1 0.991699 0.169434
vt1 0.008064 0.145508
vt1 0.008064 0.125977
vt1 0.991699 0.121582
vt1 0.703613 0.702393
vt1 0.762207 0.663086
vt1 0.817871 0.669922
vt1 0.693848 0.745850
vt1 0.705566 0.786987
vt1 0.736816 0.820679
vt1 0.792969 0.827881
vt1 0.854004 0.788818
vt1 0.849609 0.703857
vt1 0.232910 0.586914
vt1 0.153687 0.688721
vt1 0.169678 0.637939
vt1 0.169678 0.740234
vt1 0.208496 0.779663
vt1 0.283936 0.791138
vt1 0.346436 0.740234
vt1 0.362549 0.688721
vt1 0.346436 0.637939
vt1 0.308105 0.598633
vn 0.535433 -0.007874 0.842520
vn 0.496063 -0.007874 0.866142
vn 0.874016 -0.007874 0.488189
vn 0.984252 -0.007874 0.188976
vn 0.968504 -0.007874 -0.259842
vn 0.881890 -0.007874 -0.472441
vn 0.496063 -0.007874 -0.866142
vn 0.496063 -0.007874 -0.866142
vn -0.496063 -0.007874 -0.866142
vn -0.472441 -0.007874 -0.881890
vn 0.000000 -0.007874 -1.000000
vn 0.496063 -0.007874 -0.866142
vn 0.496063 -0.007874 -0.866142
vn -0.881890 -0.007874 0.480315
vn -0.496063 -0.007874 0.866142
vn -0.496063 -0.007874 0.866142
vn -0.968504 -0.007874 0.259842
vn -0.984252 -0.007874 -0.181102
vn -0.874016 -0.007874 -0.488189
vn -0.519685 -0.007874 -0.858268
vn -0.496063 -0.007874 -0.866142
vn 0.503937 -0.007874 0.866142
vn 0.000000 -0.007874 1.000000
vn 0.496063 -0.007874 0.866142
vn -0.015748 -0.007874 1.000000
vn -0.496063 -0.007874 0.866142
vn -0.496063 -0.007874 0.866142
vn 0.000000 -1.000000 0.000000
vn 0.000000 -1.000000 0.000000
vn 0.000000 -1.000000 0.000000
vn 0.000000 -1.000000 0.000000
vn 0.000000 -1.000000 0.000000
vn 0.000000 -1.000000 0.000000
vn 0.000000 -1.000000 0.000000
vn 0.000000 -1.000000 0.000000
vn 0.000000 -1.000000 0.000000
vn 0.000000 1.000000 -0.000000
vn 0.000000 1.000000 -0.000000
vn 0.000000 1.000000 -0.000000
vn 0.000000 1.000000 -0.000000
vn 0.000000 1.000000 -0.000000
vn 0.000000 1.000000 -0.000000
vn 0.000000 1.000000 -0.000000
vn 0.000000 1.000000 -0.000000
vn 0.000000 1.000000 -0.000000
vn 0.000000 1.000000 -0.000000
tan 0.842520 -0.006634 -0.535495 1.000000
tan 0.866142 -0.006820 -0.496125 1.000000
tan 0.488189 -0.000000 -0.874016 1.000000
tan 0.188976 -0.000000 -0.984252 1.000000
tan -0.259843 -0.000000 -0.968504 1.000000
tan -0.472441 -0.000000 -0.881890 1.000000
tan -0.866142 0.006820 -0.496125 1.000000
tan -0.866142 0.006820 -0.496125 1.000000
tan -0.866142 0.000000 0.496063 1.000000
tan -0.881890 0.000000 0.472441 1.000000
tan -1.000000 0.000000 0.000000 1.000000
tan -0.866142 -0.000000 -0.496063 1.000000
tan -0.866142 -0.000000 -0.496063 1.000000
tan 0.480315 0.000000 0.881890 1.000000
tan 0.866142 0.006820 0.496125 1.000000
tan 0.866142 0.006820 0.496125 1.000000
tan 0.259843 0.000000 0.968504 1.000000
tan -0.181102 0.000000 0.984252 1.000000
tan -0.488189 0.000000 0.874016 1.000000
tan -0.858268 -0.006758 0.519747 1.000000
tan -0.866142 -0.006820 0.496125 1.000000
tan -0.866142 0.000000 0.503937 1.000000
tan -1.000000 0.000000 0.000000 1.000000
tan -0.866142 0.000000 0.496063 1.000000
tan -1.000000 -0.000000 -0.015748 1.000000
tan -0.866142 -0.000000 -0.496063 1.000000
tan -0.866142 -0.000000 -0.496063 1.000000
tan 1.000000 0.000000 0.000000 1.000000
tan 1.000000 0.000000 0.000000 1.000000
tan 1.000000 0.000000 0.000000 1.000000
tan 1.000000 0.000000 0.000000 1.000000
tan 1.000000 0.000000 0.000000 1.000000
tan 1.000000 0.000000 0.000000 1.000000
tan 1.000000 0.000000 0.000000 1.000000
tan 1.000000 0.000000 0.000000 1.000000
tan 1.000000 0.000000 0.000000 1.000000
tan 1.000000 0.000000 0.000000 1.000000
tan 1.000000 0.000000 0.000000 1.000000
tan 1.000000 0.000000 0.000000 1.000000
tan 1.000000 0.000000 0.000000 1.000000
tan 1.000000 0.000000 0.000000 1.000000
tan 1.000000 0.000000 0.000000 1.000000
tan 1.000000 0.000000 0.000000 1.000000
tan 1.000000 0.000000 0.000000 1.000000
tan 1.000000 0.000000 0.000000 1.000000
tan 1.000000 0.000000 0.000000 1.000000
f 3/3/3 2/2/2 1/1/1
f 4/4/4 3/3/3 1/1/1
f 3/3/3 4/4/4 5/5/5
f 6/6/6 5/5/5 4/4/4
f 5/5/5 6/6/6 7/7/7
f 8/8/8 7/7/7 6/6/6
f 11/11/11 10/10/10 9/9/9
f 10/10/10 11/11/11 12/12/12
f 13/13/13 12/12/12 11/11/11
f 16/16/16 15/15/15 14/14/14
f 17/17/17 14/14/14 15/15/15
f 18/18/18 14/14/14 17/17/17
f 19/19/19 18/18/18 17/17/17
f 18/18/18 19/19/19 20/20/20
f 21/21/21 20/20/20 19/19/19
f 24/24/24 23/23/23 22/22/22
f 22/22/22 23/23/23 25/25/25
f 25/25/25 23/23/23 26/26/26
f 27/27/27 26/26/26 23/23/23
f 30/30/30 29/29/29 28/28/28
f 28/28/28 31/31/31 30/30/30
f 31/31/31 32/32/32 30/30/30
f 33/33/33 30/30/30 32/32/32
f 34/34/34 30/30/30 33/33/33
f 34/34/34 35/35/35 30/30/30
f 36/36/36 30/30/30 35/35/35
f 39/39/39 38/38/38 37/37/37
f 38/38/38 40/40/40 37/37/37
f 40/40/40 41/41/41 37/37/37
f 42/42/42 37/37/37 41/41/41
f 43/43/43 37/37/37 42/42/42
f 44/44/44 37/37/37 43/43/43
f 44/44/44 45/45/45 37/37/37
f 37/37/37 45/45/45 46/46/46
