mtllib SM_Food_SM_Pepper_01_LOD3.mtl
g SM_Food_SM_Pepper_01_LOD3
#Vertices 54
#Indices 120
#Section 0 Offset 0 NumIndices 120 MaterialIndex 0 MI_Food
v -0.001618 0.092145 0.001489
v 0.004716 0.081075 -0.004653
v 0.011997 0.088323 0.008343
v -0.027039 0.111752 -0.001377
v -0.031554 0.102835 -0.011927
v -0.031554 0.102835 -0.011927
v -0.010859 -0.014344 0.000792
v 0.037768 -0.005196 0.031638
v 0.023506 -0.004585 0.002165
v -0.003181 0.002593 0.039576
v -0.003181 0.002593 0.039576
v -0.012961 0.072594 0.052878
v 0.037768 -0.005196 0.031638
v 0.035109 0.077243 0.045144
v 0.059039 0.062701 0.018099
v 0.059039 0.062701 0.018099
v 0.035109 0.077243 0.045144
v 0.047413 0.111780 0.019347
v -0.012961 0.072594 0.052878
v 0.011997 0.088323 0.008343
v -0.015548 0.091190 0.019201
v 0.011997 0.088323 0.008343
v -0.015548 0.091190 0.019201
v -0.007802 0.084531 -0.016380
v -0.001618 0.092145 0.001489
v 0.004716 0.081075 -0.004653
v -0.031554 0.102835 -0.011927
v -0.001618 0.092145 0.001489
v 0.032138 0.054712 -0.041216
v 0.037768 -0.005196 0.031638
v 0.059039 0.062701 0.018099
v 0.023506 -0.004585 0.002165
v -0.010859 -0.014344 0.000792
v -0.023307 0.064879 -0.038777
v -0.010859 -0.014344 0.000792
v -0.012961 0.072594 0.052878
v -0.003181 0.002593 0.039576
v -0.040455 0.083463 0.032294
v -0.015548 0.091190 0.019201
v -0.023307 0.064879 -0.038777
v -0.032282 0.088600 -0.008761
v -0.007802 0.084531 -0.016380
v -0.007802 0.084531 -0.016380
v 0.004716 0.081075 -0.004653
v 0.010629 0.092936 -0.027194
v 0.011997 0.088323 0.008343
v 0.004716 0.081075 -0.004653
v -0.007802 0.084531 -0.016380
v 0.044290 0.100932 -0.023816
v 0.047413 0.111780 0.019347
v 0.059039 0.062701 0.018099
v 0.032138 0.054712 -0.041216
v 0.003161 0.100391 -0.046229
v -0.023307 0.064879 -0.038777
vt 0.578613 0.956573
vt 0.589844 0.949097
vt 0.596680 0.963257
vt 0.549316 0.951965
vt 0.551758 0.940308
vt 0.547852 0.961273
vt 0.516602 0.235840
vt 0.570312 0.241699
vt 0.540039 0.253418
vt 0.542480 0.211426
vt 0.798340 0.163086
vt 0.840332 0.108887
vt 0.821289 0.196777
vt 0.875488 0.139648
vt 0.886230 0.174805
vt 0.906250 0.538818
vt 0.868164 0.536133
vt 0.884766 0.496094
vt 0.821289 0.526855
vt 0.848145 0.475098
vt 0.821777 0.482910
vt 0.977539 0.430664
vt 0.980957 0.460449
vt 0.956055 0.438965
vt 0.969727 0.424316
vt 0.955078 0.431641
vt 0.976562 0.402344
vt 0.955078 0.417480
vt 0.324219 0.782715
vt 0.262451 0.850952
vt 0.258057 0.781250
vt 0.297119 0.845337
vt 0.322754 0.867065
vt 0.375732 0.799927
vt 0.033508 0.670410
vt 0.102722 0.741211
vt 0.035156 0.710693
vt 0.119995 0.716553
vt 0.150391 0.716553
vt 0.116882 0.650635
vt 0.139404 0.684814
vt 0.171021 0.683594
vt 0.155884 0.666016
vt 0.697266 0.165527
vt 0.688477 0.139648
vt 0.713867 0.169434
vt 0.671387 0.162109
vt 0.664551 0.141602
vt 0.719238 0.125977
vt 0.752930 0.147949
vt 0.766602 0.099121
vt 0.703613 0.079102
vt 0.681641 0.121094
vt 0.651367 0.102051
vt1 0.390625 0.113281
vt1 0.436523 0.082520
vt1 0.465820 0.141113
vt1 0.267578 0.094238
vt1 0.278076 0.045898
vt1 0.261719 0.132812
vt1 0.032074 0.064453
vt1 0.253906 0.041016
vt1 0.128052 -0.007812
vt1 0.138794 0.164551
vt1 0.942871 0.868164
vt1 0.769531 0.646240
vt1 0.847656 1.006607
vt1 0.625977 0.771729
vt1 0.580566 0.917664
vt1 0.955078 0.381348
vt1 0.944336 0.224609
vt1 0.778320 0.293945
vt1 0.905762 0.033203
vt1 0.691406 0.143066
vt1 0.723633 0.034668
vt1 0.833496 0.647217
vt1 0.952637 0.661377
vt1 0.867188 0.552246
vt1 0.809570 0.613281
vt1 0.838379 0.548340
vt1 0.720703 0.643311
vt1 0.782715 0.547363
vt1 0.695801 0.491699
vt1 0.414795 0.236816
vt1 0.701660 0.219238
vt1 0.437988 0.380371
vt1 0.348389 0.485352
vt1 0.624512 0.704346
vt1 0.012856 0.713135
vt1 0.297607 1.005753
vt1 0.019577 0.879822
vt1 0.368408 0.903564
vt1 0.493896 0.904053
vt1 0.355713 0.631104
vt1 0.448486 0.772339
vt1 0.578613 0.767578
vt1 0.516113 0.694824
vt1 0.363770 0.456055
vt1 0.259033 0.491699
vt1 0.379883 0.388184
vt1 0.350098 0.562012
vt1 0.266357 0.591553
vt1 0.200928 0.366211
vt1 0.291748 0.226562
vt1 0.091614 0.169434
vt1 0.009575 0.429199
vt1 0.181763 0.519531
vt1 0.103943 0.645996
vn 0.275591 0.779527 0.559055
vn -0.023622 0.984252 0.165354
vn 0.173228 0.944882 0.283464
vn 0.181102 0.850394 0.496063
vn 0.023622 0.212598 -0.976378
vn -0.157480 -0.929134 0.330709
vn -0.015748 -1.000000 0.039370
vn -0.173228 -0.960630 0.228347
vn 0.141732 -0.952756 -0.259842
vn 0.283465 -0.818897 0.496063
vn 0.125984 -0.464567 0.874016
vn -0.220472 -0.015748 0.976378
vn 0.440945 -0.590551 0.677165
vn 0.385827 0.055118 0.921260
vn 0.952756 -0.023622 0.299213
vn 0.960630 -0.031496 0.275591
vn 0.440945 0.055118 0.897638
vn 0.464567 0.889764 0.031496
vn -0.125984 0.118110 0.984252
vn -0.354331 0.622047 -0.692913
vn 0.165354 0.653543 -0.740157
vn -0.511811 0.858268 0.031496
vn 0.181102 0.393701 -0.905512
vn -0.755906 0.551181 0.354331
vn -0.448819 -0.220472 0.866142
vn -0.590551 0.307086 -0.748031
vn -0.141732 -0.259843 -0.952756
vn 0.818898 0.566929 -0.055118
vn 0.582677 -0.299213 -0.755905
vn 0.755906 -0.645669 0.078740
vn 1.000000 -0.062992 0.047244
vn 0.488189 -0.874016 -0.047244
vn -0.614173 -0.692913 -0.370079
vn -0.661417 -0.236221 -0.708661
vn -0.669291 -0.653543 -0.354331
vn -0.188976 0.125984 0.976378
vn -0.165354 -0.551181 0.818898
vn -0.842520 0.141732 0.511811
vn 0.291339 0.574803 -0.763779
vn -0.551181 -0.346457 -0.763779
vn -0.267717 0.960630 -0.102362
vn -0.181102 0.952756 0.251968
vn 0.094488 0.881890 0.464567
vn -0.023622 0.826771 -0.566929
vn -0.228346 0.629921 0.740157
vn -0.803150 0.559055 -0.220472
vn 0.149606 0.842520 -0.511811
vn -0.181102 0.763779 0.614173
vn 0.653543 0.708661 -0.283465
vn 0.448819 0.889764 0.039370
vn 1.000000 -0.039370 -0.015748
vn 0.527559 -0.401575 -0.748031
vn -0.212598 0.700787 -0.685039
vn -0.582677 -0.204724 -0.787401
tan 0.277637 0.482733 -0.809970 1.000000
tan 0.240250 0.165912 -0.953252 1.000000
tan -0.109368 0.301692 -0.938806 1.000000
tan -0.082026 0.512121 -0.847976 1.000000
tan -0.338273 -0.914874 -0.207390 1.000000
tan 0.343853 0.248993 0.863290 1.000000
tan -0.700787 0.039246 0.716535 1.000000
tan -0.499225 0.286007 0.824477 1.000000
tan -0.585157 -0.291648 0.750201 1.000000
tan -0.435117 0.305785 0.753425 1.000000
tan -0.254635 0.839606 0.482981 1.000000
tan -0.799554 0.561225 -0.171492 1.000000
tan -0.254138 0.642321 0.725649 1.000000
tan -0.855974 0.348193 0.337653 1.000000
tan -0.249985 0.465125 0.832723 1.000000
tan 0.145700 0.869862 -0.408457 1.000000
tan 0.421477 0.812449 -0.256929 1.000000
tan -0.832972 0.446463 -0.326245 1.000000
tan -0.161820 0.969744 -0.137082 1.000000
tan -0.071796 -0.737677 -0.625519 1.000000
tan -0.019530 -0.744063 -0.661355 1.000000
tan 0.683055 0.425879 -0.505549 1.000000
tan 0.774072 -0.469155 -0.049166 1.000000
tan 0.483911 0.738421 -0.116312 1.000000
tan -0.573005 0.668857 -0.126666 1.000000
tan 0.371567 0.791121 0.031434 1.000000
tan -0.188232 0.942216 -0.228967 1.000000
tan -0.529419 0.788393 0.243536 1.000000
tan 0.286193 0.943890 -0.153016 1.000000
tan 0.652489 0.757765 -0.050220 1.000000
tan 0.073532 0.960630 -0.275591 1.000000
tan 0.838118 0.482361 -0.263129 1.000000
tan 0.130324 0.312977 -0.802282 1.000000
tan 0.684481 0.119040 -0.678529 1.000000
tan 0.592907 -0.187550 -0.774009 1.000000
tan -0.937938 -0.261393 -0.147808 1.000000
tan -0.227912 -0.784054 -0.573749 1.000000
tan -0.531651 -0.153760 -0.832600 1.000000
tan -0.231570 -0.723107 -0.632525 1.000000
tan 0.774134 0.046128 -0.579577 1.000000
tan -0.256371 -0.170004 -0.924918 1.000000
tan -0.230578 0.199826 -0.921322 1.000000
tan 0.254014 0.420237 -0.849402 1.000000
tan 0.523219 -0.427243 -0.644863 1.000000
tan 0.001488 0.749147 -0.637113 1.000000
tan 0.585901 0.793353 -0.122636 1.000000
tan -0.348999 -0.406225 -0.770723 1.000000
tan -0.233368 0.530969 -0.729121 1.000000
tan 0.677413 -0.694587 -0.174654 1.000000
tan 0.862360 -0.424763 -0.231260 1.000000
tan -0.041850 -0.968504 -0.236220 1.000000
tan -0.443983 -0.836196 0.135780 1.000000
tan 0.010044 -0.695083 -0.714179 1.000000
tan 0.733461 -0.332941 -0.456197 1.000000
f 3/3/3 2/2/2 1/1/1
f 5/5/5 4/4/4 1/1/1
f 1/1/1 4/4/4 6/6/6
f 9/9/9 8/8/8 7/7/7
f 7/7/7 8/8/8 10/10/10
f 13/13/13 12/12/12 11/11/11
f 14/14/14 12/12/12 13/13/13
f 13/13/13 15/15/15 14/14/14
f 18/18/18 17/17/17 16/16/16
f 19/19/19 17/17/17 18/18/18
f 19/19/19 18/18/18 20/20/20
f 21/21/21 19/19/19 20/20/20
f 24/24/24 23/23/23 22/22/22
f 24/24/24 22/22/22 25/25/25
f 24/24/24 25/25/25 26/26/26
f 26/26/26 25/25/25 27/27/27
f 26/26/26 27/27/27 28/28/28
f 31/31/31 30/30/30 29/29/29
f 29/29/29 30/30/30 32/32/32
f 32/32/32 33/33/33 29/29/29
f 34/34/34 29/29/29 33/33/33
f 37/37/37 36/36/36 35/35/35
f 38/38/38 35/35/35 36/36/36
f 36/36/36 39/39/39 38/38/38
f 38/38/38 40/40/40 35/35/35
f 39/39/39 41/41/41 38/38/38
f 38/38/38 41/41/41 40/40/40
f 41/41/41 39/39/39 42/42/42
f 41/41/41 43/43/43 40/40/40
f 46/46/46 45/45/45 44/44/44
f 48/48/48 47/47/47 45/45/45
f 46/46/46 49/49/49 45/45/45
f 50/50/50 49/49/49 46/46/46
f 51/51/51 49/49/49 50/50/50
f 51/51/51 52/52/52 49/49/49
f 45/45/45 53/53/53 48/48/48
f 45/45/45 49/49/49 53/53/53
f 49/49/49 52/52/52 53/53/53
f 48/48/48 53/53/53 54/54/54
f 53/53/53 52/52/52 54/54/54
