mtllib SM_Food_SM_Clementine.mtl
g SM_Food_SM_Clementine
#Vertices 112
#Indices 450
#Section 0 Offset 0 NumIndices 450 MaterialIndex 0 MI_Food
v 0.031167 0.037575 0.010462
v 0.032384 0.027789 0.010062
v 0.029210 0.033599 0.015473
v 0.025010 0.050177 0.007602
v 0.019661 0.039571 0.025671
v 0.020279 0.046756 0.019853
v 0.002996 0.053360 0.023366
v -0.000379 0.043862 0.029643
v 0.007130 0.057707 0.015289
v 0.019026 0.055278 0.005794
v -0.010969 0.051798 0.023024
v -0.012614 0.045530 0.027986
v 0.004595 0.060103 0.002878
v 0.002219 0.059824 -0.003502
v -0.012949 0.058635 0.009350
v -0.007357 0.059356 -0.006389
v -0.018511 0.054432 -0.010064
v -0.022963 0.052794 0.010151
v -0.027670 0.042029 0.015693
v -0.032745 0.040424 0.004272
v -0.024138 0.052253 -0.006464
v -0.026567 0.045870 -0.013985
v -0.033959 0.034913 -0.007197
v -0.030599 0.029102 -0.016177
v 0.014845 -0.002059 0.005356
v -0.003741 -0.000450 0.001066
v -0.005425 -0.000810 0.010348
v 0.009035 0.000661 0.017477
v 0.020507 0.005299 0.012636
v -0.006468 0.002395 0.020272
v 0.021473 0.014923 0.022869
v 0.027214 0.013898 0.012438
v 0.032384 0.027789 0.010062
v 0.004269 0.009106 0.027370
v 0.023476 0.026834 0.024385
v 0.029210 0.033599 0.015473
v 0.019661 0.039571 0.025671
v 0.014060 0.023658 0.031034
v 0.004401 0.036313 0.032402
v -0.000379 0.043862 0.029643
v -0.012614 0.045530 0.027986
v -0.003711 0.014369 0.030677
v -0.002282 0.025807 0.034348
v -0.017195 0.009720 0.023797
v -0.017856 0.024637 0.030511
v -0.022520 0.032600 0.026388
v -0.027670 0.042029 0.015693
v -0.031752 0.028091 0.016293
v -0.032745 0.040424 0.004272
v -0.026556 0.015275 0.019135
v -0.035668 0.024067 0.002555
v -0.033959 0.034913 -0.007197
v -0.030599 0.029102 -0.016177
v -0.031564 0.018663 -0.013477
v -0.028990 0.009026 0.005528
v -0.027151 0.008385 -0.007931
v -0.017719 0.000632 -0.003942
v -0.017405 0.001165 0.010684
v -0.003741 -0.000450 0.001066
v -0.005425 -0.000810 0.010348
v 0.032384 0.027789 0.010062
v 0.031167 0.037575 0.010462
v 0.033578 0.027994 -0.004744
v 0.027215 0.044022 -0.011633
v 0.026522 0.032355 -0.019597
v 0.016522 0.034274 -0.029624
v 0.023553 0.052119 -0.005244
v 0.025010 0.050177 0.007602
v 0.019026 0.055278 0.005794
v 0.009866 0.048994 -0.025075
v 0.006757 0.059348 -0.010539
v 0.002219 0.059824 -0.003502
v -0.007357 0.059356 -0.006389
v -0.008433 0.053845 -0.020914
v -0.018511 0.054432 -0.010064
v 0.001768 0.038334 -0.032436
v 0.004832 0.029458 -0.033844
v -0.008741 0.028740 -0.033896
v -0.006345 0.043066 -0.029834
v -0.021871 0.032578 -0.026279
v -0.018035 0.044807 -0.023368
v -0.026567 0.045870 -0.013985
v -0.030599 0.029102 -0.016177
v -0.030599 0.029102 -0.016177
v -0.020783 0.021228 -0.027488
v -0.021871 0.032578 -0.026279
v -0.031564 0.018663 -0.013477
v -0.008741 0.028740 -0.033896
v -0.020843 0.011546 -0.022527
v -0.027151 0.008385 -0.007931
v -0.005897 0.011982 -0.030573
v -0.020523 0.003811 -0.012554
v -0.017719 0.000632 -0.003942
v -0.001492 0.002495 -0.023458
v -0.005988 -0.002053 -0.013875
v -0.003741 -0.000450 0.001066
v 0.014845 -0.002059 0.005356
v 0.014246 -0.000733 -0.010813
v 0.013986 0.011655 -0.027342
v 0.000372 0.018405 -0.033668
v 0.004832 0.029458 -0.033844
v 0.017757 0.024328 -0.029281
v 0.016522 0.034274 -0.029624
v 0.026522 0.032355 -0.019597
v 0.028241 0.021345 -0.017898
v 0.033578 0.027994 -0.004744
v 0.025710 0.007739 -0.010672
v 0.031351 0.016343 -0.006364
v 0.030409 0.014288 0.007402
v 0.032384 0.027789 0.010062
v 0.020507 0.005299 0.012636
v 0.027214 0.013898 0.012438
vt 0.366699 0.929932
vt 0.373779 0.928162
vt 0.370361 0.933411
vt 0.355957 0.931519
vt 0.366455 0.944336
vt 0.360352 0.940674
vt 0.352051 0.951416
vt 0.357666 0.958252
vt 0.348145 0.945068
vt 0.349854 0.933777
vt 0.346680 0.959930
vt 0.350342 0.964905
vt 0.339355 0.940765
vt 0.333740 0.939758
vt 0.336914 0.954559
vt 0.328125 0.946106
vt 0.321533 0.954224
vt 0.334229 0.962769
vt 0.336670 0.972046
vt 0.326660 0.972565
vt 0.322754 0.959442
vt 0.315674 0.962158
vt 0.316895 0.973343
vt 0.308594 0.973389
vt 0.286377 0.931946
vt 0.279053 0.945221
vt 0.272705 0.941406
vt 0.276611 0.929749
vt 0.283936 0.922485
vt 0.266113 0.936218
vt 0.276367 0.914917
vt 0.284912 0.912903
vt 0.283447 0.900818
vt 0.267822 0.925354
vt 0.272217 0.906555
vt 0.276855 0.898621
vt 0.264160 0.899536
vt 0.266357 0.912476
vt 0.254639 0.909241
vt 0.247925 0.906799
vt 0.239014 0.913635
vt 0.260742 0.925415
vt 0.255859 0.918152
vt 0.256104 0.935364
vt 0.248535 0.926575
vt 0.241333 0.926331
vt 0.230225 0.929688
vt 0.238647 0.936707
vt 0.226440 0.940186
vt 0.248535 0.938477
vt 0.237061 0.947418
vt 0.227051 0.951019
vt 0.229248 0.959991
vt 0.237915 0.960236
vt 0.249268 0.949097
vt 0.248169 0.958984
vt 0.259277 0.956909
vt 0.260010 0.945953
vt 0.270508 0.951965
vt 0.268799 0.944641
vt 0.223145 0.965881
vt 0.219604 0.972519
vt 0.213257 0.960175
vt 0.202881 0.968872
vt 0.199951 0.958649
vt 0.188599 0.959015
vt 0.203369 0.977081
vt 0.212158 0.980896
vt 0.207031 0.985123
vt 0.187134 0.971191
vt 0.190918 0.984131
vt 0.190674 0.990417
vt 0.182129 0.991173
vt 0.177124 0.980713
vt 0.171753 0.989983
vt 0.178101 0.964691
vt 0.177979 0.957611
vt 0.167847 0.961700
vt 0.174316 0.970779
vt 0.160156 0.971664
vt 0.167725 0.978058
vt 0.162476 0.985954
vt 0.151733 0.977798
vt 0.381104 0.544434
vt 0.373291 0.534424
vt 0.381592 0.533203
vt 0.373047 0.548096
vt 0.374512 0.522217
vt 0.366455 0.538818
vt 0.362793 0.550781
vt 0.362793 0.527344
vt 0.358887 0.544922
vt 0.352051 0.548584
vt 0.354492 0.530029
vt 0.350342 0.537109
vt 0.340088 0.541992
vt 0.329102 0.529297
vt 0.340820 0.525635
vt 0.353027 0.517090
vt 0.364258 0.520508
vt 0.367676 0.512207
vt 0.356445 0.508301
vt 0.360840 0.502686
vt 0.349121 0.499023
vt 0.344482 0.505859
vt 0.334473 0.499512
vt 0.338379 0.515625
vt 0.335205 0.508545
vt 0.324951 0.511230
vt 0.322266 0.500977
vt 0.322021 0.522461
vt 0.321045 0.513184
vt1 0.925293 0.619385
vt1 0.985840 0.604248
vt1 0.954590 0.649170
vt1 0.832520 0.632812
vt1 0.922363 0.742676
vt1 0.871094 0.711426
vt1 0.799316 0.803467
vt1 0.847656 0.862061
vt1 0.766113 0.749023
vt1 0.781250 0.652344
vt1 0.753906 0.876465
vt1 0.784668 0.919128
vt1 0.690918 0.712402
vt1 0.642578 0.703613
vt1 0.669434 0.830566
vt1 0.594238 0.758057
vt1 0.538086 0.827637
vt1 0.647949 0.900879
vt1 0.667969 0.980392
vt1 0.583008 0.984795
vt1 0.547852 0.872437
vt1 0.487305 0.895569
vt1 0.499756 0.991447
vt1 0.427246 0.991936
vt1 0.522949 0.750000
vt1 0.458740 0.863525
vt1 0.406006 0.830811
vt1 0.439209 0.730957
vt1 0.501953 0.668945
vt1 0.349365 0.786255
vt1 0.435791 0.604004
vt1 0.508789 0.586670
vt1 0.497070 0.483398
vt1 0.363281 0.693359
vt1 0.401123 0.532471
vt1 0.441650 0.464355
vt1 0.332031 0.472656
vt1 0.350098 0.583008
vt1 0.250977 0.555176
vt1 0.191772 0.534668
vt1 0.115784 0.593262
vt1 0.302490 0.693848
vt1 0.260498 0.631348
vt1 0.263672 0.779175
vt1 0.197021 0.703857
vt1 0.135498 0.701904
vt1 0.040192 0.730469
vt1 0.112183 0.790405
vt1 0.008064 0.820435
vt1 0.197388 0.805664
vt1 0.098572 0.882324
vt1 0.013214 0.913086
vt1 0.032349 0.989830
vt1 0.106873 0.991936
vt1 0.203979 0.896667
vt1 0.194580 0.981247
vt1 0.291016 0.963562
vt1 0.295654 0.869873
vt1 0.386963 0.921143
vt1 0.372803 0.858521
vt1 0.756836 0.058105
vt1 0.699707 0.087891
vt1 0.805664 0.142578
vt1 0.730957 0.231934
vt1 0.818848 0.257324
vt1 0.815430 0.354492
vt1 0.660645 0.227539
vt1 0.627930 0.152344
vt1 0.591797 0.195801
vt1 0.711426 0.367188
vt1 0.600586 0.333984
vt1 0.546387 0.335938
vt1 0.540039 0.409180
vt1 0.629395 0.452148
vt1 0.550293 0.498047
vt1 0.767090 0.443848
vt1 0.827637 0.444824
vt1 0.792480 0.531494
vt1 0.714844 0.476562
vt1 0.707031 0.597168
vt1 0.652344 0.532959
vt1 0.584473 0.578125
vt1 0.654785 0.669434
vt1 0.012764 0.422852
vt1 0.078613 0.336914
vt1 0.008064 0.326172
vt1 0.079895 0.454102
vt1 0.068298 0.230957
vt1 0.137817 0.375000
vt1 0.168091 0.476074
vt1 0.168091 0.274902
vt1 0.202637 0.426270
vt1 0.259766 0.457520
vt1 0.240601 0.298340
vt1 0.276123 0.358887
vt1 0.362305 0.402344
vt1 0.456299 0.292480
vt1 0.357178 0.261230
vt1 0.252686 0.188965
vt1 0.156250 0.216309
vt1 0.125977 0.145996
vt1 0.222412 0.111816
vt1 0.185669 0.063477
vt1 0.284668 0.030762
vt1 0.324463 0.092285
vt1 0.411377 0.037109
vt1 0.376953 0.175293
vt1 0.405518 0.114746
vt1 0.492432 0.136719
vt1 0.515137 0.048828
vt1 0.517578 0.232910
vt1 0.526367 0.153809
vn 0.889764 0.330709 0.307087
vn 0.952756 -0.070866 0.299213
vn 0.826772 0.173228 0.535433
vn 0.763780 0.606299 0.236220
vn 0.566929 0.338583 0.755905
vn 0.645669 0.527559 0.551181
vn 0.118110 0.724409 0.685039
vn 0.055118 0.440945 0.897638
vn 0.220472 0.889764 0.385827
vn 0.488189 0.858268 0.173228
vn -0.275591 0.732283 0.622047
vn -0.330709 0.464567 0.818897
vn 0.157480 0.984252 0.015748
vn 0.070866 1.000000 -0.015748
vn -0.275591 0.937008 0.212598
vn -0.181102 0.968504 -0.157480
vn -0.433071 0.850394 -0.307087
vn -0.629921 0.724409 0.283464
vn -0.763780 0.425197 0.488189
vn -0.913386 0.393701 0.110236
vn -0.645669 0.748031 -0.165354
vn -0.732283 0.527559 -0.440945
vn -0.944882 0.220472 -0.244094
vn -0.858268 0.078740 -0.503937
vn 0.354331 -0.929134 0.118110
vn -0.118110 -0.992126 0.039370
vn -0.118110 -0.984252 0.118110
vn 0.212598 -0.842520 0.488189
vn 0.622047 -0.692913 0.370079
vn -0.157480 -0.826771 0.543307
vn 0.622047 -0.433071 0.653543
vn 0.779528 -0.417323 0.464567
vn 0.952756 -0.070866 0.299213
vn 0.149606 -0.582677 0.803150
vn 0.724409 -0.055118 0.685039
vn 0.826772 0.173228 0.535433
vn 0.566929 0.338583 0.755905
vn 0.385827 -0.149606 0.913386
vn 0.157480 0.267717 0.952756
vn 0.055118 0.440945 0.897638
vn -0.330709 0.464567 0.818897
vn -0.086614 -0.440945 0.889764
vn -0.039370 -0.062992 1.000000
vn -0.448819 -0.582677 0.677165
vn -0.464567 -0.110236 0.881890
vn -0.637795 0.181102 0.748031
vn -0.763780 0.425197 0.488189
vn -0.881890 0.007874 0.472441
vn -0.913386 0.393701 0.110236
vn -0.748031 -0.401575 0.527559
vn -0.992126 -0.125984 0.055118
vn -0.944882 0.220472 -0.244094
vn -0.858268 0.078740 -0.503937
vn -0.889764 -0.259843 -0.377953
vn -0.795276 -0.590551 0.141732
vn -0.763780 -0.614173 -0.204724
vn -0.401575 -0.913386 -0.031496
vn -0.417323 -0.874016 0.244095
vn -0.118110 -0.992126 0.039370
vn -0.118110 -0.984252 0.118110
vn 0.952756 -0.070866 0.299213
vn 0.889764 0.330709 0.307087
vn 0.992126 0.047244 -0.141732
vn 0.818898 0.448819 -0.362205
vn 0.811024 0.181102 -0.559055
vn 0.519685 0.244094 -0.818897
vn 0.685039 0.700787 -0.188976
vn 0.763780 0.606299 0.236220
vn 0.488189 0.858268 0.173228
vn 0.330709 0.637795 -0.692913
vn 0.220472 0.937008 -0.275591
vn 0.070866 1.000000 -0.015748
vn -0.181102 0.968504 -0.157480
vn -0.204724 0.787401 -0.582677
vn -0.433071 0.850394 -0.307087
vn 0.078740 0.354331 -0.929134
vn 0.173228 0.055118 -0.984252
vn -0.259843 0.062992 -0.960630
vn -0.188976 0.480315 -0.858268
vn -0.622047 0.204724 -0.755905
vn -0.503937 0.511811 -0.700787
vn -0.732283 0.527559 -0.440945
vn -0.858268 0.078740 -0.503937
vn -0.858268 0.078740 -0.503937
vn -0.582677 -0.173228 -0.795275
vn -0.622047 0.204724 -0.755905
vn -0.889764 -0.259843 -0.377953
vn -0.259843 0.062992 -0.960630
vn -0.566929 -0.527559 -0.637795
vn -0.763780 -0.614173 -0.204724
vn -0.188976 -0.480315 -0.858268
vn -0.543307 -0.763779 -0.354331
vn -0.401575 -0.913386 -0.031496
vn -0.031496 -0.771653 -0.637795
vn -0.165354 -0.952756 -0.259842
vn -0.118110 -0.992126 0.039370
vn 0.354331 -0.929134 0.118110
vn 0.346457 -0.889764 -0.299212
vn 0.417323 -0.503937 -0.755905
vn 0.055118 -0.267717 -0.960630
vn 0.173228 0.055118 -0.984252
vn 0.543307 -0.118110 -0.834646
vn 0.519685 0.244094 -0.818897
vn 0.811024 0.181102 -0.559055
vn 0.826772 -0.181102 -0.535433
vn 0.992126 0.047244 -0.141732
vn 0.724409 -0.629921 -0.291338
vn 0.929134 -0.338583 -0.157480
vn 0.874016 -0.433071 0.236220
vn 0.952756 -0.070866 0.299213
vn 0.622047 -0.692913 0.370079
vn 0.779528 -0.417323 0.464567
tan 0.376465 -0.167834 -0.910038 1.000000
tan 0.285015 -0.160518 -0.945564 1.000000
tan 0.555521 -0.109864 -0.822246 1.000000
tan 0.430529 -0.197408 -0.885362 1.000000
tan 0.774940 0.108624 -0.629859 1.000000
tan 0.655651 -0.016120 -0.752619 1.000000
tan 0.831112 0.306156 -0.467047 1.000000
tan 0.827826 0.483167 -0.288177 1.000000
tan 0.779652 0.073780 -0.615661 1.000000
tan 0.698121 -0.262261 -0.668051 1.000000
tan 0.758944 0.562651 -0.326121 1.000000
tan 0.649389 0.743257 -0.159402 1.000000
tan 0.799864 -0.118668 -0.581871 1.000000
tan 0.881642 -0.069936 -0.473557 1.000000
tan 0.839730 0.341807 -0.417943 1.000000
tan 0.932110 0.121148 -0.326865 1.000000
tan 0.893360 0.351045 -0.287743 1.000000
tan 0.659433 0.691425 -0.301569 1.000000
tan 0.411061 0.901544 -0.142104 1.000000
tan 0.345961 0.887346 -0.302561 1.000000
tan 0.754294 0.581561 -0.314465 1.000000
tan 0.670841 0.688697 -0.290099 1.000000
tan 0.303801 0.871474 -0.388865 1.000000
tan 0.325377 0.847170 -0.421787 1.000000
tan 0.756092 0.358051 0.548391 1.000000
tan 0.754294 -0.063860 0.653605 1.000000
tan 0.732531 -0.006510 0.678281 1.000000
tan 0.726703 0.467543 0.490421 1.000000
tan 0.659867 0.715729 0.230950 1.000000
tan 0.524149 0.395189 0.753301 1.000000
tan 0.553785 0.830430 0.023188 1.000000
tan 0.488747 0.866700 -0.041540 1.000000
tan 0.169632 0.932978 -0.319177 1.000000
tan 0.659309 0.666315 0.360593 1.000000
tan 0.333561 0.894786 -0.280737 1.000000
tan 0.107756 0.887532 -0.453531 1.000000
tan 0.319239 0.760369 -0.580011 1.000000
tan 0.534751 0.845372 -0.087420 1.000000
tan 0.629921 0.719015 -0.306157 1.000000
tan 0.648273 0.664641 -0.366297 1.000000
tan 0.802220 0.596317 -0.014322 1.000000
tan 0.605183 0.682187 0.396987 1.000000
tan 0.654039 0.755595 0.073346 1.000000
tan 0.444913 0.508401 0.732345 1.000000
tan 0.633641 0.658317 0.416083 1.000000
tan 0.689193 0.570525 0.449501 1.000000
tan 0.647405 0.489305 0.586707 1.000000
tan 0.405419 0.521297 0.748093 1.000000
tan 0.293137 0.443425 0.845185 1.000000
tan 0.319549 0.478207 0.817099 1.000000
tan 0.002728 0.382789 0.924050 1.000000
tan -0.130014 0.430157 0.891810 1.000000
tan -0.451733 0.342055 0.822803 1.000000
tan -0.430777 0.192696 0.881642 1.000000
tan -0.011532 0.248745 0.971728 1.000000
tan -0.286937 0.038688 0.954430 1.000000
tan -0.027032 -0.022444 0.995536 1.000000
tan 0.155806 0.196106 0.968566 1.000000
tan 0.145576 0.022010 0.991382 1.000000
tan 0.170810 0.096720 0.976812 1.000000
tan 0.096224 -0.852378 -0.508277 1.000000
tan 0.447145 -0.740963 -0.497613 1.000000
tan -0.023436 -0.888338 -0.460165 1.000000
tan 0.261330 -0.849526 -0.461839 1.000000
tan 0.007688 -0.955980 -0.298530 1.000000
tan 0.177754 -0.965838 -0.175088 1.000000
tan 0.507781 -0.648397 -0.563767 1.000000
tan 0.621923 -0.576663 -0.530783 1.000000
tan 0.729183 -0.288301 -0.626573 1.000000
tan 0.376403 -0.764214 -0.523777 1.000000
tan 0.524707 -0.352843 -0.779899 1.000000
tan 0.581933 -0.054064 -0.814371 1.000000
tan 0.324509 -0.092132 -0.939798 1.000000
tan 0.358237 -0.490545 -0.788765 1.000000
tan 0.176142 -0.253767 -0.951144 1.000000
tan 0.379813 -0.872094 -0.300390 1.000000
tan 0.343233 -0.938124 0.007874 1.000000
tan 0.487321 -0.850890 -0.187612 1.000000
tan 0.422221 -0.751751 -0.513671 1.000000
tan 0.454461 -0.692727 -0.561597 1.000000
tan 0.360407 -0.615289 -0.708537 1.000000
tan 0.167772 -0.487693 -0.862112 1.000000
tan 0.352533 -0.625767 -0.698183 1.000000
tan 0.506665 0.226548 -0.827516 1.000000
tan 0.744621 0.285944 -0.607849 1.000000
tan 0.780334 0.266290 -0.570029 1.000000
tan 0.367165 0.090148 -0.926344 1.000000
tan 0.865646 0.445905 -0.204910 1.000000
tan 0.661107 0.178002 -0.734887 1.000000
tan 0.380433 -0.170252 -0.908550 1.000000
tan 0.792486 0.443549 -0.422717 1.000000
tan 0.595635 -0.051708 -0.801847 1.000000
tan 0.628433 -0.250853 -0.737801 1.000000
tan 0.799306 0.367599 -0.484221 1.000000
tan 0.814992 0.017670 -0.583421 1.000000
tan 0.842458 -0.121210 -0.527125 1.000000
tan 0.915804 0.317131 -0.252650 1.000000
tan 0.827020 0.442557 -0.358423 1.000000
tan 0.670593 0.727757 -0.114948 1.000000
tan 0.768802 0.626139 -0.130386 1.000000
tan 0.708661 0.687891 0.163246 1.000000
tan 0.513919 0.836691 0.216132 1.000000
tan 0.372559 0.799678 0.474797 1.000000
tan 0.071300 0.913262 0.399281 1.000000
tan 0.286069 0.947238 0.121334 1.000000
tan -0.041292 1.004402 0.045756 1.000000
tan 0.615847 0.778535 -0.152024 1.000000
tan 0.335731 0.940542 -0.041354 1.000000
tan 0.465931 0.883688 -0.103850 1.000000
tan 0.134726 0.975200 -0.198028 1.000000
tan 0.748713 0.668299 -0.007192 1.000000
tan 0.507037 0.859384 -0.078802 1.000000
f 3/3/3 2/2/2 1/1/1
f 3/3/3 1/1/1 4/4/4
f 3/3/3 4/4/4 5/5/5
f 5/5/5 4/4/4 6/6/6
f 5/5/5 6/6/6 7/7/7
f 5/5/5 7/7/7 8/8/8
f 9/9/9 6/6/6 4/4/4
f 9/9/9 7/7/7 6/6/6
f 4/4/4 10/10/10 9/9/9
f 8/8/8 7/7/7 11/11/11
f 9/9/9 11/11/11 7/7/7
f 8/8/8 11/11/11 12/12/12
f 10/10/10 13/13/13 9/9/9
f 14/14/14 13/13/13 10/10/10
f 9/9/9 13/13/13 15/15/15
f 15/15/15 13/13/13 14/14/14
f 9/9/9 15/15/15 11/11/11
f 14/14/14 16/16/16 15/15/15
f 15/15/15 16/16/16 17/17/17
f 11/11/11 18/18/18 12/12/12
f 18/18/18 11/11/11 15/15/15
f 19/19/19 12/12/12 18/18/18
f 18/18/18 20/20/20 19/19/19
f 21/21/21 15/15/15 17/17/17
f 21/21/21 18/18/18 15/15/15
f 21/21/21 20/20/20 18/18/18
f 22/22/22 21/21/21 17/17/17
f 23/23/23 20/20/20 21/21/21
f 23/23/23 21/21/21 22/22/22
f 23/23/23 22/22/22 24/24/24
f 27/27/27 26/26/26 25/25/25
f 27/27/27 25/25/25 28/28/28
f 25/25/25 29/29/29 28/28/28
f 30/30/30 27/27/27 28/28/28
f 29/29/29 31/31/31 28/28/28
f 29/29/29 32/32/32 31/31/31
f 33/33/33 31/31/31 32/32/32
f 31/31/31 34/34/34 28/28/28
f 30/30/30 28/28/28 34/34/34
f 33/33/33 35/35/35 31/31/31
f 35/35/35 33/33/33 36/36/36
f 35/35/35 36/36/36 37/37/37
f 38/38/38 31/31/31 35/35/35
f 38/38/38 35/35/35 37/37/37
f 34/34/34 31/31/31 38/38/38
f 38/38/38 37/37/37 39/39/39
f 39/39/39 37/37/37 40/40/40
f 39/39/39 40/40/40 41/41/41
f 42/42/42 34/34/34 38/38/38
f 34/34/34 42/42/42 30/30/30
f 38/38/38 39/39/39 43/43/43
f 42/42/42 38/38/38 43/43/43
f 39/39/39 41/41/41 43/43/43
f 42/42/42 44/44/44 30/30/30
f 45/45/45 42/42/42 43/43/43
f 41/41/41 45/45/45 43/43/43
f 44/44/44 42/42/42 45/45/45
f 45/45/45 41/41/41 46/46/46
f 46/46/46 41/41/41 47/47/47
f 47/47/47 48/48/48 46/46/46
f 46/46/46 48/48/48 45/45/45
f 48/48/48 47/47/47 49/49/49
f 44/44/44 45/45/45 50/50/50
f 48/48/48 50/50/50 45/45/45
f 49/49/49 51/51/51 48/48/48
f 51/51/51 50/50/50 48/48/48
f 51/51/51 49/49/49 52/52/52
f 52/52/52 53/53/53 51/51/51
f 54/54/54 51/51/51 53/53/53
f 55/55/55 51/51/51 54/54/54
f 55/55/55 50/50/50 51/51/51
f 55/55/55 54/54/54 56/56/56
f 57/57/57 55/55/55 56/56/56
f 55/55/55 58/58/58 50/50/50
f 57/57/57 58/58/58 55/55/55
f 58/58/58 44/44/44 50/50/50
f 30/30/30 44/44/44 58/58/58
f 58/58/58 57/57/57 59/59/59
f 58/58/58 60/60/60 30/30/30
f 60/60/60 58/58/58 59/59/59
f 63/63/63 62/62/62 61/61/61
f 63/63/63 64/64/64 62/62/62
f 63/63/63 65/65/65 64/64/64
f 65/65/65 66/66/66 64/64/64
f 62/62/62 64/64/64 67/67/67
f 62/62/62 67/67/67 68/68/68
f 69/69/69 68/68/68 67/67/67
f 70/70/70 64/64/64 66/66/66
f 64/64/64 70/70/70 67/67/67
f 71/71/71 69/69/69 67/67/67
f 67/67/67 70/70/70 71/71/71
f 71/71/71 72/72/72 69/69/69
f 71/71/71 73/73/73 72/72/72
f 73/73/73 71/71/71 74/74/74
f 70/70/70 74/74/74 71/71/71
f 73/73/73 74/74/74 75/75/75
f 76/76/76 70/70/70 66/66/66
f 66/66/66 77/77/77 76/76/76
f 78/78/78 76/76/76 77/77/77
f 76/76/76 79/79/79 70/70/70
f 78/78/78 79/79/79 76/76/76
f 70/70/70 79/79/79 74/74/74
f 79/79/79 78/78/78 80/80/80
f 75/75/75 74/74/74 81/81/81
f 79/79/79 81/81/81 74/74/74
f 81/81/81 79/79/79 80/80/80
f 82/82/82 75/75/75 81/81/81
f 80/80/80 82/82/82 81/81/81
f 80/80/80 83/83/83 82/82/82
f 86/86/86 85/85/85 84/84/84
f 87/87/87 84/84/84 85/85/85
f 88/88/88 85/85/85 86/86/86
f 85/85/85 89/89/89 87/87/87
f 90/90/90 87/87/87 89/89/89
f 85/85/85 88/88/88 91/91/91
f 85/85/85 91/91/91 89/89/89
f 89/89/89 92/92/92 90/90/90
f 90/90/90 92/92/92 93/93/93
f 94/94/94 89/89/89 91/91/91
f 94/94/94 92/92/92 89/89/89
f 93/93/93 92/92/92 95/95/95
f 92/92/92 94/94/94 95/95/95
f 96/96/96 93/93/93 95/95/95
f 96/96/96 95/95/95 97/97/97
f 94/94/94 98/98/98 95/95/95
f 95/95/95 98/98/98 97/97/97
f 99/99/99 94/94/94 91/91/91
f 98/98/98 94/94/94 99/99/99
f 88/88/88 100/100/100 91/91/91
f 100/100/100 99/99/99 91/91/91
f 101/101/101 100/100/100 88/88/88
f 101/101/101 102/102/102 100/100/100
f 102/102/102 99/99/99 100/100/100
f 103/103/103 102/102/102 101/101/101
f 104/104/104 102/102/102 103/103/103
f 104/104/104 105/105/105 102/102/102
f 99/99/99 102/102/102 105/105/105
f 105/105/105 104/104/104 106/106/106
f 99/99/99 107/107/107 98/98/98
f 107/107/107 99/99/99 105/105/105
f 97/97/97 98/98/98 107/107/107
f 105/105/105 106/106/106 108/108/108
f 105/105/105 108/108/108 107/107/107
f 108/108/108 106/106/106 109/109/109
f 108/108/108 109/109/109 107/107/107
f 97/97/97 107/107/107 109/109/109
f 106/106/106 110/110/110 109/109/109
f 109/109/109 111/111/111 97/97/97
f 110/110/110 112/112/112 109/109/109
f 111/111/111 109/109/109 112/112/112
