mtllib SM_Frames_05_LOD3.mtl
g SM_Frames_05_LOD3
#Vertices 24
#Indices 36
#Section 0 Offset 0 NumIndices 36 MaterialIndex 0 MI_Frames
v -0.002650 0.334245 -0.129161
v -0.008235 0.372009 -0.169164
v 0.010096 0.371657 -0.168329
v 0.002822 0.372371 0.188048
v 0.007691 0.037029 0.132403
v -0.003294 0.000284 0.178848
v -0.003061 0.334168 0.126630
v 0.004792 -0.016545 -0.169549
v -0.003174 -0.009644 0.167495
v 0.004304 0.051100 0.136707
v -0.002187 0.044789 -0.133243
v 0.001768 0.337839 -0.136077
v 0.001768 0.036819 -0.136077
v 0.001768 0.337839 0.136219
v 0.001768 0.036819 0.136219
v 0.008304 0.377883 -0.170138
v 0.007880 0.331404 0.133983
v -0.001710 0.387846 0.167670
v -0.002541 0.325037 -0.134336
v -0.003803 0.000068 -0.178141
v 0.010096 0.371657 -0.168329
v -0.008235 0.372009 -0.169164
v 0.003841 0.034071 -0.122616
v -0.002650 0.334245 -0.129161
vt 0.339355 0.811646
vt 0.346680 0.902710
vt 0.321289 0.901428
vt 0.558594 0.934875
vt 0.523438 0.696045
vt 0.556641 0.669922
vt 0.518066 0.907654
vt 0.913086 0.714844
vt 0.914551 0.475098
vt 0.956055 0.497070
vt 0.955078 0.689209
vt 0.501465 0.211914
vt 0.501465 0.000488
vt 0.692871 0.211914
vt 0.692871 0.000488
vt 0.703125 0.946350
vt 0.671875 0.729980
vt 0.708984 0.706055
vt 0.666504 0.920776
vt 0.157349 0.691895
vt 0.165649 0.956512
vt 0.153320 0.956787
vt 0.195801 0.716064
vt 0.194946 0.929871
vt1 0.510254 0.381836
vt1 0.389160 0.392090
vt1 0.390869 0.356445
vt1 0.680176 0.992290
vt1 0.583008 0.347168
vt1 0.673828 0.276367
vt1 0.567871 0.918701
vt1 0.854004 0.995506
vt1 0.857422 0.347168
vt1 0.972656 0.406250
vt1 0.969238 0.925842
vt1 0.008064 0.991936
vt1 0.008064 0.412598
vt1 0.532227 0.991936
vt1 0.532227 0.412598
vt1 0.003061 0.186523
vt1 0.588379 0.271973
vt1 0.652832 0.168945
vt1 0.072266 0.287109
vt1 0.712402 0.275879
vt1 0.735352 0.991051
vt1 0.700684 0.991730
vt1 0.818848 0.341309
vt1 0.816406 0.919067
vn 0.000000 0.669291 0.740157
vn 0.000000 0.669291 0.740157
vn 0.000000 0.669291 0.740157
vn 0.574803 0.000000 0.818897
vn 0.937008 -0.000000 -0.346457
vn 0.440945 0.000000 0.897638
vn 0.551181 -0.000000 -0.834646
vn 0.740157 -0.677165 0.000000
vn 0.330709 -0.944882 0.000000
vn 0.834646 0.543307 -0.000000
vn 0.417323 0.905512 -0.000000
vn 1.000000 0.000000 0.000000
vn 1.000000 0.000000 0.000000
vn 1.000000 0.000000 0.000000
vn 1.000000 0.000000 0.000000
vn 0.905512 0.425197 -0.000000
vn 0.952756 -0.307087 0.000000
vn 0.551181 0.834646 -0.000000
vn 0.614173 -0.787401 0.000000
vn 0.251969 -0.000000 -0.968504
vn 0.889764 -0.000000 -0.448819
vn 0.000000 -0.000000 -1.000000
vn 0.803150 0.000000 0.590551
vn 0.362205 0.000000 0.929134
tan -0.282473 -0.705189 0.637671 1.000000
tan -0.336847 -0.693533 0.627131 1.000000
tan 0.286627 -0.705189 0.637671 1.000000
tan 0.000000 -1.000310 0.000000 1.000000
tan 0.000000 -0.950648 0.000000 1.000000
tan 0.000000 -0.970302 0.000000 1.000000
tan 0.000000 -0.994358 0.000000 1.000000
tan 0.000000 0.000000 0.928638 1.000000
tan 0.000000 0.000000 0.960506 1.000000
tan 0.000000 0.000000 0.907062 1.000000
tan 0.000000 0.000000 0.954244 1.000000
tan 0.000000 -1.000000 0.000000 1.000000
tan 0.000000 -1.000000 0.000000 1.000000
tan 0.000000 -1.000000 0.000000 1.000000
tan 0.000000 -1.000000 0.000000 1.000000
tan 0.000000 0.000000 0.928948 1.000000
tan 0.000000 0.000000 0.960010 1.000000
tan 0.000000 0.000000 0.996218 1.000000
tan 0.000000 0.000000 0.996590 1.000000
tan 0.000000 -0.972472 0.000000 1.000000
tan 0.000000 -0.925104 0.000000 1.000000
tan 0.000000 -1.000000 0.000000 1.000000
tan 0.000000 -0.914378 0.000000 1.000000
tan 0.000000 -0.954802 0.000000 1.000000
f 3/3/3 2/2/2 1/1/1
f 6/6/6 5/5/5 4/4/4
f 7/7/7 4/4/4 5/5/5
f 10/10/10 9/9/9 8/8/8
f 11/11/11 10/10/10 8/8/8
f 14/14/14 13/13/13 12/12/12
f 14/14/14 15/15/15 13/13/13
f 18/18/18 17/17/17 16/16/16
f 19/19/19 16/16/16 17/17/17
f 22/22/22 21/21/21 20/20/20
f 20/20/20 21/21/21 23/23/23
f 24/24/24 23/23/23 21/21/21
