mtllib SM_Fence_07_LOD4.mtl
g SM_Fence_07_LOD4
#Vertices 12
#Indices 12
#Section 0 Offset 0 NumIndices 12 MaterialIndex 0 MI_Fences
v 0.034258 0.933161 -0.076388
v 0.048915 -0.064850 0.011620
v -0.066441 0.996014 0.113879
v -0.091083 -0.126756 -0.024085
v -0.066441 0.996014 0.113879
v 0.048915 -0.064850 0.011620
v -0.091083 -0.126756 -0.024085
v 0.034258 0.933161 -0.076388
v -0.066441 0.996014 0.113879
v 0.034258 0.933161 -0.076388
v -0.091083 -0.126756 -0.024085
v 0.048915 -0.064850 0.011620
vt 0.445068 0.399902
vt 0.464111 -0.025391
vt 0.516113 0.427246
vt 0.537109 0.461426
vt 0.546875 -0.019531
vt 0.590332 0.434082
vt 0.519531 -0.051758
vt 0.571289 0.399902
vt 0.505859 0.427734
vt 0.611816 0.400391
vt 0.573730 -0.052734
vt 0.626953 -0.025391
vt1 0.580566 0.043457
vt1 0.625977 1.057709
vt1 0.750977 -0.020508
vt1 0.811035 1.126953
vt1 0.834961 -0.044922
vt1 0.940918 1.060486
vt1 0.761230 -0.120117
vt1 0.637695 0.956085
vt1 0.793945 1.022644
vt1 0.993164 0.977829
vt1 0.900391 -0.125977
vt1 1.030273 -0.060547
vn 0.944882 -0.007874 -0.314961
vn 0.913386 -0.015748 0.417323
vn 0.015748 -0.015748 1.000000
vn -0.740157 -0.015748 0.669291
vn -0.496063 -0.023622 0.866142
vn 0.771654 -0.015748 0.637795
vn -0.944882 -0.015748 -0.330709
vn 0.007874 -0.015748 -1.000000
vn -0.992126 -0.007874 0.118110
vn 0.393701 -0.023622 -0.921260
vn -0.566929 -0.015748 -0.818897
vn 0.921260 -0.007874 -0.393701
tan -0.020274 -0.954802 -0.036952 1.000000
tan -0.025606 -0.933102 0.020832 1.000000
tan -0.047244 -1.000000 -0.015004 1.000000
tan 0.115940 0.658751 0.143716 1.000000
tan 0.115940 0.859322 0.089838 1.000000
tan -0.080352 0.632773 0.112840 1.000000
tan 0.020956 -0.942278 -0.015004 1.000000
tan 0.047244 -1.000000 0.016120 1.000000
tan 0.010664 -0.993056 0.023374 1.000000
tan 0.092814 -0.938806 0.063736 1.000000
tan -0.172360 -0.855602 0.135780 1.000000
tan 0.104532 -0.957158 0.263749 1.000000
f 3/3/3 2/2/2 1/1/1
f 6/6/6 5/5/5 4/4/4
f 9/9/9 8/8/8 7/7/7
f 12/12/12 11/11/11 10/10/10
