mtllib SM_Food_SM_Apple_01_LOD2.mtl
g SM_Food_SM_Apple_01_LOD2
#Vertices 48
#Indices 114
#Section 0 Offset 0 NumIndices 114 MaterialIndex 0 MI_Food
v -0.014840 0.078531 0.004466
v -0.005818 0.076347 -0.016711
v -0.005506 0.065866 -0.003562
v 0.006492 -0.004438 -0.004654
v -0.010945 -0.015317 0.004703
v 0.003797 -0.002047 0.015640
v -0.014840 0.078531 0.004466
v -0.005506 0.065866 -0.003562
v 0.002671 0.083419 0.000635
v -0.005818 0.076347 -0.016711
v -0.020640 0.040871 0.036083
v 0.018135 0.040272 0.038745
v -0.001995 0.002388 0.034142
v 0.033306 -0.005722 0.005495
v 0.003797 -0.002047 0.015640
v 0.036229 0.046218 0.017557
v 0.006492 -0.004438 -0.004654
v 0.030865 0.042785 -0.028470
v 0.002963 0.031135 -0.040021
v -0.024823 0.036628 -0.035000
v 0.002963 0.031135 -0.040021
v -0.001340 0.059625 -0.039609
v -0.027555 0.071814 -0.023393
v -0.005818 0.076347 -0.016711
v -0.014840 0.078531 0.004466
v -0.043062 0.028949 -0.004111
v -0.024448 0.075296 0.026669
v -0.020640 0.040871 0.036083
v -0.020640 0.040871 0.036083
v -0.001995 0.002388 0.034142
v -0.043062 0.028949 -0.004111
v -0.010945 -0.015317 0.004703
v 0.003797 -0.002047 0.015640
v -0.024823 0.036628 -0.035000
v 0.002963 0.031135 -0.040021
v 0.006492 -0.004438 -0.004654
v 0.002963 0.031135 -0.040021
v 0.030865 0.042785 -0.028470
v -0.001340 0.059625 -0.039609
v 0.026322 0.076794 -0.016311
v -0.005818 0.076347 -0.016711
v 0.036229 0.046218 0.017557
v 0.002671 0.083419 0.000635
v 0.008153 0.075248 0.028563
v 0.018135 0.040272 0.038745
v -0.014840 0.078531 0.004466
v -0.020640 0.040871 0.036083
v -0.024448 0.075296 0.026669
vt 0.781250 0.088379
vt 0.784180 0.104980
vt 0.773926 0.099121
vt 0.942871 0.142090
vt 0.937988 0.137695
vt 0.949219 0.129395
vt 0.647461 0.107422
vt 0.634766 0.110352
vt 0.640625 0.095703
vt 0.625977 0.100098
vt 0.588867 0.936035
vt 0.559570 0.931885
vt 0.579102 0.905457
vt 0.552734 0.892822
vt 0.570312 0.893127
vt 0.536133 0.926392
vt 0.554688 0.876404
vt 0.511230 0.895996
vt 0.512695 0.869141
vt 0.924316 0.255371
vt 0.942383 0.242676
vt 0.948730 0.264160
vt 0.932129 0.280762
vt 0.946289 0.288086
vt 0.930176 0.304199
vt 0.897949 0.269043
vt 0.912598 0.311035
vt 0.886719 0.305176
vt 0.079956 0.363770
vt 0.069031 0.394043
vt 0.043274 0.355469
vt 0.043823 0.395508
vt 0.055969 0.401367
vt 0.014626 0.356445
vt -0.000549 0.374512
vt 0.029434 0.401367
vt 0.898438 0.544189
vt 0.893555 0.568115
vt 0.875488 0.544434
vt 0.868164 0.570312
vt 0.853027 0.553711
vt 0.874512 0.603760
vt 0.846680 0.571289
vt 0.845703 0.592529
vt 0.855469 0.617920
vt 0.831055 0.574219
vt 0.824219 0.617188
vt 0.823242 0.590820
vt1 0.948242 0.967957
vt1 0.826172 0.989082
vt1 0.870117 0.916260
vt1 0.379883 0.985771
vt1 0.347412 0.952301
vt1 0.425049 0.891907
vt1 0.027298 0.202148
vt1 0.008064 0.110840
vt1 0.108826 0.154297
vt1 0.077515 0.047363
vt1 0.423584 0.998405
vt1 0.631836 0.968796
vt1 0.493896 0.781006
vt1 0.680664 0.691650
vt1 0.556152 0.693604
vt1 0.798828 0.929932
vt1 0.666016 0.574463
vt1 0.973145 0.713867
vt1 0.960938 0.522949
vt1 0.183350 0.472656
vt1 0.055786 0.562256
vt1 0.010132 0.410156
vt1 0.126343 0.292969
vt1 0.025940 0.241699
vt1 0.142944 0.126465
vt1 0.371094 0.374023
vt1 0.266602 0.078613
vt1 0.447754 0.118652
vt1 0.425537 0.403809
vt1 0.502930 0.190918
vt1 0.685547 0.465820
vt1 0.681641 0.182129
vt1 0.595703 0.140137
vt1 0.888184 0.455566
vt1 0.995605 0.330566
vt1 0.783203 0.138672
vt1 0.537109 0.464355
vt1 0.502930 0.633789
vt1 0.374268 0.465332
vt1 0.322021 0.649170
vt1 0.215942 0.531982
vt1 0.366943 0.886292
vt1 0.171387 0.656006
vt1 0.163574 0.805908
vt1 0.232056 0.986931
vt1 0.060730 0.676270
vt1 0.013680 0.981476
vt1 0.005867 0.793457
vn -0.015748 0.929134 -0.370079
vn 0.039370 0.921260 0.377953
vn -0.236220 0.960630 -0.118110
vn 0.070866 -0.992126 0.102362
vn 0.236220 -0.968504 0.070866
vn -0.062992 -0.874016 -0.480315
vn 0.110236 0.834646 -0.543307
vn -0.236220 0.960630 -0.118110
vn -0.393701 0.889764 -0.228347
vn -0.181102 0.984252 -0.062992
vn -0.488189 -0.039370 0.874016
vn 0.385827 0.000000 0.921260
vn -0.094488 -0.559055 0.818898
vn 0.692913 -0.724409 0.047244
vn 0.070866 -0.992126 0.094488
vn 0.913386 0.165354 0.370079
vn -0.039370 -1.000000 -0.007874
vn 0.748031 0.047244 -0.661417
vn 0.118110 -0.181102 -0.976378
vn -0.527559 -0.070866 -0.842520
vn 0.102362 -0.173228 -0.976378
vn -0.015748 0.346457 -0.937008
vn -0.574803 0.637795 -0.511811
vn -0.125984 0.992126 0.047244
vn -0.015748 1.000000 -0.015748
vn -0.968504 -0.236220 -0.023622
vn -0.535433 0.629921 0.559055
vn -0.535433 -0.031496 0.842520
vn -0.511811 -0.039370 0.858268
vn -0.244094 -0.598425 0.763779
vn -0.968504 -0.244094 -0.015748
vn -0.204724 -0.976378 -0.015748
vn 0.125984 -0.992126 -0.007874
vn -0.496063 -0.102362 -0.858268
vn 0.118110 -0.173228 -0.976378
vn 0.070866 -0.992126 -0.078740
vn 0.086614 -0.165354 -0.984252
vn 0.755906 0.055118 -0.653543
vn 0.015748 0.377953 -0.929134
vn 0.661417 0.677165 -0.330709
vn -0.314961 0.937008 -0.133858
vn 0.921260 0.173228 0.354331
vn -0.102362 0.992126 -0.031496
vn 0.228346 0.685039 0.692913
vn 0.377953 0.015748 0.921260
vn -0.259843 0.960630 -0.086614
vn -0.488189 -0.039370 0.874016
vn -0.503937 0.645669 0.574803
tan -0.241428 0.354331 0.899870 1.000000
tan -0.681877 -0.226796 0.623845 1.000000
tan -0.600347 -0.054870 0.754417 1.000000
tan -0.492157 0.054312 0.867134 1.000000
tan -0.526195 -0.068634 0.815984 1.000000
tan -0.017546 -0.479323 0.874512 1.000000
tan 0.207700 0.505301 0.818402 1.000000
tan 0.961560 0.226920 -0.077500 1.000000
tan 0.889764 0.393701 -0.000000 1.000000
tan 0.868002 0.129456 -0.472751 1.000000
tan 0.125736 -0.883316 0.030442 1.000000
tan 0.536797 -0.744125 -0.224812 1.000000
tan -0.043090 -0.818154 -0.563519 1.000000
tan -0.714241 -0.692293 -0.139624 1.000000
tan -0.421849 -0.115692 -0.898382 1.000000
tan 0.363631 -0.707731 -0.581251 1.000000
tan -0.787402 0.035836 -0.614173 1.000000
tan -0.650257 -0.125488 -0.744373 1.000000
tan -0.945626 -0.238328 -0.070184 1.000000
tan 0.661231 -0.557319 -0.367165 1.000000
tan 0.399777 -0.891810 0.200136 1.000000
tan 0.179800 -0.922128 -0.343977 1.000000
tan -0.077500 -0.643251 -0.714551 1.000000
tan -0.093744 0.034968 -0.984314 1.000000
tan -0.582677 -0.021948 -0.811023 1.000000
tan 0.172236 -0.632773 -0.733957 1.000000
tan -0.839296 -0.335049 -0.426313 1.000000
tan -0.829004 -0.150164 -0.532457 1.000000
tan -0.765516 0.416145 -0.437411 1.000000
tan -0.588009 0.680451 0.345217 1.000000
tan -0.243722 0.968380 -0.020956 1.000000
tan -0.945502 0.201996 -0.232252 1.000000
tan -0.976502 -0.125240 0.156240 1.000000
tan -0.689813 0.548763 0.333251 1.000000
tan -0.698245 0.685163 -0.206026 1.000000
tan -0.812450 -0.012152 -0.578089 1.000000
tan -0.976502 -0.093000 -0.070308 1.000000
tan -0.656147 0.046004 -0.755037 1.000000
tan -0.556017 -0.746233 -0.312977 1.000000
tan -0.725277 0.520801 -0.384153 1.000000
tan -0.737801 -0.330213 -0.575485 1.000000
tan 0.178126 0.554095 -0.734019 1.000000
tan -0.320293 -0.062806 -0.937442 1.000000
tan -0.026846 0.705499 -0.688635 1.000000
tan 0.449625 0.808171 -0.198276 1.000000
tan -0.022692 -0.092752 -0.960630 1.000000
tan -0.167028 0.883316 -0.053506 1.000000
tan -0.064666 0.625891 -0.759749 1.000000
f 3/3/3 2/2/2 1/1/1
f 6/6/6 5/5/5 4/4/4
f 9/9/9 8/8/8 7/7/7
f 9/9/9 10/10/10 8/8/8
f 13/13/13 12/12/12 11/11/11
f 12/12/12 13/13/13 14/14/14
f 14/14/14 13/13/13 15/15/15
f 14/14/14 16/16/16 12/12/12
f 14/14/14 15/15/15 17/17/17
f 14/14/14 18/18/18 16/16/16
f 17/17/17 19/19/19 14/14/14
f 18/18/18 14/14/14 19/19/19
f 22/22/22 21/21/21 20/20/20
f 22/22/22 20/20/20 23/23/23
f 22/22/22 23/23/23 24/24/24
f 24/24/24 23/23/23 25/25/25
f 23/23/23 20/20/20 26/26/26
f 27/27/27 25/25/25 23/23/23
f 26/26/26 27/27/27 23/23/23
f 27/27/27 26/26/26 28/28/28
f 31/31/31 30/30/30 29/29/29
f 30/30/30 31/31/31 32/32/32
f 30/30/30 32/32/32 33/33/33
f 34/34/34 32/32/32 31/31/31
f 34/34/34 35/35/35 32/32/32
f 35/35/35 36/36/36 32/32/32
f 39/39/39 38/38/38 37/37/37
f 40/40/40 38/38/38 39/39/39
f 39/39/39 41/41/41 40/40/40
f 42/42/42 38/38/38 40/40/40
f 40/40/40 41/41/41 43/43/43
f 42/42/42 40/40/40 44/44/44
f 43/43/43 44/44/44 40/40/40
f 42/42/42 44/44/44 45/45/45
f 46/46/46 44/44/44 43/43/43
f 47/47/47 45/45/45 44/44/44
f 44/44/44 46/46/46 48/48/48
f 44/44/44 48/48/48 47/47/47
