mtllib SM_Frames_08_LOD3.mtl
g SM_Frames_08_LOD3
#Vertices 28
#Indices 42
#Section 0 Offset 0 NumIndices 42 MaterialIndex 0 MI_Frames
v -0.013446 0.360181 -0.185302
v 0.097553 0.013680 -0.158938
v -0.000648 0.324243 -0.121050
v 0.097518 0.013734 0.158860
v -0.013449 0.360033 0.185352
v -0.000930 0.325433 0.121218
v 0.032732 0.215542 -0.059131
v -0.105200 0.000329 -0.062052
v -0.064792 -0.005155 -0.060825
v 0.028803 0.223082 0.026593
v 0.032732 0.215542 -0.059131
v -0.105232 0.000144 0.046256
v 0.035795 0.195971 0.026435
v 0.028803 0.223082 0.026593
v -0.064792 -0.005155 -0.060825
v 0.032732 0.215542 -0.059131
v -0.000055 0.326226 -0.136078
v 0.087011 0.038072 -0.136078
v -0.000055 0.326226 0.136219
v 0.087011 0.038072 0.136219
v 0.105345 -0.012131 -0.169548
v 0.095734 -0.007799 0.167433
v 0.085300 0.052504 0.136645
v 0.080911 0.044548 -0.133242
v -0.005173 0.366569 -0.166650
v 0.007690 0.321928 0.133960
v -0.017826 0.373054 0.167672
v -0.000300 0.312558 -0.132856
vt 0.565918 0.946259
vt 0.583984 0.690430
vt 0.607910 0.919495
vt 0.028183 0.699463
vt 0.046478 0.955322
vt 0.004311 0.929565
vt 0.648926 0.389648
vt 0.641113 0.215332
vt 0.666504 0.211914
vt 0.580566 0.392578
vt 0.657227 0.389648
vt 0.582520 0.214844
vt 0.565430 0.379883
vt 0.583496 0.387695
vt 0.507324 0.215820
vt 0.483398 0.391602
vt 0.212280 0.661865
vt 0.212280 0.455078
vt 0.407959 0.661865
vt 0.407959 0.455078
vt 0.821289 0.970291
vt 0.822266 0.727295
vt 0.863281 0.749512
vt 0.862305 0.944183
vt 0.950195 0.489746
vt 0.920410 0.272949
vt 0.956543 0.249023
vt 0.914551 0.465332
vt1 0.004414 0.219727
vt1 0.614258 0.263184
vt1 0.068115 0.320801
vt1 0.614258 0.414551
vt1 0.004650 0.458496
vt1 0.066040 0.357422
vt1 0.498291 0.969269
vt1 0.916016 0.949341
vt1 0.924316 1.015518
vt1 0.491943 0.793213
vt1 0.499023 0.990486
vt1 0.916992 0.797852
vt1 0.521973 0.754395
vt1 0.503906 0.801147
vt1 0.914062 0.604248
vt1 0.494873 0.541748
vt1 0.008064 0.991936
vt1 0.008064 0.486816
vt1 0.465332 0.991936
vt1 0.465332 0.486816
vt1 0.975586 0.575928
vt1 0.972656 0.010254
vt1 0.872559 0.062012
vt1 0.875000 0.515137
vt1 0.009560 0.179688
vt1 0.514160 0.105957
vt1 0.570312 0.194824
vt1 0.066589 0.092285
vn 0.511811 0.157480 -0.842520
vn 0.803150 0.244094 -0.535433
vn 0.653543 0.196850 0.732283
vn 0.803150 0.244095 0.535433
vn 0.511811 0.157480 0.842520
vn 0.653543 0.196850 -0.724409
vn -0.212598 0.220472 -0.952756
vn -0.826772 0.519685 -0.212598
vn 0.551181 -0.236221 -0.803149
vn -0.858268 0.511811 0.031496
vn -0.858268 0.511811 -0.039370
vn -0.803150 0.511811 0.307087
vn 0.850394 -0.448819 0.291339
vn -0.503937 0.377953 0.771653
vn 0.874016 -0.480315 -0.023622
vn 0.866142 -0.480315 -0.133858
vn 0.960630 0.291339 -0.000000
vn 0.960630 0.291339 -0.000000
vn 0.960630 0.291339 -0.000000
vn 0.960630 0.291339 -0.000000
vn 0.905512 -0.433071 0.000000
vn 0.590551 -0.811023 0.000000
vn 0.645669 0.763779 -0.000000
vn 0.141732 0.992126 -0.000000
vn 0.740157 0.669291 -0.000000
vn 1.000000 -0.015748 0.000000
vn 0.291339 0.960630 -0.000000
vn 0.818898 -0.574803 0.000000
tan 0.142848 -0.975076 -0.095480 1.000000
tan 0.369707 -0.912766 0.138446 1.000000
tan 0.199578 -0.964970 0.081282 1.000000
tan 0.369707 -0.912766 -0.138446 1.000000
tan 0.142848 -0.975076 0.095480 1.000000
tan 0.202182 -0.958956 -0.078182 1.000000
tan -0.926220 0.221712 0.257982 1.000000
tan -0.436543 -0.807800 -0.276954 1.000000
tan 0.238452 -0.824353 0.406101 1.000000
tan -0.512059 -0.858268 -0.006758 1.000000
tan -0.511811 -0.858268 0.000000 1.000000
tan -0.542439 -0.824353 -0.044764 1.000000
tan -0.402753 -0.862236 -0.152706 1.000000
tan 0.432761 -0.658441 0.605121 1.000000
tan -0.480873 -0.874016 -0.020646 1.000000
tan -0.478207 -0.867196 0.017422 1.000000
tan 0.291339 -0.960630 0.000000 1.000000
tan 0.291339 -0.960630 0.000000 1.000000
tan 0.291339 -0.960630 0.000000 1.000000
tan 0.291339 -0.960630 0.000000 1.000000
tan 0.000000 0.000000 0.935892 1.000000
tan 0.000000 0.000000 0.982578 1.000000
tan 0.000000 0.000000 0.959886 1.000000
tan 0.000000 0.000000 0.992126 1.000000
tan 0.000000 0.000000 0.910720 1.000000
tan 0.000000 0.000000 1.000000 1.000000
tan 0.000000 0.000000 0.976688 1.000000
tan 0.000000 0.000000 0.949594 1.000000
f 3/3/3 2/2/2 1/1/1
f 6/6/6 5/5/5 4/4/4
f 9/9/9 8/8/8 7/7/7
f 11/11/11 8/8/8 10/10/10
f 12/12/12 10/10/10 8/8/8
f 14/14/14 12/12/12 13/13/13
f 15/15/15 13/13/13 12/12/12
f 16/16/16 13/13/13 15/15/15
f 19/19/19 18/18/18 17/17/17
f 19/19/19 20/20/20 18/18/18
f 23/23/23 22/22/22 21/21/21
f 24/24/24 23/23/23 21/21/21
f 27/27/27 26/26/26 25/25/25
f 28/28/28 25/25/25 26/26/26
