mtllib SM_Food_SM_Banana_LOD1.mtl
g SM_Food_SM_Banana_LOD1
#Vertices 69
#Indices 234
#Section 0 Offset 0 NumIndices 234 MaterialIndex 0 MI_Food
v 0.038620 0.000511 0.000073
v 0.051107 0.006645 -0.015511
v 0.034529 0.005287 -0.008122
v 0.084261 0.008613 -0.024803
v 0.099784 0.005740 -0.040964
v 0.093113 0.011510 -0.034918
v 0.080870 0.002292 -0.002288
v 0.046130 0.003233 0.024798
v 0.103373 0.011980 -0.033398
v 0.099337 0.016607 -0.043431
v 0.051869 0.015757 0.029971
v 0.088443 0.015105 0.003293
v 0.099881 0.016016 -0.032084
v 0.078778 0.028491 0.005264
v 0.058197 0.031543 0.019733
v 0.044354 0.030840 0.023684
v 0.007240 0.032623 0.029621
v 0.044354 0.030840 0.023684
v 0.051869 0.015757 0.029971
v -0.016208 0.015362 0.035876
v -0.057072 0.029828 0.015314
v 0.046130 0.003233 0.024798
v -0.091232 0.013775 0.000418
v -0.100656 0.027804 -0.022439
v -0.111109 0.013511 -0.036875
v -0.035345 0.002427 0.021763
v -0.088685 -0.001458 -0.015778
v -0.104671 0.009653 -0.043481
v -0.086643 0.003043 -0.037705
v -0.054209 0.002753 -0.018314
v -0.047346 -0.000953 0.003344
v -0.006160 0.004632 -0.001825
v -0.001452 -0.000109 0.013822
v 0.034529 0.005287 -0.008122
v 0.038620 0.000511 0.000073
v 0.053905 0.034920 -0.002395
v 0.078778 0.028491 0.005264
v 0.058197 0.031543 0.019733
v 0.077887 0.028591 -0.013818
v 0.049413 0.026484 -0.015789
v 0.099881 0.016016 -0.032084
v 0.086819 0.019982 -0.027714
v 0.051107 0.006645 -0.015511
v 0.084261 0.008613 -0.024803
v 0.093113 0.011510 -0.034918
v 0.099337 0.016607 -0.043431
v 0.103373 0.011980 -0.033398
v 0.099784 0.005740 -0.040964
v 0.044354 0.030840 0.023684
v 0.007240 0.032623 0.029621
v 0.058197 0.031543 0.019733
v 0.004794 0.037245 0.009155
v 0.053905 0.034920 -0.002395
v 0.049413 0.026484 -0.015789
v 0.034529 0.005287 -0.008122
v 0.051107 0.006645 -0.015511
v -0.007754 0.024031 -0.006732
v -0.006160 0.004632 -0.001825
v -0.032170 0.036487 0.011297
v -0.057072 0.029828 0.015314
v -0.043951 0.032813 -0.011208
v -0.073601 0.016741 -0.032952
v -0.054209 0.002753 -0.018314
v -0.086643 0.003043 -0.037705
v -0.104671 0.009653 -0.043481
v -0.091527 0.030082 -0.039523
v -0.111109 0.013511 -0.036875
v -0.100656 0.027804 -0.022439
v -0.086325 0.034494 -0.021166
vt 0.888184 0.143066
vt 0.904785 0.144043
vt 0.891113 0.148926
vt 0.926270 0.125977
vt 0.943359 0.123535
vt 0.936035 0.126953
vt 0.910645 0.120605
vt 0.878418 0.124023
vt 0.939453 0.116211
vt 0.950195 0.116699
vt 0.878418 0.113770
vt 0.910645 0.109863
vt 0.937988 0.113281
vt 0.905762 0.099121
vt 0.884277 0.099609
vt 0.873535 0.101562
vt 0.106567 0.854126
vt 0.078369 0.845825
vt 0.076965 0.833008
vt 0.125488 0.843018
vt 0.159058 0.855957
vt 0.083008 0.823242
vt 0.185059 0.839844
vt 0.204834 0.843872
vt 0.212891 0.827148
vt 0.141724 0.832397
vt 0.188232 0.824341
vt 0.212158 0.818726
vt 0.197632 0.810669
vt 0.166626 0.809814
vt 0.154785 0.822754
vt 0.125854 0.808472
vt 0.119324 0.819824
vt 0.094604 0.799438
vt 0.090393 0.805908
vt 0.333740 0.751465
vt 0.318359 0.738281
vt 0.337158 0.734619
vt 0.313232 0.751709
vt 0.330811 0.763672
vt 0.290527 0.756226
vt 0.300537 0.759033
vt 0.325684 0.777832
vt 0.301270 0.768799
vt 0.292236 0.764648
vt 0.284668 0.760498
vt 0.285156 0.752686
vt 0.284912 0.768555
vt 0.607422 0.702881
vt 0.585449 0.719238
vt 0.615234 0.695557
vt 0.575684 0.706299
vt 0.604492 0.682129
vt 0.596680 0.673340
vt 0.577637 0.668213
vt 0.589355 0.660889
vt 0.559082 0.697998
vt 0.553223 0.685059
vt 0.554199 0.723633
vt 0.542969 0.739990
vt 0.536621 0.717041
vt 0.505859 0.714111
vt 0.518555 0.697266
vt 0.490967 0.709229
vt 0.481445 0.723389
vt 0.498047 0.728271
vt 0.479736 0.732178
vt 0.498047 0.741699
vt 0.508789 0.735352
vt1 0.897461 0.262695
vt1 0.803711 0.270020
vt1 0.881836 0.298828
vt1 0.678223 0.163086
vt1 0.577637 0.150391
vt1 0.619629 0.168945
vt1 0.768066 0.132812
vt1 0.955566 0.152344
vt1 0.601562 0.107422
vt1 0.540039 0.110840
vt1 0.954102 0.091797
vt1 0.767090 0.068359
vt1 0.609863 0.090820
vt1 0.797852 0.006348
vt1 0.921387 0.011230
vt1 0.983887 0.021973
vt1 0.178467 0.222656
vt1 0.015190 0.270996
vt1 0.007099 0.345703
vt1 0.288086 0.287598
vt1 0.482422 0.211914
vt1 0.041962 0.402344
vt1 0.633301 0.306152
vt1 0.748047 0.282227
vt1 0.794434 0.379395
vt1 0.382324 0.349121
vt1 0.651855 0.395996
vt1 0.790527 0.428711
vt1 0.705566 0.475098
vt1 0.526855 0.480469
vt1 0.458252 0.405273
vt1 0.290039 0.487793
vt1 0.252441 0.421875
vt1 0.109253 0.540527
vt1 0.084839 0.502686
vt1 0.832520 0.971848
vt1 0.756348 0.883362
vt1 0.735352 0.992035
vt1 0.834473 0.853271
vt1 0.903809 0.955780
vt1 0.860352 0.722656
vt1 0.876953 0.780640
vt1 0.986328 0.925415
vt1 0.933594 0.784180
vt1 0.909180 0.731934
vt1 0.885742 0.688477
vt1 0.839844 0.692139
vt1 0.932617 0.690674
vt1 0.758789 0.762817
vt1 0.631348 0.857666
vt1 0.802734 0.719482
vt1 0.573730 0.781982
vt1 0.742188 0.641357
vt1 0.697266 0.590332
vt1 0.586914 0.560303
vt1 0.653320 0.518555
vt1 0.478760 0.734619
vt1 0.446045 0.658203
vt1 0.450684 0.883301
vt1 0.385742 0.978836
vt1 0.347656 0.844604
vt1 0.172241 0.828369
vt1 0.243652 0.730469
vt1 0.083618 0.800171
vt1 0.029724 0.882324
vt1 0.125732 0.909912
vt1 0.019379 0.932983
vt1 0.125854 0.989098
vt1 0.188843 0.951752
vn -0.062992 -0.968504 -0.236220
vn -0.267717 -0.543307 -0.795275
vn -0.204724 -0.637795 -0.740157
vn -0.125984 -0.803150 -0.582677
vn 0.070866 -0.795276 -0.606299
vn -0.755906 -0.086614 -0.653543
vn 0.385827 -0.905512 0.165354
vn 0.181102 -0.787401 0.590551
vn 0.897638 -0.401575 0.173228
vn 0.007874 0.448819 -0.897638
vn 0.346457 -0.086614 0.937008
vn 0.834646 -0.062992 0.543307
vn 0.850394 0.527559 0.070866
vn 0.590551 0.708661 0.377953
vn 0.354331 0.661417 0.661417
vn 0.228346 0.669291 0.708661
vn 0.000000 0.740157 0.669291
vn 0.228346 0.669291 0.708661
vn 0.330709 -0.086614 0.937008
vn -0.173228 -0.094488 0.984252
vn -0.346457 0.629921 0.692913
vn 0.165354 -0.826771 0.535433
vn -0.645669 -0.118110 0.755905
vn -0.677165 0.692913 0.244094
vn -0.976378 -0.204724 -0.078740
vn -0.181102 -0.803149 0.566929
vn -0.299213 -0.937008 0.181102
vn -0.448819 -0.401575 -0.803149
vn 0.102362 -0.763779 -0.637795
vn 0.307087 -0.755905 -0.582677
vn -0.015748 -1.000000 0.007874
vn 0.110236 -0.724409 -0.685039
vn 0.015748 -1.000000 -0.015748
vn -0.204724 -0.637795 -0.740157
vn -0.070866 -0.960630 -0.267716
vn 0.094488 0.976378 -0.173228
vn 0.598425 0.716535 0.362205
vn 0.338583 0.755905 0.566929
vn 0.299213 0.929134 -0.228347
vn -0.299213 0.456693 -0.842520
vn 0.566929 0.818897 -0.078740
vn -0.165354 0.700787 -0.692913
vn -0.220472 -0.637795 -0.732283
vn -0.125984 -0.803150 -0.582677
vn -0.755906 -0.086614 -0.653543
vn 0.007874 0.448819 -0.897638
vn 0.960630 0.283465 -0.000000
vn 0.070866 -0.795276 -0.606299
vn 0.228346 0.669291 0.708661
vn 0.031496 0.700787 0.708661
vn 0.275591 0.803150 0.527559
vn 0.000000 0.992126 -0.118110
vn 0.094488 0.976378 -0.173228
vn -0.291339 0.393701 -0.874016
vn -0.204724 -0.637795 -0.740157
vn -0.299213 -0.574803 -0.755905
vn 0.102362 0.307086 -0.944882
vn 0.086614 -0.692913 -0.716535
vn -0.070866 0.984252 0.133858
vn -0.362205 0.622047 0.692913
vn 0.228346 0.787401 -0.574803
vn 0.488189 0.023622 -0.874016
vn 0.307087 -0.755905 -0.582677
vn 0.102362 -0.763779 -0.637795
vn -0.448819 -0.401575 -0.803149
vn 0.000000 0.755905 -0.661417
vn -0.992126 -0.015748 -0.118110
vn -0.677165 0.692913 0.244094
vn -0.188976 0.984252 -0.000000
tan 0.693967 -0.210676 0.678715 1.000000
tan 0.283031 -0.782999 0.439643 1.000000
tan 0.400645 -0.737305 0.524521 1.000000
tan 0.584413 -0.533201 0.608593 1.000000
tan 0.705933 -0.369025 0.566557 1.000000
tan 0.154628 -0.980842 -0.048856 1.000000
tan 0.797260 0.418377 0.430839 1.000000
tan 0.207700 0.617583 0.759749 1.000000
tan 0.369335 0.890322 0.150102 1.000000
tan 0.155496 0.883378 0.443053 1.000000
tan 0.236778 0.910224 -0.003410 1.000000
tan 0.049166 0.919896 0.031124 1.000000
tan -0.527559 0.852068 -0.012462 1.000000
tan -0.658441 0.685597 -0.256681 1.000000
tan -0.057288 0.706801 -0.676111 1.000000
tan -0.050840 0.731849 -0.674809 1.000000
tan 0.028024 -0.669291 0.740157 1.000000
tan 0.186930 -0.740467 0.639097 1.000000
tan 0.250170 -0.902722 -0.171740 1.000000
tan 0.108500 -0.976502 -0.074648 1.000000
tan -0.131936 -0.736561 0.603633 1.000000
tan 0.014942 -0.534131 -0.829376 1.000000
tan -0.629611 -0.476533 -0.612251 1.000000
tan -0.704755 -0.704507 0.044764 1.000000
tan 0.217372 -0.853370 -0.476657 1.000000
tan 0.143592 -0.589373 -0.789075 1.000000
tan 0.627131 -0.334305 -0.693533 1.000000
tan 0.755719 0.308947 -0.576787 1.000000
tan 0.388121 0.620435 -0.680699 1.000000
tan 0.273793 0.657201 -0.708289 1.000000
tan 0.370079 -0.013144 -0.929134 1.000000
tan 0.050716 0.691115 -0.722673 1.000000
tan 0.220472 0.018848 -0.976378 1.000000
tan 0.107322 0.733337 -0.661603 1.000000
tan 0.075640 0.262136 -0.960630 1.000000
tan 0.416517 0.116684 0.884866 1.000000
tan 0.459049 -0.676793 0.580445 1.000000
tan 0.162192 -0.631719 0.745427 1.000000
tan 0.402133 0.081902 0.860190 1.000000
tan 0.215884 0.818340 0.366917 1.000000
tan 0.732097 -0.464629 0.438961 1.000000
tan 0.313225 0.701593 0.634819 1.000000
tan 0.079236 0.723045 -0.653605 1.000000
tan -0.184512 0.595697 -0.781201 1.000000
tan 0.042284 0.974084 -0.178002 1.000000
tan 0.494761 0.762849 0.385765 1.000000
tan 0.241056 -0.816913 0.513485 1.000000
tan -0.432451 0.516337 -0.727819 1.000000
tan 0.329531 0.627875 -0.699175 1.000000
tan 0.110980 0.700601 -0.697749 1.000000
tan 0.210304 0.454337 -0.801538 1.000000
tan 0.539029 -0.099510 -0.835886 1.000000
tan 0.415153 -0.197036 -0.884122 1.000000
tan 0.368529 -0.793725 -0.480377 1.000000
tan 0.434001 -0.723045 0.503007 1.000000
tan 0.340753 -0.758881 0.442185 1.000000
tan 0.372001 -0.870482 -0.242606 1.000000
tan 0.067146 -0.714489 0.699051 1.000000
tan 0.643251 0.147498 -0.744001 1.000000
tan 0.228222 0.754045 -0.557629 1.000000
tan 0.443239 -0.609337 -0.658627 1.000000
tan 0.647281 -0.599541 0.345341 1.000000
tan -0.054808 -0.621861 0.777853 1.000000
tan 0.119412 -0.625519 0.768243 1.000000
tan 0.724099 -0.605803 -0.101742 1.000000
tan 0.238824 -0.640585 -0.732097 1.000000
tan 0.112158 -0.445285 -0.882758 1.000000
tan 0.442743 0.649823 -0.616405 1.000000
tan 0.728501 0.139872 -0.666501 1.000000
f 3/3/3 2/2/2 1/1/1
f 1/1/1 2/2/2 4/4/4
f 6/6/6 5/5/5 4/4/4
f 4/4/4 7/7/7 1/1/1
f 1/1/1 7/7/7 8/8/8
f 9/9/9 4/4/4 5/5/5
f 9/9/9 5/5/5 10/10/10
f 9/9/9 7/7/7 4/4/4
f 11/11/11 8/8/8 7/7/7
f 12/12/12 7/7/7 9/9/9
f 7/7/7 12/12/12 11/11/11
f 13/13/13 12/12/12 9/9/9
f 13/13/13 14/14/14 12/12/12
f 15/15/15 12/12/12 14/14/14
f 11/11/11 12/12/12 15/15/15
f 15/15/15 16/16/16 11/11/11
f 19/19/19 18/18/18 17/17/17
f 20/20/20 19/19/19 17/17/17
f 20/20/20 17/17/17 21/21/21
f 20/20/20 22/22/22 19/19/19
f 23/23/23 20/20/20 21/21/21
f 24/24/24 23/23/23 21/21/21
f 23/23/23 24/24/24 25/25/25
f 20/20/20 26/26/26 22/22/22
f 20/20/20 23/23/23 26/26/26
f 25/25/25 27/27/27 23/23/23
f 23/23/23 27/27/27 26/26/26
f 27/27/27 25/25/25 28/28/28
f 29/29/29 27/27/27 28/28/28
f 29/29/29 30/30/30 27/27/27
f 30/30/30 31/31/31 27/27/27
f 26/26/26 27/27/27 31/31/31
f 32/32/32 31/31/31 30/30/30
f 33/33/33 26/26/26 31/31/31
f 31/31/31 32/32/32 33/33/33
f 22/22/22 26/26/26 33/33/33
f 33/33/33 32/32/32 34/34/34
f 22/22/22 33/33/33 35/35/35
f 35/35/35 33/33/33 34/34/34
f 38/38/38 37/37/37 36/36/36
f 39/39/39 36/36/36 37/37/37
f 36/36/36 39/39/39 40/40/40
f 37/37/37 41/41/41 39/39/39
f 42/42/42 40/40/40 39/39/39
f 41/41/41 42/42/42 39/39/39
f 42/42/42 43/43/43 40/40/40
f 42/42/42 44/44/44 43/43/43
f 45/45/45 44/44/44 42/42/42
f 42/42/42 41/41/41 46/46/46
f 45/45/45 42/42/42 46/46/46
f 46/46/46 41/41/41 47/47/47
f 46/46/46 48/48/48 45/45/45
f 51/51/51 50/50/50 49/49/49
f 50/50/50 51/51/51 52/52/52
f 51/51/51 53/53/53 52/52/52
f 52/52/52 53/53/53 54/54/54
f 56/56/56 55/55/55 54/54/54
f 57/57/57 54/54/54 55/55/55
f 54/54/54 57/57/57 52/52/52
f 58/58/58 57/57/57 55/55/55
f 50/50/50 52/52/52 59/59/59
f 59/59/59 60/60/60 50/50/50
f 57/57/57 61/61/61 52/52/52
f 61/61/61 59/59/59 52/52/52
f 58/58/58 62/62/62 57/57/57
f 61/61/61 57/57/57 62/62/62
f 63/63/63 62/62/62 58/58/58
f 63/63/63 64/64/64 62/62/62
f 62/62/62 64/64/64 65/65/65
f 62/62/62 66/66/66 61/61/61
f 66/66/66 62/62/62 65/65/65
f 66/66/66 59/59/59 61/61/61
f 67/67/67 66/66/66 65/65/65
f 66/66/66 67/67/67 68/68/68
f 59/59/59 66/66/66 69/69/69
f 66/66/66 68/68/68 69/69/69
f 60/60/60 59/59/59 69/69/69
f 68/68/68 60/60/60 69/69/69
