mtllib SM_Food_SM_Apple_02.mtl
g SM_Food_SM_Apple_02
#Vertices 124
#Indices 450
#Section 0 Offset 0 NumIndices 450 MaterialIndex 0 MI_Food
v -0.004457 0.004518 0.001085
v 0.003433 0.005668 -0.007311
v -0.004373 0.003268 -0.013254
v 0.013263 0.077109 -0.011167
v 0.005081 0.070550 -0.015648
v 0.016753 0.075261 -0.023409
v 0.000758 0.081687 -0.008573
v -0.009175 0.078949 -0.019820
v 0.002292 0.065129 -0.018880
v -0.005344 0.075182 -0.030528
v 0.005372 0.073467 -0.033939
v 0.016753 0.075261 -0.023409
v 0.005081 0.070550 -0.015648
v 0.011778 0.034946 -0.055241
v 0.012239 0.053953 -0.055732
v -0.000361 0.035025 -0.055968
v 0.025389 0.047700 -0.050158
v 0.031000 0.063431 -0.038654
v 0.037839 0.047666 -0.037360
v 0.010816 0.070490 -0.044617
v 0.041449 0.052157 -0.025795
v 0.005372 0.073467 -0.033939
v 0.016753 0.075261 -0.023409
v 0.039260 0.063617 -0.015347
v 0.029533 0.071086 -0.027660
v 0.044328 0.049668 -0.006034
v 0.023778 0.077292 -0.006319
v 0.013263 0.077109 -0.011167
v 0.000758 0.081687 -0.008573
v 0.027060 0.070985 0.010585
v 0.012916 0.081719 0.005559
v -0.008409 0.085326 0.007380
v 0.042716 0.043554 0.001009
v 0.035442 0.049825 0.015058
v 0.005608 0.074365 0.022161
v -0.011412 0.070151 0.024612
v 0.020011 0.062213 0.023897
v 0.025449 0.048460 0.024305
v 0.005218 0.048676 0.033200
v -0.009488 0.047403 0.033386
v -0.003504 0.033586 0.033165
v -0.009488 0.047403 0.033386
v 0.005218 0.048676 0.033200
v 0.013888 0.025074 0.028197
v -0.006714 0.025853 0.031788
v 0.025449 0.048460 0.024305
v -0.007776 0.007770 0.021463
v 0.026146 0.024513 0.020176
v 0.035442 0.049825 0.015058
v 0.007550 0.001781 0.014438
v -0.010337 0.002310 0.008444
v 0.031683 0.017150 0.008681
v 0.042716 0.043554 0.001009
v 0.016983 0.001492 -0.000058
v 0.003433 0.005668 -0.007311
v -0.004457 0.004518 0.001085
v 0.020944 0.001757 -0.006513
v 0.007701 -0.000713 -0.023871
v 0.036775 0.015363 -0.014277
v 0.027047 0.010550 -0.030151
v 0.012314 0.016619 -0.045886
v 0.044372 0.039752 -0.015073
v 0.044328 0.049668 -0.006034
v 0.041449 0.052157 -0.025795
v 0.037839 0.047666 -0.037360
v 0.040127 0.028682 -0.028081
v 0.030406 0.030016 -0.043767
v 0.025389 0.047700 -0.050158
v 0.011778 0.034946 -0.055241
v -0.009488 0.047403 0.033386
v -0.003504 0.033586 0.033165
v -0.006714 0.025853 0.031788
v -0.023424 0.045687 0.027992
v -0.032196 0.039272 0.021740
v -0.022614 0.014464 0.019007
v -0.007776 0.007770 0.021463
v -0.037952 0.033672 0.013362
v -0.024330 0.002873 -0.002482
v -0.010337 0.002310 0.008444
v -0.004457 0.004518 0.001085
v -0.004373 0.003268 -0.013254
v 0.007701 -0.000713 -0.023871
v 0.003433 0.005668 -0.007311
v -0.004462 0.000563 -0.027601
v 0.012314 0.016619 -0.045886
v -0.000361 0.035025 -0.055968
v 0.011778 0.034946 -0.055241
v -0.008490 0.020327 -0.048773
v -0.023267 0.042247 -0.049300
v -0.032444 0.036957 -0.040466
v -0.023187 0.007461 -0.026670
v -0.032542 0.021063 -0.030856
v -0.039828 0.036652 -0.030336
v -0.037622 0.017820 -0.010051
v -0.044837 0.039413 -0.004854
v -0.032196 0.039272 0.021740
v -0.037952 0.033672 0.013362
v -0.044837 0.039413 -0.004854
v -0.039496 0.053040 0.010595
v -0.026968 0.059229 0.023654
v -0.023424 0.045687 0.027992
v -0.009488 0.047403 0.033386
v -0.011412 0.070151 0.024612
v -0.028836 0.074649 0.011514
v -0.008409 0.085326 0.007380
v -0.042518 0.062843 -0.004605
v -0.042048 0.058638 -0.023347
v -0.039828 0.036652 -0.030336
v -0.032199 0.078115 -0.015338
v -0.018880 0.084578 0.002641
v -0.018526 0.082229 -0.018866
v 0.000758 0.081687 -0.008573
v -0.009175 0.078949 -0.019820
v -0.005344 0.075182 -0.030528
v -0.015942 0.073791 -0.039585
v 0.005372 0.073467 -0.033939
v 0.010816 0.070490 -0.044617
v -0.031057 0.059943 -0.041521
v -0.032444 0.036957 -0.040466
v -0.023267 0.042247 -0.049300
v -0.004154 0.063578 -0.053144
v 0.012239 0.053953 -0.055732
v -0.008097 0.055786 -0.056140
v -0.000361 0.035025 -0.055968
vt 0.502441 0.002441
vt 0.511719 0.000488
vt 0.511719 0.007812
vt 0.813965 0.219238
vt 0.820801 0.213867
vt 0.821777 0.225098
vt 0.811035 0.209961
vt 0.817871 0.201172
vt 0.826660 0.211914
vt 0.826172 0.198730
vt 0.833984 0.201172
vt 0.839844 0.211426
vt 0.830078 0.215332
vt 0.812988 0.674561
vt 0.826660 0.676758
vt 0.811035 0.683350
vt 0.823730 0.665283
vt 0.837891 0.660156
vt 0.828125 0.651855
vt 0.842285 0.676025
vt 0.835938 0.645020
vt 0.851562 0.676514
vt 0.855469 0.664795
vt 0.847656 0.645264
vt 0.847168 0.657959
vt 0.846191 0.632324
vt 0.863281 0.652588
vt 0.865723 0.660889
vt 0.875977 0.665039
vt 0.868164 0.640137
vt 0.875000 0.651367
vt 0.889648 0.658447
vt 0.848633 0.625488
vt 0.862305 0.624268
vt 0.885742 0.641846
vt 0.898926 0.642334
vt 0.876953 0.631104
vt 0.872559 0.620850
vt 0.890625 0.621826
vt 0.901855 0.623291
vt 0.902832 0.230957
vt 0.892090 0.235352
vt 0.890625 0.224609
vt 0.908203 0.217285
vt 0.909180 0.232910
vt 0.891113 0.206543
vt 0.926270 0.229980
vt 0.909180 0.207031
vt 0.892578 0.194824
vt 0.928711 0.216797
vt 0.937988 0.226562
vt 0.916504 0.199707
vt 0.901367 0.184082
vt 0.933105 0.205078
vt 0.944824 0.208984
vt 0.941895 0.220215
vt 0.934570 0.199707
vt 0.949707 0.193848
vt 0.925781 0.186035
vt 0.937988 0.181152
vt 0.950684 0.169922
vt 0.910645 0.174805
vt 0.900879 0.176270
vt 0.910156 0.162109
vt 0.919922 0.157715
vt 0.923828 0.172852
vt 0.934082 0.164062
vt 0.932129 0.149902
vt 0.946777 0.153809
vt 0.674316 0.908203
vt 0.678711 0.897705
vt 0.684570 0.895447
vt 0.683105 0.915283
vt 0.692871 0.917236
vt 0.701660 0.899231
vt 0.699219 0.887146
vt 0.701660 0.918396
vt 0.718750 0.896667
vt 0.710938 0.886230
vt 0.716797 0.881653
vt 0.729492 0.883606
vt 0.742188 0.878540
vt 0.728516 0.875854
vt 0.740234 0.887573
vt 0.762695 0.888062
vt 0.769043 0.906067
vt 0.774414 0.898865
vt 0.755859 0.902527
vt 0.757324 0.922302
vt 0.746582 0.923462
vt 0.734863 0.901245
vt 0.737305 0.913574
vt 0.736816 0.926331
vt 0.721680 0.912048
vt 0.714844 0.927979
vt 0.596191 0.851929
vt 0.603027 0.845825
vt 0.620117 0.847168
vt 0.607910 0.859131
vt 0.596680 0.867920
vt 0.589355 0.859985
vt 0.579590 0.866577
vt 0.591797 0.881592
vt 0.607422 0.877075
vt 0.607910 0.895020
vt 0.619629 0.864868
vt 0.632812 0.863159
vt 0.642578 0.849243
vt 0.626465 0.878540
vt 0.612793 0.888000
vt 0.629395 0.888733
vt 0.621094 0.903076
vt 0.631836 0.895508
vt 0.643066 0.895142
vt 0.645996 0.884827
vt 0.651367 0.900452
vt 0.660645 0.898743
vt 0.646484 0.869629
vt 0.652832 0.853516
vt 0.660645 0.862915
vt 0.660645 0.885071
vt 0.674316 0.889648
vt 0.663574 0.878906
vt 0.678223 0.872192
vt1 0.008064 0.957550
vt1 0.062042 0.944702
vt1 0.062805 0.991936
vt1 0.655762 0.974670
vt1 0.690918 0.932678
vt1 0.620605 0.926453
vt1 0.715332 0.991936
vt1 0.769531 0.949951
vt1 0.702637 0.896484
vt1 0.783691 0.897827
vt1 0.769531 0.848755
vt1 0.707031 0.810791
vt1 0.680176 0.872192
vt1 0.063354 0.675781
vt1 0.050079 0.588135
vt1 0.008064 0.685547
vt1 0.121521 0.606201
vt1 0.153198 0.518799
vt1 0.204712 0.579834
vt1 0.054474 0.491211
vt1 0.247314 0.530518
vt1 0.051361 0.433105
vt1 0.124634 0.407715
vt1 0.245972 0.456543
vt1 0.166382 0.459961
vt1 0.327881 0.467285
vt1 0.201294 0.360840
vt1 0.148682 0.344727
vt1 0.122253 0.280273
vt1 0.279053 0.328125
vt1 0.208252 0.285645
vt1 0.163452 0.194336
vt1 0.370605 0.451172
vt1 0.378174 0.367188
vt1 0.267334 0.219727
vt1 0.264893 0.137695
vt1 0.335449 0.274414
vt1 0.398926 0.302246
vt1 0.393555 0.189941
vt1 0.383789 0.120117
vt1 0.931641 0.321289
vt1 0.960938 0.386230
vt1 0.891113 0.395508
vt1 0.848145 0.286133
vt1 0.943848 0.278809
vt1 0.780762 0.392578
vt1 0.925781 0.174316
vt1 0.782227 0.279785
vt1 0.707031 0.384766
vt1 0.844238 0.158691
vt1 0.904297 0.098633
vt1 0.738281 0.232910
vt1 0.639648 0.329590
vt1 0.769531 0.129395
vt1 0.793945 0.056641
vt1 0.864258 0.075684
vt1 0.737793 0.122070
vt1 0.701172 0.024414
vt1 0.652832 0.177246
vt1 0.621094 0.097656
vt1 0.551270 0.020996
vt1 0.581543 0.270020
vt1 0.589355 0.333496
vt1 0.501953 0.274902
vt1 0.474609 0.213867
vt1 0.568848 0.187988
vt1 0.515137 0.125000
vt1 0.427246 0.135742
vt1 0.450684 0.044434
vt1 0.362793 0.531982
vt1 0.390869 0.597656
vt1 0.427734 0.611572
vt1 0.419189 0.487793
vt1 0.478271 0.475586
vt1 0.533203 0.588135
vt1 0.518066 0.663574
vt1 0.534668 0.468262
vt1 0.639648 0.604004
vt1 0.592285 0.669189
vt1 0.630371 0.697998
vt1 0.708008 0.685791
vt1 0.787109 0.717529
vt1 0.701172 0.733887
vt1 0.774414 0.661133
vt1 0.916992 0.657959
vt1 0.955566 0.545166
vt1 0.991211 0.590332
vt1 0.875000 0.567627
vt1 0.884277 0.443848
vt1 0.816895 0.436523
vt1 0.743652 0.575439
vt1 0.756348 0.498535
vt1 0.753418 0.418457
vt1 0.658691 0.508057
vt1 0.617676 0.408203
vt1 0.110107 0.670410
vt1 0.152466 0.632568
vt1 0.260498 0.640625
vt1 0.185181 0.716309
vt1 0.114014 0.770996
vt1 0.067383 0.721191
vt1 0.008064 0.762817
vt1 0.082947 0.857300
vt1 0.181396 0.828735
vt1 0.184326 0.941254
vt1 0.257812 0.752319
vt1 0.341553 0.741455
vt1 0.401123 0.654053
vt1 0.299561 0.838135
vt1 0.214844 0.897339
vt1 0.319092 0.901978
vt1 0.266846 0.991936
vt1 0.333984 0.944183
vt1 0.405273 0.942169
vt1 0.421387 0.877380
vt1 0.455566 0.975220
vt1 0.515137 0.964447
vt1 0.426514 0.781616
vt1 0.464111 0.680908
vt1 0.514648 0.739990
vt1 0.515137 0.878784
vt1 0.599609 0.907654
vt1 0.532227 0.840088
vt1 0.624512 0.798218
vn -0.118110 -0.929134 -0.346457
vn -0.062992 -1.000000 0.039370
vn 0.062992 -0.984252 0.173228
vn 0.000000 0.897638 -0.440945
vn -0.070866 0.669291 -0.740157
vn -0.055118 0.984252 -0.157480
vn 0.244094 0.889764 -0.393701
vn 0.448819 0.826771 -0.346457
vn 0.125984 0.944882 -0.291339
vn 0.330709 0.944882 -0.062992
vn 0.031496 1.000000 0.007874
vn -0.055118 0.984252 -0.157480
vn -0.070866 0.669291 -0.740157
vn 0.236220 -0.236221 -0.944882
vn 0.275591 0.259842 -0.929134
vn -0.094488 -0.228347 -0.968504
vn 0.566929 0.094488 -0.818897
vn 0.653543 0.527559 -0.551181
vn 0.850394 0.086614 -0.519685
vn 0.228346 0.803149 -0.559055
vn 0.944882 0.212598 -0.267717
vn 0.031496 1.000000 0.007874
vn -0.055118 0.984252 -0.157480
vn 0.850394 0.527559 -0.023622
vn 0.543307 0.795275 -0.267717
vn 0.968504 0.196850 0.149606
vn 0.464567 0.881890 -0.031496
vn 0.000000 0.897638 -0.440945
vn 0.244094 0.889764 -0.393701
vn 0.653543 0.622047 0.425197
vn 0.322835 0.921260 0.196850
vn -0.023622 0.952756 0.291338
vn 0.937008 -0.094488 0.338583
vn 0.811024 0.125984 0.574803
vn 0.181102 0.653543 0.732283
vn -0.181102 0.551181 0.811023
vn 0.464567 0.393701 0.787401
vn 0.559055 0.055118 0.826772
vn 0.188976 0.141732 0.976378
vn -0.181102 0.118110 0.976378
vn 0.015748 -0.133858 0.992126
vn -0.181102 0.118110 0.976378
vn 0.188976 0.141732 0.976378
vn 0.346457 -0.338583 0.874016
vn -0.149606 -0.330709 0.929134
vn 0.559055 0.055118 0.826772
vn -0.173228 -0.692913 0.700787
vn 0.629921 -0.338583 0.692913
vn 0.811024 0.125984 0.574803
vn 0.188976 -0.866142 0.464567
vn -0.173228 -0.968504 0.196850
vn 0.748031 -0.511811 0.425197
vn 0.937008 -0.094488 0.338583
vn 0.228346 -0.968504 0.102362
vn -0.062992 -1.000000 0.039370
vn -0.118110 -0.929134 -0.346457
vn 0.354331 -0.929134 0.070866
vn 0.094488 -0.976378 -0.181102
vn 0.826772 -0.566929 -0.007874
vn 0.551181 -0.716535 -0.433071
vn 0.220472 -0.614173 -0.755905
vn 0.992126 -0.125984 -0.047244
vn 0.968504 0.196850 0.149606
vn 0.944882 0.212598 -0.267717
vn 0.850394 0.086614 -0.519685
vn 0.889764 -0.307087 -0.330709
vn 0.637795 -0.322835 -0.700787
vn 0.566929 0.094488 -0.818897
vn 0.236220 -0.236221 -0.944882
vn -0.181102 0.118110 0.976378
vn 0.015748 -0.133858 0.992126
vn -0.149606 -0.330709 0.929134
vn -0.472441 0.000000 0.881890
vn -0.692913 -0.102362 0.716535
vn -0.574803 -0.535433 0.614173
vn -0.173228 -0.692913 0.700787
vn -0.874016 -0.149606 0.464567
vn -0.496063 -0.858268 0.125984
vn -0.173228 -0.968504 0.196850
vn -0.118110 -0.929134 -0.346457
vn 0.062992 -0.984252 0.173228
vn 0.094488 -0.976378 -0.181102
vn -0.062992 -1.000000 0.039370
vn -0.133858 -0.929134 -0.338583
vn 0.220472 -0.614173 -0.755905
vn -0.094488 -0.228347 -0.968504
vn 0.236220 -0.236221 -0.944882
vn -0.259843 -0.527559 -0.811023
vn -0.519685 -0.102362 -0.850394
vn -0.700787 -0.196850 -0.685039
vn -0.527559 -0.740157 -0.417323
vn -0.724409 -0.480315 -0.496063
vn -0.897638 -0.157480 -0.401575
vn -0.866142 -0.503937 0.000000
vn -0.992126 -0.118110 0.094488
vn -0.692913 -0.102362 0.716535
vn -0.874016 -0.149606 0.464567
vn -0.992126 -0.118110 0.094488
vn -0.874016 0.149606 0.464567
vn -0.551181 0.314961 0.771653
vn -0.472441 0.000000 0.881890
vn -0.181102 0.118110 0.976378
vn -0.181102 0.551181 0.811023
vn -0.590551 0.637795 0.488189
vn -0.023622 0.952756 0.291338
vn -0.921260 0.370079 0.133858
vn -0.913386 0.275590 -0.299213
vn -0.897638 -0.157480 -0.401575
vn -0.622047 0.763779 -0.157480
vn -0.299213 0.937008 0.188976
vn -0.078740 0.960630 -0.275591
vn 0.244094 0.889764 -0.393701
vn 0.448819 0.826771 -0.346457
vn 0.330709 0.944882 -0.062992
vn -0.220472 0.811023 -0.543307
vn 0.031496 1.000000 0.007874
vn 0.228346 0.803149 -0.559055
vn -0.661417 0.362205 -0.653543
vn -0.700787 -0.196850 -0.685039
vn -0.519685 -0.102362 -0.850394
vn -0.094488 0.582677 -0.811024
vn 0.275591 0.259842 -0.929134
vn -0.244094 0.220472 -0.944882
vn -0.094488 -0.228347 -0.968504
tan 0.832662 -0.281294 0.470519 1.000000
tan 0.868622 -0.035030 0.500031 1.000000
tan 0.857462 0.142228 0.496311 1.000000
tan -0.986050 0.072912 0.148428 1.000000
tan -0.991072 0.041106 0.132060 1.000000
tan -0.956042 -0.009920 0.272615 1.000000
tan -0.969992 0.190030 -0.171926 1.000000
tan -0.848906 0.269328 -0.457003 1.000000
tan -0.583917 -0.166532 -0.792609 1.000000
tan -0.643313 0.175584 -0.743629 1.000000
tan -0.377767 0.019220 -0.929878 1.000000
tan -0.126790 -0.163618 -0.978238 1.000000
tan 0.348503 -0.680699 -0.648893 1.000000
tan 0.952322 -0.163680 0.279001 1.000000
tan 0.966210 -0.122016 0.252464 1.000000
tan 0.984314 -0.174840 -0.054808 1.000000
tan 0.812450 -0.225680 0.536425 1.000000
tan 0.749891 -0.307831 0.594519 1.000000
tan 0.510819 -0.380185 0.772521 1.000000
tan 0.929010 0.007068 0.389609 1.000000
tan 0.342241 -0.563333 0.760555 1.000000
tan 0.913386 -0.032054 0.417323 1.000000
tan 0.862112 0.126666 0.489925 1.000000
tan 0.400087 -0.614545 0.678281 1.000000
tan 0.746543 -0.311675 0.589187 1.000000
tan 0.072912 -0.805567 0.587947 1.000000
tan 0.629177 -0.306219 0.706243 1.000000
tan 0.721929 0.305537 0.621985 1.000000
tan 0.629797 0.164548 0.762353 1.000000
tan 0.302499 -0.732035 0.605989 1.000000
tan 0.498543 -0.343667 0.790749 1.000000
tan 0.391593 -0.259656 0.880898 1.000000
tan -0.230392 -0.894848 0.387873 1.000000
tan -0.096844 -0.935210 0.341621 1.000000
tan 0.307769 -0.747473 0.590985 1.000000
tan 0.266167 -0.764895 0.579267 1.000000
tan 0.148800 -0.914998 0.369707 1.000000
tan -0.040796 -0.996094 0.093992 1.000000
tan 0.190464 -0.976626 0.104904 1.000000
tan 0.220658 -0.965032 0.157666 1.000000
tan 1.002232 -0.029140 -0.019840 1.000000
tan 0.982640 -0.017050 0.184326 1.000000
tan 0.987662 0.013144 -0.193068 1.000000
tan 0.932482 0.005890 -0.367351 1.000000
tan 0.970550 -0.190836 0.088350 1.000000
tan 0.819394 0.112964 -0.561597 1.000000
tan 0.926964 -0.354517 -0.121396 1.000000
tan 0.766446 0.157232 -0.619939 1.000000
tan 0.535309 0.253394 -0.810838 1.000000
tan 0.885176 -0.054684 -0.462025 1.000000
tan 0.915494 -0.233988 -0.345589 1.000000
tan 0.614855 0.287494 -0.735631 1.000000
tan 0.341745 0.454585 -0.818898 1.000000
tan 0.777544 0.117552 -0.622295 1.000000
tan 0.858578 -0.074214 -0.511315 1.000000
tan 0.904830 -0.242358 0.341497 1.000000
tan 0.636307 0.185814 -0.745303 1.000000
tan 0.453593 0.205034 -0.868746 1.000000
tan 0.334119 0.498357 -0.799244 1.000000
tan 0.182838 0.607291 -0.772088 1.000000
tan -0.005580 0.774505 -0.630913 1.000000
tan 0.039556 0.607477 -0.789262 1.000000
tan 0.006200 0.585591 -0.810652 1.000000
tan -0.341311 0.621737 -0.710893 1.000000
tan -0.401699 0.745117 -0.533139 1.000000
tan -0.022506 0.701903 -0.712319 1.000000
tan -0.186620 0.820509 -0.547833 1.000000
tan -0.468969 0.853618 -0.226177 1.000000
tan -0.293881 0.911402 -0.301321 1.000000
tan 0.678653 -0.700477 0.210615 1.000000
tan 0.745923 -0.662657 -0.101246 1.000000
tan 0.773018 -0.622481 -0.097092 1.000000
tan 0.611073 -0.722425 0.327361 1.000000
tan 0.516647 -0.764833 0.390353 1.000000
tan 0.736561 -0.660859 0.113212 1.000000
tan 0.915990 -0.380743 -0.150040 1.000000
tan 0.327361 -0.883998 0.331205 1.000000
tan 0.865584 -0.483291 0.115816 1.000000
tan 0.992002 -0.173600 0.018848 1.000000
tan 0.972410 -0.177940 0.145700 1.000000
tan 0.963668 0.107756 0.261826 1.000000
tan 0.867382 -0.008060 0.496001 1.000000
tan 0.900118 -0.039184 0.444913 1.000000
tan 0.862794 -0.278070 0.421973 1.000000
tan 0.760742 -0.373241 0.525141 1.000000
tan 0.730857 -0.669787 0.086614 1.000000
tan 0.755162 -0.569161 0.331081 1.000000
tan 0.737801 -0.647715 0.184946 1.000000
tan 0.531279 -0.818774 -0.226114 1.000000
tan 0.419989 -0.890384 -0.173786 1.000000
tan 0.747288 -0.636989 0.185070 1.000000
tan 0.541013 -0.842272 0.025482 1.000000
tan 0.197594 -0.974828 -0.059396 1.000000
tan 0.499969 -0.859322 0.138012 1.000000
tan 0.132432 -0.975386 0.171306 1.000000
tan -0.130572 -0.960630 -0.263500 1.000000
tan 0.039432 -0.970054 -0.238204 1.000000
tan 0.111228 -0.993986 -0.074586 1.000000
tan -0.236840 -0.961436 -0.135966 1.000000
tan -0.498605 -0.868002 -0.001860 1.000000
tan -0.381921 -0.902226 -0.204600 1.000000
tan -0.502697 -0.862546 0.011098 1.000000
tan -0.675739 -0.670965 0.305103 1.000000
tan -0.686961 -0.715233 0.103416 1.000000
tan -0.958026 -0.104346 0.263562 1.000000
tan -0.371381 -0.930870 0.017608 1.000000
tan -0.326369 -0.936078 0.134106 1.000000
tan -0.001364 -0.923120 0.365057 1.000000
tan -0.772831 -0.625891 0.017112 1.000000
tan -0.941658 -0.323393 0.112530 1.000000
tan -0.989026 -0.111910 -0.107508 1.000000
tan -0.974704 0.240374 -0.061070 1.000000
tan -0.880836 0.332259 -0.348193 1.000000
tan -0.832290 0.258168 -0.496993 1.000000
tan -0.841838 -0.437101 -0.310869 1.000000
tan -0.810962 0.030194 -0.590799 1.000000
tan -0.761547 -0.211296 -0.614607 1.000000
tan -0.559117 -0.818959 0.111972 1.000000
tan -0.220534 -0.850146 0.469899 1.000000
tan -0.500217 -0.769297 0.398289 1.000000
tan -0.785356 -0.545725 -0.300577 1.000000
tan -0.732469 -0.576601 -0.378511 1.000000
tan -0.705313 -0.713125 0.015810 1.000000
tan -0.700291 -0.669787 0.226239 1.000000
f 3/3/3 2/2/2 1/1/1
f 6/6/6 5/5/5 4/4/4
f 7/7/7 4/4/4 5/5/5
f 5/5/5 8/8/8 7/7/7
f 5/5/5 9/9/9 8/8/8
f 8/8/8 9/9/9 10/10/10
f 9/9/9 11/11/11 10/10/10
f 9/9/9 12/12/12 11/11/11
f 12/12/12 9/9/9 13/13/13
f 16/16/16 15/15/15 14/14/14
f 14/14/14 15/15/15 17/17/17
f 17/17/17 15/15/15 18/18/18
f 17/17/17 18/18/18 19/19/19
f 18/18/18 15/15/15 20/20/20
f 19/19/19 18/18/18 21/21/21
f 23/23/23 20/20/20 22/22/22
f 18/18/18 24/24/24 21/21/21
f 20/20/20 25/25/25 18/18/18
f 25/25/25 20/20/20 23/23/23
f 24/24/24 18/18/18 25/25/25
f 21/21/21 24/24/24 26/26/26
f 25/25/25 23/23/23 27/27/27
f 25/25/25 27/27/27 24/24/24
f 23/23/23 28/28/28 27/27/27
f 28/28/28 29/29/29 27/27/27
f 26/26/26 24/24/24 30/30/30
f 24/24/24 27/27/27 30/30/30
f 29/29/29 31/31/31 27/27/27
f 30/30/30 27/27/27 31/31/31
f 29/29/29 32/32/32 31/31/31
f 34/34/34 33/33/33 26/26/26
f 30/30/30 34/34/34 26/26/26
f 35/35/35 31/31/31 32/32/32
f 30/30/30 31/31/31 35/35/35
f 35/35/35 32/32/32 36/36/36
f 37/37/37 34/34/34 30/30/30
f 37/37/37 30/30/30 35/35/35
f 38/38/38 34/34/34 37/37/37
f 39/39/39 38/38/38 37/37/37
f 35/35/35 39/39/39 37/37/37
f 39/39/39 35/35/35 36/36/36
f 40/40/40 39/39/39 36/36/36
f 43/43/43 42/42/42 41/41/41
f 41/41/41 44/44/44 43/43/43
f 44/44/44 41/41/41 45/45/45
f 43/43/43 44/44/44 46/46/46
f 44/44/44 45/45/45 47/47/47
f 48/48/48 46/46/46 44/44/44
f 46/46/46 48/48/48 49/49/49
f 50/50/50 44/44/44 47/47/47
f 50/50/50 48/48/48 44/44/44
f 47/47/47 51/51/51 50/50/50
f 49/49/49 48/48/48 52/52/52
f 50/50/50 52/52/52 48/48/48
f 49/49/49 52/52/52 53/53/53
f 51/51/51 54/54/54 50/50/50
f 50/50/50 54/54/54 52/52/52
f 56/56/56 55/55/55 51/51/51
f 54/54/54 51/51/51 55/55/55
f 55/55/55 57/57/57 54/54/54
f 54/54/54 57/57/57 52/52/52
f 58/58/58 57/57/57 55/55/55
f 52/52/52 59/59/59 53/53/53
f 52/52/52 57/57/57 59/59/59
f 60/60/60 57/57/57 58/58/58
f 59/59/59 57/57/57 60/60/60
f 61/61/61 60/60/60 58/58/58
f 59/59/59 62/62/62 53/53/53
f 53/53/53 62/62/62 63/63/63
f 62/62/62 64/64/64 63/63/63
f 64/64/64 62/62/62 65/65/65
f 66/66/66 62/62/62 59/59/59
f 66/66/66 65/65/65 62/62/62
f 66/66/66 59/59/59 60/60/60
f 67/67/67 65/65/65 66/66/66
f 67/67/67 66/66/66 60/60/60
f 61/61/61 67/67/67 60/60/60
f 67/67/67 68/68/68 65/65/65
f 61/61/61 69/69/69 67/67/67
f 68/68/68 67/67/67 69/69/69
f 72/72/72 71/71/71 70/70/70
f 73/73/73 72/72/72 70/70/70
f 72/72/72 73/73/73 74/74/74
f 74/74/74 75/75/75 72/72/72
f 72/72/72 75/75/75 76/76/76
f 74/74/74 77/77/77 75/75/75
f 76/76/76 75/75/75 78/78/78
f 77/77/77 78/78/78 75/75/75
f 79/79/79 76/76/76 78/78/78
f 79/79/79 81/81/81 80/80/80
f 78/78/78 81/81/81 79/79/79
f 83/83/83 81/81/81 82/82/82
f 84/84/84 82/82/82 81/81/81
f 78/78/78 84/84/84 81/81/81
f 85/85/85 82/82/82 84/84/84
f 87/87/87 85/85/85 86/86/86
f 85/85/85 88/88/88 86/86/86
f 88/88/88 85/85/85 84/84/84
f 86/86/86 88/88/88 89/89/89
f 89/89/89 88/88/88 90/90/90
f 88/88/88 84/84/84 91/91/91
f 78/78/78 91/91/91 84/84/84
f 90/90/90 88/88/88 92/92/92
f 92/92/92 88/88/88 91/91/91
f 92/92/92 93/93/93 90/90/90
f 91/91/91 78/78/78 94/94/94
f 94/94/94 92/92/92 91/91/91
f 92/92/92 94/94/94 93/93/93
f 78/78/78 77/77/77 94/94/94
f 95/95/95 93/93/93 94/94/94
f 77/77/77 95/95/95 94/94/94
f 98/98/98 97/97/97 96/96/96
f 98/98/98 96/96/96 99/99/99
f 99/99/99 96/96/96 100/100/100
f 96/96/96 101/101/101 100/100/100
f 102/102/102 100/100/100 101/101/101
f 103/103/103 100/100/100 102/102/102
f 103/103/103 104/104/104 100/100/100
f 104/104/104 99/99/99 100/100/100
f 104/104/104 103/103/103 105/105/105
f 106/106/106 98/98/98 99/99/99
f 99/99/99 104/104/104 106/106/106
f 106/106/106 107/107/107 98/98/98
f 108/108/108 98/98/98 107/107/107
f 106/106/106 104/104/104 109/109/109
f 109/109/109 107/107/107 106/106/106
f 104/104/104 105/105/105 110/110/110
f 104/104/104 110/110/110 109/109/109
f 110/110/110 105/105/105 111/111/111
f 111/111/111 109/109/109 110/110/110
f 105/105/105 112/112/112 111/111/111
f 113/113/113 111/111/111 112/112/112
f 111/111/111 113/113/113 114/114/114
f 111/111/111 114/114/114 115/115/115
f 111/111/111 115/115/115 109/109/109
f 115/115/115 114/114/114 116/116/116
f 115/115/115 116/116/116 117/117/117
f 109/109/109 118/118/118 107/107/107
f 109/109/109 115/115/115 118/118/118
f 108/108/108 107/107/107 118/118/118
f 118/118/118 119/119/119 108/108/108
f 120/120/120 119/119/119 118/118/118
f 117/117/117 121/121/121 115/115/115
f 117/117/117 122/122/122 121/121/121
f 115/115/115 123/123/123 118/118/118
f 115/115/115 121/121/121 123/123/123
f 118/118/118 123/123/123 120/120/120
f 121/121/121 122/122/122 123/123/123
f 124/124/124 120/120/120 123/123/123
f 123/123/123 122/122/122 124/124/124
