mtllib SM_FoodPot_10_LOD1.mtl
g SM_FoodPot_10_LOD1
#Vertices 110
#Indices 300
#Section 0 Offset 0 NumIndices 150 MaterialIndex 0 MI_FoodPot
#Section 1 Offset 150 NumIndices 150 MaterialIndex 1 MI_FoodPot_Jelly
v -0.022698 0.025932 0.030532
v 0.000000 0.091266 0.041995
v 0.000000 0.025985 0.036508
v -0.023873 0.091433 0.035577
v -0.041360 0.091257 0.009882
v -0.034625 0.025985 0.011351
v -0.035592 0.025903 -0.012349
v -0.039844 0.091266 -0.012845
v -0.030007 0.091331 -0.029586
v -0.014769 0.025985 -0.033724
v -0.008516 0.091273 -0.041418
v 0.012010 0.025938 -0.035629
v 0.012946 0.091266 -0.039744
v 0.030011 0.091331 -0.029581
v 0.033455 0.025975 -0.015622
v 0.041510 0.091267 -0.008255
v 0.036330 0.025979 0.005766
v 0.039844 0.091266 0.013046
v 0.024106 0.025934 0.029435
v 0.025223 0.091323 0.034934
v 0.000000 0.091266 0.041995
v 0.000000 0.025985 0.036508
v -0.007055 0.116302 0.045351
v -0.032997 0.116264 0.032497
v -0.045176 0.116476 0.007198
v 0.019794 0.116508 0.041509
v 0.036657 0.116461 0.026633
v 0.045306 0.116386 0.007026
v 0.043093 0.116461 -0.014001
v 0.032892 0.116457 -0.031854
v 0.014002 0.116461 -0.043092
v -0.008739 0.116484 -0.045073
v -0.031964 0.116410 -0.032907
v -0.043093 0.116461 -0.014001
v 0.036657 0.116461 0.026633
v 0.039376 0.110295 0.023621
v 0.019794 0.116508 0.041509
v 0.045306 0.116386 0.007026
v 0.011011 0.110518 0.045740
v 0.045740 0.110519 -0.011010
v -0.007055 0.116302 0.045351
v 0.043093 0.116461 -0.014001
v -0.023620 0.110295 0.039377
v 0.032892 0.116457 -0.031854
v -0.032997 0.116264 0.032497
v 0.023620 0.110295 -0.039376
v -0.045740 0.110518 0.011009
v 0.014002 0.116461 -0.043092
v -0.045176 0.116476 0.007198
v -0.011010 0.110518 -0.045739
v -0.043093 0.116461 -0.014001
v -0.008739 0.116484 -0.045073
v -0.039376 0.110295 -0.023620
v -0.031964 0.116410 -0.032907
v 0.000000 0.000000 0.034323
v 0.000000 0.025985 0.036508
v 0.014436 -0.000091 0.031531
v 0.024106 0.025934 0.029435
v 0.027686 0.000000 0.020216
v 0.036330 0.025979 0.005766
v 0.034098 -0.000046 0.005505
v 0.032548 -0.000000 -0.010475
v 0.033455 0.025975 -0.015622
v 0.022775 0.000015 -0.025971
v 0.012010 0.025938 -0.035629
v 0.005407 -0.000052 -0.034049
v -0.010575 -0.000000 -0.032446
v -0.014769 0.025985 -0.033724
v -0.025808 0.000002 -0.023260
v -0.035592 0.025903 -0.012349
v -0.033987 -0.000031 -0.005376
v -0.031373 0.000019 0.015583
v -0.034625 0.025985 0.011351
v -0.022698 0.025932 0.030532
v -0.015162 -0.000016 0.031209
v 0.000000 0.025985 0.036508
v 0.000000 0.000000 0.034323
v -0.023873 0.091433 0.035577
v 0.000000 0.113129 0.043833
v 0.000000 0.091266 0.041995
v -0.035101 0.113149 0.030080
v -0.041360 0.091257 0.009882
v -0.043588 0.113097 -0.012023
v -0.039844 0.091266 -0.012845
v -0.030007 0.091331 -0.029586
v -0.021976 0.113131 -0.038407
v -0.008516 0.091273 -0.041418
v 0.012771 0.113091 -0.043602
v 0.012946 0.091266 -0.039744
v 0.030011 0.091331 -0.029581
v 0.039304 0.113146 -0.019823
v 0.041510 0.091267 -0.008255
v 0.043563 0.113103 0.012268
v 0.039844 0.091266 0.013046
v 0.025223 0.091323 0.034934
v 0.021976 0.113131 0.038609
v 0.000000 0.113129 0.043833
v 0.000000 0.091266 0.041995
v -0.031373 0.000019 0.015583
v -0.015162 -0.000016 0.031209
v -0.033987 -0.000031 -0.005376
v 0.000000 0.000000 0.034323
v 0.014436 -0.000091 0.031531
v 0.027686 0.000000 0.020216
v 0.034098 -0.000046 0.005505
v 0.032548 -0.000000 -0.010475
v 0.022775 0.000015 -0.025971
v 0.005407 -0.000052 -0.034049
v -0.010575 -0.000000 -0.032446
v -0.025808 0.000002 -0.023260
vt 0.261230 0.885620
vt 0.290283 0.808350
vt 0.290283 0.885559
vt 0.262939 0.808105
vt 0.229370 0.808350
vt 0.233032 0.885559
vt 0.202637 0.885620
vt 0.203857 0.808350
vt 0.182007 0.808228
vt 0.164673 0.885559
vt 0.155029 0.808350
vt 0.129639 0.885620
vt 0.130493 0.808350
vt 0.108459 0.808228
vt 0.092529 0.885559
vt 0.081604 0.808350
vt 0.064575 0.885559
vt 0.057434 0.808350
vt 0.031250 0.885620
vt 0.028397 0.808228
vt 0.000000 0.808350
vt 0.000000 0.885559
vt 0.541504 0.091797
vt 0.530762 0.059570
vt 0.541504 0.028320
vt 0.566895 0.110840
vt 0.593262 0.112793
vt 0.616699 0.103516
vt 0.632812 0.084473
vt 0.639160 0.061035
vt 0.632812 0.035645
vt 0.615234 0.015137
vt 0.585938 0.006348
vt 0.561035 0.012695
vt 0.593262 0.112793
vt 0.600098 0.119629
vt 0.566406 0.111328
vt 0.616699 0.103027
vt 0.552734 0.113281
vt 0.638672 0.092285
vt 0.542480 0.091797
vt 0.632812 0.084473
vt 0.525879 0.075195
vt 0.638672 0.060547
vt 0.530762 0.060059
vt 0.644531 0.044922
vt 0.531738 0.027832
vt 0.632812 0.035645
vt 0.541504 0.028320
vt 0.617676 0.006836
vt 0.561035 0.012695
vt 0.615723 0.015137
vt 0.569824 0.000488
vt 0.585449 0.006348
vt 0.115479 0.854126
vt 0.106934 0.822266
vt 0.133545 0.849731
vt 0.137573 0.814941
vt 0.155029 0.845215
vt 0.170410 0.809204
vt 0.175049 0.841797
vt 0.195190 0.839355
vt 0.197510 0.805908
vt 0.218384 0.837402
vt 0.234375 0.803589
vt 0.242432 0.836548
vt 0.262695 0.836670
vt 0.268066 0.803833
vt 0.285156 0.837769
vt 0.305664 0.806396
vt 0.309814 0.840088
vt 0.336182 0.843750
vt 0.335205 0.810303
vt 0.363037 0.815430
vt 0.364014 0.849365
vt 0.391602 0.822266
vt 0.383057 0.854126
vt 0.382568 0.734863
vt 0.420166 0.715576
vt 0.412842 0.742432
vt 0.373779 0.704590
vt 0.343750 0.728027
vt 0.320557 0.696777
vt 0.315430 0.724365
vt 0.290771 0.722168
vt 0.277588 0.693604
vt 0.259766 0.720947
vt 0.233521 0.693115
vt 0.232666 0.720947
vt 0.207520 0.722168
vt 0.188721 0.695801
vt 0.177002 0.724854
vt 0.148071 0.700684
vt 0.150269 0.728516
vt 0.117554 0.734375
vt 0.106018 0.708740
vt 0.078308 0.715576
vt 0.085510 0.742432
vt 0.788086 0.283691
vt 0.768066 0.263672
vt 0.814941 0.286621
vt 0.763672 0.244629
vt 0.766602 0.226562
vt 0.780762 0.209473
vt 0.799316 0.200684
vt 0.819336 0.202148
vt 0.839355 0.214355
vt 0.850098 0.235840
vt 0.848145 0.256348
vt 0.836914 0.275879
vt1 0.883789 0.992111
vt1 0.980957 0.731689
vt1 0.980957 0.991936
vt1 0.889160 0.731201
vt1 0.776367 0.731934
vt1 0.788574 0.991936
vt1 0.686523 0.992264
vt1 0.690918 0.731689
vt1 0.617676 0.731445
vt1 0.559570 0.991966
vt1 0.527344 0.731689
vt1 0.442627 0.992142
vt1 0.445312 0.731689
vt1 0.371338 0.731445
vt1 0.317871 0.991989
vt1 0.281250 0.731689
vt1 0.224487 0.991920
vt1 0.200439 0.731689
vt1 0.112793 0.992142
vt1 0.103210 0.731689
vt1 0.008064 0.731689
vt1 0.008064 0.991936
vt1 0.062561 0.607666
vt1 0.026016 0.499023
vt1 0.062744 0.394531
vt1 0.148315 0.672119
vt1 0.237061 0.677734
vt1 0.316162 0.646973
vt1 0.368652 0.582031
vt1 0.390137 0.503662
vt1 0.368896 0.419434
vt1 0.310791 0.350098
vt1 0.211792 0.319336
vt1 0.127808 0.340820
vt1 0.237061 0.677734
vt1 0.259766 0.700439
vt1 0.146484 0.672363
vt1 0.315918 0.644531
vt1 0.100281 0.679932
vt1 0.388428 0.609375
vt1 0.065002 0.607666
vt1 0.368652 0.582031
vt1 0.009460 0.551270
vt1 0.389648 0.502197
vt1 0.026733 0.500732
vt1 0.408691 0.450195
vt1 0.029770 0.392090
vt1 0.368896 0.419434
vt1 0.061829 0.394043
vt1 0.317871 0.321289
vt1 0.127808 0.340820
vt1 0.311523 0.349121
vt1 0.158447 0.300781
vt1 0.210327 0.319824
vt1 0.034882 0.298828
vt1 0.008064 0.198730
vt1 0.091553 0.284668
vt1 0.104248 0.175293
vt1 0.159302 0.270508
vt1 0.207642 0.157227
vt1 0.222168 0.260254
vt1 0.285400 0.251953
vt1 0.292480 0.146973
vt1 0.358154 0.246094
vt1 0.408691 0.140137
vt1 0.434082 0.243164
vt1 0.497803 0.243652
vt1 0.514648 0.140625
vt1 0.568359 0.247070
vt1 0.632812 0.148438
vt1 0.645996 0.254395
vt1 0.728516 0.266113
vt1 0.725586 0.161133
vt1 0.812988 0.176758
vt1 0.815918 0.283691
vt1 0.902344 0.198730
vt1 0.875488 0.298828
vt1 0.883789 0.131348
vt1 0.991699 0.076172
vt1 0.971191 0.153320
vt1 0.858398 0.044922
vt1 0.772461 0.111816
vt1 0.705078 0.021973
vt1 0.689941 0.101562
vt1 0.619629 0.095215
vt1 0.582031 0.013184
vt1 0.530273 0.091309
vt1 0.454590 0.011719
vt1 0.452148 0.091797
vt1 0.379883 0.095215
vt1 0.325684 0.019531
vt1 0.291992 0.103027
vt1 0.208984 0.033691
vt1 0.215088 0.113770
vt1 0.120911 0.130371
vt1 0.087708 0.056641
vt1 0.008064 0.076172
vt1 0.028732 0.153320
vt1 0.504395 0.691895
vt1 0.440918 0.628662
vt1 0.587891 0.700439
vt1 0.427246 0.568848
vt1 0.437012 0.511230
vt1 0.480957 0.457520
vt1 0.538574 0.431152
vt1 0.602051 0.435547
vt1 0.664551 0.473145
vt1 0.698242 0.541260
vt1 0.693359 0.604980
vt1 0.658203 0.666260
vn -0.590551 -0.078740 0.803149
vn 0.000000 -0.086614 1.000000
vn 0.000000 -0.086614 1.000000
vn -0.566929 -0.078740 0.818897
vn -0.968504 -0.078740 0.236220
vn -0.944882 -0.086614 0.307087
vn -0.937008 -0.078740 -0.338583
vn -0.944882 -0.086614 -0.307087
vn -0.708661 -0.086614 -0.700787
vn -0.401575 -0.086614 -0.913386
vn -0.204724 -0.086614 -0.976378
vn 0.322835 -0.078740 -0.944882
vn 0.307087 -0.086614 -0.944882
vn 0.708661 -0.086614 -0.700787
vn 0.897638 -0.086614 -0.425197
vn 0.976378 -0.086614 -0.204724
vn 0.984252 -0.086614 0.157480
vn 0.944882 -0.086614 0.307087
vn 0.629921 -0.078740 0.771653
vn 0.582677 -0.078740 0.811023
vn 0.000000 -0.086614 1.000000
vn 0.000000 -0.086614 1.000000
vn 0.000000 1.000000 -0.000000
vn 0.000000 1.000000 -0.000000
vn 0.000000 1.000000 -0.000000
vn 0.000000 1.000000 -0.000000
vn 0.000000 1.000000 -0.000000
vn 0.000000 1.000000 -0.000000
vn 0.000000 1.000000 -0.000000
vn 0.000000 1.000000 -0.000000
vn 0.000000 1.000000 -0.000000
vn 0.000000 1.000000 -0.000000
vn 0.000000 1.000000 -0.000000
vn 0.000000 1.000000 -0.000000
vn 0.811024 0.000000 0.590551
vn 0.858268 0.000000 0.511811
vn 0.433071 0.000000 0.905512
vn 0.984252 0.000000 0.157480
vn 0.236220 0.000000 0.968504
vn 0.968504 -0.000000 -0.236220
vn -0.157480 0.000000 0.984252
vn 0.952756 -0.000000 -0.307087
vn -0.511811 0.000000 0.858268
vn 0.716535 -0.000000 -0.692913
vn -0.716535 0.000000 0.700787
vn 0.511811 -0.000000 -0.858268
vn -0.968504 0.000000 0.236220
vn 0.307087 -0.000000 -0.952756
vn -0.984252 0.000000 0.157480
vn -0.236220 -0.000000 -0.968504
vn -0.952756 -0.000000 -0.307087
vn -0.188976 -0.000000 -0.984252
vn -0.858268 -0.000000 -0.511811
vn -0.692913 -0.000000 -0.716535
vn 0.000000 -0.086614 1.000000
vn 0.000000 -0.086614 1.000000
vn 0.417323 -0.078740 0.905512
vn 0.637795 -0.078740 0.763779
vn 0.803150 -0.086614 0.582677
vn 0.984252 -0.078740 0.157480
vn 0.984252 -0.086614 0.157480
vn 0.944882 -0.086614 -0.307087
vn 0.905512 -0.078740 -0.425197
vn 0.653543 -0.086614 -0.755905
vn 0.322835 -0.078740 -0.944882
vn 0.157480 -0.086614 -0.984252
vn -0.307087 -0.086614 -0.944882
vn -0.401575 -0.086614 -0.913386
vn -0.740157 -0.078740 -0.669291
vn -0.937008 -0.078740 -0.330709
vn -0.984252 -0.086614 -0.157480
vn -0.897638 -0.078740 0.440945
vn -0.944882 -0.086614 0.307087
vn -0.590551 -0.078740 0.803149
vn -0.440945 -0.086614 0.897638
vn 0.000000 -0.086614 1.000000
vn 0.000000 -0.086614 1.000000
vn -0.559055 -0.078740 0.826772
vn 0.000000 -0.086614 1.000000
vn 0.000000 -0.086614 1.000000
vn -0.755906 -0.078740 0.645669
vn -0.968504 -0.086614 0.228346
vn -0.960630 -0.078740 -0.267716
vn -0.944882 -0.086614 -0.307087
vn -0.708661 -0.086614 -0.700787
vn -0.496063 -0.078740 -0.866142
vn -0.204724 -0.086614 -0.976378
vn 0.283465 -0.078740 -0.952756
vn 0.307087 -0.086614 -0.944882
vn 0.708661 -0.086614 -0.700787
vn 0.889764 -0.086614 -0.448819
vn 0.976378 -0.086614 -0.196850
vn 0.960630 -0.078740 0.267716
vn 0.944882 -0.086614 0.307087
vn 0.582677 -0.078740 0.811023
vn 0.496063 -0.086614 0.866142
vn 0.000000 -0.086614 1.000000
vn 0.000000 -0.086614 1.000000
vn 0.000000 -1.000000 0.000000
vn 0.000000 -1.000000 0.000000
vn 0.000000 -1.000000 0.000000
vn 0.000000 -1.000000 0.000000
vn 0.000000 -1.000000 0.000000
vn 0.000000 -1.000000 0.000000
vn 0.000000 -1.000000 0.000000
vn 0.000000 -1.000000 0.000000
vn 0.000000 -1.000000 0.000000
vn 0.000000 -1.000000 0.000000
vn 0.000000 -1.000000 0.000000
vn 0.000000 -1.000000 0.000000
tan -0.007812 0.931304 0.085560 1.000000
tan -0.015748 1.000000 0.086614 1.000000
tan -0.015748 1.000000 0.086614 1.000000
tan -0.032116 0.931490 0.067332 1.000000
tan -0.080600 0.968504 -0.007626 1.000000
tan -0.084196 0.956972 0.010850 1.000000
tan -0.081406 0.939674 0.006758 1.000000
tan -0.084196 0.956972 -0.010850 1.000000
tan -0.050344 0.998822 -0.072540 1.000000
tan -0.008556 0.919710 -0.083452 1.000000
tan 0.000000 0.976378 -0.086614 1.000000
tan -0.007440 0.944882 -0.081282 1.000000
tan 0.010850 0.956972 -0.084196 1.000000
tan 0.072416 0.998822 -0.050220 1.000000
tan 0.083266 0.907682 -0.009114 1.000000
tan 0.086614 0.976378 -0.000000 1.000000
tan 0.087854 0.984252 -0.007750 1.000000
tan 0.084196 0.956972 0.010850 1.000000
tan 0.032736 0.936326 0.068820 1.000000
tan -0.005704 0.932296 0.094612 1.000000
tan 0.015748 1.000000 0.086614 1.000000
tan 0.015748 1.000000 0.086614 1.000000
tan -0.708661 -0.000000 -0.708661 1.000000
tan -0.708661 -0.000000 -0.708661 1.000000
tan -0.708661 -0.000000 -0.708661 1.000000
tan -0.708661 -0.000000 -0.708661 1.000000
tan -0.708661 -0.000000 -0.708661 1.000000
tan -0.708661 -0.000000 -0.708661 1.000000
tan -0.708661 -0.000000 -0.708661 1.000000
tan -0.708661 -0.000000 -0.708661 1.000000
tan -0.708661 -0.000000 -0.708661 1.000000
tan -0.708661 -0.000000 -0.708661 1.000000
tan -0.708661 -0.000000 -0.708661 1.000000
tan -0.708661 -0.000000 -0.708661 1.000000
tan 0.106950 0.956414 -0.146878 1.000000
tan 0.294191 0.735073 -0.493335 1.000000
tan -0.541881 0.734081 0.259160 1.000000
tan 0.090520 0.806001 -0.565751 1.000000
tan -0.556699 0.793105 0.135780 1.000000
tan -0.221340 0.343171 -0.907496 1.000000
tan -0.875752 0.449501 -0.140120 1.000000
tan -0.273235 0.432451 -0.847728 1.000000
tan -0.851510 0.129704 -0.507781 1.000000
tan -0.692913 0.033294 -0.716535 1.000000
tan -0.700787 -0.027838 -0.716535 1.000000
tan -0.851510 -0.129704 -0.507781 1.000000
tan -0.221340 -0.343171 -0.907496 1.000000
tan -0.907744 -0.294997 -0.292579 1.000000
tan -0.126480 -0.581251 -0.790501 1.000000
tan -0.556699 -0.793105 0.135780 1.000000
tan 0.142662 -0.849898 -0.442619 1.000000
tan -0.651001 -0.736251 0.124992 1.000000
tan 0.294191 -0.735073 -0.493335 1.000000
tan -0.225680 -0.945192 0.218241 1.000000
tan 0.259843 0.968504 0.083886 1.000000
tan 0.259843 0.968504 0.083886 1.000000
tan 0.322091 0.855044 -0.074090 1.000000
tan 0.522723 0.720069 -0.362267 1.000000
tan 0.255999 0.907310 -0.217993 1.000000
tan 0.100440 0.976502 -0.139500 1.000000
tan 0.108252 0.976502 -0.139500 1.000000
tan 0.049662 0.949532 -0.115010 1.000000
tan 0.010540 0.897948 -0.143840 1.000000
tan -0.123876 0.944510 -0.215327 1.000000
tan -0.044020 0.947424 -0.093992 1.000000
tan -0.007750 0.984252 -0.087854 1.000000
tan 0.026350 0.956972 -0.096286 1.000000
tan 0.048980 0.919710 -0.108748 1.000000
tan 0.104160 0.948664 -0.226797 1.000000
tan -0.033852 0.932234 -0.126046 1.000000
tan -0.067332 0.976502 -0.116250 1.000000
tan -0.190836 0.879782 -0.231385 1.000000
tan -0.140864 0.939674 -0.168392 1.000000
tan -0.614421 0.620869 -0.390911 1.000000
tan -0.305971 0.851510 -0.068138 1.000000
tan -0.259843 0.968504 0.083886 1.000000
tan -0.259843 0.968504 0.083886 1.000000
tan -0.576911 0.667245 -0.326555 1.000000
tan -0.259843 0.968504 0.083886 1.000000
tan -0.259843 0.968504 0.083886 1.000000
tan -0.530101 0.635377 -0.543121 1.000000
tan -0.120094 0.960878 -0.144894 1.000000
tan -0.044392 0.950958 -0.120404 1.000000
tan -0.049662 0.949532 -0.115010 1.000000
tan 0.115196 0.960196 -0.235167 1.000000
tan 0.070060 0.890570 -0.121086 1.000000
tan 0.007688 0.976378 -0.088226 1.000000
tan -0.030628 0.950524 -0.087668 1.000000
tan -0.026350 0.956972 -0.096286 1.000000
tan -0.115196 0.960196 -0.235167 1.000000
tan 0.011036 0.893422 -0.150536 1.000000
tan 0.064232 0.968690 -0.107632 1.000000
tan 0.125984 0.943394 -0.174592 1.000000
tan 0.140864 0.939674 -0.168392 1.000000
tan 0.592907 0.636369 -0.364189 1.000000
tan 0.360097 0.822369 -0.124000 1.000000
tan 0.259843 0.968504 0.083886 1.000000
tan 0.259843 0.968504 0.083886 1.000000
tan 1.000000 -0.000000 -0.023622 1.000000
tan 1.000000 -0.000000 -0.023622 1.000000
tan 1.000000 -0.000000 -0.023622 1.000000
tan 1.000000 -0.000000 -0.023622 1.000000
tan 1.000000 -0.000000 -0.023622 1.000000
tan 1.000000 -0.000000 -0.023622 1.000000
tan 1.000000 -0.000000 -0.023622 1.000000
tan 1.000000 -0.000000 -0.023622 1.000000
tan 1.000000 -0.000000 -0.023622 1.000000
tan 1.000000 -0.000000 -0.023622 1.000000
tan 1.000000 -0.000000 -0.023622 1.000000
tan 1.000000 -0.000000 -0.023622 1.000000
f 3/3/3 2/2/2 1/1/1
f 4/4/4 1/1/1 2/2/2
f 4/4/4 5/5/5 1/1/1
f 6/6/6 1/1/1 5/5/5
f 7/7/7 6/6/6 5/5/5
f 8/8/8 7/7/7 5/5/5
f 9/9/9 7/7/7 8/8/8
f 7/7/7 9/9/9 10/10/10
f 11/11/11 10/10/10 9/9/9
f 12/12/12 10/10/10 11/11/11
f 13/13/13 12/12/12 11/11/11
f 14/14/14 12/12/12 13/13/13
f 12/12/12 14/14/14 15/15/15
f 16/16/16 15/15/15 14/14/14
f 15/15/15 16/16/16 17/17/17
f 18/18/18 17/17/17 16/16/16
f 17/17/17 18/18/18 19/19/19
f 20/20/20 19/19/19 18/18/18
f 20/20/20 21/21/21 19/19/19
f 19/19/19 21/21/21 22/22/22
f 25/25/25 24/24/24 23/23/23
f 25/25/25 23/23/23 26/26/26
f 25/25/25 26/26/26 27/27/27
f 25/25/25 27/27/27 28/28/28
f 25/25/25 28/28/28 29/29/29
f 25/25/25 29/29/29 30/30/30
f 25/25/25 30/30/30 31/31/31
f 25/25/25 31/31/31 32/32/32
f 25/25/25 32/32/32 33/33/33
f 25/25/25 33/33/33 34/34/34
f 37/37/37 36/36/36 35/35/35
f 36/36/36 38/38/38 35/35/35
f 37/37/37 39/39/39 36/36/36
f 38/38/38 36/36/36 40/40/40
f 37/37/37 41/41/41 39/39/39
f 40/40/40 42/42/42 38/38/38
f 41/41/41 43/43/43 39/39/39
f 40/40/40 44/44/44 42/42/42
f 41/41/41 45/45/45 43/43/43
f 40/40/40 46/46/46 44/44/44
f 47/47/47 43/43/43 45/45/45
f 46/46/46 48/48/48 44/44/44
f 45/45/45 49/49/49 47/47/47
f 46/46/46 50/50/50 48/48/48
f 49/49/49 51/51/51 47/47/47
f 50/50/50 52/52/52 48/48/48
f 53/53/53 47/47/47 51/51/51
f 50/50/50 54/54/54 52/52/52
f 51/51/51 54/54/54 53/53/53
f 50/50/50 53/53/53 54/54/54
f 57/57/57 56/56/56 55/55/55
f 58/58/58 56/56/56 57/57/57
f 59/59/59 58/58/58 57/57/57
f 58/58/58 59/59/59 60/60/60
f 61/61/61 60/60/60 59/59/59
f 62/62/62 60/60/60 61/61/61
f 60/60/60 62/62/62 63/63/63
f 64/64/64 63/63/63 62/62/62
f 63/63/63 64/64/64 65/65/65
f 66/66/66 65/65/65 64/64/64
f 66/66/66 67/67/67 65/65/65
f 65/65/65 67/67/67 68/68/68
f 67/67/67 69/69/69 68/68/68
f 68/68/68 69/69/69 70/70/70
f 71/71/71 70/70/70 69/69/69
f 71/71/71 72/72/72 70/70/70
f 73/73/73 70/70/70 72/72/72
f 74/74/74 73/73/73 72/72/72
f 75/75/75 74/74/74 72/72/72
f 74/74/74 75/75/75 76/76/76
f 77/77/77 76/76/76 75/75/75
f 80/80/80 79/79/79 78/78/78
f 81/81/81 78/78/78 79/79/79
f 82/82/82 78/78/78 81/81/81
f 81/81/81 83/83/83 82/82/82
f 82/82/82 83/83/83 84/84/84
f 84/84/84 83/83/83 85/85/85
f 86/86/86 85/85/85 83/83/83
f 87/87/87 85/85/85 86/86/86
f 87/87/87 86/86/86 88/88/88
f 87/87/87 88/88/88 89/89/89
f 89/89/89 88/88/88 90/90/90
f 91/91/91 90/90/90 88/88/88
f 90/90/90 91/91/91 92/92/92
f 93/93/93 92/92/92 91/91/91
f 92/92/92 93/93/93 94/94/94
f 94/94/94 93/93/93 95/95/95
f 93/93/93 96/96/96 95/95/95
f 96/96/96 97/97/97 95/95/95
f 95/95/95 97/97/97 98/98/98
f 101/101/101 100/100/100 99/99/99
f 101/101/101 102/102/102 100/100/100
f 101/101/101 103/103/103 102/102/102
f 101/101/101 104/104/104 103/103/103
f 101/101/101 105/105/105 104/104/104
f 101/101/101 106/106/106 105/105/105
f 101/101/101 107/107/107 106/106/106
f 101/101/101 108/108/108 107/107/107
f 101/101/101 109/109/109 108/108/108
f 101/101/101 110/110/110 109/109/109
