mtllib SM_Frames_08_LOD1.mtl
g SM_Frames_08_LOD1
#Vertices 84
#Indices 159
#Section 0 Offset 0 NumIndices 159 MaterialIndex 0 MI_Frames
v 0.080911 0.044548 -0.133242
v 0.088067 -0.000087 -0.167482
v 0.105387 0.006121 -0.167153
v 0.095140 0.040215 0.134361
v 0.095734 -0.007799 0.167433
v 0.077194 0.035830 0.134121
v -0.004112 0.361219 -0.167579
v -0.019798 0.356929 -0.165129
v -0.001618 0.359882 -0.165798
v -0.008843 0.320604 -0.134215
v -0.019798 0.356929 -0.165129
v 0.008532 0.326477 -0.134391
v -0.000055 0.326226 -0.136078
v 0.087011 0.038072 -0.136078
v -0.000055 0.326226 0.136219
v 0.087011 0.038072 0.136219
v -0.008863 0.320775 -0.135876
v -0.001778 0.360713 -0.168361
v 0.008560 0.326234 -0.136399
v -0.019513 0.356037 -0.169159
v 0.095468 0.038563 -0.137874
v 0.077356 0.035396 -0.135876
v 0.092908 0.040118 -0.135873
v 0.092046 0.001570 -0.177950
v -0.009420 0.322497 0.136083
v -0.001772 0.360693 0.168357
v -0.019516 0.356134 0.169152
v 0.008286 0.327091 0.136436
v 0.092050 0.001572 0.177949
v 0.095468 0.038563 0.137874
v 0.077357 0.035394 0.135876
v 0.092908 0.040118 0.135873
v 0.077194 0.035830 0.134121
v 0.080911 0.044548 -0.133242
v 0.095140 0.040215 0.134361
v 0.105387 0.006121 -0.167153
v 0.095734 -0.007799 0.167433
v 0.088067 -0.000087 -0.167482
v 0.092050 0.001572 0.177949
v -0.019516 0.356134 0.169152
v -0.001772 0.360693 0.168357
v 0.095468 0.038563 0.137874
v 0.008286 0.327091 0.136436
v 0.092908 0.040118 0.135873
v -0.009420 0.322497 0.136083
v 0.077357 0.035394 0.135876
v -0.008843 0.320604 -0.134215
v -0.008846 0.320605 0.134123
v 0.006738 0.325308 0.134100
v 0.008532 0.326477 -0.134391
v 0.008075 0.327802 0.135885
v -0.001618 0.359882 -0.165798
v -0.002018 0.361258 0.167082
v -0.004112 0.361219 -0.167579
v -0.019685 0.356523 0.167472
v -0.019798 0.356929 -0.165129
v 0.092046 0.001570 -0.177950
v -0.001778 0.360713 -0.168361
v -0.019513 0.356037 -0.169159
v 0.095468 0.038563 -0.137874
v 0.008560 0.326234 -0.136399
v 0.092908 0.040118 -0.135873
v -0.008863 0.320775 -0.135876
v 0.077356 0.035396 -0.135876
v 0.036135 0.198376 -0.044008
v -0.100122 0.000000 -0.063922
v -0.073871 0.000194 -0.064352
v 0.028874 0.223000 -0.043027
v -0.104967 0.000000 -0.061236
v 0.028803 0.223082 0.026593
v 0.028874 0.223000 -0.043027
v -0.104967 0.000000 0.044781
v 0.028803 0.223082 0.026593
v -0.098849 0.000000 0.047456
v 0.035221 0.202335 0.026349
v -0.074216 0.000185 0.048261
v 0.036666 0.197721 0.025208
v -0.073871 0.000194 -0.064352
v 0.036135 0.198376 -0.044008
v -0.002018 0.361258 0.167082
v -0.008846 0.320605 0.134123
v -0.019685 0.356523 0.167472
v 0.008075 0.327802 0.135885
v 0.006738 0.325308 0.134100
vt 0.331787 0.911987
vt 0.323730 0.820557
vt 0.349365 0.822021
vt 0.349121 0.821777
vt 0.331299 0.914001
vt 0.323730 0.820679
vt 0.321533 0.824463
vt 0.345215 0.824463
vt 0.321533 0.824463
vt 0.346680 0.902344
vt 0.346436 0.822266
vt 0.321289 0.901367
vt 0.212280 0.661865
vt 0.212280 0.455078
vt 0.407959 0.661865
vt 0.407959 0.455078
vt 0.346436 0.819824
vt 0.321289 0.901306
vt 0.321289 0.820801
vt 0.346924 0.902466
vt 0.321533 0.898315
vt 0.346924 0.902527
vt 0.321533 0.898315
vt 0.340332 0.810547
vt 0.323975 0.822266
vt 0.349121 0.901245
vt 0.323486 0.902527
vt 0.348877 0.821411
vt 0.330078 0.810547
vt 0.348877 0.898315
vt 0.323486 0.902527
vt 0.348877 0.898315
vt 0.867676 0.751343
vt 0.862305 0.944183
vt 0.854980 0.751221
vt 0.830566 0.968658
vt 0.822266 0.727295
vt 0.818359 0.968887
vt 0.043335 0.692139
vt 0.047180 0.953857
vt 0.034943 0.953644
vt 0.012749 0.716797
vt 0.012070 0.928894
vt 0.011276 0.718018
vt -0.000191 0.929138
vt -0.000172 0.718018
vt 0.910645 0.466797
vt 0.910645 0.272949
vt 0.921875 0.272949
vt 0.922852 0.466797
vt 0.923340 0.271484
vt 0.946777 0.489258
vt 0.947266 0.249023
vt 0.948242 0.490723
vt 0.959473 0.249023
vt 0.959473 0.488770
vt 0.568848 0.683105
vt 0.577148 0.944489
vt 0.564941 0.944641
vt 0.599609 0.707520
vt 0.600098 0.919128
vt 0.601074 0.708740
vt 0.612305 0.918701
vt 0.612305 0.708740
vt 0.658691 0.381836
vt 0.641602 0.215332
vt 0.660156 0.215332
vt 0.639648 0.386230
vt 0.641602 0.215332
vt 0.580566 0.392578
vt 0.643066 0.392578
vt 0.582031 0.215332
vt 0.583496 0.387695
vt 0.582031 0.215332
vt 0.568359 0.384766
vt 0.565918 0.215332
vt 0.564941 0.381348
vt 0.499756 0.215332
vt 0.499268 0.381348
vt 0.349121 0.821533
vt 0.323975 0.902344
vt 0.323975 0.820801
vt 0.348877 0.898315
vt 0.348877 0.898315
vt1 0.701660 0.535645
vt1 0.808594 0.525635
vt1 0.807129 0.556885
vt1 0.581543 0.556885
vt1 0.473389 0.534912
vt1 0.583008 0.525635
vt1 0.739746 0.458496
vt1 0.739746 0.487305
vt1 0.739746 0.458496
vt1 0.648438 0.489258
vt1 0.742188 0.489258
vt1 0.649414 0.458008
vt1 0.008064 0.991936
vt1 0.008064 0.486816
vt1 0.465332 0.991936
vt1 0.465332 0.486816
vt1 0.808594 0.360352
vt1 0.713867 0.329102
vt1 0.807129 0.329102
vt1 0.712891 0.360840
vt1 0.652832 0.394043
vt1 0.647949 0.425293
vt1 0.652832 0.394043
vt1 0.754883 0.417480
vt1 0.741211 0.268066
vt1 0.649414 0.298828
vt1 0.647949 0.267578
vt1 0.742188 0.298828
vt1 0.706543 0.339844
vt1 0.604492 0.363281
vt1 0.599609 0.332031
vt1 0.604492 0.363281
vt1 0.862305 0.065918
vt1 0.875000 0.515137
vt1 0.892578 0.065918
vt1 0.952148 0.572021
vt1 0.972656 0.010254
vt1 0.982422 0.572510
vt1 0.631836 0.451172
vt1 0.008095 0.460449
vt1 0.008606 0.431152
vt1 0.573242 0.377930
vt1 0.067627 0.375977
vt1 0.570312 0.374512
vt1 0.067017 0.346680
vt1 0.570312 0.346680
vt1 0.064087 0.082031
vt1 0.514648 0.082031
vt1 0.514648 0.109375
vt1 0.063782 0.111816
vt1 0.517578 0.113770
vt1 0.011055 0.170410
vt1 0.569824 0.172363
vt1 0.008064 0.174805
vt1 0.570312 0.202148
vt1 0.012177 0.202148
vt1 0.631836 0.227051
vt1 0.008568 0.247070
vt1 0.008255 0.217773
vt1 0.573242 0.300293
vt1 0.069092 0.302246
vt1 0.570312 0.303711
vt1 0.070068 0.331055
vt1 0.570312 0.331543
vt1 0.517090 0.995129
vt1 0.916016 0.950073
vt1 0.915527 0.997950
vt1 0.507324 0.946075
vt1 0.916016 0.950073
vt1 0.491943 0.793213
vt1 0.491943 0.954071
vt1 0.916016 0.796509
vt1 0.503906 0.801147
vt1 0.916016 0.796509
vt1 0.510254 0.761963
vt1 0.916016 0.755371
vt1 0.519043 0.752075
vt1 0.915527 0.583740
vt1 0.518555 0.582520
vt1 0.694824 0.556641
vt1 0.599609 0.525879
vt1 0.695801 0.525879
vt1 0.604492 0.556641
vt1 0.604492 0.556641
vn -0.188976 0.637795 -0.748031
vn -0.188976 0.637795 -0.748031
vn -0.188976 0.637795 -0.748031
vn -0.188976 0.637795 0.748031
vn -0.188976 0.637795 0.748031
vn -0.188976 0.637795 0.748031
vn 0.188976 -0.637795 -0.748031
vn 0.188976 -0.637795 -0.748031
vn 0.188976 -0.637795 -0.748031
vn 0.188976 -0.637795 -0.748031
vn 0.188976 -0.637795 -0.748031
vn 0.188976 -0.637795 -0.748031
vn 0.960630 0.291339 -0.000000
vn 0.960630 0.291339 -0.000000
vn 0.960630 0.291339 -0.000000
vn 0.960630 0.291339 -0.000000
vn -0.196850 0.637795 0.740157
vn -0.196850 0.637795 0.740157
vn -0.196850 0.637795 0.740157
vn -0.196850 0.637795 0.740157
vn 0.196850 -0.637795 0.748031
vn 0.196850 -0.637795 0.748031
vn 0.196850 -0.637795 0.748031
vn 0.196850 -0.637795 0.748031
vn -0.196850 0.637795 -0.740157
vn -0.196850 0.637795 -0.740157
vn -0.196850 0.637795 -0.740157
vn -0.196850 0.637795 -0.740157
vn 0.196850 -0.637795 -0.748031
vn 0.196850 -0.637795 -0.748031
vn 0.196850 -0.637795 -0.748031
vn 0.196850 -0.637795 -0.748031
vn -0.291339 0.952756 -0.000000
vn 0.141732 0.992126 -0.000000
vn 0.866142 0.503937 -0.000000
vn 0.992126 -0.102362 0.000000
vn 0.590551 -0.811023 0.000000
vn 0.291339 -0.960630 0.000000
vn 0.236220 0.070866 0.968504
vn 0.000000 0.000000 1.000000
vn 0.858268 0.259843 0.448819
vn 0.960630 0.291339 -0.023622
vn 0.850394 0.259842 -0.464567
vn 0.141732 0.047244 -0.992126
vn 0.000000 -0.000000 -1.000000
vn 0.000000 -0.000000 -1.000000
vn 0.283465 -0.960630 0.000000
vn 0.283465 -0.960630 0.000000
vn 0.425197 -0.905512 0.000000
vn 0.992126 -0.141732 0.000000
vn 0.960630 0.267716 -0.000000
vn 0.905512 0.425197 -0.000000
vn 0.661417 0.755905 -0.000000
vn -0.220472 0.976378 -0.000000
vn -0.291339 0.960630 -0.000000
vn -0.291339 0.960630 -0.000000
vn 0.236220 0.070866 -0.968504
vn 0.858268 0.259842 -0.448819
vn 0.000000 -0.000000 -1.000000
vn 0.960630 0.291339 0.023622
vn 0.850394 0.251969 0.464567
vn 0.141732 0.047244 0.992126
vn 0.000000 0.000000 1.000000
vn 0.000000 0.000000 1.000000
vn 0.196850 -0.015748 -0.976378
vn -0.110236 0.165354 -0.984252
vn 0.370079 -0.118110 -0.921260
vn -0.393701 0.314961 -0.866142
vn -0.858268 0.511811 -0.031496
vn -0.858268 0.511811 0.031496
vn -0.858268 0.511811 -0.023622
vn -0.858268 0.519685 0.039370
vn -0.503937 0.377953 0.771653
vn -0.110236 0.165354 0.976378
vn 0.078740 0.055118 0.992126
vn 0.858268 -0.456693 0.220472
vn 0.874016 -0.480315 0.070866
vn 0.874016 -0.480315 -0.055118
vn 0.874016 -0.480315 -0.055118
vn 0.188976 -0.637795 0.748031
vn 0.188976 -0.637795 0.748031
vn 0.188976 -0.637795 0.748031
vn 0.188976 -0.637795 0.748031
vn 0.188976 -0.637795 0.748031
tan 0.036208 -0.749520 -0.648211 1.000000
tan -0.018352 -0.756959 -0.640771 1.000000
tan 0.924980 0.262942 -0.009486 1.000000
tan 0.624961 0.630851 -0.379999 1.000000
tan -0.166470 0.728811 -0.663463 1.000000
tan -0.222766 0.712567 -0.663835 1.000000
tan -0.395809 0.649079 -0.653419 1.000000
tan 0.189162 -0.721433 0.662905 1.000000
tan -0.207700 0.717031 -0.663835 1.000000
tan -0.304855 -0.745427 0.558559 1.000000
tan -0.082460 0.742141 -0.653605 1.000000
tan -0.099262 0.740653 -0.656581 1.000000
tan 0.291339 -0.960630 0.000000 1.000000
tan 0.291339 -0.960630 0.000000 1.000000
tan 0.291339 -0.960630 0.000000 1.000000
tan 0.291339 -0.960630 0.000000 1.000000
tan -0.569657 -0.653357 0.411495 1.000000
tan 0.492715 -0.584847 0.635005 1.000000
tan 0.281729 -0.686589 0.666563 1.000000
tan -0.279497 -0.745117 0.567735 1.000000
tan 0.698927 -0.445781 -0.564015 1.000000
tan -0.276273 -0.751131 -0.567735 1.000000
tan 0.572137 -0.543741 -0.614173 1.000000
tan -0.257921 -0.741831 -0.564635 1.000000
tan 0.154132 -0.722301 -0.663401 1.000000
tan 0.922314 0.261641 -0.019840 1.000000
tan 0.114948 -0.731229 -0.660673 1.000000
tan 0.064914 -0.735879 -0.651373 1.000000
tan 0.242358 -0.708351 0.667741 1.000000
tan 0.975882 0.161510 0.119102 1.000000
tan 0.116064 -0.739041 0.660673 1.000000
tan -0.896212 0.189720 -0.397607 1.000000
tan 0.000000 0.000000 0.952756 1.000000
tan 0.000000 0.000000 0.992126 1.000000
tan 0.000000 0.000000 0.909790 1.000000
tan 0.000000 0.000000 0.992126 1.000000
tan 0.000000 0.000000 0.982578 1.000000
tan 0.000000 0.000000 0.960630 1.000000
tan 0.183582 -0.955112 0.025110 1.000000
tan 0.291339 -0.960630 0.000000 1.000000
tan 0.243660 -0.900986 0.055676 1.000000
tan 0.286255 -0.953252 -0.115754 1.000000
tan 0.228098 -0.921756 -0.098022 1.000000
tan 0.164052 -0.976502 -0.023064 1.000000
tan 0.291339 -0.952756 0.000000 1.000000
tan 0.291339 -0.952756 0.000000 1.000000
tan 0.000000 0.000000 0.960630 1.000000
tan 0.000000 0.000000 0.960630 1.000000
tan 0.000000 0.000000 0.941906 1.000000
tan 0.000000 0.000000 0.993242 1.000000
tan 0.000000 0.000000 0.966954 1.000000
tan 0.000000 0.000000 0.941906 1.000000
tan 0.000000 0.000000 0.985802 1.000000
tan 0.000000 0.000000 0.978114 1.000000
tan 0.000000 0.000000 0.960630 1.000000
tan 0.000000 0.000000 0.960630 1.000000
tan 0.183582 -0.955112 -0.025110 1.000000
tan 0.243660 -0.900986 -0.055676 1.000000
tan 0.291339 -0.952756 0.000000 1.000000
tan 0.286255 -0.953252 0.115754 1.000000
tan 0.220410 -0.921756 0.096472 1.000000
tan 0.164052 -0.976502 0.023064 1.000000
tan 0.291339 -0.960630 0.000000 1.000000
tan 0.291339 -0.960630 0.000000 1.000000
tan -0.968814 -0.124558 -0.193316 1.000000
tan -0.040052 -0.985120 -0.161014 1.000000
tan 0.280117 -0.886478 0.226177 1.000000
tan -0.745242 0.449501 0.502201 1.000000
tan -0.464381 -0.800174 -0.348441 1.000000
tan -0.512059 -0.858268 -0.006758 1.000000
tan -0.511997 -0.858268 0.006758 1.000000
tan -0.522165 -0.858268 -0.054064 1.000000
tan 0.432761 -0.658441 0.605121 1.000000
tan -0.378015 -0.900366 0.109802 1.000000
tan -0.398413 -0.906194 0.081964 1.000000
tan -0.377953 -0.838366 -0.265298 1.000000
tan -0.442991 -0.844070 -0.257362 1.000000
tan -0.480749 -0.874016 -0.006882 1.000000
tan -0.480749 -0.874016 -0.006882 1.000000
tan -0.342427 0.139376 0.205344 1.000000
tan -0.043834 0.752495 0.652675 1.000000
tan -0.033790 0.755471 0.652675 1.000000
tan 0.913014 -0.156612 -0.364189 1.000000
tan -0.570897 -0.678095 -0.433939 1.000000
f 3/3/3 2/2/2 1/1/1
f 6/6/6 5/5/5 4/4/4
f 9/9/9 8/8/8 7/7/7
f 11/11/11 9/9/9 10/10/10
f 12/12/12 10/10/10 9/9/9
f 15/15/15 14/14/14 13/13/13
f 15/15/15 16/16/16 14/14/14
f 19/19/19 18/18/18 17/17/17
f 20/20/20 17/17/17 18/18/18
f 23/23/23 22/22/22 21/21/21
f 22/22/22 24/24/24 21/21/21
f 27/27/27 26/26/26 25/25/25
f 28/28/28 25/25/25 26/26/26
f 31/31/31 30/30/30 29/29/29
f 32/32/32 30/30/30 31/31/31
f 35/35/35 34/34/34 33/33/33
f 34/34/34 35/35/35 36/36/36
f 35/35/35 37/37/37 36/36/36
f 38/38/38 36/36/36 37/37/37
f 41/41/41 40/40/40 39/39/39
f 39/39/39 42/42/42 41/41/41
f 43/43/43 41/41/41 42/42/42
f 44/44/44 43/43/43 42/42/42
f 45/45/45 43/43/43 44/44/44
f 44/44/44 46/46/46 45/45/45
f 49/49/49 48/48/48 47/47/47
f 47/47/47 50/50/50 49/49/49
f 49/49/49 50/50/50 51/51/51
f 50/50/50 52/52/52 51/51/51
f 53/53/53 51/51/51 52/52/52
f 54/54/54 53/53/53 52/52/52
f 53/53/53 54/54/54 55/55/55
f 56/56/56 55/55/55 54/54/54
f 59/59/59 58/58/58 57/57/57
f 57/57/57 58/58/58 60/60/60
f 61/61/61 60/60/60 58/58/58
f 60/60/60 61/61/61 62/62/62
f 61/61/61 63/63/63 62/62/62
f 64/64/64 62/62/62 63/63/63
f 67/67/67 66/66/66 65/65/65
f 68/68/68 65/65/65 66/66/66
f 66/66/66 69/69/69 68/68/68
f 71/71/71 69/69/69 70/70/70
f 72/72/72 70/70/70 69/69/69
f 74/74/74 73/73/73 72/72/72
f 73/73/73 74/74/74 75/75/75
f 76/76/76 75/75/75 74/74/74
f 75/75/75 76/76/76 77/77/77
f 76/76/76 78/78/78 77/77/77
f 79/79/79 77/77/77 78/78/78
f 82/82/82 81/81/81 80/80/80
f 80/80/80 81/81/81 83/83/83
f 83/83/83 81/81/81 84/84/84
