mtllib SM_Frames_06_LOD1.mtl
g SM_Frames_06_LOD1
#Vertices 70
#Indices 132
#Section 0 Offset 0 NumIndices 132 MaterialIndex 0 MI_Frames
v -0.000749 0.029183 -0.096191
v -0.005744 -0.003219 -0.121385
v 0.007056 -0.002474 -0.121119
v 0.007003 0.269784 0.121027
v 0.006154 0.241335 0.096747
v -0.005746 0.270266 0.121379
v -0.005746 -0.003222 0.121382
v 0.006960 -0.001740 0.120159
v 0.005568 -0.003209 0.121453
v 0.001122 0.033669 0.096882
v 0.006960 0.268340 0.121142
v -0.005178 0.266055 0.082535
v 0.007007 0.242833 0.098867
v 0.005568 0.269972 0.122592
v -0.005069 0.000765 -0.082587
v 0.006960 -0.001573 -0.121142
v 0.005568 -0.003209 -0.122592
v 0.007077 0.023738 -0.099213
v 0.001230 0.244807 -0.098622
v 0.001230 0.023821 -0.098622
v 0.001230 0.244807 0.098725
v 0.001230 0.023821 0.098725
v 0.006960 0.268791 -0.120163
v -0.005745 0.270280 -0.121396
v -0.001054 0.235890 -0.096249
v 0.005568 0.270260 -0.121453
v -0.005744 -0.003219 -0.121385
v -0.005746 -0.003222 0.121382
v 0.005568 -0.003209 0.121453
v 0.007056 -0.002474 -0.121119
v 0.006960 -0.001740 0.120159
v 0.001122 0.033669 0.096882
v -0.000749 0.029183 -0.096191
v -0.005728 -0.003128 0.122598
v -0.005178 0.266055 0.082535
v 0.005568 0.269972 0.122592
v 0.006965 -0.002746 0.122194
v 0.006960 0.268340 0.121142
v 0.006960 0.022370 0.099924
v 0.007007 0.242833 0.098867
v 0.005568 0.024006 0.098474
v -0.005178 0.266055 0.082535
v -0.005727 0.023991 0.098477
v -0.005726 0.269895 -0.122601
v -0.005069 0.000765 -0.082587
v 0.005568 -0.003209 -0.122592
v 0.007039 0.269613 -0.121948
v 0.006960 -0.001573 -0.121142
v 0.007077 0.023738 -0.099213
v 0.006960 0.244462 -0.099924
v 0.005568 0.242830 -0.098474
v -0.005069 0.000765 -0.082587
v -0.005733 0.242846 -0.098476
v 0.006965 -0.002746 0.122194
v -0.005727 0.023991 0.098477
v -0.005728 -0.003128 0.122598
v 0.006960 0.022370 0.099924
v 0.005568 0.024006 0.098474
v -0.005733 0.242846 -0.098476
v 0.006960 0.244462 -0.099924
v 0.005568 0.242830 -0.098474
v -0.005726 0.269895 -0.122601
v 0.007039 0.269613 -0.121948
v 0.005568 0.270260 -0.121453
v -0.005746 0.270266 0.121379
v -0.005745 0.270280 -0.121396
v 0.007003 0.269784 0.121027
v 0.006960 0.268791 -0.120163
v 0.006154 0.241335 0.096747
v -0.001054 0.235890 -0.096249
vt 0.333252 0.911743
vt 0.323730 0.820557
vt 0.349365 0.822144
vt 0.349121 0.821655
vt 0.347168 0.905334
vt 0.323486 0.820801
vt 0.323486 0.902039
vt 0.348877 0.898315
vt 0.348877 0.898315
vt 0.337158 0.804443
vt 0.348877 0.898315
vt 0.323242 0.836792
vt 0.349121 0.820312
vt 0.348877 0.898315
vt 0.346436 0.885742
vt 0.321533 0.824463
vt 0.321533 0.824463
vt 0.321045 0.901306
vt 0.212280 0.820557
vt 0.212280 0.665039
vt 0.351074 0.820557
vt 0.351074 0.665039
vt 0.348877 0.898315
vt 0.323730 0.902283
vt 0.333008 0.807495
vt 0.348877 0.898315
vt 0.242920 0.996466
vt 0.242920 0.823853
vt 0.250977 0.823730
vt 0.251465 0.996275
vt 0.251953 0.824707
vt 0.276367 0.841309
vt 0.274414 0.978546
vt 0.659668 0.682861
vt 0.659180 0.874390
vt 0.651855 0.877136
vt 0.651367 0.683105
vt 0.650879 0.875977
vt 0.635742 0.700928
vt 0.635254 0.857910
vt 0.634766 0.702148
vt 0.626465 0.874390
vt 0.626465 0.702148
vt 0.872070 0.958832
vt 0.872559 0.767212
vt 0.880371 0.764404
vt 0.880859 0.958649
vt 0.881348 0.765625
vt 0.896484 0.783569
vt 0.896484 0.940735
vt 0.897461 0.939575
vt 0.905273 0.767212
vt 0.905273 0.939575
vt 0.349121 0.821045
vt 0.323730 0.902893
vt 0.323486 0.820312
vt 0.348877 0.898315
vt 0.348877 0.898315
vt 0.346924 0.820312
vt 0.321533 0.824463
vt 0.321533 0.824463
vt 0.346680 0.902710
vt 0.321289 0.901306
vt 0.308838 0.996515
vt 0.316895 0.823853
vt 0.316895 0.996473
vt 0.308350 0.824097
vt 0.307861 0.995598
vt 0.288574 0.841309
vt 0.284424 0.978561
vt1 0.183105 0.357910
vt1 0.307861 0.344727
vt1 0.305664 0.379883
vt1 0.177368 0.379395
vt1 0.062988 0.376953
vt1 0.178589 0.344727
vt1 0.010826 0.384277
vt1 0.045471 0.379395
vt1 0.045471 0.379395
vt1 0.029526 0.250977
vt1 0.787109 0.233887
vt1 0.751953 0.150879
vt1 0.787598 0.128906
vt1 0.787109 0.233887
vt1 0.831055 0.311523
vt1 0.914062 0.277344
vt1 0.914062 0.277344
vt1 0.810059 0.276855
vt1 0.008064 0.991936
vt1 0.008064 0.398438
vt1 0.538086 0.991936
vt1 0.538086 0.398438
vt1 0.330566 0.379395
vt1 0.325195 0.344727
vt1 0.454834 0.357422
vt1 0.330566 0.379395
vt1 0.008247 0.128906
vt1 0.660645 0.128906
vt1 0.660645 0.160156
vt1 0.008957 0.162598
vt1 0.657227 0.164062
vt1 0.594238 0.258789
vt1 0.075928 0.250977
vt1 0.684570 0.258301
vt1 0.682617 0.981415
vt1 0.653320 0.991936
vt1 0.651367 0.259277
vt1 0.649414 0.987556
vt1 0.590820 0.326660
vt1 0.588867 0.919006
vt1 0.586914 0.331055
vt1 0.556641 0.981384
vt1 0.555664 0.331055
vt1 0.701172 0.991730
vt1 0.702637 0.268555
vt1 0.731934 0.257812
vt1 0.734375 0.990974
vt1 0.735840 0.262207
vt1 0.795898 0.330566
vt1 0.794434 0.923401
vt1 0.798340 0.919006
vt1 0.829102 0.268555
vt1 0.829590 0.919067
vt1 0.722656 0.129395
vt1 0.687988 0.240234
vt1 0.687988 0.128418
vt1 0.722656 0.233887
vt1 0.722656 0.233887
vt1 0.849121 0.145020
vt1 0.814453 0.150391
vt1 0.814453 0.150391
vt1 0.848633 0.256348
vt1 0.813965 0.254395
vt1 0.952637 0.991936
vt1 0.983887 0.339355
vt1 0.983887 0.991783
vt1 0.950684 0.340332
vt1 0.948730 0.988472
vt1 0.875000 0.405762
vt1 0.858887 0.924072
vn 0.000000 0.661417 -0.748031
vn 0.000000 0.661417 -0.748031
vn 0.000000 0.661417 -0.748031
vn 0.000000 -0.661417 0.748031
vn 0.000000 -0.661417 0.748031
vn 0.000000 -0.661417 0.748031
vn 0.000000 0.661417 0.748031
vn 0.000000 0.661417 0.748031
vn 0.000000 0.661417 0.748031
vn 0.000000 0.661417 0.748031
vn 0.000000 0.661417 -0.748031
vn 0.000000 0.661417 -0.748031
vn 0.000000 0.661417 -0.748031
vn 0.000000 0.661417 -0.748031
vn 0.000000 -0.661417 0.748031
vn 0.000000 -0.661417 0.748031
vn 0.000000 -0.661417 0.748031
vn 0.000000 -0.661417 0.748031
vn 1.000000 0.000000 0.000000
vn 1.000000 0.000000 0.000000
vn 1.000000 0.000000 0.000000
vn 1.000000 0.000000 0.000000
vn 0.000000 -0.661417 -0.748031
vn 0.000000 -0.661417 -0.748031
vn 0.000000 -0.661417 -0.748031
vn 0.000000 -0.661417 -0.748031
vn 0.000000 -1.000000 0.000000
vn 0.000000 -1.000000 0.000000
vn 0.078740 -1.000000 0.000000
vn 0.929134 -0.362205 0.000000
vn 0.992126 -0.133858 0.000000
vn 0.811024 0.582677 -0.000000
vn 0.480315 0.881890 -0.000000
vn 0.000000 0.000000 1.000000
vn 0.000000 0.000000 1.000000
vn 0.070866 0.000000 1.000000
vn 0.811024 0.000000 0.582677
vn 0.984252 0.000000 0.181102
vn 1.000000 -0.000000 -0.023622
vn 0.889764 -0.000000 -0.448819
vn 0.157480 -0.000000 -0.984252
vn 0.039370 -0.000000 -1.000000
vn 0.000000 -0.000000 -1.000000
vn 0.000000 -0.000000 -1.000000
vn 0.000000 -0.000000 -1.000000
vn 0.070866 -0.000000 -1.000000
vn 0.897638 -0.000000 -0.433071
vn 0.984252 -0.000000 -0.181102
vn 0.968504 0.000000 0.244094
vn 1.000000 0.000000 0.023622
vn 0.157480 0.000000 0.984252
vn 0.031496 0.000000 1.000000
vn 0.000000 0.000000 1.000000
vn 0.000000 -0.661417 -0.748031
vn 0.000000 -0.661417 -0.748031
vn 0.000000 -0.661417 -0.748031
vn 0.000000 -0.661417 -0.748031
vn 0.000000 -0.661417 -0.748031
vn 0.000000 0.661417 0.748031
vn 0.000000 0.661417 0.748031
vn 0.000000 0.661417 0.748031
vn 0.000000 0.661417 0.748031
vn 0.000000 0.661417 0.748031
vn 0.078740 1.000000 -0.000000
vn 0.000000 1.000000 -0.000000
vn 0.000000 1.000000 -0.000000
vn 0.858268 0.511811 -0.000000
vn 0.992126 0.133858 -0.000000
vn 0.968504 -0.251968 0.000000
vn 0.661417 -0.748031 0.000000
tan -0.039866 -0.748031 -0.661417 1.000000
tan -0.101928 -0.742141 -0.656209 1.000000
tan 0.842830 -0.371071 -0.328105 1.000000
tan 0.748031 0.017670 0.015624 1.000000
tan 0.481121 0.636121 0.562465 1.000000
tan 0.086304 0.742141 0.656209 1.000000
tan -0.243040 0.724471 -0.640585 1.000000
tan 0.634199 0.577221 -0.510385 1.000000
tan 0.000000 -0.748031 0.661417 1.000000
tan 0.284271 0.712691 -0.630169 1.000000
tan 0.717775 -0.518321 -0.458305 1.000000
tan 0.169632 -0.736251 -0.651001 1.000000
tan 0.673197 -0.023560 -0.020832 1.000000
tan -0.734764 0.506541 0.447889 1.000000
tan -0.165354 -0.736251 -0.651001 1.000000
tan 0.201810 -0.730361 -0.645793 1.000000
tan 0.000000 -0.748031 -0.661417 1.000000
tan 0.180978 -0.736251 -0.651001 1.000000
tan 0.000000 -1.000000 0.000000 1.000000
tan 0.000000 -1.000000 0.000000 1.000000
tan 0.000000 -1.000000 0.000000 1.000000
tan 0.000000 -1.000000 0.000000 1.000000
tan 0.819704 -0.424081 0.374977 1.000000
tan 0.050964 -0.748031 0.661417 1.000000
tan -0.067270 -0.748031 0.661417 1.000000
tan -0.746544 0.488871 -0.432265 1.000000
tan 0.000000 0.000000 1.000000 1.000000
tan 0.000000 0.000000 1.000000 1.000000
tan 0.000000 0.000000 1.000000 1.000000
tan 0.000000 0.000000 0.943394 1.000000
tan 0.000000 0.000000 0.992126 1.000000
tan 0.000000 0.000000 0.911154 1.000000
tan 0.000000 0.000000 0.970736 1.000000
tan 0.000000 -1.000000 0.000000 1.000000
tan 0.000000 -1.000000 0.000000 1.000000
tan 0.000000 -1.000000 0.000000 1.000000
tan 0.000000 -0.939674 0.000000 1.000000
tan 0.000000 -0.985678 0.000000 1.000000
tan 0.000000 -1.000000 0.000000 1.000000
tan 0.000000 -0.942836 0.000000 1.000000
tan 0.000000 -0.985492 0.000000 1.000000
tan 0.000000 -1.000000 0.000000 1.000000
tan 0.000000 -1.000000 0.000000 1.000000
tan 0.000000 -1.000000 0.000000 1.000000
tan 0.000000 -1.000000 0.000000 1.000000
tan 0.000000 -1.000000 0.000000 1.000000
tan 0.000000 -0.928328 0.000000 1.000000
tan 0.000000 -0.985678 0.000000 1.000000
tan 0.000000 -0.972348 0.000000 1.000000
tan 0.000000 -1.000000 0.000000 1.000000
tan 0.000000 -0.985492 0.000000 1.000000
tan 0.000000 -1.000000 0.000000 1.000000
tan 0.000000 -1.000000 0.000000 1.000000
tan 0.753240 -0.017670 0.015624 1.000000
tan 0.050964 -0.748031 0.661417 1.000000
tan 0.086304 -0.742141 0.656209 1.000000
tan 0.712567 -0.524211 0.463513 1.000000
tan -0.729555 0.506541 -0.447889 1.000000
tan -0.378263 -0.689131 0.609337 1.000000
tan 0.201810 -0.730361 0.645793 1.000000
tan 0.000000 -0.748031 0.661417 1.000000
tan -0.361275 -0.695021 0.614545 1.000000
tan 0.175088 -0.736251 0.651001 1.000000
tan 0.000000 0.000000 1.000000 1.000000
tan 0.000000 0.000000 1.000000 1.000000
tan 0.000000 0.000000 1.000000 1.000000
tan 0.000000 0.000000 0.929382 1.000000
tan 0.000000 0.000000 0.992126 1.000000
tan 0.000000 0.000000 0.972472 1.000000
tan 0.000000 0.000000 0.979540 1.000000
f 3/3/3 2/2/2 1/1/1
f 6/6/6 5/5/5 4/4/4
f 9/9/9 8/8/8 7/7/7
f 10/10/10 7/7/7 8/8/8
f 13/13/13 12/12/12 11/11/11
f 14/14/14 11/11/11 12/12/12
f 17/17/17 16/16/16 15/15/15
f 18/18/18 15/15/15 16/16/16
f 21/21/21 20/20/20 19/19/19
f 21/21/21 22/22/22 20/20/20
f 25/25/25 24/24/24 23/23/23
f 26/26/26 23/23/23 24/24/24
f 29/29/29 28/28/28 27/27/27
f 27/27/27 30/30/30 29/29/29
f 29/29/29 30/30/30 31/31/31
f 32/32/32 31/31/31 30/30/30
f 33/33/33 32/32/32 30/30/30
f 36/36/36 35/35/35 34/34/34
f 34/34/34 37/37/37 36/36/36
f 38/38/38 36/36/36 37/37/37
f 37/37/37 39/39/39 38/38/38
f 40/40/40 38/38/38 39/39/39
f 39/39/39 41/41/41 40/40/40
f 42/42/42 40/40/40 41/41/41
f 41/41/41 43/43/43 42/42/42
f 46/46/46 45/45/45 44/44/44
f 44/44/44 47/47/47 46/46/46
f 46/46/46 47/47/47 48/48/48
f 49/49/49 48/48/48 47/47/47
f 50/50/50 49/49/49 47/47/47
f 51/51/51 49/49/49 50/50/50
f 52/52/52 49/49/49 51/51/51
f 51/51/51 53/53/53 52/52/52
f 56/56/56 55/55/55 54/54/54
f 54/54/54 55/55/55 57/57/57
f 58/58/58 57/57/57 55/55/55
f 61/61/61 60/60/60 59/59/59
f 62/62/62 59/59/59 60/60/60
f 63/63/63 62/62/62 60/60/60
f 66/66/66 65/65/65 64/64/64
f 67/67/67 64/64/64 65/65/65
f 68/68/68 64/64/64 67/67/67
f 67/67/67 69/69/69 68/68/68
f 70/70/70 68/68/68 69/69/69
