mtllib SM_FoodPot_13_LOD2.mtl
g SM_FoodPot_13_LOD2
#Vertices 136
#Indices 390
#Section 0 Offset 0 NumIndices 264 MaterialIndex 0 MI_FoodPot
#Section 1 Offset 264 NumIndices 126 MaterialIndex 1 MI_FoodPot_Jelly
v 0.040034 0.020435 -0.015048
v 0.040034 0.139834 -0.015048
v 0.033459 0.020435 -0.026708
v 0.030612 0.139852 -0.030437
v 0.017399 0.020463 -0.039822
v 0.011433 0.139834 -0.041334
v -0.001864 0.020435 -0.042869
v -0.001864 0.139834 -0.042869
v 0.035417 0.177077 -0.020459
v 0.040104 0.177464 -0.002083
v 0.037343 0.176803 0.017167
v 0.021861 0.176992 -0.033878
v 0.004722 0.176929 -0.040656
v -0.013494 0.176895 -0.038178
v -0.030528 0.176897 -0.027347
v -0.038904 0.176888 -0.010733
v -0.040131 0.176864 0.007853
v -0.032133 0.176948 0.024428
v -0.017557 0.177048 0.036894
v 0.000886 0.177246 0.040308
v 0.020331 0.177711 0.035308
v 0.045326 0.178164 -0.008228
v 0.040104 0.177464 -0.002083
v 0.035417 0.177077 -0.020459
v 0.037343 0.176803 0.017167
v 0.034327 0.177481 -0.030245
v 0.042777 0.177519 0.017447
v 0.021861 0.176992 -0.033878
v 0.028809 0.177491 0.035393
v 0.004722 0.176929 -0.040656
v 0.020331 0.177711 0.035308
v 0.017214 0.177926 -0.042718
v 0.008078 0.177950 0.045400
v -0.008896 0.178521 -0.044944
v 0.000886 0.177246 0.040308
v -0.013494 0.176895 -0.038178
v -0.017237 0.178232 0.042498
v -0.030528 0.176897 -0.027347
v -0.017557 0.177048 0.036894
v -0.029078 0.177345 -0.035078
v -0.035169 0.177411 0.028978
v -0.042808 0.177214 -0.017692
v -0.032133 0.176948 0.024428
v -0.038904 0.176888 -0.010733
v -0.045031 0.178279 0.009496
v -0.040131 0.176864 0.007853
v 0.041539 0.169203 0.019625
v 0.045314 0.169293 -0.001910
v 0.040514 0.169293 0.003342
v 0.039920 0.169486 -0.022377
v 0.033325 0.169293 0.022130
v 0.035257 0.169293 -0.019880
v 0.023731 0.169495 0.039307
v 0.018109 0.169293 -0.036395
v 0.012751 0.169332 0.039258
v 0.025089 0.169293 -0.037782
v 0.001911 0.169293 0.045315
v 0.005170 0.169557 -0.045462
v -0.016840 0.169293 0.036807
v -0.001686 0.169293 -0.039967
v -0.019667 0.169144 0.041535
v -0.021016 0.169566 -0.040712
v -0.038705 0.169354 0.015058
v -0.019883 0.169293 -0.035254
v -0.040230 0.169575 0.022434
v -0.037782 0.169293 -0.025088
v -0.045567 0.169404 -0.005011
v -0.037172 0.169306 -0.017004
v 0.034327 0.177481 -0.030245
v 0.039920 0.169486 -0.022377
v 0.045326 0.178164 -0.008228
v 0.025089 0.169293 -0.037782
v 0.045314 0.169293 -0.001910
v 0.017214 0.177926 -0.042718
v 0.042777 0.177519 0.017447
v 0.005170 0.169557 -0.045462
v 0.041539 0.169203 0.019625
v -0.008896 0.178521 -0.044944
v 0.028809 0.177491 0.035393
v -0.021016 0.169566 -0.040712
v 0.023731 0.169495 0.039307
v -0.029078 0.177345 -0.035078
v 0.008078 0.177950 0.045400
v -0.037782 0.169293 -0.025088
v 0.001911 0.169293 0.045315
v -0.042808 0.177214 -0.017692
v -0.017237 0.178232 0.042498
v -0.045567 0.169404 -0.005011
v -0.019667 0.169144 0.041535
v -0.045031 0.178279 0.009496
v -0.035169 0.177411 0.028978
v -0.040230 0.169575 0.022434
v 0.001742 -0.000000 0.042620
v 0.001742 0.175274 0.042620
v 0.019870 -0.000027 0.038412
v 0.023280 0.175279 0.036429
v 0.035579 -0.000000 0.023541
v 0.039678 0.175278 0.016909
v 0.042700 0.000024 0.005036
v 0.042772 0.175261 -0.006395
v 0.040034 0.020435 -0.015048
v 0.037933 0.000005 -0.021293
v 0.040034 0.139834 -0.015048
v 0.033459 0.020435 -0.026708
v 0.030612 0.139852 -0.030437
v 0.018650 -0.000014 -0.039145
v 0.020924 0.175241 -0.039544
v 0.017399 0.020463 -0.039822
v 0.011433 0.139834 -0.041334
v -0.009187 0.000014 -0.042537
v -0.001864 0.139834 -0.042869
v -0.001864 0.020435 -0.042869
v -0.012503 0.175264 -0.041202
v -0.026645 -0.000000 -0.033646
v -0.033167 0.175280 -0.028326
v -0.039337 0.000031 -0.017772
v -0.043169 0.175278 -0.003855
v -0.042518 -0.000016 0.008745
v -0.037568 0.175278 0.022088
v -0.029031 0.000037 0.031713
v -0.016939 0.175279 0.039716
v -0.011555 -0.000000 0.041085
v 0.001742 -0.000000 0.042620
v 0.001742 0.175274 0.042620
v 0.035579 -0.000000 0.023541
v 0.042700 0.000024 0.005036
v 0.037933 0.000005 -0.021293
v 0.019870 -0.000027 0.038412
v 0.001742 -0.000000 0.042620
v -0.011555 -0.000000 0.041085
v -0.029031 0.000037 0.031713
v -0.042518 -0.000016 0.008745
v -0.039337 0.000031 -0.017772
v -0.026645 -0.000000 -0.033646
v -0.009187 0.000014 -0.042537
v 0.018650 -0.000014 -0.039145
vt 0.980957 0.237793
vt 0.980957 0.378906
vt 0.965332 0.237793
vt 0.959473 0.378906
vt 0.940918 0.237793
vt 0.933594 0.378906
vt 0.917969 0.237793
vt 0.917480 0.378906
vt 0.836914 0.552979
vt 0.856934 0.561523
vt 0.872559 0.577393
vt 0.815430 0.556152
vt 0.797363 0.566895
vt 0.787109 0.585205
vt 0.785156 0.608154
vt 0.794434 0.627197
vt 0.810059 0.641357
vt 0.831055 0.645508
vt 0.852539 0.640869
vt 0.868164 0.626709
vt 0.876953 0.605469
vt 0.855469 0.551514
vt 0.857910 0.560547
vt 0.837402 0.552002
vt 0.873535 0.576904
vt 0.827148 0.546143
vt 0.877441 0.572266
vt 0.814941 0.554932
vt 0.884277 0.597900
vt 0.796387 0.565918
vt 0.878418 0.605713
vt 0.803711 0.552979
vt 0.878906 0.624268
vt 0.782715 0.575684
vt 0.869141 0.627441
vt 0.786133 0.584717
vt 0.858398 0.645752
vt 0.783691 0.608398
vt 0.853027 0.642090
vt 0.777832 0.601562
vt 0.833008 0.652832
vt 0.784180 0.626465
vt 0.831055 0.646729
vt 0.793457 0.627930
vt 0.807617 0.647949
vt 0.809570 0.642334
vt 0.886719 0.570312
vt 0.867188 0.547852
vt 0.877930 0.547363
vt 0.840332 0.535156
vt 0.895996 0.577148
vt 0.841309 0.531006
vt 0.895508 0.606445
vt 0.800293 0.536377
vt 0.896484 0.623535
vt 0.810547 0.540039
vt 0.882324 0.635498
vt 0.786133 0.555420
vt 0.863770 0.660889
vt 0.774902 0.559814
vt 0.860840 0.656250
vt 0.767578 0.588379
vt 0.811523 0.668701
vt 0.762207 0.590576
vt 0.822266 0.662842
vt 0.771484 0.619873
vt 0.787598 0.645752
vt 0.769531 0.631348
vt 0.827637 0.546143
vt 0.839355 0.536865
vt 0.855469 0.551758
vt 0.810547 0.540039
vt 0.867188 0.547852
vt 0.803711 0.552979
vt 0.877930 0.571777
vt 0.785156 0.556152
vt 0.887695 0.570557
vt 0.783203 0.575684
vt 0.884277 0.597900
vt 0.769043 0.588867
vt 0.894043 0.605957
vt 0.777344 0.601318
vt 0.878906 0.624268
vt 0.771484 0.619873
vt 0.882324 0.635498
vt 0.783691 0.626709
vt 0.858398 0.645752
vt 0.787598 0.645508
vt 0.859863 0.656250
vt 0.808105 0.647705
vt 0.833008 0.653076
vt 0.822266 0.662109
vt 0.543945 0.693115
vt 0.541016 0.471680
vt 0.567383 0.692871
vt 0.569336 0.471191
vt 0.594727 0.692383
vt 0.601562 0.470703
vt 0.619629 0.691895
vt 0.630859 0.470703
vt 0.645020 0.665771
vt 0.653809 0.691650
vt 0.643066 0.514893
vt 0.662109 0.665527
vt 0.665527 0.514648
vt 0.686523 0.691162
vt 0.681152 0.469727
vt 0.687988 0.665283
vt 0.693848 0.514160
vt 0.722168 0.690674
vt 0.710449 0.514160
vt 0.712891 0.665039
vt 0.723633 0.469238
vt 0.747070 0.690186
vt 0.754395 0.468750
vt 0.772461 0.689941
vt 0.787598 0.468262
vt 0.806641 0.689453
vt 0.821289 0.467773
vt 0.840332 0.688965
vt 0.855469 0.467285
vt 0.865234 0.688721
vt 0.882324 0.688477
vt 0.878906 0.467285
vt 0.952637 0.450684
vt 0.976074 0.459961
vt 0.996582 0.486816
vt 0.925781 0.452637
vt 0.906250 0.465820
vt 0.895996 0.479492
vt 0.890137 0.503906
vt 0.899902 0.535889
vt 0.927246 0.555664
vt 0.952637 0.557373
vt 0.976074 0.548828
vt 0.996582 0.520020
vt1 0.875000 0.009766
vt1 0.874512 0.395508
vt1 0.831543 0.009277
vt1 0.815918 0.395508
vt1 0.764648 0.009766
vt1 0.744629 0.395020
vt1 0.701660 0.009277
vt1 0.701172 0.395020
vt1 0.214111 0.078613
vt1 0.268799 0.102051
vt1 0.311768 0.145996
vt1 0.154663 0.086914
vt1 0.105103 0.116699
vt1 0.076416 0.166992
vt1 0.070923 0.229980
vt1 0.096375 0.282715
vt1 0.140381 0.321289
vt1 0.197021 0.333008
vt1 0.255859 0.320312
vt1 0.299561 0.280762
vt1 0.323975 0.222656
vt1 0.265137 0.074219
vt1 0.270752 0.099121
vt1 0.214478 0.075195
vt1 0.314941 0.144043
vt1 0.187378 0.059570
vt1 0.325684 0.131348
vt1 0.153442 0.083496
vt1 0.344238 0.201660
vt1 0.102661 0.114258
vt1 0.327881 0.223145
vt1 0.122009 0.078613
vt1 0.329346 0.274414
vt1 0.064941 0.140625
vt1 0.302490 0.282715
vt1 0.073364 0.166016
vt1 0.272461 0.333496
vt1 0.067444 0.230469
vt1 0.257568 0.323730
vt1 0.051178 0.211914
vt1 0.202759 0.352539
vt1 0.069031 0.280762
vt1 0.197144 0.336426
vt1 0.093506 0.284668
vt1 0.133545 0.339844
vt1 0.138916 0.324219
vt1 0.350098 0.125977
vt1 0.296631 0.064453
vt1 0.326660 0.063477
vt1 0.223022 0.029297
vt1 0.376709 0.144531
vt1 0.225708 0.018066
vt1 0.374756 0.225098
vt1 0.113098 0.033203
vt1 0.377441 0.272461
vt1 0.141113 0.042480
vt1 0.339111 0.305176
vt1 0.074036 0.085449
vt1 0.287354 0.375000
vt1 0.042450 0.097168
vt1 0.279053 0.362305
vt1 0.022690 0.175781
vt1 0.143799 0.396484
vt1 0.007534 0.182129
vt1 0.172974 0.380371
vt1 0.033936 0.262207
vt1 0.078064 0.333008
vt1 0.028610 0.293457
vt1 0.187500 0.059570
vt1 0.220947 0.034180
vt1 0.264893 0.075195
vt1 0.141113 0.042480
vt1 0.296631 0.064453
vt1 0.121765 0.078125
vt1 0.326660 0.130371
vt1 0.071533 0.086914
vt1 0.353760 0.126953
vt1 0.066101 0.141113
vt1 0.344482 0.202148
vt1 0.026337 0.176758
vt1 0.370605 0.224121
vt1 0.050018 0.211426
vt1 0.329102 0.274414
vt1 0.033936 0.262207
vt1 0.339111 0.305176
vt1 0.067749 0.281250
vt1 0.271973 0.333008
vt1 0.078125 0.333008
vt1 0.276855 0.362793
vt1 0.133789 0.338379
vt1 0.202515 0.353516
vt1 0.173340 0.378906
vt1 0.015854 0.991936
vt1 0.008064 0.425781
vt1 0.075867 0.991188
vt1 0.080444 0.424805
vt1 0.145508 0.990150
vt1 0.162720 0.423828
vt1 0.209717 0.989204
vt1 0.238525 0.422852
vt1 0.274414 0.922363
vt1 0.296143 0.988052
vt1 0.269043 0.536621
vt1 0.317627 0.921753
vt1 0.327393 0.535645
vt1 0.380859 0.986961
vt1 0.366943 0.420898
vt1 0.384277 0.920898
vt1 0.398682 0.534912
vt1 0.471436 0.985626
vt1 0.441895 0.534180
vt1 0.447266 0.919983
vt1 0.475098 0.419434
vt1 0.534668 0.984802
vt1 0.553711 0.418457
vt1 0.600586 0.983810
vt1 0.638672 0.416992
vt1 0.687012 0.982788
vt1 0.724121 0.416016
vt1 0.772949 0.981415
vt1 0.812012 0.414551
vt1 0.837402 0.980637
vt1 0.880859 0.980042
vt1 0.873047 0.414062
vt1 0.569336 0.122070
vt1 0.628906 0.145996
vt1 0.681152 0.214844
vt1 0.499512 0.126953
vt1 0.449951 0.161133
vt1 0.424561 0.196289
vt1 0.408691 0.258301
vt1 0.433838 0.340332
vt1 0.503906 0.391113
vt1 0.569336 0.395508
vt1 0.628418 0.373535
vt1 0.681152 0.299805
vn 0.874016 -0.000000 -0.488189
vn 0.874016 -0.000000 -0.488189
vn 0.787402 -0.000000 -0.622047
vn 0.716535 -0.000000 -0.700787
vn 0.393701 -0.000000 -0.921260
vn 0.267717 -0.000000 -0.960630
vn 0.118110 -0.000000 -0.992126
vn 0.118110 -0.000000 -0.992126
vn 0.000000 1.000000 -0.000000
vn 0.000000 1.000000 -0.000000
vn 0.000000 1.000000 -0.000000
vn 0.000000 1.000000 -0.000000
vn 0.000000 1.000000 -0.000000
vn 0.000000 1.000000 -0.000000
vn 0.000000 1.000000 -0.000000
vn 0.000000 1.000000 -0.000000
vn 0.000000 1.000000 -0.000000
vn 0.000000 1.000000 -0.000000
vn 0.000000 1.000000 -0.000000
vn 0.000000 1.000000 -0.000000
vn 0.000000 1.000000 -0.000000
vn 0.125984 0.992126 -0.023622
vn -0.118110 0.992126 0.007874
vn -0.102362 0.992126 0.047244
vn -0.086614 0.992126 -0.039370
vn 0.070866 0.992126 -0.062992
vn 0.133858 0.992126 0.062992
vn -0.062992 0.992126 0.094488
vn 0.078740 0.992126 0.102362
vn -0.015748 0.992126 0.102362
vn -0.055118 0.992126 -0.102362
vn 0.047244 0.992126 -0.125984
vn 0.023622 0.992126 0.149606
vn -0.023622 0.992126 -0.125984
vn 0.000000 0.992126 -0.110236
vn 0.031496 0.992126 0.094488
vn -0.031496 0.992126 0.110236
vn 0.070866 0.992126 0.070866
vn 0.047244 0.992126 -0.086614
vn -0.094488 0.992126 -0.110236
vn -0.110236 0.992126 0.094488
vn -0.141732 0.992126 -0.055118
vn 0.086614 0.992126 -0.062992
vn 0.102362 0.992126 0.023622
vn -0.118110 0.992126 0.031496
vn 0.125984 0.992126 -0.031496
vn 0.000000 -1.000000 0.000000
vn 0.000000 -1.000000 0.000000
vn 0.000000 -1.000000 0.000000
vn 0.000000 -1.000000 0.000000
vn 0.000000 -1.000000 0.000000
vn 0.000000 -1.000000 0.000000
vn 0.000000 -1.000000 0.000000
vn 0.000000 -1.000000 0.000000
vn 0.000000 -1.000000 0.000000
vn 0.000000 -1.000000 0.000000
vn 0.000000 -1.000000 0.000000
vn 0.000000 -1.000000 0.000000
vn 0.000000 -1.000000 0.000000
vn 0.000000 -1.000000 0.000000
vn 0.000000 -1.000000 0.000000
vn 0.000000 -1.000000 0.000000
vn 0.000000 -1.000000 0.000000
vn 0.000000 -1.000000 0.000000
vn 0.000000 -1.000000 0.000000
vn 0.000000 -1.000000 0.000000
vn 0.000000 -1.000000 0.000000
vn 0.000000 -1.000000 0.000000
vn 0.748031 0.070866 -0.653543
vn 0.874016 -0.000000 -0.488189
vn 0.984252 0.078740 -0.181102
vn 0.551181 -0.000000 -0.834646
vn 1.000000 -0.000000 -0.039370
vn 0.370079 0.062992 -0.929134
vn 0.921260 0.055118 0.377953
vn 0.110236 -0.000000 -0.992126
vn 0.905512 0.000000 0.425197
vn -0.196850 0.062992 -0.976378
vn 0.629921 0.062992 0.771653
vn -0.456693 -0.000000 -0.889764
vn 0.519685 0.000000 0.858268
vn -0.637795 0.055118 -0.771653
vn 0.181102 0.070866 0.984252
vn -0.834646 -0.000000 -0.551181
vn 0.039370 0.000000 1.000000
vn -0.921260 0.062992 -0.377953
vn -0.377953 0.070866 0.921260
vn -0.992126 -0.000000 -0.110236
vn -0.425197 0.000000 0.905512
vn -0.976378 0.070866 0.204724
vn -0.771654 0.047244 0.637795
vn -0.874016 0.000000 0.488189
vn 0.039370 0.000000 1.000000
vn 0.039370 0.000000 1.000000
vn 0.456693 0.000000 0.889764
vn 0.535433 0.000000 0.842520
vn 0.834646 0.000000 0.551181
vn 0.921260 0.000000 0.393701
vn 0.992126 0.000000 0.102362
vn 0.992126 -0.000000 -0.125984
vn 0.968504 -0.000000 -0.236220
vn 0.881890 -0.000000 -0.480315
vn 0.968504 -0.000000 -0.251968
vn 0.787402 -0.000000 -0.622047
vn 0.708661 -0.000000 -0.708661
vn 0.433071 -0.000000 -0.897638
vn 0.480315 -0.000000 -0.874016
vn 0.409449 -0.000000 -0.913386
vn 0.267717 -0.000000 -0.960630
vn -0.236220 -0.000000 -0.968504
vn -0.141732 -0.000000 -0.992126
vn -0.157480 -0.000000 -0.984252
vn -0.291339 -0.000000 -0.960630
vn -0.622047 -0.000000 -0.787401
vn -0.763780 -0.000000 -0.645669
vn -0.913386 -0.000000 -0.409449
vn -1.000000 -0.000000 -0.086614
vn -0.976378 0.000000 0.204724
vn -0.858268 0.000000 0.511811
vn -0.669291 0.000000 0.740157
vn -0.393701 0.000000 0.921260
vn -0.267717 0.000000 0.960630
vn 0.039370 0.000000 1.000000
vn 0.039370 0.000000 1.000000
vn 0.000000 -1.000000 0.000000
vn 0.000000 -1.000000 0.000000
vn 0.000000 -1.000000 0.000000
vn 0.000000 -1.000000 0.000000
vn 0.000000 -1.000000 0.000000
vn 0.000000 -1.000000 0.000000
vn 0.000000 -1.000000 0.000000
vn 0.000000 -1.000000 0.000000
vn 0.000000 -1.000000 0.000000
vn 0.000000 -1.000000 0.000000
vn 0.000000 -1.000000 0.000000
vn 0.000000 -1.000000 0.000000
tan 0.000000 -0.944820 0.000000 1.000000
tan 0.000000 -0.944820 0.000000 1.000000
tan 0.000000 -0.985988 0.000000 1.000000
tan -0.005518 -0.999380 -0.005642 1.000000
tan 0.000000 -0.924360 0.000000 1.000000
tan 0.000000 -0.966954 0.000000 1.000000
tan 0.000000 -0.992126 0.000000 1.000000
tan 0.000000 -0.992126 0.000000 1.000000
tan 0.795276 -0.000000 -0.606299 1.000000
tan 0.795276 -0.000000 -0.606299 1.000000
tan 0.795276 -0.000000 -0.606299 1.000000
tan 0.795276 -0.000000 -0.606299 1.000000
tan 0.795276 -0.000000 -0.606299 1.000000
tan 0.795276 -0.000000 -0.606299 1.000000
tan 0.795276 -0.000000 -0.606299 1.000000
tan 0.795276 -0.000000 -0.606299 1.000000
tan 0.795276 -0.000000 -0.606299 1.000000
tan 0.795276 -0.000000 -0.606299 1.000000
tan 0.795276 -0.000000 -0.606299 1.000000
tan 0.795276 -0.000000 -0.606299 1.000000
tan 0.795276 -0.000000 -0.606299 1.000000
tan 0.804638 -0.115940 -0.578089 1.000000
tan 0.804638 0.100440 -0.585901 1.000000
tan 0.796826 0.110112 -0.585901 1.000000
tan 0.796826 0.046004 -0.593713 1.000000
tan 0.789014 -0.094550 -0.601525 1.000000
tan 0.804638 -0.071362 -0.585901 1.000000
tan 0.781202 0.107632 -0.609337 1.000000
tan 0.781202 0.000868 -0.609337 1.000000
tan 0.773390 0.076756 -0.624961 1.000000
tan 0.781202 -0.020274 -0.617149 1.000000
tan 0.781202 -0.115568 -0.617149 1.000000
tan 0.765577 0.077190 -0.632773 1.000000
tan 0.765577 -0.061132 -0.624961 1.000000
tan 0.773390 -0.069440 -0.624961 1.000000
tan 0.781202 0.033976 -0.617149 1.000000
tan 0.773390 0.093124 -0.617149 1.000000
tan 0.789014 -0.013392 -0.601525 1.000000
tan 0.781202 -0.091078 -0.617149 1.000000
tan 0.781202 0.006696 -0.609337 1.000000
tan 0.789014 0.144956 -0.601525 1.000000
tan 0.804638 0.082832 -0.578089 1.000000
tan 0.796826 -0.107260 -0.593713 1.000000
tan 0.796826 -0.068262 -0.585901 1.000000
tan 0.804638 0.114390 -0.585901 1.000000
tan 0.812450 -0.121272 -0.570277 1.000000
tan 0.283465 -0.000000 -0.960630 1.000000
tan -0.653543 -0.000000 -0.755905 1.000000
tan -0.661417 -0.000000 -0.748031 1.000000
tan -0.976378 0.000000 0.220472 1.000000
tan 0.196850 -0.000000 -0.984252 1.000000
tan -0.905512 0.000000 0.417323 1.000000
tan 0.952756 -0.000000 -0.299213 1.000000
tan 0.259843 0.000000 0.968504 1.000000
tan 0.984252 -0.000000 -0.173228 1.000000
tan -0.307087 0.000000 0.952756 1.000000
tan 0.818898 0.000000 0.566929 1.000000
tan 0.598425 0.000000 0.795275 1.000000
tan 0.346457 0.000000 0.937008 1.000000
tan 0.968504 0.000000 0.251968 1.000000
tan 0.015748 0.000000 1.000000 1.000000
tan 0.984252 -0.000000 -0.181102 1.000000
tan -0.984252 0.000000 0.157480 1.000000
tan 0.834646 -0.000000 -0.551181 1.000000
tan -0.984252 0.000000 0.188976 1.000000
tan 0.503937 -0.000000 -0.866142 1.000000
tan -0.370079 -0.000000 -0.929134 1.000000
tan -0.055118 -0.000000 -1.000000 1.000000
tan 0.296299 -0.827330 0.249427 1.000000
tan -0.073036 -0.898692 -0.130758 1.000000
tan -0.034100 -0.821502 -0.542501 1.000000
tan 0.519189 -0.745861 0.342861 1.000000
tan -0.022630 -0.818898 -0.574803 1.000000
tan 0.738917 -0.563333 0.256123 1.000000
tan 0.381611 -0.210366 -0.899498 1.000000
tan 0.835886 -0.539029 0.092876 1.000000
tan 0.408457 -0.267159 -0.869862 1.000000
tan 0.899498 -0.384401 -0.206150 1.000000
tan 0.772646 0.002232 -0.630913 1.000000
tan 0.889764 -0.035030 -0.456693 1.000000
tan 0.858268 -0.000000 -0.519685 1.000000
tan 0.772088 -0.001054 -0.638229 1.000000
tan 0.906752 0.387501 -0.194742 1.000000
tan 0.538161 0.218736 -0.814930 1.000000
tan 0.897638 0.440945 -0.035340 1.000000
tan 0.379441 0.282906 -0.877736 1.000000
tan 0.754417 0.522289 0.269328 1.000000
tan 0.078120 0.703081 -0.703081 1.000000
tan 0.677351 0.598921 0.318061 1.000000
tan -0.049910 0.822617 -0.522785 1.000000
tan 0.145452 0.895902 0.109616 1.000000
tan -0.073036 0.898692 -0.130758 1.000000
tan 0.015748 1.000000 -0.000620 1.000000
tan 0.015748 1.000000 -0.000620 1.000000
tan 0.028024 0.904148 -0.014384 1.000000
tan 0.066340 0.863600 -0.042160 1.000000
tan 0.013020 0.958026 -0.019716 1.000000
tan 0.012400 0.915060 -0.029016 1.000000
tan 0.001612 0.992126 -0.015624 1.000000
tan -0.001984 0.992126 -0.015624 1.000000
tan -0.003720 0.972224 -0.015252 1.000000
tan -0.015128 0.908364 -0.027776 1.000000
tan -0.003968 0.972472 -0.015252 1.000000
tan -0.014694 0.985988 -0.018600 1.000000
tan -0.039060 0.998822 -0.039060 1.000000
tan -0.021204 0.907868 -0.010230 1.000000
tan -0.034410 0.896708 -0.018910 1.000000
tan -0.021576 0.916610 -0.009672 1.000000
tan -0.015128 0.966954 -0.004216 1.000000
tan -0.015252 0.968504 0.003720 1.000000
tan -0.015624 0.992126 0.002232 1.000000
tan -0.015500 0.985492 0.002480 1.000000
tan -0.022692 0.960630 0.006882 1.000000
tan -0.018600 0.985988 0.014694 1.000000
tan -0.086428 0.946742 0.102238 1.000000
tan -0.012896 0.919834 0.028768 1.000000
tan -0.001364 1.000000 0.015748 1.000000
tan 0.001612 0.976378 0.007688 1.000000
tan 0.036270 0.866328 0.060822 1.000000
tan 0.040796 0.981958 0.036890 1.000000
tan 0.029016 0.915060 0.012400 1.000000
tan 0.015128 0.966954 0.004216 1.000000
tan 0.015748 1.000000 -0.000620 1.000000
tan 0.015748 1.000000 -0.000620 1.000000
tan 0.740157 0.000000 0.677165 1.000000
tan 0.740157 0.000000 0.677165 1.000000
tan 0.740157 0.000000 0.677165 1.000000
tan 0.740157 0.000000 0.677165 1.000000
tan 0.740157 0.000000 0.677165 1.000000
tan 0.740157 0.000000 0.677165 1.000000
tan 0.740157 0.000000 0.677165 1.000000
tan 0.740157 0.000000 0.677165 1.000000
tan 0.740157 0.000000 0.677165 1.000000
tan 0.740157 0.000000 0.677165 1.000000
tan 0.740157 0.000000 0.677165 1.000000
tan 0.740157 0.000000 0.677165 1.000000
f 3/3/3 2/2/2 1/1/1
f 2/2/2 3/3/3 4/4/4
f 3/3/3 5/5/5 4/4/4
f 4/4/4 5/5/5 6/6/6
f 5/5/5 7/7/7 6/6/6
f 6/6/6 7/7/7 8/8/8
f 11/11/11 10/10/10 9/9/9
f 11/11/11 9/9/9 12/12/12
f 11/11/11 12/12/12 13/13/13
f 11/11/11 13/13/13 14/14/14
f 11/11/11 14/14/14 15/15/15
f 11/11/11 15/15/15 16/16/16
f 11/11/11 16/16/16 17/17/17
f 11/11/11 17/17/17 18/18/18
f 11/11/11 18/18/18 19/19/19
f 11/11/11 19/19/19 20/20/20
f 11/11/11 20/20/20 21/21/21
f 24/24/24 23/23/23 22/22/22
f 23/23/23 25/25/25 22/22/22
f 22/22/22 26/26/26 24/24/24
f 27/27/27 22/22/22 25/25/25
f 24/24/24 26/26/26 28/28/28
f 27/27/27 25/25/25 29/29/29
f 28/28/28 26/26/26 30/30/30
f 31/31/31 29/29/29 25/25/25
f 32/32/32 30/30/30 26/26/26
f 31/31/31 33/33/33 29/29/29
f 34/34/34 30/30/30 32/32/32
f 35/35/35 33/33/33 31/31/31
f 30/30/30 34/34/34 36/36/36
f 33/33/33 35/35/35 37/37/37
f 36/36/36 34/34/34 38/38/38
f 39/39/39 37/37/37 35/35/35
f 40/40/40 38/38/38 34/34/34
f 37/37/37 39/39/39 41/41/41
f 42/42/42 38/38/38 40/40/40
f 43/43/43 41/41/41 39/39/39
f 42/42/42 44/44/44 38/38/38
f 41/41/41 43/43/43 45/45/45
f 44/44/44 42/42/42 45/45/45
f 46/46/46 45/45/45 43/43/43
f 45/45/45 46/46/46 44/44/44
f 49/49/49 48/48/48 47/47/47
f 48/48/48 49/49/49 50/50/50
f 51/51/51 49/49/49 47/47/47
f 52/52/52 50/50/50 49/49/49
f 51/51/51 47/47/47 53/53/53
f 52/52/52 54/54/54 50/50/50
f 55/55/55 51/51/51 53/53/53
f 56/56/56 50/50/50 54/54/54
f 57/57/57 55/55/55 53/53/53
f 56/56/56 54/54/54 58/58/58
f 55/55/55 57/57/57 59/59/59
f 60/60/60 58/58/58 54/54/54
f 61/61/61 59/59/59 57/57/57
f 58/58/58 60/60/60 62/62/62
f 59/59/59 61/61/61 63/63/63
f 64/64/64 62/62/62 60/60/60
f 65/65/65 63/63/63 61/61/61
f 62/62/62 64/64/64 66/66/66
f 63/63/63 65/65/65 67/67/67
f 68/68/68 66/66/66 64/64/64
f 68/68/68 63/63/63 67/67/67
f 66/66/66 68/68/68 67/67/67
f 71/71/71 70/70/70 69/69/69
f 70/70/70 72/72/72 69/69/69
f 71/71/71 73/73/73 70/70/70
f 72/72/72 74/74/74 69/69/69
f 73/73/73 71/71/71 75/75/75
f 72/72/72 76/76/76 74/74/74
f 75/75/75 77/77/77 73/73/73
f 76/76/76 78/78/78 74/74/74
f 79/79/79 77/77/77 75/75/75
f 76/76/76 80/80/80 78/78/78
f 79/79/79 81/81/81 77/77/77
f 80/80/80 82/82/82 78/78/78
f 79/79/79 83/83/83 81/81/81
f 80/80/80 84/84/84 82/82/82
f 85/85/85 81/81/81 83/83/83
f 86/86/86 82/82/82 84/84/84
f 83/83/83 87/87/87 85/85/85
f 84/84/84 88/88/88 86/86/86
f 87/87/87 89/89/89 85/85/85
f 90/90/90 86/86/86 88/88/88
f 87/87/87 91/91/91 89/89/89
f 88/88/88 92/92/92 90/90/90
f 89/89/89 91/91/91 92/92/92
f 91/91/91 90/90/90 92/92/92
f 95/95/95 94/94/94 93/93/93
f 96/96/96 94/94/94 95/95/95
f 97/97/97 96/96/96 95/95/95
f 96/96/96 97/97/97 98/98/98
f 98/98/98 97/97/97 99/99/99
f 98/98/98 99/99/99 100/100/100
f 101/101/101 100/100/100 99/99/99
f 99/99/99 102/102/102 101/101/101
f 100/100/100 101/101/101 103/103/103
f 101/101/101 102/102/102 104/104/104
f 105/105/105 100/100/100 103/103/103
f 102/102/102 106/106/106 104/104/104
f 100/100/100 105/105/105 107/107/107
f 104/104/104 106/106/106 108/108/108
f 105/105/105 109/109/109 107/107/107
f 106/106/106 110/110/110 108/108/108
f 109/109/109 111/111/111 107/107/107
f 110/110/110 112/112/112 108/108/108
f 107/107/107 111/111/111 113/113/113
f 112/112/112 113/113/113 111/111/111
f 110/110/110 113/113/113 112/112/112
f 110/110/110 114/114/114 113/113/113
f 113/113/113 114/114/114 115/115/115
f 114/114/114 116/116/116 115/115/115
f 117/117/117 115/115/115 116/116/116
f 116/116/116 118/118/118 117/117/117
f 119/119/119 117/117/117 118/118/118
f 118/118/118 120/120/120 119/119/119
f 121/121/121 119/119/119 120/120/120
f 122/122/122 121/121/121 120/120/120
f 123/123/123 121/121/121 122/122/122
f 124/124/124 121/121/121 123/123/123
f 127/127/127 126/126/126 125/125/125
f 127/127/127 125/125/125 128/128/128
f 127/127/127 128/128/128 129/129/129
f 127/127/127 129/129/129 130/130/130
f 127/127/127 130/130/130 131/131/131
f 127/127/127 131/131/131 132/132/132
f 127/127/127 132/132/132 133/133/133
f 127/127/127 133/133/133 134/134/134
f 127/127/127 134/134/134 135/135/135
f 127/127/127 135/135/135 136/136/136
