mtllib SM_Food_SM_Pepper_02_LOD1.mtl
g SM_Food_SM_Pepper_02_LOD1
#Vertices 129
#Indices 414
#Section 0 Offset 0 NumIndices 414 MaterialIndex 0 MI_Food
v 0.050439 0.044890 -0.024881
v 0.046595 0.042125 -0.005967
v 0.053951 0.057003 -0.005163
v 0.056170 0.088081 -0.006996
v 0.037330 0.052424 -0.040662
v 0.026079 0.082830 -0.050956
v 0.011377 0.047981 -0.051552
v -0.001217 0.050382 -0.054095
v 0.047137 0.099027 -0.004506
v 0.016426 0.087925 -0.015182
v 0.021395 0.087248 -0.001112
v 0.018140 0.099102 -0.022541
v -0.029464 0.073379 -0.042914
v -0.038497 0.049538 -0.035665
v 0.014381 0.099068 -0.038638
v -0.044282 0.095259 -0.004834
v -0.048065 0.052248 -0.017125
v -0.049299 0.067412 -0.004137
v -0.019450 0.089846 -0.036009
v -0.022418 0.099568 -0.011581
v -0.016197 0.088422 -0.001738
v -0.006605 0.089465 -0.021364
v 0.016426 0.087925 -0.015182
v 0.016465 0.049167 0.050852
v 0.007039 0.036926 0.044068
v 0.005976 0.078276 0.057341
v 0.039477 0.053308 0.044012
v 0.045549 0.084679 0.031943
v 0.005270 0.094402 0.050897
v 0.053662 0.058991 0.020070
v 0.056170 0.088081 -0.006996
v 0.053951 0.057003 -0.005163
v 0.047137 0.099027 -0.004506
v 0.022125 0.097624 0.022835
v 0.003670 0.100421 0.035629
v 0.002699 0.090414 0.022403
v 0.025808 0.090665 0.005650
v 0.021395 0.087248 -0.001112
v 0.018270 0.088256 0.015029
v 0.002554 0.015435 0.030727
v 0.005468 0.007789 0.010059
v 0.000589 0.015590 0.009893
v 0.016817 0.004889 0.039271
v 0.007039 0.036926 0.044068
v 0.016465 0.049167 0.050852
v 0.017869 -0.000534 0.007336
v 0.039477 0.053308 0.044012
v 0.035026 0.007643 -0.005048
v 0.017066 0.008240 -0.000640
v 0.045867 0.010670 0.013183
v 0.053662 0.058991 0.020070
v 0.046595 0.042125 -0.005967
v 0.053951 0.057003 -0.005163
v 0.002554 0.015435 0.030727
v 0.000589 0.015590 0.009893
v -0.003346 0.005119 0.013952
v -0.005172 0.000610 0.029961
v -0.017234 0.003479 0.006134
v 0.007039 0.036926 0.044068
v -0.034969 0.002715 0.015835
v -0.029619 0.013696 0.001864
v -0.044878 0.038082 -0.001181
v -0.014892 0.041953 0.054717
v 0.005976 0.078276 0.057341
v -0.050560 0.035008 0.019360
v -0.049299 0.067412 -0.004137
v -0.032439 0.011851 0.040082
v -0.046800 0.080718 0.026228
v -0.044282 0.095259 -0.004834
v -0.025653 0.073545 0.051120
v 0.005270 0.094402 0.050897
v -0.017336 0.098692 0.041786
v 0.003670 0.100421 0.035629
v -0.026883 0.096354 0.017942
v -0.016197 0.088422 -0.001738
v 0.002699 0.090414 0.022403
v -0.009452 0.086898 0.016621
v 0.018270 0.088256 0.015029
v 0.022125 0.097624 0.022835
v 0.002699 0.090414 0.022403
v -0.009452 0.086898 0.016621
v 0.025808 0.090665 0.005650
v 0.021395 0.087248 -0.001112
v 0.006242 0.096786 0.009989
v -0.004835 0.100031 0.003739
v 0.001555 0.109555 0.007825
v 0.008240 0.108934 -0.001053
v 0.011856 0.092478 -0.001206
v 0.016426 0.087925 -0.015182
v 0.016426 0.087925 -0.015182
v 0.011856 0.092478 -0.001206
v 0.003255 0.090956 -0.009580
v 0.008240 0.108934 -0.001053
v -0.006605 0.089465 -0.021364
v 0.016426 0.087925 -0.015182
v -0.016197 0.088422 -0.001738
v -0.004835 0.100031 0.003739
v 0.001555 0.109555 0.007825
v -0.009452 0.086898 0.016621
v -0.048065 0.052248 -0.017125
v -0.049299 0.067412 -0.004137
v -0.044878 0.038082 -0.001181
v -0.034176 0.007460 -0.029308
v -0.038497 0.049538 -0.035665
v -0.035504 0.006277 -0.007569
v -0.029619 0.013696 0.001864
v -0.021445 0.000186 -0.006134
v -0.001361 0.026435 -0.050714
v -0.001217 0.050382 -0.054095
v 0.011377 0.047981 -0.051552
v -0.000376 0.004165 -0.032239
v 0.000015 0.009402 -0.015258
v 0.023875 0.019142 -0.040727
v 0.037330 0.052424 -0.040662
v 0.050439 0.044890 -0.024881
v 0.014874 0.004586 -0.021616
v 0.017066 0.008240 -0.000640
v 0.035026 0.007643 -0.005048
v 0.046595 0.042125 -0.005967
v 0.005468 0.007789 0.010059
v -0.008427 0.017398 -0.006258
v 0.000589 0.015590 0.009893
v -0.003346 0.005119 0.013952
v 0.017869 -0.000534 0.007336
v -0.017234 0.003479 0.006134
v 0.017066 0.008240 -0.000640
v -0.029619 0.013696 0.001864
v 0.000015 0.009402 -0.015258
v -0.021445 0.000186 -0.006134
vt 0.626465 0.008789
vt 0.645020 0.000488
vt 0.649414 0.016113
vt 0.652832 0.044922
vt 0.606934 0.022461
vt 0.606445 0.052246
vt 0.578125 0.034180
vt 0.567871 0.046387
vt 0.652832 0.059082
vt 0.633789 0.084961
vt 0.649902 0.083984
vt 0.624512 0.077637
vt 0.566895 0.083984
vt 0.541992 0.083496
vt 0.611328 0.070801
vt 0.575195 0.125977
vt 0.537598 0.105469
vt 0.548828 0.122070
vt 0.585938 0.090332
vt 0.592773 0.113770
vt 0.604004 0.122070
vt 0.605957 0.098145
vt 0.630859 0.086914
vt 0.805176 0.568359
vt 0.813477 0.554688
vt 0.817871 0.594727
vt 0.780273 0.575684
vt 0.775879 0.608154
vt 0.816406 0.611328
vt 0.754395 0.591064
vt 0.745605 0.627930
vt 0.731934 0.602539
vt 0.754395 0.635498
vt 0.791016 0.630859
vt 0.812988 0.626221
vt 0.809570 0.641602
vt 0.775391 0.643555
vt 0.773438 0.651855
vt 0.788574 0.641602
vt 0.662109 0.812134
vt 0.654785 0.836304
vt 0.646973 0.829956
vt 0.674805 0.818115
vt 0.681641 0.790161
vt 0.698242 0.784912
vt 0.668457 0.844971
vt 0.720215 0.800415
vt 0.686523 0.859497
vt 0.668457 0.856445
vt 0.695801 0.843628
vt 0.737305 0.826782
vt 0.724609 0.857422
vt 0.740234 0.852295
vt 0.605469 0.335938
vt 0.620605 0.352539
vt 0.609863 0.359375
vt 0.601074 0.349121
vt 0.598145 0.375977
vt 0.587402 0.308594
vt 0.581055 0.371094
vt 0.579102 0.387695
vt 0.544434 0.385742
vt 0.566406 0.319336
vt 0.542480 0.286133
vt 0.549316 0.366211
vt 0.511230 0.372070
vt 0.575684 0.350098
vt 0.516113 0.341309
vt 0.490234 0.353027
vt 0.535645 0.316895
vt 0.521973 0.284668
vt 0.513184 0.306641
vt 0.504883 0.289551
vt 0.495605 0.325195
vt 0.472900 0.330078
vt 0.489990 0.293457
vt 0.485107 0.310059
vt 0.142456 0.759521
vt 0.148804 0.753906
vt 0.155884 0.769287
vt 0.159180 0.781006
vt 0.133179 0.753784
vt 0.126831 0.759155
vt 0.140991 0.775146
vt 0.144287 0.787354
vt 0.135986 0.787476
vt 0.127319 0.783447
vt 0.129150 0.769165
vt 0.115356 0.766602
vt 0.573242 0.130371
vt 0.573730 0.144531
vt 0.562500 0.140625
vt 0.571777 0.158203
vt 0.551758 0.130859
vt 0.573242 0.130859
vt 0.541992 0.147461
vt 0.555664 0.157715
vt 0.564453 0.166504
vt 0.538574 0.165039
vt 0.238281 0.707275
vt 0.219116 0.708252
vt 0.237793 0.684814
vt 0.275146 0.686279
vt 0.257080 0.720215
vt 0.266602 0.671143
vt 0.258789 0.661865
vt 0.278564 0.662354
vt 0.302979 0.710938
vt 0.300781 0.733398
vt 0.316895 0.729248
vt 0.304932 0.683594
vt 0.308105 0.668457
vt 0.327148 0.699707
vt 0.347656 0.725830
vt 0.364258 0.708984
vt 0.323730 0.676514
vt 0.332520 0.658203
vt 0.347168 0.669434
vt 0.374512 0.691895
vt 0.531250 0.394531
vt 0.511230 0.404785
vt 0.521973 0.393066
vt 0.513672 0.383789
vt 0.544434 0.398926
vt 0.500488 0.388184
vt 0.537109 0.407715
vt 0.490234 0.396973
vt 0.517090 0.416992
vt 0.493652 0.411621
vt1 0.342529 0.590088
vt1 0.411133 0.621094
vt1 0.428955 0.562744
vt1 0.441162 0.455078
vt1 0.269531 0.539062
vt1 0.266602 0.427246
vt1 0.160156 0.495117
vt1 0.122192 0.448242
vt1 0.441406 0.400391
vt1 0.369385 0.304199
vt1 0.430176 0.308105
vt1 0.334229 0.330566
vt1 0.119324 0.307129
vt1 0.025116 0.309082
vt1 0.284912 0.356445
vt1 0.149048 0.149902
vt1 0.008064 0.226074
vt1 0.050720 0.164062
vt1 0.190918 0.283203
vt1 0.215820 0.196289
vt1 0.258301 0.163086
vt1 0.265869 0.254883
vt1 0.359131 0.296387
vt1 0.655762 0.941223
vt1 0.604492 0.973206
vt1 0.754395 0.988373
vt1 0.682617 0.848022
vt1 0.805176 0.832520
vt1 0.816895 0.983780
vt1 0.741211 0.751953
vt1 0.879395 0.718262
vt1 0.784180 0.666016
vt1 0.907227 0.751465
vt1 0.890625 0.888367
vt1 0.873535 0.971634
vt1 0.930176 0.957916
vt1 0.937988 0.830200
vt1 0.969238 0.821777
vt1 0.931152 0.879333
vt1 0.677734 0.244141
vt1 0.650391 0.153809
vt1 0.620605 0.177246
vt1 0.726074 0.222168
vt1 0.750977 0.327148
vt1 0.812988 0.347168
vt1 0.701172 0.121094
vt1 0.896484 0.288574
vt1 0.769531 0.066406
vt1 0.702148 0.077637
vt1 0.805176 0.125977
vt1 0.961426 0.189453
vt1 0.912598 0.074219
vt1 0.970703 0.093262
vt1 0.509766 0.798462
vt1 0.567871 0.861084
vt1 0.526855 0.885376
vt1 0.493896 0.848389
vt1 0.482178 0.948639
vt1 0.441406 0.695068
vt1 0.417969 0.930725
vt1 0.411133 0.991936
vt1 0.278809 0.984497
vt1 0.362305 0.735107
vt1 0.272461 0.611084
vt1 0.298340 0.912415
vt1 0.153076 0.934387
vt1 0.397461 0.851929
vt1 0.172485 0.817383
vt1 0.073547 0.862915
vt1 0.246460 0.725830
vt1 0.194946 0.605225
vt1 0.161621 0.687744
vt1 0.130615 0.622559
vt1 0.094543 0.757446
vt1 0.008064 0.776245
vt1 0.073364 0.637695
vt1 0.054749 0.701416
vt1 0.904297 0.632080
vt1 0.928223 0.653076
vt1 0.955078 0.595459
vt1 0.967285 0.551514
vt1 0.869141 0.653320
vt1 0.845215 0.633301
vt1 0.898926 0.573486
vt1 0.911133 0.527588
vt1 0.879883 0.527100
vt1 0.846680 0.542480
vt1 0.854004 0.595947
vt1 0.801758 0.605713
vt1 0.884277 0.370117
vt1 0.886230 0.423828
vt1 0.842773 0.409668
vt1 0.878418 0.476562
vt1 0.803223 0.372070
vt1 0.883301 0.371094
vt1 0.767578 0.435059
vt1 0.818848 0.473633
vt1 0.850098 0.508301
vt1 0.753906 0.502197
vt1 0.558105 0.751465
vt1 0.554199 0.823608
vt1 0.642578 0.753418
vt1 0.636719 0.612305
vt1 0.509277 0.680420
vt1 0.693359 0.645020
vt1 0.728516 0.674072
vt1 0.727051 0.600098
vt1 0.544434 0.508301
vt1 0.459473 0.516113
vt1 0.475098 0.455566
vt1 0.646973 0.500244
vt1 0.704102 0.488770
vt1 0.586426 0.416992
vt1 0.488770 0.340332
vt1 0.551270 0.277832
vt1 0.673340 0.430176
vt1 0.742676 0.397461
vt1 0.700195 0.341797
vt1 0.615234 0.239258
vt1 0.374023 0.200684
vt1 0.334961 0.128418
vt1 0.378174 0.167969
vt1 0.413330 0.136719
vt1 0.355957 0.250000
vt1 0.397705 0.088379
vt1 0.322266 0.222656
vt1 0.364014 0.049316
vt1 0.287109 0.148926
vt1 0.308594 0.061523
vn 0.921260 -0.267717 -0.267716
vn 0.929134 -0.354331 -0.086614
vn 0.984252 -0.165354 -0.047244
vn 0.921260 0.385827 -0.007874
vn 0.519685 -0.086614 -0.850394
vn 0.370079 0.338583 -0.866142
vn 0.362205 -0.173228 -0.913386
vn -0.204724 -0.031496 -0.976378
vn 0.267717 0.960630 0.086614
vn -0.401575 0.866142 0.299212
vn -0.133858 0.992126 0.062992
vn -0.007874 0.905512 0.417323
vn -0.527559 0.275590 -0.803150
vn -0.700787 -0.078740 -0.708661
vn 0.110236 0.874016 -0.472441
vn -0.740157 0.669291 0.007874
vn -0.984252 -0.062992 -0.157480
vn -0.992126 0.102362 -0.102362
vn -0.196850 0.779527 -0.598425
vn 0.157480 0.960630 0.244094
vn 0.165354 0.984252 0.047244
vn 0.023622 0.984252 0.196850
vn 0.047244 0.960630 0.267716
vn -0.031496 -0.228346 0.976378
vn 0.007874 -0.314960 0.944882
vn 0.023622 0.133858 0.992126
vn 0.653543 -0.086614 0.748031
vn 0.779528 0.401575 0.472441
vn 0.000000 0.629921 0.779527
vn 0.952756 -0.062992 0.307087
vn 0.881890 0.456693 -0.118110
vn 0.968504 -0.157480 -0.173228
vn 0.464567 0.889764 0.039370
vn 0.062992 0.921260 -0.385827
vn -0.291339 0.952756 0.055118
vn -0.102362 0.881890 -0.464567
vn -0.511811 0.858268 -0.039370
vn -0.133858 0.992126 0.062992
vn 0.023622 0.944882 -0.330709
vn 0.118110 -0.771653 0.629921
vn -0.732283 -0.637795 -0.236220
vn -0.118110 -0.905512 -0.401575
vn -0.086614 -0.661417 0.740157
vn 0.007874 -0.314960 0.944882
vn -0.031496 -0.228346 0.976378
vn -0.149606 -0.921260 -0.362205
vn 0.661417 -0.086614 0.740157
vn 0.661417 -0.740157 -0.118110
vn -0.275591 -0.921260 -0.283464
vn 0.850394 -0.519685 0.039370
vn 0.952756 -0.062992 0.307087
vn 0.929134 -0.354331 -0.086614
vn 0.960630 -0.173228 -0.212598
vn 0.118110 -0.771653 0.629921
vn -0.118110 -0.905512 -0.401575
vn 0.669291 -0.653543 -0.346457
vn 0.433071 -0.803149 0.409449
vn 0.110236 -0.716535 -0.692913
vn 0.007874 -0.314960 0.944882
vn -0.629921 -0.771653 -0.094488
vn -0.661417 -0.748031 0.023622
vn -0.968504 -0.228346 -0.102362
vn -0.031496 -0.181102 0.984252
vn 0.023622 0.094488 0.992126
vn -0.976378 -0.188976 0.078740
vn -0.976378 0.070866 -0.204724
vn -0.535433 -0.496063 0.685039
vn -0.834646 0.338583 0.433071
vn -0.661417 0.740157 -0.094488
vn -0.503937 0.236221 0.834646
vn 0.062992 0.622047 0.779527
vn -0.322835 0.842520 0.433071
vn -0.015748 0.992126 -0.118110
vn 0.094488 0.992126 -0.023622
vn 0.165354 0.984252 0.047244
vn -0.102362 0.881890 -0.464567
vn 0.102362 0.992126 -0.031496
vn 0.118110 0.968504 -0.212599
vn 0.078740 0.732283 -0.677165
vn -0.102362 0.881890 -0.464567
vn -0.125984 0.984252 -0.141732
vn -0.511811 0.858268 -0.039370
vn -0.133858 0.992126 0.062992
vn 0.338583 0.614173 0.708661
vn -0.692913 0.692913 0.220472
vn -0.149606 0.771653 0.622047
vn 0.598425 0.748031 -0.283465
vn 0.653543 0.716535 -0.236221
vn -0.141732 0.944882 0.291338
vn 0.110236 0.905512 0.409449
vn 0.653543 0.716535 -0.236221
vn 0.007874 0.881890 -0.464567
vn 0.598425 0.748031 -0.283465
vn 0.023622 0.984252 0.196850
vn 0.055118 0.937008 0.354331
vn 0.165354 0.984252 0.047244
vn -0.795276 0.606299 -0.039370
vn -0.149606 0.771653 0.622047
vn 0.047244 0.992126 -0.118110
vn -0.984252 -0.062992 -0.157480
vn -0.992126 0.086614 -0.102362
vn -0.968504 -0.228346 -0.102362
vn -0.685039 -0.488189 -0.543307
vn -0.700787 -0.055118 -0.708661
vn -0.700787 -0.629921 0.330709
vn -0.661417 -0.748031 0.023622
vn -0.070866 -0.881890 0.472441
vn -0.062992 -0.346457 -0.937008
vn -0.204724 -0.031496 -0.976378
vn 0.440945 -0.212599 -0.874016
vn 0.377953 -0.858268 -0.346457
vn 0.393701 -0.881890 0.251969
vn 0.228346 -0.409449 -0.881890
vn 0.519685 -0.086614 -0.850394
vn 0.921260 -0.267717 -0.283464
vn -0.275591 -0.937008 -0.212598
vn -0.275591 -0.921260 -0.283464
vn 0.653543 -0.740157 0.157480
vn 0.929134 -0.354331 -0.086614
vn -0.732283 -0.637795 -0.236220
vn 0.307087 -0.937008 0.181102
vn -0.118110 -0.905512 -0.401575
vn 0.669291 -0.653543 -0.346457
vn -0.149606 -0.921260 -0.362205
vn 0.110236 -0.716535 -0.692913
vn -0.275591 -0.921260 -0.283464
vn -0.661417 -0.748031 0.023622
vn 0.393701 -0.874016 0.291339
vn -0.070866 -0.881890 0.472441
tan -0.162316 -0.874698 0.316139 1.000000
tan -0.334429 -0.916548 0.162006 1.000000
tan -0.158472 -0.976502 0.116250 1.000000
tan 0.385889 -0.921074 0.016368 1.000000
tan 0.440325 -0.793105 0.349867 1.000000
tan 0.447145 -0.755037 -0.104098 1.000000
tan 0.653109 -0.635749 0.379565 1.000000
tan 0.776738 -0.593589 -0.143716 1.000000
tan 0.960630 -0.265670 -0.022692 1.000000
tan 0.793478 0.486949 -0.344659 1.000000
tan 0.960878 0.146010 -0.257797 1.000000
tan 0.602207 0.320665 -0.684419 1.000000
tan 0.727075 -0.334987 -0.592535 1.000000
tan 0.710521 -0.110856 -0.690309 1.000000
tan 0.434125 -0.466737 -0.762167 1.000000
tan 0.220286 0.254448 -0.921198 1.000000
tan 0.168888 -0.255751 -0.953252 1.000000
tan 0.079794 -0.195300 -0.968690 1.000000
tan 0.176018 -0.556451 -0.782751 1.000000
tan 0.315891 0.179800 -0.911402 1.000000
tan 0.256122 0.002790 -0.954554 1.000000
tan 0.505301 0.156860 -0.844938 1.000000
tan 0.605121 0.176824 -0.741273 1.000000
tan -0.099944 -0.968690 -0.229772 1.000000
tan -0.037200 -0.944882 -0.314650 1.000000
tan 0.093744 -0.984314 0.130572 1.000000
tan -0.558063 -0.682187 0.408581 1.000000
tan 0.138942 -0.763159 0.419431 1.000000
tan 0.063736 -0.773389 0.624961 1.000000
tan -0.208816 -0.824973 0.478641 1.000000
tan 0.468721 -0.833282 0.277761 1.000000
tan -0.035960 -0.808357 0.533821 1.000000
tan 0.854424 -0.456817 0.241863 1.000000
tan 0.377209 0.326617 0.841465 1.000000
tan 0.315085 0.044268 0.900242 1.000000
tan 0.184202 0.474549 0.860252 1.000000
tan 0.712319 0.448571 0.518693 1.000000
tan 0.765577 0.063612 0.624961 1.000000
tan 0.409201 0.286627 0.848162 1.000000
tan -0.130200 0.615661 0.778597 1.000000
tan -0.603943 0.452167 0.651373 1.000000
tan -0.740653 -0.157728 0.573501 1.000000
tan -0.083080 0.744932 0.655961 1.000000
tan -0.322401 0.892740 0.300266 1.000000
tan -0.586087 0.784425 0.164548 1.000000
tan -0.141980 -0.338149 0.918718 1.000000
tan -0.723045 0.152396 0.663959 1.000000
tan -0.017422 -0.171492 0.977122 1.000000
tan 0.117180 -0.320292 0.927026 1.000000
tan 0.080538 0.196354 0.852254 1.000000
tan -0.286441 0.207391 0.931242 1.000000
tan 0.162688 0.200074 0.926716 1.000000
tan 0.241986 0.179862 0.946866 1.000000
tan 0.250109 0.635811 0.731973 1.000000
tan 0.918904 -0.200694 0.182280 1.000000
tan 0.710707 0.439519 0.543865 1.000000
tan 0.493149 0.591791 0.639221 1.000000
tan 0.243412 -0.655465 0.716535 1.000000
tan 0.505921 0.803708 0.263686 1.000000
tan 0.249116 -0.312728 0.893174 1.000000
tan 0.236654 -0.179304 0.948354 1.000000
tan -0.154876 0.234795 0.941596 1.000000
tan 0.767252 0.620001 0.138632 1.000000
tan 0.960878 0.242172 -0.045942 1.000000
tan 0.016988 0.300453 0.931738 1.000000
tan -0.114948 0.615041 0.761113 1.000000
tan 0.584971 0.358361 0.716721 1.000000
tan 0.546903 0.440325 0.709777 1.000000
tan 0.732097 0.666625 0.097216 1.000000
tan 0.834522 0.152644 0.460661 1.000000
tan 0.897018 -0.094178 0.002666 1.000000
tan 0.856718 0.236778 0.178002 1.000000
tan 0.968690 0.039556 0.203112 1.000000
tan 0.835886 -0.066960 0.531217 1.000000
tan 0.720751 -0.153450 0.674251 1.000000
tan 0.881580 0.259719 0.298779 1.000000
tan 0.843698 -0.070432 0.523405 1.000000
tan 0.932048 -0.056544 0.260215 1.000000
tan 0.601339 0.483849 0.593155 1.000000
tan 0.689689 0.385889 0.580569 1.000000
tan 0.689751 0.189844 0.705251 1.000000
tan 0.843822 0.510881 0.167524 1.000000
tan 0.984314 0.123380 0.148428 1.000000
tan 0.675553 -0.664083 0.252775 1.000000
tan 0.532457 0.280737 0.791121 1.000000
tan 0.497179 -0.477525 0.711947 1.000000
tan 0.783124 -0.593465 0.087172 1.000000
tan 0.746234 -0.653977 0.080848 1.000000
tan 0.939736 0.097030 0.142476 1.000000
tan 0.402505 0.318929 -0.813690 1.000000
tan 0.542253 -0.662657 -0.509827 1.000000
tan 0.111476 -0.461839 -0.874822 1.000000
tan 0.362825 -0.570153 -0.738607 1.000000
tan 0.116250 0.192510 -0.976502 1.000000
tan 0.228718 0.329717 -0.907496 1.000000
tan -0.301879 0.095790 -0.939054 1.000000
tan -0.461095 -0.643313 -0.592907 1.000000
tan -0.394879 0.525947 -0.747411 1.000000
tan -0.320293 -0.096348 -0.937442 1.000000
tan -0.079608 -0.636741 0.752247 1.000000
tan -0.134416 -0.671833 0.734329 1.000000
tan 0.059644 -0.596441 0.766197 1.000000
tan -0.193750 -0.531217 0.721619 1.000000
tan -0.640709 -0.388865 0.663835 1.000000
tan 0.657325 -0.397669 0.635439 1.000000
tan 0.585963 -0.498109 0.633517 1.000000
tan 0.325129 0.422965 0.838304 1.000000
tan -0.026784 -0.937504 0.348441 1.000000
tan -0.092008 -0.970302 0.050592 1.000000
tan 0.302995 -0.832847 0.355447 1.000000
tan -0.164796 -0.415649 0.849898 1.000000
tan -0.088288 0.215885 0.893546 1.000000
tan 0.111600 -0.878542 0.436791 1.000000
tan 0.440325 -0.793105 0.349867 1.000000
tan 0.034968 -0.613801 0.693347 1.000000
tan -0.179738 -0.159340 0.935272 1.000000
tan -0.286255 -0.189782 0.895096 1.000000
tan -0.736686 -0.600719 0.233865 1.000000
tan -0.179986 -0.641267 0.692603 1.000000
tan -0.349123 0.055986 0.931118 1.000000
tan -0.091388 0.150660 0.934466 1.000000
tan -0.186930 -0.372931 0.895902 1.000000
tan -0.211668 -0.613677 0.748713 1.000000
tan -0.343543 -0.286378 0.870296 1.000000
tan -0.028768 -0.699857 0.719139 1.000000
tan -0.308017 -0.181040 0.887842 1.000000
tan -0.157790 0.170004 0.965342 1.000000
tan 0.020646 0.306839 0.892616 1.000000
tan -0.118048 0.478207 0.874946 1.000000
f 3/3/3 2/2/2 1/1/1
f 4/4/4 3/3/3 1/1/1
f 4/4/4 1/1/1 5/5/5
f 4/4/4 5/5/5 6/6/6
f 7/7/7 6/6/6 5/5/5
f 7/7/7 8/8/8 6/6/6
f 6/6/6 9/9/9 4/4/4
f 11/11/11 9/9/9 10/10/10
f 10/10/10 9/9/9 12/12/12
f 8/8/8 13/13/13 6/6/6
f 8/8/8 14/14/14 13/13/13
f 9/9/9 6/6/6 15/15/15
f 13/13/13 15/15/15 6/6/6
f 9/9/9 15/15/15 12/12/12
f 16/16/16 13/13/13 14/14/14
f 16/16/16 14/14/14 17/17/17
f 17/17/17 18/18/18 16/16/16
f 13/13/13 19/19/19 15/15/15
f 16/16/16 19/19/19 13/13/13
f 19/19/19 12/12/12 15/15/15
f 16/16/16 20/20/20 19/19/19
f 16/16/16 21/21/21 20/20/20
f 21/21/21 22/22/22 20/20/20
f 19/19/19 20/20/20 22/22/22
f 19/19/19 22/22/22 12/12/12
f 23/23/23 12/12/12 22/22/22
f 26/26/26 25/25/25 24/24/24
f 27/27/27 26/26/26 24/24/24
f 26/26/26 27/27/27 28/28/28
f 26/26/26 28/28/28 29/29/29
f 28/28/28 27/27/27 30/30/30
f 32/32/32 31/31/31 30/30/30
f 28/28/28 30/30/30 31/31/31
f 28/28/28 31/31/31 33/33/33
f 29/29/29 28/28/28 34/34/34
f 34/34/34 28/28/28 33/33/33
f 35/35/35 29/29/29 34/34/34
f 34/34/34 36/36/36 35/35/35
f 37/37/37 34/34/34 33/33/33
f 37/37/37 33/33/33 38/38/38
f 34/34/34 37/37/37 39/39/39
f 42/42/42 41/41/41 40/40/40
f 40/40/40 41/41/41 43/43/43
f 43/43/43 44/44/44 40/40/40
f 43/43/43 45/45/45 44/44/44
f 41/41/41 46/46/46 43/43/43
f 45/45/45 43/43/43 47/47/47
f 49/49/49 48/48/48 46/46/46
f 47/47/47 43/43/43 50/50/50
f 46/46/46 50/50/50 43/43/43
f 46/46/46 48/48/48 50/50/50
f 47/47/47 50/50/50 51/51/51
f 50/50/50 48/48/48 52/52/52
f 53/53/53 51/51/51 50/50/50
f 53/53/53 50/50/50 52/52/52
f 56/56/56 55/55/55 54/54/54
f 54/54/54 57/57/57 56/56/56
f 56/56/56 57/57/57 58/58/58
f 59/59/59 57/57/57 54/54/54
f 57/57/57 60/60/60 58/58/58
f 58/58/58 60/60/60 61/61/61
f 61/61/61 60/60/60 62/62/62
f 59/59/59 63/63/63 57/57/57
f 64/64/64 63/63/63 59/59/59
f 60/60/60 65/65/65 62/62/62
f 65/65/65 66/66/66 62/62/62
f 67/67/67 60/60/60 57/57/57
f 65/65/65 60/60/60 67/67/67
f 63/63/63 67/67/67 57/57/57
f 66/66/66 65/65/65 68/68/68
f 67/67/67 68/68/68 65/65/65
f 66/66/66 68/68/68 69/69/69
f 63/63/63 70/70/70 67/67/67
f 64/64/64 70/70/70 63/63/63
f 67/67/67 70/70/70 68/68/68
f 71/71/71 70/70/70 64/64/64
f 71/71/71 72/72/72 70/70/70
f 72/72/72 68/68/68 70/70/70
f 73/73/73 72/72/72 71/71/71
f 69/69/69 68/68/68 74/74/74
f 74/74/74 68/68/68 72/72/72
f 73/73/73 74/74/74 72/72/72
f 69/69/69 74/74/74 75/75/75
f 73/73/73 76/76/76 74/74/74
f 74/74/74 77/77/77 75/75/75
f 76/76/76 77/77/77 74/74/74
f 80/80/80 79/79/79 78/78/78
f 78/78/78 81/81/81 80/80/80
f 83/83/83 78/78/78 82/82/82
f 78/78/78 84/84/84 81/81/81
f 84/84/84 78/78/78 83/83/83
f 84/84/84 85/85/85 81/81/81
f 85/85/85 84/84/84 86/86/86
f 84/84/84 87/87/87 86/86/86
f 84/84/84 88/88/88 87/87/87
f 83/83/83 88/88/88 84/84/84
f 89/89/89 88/88/88 83/83/83
f 92/92/92 91/91/91 90/90/90
f 93/93/93 91/91/91 92/92/92
f 92/92/92 95/95/95 94/94/94
f 96/96/96 92/92/92 94/94/94
f 97/97/97 93/93/93 92/92/92
f 96/96/96 97/97/97 92/92/92
f 98/98/98 93/93/93 97/97/97
f 97/97/97 96/96/96 99/99/99
f 102/102/102 101/101/101 100/100/100
f 100/100/100 103/103/103 102/102/102
f 104/104/104 103/103/103 100/100/100
f 103/103/103 105/105/105 102/102/102
f 106/106/106 102/102/102 105/105/105
f 106/106/106 105/105/105 107/107/107
f 107/107/107 105/105/105 103/103/103
f 108/108/108 103/103/103 104/104/104
f 104/104/104 109/109/109 108/108/108
f 110/110/110 108/108/108 109/109/109
f 111/111/111 107/107/107 103/103/103
f 108/108/108 111/111/111 103/103/103
f 110/110/110 111/111/111 108/108/108
f 111/111/111 112/112/112 107/107/107
f 113/113/113 111/111/111 110/110/110
f 110/110/110 114/114/114 113/113/113
f 113/113/113 114/114/114 115/115/115
f 116/116/116 112/112/112 111/111/111
f 116/116/116 111/111/111 113/113/113
f 116/116/116 117/117/117 112/112/112
f 118/118/118 117/117/117 116/116/116
f 116/116/116 113/113/113 118/118/118
f 115/115/115 118/118/118 113/113/113
f 115/115/115 119/119/119 118/118/118
f 122/122/122 121/121/121 120/120/120
f 121/121/121 122/122/122 123/123/123
f 120/120/120 121/121/121 124/124/124
f 125/125/125 121/121/121 123/123/123
f 124/124/124 121/121/121 126/126/126
f 121/121/121 125/125/125 127/127/127
f 128/128/128 126/126/126 121/121/121
f 129/129/129 121/121/121 127/127/127
f 121/121/121 129/129/129 128/128/128
