mtllib SM_Frames_03_LOD3.mtl
g SM_Frames_03_LOD3
#Vertices 24
#Indices 36
#Section 0 Offset 0 NumIndices 36 MaterialIndex 0 MI_Frames
v -0.002439 0.365559 -0.140749
v -0.008226 0.403435 -0.184216
v 0.010145 0.403022 -0.183159
v 0.004688 -0.016985 -0.184579
v -0.003261 -0.009705 0.182518
v 0.004231 0.051391 0.148497
v -0.002235 0.044827 -0.145082
v 0.008184 0.406034 0.189885
v 0.007686 0.036939 0.144364
v -0.002134 -0.000019 0.199556
v -0.002752 0.365455 0.138010
v 0.001768 0.369264 -0.148187
v 0.001768 0.036819 -0.148187
v 0.001768 0.369264 0.148341
v 0.001768 0.036819 0.148341
v 0.008329 0.409282 -0.185096
v 0.007958 0.362945 0.145881
v -0.001866 0.419397 0.182680
v -0.002520 0.356341 -0.145014
v -0.003494 0.000099 -0.193637
v 0.010145 0.403022 -0.183159
v -0.008226 0.403435 -0.184216
v 0.003974 0.034488 -0.133929
v -0.002439 0.365559 -0.140749
vt 0.339111 0.810913
vt 0.346680 0.902771
vt 0.321045 0.901184
vt 0.462891 0.930908
vt 0.464355 0.669678
vt 0.505859 0.693848
vt 0.504883 0.902832
vt 0.807129 0.956360
vt 0.776855 0.693848
vt 0.813477 0.667480
vt 0.771484 0.927368
vt 0.000000 0.688721
vt 0.000000 0.455078
vt 0.208618 0.688721
vt 0.208618 0.455078
vt 0.447266 0.931335
vt 0.416260 0.695801
vt 0.453613 0.669678
vt 0.410889 0.902710
vt 0.720215 0.667480
vt 0.728516 0.954163
vt 0.715820 0.954468
vt 0.761230 0.692139
vt 0.759766 0.927551
vt1 0.186157 0.285645
vt1 0.066772 0.295898
vt1 0.068848 0.261719
vt1 0.869141 0.995522
vt1 0.873047 0.330078
vt1 0.981934 0.391602
vt1 0.978516 0.924072
vt1 0.820801 0.996519
vt1 0.742188 0.327148
vt1 0.837402 0.260254
vt1 0.728027 0.922668
vt1 0.008064 0.991936
vt1 0.008064 0.389160
vt1 0.545898 0.991936
vt1 0.545898 0.389160
vt1 0.003275 0.210449
vt1 0.603516 0.129883
vt1 0.669922 0.227051
vt1 0.076233 0.115723
vt1 0.582520 0.260254
vt1 0.604492 0.990997
vt1 0.571777 0.991745
vt1 0.689453 0.322754
vt1 0.686035 0.923035
vn 0.000000 0.700787 0.716535
vn 0.000000 0.700787 0.716535
vn 0.000000 0.700787 0.716535
vn 0.732283 -0.685039 0.000000
vn 0.322835 -0.944882 0.000000
vn 0.834646 0.551181 -0.000000
vn 0.417323 0.905512 -0.000000
vn 0.889764 0.000000 0.464567
vn 0.944882 -0.000000 -0.322835
vn 0.519685 0.000000 0.858268
vn 0.590551 -0.000000 -0.803149
vn 1.000000 0.000000 0.000000
vn 1.000000 0.000000 0.000000
vn 1.000000 0.000000 0.000000
vn 1.000000 0.000000 0.000000
vn 0.897638 0.433071 -0.000000
vn 0.952756 -0.299213 0.000000
vn 0.543307 0.834646 -0.000000
vn 0.614173 -0.787401 0.000000
vn 0.291339 -0.000000 -0.952756
vn 0.913386 -0.000000 -0.409449
vn 0.000000 -0.000000 -1.000000
vn 0.818898 0.000000 0.574803
vn 0.401575 0.000000 0.913386
tan -0.128402 -0.710893 0.695269 1.000000
tan -0.351727 -0.671399 0.656643 1.000000
tan 0.173042 -0.705251 0.689751 1.000000
tan 0.000000 0.000000 0.928514 1.000000
tan 0.000000 0.000000 0.960134 1.000000
tan 0.000000 0.000000 0.908302 1.000000
tan 0.000000 0.000000 0.954244 1.000000
tan 0.000000 -0.922686 0.000000 1.000000
tan 0.000000 -0.955050 0.000000 1.000000
tan 0.000000 -0.992622 0.000000 1.000000
tan 0.000000 -0.997148 0.000000 1.000000
tan 0.000000 -1.000000 0.000000 1.000000
tan 0.000000 -1.000000 0.000000 1.000000
tan 0.000000 -1.000000 0.000000 1.000000
tan 0.000000 -1.000000 0.000000 1.000000
tan 0.000000 0.000000 0.921508 1.000000
tan 0.000000 0.000000 0.959824 1.000000
tan 0.000000 0.000000 0.999008 1.000000
tan 0.000000 0.000000 0.996590 1.000000
tan 0.000000 -0.961932 0.000000 1.000000
tan 0.000000 -0.935954 0.000000 1.000000
tan 0.000000 -1.000000 0.000000 1.000000
tan 0.000000 -0.919152 0.000000 1.000000
tan 0.000000 -0.950462 0.000000 1.000000
f 3/3/3 2/2/2 1/1/1
f 6/6/6 5/5/5 4/4/4
f 7/7/7 6/6/6 4/4/4
f 10/10/10 9/9/9 8/8/8
f 11/11/11 8/8/8 9/9/9
f 14/14/14 13/13/13 12/12/12
f 14/14/14 15/15/15 13/13/13
f 18/18/18 17/17/17 16/16/16
f 19/19/19 16/16/16 17/17/17
f 22/22/22 21/21/21 20/20/20
f 23/23/23 20/20/20 21/21/21
f 24/24/24 23/23/23 21/21/21
