mtllib SM_Frames_05.mtl
g SM_Frames_05
#Vertices 118
#Indices 270
#Section 0 Offset 0 NumIndices 270 MaterialIndex 0 MI_Frames
v 0.010006 0.336996 -0.135970
v -0.008005 0.334995 -0.134189
v 0.008005 0.334995 -0.134189
v 0.010006 0.336996 -0.135970
v -0.010006 0.336996 -0.135970
v 0.010006 0.336996 -0.135970
v -0.010006 0.370509 -0.165798
v 0.010006 0.370509 -0.165798
v -0.008005 0.372510 -0.167579
v 0.008005 0.372510 -0.167579
v 0.001768 0.337839 -0.136077
v 0.001768 0.036819 -0.136077
v 0.001768 0.337839 0.136219
v 0.001768 0.036819 0.136219
v -0.008005 -0.000000 -0.167579
v -0.008005 0.000000 0.167579
v 0.008005 0.000000 0.167579
v 0.008005 -0.000000 -0.167579
v 0.010006 0.002001 0.165793
v 0.010006 0.002001 -0.165798
v 0.010006 0.035514 0.135885
v 0.010006 0.035514 -0.135970
v 0.008005 0.037515 0.134100
v 0.008005 0.037515 -0.134189
v -0.008005 0.037515 0.134100
v -0.008005 0.037515 -0.134189
v -0.008005 0.372118 -0.169151
v -0.008005 -0.000000 -0.169151
v 0.008005 -0.000000 -0.169151
v 0.008005 0.372118 -0.169151
v 0.010006 0.002229 -0.167150
v 0.010006 0.369895 -0.167150
v 0.010006 0.034843 -0.137874
v 0.010006 0.337368 -0.137874
v 0.008005 0.037072 -0.135873
v 0.008005 0.335145 -0.135873
v -0.008005 0.037072 -0.135873
v -0.008005 0.335145 -0.135873
v -0.008005 0.372118 0.169151
v 0.010006 0.369895 0.167150
v 0.008005 0.372118 0.169151
v -0.010006 0.369895 0.167150
v 0.010006 0.337368 0.137874
v -0.010006 0.337368 0.137874
v -0.008005 0.335145 0.135873
v 0.008005 0.335145 0.135873
v -0.008005 0.037072 0.135873
v 0.010006 0.034843 0.137874
v 0.008005 0.037072 0.135873
v -0.010006 0.034843 0.137874
v 0.010006 0.002229 0.167150
v -0.010006 0.002229 0.167150
v -0.008005 -0.000000 0.169151
v 0.008005 -0.000000 0.169151
v 0.010006 0.002001 -0.165798
v -0.008005 -0.000000 -0.167579
v 0.008005 -0.000000 -0.167579
v -0.010006 0.002001 -0.165798
v 0.010006 0.035514 -0.135970
v -0.010006 0.035514 -0.135970
v -0.008005 0.037515 -0.134189
v 0.008005 0.037515 -0.134189
v 0.010006 0.035514 0.135885
v -0.008005 0.037515 0.134100
v 0.008005 0.037515 0.134100
v -0.010006 0.035514 0.135885
v 0.010006 0.002001 0.165793
v -0.010006 0.002001 0.165793
v -0.008005 0.000000 0.167579
v 0.008005 0.000000 0.167579
v 0.010006 0.369895 -0.167150
v -0.008005 0.372118 -0.169151
v 0.008005 0.372118 -0.169151
v -0.010006 0.369895 -0.167150
v 0.010006 0.337368 -0.137874
v -0.010006 0.337368 -0.137874
v -0.008005 0.335145 -0.135873
v 0.008005 0.335145 -0.135873
v 0.010006 0.034843 -0.137874
v -0.008005 0.037072 -0.135873
v 0.008005 0.037072 -0.135873
v -0.010006 0.034843 -0.137874
v 0.010006 0.002229 -0.167150
v -0.010006 0.002229 -0.167150
v -0.008005 -0.000000 -0.169151
v 0.008005 -0.000000 -0.169151
v -0.008005 0.334995 0.134100
v 0.010006 0.336996 0.135885
v 0.008005 0.334995 0.134100
v -0.010006 0.336996 0.135885
v 0.010006 0.370509 0.165793
v -0.010006 0.370509 0.165793
v -0.008005 0.372510 0.167579
v 0.008005 0.372510 0.167579
v -0.008005 -0.000000 0.169151
v -0.008005 0.372118 0.169151
v 0.008005 0.372118 0.169151
v 0.008005 -0.000000 0.169151
v 0.010006 0.002229 0.167150
v 0.010006 0.369895 0.167150
v 0.010006 0.034843 0.137874
v 0.010006 0.337368 0.137874
v 0.008005 0.037072 0.135873
v 0.008005 0.335145 0.135873
v -0.008005 0.335145 0.135873
v -0.008005 0.037072 0.135873
v 0.008005 0.372510 -0.167579
v -0.008005 0.372510 0.167579
v -0.008005 0.372510 -0.167579
v 0.008005 0.372510 0.167579
v 0.010006 0.370509 0.165793
v 0.010006 0.370509 -0.165798
v 0.010006 0.336996 0.135885
v 0.010006 0.336996 -0.135970
v 0.008005 0.334995 0.134100
v 0.008005 0.334995 -0.134189
v -0.008005 0.334995 -0.134189
v -0.008005 0.334995 0.134100
vt 0.348877 0.824463
vt 0.321533 0.824463
vt 0.348877 0.824463
vt 0.348877 0.824463
vt 0.321533 0.824463
vt 0.348877 0.824463
vt 0.321533 0.898315
vt 0.348877 0.898315
vt 0.321533 0.898315
vt 0.348877 0.898315
vt 0.501465 0.211914
vt 0.501465 0.000488
vt 0.692871 0.211914
vt 0.692871 0.000488
vt 0.910645 0.713623
vt 0.910645 0.475098
vt 0.921875 0.475098
vt 0.921875 0.713623
vt 0.923340 0.476562
vt 0.923340 0.712402
vt 0.947266 0.497559
vt 0.947266 0.691162
vt 0.948730 0.499023
vt 0.948730 0.689941
vt 0.959961 0.499023
vt 0.959961 0.689941
vt 0.153442 0.956848
vt 0.153442 0.691895
vt 0.164917 0.691895
vt 0.164917 0.956848
vt 0.166260 0.693359
vt 0.166260 0.955261
vt 0.187134 0.716553
vt 0.187134 0.932129
vt 0.188599 0.718262
vt 0.188599 0.930542
vt 0.199951 0.718262
vt 0.199951 0.930542
vt 0.321533 0.898315
vt 0.348877 0.898315
vt 0.348877 0.898315
vt 0.321533 0.898315
vt 0.348877 0.824463
vt 0.321533 0.824463
vt 0.321533 0.824463
vt 0.348877 0.824463
vt 0.321533 0.898315
vt 0.348877 0.898315
vt 0.348877 0.898315
vt 0.321533 0.898315
vt 0.348877 0.824463
vt 0.321533 0.824463
vt 0.321533 0.824463
vt 0.348877 0.824463
vt 0.348877 0.824463
vt 0.321533 0.824463
vt 0.348877 0.824463
vt 0.321533 0.824463
vt 0.348877 0.898315
vt 0.321533 0.898315
vt 0.321533 0.898315
vt 0.348877 0.898315
vt 0.348877 0.824463
vt 0.321533 0.824463
vt 0.348877 0.824463
vt 0.321533 0.824463
vt 0.348877 0.898315
vt 0.321533 0.898315
vt 0.321533 0.898315
vt 0.348877 0.898315
vt 0.321533 0.898315
vt 0.348877 0.898315
vt 0.321533 0.898315
vt 0.348877 0.898315
vt 0.321533 0.824463
vt 0.348877 0.824463
vt 0.348877 0.824463
vt 0.321533 0.824463
vt 0.321533 0.898315
vt 0.348877 0.898315
vt 0.321533 0.898315
vt 0.348877 0.898315
vt 0.321533 0.824463
vt 0.348877 0.824463
vt 0.348877 0.824463
vt 0.321533 0.824463
vt 0.321533 0.898315
vt 0.348877 0.898315
vt 0.348877 0.898315
vt 0.321533 0.898315
vt 0.348877 0.824463
vt 0.321533 0.824463
vt 0.321533 0.824463
vt 0.348877 0.824463
vt 0.560547 0.669678
vt 0.560547 0.934753
vt 0.549316 0.934753
vt 0.549316 0.669678
vt 0.547852 0.671387
vt 0.547852 0.933167
vt 0.526855 0.694580
vt 0.526855 0.909973
vt 0.525391 0.696045
vt 0.525391 0.908386
vt 0.514160 0.908386
vt 0.514160 0.696045
vt 0.700684 0.944519
vt 0.711914 0.706055
vt 0.711914 0.944519
vt 0.700684 0.706055
vt 0.699219 0.707275
vt 0.699219 0.943237
vt 0.675293 0.728516
vt 0.675293 0.921997
vt 0.673828 0.729736
vt 0.673828 0.920776
vt 0.662598 0.920776
vt 0.662598 0.729736
vt1 0.365234 0.395508
vt1 0.365234 0.356934
vt1 0.365234 0.395508
vt1 0.365234 0.395508
vt1 0.365234 0.356934
vt1 0.365234 0.395508
vt1 0.266113 0.356934
vt1 0.266113 0.395508
vt1 0.266113 0.356934
vt1 0.266113 0.395508
vt1 0.008064 0.991936
vt1 0.008064 0.412598
vt1 0.532227 0.991936
vt1 0.532227 0.412598
vt1 0.846680 0.991936
vt1 0.846680 0.346680
vt1 0.877930 0.346680
vt1 0.877930 0.991936
vt1 0.881836 0.350098
vt1 0.881836 0.988510
vt1 0.948242 0.407715
vt1 0.948242 0.931091
vt1 0.952148 0.411133
vt1 0.952148 0.927673
vt1 0.983398 0.411133
vt1 0.983398 0.927673
vt1 0.701172 0.991936
vt1 0.701172 0.275879
vt1 0.732910 0.275879
vt1 0.732910 0.991936
vt1 0.736816 0.279785
vt1 0.736816 0.987656
vt1 0.794922 0.342773
vt1 0.794922 0.925049
vt1 0.798828 0.347168
vt1 0.798828 0.920776
vt1 0.830078 0.347168
vt1 0.830078 0.920776
vt1 0.201538 0.137207
vt1 0.240112 0.137207
vt1 0.240112 0.137207
vt1 0.201538 0.137207
vt1 0.240112 0.039062
vt1 0.201538 0.039062
vt1 0.201538 0.039062
vt1 0.240112 0.039062
vt1 0.137085 0.137207
vt1 0.175537 0.137207
vt1 0.175537 0.137207
vt1 0.137085 0.137207
vt1 0.175537 0.039062
vt1 0.137085 0.039062
vt1 0.137085 0.039062
vt1 0.175537 0.039062
vt1 0.046570 0.038086
vt1 0.008064 0.038086
vt1 0.046570 0.038086
vt1 0.008064 0.038086
vt1 0.046570 0.137207
vt1 0.008064 0.137207
vt1 0.008064 0.137207
vt1 0.046570 0.137207
vt1 0.236450 0.395508
vt1 0.236450 0.356934
vt1 0.236450 0.395508
vt1 0.236450 0.356934
vt1 0.137085 0.395508
vt1 0.137085 0.356934
vt1 0.137085 0.356934
vt1 0.137085 0.395508
vt1 0.395020 0.356934
vt1 0.395020 0.395508
vt1 0.395020 0.356934
vt1 0.395020 0.395508
vt1 0.493164 0.356934
vt1 0.493164 0.395508
vt1 0.493164 0.395508
vt1 0.493164 0.356934
vt1 0.072571 0.137207
vt1 0.111084 0.137207
vt1 0.072571 0.137207
vt1 0.111084 0.137207
vt1 0.072571 0.039062
vt1 0.111084 0.039062
vt1 0.111084 0.039062
vt1 0.072571 0.039062
vt1 0.008064 0.356934
vt1 0.008064 0.395508
vt1 0.008064 0.395508
vt1 0.008064 0.356934
vt1 0.107422 0.395508
vt1 0.107422 0.356934
vt1 0.107422 0.356934
vt1 0.107422 0.395508
vt1 0.685059 0.275879
vt1 0.685059 0.991936
vt1 0.653320 0.991936
vt1 0.653320 0.275879
vt1 0.649414 0.279785
vt1 0.649414 0.987656
vt1 0.591797 0.342773
vt1 0.591797 0.925049
vt1 0.587891 0.347168
vt1 0.587891 0.920776
vt1 0.556152 0.920776
vt1 0.556152 0.347168
vt1 0.008064 0.193359
vt1 0.653320 0.161621
vt1 0.008064 0.161621
vt1 0.653320 0.193359
vt1 0.649902 0.197266
vt1 0.011490 0.197266
vt1 0.592285 0.263184
vt1 0.068909 0.263184
vt1 0.588867 0.267090
vt1 0.072327 0.267090
vt1 0.072327 0.298828
vt1 0.588867 0.298828
vn 0.000000 -0.661417 -0.748031
vn 0.000000 -0.661417 -0.748031
vn 0.000000 -0.661417 -0.748031
vn 0.000000 -0.661417 -0.748031
vn 0.000000 -0.661417 -0.748031
vn 0.000000 -0.661417 -0.748031
vn 0.000000 -0.661417 -0.748031
vn 0.000000 -0.661417 -0.748031
vn 0.000000 -0.661417 -0.748031
vn 0.000000 -0.661417 -0.748031
vn 1.000000 0.000000 0.000000
vn 1.000000 0.000000 0.000000
vn 1.000000 0.000000 0.000000
vn 1.000000 0.000000 0.000000
vn 0.000000 -1.000000 0.000000
vn 0.000000 -1.000000 0.000000
vn 0.070866 -1.000000 0.000000
vn 0.070866 -1.000000 0.000000
vn 0.992126 -0.141732 0.000000
vn 0.992126 -0.141732 0.000000
vn 1.000000 0.023622 -0.000000
vn 1.000000 0.023622 -0.000000
vn 0.141732 0.992126 -0.000000
vn 0.141732 0.992126 -0.000000
vn 0.000000 1.000000 -0.000000
vn 0.000000 1.000000 -0.000000
vn 0.000000 -0.000000 -1.000000
vn 0.000000 -0.000000 -1.000000
vn 0.062992 -0.000000 -1.000000
vn 0.062992 -0.000000 -1.000000
vn 0.984252 -0.000000 -0.181102
vn 0.984252 -0.000000 -0.181102
vn 1.000000 0.000000 0.023622
vn 1.000000 0.000000 0.023622
vn 0.149606 0.000000 0.992126
vn 0.149606 0.000000 0.992126
vn 0.000000 0.000000 1.000000
vn 0.000000 0.000000 1.000000
vn 0.000000 0.669291 -0.740157
vn 0.000000 0.669291 -0.740157
vn 0.000000 0.669291 -0.740157
vn 0.000000 0.669291 -0.740157
vn 0.000000 0.669291 -0.740157
vn 0.000000 0.669291 -0.740157
vn 0.000000 0.669291 -0.740157
vn 0.000000 0.669291 -0.740157
vn 0.000000 -0.669291 -0.748031
vn 0.000000 -0.669291 -0.748031
vn 0.000000 -0.669291 -0.748031
vn 0.000000 -0.669291 -0.748031
vn 0.000000 -0.669291 -0.748031
vn 0.000000 -0.669291 -0.748031
vn 0.000000 -0.669291 -0.748031
vn 0.000000 -0.669291 -0.748031
vn 0.000000 0.661417 -0.748031
vn 0.000000 0.661417 -0.748031
vn 0.000000 0.661417 -0.748031
vn 0.000000 0.661417 -0.748031
vn 0.000000 0.661417 -0.748031
vn 0.000000 0.661417 -0.748031
vn 0.000000 0.661417 -0.748031
vn 0.000000 0.661417 -0.748031
vn 0.000000 0.669291 0.748031
vn 0.000000 0.669291 0.748031
vn 0.000000 0.669291 0.748031
vn 0.000000 0.669291 0.748031
vn 0.000000 0.669291 0.748031
vn 0.000000 0.669291 0.748031
vn 0.000000 0.669291 0.748031
vn 0.000000 0.669291 0.748031
vn 0.000000 0.669291 0.740157
vn 0.000000 0.669291 0.740157
vn 0.000000 0.669291 0.740157
vn 0.000000 0.669291 0.740157
vn 0.000000 0.669291 0.740157
vn 0.000000 0.669291 0.740157
vn 0.000000 0.669291 0.740157
vn 0.000000 0.669291 0.740157
vn 0.000000 -0.669291 0.748031
vn 0.000000 -0.669291 0.748031
vn 0.000000 -0.669291 0.748031
vn 0.000000 -0.669291 0.748031
vn 0.000000 -0.669291 0.748031
vn 0.000000 -0.669291 0.748031
vn 0.000000 -0.669291 0.748031
vn 0.000000 -0.669291 0.748031
vn 0.000000 -0.669291 0.748031
vn 0.000000 -0.669291 0.748031
vn 0.000000 -0.669291 0.748031
vn 0.000000 -0.669291 0.748031
vn 0.000000 -0.669291 0.748031
vn 0.000000 -0.669291 0.748031
vn 0.000000 -0.669291 0.748031
vn 0.000000 -0.669291 0.748031
vn 0.000000 0.000000 1.000000
vn 0.000000 0.000000 1.000000
vn 0.062992 0.000000 1.000000
vn 0.062992 0.000000 1.000000
vn 0.984252 0.000000 0.181102
vn 0.984252 0.000000 0.181102
vn 1.000000 -0.000000 -0.023622
vn 1.000000 -0.000000 -0.023622
vn 0.149606 -0.000000 -0.992126
vn 0.149606 -0.000000 -0.992126
vn 0.000000 -0.000000 -1.000000
vn 0.000000 -0.000000 -1.000000
vn 0.070866 1.000000 -0.000000
vn 0.000000 1.000000 -0.000000
vn 0.000000 1.000000 -0.000000
vn 0.070866 1.000000 -0.000000
vn 0.992126 0.141732 -0.000000
vn 0.992126 0.141732 -0.000000
vn 1.000000 -0.023622 0.000000
vn 1.000000 -0.023622 0.000000
vn 0.141732 -0.992126 0.000000
vn 0.141732 -0.992126 0.000000
vn 0.000000 -1.000000 0.000000
vn 0.000000 -1.000000 0.000000
tan 0.144956 -0.742141 0.656209 1.000000
tan 0.417881 -0.677351 0.598921 1.000000
tan 0.801786 -0.447641 0.395809 1.000000
tan -0.144956 0.742141 -0.656209 1.000000
tan 0.127968 -0.742141 0.656209 1.000000
tan 0.000000 -0.748031 0.661417 1.000000
tan 0.144956 -0.742141 0.656209 1.000000
tan 0.902350 0.323951 -0.286441 1.000000
tan -0.801786 0.447641 -0.395809 1.000000
tan -0.907558 0.312171 -0.276025 1.000000
tan 0.000000 -1.000000 0.000000 1.000000
tan 0.000000 -1.000000 0.000000 1.000000
tan 0.000000 -1.000000 0.000000 1.000000
tan 0.000000 -1.000000 0.000000 1.000000
tan 0.000000 0.000000 1.000000 1.000000
tan 0.000000 0.000000 1.000000 1.000000
tan 0.000000 0.000000 1.005022 1.000000
tan 0.000000 0.000000 1.005022 1.000000
tan 0.000000 0.000000 1.004402 1.000000
tan 0.000000 0.000000 1.004402 1.000000
tan 0.000000 0.000000 1.000558 1.000000
tan 0.000000 0.000000 1.000558 1.000000
tan 0.000000 0.000000 1.004402 1.000000
tan 0.000000 0.000000 1.004402 1.000000
tan 0.000000 0.000000 1.000000 1.000000
tan 0.000000 0.000000 1.000000 1.000000
tan 0.000000 -1.000000 0.000000 1.000000
tan 0.000000 -1.000000 0.000000 1.000000
tan 0.000000 -1.003968 0.000000 1.000000
tan 0.000000 -1.003968 0.000000 1.000000
tan 0.000000 -1.001550 0.000000 1.000000
tan 0.000000 -1.001550 0.000000 1.000000
tan 0.000000 -1.000558 0.000000 1.000000
tan 0.000000 -1.000558 0.000000 1.000000
tan 0.000000 -1.006696 0.000000 1.000000
tan 0.000000 -1.006696 0.000000 1.000000
tan 0.000000 -1.000000 0.000000 1.000000
tan 0.000000 -1.000000 0.000000 1.000000
tan -0.828756 0.413789 0.374171 1.000000
tan 0.984686 -0.122388 -0.110670 1.000000
tan -0.895902 0.320541 0.289851 1.000000
tan 0.161200 -0.728501 -0.658751 1.000000
tan -0.084320 0.734329 0.664021 1.000000
tan 0.122636 -0.734329 -0.664021 1.000000
tan 0.422841 -0.670221 -0.606051 1.000000
tan 0.828756 -0.413789 -0.374171 1.000000
tan -0.839482 0.418191 -0.374171 1.000000
tan 0.985182 -0.135470 0.121210 1.000000
tan -0.901172 0.323951 -0.289851 1.000000
tan 0.168020 -0.736251 0.658751 1.000000
tan 0.055800 0.000000 0.000000 1.000000
tan 0.123380 -0.742141 0.664021 1.000000
tan 0.425321 -0.677351 0.606051 1.000000
tan 0.839482 -0.418191 0.374171 1.000000
tan 0.991134 -0.100130 -0.088536 1.000000
tan 0.000000 -0.748031 -0.661417 1.000000
tan 0.801786 -0.447641 -0.395809 1.000000
tan -0.512555 -0.642011 -0.567673 1.000000
tan 0.852068 -0.382851 -0.338521 1.000000
tan -0.746295 -0.494761 -0.437473 1.000000
tan -0.618327 -0.583111 -0.515593 1.000000
tan 0.000000 0.748031 0.661417 1.000000
tan 0.996342 0.100130 -0.089590 1.000000
tan 0.000000 0.748031 -0.669291 1.000000
tan 0.806002 0.447641 -0.400521 1.000000
tan -0.515221 0.642011 -0.574431 1.000000
tan 0.861802 0.382851 -0.342551 1.000000
tan -0.755471 0.494761 -0.442681 1.000000
tan -0.626821 0.583111 -0.521731 1.000000
tan 0.000000 -0.748031 0.669291 1.000000
tan 0.751069 -0.489553 0.442681 1.000000
tan 0.000000 0.740157 -0.669291 1.000000
tan 0.634261 -0.571145 0.516461 1.000000
tan -0.834584 -0.402133 0.363631 1.000000
tan 0.539649 -0.623597 0.563891 1.000000
tan -0.990514 -0.093248 0.084320 1.000000
tan -0.828756 -0.413789 0.374171 1.000000
tan 0.000000 -0.740157 0.669291 1.000000
tan 0.755471 -0.494761 -0.442681 1.000000
tan 0.000000 0.748031 0.669291 1.000000
tan 0.637981 -0.577221 -0.516461 1.000000
tan -0.839482 -0.406411 -0.363631 1.000000
tan 0.542811 -0.630231 -0.563891 1.000000
tan -0.996342 -0.094240 -0.084320 1.000000
tan -0.839482 -0.418191 -0.374171 1.000000
tan 0.000000 -0.748031 -0.669291 1.000000
tan -0.806002 -0.447641 -0.400521 1.000000
tan 0.912332 -0.306281 -0.274040 1.000000
tan -0.912332 -0.312171 -0.279310 1.000000
tan 0.145700 0.742141 0.664021 1.000000
tan -0.371071 0.000000 0.000000 1.000000
tan 0.128650 0.742141 0.664021 1.000000
tan 0.420051 0.677351 0.606051 1.000000
tan 0.806002 0.447641 0.400521 1.000000
tan 0.000000 -1.000000 0.000000 1.000000
tan 0.000000 -1.000000 0.000000 1.000000
tan 0.000000 -1.003968 0.000000 1.000000
tan 0.000000 -1.003968 0.000000 1.000000
tan 0.000000 -1.001550 0.000000 1.000000
tan 0.000000 -1.001550 0.000000 1.000000
tan 0.000000 -1.000558 0.000000 1.000000
tan 0.000000 -1.000558 0.000000 1.000000
tan 0.000000 -1.006696 0.000000 1.000000
tan 0.000000 -1.006696 0.000000 1.000000
tan 0.000000 -1.000000 0.000000 1.000000
tan 0.000000 -1.000000 0.000000 1.000000
tan 0.000000 0.000000 1.005022 1.000000
tan 0.000000 0.000000 1.000000 1.000000
tan 0.000000 0.000000 1.000000 1.000000
tan 0.000000 0.000000 1.005022 1.000000
tan 0.000000 0.000000 1.004402 1.000000
tan 0.000000 0.000000 1.004402 1.000000
tan 0.000000 0.000000 1.000558 1.000000
tan 0.000000 0.000000 1.000558 1.000000
tan 0.000000 0.000000 1.004402 1.000000
tan 0.000000 0.000000 1.004402 1.000000
tan 0.000000 0.000000 1.000000 1.000000
tan 0.000000 0.000000 1.000000 1.000000
f 3/3/3 2/2/2 1/1/1
f 5/5/5 4/4/4 2/2/2
f 5/5/5 7/7/7 6/6/6
f 6/6/6 7/7/7 8/8/8
f 9/9/9 8/8/8 7/7/7
f 10/10/10 8/8/8 9/9/9
f 13/13/13 12/12/12 11/11/11
f 13/13/13 14/14/14 12/12/12
f 17/17/17 16/16/16 15/15/15
f 15/15/15 18/18/18 17/17/17
f 17/17/17 18/18/18 19/19/19
f 20/20/20 19/19/19 18/18/18
f 21/21/21 19/19/19 20/20/20
f 22/22/22 21/21/21 20/20/20
f 21/21/21 22/22/22 23/23/23
f 24/24/24 23/23/23 22/22/22
f 23/23/23 24/24/24 25/25/25
f 26/26/26 25/25/25 24/24/24
f 29/29/29 28/28/28 27/27/27
f 27/27/27 30/30/30 29/29/29
f 29/29/29 30/30/30 31/31/31
f 32/32/32 31/31/31 30/30/30
f 31/31/31 32/32/32 33/33/33
f 34/34/34 33/33/33 32/32/32
f 33/33/33 34/34/34 35/35/35
f 36/36/36 35/35/35 34/34/34
f 37/37/37 35/35/35 36/36/36
f 36/36/36 38/38/38 37/37/37
f 41/41/41 40/40/40 39/39/39
f 39/39/39 40/40/40 42/42/42
f 43/43/43 42/42/42 40/40/40
f 44/44/44 42/42/42 43/43/43
f 45/45/45 44/44/44 43/43/43
f 46/46/46 45/45/45 43/43/43
f 49/49/49 48/48/48 47/47/47
f 47/47/47 48/48/48 50/50/50
f 51/51/51 50/50/50 48/48/48
f 52/52/52 50/50/50 51/51/51
f 53/53/53 52/52/52 51/51/51
f 54/54/54 53/53/53 51/51/51
f 57/57/57 56/56/56 55/55/55
f 58/58/58 55/55/55 56/56/56
f 55/55/55 58/58/58 59/59/59
f 58/58/58 60/60/60 59/59/59
f 61/61/61 59/59/59 60/60/60
f 62/62/62 59/59/59 61/61/61
f 65/65/65 64/64/64 63/63/63
f 66/66/66 63/63/63 64/64/64
f 63/63/63 66/66/66 67/67/67
f 66/66/66 68/68/68 67/67/67
f 69/69/69 67/67/67 68/68/68
f 70/70/70 67/67/67 69/69/69
f 73/73/73 72/72/72 71/71/71
f 74/74/74 71/71/71 72/72/72
f 71/71/71 74/74/74 75/75/75
f 74/74/74 76/76/76 75/75/75
f 77/77/77 75/75/75 76/76/76
f 78/78/78 75/75/75 77/77/77
f 81/81/81 80/80/80 79/79/79
f 82/82/82 79/79/79 80/80/80
f 79/79/79 82/82/82 83/83/83
f 82/82/82 84/84/84 83/83/83
f 85/85/85 83/83/83 84/84/84
f 86/86/86 83/83/83 85/85/85
f 89/89/89 88/88/88 87/87/87
f 87/87/87 88/88/88 90/90/90
f 91/91/91 90/90/90 88/88/88
f 92/92/92 90/90/90 91/91/91
f 93/93/93 92/92/92 91/91/91
f 94/94/94 93/93/93 91/91/91
f 97/97/97 96/96/96 95/95/95
f 95/95/95 98/98/98 97/97/97
f 99/99/99 97/97/97 98/98/98
f 100/100/100 97/97/97 99/99/99
f 99/99/99 101/101/101 100/100/100
f 102/102/102 100/100/100 101/101/101
f 101/101/101 103/103/103 102/102/102
f 104/104/104 102/102/102 103/103/103
f 105/105/105 104/104/104 103/103/103
f 103/103/103 106/106/106 105/105/105
f 109/109/109 108/108/108 107/107/107
f 110/110/110 107/107/107 108/108/108
f 110/110/110 111/111/111 107/107/107
f 112/112/112 107/107/107 111/111/111
f 111/111/111 113/113/113 112/112/112
f 114/114/114 112/112/112 113/113/113
f 115/115/115 114/114/114 113/113/113
f 116/116/116 114/114/114 115/115/115
f 117/117/117 116/116/116 115/115/115
f 115/115/115 118/118/118 117/117/117
