mtllib SM_Fence_09_LOD4.mtl
g SM_Fence_09_LOD4
#Vertices 12
#Indices 12
#Section 0 Offset 0 NumIndices 12 MaterialIndex 0 MI_Fences
v -0.036869 -0.029350 0.067336
v 0.074241 1.117350 0.014049
v 0.015456 -0.036798 -0.072178
v -0.036869 -0.029350 0.067336
v -0.084148 1.108213 -0.002998
v 0.074241 1.117350 0.014049
v 0.015456 -0.036798 -0.072178
v -0.084148 1.108213 -0.002998
v -0.036869 -0.029350 0.067336
v -0.084148 1.108213 -0.002998
v 0.015456 -0.036798 -0.072178
v 0.074241 1.117350 0.014049
vt 0.331299 -0.010742
vt 0.305176 0.479004
vt 0.277100 -0.013672
vt 0.332764 0.475098
vt 0.311279 -0.009766
vt 0.366455 -0.014648
vt 0.406982 -0.013672
vt 0.377930 0.475098
vt 0.354248 -0.009766
vt 0.391846 0.475586
vt 0.429443 -0.012695
vt 0.437988 0.479004
vt1 -0.019424 0.480957
vt1 1.026367 0.424805
vt1 -0.025604 0.364746
vt1 -0.018387 0.128906
vt1 1.017578 0.082520
vt1 1.027344 0.200684
vt1 1.025391 0.367188
vt1 -0.018311 0.305176
vt1 1.018555 0.254883
vt1 -0.019226 0.157227
vt1 1.024414 0.237305
vt1 -0.027298 0.255859
vn 0.299213 -0.007874 0.952756
vn 0.984252 -0.007874 0.157480
vn 0.535433 -0.007874 -0.842520
vn -0.322835 -0.007874 0.944882
vn -0.787402 -0.007874 0.622047
vn 0.779528 -0.007874 0.629921
vn -0.346457 -0.007874 -0.937008
vn -1.000000 -0.007874 0.031496
vn -0.527559 -0.007874 0.850394
vn -0.803150 -0.007874 -0.598425
vn 0.527559 -0.007874 -0.850394
vn 0.661417 -0.007874 -0.748031
tan 0.952756 -0.007502 -0.299275 1.000000
tan 0.157480 -0.000000 -0.984252 1.000000
tan -0.842520 -0.000000 -0.535433 1.000000
tan -0.944882 -0.000000 -0.322835 1.000000
tan -0.622047 -0.000000 -0.787401 1.000000
tan -0.629921 0.000000 0.779527 1.000000
tan -0.937008 -0.007378 0.346519 1.000000
tan 0.031496 0.000000 1.000000 1.000000
tan 0.850394 0.000000 0.527559 1.000000
tan -0.598425 0.000000 0.803149 1.000000
tan -0.850394 -0.000000 -0.527559 1.000000
tan -0.748031 -0.000000 -0.661417 1.000000
f 3/3/3 2/2/2 1/1/1
f 6/6/6 5/5/5 4/4/4
f 9/9/9 8/8/8 7/7/7
f 12/12/12 11/11/11 10/10/10
