mtllib SM_Frames_02.mtl
g SM_Frames_02
#Vertices 116
#Indices 270
#Section 0 Offset 0 NumIndices 270 MaterialIndex 0 MI_Frames
v 0.001768 0.372226 0.320850
v 0.001768 0.372225 -0.320696
v 0.001768 0.036819 -0.320696
v 0.001768 0.036819 0.320850
v -0.008005 -0.000000 -0.355001
v -0.008005 0.000000 0.355001
v 0.008005 0.000000 0.355001
v 0.008005 -0.000000 -0.355001
v 0.010006 0.002001 0.353056
v 0.010006 0.002001 -0.353061
v 0.010006 0.035514 0.320487
v 0.010006 0.035514 -0.320578
v 0.008005 0.037515 0.318542
v 0.008005 0.037515 -0.318639
v -0.008005 0.037515 0.318542
v -0.008005 0.037515 -0.318639
v -0.008005 0.406505 -0.356712
v -0.008005 -0.000000 -0.356712
v 0.008005 -0.000000 -0.356712
v 0.008005 0.406505 -0.356712
v 0.010006 0.002229 -0.354533
v 0.010006 0.404282 -0.354533
v 0.010006 0.034843 -0.322652
v 0.010006 0.371755 -0.322652
v 0.008005 0.037072 -0.320473
v 0.008005 0.369532 -0.320473
v -0.008005 0.037072 -0.320473
v -0.008005 0.369532 -0.320473
v -0.008005 0.406897 -0.355001
v 0.010006 0.404896 -0.353062
v 0.008005 0.406897 -0.355001
v -0.010006 0.404896 -0.353062
v 0.010006 0.371383 -0.320578
v -0.010006 0.371383 -0.320578
v -0.008005 0.369382 -0.318639
v 0.008005 0.369382 -0.318639
v -0.008005 0.369382 0.318542
v 0.010006 0.371383 0.320487
v 0.008005 0.369382 0.318542
v -0.010006 0.371383 0.320487
v 0.010006 0.404896 0.353056
v -0.010006 0.404896 0.353056
v -0.008005 0.406897 0.355001
v 0.008005 0.406897 0.355001
v 0.010006 0.002001 -0.353061
v -0.008005 -0.000000 -0.355001
v 0.008005 -0.000000 -0.355001
v -0.010006 0.002001 -0.353061
v 0.010006 0.035514 -0.320578
v -0.010006 0.035514 -0.320578
v -0.008005 0.037515 -0.318639
v 0.008005 0.037515 -0.318639
v 0.010006 0.035514 0.320487
v -0.008005 0.037515 0.318542
v 0.008005 0.037515 0.318542
v -0.010006 0.035514 0.320487
v 0.010006 0.002001 0.353056
v -0.010006 0.002001 0.353056
v -0.008005 0.000000 0.355001
v 0.008005 0.000000 0.355001
v -0.008005 0.406505 0.356712
v 0.010006 0.404282 0.354533
v 0.008005 0.406505 0.356712
v -0.010006 0.404282 0.354533
v 0.010006 0.371755 0.322652
v -0.010006 0.371755 0.322652
v -0.008005 0.369532 0.320473
v 0.008005 0.369532 0.320473
v -0.008005 0.037072 0.320474
v 0.010006 0.034843 0.322652
v 0.008005 0.037072 0.320474
v -0.010006 0.034843 0.322652
v 0.010006 0.002229 0.354533
v -0.010006 0.002229 0.354533
v -0.008005 0.000000 0.356712
v 0.008005 0.000000 0.356712
v 0.010006 0.404282 -0.354533
v -0.008005 0.406505 -0.356712
v 0.008005 0.406505 -0.356712
v -0.010006 0.404282 -0.354533
v 0.010006 0.371755 -0.322652
v -0.010006 0.371755 -0.322652
v -0.008005 0.369532 -0.320473
v 0.008005 0.369532 -0.320473
v 0.010006 0.034843 -0.322652
v -0.008005 0.037072 -0.320473
v 0.008005 0.037072 -0.320473
v -0.010006 0.034843 -0.322652
v 0.010006 0.002229 -0.354533
v -0.010006 0.002229 -0.354533
v -0.008005 -0.000000 -0.356712
v 0.008005 -0.000000 -0.356712
v 0.008005 0.406897 -0.355001
v -0.008005 0.406897 0.355001
v -0.008005 0.406897 -0.355001
v 0.008005 0.406897 0.355001
v 0.010006 0.404896 0.353056
v 0.010006 0.404896 -0.353062
v 0.010006 0.371383 0.320487
v 0.010006 0.371383 -0.320578
v 0.008005 0.369382 0.318542
v 0.008005 0.369382 -0.318639
v -0.008005 0.369382 -0.318639
v -0.008005 0.369382 0.318542
v -0.008005 0.000000 0.356712
v -0.008005 0.406505 0.356712
v 0.008005 0.406505 0.356712
v 0.008005 0.000000 0.356712
v 0.010006 0.002229 0.354533
v 0.010006 0.404282 0.354533
v 0.010006 0.034843 0.322652
v 0.010006 0.371755 0.322652
v 0.008005 0.037072 0.320474
v 0.008005 0.369532 0.320473
v -0.008005 0.369532 0.320473
v -0.008005 0.037072 0.320474
vt 0.496826 0.000488
vt 0.496826 0.451660
vt 0.260742 0.451660
vt 0.260742 0.000488
vt 0.823730 0.505615
vt 0.823730 0.000488
vt 0.834961 0.000488
vt 0.834961 0.505615
vt 0.836426 0.001465
vt 0.836426 0.504150
vt 0.860352 0.024902
vt 0.860352 0.481445
vt 0.861816 0.026367
vt 0.861816 0.479980
vt 0.873047 0.026367
vt 0.873047 0.479980
vt 0.877441 0.289551
vt 0.877441 0.000488
vt 0.888672 0.000488
vt 0.888672 0.289551
vt 0.890137 0.001953
vt 0.890137 0.288086
vt 0.913086 0.024902
vt 0.913086 0.264648
vt 0.914551 0.026855
vt 0.914551 0.263184
vt 0.925781 0.026855
vt 0.925781 0.263184
vt 0.321533 0.898315
vt 0.348877 0.898315
vt 0.348877 0.898315
vt 0.321533 0.898315
vt 0.348877 0.824463
vt 0.321533 0.824463
vt 0.321533 0.824463
vt 0.348877 0.824463
vt 0.321533 0.898315
vt 0.348877 0.898315
vt 0.348877 0.898315
vt 0.321533 0.898315
vt 0.348877 0.824463
vt 0.321533 0.824463
vt 0.321533 0.824463
vt 0.348877 0.824463
vt 0.321533 0.898315
vt 0.348877 0.898315
vt 0.321533 0.898315
vt 0.348877 0.898315
vt 0.321533 0.824463
vt 0.348877 0.824463
vt 0.348877 0.824463
vt 0.321533 0.824463
vt 0.321533 0.898315
vt 0.348877 0.898315
vt 0.321533 0.898315
vt 0.348877 0.898315
vt 0.321533 0.824463
vt 0.348877 0.824463
vt 0.348877 0.824463
vt 0.321533 0.824463
vt 0.321533 0.898315
vt 0.348877 0.898315
vt 0.348877 0.898315
vt 0.321533 0.898315
vt 0.348877 0.824463
vt 0.321533 0.824463
vt 0.321533 0.824463
vt 0.348877 0.824463
vt 0.321533 0.898315
vt 0.348877 0.898315
vt 0.348877 0.898315
vt 0.321533 0.898315
vt 0.348877 0.824463
vt 0.321533 0.824463
vt 0.321533 0.824463
vt 0.348877 0.824463
vt 0.348877 0.824463
vt 0.321533 0.824463
vt 0.348877 0.824463
vt 0.321533 0.824463
vt 0.348877 0.898315
vt 0.321533 0.898315
vt 0.321533 0.898315
vt 0.348877 0.898315
vt 0.348877 0.824463
vt 0.321533 0.824463
vt 0.348877 0.824463
vt 0.321533 0.824463
vt 0.348877 0.898315
vt 0.321533 0.898315
vt 0.321533 0.898315
vt 0.348877 0.898315
vt 0.808105 0.505615
vt 0.819336 0.000488
vt 0.819336 0.505615
vt 0.808105 0.000488
vt 0.806641 0.001465
vt 0.806641 0.504150
vt 0.782715 0.024902
vt 0.782715 0.481445
vt 0.781250 0.026367
vt 0.781250 0.479980
vt 0.770020 0.479980
vt 0.770020 0.026367
vt 0.404053 0.665039
vt 0.404053 0.954315
vt 0.392578 0.954315
vt 0.392578 0.665039
vt 0.391113 0.666748
vt 0.391113 0.952728
vt 0.368408 0.689941
vt 0.368408 0.929565
vt 0.366943 0.691406
vt 0.366943 0.928040
vt 0.355469 0.928040
vt 0.355469 0.691406
vt1 0.505859 0.040039
vt1 0.505859 0.991936
vt1 0.008064 0.991936
vt1 0.008064 0.040039
vt1 0.523926 0.991936
vt1 0.523926 0.008301
vt1 0.545898 0.008301
vt1 0.545898 0.991936
vt1 0.548828 0.011230
vt1 0.548828 0.989250
vt1 0.595215 0.056152
vt1 0.595215 0.944244
vt1 0.598145 0.058594
vt1 0.598145 0.941559
vt1 0.620117 0.058594
vt1 0.620117 0.941559
vt1 0.750000 0.991936
vt1 0.750000 0.388672
vt1 0.773926 0.388672
vt1 0.773926 0.991936
vt1 0.777344 0.392090
vt1 0.777344 0.988640
vt1 0.825684 0.440430
vt1 0.825684 0.940369
vt1 0.829102 0.443848
vt1 0.829102 0.937073
vt1 0.853516 0.443848
vt1 0.853516 0.937073
vt1 0.911133 0.333496
vt1 0.911133 0.363281
vt1 0.911133 0.363281
vt1 0.911133 0.333496
vt1 0.990723 0.363281
vt1 0.990723 0.333496
vt1 0.990723 0.333496
vt1 0.990723 0.363281
vt1 0.814453 0.365723
vt1 0.814453 0.395508
vt1 0.814453 0.395508
vt1 0.814453 0.365723
vt1 0.894043 0.395508
vt1 0.894043 0.365723
vt1 0.894043 0.365723
vt1 0.894043 0.395508
vt1 0.750000 0.266602
vt1 0.779297 0.266602
vt1 0.750000 0.266602
vt1 0.779297 0.266602
vt1 0.750000 0.187012
vt1 0.779297 0.187012
vt1 0.779297 0.187012
vt1 0.750000 0.187012
vt1 0.750000 0.363281
vt1 0.779297 0.363281
vt1 0.750000 0.363281
vt1 0.779297 0.363281
vt1 0.750000 0.283691
vt1 0.779297 0.283691
vt1 0.779297 0.283691
vt1 0.750000 0.283691
vt1 0.895020 0.285156
vt1 0.895020 0.314941
vt1 0.895020 0.314941
vt1 0.895020 0.285156
vt1 0.973633 0.314941
vt1 0.973633 0.285156
vt1 0.973633 0.285156
vt1 0.973633 0.314941
vt1 0.750000 0.169434
vt1 0.779297 0.169434
vt1 0.779297 0.169434
vt1 0.750000 0.169434
vt1 0.779297 0.090820
vt1 0.750000 0.090820
vt1 0.750000 0.090820
vt1 0.779297 0.090820
vt1 0.827637 0.220215
vt1 0.798340 0.220215
vt1 0.827637 0.220215
vt1 0.798340 0.220215
vt1 0.827637 0.298828
vt1 0.798340 0.298828
vt1 0.798340 0.298828
vt1 0.827637 0.298828
vt1 0.876953 0.347168
vt1 0.876953 0.317383
vt1 0.876953 0.347168
vt1 0.876953 0.317383
vt1 0.798340 0.347168
vt1 0.798340 0.317383
vt1 0.798340 0.317383
vt1 0.798340 0.347168
vt1 0.710938 0.991936
vt1 0.733398 0.008301
vt1 0.733398 0.991936
vt1 0.710938 0.008301
vt1 0.708008 0.011230
vt1 0.708008 0.989250
vt1 0.661621 0.056152
vt1 0.661621 0.944244
vt1 0.659180 0.058594
vt1 0.659180 0.941559
vt1 0.636719 0.941559
vt1 0.636719 0.058594
vt1 0.982422 0.388672
vt1 0.982422 0.991936
vt1 0.958008 0.991936
vt1 0.958008 0.388672
vt1 0.954590 0.392090
vt1 0.954590 0.988640
vt1 0.906250 0.440430
vt1 0.906250 0.940369
vt1 0.903320 0.443848
vt1 0.903320 0.937073
vt1 0.878906 0.937073
vt1 0.878906 0.443848
vn 1.000000 0.000000 0.000000
vn 1.000000 0.000000 0.000000
vn 1.000000 0.000000 0.000000
vn 1.000000 0.000000 0.000000
vn 0.000000 -1.000000 0.000000
vn 0.000000 -1.000000 0.000000
vn 0.070866 -1.000000 0.000000
vn 0.070866 -1.000000 0.000000
vn 0.992126 -0.141732 0.000000
vn 0.992126 -0.141732 0.000000
vn 1.000000 0.023622 -0.000000
vn 1.000000 0.023622 -0.000000
vn 0.149606 0.992126 -0.000000
vn 0.149606 0.992126 -0.000000
vn 0.000000 1.000000 -0.000000
vn 0.000000 1.000000 -0.000000
vn 0.000000 -0.000000 -1.000000
vn 0.000000 -0.000000 -1.000000
vn 0.070866 -0.000000 -1.000000
vn 0.070866 -0.000000 -1.000000
vn 0.984252 -0.000000 -0.157480
vn 0.984252 -0.000000 -0.157480
vn 1.000000 0.000000 0.023622
vn 1.000000 0.000000 0.023622
vn 0.165354 0.000000 0.984252
vn 0.165354 0.000000 0.984252
vn 0.000000 0.000000 1.000000
vn 0.000000 0.000000 1.000000
vn 0.000000 -0.692913 -0.716535
vn 0.000000 -0.692913 -0.716535
vn 0.000000 -0.692913 -0.716535
vn 0.000000 -0.692913 -0.716535
vn 0.000000 -0.692913 -0.716535
vn 0.000000 -0.692913 -0.716535
vn 0.000000 -0.692913 -0.716535
vn 0.000000 -0.692913 -0.716535
vn 0.000000 -0.700787 0.716535
vn 0.000000 -0.700787 0.716535
vn 0.000000 -0.700787 0.716535
vn 0.000000 -0.700787 0.716535
vn 0.000000 -0.700787 0.716535
vn 0.000000 -0.700787 0.716535
vn 0.000000 -0.700787 0.716535
vn 0.000000 -0.700787 0.716535
vn 0.000000 0.692913 -0.716535
vn 0.000000 0.692913 -0.716535
vn 0.000000 0.692913 -0.716535
vn 0.000000 0.692913 -0.716535
vn 0.000000 0.692913 -0.716535
vn 0.000000 0.692913 -0.716535
vn 0.000000 0.692913 -0.716535
vn 0.000000 0.692913 -0.716535
vn 0.000000 0.700787 0.716535
vn 0.000000 0.700787 0.716535
vn 0.000000 0.700787 0.716535
vn 0.000000 0.700787 0.716535
vn 0.000000 0.700787 0.716535
vn 0.000000 0.700787 0.716535
vn 0.000000 0.700787 0.716535
vn 0.000000 0.700787 0.716535
vn 0.000000 0.700787 -0.716535
vn 0.000000 0.700787 -0.716535
vn 0.000000 0.700787 -0.716535
vn 0.000000 0.700787 -0.716535
vn 0.000000 0.700787 -0.716535
vn 0.000000 0.700787 -0.716535
vn 0.000000 0.700787 -0.716535
vn 0.000000 0.700787 -0.716535
vn 0.000000 -0.700787 -0.716535
vn 0.000000 -0.700787 -0.716535
vn 0.000000 -0.700787 -0.716535
vn 0.000000 -0.700787 -0.716535
vn 0.000000 -0.700787 -0.716535
vn 0.000000 -0.700787 -0.716535
vn 0.000000 -0.700787 -0.716535
vn 0.000000 -0.700787 -0.716535
vn 0.000000 0.700787 0.716535
vn 0.000000 0.700787 0.716535
vn 0.000000 0.700787 0.716535
vn 0.000000 0.700787 0.716535
vn 0.000000 0.700787 0.716535
vn 0.000000 0.700787 0.716535
vn 0.000000 0.700787 0.716535
vn 0.000000 0.700787 0.716535
vn 0.000000 -0.700787 0.716535
vn 0.000000 -0.700787 0.716535
vn 0.000000 -0.700787 0.716535
vn 0.000000 -0.700787 0.716535
vn 0.000000 -0.700787 0.716535
vn 0.000000 -0.700787 0.716535
vn 0.000000 -0.700787 0.716535
vn 0.000000 -0.700787 0.716535
vn 0.070866 1.000000 -0.000000
vn 0.000000 1.000000 -0.000000
vn 0.000000 1.000000 -0.000000
vn 0.070866 1.000000 -0.000000
vn 0.992126 0.141732 -0.000000
vn 0.992126 0.141732 -0.000000
vn 1.000000 -0.023622 0.000000
vn 1.000000 -0.023622 0.000000
vn 0.149606 -0.992126 0.000000
vn 0.149606 -0.992126 0.000000
vn 0.000000 -1.000000 0.000000
vn 0.000000 -1.000000 0.000000
vn 0.000000 0.000000 1.000000
vn 0.000000 0.000000 1.000000
vn 0.070866 0.000000 1.000000
vn 0.070866 0.000000 1.000000
vn 0.984252 0.000000 0.157480
vn 0.984252 0.000000 0.157480
vn 1.000000 -0.000000 -0.023622
vn 1.000000 -0.000000 -0.023622
vn 0.165354 -0.000000 -0.984252
vn 0.165354 -0.000000 -0.984252
vn 0.000000 -0.000000 -1.000000
vn 0.000000 -0.000000 -1.000000
tan 0.000000 0.000000 1.000000 1.000000
tan 0.000000 0.000000 1.000000 1.000000
tan 0.000000 0.000000 1.000000 1.000000
tan 0.000000 0.000000 1.000000 1.000000
tan 0.000000 0.000000 1.000000 1.000000
tan 0.000000 0.000000 1.000000 1.000000
tan 0.000000 0.000000 1.005022 1.000000
tan 0.000000 0.000000 1.005022 1.000000
tan 0.000000 0.000000 1.004402 1.000000
tan 0.000000 0.000000 1.004402 1.000000
tan 0.000000 0.000000 1.000558 1.000000
tan 0.000000 0.000000 1.000558 1.000000
tan 0.000000 0.000000 1.006696 1.000000
tan 0.000000 0.000000 1.006696 1.000000
tan 0.000000 0.000000 1.000000 1.000000
tan 0.000000 0.000000 1.000000 1.000000
tan 0.000000 -1.000000 0.000000 1.000000
tan 0.000000 -1.000000 0.000000 1.000000
tan 0.000000 -1.005022 0.000000 1.000000
tan 0.000000 -1.005022 0.000000 1.000000
tan 0.000000 -0.993552 0.000000 1.000000
tan 0.000000 -0.993552 0.000000 1.000000
tan 0.000000 -1.000558 0.000000 1.000000
tan 0.000000 -1.000558 0.000000 1.000000
tan 0.000000 -0.996094 0.000000 1.000000
tan 0.000000 -0.996094 0.000000 1.000000
tan 0.000000 -1.000000 0.000000 1.000000
tan 0.000000 -1.000000 0.000000 1.000000
tan -0.810342 0.417509 -0.403745 1.000000
tan 0.971356 -0.163618 0.158224 1.000000
tan -0.910224 0.293385 -0.283713 1.000000
tan 0.155372 -0.710893 0.687457 1.000000
tan 0.177568 -0.705251 0.682001 1.000000
tan 0.133176 -0.710893 0.687457 1.000000
tan 0.427367 -0.648831 0.627441 1.000000
tan 0.810342 -0.417509 0.403745 1.000000
tan -0.814806 -0.417509 -0.408333 1.000000
tan 0.971046 0.174902 0.171058 1.000000
tan -0.915246 -0.293385 -0.286937 1.000000
tan 0.156240 0.710893 0.695269 1.000000
tan -0.716535 0.000000 0.000000 1.000000
tan 0.133920 0.710893 0.695269 1.000000
tan 0.429723 0.648831 0.634571 1.000000
tan 0.814806 0.417509 0.408333 1.000000
tan 0.754851 0.468287 0.452849 1.000000
tan 0.000000 -0.716535 -0.692913 1.000000
tan 0.621675 0.558559 0.540145 1.000000
tan -0.849278 0.372373 0.360097 1.000000
tan 0.521793 0.609337 0.589249 1.000000
tan -0.982454 0.107198 0.103664 1.000000
tan -0.810342 0.417509 0.403745 1.000000
tan 0.000000 0.716535 0.692913 1.000000
tan 0.759006 -0.468287 0.457995 1.000000
tan 0.000000 0.716535 -0.700787 1.000000
tan 0.625085 -0.558559 0.546283 1.000000
tan -0.853928 -0.378015 0.369707 1.000000
tan 0.524645 -0.609337 0.595945 1.000000
tan -0.993366 -0.107198 0.104842 1.000000
tan -0.814806 -0.417509 0.408333 1.000000
tan 0.000000 -0.716535 0.700787 1.000000
tan -0.842644 0.389299 0.380743 1.000000
tan 0.915246 -0.287743 -0.281419 1.000000
tan -0.904086 0.304669 0.297973 1.000000
tan 0.167400 -0.705251 -0.689751 1.000000
tan 0.716535 0.000000 0.000000 1.000000
tan 0.122760 -0.710893 -0.695269 1.000000
tan 0.429723 -0.648831 -0.634571 1.000000
tan 0.842644 -0.389299 -0.380743 1.000000
tan -0.842644 0.389299 -0.380743 1.000000
tan 0.915246 -0.293385 0.286937 1.000000
tan -0.904086 0.304669 -0.297973 1.000000
tan 0.167400 -0.705251 0.689751 1.000000
tan -0.700787 0.000000 0.000000 1.000000
tan 0.122760 -0.710893 0.695269 1.000000
tan 0.429723 -0.648831 0.634571 1.000000
tan 0.842644 -0.389299 0.380743 1.000000
tan 0.837126 0.389299 -0.380743 1.000000
tan 0.000000 0.716535 -0.700787 1.000000
tan 0.842644 0.389299 -0.380743 1.000000
tan -0.552483 0.598053 -0.584909 1.000000
tan 0.887284 -0.332879 0.325563 1.000000
tan -0.318123 0.682683 -0.667679 1.000000
tan -0.915246 0.287743 -0.281419 1.000000
tan 0.000000 -0.716535 0.700787 1.000000
tan 0.837126 0.389299 0.380743 1.000000
tan 0.000000 0.716535 0.700787 1.000000
tan 0.842644 0.389299 0.380743 1.000000
tan -0.552483 0.598053 0.584909 1.000000
tan 0.892926 -0.332879 -0.325563 1.000000
tan -0.318123 0.682683 0.667679 1.000000
tan -0.915246 0.287743 0.281419 1.000000
tan 0.000000 -0.716535 -0.700787 1.000000
tan 0.000000 0.000000 1.005022 1.000000
tan 0.000000 0.000000 1.000000 1.000000
tan 0.000000 0.000000 1.000000 1.000000
tan 0.000000 0.000000 1.005022 1.000000
tan 0.000000 0.000000 1.004402 1.000000
tan 0.000000 0.000000 1.004402 1.000000
tan 0.000000 0.000000 1.000558 1.000000
tan 0.000000 0.000000 1.000558 1.000000
tan 0.000000 0.000000 1.006696 1.000000
tan 0.000000 0.000000 1.006696 1.000000
tan 0.000000 0.000000 1.000000 1.000000
tan 0.000000 0.000000 1.000000 1.000000
tan 0.000000 -1.000000 0.000000 1.000000
tan 0.000000 -1.000000 0.000000 1.000000
tan 0.000000 -1.005022 0.000000 1.000000
tan 0.000000 -1.005022 0.000000 1.000000
tan 0.000000 -0.993552 0.000000 1.000000
tan 0.000000 -0.993552 0.000000 1.000000
tan 0.000000 -1.000558 0.000000 1.000000
tan 0.000000 -1.000558 0.000000 1.000000
tan 0.000000 -0.996094 0.000000 1.000000
tan 0.000000 -0.996094 0.000000 1.000000
tan 0.000000 -1.000000 0.000000 1.000000
tan 0.000000 -1.000000 0.000000 1.000000
f 3/3/3 2/2/2 1/1/1
f 1/1/1 4/4/4 3/3/3
f 7/7/7 6/6/6 5/5/5
f 5/5/5 8/8/8 7/7/7
f 7/7/7 8/8/8 9/9/9
f 10/10/10 9/9/9 8/8/8
f 11/11/11 9/9/9 10/10/10
f 12/12/12 11/11/11 10/10/10
f 11/11/11 12/12/12 13/13/13
f 14/14/14 13/13/13 12/12/12
f 13/13/13 14/14/14 15/15/15
f 16/16/16 15/15/15 14/14/14
f 19/19/19 18/18/18 17/17/17
f 17/17/17 20/20/20 19/19/19
f 19/19/19 20/20/20 21/21/21
f 22/22/22 21/21/21 20/20/20
f 23/23/23 21/21/21 22/22/22
f 24/24/24 23/23/23 22/22/22
f 23/23/23 24/24/24 25/25/25
f 26/26/26 25/25/25 24/24/24
f 27/27/27 25/25/25 26/26/26
f 26/26/26 28/28/28 27/27/27
f 31/31/31 30/30/30 29/29/29
f 29/29/29 30/30/30 32/32/32
f 33/33/33 32/32/32 30/30/30
f 34/34/34 32/32/32 33/33/33
f 35/35/35 34/34/34 33/33/33
f 36/36/36 35/35/35 33/33/33
f 39/39/39 38/38/38 37/37/37
f 37/37/37 38/38/38 40/40/40
f 41/41/41 40/40/40 38/38/38
f 42/42/42 40/40/40 41/41/41
f 43/43/43 42/42/42 41/41/41
f 44/44/44 43/43/43 41/41/41
f 47/47/47 46/46/46 45/45/45
f 48/48/48 45/45/45 46/46/46
f 45/45/45 48/48/48 49/49/49
f 48/48/48 50/50/50 49/49/49
f 51/51/51 49/49/49 50/50/50
f 52/52/52 49/49/49 51/51/51
f 55/55/55 54/54/54 53/53/53
f 56/56/56 53/53/53 54/54/54
f 53/53/53 56/56/56 57/57/57
f 56/56/56 58/58/58 57/57/57
f 59/59/59 57/57/57 58/58/58
f 60/60/60 57/57/57 59/59/59
f 63/63/63 62/62/62 61/61/61
f 61/61/61 62/62/62 64/64/64
f 65/65/65 64/64/64 62/62/62
f 66/66/66 64/64/64 65/65/65
f 67/67/67 66/66/66 65/65/65
f 68/68/68 67/67/67 65/65/65
f 71/71/71 70/70/70 69/69/69
f 69/69/69 70/70/70 72/72/72
f 73/73/73 72/72/72 70/70/70
f 74/74/74 72/72/72 73/73/73
f 75/75/75 74/74/74 73/73/73
f 76/76/76 75/75/75 73/73/73
f 79/79/79 78/78/78 77/77/77
f 80/80/80 77/77/77 78/78/78
f 77/77/77 80/80/80 81/81/81
f 80/80/80 82/82/82 81/81/81
f 83/83/83 81/81/81 82/82/82
f 84/84/84 81/81/81 83/83/83
f 87/87/87 86/86/86 85/85/85
f 88/88/88 85/85/85 86/86/86
f 85/85/85 88/88/88 89/89/89
f 88/88/88 90/90/90 89/89/89
f 91/91/91 89/89/89 90/90/90
f 92/92/92 89/89/89 91/91/91
f 95/95/95 94/94/94 93/93/93
f 96/96/96 93/93/93 94/94/94
f 96/96/96 97/97/97 93/93/93
f 98/98/98 93/93/93 97/97/97
f 97/97/97 99/99/99 98/98/98
f 100/100/100 98/98/98 99/99/99
f 101/101/101 100/100/100 99/99/99
f 102/102/102 100/100/100 101/101/101
f 103/103/103 102/102/102 101/101/101
f 101/101/101 104/104/104 103/103/103
f 107/107/107 106/106/106 105/105/105
f 105/105/105 108/108/108 107/107/107
f 109/109/109 107/107/107 108/108/108
f 110/110/110 107/107/107 109/109/109
f 109/109/109 111/111/111 110/110/110
f 112/112/112 110/110/110 111/111/111
f 111/111/111 113/113/113 112/112/112
f 114/114/114 112/112/112 113/113/113
f 115/115/115 114/114/114 113/113/113
f 113/113/113 116/116/116 115/115/115
