mtllib SM_Food_SM_Waffle_LOD2.mtl
g SM_Food_SM_Waffle_LOD2
#Vertices 16
#Indices 30
#Section 0 Offset 0 NumIndices 30 MaterialIndex 0 MI_Food
v -0.146714 0.045378 0.000172
v -0.142742 -0.001785 0.099531
v -0.143682 -0.003351 -0.099214
v 0.123883 0.038524 -0.099844
v 0.125101 0.004055 0.097226
v 0.123935 0.040509 0.097391
v 0.124537 0.002245 -0.099785
v 0.123883 0.038524 -0.099844
v -0.143682 -0.003351 -0.099214
v 0.124537 0.002245 -0.099785
v -0.146714 0.045378 0.000172
v 0.123935 0.040509 0.097391
v -0.142742 -0.001785 0.099531
v 0.125101 0.004055 0.097226
v -0.143682 -0.003351 -0.099214
v 0.124537 0.002245 -0.099785
vt 0.944824 0.506592
vt 0.908691 0.580566
vt 0.909180 0.431641
vt 0.909180 0.591064
vt 0.936035 0.738525
vt 0.908691 0.739014
vt 0.936035 0.590820
vt 0.199463 0.022949
vt -0.001775 -0.002930
vt 0.199341 -0.002930
vt -0.003618 0.097168
vt 0.198853 0.170410
vt -0.001689 0.196777
vt 0.199097 0.197266
vt -0.001722 0.345215
vt 0.199341 0.344727
vt1 0.824707 0.501465
vt1 0.592773 0.978165
vt1 0.595215 0.019531
vt1 0.802734 0.023926
vt1 0.978516 0.972702
vt1 0.802246 0.975815
vt1 0.977051 0.021484
vt1 0.573730 0.072266
vt1 0.003029 -0.001953
vt1 0.573242 -0.001953
vt1 -0.002201 0.282227
vt1 0.571777 0.490234
vt1 0.003273 0.563965
vt1 0.572754 0.565430
vt1 0.003176 0.985504
vt1 0.573242 0.983994
vn -0.818898 0.566929 0.007874
vn -0.937008 -0.354331 0.047244
vn -0.858268 -0.511811 -0.047244
vn 0.921260 0.377953 -0.047244
vn 0.944882 -0.322835 0.031496
vn 0.866142 0.496063 0.047244
vn 0.905512 -0.425197 -0.047244
vn 0.000000 0.944882 -0.322835
vn -0.015748 -0.173228 -0.984252
vn 0.007874 -0.165354 -0.984252
vn -0.039370 1.000000 0.070866
vn 0.000000 0.984252 0.188976
vn 0.000000 -0.944882 0.314961
vn 0.039370 -0.992126 0.110236
vn 0.000000 -1.000000 -0.023622
vn 0.039370 -1.000000 -0.039370
tan -0.025730 -0.025482 -0.841218 1.000000
tan -0.063984 0.043524 -0.942588 1.000000
tan 0.091202 -0.069874 -0.899870 1.000000
tan -0.062124 0.035154 -0.930188 1.000000
tan 0.036580 0.014384 -0.949966 1.000000
tan 0.093744 -0.078492 -0.894476 1.000000
tan -0.093744 -0.096844 -0.925166 1.000000
tan 0.000000 -0.322835 -0.944882 1.000000
tan 0.015500 -0.984252 0.172980 1.000000
tan 0.023250 -0.984252 0.165540 1.000000
tan -0.007874 0.070556 -1.000000 1.000000
tan 0.000000 0.188976 -0.984252 1.000000
tan 0.000000 0.314961 0.944882 1.000000
tan 0.007812 0.110546 0.992126 1.000000
tan 0.007874 -0.023622 1.000000 1.000000
tan 0.007874 -0.039060 1.000000 1.000000
f 3/3/3 2/2/2 1/1/1
f 6/6/6 5/5/5 4/4/4
f 7/7/7 4/4/4 5/5/5
f 10/10/10 9/9/9 8/8/8
f 9/9/9 11/11/11 8/8/8
f 11/11/11 12/12/12 8/8/8
f 11/11/11 13/13/13 12/12/12
f 14/14/14 12/12/12 13/13/13
f 13/13/13 15/15/15 14/14/14
f 16/16/16 14/14/14 15/15/15
