mtllib SM_FoodPot_07_LOD3.mtl
g SM_FoodPot_07_LOD3
#Vertices 115
#Indices 351
#Section 0 Offset 0 NumIndices 207 MaterialIndex 0 MI_FoodPot_Jelly
#Section 1 Offset 207 NumIndices 144 MaterialIndex 1 MI_FoodPot
v -0.019576 0.000078 0.040772
v 0.002960 -0.000292 0.044687
v 0.031486 0.000119 0.033576
v -0.002165 0.000014 -0.045798
v -0.042179 0.000166 0.016685
v 0.045827 -0.000152 0.002406
v 0.031630 0.000204 -0.032532
v -0.043129 0.000143 -0.010437
v -0.032291 0.000253 -0.029569
v -0.019576 0.000078 0.040772
v 0.001214 0.004089 0.047785
v 0.002960 -0.000292 0.044687
v -0.034381 0.005116 0.036495
v -0.042179 0.000166 0.016685
v -0.020326 0.078975 0.043724
v 0.001256 0.084621 0.047267
v -0.048010 0.004629 -0.007341
v -0.043129 0.000143 -0.010437
v -0.045305 0.079574 0.020516
v -0.024173 0.092392 0.033680
v 0.000961 0.094123 0.037335
v 0.000886 0.101315 0.034461
v -0.017113 0.101295 0.030450
v -0.039716 0.092524 0.004213
v -0.035001 0.102196 -0.012893
v -0.045129 0.079841 -0.016789
v -0.029630 0.092344 -0.029649
v -0.008597 0.102587 -0.037380
v -0.035582 0.004953 -0.032573
v -0.032291 0.000253 -0.029569
v -0.013929 0.080406 -0.048295
v 0.009175 0.092067 -0.040863
v 0.034455 0.101159 -0.009356
v -0.005172 0.005519 -0.049522
v -0.002165 0.000014 -0.045798
v 0.031630 0.000204 -0.032532
v 0.027675 0.007448 -0.039556
v 0.045827 -0.000152 0.002406
v 0.027088 0.068104 -0.039372
v 0.049672 0.008579 -0.003656
v 0.031486 0.000119 0.033576
v 0.030845 0.008136 0.039284
v 0.002960 -0.000292 0.044687
v 0.001214 0.004089 0.047785
v 0.001256 0.084621 0.047267
v 0.029629 0.068981 0.038276
v 0.033663 0.081582 -0.034541
v 0.043074 0.068182 -0.022594
v 0.039554 0.092644 -0.014072
v 0.029261 0.101181 0.021009
v 0.049375 0.081994 0.009559
v 0.047565 0.068072 0.013925
v 0.030482 0.091815 0.029456
v 0.000886 0.101315 0.034461
v 0.000961 0.094123 0.037335
v 0.019989 0.092220 0.040235
v 0.041140 0.092154 0.019881
v -0.004165 0.091152 0.043760
v 0.044536 0.092195 -0.007311
v 0.034319 0.090848 -0.027831
v 0.013776 0.092267 -0.042659
v -0.006797 0.091054 -0.043623
v -0.028411 0.092262 0.028151
v -0.036532 0.092661 0.027667
v -0.043367 0.091029 -0.002107
v -0.035721 0.092464 -0.028908
v -0.028132 0.092267 -0.028393
v 0.033393 0.107404 0.031478
v 0.009891 0.105820 0.042771
v 0.040792 0.105566 0.011683
v -0.019014 0.107665 0.040718
v -0.029336 0.105480 0.027621
v -0.043210 0.107477 0.016554
v -0.040676 0.106244 -0.005241
v -0.041389 0.107388 -0.018891
v -0.022361 0.105794 -0.036012
v 0.036983 0.105625 -0.017067
v 0.045068 0.108076 -0.009406
v 0.010919 0.106355 -0.039497
v 0.005229 0.107648 -0.045401
v 0.029282 0.106990 -0.034558
v 0.027088 0.068104 -0.039372
v 0.027675 0.007448 -0.039556
v 0.043074 0.068182 -0.022594
v 0.049672 0.008579 -0.003656
v 0.047565 0.068072 0.013925
v 0.030845 0.008136 0.039284
v 0.029629 0.068981 0.038276
v -0.029336 0.105480 0.027621
v -0.040676 0.106244 -0.005241
v -0.022361 0.105794 -0.036012
v 0.009891 0.105820 0.042771
v 0.040792 0.105566 0.011683
v 0.036983 0.105625 -0.017067
v 0.010919 0.106355 -0.039497
v 0.045068 0.108076 -0.009406
v 0.033393 0.107404 0.031478
v 0.040792 0.105566 0.011683
v 0.041140 0.092154 0.019881
v 0.044536 0.092195 -0.007311
v 0.019989 0.092220 0.040235
v 0.034319 0.090848 -0.027831
v 0.009891 0.105820 0.042771
v 0.029282 0.106990 -0.034558
v -0.004165 0.091152 0.043760
v 0.013776 0.092267 -0.042659
v -0.019014 0.107665 0.040718
v 0.005229 0.107648 -0.045401
v -0.036532 0.092661 0.027667
v -0.006797 0.091054 -0.043623
v -0.043210 0.107477 0.016554
v -0.022361 0.105794 -0.036012
v -0.043367 0.091029 -0.002107
v -0.035721 0.092464 -0.028908
v -0.041389 0.107388 -0.018891
vt 0.708984 0.213379
vt 0.719238 0.240723
vt 0.711914 0.278320
vt 0.605469 0.254883
vt 0.673828 0.190918
vt 0.676270 0.303711
vt 0.629883 0.293945
vt 0.640137 0.195801
vt 0.618652 0.213867
vt 0.597168 0.311035
vt 0.567871 0.314941
vt 0.568848 0.308105
vt 0.613770 0.317871
vt 0.640625 0.309082
vt 0.599609 0.413574
vt 0.574219 0.425781
vt 0.670898 0.314941
vt 0.676270 0.307617
vt 0.641113 0.410156
vt 0.616211 0.430664
vt 0.586426 0.442871
vt 0.590332 0.452637
vt 0.613770 0.446289
vt 0.661621 0.428223
vt 0.686523 0.441406
vt 0.685547 0.408691
vt 0.710449 0.427246
vt 0.742188 0.441406
vt 0.705566 0.314453
vt 0.705566 0.305176
vt 0.738770 0.408203
vt 0.767090 0.426270
vt 0.826660 0.442383
vt 0.748535 0.314453
vt 0.751953 0.306641
vt 0.799805 0.307617
vt 0.791016 0.316895
vt 0.849121 0.309570
vt 0.789551 0.393555
vt 0.842773 0.320312
vt 0.894043 0.311035
vt 0.899414 0.320801
vt 0.932129 0.307617
vt 0.937988 0.313477
vt 0.933594 0.424316
vt 0.897949 0.399902
vt 0.798340 0.410645
vt 0.817383 0.394043
vt 0.822754 0.427734
vt 0.874512 0.444336
vt 0.854492 0.412598
vt 0.861328 0.395996
vt 0.884766 0.429688
vt 0.917480 0.452637
vt 0.921875 0.442383
vt 0.873047 0.864624
vt 0.909180 0.833618
vt 0.837891 0.883667
vt 0.898438 0.788452
vt 0.883789 0.753052
vt 0.843750 0.741455
vt 0.810547 0.738525
vt 0.790039 0.870605
vt 0.785156 0.861084
vt 0.759766 0.818970
vt 0.770508 0.773560
vt 0.772949 0.764160
vt 0.877441 0.839478
vt 0.852539 0.856689
vt 0.881836 0.815552
vt 0.818848 0.859619
vt 0.804688 0.846558
vt 0.786621 0.836426
vt 0.785156 0.810913
vt 0.782227 0.795288
vt 0.801270 0.772095
vt 0.872559 0.783203
vt 0.883301 0.790283
vt 0.838867 0.761597
vt 0.831055 0.756470
vt 0.860352 0.764526
vt 0.452881 0.262207
vt 0.381348 0.263672
vt 0.452637 0.234863
vt 0.381592 0.213379
vt 0.451660 0.191895
vt 0.380127 0.157715
vt 0.451904 0.156250
vt 0.805664 0.844849
vt 0.787598 0.810791
vt 0.802734 0.773926
vt 0.851562 0.854614
vt 0.879883 0.815186
vt 0.870605 0.784302
vt 0.838379 0.764282
vt 0.882812 0.790161
vt 0.877930 0.838501
vt 0.882324 0.815063
vt 0.900391 0.829590
vt 0.898926 0.787720
vt 0.872559 0.866089
vt 0.880859 0.756836
vt 0.854004 0.858521
vt 0.860840 0.764038
vt 0.837891 0.879272
vt 0.843750 0.741455
vt 0.818848 0.859497
vt 0.831055 0.756714
vt 0.786133 0.860596
vt 0.810547 0.742920
vt 0.787109 0.836670
vt 0.797852 0.768311
vt 0.764160 0.817383
vt 0.772461 0.774780
vt 0.782227 0.795288
vt1 0.808594 0.309570
vt1 0.838867 0.391602
vt1 0.816895 0.506104
vt1 0.496094 0.435059
vt1 0.702637 0.241699
vt1 0.709961 0.581543
vt1 0.569336 0.552490
vt1 0.600098 0.256836
vt1 0.535645 0.311035
vt1 0.085938 0.615479
vt1 0.007706 0.625732
vt1 0.011055 0.607910
vt1 0.130493 0.633789
vt1 0.201538 0.610107
vt1 0.092529 0.887573
vt1 0.024582 0.920288
vt1 0.281982 0.626465
vt1 0.295410 0.606689
vt1 0.202271 0.878479
vt1 0.136963 0.932556
vt1 0.056946 0.965698
vt1 0.068542 0.991783
vt1 0.130615 0.974670
vt1 0.256836 0.926941
vt1 0.323242 0.962250
vt1 0.321289 0.874390
vt1 0.386963 0.924316
vt1 0.471436 0.961945
vt1 0.374512 0.624512
vt1 0.374023 0.600098
vt1 0.462402 0.873779
vt1 0.537109 0.922119
vt1 0.695312 0.964111
vt1 0.488281 0.624512
vt1 0.497314 0.603760
vt1 0.624023 0.605713
vt1 0.601074 0.630615
vt1 0.755859 0.611572
vt1 0.596680 0.834473
vt1 0.737793 0.639648
vt1 0.874512 0.615234
vt1 0.889160 0.642090
vt1 0.975586 0.606445
vt1 0.991699 0.621826
vt1 0.979492 0.915955
vt1 0.884766 0.851929
vt1 0.620605 0.879700
vt1 0.670410 0.835938
vt1 0.685059 0.925476
vt1 0.822266 0.969391
vt1 0.769531 0.884888
vt1 0.787598 0.841309
vt1 0.849609 0.929932
vt1 0.936035 0.991936
vt1 0.947754 0.964844
vt1 0.376953 0.513916
vt1 0.493896 0.413086
vt1 0.262451 0.576172
vt1 0.459473 0.266602
vt1 0.412354 0.150879
vt1 0.281494 0.113770
vt1 0.173340 0.104004
vt1 0.106384 0.533691
vt1 0.090027 0.502686
vt1 0.007751 0.365723
vt1 0.043549 0.217773
vt1 0.051331 0.187012
vt1 0.390625 0.432617
vt1 0.309326 0.488281
vt1 0.405273 0.354492
vt1 0.200317 0.498047
vt1 0.153809 0.455566
vt1 0.095581 0.422363
vt1 0.090576 0.339355
vt1 0.081482 0.288574
vt1 0.142578 0.212891
vt1 0.374512 0.249023
vt1 0.410156 0.272461
vt1 0.265869 0.178711
vt1 0.239868 0.162109
vt1 0.336182 0.188477
vt1 0.544434 0.022461
vt1 0.540527 0.253418
vt1 0.632324 0.023926
vt1 0.702148 0.252930
vt1 0.771484 0.026855
vt1 0.880859 0.257324
vt1 0.886230 0.025879
vt1 0.158203 0.449707
vt1 0.099304 0.338867
vt1 0.147217 0.218750
vt1 0.306641 0.481445
vt1 0.399170 0.353516
vt1 0.369385 0.252930
vt1 0.263916 0.187500
vt1 0.408691 0.271973
vt1 0.391846 0.429199
vt1 0.406982 0.353027
vt1 0.464844 0.400391
vt1 0.461426 0.263672
vt1 0.375732 0.518799
vt1 0.401611 0.163574
vt1 0.313965 0.494629
vt1 0.336426 0.187012
vt1 0.262207 0.561768
vt1 0.281494 0.113770
vt1 0.200073 0.497559
vt1 0.240234 0.163086
vt1 0.093506 0.500732
vt1 0.173218 0.118164
vt1 0.096375 0.423340
vt1 0.132080 0.200684
vt1 0.022705 0.360352
vt1 0.048950 0.222168
vt1 0.081665 0.288574
vn -0.015748 -1.000000 0.031496
vn 0.007874 -0.937008 0.354331
vn 0.015748 -1.000000 0.007874
vn 0.007874 -1.000000 -0.023622
vn -0.062992 -1.000000 0.015748
vn 0.070866 -1.000000 0.007874
vn 0.047244 -1.000000 -0.055118
vn -0.062992 -1.000000 -0.015748
vn -0.149606 -0.976378 -0.149606
vn -0.188976 -0.913386 0.354331
vn 0.023622 -0.007874 1.000000
vn 0.031496 -0.921260 0.393701
vn -0.692913 -0.015748 0.724409
vn -0.322835 -0.929134 0.181102
vn -0.417323 0.039370 0.905512
vn 0.031496 0.149606 0.992126
vn -0.992126 -0.007874 -0.149606
vn -0.362205 -0.929134 -0.086614
vn -0.913386 0.023622 0.409449
vn -0.377953 0.763779 0.519685
vn 0.007874 0.724409 0.685039
vn 0.023622 -0.007874 1.000000
vn -0.488189 -0.007874 0.874016
vn -0.653543 0.748031 0.078740
vn -0.944882 -0.007874 -0.322835
vn -0.937008 0.031496 -0.346457
vn -0.456693 0.748031 -0.480315
vn -0.181102 -0.023622 -0.984252
vn -0.740157 -0.023622 -0.677165
vn -0.196850 -0.968504 -0.173228
vn -0.267717 0.031496 -0.960630
vn 0.141732 0.748031 -0.653543
vn 0.968504 -0.007874 -0.259842
vn -0.078740 -0.023622 -1.000000
vn -0.007874 -0.897638 -0.440945
vn 0.291339 -0.913386 -0.291338
vn 0.519685 -0.015748 -0.850394
vn 0.535433 -0.842520 0.070866
vn 0.472441 0.015748 -0.881890
vn 1.000000 -0.047244 -0.023622
vn 0.330709 -0.874016 0.362205
vn 0.566929 0.000000 0.818897
vn -0.031496 -0.929134 0.362205
vn 0.023622 -0.023622 1.000000
vn 0.023622 0.094488 0.992126
vn 0.551181 0.000000 0.834646
vn 0.685039 0.118110 -0.716535
vn 0.889764 0.047244 -0.456693
vn 0.653543 0.724409 -0.228347
vn 0.811024 -0.007874 0.582677
vn 0.976378 0.125984 0.181102
vn 0.960630 0.055118 0.275591
vn 0.503937 0.732283 0.464567
vn 0.023622 -0.007874 1.000000
vn 0.023622 0.732283 0.685039
vn 0.000000 -1.000000 0.000000
vn 0.000000 -1.000000 0.000000
vn 0.000000 -1.000000 0.000000
vn 0.000000 -1.000000 0.000000
vn 0.000000 -1.000000 0.000000
vn 0.000000 -1.000000 0.000000
vn 0.000000 -1.000000 0.000000
vn 0.000000 -1.000000 0.000000
vn 0.000000 -1.000000 0.000000
vn 0.000000 -1.000000 0.000000
vn 0.000000 -1.000000 0.000000
vn 0.000000 -1.000000 0.000000
vn 0.181102 0.968504 0.181102
vn -0.039370 0.992126 -0.110236
vn -0.062992 1.000000 -0.023622
vn -0.086614 0.976378 0.188976
vn 0.125984 0.984252 -0.118110
vn -0.220472 0.968504 0.086614
vn 0.149606 0.992126 0.023622
vn -0.181102 0.976378 -0.078740
vn 0.031496 1.000000 0.070866
vn -0.141732 0.992126 0.047244
vn 0.125984 0.992126 -0.023622
vn -0.086614 0.976378 0.181102
vn 0.015748 0.976378 -0.212599
vn 0.125984 0.976378 -0.181102
vn 0.685039 -0.000000 -0.724409
vn 0.692913 -0.000000 -0.724409
vn 0.874016 -0.000000 -0.488189
vn 1.000000 -0.000000 -0.086614
vn 0.952756 0.000000 0.299213
vn 0.700787 0.000000 0.716535
vn 0.724409 0.000000 0.685039
vn 0.000000 1.000000 -0.000000
vn 0.000000 1.000000 -0.000000
vn 0.000000 1.000000 -0.000000
vn 0.000000 1.000000 -0.000000
vn 0.000000 1.000000 -0.000000
vn 0.000000 1.000000 -0.000000
vn 0.000000 1.000000 -0.000000
vn 0.984252 0.047244 -0.188976
vn 0.724409 0.031496 0.685039
vn 0.929134 0.236220 0.275590
vn 0.897638 0.000000 0.440945
vn 0.984252 -0.000000 -0.157480
vn 0.440945 0.000000 0.897638
vn 0.779528 -0.000000 -0.629921
vn 0.220472 0.047244 0.976378
vn 0.653543 0.039370 -0.755905
vn -0.094488 -0.007874 0.992126
vn 0.307087 -0.000000 -0.952756
vn -0.425197 0.047244 0.905512
vn 0.118110 0.055118 -0.992126
vn -0.795276 0.000000 0.606299
vn -0.157480 -0.007874 -0.984252
vn -0.929134 0.047244 0.362205
vn -0.527559 0.031496 -0.850394
vn -1.000000 -0.007874 -0.039370
vn -0.779528 -0.000000 -0.629921
vn -0.913386 0.055118 -0.409449
tan -0.984252 0.021452 0.188976 1.000000
tan -0.914874 0.076012 0.221340 1.000000
tan -0.984252 -0.014074 0.181102 1.000000
tan -0.984252 -0.012028 0.181102 1.000000
tan -0.984252 0.064728 0.173228 1.000000
tan -0.984252 -0.068386 0.173228 1.000000
tan -0.984252 -0.056916 0.188976 1.000000
tan -0.984252 0.059272 0.173228 1.000000
tan -0.961002 0.122512 0.161448 1.000000
tan 0.230144 -0.390787 -0.884618 1.000000
tan 0.094488 -0.992126 -0.010044 1.000000
tan 0.108810 -0.386881 -0.914006 1.000000
tan -0.240064 -0.936450 -0.249984 1.000000
tan 0.905760 -0.355137 -0.207390 1.000000
tan -0.206770 -0.884122 -0.056854 1.000000
tan -0.179676 -0.976502 0.152954 1.000000
tan 0.011408 -0.992126 -0.023436 1.000000
tan 0.929134 -0.369707 0.080476 1.000000
tan -0.078244 -0.902970 -0.122450 1.000000
tan -0.292765 -0.621613 0.700663 1.000000
tan -0.105586 -0.679025 0.719263 1.000000
tan -0.314961 -0.944882 0.000000 1.000000
tan -0.274847 -0.852750 -0.161200 1.000000
tan -0.747411 -0.652303 -0.006634 1.000000
tan 0.012958 -0.947424 -0.014818 1.000000
tan -0.023312 -0.937008 -0.022134 1.000000
tan -0.518321 -0.660611 -0.535991 1.000000
tan 0.000000 -0.984252 0.023622 1.000000
tan 0.206522 -0.938186 -0.193006 1.000000
tan 0.716845 -0.261640 0.648211 1.000000
tan 0.000000 -0.960630 -0.031496 1.000000
tan -0.023560 -0.649079 -0.748031 1.000000
tan -0.020150 -0.966458 -0.045818 1.000000
tan -0.007874 -1.000000 0.024242 1.000000
tan 0.021204 -0.441131 0.897638 1.000000
tan -0.611321 -0.410627 0.676049 1.000000
tan -0.048608 -0.900986 -0.013020 1.000000
tan -0.842520 -0.538781 -0.039804 1.000000
tan -0.018352 -0.942402 -0.026660 1.000000
tan -0.048360 -1.000000 -0.047244 1.000000
tan -0.626263 -0.490793 -0.612499 1.000000
tan -0.025792 -0.845682 0.017856 1.000000
tan -0.146320 -0.351541 -0.914502 1.000000
tan -0.055118 -1.000000 -0.022320 1.000000
tan 0.132804 -0.984314 0.090582 1.000000
tan 0.256309 -0.808234 -0.169260 1.000000
tan 0.028334 -0.984686 -0.135222 1.000000
tan 0.025668 -0.907744 -0.043896 1.000000
tan 0.726207 -0.660735 -0.017670 1.000000
tan 0.236096 -0.815178 -0.339637 1.000000
tan 0.133114 -0.976378 -0.038440 1.000000
tan 0.078988 -0.958460 -0.083638 1.000000
tan 0.572385 -0.685163 0.459111 1.000000
tan 0.291339 -0.952756 -0.014384 1.000000
tan 0.106578 -0.681691 0.725029 1.000000
tan 0.881890 0.000000 0.472441 1.000000
tan 0.653543 -0.000000 -0.755905 1.000000
tan 0.023622 0.000000 1.000000 1.000000
tan -0.165354 -0.000000 -0.984252 1.000000
tan -0.984252 -0.000000 -0.188976 1.000000
tan -0.629921 0.000000 0.779527 1.000000
tan 0.496063 0.000000 0.874016 1.000000
tan -0.992126 0.000000 0.118110 1.000000
tan -0.921260 -0.000000 -0.393701 1.000000
tan -0.062992 -0.000000 -1.000000 1.000000
tan 0.921260 -0.000000 -0.385827 1.000000
tan 0.889764 -0.000000 -0.456693 1.000000
tan 0.152520 0.149730 -0.953252 1.000000
tan 0.140616 -0.103788 -0.984314 1.000000
tan 0.173228 -0.012338 -0.984252 1.000000
tan 0.138384 0.199764 -0.968690 1.000000
tan 0.155000 -0.136090 -0.968752 1.000000
tan 0.167772 0.123442 -0.953252 1.000000
tan 0.179676 -0.003844 -0.976502 1.000000
tan 0.169136 -0.046128 -0.961002 1.000000
tan 0.157480 0.064790 -0.984252 1.000000
tan 0.164052 0.069936 -0.976502 1.000000
tan 0.171864 -0.045074 -0.976502 1.000000
tan 0.130696 0.191270 -0.968690 1.000000
tan 0.130696 -0.213033 -0.968690 1.000000
tan 0.146072 -0.198524 -0.968690 1.000000
tan 0.724409 0.011098 0.685039 1.000000
tan 0.724409 0.000000 0.692913 1.000000
tan 0.488189 0.006882 0.874016 1.000000
tan 0.086614 0.015748 1.000000 1.000000
tan -0.299213 0.015004 0.952756 1.000000
tan -0.716535 0.000000 0.700787 1.000000
tan -0.685039 0.000000 0.724409 1.000000
tan 0.157480 -0.000000 -0.984252 1.000000
tan 0.157480 -0.000000 -0.984252 1.000000
tan 0.157480 -0.000000 -0.984252 1.000000
tan 0.157480 -0.000000 -0.984252 1.000000
tan 0.157480 -0.000000 -0.984252 1.000000
tan 0.157480 -0.000000 -0.984252 1.000000
tan 0.157480 -0.000000 -0.984252 1.000000
tan -0.171120 -0.248001 -0.953252 1.000000
tan 0.683551 0.045012 -0.724905 1.000000
tan 0.305041 -0.124372 -0.921818 1.000000
tan 0.437473 0.077748 -0.890570 1.000000
tan -0.150040 -0.302251 -0.937752 1.000000
tan 0.791618 0.431025 -0.388865 1.000000
tan -0.620001 -0.153698 -0.767251 1.000000
tan 0.492033 0.845682 -0.152024 1.000000
tan -0.748713 -0.127720 -0.653977 1.000000
tan 0.148428 0.984314 0.021948 1.000000
tan -0.150040 -0.947424 -0.048360 1.000000
tan -0.598921 0.677351 -0.316573 1.000000
tan 0.015624 -0.992126 -0.053258 1.000000
tan -0.587203 0.259470 -0.770227 1.000000
tan 0.465001 -0.868002 -0.067456 1.000000
tan -0.344349 0.177196 -0.906442 1.000000
tan 0.830306 -0.187488 -0.522041 1.000000
tan 0.037262 0.188976 -0.984252 1.000000
tan 0.624961 -0.082398 -0.773389 1.000000
tan 0.400583 -0.093496 -0.906194 1.000000
f 3/3/3 2/2/2 1/1/1
f 4/4/4 3/3/3 1/1/1
f 4/4/4 1/1/1 5/5/5
f 4/4/4 6/6/6 3/3/3
f 4/4/4 7/7/7 6/6/6
f 4/4/4 5/5/5 8/8/8
f 4/4/4 8/8/8 9/9/9
f 12/12/12 11/11/11 10/10/10
f 13/13/13 10/10/10 11/11/11
f 14/14/14 10/10/10 13/13/13
f 11/11/11 15/15/15 13/13/13
f 16/16/16 15/15/15 11/11/11
f 13/13/13 17/17/17 14/14/14
f 14/14/14 17/17/17 18/18/18
f 15/15/15 19/19/19 13/13/13
f 17/17/17 13/13/13 19/19/19
f 15/15/15 16/16/16 20/20/20
f 19/19/19 15/15/15 20/20/20
f 21/21/21 20/20/20 16/16/16
f 21/21/21 22/22/22 20/20/20
f 23/23/23 20/20/20 22/22/22
f 20/20/20 23/23/23 24/24/24
f 19/19/19 20/20/20 24/24/24
f 25/25/25 24/24/24 23/23/23
f 26/26/26 19/19/19 24/24/24
f 19/19/19 26/26/26 17/17/17
f 24/24/24 25/25/25 27/27/27
f 24/24/24 27/27/27 26/26/26
f 28/28/28 27/27/27 25/25/25
f 29/29/29 17/17/17 26/26/26
f 18/18/18 17/17/17 29/29/29
f 29/29/29 30/30/30 18/18/18
f 31/31/31 26/26/26 27/27/27
f 26/26/26 31/31/31 29/29/29
f 27/27/27 28/28/28 32/32/32
f 31/31/31 27/27/27 32/32/32
f 33/33/33 32/32/32 28/28/28
f 29/29/29 34/34/34 30/30/30
f 29/29/29 31/31/31 34/34/34
f 35/35/35 30/30/30 34/34/34
f 34/34/34 36/36/36 35/35/35
f 36/36/36 34/34/34 37/37/37
f 38/38/38 36/36/36 37/37/37
f 37/37/37 34/34/34 39/39/39
f 39/39/39 34/34/34 31/31/31
f 37/37/37 40/40/40 38/38/38
f 40/40/40 41/41/41 38/38/38
f 42/42/42 41/41/41 40/40/40
f 43/43/43 41/41/41 42/42/42
f 42/42/42 44/44/44 43/43/43
f 42/42/42 45/45/45 44/44/44
f 46/46/46 45/45/45 42/42/42
f 39/39/39 31/31/31 47/47/47
f 47/47/47 31/31/31 32/32/32
f 48/48/48 39/39/39 47/47/47
f 32/32/32 49/49/49 47/47/47
f 33/33/33 49/49/49 32/32/32
f 50/50/50 49/49/49 33/33/33
f 51/51/51 48/48/48 47/47/47
f 49/49/49 51/51/51 47/47/47
f 51/51/51 52/52/52 48/48/48
f 51/51/51 46/46/46 52/52/52
f 49/49/49 50/50/50 53/53/53
f 49/49/49 53/53/53 51/51/51
f 46/46/46 51/51/51 53/53/53
f 46/46/46 53/53/53 45/45/45
f 50/50/50 54/54/54 53/53/53
f 45/45/45 53/53/53 55/55/55
f 54/54/54 55/55/55 53/53/53
f 58/58/58 57/57/57 56/56/56
f 60/60/60 59/59/59 57/57/57
f 62/62/62 61/61/61 60/60/60
f 64/64/64 63/63/63 58/58/58
f 65/65/65 63/63/63 64/64/64
f 67/67/67 66/66/66 62/62/62
f 67/67/67 65/65/65 66/66/66
f 70/70/70 69/69/69 68/68/68
f 72/72/72 71/71/71 69/69/69
f 71/71/71 72/72/72 73/73/73
f 74/74/74 73/73/73 72/72/72
f 74/74/74 75/75/75 73/73/73
f 75/75/75 74/74/74 76/76/76
f 78/78/78 77/77/77 70/70/70
f 77/77/77 78/78/78 79/79/79
f 79/79/79 80/80/80 76/76/76
f 81/81/81 79/79/79 78/78/78
f 80/80/80 79/79/79 81/81/81
f 84/84/84 83/83/83 82/82/82
f 85/85/85 83/83/83 84/84/84
f 86/86/86 85/85/85 84/84/84
f 85/85/85 86/86/86 87/87/87
f 88/88/88 87/87/87 86/86/86
f 91/91/91 90/90/90 89/89/89
f 91/91/91 89/89/89 92/92/92
f 91/91/91 92/92/92 93/93/93
f 91/91/91 93/93/93 94/94/94
f 91/91/91 94/94/94 95/95/95
f 98/98/98 97/97/97 96/96/96
f 97/97/97 99/99/99 96/96/96
f 96/96/96 99/99/99 100/100/100
f 99/99/99 97/97/97 101/101/101
f 96/96/96 100/100/100 102/102/102
f 97/97/97 103/103/103 101/101/101
f 96/96/96 102/102/102 104/104/104
f 105/105/105 101/101/101 103/103/103
f 102/102/102 106/106/106 104/104/104
f 103/103/103 107/107/107 105/105/105
f 106/106/106 108/108/108 104/104/104
f 105/105/105 107/107/107 109/109/109
f 106/106/106 110/110/110 108/108/108
f 107/107/107 111/111/111 109/109/109
f 110/110/110 112/112/112 108/108/108
f 113/113/113 109/109/109 111/111/111
f 110/110/110 114/114/114 112/112/112
f 111/111/111 115/115/115 113/113/113
f 114/114/114 115/115/115 112/112/112
f 114/114/114 113/113/113 115/115/115
