mtllib SM_Food_SM_Apple_01.mtl
g SM_Food_SM_Apple_01
#Vertices 130
#Indices 450
#Section 0 Offset 0 NumIndices 450 MaterialIndex 0 MI_Food
v 0.004986 0.001077 -0.005415
v -0.004609 -0.001273 -0.004961
v 0.001715 0.007730 0.003263
v -0.018541 0.075705 -0.002861
v -0.010669 0.075824 -0.014144
v -0.005506 0.065866 -0.003562
v -0.011122 0.077780 0.003510
v 0.001715 0.007730 0.003263
v -0.006637 -0.000045 0.008902
v 0.003641 0.000691 0.014049
v -0.004609 -0.001273 -0.004961
v 0.004986 0.001077 -0.005415
v 0.001715 0.007730 0.003263
v 0.012168 0.000993 0.006483
v 0.003641 0.000691 0.014049
v -0.010669 0.075824 -0.014144
v -0.002901 0.077329 -0.016526
v -0.005506 0.065866 -0.003562
v -0.002318 0.079181 0.003572
v -0.011122 0.077780 0.003510
v 0.001435 0.081202 -0.003370
v 0.004812 0.048440 -0.038880
v -0.004045 0.057168 -0.038974
v 0.002625 0.032165 -0.038449
v -0.014731 0.033338 -0.037980
v -0.025928 0.037921 -0.033589
v -0.018966 0.060449 -0.033454
v -0.005259 0.069796 -0.031123
v -0.032138 0.065621 -0.019552
v -0.020590 0.074816 -0.019241
v -0.002901 0.077329 -0.016526
v -0.010669 0.075824 -0.014144
v -0.018541 0.075705 -0.002861
v -0.011122 0.077780 0.003510
v -0.015000 0.078283 0.008899
v -0.031300 0.071466 0.006775
v -0.019915 0.072170 0.022042
v -0.037109 0.049364 -0.019393
v -0.034810 0.031204 -0.020225
v -0.039682 0.032794 -0.007562
v -0.039249 0.060397 -0.000342
v -0.031764 0.055014 0.021671
v -0.022114 0.056840 0.031584
v -0.039593 0.045289 0.007380
v -0.036744 0.031076 0.011976
v -0.029636 0.037264 0.025941
v -0.019757 0.039834 0.035810
v 0.004692 0.019007 -0.034832
v 0.018597 0.039540 -0.035512
v 0.002625 0.032165 -0.038449
v 0.024602 0.022987 -0.027321
v 0.033257 0.038704 -0.021288
v 0.015515 0.005739 -0.022479
v 0.006712 -0.002427 -0.015900
v 0.033126 0.014930 -0.013536
v 0.039162 0.028136 -0.001714
v 0.034469 0.045854 -0.019695
v 0.038993 0.045713 0.003460
v 0.024184 -0.001521 -0.006164
v 0.032226 0.011479 0.009182
v 0.034437 0.025431 0.018339
v 0.031844 0.046157 0.023786
v 0.026776 0.041651 0.030385
v 0.020148 0.003962 0.022015
v 0.018040 0.027166 0.034073
v 0.007398 0.040551 0.039473
v -0.002290 0.028137 0.038866
v -0.019757 0.039834 0.035810
v -0.002363 0.010784 0.033833
v -0.003291 0.003914 0.028663
v 0.002886 -0.001355 0.020143
v 0.003641 0.000691 0.014049
v 0.012168 0.000993 0.006483
v 0.015361 -0.003455 -0.002780
v 0.004986 0.001077 -0.005415
v 0.002625 0.032165 -0.038449
v -0.014731 0.033338 -0.037980
v 0.004692 0.019007 -0.034832
v -0.007519 0.003912 -0.026114
v 0.006712 -0.002427 -0.015900
v -0.024830 0.017542 -0.027061
v -0.025928 0.037921 -0.033589
v -0.034810 0.031204 -0.020225
v -0.014350 -0.002527 -0.014299
v -0.004609 -0.001273 -0.004961
v 0.004986 0.001077 -0.005415
v -0.035602 0.019705 -0.005926
v -0.039682 0.032794 -0.007562
v -0.036744 0.031076 0.011976
v -0.021252 -0.001528 0.000369
v -0.006637 -0.000045 0.008902
v -0.021137 0.006917 0.020820
v -0.029636 0.037264 0.025941
v -0.019757 0.039834 0.035810
v -0.002363 0.010784 0.033833
v -0.003291 0.003914 0.028663
v -0.011125 -0.000308 0.020564
v 0.002886 -0.001355 0.020143
v 0.003641 0.000691 0.014049
v -0.002318 0.079181 0.003572
v -0.015000 0.078283 0.008899
v -0.011122 0.077780 0.003510
v 0.010277 0.081907 0.003414
v 0.001435 0.081202 -0.003370
v -0.006142 0.078463 0.022181
v -0.019915 0.072170 0.022042
v -0.022114 0.056840 0.031584
v 0.012168 0.079122 -0.017249
v -0.002901 0.077329 -0.016526
v -0.004175 0.054791 0.037299
v -0.019757 0.039834 0.035810
v 0.007398 0.040551 0.039473
v 0.004846 0.068570 0.029796
v 0.020643 0.058274 0.030356
v 0.026776 0.041651 0.030385
v 0.031844 0.046157 0.023786
v 0.017793 0.076364 0.015085
v 0.034587 0.061413 0.003776
v 0.038993 0.045713 0.003460
v 0.022112 0.076626 -0.005390
v 0.034469 0.045854 -0.019695
v 0.029302 0.064329 -0.016954
v 0.018788 0.065781 -0.028914
v 0.018597 0.039540 -0.035512
v 0.033257 0.038704 -0.021288
v 0.005410 0.070786 -0.031983
v -0.005259 0.069796 -0.031123
v -0.004045 0.057168 -0.038974
v 0.004812 0.048440 -0.038880
v 0.002625 0.032165 -0.038449
vt 0.525879 0.000488
vt 0.525391 0.008301
vt 0.517578 0.001465
vt 0.784668 0.091797
vt 0.784668 0.102539
vt 0.773926 0.099121
vt 0.778320 0.088867
vt 0.946289 0.141113
vt 0.940918 0.133789
vt 0.949219 0.131348
vt 0.935547 0.143066
vt 0.427979 0.183105
vt 0.429688 0.191895
vt 0.420654 0.190430
vt 0.422363 0.198730
vt 0.624512 0.104004
vt 0.626465 0.098633
vt 0.634766 0.110352
vt 0.642090 0.100586
vt 0.645020 0.105957
vt 0.637207 0.097168
vt 0.949219 0.253906
vt 0.945801 0.262695
vt 0.942383 0.243652
vt 0.930664 0.249512
vt 0.923828 0.256836
vt 0.936035 0.269531
vt 0.947266 0.274902
vt 0.926758 0.279785
vt 0.936035 0.285156
vt 0.948242 0.288574
vt 0.941895 0.289551
vt 0.931152 0.297363
vt 0.931152 0.305664
vt 0.926270 0.306641
vt 0.918457 0.296875
vt 0.914062 0.310059
vt 0.917480 0.271484
vt 0.909668 0.260254
vt 0.902344 0.269043
vt 0.914062 0.286621
vt 0.902344 0.298828
vt 0.898926 0.308594
vt 0.901855 0.284180
vt 0.891113 0.281738
vt 0.889160 0.294922
vt 0.885742 0.305176
vt 0.522949 0.869385
vt 0.510254 0.883545
vt 0.512695 0.869995
vt 0.524414 0.885742
vt 0.517090 0.898865
vt 0.537109 0.877258
vt 0.547363 0.872681
vt 0.534668 0.893066
vt 0.533203 0.906494
vt 0.513672 0.904053
vt 0.527344 0.919006
vt 0.547852 0.886963
vt 0.547852 0.902100
vt 0.546387 0.914246
vt 0.541992 0.929382
vt 0.550293 0.929504
vt 0.561035 0.902161
vt 0.561035 0.921570
vt 0.567383 0.933350
vt 0.576172 0.924927
vt 0.588379 0.935120
vt 0.578125 0.911011
vt 0.578613 0.903931
vt 0.572754 0.895630
vt 0.570801 0.891968
vt 0.561035 0.887878
vt 0.553223 0.883972
vt 0.556641 0.876038
vt 0.000000 0.373047
vt 0.009254 0.363281
vt 0.005821 0.382324
vt 0.021439 0.384277
vt 0.023483 0.397949
vt 0.024384 0.368164
vt 0.015671 0.354980
vt 0.029800 0.355957
vt 0.032227 0.385254
vt 0.036285 0.394531
vt 0.031799 0.401367
vt 0.041351 0.363770
vt 0.041107 0.354004
vt 0.056641 0.358887
vt 0.043182 0.383301
vt 0.048676 0.394531
vt 0.058350 0.381348
vt 0.069702 0.360352
vt 0.079712 0.365234
vt 0.072693 0.390625
vt 0.066040 0.393555
vt 0.057556 0.390137
vt 0.059357 0.399902
vt 0.054932 0.401855
vt 0.841309 0.572754
vt 0.830566 0.577393
vt 0.833496 0.572998
vt 0.851074 0.575195
vt 0.847656 0.567627
vt 0.836426 0.586914
vt 0.825684 0.589355
vt 0.823730 0.604248
vt 0.861328 0.563965
vt 0.854004 0.555664
vt 0.837402 0.607910
vt 0.825195 0.617920
vt 0.846680 0.618652
vt 0.843750 0.596680
vt 0.856445 0.603271
vt 0.863770 0.613525
vt 0.869141 0.607178
vt 0.854004 0.586182
vt 0.872070 0.587891
vt 0.882812 0.593994
vt 0.862793 0.574951
vt 0.889648 0.575195
vt 0.875488 0.572754
vt 0.874512 0.561523
vt 0.894043 0.557129
vt 0.895020 0.573730
vt 0.868164 0.552734
vt 0.864746 0.546387
vt 0.876465 0.542236
vt 0.885254 0.547363
vt 0.897461 0.544189
vt1 0.987305 0.875305
vt1 0.983398 0.927429
vt1 0.927246 0.879578
vt1 0.921387 0.991714
vt1 0.846680 0.991943
vt1 0.870117 0.916260
vt1 0.943848 0.946564
vt1 0.405029 0.976303
vt1 0.366211 0.924011
vt1 0.424316 0.907654
vt1 0.330566 0.991943
vt1 0.646973 0.534668
vt1 0.586914 0.521729
vt1 0.597168 0.588867
vt1 0.540039 0.575439
vt1 0.051086 0.038574
vt1 0.088562 0.053711
vt1 0.008064 0.110840
vt1 0.076782 0.164062
vt1 0.037415 0.185547
vt1 0.100220 0.128418
vt1 0.008064 0.481934
vt1 0.031250 0.419434
vt1 0.055420 0.556641
vt1 0.138306 0.513184
vt1 0.187622 0.461914
vt1 0.099792 0.370605
vt1 0.019562 0.332031
vt1 0.167114 0.299805
vt1 0.101746 0.262695
vt1 0.014046 0.237793
vt1 0.058136 0.229492
vt1 0.135254 0.174316
vt1 0.134399 0.116699
vt1 0.169678 0.108887
vt1 0.224365 0.179199
vt1 0.257080 0.084961
vt1 0.232666 0.358887
vt1 0.287354 0.436035
vt1 0.339844 0.375000
vt1 0.256348 0.250488
vt1 0.339600 0.165527
vt1 0.361816 0.095703
vt1 0.340332 0.267090
vt1 0.417480 0.285156
vt1 0.433350 0.191406
vt1 0.455078 0.117676
vt1 0.889648 0.524414
vt1 0.981934 0.625244
vt1 0.964355 0.529297
vt1 0.881348 0.641113
vt1 0.931641 0.734131
vt1 0.789062 0.580811
vt1 0.717773 0.547852
vt1 0.808105 0.693115
vt1 0.818848 0.788452
vt1 0.954590 0.770996
vt1 0.858887 0.877502
vt1 0.714355 0.649902
vt1 0.715332 0.757324
vt1 0.726562 0.843506
vt1 0.754883 0.951111
vt1 0.698242 0.952179
vt1 0.620605 0.757812
vt1 0.621094 0.895752
vt1 0.575684 0.979492
vt1 0.514160 0.919434
vt1 0.427246 0.991936
vt1 0.500488 0.820801
vt1 0.497314 0.770264
vt1 0.540039 0.711426
vt1 0.554199 0.685303
vt1 0.621582 0.656006
vt1 0.676758 0.628418
vt1 0.651855 0.572266
vt1 0.991699 0.339844
vt1 0.926270 0.408203
vt1 0.950684 0.274902
vt1 0.839844 0.260254
vt1 0.825684 0.162109
vt1 0.819336 0.373047
vt1 0.880859 0.465820
vt1 0.780762 0.461914
vt1 0.763672 0.252930
vt1 0.734863 0.186523
vt1 0.766602 0.139648
vt1 0.699219 0.404297
vt1 0.700684 0.476074
vt1 0.590820 0.441406
vt1 0.686035 0.267090
vt1 0.646973 0.187500
vt1 0.578613 0.282227
vt1 0.498047 0.428711
vt1 0.427246 0.396484
vt1 0.477051 0.214844
vt1 0.524414 0.195312
vt1 0.583984 0.218262
vt1 0.571289 0.149414
vt1 0.602539 0.137207
vt1 0.134521 0.665771
vt1 0.057404 0.698486
vt1 0.078796 0.668457
vt1 0.203857 0.683838
vt1 0.179688 0.630615
vt1 0.099426 0.766846
vt1 0.022797 0.784546
vt1 0.008064 0.888489
vt1 0.274170 0.604736
vt1 0.222900 0.544678
vt1 0.106201 0.915222
vt1 0.017899 0.986549
vt1 0.172241 0.991936
vt1 0.151489 0.835571
vt1 0.239380 0.881958
vt1 0.293213 0.955231
vt1 0.329102 0.910400
vt1 0.223511 0.762085
vt1 0.352295 0.774292
vt1 0.425781 0.817017
vt1 0.284912 0.682617
vt1 0.475830 0.683838
vt1 0.375488 0.666504
vt1 0.369873 0.585938
vt1 0.505859 0.555908
vt1 0.513184 0.672852
vt1 0.324463 0.525146
vt1 0.299561 0.479004
vt1 0.381104 0.449707
vt1 0.445557 0.486328
vt1 0.532227 0.464844
vn -0.173228 -0.905512 0.393701
vn 0.188976 -0.952756 0.228347
vn 0.055118 -1.000000 0.047244
vn -0.023622 0.992126 -0.094488
vn 0.055118 0.952756 0.291338
vn -0.236220 0.960630 -0.118110
vn 0.000000 0.881890 -0.472441
vn 0.055118 -1.000000 0.047244
vn 0.212598 -0.976378 -0.086614
vn -0.055118 -0.913386 -0.401575
vn 0.188976 -0.952756 0.228347
vn -0.173228 -0.905512 0.393701
vn 0.055118 -1.000000 0.047244
vn -0.574803 -0.779527 -0.244094
vn -0.055118 -0.913386 -0.401575
vn 0.055118 0.952756 0.291338
vn -0.236220 0.960630 -0.141732
vn -0.236220 0.960630 -0.118110
vn -0.362205 0.881890 -0.314961
vn 0.000000 0.881890 -0.472441
vn -0.259843 0.960630 -0.055118
vn 0.204724 0.110236 -0.976378
vn -0.047244 0.259842 -0.960630
vn 0.094488 -0.157480 -0.984252
vn -0.244094 -0.157480 -0.952756
vn -0.590551 -0.031496 -0.803149
vn -0.425197 0.385827 -0.818898
vn -0.157480 0.716535 -0.677165
vn -0.724409 0.527559 -0.448819
vn -0.338583 0.874016 -0.354331
vn -0.236220 0.960630 -0.141732
vn 0.055118 0.952756 0.291338
vn -0.023622 0.992126 -0.094488
vn 0.000000 0.881890 -0.472441
vn -0.267717 0.960630 0.039370
vn -0.669291 0.724409 0.188976
vn -0.464567 0.685039 0.566929
vn -0.889764 0.118110 -0.440945
vn -0.858268 -0.220472 -0.464567
vn -0.984252 -0.141732 -0.118110
vn -0.944882 0.330709 0.039370
vn -0.803150 0.244095 0.535433
vn -0.503937 0.330709 0.795275
vn -0.976378 0.031496 0.220472
vn -0.913386 -0.236220 0.338583
vn -0.771654 -0.118110 0.622047
vn -0.472441 -0.055118 0.881890
vn 0.141732 -0.409449 -0.897638
vn 0.480315 -0.015748 -0.881890
vn 0.094488 -0.157480 -0.984252
vn 0.590551 -0.307087 -0.748031
vn 0.826772 -0.078740 -0.551181
vn 0.338583 -0.629921 -0.700787
vn 0.086614 -0.937008 -0.330709
vn 0.826772 -0.409449 -0.385827
vn 0.984252 -0.165354 -0.047244
vn 0.874016 0.133858 -0.464567
vn 0.992126 0.133858 0.078740
vn 0.543307 -0.826772 -0.149606
vn 0.834646 -0.503937 0.212598
vn 0.858268 -0.220472 0.464567
vn 0.834646 0.188976 0.511811
vn 0.629921 0.015748 0.779527
vn 0.480315 -0.685039 0.551181
vn 0.440945 -0.251968 0.858268
vn 0.173228 0.047244 0.984252
vn -0.070866 -0.181102 0.984252
vn -0.472441 -0.055118 0.881890
vn -0.086614 -0.448819 0.889764
vn -0.110236 -0.692913 0.716535
vn 0.062992 -0.968504 0.228347
vn -0.055118 -0.913386 -0.401575
vn -0.574803 -0.779527 -0.244094
vn 0.007874 -0.976378 0.228347
vn -0.173228 -0.905512 0.393701
vn 0.094488 -0.157480 -0.984252
vn -0.244094 -0.157480 -0.952756
vn 0.141732 -0.409449 -0.897638
vn -0.125984 -0.661417 -0.740157
vn 0.086614 -0.937008 -0.330709
vn -0.606299 -0.456693 -0.645669
vn -0.590551 -0.031496 -0.803149
vn -0.858268 -0.220472 -0.464567
vn -0.346457 -0.889764 -0.291338
vn 0.188976 -0.952756 0.228347
vn -0.173228 -0.905512 0.393701
vn -0.889764 -0.448819 -0.086614
vn -0.984252 -0.141732 -0.118110
vn -0.913386 -0.236220 0.338583
vn -0.527559 -0.850394 0.023622
vn 0.212598 -0.976378 -0.086614
vn -0.661417 -0.535433 0.527559
vn -0.771654 -0.118110 0.622047
vn -0.472441 -0.055118 0.881890
vn -0.086614 -0.448819 0.889764
vn -0.110236 -0.692913 0.716535
vn -0.283465 -0.881890 0.377953
vn 0.062992 -0.968504 0.228347
vn -0.055118 -0.913386 -0.401575
vn -0.362205 0.881890 -0.314961
vn -0.267717 0.960630 0.039370
vn 0.000000 0.881890 -0.472441
vn 0.181102 0.976378 0.086614
vn -0.259843 0.960630 -0.055118
vn -0.102362 0.842520 0.519685
vn -0.464567 0.685039 0.566929
vn -0.503937 0.330709 0.795275
vn 0.259843 0.897638 -0.362205
vn -0.236220 0.960630 -0.141732
vn -0.062992 0.307087 0.952756
vn -0.472441 -0.055118 0.881890
vn 0.173228 0.047244 0.984252
vn 0.165354 0.574803 0.803149
vn 0.519685 0.409449 0.748031
vn 0.629921 0.015748 0.779527
vn 0.834646 0.188976 0.511811
vn 0.503937 0.755905 0.409449
vn 0.889764 0.440945 0.125984
vn 0.992126 0.133858 0.078740
vn 0.622047 0.779527 -0.086614
vn 0.874016 0.133858 -0.464567
vn 0.795276 0.472441 -0.370079
vn 0.535433 0.448819 -0.716535
vn 0.480315 -0.015748 -0.881890
vn 0.826772 -0.078740 -0.551181
vn 0.141732 0.653543 -0.748031
vn -0.157480 0.716535 -0.677165
vn -0.047244 0.259842 -0.960630
vn 0.204724 0.110236 -0.976378
vn 0.094488 -0.157480 -0.984252
tan 0.951702 -0.047740 0.308947 1.000000
tan 0.969496 0.217186 0.103850 1.000000
tan 0.969992 0.064170 0.226610 1.000000
tan -0.522289 0.068076 0.845372 1.000000
tan -0.765888 -0.145886 0.621985 1.000000
tan -0.591357 -0.047430 0.796949 1.000000
tan -0.310001 0.450121 0.840226 1.000000
tan -0.436419 0.018538 0.901544 1.000000
tan -0.330957 -0.155124 0.936326 1.000000
tan -0.144956 -0.392337 0.912270 1.000000
tan -0.636679 0.055924 0.760245 1.000000
tan 0.182900 -0.422221 -0.890632 1.000000
tan 0.436419 -0.018538 -0.901544 1.000000
tan 0.428049 -0.032612 -0.903838 1.000000
tan 0.602889 0.289850 -0.742017 1.000000
tan 0.564573 0.209498 -0.791927 1.000000
tan 0.887098 0.155496 -0.424577 1.000000
tan 0.962242 0.223200 -0.109120 1.000000
tan 0.915122 0.401761 0.072540 1.000000
tan 0.680265 0.345961 0.645793 1.000000
tan 0.950710 0.246636 -0.183396 1.000000
tan 0.409573 -0.915494 -0.017484 1.000000
tan 0.345093 -0.897886 -0.259842 1.000000
tan 0.407031 -0.893484 0.182032 1.000000
tan 0.428483 -0.896336 0.038378 1.000000
tan 0.433753 -0.850766 -0.285572 1.000000
tan 0.184202 -0.846054 -0.494265 1.000000
tan 0.050530 -0.677661 -0.728811 1.000000
tan -0.047988 -0.683923 -0.726455 1.000000
tan -0.168144 -0.427863 -0.894724 1.000000
tan -0.065968 -0.161448 -0.984314 1.000000
tan -0.137950 0.297290 -0.946122 1.000000
tan -0.526381 -0.092814 -0.842954 1.000000
tan -0.645049 -0.360841 -0.673569 1.000000
tan -0.659495 -0.153698 -0.734329 1.000000
tan -0.570897 -0.330833 -0.753735 1.000000
tan -0.853928 -0.160766 -0.505487 1.000000
tan 0.233926 -0.713063 -0.663029 1.000000
tan 0.467171 -0.706987 -0.527559 1.000000
tan 0.180606 -0.623101 -0.757331 1.000000
tan -0.239754 -0.593341 -0.770041 1.000000
tan -0.579887 -0.474301 -0.653605 1.000000
tan -0.845062 -0.382107 -0.376589 1.000000
tan -0.198152 -0.568417 -0.796329 1.000000
tan -0.170438 -0.530721 -0.830057 1.000000
tan -0.489925 -0.504991 -0.703639 1.000000
tan -0.775126 -0.449873 -0.443363 1.000000
tan -0.979850 -0.145080 -0.088536 1.000000
tan -0.829066 -0.340133 -0.445471 1.000000
tan -0.972782 -0.233368 -0.056048 1.000000
tan -0.798872 -0.379131 -0.475045 1.000000
tan -0.505921 -0.520801 -0.684481 1.000000
tan -0.941968 -0.163432 -0.308203 1.000000
tan -0.884060 0.076818 -0.449191 1.000000
tan -0.559241 -0.512989 -0.653977 1.000000
tan -0.148428 -0.678281 -0.718271 1.000000
tan -0.281605 -0.637113 -0.713373 1.000000
tan 0.151776 -0.731849 -0.668237 1.000000
tan -0.668423 -0.317007 -0.675553 1.000000
tan -0.249985 -0.695269 -0.666625 1.000000
tan 0.081344 -0.832476 -0.545353 1.000000
tan 0.424949 -0.804204 -0.396057 1.000000
tan 0.309939 -0.919462 -0.231880 1.000000
tan -0.182652 -0.692417 -0.701407 1.000000
tan 0.119040 -0.933784 -0.335297 1.000000
tan 0.194556 -0.984624 0.013020 1.000000
tan 0.125612 -0.983198 -0.171864 1.000000
tan 0.088536 -0.993986 -0.014694 1.000000
tan 0.063488 -0.892306 -0.443921 1.000000
tan -0.112840 -0.705251 -0.699361 1.000000
tan -0.388493 -0.235167 -0.890260 1.000000
tan 0.025296 0.401575 -0.916858 1.000000
tan -0.359663 0.511067 -0.785170 1.000000
tan -0.754542 -0.156798 -0.644429 1.000000
tan -0.798872 -0.104904 -0.592783 1.000000
tan -0.663711 0.725525 -0.179800 1.000000
tan -0.623535 0.776303 0.031434 1.000000
tan -0.705809 0.585901 -0.378697 1.000000
tan -0.764834 0.544485 -0.356377 1.000000
tan -0.797694 0.133796 -0.588009 1.000000
tan -0.577593 0.813875 -0.033294 1.000000
tan -0.377581 0.890012 0.242730 1.000000
tan -0.282225 0.954430 0.068448 1.000000
tan -0.835390 0.432575 -0.327671 1.000000
tan -0.911898 -0.256805 -0.316821 1.000000
tan -0.866142 -0.052328 -0.501457 1.000000
tan -0.439147 0.894352 -0.123132 1.000000
tan -0.129270 0.983632 -0.103106 1.000000
tan -0.333871 0.909728 -0.265981 1.000000
tan -0.845744 0.520987 -0.132742 1.000000
tan -0.974828 -0.218426 0.069502 1.000000
tan -0.692045 0.715109 -0.141856 1.000000
tan -0.415835 0.834646 -0.357369 1.000000
tan -0.577221 0.776241 -0.260711 1.000000
tan -0.842396 0.506231 0.173352 1.000000
tan -0.915122 0.361523 0.208816 1.000000
tan -0.934466 0.350425 0.116808 1.000000
tan -0.969062 -0.005580 0.243660 1.000000
tan -0.977122 -0.036332 0.216752 1.000000
tan -0.034720 -0.349681 -0.939178 1.000000
tan -0.002976 0.039928 -0.994482 1.000000
tan 0.133920 -0.468721 -0.874946 1.000000
tan -0.349743 0.146816 -0.923740 1.000000
tan -0.488375 -0.181040 -0.852936 1.000000
tan -0.065472 0.515593 -0.848782 1.000000
tan -0.064914 0.613367 -0.794345 1.000000
tan -0.084816 0.896832 -0.426685 1.000000
tan -0.694029 -0.086924 -0.713311 1.000000
tan -0.743257 -0.273421 -0.614421 1.000000
tan -0.030504 0.955732 -0.310063 1.000000
tan -0.109368 0.993986 0.003534 1.000000
tan 0.100688 0.989646 -0.065224 1.000000
tan -0.039928 0.816541 -0.576167 1.000000
tan 0.076508 0.852998 -0.520057 1.000000
tan 0.285573 0.926778 -0.249489 1.000000
tan 0.199764 0.763965 -0.607849 1.000000
tan -0.186000 0.559241 -0.803522 1.000000
tan -0.128960 0.503937 -0.852998 1.000000
tan 0.004960 0.480501 -0.879348 1.000000
tan -0.465807 0.278504 -0.838800 1.000000
tan -0.482547 0.143220 -0.866576 1.000000
tan -0.503627 0.193626 -0.835080 1.000000
tan -0.782442 -0.052824 -0.617769 1.000000
tan -0.875814 -0.088970 -0.475417 1.000000
tan -0.553661 0.013020 -0.832352 1.000000
tan -0.874884 -0.272739 -0.404055 1.000000
tan -0.815178 -0.477401 -0.315581 1.000000
tan -0.914688 -0.382913 -0.058590 1.000000
tan -0.961126 -0.185380 -0.222456 1.000000
tan -0.994792 -0.108624 -0.078120 1.000000
f 3/3/3 2/2/2 1/1/1
f 6/6/6 5/5/5 4/4/4
f 4/4/4 7/7/7 6/6/6
f 10/10/10 9/9/9 8/8/8
f 11/11/11 8/8/8 9/9/9
f 14/14/14 13/13/13 12/12/12
f 15/15/15 13/13/13 14/14/14
f 18/18/18 17/17/17 16/16/16
f 19/19/19 17/17/17 18/18/18
f 19/19/19 18/18/18 20/20/20
f 19/19/19 21/21/21 17/17/17
f 24/24/24 23/23/23 22/22/22
f 23/23/23 24/24/24 25/25/25
f 23/23/23 25/25/25 26/26/26
f 23/23/23 26/26/26 27/27/27
f 23/23/23 27/27/27 28/28/28
f 27/27/27 26/26/26 29/29/29
f 27/27/27 30/30/30 28/28/28
f 29/29/29 30/30/30 27/27/27
f 28/28/28 30/30/30 31/31/31
f 32/32/32 31/31/31 30/30/30
f 32/32/32 30/30/30 33/33/33
f 33/33/33 35/35/35 34/34/34
f 36/36/36 33/33/33 30/30/30
f 36/36/36 35/35/35 33/33/33
f 30/30/30 29/29/29 36/36/36
f 37/37/37 35/35/35 36/36/36
f 26/26/26 38/38/38 29/29/29
f 38/38/38 26/26/26 39/39/39
f 38/38/38 39/39/39 40/40/40
f 36/36/36 29/29/29 41/41/41
f 38/38/38 41/41/41 29/29/29
f 37/37/37 36/36/36 42/42/42
f 41/41/41 42/42/42 36/36/36
f 42/42/42 43/43/43 37/37/37
f 41/41/41 38/38/38 44/44/44
f 40/40/40 44/44/44 38/38/38
f 44/44/44 42/42/42 41/41/41
f 45/45/45 44/44/44 40/40/40
f 44/44/44 45/45/45 46/46/46
f 44/44/44 46/46/46 42/42/42
f 42/42/42 46/46/46 43/43/43
f 47/47/47 43/43/43 46/46/46
f 50/50/50 49/49/49 48/48/48
f 49/49/49 51/51/51 48/48/48
f 49/49/49 52/52/52 51/51/51
f 51/51/51 53/53/53 48/48/48
f 54/54/54 48/48/48 53/53/53
f 52/52/52 55/55/55 51/51/51
f 51/51/51 55/55/55 53/53/53
f 55/55/55 52/52/52 56/56/56
f 56/56/56 52/52/52 57/57/57
f 56/56/56 57/57/57 58/58/58
f 53/53/53 55/55/55 59/59/59
f 54/54/54 53/53/53 59/59/59
f 56/56/56 60/60/60 55/55/55
f 55/55/55 60/60/60 59/59/59
f 56/56/56 58/58/58 61/61/61
f 60/60/60 56/56/56 61/61/61
f 61/61/61 58/58/58 62/62/62
f 61/61/61 62/62/62 63/63/63
f 60/60/60 61/61/61 64/64/64
f 59/59/59 60/60/60 64/64/64
f 65/65/65 61/61/61 63/63/63
f 65/65/65 64/64/64 61/61/61
f 63/63/63 66/66/66 65/65/65
f 66/66/66 67/67/67 65/65/65
f 66/66/66 68/68/68 67/67/67
f 69/69/69 67/67/67 68/68/68
f 67/67/67 69/69/69 65/65/65
f 65/65/65 69/69/69 64/64/64
f 69/69/69 70/70/70 64/64/64
f 64/64/64 70/70/70 71/71/71
f 64/64/64 71/71/71 59/59/59
f 73/73/73 71/71/71 72/72/72
f 59/59/59 71/71/71 73/73/73
f 74/74/74 59/59/59 73/73/73
f 74/74/74 54/54/54 59/59/59
f 74/74/74 73/73/73 75/75/75
f 54/54/54 74/74/74 75/75/75
f 78/78/78 77/77/77 76/76/76
f 77/77/77 78/78/78 79/79/79
f 78/78/78 80/80/80 79/79/79
f 77/77/77 79/79/79 81/81/81
f 77/77/77 81/81/81 82/82/82
f 82/82/82 81/81/81 83/83/83
f 80/80/80 84/84/84 79/79/79
f 81/81/81 79/79/79 84/84/84
f 80/80/80 86/86/86 85/85/85
f 85/85/85 84/84/84 80/80/80
f 83/83/83 81/81/81 87/87/87
f 84/84/84 87/87/87 81/81/81
f 88/88/88 83/83/83 87/87/87
f 87/87/87 89/89/89 88/88/88
f 90/90/90 84/84/84 85/85/85
f 90/90/90 87/87/87 84/84/84
f 90/90/90 85/85/85 91/91/91
f 92/92/92 89/89/89 87/87/87
f 92/92/92 87/87/87 90/90/90
f 89/89/89 92/92/92 93/93/93
f 93/93/93 92/92/92 94/94/94
f 95/95/95 94/94/94 92/92/92
f 95/95/95 92/92/92 96/96/96
f 90/90/90 97/97/97 92/92/92
f 92/92/92 97/97/97 96/96/96
f 90/90/90 91/91/91 97/97/97
f 96/96/96 97/97/97 98/98/98
f 97/97/97 91/91/91 98/98/98
f 98/98/98 91/91/91 99/99/99
f 102/102/102 101/101/101 100/100/100
f 100/100/100 101/101/101 103/103/103
f 104/104/104 100/100/100 103/103/103
f 101/101/101 105/105/105 103/103/103
f 105/105/105 101/101/101 106/106/106
f 105/105/105 106/106/106 107/107/107
f 108/108/108 104/104/104 103/103/103
f 108/108/108 109/109/109 104/104/104
f 107/107/107 110/110/110 105/105/105
f 110/110/110 107/107/107 111/111/111
f 111/111/111 112/112/112 110/110/110
f 110/110/110 113/113/113 105/105/105
f 110/110/110 112/112/112 114/114/114
f 113/113/113 110/110/110 114/114/114
f 115/115/115 114/114/114 112/112/112
f 116/116/116 114/114/114 115/115/115
f 117/117/117 105/105/105 113/113/113
f 113/113/113 114/114/114 117/117/117
f 117/117/117 103/103/103 105/105/105
f 116/116/116 118/118/118 114/114/114
f 118/118/118 117/117/117 114/114/114
f 118/118/118 116/116/116 119/119/119
f 103/103/103 117/117/117 120/120/120
f 120/120/120 117/117/117 118/118/118
f 120/120/120 108/108/108 103/103/103
f 119/119/119 121/121/121 118/118/118
f 122/122/122 120/120/120 118/118/118
f 118/118/118 121/121/121 122/122/122
f 108/108/108 120/120/120 122/122/122
f 121/121/121 123/123/123 122/122/122
f 108/108/108 122/122/122 123/123/123
f 121/121/121 125/125/125 124/124/124
f 121/121/121 124/124/124 123/123/123
f 123/123/123 126/126/126 108/108/108
f 123/123/123 124/124/124 126/126/126
f 126/126/126 109/109/109 108/108/108
f 127/127/127 109/109/109 126/126/126
f 126/126/126 128/128/128 127/127/127
f 128/128/128 126/126/126 129/129/129
f 129/129/129 126/126/126 124/124/124
f 129/129/129 124/124/124 130/130/130
