mtllib SM_Food_SM_Apple_02_LOD3.mtl
g SM_Food_SM_Apple_02_LOD3
#Vertices 26
#Indices 54
#Section 0 Offset 0 NumIndices 54 MaterialIndex 0 MI_Food
v 0.050092 0.051977 -0.021310
v 0.010664 0.037450 -0.065244
v 0.013392 0.001834 -0.042072
v 0.045441 0.047024 0.022248
v -0.005064 -0.013655 0.013932
v -0.010609 0.049226 0.033730
v 0.007977 0.085822 -0.025418
v 0.010664 0.037450 -0.065244
v 0.050092 0.051977 -0.021310
v 0.045441 0.047024 0.022248
v -0.013838 0.087387 0.019843
v -0.010609 0.049226 0.033730
v -0.044069 0.036444 0.010167
v -0.010609 0.049226 0.033730
v -0.005064 -0.013655 0.013932
v -0.029938 0.039342 -0.047183
v 0.010664 0.037450 -0.065244
v 0.013392 0.001834 -0.042072
v -0.013838 0.087387 0.019843
v -0.010609 0.049226 0.033730
v -0.044069 0.036444 0.010167
v -0.014023 0.091943 -0.030445
v 0.007977 0.085822 -0.025418
v -0.029938 0.039342 -0.047183
v 0.010664 0.037450 -0.065244
v 0.007977 0.085822 -0.025418
vt 0.905762 0.165039
vt 0.949707 0.147461
vt 0.952148 0.180176
vt 0.893066 0.194336
vt 0.940430 0.226562
vt 0.891113 0.236328
vt 0.862305 0.670898
vt 0.815430 0.677979
vt 0.837891 0.640625
vt 0.859863 0.616699
vt 0.897949 0.655029
vt 0.902344 0.624756
vt 0.703613 0.924011
vt 0.673828 0.909729
vt 0.711914 0.878357
vt 0.752441 0.924744
vt 0.779297 0.902222
vt 0.755371 0.880737
vt 0.600098 0.890320
vt 0.580566 0.867065
vt 0.608887 0.844849
vt 0.635742 0.893616
vt 0.633301 0.907532
vt 0.657715 0.857178
vt 0.683105 0.879761
vt 0.645020 0.909058
vt1 0.521484 0.302734
vt1 0.410645 0.025391
vt1 0.614746 0.009766
vt1 0.703125 0.382324
vt1 0.903809 0.084473
vt1 0.966309 0.395020
vt1 0.086670 0.365723
vt1 0.042389 0.660400
vt1 0.275879 0.520020
vt1 0.424561 0.379883
vt1 0.185181 0.143066
vt1 0.375244 0.115723
vt1 0.547363 0.433105
vt1 0.360107 0.522461
vt1 0.598145 0.718506
vt1 0.851074 0.428711
vt1 1.019531 0.569580
vt1 0.871582 0.703613
vt1 0.136841 0.911682
vt1 0.013489 0.765503
vt1 0.189697 0.625977
vt1 0.359619 0.932617
vt1 0.344727 1.019775
vt1 0.495850 0.703613
vt1 0.656250 0.845703
vt1 0.415283 1.029297
vn 0.976378 0.149606 -0.165354
vn 0.212598 -0.110236 -0.968504
vn 0.267717 -0.795276 -0.543307
vn 0.811024 -0.055118 0.574803
vn -0.173228 -0.929134 0.322835
vn -0.212598 0.157480 0.968504
vn 0.086614 0.984252 -0.173228
vn 0.275591 -0.070866 -0.960630
vn 0.952756 0.259842 -0.181102
vn 0.795276 -0.007874 0.606299
vn -0.173228 0.811024 0.559055
vn -0.204724 0.149606 0.968504
vn -0.921260 -0.118110 0.370079
vn -0.188976 0.086614 0.976378
vn -0.165354 -0.944882 0.299213
vn -0.645669 -0.133858 -0.748031
vn 0.102362 -0.165354 -0.984252
vn 0.196850 -0.811024 -0.551181
vn -0.236220 0.795276 0.566929
vn -0.204724 0.118110 0.968504
vn -0.921260 -0.173228 0.354331
vn -0.188976 0.929134 -0.307087
vn 0.299213 0.716535 -0.629921
vn -0.637795 -0.149606 -0.755905
vn 0.094488 -0.110236 -0.992126
vn 0.102362 0.992126 0.062992
tan -0.220224 0.553537 -0.799554 1.000000
tan -0.404179 0.876992 -0.188542 1.000000
tan 0.190898 0.597743 -0.780891 1.000000
tan 0.567797 0.243474 -0.777791 1.000000
tan 0.817472 -0.312729 -0.461405 1.000000
tan 0.968504 -0.038130 0.218798 1.000000
tan 0.820138 0.023188 0.541819 1.000000
tan 0.946618 -0.169632 0.284085 1.000000
tan 0.315891 -0.804141 0.508091 1.000000
tan -0.556699 -0.385021 0.725215 1.000000
tan 0.051522 -0.550871 0.815116 1.000000
tan 0.259285 -0.930374 0.198524 1.000000
tan 0.326245 -0.703639 0.587575 1.000000
tan 0.684915 -0.690433 0.193812 1.000000
tan 0.942154 -0.192324 -0.086676 1.000000
tan 0.723913 -0.391593 -0.554777 1.000000
tan 0.596751 -0.782751 0.193564 1.000000
tan 0.296299 -0.449811 0.767685 1.000000
tan -0.556327 -0.583669 0.586955 1.000000
tan -0.480439 -0.838862 0.000744 1.000000
tan 0.046500 -0.878852 -0.308760 1.000000
tan -0.899870 -0.255565 -0.219480 1.000000
tan -0.723231 0.013020 -0.328725 1.000000
tan -0.684729 -0.332569 0.643561 1.000000
tan -0.726517 -0.679645 0.006324 1.000000
tan -0.796826 0.119412 -0.585901 1.000000
f 3/3/3 2/2/2 1/1/1
f 3/3/3 1/1/1 4/4/4
f 3/3/3 4/4/4 5/5/5
f 4/4/4 6/6/6 5/5/5
f 9/9/9 8/8/8 7/7/7
f 7/7/7 10/10/10 9/9/9
f 10/10/10 7/7/7 11/11/11
f 12/12/12 10/10/10 11/11/11
f 15/15/15 14/14/14 13/13/13
f 13/13/13 16/16/16 15/15/15
f 17/17/17 15/15/15 16/16/16
f 18/18/18 15/15/15 17/17/17
f 21/21/21 20/20/20 19/19/19
f 19/19/19 22/22/22 21/21/21
f 19/19/19 23/23/23 22/22/22
f 24/24/24 21/21/21 22/22/22
f 22/22/22 25/25/25 24/24/24
f 26/26/26 25/25/25 22/22/22
