mtllib SM_Fence_07_LOD2.mtl
g SM_Fence_07_LOD2
#Vertices 40
#Indices 48
#Section 0 Offset 0 NumIndices 48 MaterialIndex 0 MI_Fences
v 0.021298 -0.013380 0.037130
v 0.051713 0.899516 -0.004539
v 0.029063 -0.027274 -0.023290
v 0.051713 0.899516 -0.004539
v 0.021298 -0.013380 0.037130
v 0.006168 0.915405 0.067639
v -0.028987 -0.007303 0.040931
v 0.006168 0.915405 0.067639
v 0.021298 -0.013380 0.037130
v 0.006168 0.915405 0.067639
v -0.028987 -0.007303 0.040931
v -0.048886 0.957436 0.052811
v -0.059395 -0.027401 0.011557
v -0.048886 0.957436 0.052811
v -0.028987 -0.007303 0.040931
v -0.048886 0.957436 0.052811
v -0.059395 -0.027401 0.011557
v -0.075194 0.981332 -0.011254
v -0.075194 0.981332 -0.011254
v -0.059395 -0.027401 0.011557
v -0.040453 -0.012970 -0.041633
v -0.040453 -0.012970 -0.041633
v -0.004600 0.941887 -0.073742
v -0.075194 0.981332 -0.011254
v -0.004600 0.941887 -0.073742
v -0.040453 -0.012970 -0.041633
v 0.029063 -0.027274 -0.023290
v -0.004600 0.941887 -0.073742
v 0.029063 -0.027274 -0.023290
v 0.051713 0.899516 -0.004539
v -0.040453 -0.012970 -0.041633
v -0.059395 -0.027401 0.011557
v 0.029063 -0.027274 -0.023290
v -0.028987 -0.007303 0.040931
v 0.021298 -0.013380 0.037130
v 0.006168 0.915405 0.067639
v -0.048886 0.957436 0.052811
v 0.051713 0.899516 -0.004539
v -0.075194 0.981332 -0.011254
v -0.004600 0.941887 -0.073742
vt 0.477295 -0.003906
vt 0.460205 0.385742
vt 0.452881 -0.009766
vt 0.461426 0.385254
vt 0.477539 -0.002930
vt 0.492920 0.392090
vt 0.557617 0.409180
vt 0.572266 0.015625
vt 0.578613 0.411621
vt 0.571289 0.016113
vt 0.557617 0.409180
vt 0.548828 -0.001953
vt 0.513672 -0.009766
vt 0.498779 0.410156
vt 0.502930 -0.000977
vt 0.497803 0.410156
vt 0.516113 -0.009766
vt 0.523438 0.420410
vt 0.525391 0.420410
vt 0.516602 -0.009766
vt 0.539551 -0.002930
vt 0.539062 -0.002930
vt 0.560059 0.403320
vt 0.525879 0.420410
vt 0.599609 0.403809
vt 0.587891 -0.002930
vt 0.616211 -0.009766
vt 0.429932 0.403809
vt 0.452393 -0.009766
vt 0.454834 0.385254
vt 0.088013 0.747559
vt 0.067688 0.754761
vt 0.081970 0.718994
vt 0.056091 0.742676
vt 0.058960 0.722656
vt 0.490967 0.392578
vt 0.484375 0.408691
vt 0.459961 0.381348
vt 0.457275 0.416992
vt 0.431885 0.397949
vt1 0.657715 1.005718
vt1 0.616699 0.077637
vt1 0.599121 1.019836
vt1 0.620117 0.078125
vt1 0.658203 1.005501
vt1 0.694824 0.062012
vt1 0.860840 0.999549
vt1 0.896973 0.041992
vt1 0.912598 1.005951
vt1 0.894531 0.041992
vt1 0.860840 0.999500
vt1 0.839844 -0.001953
vt1 0.775391 -0.019531
vt1 0.811523 0.981262
vt1 0.801270 0.000977
vt1 0.813965 0.981201
vt1 0.770020 -0.019531
vt1 0.752930 1.005394
vt1 0.747559 1.005589
vt1 0.769531 -0.019531
vt1 0.713867 -0.004883
vt1 0.715332 -0.004883
vt1 0.664551 0.965088
vt1 0.746582 1.005535
vt1 0.963379 0.986076
vt1 0.935059 -0.004883
vt1 1.003906 -0.019531
vt1 0.544922 0.034668
vt1 0.598145 1.019623
vt1 0.604004 0.078125
vt1 0.525879 0.857910
vt1 0.209473 0.970154
vt1 0.431641 0.411621
vt1 0.028122 0.782104
vt1 0.072937 0.469238
vt1 0.689941 0.061523
vt1 0.674805 0.022949
vt1 0.616211 0.087891
vt1 0.609863 0.003418
vt1 0.549805 0.047852
vn 0.740157 -0.015748 0.669291
vn 1.000000 -0.015748 -0.055118
vn 0.905512 -0.007874 -0.425197
vn 1.000000 -0.007874 -0.007874
vn 0.661417 -0.015748 0.748031
vn 0.385827 -0.015748 0.921260
vn -0.330709 -0.023622 0.944882
vn 0.220472 -0.023622 0.976378
vn 0.559055 -0.023622 0.826772
vn 0.149606 -0.023622 0.992126
vn -0.385827 -0.023622 0.921260
vn -0.629921 -0.015748 0.779527
vn -0.937008 -0.015748 0.362205
vn -0.661417 -0.015748 0.748031
vn -0.362205 -0.023622 0.929134
vn -0.653543 -0.015748 0.755905
vn -0.952756 -0.015748 0.307087
vn -1.000000 -0.007874 -0.055118
vn -1.000000 -0.015748 -0.086614
vn -0.976378 -0.007874 0.212598
vn -0.622047 -0.015748 -0.787401
vn -0.716535 -0.015748 -0.700787
vn -0.236220 -0.015748 -0.976378
vn -0.984252 -0.015748 -0.181102
vn -0.031496 -0.023622 -1.000000
vn -0.322835 -0.023622 -0.944882
vn 0.771654 -0.015748 -0.637795
vn 0.118110 -0.023622 -0.992126
vn 0.755906 -0.015748 -0.653543
vn 0.968504 -0.007874 -0.236220
vn 0.000000 -1.000000 0.000000
vn 0.000000 -1.000000 0.000000
vn 0.000000 -1.000000 0.000000
vn 0.000000 -1.000000 0.000000
vn 0.000000 -1.000000 0.000000
vn 0.551181 0.834646 -0.000000
vn 0.551181 0.834646 -0.000000
vn 0.551181 0.834646 -0.000000
vn 0.551181 0.834646 -0.000000
vn 0.551181 0.834646 -0.000000
tan -0.036828 -0.755967 0.022940 1.000000
tan -0.016182 -1.000000 -0.007874 1.000000
tan -0.014570 -0.905512 -0.014260 1.000000
tan -0.008060 -1.000000 -0.023622 1.000000
tan -0.047740 -0.980222 0.021576 1.000000
tan -0.036890 -0.936450 -0.000558 1.000000
tan 0.007440 0.944882 0.026226 1.000000
tan -0.007688 0.976378 0.025358 1.000000
tan -0.019530 0.826772 0.036828 1.000000
tan -0.015624 0.992126 0.025978 1.000000
tan -0.000372 0.927336 0.023622 1.000000
tan 0.008804 0.899994 0.025296 1.000000
tan 0.007192 -0.928452 -0.021762 1.000000
tan 0.001426 -0.972844 -0.019220 1.000000
tan 0.007130 -0.926282 -0.020770 1.000000
tan 0.022940 -0.999628 -0.000992 1.000000
tan 0.013330 -0.947920 -0.007254 1.000000
tan 0.008742 -1.000000 -0.015748 1.000000
tan 0.015066 -1.000000 0.007874 1.000000
tan 0.009548 -0.976378 0.007688 1.000000
tan 0.071548 -0.659247 -0.043338 1.000000
tan 0.042594 -0.897886 -0.023374 1.000000
tan 0.038316 -0.974518 0.006448 1.000000
tan 0.014322 -0.982826 0.007626 1.000000
tan -0.039370 -1.000000 0.024862 1.000000
tan -0.051708 -0.949966 0.041416 1.000000
tan 0.040114 -0.851758 0.069564 1.000000
tan -0.015624 -0.992126 0.021762 1.000000
tan -0.006758 -1.003658 0.016368 1.000000
tan -0.004154 -0.964784 0.015128 1.000000
tan 1.000000 0.000000 0.000000 1.000000
tan 1.000000 0.000000 0.000000 1.000000
tan 1.000000 0.000000 0.000000 1.000000
tan 1.000000 0.000000 0.000000 1.000000
tan 1.000000 0.000000 0.000000 1.000000
tan 0.834646 -0.551181 0.000000 1.000000
tan 0.834646 -0.551181 0.000000 1.000000
tan 0.834646 -0.551181 0.000000 1.000000
tan 0.834646 -0.551181 0.000000 1.000000
tan 0.834646 -0.551181 0.000000 1.000000
f 3/3/3 2/2/2 1/1/1
f 6/6/6 5/5/5 4/4/4
f 9/9/9 8/8/8 7/7/7
f 12/12/12 11/11/11 10/10/10
f 15/15/15 14/14/14 13/13/13
f 18/18/18 17/17/17 16/16/16
f 21/21/21 20/20/20 19/19/19
f 24/24/24 23/23/23 22/22/22
f 27/27/27 26/26/26 25/25/25
f 30/30/30 29/29/29 28/28/28
f 33/33/33 32/32/32 31/31/31
f 32/32/32 33/33/33 34/34/34
f 35/35/35 34/34/34 33/33/33
f 38/38/38 37/37/37 36/36/36
f 37/37/37 38/38/38 39/39/39
f 40/40/40 39/39/39 38/38/38
