mtllib SM_Frames_02_LOD1.mtl
g SM_Frames_02_LOD1
#Vertices 66
#Indices 132
#Section 0 Offset 0 NumIndices 132 MaterialIndex 0 MI_Frames
v -0.002448 0.368515 -0.313245
v -0.008225 0.406397 -0.356725
v 0.010145 0.405983 -0.355667
v -0.003501 0.000103 -0.366145
v -0.008224 0.037052 -0.320476
v 0.010191 0.036622 -0.321644
v 0.001768 0.372226 0.320850
v 0.001768 0.372225 -0.320696
v 0.001768 0.036819 -0.320696
v 0.001768 0.036819 0.320850
v 0.008189 0.408996 0.362393
v 0.007688 0.036942 0.316876
v -0.002149 -0.000013 0.372072
v -0.002759 0.368411 0.310499
v -0.008135 0.369382 -0.318651
v -0.008132 0.369383 0.318554
v 0.008005 0.369382 0.318542
v 0.010067 0.369988 -0.318739
v 0.010006 0.371383 0.320487
v 0.010006 0.404896 -0.353062
v 0.010006 0.404896 0.353056
v 0.008005 0.406897 -0.355001
v 0.008005 0.406897 0.355001
v -0.008140 0.406901 0.354886
v -0.008139 0.406912 -0.354895
v -0.008139 -0.000007 -0.354890
v -0.008140 -0.000009 0.354889
v 0.008005 0.000000 0.355001
v 0.008005 -0.000000 -0.355001
v 0.010006 0.002001 0.353056
v 0.010006 0.002001 -0.353061
v 0.010006 0.035514 0.320487
v 0.010006 0.035514 -0.320578
v 0.008005 0.037515 0.318542
v 0.008005 0.037515 -0.318639
v -0.008131 0.037514 0.318553
v -0.008135 0.037514 -0.318652
v 0.010067 0.369988 -0.318739
v -0.008139 0.406912 -0.354895
v -0.008135 0.369382 -0.318651
v 0.010006 0.404896 -0.353062
v 0.008005 0.406897 -0.355001
v 0.010006 0.404896 0.353056
v -0.008140 0.406901 0.354886
v 0.008005 0.406897 0.355001
v -0.008132 0.369383 0.318554
v 0.010006 0.371383 0.320487
v 0.008005 0.369382 0.318542
v -0.008135 0.037514 -0.318652
v 0.010006 0.035514 -0.320578
v 0.008005 0.037515 -0.318639
v -0.008139 -0.000007 -0.354890
v 0.010006 0.002001 -0.353061
v 0.008005 -0.000000 -0.355001
v -0.008140 -0.000009 0.354889
v 0.010006 0.002001 0.353056
v 0.008005 0.000000 0.355001
v -0.008131 0.037514 0.318553
v 0.010006 0.035514 0.320487
v 0.008005 0.037515 0.318542
v -0.003501 0.000103 -0.366145
v 0.010145 0.405983 -0.355667
v -0.008225 0.406397 -0.356725
v 0.010191 0.036622 -0.321644
v -0.002448 0.368515 -0.313245
v -0.008224 0.037052 -0.320476
vt 0.331299 0.911865
vt 0.323730 0.820068
vt 0.349365 0.821655
vt 0.330566 0.913391
vt 0.323730 0.819946
vt 0.349365 0.821655
vt 0.496826 0.000488
vt 0.496826 0.451660
vt 0.260742 0.451660
vt 0.260742 0.000488
vt 0.395264 0.956116
vt 0.364990 0.691406
vt 0.401367 0.665283
vt 0.359619 0.927124
vt 0.770020 0.479980
vt 0.770020 0.026367
vt 0.781250 0.026367
vt 0.782227 0.479980
vt 0.782715 0.024902
vt 0.806641 0.504150
vt 0.806641 0.001465
vt 0.808105 0.505615
vt 0.808105 0.000488
vt 0.819336 0.000488
vt 0.819336 0.505615
vt 0.823730 0.505615
vt 0.823730 0.000488
vt 0.834961 0.000488
vt 0.834961 0.505615
vt 0.836426 0.001465
vt 0.836426 0.504150
vt 0.860352 0.024902
vt 0.860352 0.481445
vt 0.861816 0.026367
vt 0.861816 0.479980
vt 0.873047 0.026367
vt 0.873047 0.479980
vt 0.349121 0.821045
vt 0.323975 0.902222
vt 0.323730 0.820679
vt 0.348877 0.898315
vt 0.348877 0.898315
vt 0.348877 0.824463
vt 0.323730 0.820801
vt 0.348877 0.824463
vt 0.323975 0.902344
vt 0.348877 0.898315
vt 0.348877 0.898315
vt 0.346680 0.820679
vt 0.321533 0.824463
vt 0.321533 0.824463
vt 0.346436 0.902222
vt 0.321533 0.898315
vt 0.321533 0.898315
vt 0.346680 0.820801
vt 0.321533 0.824463
vt 0.321533 0.824463
vt 0.346436 0.902344
vt 0.321533 0.898315
vt 0.321533 0.898315
vt 0.881348 0.000488
vt 0.889648 0.289062
vt 0.876953 0.289551
vt 0.913574 0.026367
vt 0.920898 0.262695
vt 0.926270 0.026367
vt1 0.808594 0.312988
vt1 0.800781 0.215332
vt1 0.828125 0.216797
vt1 0.782227 0.327148
vt1 0.881836 0.319824
vt1 0.879883 0.347656
vt1 0.505859 0.040039
vt1 0.505859 0.991936
vt1 0.008064 0.991936
vt1 0.008064 0.040039
vt1 0.963379 0.995686
vt1 0.898926 0.443359
vt1 0.977051 0.389160
vt1 0.887207 0.935242
vt1 0.636719 0.941589
vt1 0.636719 0.058594
vt1 0.659180 0.058594
vt1 0.660645 0.941711
vt1 0.661621 0.056152
vt1 0.708008 0.989250
vt1 0.708008 0.011230
vt1 0.710938 0.991936
vt1 0.710938 0.008301
vt1 0.733398 0.008301
vt1 0.733398 0.991791
vt1 0.523926 0.991783
vt1 0.523926 0.008301
vt1 0.545898 0.008301
vt1 0.545898 0.991936
vt1 0.548828 0.011230
vt1 0.548828 0.989250
vt1 0.595215 0.056152
vt1 0.595215 0.944244
vt1 0.598145 0.058594
vt1 0.598145 0.941559
vt1 0.620605 0.058594
vt1 0.620605 0.941589
vt1 0.994141 0.363281
vt1 0.906738 0.335938
vt1 0.994629 0.335938
vt1 0.911133 0.363281
vt1 0.911133 0.363281
vt1 0.894043 0.395508
vt1 0.897949 0.368164
vt1 0.894043 0.395508
vt1 0.810059 0.368164
vt1 0.814453 0.395508
vt1 0.814453 0.395508
vt1 0.777344 0.182617
vt1 0.750000 0.187012
vt1 0.750000 0.187012
vt1 0.776855 0.270508
vt1 0.750000 0.266602
vt1 0.750000 0.266602
vt1 0.776855 0.279785
vt1 0.750000 0.283691
vt1 0.750000 0.283691
vt1 0.776855 0.367676
vt1 0.750000 0.363281
vt1 0.750000 0.363281
vt1 0.757812 0.388672
vt1 0.775879 0.991165
vt1 0.749512 0.991776
vt1 0.827148 0.442871
vt1 0.842773 0.935547
vt1 0.853516 0.443848
vn 0.000000 0.700787 0.716535
vn 0.000000 0.700787 0.716535
vn 0.000000 0.700787 0.716535
vn 0.000000 -0.700787 0.716535
vn 0.000000 -0.700787 0.716535
vn 0.000000 -0.700787 0.716535
vn 1.000000 0.000000 0.000000
vn 1.000000 0.000000 0.000000
vn 1.000000 0.000000 0.000000
vn 1.000000 0.000000 0.000000
vn 0.889764 0.000000 0.464567
vn 0.944882 -0.000000 -0.322835
vn 0.519685 0.000000 0.858268
vn 0.590551 -0.000000 -0.803149
vn 0.000000 -1.000000 0.000000
vn 0.000000 -1.000000 0.000000
vn 0.149606 -0.992126 0.000000
vn 0.905512 -0.425197 0.000000
vn 1.000000 -0.023622 0.000000
vn 0.992126 0.141732 -0.000000
vn 0.992126 0.141732 -0.000000
vn 0.070866 1.000000 -0.000000
vn 0.070866 1.000000 -0.000000
vn 0.000000 1.000000 -0.000000
vn 0.000000 1.000000 -0.000000
vn 0.000000 -1.000000 0.000000
vn 0.000000 -1.000000 0.000000
vn 0.070866 -1.000000 0.000000
vn 0.070866 -1.000000 0.000000
vn 0.992126 -0.141732 0.000000
vn 0.992126 -0.141732 0.000000
vn 1.000000 0.023622 -0.000000
vn 1.000000 0.023622 -0.000000
vn 0.149606 0.992126 -0.000000
vn 0.149606 0.992126 -0.000000
vn 0.000000 1.000000 -0.000000
vn 0.000000 1.000000 -0.000000
vn 0.000000 -0.692913 -0.716535
vn 0.000000 -0.692913 -0.716535
vn 0.000000 -0.692913 -0.716535
vn 0.000000 -0.692913 -0.716535
vn 0.000000 -0.692913 -0.716535
vn 0.000000 -0.700787 0.716535
vn 0.000000 -0.700787 0.716535
vn 0.000000 -0.700787 0.716535
vn 0.000000 -0.700787 0.716535
vn 0.000000 -0.700787 0.716535
vn 0.000000 -0.700787 0.716535
vn 0.000000 0.692913 -0.716535
vn 0.000000 0.692913 -0.716535
vn 0.000000 0.692913 -0.716535
vn 0.000000 0.692913 -0.716535
vn 0.000000 0.692913 -0.716535
vn 0.000000 0.692913 -0.716535
vn 0.000000 0.700787 0.716535
vn 0.000000 0.700787 0.716535
vn 0.000000 0.700787 0.716535
vn 0.000000 0.700787 0.716535
vn 0.000000 0.700787 0.716535
vn 0.000000 0.700787 0.716535
vn 0.291339 -0.000000 -0.952756
vn 0.913386 -0.000000 -0.409449
vn 0.000000 -0.000000 -1.000000
vn 0.968504 0.000000 0.236220
vn 0.401575 0.000000 0.913386
vn 0.000000 0.000000 1.000000
tan 0.279249 -0.688325 0.673197 1.000000
tan -0.117242 0.710893 -0.695269 1.000000
tan 0.340567 0.671399 -0.656643 1.000000
tan 0.312729 -0.682683 -0.667679 1.000000
tan -0.117242 0.710893 0.695269 1.000000
tan 0.340567 0.671399 0.656643 1.000000
tan 0.000000 0.000000 1.000000 1.000000
tan 0.000000 0.000000 1.000000 1.000000
tan 0.000000 0.000000 1.000000 1.000000
tan 0.000000 0.000000 1.000000 1.000000
tan 0.000000 -0.922686 0.000000 1.000000
tan 0.000000 -0.955050 0.000000 1.000000
tan 0.000000 -0.995288 0.000000 1.000000
tan 0.000000 -0.992498 0.000000 1.000000
tan 0.000000 0.000000 1.000000 1.000000
tan 0.000000 0.000000 1.000000 1.000000
tan 0.000000 0.000000 0.992126 1.000000
tan 0.000000 0.000000 0.941906 1.000000
tan 0.000000 0.000000 1.000000 1.000000
tan 0.000000 0.000000 0.992126 1.000000
tan 0.000000 0.000000 0.992126 1.000000
tan 0.000000 0.000000 1.000000 1.000000
tan 0.000000 0.000000 1.000000 1.000000
tan 0.000000 0.000000 1.000000 1.000000
tan 0.000000 0.000000 1.000000 1.000000
tan 0.000000 0.000000 1.000000 1.000000
tan 0.000000 0.000000 1.000000 1.000000
tan 0.000000 0.000000 1.000000 1.000000
tan 0.000000 0.000000 1.000000 1.000000
tan 0.000000 0.000000 0.992126 1.000000
tan 0.000000 0.000000 0.992126 1.000000
tan 0.000000 0.000000 1.000000 1.000000
tan 0.000000 0.000000 1.000000 1.000000
tan 0.000000 0.000000 0.992126 1.000000
tan 0.000000 0.000000 0.992126 1.000000
tan 0.000000 0.000000 1.000000 1.000000
tan 0.000000 0.000000 1.000000 1.000000
tan 0.044392 -0.716535 0.692913 1.000000
tan 0.055490 -0.716535 0.692913 1.000000
tan 0.044392 -0.716535 0.692913 1.000000
tan 0.899684 -0.304669 0.294625 1.000000
tan -0.744125 0.479571 -0.463761 1.000000
tan -0.716535 0.000000 0.000000 1.000000
tan 0.010788 0.716535 0.700787 1.000000
tan 0.575051 0.586769 0.573873 1.000000
tan 0.044640 0.716535 0.700787 1.000000
tan 0.893174 0.327237 0.320045 1.000000
tan -0.748093 -0.479571 -0.469031 1.000000
tan -0.722301 0.490855 0.474673 1.000000
tan 0.294377 0.682683 0.660177 1.000000
tan 0.000000 0.716535 0.692913 1.000000
tan -0.338955 0.671399 0.649265 1.000000
tan 0.499783 0.620621 0.600161 1.000000
tan 0.372063 0.665757 0.643809 1.000000
tan -0.737181 -0.485213 0.474549 1.000000
tan 0.295927 -0.682683 0.667679 1.000000
tan 0.000000 -0.716535 0.700787 1.000000
tan -0.323889 -0.677041 0.662161 1.000000
tan 0.502449 -0.620621 0.606981 1.000000
tan 0.374047 -0.665757 0.651125 1.000000
tan 0.000000 -0.961932 0.000000 1.000000
tan 0.000000 -0.935954 0.000000 1.000000
tan 0.000000 -1.000000 0.000000 1.000000
tan 0.000000 -0.972224 0.000000 1.000000
tan 0.000000 -0.950462 0.000000 1.000000
tan 0.000000 -1.000000 0.000000 1.000000
f 3/3/3 2/2/2 1/1/1
f 6/6/6 5/5/5 4/4/4
f 9/9/9 8/8/8 7/7/7
f 7/7/7 10/10/10 9/9/9
f 13/13/13 12/12/12 11/11/11
f 14/14/14 11/11/11 12/12/12
f 17/17/17 16/16/16 15/15/15
f 15/15/15 18/18/18 17/17/17
f 17/17/17 18/18/18 19/19/19
f 18/18/18 20/20/20 19/19/19
f 21/21/21 19/19/19 20/20/20
f 20/20/20 22/22/22 21/21/21
f 23/23/23 21/21/21 22/22/22
f 23/23/23 22/22/22 24/24/24
f 25/25/25 24/24/24 22/22/22
f 28/28/28 27/27/27 26/26/26
f 26/26/26 29/29/29 28/28/28
f 28/28/28 29/29/29 30/30/30
f 31/31/31 30/30/30 29/29/29
f 32/32/32 30/30/30 31/31/31
f 33/33/33 32/32/32 31/31/31
f 32/32/32 33/33/33 34/34/34
f 35/35/35 34/34/34 33/33/33
f 34/34/34 35/35/35 36/36/36
f 37/37/37 36/36/36 35/35/35
f 40/40/40 39/39/39 38/38/38
f 38/38/38 39/39/39 41/41/41
f 42/42/42 41/41/41 39/39/39
f 45/45/45 44/44/44 43/43/43
f 44/44/44 46/46/46 43/43/43
f 43/43/43 46/46/46 47/47/47
f 48/48/48 47/47/47 46/46/46
f 51/51/51 50/50/50 49/49/49
f 52/52/52 49/49/49 50/50/50
f 53/53/53 52/52/52 50/50/50
f 54/54/54 52/52/52 53/53/53
f 57/57/57 56/56/56 55/55/55
f 58/58/58 55/55/55 56/56/56
f 59/59/59 58/58/58 56/56/56
f 60/60/60 58/58/58 59/59/59
f 63/63/63 62/62/62 61/61/61
f 64/64/64 61/61/61 62/62/62
f 65/65/65 64/64/64 62/62/62
f 66/66/66 64/64/64 65/65/65
