mtllib SM_Food_SM_Pepper_02_LOD3.mtl
g SM_Food_SM_Pepper_02_LOD3
#Vertices 48
#Indices 102
#Section 0 Offset 0 NumIndices 102 MaterialIndex 0 MI_Food
v 0.019996 0.094417 -0.007809
v 0.020425 0.095830 0.021912
v 0.002075 0.094697 0.018881
v 0.019996 0.094417 -0.007809
v 0.002075 0.094697 0.018881
v -0.018104 0.094560 0.001351
v -0.008770 0.093037 -0.019720
v 0.026225 -0.005866 -0.005876
v -0.004167 -0.001565 -0.013403
v -0.004084 -0.012818 0.018897
v -0.036909 -0.008219 -0.003332
v 0.048876 0.055868 0.042262
v -0.004084 -0.012818 0.018897
v 0.009435 0.045782 0.049553
v 0.026225 -0.005866 -0.005876
v 0.053539 0.048938 -0.008385
v -0.047184 0.046730 -0.036133
v -0.055006 0.074481 -0.004485
v -0.036909 -0.008219 -0.003332
v -0.004167 -0.001565 -0.013403
v 0.035924 0.051558 -0.052623
v 0.026225 -0.005866 -0.005876
v 0.053539 0.048938 -0.008385
v 0.005341 0.096838 0.056014
v -0.018104 0.094560 0.001351
v 0.002075 0.094697 0.018881
v -0.033948 0.080731 0.053199
v -0.055006 0.074481 -0.004485
v 0.009435 0.045782 0.049553
v -0.036909 -0.008219 -0.003332
v -0.004084 -0.012818 0.018897
v 0.035924 0.051558 -0.052623
v 0.053539 0.048938 -0.008385
v 0.055332 0.096059 -0.007406
v -0.004330 0.089471 -0.054505
v 0.019996 0.094417 -0.007809
v -0.047184 0.046730 -0.036133
v -0.008770 0.093037 -0.019720
v -0.055006 0.074481 -0.004485
v -0.018104 0.094560 0.001351
v 0.020425 0.095830 0.021912
v 0.005341 0.096838 0.056014
v 0.002075 0.094697 0.018881
v 0.009435 0.045782 0.049553
v 0.048876 0.055868 0.042262
v 0.055332 0.096059 -0.007406
v 0.019996 0.094417 -0.007809
v 0.053539 0.048938 -0.008385
vt 0.122742 0.763428
vt 0.145752 0.757324
vt 0.148926 0.773682
vt 0.577637 0.141113
vt 0.557617 0.166992
vt 0.541992 0.149902
vt 0.549805 0.132812
vt 0.547852 0.409668
vt 0.514648 0.409180
vt 0.516602 0.386719
vt 0.484131 0.401367
vt 0.728027 0.804932
vt 0.652344 0.831421
vt 0.690430 0.783081
vt 0.676270 0.858643
vt 0.733398 0.856201
vt 0.254883 0.715576
vt 0.213379 0.714600
vt 0.269531 0.656006
vt 0.301758 0.669189
vt 0.337158 0.729736
vt 0.338135 0.660400
vt 0.377197 0.701172
vt 0.522949 0.282715
vt 0.479248 0.326660
vt 0.489014 0.296875
vt 0.530273 0.315918
vt 0.503906 0.368652
vt 0.580566 0.299805
vt 0.586914 0.388672
vt 0.608887 0.358398
vt 0.596191 0.022461
vt 0.644043 0.009277
vt 0.654297 0.052246
vt 0.590820 0.070801
vt 0.635254 0.081055
vt 0.536133 0.087891
vt 0.603516 0.101074
vt 0.556641 0.124512
vt 0.601562 0.124023
vt 0.791504 0.632324
vt 0.819336 0.611328
vt 0.808105 0.641357
vt 0.811035 0.564209
vt 0.772949 0.581055
vt 0.748047 0.633789
vt 0.770020 0.653320
vt 0.725098 0.597656
vt1 0.829590 0.617432
vt1 0.916504 0.640381
vt1 0.928711 0.579102
vt1 0.899414 0.410645
vt1 0.825684 0.510498
vt1 0.766113 0.444824
vt1 0.796875 0.380371
vt1 0.316406 0.262695
vt1 0.317139 0.140137
vt1 0.403076 0.147461
vt1 0.346680 0.026855
vt1 0.926270 0.271484
vt1 0.641113 0.171875
vt1 0.784180 0.354004
vt1 0.731445 0.069824
vt1 0.946289 0.078613
vt1 0.526367 0.688721
vt1 0.529785 0.845215
vt1 0.750977 0.633545
vt1 0.701172 0.512695
vt1 0.473877 0.379883
vt1 0.734375 0.375488
vt1 0.580566 0.229004
vt1 0.197266 0.596680
vt1 0.032196 0.763794
vt1 0.069458 0.650635
vt1 0.225586 0.723145
vt1 0.125977 0.921814
vt1 0.415283 0.662842
vt1 0.439453 0.996449
vt1 0.522461 0.882141
vt1 0.228149 0.539307
vt1 0.407471 0.588135
vt1 0.446777 0.427246
vt1 0.207764 0.357422
vt1 0.375977 0.317383
vt1 0.003286 0.292969
vt1 0.255859 0.242676
vt1 0.079590 0.154297
vt1 0.248535 0.155762
vt1 0.895508 0.890747
vt1 0.816406 0.994675
vt1 0.930176 0.952911
vt1 0.639648 0.964478
vt1 0.703613 0.820190
vt1 0.901367 0.726807
vt1 0.974609 0.809326
vt1 0.766113 0.641602
vn -0.157480 0.952756 0.275590
vn 0.141732 0.889764 -0.425197
vn 0.417323 0.897638 0.149606
vn -0.031496 0.874016 -0.488189
vn -0.472441 0.866142 -0.133858
vn 0.125984 0.992126 0.047244
vn 0.031496 0.992126 0.102362
vn -0.220472 -0.952756 -0.196850
vn 0.322835 -0.929134 0.173228
vn 0.173228 -0.787401 -0.590551
vn -0.590551 -0.771653 0.220472
vn 0.787402 -0.023622 0.614173
vn -0.314961 -0.889764 0.338583
vn -0.094488 -0.236220 0.968504
vn 0.582677 -0.795275 -0.188976
vn 0.937008 -0.259843 -0.236220
vn -0.803150 -0.047244 -0.598425
vn -0.976378 0.181102 -0.149606
vn -0.566929 -0.755905 0.314961
vn 0.244094 -0.968504 -0.039370
vn 0.354331 -0.078740 -0.929134
vn 0.102362 -0.992126 0.086614
vn 0.976378 -0.228346 0.015748
vn -0.023622 0.669291 0.740157
vn 0.196850 0.952756 -0.220473
vn -0.031496 0.913386 -0.417323
vn -0.527559 0.267717 0.811023
vn -0.960630 0.228346 -0.173228
vn -0.039370 -0.188976 0.984252
vn -0.669291 -0.740157 0.000000
vn 0.440945 -0.881890 0.149606
vn 0.370079 -0.094488 -0.921260
vn 0.984252 -0.196850 0.000000
vn 0.724409 0.685039 -0.000000
vn -0.047244 0.503937 -0.858268
vn -0.047244 0.952756 0.299212
vn -0.811024 -0.149606 -0.559055
vn 0.196850 0.960630 0.204724
vn -0.937008 0.338583 -0.078740
vn 0.078740 1.000000 0.031496
vn 0.023622 0.913386 -0.401575
vn 0.000000 0.519685 0.858268
vn -0.204724 0.842520 -0.496063
vn -0.110236 -0.251968 0.960630
vn 0.771654 -0.039370 0.637795
vn 0.740157 0.669291 -0.007874
vn -0.629921 0.763779 0.125984
vn 0.921260 -0.307087 -0.236220
tan 0.930250 0.097340 0.195052 1.000000
tan 0.707297 0.152892 0.555707 1.000000
tan 0.658503 -0.404799 0.591915 1.000000
tan 0.158286 -0.474797 -0.860252 1.000000
tan -0.851448 -0.487135 -0.146940 1.000000
tan -0.414037 0.095728 -0.906194 1.000000
tan 0.070308 0.100130 -0.992126 1.000000
tan -0.292579 -0.119846 0.907744 1.000000
tan -0.074524 0.147808 0.931676 1.000000
tan -0.128650 -0.612623 0.779094 1.000000
tan -0.443549 0.525823 0.652303 1.000000
tan -0.613057 0.037200 0.787401 1.000000
tan -0.105772 0.378077 0.895158 1.000000
tan -0.427057 0.869366 0.170376 1.000000
tan 0.461095 0.129084 0.878480 1.000000
tan 0.292021 0.219481 0.916920 1.000000
tan -0.567301 -0.222828 0.778969 1.000000
tan -0.229276 -0.607353 0.761113 1.000000
tan 0.736561 -0.434001 0.284209 1.000000
tan -0.137268 -0.073656 0.960878 1.000000
tan 0.446277 -0.812077 0.239011 1.000000
tan -0.789014 -0.028892 0.601525 1.000000
tan -0.187922 -0.761237 0.613243 1.000000
tan 0.887532 -0.303615 0.302871 1.000000
tan 0.761176 -0.024614 0.573253 1.000000
tan 0.776738 0.243661 0.474673 1.000000
tan 0.829934 0.094550 0.508649 1.000000
tan 0.062558 0.733709 0.620249 1.000000
tan 0.612251 0.767251 0.171802 1.000000
tan 0.611941 -0.553351 0.559055 1.000000
tan 0.529977 0.386323 0.715233 1.000000
tan 0.579577 -0.721061 0.306777 1.000000
tan -0.195300 -0.976502 0.116250 1.000000
tan 0.685039 -0.724409 0.010788 1.000000
tan 0.273111 -0.811334 -0.491413 1.000000
tan 0.795214 0.206708 -0.532643 1.000000
tan 0.572013 -0.074648 -0.809845 1.000000
tan 0.387377 0.107942 -0.878976 1.000000
tan 0.136152 0.160456 -0.930250 1.000000
tan 0.267717 0.009176 -0.960630 1.000000
tan 0.316449 0.368095 0.855850 1.000000
tan 0.085188 -0.851510 0.515593 1.000000
tan 0.229462 0.531341 0.807737 1.000000
tan 0.000000 -0.960630 -0.251968 1.000000
tan -0.598363 -0.329965 0.703577 1.000000
tan 0.664703 -0.734143 0.079918 1.000000
tan 0.753735 0.599169 0.136214 1.000000
tan -0.111414 -0.747163 0.536797 1.000000
f 3/3/3 2/2/2 1/1/1
f 6/6/6 5/5/5 4/4/4
f 6/6/6 4/4/4 7/7/7
f 10/10/10 9/9/9 8/8/8
f 9/9/9 10/10/10 11/11/11
f 14/14/14 13/13/13 12/12/12
f 12/12/12 13/13/13 15/15/15
f 16/16/16 12/12/12 15/15/15
f 19/19/19 18/18/18 17/17/17
f 20/20/20 19/19/19 17/17/17
f 21/21/21 20/20/20 17/17/17
f 22/22/22 20/20/20 21/21/21
f 23/23/23 22/22/22 21/21/21
f 26/26/26 25/25/25 24/24/24
f 25/25/25 27/27/27 24/24/24
f 28/28/28 27/27/27 25/25/25
f 24/24/24 27/27/27 29/29/29
f 28/28/28 30/30/30 27/27/27
f 29/29/29 27/27/27 31/31/31
f 27/27/27 30/30/30 31/31/31
f 34/34/34 33/33/33 32/32/32
f 34/34/34 32/32/32 35/35/35
f 34/34/34 35/35/35 36/36/36
f 32/32/32 37/37/37 35/35/35
f 35/35/35 38/38/38 36/36/36
f 39/39/39 35/35/35 37/37/37
f 39/39/39 38/38/38 35/35/35
f 39/39/39 40/40/40 38/38/38
f 43/43/43 42/42/42 41/41/41
f 45/45/45 42/42/42 44/44/44
f 42/42/42 45/45/45 41/41/41
f 41/41/41 45/45/45 46/46/46
f 47/47/47 41/41/41 46/46/46
f 48/48/48 46/46/46 45/45/45
