mtllib SM_Food_SM_Apple_02_LOD2.mtl
g SM_Food_SM_Apple_02_LOD2
#Vertices 44
#Indices 114
#Section 0 Offset 0 NumIndices 114 MaterialIndex 0 MI_Food
v 0.000758 0.081687 -0.008573
v -0.010426 0.077084 -0.024752
v 0.017965 0.070699 -0.015938
v 0.007506 0.074997 -0.036273
v 0.025389 0.047700 -0.050158
v 0.013507 0.057110 -0.059100
v 0.007417 0.034477 -0.058092
v 0.050092 0.051977 -0.021310
v 0.007506 0.074997 -0.036273
v 0.017965 0.070699 -0.015938
v 0.026409 0.079290 0.002528
v 0.000758 0.081687 -0.008573
v -0.013838 0.087387 0.019843
v 0.028060 0.050193 0.024488
v 0.042716 0.043554 0.001009
v -0.010609 0.049226 0.033730
v 0.007417 0.034477 -0.058092
v 0.013392 0.001834 -0.042072
v 0.025389 0.047700 -0.050158
v 0.050092 0.051977 -0.021310
v 0.028603 0.005763 0.009844
v 0.042716 0.043554 0.001009
v -0.004632 0.003456 0.003266
v 0.028060 0.050193 0.024488
v -0.005745 0.016851 0.031421
v -0.010609 0.049226 0.033730
v 0.013507 0.057110 -0.059100
v -0.029938 0.039342 -0.047183
v 0.007417 0.034477 -0.058092
v -0.030316 0.078376 -0.031911
v 0.007506 0.074997 -0.036273
v -0.010426 0.077084 -0.024752
v 0.000758 0.081687 -0.008573
v -0.044069 0.036444 0.010167
v -0.013838 0.087387 0.019843
v -0.010609 0.049226 0.033730
v -0.044069 0.036444 0.010167
v -0.010609 0.049226 0.033730
v -0.005745 0.016851 0.031421
v -0.029603 0.001600 -0.016934
v -0.004632 0.003456 0.003266
v -0.029938 0.039342 -0.047183
v 0.013392 0.001834 -0.042072
v 0.007417 0.034477 -0.058092
vt 0.811035 0.209961
vt 0.820801 0.199219
vt 0.824707 0.220703
vt 0.836426 0.200195
vt 0.823730 0.665283
vt 0.828125 0.677246
vt 0.812012 0.677979
vt 0.837891 0.640625
vt 0.849609 0.675537
vt 0.858398 0.660889
vt 0.866699 0.647705
vt 0.875977 0.665039
vt 0.897949 0.655029
vt 0.871582 0.621338
vt 0.848633 0.625488
vt 0.902344 0.624756
vt 0.950684 0.152344
vt 0.952148 0.180176
vt 0.932129 0.149902
vt 0.905762 0.165039
vt 0.923340 0.204102
vt 0.901367 0.184082
vt 0.941406 0.220703
vt 0.889648 0.205078
vt 0.915527 0.232422
vt 0.891113 0.236328
vt 0.673340 0.890869
vt 0.657715 0.857178
vt 0.683105 0.876404
vt 0.636719 0.880066
vt 0.653809 0.900879
vt 0.637207 0.893616
vt 0.621094 0.903076
vt 0.608887 0.844849
vt 0.600098 0.890320
vt 0.580566 0.867065
vt 0.703613 0.924011
vt 0.673828 0.909729
vt 0.689453 0.890015
vt 0.727051 0.900574
vt 0.716309 0.881165
vt 0.752441 0.924744
vt 0.755371 0.880737
vt 0.772949 0.901794
vt1 0.715332 0.991936
vt1 0.781250 0.931702
vt1 0.648926 0.906433
vt1 0.776367 0.832153
vt1 0.121521 0.606201
vt1 0.046021 0.580566
vt1 0.041534 0.680908
vt1 0.275879 0.520020
vt1 0.057007 0.445312
vt1 0.148315 0.390625
vt1 0.231934 0.339844
vt1 0.122253 0.280273
vt1 0.185181 0.143066
vt1 0.395996 0.308594
vt1 0.370605 0.451172
vt1 0.375244 0.115723
vt1 0.441162 0.020020
vt1 0.614746 0.009766
vt1 0.427246 0.135742
vt1 0.521484 0.302734
vt1 0.763672 0.190430
vt1 0.639648 0.329590
vt1 0.867188 0.077637
vt1 0.770020 0.401855
vt1 0.940430 0.239746
vt1 0.966309 0.395020
vt1 0.594727 0.915222
vt1 0.495850 0.703613
vt1 0.656250 0.824707
vt1 0.365723 0.847412
vt1 0.470703 0.978134
vt1 0.366699 0.932373
vt1 0.266846 0.991936
vt1 0.189697 0.625977
vt1 0.136841 0.911682
vt1 0.013489 0.765503
vt1 0.547363 0.433105
vt1 0.360107 0.522461
vt1 0.458496 0.645508
vt1 0.693848 0.579346
vt1 0.625000 0.701172
vt1 0.851074 0.428711
vt1 0.871582 0.703613
vt1 0.980469 0.572021
vn 0.244094 0.889764 -0.393701
vn 0.456693 0.858268 -0.244095
vn -0.125984 0.874016 -0.472441
vn 0.007874 0.992126 0.094488
vn 0.566929 0.094488 -0.818897
vn 0.259843 0.307086 -0.913386
vn 0.118110 -0.244095 -0.960630
vn 0.952756 0.259842 -0.181102
vn 0.062992 0.952756 -0.307087
vn 0.000000 0.984252 -0.157480
vn 0.551181 0.795275 0.236220
vn 0.244094 0.889764 -0.393701
vn -0.173228 0.811024 0.559055
vn 0.637795 0.133858 0.763779
vn 0.937008 -0.094488 0.338583
vn -0.204724 0.149606 0.968504
vn 0.125984 -0.267717 -0.952756
vn 0.267717 -0.795276 -0.543307
vn 0.566929 0.094488 -0.818897
vn 0.976378 0.149606 -0.165354
vn 0.566929 -0.724409 0.393701
vn 0.937008 -0.094488 0.338583
vn -0.141732 -0.976378 0.149606
vn 0.629921 0.133858 0.763779
vn -0.102362 -0.448819 0.889764
vn -0.212598 0.157480 0.968504
vn 0.188976 0.330709 -0.921260
vn -0.637795 -0.149606 -0.755905
vn 0.047244 -0.220473 -0.976378
vn -0.488189 0.771653 -0.409449
vn 0.110236 0.976378 -0.204724
vn 0.377953 0.921260 -0.118110
vn 0.244094 0.889764 -0.393701
vn -0.921260 -0.173228 0.354331
vn -0.236220 0.795276 0.566929
vn -0.204724 0.118110 0.968504
vn -0.921260 -0.118110 0.370079
vn -0.188976 0.086614 0.976378
vn -0.181102 -0.472441 0.866142
vn -0.590551 -0.787401 -0.173228
vn 0.000000 -0.968504 0.259843
vn -0.645669 -0.133858 -0.748031
vn 0.196850 -0.811024 -0.551181
vn 0.055118 -0.236221 -0.968504
tan -0.926158 0.204972 -0.110980 1.000000
tan -0.800298 0.324633 -0.355881 1.000000
tan -0.575485 -0.442185 -0.664579 1.000000
tan -0.281233 0.093000 -0.953066 1.000000
tan 0.819146 -0.117552 0.553537 1.000000
tan 0.915804 -0.023622 0.252588 1.000000
tan 0.937938 -0.219356 0.171058 1.000000
tan 0.315891 -0.804141 0.508091 1.000000
tan 0.790130 0.122016 0.540641 1.000000
tan 0.813752 0.089280 0.558001 1.000000
tan 0.654473 -0.588381 0.453779 1.000000
tan 0.512803 0.202926 0.776551 1.000000
tan 0.051522 -0.550871 0.815116 1.000000
tan -0.230268 -0.882510 0.346953 1.000000
tan -0.249799 -0.824911 0.461095 1.000000
tan 0.259285 -0.930374 0.198524 1.000000
tan -0.234670 0.921756 -0.290037 1.000000
tan 0.190898 0.597743 -0.780891 1.000000
tan -0.610577 0.678033 -0.344473 1.000000
tan -0.220224 0.553537 -0.799554 1.000000
tan 0.794966 0.424825 -0.363073 1.000000
tan 0.346023 0.393701 -0.847728 1.000000
tan 0.907186 -0.185876 -0.353649 1.000000
tan 0.761672 0.052018 -0.637299 1.000000
tan 0.802406 -0.433009 -0.126108 1.000000
tan 0.968504 -0.038130 0.218798 1.000000
tan -0.546097 -0.742885 -0.378697 1.000000
tan -0.684729 -0.332569 0.643561 1.000000
tan -0.568913 -0.791865 0.151280 1.000000
tan -0.786410 -0.568913 -0.134540 1.000000
tan -0.716597 -0.057908 -0.662037 1.000000
tan -0.893174 0.338149 -0.220596 1.000000
tan -0.923058 0.260772 0.017050 1.000000
tan 0.046500 -0.878852 -0.308760 1.000000
tan -0.556327 -0.583669 0.586955 1.000000
tan -0.480439 -0.838862 0.000744 1.000000
tan 0.326245 -0.703639 0.587575 1.000000
tan 0.684915 -0.690433 0.193812 1.000000
tan 0.448881 -0.760184 -0.320789 1.000000
tan 0.776366 -0.611259 0.131750 1.000000
tan 0.960878 0.028644 0.106764 1.000000
tan 0.723913 -0.391593 -0.554777 1.000000
tan 0.296299 -0.449811 0.767685 1.000000
tan 0.617707 -0.747349 0.217434 1.000000
f 3/3/3 2/2/2 1/1/1
f 3/3/3 4/4/4 2/2/2
f 7/7/7 6/6/6 5/5/5
f 5/5/5 6/6/6 8/8/8
f 8/8/8 6/6/6 9/9/9
f 8/8/8 9/9/9 10/10/10
f 8/8/8 10/10/10 11/11/11
f 10/10/10 12/12/12 11/11/11
f 12/12/12 13/13/13 11/11/11
f 11/11/11 14/14/14 8/8/8
f 14/14/14 11/11/11 13/13/13
f 14/14/14 15/15/15 8/8/8
f 16/16/16 14/14/14 13/13/13
f 19/19/19 18/18/18 17/17/17
f 18/18/18 19/19/19 20/20/20
f 18/18/18 20/20/20 21/21/21
f 21/21/21 20/20/20 22/22/22
f 18/18/18 21/21/21 23/23/23
f 24/24/24 21/21/21 22/22/22
f 25/25/25 23/23/23 21/21/21
f 25/25/25 21/21/21 24/24/24
f 24/24/24 26/26/26 25/25/25
f 29/29/29 28/28/28 27/27/27
f 30/30/30 27/27/27 28/28/28
f 31/31/31 27/27/27 30/30/30
f 30/30/30 32/32/32 31/31/31
f 32/32/32 30/30/30 33/33/33
f 28/28/28 34/34/34 30/30/30
f 35/35/35 33/33/33 30/30/30
f 35/35/35 30/30/30 34/34/34
f 34/34/34 36/36/36 35/35/35
f 39/39/39 38/38/38 37/37/37
f 37/37/37 40/40/40 39/39/39
f 41/41/41 39/39/39 40/40/40
f 37/37/37 42/42/42 40/40/40
f 40/40/40 43/43/43 41/41/41
f 44/44/44 40/40/40 42/42/42
f 43/43/43 40/40/40 44/44/44
