mtllib SM_Frames_08_LOD4.mtl
g SM_Frames_08_LOD4
#Vertices 13
#Indices 21
#Section 0 Offset 0 NumIndices 21 MaterialIndex 0 MI_Frames
v 0.018807 0.236055 -0.021679
v -0.105200 0.000329 -0.062052
v -0.064792 -0.005155 -0.060825
v 0.018807 0.236055 -0.021679
v -0.105232 0.000144 0.046256
v 0.035795 0.195971 0.026435
v 0.018807 0.236055 -0.021679
v -0.064792 -0.005155 -0.060825
v 0.018807 0.236055 -0.021679
v -0.000055 0.326226 -0.136078
v 0.087011 0.038072 -0.136078
v -0.000055 0.326226 0.136219
v 0.087011 0.038072 0.136219
vt 0.634277 0.405762
vt 0.641113 0.215332
vt 0.666504 0.211914
vt 0.616211 0.396484
vt 0.582520 0.214844
vt 0.565430 0.379883
vt 0.593750 0.390625
vt 0.507324 0.215820
vt 0.517090 0.400391
vt 0.212280 0.661865
vt 0.212280 0.455078
vt 0.407959 0.661865
vt 0.407959 0.455078
vt1 0.460449 0.931946
vt1 0.916016 0.949341
vt1 0.924316 1.015518
vt1 0.482422 0.885620
vt1 0.916992 0.797852
vt1 0.521973 0.754395
vt1 0.496338 0.827393
vt1 0.914062 0.604248
vt1 0.473145 0.628906
vt1 0.008064 0.991936
vt1 0.008064 0.486816
vt1 0.465332 0.991936
vt1 0.465332 0.486816
vn -0.724409 0.480315 -0.496063
vn -0.826772 0.519685 -0.212598
vn 0.551181 -0.236221 -0.803149
vn -0.858268 0.511811 -0.086614
vn -0.803150 0.511811 0.307087
vn 0.850394 -0.448819 0.291339
vn -0.685039 0.456693 0.566929
vn 0.874016 -0.480315 -0.023622
vn 0.874016 -0.480315 0.039370
vn 0.960630 0.291339 -0.000000
vn 0.960630 0.291339 -0.000000
vn 0.960630 0.291339 -0.000000
vn 0.960630 0.291339 -0.000000
tan -0.622047 -0.141856 0.771033 1.000000
tan -0.436543 -0.807800 -0.276954 1.000000
tan 0.238452 -0.824353 0.406101 1.000000
tan -0.510447 -0.858950 -0.017546 1.000000
tan -0.542439 -0.824353 -0.044764 1.000000
tan -0.402753 -0.862236 -0.152706 1.000000
tan 0.150164 -0.649699 0.704817 1.000000
tan -0.480873 -0.874016 -0.020646 1.000000
tan -0.479075 -0.874326 -0.031310 1.000000
tan 0.291339 -0.960630 0.000000 1.000000
tan 0.291339 -0.960630 0.000000 1.000000
tan 0.291339 -0.960630 0.000000 1.000000
tan 0.291339 -0.960630 0.000000 1.000000
f 3/3/3 2/2/2 1/1/1
f 5/5/5 4/4/4 2/2/2
f 7/7/7 5/5/5 6/6/6
f 8/8/8 6/6/6 5/5/5
f 9/9/9 6/6/6 8/8/8
f 12/12/12 11/11/11 10/10/10
f 12/12/12 13/13/13 11/11/11
