mtllib SM_FloorKitchenWood_LOD4.mtl
g SM_FloorKitchenWood_LOD4
#Vertices 46
#Indices 60
#Section 0 Offset 0 NumIndices 60 MaterialIndex 0 MI_FloorKitchenWood
v 0.837374 0.227059 1.295116
v 0.902175 0.172338 8.091898
v 0.999972 0.202036 1.251681
v 0.999972 0.202036 1.251681
v 0.902175 0.172338 8.091898
v 0.952329 0.214801 8.082150
v -3.380276 0.070513 -0.682144
v -0.502531 0.111259 -0.768427
v -3.374929 0.116508 -0.734496
v -3.380276 0.070513 -0.682144
v -0.521513 0.144062 -0.553278
v -0.502531 0.111259 -0.768427
v 1.146718 0.131050 1.082665
v 1.217447 0.071212 8.092774
v 1.322668 0.101189 1.034453
v 1.322668 0.101189 1.034453
v 1.217447 0.071212 8.092774
v 1.274049 0.116470 8.081594
v 0.999972 0.202036 1.251681
v -0.714011 0.273230 -0.279565
v 0.837374 0.227059 1.295116
v -0.642391 0.208712 -0.406207
v -0.642391 0.208712 -0.406207
v 0.999972 0.202036 1.251681
v -0.714011 0.273230 -0.279565
v 0.837374 0.227059 1.295116
v 0.999972 0.202036 1.251681
v 0.952329 0.214801 8.082150
v 0.837374 0.227059 1.295116
v 0.902175 0.172338 8.091898
v -3.374929 0.116508 -0.734496
v -0.502531 0.111259 -0.768427
v -0.521513 0.144062 -0.553278
v -3.380276 0.070513 -0.682144
v 1.322668 0.101189 1.034453
v -0.521513 0.144062 -0.553278
v 1.146718 0.131050 1.082665
v -0.502531 0.111259 -0.768427
v -0.502531 0.111259 -0.768427
v 1.322668 0.101189 1.034453
v -0.521513 0.144062 -0.553278
v 1.146718 0.131050 1.082665
v 1.322668 0.101189 1.034453
v 1.274049 0.116470 8.081594
v 1.146718 0.131050 1.082665
v 1.217447 0.071212 8.092774
vt 0.029800 0.966370
vt 0.039795 -0.000977
vt 0.052460 0.972000
vt 0.048431 0.972137
vt 0.044464 -0.000977
vt 0.050201 0.000488
vt 0.079529 0.406738
vt 0.080261 -0.001953
vt 0.082642 0.406250
vt 0.071289 0.406738
vt 0.054352 0.000000
vt 0.083557 -0.001953
vt -0.003891 0.996639
vt 0.007160 -0.000977
vt 0.020721 1.002901
vt 0.016373 1.003036
vt 0.011383 -0.000977
vt 0.018280 0.000488
vt 0.184204 -0.000977
vt 0.163574 0.324707
vt 0.163818 0.010254
vt 0.183594 0.330078
vt 0.176880 0.330078
vt 0.175659 -0.000977
vt 0.197998 0.324707
vt 0.196655 0.009766
vt 0.044708 0.972031
vt 0.050293 0.000488
vt 0.066711 0.966278
vt 0.057465 -0.000977
vt 0.082703 0.406250
vt 0.078003 -0.001953
vt 0.105957 0.000000
vt 0.090149 0.406738
vt 0.119385 -0.000977
vt 0.095642 0.343750
vt 0.097229 0.011230
vt 0.118469 0.362793
vt 0.111389 0.362793
vt 0.109924 -0.000977
vt 0.135254 0.343750
vt 0.132690 0.010742
vt 0.012405 1.002928
vt 0.018066 0.000488
vt 0.036224 0.996513
vt 0.026108 -0.000977
vt1 0.903320 0.988785
vt1 0.925293 0.007324
vt1 0.952637 0.994499
vt1 0.943848 0.994629
vt1 0.935059 0.007324
vt1 0.947754 0.008789
vt1 0.523926 0.993965
vt1 0.527832 0.001465
vt1 0.540039 0.991890
vt1 0.481445 0.993576
vt1 0.394287 0.006348
vt1 0.544922 0.001953
vt1 0.806152 0.988632
vt1 0.829102 0.007324
vt1 0.857422 0.994793
vt1 0.848633 0.994926
vt1 0.837891 0.006836
vt1 0.852539 0.008789
vt1 0.138184 0.002930
vt1 0.006405 0.979050
vt1 0.008369 0.037598
vt1 0.134155 0.994469
vt1 0.091370 0.994553
vt1 0.083557 0.002930
vt1 0.225464 0.978790
vt1 0.217163 0.037598
vt1 0.935547 0.994526
vt1 0.947754 0.008789
vt1 0.983398 0.988670
vt1 0.963379 0.007324
vt1 0.540039 0.991898
vt1 0.516113 0.001953
vt1 0.660156 0.006836
vt1 0.579102 0.993755
vt1 0.362061 0.002930
vt1 0.224731 0.942322
vt1 0.234009 0.037598
vt1 0.356689 0.994308
vt1 0.315918 0.994381
vt1 0.307617 0.003418
vt1 0.454102 0.942047
vt1 0.439209 0.037598
vt1 0.840332 0.994820
vt1 0.852051 0.008789
vt1 0.890137 0.988510
vt1 0.869141 0.007324
vn -0.047244 -1.000000 0.000000
vn -0.007874 -1.000000 0.000000
vn 0.078740 -1.000000 0.000000
vn 1.000000 -0.039370 0.000000
vn 0.803150 -0.598425 0.000000
vn 0.960630 0.283465 -0.000000
vn 0.000000 -0.385827 -0.921260
vn 0.000000 -0.204724 -0.976378
vn 0.000000 0.496063 -0.866142
vn 0.000000 -1.000000 0.007874
vn 0.000000 -1.000000 0.070866
vn 0.000000 -1.000000 -0.062992
vn -0.047244 -1.000000 0.000000
vn -0.007874 -1.000000 0.000000
vn 0.078740 -1.000000 0.000000
vn 1.000000 -0.031496 0.000000
vn 0.755906 -0.653543 0.000000
vn 0.960630 0.267716 -0.000000
vn 0.039370 -1.000000 -0.039370
vn -0.023622 -1.000000 0.023622
vn -0.015748 -1.000000 0.015748
vn 0.039370 -1.000000 -0.039370
vn 0.039370 1.000000 -0.039370
vn 0.039370 1.000000 -0.039370
vn -0.023622 1.000000 0.023622
vn -0.023622 1.000000 0.023622
vn 0.078740 1.000000 -0.000000
vn 0.023622 1.000000 -0.000000
vn -0.047244 1.000000 -0.000000
vn -0.007874 1.000000 -0.000000
vn 0.000000 1.000000 -0.023622
vn 0.000000 1.000000 -0.062992
vn 0.000000 1.000000 0.062992
vn 0.000000 1.000000 0.007874
vn 0.039370 -1.000000 -0.039370
vn -0.023622 -1.000000 0.023622
vn -0.015748 -1.000000 0.015748
vn 0.039370 -1.000000 -0.039370
vn 0.039370 1.000000 -0.039370
vn 0.039370 1.000000 -0.039370
vn -0.023622 1.000000 0.023622
vn -0.023622 1.000000 0.023622
vn 0.078740 1.000000 -0.000000
vn 0.031496 1.000000 -0.000000
vn -0.047244 1.000000 -0.000000
vn -0.007874 1.000000 -0.000000
tan 0.000000 0.000000 1.000000 1.000000
tan 0.000000 0.000000 1.000000 1.000000
tan 0.031496 0.002480 1.000000 1.000000
tan 0.000000 0.000000 1.000000 1.000000
tan -0.004712 -0.006324 0.803149 1.000000
tan 0.000000 0.000000 0.960630 1.000000
tan 0.921260 0.000000 0.000000 1.000000
tan 0.976378 0.000000 0.000000 1.000000
tan 0.881766 0.000000 0.000000 1.000000
tan 1.000000 0.000062 0.007874 1.000000
tan 1.000000 0.000000 0.000000 1.000000
tan 1.000000 -0.001984 0.031496 1.000000
tan 0.000000 0.000000 1.000000 1.000000
tan 0.000000 0.000000 1.000000 1.000000
tan 0.031496 0.002480 1.000000 1.000000
tan 0.000000 0.000000 1.000000 1.000000
tan -0.005146 -0.005952 0.755905 1.000000
tan 0.000000 0.000000 0.960630 1.000000
tan 0.716535 0.000620 0.700787 1.000000
tan 0.692913 0.000558 0.716535 1.000000
tan 0.677165 0.000868 0.732283 1.000000
tan 0.732283 0.002170 0.677165 1.000000
tan 0.724409 -0.001550 0.685039 1.000000
tan 0.708661 -0.000310 0.700787 1.000000
tan 0.692913 -0.000558 0.716535 1.000000
tan 0.677165 -0.001302 0.732283 1.000000
tan 0.023622 -0.001860 1.000000 1.000000
tan 0.007874 -0.000186 1.000000 1.000000
tan 0.000000 0.000000 1.000000 1.000000
tan 0.000000 0.000000 1.000000 1.000000
tan 1.000000 0.000186 0.007874 1.000000
tan 1.000000 0.001488 0.023622 1.000000
tan 1.000000 0.000000 0.000000 1.000000
tan 1.000000 0.000000 0.000000 1.000000
tan 0.724409 0.001240 0.692913 1.000000
tan 0.700787 0.000372 0.716535 1.000000
tan 0.685039 0.000744 0.732283 1.000000
tan 0.740157 0.002480 0.677165 1.000000
tan 0.732283 -0.002170 0.677165 1.000000
tan 0.716535 -0.000930 0.692913 1.000000
tan 0.700787 -0.000372 0.716535 1.000000
tan 0.685039 -0.000930 0.724409 1.000000
tan 0.023622 -0.001860 1.000000 1.000000
tan 0.007874 -0.000248 1.000000 1.000000
tan 0.000000 0.000000 1.000000 1.000000
tan 0.000000 0.000000 1.000000 1.000000
f 3/3/3 2/2/2 1/1/1
f 6/6/6 5/5/5 4/4/4
f 9/9/9 8/8/8 7/7/7
f 12/12/12 11/11/11 10/10/10
f 15/15/15 14/14/14 13/13/13
f 18/18/18 17/17/17 16/16/16
f 21/21/21 20/20/20 19/19/19
f 22/22/22 19/19/19 20/20/20
f 25/25/25 24/24/24 23/23/23
f 24/24/24 25/25/25 26/26/26
f 29/29/29 28/28/28 27/27/27
f 30/30/30 28/28/28 29/29/29
f 33/33/33 32/32/32 31/31/31
f 34/34/34 33/33/33 31/31/31
f 37/37/37 36/36/36 35/35/35
f 38/38/38 35/35/35 36/36/36
f 41/41/41 40/40/40 39/39/39
f 40/40/40 41/41/41 42/42/42
f 45/45/45 44/44/44 43/43/43
f 46/46/46 44/44/44 45/45/45
