mtllib SM_Food_SM_Pepper_03_LOD2.mtl
g SM_Food_SM_Pepper_03_LOD2
#Vertices 88
#Indices 246
#Section 0 Offset 0 NumIndices 246 MaterialIndex 0 MI_Food
v 0.005271 0.084245 0.015884
v -0.014560 0.091330 0.019170
v -0.003885 0.076200 -0.009696
v 0.008630 0.079243 -0.010557
v 0.002002 0.090515 -0.009137
v 0.004417 0.093575 -0.003380
v -0.004522 0.103788 -0.001730
v 0.002769 0.118204 -0.005336
v 0.006293 0.004320 -0.001592
v 0.025028 0.000457 0.028623
v 0.028664 -0.000455 0.012505
v -0.007097 -0.002024 0.014276
v -0.001616 0.001724 0.041618
v 0.055199 0.103784 0.017203
v 0.060101 0.058575 0.015656
v 0.058851 0.069749 0.022052
v 0.041383 0.052786 -0.028729
v 0.040476 0.095947 -0.040533
v 0.038200 0.112072 0.016286
v 0.006272 0.060160 -0.043513
v -0.013685 0.059097 -0.028318
v -0.016647 0.087731 -0.036685
v 0.035549 0.102155 -0.025684
v 0.019177 0.084487 0.006234
v 0.005750 0.101433 -0.038661
v -0.014642 0.090680 -0.024030
v 0.014010 0.095519 -0.029718
v 0.008630 0.079243 -0.010557
v -0.003885 0.076200 -0.009696
v 0.008630 0.079243 -0.010557
v 0.005271 0.084245 0.015884
v -0.003885 0.076200 -0.009696
v 0.019177 0.084487 0.006234
v 0.008630 0.079243 -0.010557
v 0.004417 0.093575 -0.003380
v -0.004522 0.103788 -0.001730
v -0.000370 0.113542 0.006963
v 0.002769 0.118204 -0.005336
v 0.002769 0.118204 -0.005336
v 0.002002 0.090515 -0.009137
v 0.058851 0.069749 0.022052
v 0.060101 0.058575 0.015656
v 0.045625 0.011397 0.023433
v 0.018533 0.016903 0.046558
v 0.032536 0.078136 0.046639
v 0.025028 0.000457 0.028623
v -0.008236 0.065865 0.043315
v -0.001616 0.001724 0.041618
v 0.055199 0.103784 0.017203
v 0.058851 0.069749 0.022052
v 0.032536 0.078136 0.046639
v 0.016399 0.101658 0.046506
v -0.008236 0.065865 0.043315
v -0.014637 0.087640 0.043641
v 0.038200 0.112072 0.016286
v -0.009953 0.102576 0.031636
v 0.005271 0.084245 0.015884
v -0.014560 0.091330 0.019170
v 0.019177 0.084487 0.006234
v -0.003885 0.076200 -0.009696
v -0.023555 0.077164 -0.008460
v -0.014642 0.090680 -0.024030
v -0.003885 0.076200 -0.009696
v -0.014560 0.091330 0.019170
v -0.035745 0.091297 -0.006416
v -0.016647 0.087731 -0.036685
v -0.039900 0.088079 0.028707
v -0.009953 0.102576 0.031636
v -0.040023 0.075280 -0.020848
v -0.013685 0.059097 -0.028318
v -0.014637 0.087640 0.043641
v -0.005418 0.000863 -0.003524
v -0.001616 0.001724 0.041618
v -0.008236 0.065865 0.043315
v -0.016671 0.006045 0.007469
v -0.007097 -0.002024 0.014276
v 0.006293 0.004320 -0.001592
v 0.045625 0.011397 0.023433
v 0.028664 -0.000455 0.012505
v 0.025028 0.000457 0.028623
v 0.041383 0.052786 -0.028729
v 0.060101 0.058575 0.015656
v 0.035400 0.011515 -0.011951
v 0.006293 0.004320 -0.001592
v -0.005418 0.000863 -0.003524
v 0.006971 0.015657 -0.027001
v 0.006272 0.060160 -0.043513
v -0.013685 0.059097 -0.028318
vt 0.982422 0.657959
vt 0.980957 0.675049
vt 0.957031 0.653809
vt 0.950195 0.650879
vt 0.964355 0.632568
vt 0.956543 0.636963
vt 0.979492 0.626465
vt 0.979492 0.613525
vt 0.270020 0.646240
vt 0.301758 0.635986
vt 0.294922 0.650879
vt 0.268066 0.625000
vt 0.289062 0.611572
vt 0.257812 0.777222
vt 0.267578 0.733887
vt 0.269043 0.745605
vt 0.222168 0.718018
vt 0.209839 0.755005
vt 0.247437 0.792114
vt 0.176880 0.725098
vt 0.151367 0.730713
vt 0.161865 0.760010
vt 0.213989 0.767700
vt 0.216797 0.805542
vt 0.185425 0.765137
vt 0.163330 0.773804
vt 0.192871 0.777466
vt 0.195801 0.802002
vt 0.165894 0.795898
vt 0.176636 0.798950
vt 0.352295 0.652100
vt 0.347900 0.635742
vt 0.366943 0.643799
vt 0.353760 0.627441
vt 0.332520 0.634766
vt 0.319824 0.644043
vt 0.309814 0.640625
vt 0.305908 0.650879
vt 0.304443 0.629150
vt 0.332520 0.628906
vt 0.878418 0.437988
vt 0.874023 0.449219
vt 0.829102 0.465820
vt 0.812500 0.436523
vt 0.862793 0.406250
vt 0.805664 0.457520
vt 0.827148 0.386230
vt 0.788086 0.434082
vt 0.886230 0.324219
vt 0.894531 0.356445
vt 0.858398 0.356934
vt 0.844727 0.334473
vt 0.815430 0.360840
vt 0.813477 0.338867
vt 0.872559 0.313965
vt 0.821777 0.320312
vt 0.836426 0.294922
vt 0.816406 0.304199
vt 0.853027 0.287109
vt 0.513184 0.642822
vt 0.497803 0.654297
vt 0.493408 0.635254
vt 0.516602 0.655273
vt 0.493652 0.686279
vt 0.479736 0.656982
vt 0.484619 0.624023
vt 0.466553 0.685059
vt 0.484863 0.703613
vt 0.466797 0.641357
vt 0.451172 0.617920
vt 0.463135 0.708008
vt 0.389404 0.634277
vt 0.378662 0.683350
vt 0.437988 0.708740
vt 0.395264 0.649170
vt 0.381104 0.652832
vt 0.383545 0.631104
vt 0.006218 0.787964
vt 0.024673 0.802490
vt 0.010170 0.810547
vt 0.051208 0.740234
vt 0.002300 0.739990
vt 0.040497 0.780762
vt 0.054626 0.807007
vt 0.067139 0.810791
vt 0.070374 0.783203
vt 0.090881 0.744629
vt 0.109863 0.762329
vt1 0.866211 0.667969
vt1 0.935547 0.660400
vt1 0.849609 0.543213
vt1 0.837891 0.508057
vt1 0.764648 0.577881
vt1 0.781738 0.539307
vt1 0.739258 0.652100
vt1 0.687500 0.653076
vt1 0.526855 0.169922
vt1 0.569824 0.035156
vt1 0.507812 0.064453
vt1 0.616211 0.177734
vt1 0.672852 0.089355
vt1 0.257080 0.187988
vt1 0.074219 0.145996
vt1 0.123169 0.140137
vt1 0.006287 0.338867
vt1 0.163208 0.391113
vt1 0.320557 0.231934
vt1 0.036530 0.531006
vt1 0.060181 0.638916
vt1 0.184448 0.594482
vt1 0.217163 0.374023
vt1 0.377197 0.361816
vt1 0.206421 0.494629
vt1 0.242920 0.588379
vt1 0.258301 0.463379
vt1 0.362061 0.450684
vt1 0.336426 0.577393
vt1 0.349121 0.531982
vt1 0.397949 0.154785
vt1 0.380371 0.076660
vt1 0.455566 0.114258
vt1 0.403320 0.037109
vt1 0.319336 0.072266
vt1 0.268311 0.115723
vt1 0.229004 0.100098
vt1 0.213989 0.148438
vt1 0.207275 0.045898
vt1 0.319336 0.044434
vt1 0.588379 0.885010
vt1 0.606445 0.932373
vt1 0.797852 1.002962
vt1 0.867188 0.877991
vt1 0.654785 0.751709
vt1 0.895020 0.968018
vt1 0.804688 0.666504
vt1 0.970215 0.868164
vt1 0.824219 0.317871
vt1 0.962402 0.354492
vt1 0.963867 0.201172
vt1 0.868652 0.142578
vt1 0.980469 0.018555
vt1 0.887207 0.012207
vt1 0.781250 0.260742
vt1 0.808594 0.045410
vt1 0.699707 0.108887
vt1 0.740723 0.023438
vt1 0.667480 0.178223
vt1 0.589844 0.716064
vt1 0.523438 0.765015
vt1 0.504883 0.684326
vt1 0.604004 0.769165
vt1 0.506348 0.900269
vt1 0.447998 0.776001
vt1 0.468262 0.636230
vt1 0.391846 0.895081
vt1 0.469238 0.973862
vt1 0.392822 0.709961
vt1 0.326172 0.610107
vt1 0.377197 0.991936
vt1 0.065857 0.679932
vt1 0.020401 0.887756
vt1 0.270752 0.995247
vt1 0.090454 0.743164
vt1 0.030289 0.758179
vt1 0.041534 0.666016
vt1 0.491943 0.235840
vt1 0.429932 0.313965
vt1 0.396240 0.252441
vt1 0.693848 0.426758
vt1 0.694824 0.219238
vt1 0.521973 0.381348
vt1 0.411133 0.441406
vt1 0.395264 0.494141
vt1 0.511719 0.507812
vt1 0.674805 0.594971
vt1 0.599609 0.675537
vn -0.149606 0.771653 -0.614173
vn 0.133858 0.527559 -0.842520
vn -0.803150 0.582677 -0.078740
vn -0.165354 0.984252 -0.031496
vn 0.094488 -0.055118 -0.992126
vn 0.968504 0.228346 -0.078740
vn -0.897638 -0.275590 0.346457
vn 0.496063 0.629921 -0.598425
vn 0.047244 -1.000000 0.055118
vn -0.236220 -0.960630 0.149606
vn -0.023622 -0.937008 -0.338583
vn 0.338583 -0.929134 -0.149606
vn 0.228346 -0.464567 0.850394
vn 0.889764 0.456693 0.078740
vn 0.992126 -0.102362 -0.039370
vn 0.850394 0.078740 0.519685
vn 0.740157 -0.314961 -0.598425
vn 0.637795 0.338583 -0.692913
vn -0.322835 0.921260 -0.236221
vn -0.181102 -0.330709 -0.929134
vn -0.574803 -0.456693 -0.677165
vn -0.582677 0.236220 -0.779527
vn 0.125984 0.992126 -0.086614
vn -0.795276 0.582677 -0.157480
vn -0.196850 0.944882 -0.275591
vn -0.133858 0.818898 0.559055
vn -0.362205 0.511811 0.779527
vn -0.133858 0.992126 -0.055118
vn 0.362205 0.700787 0.614173
vn -0.086614 1.000000 -0.007874
vn -0.118110 0.677165 -0.724409
vn -0.204724 0.834646 0.511811
vn -0.251969 0.960630 -0.118110
vn -0.228346 0.960630 -0.149606
vn 0.944882 0.000000 0.322835
vn -0.937008 -0.259842 0.228346
vn 0.291339 0.354331 0.889764
vn 0.173228 0.866142 -0.464567
vn 0.448819 0.535433 -0.716535
vn 0.330709 -0.047244 -0.944882
vn 0.929134 0.039370 0.377953
vn 0.921260 -0.110236 0.377953
vn 0.834646 -0.393701 0.377953
vn 0.031496 -0.181102 0.984252
vn 0.259843 -0.015748 0.968504
vn 0.188976 -0.929134 0.314961
vn -0.173228 -0.062992 0.984252
vn 0.015748 -0.433071 0.897638
vn 0.826772 0.488189 0.291339
vn 0.897638 0.078740 0.433071
vn 0.393701 0.000000 0.921260
vn -0.023622 0.503937 0.866142
vn -0.141732 -0.070866 0.984252
vn -0.330709 0.062992 0.937008
vn -0.307087 0.874016 -0.385827
vn -0.259843 0.960630 -0.070866
vn -0.157480 0.472441 -0.866142
vn 0.188976 0.637795 -0.740157
vn -0.606299 0.795275 0.047244
vn -0.299213 0.779527 0.551181
vn 0.755906 0.637795 0.165354
vn 0.354331 0.755905 0.551181
vn -0.275591 0.944882 0.173228
vn 0.275591 0.598425 -0.755905
vn -0.244094 0.960630 -0.118110
vn -0.425197 0.472441 -0.771653
vn -0.866142 0.086614 0.488189
vn -0.031496 0.968504 0.259842
vn -0.866142 -0.291339 -0.409449
vn -0.598425 -0.425197 -0.677165
vn -0.330709 0.062992 0.937008
vn -0.559055 -0.488189 -0.669291
vn -0.425197 -0.385827 0.818898
vn -0.188976 -0.031496 0.984252
vn -0.826772 -0.511811 -0.220472
vn 0.062992 -0.992126 -0.078740
vn -0.062992 -1.000000 -0.062992
vn 0.889764 -0.456693 -0.023622
vn -0.023622 -0.937008 -0.338583
vn 0.393701 -0.842520 0.362205
vn 0.779528 -0.283465 -0.566929
vn 0.992126 -0.118110 -0.039370
vn 0.826772 -0.488189 -0.267716
vn 0.055118 -0.984252 0.173228
vn -0.535433 -0.748031 -0.393701
vn -0.354331 -0.354331 -0.866142
vn -0.125984 -0.330709 -0.937008
vn -0.614173 -0.417323 -0.669291
tan 0.150536 -0.580941 -0.766569 1.000000
tan 0.696633 -0.525885 -0.218612 1.000000
tan 0.581189 0.805506 0.032612 1.000000
tan 0.364251 0.090458 0.914502 1.000000
tan 0.421849 0.898382 -0.009734 1.000000
tan -0.190340 0.914502 0.310868 1.000000
tan -0.440263 0.645917 -0.626883 1.000000
tan 0.459297 0.393639 0.795089 1.000000
tan -0.637795 0.012400 0.771653 1.000000
tan -0.711017 0.274971 0.642941 1.000000
tan -0.630417 -0.237646 0.701655 1.000000
tan -0.725463 -0.358175 0.582615 1.000000
tan -0.431583 0.731663 0.515593 1.000000
tan 0.463017 -0.882758 -0.112096 1.000000
tan -0.108004 -0.968690 -0.203112 1.000000
tan 0.344597 -0.741026 -0.451609 1.000000
tan -0.571145 -0.746357 -0.313596 1.000000
tan -0.056482 -0.873148 -0.478641 1.000000
tan 0.845186 0.198152 -0.382293 1.000000
tan 0.222084 -0.901296 0.277513 1.000000
tan 0.491537 -0.820448 0.136090 1.000000
tan 0.594457 -0.532209 -0.605617 1.000000
tan 0.585901 -0.144646 -0.804637 1.000000
tan 0.601153 0.776489 -0.162812 1.000000
tan -0.008370 -0.278691 -0.949532 1.000000
tan -0.148614 0.528117 -0.809164 1.000000
tan -0.084196 0.787649 -0.556265 1.000000
tan 0.773390 0.070060 -0.617149 1.000000
tan -0.156612 0.672949 -0.675491 1.000000
tan -0.700787 -0.066340 -0.716535 1.000000
tan 0.169384 -0.694401 -0.676731 1.000000
tan 0.174468 0.542439 -0.814806 1.000000
tan -0.574865 -0.245645 -0.771529 1.000000
tan -0.121024 -0.177196 -0.953066 1.000000
tan 0.320293 0.104160 -0.937442 1.000000
tan 0.326183 -0.450059 0.826338 1.000000
tan 0.892492 -0.181908 -0.219790 1.000000
tan -0.028582 0.449067 0.826585 1.000000
tan -0.502201 -0.504991 -0.691921 1.000000
tan -0.937442 0.096720 -0.332941 1.000000
tan -0.367475 0.308637 0.871226 1.000000
tan -0.276521 0.449749 0.805195 1.000000
tan -0.208568 0.323145 0.797197 1.000000
tan -0.674251 0.713001 0.152768 1.000000
tan -0.800732 0.541447 0.223634 1.000000
tan -0.334181 0.228161 0.873582 1.000000
tan -0.744002 0.651001 -0.089280 1.000000
tan -0.402877 0.798686 0.392399 1.000000
tan -0.417013 0.816418 -0.184636 1.000000
tan 0.239630 0.653667 -0.615537 1.000000
tan 0.268399 0.883936 -0.114700 1.000000
tan -0.095480 0.859322 -0.502573 1.000000
tan -0.248001 0.953252 0.032922 1.000000
tan -0.188852 0.930498 -0.129208 1.000000
tan -0.448137 -0.487693 -0.748093 1.000000
tan 0.060512 -0.054498 -0.960630 1.000000
tan 0.095480 -0.859322 -0.486081 1.000000
tan -0.014880 -0.746109 -0.646723 1.000000
tan -0.766942 -0.570153 -0.244838 1.000000
tan 0.332941 0.625581 -0.704011 1.000000
tan 0.229524 -0.019344 -0.974642 1.000000
tan 0.206956 0.487941 -0.802220 1.000000
tan -0.208320 0.108376 -0.922562 1.000000
tan -0.239072 -0.711513 -0.650443 1.000000
tan -0.030256 -0.125798 -0.960630 1.000000
tan 0.566805 -0.529481 -0.636493 1.000000
tan -0.495071 -0.180296 -0.846364 1.000000
tan -0.295369 0.237894 -0.922500 1.000000
tan 0.472255 -0.215389 -0.845744 1.000000
tan 0.734825 -0.002356 -0.647901 1.000000
tan -0.937504 -0.076384 -0.325749 1.000000
tan 0.667431 0.146630 -0.664455 1.000000
tan -0.702833 -0.419121 -0.562403 1.000000
tan -0.930002 -0.310001 -0.188480 1.000000
tan 0.398847 -0.296423 -0.807551 1.000000
tan 0.249985 0.092132 -0.960878 1.000000
tan 0.653543 0.006448 -0.755905 1.000000
tan 0.445409 0.875566 -0.150536 1.000000
tan 0.662595 0.228904 -0.679707 1.000000
tan 0.847294 0.350673 -0.105276 1.000000
tan 0.245520 0.919586 -0.122202 1.000000
tan 0.104780 0.960878 -0.242173 1.000000
tan 0.440449 0.826400 -0.146754 1.000000
tan 0.589001 -0.106144 -0.790501 1.000000
tan 0.229090 0.286564 -0.856036 1.000000
tan 0.544981 0.675801 -0.499411 1.000000
tan 0.368901 0.863227 -0.354269 1.000000
tan 0.489615 0.454647 -0.732780 1.000000
f 3/3/3 2/2/2 1/1/1
f 3/3/3 5/5/5 4/4/4
f 4/4/4 5/5/5 6/6/6
f 5/5/5 3/3/3 7/7/7
f 5/5/5 7/7/7 8/8/8
f 11/11/11 10/10/10 9/9/9
f 9/9/9 10/10/10 12/12/12
f 13/13/13 12/12/12 10/10/10
f 16/16/16 15/15/15 14/14/14
f 15/15/15 17/17/17 14/14/14
f 17/17/17 18/18/18 14/14/14
f 19/19/19 14/14/14 18/18/18
f 20/20/20 18/18/18 17/17/17
f 22/22/22 20/20/20 21/21/21
f 22/22/22 18/18/18 20/20/20
f 23/23/23 19/19/19 18/18/18
f 19/19/19 23/23/23 24/24/24
f 25/25/25 18/18/18 22/22/22
f 23/23/23 18/18/18 25/25/25
f 26/26/26 25/25/25 22/22/22
f 24/24/24 23/23/23 27/27/27
f 27/27/27 23/23/23 25/25/25
f 25/25/25 26/26/26 27/27/27
f 24/24/24 27/27/27 28/28/28
f 27/27/27 26/26/26 29/29/29
f 29/29/29 30/30/30 27/27/27
f 33/33/33 32/32/32 31/31/31
f 33/33/33 34/34/34 32/32/32
f 35/35/35 32/32/32 34/34/34
f 32/32/32 35/35/35 36/36/36
f 38/38/38 36/36/36 37/37/37
f 35/35/35 37/37/37 36/36/36
f 39/39/39 37/37/37 35/35/35
f 35/35/35 40/40/40 39/39/39
f 43/43/43 42/42/42 41/41/41
f 43/43/43 41/41/41 44/44/44
f 45/45/45 44/44/44 41/41/41
f 44/44/44 46/46/46 43/43/43
f 45/45/45 47/47/47 44/44/44
f 48/48/48 46/46/46 44/44/44
f 44/44/44 47/47/47 48/48/48
f 51/51/51 50/50/50 49/49/49
f 49/49/49 52/52/52 51/51/51
f 53/53/53 51/51/51 52/52/52
f 52/52/52 54/54/54 53/53/53
f 52/52/52 49/49/49 55/55/55
f 56/56/56 54/54/54 52/52/52
f 52/52/52 55/55/55 56/56/56
f 55/55/55 57/57/57 56/56/56
f 58/58/58 56/56/56 57/57/57
f 59/59/59 57/57/57 55/55/55
f 62/62/62 61/61/61 60/60/60
f 61/61/61 64/64/64 63/63/63
f 62/62/62 65/65/65 61/61/61
f 61/61/61 65/65/65 64/64/64
f 62/62/62 66/66/66 65/65/65
f 64/64/64 65/65/65 67/67/67
f 68/68/68 64/64/64 67/67/67
f 69/69/69 65/65/65 66/66/66
f 69/69/69 67/67/67 65/65/65
f 70/70/70 69/69/69 66/66/66
f 67/67/67 71/71/71 68/68/68
f 70/70/70 72/72/72 69/69/69
f 73/73/73 71/71/71 67/67/67
f 73/73/73 74/74/74 71/71/71
f 67/67/67 69/69/69 75/75/75
f 73/73/73 67/67/67 75/75/75
f 72/72/72 75/75/75 69/69/69
f 76/76/76 73/73/73 75/75/75
f 75/75/75 72/72/72 76/76/76
f 76/76/76 72/72/72 77/77/77
f 80/80/80 79/79/79 78/78/78
f 82/82/82 78/78/78 81/81/81
f 83/83/83 78/78/78 79/79/79
f 81/81/81 78/78/78 83/83/83
f 84/84/84 83/83/83 79/79/79
f 84/84/84 85/85/85 83/83/83
f 83/83/83 86/86/86 81/81/81
f 83/83/83 85/85/85 86/86/86
f 87/87/87 81/81/81 86/86/86
f 88/88/88 86/86/86 85/85/85
f 86/86/86 88/88/88 87/87/87
