mtllib SM_Frames_01_LOD3.mtl
g SM_Frames_01_LOD3
#Vertices 22
#Indices 36
#Section 0 Offset 0 NumIndices 36 MaterialIndex 0 MI_Frames
v 0.006432 0.419667 0.338110
v 0.007713 0.037049 0.316897
v -0.002178 0.001023 0.372062
v 0.001768 0.401166 0.320850
v 0.001768 0.401166 -0.320696
v 0.001768 0.036819 -0.320696
v 0.001768 0.036819 0.320850
v 0.003848 0.034537 -0.306064
v 0.004502 0.437316 -0.374248
v -0.003570 0.000139 -0.366145
v -0.002534 0.397407 -0.313132
v -0.007533 0.369537 -0.354841
v -0.016430 0.438280 0.338943
v 0.018701 0.394896 0.329278
v 0.025897 0.421014 -0.342715
v -0.016430 0.438280 0.338943
v -0.007533 0.369537 -0.354841
v -0.008139 -0.000007 -0.354890
v 0.012664 0.067120 0.339844
v 0.015802 -0.006665 0.358910
v 0.005439 0.043889 -0.335728
v 0.012664 0.067120 0.339844
vt 0.883301 0.761719
vt 0.869141 0.489746
vt 0.905273 0.464355
vt 0.256348 0.000488
vt 0.256348 0.451660
vt 0.000000 0.451660
vt 0.000000 0.000488
vt 0.651367 0.420410
vt 0.608398 0.706787
vt 0.609863 0.395996
vt 0.649902 0.678467
vt 0.716309 0.505371
vt 0.709961 0.010254
vt 0.729980 0.018555
vt 0.746094 0.497070
vt 0.766602 0.011719
vt 0.765137 0.505615
vt 0.662109 0.722168
vt 0.663574 0.225586
vt 0.673828 0.212402
vt 0.699707 0.708252
vt 0.712402 0.226074
vt1 0.926270 0.969864
vt1 0.897949 0.438477
vt1 0.970703 0.388672
vt1 0.514160 0.101074
vt1 0.514160 0.991936
vt1 0.008064 0.991936
vt1 0.008064 0.101074
vt1 0.855957 0.435059
vt1 0.770020 0.994408
vt1 0.773438 0.387207
vt1 0.853027 0.939087
vt1 0.652832 0.991699
vt1 0.641113 0.028320
vt1 0.679688 0.043945
vt1 0.710938 0.975204
vt1 0.751465 0.030273
vt1 0.748535 0.991722
vt1 0.623047 0.991783
vt1 0.621094 0.028320
vt1 0.600586 0.002930
vt1 0.550781 0.965088
vt1 0.526367 0.029297
vn 0.992126 -0.000000 -0.094488
vn 0.944882 -0.000000 -0.322835
vn 0.511811 0.000000 0.858268
vn 1.000000 0.000000 0.000000
vn 1.000000 0.000000 0.000000
vn 1.000000 0.000000 0.000000
vn 1.000000 0.000000 0.000000
vn 0.811024 0.000000 0.582677
vn 0.708661 -0.000000 -0.708661
vn 0.291339 -0.000000 -0.952756
vn 0.393701 0.000000 0.921260
vn 0.015748 -1.000000 0.000000
vn -0.078740 -1.000000 0.000000
vn 0.858268 -0.511811 0.000000
vn 0.897638 0.448819 -0.000000
vn -0.078740 1.000000 -0.000000
vn 0.000000 1.000000 -0.000000
vn 0.000000 -1.000000 0.000000
vn 0.023622 -1.000000 0.000000
vn 0.464567 -0.881890 0.000000
vn 0.740157 0.677165 -0.000000
vn 0.614173 0.787401 -0.000000
tan 0.000000 -0.992126 0.000000 1.000000
tan 0.000000 -0.955050 0.000000 1.000000
tan 0.000000 -0.992188 0.000000 1.000000
tan 0.000000 0.000000 1.000000 1.000000
tan 0.000000 0.000000 1.000000 1.000000
tan 0.000000 0.000000 1.000000 1.000000
tan 0.000000 0.000000 1.000000 1.000000
tan 0.000000 -0.915742 0.000000 1.000000
tan 0.000000 -0.948602 0.000000 1.000000
tan 0.000000 -0.961932 0.000000 1.000000
tan 0.000000 -0.957406 0.000000 1.000000
tan 0.000000 0.000000 1.000000 1.000000
tan 0.000000 0.000000 1.000000 1.000000
tan 0.000000 0.000000 0.954864 1.000000
tan 0.000000 0.000000 0.975386 1.000000
tan 0.000000 0.000000 1.000000 1.000000
tan 0.000000 0.000000 1.000000 1.000000
tan 0.000000 0.000000 1.000000 1.000000
tan 0.000000 0.000000 1.000000 1.000000
tan 0.000000 0.000000 0.940790 1.000000
tan 0.000000 0.000000 1.005394 1.000000
tan 0.000000 0.000000 0.995722 1.000000
f 3/3/3 2/2/2 1/1/1
f 6/6/6 5/5/5 4/4/4
f 4/4/4 7/7/7 6/6/6
f 10/10/10 9/9/9 8/8/8
f 11/11/11 8/8/8 9/9/9
f 14/14/14 13/13/13 12/12/12
f 12/12/12 15/15/15 14/14/14
f 14/14/14 15/15/15 16/16/16
f 17/17/17 16/16/16 15/15/15
f 20/20/20 19/19/19 18/18/18
f 18/18/18 21/21/21 20/20/20
f 22/22/22 20/20/20 21/21/21
