mtllib SM_FoodPot_14_LOD3.mtl
g SM_FoodPot_14_LOD3
#Vertices 97
#Indices 354
#Section 0 Offset 0 NumIndices 90 MaterialIndex 0 MI_FoodPot
#Section 1 Offset 90 NumIndices 264 MaterialIndex 1 MI_FoodPot_Jelly
v -0.009082 0.247968 0.054094
v -0.034367 0.249610 0.042867
v 0.027340 0.249429 0.049494
v 0.053589 0.249730 0.010832
v -0.053542 0.249594 0.009410
v -0.047758 0.249777 -0.025500
v 0.003195 0.249696 -0.054051
v -0.026822 0.247997 -0.048830
v 0.044090 0.248564 -0.035851
v -0.035243 0.238406 -0.042419
v -0.053784 0.238354 -0.006709
v 0.015481 0.238508 -0.054147
v -0.045042 0.238537 0.029208
v -0.004292 0.237882 0.054517
v 0.035352 0.238321 0.041265
v 0.052782 0.238503 0.009092
v 0.049213 0.237276 -0.025995
v 0.027340 0.249429 0.049494
v -0.004292 0.237882 0.054517
v -0.009082 0.247968 0.054094
v -0.034367 0.249610 0.042867
v 0.035352 0.238321 0.041265
v -0.045042 0.238537 0.029208
v 0.053589 0.249730 0.010832
v -0.053542 0.249594 0.009410
v 0.052782 0.238503 0.009092
v -0.053784 0.238354 -0.006709
v 0.049213 0.237276 -0.025995
v -0.047758 0.249777 -0.025500
v 0.044090 0.248564 -0.035851
v -0.035243 0.238406 -0.042419
v 0.015481 0.238508 -0.054147
v -0.026822 0.247997 -0.048830
v 0.003195 0.249696 -0.054051
v -0.000000 0.174515 0.079128
v 0.044512 0.006736 0.068040
v -0.000108 0.005940 0.079280
v 0.053690 0.174448 0.061990
v 0.075255 0.007814 0.024452
v 0.038631 0.188700 0.065194
v -0.000041 0.185201 0.076436
v -0.000027 0.215621 0.054639
v 0.079711 0.174771 0.008473
v 0.078335 0.007011 -0.014152
v 0.079131 0.188335 0.004550
v 0.062963 0.174283 -0.053818
v 0.056048 0.007116 -0.057164
v 0.014321 0.007262 -0.079042
v 0.010216 0.174754 -0.079335
v -0.041897 0.005574 -0.071493
v 0.025922 0.188151 -0.077992
v -0.036394 0.174574 -0.071374
v -0.078342 0.175519 -0.023357
v -0.075256 0.007814 -0.024452
v -0.078309 0.005929 0.015751
v -0.060322 0.188027 -0.048380
v -0.072504 0.174141 0.036166
v -0.048134 0.005567 0.065008
v -0.073546 0.188481 0.032905
v -0.034709 0.174434 0.072423
v -0.000108 0.005940 0.079280
v -0.000000 0.174515 0.079128
v -0.000041 0.185201 0.076436
v -0.042134 0.209879 0.042432
v -0.000027 0.215621 0.054639
v -0.049400 0.211515 -0.042598
v -0.047179 0.222642 0.027329
v 0.000727 0.247518 0.056580
v 0.041131 0.209953 -0.044366
v -0.054515 0.236524 -0.009584
v -0.032740 0.248155 0.035374
v -0.047365 0.247203 -0.001325
v -0.032820 0.247283 -0.033157
v -0.006688 0.237654 -0.052935
v -0.001425 0.247339 -0.047853
v 0.043615 0.234379 -0.029964
v 0.054734 0.249339 0.004328
v 0.055007 0.209386 0.019980
v 0.048719 0.233358 0.025309
v 0.000727 0.247518 0.056580
v -0.075256 0.007814 -0.024452
v -0.078309 0.005929 0.015751
v -0.067049 -0.000521 -0.029077
v -0.041897 0.005574 -0.071493
v -0.070125 0.000129 0.019740
v -0.048134 0.005567 0.065008
v -0.011148 -0.000139 -0.073158
v 0.014321 0.007262 -0.079042
v -0.025787 -0.000018 0.070188
v -0.000108 0.005940 0.079280
v 0.060247 -0.000570 -0.046647
v 0.056048 0.007116 -0.057164
v 0.078335 0.007011 -0.014152
v 0.049815 -0.000161 0.055538
v 0.044512 0.006736 0.068040
v 0.075255 0.007814 0.024452
v 0.072001 -0.000240 0.011575
vt 0.182495 0.714111
vt 0.179932 0.746338
vt 0.162231 0.676270
vt 0.109497 0.663330
vt 0.151245 0.780640
vt 0.110901 0.788452
vt 0.059143 0.744385
vt 0.076660 0.775391
vt 0.062408 0.692383
vt 0.878906 0.747803
vt 0.856934 0.705566
vt 0.938965 0.761597
vt 0.867188 0.663086
vt 0.915527 0.633301
vt 0.962402 0.648926
vt 0.982910 0.687012
vt 0.978516 0.728271
vt 0.161133 0.676270
vt 0.194092 0.707764
vt 0.182251 0.713623
vt 0.179199 0.745605
vt 0.156128 0.658691
vt 0.176514 0.770142
vt 0.109558 0.664307
vt 0.150635 0.779541
vt 0.106323 0.652588
vt 0.136353 0.798828
vt 0.062103 0.674316
vt 0.111511 0.789185
vt 0.064331 0.691650
vt 0.080994 0.792480
vt 0.042969 0.733398
vt 0.076782 0.775391
vt 0.059357 0.744385
vt 0.600098 0.258789
vt 0.587402 0.027832
vt 0.645996 0.038574
vt 0.536133 0.237305
vt 0.518066 0.016602
vt 0.543945 0.260254
vt 0.592285 0.274902
vt 0.555664 0.316406
vt 0.468994 0.222168
vt 0.466797 0.008301
vt 0.461426 0.238281
vt 0.398193 0.211426
vt 0.402588 0.001953
vt 0.341064 0.000000
vt 0.333740 0.208496
vt 0.265137 -0.000977
vt 0.351074 0.225586
vt 0.281006 0.209473
vt 0.211060 0.217285
vt 0.190186 0.008789
vt 0.137817 0.014160
vt 0.245972 0.229492
vt 0.144287 0.228027
vt 0.062195 0.027344
vt 0.152466 0.245117
vt 0.085327 0.244629
vt -0.000393 0.040527
vt 0.043884 0.258789
vt 0.052216 0.273926
vt 0.136230 0.287109
vt 0.087952 0.319336
vt 0.254150 0.266113
vt 0.161255 0.297363
vt 0.108398 0.353027
vt 0.382812 0.265137
vt 0.217651 0.304688
vt 0.154785 0.335449
vt 0.211060 0.321777
vt 0.265381 0.315430
vt 0.311768 0.294434
vt 0.320557 0.312988
vt 0.395020 0.297363
vt 0.441650 0.322266
vt 0.475586 0.277832
vt 0.474121 0.309082
vt 0.537598 0.354492
vt 0.708008 0.204590
vt 0.665039 0.173340
vt 0.720703 0.194824
vt 0.782715 0.205078
vt 0.669922 0.159668
vt 0.638672 0.102539
vt 0.808105 0.173828
vt 0.837891 0.155273
vt 0.654297 0.076660
vt 0.664062 0.042480
vt 0.837402 0.082031
vt 0.849609 0.093750
vt 0.822754 0.035156
vt 0.727539 0.012695
vt 0.709961 0.004883
vt 0.780273 0.006836
vt 0.788574 0.024902
vt1 0.914062 0.267090
vt1 0.909180 0.330566
vt1 0.874512 0.192383
vt1 0.770020 0.166992
vt1 0.852539 0.398438
vt1 0.772949 0.414062
vt1 0.670898 0.327148
vt1 0.705566 0.388184
vt1 0.677246 0.224609
vt1 0.429688 0.214844
vt1 0.512695 0.257812
vt1 0.402588 0.097168
vt1 0.596191 0.237793
vt1 0.654785 0.143066
vt1 0.624023 0.050781
vt1 0.549316 0.010254
vt1 0.468018 0.018555
vt1 0.872070 0.192383
vt1 0.937012 0.254395
vt1 0.913574 0.266602
vt1 0.907715 0.329102
vt1 0.862305 0.158203
vt1 0.902344 0.377930
vt1 0.770508 0.168945
vt1 0.851562 0.396484
vt1 0.763672 0.145996
vt1 0.823242 0.434570
vt1 0.676758 0.188477
vt1 0.773926 0.415527
vt1 0.681152 0.222656
vt1 0.713867 0.421875
vt1 0.639160 0.305176
vt1 0.705566 0.388184
vt1 0.671387 0.327148
vt1 0.922852 0.843628
vt1 0.903320 0.491699
vt1 0.992676 0.508057
vt1 0.825684 0.810669
vt1 0.798340 0.474121
vt1 0.836914 0.845581
vt1 0.910645 0.867676
vt1 0.854980 0.931580
vt1 0.722656 0.787598
vt1 0.719727 0.461426
vt1 0.711426 0.812378
vt1 0.614746 0.770874
vt1 0.621582 0.452148
vt1 0.527832 0.448242
vt1 0.517090 0.766968
vt1 0.412354 0.447266
vt1 0.542969 0.792969
vt1 0.436523 0.768188
vt1 0.329590 0.779785
vt1 0.298096 0.462402
vt1 0.218140 0.470703
vt1 0.383057 0.798828
vt1 0.228027 0.796509
vt1 0.102844 0.491211
vt1 0.240356 0.822632
vt1 0.138062 0.822021
vt1 0.007462 0.510986
vt1 0.074951 0.843750
vt1 0.087646 0.866699
vt1 0.215820 0.886353
vt1 0.142090 0.935669
vt1 0.395508 0.854492
vt1 0.253906 0.902100
vt1 0.173218 0.987114
vt1 0.591797 0.852661
vt1 0.339600 0.913269
vt1 0.244019 0.959839
vt1 0.329834 0.939423
vt1 0.412842 0.929565
vt1 0.483154 0.897949
vt1 0.496582 0.925720
vt1 0.610352 0.902344
vt1 0.681152 0.939972
vt1 0.732910 0.872192
vt1 0.730957 0.920349
vt1 0.827637 0.988976
vt1 0.135010 0.432129
vt1 0.056335 0.374512
vt1 0.158691 0.414062
vt1 0.272949 0.433105
vt1 0.065186 0.350098
vt1 0.008224 0.244629
vt1 0.319336 0.375488
vt1 0.374512 0.341797
vt1 0.036652 0.196777
vt1 0.054138 0.133789
vt1 0.373291 0.207031
vt1 0.396240 0.228027
vt1 0.346680 0.120605
vt1 0.171631 0.079102
vt1 0.138916 0.064941
vt1 0.268311 0.067871
vt1 0.283691 0.102051
vn -0.102362 0.700787 0.708661
vn -0.047244 1.000000 0.031496
vn 0.149606 0.968504 0.204724
vn 0.047244 1.000000 0.007874
vn -0.062992 1.000000 0.015748
vn -0.070866 1.000000 -0.007874
vn 0.031496 0.992126 -0.102362
vn -0.385827 0.645669 -0.661417
vn 0.259843 0.952756 -0.141732
vn -0.015748 -1.000000 -0.023622
vn -0.031496 -1.000000 0.000000
vn 0.007874 -1.000000 -0.031496
vn -0.023622 -1.000000 0.015748
vn 0.000000 -1.000000 0.031496
vn 0.015748 -1.000000 0.023622
vn 0.031496 -1.000000 0.007874
vn 0.023622 -1.000000 -0.015748
vn 0.464567 0.346457 0.811023
vn -0.102362 -0.409449 0.905512
vn -0.157480 0.299213 0.944882
vn -0.574803 0.417323 0.708661
vn 0.598425 -0.409449 0.685039
vn -0.787402 -0.370079 0.488189
vn 0.889764 0.417323 0.181102
vn -0.889764 0.433071 0.157480
vn 0.889764 -0.433071 0.149606
vn -0.897638 -0.425197 -0.118110
vn 0.795276 -0.440945 -0.417323
vn -0.811024 0.401575 -0.417323
vn 0.724409 0.377953 -0.582677
vn -0.582677 -0.401575 -0.708661
vn 0.244094 -0.409449 -0.881890
vn -0.464567 0.275590 -0.842520
vn 0.062992 0.417323 -0.905512
vn 0.000000 0.000000 1.000000
vn 0.543307 0.000000 0.834646
vn 0.000000 0.000000 1.000000
vn 0.653543 0.000000 0.755905
vn 0.952756 0.000000 0.307087
vn 0.401575 0.606299 0.685039
vn -0.007874 0.582677 0.811023
vn 0.078740 0.417323 0.905512
vn 0.992126 0.000000 0.102362
vn 0.984252 -0.000000 -0.181102
vn 0.795276 0.606299 0.047244
vn 0.763780 0.007874 -0.645669
vn 0.700787 -0.000000 -0.716535
vn 0.181102 -0.000000 -0.984252
vn 0.125984 -0.000000 -0.992126
vn -0.503937 -0.000000 -0.858268
vn 0.259843 0.598425 -0.755905
vn -0.456693 -0.000000 -0.889764
vn -0.960630 -0.000000 -0.283465
vn -0.952756 -0.000000 -0.307087
vn -0.984252 0.000000 0.196850
vn -0.622047 0.606299 -0.488189
vn -0.897638 0.007874 0.448819
vn -0.598425 0.000000 0.803149
vn -0.724409 0.606299 0.338583
vn -0.433071 0.007874 0.905512
vn 0.000000 0.000000 1.000000
vn 0.000000 0.000000 1.000000
vn 0.007874 0.566929 0.826771
vn -0.566929 0.606299 0.559055
vn 0.023622 0.330709 0.944882
vn -0.606299 0.582677 -0.543307
vn -0.866142 0.055118 0.496063
vn -0.047244 0.220473 0.976378
vn 0.551181 0.606299 -0.574803
vn -0.976378 -0.047244 -0.196850
vn -0.291339 0.905512 0.307086
vn -0.440945 0.897638 0.023622
vn -0.322835 0.897638 -0.299213
vn -0.125984 -0.094488 -0.984252
vn -0.047244 0.881890 -0.472441
vn 0.818898 -0.110236 -0.559055
vn 0.425197 0.905512 0.007874
vn 0.732283 0.622047 0.275590
vn 0.881890 -0.062992 0.464567
vn -0.031496 0.314961 0.952756
vn -0.952756 -0.000000 -0.307087
vn -0.929134 -0.314961 0.181102
vn -0.102362 -0.992126 -0.055118
vn -0.511811 -0.307087 -0.803149
vn -0.007874 -1.000000 0.007874
vn -0.559055 -0.456693 0.692913
vn -0.007874 -1.000000 -0.031496
vn 0.173228 -0.110236 -0.976378
vn -0.015748 -1.000000 0.015748
vn 0.023622 -0.464567 0.889764
vn 0.125984 -0.984252 -0.102362
vn 0.708661 -0.039370 -0.700787
vn 0.984252 -0.094488 -0.165354
vn 0.047244 -1.000000 0.047244
vn 0.535433 -0.070866 0.842520
vn 0.952756 0.000000 0.307087
vn 0.070866 -1.000000 0.007874
tan 0.377023 -0.627007 0.674499 1.000000
tan 0.944882 0.034720 0.314961 1.000000
tan 0.861740 -0.228222 0.449935 1.000000
tan 0.937008 -0.046934 0.338583 1.000000
tan 0.944882 0.054436 0.322835 1.000000
tan 0.952756 0.069936 0.307087 1.000000
tan 0.906194 0.013144 0.406225 1.000000
tan 0.306653 0.752123 0.555335 1.000000
tan 0.930250 -0.221340 0.217558 1.000000
tan 0.000000 -0.023622 1.000000 1.000000
tan 0.000000 0.000000 1.000000 1.000000
tan 0.000000 -0.031496 1.000000 1.000000
tan 0.000000 0.015748 1.000000 1.000000
tan 0.000000 0.031496 1.000000 1.000000
tan 0.000000 0.023622 1.000000 1.000000
tan 0.000000 0.007874 1.000000 1.000000
tan 0.000000 -0.015748 1.000000 1.000000
tan 0.717961 -0.386819 -0.246016 1.000000
tan 0.901606 -0.122016 0.046748 1.000000
tan 0.877922 -0.342241 0.254696 1.000000
tan 0.715233 0.003472 0.578089 1.000000
tan 0.563457 -0.300515 -0.671833 1.000000
tan 0.395065 0.173600 0.768801 1.000000
tan 0.394073 -0.882758 0.098084 1.000000
tan 0.460661 0.854734 0.252216 1.000000
tan -0.455825 -0.868746 0.196168 1.000000
tan -0.441565 0.869366 0.226176 1.000000
tan 0.200632 -0.325624 0.726393 1.000000
tan 0.514167 0.769607 -0.258665 1.000000
tan 0.635997 -0.142724 0.698121 1.000000
tan 0.615103 0.271312 -0.659495 1.000000
tan 0.864282 0.189410 0.151280 1.000000
tan 0.756278 0.371505 -0.295493 1.000000
tan 0.848472 0.320851 0.206894 1.000000
tan 0.283465 -0.960630 0.000000 1.000000
tan 0.571765 -0.651683 -0.372187 1.000000
tan 0.244094 -0.968504 0.000000 1.000000
tan 0.583297 -0.627627 -0.504309 1.000000
tan 0.060450 -0.939922 -0.187550 1.000000
tan 0.259595 -0.737119 0.500217 1.000000
tan 0.158844 -0.798003 0.574865 1.000000
tan 0.231446 -0.877612 0.384339 1.000000
tan 0.016926 -0.976502 -0.164052 1.000000
tan -0.022816 -0.976502 -0.124000 1.000000
tan 0.607043 -0.794903 -0.017298 1.000000
tan -0.288549 -0.857462 -0.351789 1.000000
tan -0.203112 -0.960258 -0.198648 1.000000
tan -0.007750 -0.984252 -0.001426 1.000000
tan -0.015624 -0.992126 -0.001984 1.000000
tan 0.385207 -0.795399 -0.226176 1.000000
tan 0.027032 -0.770227 -0.600471 1.000000
tan 0.084072 -0.900738 -0.043152 1.000000
tan 0.035712 -0.950834 -0.121024 1.000000
tan 0.048360 -0.947424 -0.150040 1.000000
tan -0.038750 -0.961002 -0.193750 1.000000
tan -0.511625 -0.775373 -0.311054 1.000000
tan -0.190960 -0.823424 -0.367475 1.000000
tan -0.714613 -0.404489 -0.532457 1.000000
tan -0.618079 -0.766321 0.049848 1.000000
tan -0.484841 -0.762911 -0.225246 1.000000
tan -0.188976 -0.984252 0.000000 1.000000
tan -0.283465 -0.960630 0.000000 1.000000
tan -0.161076 -0.813503 0.559365 1.000000
tan -0.565441 -0.780953 0.273545 1.000000
tan -0.329965 -0.885176 0.318061 1.000000
tan -0.446587 -0.812078 -0.372559 1.000000
tan -0.369335 -0.675243 -0.569843 1.000000
tan -0.521049 -0.822246 0.160456 1.000000
tan 0.368839 -0.794904 -0.484779 1.000000
tan 0.092256 -0.945626 -0.230640 1.000000
tan -0.729679 -0.415339 0.532457 1.000000
tan -0.890570 -0.434311 -0.120156 1.000000
tan -0.593713 -0.439705 -0.678529 1.000000
tan 0.007750 -0.984252 0.093496 1.000000
tan -0.017112 -0.473557 -0.882262 1.000000
tan -0.458429 -0.663649 -0.540641 1.000000
tan 0.905450 -0.424577 -0.067952 1.000000
tan 0.639407 -0.738793 -0.031434 1.000000
tan 0.327113 -0.545291 -0.694897 1.000000
tan 0.277575 -0.907744 0.309257 1.000000
tan -0.140244 -0.857400 0.435117 1.000000
tan 0.362577 -0.835451 0.407217 1.000000
tan 0.835886 -0.116188 0.539029 1.000000
tan 0.503131 -0.752123 -0.033046 1.000000
tan 0.787402 -0.001302 0.622047 1.000000
tan 0.715357 0.156054 0.680017 1.000000
tan 0.763780 -0.026350 0.645669 1.000000
tan 0.776490 -0.591977 0.204600 1.000000
tan 0.795276 -0.002852 0.614173 1.000000
tan 0.266229 0.847728 0.435551 1.000000
tan 0.806002 0.044330 0.565751 1.000000
tan 0.701097 -0.016492 0.709901 1.000000
tan 0.185628 0.658751 0.728501 1.000000
tan 0.787402 0.066216 0.614173 1.000000
tan 0.509269 0.751937 -0.260401 1.000000
tan -0.140244 0.857400 0.435117 1.000000
tan 0.826772 0.063054 0.566929 1.000000
f 3/3/3 2/2/2 1/1/1
f 4/4/4 2/2/2 3/3/3
f 4/4/4 5/5/5 2/2/2
f 4/4/4 6/6/6 5/5/5
f 4/4/4 7/7/7 6/6/6
f 6/6/6 7/7/7 8/8/8
f 4/4/4 9/9/9 7/7/7
f 12/12/12 11/11/11 10/10/10
f 12/12/12 13/13/13 11/11/11
f 12/12/12 14/14/14 13/13/13
f 12/12/12 15/15/15 14/14/14
f 12/12/12 16/16/16 15/15/15
f 12/12/12 17/17/17 16/16/16
f 20/20/20 19/19/19 18/18/18
f 20/20/20 21/21/21 19/19/19
f 18/18/18 19/19/19 22/22/22
f 21/21/21 23/23/23 19/19/19
f 24/24/24 18/18/18 22/22/22
f 21/21/21 25/25/25 23/23/23
f 24/24/24 22/22/22 26/26/26
f 23/23/23 25/25/25 27/27/27
f 26/26/26 28/28/28 24/24/24
f 29/29/29 27/27/27 25/25/25
f 24/24/24 28/28/28 30/30/30
f 31/31/31 27/27/27 29/29/29
f 28/28/28 32/32/32 30/30/30
f 31/31/31 29/29/29 33/33/33
f 33/33/33 32/32/32 31/31/31
f 32/32/32 34/34/34 30/30/30
f 32/32/32 33/33/33 34/34/34
f 37/37/37 36/36/36 35/35/35
f 38/38/38 35/35/35 36/36/36
f 39/39/39 38/38/38 36/36/36
f 38/38/38 40/40/40 35/35/35
f 41/41/41 35/35/35 40/40/40
f 40/40/40 42/42/42 41/41/41
f 38/38/38 39/39/39 43/43/43
f 44/44/44 43/43/43 39/39/39
f 45/45/45 40/40/40 38/38/38
f 38/38/38 43/43/43 45/45/45
f 43/43/43 44/44/44 46/46/46
f 45/45/45 43/43/43 46/46/46
f 47/47/47 46/46/46 44/44/44
f 47/47/47 48/48/48 46/46/46
f 46/46/46 48/48/48 49/49/49
f 48/48/48 50/50/50 49/49/49
f 46/46/46 49/49/49 51/51/51
f 45/45/45 46/46/46 51/51/51
f 49/49/49 50/50/50 52/52/52
f 51/51/51 49/49/49 52/52/52
f 53/53/53 52/52/52 50/50/50
f 50/50/50 54/54/54 53/53/53
f 55/55/55 53/53/53 54/54/54
f 52/52/52 56/56/56 51/51/51
f 52/52/52 53/53/53 56/56/56
f 53/53/53 55/55/55 57/57/57
f 55/55/55 58/58/58 57/57/57
f 59/59/59 56/56/56 53/53/53
f 53/53/53 57/57/57 59/59/59
f 60/60/60 57/57/57 58/58/58
f 57/57/57 60/60/60 59/59/59
f 58/58/58 61/61/61 60/60/60
f 62/62/62 60/60/60 61/61/61
f 63/63/63 60/60/60 62/62/62
f 60/60/60 63/63/63 59/59/59
f 63/63/63 64/64/64 59/59/59
f 65/65/65 64/64/64 63/63/63
f 56/56/56 59/59/59 66/66/66
f 66/66/66 59/59/59 64/64/64
f 56/56/56 66/66/66 51/51/51
f 64/64/64 65/65/65 67/67/67
f 64/64/64 67/67/67 66/66/66
f 65/65/65 68/68/68 67/67/67
f 51/51/51 66/66/66 69/69/69
f 51/51/51 69/69/69 45/45/45
f 68/68/68 70/70/70 67/67/67
f 67/67/67 70/70/70 66/66/66
f 68/68/68 71/71/71 70/70/70
f 70/70/70 71/71/71 72/72/72
f 72/72/72 73/73/73 70/70/70
f 66/66/66 70/70/70 74/74/74
f 74/74/74 70/70/70 73/73/73
f 69/69/69 66/66/66 74/74/74
f 74/74/74 73/73/73 75/75/75
f 76/76/76 74/74/74 75/75/75
f 74/74/74 76/76/76 69/69/69
f 75/75/75 77/77/77 76/76/76
f 78/78/78 45/45/45 69/69/69
f 76/76/76 78/78/78 69/69/69
f 45/45/45 78/78/78 40/40/40
f 42/42/42 40/40/40 78/78/78
f 77/77/77 79/79/79 76/76/76
f 76/76/76 79/79/79 78/78/78
f 79/79/79 42/42/42 78/78/78
f 80/80/80 79/79/79 77/77/77
f 79/79/79 80/80/80 42/42/42
f 83/83/83 82/82/82 81/81/81
f 83/83/83 81/81/81 84/84/84
f 82/82/82 83/83/83 85/85/85
f 85/85/85 86/86/86 82/82/82
f 84/84/84 87/87/87 83/83/83
f 87/87/87 85/85/85 83/83/83
f 84/84/84 88/88/88 87/87/87
f 85/85/85 89/89/89 86/86/86
f 87/87/87 89/89/89 85/85/85
f 90/90/90 86/86/86 89/89/89
f 88/88/88 91/91/91 87/87/87
f 91/91/91 88/88/88 92/92/92
f 92/92/92 93/93/93 91/91/91
f 94/94/94 90/90/90 89/89/89
f 87/87/87 94/94/94 89/89/89
f 90/90/90 94/94/94 95/95/95
f 95/95/95 94/94/94 96/96/96
f 87/87/87 91/91/91 97/97/97
f 87/87/87 97/97/97 94/94/94
f 97/97/97 91/91/91 93/93/93
f 96/96/96 94/94/94 97/97/97
f 96/96/96 97/97/97 93/93/93
