mtllib SM_Frames_06_LOD2.mtl
g SM_Frames_06_LOD2
#Vertices 40
#Indices 66
#Section 0 Offset 0 NumIndices 66 MaterialIndex 0 MI_Frames
v 0.001624 -0.013035 -0.119688
v 0.005989 0.032833 0.098389
v -0.000749 0.029183 -0.096191
v 0.008167 0.269400 0.123798
v -0.005178 0.266055 0.082535
v 0.007007 0.242833 0.098867
v -0.001339 0.242823 -0.091695
v -0.005726 0.269895 -0.122601
v 0.007039 0.269613 -0.121948
v 0.009888 -0.004889 -0.125667
v -0.005069 0.000765 -0.082587
v 0.007077 0.023738 -0.099213
v 0.006960 0.022370 0.099924
v -0.011681 0.007963 0.124037
v 0.006965 -0.002746 0.122194
v 0.005568 0.024006 0.098474
v 0.001230 0.244807 -0.098622
v 0.001230 0.023821 -0.098622
v 0.001230 0.244807 0.098725
v 0.001230 0.023821 0.098725
v 0.006290 0.272237 -0.122756
v 0.006154 0.241335 0.096747
v -0.000807 0.280203 0.121184
v -0.001054 0.235890 -0.096249
v -0.005178 0.266055 0.082535
v -0.011681 0.007963 0.124037
v 0.005568 0.024006 0.098474
v 0.007007 0.242833 0.098867
v 0.006960 0.022370 0.099924
v 0.008167 0.269400 0.123798
v 0.006965 -0.002746 0.122194
v -0.011681 0.007963 0.124037
v -0.005178 0.266055 0.082535
v -0.005726 0.269895 -0.122601
v -0.005069 0.000765 -0.082587
v 0.009888 -0.004889 -0.125667
v 0.007039 0.269613 -0.121948
v 0.007077 0.023738 -0.099213
v -0.001339 0.242823 -0.091695
v -0.005069 0.000765 -0.082587
vt 0.246338 0.995934
vt 0.272705 0.840210
vt 0.274414 0.978546
vt 0.350342 0.903870
vt 0.323242 0.836792
vt 0.349121 0.820312
vt 0.338867 0.810059
vt 0.346680 0.902710
vt 0.321289 0.901306
vt 0.319580 0.812744
vt 0.346436 0.885742
vt 0.321045 0.901306
vt 0.348877 0.898315
vt 0.311035 0.838257
vt 0.349121 0.821045
vt 0.348877 0.898315
vt 0.212280 0.820557
vt 0.212280 0.665039
vt 0.351074 0.820557
vt 0.351074 0.665039
vt 0.309570 0.997452
vt 0.288574 0.841309
vt 0.314697 0.823975
vt 0.284424 0.978561
vt 0.626465 0.874390
vt 0.622070 0.689453
vt 0.634766 0.702148
vt 0.635254 0.857910
vt 0.635742 0.700928
vt 0.651855 0.876770
vt 0.651367 0.683105
vt 0.660645 0.690430
vt 0.659180 0.874390
vt 0.872070 0.958832
vt 0.872559 0.767212
vt 0.880371 0.763184
vt 0.880859 0.958649
vt 0.896484 0.783569
vt 0.901855 0.939453
vt 0.905273 0.767212
vt1 0.010262 0.142578
vt1 0.598145 0.244629
vt1 0.075928 0.250977
vt1 0.789062 0.241699
vt1 0.751953 0.150879
vt1 0.787598 0.128906
vt1 0.837891 0.130859
vt1 0.848633 0.256348
vt1 0.813965 0.254395
vt1 0.930176 0.274414
vt1 0.831055 0.311523
vt1 0.810059 0.276855
vt1 0.722656 0.233887
vt1 0.670898 0.152832
vt1 0.722656 0.129395
vt1 0.722656 0.233887
vt1 0.008064 0.991936
vt1 0.008064 0.398438
vt1 0.538086 0.991936
vt1 0.538086 0.398438
vt1 0.956055 0.995480
vt1 0.875000 0.405762
vt1 0.975098 0.340332
vt1 0.858887 0.924072
vt1 0.556641 0.981384
vt1 0.539551 0.283691
vt1 0.586914 0.331055
vt1 0.588867 0.919006
vt1 0.590820 0.326660
vt1 0.653320 0.990570
vt1 0.651367 0.259277
vt1 0.687012 0.287598
vt1 0.682617 0.981415
vt1 0.701172 0.991730
vt1 0.702637 0.268555
vt1 0.732910 0.253418
vt1 0.734375 0.990974
vt1 0.795898 0.330566
vt1 0.816406 0.918579
vt1 0.829102 0.268555
vn 0.755906 -0.653543 0.000000
vn 0.889764 0.456693 -0.000000
vn 0.480315 0.881890 -0.000000
vn 0.000000 0.661417 -0.748031
vn 0.000000 0.661417 -0.748031
vn 0.000000 0.661417 -0.748031
vn 0.000000 0.661417 0.748031
vn 0.000000 0.661417 0.748031
vn 0.000000 0.661417 0.748031
vn 0.000000 -0.661417 0.748031
vn 0.000000 -0.661417 0.748031
vn 0.000000 -0.661417 0.748031
vn 0.000000 -0.661417 -0.748031
vn 0.000000 -0.661417 -0.748031
vn 0.000000 -0.661417 -0.748031
vn 0.000000 -0.661417 -0.748031
vn 1.000000 0.000000 0.000000
vn 1.000000 0.000000 0.000000
vn 1.000000 0.000000 0.000000
vn 1.000000 0.000000 0.000000
vn 0.929134 0.370079 -0.000000
vn 0.968504 -0.251968 0.000000
vn 0.590551 0.811023 -0.000000
vn 0.661417 -0.748031 0.000000
vn 0.039370 -0.000000 -1.000000
vn -0.086614 -0.000000 -1.000000
vn 0.157480 -0.000000 -0.984252
vn 0.889764 -0.000000 -0.448819
vn 1.000000 -0.000000 -0.023622
vn 0.559055 0.000000 0.826772
vn 0.811024 0.000000 0.582677
vn -0.094488 0.000000 0.992126
vn 0.000000 0.000000 1.000000
vn 0.000000 -0.000000 -1.000000
vn 0.000000 -0.000000 -1.000000
vn 0.456693 -0.000000 -0.889764
vn 0.897638 -0.000000 -0.433071
vn 0.968504 0.000000 0.244094
vn 0.291339 0.000000 0.952756
vn 0.031496 0.000000 1.000000
tan 0.000000 0.000000 0.930374 1.000000
tan 0.000000 0.000000 0.911340 1.000000
tan 0.000000 0.000000 0.970736 1.000000
tan 0.480873 -0.647901 -0.572881 1.000000
tan 0.169632 -0.736251 -0.651001 1.000000
tan 0.673197 -0.023560 -0.020832 1.000000
tan -0.130696 -0.742141 0.656209 1.000000
tan -0.361275 -0.695021 0.614545 1.000000
tan 0.175088 -0.736251 0.651001 1.000000
tan 0.113026 -0.742141 -0.656209 1.000000
tan -0.165354 -0.736251 -0.651001 1.000000
tan 0.180978 -0.736251 -0.651001 1.000000
tan 0.712567 -0.524211 0.463513 1.000000
tan 0.050964 -0.748031 0.661417 1.000000
tan 0.753240 -0.017670 0.015624 1.000000
tan -0.729555 0.506541 -0.447889 1.000000
tan 0.000000 -1.000000 0.000000 1.000000
tan 0.000000 -1.000000 0.000000 1.000000
tan 0.000000 -1.000000 0.000000 1.000000
tan 0.000000 -1.000000 0.000000 1.000000
tan 0.000000 0.000000 0.940790 1.000000
tan 0.000000 0.000000 0.972472 1.000000
tan 0.000000 0.000000 1.004216 1.000000
tan 0.000000 0.000000 0.979540 1.000000
tan 0.000000 -1.000000 0.000000 1.000000
tan 0.000000 -1.000000 0.000000 1.000000
tan 0.000000 -0.985492 0.000000 1.000000
tan 0.000000 -0.942836 0.000000 1.000000
tan 0.000000 -1.000000 0.000000 1.000000
tan 0.000000 -0.961684 0.000000 1.000000
tan 0.000000 -0.939674 0.000000 1.000000
tan 0.000000 -0.992126 0.000000 1.000000
tan 0.000000 -1.000000 0.000000 1.000000
tan 0.000000 -1.000000 0.000000 1.000000
tan 0.000000 -1.000000 0.000000 1.000000
tan 0.000000 -0.943890 0.000000 1.000000
tan 0.000000 -0.928328 0.000000 1.000000
tan 0.000000 -0.972348 0.000000 1.000000
tan 0.000000 -0.957344 0.000000 1.000000
tan 0.000000 -1.000000 0.000000 1.000000
f 3/3/3 2/2/2 1/1/1
f 6/6/6 5/5/5 4/4/4
f 9/9/9 8/8/8 7/7/7
f 12/12/12 11/11/11 10/10/10
f 15/15/15 14/14/14 13/13/13
f 16/16/16 13/13/13 14/14/14
f 19/19/19 18/18/18 17/17/17
f 19/19/19 20/20/20 18/18/18
f 23/23/23 22/22/22 21/21/21
f 24/24/24 21/21/21 22/22/22
f 27/27/27 26/26/26 25/25/25
f 25/25/25 28/28/28 27/27/27
f 29/29/29 27/27/27 28/28/28
f 28/28/28 30/30/30 29/29/29
f 31/31/31 29/29/29 30/30/30
f 32/32/32 31/31/31 30/30/30
f 30/30/30 33/33/33 32/32/32
f 36/36/36 35/35/35 34/34/34
f 34/34/34 37/37/37 36/36/36
f 38/38/38 36/36/36 37/37/37
f 39/39/39 38/38/38 37/37/37
f 40/40/40 38/38/38 39/39/39
