mtllib SM_Frames_03_LOD4.mtl
g SM_Frames_03_LOD4
#Vertices 12
#Indices 18
#Section 0 Offset 0 NumIndices 18 MaterialIndex 0 MI_Frames
v 0.004688 -0.016985 -0.184579
v -0.003261 -0.009705 0.182518
v 0.004231 0.051391 0.148497
v -0.002235 0.044827 -0.145082
v 0.004537 0.405418 -0.201410
v -0.003494 0.000099 -0.193637
v 0.003974 0.034488 -0.133929
v -0.002439 0.365559 -0.140749
v 0.001768 0.369264 -0.148187
v 0.001768 0.036819 -0.148187
v 0.001768 0.369264 0.148341
v 0.001768 0.036819 0.148341
vt 0.462891 0.930908
vt 0.464355 0.669678
vt 0.505859 0.693848
vt 0.504883 0.902832
vt 0.718262 0.955811
vt 0.720215 0.667480
vt 0.761230 0.692139
vt 0.759766 0.927551
vt 0.000000 0.688721
vt 0.000000 0.455078
vt 0.208618 0.688721
vt 0.208618 0.455078
vt1 0.869141 0.995522
vt1 0.873047 0.330078
vt1 0.981934 0.391602
vt1 0.978516 0.924072
vt1 0.578125 0.995159
vt1 0.582520 0.260254
vt1 0.689453 0.322754
vt1 0.686035 0.923035
vt1 0.008064 0.991936
vt1 0.008064 0.389160
vt1 0.545898 0.991936
vt1 0.545898 0.389160
vn 0.732283 -0.685039 0.000000
vn 0.322835 -0.944882 0.000000
vn 0.834646 0.551181 -0.000000
vn 0.417323 0.905512 -0.000000
vn 0.708661 -0.000000 -0.708661
vn 0.291339 -0.000000 -0.952756
vn 0.818898 0.000000 0.574803
vn 0.401575 0.000000 0.913386
vn 1.000000 0.000000 0.000000
vn 1.000000 0.000000 0.000000
vn 1.000000 0.000000 0.000000
vn 1.000000 0.000000 0.000000
tan 0.000000 0.000000 0.928514 1.000000
tan 0.000000 0.000000 0.960134 1.000000
tan 0.000000 0.000000 0.908302 1.000000
tan 0.000000 0.000000 0.954244 1.000000
tan 0.000000 -0.943022 0.000000 1.000000
tan 0.000000 -0.961932 0.000000 1.000000
tan 0.000000 -0.919152 0.000000 1.000000
tan 0.000000 -0.950462 0.000000 1.000000
tan 0.000000 -1.000000 0.000000 1.000000
tan 0.000000 -1.000000 0.000000 1.000000
tan 0.000000 -1.000000 0.000000 1.000000
tan 0.000000 -1.000000 0.000000 1.000000
f 3/3/3 2/2/2 1/1/1
f 4/4/4 3/3/3 1/1/1
f 7/7/7 6/6/6 5/5/5
f 8/8/8 7/7/7 5/5/5
f 11/11/11 10/10/10 9/9/9
f 11/11/11 12/12/12 10/10/10
