mtllib SM_Frames_01.mtl
g SM_Frames_01
#Vertices 120
#Indices 270
#Section 0 Offset 0 NumIndices 270 MaterialIndex 0 MI_Frames
v 0.010006 0.400324 -0.320579
v -0.008005 0.398323 -0.318639
v 0.008005 0.398323 -0.318639
v 0.010006 0.400324 -0.320579
v -0.010006 0.400324 -0.320579
v 0.010006 0.400324 -0.320579
v -0.010006 0.433837 -0.353062
v 0.010006 0.433837 -0.353062
v -0.008005 0.435837 -0.355001
v 0.008005 0.435837 -0.355001
v 0.010006 0.002229 0.354534
v -0.008005 0.000000 0.356713
v 0.008005 0.000000 0.356713
v 0.010006 0.002229 0.354534
v -0.010006 0.002229 0.354534
v 0.010006 0.002229 0.354534
v -0.010006 0.034843 0.322653
v 0.010006 0.034843 0.322653
v -0.008005 0.037072 0.320474
v 0.008005 0.037072 0.320474
v 0.001768 0.401166 0.320850
v 0.001768 0.401166 -0.320696
v 0.001768 0.036819 -0.320696
v 0.001768 0.036819 0.320850
v -0.008005 -0.000000 -0.355001
v -0.008005 0.000000 0.355001
v 0.008005 0.000000 0.355001
v 0.008005 -0.000000 -0.355001
v 0.010006 0.002001 0.353057
v 0.010006 0.002001 -0.353062
v 0.010006 0.035514 0.320487
v 0.010006 0.035514 -0.320579
v 0.008005 0.037515 0.318542
v 0.008005 0.037515 -0.318639
v -0.008005 0.037515 0.318542
v -0.008005 0.037515 -0.318639
v -0.008005 0.435446 -0.356713
v -0.008005 -0.000000 -0.356713
v 0.008005 -0.000000 -0.356713
v 0.008005 0.435446 -0.356713
v 0.010006 0.002229 -0.354533
v 0.010006 0.433222 -0.354533
v 0.010006 0.034843 -0.322652
v 0.010006 0.400696 -0.322652
v 0.008005 0.037072 -0.320473
v 0.008005 0.398473 -0.320473
v -0.008005 0.037072 -0.320473
v -0.008005 0.398473 -0.320473
v -0.008005 0.398323 0.318542
v 0.010006 0.400324 0.320487
v 0.008005 0.398323 0.318542
v -0.010006 0.400324 0.320487
v 0.010006 0.433837 0.353056
v -0.010006 0.433837 0.353056
v -0.008005 0.435838 0.355001
v 0.008005 0.435838 0.355001
v 0.010006 0.002001 -0.353062
v -0.008005 -0.000000 -0.355001
v 0.008005 -0.000000 -0.355001
v -0.010006 0.002001 -0.353062
v 0.010006 0.035514 -0.320579
v -0.010006 0.035514 -0.320579
v -0.008005 0.037515 -0.318639
v 0.008005 0.037515 -0.318639
v 0.010006 0.035514 0.320487
v -0.008005 0.037515 0.318542
v 0.008005 0.037515 0.318542
v -0.010006 0.035514 0.320487
v 0.010006 0.002001 0.353057
v -0.010006 0.002001 0.353057
v -0.008005 0.000000 0.355001
v 0.008005 0.000000 0.355001
v 0.010006 0.433222 -0.354533
v -0.008005 0.435446 -0.356713
v 0.008005 0.435446 -0.356713
v -0.010006 0.433222 -0.354533
v 0.010006 0.400696 -0.322652
v -0.010006 0.400696 -0.322652
v -0.008005 0.398473 -0.320473
v 0.008005 0.398473 -0.320473
v 0.010006 0.034843 -0.322652
v -0.008005 0.037072 -0.320473
v 0.008005 0.037072 -0.320473
v -0.010006 0.034843 -0.322652
v 0.010006 0.002229 -0.354533
v -0.010006 0.002229 -0.354533
v -0.008005 -0.000000 -0.356713
v 0.008005 -0.000000 -0.356713
v -0.008005 0.435446 0.356713
v 0.010006 0.433223 0.354534
v 0.008005 0.435446 0.356713
v -0.010006 0.433223 0.354534
v 0.010006 0.400696 0.322653
v -0.010006 0.400696 0.322653
v -0.008005 0.398473 0.320474
v 0.008005 0.398473 0.320474
v 0.008005 0.435837 -0.355001
v -0.008005 0.435838 0.355001
v -0.008005 0.435837 -0.355001
v 0.008005 0.435838 0.355001
v 0.010006 0.433837 0.353056
v 0.010006 0.433837 -0.353062
v 0.010006 0.400324 0.320487
v 0.010006 0.400324 -0.320579
v 0.008005 0.398323 0.318542
v 0.008005 0.398323 -0.318639
v -0.008005 0.398323 -0.318639
v -0.008005 0.398323 0.318542
v -0.008005 0.000000 0.356713
v -0.008005 0.435446 0.356713
v 0.008005 0.435446 0.356713
v 0.008005 0.000000 0.356713
v 0.010006 0.002229 0.354534
v 0.010006 0.433223 0.354534
v 0.010006 0.034843 0.322653
v 0.010006 0.400696 0.322653
v 0.008005 0.037072 0.320474
v 0.008005 0.398473 0.320474
v -0.008005 0.398473 0.320474
v -0.008005 0.037072 0.320474
vt 0.348877 0.824463
vt 0.321533 0.824463
vt 0.348877 0.824463
vt 0.348877 0.824463
vt 0.321533 0.824463
vt 0.348877 0.824463
vt 0.321533 0.898315
vt 0.348877 0.898315
vt 0.321533 0.898315
vt 0.348877 0.898315
vt 0.348877 0.824463
vt 0.321533 0.824463
vt 0.348877 0.824463
vt 0.348877 0.824463
vt 0.321533 0.824463
vt 0.348877 0.824463
vt 0.321533 0.898315
vt 0.348877 0.898315
vt 0.321533 0.898315
vt 0.348877 0.898315
vt 0.256348 0.000488
vt 0.256348 0.451660
vt 0.000000 0.451660
vt 0.000000 0.000488
vt 0.662598 0.722168
vt 0.662598 0.215332
vt 0.673828 0.215332
vt 0.673828 0.722168
vt 0.675293 0.216797
vt 0.675293 0.720703
vt 0.699219 0.239746
vt 0.699219 0.697510
vt 0.700684 0.241211
vt 0.700684 0.696289
vt 0.711914 0.241211
vt 0.711914 0.696289
vt 0.605957 0.705566
vt 0.605957 0.395996
vt 0.617676 0.395996
vt 0.617676 0.705566
vt 0.619141 0.397461
vt 0.619141 0.704102
vt 0.641602 0.420410
vt 0.641602 0.680908
vt 0.643066 0.422363
vt 0.643066 0.679199
vt 0.654785 0.422363
vt 0.654785 0.679199
vt 0.321533 0.898315
vt 0.348877 0.898315
vt 0.348877 0.898315
vt 0.321533 0.898315
vt 0.348877 0.824463
vt 0.321533 0.824463
vt 0.321533 0.824463
vt 0.348877 0.824463
vt 0.321533 0.898315
vt 0.348877 0.898315
vt 0.321533 0.898315
vt 0.348877 0.898315
vt 0.321533 0.824463
vt 0.348877 0.824463
vt 0.348877 0.824463
vt 0.321533 0.824463
vt 0.699219 0.239746
vt 0.711914 0.241211
vt 0.700684 0.241211
vt 0.713379 0.239746
vt 0.699219 0.216797
vt 0.713379 0.216797
vt 0.711914 0.215332
vt 0.700684 0.215332
vt 0.348877 0.824463
vt 0.321533 0.824463
vt 0.348877 0.824463
vt 0.321533 0.824463
vt 0.348877 0.898315
vt 0.321533 0.898315
vt 0.321533 0.898315
vt 0.348877 0.898315
vt 0.348877 0.824463
vt 0.321533 0.824463
vt 0.348877 0.824463
vt 0.321533 0.824463
vt 0.348877 0.898315
vt 0.321533 0.898315
vt 0.321533 0.898315
vt 0.348877 0.898315
vt 0.321533 0.898315
vt 0.348877 0.898315
vt 0.348877 0.898315
vt 0.321533 0.898315
vt 0.348877 0.824463
vt 0.321533 0.824463
vt 0.321533 0.824463
vt 0.348877 0.824463
vt 0.754395 0.505615
vt 0.765625 0.000488
vt 0.765625 0.505615
vt 0.754395 0.000488
vt 0.752930 0.001465
vt 0.752930 0.504150
vt 0.729004 0.024902
vt 0.729004 0.481445
vt 0.727539 0.026367
vt 0.727539 0.479980
vt 0.716309 0.479980
vt 0.716309 0.026367
vt 0.908203 0.463379
vt 0.908203 0.773071
vt 0.896484 0.773071
vt 0.896484 0.463379
vt 0.895020 0.464844
vt 0.895020 0.771484
vt 0.872559 0.488281
vt 0.872559 0.748291
vt 0.870605 0.489746
vt 0.870605 0.746826
vt 0.859375 0.746826
vt 0.859375 0.489746
vt1 0.904785 0.395508
vt1 0.904785 0.367676
vt1 0.904785 0.395508
vt1 0.904785 0.395508
vt1 0.904785 0.367676
vt1 0.904785 0.395508
vt1 0.830566 0.367676
vt1 0.830566 0.395508
vt1 0.830566 0.367676
vt1 0.830566 0.395508
vt1 0.984863 0.347168
vt1 0.984863 0.319336
vt1 0.984863 0.347168
vt1 0.984863 0.347168
vt1 0.984863 0.319336
vt1 0.984863 0.347168
vt1 0.911133 0.319336
vt1 0.911133 0.347168
vt1 0.911133 0.319336
vt1 0.911133 0.347168
vt1 0.514160 0.101074
vt1 0.514160 0.991936
vt1 0.008064 0.991936
vt1 0.008064 0.101074
vt1 0.623047 0.991936
vt1 0.623047 0.008301
vt1 0.601074 0.008301
vt1 0.601074 0.991936
vt1 0.598145 0.011230
vt1 0.598145 0.989250
vt1 0.551758 0.056152
vt1 0.551758 0.944244
vt1 0.548828 0.058594
vt1 0.548828 0.941559
vt1 0.526855 0.058594
vt1 0.526855 0.941559
vt1 0.766113 0.991936
vt1 0.766113 0.387207
vt1 0.788574 0.387207
vt1 0.788574 0.991936
vt1 0.791504 0.390137
vt1 0.791504 0.988853
vt1 0.836914 0.435547
vt1 0.836914 0.943665
vt1 0.840332 0.438477
vt1 0.840332 0.940582
vt1 0.862793 0.438477
vt1 0.862793 0.940582
vt1 0.766113 0.363281
vt1 0.793457 0.363281
vt1 0.793457 0.363281
vt1 0.766113 0.363281
vt1 0.793457 0.288574
vt1 0.766113 0.288574
vt1 0.766113 0.288574
vt1 0.793457 0.288574
vt1 0.814453 0.319336
vt1 0.814453 0.347168
vt1 0.814453 0.319336
vt1 0.814453 0.347168
vt1 0.888672 0.319336
vt1 0.888672 0.347168
vt1 0.888672 0.347168
vt1 0.888672 0.319336
vt1 0.551758 0.056152
vt1 0.526855 0.058594
vt1 0.548828 0.058594
vt1 0.523926 0.056152
vt1 0.551758 0.011230
vt1 0.523926 0.011230
vt1 0.526855 0.008301
vt1 0.548828 0.008301
vt1 0.887695 0.298828
vt1 0.887695 0.270996
vt1 0.887695 0.298828
vt1 0.887695 0.270996
vt1 0.814453 0.298828
vt1 0.814453 0.270996
vt1 0.814453 0.270996
vt1 0.814453 0.298828
vt1 0.793457 0.192871
vt1 0.766113 0.192871
vt1 0.793457 0.192871
vt1 0.766113 0.192871
vt1 0.793457 0.266602
vt1 0.766113 0.266602
vt1 0.766113 0.266602
vt1 0.793457 0.266602
vt1 0.766113 0.169434
vt1 0.793457 0.169434
vt1 0.793457 0.169434
vt1 0.766113 0.169434
vt1 0.793457 0.096191
vt1 0.766113 0.096191
vt1 0.766113 0.096191
vt1 0.793457 0.096191
vt1 0.727051 0.991936
vt1 0.749512 0.008301
vt1 0.749512 0.991936
vt1 0.727051 0.008301
vt1 0.724609 0.011230
vt1 0.724609 0.989250
vt1 0.677734 0.056152
vt1 0.677734 0.944244
vt1 0.675293 0.058594
vt1 0.675293 0.941559
vt1 0.652832 0.941559
vt1 0.652832 0.058594
vt1 0.975586 0.387207
vt1 0.975586 0.991936
vt1 0.953125 0.991936
vt1 0.953125 0.387207
vt1 0.949707 0.390137
vt1 0.949707 0.988853
vt1 0.904785 0.435547
vt1 0.904785 0.943665
vt1 0.901367 0.438477
vt1 0.901367 0.940582
vt1 0.878906 0.940582
vt1 0.878906 0.438477
vn 0.000000 -0.692913 -0.716535
vn 0.000000 -0.692913 -0.716535
vn 0.000000 -0.692913 -0.716535
vn 0.000000 -0.692913 -0.716535
vn 0.000000 -0.692913 -0.716535
vn 0.000000 -0.692913 -0.716535
vn 0.000000 -0.692913 -0.716535
vn 0.000000 -0.692913 -0.716535
vn 0.000000 -0.692913 -0.716535
vn 0.000000 -0.692913 -0.716535
vn 0.000000 -0.700787 -0.716535
vn 0.000000 -0.700787 -0.716535
vn 0.000000 -0.700787 -0.716535
vn 0.000000 -0.700787 -0.716535
vn 0.000000 -0.700787 -0.716535
vn 0.000000 -0.700787 -0.716535
vn 0.000000 -0.700787 -0.716535
vn 0.000000 -0.700787 -0.716535
vn 0.000000 -0.700787 -0.716535
vn 0.000000 -0.700787 -0.716535
vn 1.000000 0.000000 0.000000
vn 1.000000 0.000000 0.000000
vn 1.000000 0.000000 0.000000
vn 1.000000 0.000000 0.000000
vn 0.000000 -1.000000 0.000000
vn 0.000000 -1.000000 0.000000
vn 0.070866 -1.000000 0.000000
vn 0.070866 -1.000000 0.000000
vn 0.992126 -0.141732 0.000000
vn 0.992126 -0.141732 0.000000
vn 1.000000 0.023622 -0.000000
vn 1.000000 0.023622 -0.000000
vn 0.149606 0.992126 -0.000000
vn 0.149606 0.992126 -0.000000
vn 0.000000 1.000000 -0.000000
vn 0.000000 1.000000 -0.000000
vn 0.000000 -0.000000 -1.000000
vn 0.000000 -0.000000 -1.000000
vn 0.070866 -0.000000 -1.000000
vn 0.070866 -0.000000 -1.000000
vn 0.984252 -0.000000 -0.157480
vn 0.984252 -0.000000 -0.157480
vn 1.000000 0.000000 0.023622
vn 1.000000 0.000000 0.023622
vn 0.165354 0.000000 0.984252
vn 0.165354 0.000000 0.984252
vn 0.000000 0.000000 1.000000
vn 0.000000 0.000000 1.000000
vn 0.000000 -0.700787 0.716535
vn 0.000000 -0.700787 0.716535
vn 0.000000 -0.700787 0.716535
vn 0.000000 -0.700787 0.716535
vn 0.000000 -0.700787 0.716535
vn 0.000000 -0.700787 0.716535
vn 0.000000 -0.700787 0.716535
vn 0.000000 -0.700787 0.716535
vn 0.000000 0.692913 -0.716535
vn 0.000000 0.692913 -0.716535
vn 0.000000 0.692913 -0.716535
vn 0.000000 0.692913 -0.716535
vn 0.000000 0.692913 -0.716535
vn 0.000000 0.692913 -0.716535
vn 0.000000 0.692913 -0.716535
vn 0.000000 0.692913 -0.716535
vn 0.000000 0.700787 0.716535
vn 0.000000 0.700787 0.716535
vn 0.000000 0.700787 0.716535
vn 0.000000 0.700787 0.716535
vn 0.000000 0.700787 0.716535
vn 0.000000 0.700787 0.716535
vn 0.000000 0.700787 0.716535
vn 0.000000 0.700787 0.716535
vn 0.000000 0.700787 0.716535
vn 0.000000 0.700787 0.716535
vn 0.000000 0.700787 0.716535
vn 0.000000 0.700787 0.716535
vn 0.000000 0.700787 0.716535
vn 0.000000 0.700787 0.716535
vn 0.000000 0.700787 0.716535
vn 0.000000 0.700787 0.716535
vn 0.000000 -0.700787 0.716535
vn 0.000000 -0.700787 0.716535
vn 0.000000 -0.700787 0.716535
vn 0.000000 -0.700787 0.716535
vn 0.000000 -0.700787 0.716535
vn 0.000000 -0.700787 0.716535
vn 0.000000 -0.700787 0.716535
vn 0.000000 -0.700787 0.716535
vn 0.000000 0.700787 -0.716535
vn 0.000000 0.700787 -0.716535
vn 0.000000 0.700787 -0.716535
vn 0.000000 0.700787 -0.716535
vn 0.000000 0.700787 -0.716535
vn 0.000000 0.700787 -0.716535
vn 0.000000 0.700787 -0.716535
vn 0.000000 0.700787 -0.716535
vn 0.070866 1.000000 -0.000000
vn 0.000000 1.000000 -0.000000
vn 0.000000 1.000000 -0.000000
vn 0.070866 1.000000 -0.000000
vn 0.992126 0.141732 -0.000000
vn 0.992126 0.141732 -0.000000
vn 1.000000 -0.023622 0.000000
vn 1.000000 -0.023622 0.000000
vn 0.149606 -0.992126 0.000000
vn 0.149606 -0.992126 0.000000
vn 0.000000 -1.000000 0.000000
vn 0.000000 -1.000000 0.000000
vn 0.000000 0.000000 1.000000
vn 0.000000 0.000000 1.000000
vn 0.070866 0.000000 1.000000
vn 0.070866 0.000000 1.000000
vn 0.984252 0.000000 0.157480
vn 0.984252 0.000000 0.157480
vn 1.000000 -0.000000 -0.023622
vn 1.000000 -0.000000 -0.023622
vn 0.165354 -0.000000 -0.984252
vn 0.165354 -0.000000 -0.984252
vn 0.000000 -0.000000 -1.000000
vn 0.000000 -0.000000 -1.000000
tan 0.155372 -0.710893 0.687457 1.000000
tan 0.427367 -0.648831 0.627441 1.000000
tan 0.810342 -0.417509 0.403745 1.000000
tan 0.000000 -0.716535 0.692913 1.000000
tan 0.133176 -0.710893 0.687457 1.000000
tan 0.000000 -0.716535 0.692913 1.000000
tan 0.155372 -0.710893 0.687457 1.000000
tan 0.971356 -0.163618 0.158224 1.000000
tan -0.810342 0.417509 -0.403745 1.000000
tan -0.910224 0.293385 -0.283713 1.000000
tan 0.167400 -0.705251 0.689751 1.000000
tan 0.429723 -0.648831 0.634571 1.000000
tan 0.842644 -0.389299 0.380743 1.000000
tan -0.167400 0.705251 -0.689751 1.000000
tan 0.122760 -0.710893 0.695269 1.000000
tan 0.000000 -0.716535 0.700787 1.000000
tan 0.167400 -0.705251 0.689751 1.000000
tan 0.915246 -0.293385 0.286937 1.000000
tan -0.842644 0.389299 -0.380743 1.000000
tan -0.904086 0.304669 -0.297973 1.000000
tan 0.000000 0.000000 1.000000 1.000000
tan 0.000000 0.000000 1.000000 1.000000
tan 0.000000 0.000000 1.000000 1.000000
tan 0.000000 0.000000 1.000000 1.000000
tan 0.000000 0.000000 1.000000 1.000000
tan 0.000000 0.000000 1.000000 1.000000
tan 0.000000 0.000000 1.005022 1.000000
tan 0.000000 0.000000 1.005022 1.000000
tan 0.000000 0.000000 1.004402 1.000000
tan 0.000000 0.000000 1.004402 1.000000
tan 0.000000 0.000000 1.000558 1.000000
tan 0.000000 0.000000 1.000558 1.000000
tan 0.000000 0.000000 1.006696 1.000000
tan 0.000000 0.000000 1.006696 1.000000
tan 0.000000 0.000000 1.000000 1.000000
tan 0.000000 0.000000 1.000000 1.000000
tan 0.000000 -1.000000 0.000000 1.000000
tan 0.000000 -1.000000 0.000000 1.000000
tan 0.000000 -1.005022 0.000000 1.000000
tan 0.000000 -1.005022 0.000000 1.000000
tan 0.000000 -0.993552 0.000000 1.000000
tan 0.000000 -0.993552 0.000000 1.000000
tan 0.000000 -1.000558 0.000000 1.000000
tan 0.000000 -1.000558 0.000000 1.000000
tan 0.000000 -0.996094 0.000000 1.000000
tan 0.000000 -0.996094 0.000000 1.000000
tan 0.000000 -1.000000 0.000000 1.000000
tan 0.000000 -1.000000 0.000000 1.000000
tan -0.814806 -0.417509 -0.408333 1.000000
tan 0.971046 0.174902 0.171058 1.000000
tan -0.915246 -0.293385 -0.286937 1.000000
tan 0.156240 0.710893 0.695269 1.000000
tan 0.716535 0.000000 0.000000 1.000000
tan 0.133920 0.710893 0.695269 1.000000
tan 0.429723 0.648831 0.634571 1.000000
tan 0.814806 0.417509 0.408333 1.000000
tan 0.754851 0.468287 0.452849 1.000000
tan 0.000000 -0.716535 -0.692913 1.000000
tan 0.621675 0.558559 0.540145 1.000000
tan -0.849278 0.372373 0.360097 1.000000
tan 0.521793 0.609337 0.589249 1.000000
tan -0.982454 0.107198 0.103664 1.000000
tan -0.810342 0.417509 0.403745 1.000000
tan 0.000000 0.716535 0.692913 1.000000
tan 0.000000 -0.716535 0.700787 1.000000
tan 0.000000 -0.716535 0.700787 1.000000
tan 0.000000 -0.716535 0.700787 1.000000
tan 0.000000 -0.716535 0.700787 1.000000
tan 0.000000 -0.716535 0.700787 1.000000
tan 0.000000 -0.716535 0.700787 1.000000
tan 0.000000 -0.716535 0.700787 1.000000
tan 0.000000 -0.716535 0.700787 1.000000
tan 0.837126 0.389299 -0.380743 1.000000
tan 0.000000 0.716535 -0.700787 1.000000
tan 0.842644 0.389299 -0.380743 1.000000
tan -0.552483 0.598053 -0.584909 1.000000
tan 0.887284 -0.332879 0.325563 1.000000
tan -0.318123 0.682683 -0.667679 1.000000
tan -0.915246 0.287743 -0.281419 1.000000
tan 0.000000 -0.716535 0.700787 1.000000
tan 0.837126 0.389299 0.380743 1.000000
tan 0.000000 0.716535 0.700787 1.000000
tan 0.842644 0.389299 0.380743 1.000000
tan -0.552483 0.598053 0.584909 1.000000
tan 0.892926 -0.332879 -0.325563 1.000000
tan -0.318123 0.682683 0.667679 1.000000
tan -0.915246 0.287743 0.281419 1.000000
tan 0.000000 -0.716535 -0.700787 1.000000
tan -0.842644 0.389299 0.380743 1.000000
tan 0.915246 -0.287743 -0.281419 1.000000
tan -0.904086 0.304669 0.297973 1.000000
tan 0.167400 -0.705251 -0.689751 1.000000
tan -0.171058 0.693967 0.678715 1.000000
tan 0.122760 -0.710893 -0.695269 1.000000
tan 0.429723 -0.648831 -0.634571 1.000000
tan 0.842644 -0.389299 -0.380743 1.000000
tan 0.000000 0.000000 1.005022 1.000000
tan 0.000000 0.000000 1.000000 1.000000
tan 0.000000 0.000000 1.000000 1.000000
tan 0.000000 0.000000 1.005022 1.000000
tan 0.000000 0.000000 1.004402 1.000000
tan 0.000000 0.000000 1.004402 1.000000
tan 0.000000 0.000000 1.000558 1.000000
tan 0.000000 0.000000 1.000558 1.000000
tan 0.000000 0.000000 1.006696 1.000000
tan 0.000000 0.000000 1.006696 1.000000
tan 0.000000 0.000000 1.000000 1.000000
tan 0.000000 0.000000 1.000000 1.000000
tan 0.000000 -1.000000 0.000000 1.000000
tan 0.000000 -1.000000 0.000000 1.000000
tan 0.000000 -1.005022 0.000000 1.000000
tan 0.000000 -1.005022 0.000000 1.000000
tan 0.000000 -0.993552 0.000000 1.000000
tan 0.000000 -0.993552 0.000000 1.000000
tan 0.000000 -1.000558 0.000000 1.000000
tan 0.000000 -1.000558 0.000000 1.000000
tan 0.000000 -0.996094 0.000000 1.000000
tan 0.000000 -0.996094 0.000000 1.000000
tan 0.000000 -1.000000 0.000000 1.000000
tan 0.000000 -1.000000 0.000000 1.000000
f 3/3/3 2/2/2 1/1/1
f 2/2/2 5/5/5 4/4/4
f 5/5/5 7/7/7 6/6/6
f 6/6/6 7/7/7 8/8/8
f 9/9/9 8/8/8 7/7/7
f 10/10/10 8/8/8 9/9/9
f 13/13/13 12/12/12 11/11/11
f 15/15/15 14/14/14 12/12/12
f 15/15/15 17/17/17 16/16/16
f 16/16/16 17/17/17 18/18/18
f 19/19/19 18/18/18 17/17/17
f 20/20/20 18/18/18 19/19/19
f 23/23/23 22/22/22 21/21/21
f 21/21/21 24/24/24 23/23/23
f 27/27/27 26/26/26 25/25/25
f 25/25/25 28/28/28 27/27/27
f 27/27/27 28/28/28 29/29/29
f 30/30/30 29/29/29 28/28/28
f 31/31/31 29/29/29 30/30/30
f 32/32/32 31/31/31 30/30/30
f 31/31/31 32/32/32 33/33/33
f 34/34/34 33/33/33 32/32/32
f 33/33/33 34/34/34 35/35/35
f 36/36/36 35/35/35 34/34/34
f 39/39/39 38/38/38 37/37/37
f 37/37/37 40/40/40 39/39/39
f 39/39/39 40/40/40 41/41/41
f 42/42/42 41/41/41 40/40/40
f 41/41/41 42/42/42 43/43/43
f 44/44/44 43/43/43 42/42/42
f 43/43/43 44/44/44 45/45/45
f 46/46/46 45/45/45 44/44/44
f 47/47/47 45/45/45 46/46/46
f 46/46/46 48/48/48 47/47/47
f 51/51/51 50/50/50 49/49/49
f 49/49/49 50/50/50 52/52/52
f 53/53/53 52/52/52 50/50/50
f 54/54/54 52/52/52 53/53/53
f 55/55/55 54/54/54 53/53/53
f 56/56/56 55/55/55 53/53/53
f 59/59/59 58/58/58 57/57/57
f 60/60/60 57/57/57 58/58/58
f 57/57/57 60/60/60 61/61/61
f 60/60/60 62/62/62 61/61/61
f 63/63/63 61/61/61 62/62/62
f 64/64/64 61/61/61 63/63/63
f 67/67/67 66/66/66 65/65/65
f 68/68/68 65/65/65 66/66/66
f 65/65/65 68/68/68 69/69/69
f 68/68/68 70/70/70 69/69/69
f 71/71/71 69/69/69 70/70/70
f 72/72/72 69/69/69 71/71/71
f 75/75/75 74/74/74 73/73/73
f 76/76/76 73/73/73 74/74/74
f 73/73/73 76/76/76 77/77/77
f 76/76/76 78/78/78 77/77/77
f 79/79/79 77/77/77 78/78/78
f 80/80/80 77/77/77 79/79/79
f 83/83/83 82/82/82 81/81/81
f 84/84/84 81/81/81 82/82/82
f 81/81/81 84/84/84 85/85/85
f 84/84/84 86/86/86 85/85/85
f 87/87/87 85/85/85 86/86/86
f 88/88/88 85/85/85 87/87/87
f 91/91/91 90/90/90 89/89/89
f 89/89/89 90/90/90 92/92/92
f 93/93/93 92/92/92 90/90/90
f 94/94/94 92/92/92 93/93/93
f 95/95/95 94/94/94 93/93/93
f 96/96/96 95/95/95 93/93/93
f 99/99/99 98/98/98 97/97/97
f 100/100/100 97/97/97 98/98/98
f 100/100/100 101/101/101 97/97/97
f 102/102/102 97/97/97 101/101/101
f 101/101/101 103/103/103 102/102/102
f 104/104/104 102/102/102 103/103/103
f 105/105/105 104/104/104 103/103/103
f 106/106/106 104/104/104 105/105/105
f 107/107/107 106/106/106 105/105/105
f 105/105/105 108/108/108 107/107/107
f 111/111/111 110/110/110 109/109/109
f 109/109/109 112/112/112 111/111/111
f 113/113/113 111/111/111 112/112/112
f 114/114/114 111/111/111 113/113/113
f 113/113/113 115/115/115 114/114/114
f 116/116/116 114/114/114 115/115/115
f 115/115/115 117/117/117 116/116/116
f 118/118/118 116/116/116 117/117/117
f 119/119/119 118/118/118 117/117/117
f 117/117/117 120/120/120 119/119/119
