mtllib SM_Frames_08_LOD2.mtl
g SM_Frames_08_LOD2
#Vertices 49
#Indices 81
#Section 0 Offset 0 NumIndices 81 MaterialIndex 0 MI_Frames
v 0.080911 0.044548 -0.133242
v 0.088067 -0.000087 -0.167482
v 0.105387 0.006121 -0.167153
v 0.095140 0.040215 0.134361
v 0.095734 -0.007799 0.167433
v 0.077194 0.035830 0.134121
v -0.000300 0.312558 -0.132856
v -0.001618 0.359882 -0.165798
v -0.011018 0.359487 -0.167599
v -0.002018 0.361258 0.167082
v 0.007690 0.321928 0.133960
v -0.019685 0.356523 0.167472
v -0.000055 0.326226 -0.136078
v 0.087011 0.038072 -0.136078
v -0.000055 0.326226 0.136219
v 0.087011 0.038072 0.136219
v 0.095445 0.037887 -0.132240
v -0.013446 0.360181 -0.185302
v 0.092046 0.001570 -0.177950
v -0.000648 0.324243 -0.121050
v -0.013449 0.360033 0.185352
v 0.095450 0.037838 0.132223
v 0.092050 0.001572 0.177949
v -0.000930 0.325433 0.121218
v 0.077194 0.035830 0.134121
v 0.080911 0.044548 -0.133242
v 0.095140 0.040215 0.134361
v 0.105387 0.006121 -0.167153
v 0.095734 -0.007799 0.167433
v 0.088067 -0.000087 -0.167482
v -0.019685 0.356523 0.167472
v -0.011018 0.359487 -0.167599
v -0.002018 0.361258 0.167082
v -0.001618 0.359882 -0.165798
v 0.007690 0.321928 0.133960
v -0.000300 0.312558 -0.132856
v -0.073871 0.000194 -0.064352
v 0.036666 0.197721 0.025208
v 0.036135 0.198376 -0.044008
v -0.074216 0.000185 0.048261
v 0.035221 0.202335 0.026349
v -0.105232 0.000144 0.046256
v 0.028803 0.223082 0.026593
v -0.105200 0.000329 -0.062052
v 0.028803 0.223082 0.026593
v 0.028874 0.223000 -0.043027
v 0.036135 0.198376 -0.044008
v -0.073871 0.000194 -0.064352
v 0.028874 0.223000 -0.043027
vt 0.331787 0.911987
vt 0.323730 0.820557
vt 0.349365 0.822021
vt 0.349121 0.821777
vt 0.331299 0.914001
vt 0.323730 0.820679
vt 0.338379 0.916382
vt 0.321533 0.824463
vt 0.333984 0.819824
vt 0.349121 0.821533
vt 0.345703 0.906860
vt 0.323975 0.820801
vt 0.212280 0.661865
vt 0.212280 0.455078
vt 0.407959 0.661865
vt 0.407959 0.455078
vt 0.602539 0.707031
vt 0.565918 0.946259
vt 0.568848 0.683105
vt 0.607910 0.919495
vt 0.046478 0.955322
vt 0.009789 0.716309
vt 0.043335 0.692139
vt 0.004311 0.929565
vt 0.867676 0.751343
vt 0.862305 0.944183
vt 0.854980 0.751221
vt 0.830566 0.968658
vt 0.822266 0.727295
vt 0.818359 0.968887
vt 0.959473 0.249023
vt 0.953125 0.490723
vt 0.947266 0.249023
vt 0.946777 0.489258
vt 0.920410 0.272949
vt 0.914551 0.465332
vt 0.499756 0.215332
vt 0.564941 0.381348
vt 0.499268 0.381348
vt 0.565918 0.215332
vt 0.568359 0.384766
vt 0.582520 0.214844
vt 0.583496 0.387695
vt 0.641113 0.215332
vt 0.580566 0.392578
vt 0.643066 0.392578
vt 0.658691 0.381836
vt 0.660156 0.215332
vt 0.639648 0.386230
vt1 0.701660 0.535645
vt1 0.808594 0.525635
vt1 0.807129 0.556885
vt1 0.581543 0.556885
vt1 0.473389 0.534912
vt1 0.583008 0.525635
vt1 0.631836 0.479004
vt1 0.739746 0.458496
vt1 0.745117 0.473633
vt1 0.694824 0.556641
vt1 0.594727 0.552734
vt1 0.695801 0.525879
vt1 0.008064 0.991936
vt1 0.008064 0.486816
vt1 0.465332 0.991936
vt1 0.465332 0.486816
vt1 0.574219 0.307617
vt1 0.004414 0.219727
vt1 0.631836 0.227051
vt1 0.068115 0.320801
vt1 0.004650 0.458496
vt1 0.574707 0.370605
vt1 0.631836 0.451172
vt1 0.066040 0.357422
vt1 0.862305 0.065918
vt1 0.875000 0.515137
vt1 0.892578 0.065918
vt1 0.952148 0.572021
vt1 0.972656 0.010254
vt1 0.982422 0.572510
vt1 0.570312 0.202148
vt1 0.008026 0.186523
vt1 0.569824 0.172363
vt1 0.011055 0.170410
vt1 0.514160 0.105957
vt1 0.066589 0.092285
vt1 0.915527 0.583740
vt1 0.519043 0.752075
vt1 0.518555 0.582520
vt1 0.916016 0.755371
vt1 0.510254 0.761963
vt1 0.916992 0.797852
vt1 0.503906 0.801147
vt1 0.916016 0.949341
vt1 0.491943 0.793213
vt1 0.491943 0.954071
vt1 0.517090 0.995129
vt1 0.915527 0.997950
vt1 0.507324 0.946075
vn -0.188976 0.637795 -0.748031
vn -0.188976 0.637795 -0.748031
vn -0.188976 0.637795 -0.748031
vn -0.188976 0.637795 0.748031
vn -0.188976 0.637795 0.748031
vn -0.188976 0.637795 0.748031
vn 0.188976 -0.637795 -0.748031
vn 0.188976 -0.637795 -0.748031
vn 0.188976 -0.637795 -0.748031
vn 0.188976 -0.637795 0.748031
vn 0.188976 -0.637795 0.748031
vn 0.188976 -0.637795 0.748031
vn 0.960630 0.291339 -0.000000
vn 0.960630 0.291339 -0.000000
vn 0.960630 0.291339 -0.000000
vn 0.960630 0.291339 -0.000000
vn 0.929134 0.283465 0.244094
vn 0.511811 0.157480 -0.842520
vn 0.236220 0.070866 -0.968504
vn 0.653543 0.196850 0.732283
vn 0.511811 0.157480 0.842520
vn 0.929134 0.283464 -0.244094
vn 0.236220 0.070866 0.968504
vn 0.653543 0.196850 -0.724409
vn -0.291339 0.952756 -0.000000
vn 0.141732 0.992126 -0.000000
vn 0.866142 0.503937 -0.000000
vn 0.992126 -0.102362 0.000000
vn 0.590551 -0.811023 0.000000
vn 0.291339 -0.960630 0.000000
vn -0.291339 0.960630 -0.000000
vn -0.409449 0.913386 -0.000000
vn 0.661417 0.755905 -0.000000
vn 0.905512 0.425197 -0.000000
vn 1.000000 -0.015748 0.000000
vn 0.818898 -0.574803 0.000000
vn 0.874016 -0.480315 -0.055118
vn 0.874016 -0.480315 0.070866
vn 0.874016 -0.480315 -0.055118
vn 0.858268 -0.456693 0.220472
vn 0.078740 0.055118 0.992126
vn -0.803150 0.511811 0.307087
vn -0.503937 0.377953 0.771653
vn -0.826772 0.519685 -0.212598
vn -0.858268 0.511811 0.031496
vn -0.858268 0.511811 -0.023622
vn 0.196850 -0.015748 -0.976378
vn 0.370079 -0.118110 -0.921260
vn -0.393701 0.314961 -0.866142
tan 0.036208 -0.749520 -0.648211 1.000000
tan -0.018352 -0.756959 -0.640771 1.000000
tan 0.924980 0.262942 -0.009486 1.000000
tan 0.624961 0.630851 -0.379999 1.000000
tan -0.166470 0.728811 -0.663463 1.000000
tan -0.222766 0.712567 -0.663835 1.000000
tan -0.230206 -0.743815 0.576043 1.000000
tan -0.207700 0.717031 -0.663835 1.000000
tan -0.081592 0.740653 -0.652117 1.000000
tan -0.342427 0.139376 0.205344 1.000000
tan 0.581437 0.688635 0.440263 1.000000
tan -0.033790 0.755471 0.652675 1.000000
tan 0.291339 -0.960630 0.000000 1.000000
tan 0.291339 -0.960630 0.000000 1.000000
tan 0.291339 -0.960630 0.000000 1.000000
tan 0.291339 -0.960630 0.000000 1.000000
tan 0.260091 -0.929506 0.089404 1.000000
tan 0.142848 -0.975076 -0.095480 1.000000
tan 0.183582 -0.955112 -0.025110 1.000000
tan 0.199578 -0.964970 0.081282 1.000000
tan 0.142848 -0.975076 0.095480 1.000000
tan 0.260091 -0.929506 -0.089404 1.000000
tan 0.183582 -0.955112 0.025110 1.000000
tan 0.202182 -0.958956 -0.078182 1.000000
tan 0.000000 0.000000 0.952756 1.000000
tan 0.000000 0.000000 0.992126 1.000000
tan 0.000000 0.000000 0.909790 1.000000
tan 0.000000 0.000000 0.992126 1.000000
tan 0.000000 0.000000 0.982578 1.000000
tan 0.000000 0.000000 0.960630 1.000000
tan 0.000000 0.000000 0.960630 1.000000
tan 0.000000 0.000000 0.929506 1.000000
tan 0.000000 0.000000 0.985802 1.000000
tan 0.000000 0.000000 0.941906 1.000000
tan 0.000000 0.000000 1.000000 1.000000
tan 0.000000 0.000000 0.949594 1.000000
tan -0.480749 -0.874016 -0.006882 1.000000
tan -0.442991 -0.844070 -0.257362 1.000000
tan -0.480749 -0.874016 -0.006882 1.000000
tan -0.377953 -0.838366 -0.265298 1.000000
tan -0.398413 -0.906194 0.081964 1.000000
tan -0.542439 -0.824353 -0.044764 1.000000
tan 0.432761 -0.658441 0.605121 1.000000
tan -0.436543 -0.807800 -0.276954 1.000000
tan -0.512059 -0.858268 -0.006758 1.000000
tan -0.511997 -0.858268 0.006758 1.000000
tan -0.968814 -0.124558 -0.193316 1.000000
tan 0.280117 -0.886478 0.226177 1.000000
tan -0.745242 0.449501 0.502201 1.000000
f 3/3/3 2/2/2 1/1/1
f 6/6/6 5/5/5 4/4/4
f 9/9/9 8/8/8 7/7/7
f 12/12/12 11/11/11 10/10/10
f 15/15/15 14/14/14 13/13/13
f 15/15/15 16/16/16 14/14/14
f 19/19/19 18/18/18 17/17/17
f 20/20/20 17/17/17 18/18/18
f 23/23/23 22/22/22 21/21/21
f 24/24/24 21/21/21 22/22/22
f 27/27/27 26/26/26 25/25/25
f 26/26/26 27/27/27 28/28/28
f 27/27/27 29/29/29 28/28/28
f 30/30/30 28/28/28 29/29/29
f 33/33/33 32/32/32 31/31/31
f 32/32/32 33/33/33 34/34/34
f 33/33/33 35/35/35 34/34/34
f 36/36/36 34/34/34 35/35/35
f 39/39/39 38/38/38 37/37/37
f 40/40/40 37/37/37 38/38/38
f 41/41/41 40/40/40 38/38/38
f 40/40/40 41/41/41 42/42/42
f 43/43/43 42/42/42 41/41/41
f 42/42/42 45/45/45 44/44/44
f 46/46/46 44/44/44 45/45/45
f 48/48/48 44/44/44 47/47/47
f 49/49/49 47/47/47 44/44/44
