mtllib SM_FloorKitchenWood_LOD3.mtl
g SM_FloorKitchenWood_LOD3
#Vertices 89
#Indices 123
#Section 0 Offset 0 NumIndices 123 MaterialIndex 0 MI_FloorKitchenWood
v -3.375310 0.193229 -0.382745
v -0.642391 0.208712 -0.406207
v -3.374937 0.214470 -0.374252
v -0.699362 0.192155 -0.292235
v -3.374746 0.200217 -0.264795
v -0.699651 0.214310 -0.293074
v 0.962364 0.214642 1.266210
v -0.642391 0.208712 -0.406207
v 0.961864 0.191937 1.269266
v 0.881135 0.214502 1.316823
v 0.844871 0.198346 8.083091
v 0.881524 0.192044 1.315446
v -3.375576 0.093641 -0.743890
v -0.502531 0.111259 -0.768427
v -3.374929 0.116508 -0.734496
v -0.564389 0.092369 -0.645692
v -3.374639 0.101002 -0.615813
v -0.564623 0.116341 -0.646637
v 1.282040 0.116287 1.051654
v -0.502531 0.111259 -0.768427
v 1.281607 0.092088 1.052191
v -3.374937 0.214470 -0.374252
v -0.642391 0.208712 -0.406207
v -0.699651 0.214310 -0.293074
v -3.374746 0.200217 -0.264795
v -3.375310 0.193229 -0.382745
v -0.699362 0.192155 -0.292235
v -0.642391 0.208712 -0.406207
v -3.374746 0.200217 -0.264795
v 0.961864 0.191937 1.269266
v -0.699362 0.192155 -0.292235
v 0.881524 0.192044 1.315446
v -0.642391 0.208712 -0.406207
v 0.881135 0.214502 1.316823
v -0.699362 0.192155 -0.292235
v -0.699651 0.214310 -0.293074
v 0.881524 0.192044 1.315446
v -0.642391 0.208712 -0.406207
v 0.962364 0.214642 1.266210
v -0.699651 0.214310 -0.293074
v 0.881135 0.214502 1.316823
v 0.881524 0.192044 1.315446
v 0.953062 0.191600 8.082019
v 0.961864 0.191937 1.269266
v 0.844871 0.198346 8.083091
v 0.962364 0.214642 1.266210
v 0.952329 0.214801 8.082150
v 0.881135 0.214502 1.316823
v 0.844871 0.198346 8.083091
v 0.961864 0.191937 1.269266
v 0.953062 0.191600 8.082019
v 0.962364 0.214642 1.266210
v 0.952329 0.214801 8.082150
v -3.374929 0.116508 -0.734496
v -0.502531 0.111259 -0.768427
v -0.564623 0.116341 -0.646637
v -3.374639 0.101002 -0.615813
v -3.375576 0.093641 -0.743890
v -0.564389 0.092369 -0.645692
v -0.502531 0.111259 -0.768427
v -3.374639 0.101002 -0.615813
v 1.281607 0.092088 1.052191
v -0.564389 0.092369 -0.645692
v 1.194674 0.092209 1.104226
v -0.502531 0.111259 -0.768427
v -0.564623 0.116341 -0.646637
v 1.194274 0.116569 1.105639
v -0.564389 0.092369 -0.645692
v 1.194674 0.092209 1.104226
v -0.502531 0.111259 -0.768427
v 1.282040 0.116287 1.051654
v -0.564623 0.116341 -0.646637
v 1.194274 0.116569 1.105639
v 1.194674 0.092209 1.104226
v 1.272015 0.091608 8.081888
v 1.281607 0.092088 1.052191
v 1.184016 0.091687 8.083501
v 1.194274 0.116569 1.105639
v 1.184016 0.091687 8.083501
v 1.194674 0.092209 1.104226
v 1.184858 0.117004 8.083647
v 1.282040 0.116287 1.051654
v 1.274049 0.116470 8.081594
v 1.194274 0.116569 1.105639
v 1.184858 0.117004 8.083647
v 1.272015 0.091608 8.081888
v 1.282040 0.116287 1.051654
v 1.281607 0.092088 1.052191
v 1.274049 0.116470 8.081594
vt 0.146362 0.386230
vt 0.147217 -0.001953
vt 0.149658 0.386230
vt 0.134644 0.005371
vt 0.133545 0.386230
vt 0.131470 0.005371
vt 0.181641 0.000977
vt 0.181519 0.330078
vt 0.178345 0.000488
vt 0.032532 0.963074
vt 0.034546 0.000488
vt 0.035706 0.963348
vt 0.079224 0.406250
vt 0.080261 -0.001953
vt 0.082642 0.406250
vt 0.066467 0.005859
vt 0.065308 0.405762
vt 0.063049 0.005859
vt 0.116394 0.000977
vt 0.116089 0.363281
vt 0.112976 0.000977
vt 0.149658 0.386230
vt 0.145264 -0.001953
vt 0.161255 0.005371
vt 0.165161 0.386230
vt 0.147217 0.386230
vt 0.134399 0.005371
vt 0.150513 -0.001953
vt 0.130493 0.386230
vt 0.178589 0.000488
vt 0.166504 0.324707
vt 0.165894 0.003418
vt 0.183594 0.330078
vt 0.162964 0.003418
vt 0.166870 0.324707
vt 0.163696 0.324707
vt 0.166138 0.003418
vt 0.176880 0.330078
vt 0.180908 0.000488
vt 0.193970 0.324707
vt 0.194214 0.003418
vt 0.035614 0.963348
vt 0.047028 0.000488
vt 0.047058 0.969635
vt 0.031647 0.000488
vt 0.050079 0.970062
vt 0.050293 0.000488
vt 0.061615 0.963104
vt 0.065552 0.000488
vt 0.046997 0.969620
vt 0.046936 0.000488
vt 0.050171 0.970062
vt 0.050201 0.000488
vt 0.082703 0.406250
vt 0.078003 -0.001953
vt 0.095337 0.005859
vt 0.099609 0.405762
vt 0.080078 0.406250
vt 0.066162 0.005859
vt 0.083557 -0.001953
vt 0.061890 0.405762
vt 0.113403 0.000977
vt 0.099854 0.357422
vt 0.099487 0.003906
vt 0.118469 0.362793
vt 0.096985 0.357422
vt 0.096313 0.003906
vt 0.100403 0.357422
vt 0.099792 0.003906
vt 0.111389 0.362793
vt 0.115784 0.000977
vt 0.129883 0.357422
vt 0.130005 0.003906
vt 0.002527 0.993401
vt 0.014893 0.000488
vt 0.014885 1.000514
vt 0.002373 0.000488
vt -0.000819 0.993126
vt 0.002541 0.000488
vt 0.002602 0.993423
vt -0.001017 0.000488
vt 0.018188 1.000590
vt 0.018066 0.000488
vt 0.030670 0.993149
vt 0.030746 0.000488
vt 0.014824 0.000488
vt 0.018234 1.000582
vt 0.014900 1.000507
vt 0.018280 0.000488
vt1 0.713379 0.992027
vt1 0.718262 0.001465
vt1 0.730957 0.991898
vt1 0.649902 0.021484
vt1 0.644043 0.991814
vt1 0.632812 0.021484
vt1 0.121399 0.009766
vt1 0.120667 0.994854
vt1 0.100891 0.008789
vt1 0.909180 0.985428
vt1 0.913574 0.008301
vt1 0.916016 0.985718
vt1 0.522461 0.992111
vt1 0.527832 0.001465
vt1 0.540039 0.991890
vt1 0.456787 0.021973
vt1 0.450684 0.991776
vt1 0.439209 0.022461
vt1 0.344727 0.009766
vt1 0.343018 0.994656
vt1 0.324951 0.009766
vt1 0.730957 0.991905
vt1 0.707031 0.001465
vt1 0.794434 0.021484
vt1 0.815430 0.991852
vt1 0.717773 0.992081
vt1 0.647949 0.021484
vt1 0.735840 0.001953
vt1 0.626953 0.991829
vt1 0.102173 0.008789
vt1 0.025024 0.978409
vt1 0.021149 0.018066
vt1 0.134155 0.994469
vt1 0.002956 0.018066
vt1 0.027740 0.978439
vt1 0.007702 0.978546
vt1 0.023285 0.018066
vt1 0.091370 0.994553
vt1 0.117310 0.009766
vt1 0.200195 0.978500
vt1 0.201782 0.017578
vt1 0.916016 0.985695
vt1 0.940918 0.008789
vt1 0.940918 0.992088
vt1 0.907227 0.008301
vt1 0.947266 0.992531
vt1 0.947754 0.008789
vt1 0.972168 0.985443
vt1 0.980957 0.008301
vt1 0.940430 0.992088
vt1 0.940430 0.008789
vt1 0.947266 0.992523
vt1 0.947754 0.008789
vt1 0.540039 0.991898
vt1 0.516113 0.001953
vt1 0.605469 0.022461
vt1 0.627441 0.991814
vt1 0.526855 0.992165
vt1 0.455078 0.021973
vt1 0.544922 0.001953
vt1 0.433105 0.991798
vt1 0.327637 0.009766
vt1 0.249268 0.979187
vt1 0.246948 0.018555
vt1 0.356689 0.994308
vt1 0.232544 0.979340
vt1 0.228760 0.018066
vt1 0.252197 0.979218
vt1 0.248779 0.018555
vt1 0.315918 0.994381
vt1 0.341553 0.009766
vt1 0.423096 0.979294
vt1 0.423828 0.018066
vt1 0.819336 0.985443
vt1 0.845215 0.008789
vt1 0.845215 0.992443
vt1 0.819336 0.008301
vt1 0.812500 0.985176
vt1 0.819824 0.008301
vt1 0.819824 0.985466
vt1 0.812012 0.008301
vt1 0.852539 0.992519
vt1 0.852051 0.008789
vt1 0.878418 0.985191
vt1 0.878418 0.008301
vt1 0.845215 0.008789
vt1 0.852539 0.992512
vt1 0.845703 0.992435
vt1 0.852539 0.008789
vn 0.000000 -0.456693 -0.889764
vn 0.000000 -0.236221 -0.968504
vn 0.000000 0.496063 -0.866142
vn 0.000000 -0.267716 0.960630
vn 0.000000 -0.070866 1.000000
vn 0.000000 0.267717 0.960630
vn 0.692913 0.220472 -0.685039
vn 0.700787 0.165354 -0.692913
vn 0.700787 -0.212598 -0.685039
vn -0.960630 0.275591 -0.000000
vn -0.992126 -0.118110 0.000000
vn -0.960630 -0.275591 0.000000
vn 0.000000 -0.448819 -0.889764
vn 0.000000 -0.204724 -0.976378
vn 0.000000 0.496063 -0.866142
vn 0.000000 -0.267716 0.960630
vn 0.000000 -0.078740 1.000000
vn 0.000000 0.267717 0.960630
vn 0.685039 0.212598 -0.692913
vn 0.700787 0.141732 -0.700787
vn 0.692913 -0.212598 -0.692913
vn 0.000000 1.000000 -0.023622
vn 0.000000 1.000000 -0.062992
vn 0.000000 1.000000 0.015748
vn 0.000000 1.000000 0.047244
vn 0.000000 -1.000000 -0.031496
vn 0.000000 -1.000000 0.015748
vn 0.000000 -1.000000 -0.062992
vn 0.000000 -1.000000 0.047244
vn 0.023622 -1.000000 -0.023622
vn -0.015748 -1.000000 0.015748
vn -0.015748 -1.000000 0.015748
vn 0.039370 -1.000000 -0.039370
vn -0.692913 0.244095 0.677165
vn -0.692913 -0.236220 0.685039
vn -0.692913 0.244095 0.677165
vn -0.692913 -0.244094 0.677165
vn 0.039370 1.000000 -0.039370
vn 0.023622 1.000000 -0.023622
vn -0.015748 1.000000 0.015748
vn -0.015748 1.000000 0.015748
vn -0.015748 -1.000000 0.000000
vn 0.023622 -1.000000 0.000000
vn 0.047244 -1.000000 0.000000
vn -0.047244 -1.000000 0.000000
vn 0.047244 1.000000 -0.000000
vn 0.023622 1.000000 -0.000000
vn -0.015748 1.000000 -0.000000
vn -0.047244 1.000000 -0.000000
vn 0.976378 -0.228346 0.000000
vn 0.960630 -0.283465 0.000000
vn 0.968504 0.236220 -0.000000
vn 0.960630 0.283465 -0.000000
vn 0.000000 1.000000 -0.023622
vn 0.000000 1.000000 -0.062992
vn 0.000000 1.000000 0.015748
vn 0.000000 1.000000 0.047244
vn 0.000000 -1.000000 -0.031496
vn 0.000000 -1.000000 0.015748
vn 0.000000 -1.000000 -0.062992
vn 0.000000 -1.000000 0.047244
vn 0.023622 -1.000000 -0.023622
vn -0.015748 -1.000000 0.015748
vn -0.015748 -1.000000 0.015748
vn 0.039370 -1.000000 -0.039370
vn -0.685039 0.244095 0.685039
vn -0.685039 0.244095 0.685039
vn -0.685039 -0.236220 0.685039
vn -0.685039 -0.244094 0.685039
vn 0.039370 1.000000 -0.039370
vn 0.023622 1.000000 -0.023622
vn -0.015748 1.000000 0.015748
vn -0.015748 1.000000 0.015748
vn -0.015748 -1.000000 0.000000
vn 0.023622 -1.000000 0.000000
vn 0.047244 -1.000000 0.000000
vn -0.023622 -1.000000 0.000000
vn -0.960630 0.275591 -0.000000
vn -0.952756 -0.307087 0.000000
vn -0.960630 -0.275591 0.000000
vn -0.952756 0.299213 -0.000000
vn 0.047244 1.000000 -0.000000
vn 0.031496 1.000000 -0.000000
vn -0.015748 1.000000 -0.000000
vn -0.023622 1.000000 -0.000000
vn 0.960630 -0.283465 0.000000
vn 0.968504 0.236220 -0.000000
vn 0.976378 -0.220472 0.000000
vn 0.960630 0.267716 -0.000000
tan 0.893360 0.000000 0.000000 1.000000
tan 0.968504 0.000000 0.000000 1.000000
tan 0.881766 0.000000 0.000000 1.000000
tan 0.960630 -0.037820 -0.010540 1.000000
tan 1.000000 -0.015748 -0.001116 1.000000
tan 0.960630 -0.007564 0.002108 1.000000
tan 0.690247 -0.000186 0.698121 1.000000
tan 0.694215 -0.000062 0.702089 1.000000
tan 0.690061 0.005766 0.704135 1.000000
tan 0.002170 0.007564 0.960630 1.000000
tan -0.001860 0.015624 0.992126 1.000000
tan -0.013020 0.045384 0.960630 1.000000
tan 0.893298 0.000000 0.000000 1.000000
tan 0.976378 0.000000 0.000000 1.000000
tan 0.881766 0.000000 0.000000 1.000000
tan 0.960630 -0.037820 -0.010540 1.000000
tan 1.000000 -0.015748 -0.001240 1.000000
tan 0.960630 -0.007564 0.002108 1.000000
tan 0.697935 0.000186 0.690061 1.000000
tan 0.701903 0.000000 0.701903 1.000000
tan 0.696261 0.000000 0.696261 1.000000
tan 1.000000 0.000186 0.007874 1.000000
tan 1.000000 0.001488 0.023622 1.000000
tan 1.000000 -0.000124 0.007874 1.000000
tan 1.000000 0.000372 -0.007874 1.000000
tan 1.000000 -0.000496 0.015748 1.000000
tan 1.000000 0.000124 0.007874 1.000000
tan 1.000000 -0.001984 0.031496 1.000000
tan 1.000000 -0.000372 -0.007874 1.000000
tan 0.700787 -0.000186 0.708661 1.000000
tan 0.700787 0.000248 0.716535 1.000000
tan 0.677165 0.000868 0.732283 1.000000
tan 0.732283 0.002170 0.677165 1.000000
tan 0.679087 -0.005208 0.696757 1.000000
tan 0.688759 0.005270 0.698493 1.000000
tan 0.682931 0.000372 0.698679 1.000000
tan 0.681009 -0.000248 0.696757 1.000000
tan 0.724409 -0.001550 0.685039 1.000000
tan 0.700787 0.000186 0.708661 1.000000
tan 0.700787 -0.000248 0.716535 1.000000
tan 0.685039 -0.000744 0.732283 1.000000
tan 0.007874 -0.000124 1.000000 1.000000
tan 0.007874 0.000186 1.000000 1.000000
tan 0.023622 0.001116 1.000000 1.000000
tan -0.007874 0.000372 1.000000 1.000000
tan 0.023622 -0.001116 1.000000 1.000000
tan 0.007874 -0.000186 1.000000 1.000000
tan 0.007874 0.000124 1.000000 1.000000
tan -0.007874 -0.000372 1.000000 1.000000
tan 0.000000 0.000000 0.976378 1.000000
tan 0.000000 0.000000 0.960630 1.000000
tan 0.000000 0.000000 0.968504 1.000000
tan 0.000000 0.000000 0.960630 1.000000
tan 1.000000 0.000186 0.007874 1.000000
tan 1.000000 0.001488 0.023622 1.000000
tan 1.000000 -0.000124 0.007874 1.000000
tan 1.000000 0.000372 -0.007874 1.000000
tan 1.000000 -0.000496 0.015748 1.000000
tan 1.000000 0.000124 0.007874 1.000000
tan 1.000000 -0.001984 0.031496 1.000000
tan 1.000000 -0.000372 -0.007874 1.000000
tan 0.708661 0.000186 0.700787 1.000000
tan 0.708661 0.000000 0.708661 1.000000
tan 0.685039 0.000620 0.724409 1.000000
tan 0.740157 0.002480 0.677165 1.000000
tan 0.690805 0.000000 0.690805 1.000000
tan 0.686961 -0.005394 0.688883 1.000000
tan 0.686899 0.005394 0.688759 1.000000
tan 0.688883 0.000000 0.688883 1.000000
tan 0.732283 -0.002170 0.677165 1.000000
tan 0.708661 -0.000186 0.700787 1.000000
tan 0.708661 0.000000 0.708661 1.000000
tan 0.692913 -0.000496 0.724409 1.000000
tan 0.007874 -0.000124 1.000000 1.000000
tan 0.007874 0.000186 1.000000 1.000000
tan 0.023622 0.001116 1.000000 1.000000
tan 0.000000 0.000000 1.000000 1.000000
tan 0.002170 0.007564 0.960630 1.000000
tan -0.009672 0.030008 0.952756 1.000000
tan -0.013020 0.045384 0.960630 1.000000
tan -0.004712 -0.015004 0.952756 1.000000
tan 0.023622 -0.001116 1.000000 1.000000
tan 0.007874 -0.000248 1.000000 1.000000
tan 0.007874 0.000124 1.000000 1.000000
tan 0.000000 0.000000 1.000000 1.000000
tan 0.000000 0.000000 0.960630 1.000000
tan 0.000000 0.000000 0.968504 1.000000
tan 0.000000 0.000000 0.976378 1.000000
tan 0.000000 0.000000 0.960630 1.000000
f 3/3/3 2/2/2 1/1/1
f 6/6/6 5/5/5 4/4/4
f 9/9/9 8/8/8 7/7/7
f 12/12/12 11/11/11 10/10/10
f 15/15/15 14/14/14 13/13/13
f 18/18/18 17/17/17 16/16/16
f 21/21/21 20/20/20 19/19/19
f 24/24/24 23/23/23 22/22/22
f 25/25/25 24/24/24 22/22/22
f 28/28/28 27/27/27 26/26/26
f 29/29/29 26/26/26 27/27/27
f 32/32/32 31/31/31 30/30/30
f 33/33/33 30/30/30 31/31/31
f 36/36/36 35/35/35 34/34/34
f 37/37/37 34/34/34 35/35/35
f 40/40/40 39/39/39 38/38/38
f 39/39/39 40/40/40 41/41/41
f 44/44/44 43/43/43 42/42/42
f 45/45/45 42/42/42 43/43/43
f 48/48/48 47/47/47 46/46/46
f 49/49/49 47/47/47 48/48/48
f 52/52/52 51/51/51 50/50/50
f 53/53/53 51/51/51 52/52/52
f 56/56/56 55/55/55 54/54/54
f 57/57/57 56/56/56 54/54/54
f 60/60/60 59/59/59 58/58/58
f 61/61/61 58/58/58 59/59/59
f 64/64/64 63/63/63 62/62/62
f 65/65/65 62/62/62 63/63/63
f 68/68/68 67/67/67 66/66/66
f 67/67/67 68/68/68 69/69/69
f 72/72/72 71/71/71 70/70/70
f 71/71/71 72/72/72 73/73/73
f 76/76/76 75/75/75 74/74/74
f 77/77/77 74/74/74 75/75/75
f 80/80/80 79/79/79 78/78/78
f 81/81/81 78/78/78 79/79/79
f 84/84/84 83/83/83 82/82/82
f 85/85/85 83/83/83 84/84/84
f 88/88/88 87/87/87 86/86/86
f 89/89/89 86/86/86 87/87/87
