mtllib SM_Fridge_LOD5.mtl
g SM_Fridge_LOD5
#Vertices 49
#Indices 90
#Section 0 Offset 0 NumIndices 90 MaterialIndex 0 MI_Fridge
v -0.594864 0.039767 -0.448173
v 0.590457 0.083362 -0.610845
v -0.554947 0.088848 -0.606105
v 0.558420 0.080242 -0.439053
v 0.592365 1.282868 -0.500210
v -0.614748 1.300326 -0.487856
v 0.661440 1.297270 -0.656737
v -0.636486 1.289997 -0.655411
v -0.672067 1.378699 -0.487446
v 0.668025 1.395988 -0.665680
v -0.624395 1.406958 -0.654914
v 0.627709 1.390353 -0.481733
v 0.728011 1.943928 -0.501147
v -0.693772 1.906532 -0.673428
v 0.617747 1.903348 -0.670858
v -0.641132 1.917968 -0.496819
v 0.588185 1.954963 -0.567795
v 0.619133 1.995204 0.622668
v -0.642266 2.013744 -0.570990
v -0.621593 2.002255 0.624203
v 0.607669 0.055183 -0.530937
v -0.594311 0.076143 -0.521571
v -0.604414 0.062715 0.523821
v 0.594629 0.076135 0.519880
v -0.642266 2.013744 -0.570990
v -0.604414 0.062715 0.523821
v -0.594311 0.076143 -0.521571
v -0.621593 2.002255 0.624203
v -0.614748 1.300326 -0.487856
v -0.594864 0.039767 -0.448173
v -0.636486 1.289997 -0.655411
v -0.554947 0.088848 -0.606105
v 0.661440 1.297270 -0.656737
v 0.590457 0.083362 -0.610845
v 0.558420 0.080242 -0.439053
v 0.592365 1.282868 -0.500210
v -0.641132 1.917968 -0.496819
v -0.672067 1.378699 -0.487446
v -0.693772 1.906532 -0.673428
v -0.624395 1.406958 -0.654914
v 0.617747 1.903348 -0.670858
v 0.668025 1.395988 -0.665680
v 0.728011 1.943928 -0.501147
v 0.627709 1.390353 -0.481733
v 0.594629 0.076135 0.519880
v 0.682974 1.883438 -0.441750
v 0.607669 0.055183 -0.530937
v 0.588185 1.954963 -0.567795
v 0.619133 1.995204 0.622668
vt 0.871582 0.975494
vt 0.917969 0.663574
vt 0.922363 0.967316
vt 0.868164 0.671875
vt 0.983398 0.663818
vt 0.980469 0.984283
vt 0.931152 0.646729
vt 0.930664 0.989174
vt 0.915527 0.636963
vt 0.962402 0.284180
vt 0.965332 0.627197
vt 0.910645 0.294434
vt 0.898926 0.275391
vt 0.853516 0.649902
vt 0.847168 0.302246
vt 0.903809 0.635986
vt 0.846680 0.523438
vt 0.854492 0.834473
vt 0.522461 0.521973
vt 0.528320 0.834717
vt 0.972168 0.278320
vt 0.654297 0.275879
vt 0.652832 0.001465
vt 0.971191 0.001953
vt 0.634277 0.508545
vt 0.354736 -0.010742
vt 0.633301 0.004395
vt 0.325195 0.507080
vt 0.111328 0.836426
vt 0.134521 0.505127
vt 0.154053 0.837402
vt 0.175293 0.520508
vt 0.495117 0.839233
vt 0.476807 0.519287
vt 0.516602 0.514648
vt 0.536621 0.831299
vt 0.447754 0.839111
vt 0.435059 0.979111
vt 0.404785 0.837646
vt 0.388916 0.969376
vt 0.061523 0.838501
vt 0.050659 0.971970
vt 0.008484 0.831055
vt 0.011513 0.977310
vt 0.284912 -0.006836
vt 0.038971 0.473633
vt 0.005165 -0.000977
vt -0.000510 0.500000
vt 0.314941 0.505859
vt1 0.570801 0.645508
vt1 0.607422 0.401367
vt1 0.610840 0.637939
vt1 0.568848 0.407715
vt1 0.898438 0.086914
vt1 0.895996 0.337402
vt1 0.857422 0.072754
vt1 0.857422 0.341797
vt1 0.786133 0.350098
vt1 0.822754 0.072754
vt1 0.825195 0.341309
vt1 0.782715 0.080566
vt1 0.747559 0.060547
vt1 0.711914 0.355469
vt1 0.707031 0.083008
vt1 0.751465 0.344238
vt1 0.705566 0.738525
vt1 0.711914 0.982986
vt1 0.450684 0.737305
vt1 0.455322 0.983200
vt1 0.450439 0.453613
vt1 0.448486 0.703125
vt1 0.233521 0.704102
vt1 0.234253 0.454590
vt1 0.540039 0.412109
vt1 0.313965 0.008301
vt1 0.531250 0.011719
vt1 0.295166 0.410645
vt1 0.891113 0.713379
vt1 0.630371 0.695068
vt1 0.891602 0.679688
vt1 0.642578 0.663086
vt1 0.893066 0.411621
vt1 0.641113 0.425781
vt1 0.637695 0.394531
vt1 0.886719 0.378906
vt1 0.573242 0.015625
vt1 0.683594 0.025391
vt1 0.572266 0.049316
vt1 0.675781 0.061523
vt1 0.573242 0.319336
vt1 0.678223 0.327637
vt1 0.567383 0.360840
vt1 0.682129 0.358398
vt1 0.242676 0.011230
vt1 0.043671 0.385742
vt1 0.024948 0.006836
vt1 0.012756 0.403320
vt1 0.261963 0.409668
vn -0.078740 -0.685039 0.724409
vn 0.078740 -0.582677 -0.811023
vn -0.007874 -0.070866 -1.000000
vn 0.062992 -0.322834 0.944882
vn 0.070866 0.094488 0.992126
vn -0.118110 0.503937 0.858268
vn 0.070866 0.661417 -0.748031
vn -0.062992 0.574803 -0.811024
vn -0.047244 -0.677165 0.732283
vn 0.070866 -0.637795 -0.763779
vn -0.078740 -0.055118 -0.992126
vn 0.062992 -0.425197 0.905512
vn 0.062992 0.716535 0.692913
vn -0.078740 0.551181 -0.834646
vn 0.007874 -0.023622 -1.000000
vn -0.039370 0.472441 0.881890
vn 0.007874 0.952756 -0.299213
vn 0.015748 0.992126 0.133858
vn -0.007874 0.992126 -0.133858
vn -0.015748 0.944882 0.322834
vn 0.086614 -0.976378 -0.188976
vn -0.259843 -0.866142 -0.433071
vn -0.094488 -0.976378 0.188976
vn 0.275591 -0.881890 0.393701
vn -0.968504 0.039370 -0.236220
vn -0.968504 -0.062992 0.244094
vn -0.913386 -0.015748 -0.409449
vn -0.905512 0.173228 0.385827
vn -0.519685 0.047244 0.850394
vn -0.716535 -0.031496 0.700787
vn -0.204724 -0.039370 -0.976378
vn -0.015748 -0.039370 -1.000000
vn 0.165354 -0.039370 -0.984252
vn 0.220472 -0.047244 -0.976378
vn 0.440945 -0.007874 0.897638
vn 0.070866 0.094488 0.992126
vn -0.086614 0.181102 0.976378
vn -0.480315 -0.039370 0.874016
vn -0.236220 -0.039370 -0.968504
vn -0.094488 -0.047244 -0.992126
vn 0.007874 -0.023622 -1.000000
vn 0.283465 -0.055118 -0.960630
vn 0.740157 0.031496 0.677165
vn 0.440945 -0.031496 0.897638
vn 0.968504 -0.070866 0.244094
vn 1.000000 -0.039370 -0.055118
vn 0.905512 -0.070866 -0.409449
vn 0.141732 0.440945 -0.881890
vn 0.889764 0.220472 0.393701
tan 0.970612 0.104532 0.204352 1.000000
tan 0.791742 0.531403 -0.304917 1.000000
tan 0.992126 -0.141732 0.002232 1.000000
tan 0.756712 0.582801 0.148676 1.000000
tan 0.984314 -0.124992 -0.058404 1.000000
tan 0.859632 0.414037 -0.124806 1.000000
tan 0.924112 0.237770 0.297787 1.000000
tan 0.815178 0.497427 0.289230 1.000000
tan 0.968008 0.095790 0.151032 1.000000
tan 0.749519 0.528985 -0.372187 1.000000
tan 0.984314 -0.140616 -0.070308 1.000000
tan 0.870172 0.371071 0.113708 1.000000
tan 0.987166 0.055552 -0.147188 1.000000
tan 0.759378 0.478393 0.244280 1.000000
tan 0.992126 -0.141732 0.011160 1.000000
tan 0.866018 0.360345 -0.154380 1.000000
tan 0.000000 -0.299213 -0.952756 1.000000
tan 0.000000 0.133858 -0.992126 1.000000
tan 0.000000 -0.133858 -0.992126 1.000000
tan 0.000000 0.322834 -0.944882 1.000000
tan -0.015376 -0.190340 0.976378 1.000000
tan 0.044330 -0.451485 0.876372 1.000000
tan -0.030752 0.191952 0.976378 1.000000
tan 0.067828 0.416641 0.885796 1.000000
tan -0.061380 -0.964598 0.090892 1.000000
tan 0.070680 -0.972348 0.029512 1.000000
tan -0.019840 -0.938434 0.080352 1.000000
tan -0.231260 -0.924670 -0.127596 1.000000
tan 0.396925 -0.843326 0.289417 1.000000
tan 0.406845 -0.832475 0.378573 1.000000
tan -0.045508 -0.979602 0.049042 1.000000
tan -0.007874 -1.000000 0.039494 1.000000
tan -0.000310 -0.985554 0.039370 1.000000
tan 0.006944 -0.979850 0.048980 1.000000
tan -0.763966 -0.501209 0.370885 1.000000
tan -0.093744 -0.984314 0.100440 1.000000
tan -0.069192 0.976378 -0.187240 1.000000
tan -0.606857 0.641391 -0.304607 1.000000
tan 0.014632 0.972224 -0.043090 1.000000
tan 0.007812 0.992126 -0.047988 1.000000
tan 0.000000 1.000000 -0.023622 1.000000
tan -0.020956 0.969558 -0.061814 1.000000
tan 0.511749 0.624093 -0.588381 1.000000
tan 0.580321 0.696013 -0.260649 1.000000
tan -0.078554 -0.972348 0.029388 1.000000
tan -0.035030 -1.000000 0.078740 1.000000
tan -0.057970 -0.934528 0.033542 1.000000
tan 0.156240 -0.882510 -0.416145 1.000000
tan 0.279001 -0.916052 -0.117552 1.000000
f 3/3/3 2/2/2 1/1/1
f 4/4/4 1/1/1 2/2/2
f 7/7/7 6/6/6 5/5/5
f 6/6/6 7/7/7 8/8/8
f 11/11/11 10/10/10 9/9/9
f 12/12/12 9/9/9 10/10/10
f 15/15/15 14/14/14 13/13/13
f 16/16/16 13/13/13 14/14/14
f 19/19/19 18/18/18 17/17/17
f 20/20/20 18/18/18 19/19/19
f 23/23/23 22/22/22 21/21/21
f 24/24/24 23/23/23 21/21/21
f 27/27/27 26/26/26 25/25/25
f 28/28/28 25/25/25 26/26/26
f 31/31/31 30/30/30 29/29/29
f 30/30/30 31/31/31 32/32/32
f 32/32/32 31/31/31 33/33/33
f 34/34/34 32/32/32 33/33/33
f 34/34/34 33/33/33 35/35/35
f 36/36/36 35/35/35 33/33/33
f 39/39/39 38/38/38 37/37/37
f 38/38/38 39/39/39 40/40/40
f 40/40/40 39/39/39 41/41/41
f 42/42/42 40/40/40 41/41/41
f 43/43/43 42/42/42 41/41/41
f 42/42/42 43/43/43 44/44/44
f 47/47/47 46/46/46 45/45/45
f 46/46/46 47/47/47 48/48/48
f 49/49/49 45/45/45 46/46/46
f 46/46/46 48/48/48 49/49/49
