mtllib SM_FoodPot_02_LOD3.mtl
g SM_FoodPot_02_LOD3
#Vertices 77
#Indices 333
#Section 0 Offset 0 NumIndices 333 MaterialIndex 0 MI_FoodPot
v 0.068671 0.024203 0.002310
v 0.058917 0.000042 0.001624
v 0.069324 0.000049 0.001064
v 0.033608 0.000036 -0.008094
v 0.053447 0.074038 -0.005109
v 0.069111 0.096359 0.002452
v 0.069219 0.172685 0.014457
v 0.028537 0.071404 -0.025859
v 0.046800 0.174477 0.013857
v 0.068703 0.193673 0.014392
v 0.011189 -0.000145 -0.029905
v 0.050263 0.211329 0.011072
v 0.068598 0.210922 0.006602
v 0.017277 0.187851 0.000454
v -0.000330 0.156260 -0.020402
v -0.014319 0.127016 -0.027995
v -0.012448 -0.000103 -0.027479
v -0.021738 0.191681 -0.002601
v -0.002525 0.211219 0.002694
v -0.004787 0.213563 0.004701
v -0.038227 0.212510 0.005344
v -0.030338 0.126827 -0.021822
v -0.035185 0.021373 -0.010283
v -0.040232 -0.000032 -0.009738
v -0.069014 0.000262 -0.000692
v -0.068589 0.092494 -0.006212
v -0.050933 0.139537 -0.010322
v -0.068128 0.175095 -0.008325
v -0.058780 0.211164 -0.001224
v -0.069209 0.209995 -0.006756
v -0.066946 0.213173 -0.007140
v 0.069324 0.000049 0.001064
v 0.069111 0.096359 0.002452
v 0.068671 0.024203 0.002310
v 0.069200 0.000240 0.006899
v 0.069150 0.097094 0.008345
v 0.068751 0.181365 0.018161
v 0.069219 0.172685 0.014457
v 0.068703 0.193673 0.014392
v 0.068325 0.024935 0.008959
v 0.068586 0.000106 0.007571
v 0.034985 0.000202 0.028232
v 0.069051 0.096940 0.009052
v 0.068623 0.195705 0.016402
v 0.068598 0.210922 0.006602
v 0.068121 0.180339 0.019325
v 0.047012 0.144665 0.019270
v 0.040215 0.181828 0.024555
v 0.068571 0.212570 0.007651
v 0.048881 0.047153 0.013112
v 0.052196 0.214253 0.014085
v 0.050263 0.211329 0.011072
v 0.026960 0.014740 0.024122
v -0.003635 0.131898 0.010880
v -0.004916 0.015203 0.025456
v -0.016092 -0.000419 0.025485
v 0.012384 0.192665 0.014899
v -0.039272 0.024526 0.016265
v -0.069435 0.000428 0.005653
v -0.021123 0.211256 0.009258
v -0.068733 0.098992 0.000054
v -0.069451 0.002684 0.004937
v -0.054069 0.138216 0.005332
v -0.043200 0.213713 0.007488
v -0.004787 0.213563 0.004701
v -0.038227 0.212510 0.005344
v -0.066946 0.213173 -0.007140
v -0.048453 0.212449 0.005927
v -0.068093 0.211453 -0.005710
v -0.069209 0.209995 -0.006756
v -0.068742 0.150818 -0.000670
v -0.068344 0.180915 -0.004842
v -0.069235 0.151281 -0.001065
v -0.068128 0.175095 -0.008325
v -0.068589 0.092494 -0.006212
v -0.069226 0.096756 -0.000336
v -0.069014 0.000262 -0.000692
vt 0.376709 0.186523
vt 0.366455 0.157227
vt 0.378662 0.157715
vt 0.333740 0.156250
vt 0.355225 0.245605
vt 0.375244 0.273438
vt 0.376953 0.366211
vt 0.318359 0.241699
vt 0.351074 0.368164
vt 0.375977 0.391602
vt 0.296875 0.158203
vt 0.352783 0.411621
vt 0.375244 0.414062
vt 0.311279 0.381836
vt 0.285156 0.340332
vt 0.268311 0.306152
vt 0.268555 0.157715
vt 0.262939 0.387207
vt 0.287842 0.410156
vt 0.285156 0.413574
vt 0.245117 0.414551
vt 0.248535 0.307617
vt 0.234009 0.183105
vt 0.228882 0.157715
vt 0.192139 0.158691
vt 0.197632 0.270020
vt 0.222412 0.325684
vt 0.205566 0.369629
vt 0.219727 0.412598
vt 0.205811 0.411133
vt 0.207764 0.415039
vt 0.000629 0.161133
vt 0.004410 0.274414
vt 0.002583 0.189453
vt 0.007439 0.161133
vt 0.011284 0.275391
vt 0.013603 0.375000
vt 0.009979 0.364746
vt 0.011902 0.390137
vt 0.011360 0.189941
vt 0.008209 0.161133
vt 0.053955 0.157715
vt 0.011864 0.275391
vt 0.014824 0.391602
vt 0.011833 0.414062
vt 0.015419 0.373535
vt 0.039978 0.331055
vt 0.048584 0.374512
vt 0.013260 0.413574
vt 0.035889 0.215820
vt 0.034180 0.413574
vt 0.035767 0.416504
vt 0.062500 0.175781
vt 0.100464 0.315430
vt 0.100403 0.175781
vt 0.114258 0.157227
vt 0.082153 0.388672
vt 0.142090 0.187988
vt 0.180908 0.160645
vt 0.121582 0.409668
vt 0.179810 0.277344
vt 0.181274 0.163086
vt 0.161133 0.323242
vt 0.148071 0.413574
vt 0.102722 0.419922
vt 0.142578 0.416992
vt 0.179321 0.415527
vt 0.154175 0.411133
vt 0.179565 0.412109
vt 0.181152 0.410645
vt 0.179932 0.338867
vt 0.182007 0.375000
vt 0.180786 0.339355
vt 0.187744 0.368652
vt 0.187866 0.270020
vt 0.180786 0.274414
vt 0.187988 0.160645
vt1 0.982910 0.914368
vt1 0.957031 0.989464
vt1 0.988281 0.988464
vt1 0.872559 0.991760
vt1 0.928223 0.761230
vt1 0.979492 0.690186
vt1 0.983887 0.451172
vt1 0.832520 0.772095
vt1 0.916992 0.445312
vt1 0.981445 0.385254
vt1 0.777344 0.986954
vt1 0.921387 0.333496
vt1 0.979492 0.327148
vt1 0.814453 0.410645
vt1 0.747559 0.517090
vt1 0.704102 0.605469
vt1 0.704102 0.987587
vt1 0.689453 0.396484
vt1 0.753906 0.337891
vt1 0.747070 0.329102
vt1 0.643555 0.325684
vt1 0.652344 0.601562
vt1 0.615234 0.923218
vt1 0.602051 0.987602
vt1 0.507324 0.985458
vt1 0.521484 0.698730
vt1 0.585449 0.555176
vt1 0.541992 0.441406
vt1 0.578613 0.330566
vt1 0.542480 0.334961
vt1 0.547363 0.325195
vt1 0.009682 0.322754
vt1 0.019424 0.614746
vt1 0.014725 0.395996
vt1 0.027237 0.322754
vt1 0.037140 0.617188
vt1 0.043152 0.874390
vt1 0.033783 0.847900
vt1 0.038757 0.912842
vt1 0.037354 0.397949
vt1 0.029236 0.322266
vt1 0.147095 0.313965
vt1 0.038635 0.616943
vt1 0.046265 0.917236
vt1 0.038574 0.975052
vt1 0.047821 0.870728
vt1 0.111145 0.760864
vt1 0.133301 0.873291
vt1 0.042267 0.974106
vt1 0.100586 0.463867
vt1 0.096191 0.973923
vt1 0.100281 0.981232
vt1 0.169189 0.360840
vt1 0.267090 0.720215
vt1 0.266846 0.360352
vt1 0.302734 0.312988
vt1 0.219971 0.909302
vt1 0.374512 0.392090
vt1 0.474365 0.321777
vt1 0.321533 0.963989
vt1 0.471680 0.622314
vt1 0.475586 0.328613
vt1 0.423584 0.741211
vt1 0.389893 0.973236
vt1 0.272949 0.990082
vt1 0.375488 0.982849
vt1 0.470459 0.978455
vt1 0.405518 0.967743
vt1 0.471191 0.969330
vt1 0.475098 0.965515
vt1 0.471924 0.781006
vt1 0.477295 0.874756
vt1 0.474121 0.782471
vt1 0.491943 0.857422
vt1 0.492676 0.603271
vt1 0.474121 0.615479
vt1 0.492920 0.322266
vn 0.141732 -0.015748 -0.992126
vn -0.023622 0.031496 -1.000000
vn 0.023622 0.094488 -0.992126
vn 0.598425 -0.220472 -0.771653
vn 0.574803 0.047244 -0.818897
vn 0.110236 0.070866 -0.992126
vn -0.188976 0.173228 -0.968504
vn 0.488189 0.062992 -0.874016
vn 0.433071 0.259842 -0.858268
vn -0.338583 -0.196850 -0.921260
vn 0.291339 -0.102362 -0.952756
vn 0.086614 -0.377953 -0.921260
vn -0.322835 -0.456693 -0.826771
vn 0.440945 0.314961 -0.842520
vn 0.165354 0.244094 -0.952756
vn -0.228346 0.125984 -0.968504
vn -0.377953 -0.078740 -0.921260
vn -0.196850 0.401575 -0.897638
vn 0.055118 0.244094 -0.968504
vn -0.015748 0.661417 -0.748031
vn 0.094488 0.267716 -0.960630
vn -0.440945 0.086614 -0.889764
vn -0.566929 -0.062992 -0.818897
vn -0.511811 0.125984 -0.850394
vn -0.062992 0.007874 -1.000000
vn -0.070866 -0.031496 -1.000000
vn -0.267717 0.039370 -0.960630
vn 0.047244 -0.015748 -1.000000
vn 0.456693 0.118110 -0.881890
vn 0.330709 0.047244 -0.944882
vn 0.393701 0.204724 -0.897638
vn 1.000000 -0.000000 -0.015748
vn 1.000000 0.000000 0.000000
vn 0.992126 -0.000000 -0.118110
vn 1.000000 0.000000 0.039370
vn 1.000000 0.000000 0.062992
vn 1.000000 0.000000 0.039370
vn 1.000000 0.007874 -0.000000
vn 1.000000 -0.015748 -0.015748
vn 0.409449 0.015748 0.913386
vn 0.503937 -0.070866 0.858268
vn 0.385827 0.031496 0.921260
vn 0.425197 -0.055118 0.905512
vn 0.519685 0.267717 0.811023
vn 0.771654 0.543307 -0.330709
vn 0.488189 -0.062992 0.874016
vn -0.031496 -0.149606 0.992126
vn -0.173228 0.023622 0.984252
vn 0.393701 0.519685 0.755905
vn 0.078740 0.070866 0.992126
vn 0.000000 0.574803 0.818897
vn 0.015748 0.992126 -0.102362
vn 0.212598 0.299213 0.929134
vn -0.110236 -0.039370 0.992126
vn -0.149606 0.259843 0.952756
vn -0.338583 -0.078740 0.937008
vn -0.244094 0.133858 0.960630
vn -0.196850 0.118110 0.976378
vn -0.440945 -0.007874 0.897638
vn 0.007874 -0.015748 1.000000
vn -0.401575 0.039370 0.913386
vn -1.000000 0.000000 0.023622
vn -0.330709 0.015748 0.944882
vn -0.015748 1.000000 -0.000000
vn 0.000000 0.992126 -0.149606
vn 0.007874 1.000000 -0.055118
vn -0.023622 0.984252 -0.149606
vn -0.456693 0.047244 0.889764
vn -0.496063 0.015748 0.866142
vn -0.960630 0.031496 -0.291339
vn -0.401575 0.055118 0.913386
vn -0.496063 0.078740 0.866142
vn -1.000000 -0.000000 -0.039370
vn -0.968504 0.007874 -0.236220
vn -0.992126 -0.000000 -0.102362
vn -1.000000 0.000000 0.000000
vn -1.000000 -0.000000 -0.078740
tan -0.039060 -0.992126 0.010168 1.000000
tan -0.047244 -1.000000 -0.030380 1.000000
tan -0.085932 -0.992126 -0.096534 1.000000
tan 0.072912 -0.825469 0.292393 1.000000
tan -0.100192 -0.848658 -0.119288 1.000000
tan 0.000000 -0.992126 -0.070866 1.000000
tan 0.022878 -0.968504 -0.177692 1.000000
tan -0.059458 -0.893236 -0.097588 1.000000
tan -0.083762 -0.858330 -0.302126 1.000000
tan -0.087048 -0.914006 0.227293 1.000000
tan 0.015004 -0.952756 0.106950 1.000000
tan -0.014508 -0.921260 0.376589 1.000000
tan -0.052080 -0.826771 0.477029 1.000000
tan -0.112778 -0.835886 -0.371505 1.000000
tan -0.015004 -0.952756 -0.246698 1.000000
tan 0.053382 -0.968504 -0.138570 1.000000
tan -0.007254 -0.921260 0.081716 1.000000
tan 0.063612 -0.897638 -0.415525 1.000000
tan 0.007626 -0.968504 -0.243660 1.000000
tan 0.005890 -0.748031 -0.661541 1.000000
tan 0.030256 -0.960630 -0.264740 1.000000
tan 0.122698 -0.900118 -0.148428 1.000000
tan 0.041168 -0.841218 0.036208 1.000000
tan 0.030504 -0.862484 -0.146134 1.000000
tan 0.023622 -1.000000 -0.009362 1.000000
tan 0.055118 -1.000000 0.027590 1.000000
tan 0.090768 -0.953066 -0.064356 1.000000
tan 0.047244 -1.000000 0.017980 1.000000
tan -0.027776 -0.881890 -0.132494 1.000000
tan 0.007440 -0.944882 -0.044640 1.000000
tan -0.014136 -0.897638 -0.210924 1.000000
tan 0.000372 -1.000000 0.023622 1.000000
tan 0.000000 -1.000000 -0.015748 1.000000
tan 0.002790 -0.992126 0.023436 1.000000
tan -0.000930 -1.000000 0.023622 1.000000
tan 0.000992 -1.000000 -0.015748 1.000000
tan -0.001240 -1.000000 0.031496 1.000000
tan 0.007874 -1.000000 0.023622 1.000000
tan -0.011532 -0.968504 0.236221 1.000000
tan -0.064728 -0.913386 0.044764 1.000000
tan -0.183024 -0.841962 0.037944 1.000000
tan -0.137826 -0.914006 0.088970 1.000000
tan -0.022258 -0.912208 -0.045074 1.000000
tan -0.200198 -0.805939 0.394321 1.000000
tan 0.613987 -0.698741 0.284705 1.000000
tan -0.165664 -0.864096 0.030256 1.000000
tan -0.015624 -0.992126 -0.150102 1.000000
tan 0.038750 -0.984252 0.030442 1.000000
tan -0.051336 -0.762105 0.550685 1.000000
tan -0.023436 -0.992126 0.072726 1.000000
tan 0.006448 -0.818897 0.574803 1.000000
tan 0.015624 0.102114 0.992126 1.000000
tan -0.029264 -0.929134 0.305909 1.000000
tan 0.000000 -0.992126 -0.039370 1.000000
tan 0.022506 -0.952756 0.263377 1.000000
tan 0.059024 -0.937008 -0.057412 1.000000
tan 0.015128 -0.960630 0.137702 1.000000
tan 0.015376 -0.976378 0.121210 1.000000
tan 0.120218 -0.894042 0.051212 1.000000
tan -0.031496 -1.000000 -0.015500 1.000000
tan 0.042842 -0.916548 0.058342 1.000000
tan 0.001302 -1.000000 0.055118 1.000000
tan 0.029760 -0.944882 0.026164 1.000000
tan -0.188976 -0.002976 0.984252 1.000000
tan -0.046872 0.149606 0.992126 1.000000
tan -0.188976 0.055738 0.984252 1.000000
tan -0.542501 0.111848 0.821502 1.000000
tan 0.154132 -0.875752 0.125612 1.000000
tan 0.347697 -0.795027 0.213590 1.000000
tan -0.154690 -0.869862 0.416021 1.000000
tan 0.042718 -0.916548 0.074090 1.000000
tan 0.155620 -0.860314 0.167338 1.000000
tan -0.002790 -1.000000 0.070866 1.000000
tan -0.041292 -0.960878 0.137268 1.000000
tan -0.005642 -0.992126 0.054684 1.000000
tan 0.000000 -1.000000 0.055118 1.000000
tan -0.004340 -1.000000 0.055118 1.000000
f 3/3/3 2/2/2 1/1/1
f 4/4/4 1/1/1 2/2/2
f 1/1/1 4/4/4 5/5/5
f 6/6/6 1/1/1 5/5/5
f 6/6/6 5/5/5 7/7/7
f 8/8/8 5/5/5 4/4/4
f 7/7/7 5/5/5 9/9/9
f 5/5/5 8/8/8 9/9/9
f 7/7/7 9/9/9 10/10/10
f 4/4/4 11/11/11 8/8/8
f 10/10/10 9/9/9 12/12/12
f 10/10/10 12/12/12 13/13/13
f 9/9/9 8/8/8 14/14/14
f 12/12/12 9/9/9 14/14/14
f 8/8/8 11/11/11 15/15/15
f 8/8/8 15/15/15 14/14/14
f 15/15/15 11/11/11 16/16/16
f 17/17/17 16/16/16 11/11/11
f 15/15/15 18/18/18 14/14/14
f 16/16/16 18/18/18 15/15/15
f 14/14/14 19/19/19 12/12/12
f 14/14/14 18/18/18 19/19/19
f 19/19/19 20/20/20 12/12/12
f 19/19/19 21/21/21 20/20/20
f 18/18/18 21/21/21 19/19/19
f 16/16/16 17/17/17 22/22/22
f 22/22/22 18/18/18 16/16/16
f 23/23/23 22/22/22 17/17/17
f 24/24/24 23/23/23 17/17/17
f 24/24/24 25/25/25 23/23/23
f 25/25/25 26/26/26 23/23/23
f 22/22/22 23/23/23 27/27/27
f 27/27/27 23/23/23 26/26/26
f 18/18/18 22/22/22 27/27/27
f 26/26/26 28/28/28 27/27/27
f 27/27/27 29/29/29 18/18/18
f 29/29/29 27/27/27 28/28/28
f 18/18/18 29/29/29 21/21/21
f 29/29/29 28/28/28 30/30/30
f 31/31/31 21/21/21 29/29/29
f 29/29/29 30/30/30 31/31/31
f 34/34/34 33/33/33 32/32/32
f 32/32/32 33/33/33 35/35/35
f 36/36/36 35/35/35 33/33/33
f 33/33/33 37/37/37 36/36/36
f 37/37/37 33/33/33 38/38/38
f 38/38/38 39/39/39 37/37/37
f 35/35/35 36/36/36 40/40/40
f 35/35/35 40/40/40 41/41/41
f 40/40/40 42/42/42 41/41/41
f 36/36/36 37/37/37 43/43/43
f 43/43/43 40/40/40 36/36/36
f 44/44/44 37/37/37 39/39/39
f 39/39/39 45/45/45 44/44/44
f 46/46/46 43/43/43 37/37/37
f 37/37/37 44/44/44 46/46/46
f 43/43/43 46/46/46 47/47/47
f 43/43/43 47/47/47 40/40/40
f 46/46/46 44/44/44 48/48/48
f 48/48/48 47/47/47 46/46/46
f 45/45/45 49/49/49 44/44/44
f 40/40/40 47/47/47 50/50/50
f 44/44/44 49/49/49 51/51/51
f 45/45/45 51/51/51 49/49/49
f 51/51/51 48/48/48 44/44/44
f 51/51/51 45/45/45 52/52/52
f 53/53/53 40/40/40 50/50/50
f 40/40/40 53/53/53 42/42/42
f 47/47/47 54/54/54 50/50/50
f 50/50/50 54/54/54 53/53/53
f 54/54/54 47/47/47 48/48/48
f 53/53/53 55/55/55 42/42/42
f 53/53/53 54/54/54 55/55/55
f 42/42/42 55/55/55 56/56/56
f 48/48/48 57/57/57 54/54/54
f 51/51/51 57/57/57 48/48/48
f 58/58/58 56/56/56 55/55/55
f 55/55/55 54/54/54 58/58/58
f 56/56/56 58/58/58 59/59/59
f 60/60/60 54/54/54 57/57/57
f 60/60/60 58/58/58 54/54/54
f 51/51/51 60/60/60 57/57/57
f 58/58/58 61/61/61 59/59/59
f 62/62/62 59/59/59 61/61/61
f 63/63/63 58/58/58 60/60/60
f 63/63/63 61/61/61 58/58/58
f 64/64/64 60/60/60 51/51/51
f 51/51/51 52/52/52 64/64/64
f 65/65/65 64/64/64 52/52/52
f 64/64/64 65/65/65 66/66/66
f 66/66/66 67/67/67 64/64/64
f 64/64/64 68/68/68 60/60/60
f 68/68/68 63/63/63 60/60/60
f 67/67/67 69/69/69 64/64/64
f 64/64/64 69/69/69 68/68/68
f 67/67/67 70/70/70 69/69/69
f 63/63/63 68/68/68 71/71/71
f 71/71/71 61/61/61 63/63/63
f 68/68/68 69/69/69 72/72/72
f 72/72/72 69/69/69 70/70/70
f 72/72/72 71/71/71 68/68/68
f 70/70/70 73/73/73 72/72/72
f 71/71/71 72/72/72 73/73/73
f 70/70/70 74/74/74 73/73/73
f 73/73/73 74/74/74 75/75/75
f 73/73/73 76/76/76 71/71/71
f 76/76/76 73/73/73 75/75/75
f 61/61/61 71/71/71 76/76/76
f 76/76/76 62/62/62 61/61/61
f 76/76/76 75/75/75 77/77/77
f 62/62/62 76/76/76 77/77/77
