mtllib SM_FloorKitchen_LOD1.mtl
g SM_FloorKitchen_LOD1
#Vertices 27
#Indices 45
#Section 0 Offset 0 NumIndices 45 MaterialIndex 0 MI_FloorKitchen
v -0.519322 0.093461 -0.752648
v 1.260767 0.000000 1.085600
v 1.258687 0.105693 1.086455
v 1.260767 0.000000 1.085600
v 1.294263 0.080347 8.083340
v 1.258687 0.105693 1.086455
v 0.940576 0.201023 1.272231
v -0.666851 0.200763 -0.373510
v 0.940576 0.083333 1.272231
v 0.940576 0.083333 1.272231
v 0.946025 0.200752 8.083331
v 0.940576 0.201023 1.272231
v -0.519322 0.093461 -0.752648
v -3.374953 0.105693 -0.285830
v -3.375003 0.080234 -0.758336
v -0.715270 0.105693 -0.284757
v 1.258687 0.105693 1.086455
v 0.820687 0.105693 1.266602
v 0.819870 0.105694 8.083151
v 1.294263 0.080347 8.083340
v -4.250000 0.201024 8.083333
v -4.250000 0.201023 4.458333
v -3.375000 0.201023 4.458333
v 0.946025 0.200752 8.083331
v 0.940576 0.201023 1.272231
v -0.666851 0.200763 -0.373510
v -3.375000 0.200441 -0.373125
vt 0.731445 0.771484
vt 0.696289 0.564941
vt 0.736328 0.564941
vt 0.696289 0.564941
vt 0.726562 0.000488
vt 0.736328 0.564941
vt 0.689941 0.550049
vt 0.689453 0.735840
vt 0.645020 0.550049
vt 0.645020 0.550049
vt 0.689453 0.000000
vt 0.689941 0.550049
vt 0.210327 0.997316
vt 0.536133 0.944153
vt 0.536133 0.998072
vt 0.232666 0.943909
vt 0.007568 0.787354
vt 0.057556 0.766846
vt 0.057953 0.005371
vt 0.003832 0.004395
vt 0.635742 0.005859
vt 0.635742 0.403320
vt 0.540039 0.403320
vt 0.066467 0.006348
vt 0.067139 0.752563
vt 0.243286 0.932861
vt 0.540039 0.932800
vt1 0.895996 0.769409
vt1 0.860840 0.564453
vt1 0.900879 0.564453
vt1 0.860840 0.564453
vt1 0.891113 0.004395
vt1 0.900879 0.564453
vt1 0.851562 0.575928
vt1 0.851562 0.769043
vt1 0.805176 0.575928
vt1 0.805176 0.575928
vt1 0.851562 0.004395
vt1 0.851562 0.575928
vt1 0.601562 0.002441
vt1 0.289551 0.053711
vt1 0.289551 0.001465
vt1 0.580078 0.054199
vt1 0.795898 0.206055
vt1 0.748047 0.225586
vt1 0.747559 0.963348
vt1 0.799316 0.964386
vt1 0.571289 0.072754
vt1 0.571289 0.468750
vt1 0.475586 0.468750
vt1 0.003372 0.072754
vt1 0.004051 0.817139
vt1 0.179688 0.996943
vt1 0.475586 0.996868
vn 0.708661 0.015748 -0.700787
vn 0.708661 0.015748 -0.700787
vn 0.708661 0.015748 -0.700787
vn 1.000000 0.015748 -0.000000
vn 1.000000 0.015748 -0.000000
vn 1.000000 0.015748 -0.000000
vn 0.716535 -0.000000 -0.700787
vn 0.716535 -0.000000 -0.700787
vn 0.716535 -0.000000 -0.700787
vn 1.000000 0.000000 0.000000
vn 1.000000 0.000000 0.000000
vn 1.000000 0.000000 0.000000
vn 0.000000 1.000000 -0.000000
vn 0.000000 1.000000 -0.000000
vn 0.000000 1.000000 -0.000000
vn 0.000000 1.000000 -0.000000
vn 0.000000 1.000000 -0.000000
vn 0.000000 1.000000 -0.000000
vn 0.000000 1.000000 -0.000000
vn 0.000000 1.000000 -0.000000
vn 0.000000 1.000000 -0.000000
vn 0.000000 1.000000 -0.000000
vn 0.000000 1.000000 -0.000000
vn 0.000000 1.000000 -0.000000
vn 0.000000 1.000000 -0.000000
vn 0.000000 1.000000 -0.000000
vn 0.000000 1.000000 -0.000000
tan 0.700787 0.000000 0.708661 1.000000
tan 0.700911 -0.000062 0.708785 1.000000
tan 0.700911 -0.000062 0.708785 1.000000
tan 0.000124 -0.007874 1.000000 1.000000
tan 0.000000 0.000000 1.000000 1.000000
tan 0.000124 -0.007874 1.000000 1.000000
tan 0.700787 0.000000 0.716535 1.000000
tan 0.700787 0.000000 0.716535 1.000000
tan 0.700787 0.000000 0.716535 1.000000
tan 0.000000 0.000000 1.000000 1.000000
tan 0.000000 0.000000 1.000000 1.000000
tan 0.000000 0.000000 1.000000 1.000000
tan 0.000000 0.000000 1.000000 1.000000
tan 0.000000 0.000000 1.000000 1.000000
tan 0.000000 0.000000 1.000000 1.000000
tan 0.000000 0.000000 1.000000 1.000000
tan 0.000000 0.000000 1.000000 1.000000
tan -0.007874 0.000000 1.000000 1.000000
tan 0.007874 0.000000 1.000000 1.000000
tan 0.007874 0.000000 1.000000 1.000000
tan 0.000000 0.000000 1.000000 1.000000
tan 0.000000 0.000000 1.000000 1.000000
tan 0.000000 0.000000 1.000000 1.000000
tan 0.000000 0.000000 1.000000 1.000000
tan 0.000000 0.000000 1.000000 1.000000
tan 0.000000 0.000000 1.000000 1.000000
tan 0.000000 0.000000 1.000000 1.000000
f 3/3/3 2/2/2 1/1/1
f 6/6/6 5/5/5 4/4/4
f 9/9/9 8/8/8 7/7/7
f 12/12/12 11/11/11 10/10/10
f 15/15/15 14/14/14 13/13/13
f 16/16/16 13/13/13 14/14/14
f 13/13/13 16/16/16 17/17/17
f 18/18/18 17/17/17 16/16/16
f 17/17/17 18/18/18 19/19/19
f 19/19/19 20/20/20 17/17/17
f 23/23/23 22/22/22 21/21/21
f 21/21/21 24/24/24 23/23/23
f 24/24/24 25/25/25 23/23/23
f 25/25/25 26/26/26 23/23/23
f 27/27/27 23/23/23 26/26/26
