mtllib SM_Food_SM_Apple_01_LOD1.mtl
g SM_Food_SM_Apple_01_LOD1
#Vertices 80
#Indices 222
#Section 0 Offset 0 NumIndices 222 MaterialIndex 0 MI_Food
v 0.005071 -0.000364 -0.004507
v -0.004609 -0.001273 -0.004961
v 0.001715 0.007730 0.003263
v -0.018541 0.075705 -0.002861
v -0.010669 0.075824 -0.014144
v -0.005506 0.065866 -0.003562
v -0.013174 0.079943 0.005180
v 0.001715 0.007730 0.003263
v -0.006637 -0.000045 0.008902
v 0.003797 -0.002047 0.015640
v -0.004609 -0.001273 -0.004961
v 0.005071 -0.000364 -0.004507
v 0.001715 0.007730 0.003263
v 0.012168 0.000993 0.006483
v 0.003797 -0.002047 0.015640
v -0.010669 0.075824 -0.014144
v -0.002901 0.077329 -0.016526
v -0.005506 0.065866 -0.003562
v 0.002671 0.083419 0.000635
v -0.013174 0.079943 0.005180
v 0.004812 0.048440 -0.038880
v -0.005405 0.062124 -0.038545
v 0.002963 0.031135 -0.040021
v -0.024823 0.036628 -0.035000
v -0.027555 0.071814 -0.023393
v -0.002901 0.077329 -0.016526
v -0.010669 0.075824 -0.014144
v -0.040985 0.030967 -0.016148
v -0.018541 0.075705 -0.002861
v -0.036619 0.065773 0.011104
v -0.036744 0.031076 0.011976
v -0.013174 0.079943 0.005180
v -0.020640 0.040871 0.036083
v -0.021764 0.066843 0.027200
v -0.020640 0.040871 0.036083
v 0.018135 0.040272 0.038745
v -0.002286 0.007481 0.032750
v 0.029540 0.006822 0.017786
v 0.003797 -0.002047 0.015640
v 0.036229 0.046218 0.017557
v 0.024184 -0.001521 -0.006164
v 0.012168 0.000993 0.006483
v 0.005071 -0.000364 -0.004507
v 0.006712 -0.002427 -0.015900
v 0.037406 0.020232 -0.008730
v 0.034469 0.045854 -0.019695
v 0.033257 0.038704 -0.021288
v 0.017807 0.007358 -0.024372
v 0.002963 0.031135 -0.040021
v 0.018597 0.039540 -0.035512
v 0.002963 0.031135 -0.040021
v 0.018597 0.039540 -0.035512
v 0.004812 0.048440 -0.038880
v -0.005405 0.062124 -0.038545
v 0.033257 0.038704 -0.021288
v 0.034469 0.045854 -0.019695
v 0.017094 0.074037 -0.025298
v -0.002901 0.077329 -0.016526
v 0.002671 0.083419 0.000635
v 0.029890 0.071815 -0.004461
v 0.036229 0.046218 0.017557
v 0.008153 0.075248 0.028563
v -0.013174 0.079943 0.005180
v 0.018135 0.040272 0.038745
v -0.021764 0.066843 0.027200
v -0.020640 0.040871 0.036083
v -0.004609 -0.001273 -0.004961
v 0.005071 -0.000364 -0.004507
v 0.006712 -0.002427 -0.015900
v -0.020073 -0.002246 -0.006874
v -0.006637 -0.000045 0.008902
v -0.007519 0.003912 -0.026114
v 0.002963 0.031135 -0.040021
v -0.024823 0.036628 -0.035000
v -0.040985 0.030967 -0.016148
v -0.019085 0.004186 0.022143
v 0.003797 -0.002047 0.015640
v -0.036744 0.031076 0.011976
v -0.002286 0.007481 0.032750
v -0.020640 0.040871 0.036083
vt 0.525879 0.000977
vt 0.525391 0.008301
vt 0.517578 0.001465
vt 0.784668 0.091797
vt 0.784668 0.102539
vt 0.773926 0.099121
vt 0.779785 0.086914
vt 0.946289 0.141113
vt 0.940918 0.133789
vt 0.949219 0.129395
vt 0.935547 0.143066
vt 0.427246 0.183105
vt 0.429688 0.191895
vt 0.420654 0.190430
vt 0.420654 0.200195
vt 0.624512 0.104004
vt 0.626465 0.098633
vt 0.634766 0.110352
vt 0.640625 0.095703
vt 0.647461 0.105957
vt 0.949219 0.253906
vt 0.946777 0.266602
vt 0.942383 0.242676
vt 0.924316 0.255371
vt 0.932129 0.280762
vt 0.948242 0.288574
vt 0.941895 0.289551
vt 0.905273 0.263672
vt 0.931152 0.297363
vt 0.912598 0.295898
vt 0.891113 0.281738
vt 0.929688 0.305664
vt 0.886719 0.305176
vt 0.907715 0.310059
vt 0.588867 0.936035
vt 0.559570 0.931885
vt 0.578613 0.908447
vt 0.554199 0.902954
vt 0.570312 0.893127
vt 0.536133 0.926392
vt 0.547852 0.886963
vt 0.561035 0.887878
vt 0.556641 0.877380
vt 0.547363 0.872681
vt 0.533691 0.898682
vt 0.513672 0.904053
vt 0.517090 0.898865
vt 0.535156 0.878357
vt 0.512695 0.869141
vt 0.510254 0.883545
vt 0.898438 0.544189
vt 0.894043 0.557129
vt 0.885254 0.547363
vt 0.872070 0.542725
vt 0.895020 0.573730
vt 0.889648 0.575195
vt 0.868652 0.562256
vt 0.854004 0.555664
vt 0.846680 0.571289
vt 0.868164 0.578857
vt 0.874512 0.603760
vt 0.845703 0.592529
vt 0.832520 0.574219
vt 0.855469 0.617920
vt 0.824219 0.595703
vt 0.824219 0.617188
vt 0.036285 0.394531
vt 0.032166 0.401367
vt 0.023483 0.397949
vt 0.038483 0.383301
vt 0.048676 0.394531
vt 0.021439 0.384277
vt -0.000549 0.374512
vt 0.014626 0.356445
vt 0.034546 0.354004
vt 0.058716 0.383789
vt 0.055969 0.401367
vt 0.056641 0.358887
vt 0.070557 0.392578
vt 0.079956 0.363770
vt1 0.988281 0.877014
vt1 0.983398 0.927429
vt1 0.927246 0.879578
vt1 0.921387 0.991714
vt1 0.846680 0.991943
vt1 0.870117 0.916260
vt1 0.959473 0.956390
vt1 0.405029 0.976303
vt1 0.366211 0.924011
vt1 0.425049 0.891907
vt1 0.330566 0.991943
vt1 0.646973 0.540283
vt1 0.586914 0.521729
vt1 0.597168 0.588867
vt1 0.531250 0.588135
vt1 0.051086 0.038574
vt1 0.088562 0.053711
vt1 0.008064 0.110840
vt1 0.108826 0.154297
vt1 0.039154 0.203613
vt1 0.008064 0.481934
vt1 0.025146 0.392090
vt1 0.055786 0.562256
vt1 0.183350 0.472656
vt1 0.126343 0.292969
vt1 0.014046 0.237793
vt1 0.058136 0.229492
vt1 0.318359 0.414551
vt1 0.135254 0.174316
vt1 0.267334 0.186523
vt1 0.417480 0.285156
vt1 0.145264 0.114258
vt1 0.447754 0.118652
vt1 0.301270 0.083984
vt1 0.423584 0.998405
vt1 0.631836 0.968796
vt1 0.497803 0.802612
vt1 0.670898 0.763550
vt1 0.556152 0.693604
vt1 0.798828 0.929932
vt1 0.714355 0.649902
vt1 0.621582 0.656006
vt1 0.653809 0.581787
vt1 0.717773 0.547852
vt1 0.814941 0.732910
vt1 0.954590 0.770996
vt1 0.931641 0.734131
vt1 0.804688 0.588623
vt1 0.960938 0.522949
vt1 0.981934 0.625244
vt1 0.537109 0.464355
vt1 0.505859 0.555908
vt1 0.445557 0.486328
vt1 0.350830 0.453613
vt1 0.513184 0.672852
vt1 0.475830 0.683838
vt1 0.325684 0.591064
vt1 0.222900 0.544678
vt1 0.171387 0.656006
vt1 0.323730 0.709229
vt1 0.366943 0.886292
vt1 0.163574 0.805908
vt1 0.070740 0.676758
vt1 0.232056 0.986931
vt1 0.011757 0.828369
vt1 0.013680 0.981476
vt1 0.734863 0.186523
vt1 0.763672 0.140137
vt1 0.825684 0.162109
vt1 0.719238 0.266602
vt1 0.646973 0.187500
vt1 0.839844 0.260254
vt1 0.995605 0.330566
vt1 0.888184 0.455566
vt1 0.747070 0.475098
vt1 0.576172 0.263184
vt1 0.595703 0.140137
vt1 0.590820 0.441406
vt1 0.492188 0.202148
vt1 0.425537 0.403809
vn -0.165354 -0.905512 0.393701
vn 0.188976 -0.952756 0.228347
vn 0.055118 -1.000000 0.047244
vn -0.023622 0.992126 -0.094488
vn 0.055118 0.952756 0.291338
vn -0.236220 0.960630 -0.118110
vn 0.055118 0.850394 -0.519685
vn 0.055118 -1.000000 0.047244
vn 0.212598 -0.976378 -0.086614
vn -0.062992 -0.874016 -0.480315
vn 0.188976 -0.952756 0.228347
vn -0.228346 -0.897638 0.370079
vn 0.055118 -1.000000 0.047244
vn -0.574803 -0.779527 -0.244094
vn -0.094488 -0.866142 -0.488189
vn 0.055118 0.952756 0.291338
vn -0.236220 0.960630 -0.141732
vn -0.236220 0.960630 -0.118110
vn -0.393701 0.889764 -0.228347
vn 0.078740 0.834646 -0.543307
vn 0.204724 0.110236 -0.976378
vn -0.102362 0.393701 -0.913386
vn 0.102362 -0.173228 -0.976378
vn -0.527559 -0.070866 -0.842520
vn -0.574803 0.637795 -0.511811
vn -0.236220 0.960630 -0.141732
vn 0.055118 0.952756 0.291338
vn -0.937008 -0.188976 -0.299213
vn -0.023622 0.992126 -0.094488
vn -0.834646 0.464567 0.283464
vn -0.913386 -0.236220 0.338583
vn -0.165354 0.984252 -0.086614
vn -0.535433 -0.031496 0.842520
vn -0.496063 0.527559 0.692913
vn -0.488189 -0.039370 0.874016
vn 0.385827 0.000000 0.921260
vn -0.086614 -0.503937 0.858268
vn 0.692913 -0.574803 0.440945
vn 0.070866 -0.992126 0.094488
vn 0.913386 0.165354 0.370079
vn 0.543307 -0.826772 -0.149606
vn -0.574803 -0.779527 -0.244094
vn -0.220472 -0.897638 0.377953
vn 0.086614 -0.937008 -0.330709
vn 0.921260 -0.299213 -0.244094
vn 0.874016 0.133858 -0.464567
vn 0.826772 -0.078740 -0.551181
vn 0.401575 -0.559055 -0.724409
vn 0.118110 -0.181102 -0.976378
vn 0.480315 -0.015748 -0.881890
vn 0.086614 -0.165354 -0.984252
vn 0.480315 -0.015748 -0.881890
vn 0.204724 0.110236 -0.976378
vn -0.102362 0.464567 -0.881890
vn 0.826772 -0.078740 -0.551181
vn 0.874016 0.133858 -0.464567
vn 0.464567 0.661417 -0.590551
vn -0.236220 0.960630 -0.141732
vn -0.102362 0.992126 -0.031496
vn 0.779528 0.622047 -0.039370
vn 0.921260 0.173228 0.354331
vn 0.228346 0.685039 0.692913
vn -0.228346 0.968504 -0.070866
vn 0.377953 0.015748 0.921260
vn -0.488189 0.543307 0.677165
vn -0.488189 -0.039370 0.874016
vn 0.188976 -0.952756 0.228347
vn -0.165354 -0.897638 0.409449
vn 0.086614 -0.937008 -0.330709
vn -0.464567 -0.881890 -0.086614
vn 0.212598 -0.976378 -0.086614
vn -0.125984 -0.661417 -0.740157
vn 0.118110 -0.173228 -0.976378
vn -0.496063 -0.102362 -0.858268
vn -0.929134 -0.228346 -0.291339
vn -0.598425 -0.590551 0.535433
vn 0.125984 -0.992126 -0.007874
vn -0.913386 -0.236220 0.338583
vn -0.086614 -0.519685 0.850394
vn -0.511811 -0.039370 0.858268
tan 0.850642 -0.007936 0.339017 1.000000
tan 0.941348 0.221960 0.147064 1.000000
tan 0.976378 0.064604 0.228346 1.000000
tan -0.515593 0.068076 0.843698 1.000000
tan -0.697067 -0.161944 0.661479 1.000000
tan -0.600347 -0.054870 0.754417 1.000000
tan -0.091140 0.521235 0.843264 1.000000
tan -0.433071 0.018538 0.897638 1.000000
tan -0.360655 -0.159154 0.908860 1.000000
tan -0.017546 -0.479323 0.874512 1.000000
tan -0.599851 0.060450 0.748651 1.000000
tan 0.180854 -0.408085 -0.878232 1.000000
tan 0.433071 -0.018538 -0.897638 1.000000
tan 0.505425 -0.118730 -0.811024 1.000000
tan 0.366173 0.407217 -0.793353 1.000000
tan 0.492219 0.221836 -0.818588 1.000000
tan 0.887222 0.162936 -0.374357 1.000000
tan 0.961560 0.226920 -0.077500 1.000000
tan 0.889764 0.393701 -0.000000 1.000000
tan 0.227416 0.506355 0.810838 1.000000
tan 0.409201 -0.887346 -0.014384 1.000000
tan 0.230144 -0.884618 -0.407093 1.000000
tan 0.399777 -0.891810 0.200136 1.000000
tan 0.661231 -0.557319 -0.367165 1.000000
tan -0.077500 -0.643251 -0.714551 1.000000
tan -0.103664 -0.166656 -0.956786 1.000000
tan -0.127534 0.296422 -0.945254 1.000000
tan 0.354021 -0.575485 -0.745179 1.000000
tan -0.515593 -0.092628 -0.843698 1.000000
tan -0.539277 -0.635129 -0.546965 1.000000
tan -0.195238 -0.436605 -0.831297 1.000000
tan -0.658751 -0.175460 -0.736251 1.000000
tan -0.829004 -0.150164 -0.532457 1.000000
tan -0.837746 -0.143840 -0.490235 1.000000
tan 0.125736 -0.883316 0.030442 1.000000
tan 0.536797 -0.744125 -0.224812 1.000000
tan -0.013516 -0.858268 -0.505301 1.000000
tan -0.317627 -0.750449 -0.479137 1.000000
tan -0.421849 -0.115692 -0.898382 1.000000
tan 0.363631 -0.707731 -0.581251 1.000000
tan -0.749706 -0.407713 -0.469465 1.000000
tan -0.518569 0.579763 -0.630355 1.000000
tan -0.588505 -0.146320 -0.690805 1.000000
tan -0.819828 0.097526 -0.491041 1.000000
tan -0.383719 -0.631099 -0.674623 1.000000
tan -0.341745 -0.471015 -0.778659 1.000000
tan -0.540641 -0.342861 -0.761981 1.000000
tan -0.868064 -0.101742 -0.402691 1.000000
tan -0.945626 -0.238328 -0.070184 1.000000
tan -0.854734 -0.227230 -0.461467 1.000000
tan -0.976502 -0.093000 -0.070308 1.000000
tan -0.882138 -0.056172 -0.479447 1.000000
tan -0.961002 -0.192200 -0.223200 1.000000
tan -0.437845 -0.772397 -0.356067 1.000000
tan -0.553041 -0.006510 -0.828632 1.000000
tan -0.480935 0.127100 -0.868188 1.000000
tan -0.651931 -0.175770 -0.709715 1.000000
tan -0.756402 -0.273049 -0.589993 1.000000
tan -0.320293 -0.062806 -0.937442 1.000000
tan -0.592225 0.720875 -0.336227 1.000000
tan 0.178126 0.554095 -0.734019 1.000000
tan -0.026846 0.705499 -0.688635 1.000000
tan -0.038130 -0.079856 -0.968504 1.000000
tan 0.449625 0.808171 -0.198276 1.000000
tan -0.150102 0.704569 -0.673507 1.000000
tan -0.167028 0.883316 -0.053506 1.000000
tan -0.888834 -0.260091 -0.349619 1.000000
tan -0.702337 -0.130324 -0.569347 1.000000
tan -0.706553 0.157232 -0.630541 1.000000
tan -0.867320 0.470891 -0.142538 1.000000
tan -0.976378 -0.220100 0.084568 1.000000
tan -0.525761 0.674065 -0.512865 1.000000
tan -0.698245 0.685163 -0.206026 1.000000
tan -0.689813 0.548763 0.333251 1.000000
tan -0.284891 0.907186 0.197532 1.000000
tan -0.731601 0.658441 -0.091450 1.000000
tan -0.976502 -0.125240 0.156240 1.000000
tan -0.348255 0.857462 -0.341249 1.000000
tan -0.536425 0.696509 0.371009 1.000000
tan -0.765516 0.416145 -0.437411 1.000000
f 3/3/3 2/2/2 1/1/1
f 6/6/6 5/5/5 4/4/4
f 4/4/4 7/7/7 6/6/6
f 10/10/10 9/9/9 8/8/8
f 11/11/11 8/8/8 9/9/9
f 14/14/14 13/13/13 12/12/12
f 15/15/15 13/13/13 14/14/14
f 18/18/18 17/17/17 16/16/16
f 19/19/19 17/17/17 18/18/18
f 19/19/19 18/18/18 20/20/20
f 23/23/23 22/22/22 21/21/21
f 22/22/22 23/23/23 24/24/24
f 22/22/22 24/24/24 25/25/25
f 22/22/22 25/25/25 26/26/26
f 27/27/27 26/26/26 25/25/25
f 25/25/25 24/24/24 28/28/28
f 27/27/27 25/25/25 29/29/29
f 28/28/28 30/30/30 25/25/25
f 30/30/30 29/29/29 25/25/25
f 31/31/31 30/30/30 28/28/28
f 30/30/30 32/32/32 29/29/29
f 30/30/30 31/31/31 33/33/33
f 34/34/34 32/32/32 30/30/30
f 30/30/30 33/33/33 34/34/34
f 37/37/37 36/36/36 35/35/35
f 36/36/36 37/37/37 38/38/38
f 38/38/38 37/37/37 39/39/39
f 38/38/38 40/40/40 36/36/36
f 38/38/38 39/39/39 41/41/41
f 41/41/41 39/39/39 42/42/42
f 43/43/43 41/41/41 42/42/42
f 43/43/43 44/44/44 41/41/41
f 45/45/45 40/40/40 38/38/38
f 45/45/45 38/38/38 41/41/41
f 45/45/45 46/46/46 40/40/40
f 45/45/45 47/47/47 46/46/46
f 44/44/44 48/48/48 41/41/41
f 48/48/48 45/45/45 41/41/41
f 47/47/47 45/45/45 48/48/48
f 44/44/44 49/49/49 48/48/48
f 50/50/50 47/47/47 48/48/48
f 50/50/50 48/48/48 49/49/49
f 53/53/53 52/52/52 51/51/51
f 53/53/53 54/54/54 52/52/52
f 56/56/56 55/55/55 52/52/52
f 57/57/57 52/52/52 54/54/54
f 56/56/56 52/52/52 57/57/57
f 54/54/54 58/58/58 57/57/57
f 57/57/57 58/58/58 59/59/59
f 56/56/56 57/57/57 60/60/60
f 60/60/60 57/57/57 59/59/59
f 61/61/61 56/56/56 60/60/60
f 59/59/59 62/62/62 60/60/60
f 61/61/61 60/60/60 62/62/62
f 63/63/63 62/62/62 59/59/59
f 61/61/61 62/62/62 64/64/64
f 62/62/62 63/63/63 65/65/65
f 66/66/66 64/64/64 62/62/62
f 62/62/62 65/65/65 66/66/66
f 69/69/69 68/68/68 67/67/67
f 67/67/67 70/70/70 69/69/69
f 70/70/70 67/67/67 71/71/71
f 69/69/69 70/70/70 72/72/72
f 73/73/73 69/69/69 72/72/72
f 74/74/74 73/73/73 72/72/72
f 74/74/74 72/72/72 75/75/75
f 75/75/75 72/72/72 70/70/70
f 70/70/70 71/71/71 76/76/76
f 76/76/76 75/75/75 70/70/70
f 76/76/76 71/71/71 77/77/77
f 76/76/76 78/78/78 75/75/75
f 79/79/79 76/76/76 77/77/77
f 78/78/78 76/76/76 80/80/80
f 79/79/79 80/80/80 76/76/76
