mtllib SM_FloorKitchenWood_LOD5.mtl
g SM_FloorKitchenWood_LOD5
#Vertices 26
#Indices 30
#Section 0 Offset 0 NumIndices 30 MaterialIndex 0 MI_FloorKitchenWood
v 0.861454 0.259080 1.240070
v 0.902175 0.172338 8.091898
v 0.999972 0.202036 1.251681
v 0.999972 0.202036 1.251681
v 0.902175 0.172338 8.091898
v 0.952329 0.214801 8.082150
v 1.322668 0.101189 1.034453
v -0.558965 -0.019179 -0.644885
v 1.146718 0.131050 1.082665
v 1.146718 0.131050 1.082665
v -0.558965 -0.019179 -0.644885
v 1.322668 0.101189 1.034453
v 1.146718 0.131050 1.082665
v 1.217447 0.071212 8.092774
v 1.322668 0.101189 1.034453
v 1.322668 0.101189 1.034453
v 1.217447 0.071212 8.092774
v 1.274049 0.116470 8.081594
v 0.999972 0.202036 1.251681
v 0.952329 0.214801 8.082150
v 0.861454 0.259080 1.240070
v 0.902175 0.172338 8.091898
v 1.322668 0.101189 1.034453
v 1.274049 0.116470 8.081594
v 1.146718 0.131050 1.082665
v 1.217447 0.071212 8.092774
vt 0.033569 0.974136
vt 0.039795 -0.000977
vt 0.052460 0.972000
vt 0.048431 0.972137
vt 0.044464 -0.000977
vt 0.050201 0.000488
vt 0.119385 -0.000977
vt 0.106873 0.356445
vt 0.097229 0.011230
vt 0.132690 0.010742
vt 0.123596 0.356445
vt 0.109924 -0.000977
vt -0.003891 0.996639
vt 0.007160 -0.000977
vt 0.020721 1.002901
vt 0.016373 1.003036
vt 0.011383 -0.000977
vt 0.018280 0.000488
vt 0.044708 0.972031
vt 0.050293 0.000488
vt 0.063293 0.974060
vt 0.057465 -0.000977
vt 0.012405 1.002928
vt 0.018066 0.000488
vt 0.036224 0.996513
vt 0.026108 -0.000977
vt1 0.911621 0.996658
vt1 0.925293 0.007324
vt1 0.952637 0.994499
vt1 0.943848 0.994629
vt1 0.935059 0.007324
vt1 0.947754 0.008789
vt1 0.362061 0.002930
vt1 0.289795 0.976944
vt1 0.234009 0.037598
vt1 0.439209 0.037598
vt1 0.386475 0.976852
vt1 0.307617 0.003418
vt1 0.806152 0.988632
vt1 0.829102 0.007324
vt1 0.857422 0.994793
vt1 0.848633 0.994926
vt1 0.837891 0.006836
vt1 0.852539 0.008789
vt1 0.935547 0.994526
vt1 0.947754 0.008789
vt1 0.976074 0.996580
vt1 0.963379 0.007324
vt1 0.840332 0.994820
vt1 0.852051 0.008789
vt1 0.890137 0.988510
vt1 0.869141 0.007324
vn -0.031496 -1.000000 0.000000
vn -0.007874 -1.000000 0.000000
vn 0.078740 -1.000000 0.000000
vn 1.000000 -0.039370 0.000000
vn 0.803150 -0.598425 0.000000
vn 0.960630 0.283465 -0.000000
vn 0.039370 -1.000000 -0.039370
vn 0.007874 -1.000000 -0.007874
vn -0.015748 -1.000000 0.015748
vn -0.023622 1.000000 0.023622
vn 0.007874 1.000000 -0.007874
vn 0.039370 1.000000 -0.039370
vn -0.047244 -1.000000 0.000000
vn -0.007874 -1.000000 0.000000
vn 0.078740 -1.000000 0.000000
vn 1.000000 -0.031496 0.000000
vn 0.755906 -0.653543 0.000000
vn 0.960630 0.267716 -0.000000
vn 0.078740 1.000000 -0.000000
vn 0.023622 1.000000 -0.000000
vn -0.023622 1.000000 -0.000000
vn -0.007874 1.000000 -0.000000
vn 0.078740 1.000000 -0.000000
vn 0.031496 1.000000 -0.000000
vn -0.047244 1.000000 -0.000000
vn -0.007874 1.000000 -0.000000
tan 0.007874 -0.000248 1.000000 1.000000
tan 0.000000 0.000000 1.000000 1.000000
tan 0.031496 0.002480 1.000000 1.000000
tan 0.000000 0.000000 1.000000 1.000000
tan -0.004712 -0.006324 0.803149 1.000000
tan 0.000000 0.000000 0.960630 1.000000
tan 0.724409 0.001240 0.692913 1.000000
tan 0.716535 0.000186 0.692913 1.000000
tan 0.685039 0.000744 0.732283 1.000000
tan 0.685039 -0.000930 0.724409 1.000000
tan 0.716535 -0.000124 0.700787 1.000000
tan 0.716535 -0.000930 0.692913 1.000000
tan 0.000000 0.000000 1.000000 1.000000
tan 0.000000 0.000000 1.000000 1.000000
tan 0.031496 0.002480 1.000000 1.000000
tan 0.000000 0.000000 1.000000 1.000000
tan -0.005146 -0.005952 0.755905 1.000000
tan 0.000000 0.000000 0.960630 1.000000
tan 0.023622 -0.001860 1.000000 1.000000
tan 0.007874 -0.000186 1.000000 1.000000
tan 0.007874 0.000186 1.000000 1.000000
tan 0.000000 0.000000 1.000000 1.000000
tan 0.023622 -0.001860 1.000000 1.000000
tan 0.007874 -0.000248 1.000000 1.000000
tan 0.000000 0.000000 1.000000 1.000000
tan 0.000000 0.000000 1.000000 1.000000
f 3/3/3 2/2/2 1/1/1
f 6/6/6 5/5/5 4/4/4
f 9/9/9 8/8/8 7/7/7
f 12/12/12 11/11/11 10/10/10
f 15/15/15 14/14/14 13/13/13
f 18/18/18 17/17/17 16/16/16
f 21/21/21 20/20/20 19/19/19
f 22/22/22 20/20/20 21/21/21
f 25/25/25 24/24/24 23/23/23
f 26/26/26 24/24/24 25/25/25
