mtllib SM_Food_SM_Waffle.mtl
g SM_Food_SM_Waffle
#Vertices 42
#Indices 132
#Section 0 Offset 0 NumIndices 132 MaterialIndex 0 MI_Food
v -0.141302 -0.003285 -0.096096
v 0.122003 0.007277 -0.100736
v -0.141423 0.001783 -0.099548
v 0.122124 0.002209 -0.097284
v 0.122953 0.004255 0.096109
v -0.140472 -0.001239 0.097297
v -0.140565 0.003901 0.100642
v 0.122861 0.009395 0.099454
v 0.122326 0.035018 0.099186
v -0.141100 0.029524 0.100374
v 0.122204 0.040086 0.095734
v -0.141221 0.034592 0.096922
v -0.142051 0.032546 -0.096471
v 0.121375 0.038040 -0.097659
v 0.121467 0.032900 -0.101004
v -0.141959 0.027406 -0.099816
v -0.141423 0.001783 -0.099548
v 0.122003 0.007277 -0.100736
v -0.141302 -0.003285 -0.096096
v -0.141423 0.001783 -0.099548
v -0.145303 0.001738 -0.096132
v -0.140472 -0.001239 0.097297
v -0.141959 0.027406 -0.099816
v -0.144473 0.003784 0.097261
v -0.140565 0.003901 0.100642
v -0.145838 0.027361 -0.096400
v -0.142051 0.032546 -0.096471
v -0.141221 0.034592 0.096922
v -0.145009 0.029407 0.096993
v -0.141100 0.029524 0.100374
v 0.122326 0.035018 0.099186
v 0.122204 0.040086 0.095734
v 0.126205 0.035063 0.095770
v 0.122861 0.009395 0.099454
v 0.121375 0.038040 -0.097659
v 0.126741 0.009440 0.096038
v 0.122953 0.004255 0.096109
v 0.125376 0.033017 -0.097623
v 0.121467 0.032900 -0.101004
v 0.122124 0.002209 -0.097284
v 0.125912 0.007394 -0.097355
v 0.122003 0.007277 -0.100736
vt 0.000051 0.342773
vt 0.197510 0.347656
vt 0.000051 0.347656
vt 0.197510 0.342773
vt 0.197510 0.197754
vt 0.000029 0.197754
vt 0.000028 0.193359
vt 0.197510 0.193359
vt 0.197510 0.174316
vt 0.000025 0.174316
vt 0.197510 0.169434
vt 0.000025 0.169434
vt 0.000003 0.024414
vt 0.197510 0.024414
vt 0.197510 0.020020
vt 0.000003 0.020020
vt 0.000000 0.000488
vt 0.197510 0.000488
vt 0.908203 0.433594
vt 0.912598 0.430176
vt 0.913086 0.434082
vt 0.908203 0.579346
vt 0.932617 0.430176
vt 0.913086 0.578857
vt 0.912598 0.582764
vt 0.932129 0.434082
vt 0.937012 0.433594
vt 0.937012 0.579346
vt 0.932129 0.578857
vt 0.932617 0.582764
vt 0.912598 0.741455
vt 0.908203 0.738281
vt 0.913086 0.737793
vt 0.932617 0.741455
vt 0.908203 0.592285
vt 0.932129 0.737793
vt 0.937012 0.738281
vt 0.913086 0.592773
vt 0.912598 0.588867
vt 0.937012 0.592285
vt 0.932129 0.592773
vt 0.932617 0.589111
vt1 0.008202 0.978897
vt1 0.568359 0.991859
vt1 0.008209 0.991936
vt1 0.568359 0.978821
vt1 0.568359 0.567627
vt1 0.008141 0.567627
vt1 0.008141 0.554688
vt1 0.568359 0.554688
vt1 0.568359 0.500000
vt1 0.008133 0.500244
vt1 0.568359 0.487305
vt1 0.008133 0.487305
vt1 0.008072 0.076172
vt1 0.568359 0.075684
vt1 0.568359 0.062988
vt1 0.008072 0.062988
vt1 0.008064 0.008301
vt1 0.568359 0.008301
vt1 0.588379 0.031250
vt1 0.616699 0.009766
vt1 0.619629 0.034668
vt1 0.588379 0.970337
vt1 0.746094 0.010254
vt1 0.619629 0.967316
vt1 0.616699 0.991432
vt1 0.743164 0.034668
vt1 0.774414 0.031250
vt1 0.774414 0.970337
vt1 0.743652 0.967224
vt1 0.746094 0.991936
vt1 0.826172 0.991440
vt1 0.798340 0.970352
vt1 0.829102 0.967346
vt1 0.956055 0.991936
vt1 0.798340 0.031250
vt1 0.953125 0.967224
vt1 0.983887 0.970322
vt1 0.829102 0.034668
vt1 0.826172 0.009766
vt1 0.983887 0.031250
vt1 0.953125 0.034668
vt1 0.955566 0.010254
vn 0.000000 -1.000000 -0.015748
vn 0.007874 -0.118110 -0.992126
vn -0.015748 -0.118110 -0.992126
vn 0.039370 -1.000000 -0.015748
vn 0.039370 -1.000000 0.039370
vn 0.000000 -1.000000 0.039370
vn -0.007874 -0.102362 0.992126
vn 0.015748 -0.094488 0.992126
vn 0.015748 0.118110 0.992126
vn -0.007874 0.118110 0.992126
vn 0.000000 1.000000 0.015748
vn -0.039370 1.000000 0.015748
vn -0.039370 1.000000 -0.039370
vn 0.000000 1.000000 -0.039370
vn 0.007874 0.102362 -0.992126
vn -0.015748 0.094488 -0.992126
vn -0.015748 -0.118110 -0.992126
vn 0.007874 -0.118110 -0.992126
vn 0.000000 -1.000000 -0.015748
vn -0.015748 -0.118110 -0.992126
vn -0.992126 -0.141732 -0.007874
vn 0.000000 -1.000000 0.039370
vn -0.015748 0.094488 -0.992126
vn -0.992126 -0.141732 0.023622
vn -0.007874 -0.102362 0.992126
vn -0.992126 0.102362 -0.015748
vn -0.039370 1.000000 -0.039370
vn -0.039370 1.000000 0.015748
vn -0.992126 0.102362 0.023622
vn -0.007874 0.118110 0.992126
vn 0.015748 0.118110 0.992126
vn 0.000000 1.000000 0.015748
vn 0.992126 0.141732 0.007874
vn 0.015748 -0.094488 0.992126
vn 0.000000 1.000000 -0.039370
vn 0.992126 -0.102362 0.015748
vn 0.039370 -1.000000 0.039370
vn 0.992126 0.141732 -0.023622
vn 0.007874 0.102362 -0.992126
vn 0.039370 -1.000000 -0.015748
vn 0.992126 -0.102362 -0.023622
vn 0.007874 -0.118110 -0.992126
tan 0.007874 -0.015748 1.000000 1.000000
tan 0.022506 -0.992188 0.118296 1.000000
tan 0.017484 -0.992374 0.117862 1.000000
tan 0.008494 -0.015438 1.001550 1.000000
tan 0.006324 0.039680 1.001550 1.000000
tan 0.007874 0.039370 1.000000 1.000000
tan -0.016430 0.992188 0.102238 1.000000
tan -0.021948 0.992374 0.094860 1.000000
tan -0.017484 0.992374 -0.117862 1.000000
tan -0.022506 0.992188 -0.118296 1.000000
tan -0.007874 0.015748 -1.000000 1.000000
tan -0.008494 0.015438 -1.001550 1.000000
tan -0.006324 -0.039680 -1.001550 1.000000
tan 0.000000 -0.039370 -1.000000 1.000000
tan 0.024242 -0.992188 -0.102176 1.000000
tan 0.021948 -0.992374 -0.094860 1.000000
tan 0.017484 -0.992374 0.117862 1.000000
tan 0.022506 -0.992188 0.118296 1.000000
tan 0.173228 0.015500 -0.984252 1.000000
tan 0.974828 0.209064 -0.040362 1.000000
tan 0.010044 -0.014508 -1.004402 1.000000
tan -0.078740 -0.039370 -1.000000 1.000000
tan 0.961250 -0.272057 -0.041168 1.000000
tan -0.026784 0.020088 -1.004402 1.000000
tan -0.947114 -0.303925 -0.038874 1.000000
tan 0.018042 0.021824 -0.994792 1.000000
tan 0.072416 -0.036580 -1.001550 1.000000
tan -0.181722 0.008370 -0.985802 1.000000
tan -0.025854 -0.021018 -0.994792 1.000000
tan -0.982640 0.170934 -0.028148 1.000000
tan 0.950462 0.310745 -0.052080 1.000000
tan 0.070866 0.015748 -1.000000 1.000000
tan 0.014508 -0.045756 -1.004402 1.000000
tan 0.985430 -0.170376 -0.031868 1.000000
tan -0.181412 -0.038750 -0.984252 1.000000
tan 0.015624 -0.001612 -0.994792 1.000000
tan 0.167214 -0.032240 -0.986112 1.000000
tan -0.023436 -0.003348 -1.004402 1.000000
tan -0.978362 -0.210180 -0.029450 1.000000
tan -0.079360 0.012648 -1.001550 1.000000
tan -0.028272 -0.044454 -0.994792 1.000000
tan -0.958274 0.264740 -0.039122 1.000000
f 3/3/3 2/2/2 1/1/1
f 4/4/4 1/1/1 2/2/2
f 4/4/4 5/5/5 1/1/1
f 6/6/6 1/1/1 5/5/5
f 6/6/6 5/5/5 7/7/7
f 8/8/8 7/7/7 5/5/5
f 8/8/8 9/9/9 7/7/7
f 10/10/10 7/7/7 9/9/9
f 11/11/11 10/10/10 9/9/9
f 10/10/10 11/11/11 12/12/12
f 12/12/12 11/11/11 13/13/13
f 13/13/13 11/11/11 14/14/14
f 15/15/15 13/13/13 14/14/14
f 13/13/13 15/15/15 16/16/16
f 17/17/17 16/16/16 15/15/15
f 18/18/18 17/17/17 15/15/15
f 21/21/21 20/20/20 19/19/19
f 19/19/19 22/22/22 21/21/21
f 20/20/20 21/21/21 23/23/23
f 24/24/24 21/21/21 22/22/22
f 22/22/22 25/25/25 24/24/24
f 23/23/23 21/21/21 26/26/26
f 21/21/21 24/24/24 26/26/26
f 27/27/27 23/23/23 26/26/26
f 26/26/26 28/28/28 27/27/27
f 25/25/25 29/29/29 24/24/24
f 29/29/29 26/26/26 24/24/24
f 29/29/29 28/28/28 26/26/26
f 30/30/30 29/29/29 25/25/25
f 30/30/30 28/28/28 29/29/29
f 33/33/33 32/32/32 31/31/31
f 31/31/31 34/34/34 33/33/33
f 32/32/32 33/33/33 35/35/35
f 36/36/36 33/33/33 34/34/34
f 36/36/36 34/34/34 37/37/37
f 38/38/38 35/35/35 33/33/33
f 33/33/33 36/36/36 38/38/38
f 38/38/38 39/39/39 35/35/35
f 37/37/37 40/40/40 36/36/36
f 38/38/38 41/41/41 39/39/39
f 41/41/41 38/38/38 36/36/36
f 41/41/41 36/36/36 40/40/40
f 42/42/42 39/39/39 41/41/41
f 40/40/40 42/42/42 41/41/41
