mtllib SM_FoodPot_11_LOD3.mtl
g SM_FoodPot_11_LOD3
#Vertices 81
#Indices 195
#Section 0 Offset 0 NumIndices 90 MaterialIndex 0 MI_FoodPot_Jelly
#Section 1 Offset 90 NumIndices 105 MaterialIndex 1 MI_FoodPot
v -0.000063 0.001624 0.035830
v -0.022897 0.111094 0.028405
v 0.000059 0.111082 0.036547
v -0.020145 0.002620 0.029648
v -0.036719 0.001290 0.002660
v -0.030843 0.000001 0.017361
v -0.034864 0.111083 0.005522
v -0.031623 0.111080 -0.016110
v -0.024283 0.002108 -0.027601
v -0.009973 0.111081 -0.035282
v 0.004184 0.002182 -0.035959
v 0.021186 0.111101 -0.029339
v 0.020596 0.072153 -0.028347
v 0.033531 0.072192 -0.012795
v 0.021045 0.001940 -0.028696
v 0.037079 0.111029 0.010671
v 0.026457 0.000019 -0.024832
v 0.037027 0.000705 -0.000326
v 0.033482 0.072217 0.012302
v 0.020596 0.072153 0.028347
v 0.000059 0.111082 0.036547
v 0.021197 0.002522 0.028828
v 0.025605 0.000045 0.025246
v -0.000063 0.001624 0.035830
v -0.020145 0.002620 0.029648
v -0.000063 0.001624 0.035830
v -0.030843 0.000001 0.017361
v 0.025605 0.000045 0.025246
v 0.037027 0.000705 -0.000326
v 0.026457 0.000019 -0.024832
v 0.004184 0.002182 -0.035959
v -0.024283 0.002108 -0.027601
v -0.036719 0.001290 0.002660
v 0.026404 0.106784 -0.026620
v 0.007029 0.105574 -0.035949
v 0.033947 0.105462 -0.012410
v 0.034367 0.118692 0.015808
v 0.018264 0.119039 0.030424
v 0.035192 0.117128 0.001561
v -0.004858 0.118356 -0.036845
v 0.010988 0.117757 -0.033237
v -0.023147 0.117749 -0.027466
v 0.004991 0.106714 0.037507
v 0.026858 0.106787 0.026633
v 0.034941 0.105446 0.009795
v -0.033457 0.105562 0.015231
v -0.021276 0.106580 0.032134
v 0.020596 0.072153 -0.028347
v 0.021045 0.001940 -0.028696
v 0.033531 0.072192 -0.012795
v 0.037027 0.000705 -0.000326
v 0.033482 0.072217 0.012302
v 0.021197 0.002522 0.028828
v 0.020596 0.072153 0.028347
v 0.018264 0.119039 0.030424
v -0.003795 0.120624 0.035600
v -0.025677 0.117408 0.024156
v 0.035192 0.117128 0.001561
v 0.028323 0.117821 -0.020204
v 0.010988 0.117757 -0.033237
v -0.023147 0.117749 -0.027466
v -0.035807 0.119809 -0.000932
v -0.028341 0.105524 -0.029203
v -0.023147 0.117749 -0.027466
v -0.035807 0.119809 -0.000932
v -0.004858 0.118356 -0.036845
v -0.033457 0.105562 0.015231
v 0.007029 0.105574 -0.035949
v -0.025677 0.117408 0.024156
v 0.010988 0.117757 -0.033237
v -0.021276 0.106580 0.032134
v 0.026404 0.106784 -0.026620
v -0.003795 0.120624 0.035600
v 0.028323 0.117821 -0.020204
v 0.004991 0.106714 0.037507
v 0.033947 0.105462 -0.012410
v 0.018264 0.119039 0.030424
v 0.035192 0.117128 0.001561
v 0.026858 0.106787 0.026633
v 0.034941 0.105446 0.009795
v 0.034367 0.118692 0.015808
vt 0.100220 0.859253
vt 0.130249 0.997511
vt 0.099915 0.997505
vt 0.126709 0.860474
vt 0.166504 0.858887
vt 0.146973 0.857178
vt 0.162720 0.997511
vt 0.190430 0.997511
vt 0.207031 0.859863
vt 0.226685 0.997515
vt 0.243896 0.859985
vt 0.266357 0.997513
vt 0.266602 0.948334
vt 0.291992 0.948364
vt 0.266846 0.859619
vt 0.320557 0.997503
vt 0.274902 0.857178
vt 0.307861 0.859497
vt 0.323730 0.948395
vt 0.349609 0.948303
vt 0.377441 0.997513
vt 0.349121 0.860352
vt 0.342529 0.857178
vt 0.377441 0.859253
vt 0.859863 0.007324
vt 0.885254 -0.000977
vt 0.846680 0.023438
vt 0.917969 0.011719
vt 0.933105 0.043945
vt 0.920410 0.075195
vt 0.892578 0.089844
vt 0.855957 0.080078
vt 0.840332 0.041992
vt 0.920898 0.120605
vt 0.887695 0.114746
vt 0.946289 0.128418
vt 0.948242 0.172363
vt 0.939453 0.196289
vt 0.942383 0.157227
vt 0.879883 0.138672
vt 0.897949 0.133789
vt 0.865234 0.158203
vt 0.941406 0.228516
vt 0.958496 0.191895
vt 0.964844 0.163574
vt 0.865234 0.223633
vt 0.897949 0.231445
vt 0.774414 0.967773
vt 0.774902 0.884766
vt 0.798340 0.967834
vt 0.812988 0.883301
vt 0.828125 0.967865
vt 0.852051 0.885437
vt 0.852539 0.967773
vt 0.937988 0.195312
vt 0.918457 0.211426
vt 0.891113 0.211426
vt 0.939941 0.158203
vt 0.921875 0.140137
vt 0.898438 0.135742
vt 0.867188 0.158691
vt 0.868164 0.191406
vt 0.845703 0.156250
vt 0.862305 0.158203
vt 0.866699 0.192383
vt 0.879395 0.138672
vt 0.867188 0.218750
vt 0.887207 0.118652
vt 0.889648 0.216797
vt 0.897461 0.130371
vt 0.897461 0.231934
vt 0.920898 0.120117
vt 0.918945 0.212891
vt 0.924805 0.135254
vt 0.937012 0.220703
vt 0.943359 0.132324
vt 0.940430 0.197266
vt 0.944824 0.155762
vt 0.958984 0.191406
vt 0.960449 0.161621
vt 0.947754 0.172852
vt1 0.007626 0.558838
vt1 0.101746 0.991928
vt1 0.006721 0.991905
vt1 0.090698 0.562744
vt1 0.215088 0.557373
vt1 0.154297 0.552002
vt1 0.203369 0.991928
vt1 0.290039 0.991928
vt1 0.342285 0.560547
vt1 0.403809 0.991936
vt1 0.457764 0.560791
vt1 0.528320 0.991928
vt1 0.528809 0.837891
vt1 0.608398 0.838013
vt1 0.529785 0.560059
vt1 0.697754 0.991898
vt1 0.554688 0.552490
vt1 0.658203 0.559570
vt1 0.707520 0.838135
vt1 0.789062 0.837769
vt1 0.876465 0.991928
vt1 0.787598 0.562256
vt1 0.766602 0.552490
vt1 0.876465 0.558594
vt1 0.499512 0.269531
vt1 0.578613 0.243652
vt1 0.458496 0.319824
vt1 0.681152 0.283691
vt1 0.728516 0.383789
vt1 0.688965 0.481934
vt1 0.601562 0.527588
vt1 0.487793 0.497070
vt1 0.438232 0.377930
vt1 0.269043 0.137695
vt1 0.157349 0.118652
vt1 0.355469 0.164062
vt1 0.361328 0.313965
vt1 0.331543 0.394531
vt1 0.340820 0.262695
vt1 0.130005 0.199707
vt1 0.191650 0.183594
vt1 0.081543 0.264648
vt1 0.337646 0.502197
vt1 0.395752 0.379395
vt1 0.416748 0.283691
vt1 0.081055 0.486816
vt1 0.192139 0.512451
vt1 0.717285 0.298828
vt1 0.718262 0.020508
vt1 0.797363 0.298828
vt1 0.846680 0.015625
vt1 0.896484 0.298828
vt1 0.977051 0.022949
vt1 0.978027 0.298828
vt1 0.326172 0.391602
vt1 0.260986 0.445801
vt1 0.167847 0.444824
vt1 0.333496 0.265137
vt1 0.273193 0.204102
vt1 0.192749 0.189941
vt1 0.087952 0.267578
vt1 0.090820 0.377930
vt1 0.015427 0.259277
vt1 0.071594 0.264648
vt1 0.085388 0.380859
vt1 0.129517 0.199707
vt1 0.088318 0.470215
vt1 0.155273 0.131836
vt1 0.163818 0.462402
vt1 0.190308 0.171387
vt1 0.190552 0.514893
vt1 0.268799 0.136719
vt1 0.262207 0.450195
vt1 0.281982 0.187500
vt1 0.324219 0.476074
vt1 0.345459 0.178223
vt1 0.335693 0.396973
vt1 0.350342 0.256348
vt1 0.397217 0.376953
vt1 0.402100 0.276367
vt1 0.360352 0.313965
vn 0.000000 -0.007874 1.000000
vn -0.629921 0.000000 0.779527
vn 0.007874 0.000000 1.000000
vn -0.566929 -0.007874 0.826772
vn -1.000000 0.000000 0.078740
vn -0.149606 -0.984252 0.047244
vn -0.984252 0.000000 0.157480
vn -0.889764 -0.000000 -0.456693
vn -0.661417 -0.007874 -0.748031
vn -0.275591 -0.000000 -0.960630
vn 0.133858 -0.007874 -0.992126
vn 0.574803 -0.000000 -0.818897
vn 0.527559 -0.000000 -0.850394
vn 0.937008 -0.000000 -0.354331
vn 0.464567 -0.031496 -0.881890
vn 0.960630 0.000000 0.267716
vn 0.165354 -0.976378 -0.118110
vn 0.889764 -0.464567 -0.015748
vn 0.944882 0.000000 0.338583
vn 0.527559 0.000000 0.850394
vn 0.047244 0.000000 1.000000
vn 0.472441 -0.007874 0.881890
vn 0.149606 -0.976378 0.125984
vn 0.031496 -0.031496 1.000000
vn -0.094488 -0.984252 0.141732
vn 0.000000 -0.984252 0.173228
vn -0.149606 -0.984252 0.086614
vn 0.125984 -0.984252 0.125984
vn 0.181102 -0.984252 0.000000
vn 0.125984 -0.984252 -0.118110
vn 0.023622 -0.984252 -0.173228
vn -0.118110 -0.984252 -0.133858
vn -0.173228 -0.984252 0.015748
vn 0.000000 -1.000000 0.000000
vn 0.000000 -1.000000 0.000000
vn 0.000000 -1.000000 0.000000
vn 0.157480 0.984252 0.070866
vn 0.031496 1.000000 0.023622
vn -0.086614 0.992126 -0.047244
vn -0.039370 0.984252 -0.188976
vn 0.015748 1.000000 0.047244
vn 0.007874 1.000000 0.023622
vn 0.000000 -1.000000 0.000000
vn 0.000000 -1.000000 0.000000
vn 0.000000 -1.000000 0.000000
vn 0.000000 -1.000000 0.000000
vn 0.000000 -1.000000 0.000000
vn 0.708661 -0.000000 -0.708661
vn 0.685039 -0.000000 -0.724409
vn 0.921260 -0.000000 -0.377953
vn 1.000000 -0.000000 -0.015748
vn 0.929134 0.000000 0.362205
vn 0.669291 0.000000 0.740157
vn 0.708661 0.000000 0.708661
vn 0.000000 1.000000 -0.000000
vn 0.000000 1.000000 -0.000000
vn 0.000000 1.000000 -0.000000
vn 0.000000 1.000000 -0.000000
vn 0.000000 1.000000 -0.000000
vn 0.000000 1.000000 -0.000000
vn 0.000000 1.000000 -0.000000
vn 0.000000 1.000000 -0.000000
vn -0.708661 -0.007874 -0.700787
vn -0.661417 0.039370 -0.748031
vn -1.000000 0.055118 -0.031496
vn -0.125984 0.055118 -0.992126
vn -0.913386 -0.007874 0.401575
vn 0.188976 -0.007874 -0.984252
vn -0.740157 0.047244 0.669291
vn 0.330709 0.039370 -0.944882
vn -0.551181 -0.007874 0.834646
vn 0.700787 -0.000000 -0.708661
vn -0.110236 0.070866 0.992126
vn 0.818898 0.039370 -0.566929
vn 0.133858 0.000000 0.992126
vn 0.937008 -0.007874 -0.338583
vn 0.511811 0.031496 0.858268
vn 1.000000 0.055118 0.031496
vn 0.708661 0.000000 0.700787
vn 0.968504 -0.007874 0.259842
vn 0.905512 0.047244 0.417323
tan 0.000000 -1.000000 -0.007874 1.000000
tan 0.000000 -0.952446 0.000000 1.000000
tan 0.000000 -1.000000 0.000000 1.000000
tan 0.000992 -0.891686 -0.007812 1.000000
tan 0.000000 -1.000000 0.000000 1.000000
tan 0.852502 -0.153388 -0.496001 1.000000
tan 0.000000 -0.984252 0.000000 1.000000
tan 0.000000 -0.893360 0.000000 1.000000
tan 0.005022 -0.999070 0.006076 1.000000
tan 0.000000 -0.958460 0.000000 1.000000
tan 0.000000 -0.992126 0.007874 1.000000
tan 0.000000 -0.893918 0.000000 1.000000
tan 0.000000 -0.950772 0.000000 1.000000
tan 0.000000 -0.937008 0.000000 1.000000
tan -0.001488 -0.903838 0.031496 1.000000
tan 0.000000 -0.960630 0.000000 1.000000
tan -0.691921 -0.199950 0.684233 1.000000
tan -0.464567 -0.889516 -0.007316 1.000000
tan 0.000000 -0.944882 0.000000 1.000000
tan 0.000000 -0.950772 0.000000 1.000000
tan 0.000000 -1.000000 0.000000 1.000000
tan -0.000372 -0.904210 -0.007874 1.000000
tan -0.768802 -0.195176 -0.599665 1.000000
tan 0.000000 -1.000000 -0.031496 1.000000
tan 0.007750 0.140988 0.984252 1.000000
tan 0.015500 0.173228 0.984252 1.000000
tan 0.023250 0.083080 0.984252 1.000000
tan 0.038750 0.130944 0.984252 1.000000
tan 0.023250 0.004278 0.984252 1.000000
tan 0.007750 -0.117118 0.984252 1.000000
tan 0.015500 -0.172856 0.984252 1.000000
tan 0.038750 -0.138508 0.984252 1.000000
tan 0.023250 0.011656 0.984252 1.000000
tan -0.976378 0.000000 0.212598 1.000000
tan 0.141732 0.000000 0.992126 1.000000
tan -0.874016 -0.000000 -0.488189 1.000000
tan 0.472751 -0.013702 -0.860252 1.000000
tan 0.433071 0.007564 -0.897638 1.000000
tan 0.492157 0.002046 -0.859322 1.000000
tan 0.403001 -0.156488 -0.899002 1.000000
tan 0.433071 0.035960 -0.905512 1.000000
tan 0.448819 0.017670 -0.897638 1.000000
tan 0.732283 0.000000 0.685039 1.000000
tan 0.929134 -0.000000 -0.377953 1.000000
tan 0.204724 -0.000000 -0.976378 1.000000
tan -0.929134 -0.000000 -0.377953 1.000000
tan -0.763780 0.000000 0.645669 1.000000
tan 0.000000 -1.004402 0.000000 1.000000
tan 0.000000 -0.999442 0.000000 1.000000
tan 0.000000 -0.927212 0.000000 1.000000
tan 0.000000 -1.000000 0.000000 1.000000
tan 0.000000 -0.934838 0.000000 1.000000
tan 0.000000 -1.000496 0.000000 1.000000
tan 0.000000 -1.004402 0.000000 1.000000
tan 0.456693 -0.000000 -0.889764 1.000000
tan 0.456693 -0.000000 -0.889764 1.000000
tan 0.456693 -0.000000 -0.889764 1.000000
tan 0.456693 -0.000000 -0.889764 1.000000
tan 0.456693 -0.000000 -0.889764 1.000000
tan 0.456693 -0.000000 -0.889764 1.000000
tan 0.456693 -0.000000 -0.889764 1.000000
tan 0.456693 -0.000000 -0.889764 1.000000
tan 0.700973 -0.016740 -0.708661 1.000000
tan 0.747411 -0.039866 -0.662967 1.000000
tan 0.047988 0.330709 -0.944882 1.000000
tan 0.601525 -0.789013 -0.120218 1.000000
tan -0.333313 0.524149 -0.747845 1.000000
tan 0.449501 -0.875752 0.093310 1.000000
tan -0.660301 0.105710 -0.737677 1.000000
tan 0.111600 -0.937442 0.000000 1.000000
tan -0.546159 0.672081 -0.354331 1.000000
tan -0.546841 -0.627379 -0.540765 1.000000
tan 0.382789 0.914006 -0.022754 1.000000
tan -0.544857 -0.189472 -0.800173 1.000000
tan 0.734329 0.664021 -0.099076 1.000000
tan -0.279249 -0.556017 -0.759873 1.000000
tan 0.851510 0.114886 -0.511997 1.000000
tan 0.051956 -0.425197 -0.905512 1.000000
tan 0.700787 0.033356 -0.708661 1.000000
tan 0.251969 -0.213529 -0.945626 1.000000
tan 0.418067 -0.014260 -0.905512 1.000000
f 3/3/3 2/2/2 1/1/1
f 1/1/1 2/2/2 4/4/4
f 2/2/2 5/5/5 4/4/4
f 4/4/4 5/5/5 6/6/6
f 5/5/5 2/2/2 7/7/7
f 5/5/5 7/7/7 8/8/8
f 9/9/9 5/5/5 8/8/8
f 10/10/10 9/9/9 8/8/8
f 11/11/11 9/9/9 10/10/10
f 12/12/12 11/11/11 10/10/10
f 13/13/13 11/11/11 12/12/12
f 14/14/14 13/13/13 12/12/12
f 15/15/15 11/11/11 13/13/13
f 16/16/16 14/14/14 12/12/12
f 15/15/15 17/17/17 11/11/11
f 17/17/17 15/15/15 18/18/18
f 14/14/14 16/16/16 19/19/19
f 20/20/20 19/19/19 16/16/16
f 16/16/16 21/21/21 20/20/20
f 20/20/20 21/21/21 22/22/22
f 22/22/22 23/23/23 18/18/18
f 22/22/22 21/21/21 24/24/24
f 23/23/23 22/22/22 24/24/24
f 27/27/27 26/26/26 25/25/25
f 27/27/27 28/28/28 26/26/26
f 27/27/27 29/29/29 28/28/28
f 27/27/27 30/30/30 29/29/29
f 27/27/27 31/31/31 30/30/30
f 27/27/27 32/32/32 31/31/31
f 27/27/27 33/33/33 32/32/32
f 36/36/36 35/35/35 34/34/34
f 39/39/39 38/38/38 37/37/37
f 42/42/42 41/41/41 40/40/40
f 45/45/45 44/44/44 43/43/43
f 47/47/47 46/46/46 43/43/43
f 50/50/50 49/49/49 48/48/48
f 49/49/49 50/50/50 51/51/51
f 52/52/52 51/51/51 50/50/50
f 51/51/51 52/52/52 53/53/53
f 52/52/52 54/54/54 53/53/53
f 57/57/57 56/56/56 55/55/55
f 57/57/57 55/55/55 58/58/58
f 57/57/57 58/58/58 59/59/59
f 57/57/57 59/59/59 60/60/60
f 57/57/57 60/60/60 61/61/61
f 57/57/57 61/61/61 62/62/62
f 65/65/65 64/64/64 63/63/63
f 63/63/63 64/64/64 66/66/66
f 63/63/63 67/67/67 65/65/65
f 68/68/68 63/63/63 66/66/66
f 69/69/69 65/65/65 67/67/67
f 68/68/68 66/66/66 70/70/70
f 67/67/67 71/71/71 69/69/69
f 72/72/72 68/68/68 70/70/70
f 73/73/73 69/69/69 71/71/71
f 72/72/72 70/70/70 74/74/74
f 75/75/75 73/73/73 71/71/71
f 74/74/74 76/76/76 72/72/72
f 77/77/77 73/73/73 75/75/75
f 78/78/78 76/76/76 74/74/74
f 79/79/79 77/77/77 75/75/75
f 78/78/78 80/80/80 76/76/76
f 77/77/77 79/79/79 81/81/81
f 81/81/81 80/80/80 78/78/78
f 81/81/81 79/79/79 80/80/80
