mtllib SM_FoodPot_10_LOD2.mtl
g SM_FoodPot_10_LOD2
#Vertices 64
#Indices 150
#Section 0 Offset 0 NumIndices 69 MaterialIndex 0 MI_FoodPot
#Section 1 Offset 69 NumIndices 81 MaterialIndex 1 MI_FoodPot_Jelly
v 0.041616 0.117286 0.018639
v -0.009467 0.120292 0.045901
v 0.019794 0.116508 0.041509
v -0.032997 0.116264 0.032497
v -0.045798 0.116729 -0.000219
v -0.031964 0.116410 -0.032907
v -0.011010 0.110518 -0.045739
v 0.003062 0.116407 -0.047404
v 0.038273 0.116911 -0.025270
v -0.030539 0.026007 0.024613
v 0.000000 0.091266 0.041995
v 0.000000 0.025985 0.036508
v -0.040337 0.091598 0.021242
v -0.035592 0.025903 -0.012349
v -0.029926 0.091807 -0.035066
v -0.001450 0.025831 -0.040907
v 0.024876 0.091362 -0.035372
v 0.038154 0.025964 -0.008077
v 0.044084 0.091472 0.002866
v 0.024106 0.025934 0.029435
v 0.025223 0.091323 0.034934
v 0.000000 0.091266 0.041995
v 0.000000 0.025985 0.036508
v -0.009467 0.120292 0.045901
v -0.032997 0.116264 0.032497
v -0.045798 0.116729 -0.000219
v 0.019794 0.116508 0.041509
v 0.041616 0.117286 0.018639
v 0.038273 0.116911 -0.025270
v 0.003062 0.116407 -0.047404
v -0.031964 0.116410 -0.032907
v 0.000337 -0.000634 0.037086
v 0.000000 0.025985 0.036508
v 0.024106 0.025934 0.029435
v 0.032209 0.000021 0.013908
v 0.038154 0.025964 -0.008077
v 0.029392 -0.000048 -0.020645
v -0.001450 0.025831 -0.040907
v -0.001653 0.000234 -0.035005
v -0.030913 -0.000258 -0.017925
v -0.035592 0.025903 -0.012349
v -0.031373 0.000019 0.015583
v -0.030539 0.026007 0.024613
v 0.000337 -0.000634 0.037086
v 0.000000 0.025985 0.036508
v 0.000000 0.091266 0.041995
v 0.000000 0.113129 0.043833
v 0.025223 0.091323 0.034934
v 0.039802 0.113299 0.024821
v 0.044084 0.091472 0.002866
v 0.039304 0.113146 -0.019823
v 0.024876 0.091362 -0.035372
v -0.005554 0.112939 -0.048156
v -0.029926 0.091807 -0.035066
v -0.051008 0.113134 0.004671
v -0.040337 0.091598 0.021242
v 0.000000 0.113129 0.043833
v 0.000000 0.091266 0.041995
v -0.031373 0.000019 0.015583
v 0.000337 -0.000634 0.037086
v -0.030913 -0.000258 -0.017925
v 0.032209 0.000021 0.013908
v 0.029392 -0.000048 -0.020645
v -0.001653 0.000234 -0.035005
vt 0.604980 0.113281
vt 0.537598 0.092285
vt 0.566406 0.111328
vt 0.530762 0.060059
vt 0.542969 0.016602
vt 0.585449 0.006348
vt 0.617676 0.006836
vt 0.625977 0.023438
vt 0.643066 0.070801
vt 0.250488 0.885559
vt 0.290283 0.808350
vt 0.290283 0.885559
vt 0.241577 0.808228
vt 0.202637 0.885620
vt 0.177979 0.807373
vt 0.146606 0.885803
vt 0.117065 0.808228
vt 0.081970 0.885559
vt 0.069336 0.808105
vt 0.031250 0.885620
vt 0.028397 0.808228
vt 0.000000 0.808350
vt 0.000000 0.885559
vt 0.539062 0.090332
vt 0.530762 0.059570
vt 0.547363 0.021973
vt 0.566895 0.110840
vt 0.604004 0.110352
vt 0.638184 0.070801
vt 0.626953 0.023438
vt 0.585938 0.006348
vt 0.115723 0.854980
vt 0.106934 0.822266
vt 0.137573 0.814941
vt 0.164551 0.843384
vt 0.187012 0.806641
vt 0.208008 0.838257
vt 0.250488 0.803223
vt 0.251221 0.836182
vt 0.294189 0.838501
vt 0.305664 0.806396
vt 0.336182 0.843750
vt 0.351562 0.812988
vt 0.383545 0.855103
vt 0.391602 0.822266
vt 0.085510 0.742432
vt 0.078308 0.715576
vt 0.117554 0.734375
vt 0.132690 0.703125
vt 0.163330 0.726562
vt 0.188721 0.695801
vt 0.217041 0.721436
vt 0.255127 0.692627
vt 0.286133 0.722168
vt 0.340576 0.698486
vt 0.356934 0.729004
vt 0.420166 0.715576
vt 0.412842 0.742432
vt 0.788086 0.283691
vt 0.760254 0.244629
vt 0.830566 0.282227
vt 0.788574 0.203613
vt 0.832520 0.206055
vt 0.851074 0.245117
vt1 0.275635 0.679932
vt1 0.048676 0.608398
vt1 0.146484 0.672363
vt1 0.026733 0.500732
vt1 0.068115 0.354492
vt1 0.210327 0.319824
vt1 0.317871 0.321289
vt1 0.346436 0.376953
vt1 0.404053 0.536621
vt1 0.847168 0.991951
vt1 0.980957 0.731689
vt1 0.980957 0.991936
vt1 0.817383 0.731201
vt1 0.686523 0.992264
vt1 0.604004 0.728516
vt1 0.499023 0.992817
vt1 0.400146 0.731445
vt1 0.282471 0.992004
vt1 0.240356 0.730957
vt1 0.112793 0.992142
vt1 0.103210 0.731689
vt1 0.008064 0.731689
vt1 0.008064 0.991936
vt1 0.054535 0.602295
vt1 0.026016 0.499023
vt1 0.081726 0.372070
vt1 0.148315 0.672119
vt1 0.273193 0.669189
vt1 0.386719 0.537109
vt1 0.350342 0.376953
vt1 0.211792 0.319336
vt1 0.035614 0.301270
vt1 0.008064 0.198730
vt1 0.104248 0.175293
vt1 0.189087 0.265137
vt1 0.259766 0.149414
vt1 0.325928 0.248535
vt1 0.459717 0.138184
vt1 0.461670 0.242188
vt1 0.596680 0.249512
vt1 0.632812 0.148438
vt1 0.728516 0.266113
vt1 0.777344 0.169434
vt1 0.877441 0.301758
vt1 0.902344 0.198730
vt1 0.028732 0.153320
vt1 0.008064 0.076172
vt1 0.120911 0.130371
vt1 0.164429 0.040039
vt1 0.252686 0.107910
vt1 0.325684 0.019531
vt1 0.407227 0.093262
vt1 0.517090 0.010254
vt1 0.606445 0.095215
vt1 0.762695 0.027344
vt1 0.809570 0.114746
vt1 0.991699 0.076172
vt1 0.971191 0.153320
vt1 0.504395 0.691895
vt1 0.416260 0.567627
vt1 0.637207 0.687012
vt1 0.505371 0.439453
vt1 0.643066 0.447266
vt1 0.702637 0.569336
vn 0.913386 0.000000 0.409449
vn -0.196850 0.000000 0.984252
vn 0.433071 0.000000 0.905512
vn -0.716535 0.000000 0.700787
vn -1.000000 -0.000000 -0.031496
vn -0.692913 -0.000000 -0.716535
vn -0.236220 -0.000000 -0.968504
vn 0.062992 -0.000000 -1.000000
vn 0.826772 -0.000000 -0.566929
vn -0.763780 -0.078740 0.637795
vn 0.000000 -0.086614 1.000000
vn 0.000000 -0.086614 1.000000
vn -0.874016 -0.078740 0.472441
vn -0.937008 -0.078740 -0.338583
vn -0.637795 -0.078740 -0.763779
vn -0.023622 -0.078740 -1.000000
vn 0.566929 -0.078740 -0.818897
vn 0.976378 -0.078740 -0.212598
vn 0.992126 -0.078740 0.055118
vn 0.629921 -0.078740 0.771653
vn 0.582677 -0.078740 0.811023
vn 0.000000 -0.086614 1.000000
vn 0.000000 -0.086614 1.000000
vn 0.000000 1.000000 -0.000000
vn 0.000000 1.000000 -0.000000
vn 0.000000 1.000000 -0.000000
vn 0.000000 1.000000 -0.000000
vn 0.000000 1.000000 -0.000000
vn 0.000000 1.000000 -0.000000
vn 0.000000 1.000000 -0.000000
vn 0.000000 1.000000 -0.000000
vn 0.047244 -0.078740 0.992126
vn 0.000000 -0.086614 1.000000
vn 0.637795 -0.078740 0.763779
vn 0.913386 -0.078740 0.393701
vn 0.976378 -0.078740 -0.204724
vn 0.811024 -0.078740 -0.582677
vn -0.023622 -0.078740 -1.000000
vn -0.055118 -0.078740 -0.992126
vn -0.858268 -0.078740 -0.503937
vn -0.937008 -0.078740 -0.330709
vn -0.897638 -0.078740 0.440945
vn -0.779528 -0.078740 0.622047
vn -0.039370 -0.078740 1.000000
vn 0.000000 -0.086614 1.000000
vn 0.000000 -0.086614 1.000000
vn 0.000000 -0.086614 1.000000
vn 0.582677 -0.078740 0.811023
vn 0.842520 -0.078740 0.527559
vn 0.992126 -0.078740 0.055118
vn 0.889764 -0.086614 -0.448819
vn 0.574803 -0.078740 -0.818897
vn -0.110236 -0.078740 -0.992126
vn -0.653543 -0.078740 -0.755905
vn -0.992126 -0.070866 0.094488
vn -0.874016 -0.078740 0.480315
vn 0.000000 -0.086614 1.000000
vn 0.000000 -0.086614 1.000000
vn 0.000000 -1.000000 0.000000
vn 0.000000 -1.000000 0.000000
vn 0.000000 -1.000000 0.000000
vn 0.000000 -1.000000 0.000000
vn 0.000000 -1.000000 0.000000
vn 0.000000 -1.000000 0.000000
tan 0.235352 0.751193 -0.525017 1.000000
tan -0.875752 0.441751 -0.175150 1.000000
tan -0.541881 0.734081 0.259160 1.000000
tan -0.700787 -0.027838 -0.716535 1.000000
tan 0.023312 -0.677165 -0.740157 1.000000
tan -0.225680 -0.945192 0.218241 1.000000
tan -0.556699 -0.793105 0.135780 1.000000
tan -0.842520 -0.543307 -0.053072 1.000000
tan -0.566929 0.043524 -0.826772 1.000000
tan -0.035650 0.991134 0.079670 1.000000
tan -0.015748 1.000000 0.086614 1.000000
tan -0.015748 1.000000 0.086614 1.000000
tan -0.081840 0.922934 0.002418 1.000000
tan -0.081406 0.939674 0.006758 1.000000
tan -0.022630 0.998202 -0.084010 1.000000
tan -0.007874 1.000000 -0.078554 1.000000
tan 0.036084 0.920082 -0.063488 1.000000
tan 0.077066 0.976378 -0.007688 1.000000
tan 0.078740 0.992126 -0.000000 1.000000
tan 0.032736 0.936326 0.068820 1.000000
tan -0.005704 0.932296 0.094612 1.000000
tan 0.015748 1.000000 0.086614 1.000000
tan 0.015748 1.000000 0.086614 1.000000
tan -0.708661 -0.000000 -0.708661 1.000000
tan -0.708661 -0.000000 -0.708661 1.000000
tan -0.708661 -0.000000 -0.708661 1.000000
tan -0.708661 -0.000000 -0.708661 1.000000
tan -0.708661 -0.000000 -0.708661 1.000000
tan -0.708661 -0.000000 -0.708661 1.000000
tan -0.708661 -0.000000 -0.708661 1.000000
tan -0.708661 -0.000000 -0.708661 1.000000
tan 0.218736 0.968690 0.066464 1.000000
tan 0.259843 0.968504 0.083886 1.000000
tan 0.522723 0.720069 -0.362267 1.000000
tan 0.166780 0.901110 -0.206708 1.000000
tan 0.062620 0.976378 -0.076880 1.000000
tan -0.133052 0.910720 -0.308265 1.000000
tan 0.000000 1.000000 -0.078740 1.000000
tan 0.000000 0.992126 -0.078740 1.000000
tan 0.067828 0.865336 -0.250729 1.000000
tan -0.033852 0.932234 -0.126046 1.000000
tan -0.190836 0.879782 -0.231385 1.000000
tan -0.564387 0.511625 -0.642507 1.000000
tan -0.141732 0.992126 0.072540 1.000000
tan -0.259843 0.968504 0.083886 1.000000
tan 0.259843 0.968504 0.083886 1.000000
tan 0.259843 0.968504 0.083886 1.000000
tan 0.592907 0.636369 -0.364189 1.000000
tan 0.348193 0.777977 -0.439953 1.000000
tan 0.083328 0.984314 -0.093744 1.000000
tan 0.011036 0.893422 -0.150536 1.000000
tan -0.227044 0.892120 -0.245149 1.000000
tan 0.023436 0.992126 -0.081344 1.000000
tan 0.355757 0.841031 -0.395189 1.000000
tan -0.095790 0.945254 -0.296857 1.000000
tan -0.398103 0.647901 -0.618203 1.000000
tan -0.259843 0.968504 0.083886 1.000000
tan -0.259843 0.968504 0.083886 1.000000
tan 1.000000 -0.000000 -0.023622 1.000000
tan 1.000000 -0.000000 -0.023622 1.000000
tan 1.000000 -0.000000 -0.023622 1.000000
tan 1.000000 -0.000000 -0.023622 1.000000
tan 1.000000 -0.000000 -0.023622 1.000000
tan 1.000000 -0.000000 -0.023622 1.000000
f 3/3/3 2/2/2 1/1/1
f 5/5/5 2/2/2 4/4/4
f 7/7/7 5/5/5 6/6/6
f 7/7/7 6/6/6 8/8/8
f 9/9/9 7/7/7 8/8/8
f 12/12/12 11/11/11 10/10/10
f 13/13/13 10/10/10 11/11/11
f 14/14/14 10/10/10 13/13/13
f 15/15/15 14/14/14 13/13/13
f 14/14/14 15/15/15 16/16/16
f 17/17/17 16/16/16 15/15/15
f 16/16/16 17/17/17 18/18/18
f 19/19/19 18/18/18 17/17/17
f 18/18/18 19/19/19 20/20/20
f 21/21/21 20/20/20 19/19/19
f 21/21/21 22/22/22 20/20/20
f 20/20/20 22/22/22 23/23/23
f 26/26/26 25/25/25 24/24/24
f 26/26/26 24/24/24 27/27/27
f 26/26/26 27/27/27 28/28/28
f 26/26/26 28/28/28 29/29/29
f 26/26/26 29/29/29 30/30/30
f 26/26/26 30/30/30 31/31/31
f 34/34/34 33/33/33 32/32/32
f 35/35/35 34/34/34 32/32/32
f 34/34/34 35/35/35 36/36/36
f 37/37/37 36/36/36 35/35/35
f 36/36/36 37/37/37 38/38/38
f 39/39/39 38/38/38 37/37/37
f 39/39/39 40/40/40 38/38/38
f 38/38/38 40/40/40 41/41/41
f 40/40/40 42/42/42 41/41/41
f 43/43/43 41/41/41 42/42/42
f 44/44/44 43/43/43 42/42/42
f 43/43/43 44/44/44 45/45/45
f 48/48/48 47/47/47 46/46/46
f 49/49/49 47/47/47 48/48/48
f 50/50/50 49/49/49 48/48/48
f 49/49/49 50/50/50 51/51/51
f 52/52/52 51/51/51 50/50/50
f 51/51/51 52/52/52 53/53/53
f 54/54/54 53/53/53 52/52/52
f 53/53/53 54/54/54 55/55/55
f 56/56/56 55/55/55 54/54/54
f 55/55/55 56/56/56 57/57/57
f 58/58/58 57/57/57 56/56/56
f 61/61/61 60/60/60 59/59/59
f 61/61/61 62/62/62 60/60/60
f 61/61/61 63/63/63 62/62/62
f 61/61/61 64/64/64 63/63/63
