mtllib SM_FoodPot_09_LOD3.mtl
g SM_FoodPot_09_LOD3
#Vertices 71
#Indices 207
#Section 0 Offset 0 NumIndices 66 MaterialIndex 0 MI_FoodPot
#Section 1 Offset 66 NumIndices 141 MaterialIndex 1 MI_FoodPot_Jelly
v 0.045944 0.019112 0.027151
v 0.045632 0.106215 0.028746
v 0.054322 0.018924 -0.015218
v 0.054244 0.105640 -0.014827
v 0.053697 0.105891 -0.017208
v 0.053603 0.019112 -0.017313
v 0.026392 0.019112 -0.049612
v 0.026392 0.105640 -0.049612
v 0.035410 0.129833 0.024610
v 0.000775 0.132648 0.043341
v -0.033751 0.130283 0.026800
v -0.043803 0.130301 -0.011215
v -0.019814 0.129714 -0.041821
v 0.018644 0.130855 -0.042904
v 0.042989 0.133135 -0.014562
v 0.000775 0.132648 0.043341
v -0.037092 0.117284 0.029824
v -0.033751 0.130283 0.026800
v -0.043803 0.130301 -0.011215
v 0.011793 0.117954 0.049920
v -0.051415 0.116053 -0.029974
v 0.035410 0.129833 0.024610
v -0.019814 0.129714 -0.041821
v 0.051313 0.119417 -0.030271
v 0.018644 0.130855 -0.042904
v 0.042989 0.133135 -0.014562
v 0.001659 0.003186 0.054049
v 0.001623 0.119825 0.052531
v 0.041088 0.000656 0.028187
v 0.043263 0.118400 0.031142
v 0.045444 0.001160 0.030984
v 0.045632 0.106215 0.028746
v 0.045944 0.019112 0.027151
v 0.054244 0.105640 -0.014827
v 0.054322 0.018924 -0.015218
v 0.048256 0.120072 -0.015007
v 0.049691 -0.000290 -0.014846
v 0.053697 0.105891 -0.017208
v 0.053603 0.019112 -0.017313
v 0.026392 0.105640 -0.049612
v 0.023779 0.001020 -0.053055
v 0.022267 0.118480 -0.052481
v 0.026392 0.019112 -0.049612
v 0.021161 -0.000464 -0.049288
v -0.024083 0.001958 -0.052144
v -0.023342 0.118331 -0.050328
v -0.023142 -0.000351 -0.046749
v -0.026225 0.105662 -0.050846
v -0.053900 0.002142 -0.014296
v -0.053719 0.105640 -0.014300
v -0.053370 0.119196 -0.011183
v -0.049401 -0.000091 -0.011520
v -0.042892 0.001958 0.032645
v -0.041228 0.118638 0.031140
v -0.038445 -0.000802 0.031207
v -0.041154 0.105656 0.034454
v 0.001659 0.003186 0.054049
v 0.001623 0.119825 0.052531
v 0.049691 -0.000290 -0.014846
v 0.023779 0.001020 -0.053055
v 0.021161 -0.000464 -0.049288
v 0.045444 0.001160 0.030984
v 0.041088 0.000656 0.028187
v -0.024083 0.001958 -0.052144
v -0.023142 -0.000351 -0.046749
v -0.053900 0.002142 -0.014296
v -0.049401 -0.000091 -0.011520
v -0.042892 0.001958 0.032645
v -0.038445 -0.000802 0.031207
v 0.001454 0.003324 0.045491
v 0.001659 0.003186 0.054049
vt 0.103577 0.423828
vt 0.105530 0.526611
vt 0.052551 0.423340
vt 0.053009 0.525879
vt 0.050079 0.526123
vt 0.049927 0.423828
vt 0.000009 0.423828
vt 0.000000 0.525879
vt 0.229736 0.711426
vt 0.257568 0.674805
vt 0.302246 0.675537
vt 0.331299 0.711182
vt 0.320557 0.755249
vt 0.280273 0.775024
vt 0.240845 0.756592
vt 0.256104 0.669189
vt 0.312256 0.656494
vt 0.306396 0.667236
vt 0.338135 0.708008
vt 0.229370 0.664307
vt 0.361328 0.735107
vt 0.221313 0.710449
vt 0.328125 0.761841
vt 0.231323 0.791016
vt 0.280762 0.784912
vt 0.235596 0.761597
vt 0.536621 0.541748
vt 0.508789 0.691406
vt 0.476807 0.527832
vt 0.453857 0.675537
vt 0.473389 0.528076
vt 0.451904 0.659668
vt 0.465088 0.549805
vt 0.399414 0.651367
vt 0.408936 0.542480
vt 0.394531 0.672119
vt 0.410156 0.518066
vt 0.396729 0.651367
vt 0.406006 0.542480
vt 0.346680 0.647461
vt 0.345215 0.515381
vt 0.340332 0.663086
vt 0.350342 0.538574
vt 0.341797 0.513428
vt 0.281250 0.517090
vt 0.286377 0.663330
vt 0.275635 0.514404
vt 0.282715 0.647217
vt 0.216187 0.522461
vt 0.229126 0.651123
vt 0.227417 0.668701
vt 0.210327 0.520264
vt 0.152222 0.531738
vt 0.175659 0.676270
vt 0.146729 0.529297
vt 0.169189 0.660645
vt 0.089722 0.545166
vt 0.117432 0.694092
vt 0.833984 0.894348
vt 0.850098 0.952423
vt 0.842285 0.950989
vt 0.786133 0.858276
vt 0.785156 0.867188
vt 0.807617 0.998488
vt 0.802734 0.991188
vt 0.744629 0.994652
vt 0.747070 0.986580
vt 0.708496 0.943542
vt 0.715820 0.940460
vt 0.735352 0.890503
vt 0.726074 0.882080
vt1 0.639648 0.008301
vt1 0.644531 0.251953
vt1 0.519043 0.007812
vt1 0.520020 0.250000
vt1 0.513184 0.250977
vt1 0.513184 0.008301
vt1 0.395020 0.008301
vt1 0.395020 0.250000
vt1 0.082581 0.338867
vt1 0.152222 0.248047
vt1 0.263428 0.249512
vt1 0.335938 0.338379
vt1 0.309082 0.448242
vt1 0.208374 0.497559
vt1 0.110168 0.451660
vt1 0.148682 0.233887
vt1 0.288330 0.202637
vt1 0.273438 0.229004
vt1 0.352539 0.330566
vt1 0.081543 0.222168
vt1 0.410156 0.397949
vt1 0.061554 0.336426
vt1 0.327881 0.464844
vt1 0.086426 0.537109
vt1 0.209717 0.521973
vt1 0.097290 0.464355
vt1 0.988770 0.642822
vt1 0.927734 0.972092
vt1 0.857422 0.612305
vt1 0.807129 0.937073
vt1 0.849609 0.613037
vt1 0.802734 0.901917
vt1 0.832031 0.660645
vt1 0.687500 0.883789
vt1 0.708008 0.644531
vt1 0.676270 0.929260
vt1 0.710449 0.590576
vt1 0.681152 0.883850
vt1 0.701660 0.644287
vt1 0.571289 0.875061
vt1 0.568359 0.584961
vt1 0.557129 0.909851
vt1 0.579102 0.635742
vt1 0.560547 0.580811
vt1 0.427490 0.588379
vt1 0.438721 0.910278
vt1 0.415039 0.582764
vt1 0.430908 0.874756
vt1 0.284180 0.600342
vt1 0.312744 0.883362
vt1 0.308838 0.921692
vt1 0.271240 0.595703
vt1 0.143677 0.621094
vt1 0.195312 0.938690
vt1 0.131714 0.615234
vt1 0.180908 0.904419
vt1 0.006245 0.650391
vt1 0.067139 0.977737
vt1 0.852051 0.492676
vt1 0.888672 0.364258
vt1 0.870605 0.367676
vt1 0.746582 0.572754
vt1 0.744141 0.552979
vt1 0.793945 0.262207
vt1 0.783203 0.278320
vt1 0.654785 0.270996
vt1 0.660156 0.288574
vt1 0.574707 0.383789
vt1 0.590820 0.390625
vt1 0.634766 0.501221
vt1 0.613770 0.520020
vn 0.984252 0.000000 0.196850
vn 0.984252 0.000000 0.196850
vn 0.984252 0.000000 0.173228
vn 0.984252 0.000000 0.188976
vn 0.771654 -0.000000 -0.637795
vn 0.771654 -0.000000 -0.637795
vn 0.763780 -0.000000 -0.645669
vn 0.763780 -0.000000 -0.645669
vn 0.000000 1.000000 -0.000000
vn 0.000000 1.000000 -0.000000
vn 0.000000 1.000000 -0.000000
vn 0.000000 1.000000 -0.000000
vn 0.000000 1.000000 -0.000000
vn 0.000000 1.000000 -0.000000
vn 0.000000 1.000000 -0.000000
vn 0.007874 0.000000 1.000000
vn -0.763780 0.000000 0.653543
vn -0.755906 0.000000 0.653543
vn -0.984252 -0.000000 -0.181102
vn 0.181102 0.000000 0.984252
vn -0.858268 -0.000000 -0.519685
vn 0.866142 0.000000 0.503937
vn -0.456693 -0.000000 -0.889764
vn 0.929134 -0.000000 -0.377953
vn 0.283465 -0.000000 -0.960630
vn 0.889764 -0.000000 -0.464567
vn 0.409449 -0.070866 0.905512
vn 0.440945 0.094488 0.897638
vn 0.464567 -0.062992 0.881890
vn 0.527559 0.196850 0.826772
vn 0.937008 -0.212598 0.267717
vn 0.976378 0.023622 0.196850
vn 0.976378 0.000000 0.196850
vn 0.984252 0.000000 0.188976
vn 0.984252 0.000000 0.181102
vn 0.708661 0.645669 -0.291339
vn 0.921260 -0.307087 -0.236220
vn 0.779528 0.015748 -0.629921
vn 0.771654 -0.000000 -0.637795
vn 0.755906 -0.000000 -0.653543
vn 0.700787 -0.204724 -0.677165
vn 0.055118 0.125984 -0.992126
vn 0.763780 -0.000000 -0.645669
vn -0.015748 -0.102362 -0.992126
vn -0.039370 -0.055118 -1.000000
vn -0.173228 0.212598 -0.960630
vn -0.771654 -0.102362 -0.629921
vn -0.795276 -0.000000 -0.606299
vn -0.803150 -0.047244 -0.598425
vn -0.803150 -0.000000 -0.598425
vn -0.968504 0.118110 0.212598
vn -0.968504 -0.094488 0.212598
vn -0.968504 -0.047244 0.259842
vn -0.929134 0.188976 0.322835
vn -0.433071 -0.094488 0.897638
vn -0.417323 0.000000 0.905512
vn -0.401575 -0.047244 0.913386
vn -0.393701 0.181102 0.905512
vn 0.078740 -1.000000 -0.015748
vn 0.708661 -0.330709 -0.629921
vn -0.078740 -0.984252 0.149606
vn 0.921260 -0.330709 0.204724
vn -0.181102 -0.976378 -0.133858
vn -0.039370 -0.330709 -0.944882
vn 0.094488 -0.976378 0.188976
vn -0.755906 -0.346457 -0.551181
vn 0.196850 -0.976378 0.055118
vn -0.913386 -0.322835 0.244095
vn 0.141732 -0.984252 -0.102362
vn -0.007874 -0.968504 -0.259842
vn -0.007874 -0.385827 0.921260
tan 0.000000 -0.985802 0.000000 1.000000
tan 0.000000 -0.984252 0.000000 1.000000
tan 0.000000 -0.984252 0.000000 1.000000
tan 0.000000 -0.985740 0.000000 1.000000
tan 0.000000 -0.949036 0.000000 1.000000
tan 0.000000 -0.984748 0.000000 1.000000
tan 0.000000 -0.985988 0.000000 1.000000
tan 0.000000 -0.985988 0.000000 1.000000
tan -0.409449 0.000000 0.913386 1.000000
tan -0.409449 0.000000 0.913386 1.000000
tan -0.417323 0.000000 0.913386 1.000000
tan -0.417323 0.000000 0.913386 1.000000
tan -0.417323 0.000000 0.913386 1.000000
tan -0.409449 0.000000 0.913386 1.000000
tan -0.409449 0.000000 0.913386 1.000000
tan -0.574803 -0.818897 0.004526 1.000000
tan 0.627813 -0.289354 0.733709 1.000000
tan 0.632959 -0.234670 0.732097 1.000000
tan -0.178250 -0.155000 0.968752 1.000000
tan -0.798252 -0.573501 0.146878 1.000000
tan -0.519685 -0.013516 0.858268 1.000000
tan -0.503937 -0.011904 0.866142 1.000000
tan -0.826710 0.332879 0.424329 1.000000
tan 0.363073 0.266353 0.892554 1.000000
tan 0.113460 0.953066 0.033480 1.000000
tan 0.460909 0.137082 0.882758 1.000000
tan 0.377891 -0.827082 -0.235600 1.000000
tan 0.438961 -0.788021 -0.132680 1.000000
tan 0.311985 -0.829996 -0.223634 1.000000
tan 0.289851 -0.853618 0.018290 1.000000
tan -0.160766 -0.924360 -0.171368 1.000000
tan 0.051336 -0.968690 -0.138384 1.000000
tan 0.032550 -0.962552 -0.161448 1.000000
tan 0.025296 -0.977990 -0.131750 1.000000
tan 0.024242 -0.976502 -0.131750 1.000000
tan 0.643375 -0.729307 -0.051336 1.000000
tan -0.340009 -0.915866 -0.135408 1.000000
tan -0.114452 -0.921508 -0.164672 1.000000
tan -0.120528 -0.967574 -0.145824 1.000000
tan -0.102920 -0.975696 -0.119040 1.000000
tan -0.321657 -0.940480 -0.048546 1.000000
tan -0.023436 -0.992126 -0.127286 1.000000
tan -0.071176 -0.985058 -0.084196 1.000000
tan -0.023436 -0.992126 0.102734 1.000000
tan 0.031496 -1.000000 0.053878 1.000000
tan 0.028582 -0.961994 -0.218054 1.000000
tan 0.340691 -0.783062 -0.290098 1.000000
tan 0.109802 -0.915246 -0.144026 1.000000
tan 0.227664 -0.868746 -0.236964 1.000000
tan 0.089528 -0.955050 -0.120156 1.000000
tan -0.147312 -0.960878 -0.137268 1.000000
tan 0.059520 -0.953252 -0.152520 1.000000
tan -0.007068 -0.945626 -0.198276 1.000000
tan -0.241924 -0.922128 -0.156488 1.000000
tan -0.352657 -0.830368 -0.257548 1.000000
tan -0.320851 -0.858330 -0.147870 1.000000
tan -0.287681 -0.870234 -0.171492 1.000000
tan -0.279497 -0.865832 0.051646 1.000000
tan 0.937008 0.068448 0.338583 1.000000
tan 0.677289 0.117800 0.700105 1.000000
tan 0.596751 0.071238 0.782751 1.000000
tan 0.302313 0.915618 0.118668 1.000000
tan 0.738050 -0.224378 0.638105 1.000000
tan 0.218364 -0.922872 0.313907 1.000000
tan 0.653481 0.203112 0.722673 1.000000
tan 0.293757 -0.878046 0.149048 1.000000
tan 0.861058 0.199640 0.461281 1.000000
tan 0.388989 -0.855850 0.323641 1.000000
tan 0.728501 0.036394 0.658751 1.000000
tan 0.549073 -0.219294 0.800732 1.000000
tan 0.351231 0.848658 0.358423 1.000000
f 3/3/3 2/2/2 1/1/1
f 2/2/2 3/3/3 4/4/4
f 4/4/4 3/3/3 5/5/5
f 6/6/6 5/5/5 3/3/3
f 7/7/7 5/5/5 6/6/6
f 5/5/5 7/7/7 8/8/8
f 11/11/11 10/10/10 9/9/9
f 12/12/12 11/11/11 9/9/9
f 13/13/13 12/12/12 9/9/9
f 14/14/14 13/13/13 9/9/9
f 15/15/15 14/14/14 9/9/9
f 18/18/18 17/17/17 16/16/16
f 18/18/18 19/19/19 17/17/17
f 20/20/20 16/16/16 17/17/17
f 21/21/21 17/17/17 19/19/19
f 22/22/22 16/16/16 20/20/20
f 21/21/21 19/19/19 23/23/23
f 22/22/22 20/20/20 24/24/24
f 21/21/21 23/23/23 25/25/25
f 24/24/24 21/21/21 25/25/25
f 24/24/24 26/26/26 22/22/22
f 24/24/24 25/25/25 26/26/26
f 29/29/29 28/28/28 27/27/27
f 30/30/30 28/28/28 29/29/29
f 31/31/31 30/30/30 29/29/29
f 32/32/32 30/30/30 31/31/31
f 33/33/33 32/32/32 31/31/31
f 30/30/30 32/32/32 34/34/34
f 33/33/33 31/31/31 35/35/35
f 34/34/34 36/36/36 30/30/30
f 35/35/35 31/31/31 37/37/37
f 34/34/34 38/38/38 36/36/36
f 35/35/35 37/37/37 39/39/39
f 36/36/36 38/38/38 40/40/40
f 39/39/39 37/37/37 41/41/41
f 40/40/40 42/42/42 36/36/36
f 39/39/39 41/41/41 43/43/43
f 41/41/41 40/40/40 43/43/43
f 40/40/40 41/41/41 42/42/42
f 41/41/41 44/44/44 42/42/42
f 44/44/44 45/45/45 42/42/42
f 42/42/42 45/45/45 46/46/46
f 45/45/45 47/47/47 46/46/46
f 46/46/46 47/47/47 48/48/48
f 47/47/47 49/49/49 48/48/48
f 48/48/48 50/50/50 46/46/46
f 50/50/50 48/48/48 49/49/49
f 51/51/51 46/46/46 50/50/50
f 49/49/49 52/52/52 50/50/50
f 51/51/51 50/50/50 52/52/52
f 52/52/52 53/53/53 51/51/51
f 54/54/54 51/51/51 53/53/53
f 53/53/53 55/55/55 54/54/54
f 56/56/56 54/54/54 55/55/55
f 57/57/57 56/56/56 55/55/55
f 54/54/54 56/56/56 58/58/58
f 58/58/58 56/56/56 57/57/57
f 61/61/61 60/60/60 59/59/59
f 63/63/63 59/59/59 62/62/62
f 63/63/63 61/61/61 59/59/59
f 65/65/65 64/64/64 61/61/61
f 63/63/63 65/65/65 61/61/61
f 67/67/67 66/66/66 65/65/65
f 63/63/63 67/67/67 65/65/65
f 69/69/69 68/68/68 67/67/67
f 63/63/63 69/69/69 67/67/67
f 63/63/63 70/70/70 69/69/69
f 70/70/70 71/71/71 69/69/69
f 71/71/71 70/70/70 63/63/63
