mtllib SM_Frames_04_LOD3.mtl
g SM_Frames_04_LOD3
#Vertices 24
#Indices 36
#Section 0 Offset 0 NumIndices 36 MaterialIndex 0 MI_Frames
v -0.002650 0.334245 -0.129161
v -0.008235 0.372009 -0.169164
v 0.010096 0.371657 -0.168329
v 0.001768 0.337839 -0.136077
v 0.001768 0.036819 -0.136077
v 0.001768 0.337839 0.136219
v 0.001768 0.036819 0.136219
v 0.002822 0.372371 0.188048
v 0.007691 0.037029 0.132403
v -0.003294 0.000284 0.178848
v -0.003062 0.334167 0.126630
v 0.008332 0.377796 -0.170160
v 0.007933 0.331468 0.133964
v -0.001725 0.387816 0.167660
v -0.002472 0.324976 -0.133237
v 0.004792 -0.016544 -0.169549
v -0.003174 -0.009644 0.167495
v 0.004303 0.051100 0.136707
v -0.002187 0.044789 -0.133243
v -0.003803 0.000068 -0.178141
v 0.010096 0.371657 -0.168329
v -0.008235 0.372009 -0.169164
v 0.003841 0.034071 -0.122616
v -0.002650 0.334245 -0.129161
vt 0.339355 0.811646
vt 0.346680 0.902710
vt 0.321289 0.901428
vt 0.411865 0.666504
vt 0.411865 0.455078
vt 0.603027 0.666504
vt 0.603027 0.455078
vt 0.095825 0.956970
vt 0.060791 0.718262
vt 0.093567 0.692139
vt 0.055359 0.929749
vt 0.968750 0.240723
vt 0.937988 0.024414
vt 0.975098 0.000488
vt 0.932617 0.214355
vt 0.913086 0.956665
vt 0.914551 0.716797
vt 0.956055 0.738770
vt 0.955078 0.930908
vt 0.106201 0.691895
vt 0.114563 0.956512
vt 0.102173 0.956787
vt 0.144653 0.716064
vt 0.143799 0.929871
vt1 0.420166 0.280273
vt1 0.430420 0.401367
vt1 0.394531 0.399414
vt1 0.008064 0.991936
vt1 0.008064 0.412598
vt1 0.532227 0.991936
vt1 0.532227 0.412598
vt1 0.825195 0.992290
vt1 0.728027 0.347168
vt1 0.818848 0.276367
vt1 0.712891 0.918701
vt1 0.958496 0.996977
vt1 0.873047 0.411621
vt1 0.976074 0.347168
vt1 0.857910 0.925598
vt1 0.004498 0.120605
vt1 0.652832 0.124023
vt1 0.593750 0.239746
vt1 0.074158 0.236328
vt1 0.566895 0.275879
vt1 0.590332 0.991051
vt1 0.555664 0.991730
vt1 0.673828 0.341309
vt1 0.671387 0.919067
vn 0.000000 0.669291 0.740157
vn 0.000000 0.669291 0.740157
vn 0.000000 0.669291 0.740157
vn 1.000000 0.000000 0.000000
vn 1.000000 0.000000 0.000000
vn 1.000000 0.000000 0.000000
vn 1.000000 0.000000 0.000000
vn 0.574803 0.000000 0.818897
vn 0.937008 -0.000000 -0.346457
vn 0.440945 0.000000 0.897638
vn 0.551181 -0.000000 -0.834646
vn 0.905512 0.425197 -0.000000
vn 0.952756 -0.307087 0.000000
vn 0.551181 0.834646 -0.000000
vn 0.614173 -0.787401 0.000000
vn 0.740157 -0.677165 0.000000
vn 0.330709 -0.944882 0.000000
vn 0.834646 0.543307 -0.000000
vn 0.417323 0.905512 -0.000000
vn 0.251969 -0.000000 -0.968504
vn 0.889764 -0.000000 -0.448819
vn 0.000000 -0.000000 -1.000000
vn 0.803150 0.000000 0.590551
vn 0.362205 0.000000 0.929134
tan -0.282473 -0.705189 0.637671 1.000000
tan -0.336847 -0.693533 0.627131 1.000000
tan 0.286627 -0.705189 0.637671 1.000000
tan 0.000000 -1.000000 0.000000 1.000000
tan 0.000000 -1.000000 0.000000 1.000000
tan 0.000000 -1.000000 0.000000 1.000000
tan 0.000000 -1.000000 0.000000 1.000000
tan 0.000000 -1.000310 0.000000 1.000000
tan 0.000000 -0.950648 0.000000 1.000000
tan 0.000000 -0.970302 0.000000 1.000000
tan 0.000000 -0.994358 0.000000 1.000000
tan 0.000000 0.000000 0.928948 1.000000
tan 0.000000 0.000000 0.960010 1.000000
tan 0.000000 0.000000 1.002790 1.000000
tan 0.000000 0.000000 0.996590 1.000000
tan 0.000000 0.000000 0.928638 1.000000
tan 0.000000 0.000000 0.960506 1.000000
tan 0.000000 0.000000 0.907062 1.000000
tan 0.000000 0.000000 0.954244 1.000000
tan 0.000000 -0.972472 0.000000 1.000000
tan 0.000000 -0.925104 0.000000 1.000000
tan 0.000000 -1.000000 0.000000 1.000000
tan 0.000000 -0.914378 0.000000 1.000000
tan 0.000000 -0.954802 0.000000 1.000000
f 3/3/3 2/2/2 1/1/1
f 6/6/6 5/5/5 4/4/4
f 6/6/6 7/7/7 5/5/5
f 10/10/10 9/9/9 8/8/8
f 11/11/11 8/8/8 9/9/9
f 14/14/14 13/13/13 12/12/12
f 15/15/15 12/12/12 13/13/13
f 18/18/18 17/17/17 16/16/16
f 19/19/19 18/18/18 16/16/16
f 22/22/22 21/21/21 20/20/20
f 23/23/23 20/20/20 21/21/21
f 24/24/24 23/23/23 21/21/21
