mtllib SM_Fence_07_LOD3.mtl
g SM_Fence_07_LOD3
#Vertices 24
#Indices 24
#Section 0 Offset 0 NumIndices 24 MaterialIndex 0 MI_Fences
v -0.040453 -0.012970 -0.041633
v -0.050229 -0.052699 0.034205
v 0.048915 -0.064850 0.011620
v 0.034258 0.933161 -0.076388
v 0.048915 -0.064850 0.011620
v -0.013785 0.942047 0.080312
v -0.050229 -0.052699 0.034205
v -0.013785 0.942047 0.080312
v 0.048915 -0.064850 0.011620
v -0.013785 0.942047 0.080312
v -0.050229 -0.052699 0.034205
v -0.075194 0.981332 -0.011254
v -0.075194 0.981332 -0.011254
v -0.050229 -0.052699 0.034205
v -0.040453 -0.012970 -0.041633
v -0.040453 -0.012970 -0.041633
v 0.034258 0.933161 -0.076388
v -0.075194 0.981332 -0.011254
v 0.034258 0.933161 -0.076388
v -0.040453 -0.012970 -0.041633
v 0.048915 -0.064850 0.011620
v -0.075194 0.981332 -0.011254
v 0.034258 0.933161 -0.076388
v -0.013785 0.942047 0.080312
vt 0.088013 0.747559
vt 0.062012 0.751709
vt 0.071289 0.716553
vt 0.445068 0.399902
vt 0.464111 -0.025391
vt 0.500000 0.403320
vt 0.548340 0.428711
vt 0.563965 0.004395
vt 0.590332 0.434082
vt 0.483643 0.403809
vt 0.507324 -0.020508
vt 0.523438 0.420410
vt 0.525391 0.420410
vt 0.508789 -0.020508
vt 0.539551 -0.002930
vt 0.539062 -0.002930
vt 0.571289 0.399902
vt 0.525879 0.420410
vt 0.611816 0.400391
vt 0.587891 -0.002930
vt 0.626953 -0.025391
vt 0.457275 0.416992
vt 0.430176 0.389160
vt 0.495605 0.399902
vt1 0.525879 0.857910
vt1 0.120605 0.921631
vt1 0.264893 0.375488
vt1 0.580566 0.043457
vt1 0.625977 1.057709
vt1 0.711914 0.035156
vt1 0.839355 1.046844
vt1 0.876465 0.013672
vt1 0.940918 1.060486
vt1 0.847656 0.965485
vt1 0.791504 -0.044922
vt1 0.752930 1.005394
vt1 0.747559 1.005589
vt1 0.787109 -0.044922
vt1 0.713867 -0.004883
vt1 0.715332 -0.004883
vt1 0.637695 0.956085
vt1 0.746582 1.005535
vt1 0.993164 0.977829
vt1 0.935059 -0.004883
vt1 1.030273 -0.060547
vt1 0.609863 0.003418
vt1 0.545410 0.068848
vt1 0.701172 0.043945
vn 0.000000 -1.000000 0.000000
vn 0.000000 -1.000000 0.000000
vn 0.000000 -1.000000 0.000000
vn 0.944882 -0.007874 -0.314961
vn 0.913386 -0.015748 0.417323
vn 0.244094 -0.015748 0.968504
vn -0.574803 -0.015748 0.818897
vn -0.094488 -0.023622 0.992126
vn 0.771654 -0.015748 0.637795
vn -0.362205 -0.015748 0.937008
vn -0.811024 -0.015748 0.582677
vn -1.000000 -0.007874 -0.055118
vn -1.000000 -0.015748 -0.086614
vn -0.897638 -0.007874 0.440945
vn -0.622047 -0.015748 -0.787401
vn -0.716535 -0.015748 -0.700787
vn 0.007874 -0.015748 -1.000000
vn -0.984252 -0.015748 -0.181102
vn 0.393701 -0.023622 -0.921260
vn -0.322835 -0.023622 -0.944882
vn 0.921260 -0.007874 -0.393701
vn 0.551181 0.834646 -0.000000
vn 0.551181 0.834646 -0.000000
vn 0.551181 0.834646 -0.000000
tan 1.000000 0.000000 0.000000 1.000000
tan 1.000000 0.000000 0.000000 1.000000
tan 1.000000 0.000000 0.000000 1.000000
tan -0.020274 -0.954802 -0.036952 1.000000
tan -0.025606 -0.933102 0.020832 1.000000
tan -0.038254 -0.970426 -0.006138 1.000000
tan 0.032240 0.818897 0.038378 1.000000
tan 0.007812 0.992126 0.024366 1.000000
tan -0.080352 0.632773 0.112840 1.000000
tan 0.038006 -0.962676 -0.001488 1.000000
tan 0.020212 -0.882634 0.004278 1.000000
tan 0.008742 -1.000000 -0.015748 1.000000
tan 0.015066 -1.000000 0.007874 1.000000
tan 0.025234 -0.897638 0.035340 1.000000
tan 0.071548 -0.659247 -0.043338 1.000000
tan 0.042594 -0.897886 -0.023374 1.000000
tan 0.047244 -1.000000 0.016120 1.000000
tan 0.014322 -0.982826 0.007626 1.000000
tan 0.092814 -0.938806 0.063736 1.000000
tan -0.051708 -0.949966 0.041416 1.000000
tan 0.104532 -0.957158 0.263749 1.000000
tan 0.834646 -0.551181 0.000000 1.000000
tan 0.834646 -0.551181 0.000000 1.000000
tan 0.834646 -0.551181 0.000000 1.000000
f 3/3/3 2/2/2 1/1/1
f 6/6/6 5/5/5 4/4/4
f 9/9/9 8/8/8 7/7/7
f 12/12/12 11/11/11 10/10/10
f 15/15/15 14/14/14 13/13/13
f 18/18/18 17/17/17 16/16/16
f 21/21/21 20/20/20 19/19/19
f 24/24/24 23/23/23 22/22/22
