mtllib SM_Food_SM_Orange_LOD2.mtl
g SM_Food_SM_Orange_LOD2
#Vertices 42
#Indices 114
#Section 0 Offset 0 NumIndices 114 MaterialIndex 0 MI_Food
v 0.030749 0.063818 0.045476
v 0.040523 0.088537 0.012518
v 0.057571 0.045714 0.018725
v -0.018260 0.075348 0.052983
v 0.008608 0.095591 -0.003412
v -0.031069 0.087008 -0.016699
v -0.049464 0.065370 0.016969
v -0.046381 0.045119 -0.024634
v 0.041968 0.005965 0.023620
v 0.026965 -0.005174 0.010120
v -0.003850 -0.004955 0.003871
v -0.008067 0.012118 0.055698
v 0.057571 0.045714 0.018725
v 0.030749 0.063818 0.045476
v -0.018260 0.075348 0.052983
v -0.045647 0.021906 0.040708
v -0.003850 -0.004955 0.003871
v -0.049464 0.065370 0.016969
v -0.045147 0.011035 -0.014027
v -0.046381 0.045119 -0.024634
v 0.057571 0.045714 0.018725
v 0.040523 0.088537 0.012518
v 0.057201 0.043331 -0.006182
v 0.035436 0.053798 -0.043397
v 0.005735 0.085953 -0.039024
v 0.008608 0.095591 -0.003412
v 0.000745 0.043558 -0.055715
v -0.031069 0.087008 -0.016699
v -0.032295 0.050730 -0.040938
v -0.046381 0.045119 -0.024634
v 0.041968 0.005965 0.023620
v 0.057571 0.045714 0.018725
v 0.057201 0.043331 -0.006182
v 0.044275 0.018579 -0.034388
v 0.035436 0.053798 -0.043397
v 0.026965 -0.005174 0.010120
v 0.000745 0.043558 -0.055715
v -0.005526 0.001063 -0.042341
v -0.003850 -0.004955 0.003871
v -0.032295 0.050730 -0.040938
v -0.045147 0.011035 -0.014027
v -0.046381 0.045119 -0.024634
vt 0.462646 0.816650
vt 0.440918 0.793579
vt 0.474609 0.787720
vt 0.439941 0.846558
vt 0.413330 0.804810
vt 0.389404 0.831299
vt 0.406494 0.860107
vt 0.370850 0.860352
vt 0.806152 0.723145
vt 0.808594 0.740479
vt 0.794922 0.761841
vt 0.767578 0.735107
vt 0.803223 0.687744
vt 0.769043 0.689209
vt 0.731445 0.708008
vt 0.746582 0.748535
vt 0.783203 0.771851
vt 0.712402 0.746826
vt 0.744629 0.785889
vt 0.716309 0.785767
vt 0.886230 0.865356
vt 0.864746 0.892517
vt 0.870605 0.854370
vt 0.835449 0.851929
vt 0.821289 0.880371
vt 0.835938 0.902771
vt 0.805176 0.851196
vt 0.800781 0.903015
vt 0.785156 0.872925
vt 0.771484 0.882751
vt 0.482666 0.817017
vt 0.484131 0.783081
vt 0.504395 0.783325
vt 0.523438 0.802979
vt 0.541992 0.784180
vt 0.496094 0.831299
vt 0.563477 0.810547
vt 0.541504 0.834106
vt 0.513184 0.852295
vt 0.580566 0.837646
vt 0.551758 0.866699
vt 0.579590 0.855835
vt1 0.913574 0.759644
vt1 0.798340 0.636963
vt1 0.977539 0.606445
vt1 0.793457 0.918396
vt1 0.653320 0.696777
vt1 0.525879 0.837524
vt1 0.616211 0.990616
vt1 0.427246 0.991936
vt1 0.511230 0.657959
vt1 0.522949 0.750000
vt1 0.451416 0.863159
vt1 0.304688 0.720703
vt1 0.494629 0.469727
vt1 0.312012 0.477539
vt1 0.112915 0.577637
vt1 0.193726 0.791992
vt1 0.388916 0.916138
vt1 0.012985 0.782837
vt1 0.184448 0.990379
vt1 0.032349 0.989830
vt1 0.747070 0.059570
vt1 0.602539 0.173828
vt1 0.805664 0.142578
vt1 0.817871 0.329590
vt1 0.667480 0.405273
vt1 0.548340 0.326660
vt1 0.822266 0.489258
vt1 0.547363 0.513672
vt1 0.707031 0.597168
vt1 0.654785 0.669434
vt1 0.526855 0.216797
vt1 0.520020 0.036133
vt1 0.411377 0.037109
vt1 0.310059 0.142578
vt1 0.212158 0.042480
vt1 0.456299 0.292480
vt1 0.098999 0.182129
vt1 0.215210 0.307129
vt1 0.363770 0.404297
vt1 0.008064 0.326172
vt1 0.158936 0.480469
vt1 0.012764 0.422852
vn 0.519685 0.370079 0.771653
vn 0.637795 0.748031 0.173228
vn 0.921260 0.062992 0.377953
vn -0.283465 0.559055 0.779527
vn 0.110236 0.992126 -0.070866
vn -0.519685 0.795275 -0.314961
vn -0.881890 0.393701 0.259842
vn -0.858268 0.078740 -0.503937
vn 0.614173 -0.669291 0.425197
vn 0.354331 -0.929134 0.118110
vn -0.094488 -0.992126 -0.078740
vn -0.094488 -0.511811 0.850394
vn 0.944882 0.007874 0.338583
vn 0.496063 0.362205 0.787401
vn -0.283465 0.496063 0.818897
vn -0.708661 -0.362205 0.606299
vn -0.110236 -0.992126 -0.023622
vn -0.874016 0.401575 0.283464
vn -0.763780 -0.606299 -0.236220
vn -0.858268 0.078740 -0.503937
vn 0.944882 0.078740 0.307087
vn 0.637795 0.755905 0.133858
vn 0.992126 0.047244 -0.141732
vn 0.606299 0.244094 -0.755905
vn 0.086614 0.748031 -0.661417
vn 0.102362 0.992126 -0.007874
vn -0.031496 0.023622 -1.000000
vn -0.527559 0.779527 -0.330709
vn -0.622047 0.204724 -0.755905
vn -0.858268 0.078740 -0.503937
vn 0.629921 -0.661417 0.393701
vn 0.952756 -0.023622 0.307087
vn 0.992126 0.047244 -0.141732
vn 0.692913 -0.448819 -0.566929
vn 0.614173 0.236220 -0.755905
vn 0.354331 -0.929134 0.118110
vn -0.015748 0.023622 -1.000000
vn -0.141732 -0.732283 -0.661417
vn -0.125984 -0.992126 0.047244
vn -0.622047 0.204724 -0.755905
vn -0.755906 -0.614173 -0.236220
vn -0.858268 0.078740 -0.503937
tan 0.767748 0.159712 -0.593651 1.000000
tan 0.743567 -0.580879 -0.229338 1.000000
tan 0.381425 -0.097278 -0.913510 1.000000
tan 0.222952 0.783991 -0.481183 1.000000
tan 0.874946 -0.130696 -0.468721 1.000000
tan 0.807676 0.502325 -0.064294 1.000000
tan 0.368095 0.883130 -0.088784 1.000000
tan 0.394941 0.695951 -0.563891 1.000000
tan 0.685039 0.698617 0.110174 1.000000
tan 0.795586 0.364561 0.481121 1.000000
tan 0.820262 -0.122760 0.562465 1.000000
tan 0.338769 0.773017 0.502883 1.000000
tan 0.163804 0.818401 -0.476161 1.000000
tan 0.550437 0.572943 -0.610329 1.000000
tan 0.402505 0.731105 -0.303553 1.000000
tan 0.510199 0.212722 0.723417 1.000000
tan 0.164052 -0.041478 0.976502 1.000000
tan 0.482299 0.608035 0.625705 1.000000
tan -0.581127 0.470147 0.672267 1.000000
tan -0.475913 0.207452 0.842954 1.000000
tan 0.274599 -0.654721 -0.677041 1.000000
tan 0.764338 -0.635687 -0.052080 1.000000
tan -0.024180 -0.874946 -0.460909 1.000000
tan 0.046748 -0.921942 -0.260214 1.000000
tan 0.064790 -0.668919 -0.748031 1.000000
tan 0.609337 -0.069068 -0.781201 1.000000
tan 0.433071 -0.897638 -0.034844 1.000000
tan -0.125178 -0.443859 -0.846550 1.000000
tan 0.599789 -0.493583 -0.627255 1.000000
tan 0.413665 -0.434001 -0.772335 1.000000
tan 0.713001 0.629301 -0.083576 1.000000
tan 0.126294 0.900242 -0.322587 1.000000
tan -0.041664 0.992126 0.039060 1.000000
tan 0.655279 0.716721 0.233492 1.000000
tan 0.602269 0.483973 0.640585 1.000000
tan 0.918222 0.327361 -0.179428 1.000000
tan 0.748031 0.661417 0.003844 1.000000
tan 0.270817 0.604129 -0.726889 1.000000
tan 0.851510 -0.132680 -0.515593 1.000000
tan 0.774630 0.140678 -0.599355 1.000000
tan 0.651373 -0.664765 -0.356005 1.000000
tan 0.510261 0.163370 -0.843512 1.000000
f 3/3/3 2/2/2 1/1/1
f 4/4/4 1/1/1 2/2/2
f 2/2/2 5/5/5 4/4/4
f 5/5/5 6/6/6 4/4/4
f 6/6/6 7/7/7 4/4/4
f 7/7/7 6/6/6 8/8/8
f 11/11/11 10/10/10 9/9/9
f 12/12/12 11/11/11 9/9/9
f 13/13/13 12/12/12 9/9/9
f 12/12/12 13/13/13 14/14/14
f 12/12/12 14/14/14 15/15/15
f 15/15/15 16/16/16 12/12/12
f 16/16/16 17/17/17 12/12/12
f 16/16/16 15/15/15 18/18/18
f 16/16/16 19/19/19 17/17/17
f 18/18/18 20/20/20 16/16/16
f 19/19/19 16/16/16 20/20/20
f 23/23/23 22/22/22 21/21/21
f 23/23/23 24/24/24 22/22/22
f 25/25/25 22/22/22 24/24/24
f 25/25/25 26/26/26 22/22/22
f 24/24/24 27/27/27 25/25/25
f 25/25/25 28/28/28 26/26/26
f 25/25/25 27/27/27 29/29/29
f 29/29/29 28/28/28 25/25/25
f 29/29/29 30/30/30 28/28/28
f 33/33/33 32/32/32 31/31/31
f 34/34/34 33/33/33 31/31/31
f 34/34/34 35/35/35 33/33/33
f 36/36/36 34/34/34 31/31/31
f 35/35/35 34/34/34 37/37/37
f 36/36/36 38/38/38 34/34/34
f 37/37/37 34/34/34 38/38/38
f 39/39/39 38/38/38 36/36/36
f 37/37/37 38/38/38 40/40/40
f 39/39/39 41/41/41 38/38/38
f 40/40/40 38/38/38 42/42/42
f 41/41/41 42/42/42 38/38/38
