mtllib SM_Food_SM_Pepper_01_LOD2.mtl
g SM_Food_SM_Pepper_01_LOD2
#Vertices 88
#Indices 246
#Section 0 Offset 0 NumIndices 246 MaterialIndex 0 MI_Food
v 0.006049 0.095059 0.017952
v 0.000254 0.082116 0.012053
v 0.017259 0.083345 0.006328
v 0.002349 0.090862 -0.001508
v 0.007001 0.078294 -0.010039
v 0.000254 0.082116 0.012053
v -0.002674 0.085841 0.001016
v -0.027039 0.111752 -0.001377
v -0.028204 0.100659 -0.000122
v -0.020676 0.105548 -0.011083
v -0.027039 0.111752 -0.001377
v -0.028204 0.100659 -0.000122
v -0.020676 0.105548 -0.011083
v 0.002349 0.090862 -0.001508
v -0.001631 0.084594 -0.007364
v -0.028204 0.100659 -0.000122
v 0.007001 0.078294 -0.010039
v -0.002674 0.085841 0.001016
v -0.008907 0.075305 -0.000189
v -0.004536 0.079510 -0.014573
v 0.000254 0.082116 0.012053
v -0.015548 0.091190 0.019201
v -0.005356 -0.000507 0.000326
v 0.027757 -0.001364 0.029431
v 0.023506 -0.004585 0.002165
v -0.003181 0.002593 0.039576
v 0.056207 0.064641 0.018295
v 0.051144 0.103066 0.016671
v 0.056423 0.057579 0.005374
v 0.046641 0.094862 -0.020063
v 0.039452 0.052299 -0.028316
v 0.038069 0.113403 0.017195
v 0.012687 0.059316 -0.047609
v 0.035530 0.101655 -0.022677
v 0.017259 0.083345 0.006328
v 0.003161 0.100391 -0.046229
v -0.015920 0.059494 -0.030555
v -0.020179 0.084905 -0.038280
v -0.015942 0.091206 -0.026748
v 0.010629 0.092936 -0.027194
v 0.007001 0.078294 -0.010039
v -0.004536 0.079510 -0.014573
v 0.007001 0.078294 -0.010039
v 0.056207 0.064641 0.018295
v 0.035109 0.077243 0.045144
v 0.051144 0.103066 0.016671
v 0.016907 0.101849 0.047016
v -0.009554 0.065496 0.044702
v 0.038069 0.113403 0.017195
v -0.016356 0.099187 0.041582
v 0.006049 0.095059 0.017952
v 0.017259 0.083345 0.006328
v -0.015548 0.091190 0.019201
v 0.000254 0.082116 0.012053
v 0.035109 0.077243 0.045144
v 0.056207 0.064641 0.018295
v 0.048477 0.021779 0.021787
v 0.020141 0.032719 0.046298
v -0.009554 0.065496 0.044702
v 0.027757 -0.001364 0.029431
v -0.003181 0.002593 0.039576
v 0.048477 0.021779 0.021787
v 0.056207 0.064641 0.018295
v 0.056423 0.057579 0.005374
v 0.043202 0.017884 0.005048
v 0.027757 -0.001364 0.029431
v 0.039452 0.052299 -0.028316
v 0.023506 -0.004585 0.002165
v 0.009055 0.012582 -0.026554
v 0.012687 0.059316 -0.047609
v -0.005356 -0.000507 0.000326
v -0.015920 0.059494 -0.030555
v -0.026332 0.078062 -0.007415
v -0.004536 0.079510 -0.014573
v -0.008907 0.075305 -0.000189
v -0.015548 0.091190 0.019201
v -0.004536 0.079510 -0.014573
v -0.015942 0.091206 -0.026748
v -0.040831 0.091284 -0.004587
v -0.020179 0.084905 -0.038280
v -0.040455 0.083463 0.032294
v -0.016356 0.099187 0.041582
v -0.009554 0.065496 0.044702
v -0.036315 0.069920 -0.025546
v -0.015920 0.059494 -0.030555
v -0.005356 -0.000507 0.000326
v -0.024688 0.013652 0.020434
v -0.003181 0.002593 0.039576
vt 0.602051 0.980896
vt 0.593750 0.970200
vt 0.604492 0.963013
vt 0.582031 0.954895
vt 0.591797 0.944366
vt 0.585938 0.968079
vt 0.580566 0.961700
vt 0.549316 0.951965
vt 0.552246 0.962555
vt 0.558105 0.942413
vt 0.973145 0.394531
vt 0.981445 0.395508
vt 0.970215 0.404297
vt 0.954102 0.420898
vt 0.959961 0.426758
vt 0.981445 0.407715
vt 0.948242 0.433594
vt 0.967773 0.429199
vt 0.962891 0.442871
vt 0.950684 0.444336
vt 0.976562 0.439453
vt 0.980957 0.460449
vt 0.520020 0.237305
vt 0.562012 0.236816
vt 0.540039 0.253418
vt 0.542480 0.211426
vt 0.766113 0.101562
vt 0.754395 0.138672
vt 0.755859 0.091309
vt 0.723633 0.121094
vt 0.719238 0.078613
vt 0.747070 0.152832
vt 0.685547 0.084961
vt 0.714355 0.129395
vt 0.713867 0.166992
vt 0.681641 0.121094
vt 0.650391 0.092285
vt 0.657715 0.118164
vt 0.662109 0.130371
vt 0.688477 0.139648
vt 0.693359 0.163086
vt 0.665527 0.151855
vt 0.673828 0.160156
vt 0.903809 0.537354
vt 0.868164 0.536133
vt 0.890137 0.501953
vt 0.851562 0.513184
vt 0.820801 0.539062
vt 0.878418 0.493652
vt 0.821289 0.506836
vt 0.844727 0.484375
vt 0.857422 0.464844
vt 0.821777 0.482910
vt 0.836914 0.470215
vt 0.875488 0.139648
vt 0.886719 0.172363
vt 0.849609 0.192383
vt 0.835449 0.157715
vt 0.837402 0.116211
vt 0.818359 0.189453
vt 0.798340 0.163086
vt 0.263428 0.822510
vt 0.257812 0.779907
vt 0.271240 0.783691
vt 0.281006 0.822754
vt 0.267578 0.854126
vt 0.309814 0.785400
vt 0.297119 0.845337
vt 0.325439 0.829102
vt 0.343018 0.785645
vt 0.323730 0.858154
vt 0.368896 0.805908
vt 0.152832 0.685303
vt 0.174683 0.679443
vt 0.168579 0.693604
vt 0.150391 0.716553
vt 0.167603 0.668213
vt 0.148560 0.662842
vt 0.133667 0.688477
vt 0.138184 0.654053
vt 0.119995 0.716553
vt 0.131958 0.737305
vt 0.093750 0.738037
vt 0.119263 0.665527
vt 0.109619 0.647705
vt 0.043121 0.666016
vt 0.057678 0.693115
vt 0.035156 0.710693
vt1 0.487549 0.214355
vt1 0.452881 0.169922
vt1 0.498535 0.140137
vt1 0.404785 0.106445
vt1 0.445557 0.062988
vt1 0.421875 0.161133
vt1 0.397705 0.134766
vt1 0.267578 0.094238
vt1 0.280273 0.138184
vt1 0.304199 0.054688
vt1 0.690430 0.627930
vt1 0.695312 0.665283
vt1 0.729004 0.614502
vt1 0.794922 0.543945
vt1 0.818848 0.568604
vt1 0.743652 0.664062
vt1 0.846191 0.516602
vt1 0.827637 0.602783
vt1 0.882812 0.581787
vt1 0.888184 0.527588
vt1 0.869629 0.642578
vt1 0.952637 0.661377
vt1 0.046387 0.058594
vt1 0.218384 0.060059
vt1 0.128052 -0.007812
vt1 0.138794 0.164551
vt1 0.100464 0.172852
vt1 0.253418 0.220215
vt1 0.059967 0.214844
vt1 0.182129 0.347168
vt1 0.006172 0.365234
vt1 0.311523 0.251465
vt1 0.033295 0.504150
vt1 0.216797 0.385742
vt1 0.371094 0.387207
vt1 0.181763 0.519531
vt1 0.062439 0.648926
vt1 0.169312 0.618652
vt1 0.220825 0.600830
vt1 0.259033 0.491699
vt1 0.355469 0.471680
vt1 0.309082 0.586426
vt1 0.342285 0.552002
vt1 0.949219 0.371582
vt1 0.944336 0.224609
vt1 0.802734 0.315430
vt1 0.849609 0.155762
vt1 0.956055 0.029297
vt1 0.768555 0.266602
vt1 0.823730 0.031738
vt1 0.730469 0.127930
vt1 0.649902 0.180664
vt1 0.723633 0.034668
vt1 0.672852 0.096680
vt1 0.625977 0.771729
vt1 0.580078 0.907288
vt1 0.731934 0.989983
vt1 0.791016 0.846436
vt1 0.781738 0.676025
vt1 0.860840 0.977112
vt1 0.942871 0.868164
vt1 0.531738 0.240723
vt1 0.707031 0.217285
vt1 0.691406 0.272949
vt1 0.531250 0.313477
vt1 0.401611 0.257812
vt1 0.684570 0.432617
vt1 0.437988 0.380371
vt1 0.504395 0.497070
vt1 0.683594 0.569824
vt1 0.385254 0.489746
vt1 0.600098 0.676758
vt1 0.503418 0.775146
vt1 0.593750 0.750244
vt1 0.568359 0.808838
vt1 0.493896 0.904053
vt1 0.564453 0.704346
vt1 0.486084 0.681641
vt1 0.424805 0.787842
vt1 0.443359 0.645508
vt1 0.368408 0.903564
vt1 0.417969 0.989395
vt1 0.260498 0.992908
vt1 0.365479 0.693115
vt1 0.325928 0.619385
vt1 0.052399 0.695068
vt1 0.112244 0.806641
vt1 0.019577 0.879822
vn -0.228346 0.488189 -0.842520
vn -0.267717 0.842520 -0.472441
vn 0.141732 0.960630 0.228346
vn 0.582677 0.748031 0.314961
vn -0.362205 0.929134 0.055118
vn -0.220472 0.889764 -0.401575
vn -0.606299 0.007874 0.795275
vn 0.181102 0.850394 0.496063
vn -0.141732 -0.944882 0.291339
vn 0.062992 0.283464 -0.960630
vn -0.149606 0.960630 -0.228347
vn -1.000000 -0.023622 -0.039370
vn -0.047244 0.370079 -0.929134
vn 0.763780 0.629921 -0.133858
vn -0.472441 -0.244095 -0.850394
vn -0.015748 -0.842520 0.535433
vn -0.165354 0.984252 -0.055118
vn -0.606299 0.007874 0.795275
vn -0.708661 0.661417 -0.236221
vn -0.062992 0.811024 0.582677
vn -0.362205 0.874016 -0.322835
vn 0.181102 0.393701 -0.905512
vn -0.015748 -1.000000 0.023622
vn -0.125984 -0.952756 0.267717
vn 0.141732 -0.952756 -0.259842
vn 0.283465 -0.818897 0.496063
vn 0.952756 0.015748 0.314961
vn 0.850394 0.496063 0.181102
vn 0.952756 -0.133858 -0.275590
vn 0.850394 0.417323 -0.322835
vn 0.755906 -0.346457 -0.559055
vn -0.181102 0.960630 -0.204724
vn 0.118110 -0.377953 -0.921260
vn 0.157480 0.984252 -0.007874
vn -0.779528 0.566929 -0.259843
vn -0.212598 0.700787 -0.685039
vn -0.653543 -0.330709 -0.685039
vn -0.543307 0.228346 -0.811023
vn -0.425197 0.866142 0.275590
vn -0.228346 0.629921 0.740157
vn 0.110236 0.842520 -0.527559
vn 0.196850 0.748031 0.629921
vn 0.110236 0.874016 -0.480315
vn 0.952756 -0.007874 0.307087
vn 0.440945 0.055118 0.897638
vn 0.826772 0.511811 0.220472
vn 0.023622 0.456693 0.889764
vn -0.165354 -0.078740 0.984252
vn -0.149606 0.960630 -0.220473
vn -0.149606 0.637795 0.755905
vn -0.283465 0.645669 -0.708661
vn -0.622047 0.779527 0.031496
vn 0.165354 0.653543 -0.740157
vn -0.433071 0.771653 -0.464567
vn 0.385827 0.055118 0.921260
vn 0.937008 -0.015748 0.346457
vn 0.897638 -0.307087 0.314961
vn 0.039370 -0.110236 0.992126
vn -0.188976 -0.062992 0.984252
vn 0.251969 -0.826771 0.496063
vn 0.125984 -0.464567 0.874016
vn 0.897638 -0.346457 0.267717
vn 0.929134 -0.023622 0.362205
vn 0.937008 -0.149606 -0.307087
vn 0.803150 -0.433071 -0.417323
vn 0.401575 -0.834646 0.377953
vn 0.811024 -0.299213 -0.503937
vn 0.488189 -0.874016 -0.047244
vn -0.267717 -0.425197 -0.866142
vn 0.055118 -0.275591 -0.960630
vn -0.488189 -0.858268 -0.181102
vn -0.645669 -0.291339 -0.708661
vn 0.661417 0.732283 0.157480
vn -0.236220 0.771653 0.590551
vn -0.244094 0.952756 -0.157480
vn 0.291339 0.574803 -0.763779
vn -0.275591 0.811024 0.519685
vn 0.007874 0.905512 0.425197
vn -0.566929 0.818897 -0.078740
vn -0.448819 0.338583 -0.826772
vn -0.842520 0.141732 0.511811
vn -0.181102 0.606299 0.771653
vn -0.212598 0.031496 0.976378
vn -0.748031 -0.299213 -0.598425
vn -0.606299 -0.409449 -0.685039
vn -0.440945 -0.629921 -0.637795
vn -0.897638 -0.409449 0.157480
vn -0.165354 -0.551181 0.818898
tan 0.152582 -0.829252 -0.521855 1.000000
tan -0.053072 -0.489305 -0.842520 1.000000
tan -0.249612 0.257982 -0.930374 1.000000
tan 0.224750 0.213900 -0.923802 1.000000
tan 0.336103 0.182404 -0.866142 1.000000
tan 0.408147 -0.263253 -0.807365 1.000000
tan 0.590799 0.655527 0.443921 1.000000
tan -0.082026 0.512121 -0.847976 1.000000
tan 0.366855 0.213715 0.871598 1.000000
tan -0.355509 -0.892554 -0.286688 1.000000
tan -0.183334 0.196478 0.946680 1.000000
tan -0.045198 0.653543 0.755905 1.000000
tan -0.115630 0.922934 0.373489 1.000000
tan -0.483415 0.687891 0.478827 1.000000
tan 0.093496 0.921074 -0.316325 1.000000
tan -0.533139 -0.403125 -0.650009 1.000000
tan 0.449501 0.124558 0.875752 1.000000
tan -0.441937 0.806435 -0.344907 1.000000
tan 0.678157 0.703081 -0.065844 1.000000
tan 0.454399 -0.452105 0.678405 1.000000
tan 0.695827 0.084382 -0.552235 1.000000
tan 0.774072 -0.469155 -0.049166 1.000000
tan -0.685039 0.027900 0.724409 1.000000
tan -0.547647 0.291649 0.780209 1.000000
tan -0.585157 -0.291648 0.750201 1.000000
tan -0.435117 0.305785 0.753425 1.000000
tan 0.097092 -0.925228 -0.247442 1.000000
tan 0.519251 -0.843698 -0.127224 1.000000
tan -0.204538 -0.917416 -0.261516 1.000000
tan 0.352285 -0.842086 -0.160580 1.000000
tan -0.546593 -0.791183 -0.248744 1.000000
tan 0.794222 0.035278 -0.537045 1.000000
tan 0.082770 -0.920330 0.388183 1.000000
tan 0.666501 -0.112468 -0.728501 1.000000
tan 0.605059 0.773389 -0.127782 1.000000
tan 0.010044 -0.695083 -0.714179 1.000000
tan 0.621799 -0.609895 -0.298779 1.000000
tan 0.523033 -0.640957 -0.530845 1.000000
tan -0.543121 -0.049662 -0.681877 1.000000
tan 0.001488 0.749147 -0.637113 1.000000
tan 0.549817 -0.477401 -0.647529 1.000000
tan -0.138880 0.649761 -0.728191 1.000000
tan -0.427367 -0.370637 -0.772521 1.000000
tan 0.142476 0.855230 -0.420113 1.000000
tan 0.421477 0.812449 -0.256929 1.000000
tan -0.449377 0.817658 -0.212971 1.000000
tan -0.073470 0.889578 -0.454647 1.000000
tan -0.248001 0.953252 0.034596 1.000000
tan -0.476533 -0.265175 -0.832042 1.000000
tan -0.029760 0.755905 -0.643685 1.000000
tan 0.022816 -0.710893 -0.656829 1.000000
tan -0.769484 -0.607043 -0.172980 1.000000
tan -0.019530 -0.744063 -0.661355 1.000000
tan -0.163990 -0.552235 -0.764399 1.000000
tan -0.855974 0.348193 0.337653 1.000000
tan -0.292269 0.467543 0.811705 1.000000
tan -0.147312 0.403249 0.813007 1.000000
tan -0.734329 0.664021 0.102920 1.000000
tan -0.751751 0.643251 -0.103168 1.000000
tan -0.098952 0.470333 0.834149 1.000000
tan -0.254635 0.839606 0.482981 1.000000
tan 0.417385 0.843201 -0.308265 1.000000
tan 0.147622 0.873458 -0.321719 1.000000
tan 0.096472 0.924670 -0.156116 1.000000
tan 0.383657 0.816541 -0.108996 1.000000
tan 0.839978 0.362701 -0.091512 1.000000
tan 0.268337 0.895034 -0.099572 1.000000
tan 0.838118 0.482361 -0.263129 1.000000
tan 0.450493 0.742389 -0.503689 1.000000
tan 0.325253 0.907682 -0.241739 1.000000
tan 0.323331 -0.012400 -0.812822 1.000000
tan 0.644057 0.265484 -0.695951 1.000000
tan 0.221402 -0.001736 -0.921818 1.000000
tan -0.114762 0.563581 -0.782317 1.000000
tan -0.322587 -0.231447 -0.900242 1.000000
tan -0.231570 -0.723107 -0.632525 1.000000
tan 0.302437 0.582925 -0.749334 1.000000
tan 0.223944 0.409945 -0.877178 1.000000
tan -0.346457 -0.321409 -0.848162 1.000000
tan 0.746296 -0.363445 -0.553971 1.000000
tan -0.531651 -0.153760 -0.832600 1.000000
tan -0.654907 0.505487 -0.550871 1.000000
tan -0.914874 -0.353649 -0.187798 1.000000
tan 0.645545 -0.127224 -0.743319 1.000000
tan 0.724781 0.008680 -0.646661 1.000000
tan 0.576353 0.340815 -0.735073 1.000000
tan 0.012896 -0.347573 -0.830181 1.000000
tan -0.227912 -0.784054 -0.573749 1.000000
f 3/3/3 2/2/2 1/1/1
f 3/3/3 5/5/5 4/4/4
f 4/4/4 6/6/6 3/3/3
f 7/7/7 6/6/6 4/4/4
f 4/4/4 8/8/8 7/7/7
f 7/7/7 8/8/8 9/9/9
f 10/10/10 8/8/8 4/4/4
f 13/13/13 12/12/12 11/11/11
f 15/15/15 13/13/13 14/14/14
f 13/13/13 15/15/15 16/16/16
f 17/17/17 15/15/15 14/14/14
f 15/15/15 18/18/18 16/16/16
f 19/19/19 15/15/15 17/17/17
f 19/19/19 18/18/18 15/15/15
f 17/17/17 20/20/20 19/19/19
f 19/19/19 21/21/21 18/18/18
f 19/19/19 22/22/22 21/21/21
f 25/25/25 24/24/24 23/23/23
f 23/23/23 24/24/24 26/26/26
f 29/29/29 28/28/28 27/27/27
f 29/29/29 30/30/30 28/28/28
f 29/29/29 31/31/31 30/30/30
f 32/32/32 28/28/28 30/30/30
f 31/31/31 33/33/33 30/30/30
f 34/34/34 32/32/32 30/30/30
f 32/32/32 34/34/34 35/35/35
f 30/30/30 33/33/33 36/36/36
f 34/34/34 30/30/30 36/36/36
f 38/38/38 33/33/33 37/37/37
f 36/36/36 33/33/33 38/38/38
f 39/39/39 36/36/36 38/38/38
f 35/35/35 34/34/34 40/40/40
f 40/40/40 34/34/34 36/36/36
f 40/40/40 36/36/36 39/39/39
f 35/35/35 40/40/40 41/41/41
f 40/40/40 39/39/39 42/42/42
f 42/42/42 43/43/43 40/40/40
f 46/46/46 45/45/45 44/44/44
f 47/47/47 45/45/45 46/46/46
f 48/48/48 45/45/45 47/47/47
f 47/47/47 46/46/46 49/49/49
f 47/47/47 50/50/50 48/48/48
f 47/47/47 49/49/49 51/51/51
f 51/51/51 50/50/50 47/47/47
f 52/52/52 51/51/51 49/49/49
f 53/53/53 50/50/50 51/51/51
f 53/53/53 51/51/51 54/54/54
f 57/57/57 56/56/56 55/55/55
f 57/57/57 55/55/55 58/58/58
f 55/55/55 59/59/59 58/58/58
f 58/58/58 60/60/60 57/57/57
f 58/58/58 59/59/59 61/61/61
f 61/61/61 60/60/60 58/58/58
f 64/64/64 63/63/63 62/62/62
f 64/64/64 62/62/62 65/65/65
f 65/65/65 62/62/62 66/66/66
f 64/64/64 65/65/65 67/67/67
f 66/66/66 68/68/68 65/65/65
f 67/67/67 65/65/65 68/68/68
f 68/68/68 69/69/69 67/67/67
f 70/70/70 67/67/67 69/69/69
f 69/69/69 68/68/68 71/71/71
f 72/72/72 70/70/70 69/69/69
f 72/72/72 69/69/69 71/71/71
f 75/75/75 74/74/74 73/73/73
f 73/73/73 76/76/76 75/75/75
f 78/78/78 73/73/73 77/77/77
f 78/78/78 79/79/79 73/73/73
f 73/73/73 79/79/79 76/76/76
f 79/79/79 78/78/78 80/80/80
f 76/76/76 79/79/79 81/81/81
f 82/82/82 76/76/76 81/81/81
f 83/83/83 82/82/82 81/81/81
f 80/80/80 84/84/84 79/79/79
f 81/81/81 79/79/79 84/84/84
f 85/85/85 84/84/84 80/80/80
f 85/85/85 86/86/86 84/84/84
f 81/81/81 87/87/87 83/83/83
f 81/81/81 84/84/84 87/87/87
f 86/86/86 87/87/87 84/84/84
f 88/88/88 83/83/83 87/87/87
f 86/86/86 88/88/88 87/87/87
