mtllib SM_Frames_03_LOD1.mtl
g SM_Frames_03_LOD1
#Vertices 70
#Indices 132
#Section 0 Offset 0 NumIndices 132 MaterialIndex 0 MI_Frames
v -0.002235 0.044827 -0.145082
v -0.008249 -0.000014 -0.182387
v 0.010117 0.000918 -0.182033
v -0.003261 -0.009705 0.182518
v -0.008260 0.037512 0.146054
v 0.010161 0.036471 0.146427
v -0.002439 0.365559 -0.140749
v -0.008226 0.403435 -0.184216
v 0.010145 0.403022 -0.183159
v 0.001768 0.369264 -0.148187
v 0.001768 0.036819 -0.148187
v 0.001768 0.369264 0.148341
v 0.001768 0.036819 0.148341
v 0.010006 0.368421 0.147978
v 0.001100 0.366415 0.149750
v 0.010020 0.403365 0.181969
v -0.008251 0.403943 0.182383
v -0.008260 0.037512 0.146054
v -0.002235 0.044827 -0.145082
v 0.010161 0.036471 0.146427
v 0.010117 0.000918 -0.182033
v -0.003261 -0.009705 0.182518
v -0.008249 -0.000014 -0.182387
v -0.008228 0.000114 0.184211
v -0.008227 0.403443 0.184231
v 0.008005 0.403543 0.184203
v 0.010049 0.000585 0.183526
v 0.010006 0.401320 0.182024
v 0.010006 0.034843 0.150143
v 0.010107 0.366708 0.148633
v 0.008005 0.037072 0.147964
v -0.008233 0.366592 0.147966
v -0.008229 0.037051 0.147969
v -0.008226 0.403435 -0.184216
v -0.008228 0.000113 -0.184219
v 0.008005 -0.000000 -0.184204
v 0.010145 0.403022 -0.183159
v 0.010006 0.002229 -0.182025
v 0.010191 0.036623 -0.149136
v -0.002439 0.365559 -0.140749
v -0.008226 0.037052 -0.147967
v 0.010107 0.366708 0.148633
v -0.008227 0.403443 0.184231
v -0.008233 0.366592 0.147966
v 0.010006 0.401320 0.182024
v 0.008005 0.403543 0.184203
v 0.010049 0.000585 0.183526
v -0.008229 0.037051 0.147969
v -0.008228 0.000114 0.184211
v 0.010006 0.034843 0.150143
v 0.008005 0.037072 0.147964
v -0.008228 0.000113 -0.184219
v 0.010006 0.002229 -0.182025
v 0.008005 -0.000000 -0.184204
v -0.008226 0.037052 -0.147967
v 0.010191 0.036623 -0.149136
v 0.008005 0.403935 -0.182492
v -0.008251 0.403943 0.182383
v -0.008250 0.403964 -0.182401
v 0.010020 0.403365 0.181969
v 0.010006 0.401934 -0.180553
v 0.010006 0.368421 0.147978
v 0.010067 0.366979 -0.146236
v 0.001100 0.366415 0.149750
v -0.008267 0.366422 -0.146155
v 0.010067 0.366979 -0.146236
v -0.008250 0.403964 -0.182401
v -0.008267 0.366422 -0.146155
v 0.010006 0.401934 -0.180553
v 0.008005 0.403935 -0.182492
vt 0.338867 0.811279
vt 0.346680 0.902222
vt 0.321289 0.900879
vt 0.339355 0.809448
vt 0.346680 0.902344
vt 0.321045 0.900818
vt 0.339111 0.810913
vt 0.346680 0.902771
vt 0.321045 0.901184
vt 0.000000 0.688721
vt 0.000000 0.455078
vt 0.208618 0.688721
vt 0.208618 0.455078
vt 0.348877 0.898315
vt 0.336670 0.898376
vt 0.349121 0.821533
vt 0.323486 0.820801
vt 0.509766 0.695557
vt 0.504883 0.902832
vt 0.497559 0.695312
vt 0.472656 0.929138
vt 0.464355 0.669678
vt 0.460205 0.929382
vt 0.815918 0.667480
vt 0.815918 0.954468
vt 0.804688 0.954559
vt 0.803711 0.667969
vt 0.802734 0.952972
vt 0.780273 0.692383
vt 0.779785 0.928345
vt 0.778809 0.693848
vt 0.767090 0.928284
vt 0.767090 0.693848
vt 0.715820 0.954468
vt 0.715820 0.667480
vt 0.727539 0.667480
vt 0.728516 0.954163
vt 0.729004 0.669189
vt 0.752441 0.693604
vt 0.759766 0.927551
vt 0.764648 0.693848
vt 0.349121 0.820679
vt 0.323730 0.902771
vt 0.323486 0.820312
vt 0.348877 0.898315
vt 0.348877 0.898315
vt 0.349121 0.821167
vt 0.323730 0.902893
vt 0.323486 0.820312
vt 0.348877 0.898315
vt 0.348877 0.898315
vt 0.346924 0.820312
vt 0.321533 0.824463
vt 0.321533 0.824463
vt 0.346680 0.902893
vt 0.321045 0.901123
vt 0.444824 0.929504
vt 0.456299 0.669678
vt 0.456299 0.929443
vt 0.444092 0.670166
vt 0.443359 0.928101
vt 0.419434 0.694336
vt 0.418945 0.903687
vt 0.413330 0.693115
vt 0.406494 0.903625
vt 0.349121 0.821045
vt 0.323730 0.902283
vt 0.323486 0.820679
vt 0.348877 0.898315
vt 0.348877 0.898315
vt1 0.299805 0.349609
vt1 0.180298 0.360352
vt1 0.182007 0.326172
vt1 0.031769 0.246094
vt1 0.041473 0.368652
vt1 0.007526 0.366211
vt1 0.186157 0.285645
vt1 0.066772 0.295898
vt1 0.068848 0.261719
vt1 0.008064 0.991936
vt1 0.008064 0.389160
vt1 0.545898 0.991936
vt1 0.545898 0.389160
vt1 0.072571 0.363281
vt1 0.072449 0.346680
vt1 0.173706 0.363281
vt1 0.174683 0.329590
vt1 0.992188 0.395996
vt1 0.978516 0.924072
vt1 0.959473 0.395508
vt1 0.894531 0.991104
vt1 0.873047 0.330078
vt1 0.862305 0.991753
vt1 0.844727 0.260254
vt1 0.844727 0.991760
vt1 0.814453 0.991936
vt1 0.812500 0.261230
vt1 0.810547 0.987907
vt1 0.751465 0.323242
vt1 0.749512 0.925171
vt1 0.747070 0.327148
vt1 0.717285 0.924927
vt1 0.717285 0.327148
vt1 0.571777 0.991745
vt1 0.571777 0.260254
vt1 0.602051 0.260254
vt1 0.604492 0.990997
vt1 0.605957 0.264160
vt1 0.666504 0.326660
vt1 0.686035 0.923035
vt1 0.699219 0.327148
vt1 0.463867 0.262207
vt1 0.430176 0.369141
vt1 0.429932 0.261719
vt1 0.463623 0.363281
vt1 0.463623 0.363281
vt1 0.334717 0.262695
vt1 0.301270 0.369141
vt1 0.301025 0.261719
vt1 0.334473 0.363281
vt1 0.334473 0.363281
vt1 0.396484 0.261719
vt1 0.362793 0.267090
vt1 0.362793 0.267090
vt1 0.396240 0.369141
vt1 0.362061 0.366699
vt1 0.008064 0.204590
vt1 0.669922 0.234375
vt1 0.008224 0.234375
vt1 0.668945 0.202148
vt1 0.011581 0.200684
vt1 0.607422 0.138184
vt1 0.073792 0.136719
vt1 0.610352 0.122559
vt1 0.073975 0.104492
vt1 0.044617 0.003418
vt1 0.010994 0.110352
vt1 0.010689 0.002930
vt1 0.044342 0.104980
vt1 0.044342 0.104980
vn 0.000000 0.692913 -0.716535
vn 0.000000 0.692913 -0.716535
vn 0.000000 0.692913 -0.716535
vn 0.000000 0.700787 0.716535
vn 0.000000 0.700787 0.716535
vn 0.000000 0.700787 0.716535
vn 0.000000 0.700787 0.716535
vn 0.000000 0.700787 0.716535
vn 0.000000 0.700787 0.716535
vn 1.000000 0.000000 0.000000
vn 1.000000 0.000000 0.000000
vn 1.000000 0.000000 0.000000
vn 1.000000 0.000000 0.000000
vn 0.000000 -0.700787 0.716535
vn 0.000000 -0.700787 0.716535
vn 0.000000 -0.700787 0.716535
vn 0.000000 -0.700787 0.716535
vn 0.000000 1.000000 -0.000000
vn 0.417323 0.905512 -0.000000
vn 0.976378 0.228346 -0.000000
vn 0.921260 -0.393701 0.000000
vn 0.322835 -0.944882 0.000000
vn 0.000000 -1.000000 0.000000
vn 0.000000 0.000000 1.000000
vn 0.000000 0.000000 1.000000
vn 0.070866 0.000000 1.000000
vn 0.834646 0.000000 0.559055
vn 0.984252 0.000000 0.157480
vn 1.000000 -0.000000 -0.023622
vn 0.897638 -0.000000 -0.440945
vn 0.165354 -0.000000 -0.984252
vn 0.000000 -0.000000 -1.000000
vn 0.000000 -0.000000 -1.000000
vn 0.000000 -0.000000 -1.000000
vn 0.000000 -0.000000 -1.000000
vn 0.070866 -0.000000 -1.000000
vn 0.913386 -0.000000 -0.409449
vn 0.984252 -0.000000 -0.157480
vn 0.968504 0.000000 0.236220
vn 0.401575 0.000000 0.913386
vn 0.000000 0.000000 1.000000
vn 0.000000 0.700787 -0.716535
vn 0.000000 0.700787 -0.716535
vn 0.000000 0.700787 -0.716535
vn 0.000000 0.700787 -0.716535
vn 0.000000 0.700787 -0.716535
vn 0.000000 -0.700787 -0.716535
vn 0.000000 -0.700787 -0.716535
vn 0.000000 -0.700787 -0.716535
vn 0.000000 -0.700787 -0.716535
vn 0.000000 -0.700787 -0.716535
vn 0.000000 -0.700787 0.716535
vn 0.000000 -0.700787 0.716535
vn 0.000000 -0.700787 0.716535
vn 0.000000 -0.700787 0.716535
vn 0.000000 -0.700787 0.716535
vn 0.070866 1.000000 -0.000000
vn 0.000000 1.000000 -0.000000
vn 0.000000 1.000000 -0.000000
vn 0.842520 0.535433 -0.000000
vn 0.992126 0.149606 -0.000000
vn 1.000000 -0.023622 0.000000
vn 0.905512 -0.425197 0.000000
vn -0.078740 -1.000000 0.000000
vn 0.000000 -1.000000 0.000000
vn 0.000000 -0.692913 -0.716535
vn 0.000000 -0.692913 -0.716535
vn 0.000000 -0.692913 -0.716535
vn 0.000000 -0.692913 -0.716535
vn 0.000000 -0.692913 -0.716535
tan -0.261269 0.693967 0.671089 1.000000
tan -0.344411 0.671399 0.649265 1.000000
tan 0.288921 0.688325 0.665633 1.000000
tan -0.279249 -0.688325 0.673197 1.000000
tan -0.329531 -0.677041 0.662161 1.000000
tan 0.290409 -0.688325 0.673197 1.000000
tan -0.128402 -0.710893 0.695269 1.000000
tan -0.351727 -0.671399 0.656643 1.000000
tan 0.173042 -0.705251 0.689751 1.000000
tan 0.000000 -1.000000 0.000000 1.000000
tan 0.000000 -1.000000 0.000000 1.000000
tan 0.000000 -1.000000 0.000000 1.000000
tan 0.000000 -1.000000 0.000000 1.000000
tan 0.893174 0.321595 0.314527 1.000000
tan 0.156364 0.705251 0.689751 1.000000
tan 0.022320 0.716535 0.700787 1.000000
tan 0.044640 0.716535 0.700787 1.000000
tan 0.000000 0.000000 1.000000 1.000000
tan 0.000000 0.000000 0.954244 1.000000
tan 0.000000 0.000000 0.979974 1.000000
tan 0.000000 0.000000 0.939860 1.000000
tan 0.000000 0.000000 0.960134 1.000000
tan 0.000000 0.000000 1.000000 1.000000
tan 0.000000 -1.000000 0.000000 1.000000
tan 0.000000 -1.000000 0.000000 1.000000
tan 0.000000 -1.000000 0.000000 1.000000
tan 0.000000 -0.942588 0.000000 1.000000
tan 0.000000 -0.985492 0.000000 1.000000
tan 0.000000 -1.000000 0.000000 1.000000
tan 0.000000 -0.942650 0.000000 1.000000
tan 0.000000 -0.985554 0.000000 1.000000
tan 0.000000 -1.000000 0.000000 1.000000
tan 0.000000 -1.000000 0.000000 1.000000
tan 0.000000 -1.000000 0.000000 1.000000
tan 0.000000 -1.000000 0.000000 1.000000
tan 0.000000 -1.000000 0.000000 1.000000
tan 0.000000 -0.935954 0.000000 1.000000
tan 0.000000 -0.985492 0.000000 1.000000
tan 0.000000 -0.972224 0.000000 1.000000
tan 0.000000 -0.950462 0.000000 1.000000
tan 0.000000 -1.000000 0.000000 1.000000
tan 0.706429 -0.022568 -0.022072 1.000000
tan 0.050158 -0.716535 -0.700787 1.000000
tan 0.072230 -0.716535 -0.700787 1.000000
tan 0.747970 -0.473929 -0.463513 1.000000
tan -0.725649 0.490855 0.480067 1.000000
tan 0.722053 -0.016926 0.016554 1.000000
tan 0.050282 -0.716535 0.700787 1.000000
tan 0.078492 -0.716535 0.700787 1.000000
tan 0.742451 -0.479571 0.469031 1.000000
tan -0.731291 0.490855 -0.480067 1.000000
tan -0.368529 -0.665757 -0.651125 1.000000
tan 0.195362 -0.705251 -0.689751 1.000000
tan 0.000000 -0.716535 -0.700787 1.000000
tan -0.351727 -0.671399 -0.656643 1.000000
tan 0.173042 -0.705251 -0.689751 1.000000
tan 0.000000 0.000000 1.000000 1.000000
tan 0.000000 0.000000 1.000000 1.000000
tan 0.000000 0.000000 1.000000 1.000000
tan 0.000000 0.000000 0.928018 1.000000
tan 0.000000 0.000000 0.992126 1.000000
tan 0.000000 0.000000 1.000000 1.000000
tan 0.000000 0.000000 0.945254 1.000000
tan 0.000000 0.000000 1.000000 1.000000
tan 0.000000 0.000000 1.000000 1.000000
tan 0.021080 -0.716535 0.692913 1.000000
tan 0.050034 -0.716535 0.692913 1.000000
tan 0.044392 -0.716535 0.692913 1.000000
tan 0.899684 -0.304669 0.294625 1.000000
tan -0.744125 0.479571 -0.463761 1.000000
f 3/3/3 2/2/2 1/1/1
f 6/6/6 5/5/5 4/4/4
f 9/9/9 8/8/8 7/7/7
f 12/12/12 11/11/11 10/10/10
f 12/12/12 13/13/13 11/11/11
f 16/16/16 15/15/15 14/14/14
f 17/17/17 15/15/15 16/16/16
f 20/20/20 19/19/19 18/18/18
f 19/19/19 20/20/20 21/21/21
f 20/20/20 22/22/22 21/21/21
f 23/23/23 21/21/21 22/22/22
f 26/26/26 25/25/25 24/24/24
f 24/24/24 27/27/27 26/26/26
f 28/28/28 26/26/26 27/27/27
f 27/27/27 29/29/29 28/28/28
f 30/30/30 28/28/28 29/29/29
f 29/29/29 31/31/31 30/30/30
f 32/32/32 30/30/30 31/31/31
f 31/31/31 33/33/33 32/32/32
f 36/36/36 35/35/35 34/34/34
f 34/34/34 37/37/37 36/36/36
f 36/36/36 37/37/37 38/38/38
f 39/39/39 38/38/38 37/37/37
f 40/40/40 39/39/39 37/37/37
f 41/41/41 39/39/39 40/40/40
f 44/44/44 43/43/43 42/42/42
f 42/42/42 43/43/43 45/45/45
f 46/46/46 45/45/45 43/43/43
f 49/49/49 48/48/48 47/47/47
f 47/47/47 48/48/48 50/50/50
f 51/51/51 50/50/50 48/48/48
f 54/54/54 53/53/53 52/52/52
f 55/55/55 52/52/52 53/53/53
f 56/56/56 55/55/55 53/53/53
f 59/59/59 58/58/58 57/57/57
f 60/60/60 57/57/57 58/58/58
f 61/61/61 57/57/57 60/60/60
f 60/60/60 62/62/62 61/61/61
f 63/63/63 61/61/61 62/62/62
f 64/64/64 63/63/63 62/62/62
f 65/65/65 63/63/63 64/64/64
f 68/68/68 67/67/67 66/66/66
f 66/66/66 67/67/67 69/69/69
f 70/70/70 69/69/69 67/67/67
