mtllib SM_Food_SM_Carrot_02_LOD1.mtl
g SM_Food_SM_Carrot_02_LOD1
#Vertices 125
#Indices 432
#Section 0 Offset 0 NumIndices 432 MaterialIndex 0 MI_Food
v -0.007918 -0.008967 0.040599
v -0.006824 -0.009116 0.054399
v 0.001263 -0.007881 0.056496
v -0.004339 -0.009315 0.022564
v 0.007342 -0.008070 0.013948
v 0.000582 -0.009699 0.008556
v 0.008476 -0.001649 0.054566
v 0.001832 -0.009717 -0.005346
v 0.016274 -0.000297 -0.011858
v 0.010527 0.008253 0.054998
v 0.011227 -0.005654 -0.014239
v -0.001449 -0.009733 -0.009268
v 0.003548 -0.009015 -0.016533
v 0.017514 0.009427 -0.008814
v 0.012555 0.012051 0.032235
v 0.009280 0.011543 0.048786
v 0.014304 0.019797 -0.007410
v -0.001449 -0.009733 -0.009268
v 0.000582 -0.009699 0.008556
v 0.001832 -0.009717 -0.005346
v -0.007566 -0.008785 -0.006684
v -0.006563 -0.006286 0.008020
v -0.014900 -0.001317 -0.001564
v -0.004339 -0.009315 0.022564
v -0.016438 0.003512 0.024769
v -0.018004 0.010551 -0.005451
v -0.013060 -0.003953 0.026128
v -0.007918 -0.008967 0.040599
v -0.013783 -0.006352 0.053686
v -0.006824 -0.009116 0.054399
v -0.019413 0.001715 0.053044
v -0.018881 0.010308 0.053376
v -0.015271 0.015059 0.024377
v -0.015526 0.018187 -0.002959
v -0.013415 0.016494 0.055988
v -0.005626 0.025777 -0.003406
v -0.010085 0.024043 -0.004323
v -0.001926 0.022866 0.022391
v 0.001545 0.027098 -0.007041
v -0.006618 0.019419 0.053836
v -0.009207 0.019478 0.060254
v 0.007655 0.025199 -0.007590
v 0.001545 0.027098 -0.007041
v 0.007067 0.030236 -0.031823
v 0.014321 0.024802 -0.033673
v 0.001817 0.030833 -0.052916
v 0.014304 0.019797 -0.007410
v 0.009946 0.024130 -0.058681
v -0.001679 0.024786 -0.061824
v 0.019451 0.010201 -0.026304
v 0.017514 0.009427 -0.008814
v 0.016274 -0.000297 -0.011858
v 0.011227 -0.005654 -0.014239
v 0.017470 0.015253 -0.048122
v 0.013994 -0.003919 -0.039481
v 0.003548 -0.009015 -0.016533
v 0.000733 -0.009793 -0.030490
v -0.002231 -0.009766 -0.021410
v -0.002680 -0.007899 -0.050612
v 0.012444 0.005116 -0.059229
v 0.005273 -0.003250 -0.056586
v -0.002405 -0.002322 -0.059375
v 0.002002 0.004387 -0.062224
v -0.007313 0.005347 -0.061737
v 0.004329 0.015823 -0.061467
v -0.004303 0.020013 -0.060370
v -0.002583 0.012880 -0.067743
v -0.000834 0.009621 -0.064947
v 0.004178 0.017189 0.055504
v 0.009280 0.011543 0.048786
v 0.010527 0.008253 0.054998
v 0.008607 0.019243 0.026377
v 0.012555 0.012051 0.032235
v 0.014304 0.019797 -0.007410
v -0.001362 0.018777 0.058119
v 0.007655 0.025199 -0.007590
v -0.001926 0.022866 0.022391
v -0.006618 0.019419 0.053836
v 0.001545 0.027098 -0.007041
v -0.001449 -0.009733 -0.009268
v 0.003548 -0.009015 -0.016533
v -0.002231 -0.009766 -0.021410
v -0.007566 -0.008785 -0.006684
v 0.000733 -0.009793 -0.030490
v -0.002680 -0.007899 -0.050612
v -0.015326 -0.006069 -0.041779
v -0.014900 -0.001317 -0.001564
v -0.016250 0.002597 -0.058890
v -0.002405 -0.002322 -0.059375
v -0.023539 0.005694 -0.043175
v -0.018004 0.010551 -0.005451
v -0.007313 0.005347 -0.061737
v -0.022047 0.020875 -0.039884
v -0.015526 0.018187 -0.002959
v -0.010085 0.024043 -0.004323
v -0.016853 0.020512 -0.058680
v 0.001545 0.027098 -0.007041
v -0.005626 0.025777 -0.003406
v -0.007458 0.028665 -0.021981
v 0.007067 0.030236 -0.031823
v -0.011163 0.031725 -0.042572
v 0.001817 0.030833 -0.052916
v -0.007119 0.028638 -0.058118
v -0.001679 0.024786 -0.061824
v -0.011427 0.017514 -0.061328
v -0.004303 0.020013 -0.060370
v -0.007260 0.015124 -0.064781
v -0.002583 0.012880 -0.067743
v -0.009207 0.019478 0.060254
v -0.006618 0.019419 0.053836
v -0.001362 0.018777 0.058119
v 0.006286 0.015283 0.062266
v 0.004178 0.017189 0.055504
v 0.010527 0.008253 0.054998
v -0.020017 0.008477 0.059042
v -0.013415 0.016494 0.055988
v -0.018881 0.010308 0.053376
v -0.019413 0.001715 0.053044
v 0.008189 -0.000565 0.062826
v 0.008476 -0.001649 0.054566
v 0.001263 -0.007881 0.056496
v -0.003465 -0.008990 0.063048
v -0.006824 -0.009116 0.054399
v -0.015846 -0.005234 0.060962
v -0.013783 -0.006352 0.053686
vt 0.633789 0.805176
vt 0.644043 0.807861
vt 0.644531 0.813965
vt 0.620117 0.805420
vt 0.612305 0.813110
vt 0.608887 0.807495
vt 0.642090 0.820801
vt 0.598145 0.807251
vt 0.592285 0.819824
vt 0.642090 0.828491
vt 0.590820 0.814209
vt 0.595215 0.804565
vt 0.589844 0.807983
vt 0.593750 0.827393
vt 0.624512 0.830933
vt 0.637695 0.830811
vt 0.594238 0.835571
vt 0.720703 0.935181
vt 0.708008 0.939270
vt 0.716797 0.934204
vt 0.720703 0.940186
vt 0.710449 0.944855
vt 0.719727 0.948853
vt 0.699219 0.945648
vt 0.702148 0.959106
vt 0.725586 0.955627
vt 0.698730 0.953674
vt 0.687012 0.951538
vt 0.678711 0.958679
vt 0.676758 0.953430
vt 0.681641 0.965485
vt 0.683594 0.971588
vt 0.705566 0.967102
vt 0.725586 0.961884
vt 0.684082 0.977661
vt 0.728516 0.970261
vt 0.728516 0.967316
vt 0.710449 0.977707
vt 0.732422 0.975327
vt 0.687500 0.982574
vt 0.682617 0.982864
vt 0.986328 0.852783
vt 0.987305 0.857544
vt 0.966797 0.857422
vt 0.965820 0.850830
vt 0.948242 0.858398
vt 0.985840 0.846069
vt 0.946777 0.849609
vt 0.939453 0.852783
vt 0.971191 0.838867
vt 0.983887 0.837402
vt 0.980957 0.829834
vt 0.978516 0.824097
vt 0.956055 0.843140
vt 0.960449 0.828857
vt 0.975586 0.817871
vt 0.964355 0.817139
vt 0.971191 0.814087
vt 0.947266 0.820679
vt 0.947754 0.836548
vt 0.946289 0.829224
vt 0.940430 0.827637
vt 0.939941 0.834839
vt 0.933594 0.832886
vt 0.940918 0.843994
vt 0.936035 0.849609
vt 0.933105 0.841919
vt 0.935547 0.839600
vt 0.616211 0.978470
vt 0.621582 0.984070
vt 0.616699 0.986664
vt 0.638672 0.979462
vt 0.633789 0.985435
vt 0.664062 0.982300
vt 0.614258 0.974319
vt 0.664062 0.975815
vt 0.641113 0.970947
vt 0.617188 0.969971
vt 0.663574 0.970993
vt 0.603027 0.314453
vt 0.599609 0.308105
vt 0.604004 0.304688
vt 0.607422 0.317383
vt 0.603027 0.296875
vt 0.610840 0.280762
vt 0.616211 0.291504
vt 0.615723 0.321777
vt 0.625488 0.280762
vt 0.618164 0.273926
vt 0.625977 0.292969
vt 0.626953 0.320312
vt 0.626953 0.274414
vt 0.636230 0.295898
vt 0.634277 0.323242
vt 0.641113 0.322754
vt 0.637207 0.282715
vt 0.651367 0.321777
vt 0.645020 0.323730
vt 0.646973 0.309570
vt 0.659180 0.302246
vt 0.646484 0.293945
vt 0.653809 0.283203
vt 0.645508 0.281738
vt 0.645996 0.275879
vt 0.636719 0.277832
vt 0.641113 0.274414
vt 0.635742 0.272461
vt 0.635254 0.268066
vt 0.770020 0.864502
vt 0.770020 0.869629
vt 0.764160 0.867798
vt 0.757812 0.863770
vt 0.757324 0.868286
vt 0.750000 0.860718
vt 0.775879 0.853882
vt 0.775879 0.862549
vt 0.779785 0.854736
vt 0.777832 0.846313
vt 0.754395 0.853027
vt 0.749023 0.851318
vt 0.754883 0.843872
vt 0.760254 0.845703
vt 0.762207 0.839478
vt 0.769531 0.845459
vt 0.770020 0.840210
vt1 0.694336 0.267090
vt1 0.671387 0.183105
vt1 0.620117 0.179199
vt1 0.691406 0.384277
vt1 0.627441 0.448730
vt1 0.674316 0.477051
vt1 0.562988 0.199707
vt1 0.676758 0.565918
vt1 0.571289 0.617432
vt1 0.499023 0.200195
vt1 0.618164 0.627686
vt1 0.698730 0.589111
vt1 0.670898 0.637207
vt1 0.508301 0.603271
vt1 0.478760 0.344238
vt1 0.479492 0.236816
vt1 0.439453 0.597900
vt1 0.407227 0.471680
vt1 0.373047 0.366211
vt1 0.415527 0.440918
vt1 0.365479 0.473145
vt1 0.326416 0.387207
vt1 0.292725 0.465820
vt1 0.319824 0.293457
vt1 0.206909 0.316406
vt1 0.236206 0.512451
vt1 0.252441 0.291016
vt1 0.270508 0.190918
vt1 0.210571 0.122559
vt1 0.254395 0.105469
vt1 0.153564 0.144531
vt1 0.102478 0.160645
vt1 0.140137 0.345215
vt1 0.183838 0.513672
vt1 0.051544 0.166504
vt1 0.113525 0.538818
vt1 0.138306 0.537354
vt1 0.051147 0.389648
vt1 0.071045 0.570557
vt1 0.010406 0.197266
vt1 0.008064 0.154297
vt1 0.968750 0.940338
vt1 0.976562 0.979965
vt1 0.806641 0.979019
vt1 0.798340 0.923889
vt1 0.652344 0.987144
vt1 0.964355 0.884216
vt1 0.640137 0.913269
vt1 0.577148 0.940063
vt1 0.844727 0.822998
vt1 0.951660 0.811279
vt1 0.927246 0.747314
vt1 0.904297 0.699951
vt1 0.716309 0.859375
vt1 0.753418 0.739258
vt1 0.880371 0.647705
vt1 0.784180 0.641846
vt1 0.842285 0.615479
vt1 0.640625 0.671143
vt1 0.645020 0.804199
vt1 0.633301 0.742188
vt1 0.585449 0.729736
vt1 0.582520 0.789551
vt1 0.529297 0.773071
vt1 0.587402 0.866699
vt1 0.547363 0.913391
vt1 0.523926 0.848999
vt1 0.543457 0.829224
vt1 0.297119 0.093750
vt1 0.340088 0.140625
vt1 0.301025 0.162598
vt1 0.482910 0.102051
vt1 0.444336 0.152344
vt1 0.697266 0.125977
vt1 0.278076 0.059082
vt1 0.697266 0.071289
vt1 0.502930 0.030762
vt1 0.302246 0.022461
vt1 0.691895 0.031250
vt1 0.035217 0.914307
vt1 0.008064 0.862061
vt1 0.046417 0.830811
vt1 0.075012 0.937073
vt1 0.037689 0.765259
vt1 0.101685 0.633057
vt1 0.147461 0.721924
vt1 0.144043 0.976273
vt1 0.224609 0.632324
vt1 0.163818 0.573975
vt1 0.229126 0.734619
vt1 0.237305 0.965149
vt1 0.235352 0.576904
vt1 0.314697 0.759644
vt1 0.299561 0.986931
vt1 0.357178 0.982819
vt1 0.323242 0.649170
vt1 0.440430 0.976273
vt1 0.388672 0.992455
vt1 0.405273 0.872314
vt1 0.507812 0.809692
vt1 0.401367 0.740479
vt1 0.464600 0.652344
vt1 0.394287 0.637451
vt1 0.398682 0.590576
vt1 0.318604 0.604980
vt1 0.356201 0.578369
vt1 0.310791 0.561279
vt1 0.304932 0.524414
vt1 0.898438 0.545410
vt1 0.895508 0.588867
vt1 0.846191 0.572754
vt1 0.794434 0.538818
vt1 0.788086 0.577393
vt1 0.725586 0.513184
vt1 0.945801 0.455078
vt1 0.945801 0.528564
vt1 0.979492 0.462402
vt1 0.961914 0.391602
vt1 0.763672 0.448242
vt1 0.719238 0.433594
vt1 0.767578 0.371094
vt1 0.815430 0.385742
vt1 0.829102 0.333008
vt1 0.891113 0.383789
vt1 0.895996 0.338867
vn -0.307087 -0.952756 -0.015748
vn -0.125984 -0.992126 0.023622
vn 0.393701 -0.913386 0.110236
vn -0.259843 -0.960630 -0.055118
vn 0.464567 -0.881890 0.047244
vn -0.086614 -0.992126 0.023622
vn 0.874016 -0.464567 0.133858
vn 0.141732 -0.984252 -0.070866
vn 0.881890 -0.472441 0.007874
vn 0.976378 0.110236 0.188976
vn 0.629921 -0.771653 -0.023622
vn -0.023622 -1.000000 -0.015748
vn 0.275591 -0.960630 -0.015748
vn 1.000000 0.047244 0.055118
vn 0.921260 0.354331 0.157480
vn 0.874016 0.464567 0.157480
vn 0.826772 0.551181 0.078740
vn -0.023622 -1.000000 -0.015748
vn -0.086614 -0.992126 0.023622
vn 0.141732 -0.984252 -0.070866
vn -0.425197 -0.897638 0.078740
vn -0.614173 -0.787401 0.039370
vn -0.803150 -0.559055 0.204724
vn -0.259843 -0.960630 -0.055118
vn -0.968504 -0.212598 -0.118110
vn -0.976378 0.031496 0.204724
vn -0.763780 -0.622047 -0.157480
vn -0.307087 -0.952756 -0.015748
vn -0.614173 -0.787401 -0.039370
vn -0.125984 -0.992126 0.023622
vn -0.960630 -0.275591 -0.078740
vn -0.937008 0.330709 -0.078740
vn -0.874016 0.488189 0.031496
vn -0.850394 0.503937 0.165354
vn -0.519685 0.858268 -0.007874
vn -0.322835 0.937008 0.125984
vn -0.488189 0.858268 0.165354
vn -0.039370 0.984252 0.165354
vn 0.062992 0.992126 0.118110
vn -0.125984 0.992126 -0.000000
vn -0.228346 0.724409 0.645669
vn 0.511811 0.850394 0.141732
vn 0.094488 0.984252 0.149606
vn 0.385827 0.913386 0.118110
vn 0.779528 0.622047 0.062992
vn 0.275591 0.913386 -0.291339
vn 0.834646 0.543307 0.094488
vn 0.629921 0.559055 -0.535433
vn 0.000000 0.409449 -0.913386
vn 1.000000 -0.007874 0.047244
vn 1.000000 0.023622 0.062992
vn 0.897638 -0.448819 0.023622
vn 0.629921 -0.771653 0.039370
vn 0.960630 0.149606 -0.236220
vn 0.724409 -0.685039 -0.125984
vn 0.275591 -0.960630 -0.015748
vn 0.062992 -1.000000 -0.031496
vn -0.078740 -1.000000 0.000000
vn -0.015748 -0.952756 -0.307086
vn 0.732283 -0.322835 -0.598425
vn 0.377953 -0.763779 -0.519685
vn -0.015748 -0.700787 -0.716535
vn 0.070866 -0.204724 -0.976378
vn -0.149606 -0.039370 -0.984252
vn -0.007874 0.094488 -0.992126
vn 0.039370 0.023622 -1.000000
vn 0.118110 0.039370 -0.992126
vn 0.472441 -0.598425 -0.645669
vn 0.598425 0.795275 0.070866
vn 0.874016 0.464567 0.157480
vn 0.984252 0.094488 0.149606
vn 0.574803 0.795275 0.188976
vn 0.921260 0.354331 0.157480
vn 0.811024 0.574803 0.094488
vn 0.236220 0.968504 0.086614
vn 0.480315 0.866142 0.118110
vn 0.007874 0.984252 0.173228
vn -0.125984 0.992126 -0.000000
vn 0.047244 0.992126 0.133858
vn -0.023622 -1.000000 -0.015748
vn 0.275591 -0.960630 -0.015748
vn -0.031496 -1.000000 0.000000
vn -0.425197 -0.897638 0.078740
vn 0.062992 -1.000000 -0.031496
vn -0.031496 -0.960630 -0.291338
vn -0.590551 -0.803149 -0.110236
vn -0.803150 -0.551181 0.228346
vn -0.622047 -0.433071 -0.645669
vn -0.015748 -0.700787 -0.716535
vn -0.968504 -0.236220 -0.078740
vn -0.976378 0.078740 0.204724
vn -0.110236 -0.102362 -0.992126
vn -0.889764 0.448819 0.039370
vn -0.818898 0.535433 0.204724
vn -0.488189 0.858268 0.165354
vn -0.685039 0.409449 -0.598425
vn 0.086614 0.984252 0.141732
vn -0.330709 0.944882 0.031496
vn -0.283465 0.944882 0.173228
vn 0.314961 0.944882 0.118110
vn -0.385827 0.921260 -0.000000
vn 0.307087 0.905512 -0.291339
vn -0.236220 0.787401 -0.566929
vn 0.000000 0.409449 -0.913386
vn -0.118110 0.149606 -0.984252
vn 0.039370 0.023622 -1.000000
vn -0.685039 0.338583 -0.645669
vn 0.118110 0.039370 -0.992126
vn -0.228346 0.724409 0.645669
vn -0.125984 0.992126 -0.000000
vn 0.204724 0.944882 0.267716
vn 0.496063 0.496063 0.708661
vn 0.598425 0.795275 0.070866
vn 0.968504 0.141732 0.196850
vn -0.811024 0.188976 0.559055
vn -0.535433 0.842520 0.078740
vn -0.944882 0.330709 -0.039370
vn -0.960630 -0.275591 -0.078740
vn 0.661417 -0.244094 0.708661
vn 0.874016 -0.472441 0.141732
vn 0.417323 -0.897638 0.118110
vn 0.023622 -0.700787 0.708661
vn -0.125984 -0.992126 0.023622
vn -0.606299 -0.511811 0.606299
vn -0.614173 -0.787401 -0.039370
tan -0.937628 0.305103 -0.174964 1.000000
tan -0.976502 0.119908 -0.171864 1.000000
tan -0.906194 -0.403621 -0.107880 1.000000
tan -0.945502 0.264430 -0.151280 1.000000
tan -0.881890 -0.468287 -0.069440 1.000000
tan -0.984314 0.082770 -0.132804 1.000000
tan -0.462459 -0.875070 -0.017422 1.000000
tan -0.984252 -0.135594 -0.085250 1.000000
tan -0.472131 -0.881890 -0.034720 1.000000
tan 0.110236 -0.976378 0.000000 1.000000
tan -0.771840 -0.629549 -0.017112 1.000000
tan -1.000000 0.024490 -0.055118 1.000000
tan -0.960630 -0.274599 -0.060512 1.000000
tan 0.051150 -1.000000 -0.070866 1.000000
tan 0.359291 -0.924980 -0.020646 1.000000
tan 0.465807 -0.880216 0.011408 1.000000
tan 0.554281 -0.826772 -0.032550 1.000000
tan 0.913386 -0.015128 -0.409449 1.000000
tan 0.921818 -0.089218 -0.367165 1.000000
tan 0.899002 0.158472 -0.403001 1.000000
tan 0.846302 -0.427801 -0.306901 1.000000
tan 0.766011 -0.607105 -0.192324 1.000000
tan 0.542935 -0.807985 -0.076446 1.000000
tan 0.938372 -0.241552 -0.213838 1.000000
tan 0.240312 -0.899870 -0.350797 1.000000
tan -0.102052 -0.914874 -0.345961 1.000000
tan 0.638229 -0.755285 -0.112034 1.000000
tan 0.930374 -0.296609 -0.197470 1.000000
tan 0.783992 -0.604687 -0.136524 1.000000
tan 0.960878 -0.127968 -0.249984 1.000000
tan 0.285511 -0.915246 -0.279868 1.000000
tan -0.295369 -0.900118 -0.265608 1.000000
tan -0.483105 -0.853122 -0.182776 1.000000
tan -0.524583 -0.830306 -0.167400 1.000000
tan -0.837870 -0.509021 -0.183892 1.000000
tan -0.922252 -0.296919 -0.154938 1.000000
tan -0.863228 -0.468721 -0.115692 1.000000
tan -0.945502 0.007750 -0.271251 1.000000
tan -0.976502 0.084320 -0.187488 1.000000
tan -0.914006 -0.116064 -0.390601 1.000000
tan -0.795710 0.230888 -0.540455 1.000000
tan 0.844814 -0.522289 0.083018 1.000000
tan 0.961002 -0.124062 0.209250 1.000000
tan 0.906194 -0.393949 0.086304 1.000000
tan 0.623039 -0.781015 0.002418 1.000000
tan 0.764648 -0.392895 -0.508463 1.000000
tan 0.542563 -0.836134 0.015128 1.000000
tan 0.499225 -0.816418 -0.265112 1.000000
tan 0.254200 -0.877426 -0.393329 1.000000
tan -0.010106 -1.000000 0.047244 1.000000
tan 0.020150 -1.000000 0.055118 1.000000
tan -0.449749 -0.897638 0.035340 1.000000
tan -0.771964 -0.629301 0.017112 1.000000
tan 0.157046 -0.966210 0.026722 1.000000
tan -0.683055 -0.728377 0.032984 1.000000
tan -0.953066 -0.275281 0.113460 1.000000
tan -0.976378 -0.067952 0.204724 1.000000
tan -0.992126 0.078120 0.125984 1.000000
tan -0.652675 -0.214086 0.697687 1.000000
tan -0.314093 -0.901854 0.102176 1.000000
tan -0.459483 -0.638725 0.604563 1.000000
tan -0.273607 -0.685473 0.676421 1.000000
tan -0.169136 -0.961002 0.189224 1.000000
tan -0.341001 -0.922252 0.088722 1.000000
tan 0.148428 -0.984314 -0.094922 1.000000
tan 0.204724 -0.976378 -0.015004 1.000000
tan -0.109368 -0.984314 -0.052080 1.000000
tan -0.396305 -0.795585 0.447393 1.000000
tan -0.795834 0.602331 -0.039122 1.000000
tan -0.476967 0.878976 0.054188 1.000000
tan -0.107880 0.976502 0.093000 1.000000
tan -0.798252 0.583731 -0.028520 1.000000
tan -0.368901 0.917726 0.093186 1.000000
tan -0.576291 0.811023 0.012772 1.000000
tan -0.960878 0.243226 -0.099138 1.000000
tan -0.867072 0.486825 -0.043958 1.000000
tan -0.976502 0.031000 -0.131750 1.000000
tan -0.984314 -0.124992 -0.093744 1.000000
tan -0.984314 0.059520 -0.093744 1.000000
tan 0.118110 0.012834 -0.992126 1.000000
tan 0.120652 0.050344 -0.959576 1.000000
tan 0.110236 -0.003472 -0.992126 1.000000
tan 0.182776 -0.167276 -0.919958 1.000000
tan 0.204724 0.043648 -0.976378 1.000000
tan 0.408457 0.250418 -0.869862 1.000000
tan 0.499721 -0.267469 -0.728377 1.000000
tan 0.033728 -0.367599 -0.768677 1.000000
tan 0.680017 0.080352 -0.709033 1.000000
tan 0.502449 0.615289 -0.612809 1.000000
tan 0.122140 -0.183024 -0.953252 1.000000
tan -0.211792 -0.107632 -0.968690 1.000000
tan 0.976502 0.179676 -0.127038 1.000000
tan -0.077934 -0.076756 -0.886292 1.000000
tan -0.316325 -0.153140 -0.864778 1.000000
tan -0.147436 0.094798 -0.927336 1.000000
tan 0.588009 -0.160146 -0.782689 1.000000
tan -0.155000 0.153140 -0.968752 1.000000
tan -0.149048 -0.021080 -0.932606 1.000000
tan -0.044020 0.162068 -0.956042 1.000000
tan -0.052080 0.135470 -0.944882 1.000000
tan 0.145080 0.060760 -0.909790 1.000000
tan 0.282907 -0.372001 -0.858020 1.000000
tan 0.272801 -0.496249 -0.802901 1.000000
tan 0.426065 -0.812698 -0.364313 1.000000
tan 0.914502 -0.372001 -0.166284 1.000000
tan 0.779528 -0.622047 0.015996 1.000000
tan 0.649327 -0.098890 -0.740777 1.000000
tan 0.937442 -0.328105 0.098580 1.000000
tan -0.224440 -0.681381 0.685101 1.000000
tan -0.343729 -0.043648 0.929630 1.000000
tan -0.046748 -0.258044 0.946494 1.000000
tan -0.203112 -0.717589 0.644491 1.000000
tan 0.649823 -0.535743 0.524831 1.000000
tan 0.081902 -0.930374 0.266911 1.000000
tan -0.487755 -0.704631 -0.469403 1.000000
tan -0.828632 -0.542501 0.170066 1.000000
tan -0.318991 -0.930002 -0.156240 1.000000
tan 0.280241 -0.846550 -0.456011 1.000000
tan -0.289045 -0.938558 -0.053506 1.000000
tan -0.465745 -0.877364 -0.052452 1.000000
tan -0.769484 -0.418625 -0.462707 1.000000
tan -0.099820 -0.704941 -0.693781 1.000000
tan -0.101556 -0.010540 -0.984314 1.000000
tan -0.077624 -0.720876 -0.686155 1.000000
tan 0.624651 -0.456445 -0.615661 1.000000
f 3/3/3 2/2/2 1/1/1
f 4/4/4 3/3/3 1/1/1
f 4/4/4 5/5/5 3/3/3
f 4/4/4 6/6/6 5/5/5
f 5/5/5 7/7/7 3/3/3
f 5/5/5 6/6/6 8/8/8
f 5/5/5 9/9/9 7/7/7
f 10/10/10 7/7/7 9/9/9
f 8/8/8 11/11/11 5/5/5
f 5/5/5 11/11/11 9/9/9
f 11/11/11 8/8/8 12/12/12
f 12/12/12 13/13/13 11/11/11
f 9/9/9 14/14/14 10/10/10
f 10/10/10 14/14/14 15/15/15
f 10/10/10 15/15/15 16/16/16
f 14/14/14 17/17/17 15/15/15
f 20/20/20 19/19/19 18/18/18
f 19/19/19 21/21/21 18/18/18
f 19/19/19 22/22/22 21/21/21
f 21/21/21 22/22/22 23/23/23
f 24/24/24 22/22/22 19/19/19
f 23/23/23 22/22/22 25/25/25
f 26/26/26 23/23/23 25/25/25
f 27/27/27 22/22/22 24/24/24
f 22/22/22 27/27/27 25/25/25
f 24/24/24 28/28/28 27/27/27
f 28/28/28 30/30/30 29/29/29
f 27/27/27 28/28/28 29/29/29
f 27/27/27 29/29/29 31/31/31
f 31/31/31 25/25/25 27/27/27
f 31/31/31 32/32/32 25/25/25
f 32/32/32 33/33/33 25/25/25
f 25/25/25 33/33/33 26/26/26
f 33/33/33 34/34/34 26/26/26
f 33/33/33 32/32/32 35/35/35
f 33/33/33 36/36/36 34/34/34
f 34/34/34 36/36/36 37/37/37
f 36/36/36 33/33/33 35/35/35
f 39/39/39 36/36/36 38/38/38
f 35/35/35 38/38/38 36/36/36
f 40/40/40 38/38/38 35/35/35
f 41/41/41 40/40/40 35/35/35
f 44/44/44 43/43/43 42/42/42
f 42/42/42 45/45/45 44/44/44
f 44/44/44 45/45/45 46/46/46
f 45/45/45 42/42/42 47/47/47
f 46/46/46 45/45/45 48/48/48
f 46/46/46 48/48/48 49/49/49
f 47/47/47 50/50/50 45/45/45
f 51/51/51 50/50/50 47/47/47
f 52/52/52 50/50/50 51/51/51
f 53/53/53 50/50/50 52/52/52
f 54/54/54 45/45/45 50/50/50
f 45/45/45 54/54/54 48/48/48
f 53/53/53 55/55/55 50/50/50
f 50/50/50 55/55/55 54/54/54
f 53/53/53 56/56/56 55/55/55
f 58/58/58 57/57/57 56/56/56
f 55/55/55 56/56/56 57/57/57
f 59/59/59 55/55/55 57/57/57
f 60/60/60 48/48/48 54/54/54
f 55/55/55 60/60/60 54/54/54
f 59/59/59 61/61/61 55/55/55
f 61/61/61 60/60/60 55/55/55
f 61/61/61 59/59/59 62/62/62
f 63/63/63 61/61/61 62/62/62
f 63/63/63 60/60/60 61/61/61
f 63/63/63 62/62/62 64/64/64
f 60/60/60 65/65/65 48/48/48
f 65/65/65 60/60/60 63/63/63
f 48/48/48 65/65/65 49/49/49
f 65/65/65 66/66/66 49/49/49
f 65/65/65 67/67/67 66/66/66
f 64/64/64 68/68/68 63/63/63
f 67/67/67 68/68/68 64/64/64
f 68/68/68 65/65/65 63/63/63
f 67/67/67 65/65/65 68/68/68
f 71/71/71 70/70/70 69/69/69
f 70/70/70 72/72/72 69/69/69
f 73/73/73 72/72/72 70/70/70
f 74/74/74 72/72/72 73/73/73
f 69/69/69 72/72/72 75/75/75
f 76/76/76 72/72/72 74/74/74
f 77/77/77 75/75/75 72/72/72
f 72/72/72 76/76/76 77/77/77
f 78/78/78 75/75/75 77/77/77
f 77/77/77 76/76/76 79/79/79
f 82/82/82 81/81/81 80/80/80
f 83/83/83 82/82/82 80/80/80
f 85/85/85 84/84/84 82/82/82
f 83/83/83 86/86/86 82/82/82
f 85/85/85 82/82/82 86/86/86
f 86/86/86 83/83/83 87/87/87
f 85/85/85 86/86/86 88/88/88
f 89/89/89 85/85/85 88/88/88
f 86/86/86 87/87/87 90/90/90
f 86/86/86 90/90/90 88/88/88
f 91/91/91 90/90/90 87/87/87
f 89/89/89 88/88/88 92/92/92
f 93/93/93 90/90/90 91/91/91
f 93/93/93 91/91/91 94/94/94
f 94/94/94 95/95/95 93/93/93
f 88/88/88 90/90/90 96/96/96
f 90/90/90 93/93/93 96/96/96
f 98/98/98 97/97/97 95/95/95
f 97/97/97 99/99/99 95/95/95
f 95/95/95 99/99/99 93/93/93
f 99/99/99 97/97/97 100/100/100
f 101/101/101 93/93/93 99/99/99
f 100/100/100 101/101/101 99/99/99
f 96/96/96 93/93/93 101/101/101
f 101/101/101 100/100/100 102/102/102
f 102/102/102 103/103/103 101/101/101
f 103/103/103 96/96/96 101/101/101
f 102/102/102 104/104/104 103/103/103
f 105/105/105 96/96/96 103/103/103
f 105/105/105 103/103/103 104/104/104
f 105/105/105 88/88/88 96/96/96
f 92/92/92 88/88/88 105/105/105
f 104/104/104 106/106/106 105/105/105
f 107/107/107 92/92/92 105/105/105
f 107/107/107 105/105/105 106/106/106
f 108/108/108 92/92/92 107/107/107
f 108/108/108 107/107/107 106/106/106
f 111/111/111 110/110/110 109/109/109
f 112/112/112 111/111/111 109/109/109
f 111/111/111 112/112/112 113/113/113
f 112/112/112 114/114/114 113/113/113
f 112/112/112 109/109/109 115/115/115
f 109/109/109 116/116/116 115/115/115
f 116/116/116 117/117/117 115/115/115
f 118/118/118 115/115/115 117/117/117
f 114/114/114 112/112/112 119/119/119
f 112/112/112 115/115/115 119/119/119
f 119/119/119 120/120/120 114/114/114
f 119/119/119 121/121/121 120/120/120
f 121/121/121 119/119/119 122/122/122
f 122/122/122 119/119/119 115/115/115
f 121/121/121 122/122/122 123/123/123
f 122/122/122 115/115/115 124/124/124
f 123/123/123 122/122/122 124/124/124
f 115/115/115 118/118/118 124/124/124
f 124/124/124 125/125/125 123/123/123
f 124/124/124 118/118/118 125/125/125
