mtllib SM_Frames_02_LOD5.mtl
g SM_Frames_02_LOD5
#Vertices 4
#Indices 6
#Section 0 Offset 0 NumIndices 6 MaterialIndex 0 MI_Frames
v 0.001768 0.372226 0.320850
v 0.001768 0.372225 -0.320696
v 0.001768 0.036819 -0.320696
v 0.001768 0.036819 0.320850
vt 0.496826 0.000488
vt 0.496826 0.451660
vt 0.260742 0.451660
vt 0.260742 0.000488
vt1 0.505859 0.040039
vt1 0.505859 0.991936
vt1 0.008064 0.991936
vt1 0.008064 0.040039
vn 1.000000 0.000000 0.000000
vn 1.000000 0.000000 0.000000
vn 1.000000 0.000000 0.000000
vn 1.000000 0.000000 0.000000
tan 0.000000 0.000000 1.000000 1.000000
tan 0.000000 0.000000 1.000000 1.000000
tan 0.000000 0.000000 1.000000 1.000000
tan 0.000000 0.000000 1.000000 1.000000
f 3/3/3 2/2/2 1/1/1
f 1/1/1 4/4/4 3/3/3
