mtllib SM_Frames_03.mtl
g SM_Frames_03
#Vertices 116
#Indices 270
#Section 0 Offset 0 NumIndices 270 MaterialIndex 0 MI_Frames
v 0.001768 0.369264 -0.148187
v 0.001768 0.036819 -0.148187
v 0.001768 0.369264 0.148341
v 0.001768 0.036819 0.148341
v -0.008005 -0.000000 -0.182492
v -0.008005 0.000000 0.182492
v 0.008005 0.000000 0.182492
v 0.008005 -0.000000 -0.182492
v 0.010006 0.002001 0.180547
v 0.010006 0.002001 -0.180553
v 0.010006 0.035514 0.147978
v 0.010006 0.035514 -0.148070
v 0.008005 0.037515 0.146033
v 0.008005 0.037515 -0.146130
v -0.008005 0.037515 0.146033
v -0.008005 0.037515 -0.146130
v -0.008005 0.403543 -0.184204
v -0.008005 -0.000000 -0.184204
v 0.008005 -0.000000 -0.184204
v 0.008005 0.403543 -0.184204
v 0.010006 0.002229 -0.182025
v 0.010006 0.401320 -0.182025
v 0.010006 0.034843 -0.150144
v 0.010006 0.368793 -0.150144
v 0.008005 0.037072 -0.147965
v 0.008005 0.366570 -0.147965
v -0.008005 0.037072 -0.147965
v -0.008005 0.366570 -0.147965
v 0.010006 0.002001 -0.180553
v -0.008005 -0.000000 -0.182492
v 0.008005 -0.000000 -0.182492
v -0.010006 0.002001 -0.180553
v 0.010006 0.035514 -0.148070
v -0.010006 0.035514 -0.148070
v -0.008005 0.037515 -0.146130
v 0.008005 0.037515 -0.146130
v 0.010006 0.035514 0.147978
v -0.008005 0.037515 0.146033
v 0.008005 0.037515 0.146033
v -0.010006 0.035514 0.147978
v 0.010006 0.002001 0.180547
v -0.010006 0.002001 0.180547
v -0.008005 0.000000 0.182492
v 0.008005 0.000000 0.182492
v -0.008005 0.403543 0.184203
v 0.010006 0.401320 0.182024
v 0.008005 0.403543 0.184203
v -0.010006 0.401320 0.182024
v 0.010006 0.368793 0.150143
v -0.010006 0.368793 0.150143
v -0.008005 0.366570 0.147964
v 0.008005 0.366570 0.147964
v -0.008005 0.037072 0.147964
v 0.010006 0.034843 0.150143
v 0.008005 0.037072 0.147964
v -0.010006 0.034843 0.150143
v 0.010006 0.002229 0.182025
v -0.010006 0.002229 0.182025
v -0.008005 -0.000000 0.184203
v 0.008005 -0.000000 0.184203
v 0.010006 0.401320 -0.182025
v -0.008005 0.403543 -0.184204
v 0.008005 0.403543 -0.184204
v -0.010006 0.401320 -0.182025
v 0.010006 0.368793 -0.150144
v -0.010006 0.368793 -0.150144
v -0.008005 0.366570 -0.147965
v 0.008005 0.366570 -0.147965
v 0.010006 0.034843 -0.150144
v -0.008005 0.037072 -0.147965
v 0.008005 0.037072 -0.147965
v -0.010006 0.034843 -0.150144
v 0.010006 0.002229 -0.182025
v -0.010006 0.002229 -0.182025
v -0.008005 -0.000000 -0.184204
v 0.008005 -0.000000 -0.184204
v -0.008005 0.403935 -0.182492
v 0.010006 0.401934 -0.180553
v 0.008005 0.403935 -0.182492
v -0.010006 0.401934 -0.180553
v 0.010006 0.368421 -0.148070
v -0.010006 0.368421 -0.148070
v -0.008005 0.366420 -0.146130
v 0.008005 0.366420 -0.146130
v -0.008005 0.366420 0.146033
v 0.010006 0.368421 0.147978
v 0.008005 0.366420 0.146033
v -0.010006 0.368421 0.147978
v 0.010006 0.401934 0.180547
v -0.010006 0.401934 0.180547
v -0.008005 0.403935 0.182492
v 0.008005 0.403935 0.182492
v -0.008005 -0.000000 0.184203
v -0.008005 0.403543 0.184203
v 0.008005 0.403543 0.184203
v 0.008005 -0.000000 0.184203
v 0.010006 0.002229 0.182025
v 0.010006 0.401320 0.182024
v 0.010006 0.034843 0.150143
v 0.010006 0.368793 0.150143
v 0.008005 0.037072 0.147964
v 0.008005 0.366570 0.147964
v -0.008005 0.366570 0.147964
v -0.008005 0.037072 0.147964
v 0.008005 0.403935 -0.182492
v -0.008005 0.403935 0.182492
v -0.008005 0.403935 -0.182492
v 0.008005 0.403935 0.182492
v 0.010006 0.401934 0.180547
v 0.010006 0.401934 -0.180553
v 0.010006 0.368421 0.147978
v 0.010006 0.368421 -0.148070
v 0.008005 0.366420 0.146033
v 0.008005 0.366420 -0.146130
v -0.008005 0.366420 -0.146130
v -0.008005 0.366420 0.146033
vt 0.000000 0.688721
vt 0.000000 0.455078
vt 0.208618 0.688721
vt 0.208618 0.455078
vt 0.460449 0.929504
vt 0.460449 0.669678
vt 0.471924 0.669678
vt 0.471924 0.929504
vt 0.473145 0.671143
vt 0.473145 0.928101
vt 0.497070 0.694336
vt 0.497070 0.904968
vt 0.498535 0.695557
vt 0.498535 0.903564
vt 0.509766 0.695557
vt 0.509766 0.903564
vt 0.716309 0.954559
vt 0.716309 0.667480
vt 0.727539 0.667480
vt 0.727539 0.954559
vt 0.729004 0.669189
vt 0.729004 0.952972
vt 0.751953 0.692383
vt 0.751953 0.929810
vt 0.753418 0.693848
vt 0.753418 0.928284
vt 0.764648 0.693848
vt 0.764648 0.928284
vt 0.321533 0.898315
vt 0.348877 0.898315
vt 0.321533 0.898315
vt 0.348877 0.898315
vt 0.321533 0.824463
vt 0.348877 0.824463
vt 0.348877 0.824463
vt 0.321533 0.824463
vt 0.321533 0.898315
vt 0.348877 0.898315
vt 0.321533 0.898315
vt 0.348877 0.898315
vt 0.321533 0.824463
vt 0.348877 0.824463
vt 0.348877 0.824463
vt 0.321533 0.824463
vt 0.321533 0.898315
vt 0.348877 0.898315
vt 0.348877 0.898315
vt 0.321533 0.898315
vt 0.348877 0.824463
vt 0.321533 0.824463
vt 0.321533 0.824463
vt 0.348877 0.824463
vt 0.321533 0.898315
vt 0.348877 0.898315
vt 0.348877 0.898315
vt 0.321533 0.898315
vt 0.348877 0.824463
vt 0.321533 0.824463
vt 0.321533 0.824463
vt 0.348877 0.824463
vt 0.321533 0.898315
vt 0.348877 0.898315
vt 0.321533 0.898315
vt 0.348877 0.898315
vt 0.321533 0.824463
vt 0.348877 0.824463
vt 0.348877 0.824463
vt 0.321533 0.824463
vt 0.321533 0.898315
vt 0.348877 0.898315
vt 0.321533 0.898315
vt 0.348877 0.898315
vt 0.321533 0.824463
vt 0.348877 0.824463
vt 0.348877 0.824463
vt 0.321533 0.824463
vt 0.321533 0.898315
vt 0.348877 0.898315
vt 0.348877 0.898315
vt 0.321533 0.898315
vt 0.348877 0.824463
vt 0.321533 0.824463
vt 0.321533 0.824463
vt 0.348877 0.824463
vt 0.321533 0.898315
vt 0.348877 0.898315
vt 0.348877 0.898315
vt 0.321533 0.898315
vt 0.348877 0.824463
vt 0.321533 0.824463
vt 0.321533 0.824463
vt 0.348877 0.824463
vt 0.815918 0.667480
vt 0.815918 0.954559
vt 0.804688 0.954559
vt 0.804688 0.667480
vt 0.802734 0.669189
vt 0.802734 0.952972
vt 0.780273 0.692383
vt 0.780273 0.929810
vt 0.778809 0.693848
vt 0.778809 0.928284
vt 0.767090 0.928284
vt 0.767090 0.693848
vt 0.444824 0.929504
vt 0.456299 0.669678
vt 0.456299 0.929504
vt 0.444824 0.669678
vt 0.443359 0.671143
vt 0.443359 0.928101
vt 0.419434 0.694336
vt 0.419434 0.904968
vt 0.417969 0.695557
vt 0.417969 0.903564
vt 0.406738 0.903564
vt 0.406738 0.695557
vt1 0.008064 0.991936
vt1 0.008064 0.389160
vt1 0.545898 0.991936
vt1 0.545898 0.389160
vt1 0.862793 0.991936
vt1 0.862793 0.330078
vt1 0.892578 0.330078
vt1 0.892578 0.991936
vt1 0.895996 0.333496
vt1 0.895996 0.988419
vt1 0.958496 0.392578
vt1 0.958496 0.929504
vt1 0.961914 0.395996
vt1 0.961914 0.926025
vt1 0.991699 0.395996
vt1 0.991699 0.926025
vt1 0.572266 0.991936
vt1 0.572266 0.260254
vt1 0.602051 0.260254
vt1 0.602051 0.991936
vt1 0.605957 0.264160
vt1 0.605957 0.987907
vt1 0.665039 0.323242
vt1 0.665039 0.928955
vt1 0.669434 0.327148
vt1 0.669434 0.924866
vt1 0.699219 0.327148
vt1 0.699219 0.924866
vt1 0.185425 0.326660
vt1 0.185425 0.363281
vt1 0.185425 0.326660
vt1 0.185425 0.363281
vt1 0.282471 0.326660
vt1 0.282471 0.363281
vt1 0.282471 0.363281
vt1 0.282471 0.326660
vt1 0.008064 0.363281
vt1 0.044342 0.363281
vt1 0.008064 0.363281
vt1 0.044342 0.363281
vt1 0.008064 0.266113
vt1 0.044342 0.266113
vt1 0.044342 0.266113
vt1 0.008064 0.266113
vt1 0.427246 0.363281
vt1 0.463623 0.363281
vt1 0.463623 0.363281
vt1 0.427246 0.363281
vt1 0.463623 0.267090
vt1 0.427246 0.267090
vt1 0.427246 0.267090
vt1 0.463623 0.267090
vt1 0.298340 0.363281
vt1 0.334473 0.363281
vt1 0.334473 0.363281
vt1 0.298340 0.363281
vt1 0.334473 0.267090
vt1 0.298340 0.267090
vt1 0.298340 0.267090
vt1 0.334473 0.267090
vt1 0.072571 0.262207
vt1 0.072571 0.298828
vt1 0.072571 0.262207
vt1 0.072571 0.298828
vt1 0.168579 0.262207
vt1 0.168579 0.298828
vt1 0.168579 0.298828
vt1 0.168579 0.262207
vt1 0.362793 0.363281
vt1 0.399170 0.363281
vt1 0.362793 0.363281
vt1 0.399170 0.363281
vt1 0.362793 0.267090
vt1 0.399170 0.267090
vt1 0.399170 0.267090
vt1 0.362793 0.267090
vt1 0.008064 0.104980
vt1 0.044342 0.104980
vt1 0.044342 0.104980
vt1 0.008064 0.104980
vt1 0.044342 0.007812
vt1 0.008064 0.007812
vt1 0.008064 0.007812
vt1 0.044342 0.007812
vt1 0.072571 0.326660
vt1 0.072571 0.363281
vt1 0.072571 0.363281
vt1 0.072571 0.326660
vt1 0.169800 0.363281
vt1 0.169800 0.326660
vt1 0.169800 0.326660
vt1 0.169800 0.363281
vt1 0.844238 0.260254
vt1 0.844238 0.991936
vt1 0.814453 0.991936
vt1 0.814453 0.260254
vt1 0.810547 0.264160
vt1 0.810547 0.987907
vt1 0.751465 0.323242
vt1 0.751465 0.928955
vt1 0.747070 0.327148
vt1 0.747070 0.924866
vt1 0.717285 0.924866
vt1 0.717285 0.327148
vt1 0.008064 0.204590
vt1 0.669922 0.233887
vt1 0.008064 0.233887
vt1 0.669922 0.204590
vt1 0.666504 0.200684
vt1 0.011581 0.200684
vt1 0.607422 0.138184
vt1 0.070496 0.138184
vt1 0.604004 0.134766
vt1 0.073975 0.134766
vt1 0.073975 0.104980
vt1 0.604004 0.104980
vn 1.000000 0.000000 0.000000
vn 1.000000 0.000000 0.000000
vn 1.000000 0.000000 0.000000
vn 1.000000 0.000000 0.000000
vn 0.000000 -1.000000 0.000000
vn 0.000000 -1.000000 0.000000
vn 0.070866 -1.000000 0.000000
vn 0.070866 -1.000000 0.000000
vn 0.992126 -0.149606 0.000000
vn 0.992126 -0.149606 0.000000
vn 1.000000 0.023622 -0.000000
vn 1.000000 0.023622 -0.000000
vn 0.149606 0.992126 -0.000000
vn 0.149606 0.992126 -0.000000
vn 0.000000 1.000000 -0.000000
vn 0.000000 1.000000 -0.000000
vn 0.000000 -0.000000 -1.000000
vn 0.000000 -0.000000 -1.000000
vn 0.070866 -0.000000 -1.000000
vn 0.070866 -0.000000 -1.000000
vn 0.984252 -0.000000 -0.157480
vn 0.984252 -0.000000 -0.157480
vn 1.000000 0.000000 0.023622
vn 1.000000 0.000000 0.023622
vn 0.165354 0.000000 0.984252
vn 0.165354 0.000000 0.984252
vn 0.000000 0.000000 1.000000
vn 0.000000 0.000000 1.000000
vn 0.000000 0.692913 -0.716535
vn 0.000000 0.692913 -0.716535
vn 0.000000 0.692913 -0.716535
vn 0.000000 0.692913 -0.716535
vn 0.000000 0.692913 -0.716535
vn 0.000000 0.692913 -0.716535
vn 0.000000 0.692913 -0.716535
vn 0.000000 0.692913 -0.716535
vn 0.000000 0.700787 0.716535
vn 0.000000 0.700787 0.716535
vn 0.000000 0.700787 0.716535
vn 0.000000 0.700787 0.716535
vn 0.000000 0.700787 0.716535
vn 0.000000 0.700787 0.716535
vn 0.000000 0.700787 0.716535
vn 0.000000 0.700787 0.716535
vn 0.000000 0.700787 -0.716535
vn 0.000000 0.700787 -0.716535
vn 0.000000 0.700787 -0.716535
vn 0.000000 0.700787 -0.716535
vn 0.000000 0.700787 -0.716535
vn 0.000000 0.700787 -0.716535
vn 0.000000 0.700787 -0.716535
vn 0.000000 0.700787 -0.716535
vn 0.000000 -0.700787 -0.716535
vn 0.000000 -0.700787 -0.716535
vn 0.000000 -0.700787 -0.716535
vn 0.000000 -0.700787 -0.716535
vn 0.000000 -0.700787 -0.716535
vn 0.000000 -0.700787 -0.716535
vn 0.000000 -0.700787 -0.716535
vn 0.000000 -0.700787 -0.716535
vn 0.000000 0.700787 0.716535
vn 0.000000 0.700787 0.716535
vn 0.000000 0.700787 0.716535
vn 0.000000 0.700787 0.716535
vn 0.000000 0.700787 0.716535
vn 0.000000 0.700787 0.716535
vn 0.000000 0.700787 0.716535
vn 0.000000 0.700787 0.716535
vn 0.000000 -0.700787 0.716535
vn 0.000000 -0.700787 0.716535
vn 0.000000 -0.700787 0.716535
vn 0.000000 -0.700787 0.716535
vn 0.000000 -0.700787 0.716535
vn 0.000000 -0.700787 0.716535
vn 0.000000 -0.700787 0.716535
vn 0.000000 -0.700787 0.716535
vn 0.000000 -0.692913 -0.716535
vn 0.000000 -0.692913 -0.716535
vn 0.000000 -0.692913 -0.716535
vn 0.000000 -0.692913 -0.716535
vn 0.000000 -0.692913 -0.716535
vn 0.000000 -0.692913 -0.716535
vn 0.000000 -0.692913 -0.716535
vn 0.000000 -0.692913 -0.716535
vn 0.000000 -0.700787 0.716535
vn 0.000000 -0.700787 0.716535
vn 0.000000 -0.700787 0.716535
vn 0.000000 -0.700787 0.716535
vn 0.000000 -0.700787 0.716535
vn 0.000000 -0.700787 0.716535
vn 0.000000 -0.700787 0.716535
vn 0.000000 -0.700787 0.716535
vn 0.000000 0.000000 1.000000
vn 0.000000 0.000000 1.000000
vn 0.070866 0.000000 1.000000
vn 0.070866 0.000000 1.000000
vn 0.984252 0.000000 0.157480
vn 0.984252 0.000000 0.157480
vn 1.000000 -0.000000 -0.023622
vn 1.000000 -0.000000 -0.023622
vn 0.165354 -0.000000 -0.984252
vn 0.165354 -0.000000 -0.984252
vn 0.000000 -0.000000 -1.000000
vn 0.000000 -0.000000 -1.000000
vn 0.070866 1.000000 -0.000000
vn 0.000000 1.000000 -0.000000
vn 0.000000 1.000000 -0.000000
vn 0.070866 1.000000 -0.000000
vn 0.992126 0.149606 -0.000000
vn 0.992126 0.149606 -0.000000
vn 1.000000 -0.023622 0.000000
vn 1.000000 -0.023622 0.000000
vn 0.149606 -0.992126 0.000000
vn 0.149606 -0.992126 0.000000
vn 0.000000 -1.000000 0.000000
vn 0.000000 -1.000000 0.000000
tan 0.000000 -1.000000 0.000000 1.000000
tan 0.000000 -1.000000 0.000000 1.000000
tan 0.000000 -1.000000 0.000000 1.000000
tan 0.000000 -1.000000 0.000000 1.000000
tan 0.000000 0.000000 1.000000 1.000000
tan 0.000000 0.000000 1.000000 1.000000
tan 0.000000 0.000000 1.005022 1.000000
tan 0.000000 0.000000 1.005022 1.000000
tan 0.000000 0.000000 1.006696 1.000000
tan 0.000000 0.000000 1.006696 1.000000
tan 0.000000 0.000000 1.000558 1.000000
tan 0.000000 0.000000 1.000558 1.000000
tan 0.000000 0.000000 1.006696 1.000000
tan 0.000000 0.000000 1.006696 1.000000
tan 0.000000 0.000000 1.000000 1.000000
tan 0.000000 0.000000 1.000000 1.000000
tan 0.000000 -1.000000 0.000000 1.000000
tan 0.000000 -1.000000 0.000000 1.000000
tan 0.000000 -1.005022 0.000000 1.000000
tan 0.000000 -1.005022 0.000000 1.000000
tan 0.000000 -0.993552 0.000000 1.000000
tan 0.000000 -0.993552 0.000000 1.000000
tan 0.000000 -1.000558 0.000000 1.000000
tan 0.000000 -1.000558 0.000000 1.000000
tan 0.000000 -0.996094 0.000000 1.000000
tan 0.000000 -0.996094 0.000000 1.000000
tan 0.000000 -1.000000 0.000000 1.000000
tan 0.000000 -1.000000 0.000000 1.000000
tan 0.754851 0.468287 0.452849 1.000000
tan 0.000000 -0.716535 -0.692913 1.000000
tan 0.621675 0.558559 0.540145 1.000000
tan -0.849278 0.372373 0.360097 1.000000
tan 0.521793 0.609337 0.589249 1.000000
tan -0.982454 0.107198 0.103664 1.000000
tan -0.810342 0.417509 0.403745 1.000000
tan 0.000000 0.716535 0.692913 1.000000
tan 0.759006 -0.468287 0.457995 1.000000
tan 0.000000 0.716535 -0.700787 1.000000
tan 0.625085 -0.558559 0.546283 1.000000
tan -0.853928 -0.378015 0.369707 1.000000
tan 0.524645 -0.609337 0.595945 1.000000
tan -0.993366 -0.107198 0.104842 1.000000
tan -0.814806 -0.417509 0.408333 1.000000
tan 0.000000 -0.716535 0.700787 1.000000
tan -0.842644 0.389299 0.380743 1.000000
tan 0.915246 -0.287743 -0.281419 1.000000
tan -0.904086 0.304669 0.297973 1.000000
tan 0.167400 -0.705251 -0.689751 1.000000
tan 0.700787 0.000000 0.000000 1.000000
tan 0.122760 -0.710893 -0.695269 1.000000
tan 0.429723 -0.648831 -0.634571 1.000000
tan 0.842644 -0.389299 -0.380743 1.000000
tan -0.842644 0.389299 -0.380743 1.000000
tan 0.915246 -0.293385 0.286937 1.000000
tan -0.904086 0.304669 -0.297973 1.000000
tan 0.167400 -0.705251 0.689751 1.000000
tan 0.716535 0.000000 0.000000 1.000000
tan 0.122760 -0.710893 0.695269 1.000000
tan 0.429723 -0.648831 0.634571 1.000000
tan 0.842644 -0.389299 0.380743 1.000000
tan 0.552483 -0.598053 0.584909 1.000000
tan 0.000000 0.716535 -0.700787 1.000000
tan 0.641763 -0.552917 0.540765 1.000000
tan -0.837126 -0.394941 0.386261 1.000000
tan 0.373923 -0.665757 0.651125 1.000000
tan -0.770166 -0.457003 0.446959 1.000000
tan -0.915246 0.287743 -0.281419 1.000000
tan 0.000000 -0.716535 0.700787 1.000000
tan 0.552483 -0.598053 -0.584909 1.000000
tan 0.000000 0.716535 0.700787 1.000000
tan 0.641763 -0.552917 -0.540765 1.000000
tan -0.837126 -0.394941 -0.386261 1.000000
tan 0.373923 -0.665757 -0.651125 1.000000
tan -0.770166 -0.457003 -0.446959 1.000000
tan -0.915246 0.287743 0.281419 1.000000
tan 0.000000 -0.716535 -0.700787 1.000000
tan -0.810342 0.417509 -0.403745 1.000000
tan 0.971356 -0.163618 0.158224 1.000000
tan -0.910224 0.293385 -0.283713 1.000000
tan 0.155372 -0.710893 0.687457 1.000000
tan 0.084506 -0.688325 0.665633 1.000000
tan 0.133176 -0.710893 0.687457 1.000000
tan 0.427367 -0.648831 0.627441 1.000000
tan 0.810342 -0.417509 0.403745 1.000000
tan -0.814806 -0.417509 -0.408333 1.000000
tan 0.971046 0.174902 0.171058 1.000000
tan -0.915246 -0.293385 -0.286937 1.000000
tan 0.156240 0.710893 0.695269 1.000000
tan 0.089280 0.716535 0.700787 1.000000
tan 0.133920 0.710893 0.695269 1.000000
tan 0.429723 0.648831 0.634571 1.000000
tan 0.814806 0.417509 0.408333 1.000000
tan 0.000000 -1.000000 0.000000 1.000000
tan 0.000000 -1.000000 0.000000 1.000000
tan 0.000000 -1.005022 0.000000 1.000000
tan 0.000000 -1.005022 0.000000 1.000000
tan 0.000000 -0.993552 0.000000 1.000000
tan 0.000000 -0.993552 0.000000 1.000000
tan 0.000000 -1.000558 0.000000 1.000000
tan 0.000000 -1.000558 0.000000 1.000000
tan 0.000000 -0.996094 0.000000 1.000000
tan 0.000000 -0.996094 0.000000 1.000000
tan 0.000000 -1.000000 0.000000 1.000000
tan 0.000000 -1.000000 0.000000 1.000000
tan 0.000000 0.000000 1.005022 1.000000
tan 0.000000 0.000000 1.000000 1.000000
tan 0.000000 0.000000 1.000000 1.000000
tan 0.000000 0.000000 1.005022 1.000000
tan 0.000000 0.000000 1.006696 1.000000
tan 0.000000 0.000000 1.006696 1.000000
tan 0.000000 0.000000 1.000558 1.000000
tan 0.000000 0.000000 1.000558 1.000000
tan 0.000000 0.000000 1.006696 1.000000
tan 0.000000 0.000000 1.006696 1.000000
tan 0.000000 0.000000 1.000000 1.000000
tan 0.000000 0.000000 1.000000 1.000000
f 3/3/3 2/2/2 1/1/1
f 3/3/3 4/4/4 2/2/2
f 7/7/7 6/6/6 5/5/5
f 5/5/5 8/8/8 7/7/7
f 7/7/7 8/8/8 9/9/9
f 10/10/10 9/9/9 8/8/8
f 11/11/11 9/9/9 10/10/10
f 12/12/12 11/11/11 10/10/10
f 11/11/11 12/12/12 13/13/13
f 14/14/14 13/13/13 12/12/12
f 13/13/13 14/14/14 15/15/15
f 16/16/16 15/15/15 14/14/14
f 19/19/19 18/18/18 17/17/17
f 17/17/17 20/20/20 19/19/19
f 19/19/19 20/20/20 21/21/21
f 22/22/22 21/21/21 20/20/20
f 23/23/23 21/21/21 22/22/22
f 24/24/24 23/23/23 22/22/22
f 23/23/23 24/24/24 25/25/25
f 26/26/26 25/25/25 24/24/24
f 27/27/27 25/25/25 26/26/26
f 26/26/26 28/28/28 27/27/27
f 31/31/31 30/30/30 29/29/29
f 32/32/32 29/29/29 30/30/30
f 29/29/29 32/32/32 33/33/33
f 32/32/32 34/34/34 33/33/33
f 35/35/35 33/33/33 34/34/34
f 36/36/36 33/33/33 35/35/35
f 39/39/39 38/38/38 37/37/37
f 40/40/40 37/37/37 38/38/38
f 37/37/37 40/40/40 41/41/41
f 40/40/40 42/42/42 41/41/41
f 43/43/43 41/41/41 42/42/42
f 44/44/44 41/41/41 43/43/43
f 47/47/47 46/46/46 45/45/45
f 45/45/45 46/46/46 48/48/48
f 49/49/49 48/48/48 46/46/46
f 50/50/50 48/48/48 49/49/49
f 51/51/51 50/50/50 49/49/49
f 52/52/52 51/51/51 49/49/49
f 55/55/55 54/54/54 53/53/53
f 53/53/53 54/54/54 56/56/56
f 57/57/57 56/56/56 54/54/54
f 58/58/58 56/56/56 57/57/57
f 59/59/59 58/58/58 57/57/57
f 60/60/60 59/59/59 57/57/57
f 63/63/63 62/62/62 61/61/61
f 64/64/64 61/61/61 62/62/62
f 61/61/61 64/64/64 65/65/65
f 64/64/64 66/66/66 65/65/65
f 67/67/67 65/65/65 66/66/66
f 68/68/68 65/65/65 67/67/67
f 71/71/71 70/70/70 69/69/69
f 72/72/72 69/69/69 70/70/70
f 69/69/69 72/72/72 73/73/73
f 72/72/72 74/74/74 73/73/73
f 75/75/75 73/73/73 74/74/74
f 76/76/76 73/73/73 75/75/75
f 79/79/79 78/78/78 77/77/77
f 77/77/77 78/78/78 80/80/80
f 81/81/81 80/80/80 78/78/78
f 82/82/82 80/80/80 81/81/81
f 82/82/82 81/81/81 83/83/83
f 84/84/84 83/83/83 81/81/81
f 87/87/87 86/86/86 85/85/85
f 85/85/85 86/86/86 88/88/88
f 89/89/89 88/88/88 86/86/86
f 90/90/90 88/88/88 89/89/89
f 91/91/91 90/90/90 89/89/89
f 92/92/92 91/91/91 89/89/89
f 95/95/95 94/94/94 93/93/93
f 93/93/93 96/96/96 95/95/95
f 97/97/97 95/95/95 96/96/96
f 98/98/98 95/95/95 97/97/97
f 97/97/97 99/99/99 98/98/98
f 100/100/100 98/98/98 99/99/99
f 99/99/99 101/101/101 100/100/100
f 102/102/102 100/100/100 101/101/101
f 103/103/103 102/102/102 101/101/101
f 101/101/101 104/104/104 103/103/103
f 107/107/107 106/106/106 105/105/105
f 108/108/108 105/105/105 106/106/106
f 108/108/108 109/109/109 105/105/105
f 110/110/110 105/105/105 109/109/109
f 109/109/109 111/111/111 110/110/110
f 112/112/112 110/110/110 111/111/111
f 113/113/113 112/112/112 111/111/111
f 114/114/114 112/112/112 113/113/113
f 115/115/115 114/114/114 113/113/113
f 113/113/113 116/116/116 115/115/115
