mtllib SM_Food_SM_Carrot_02_LOD2.mtl
g SM_Food_SM_Carrot_02_LOD2
#Vertices 72
#Indices 216
#Section 0 Offset 0 NumIndices 216 MaterialIndex 0 MI_Food
v -0.006338 0.018934 0.054402
v 0.002173 0.027584 -0.007336
v 0.003452 0.017207 0.058463
v 0.014304 0.019797 -0.007410
v 0.010395 0.009228 0.055069
v 0.010395 0.009228 0.055069
v 0.014304 0.019797 -0.007410
v 0.018548 0.008480 -0.009221
v 0.015814 -0.001528 -0.012526
v 0.008476 -0.001649 0.054566
v 0.001978 -0.007946 0.058198
v -0.007447 -0.009108 0.035959
v -0.006824 -0.009116 0.054399
v 0.002694 -0.009937 -0.003412
v -0.005288 -0.008710 -0.007288
v 0.001911 -0.010565 -0.016988
v 0.014304 0.019797 -0.007410
v 0.002173 0.027584 -0.007336
v 0.008080 0.031577 -0.034673
v 0.018548 0.008480 -0.009221
v 0.015180 0.019550 -0.057100
v 0.001817 0.030833 -0.052916
v -0.003311 0.022379 -0.061770
v 0.013334 -0.001602 -0.055125
v 0.015814 -0.001528 -0.012526
v 0.001911 -0.010565 -0.016988
v -0.002820 -0.005122 -0.058670
v 0.005296 0.009334 -0.061912
v -0.004149 0.013051 -0.066814
v -0.007313 0.005347 -0.061737
v -0.017951 0.013715 0.054584
v -0.006338 0.018934 0.054402
v -0.009207 0.019478 0.060254
v -0.012482 0.022604 -0.002409
v 0.002173 0.027584 -0.007336
v -0.016438 0.003512 0.024769
v -0.018004 0.010551 -0.005451
v -0.014900 -0.001317 -0.001564
v -0.018079 -0.002444 0.053755
v -0.005288 -0.008710 -0.007288
v -0.007447 -0.009108 0.035959
v -0.006824 -0.009116 0.054399
v 0.002694 -0.009937 -0.003412
v -0.009207 0.019478 0.060254
v -0.006338 0.018934 0.054402
v 0.003452 0.017207 0.058463
v 0.010923 0.006210 0.063129
v 0.010395 0.009228 0.055069
v 0.008476 -0.001649 0.054566
v 0.001978 -0.007946 0.058198
v -0.020017 0.008477 0.059042
v -0.017951 0.013715 0.054584
v -0.018079 -0.002444 0.053755
v -0.010285 -0.009384 0.062674
v -0.006824 -0.009116 0.054399
v 0.008080 0.031577 -0.034673
v 0.002173 0.027584 -0.007336
v -0.010734 0.031305 -0.038932
v 0.001817 0.030833 -0.052916
v -0.012482 0.022604 -0.002409
v -0.013723 0.020374 -0.063765
v -0.003311 0.022379 -0.061770
v -0.004149 0.013051 -0.066814
v -0.007313 0.005347 -0.061737
v -0.025356 0.013878 -0.040784
v -0.018004 0.010551 -0.005451
v -0.014900 -0.001317 -0.001564
v -0.016250 0.002597 -0.058890
v -0.002820 -0.005122 -0.058670
v -0.015326 -0.006069 -0.041779
v -0.005288 -0.008710 -0.007288
v 0.001911 -0.010565 -0.016988
vt 0.616699 0.970352
vt 0.663574 0.971375
vt 0.614258 0.977890
vt 0.664062 0.982300
vt 0.616699 0.985825
vt 0.642090 0.829224
vt 0.594238 0.835571
vt 0.593262 0.826660
vt 0.591797 0.818848
vt 0.642090 0.820801
vt 0.645508 0.814453
vt 0.630371 0.804810
vt 0.644043 0.807861
vt 0.599609 0.807861
vt 0.597168 0.802368
vt 0.589355 0.806274
vt 0.985840 0.846069
vt 0.986816 0.857178
vt 0.964844 0.857422
vt 0.983398 0.836670
vt 0.949707 0.846191
vt 0.948242 0.858398
vt 0.937500 0.851318
vt 0.949707 0.832153
vt 0.980469 0.828491
vt 0.975098 0.815430
vt 0.941406 0.824463
vt 0.940918 0.839233
vt 0.932617 0.842041
vt 0.933594 0.832886
vt 0.683594 0.974136
vt 0.687012 0.981796
vt 0.682617 0.982864
vt 0.726074 0.965210
vt 0.732910 0.975800
vt 0.702148 0.959106
vt 0.725586 0.955627
vt 0.719727 0.948853
vt 0.679688 0.962708
vt 0.720703 0.939362
vt 0.690430 0.950317
vt 0.676758 0.953430
vt 0.715820 0.934753
vt 0.770020 0.864502
vt 0.769531 0.869263
vt 0.759277 0.867432
vt 0.753418 0.858032
vt 0.750488 0.861328
vt 0.749023 0.851318
vt 0.755371 0.844849
vt 0.775879 0.853882
vt 0.778809 0.858276
vt 0.775391 0.843262
vt 0.764648 0.844116
vt 0.762207 0.839478
vt 0.660156 0.299316
vt 0.651855 0.321777
vt 0.646973 0.296387
vt 0.653809 0.283203
vt 0.639160 0.323730
vt 0.638184 0.278809
vt 0.643555 0.274902
vt 0.634766 0.269531
vt 0.626953 0.274414
vt 0.631348 0.295410
vt 0.626953 0.320312
vt 0.615723 0.321777
vt 0.625488 0.280762
vt 0.614258 0.274902
vt 0.616211 0.291504
vt 0.605957 0.316406
vt 0.600586 0.307129
vt1 0.298096 0.025879
vt1 0.694336 0.034668
vt1 0.278809 0.088867
vt1 0.697266 0.125977
vt1 0.300049 0.155273
vt1 0.492676 0.199219
vt1 0.439453 0.597900
vt1 0.514648 0.606201
vt1 0.580078 0.620850
vt1 0.562988 0.199707
vt1 0.616699 0.169434
vt1 0.696777 0.297363
vt1 0.671387 0.183105
vt1 0.671387 0.553955
vt1 0.717285 0.575439
vt1 0.684570 0.639404
vt1 0.964355 0.884216
vt1 0.972656 0.977127
vt1 0.788086 0.979172
vt1 0.947754 0.805298
vt1 0.662109 0.884338
vt1 0.652344 0.987144
vt1 0.560547 0.927490
vt1 0.662109 0.766724
vt1 0.920410 0.736816
vt1 0.874512 0.626953
vt1 0.592285 0.702393
vt1 0.589844 0.826050
vt1 0.518555 0.850586
vt1 0.529297 0.773071
vt1 0.081055 0.162109
vt1 0.016968 0.191895
vt1 0.008064 0.154297
vt1 0.155884 0.519775
vt1 0.067078 0.573730
vt1 0.206909 0.316406
vt1 0.236206 0.512451
vt1 0.292725 0.465820
vt1 0.176758 0.131836
vt1 0.372314 0.472656
vt1 0.280518 0.218262
vt1 0.254395 0.105469
vt1 0.411133 0.430664
vt1 0.898438 0.545410
vt1 0.891602 0.585938
vt1 0.806641 0.570312
vt1 0.756836 0.490723
vt1 0.729492 0.517822
vt1 0.719238 0.433594
vt1 0.770020 0.378906
vt1 0.945801 0.455078
vt1 0.973145 0.492188
vt1 0.939941 0.365723
vt1 0.851074 0.372559
vt1 0.829102 0.333008
vt1 0.514648 0.788818
vt1 0.445312 0.974365
vt1 0.405273 0.762573
vt1 0.464600 0.652344
vt1 0.337891 0.993633
vt1 0.329590 0.613770
vt1 0.376465 0.583740
vt1 0.303711 0.534912
vt1 0.235352 0.576904
vt1 0.272461 0.754395
vt1 0.237305 0.965149
vt1 0.144043 0.976273
vt1 0.224609 0.632324
vt1 0.132568 0.583252
vt1 0.147461 0.721924
vt1 0.062500 0.931213
vt1 0.016403 0.853394
vn -0.094488 0.992126 0.102362
vn 0.157480 0.976378 0.125984
vn 0.472441 0.866142 0.157480
vn 0.811024 0.574803 0.094488
vn 0.937008 0.307087 0.173228
vn 0.960630 0.196850 0.188976
vn 0.826772 0.551181 0.078740
vn 1.000000 0.000000 0.047244
vn 0.842520 -0.543307 0.007874
vn 0.874016 -0.464567 0.133858
vn 0.440945 -0.889764 0.118110
vn -0.330709 -0.944882 -0.047244
vn -0.125984 -0.992126 0.023622
vn 0.110236 -0.992126 -0.031496
vn -0.165354 -0.984252 -0.023622
vn 0.188976 -0.984252 -0.023622
vn 0.834646 0.543307 0.094488
vn 0.204724 0.968504 0.149606
vn 0.472441 0.874016 0.086614
vn 0.992126 -0.031496 0.141732
vn 0.858268 0.338583 -0.385827
vn 0.275591 0.913386 -0.291339
vn -0.047244 0.220472 -0.976378
vn 0.708661 -0.598425 -0.370079
vn 0.834646 -0.551181 0.062992
vn 0.141732 -0.984252 0.062992
vn -0.007874 -0.842520 -0.535433
vn 0.062992 -0.086614 -0.992126
vn 0.401575 -0.362205 -0.842520
vn -0.149606 -0.039370 -0.984252
vn -0.818898 0.566929 -0.055118
vn -0.141732 0.984252 0.078740
vn -0.228346 0.724409 0.645669
vn -0.677165 0.716535 0.141732
vn 0.094488 0.992126 0.118110
vn -0.968504 -0.212598 -0.118110
vn -0.976378 0.031496 0.204724
vn -0.803150 -0.559055 0.204724
vn -0.850394 -0.519685 -0.070866
vn -0.456693 -0.889764 0.023622
vn -0.322835 -0.944882 -0.031496
vn -0.125984 -0.992126 0.023622
vn 0.055118 -1.000000 0.015748
vn -0.228346 0.724409 0.645669
vn -0.102362 0.992126 0.047244
vn 0.480315 0.842520 0.244094
vn 0.708661 0.062992 0.700787
vn 0.960630 0.188976 0.204724
vn 0.874016 -0.472441 0.141732
vn 0.433071 -0.881890 0.204724
vn -0.811024 0.188976 0.559055
vn -0.811024 0.582677 -0.007874
vn -0.858268 -0.511811 -0.023622
vn -0.307087 -0.685039 0.669291
vn -0.125984 -0.992126 0.023622
vn 0.362205 0.929134 0.094488
vn 0.118110 0.984252 0.141732
vn -0.377953 0.921260 0.094488
vn 0.307087 0.905512 -0.291339
vn -0.606299 0.771653 0.165354
vn -0.448819 0.354331 -0.818898
vn 0.031496 0.212598 -0.976378
vn -0.472441 0.244094 -0.850394
vn -0.110236 -0.102362 -0.992126
vn -0.992126 0.133858 -0.000000
vn -0.976378 0.078740 0.204724
vn -0.803150 -0.551181 0.228346
vn -0.622047 -0.433071 -0.645669
vn -0.031496 -0.866142 -0.496063
vn -0.590551 -0.803149 -0.110236
vn -0.322835 -0.944882 0.055118
vn 0.133858 -0.992126 0.023622
tan -0.984314 -0.080042 -0.132804 1.000000
tan -0.968690 0.168144 -0.092256 1.000000
tan -0.866142 0.481121 -0.047740 1.000000
tan -0.576291 0.811023 0.012772 1.000000
tan -0.323765 0.929630 0.103292 1.000000
tan 0.198338 -0.960630 -0.007564 1.000000
tan 0.554281 -0.826772 -0.032550 1.000000
tan 0.003348 -1.000000 -0.070866 1.000000
tan -0.543121 -0.842520 -0.019902 1.000000
tan -0.462459 -0.875070 -0.017422 1.000000
tan -0.882758 -0.448633 -0.084072 1.000000
tan -0.930002 0.332941 -0.148800 1.000000
tan -0.976502 0.119908 -0.171864 1.000000
tan -0.984314 -0.106392 -0.093744 1.000000
tan -0.984252 0.166842 -0.062000 1.000000
tan -0.984252 -0.187488 -0.062000 1.000000
tan 0.542563 -0.836134 0.015128 1.000000
tan 0.953252 -0.227416 0.167772 1.000000
tan 0.874698 -0.473123 0.003162 1.000000
tan -0.039308 -0.992126 0.054684 1.000000
tan 0.363259 -0.881890 0.034162 1.000000
tan 0.764648 -0.392895 -0.508463 1.000000
tan 0.238328 -0.945626 -0.225060 1.000000
tan -0.599541 -0.752619 0.068944 1.000000
tan -0.552173 -0.834646 0.013144 1.000000
tan -0.984252 -0.139748 0.031000 1.000000
tan -0.304545 -0.498977 0.789634 1.000000
tan -0.015624 -0.992126 0.085622 1.000000
tan -0.123256 -0.854858 0.308761 1.000000
tan -0.341001 -0.922252 0.088722 1.000000
tan -0.555521 -0.813317 -0.112096 1.000000
tan -0.922252 -0.105524 -0.341001 1.000000
tan -0.795710 0.230888 -0.540455 1.000000
tan -0.719883 -0.673817 -0.032922 1.000000
tan -0.976502 0.115320 -0.187488 1.000000
tan 0.240312 -0.899870 -0.350797 1.000000
tan -0.102052 -0.914874 -0.345961 1.000000
tan 0.542935 -0.807985 -0.076446 1.000000
tan 0.526195 -0.843140 -0.131316 1.000000
tan 0.875752 -0.453407 -0.147126 1.000000
tan 0.930002 -0.312295 -0.163680 1.000000
tan 0.960878 -0.127968 -0.249984 1.000000
tan 0.897638 0.042532 -0.440945 1.000000
tan -0.224440 -0.681381 0.685101 1.000000
tan -0.320293 -0.077686 0.937442 1.000000
tan 0.395065 -0.444045 0.755286 1.000000
tan -0.431707 -0.742699 0.503317 1.000000
tan 0.123504 -0.922810 0.272305 1.000000
tan -0.465745 -0.877364 -0.052452 1.000000
tan -0.767066 -0.476657 -0.430653 1.000000
tan -0.487755 -0.704631 -0.469403 1.000000
tan -0.582057 -0.811085 -0.068448 1.000000
tan 0.484097 -0.795958 -0.343109 1.000000
tan -0.003534 -0.692603 -0.710521 1.000000
tan -0.101556 -0.010540 -0.984314 1.000000
tan -0.029264 0.105896 -0.929134 1.000000
tan -0.139500 0.157356 -0.976502 1.000000
tan 0.115320 0.141360 -0.916982 1.000000
tan 0.282907 -0.372001 -0.858020 1.000000
tan -0.499101 -0.228285 -0.764709 1.000000
tan 0.730547 -0.369831 -0.560419 1.000000
tan 0.591977 -0.776489 -0.149978 1.000000
tan 0.840846 -0.146568 -0.509207 1.000000
tan 0.976502 0.179676 -0.127038 1.000000
tan -0.008432 -0.062496 -0.992126 1.000000
tan -0.211792 -0.107632 -0.968690 1.000000
tan 0.033728 -0.367599 -0.768677 1.000000
tan 0.680017 0.080352 -0.709033 1.000000
tan 0.309877 0.458305 -0.819890 1.000000
tan 0.499721 -0.267469 -0.728377 1.000000
tan 0.177692 -0.115258 -0.935086 1.000000
tan 0.023436 -0.020460 -0.992126 1.000000
f 3/3/3 2/2/2 1/1/1
f 2/2/2 3/3/3 4/4/4
f 4/4/4 3/3/3 5/5/5
f 8/8/8 7/7/7 6/6/6
f 9/9/9 8/8/8 6/6/6
f 6/6/6 10/10/10 9/9/9
f 11/11/11 9/9/9 10/10/10
f 11/11/11 13/13/13 12/12/12
f 12/12/12 14/14/14 11/11/11
f 14/14/14 9/9/9 11/11/11
f 9/9/9 14/14/14 15/15/15
f 15/15/15 16/16/16 9/9/9
f 19/19/19 18/18/18 17/17/17
f 17/17/17 20/20/20 19/19/19
f 21/21/21 19/19/19 20/20/20
f 22/22/22 19/19/19 21/21/21
f 22/22/22 21/21/21 23/23/23
f 20/20/20 24/24/24 21/21/21
f 25/25/25 24/24/24 20/20/20
f 25/25/25 26/26/26 24/24/24
f 27/27/27 24/24/24 26/26/26
f 21/21/21 28/28/28 23/23/23
f 24/24/24 28/28/28 21/21/21
f 28/28/28 24/24/24 27/27/27
f 28/28/28 29/29/29 23/23/23
f 28/28/28 27/27/27 30/30/30
f 30/30/30 29/29/29 28/28/28
f 33/33/33 32/32/32 31/31/31
f 35/35/35 34/34/34 32/32/32
f 31/31/31 32/32/32 34/34/34
f 31/31/31 34/34/34 36/36/36
f 36/36/36 34/34/34 37/37/37
f 37/37/37 38/38/38 36/36/36
f 39/39/39 31/31/31 36/36/36
f 38/38/38 40/40/40 36/36/36
f 39/39/39 36/36/36 40/40/40
f 40/40/40 41/41/41 39/39/39
f 41/41/41 42/42/42 39/39/39
f 41/41/41 40/40/40 43/43/43
f 46/46/46 45/45/45 44/44/44
f 47/47/47 46/46/46 44/44/44
f 47/47/47 48/48/48 46/46/46
f 47/47/47 49/49/49 48/48/48
f 47/47/47 50/50/50 49/49/49
f 47/47/47 44/44/44 51/51/51
f 44/44/44 52/52/52 51/51/51
f 53/53/53 51/51/51 52/52/52
f 50/50/50 47/47/47 54/54/54
f 54/54/54 47/47/47 51/51/51
f 51/51/51 53/53/53 54/54/54
f 50/50/50 54/54/54 55/55/55
f 54/54/54 53/53/53 55/55/55
f 58/58/58 57/57/57 56/56/56
f 58/58/58 56/56/56 59/59/59
f 57/57/57 58/58/58 60/60/60
f 59/59/59 61/61/61 58/58/58
f 59/59/59 62/62/62 61/61/61
f 63/63/63 61/61/61 62/62/62
f 63/63/63 64/64/64 61/61/61
f 60/60/60 58/58/58 65/65/65
f 61/61/61 65/65/65 58/58/58
f 65/65/65 66/66/66 60/60/60
f 66/66/66 65/65/65 67/67/67
f 64/64/64 68/68/68 61/61/61
f 68/68/68 65/65/65 61/61/61
f 69/69/69 68/68/68 64/64/64
f 70/70/70 67/67/67 65/65/65
f 70/70/70 65/65/65 68/68/68
f 69/69/69 70/70/70 68/68/68
f 70/70/70 71/71/71 67/67/67
f 69/69/69 72/72/72 70/70/70
f 71/71/71 70/70/70 72/72/72
