mtllib SM_Food_SM_Lemon_LOD1.mtl
g SM_Food_SM_Lemon_LOD1
#Vertices 77
#Indices 192
#Section 0 Offset 0 NumIndices 192 MaterialIndex 0 MI_Food
v -0.038735 0.027259 0.002160
v -0.038487 0.012472 0.003194
v -0.041026 0.020423 -0.003653
v -0.012028 0.025286 0.023653
v -0.008787 0.040731 0.020284
v -0.002843 0.040759 0.020097
v -0.003748 0.017679 0.022299
v 0.018604 0.034996 0.015630
v 0.027910 0.034693 0.000380
v 0.028586 0.023581 0.002760
v 0.014054 0.006471 0.005068
v 0.026336 0.017798 -0.006506
v -0.004722 0.002781 0.008141
v 0.027340 0.039000 -0.014291
v 0.038618 0.032360 -0.010895
v 0.030465 0.042131 -0.003752
v 0.039104 0.025090 -0.007784
v 0.027910 0.034693 0.000380
v 0.028586 0.023581 0.002760
v 0.026336 0.017798 -0.006506
v 0.039104 0.025090 -0.007784
v 0.028048 0.026232 -0.019325
v 0.026336 0.017798 -0.006506
v 0.038618 0.032360 -0.010895
v 0.027340 0.039000 -0.014291
v -0.029155 0.038492 0.016826
v -0.038735 0.027259 0.002160
v -0.036232 0.043434 -0.005425
v -0.024874 0.053567 -0.006400
v -0.002303 0.056523 0.007808
v -0.007316 0.056250 -0.016634
v -0.008787 0.040731 0.020284
v -0.002843 0.040759 0.020097
v 0.017829 0.049373 -0.018617
v 0.028048 0.026232 -0.019325
v 0.027340 0.039000 -0.014291
v 0.008019 0.038263 -0.037988
v 0.009934 0.016880 -0.036068
v 0.001136 0.055991 -0.014633
v -0.012501 0.013634 -0.035651
v -0.007316 0.056250 -0.016634
v -0.034769 0.033672 -0.029286
v -0.034225 0.016115 -0.022405
v -0.024874 0.053567 -0.006400
v -0.041026 0.020423 -0.003653
v -0.036232 0.043434 -0.005425
v -0.038735 0.027259 0.002160
v -0.012028 0.025286 0.023653
v -0.029155 0.038492 0.016826
v -0.008787 0.040731 0.020284
v -0.027354 0.016482 0.017264
v -0.038735 0.027259 0.002160
v -0.003748 0.017679 0.022299
v -0.038487 0.012472 0.003194
v -0.004722 0.002781 0.008141
v -0.017028 0.001545 0.004735
v 0.017829 0.049373 -0.018617
v 0.027340 0.039000 -0.014291
v 0.030465 0.042131 -0.003752
v 0.001136 0.055991 -0.014633
v -0.002303 0.056523 0.007808
v -0.007316 0.056250 -0.016634
v 0.018604 0.034996 0.015630
v -0.002843 0.040759 0.020097
v 0.027910 0.034693 0.000380
v -0.041026 0.020423 -0.003653
v -0.032607 0.002908 -0.011888
v -0.034225 0.016115 -0.022405
v -0.038487 0.012472 0.003194
v -0.012501 0.013634 -0.035651
v -0.017028 0.001545 0.004735
v 0.013337 0.000499 -0.019760
v 0.009934 0.016880 -0.036068
v -0.004722 0.002781 0.008141
v 0.028048 0.026232 -0.019325
v 0.014054 0.006471 0.005068
v 0.026336 0.017798 -0.006506
vt 0.696289 -0.001953
vt 0.701660 0.007324
vt 0.694336 0.003906
vt 0.860840 0.777832
vt 0.856934 0.789307
vt 0.852539 0.788818
vt 0.855469 0.771729
vt 0.836426 0.781860
vt 0.823730 0.777832
vt 0.827148 0.770508
vt 0.839355 0.758667
vt 0.823730 0.763550
vt 0.854004 0.756104
vt 0.612793 0.002930
vt 0.605957 0.011230
vt 0.606445 0.000488
vt 0.600098 0.013184
vt 0.601074 0.000488
vt 0.594238 0.003906
vt 0.589844 0.009277
vt 0.803711 0.115723
vt 0.807617 0.126465
vt 0.796387 0.123535
vt 0.810059 0.116211
vt 0.817383 0.122559
vt 0.048126 0.821045
vt 0.059235 0.832642
vt 0.046875 0.838989
vt 0.035034 0.837646
vt 0.022949 0.821533
vt 0.019913 0.840332
vt 0.035400 0.811279
vt 0.031555 0.808960
vt 0.527832 0.957367
vt 0.539062 0.940582
vt 0.538086 0.951843
vt 0.518555 0.942902
vt 0.521973 0.928040
vt 0.513672 0.964539
vt 0.502930 0.925171
vt 0.506348 0.963440
vt 0.488770 0.942200
vt 0.481689 0.931946
vt 0.489502 0.965210
vt 0.468750 0.942108
vt 0.479004 0.957458
vt 0.467529 0.949158
vt 0.889648 0.472656
vt 0.903320 0.462402
vt 0.900391 0.478027
vt 0.887207 0.459473
vt 0.897461 0.447266
vt 0.881348 0.476074
vt 0.886230 0.445801
vt 0.868652 0.467285
vt 0.871094 0.457520
vt 0.684082 0.773315
vt 0.672852 0.770874
vt 0.672852 0.763550
vt 0.697754 0.768188
vt 0.697266 0.750977
vt 0.704590 0.768433
vt 0.674316 0.745850
vt 0.689453 0.737793
vt 0.669434 0.759155
vt 0.753906 0.965668
vt 0.768555 0.967438
vt 0.764648 0.979034
vt 0.758789 0.958466
vt 0.784180 0.986465
vt 0.777832 0.953156
vt 0.801270 0.969467
vt 0.802734 0.985733
vt 0.787598 0.949371
vt 0.820801 0.974472
vt 0.803711 0.951477
vt 0.816895 0.962708
vt1 0.028290 0.910217
vt1 0.074646 1.000217
vt1 0.008064 0.968536
vt1 0.541992 0.637207
vt1 0.645508 0.599121
vt1 0.640625 0.559326
vt1 0.487305 0.587891
vt1 0.578613 0.415527
vt1 0.541992 0.300781
vt1 0.476562 0.333496
vt1 0.370117 0.441895
vt1 0.413574 0.303711
vt1 0.346680 0.573242
vt1 0.336426 0.045410
vt1 0.411377 0.103516
vt1 0.314697 0.101074
vt1 0.428467 0.157227
vt1 0.315186 0.150879
vt1 0.345215 0.208496
vt1 0.394775 0.250000
vt1 0.829102 0.245117
vt1 0.866211 0.347168
vt1 0.766113 0.319336
vt1 0.884277 0.247559
vt1 0.950684 0.308105
vt1 0.707031 0.545166
vt1 0.606445 0.440918
vt1 0.718262 0.383789
vt1 0.825195 0.395996
vt1 0.933594 0.540283
vt1 0.961426 0.371582
vt1 0.821289 0.632324
vt1 0.855957 0.653320
vt1 0.571289 0.921143
vt1 0.673340 0.769653
vt1 0.663086 0.871338
vt1 0.488525 0.790771
vt1 0.518555 0.656250
vt1 0.446289 0.985954
vt1 0.346680 0.630615
vt1 0.377686 0.976013
vt1 0.218506 0.784302
vt1 0.154663 0.691895
vt1 0.226074 0.991936
vt1 0.038696 0.783569
vt1 0.131714 0.921997
vt1 0.027481 0.847168
vt1 0.738770 0.156738
vt1 0.643555 0.034668
vt1 0.786133 0.059570
vt1 0.617676 0.176758
vt1 0.509766 0.084473
vt1 0.766602 0.229492
vt1 0.497559 0.187012
vt1 0.688965 0.347168
vt1 0.603027 0.321777
vt1 0.850586 0.991936
vt1 0.952148 0.970306
vt1 0.955078 0.904236
vt1 0.728027 0.945831
vt1 0.734375 0.791016
vt1 0.668945 0.948486
vt1 0.939941 0.744629
vt1 0.803223 0.670898
vt1 0.985352 0.864380
vt1 0.196045 0.051758
vt1 0.180298 0.182129
vt1 0.075500 0.148926
vt1 0.260986 0.096680
vt1 0.008507 0.325195
vt1 0.309082 0.266113
vt1 0.161743 0.476562
vt1 0.015167 0.493164
vt1 0.343018 0.356445
vt1 0.116760 0.653320
vt1 0.323975 0.502197
vt1 0.222778 0.621094
vn -0.913386 0.299213 0.283464
vn -0.795276 -0.480315 0.377953
vn -0.992126 0.118110 0.039370
vn -0.118110 -0.102362 0.984252
vn -0.039370 0.417323 0.905512
vn 0.133858 0.401575 0.905512
vn 0.157480 -0.370079 0.913386
vn 0.622047 0.188976 0.763779
vn 0.803150 0.259843 0.535433
vn 0.803150 -0.267716 0.527559
vn 0.480315 -0.724409 0.503937
vn 0.787402 -0.606299 0.125984
vn 0.070866 -0.842520 0.527559
vn 0.692913 0.543307 -0.472441
vn 0.913386 0.377953 -0.125984
vn 0.748031 0.629921 0.204724
vn 0.913386 -0.385827 0.141732
vn 0.803150 0.259843 0.535433
vn 0.755906 -0.322835 0.566929
vn 0.787402 -0.606299 0.125984
vn 0.913386 -0.385827 0.141732
vn 0.763780 -0.141732 -0.629921
vn 0.787402 -0.606299 0.125984
vn 0.913386 0.377953 -0.125984
vn 0.677165 0.559055 -0.480315
vn -0.551181 0.377953 0.748031
vn -0.937008 0.086614 0.346457
vn -0.826772 0.566929 -0.047244
vn -0.456693 0.889764 -0.039370
vn 0.086614 0.897638 0.440945
vn -0.110236 0.952756 -0.299213
vn -0.039370 0.417323 0.905512
vn 0.133858 0.401575 0.905512
vn 0.582677 0.700787 -0.409449
vn 0.763780 -0.141732 -0.629921
vn 0.692913 0.551181 -0.464567
vn 0.307087 0.370079 -0.874016
vn 0.393701 -0.330709 -0.858268
vn 0.173228 0.952756 -0.259843
vn -0.228346 -0.440945 -0.866142
vn -0.110236 0.952756 -0.299213
vn -0.692913 0.251968 -0.677165
vn -0.716535 -0.401575 -0.566929
vn -0.456693 0.889764 -0.039370
vn -0.992126 0.118110 0.039370
vn -0.834646 0.551181 -0.039370
vn -0.937008 0.157480 0.322835
vn -0.118110 -0.102362 0.984252
vn -0.574803 0.307087 0.763779
vn -0.039370 0.417323 0.905512
vn -0.472441 -0.377953 0.795276
vn -0.929134 0.204724 0.314961
vn 0.157480 -0.362205 0.921260
vn -0.779528 -0.496063 0.385827
vn 0.070866 -0.842520 0.527559
vn -0.204724 -0.897638 0.385827
vn 0.582677 0.700787 -0.409449
vn 0.818898 0.511811 -0.259843
vn 0.803150 0.559055 0.212598
vn 0.173228 0.952756 -0.259843
vn 0.094488 0.889764 0.440945
vn -0.110236 0.952756 -0.299213
vn 0.606299 0.283465 0.748031
vn 0.133858 0.401575 0.905512
vn 0.803150 0.259843 0.535433
vn -0.992126 0.118110 0.039370
vn -0.566929 -0.803149 -0.204724
vn -0.716535 -0.401575 -0.574803
vn -0.779528 -0.496063 0.385827
vn -0.220472 -0.440945 -0.866142
vn -0.204724 -0.897638 0.385827
vn 0.433071 -0.842520 -0.322835
vn 0.401575 -0.362205 -0.842520
vn 0.070866 -0.842520 0.527559
vn 0.763780 -0.141732 -0.629921
vn 0.503937 -0.716535 0.480315
vn 0.787402 -0.606299 0.125984
tan 0.400025 0.805506 0.438713 1.000000
tan -0.344535 0.787463 0.275776 1.000000
tan 0.124310 0.929630 0.343729 1.000000
tan 0.093000 -0.976502 -0.090396 1.000000
tan 0.106950 -0.898382 0.418687 1.000000
tan 0.122760 -0.903652 0.382603 1.000000
tan 0.033046 -0.914626 -0.376279 1.000000
tan 0.513609 -0.751441 -0.232376 1.000000
tan 0.448385 -0.838986 -0.265422 1.000000
tan 0.073656 -0.763531 -0.499597 1.000000
tan -0.321409 -0.674561 -0.663339 1.000000
tan -0.531403 -0.761609 -0.343977 1.000000
tan -0.140988 -0.530411 -0.828136 1.000000
tan -0.543679 0.797818 0.120094 1.000000
tan -0.283713 0.826834 0.423585 1.000000
tan -0.661789 0.723913 0.190650 1.000000
tan 0.054250 0.436605 0.838923 1.000000
tan -0.592535 0.444789 0.672949 1.000000
tan -0.522413 0.145824 0.779589 1.000000
tan -0.273421 -0.161200 0.933102 1.000000
tan 0.137826 0.593713 0.728005 1.000000
tan 0.644057 0.181164 0.740157 1.000000
tan 0.484097 0.725153 0.464195 1.000000
tan 0.073408 0.132184 0.928762 1.000000
tan 0.589001 -0.031558 0.793663 1.000000
tan 0.697997 -0.266600 0.649017 1.000000
tan 0.334863 -0.095914 0.929630 1.000000
tan 0.116064 0.242545 0.879410 1.000000
tan 0.338645 0.212165 0.866638 1.000000
tan 0.198028 -0.450307 0.877798 1.000000
tan 0.270073 0.318681 0.915246 1.000000
tan 0.458491 -0.789881 0.383967 1.000000
tan 0.374667 -0.842643 0.318309 1.000000
tan 0.350239 -0.671461 -0.650815 1.000000
tan -0.430653 -0.826400 -0.336227 1.000000
tan 0.256804 -0.759501 -0.518073 1.000000
tan -0.132866 -0.869924 -0.415029 1.000000
tan -0.155992 -0.869552 0.263501 1.000000
tan 0.130944 -0.282349 -0.947982 1.000000
tan 0.075144 -0.869738 0.422965 1.000000
tan -0.200198 -0.315581 -0.931118 1.000000
tan 0.409325 -0.629921 -0.653233 1.000000
tan 0.642073 -0.680265 -0.329655 1.000000
tan -0.620125 -0.347945 -0.670097 1.000000
tan -0.123070 -0.882758 -0.453097 1.000000
tan -0.518631 -0.803956 -0.260400 1.000000
tan -0.317131 -0.752557 -0.553351 1.000000
tan -0.922252 -0.348751 -0.146940 1.000000
tan -0.786782 -0.072354 -0.563023 1.000000
tan -0.895034 -0.274661 0.087668 1.000000
tan -0.750511 -0.290781 -0.584041 1.000000
tan -0.353401 -0.217001 -0.901482 1.000000
tan -0.731105 -0.568293 -0.098456 1.000000
tan -0.513857 0.169508 -0.820262 1.000000
tan -0.666873 -0.418811 -0.579267 1.000000
tan -0.668547 -0.126914 -0.650009 1.000000
tan 0.015934 0.493645 0.867568 1.000000
tan 0.221526 0.086676 0.868870 1.000000
tan -0.344287 0.145638 0.917664 1.000000
tan -0.153450 0.284395 0.940480 1.000000
tan -0.136586 -0.423337 0.883502 1.000000
tan -0.124744 0.282969 0.946990 1.000000
tan -0.711079 -0.211234 0.656395 1.000000
tan -0.504619 -0.758695 0.411061 1.000000
tan -0.502449 -0.160208 0.831421 1.000000
tan 0.001240 -0.304668 0.945254 1.000000
tan 0.400893 -0.475665 0.755905 1.000000
tan -0.403063 -0.356935 0.751813 1.000000
tan 0.515593 -0.172670 0.819703 1.000000
tan -0.078368 -0.861058 0.458305 1.000000
tan 0.120218 0.360221 0.901854 1.000000
tan -0.055738 -0.364623 0.876806 1.000000
tan 0.462459 -0.706057 0.523963 1.000000
tan 0.011594 0.529233 0.843635 1.000000
tan 0.574989 -0.286378 0.761609 1.000000
tan -0.111786 0.481617 0.835762 1.000000
tan -0.362949 -0.289168 0.876806 1.000000
f 3/3/3 2/2/2 1/1/1
f 6/6/6 5/5/5 4/4/4
f 4/4/4 7/7/7 6/6/6
f 8/8/8 6/6/6 7/7/7
f 10/10/10 9/9/9 8/8/8
f 8/8/8 7/7/7 10/10/10
f 7/7/7 11/11/11 10/10/10
f 12/12/12 10/10/10 11/11/11
f 7/7/7 13/13/13 11/11/11
f 16/16/16 15/15/15 14/14/14
f 15/15/15 16/16/16 17/17/17
f 18/18/18 17/17/17 16/16/16
f 17/17/17 18/18/18 19/19/19
f 19/19/19 20/20/20 17/17/17
f 23/23/23 22/22/22 21/21/21
f 22/22/22 24/24/24 21/21/21
f 24/24/24 22/22/22 25/25/25
f 28/28/28 27/27/27 26/26/26
f 29/29/29 28/28/28 26/26/26
f 29/29/29 26/26/26 30/30/30
f 31/31/31 29/29/29 30/30/30
f 30/30/30 26/26/26 32/32/32
f 33/33/33 30/30/30 32/32/32
f 36/36/36 35/35/35 34/34/34
f 37/37/37 34/34/34 35/35/35
f 38/38/38 37/37/37 35/35/35
f 37/37/37 39/39/39 34/34/34
f 38/38/38 40/40/40 37/37/37
f 39/39/39 37/37/37 41/41/41
f 37/37/37 40/40/40 42/42/42
f 42/42/42 41/41/41 37/37/37
f 43/43/43 42/42/42 40/40/40
f 41/41/41 42/42/42 44/44/44
f 43/43/43 45/45/45 42/42/42
f 44/44/44 42/42/42 46/46/46
f 47/47/47 42/42/42 45/45/45
f 47/47/47 46/46/46 42/42/42
f 50/50/50 49/49/49 48/48/48
f 51/51/51 48/48/48 49/49/49
f 49/49/49 52/52/52 51/51/51
f 51/51/51 53/53/53 48/48/48
f 51/51/51 52/52/52 54/54/54
f 53/53/53 51/51/51 55/55/55
f 51/51/51 54/54/54 56/56/56
f 55/55/55 51/51/51 56/56/56
f 59/59/59 58/58/58 57/57/57
f 59/59/59 57/57/57 60/60/60
f 62/62/62 61/61/61 60/60/60
f 59/59/59 60/60/60 61/61/61
f 63/63/63 59/59/59 61/61/61
f 61/61/61 64/64/64 63/63/63
f 59/59/59 63/63/63 65/65/65
f 68/68/68 67/67/67 66/66/66
f 66/66/66 67/67/67 69/69/69
f 70/70/70 67/67/67 68/68/68
f 69/69/69 67/67/67 71/71/71
f 70/70/70 72/72/72 67/67/67
f 67/67/67 72/72/72 71/71/71
f 70/70/70 73/73/73 72/72/72
f 71/71/71 72/72/72 74/74/74
f 75/75/75 72/72/72 73/73/73
f 76/76/76 74/74/74 72/72/72
f 77/77/77 72/72/72 75/75/75
f 77/77/77 76/76/76 72/72/72
