mtllib SM_Food_SM_Carrot_01_LOD2.mtl
g SM_Food_SM_Carrot_01_LOD2
#Vertices 96
#Indices 312
#Section 0 Offset 0 NumIndices 312 MaterialIndex 0 MI_Food
v 0.002457 0.014199 0.090014
v 0.009644 0.013528 0.052285
v 0.010848 0.005728 0.053309
v 0.002207 0.013343 0.093160
v 0.006607 -0.001128 0.054430
v 0.000040 0.015586 0.101476
v -0.000202 0.020791 0.102726
v -0.001892 0.017252 0.101612
v -0.002031 0.010941 0.087186
v -0.002807 0.002082 0.069572
v -0.001893 -0.003736 0.054443
v -0.010992 0.000371 0.050802
v -0.012170 0.004282 0.053096
v -0.012942 0.001042 0.017326
v -0.012170 0.004282 0.053096
v -0.010992 0.000371 0.050802
v -0.014111 0.007208 0.016964
v -0.012174 0.012253 0.047286
v -0.009736 0.016601 0.016302
v -0.002031 0.010941 0.087186
v -0.002142 0.018777 0.063071
v -0.001486 0.018574 0.015636
v -0.003160 0.013253 0.083944
v -0.001892 0.017252 0.101612
v 0.005967 0.018817 0.016389
v -0.001430 0.015267 0.088555
v -0.000202 0.020791 0.102726
v 0.003085 0.017077 0.072171
v 0.010009 0.014870 0.017853
v 0.009644 0.013528 0.052285
v 0.002457 0.014199 0.090014
v 0.002207 0.013343 0.093160
v 0.005967 0.018817 0.016389
v 0.012872 0.016227 -0.029326
v 0.010009 0.014870 0.017853
v -0.001486 0.018574 0.015636
v 0.004066 0.025008 -0.053664
v 0.013216 0.018605 -0.057052
v -0.005205 0.024531 -0.051695
v -0.012428 0.018976 -0.051165
v -0.009736 0.016601 0.016302
v -0.015845 0.007755 -0.024328
v -0.014111 0.007208 0.016964
v -0.016247 0.012115 -0.051010
v -0.012942 0.001042 0.017326
v -0.014082 0.000191 -0.051205
v -0.013262 -0.000538 -0.030991
v 0.014217 0.010035 -0.027733
v 0.012872 0.016227 -0.029326
v 0.013216 0.018605 -0.057052
v 0.017307 0.013872 -0.089643
v 0.013633 0.020681 -0.096561
v 0.013408 0.001783 -0.028385
v 0.010744 0.008569 -0.106620
v 0.007327 0.023368 -0.102132
v -0.003135 0.012487 -0.108827
v 0.013639 0.001440 -0.089693
v 0.005733 -0.006027 -0.027950
v -0.002918 -0.004407 -0.095320
v -0.010300 0.003380 -0.099257
v -0.013164 0.002425 -0.088861
v -0.014082 0.000191 -0.051205
v 0.005232 -0.004725 -0.080020
v -0.005614 -0.006403 -0.027375
v -0.013262 -0.000538 -0.030991
v 0.013216 0.018605 -0.057052
v 0.006722 0.027093 -0.088523
v 0.013633 0.020681 -0.096561
v 0.004066 0.025008 -0.053664
v 0.007327 0.023368 -0.102132
v -0.007469 0.027395 -0.091463
v -0.005205 0.024531 -0.051695
v -0.003135 0.012487 -0.108827
v -0.012428 0.018976 -0.051165
v -0.013540 0.014094 -0.099465
v -0.010300 0.003380 -0.099257
v -0.013164 0.002425 -0.088861
v -0.017616 0.012801 -0.082578
v -0.016247 0.012115 -0.051010
v -0.014082 0.000191 -0.051205
v -0.005614 -0.006403 -0.027375
v -0.013262 -0.000538 -0.030991
v -0.005934 -0.005967 0.023470
v -0.012942 0.001042 0.017326
v -0.010992 0.000371 0.050802
v 0.005733 -0.006027 -0.027950
v -0.001893 -0.003736 0.054443
v 0.006841 -0.005183 0.025635
v 0.013408 0.001783 -0.028385
v 0.006607 -0.001128 0.054430
v 0.013756 0.005861 0.017695
v 0.014217 0.010035 -0.027733
v 0.010848 0.005728 0.053309
v 0.012872 0.016227 -0.029326
v 0.009644 0.013528 0.052285
v 0.010009 0.014870 0.017853
vt 0.773438 0.667969
vt 0.745117 0.675293
vt 0.744141 0.669434
vt 0.775391 0.666260
vt 0.744141 0.663330
vt 0.781738 0.665527
vt 0.785156 0.667236
vt 0.783203 0.664062
vt 0.771484 0.660889
vt 0.756836 0.658203
vt 0.744629 0.656982
vt 0.744629 0.648926
vt 0.747559 0.647217
vt 0.143066 0.937500
vt 0.119446 0.950775
vt 0.119568 0.947449
vt 0.145264 0.941803
vt 0.125854 0.954163
vt 0.148682 0.948792
vt 0.099060 0.969452
vt 0.118164 0.966736
vt 0.151489 0.954559
vt 0.102234 0.969635
vt 0.089905 0.975281
vt 0.152954 0.960052
vt 0.099731 0.972855
vt 0.089600 0.978226
vt 0.112854 0.972595
vt 0.153320 0.964325
vt 0.128906 0.973663
vt 0.099854 0.976364
vt 0.098755 0.978302
vt 0.032501 0.993309
vt 0.066650 0.997540
vt 0.031464 0.997496
vt 0.032776 0.987480
vt 0.085266 0.989769
vt 0.087219 0.998276
vt 0.083618 0.983047
vt 0.082520 0.976593
vt 0.031860 0.981247
vt 0.061432 0.970673
vt 0.030640 0.973648
vt 0.081604 0.970490
vt 0.029800 0.968964
vt 0.080200 0.961609
vt 0.065369 0.963623
vt 0.457520 0.979721
vt 0.455811 0.984459
vt 0.434570 0.984856
vt 0.410645 0.976776
vt 0.402588 0.978516
vt 0.457764 0.973618
vt 0.401123 0.967163
vt 0.394775 0.975708
vt 0.393555 0.960205
vt 0.413086 0.967377
vt 0.459229 0.965057
vt 0.409180 0.955109
vt 0.403076 0.950500
vt 0.411865 0.945953
vt 0.442627 0.946198
vt 0.420898 0.960571
vt 0.460449 0.955902
vt 0.458252 0.948761
vt 0.950195 0.716553
vt 0.973633 0.707275
vt 0.981934 0.711914
vt 0.947266 0.707520
vt 0.984863 0.704590
vt 0.973633 0.697266
vt 0.945312 0.700195
vt 0.989258 0.690918
vt 0.943848 0.692871
vt 0.979492 0.687500
vt 0.981934 0.679688
vt 0.973145 0.677490
vt 0.967285 0.684814
vt 0.943359 0.686279
vt 0.942871 0.676758
vt 0.299805 0.992752
vt 0.302246 1.000255
vt 0.261475 0.990829
vt 0.265625 0.998491
vt 0.240356 0.993767
vt 0.300537 0.984207
vt 0.238892 0.985817
vt 0.260742 0.981339
vt 0.301270 0.975876
vt 0.239136 0.979187
vt 0.266846 0.971924
vt 0.301025 0.969559
vt 0.239868 0.973221
vt 0.302490 0.964722
vt 0.240356 0.967163
vt 0.266357 0.964966
vt1 0.729004 0.168457
vt1 0.952148 0.110840
vt1 0.958008 0.156738
vt1 0.714355 0.182129
vt1 0.957520 0.205078
vt1 0.662109 0.188477
vt1 0.636719 0.174316
vt1 0.653320 0.199707
vt1 0.743652 0.224121
vt1 0.858887 0.245117
vt1 0.954102 0.256348
vt1 0.955566 0.318848
vt1 0.930664 0.332031
vt1 0.329590 0.281250
vt1 0.224976 0.467285
vt1 0.250977 0.466309
vt1 0.295654 0.264160
vt1 0.198242 0.416504
vt1 0.240601 0.236816
vt1 0.077820 0.627197
vt1 0.099304 0.477051
vt1 0.195190 0.214844
vt1 0.076294 0.602295
vt1 0.031860 0.698975
vt1 0.151855 0.203125
vt1 0.051025 0.621826
vt1 0.008736 0.701660
vt1 0.053070 0.518799
vt1 0.118164 0.200684
vt1 0.044647 0.392578
vt1 0.023392 0.621094
vt1 0.008064 0.629639
vt1 0.969238 0.946960
vt1 0.700684 0.980240
vt1 0.977539 0.979904
vt1 0.967285 0.901123
vt1 0.554199 0.919128
vt1 0.538574 0.986038
vt1 0.567383 0.866211
vt1 0.575684 0.815430
vt1 0.974121 0.852051
vt1 0.741699 0.768921
vt1 0.983887 0.792358
vt1 0.583008 0.767456
vt1 0.990723 0.755493
vt1 0.594238 0.697754
vt1 0.710938 0.713379
vt1 0.515625 0.954254
vt1 0.501465 0.991577
vt1 0.333740 0.994728
vt1 0.145874 0.931030
vt1 0.081909 0.944672
vt1 0.516602 0.906067
vt1 0.071533 0.855103
vt1 0.020157 0.922668
vt1 0.011887 0.800415
vt1 0.165649 0.856934
vt1 0.528320 0.838501
vt1 0.134521 0.760132
vt1 0.087036 0.723877
vt1 0.154541 0.687988
vt1 0.398193 0.689941
vt1 0.226318 0.803223
vt1 0.538086 0.766602
vt1 0.520508 0.710205
vt1 0.954102 0.613281
vt1 0.879395 0.427734
vt1 0.916504 0.362305
vt1 0.881836 0.637451
vt1 0.858887 0.340820
vt1 0.800293 0.427734
vt1 0.824707 0.654053
vt1 0.751465 0.307617
vt1 0.766602 0.662354
vt1 0.724121 0.382812
vt1 0.663574 0.362305
vt1 0.644531 0.433105
vt1 0.704102 0.480957
vt1 0.715332 0.667480
vt1 0.640625 0.670898
vt1 0.387695 0.647217
vt1 0.328613 0.665771
vt1 0.402832 0.347168
vt1 0.342285 0.377930
vt1 0.379639 0.179688
vt1 0.454834 0.653320
vt1 0.442139 0.167969
vt1 0.477539 0.339844
vt1 0.520508 0.658447
vt1 0.494385 0.169922
vt1 0.551270 0.387695
vt1 0.570312 0.656738
vt1 0.541016 0.175781
vt1 0.608398 0.667480
vt1 0.588867 0.179199
vt1 0.606445 0.384277
vn 0.834646 0.511811 0.188976
vn 0.889764 0.448819 0.078740
vn 0.952756 -0.244094 0.188976
vn 0.952756 -0.173228 0.236220
vn 0.566929 -0.787401 0.244095
vn 0.307087 -0.637795 0.708661
vn 0.086614 0.771653 0.629921
vn -0.834646 -0.102362 0.543307
vn -0.842520 -0.401575 0.354331
vn -0.338583 -0.874016 0.346457
vn -0.031496 -0.960630 0.275591
vn -0.803150 -0.551181 0.220472
vn -0.952756 -0.204724 0.212598
vn -0.897638 -0.433071 -0.031496
vn -0.968504 -0.157480 0.173228
vn -0.834646 -0.535433 0.133858
vn -1.000000 0.062992 0.031496
vn -0.905512 0.417323 0.086614
vn -0.629921 0.779527 -0.000000
vn -0.905512 -0.251968 0.346457
vn -0.181102 0.984252 0.070866
vn -0.102362 0.992126 0.062992
vn -0.905512 0.377953 0.181102
vn -0.834646 -0.102362 0.543307
vn 0.417323 0.905512 0.047244
vn -0.417323 0.905512 -0.023622
vn 0.086614 0.771653 0.629921
vn 0.409449 0.905512 0.125984
vn 0.818898 0.566929 0.047244
vn 0.874016 0.480315 0.086614
vn 0.795276 0.598425 0.094488
vn 0.952756 -0.173228 0.236220
vn 0.433071 0.897638 0.055118
vn 0.779528 0.622047 0.047244
vn 0.787402 0.614173 0.070866
vn -0.102362 0.992126 0.031496
vn 0.299213 0.937008 0.165354
vn 0.795276 0.590551 0.133858
vn -0.307087 0.944882 0.125984
vn -0.716535 0.692913 0.110236
vn -0.653543 0.755905 0.023622
vn -0.992126 0.118110 0.031496
vn -1.000000 0.055118 0.023622
vn -0.992126 0.141732 0.047244
vn -0.881890 -0.464567 0.031496
vn -0.834646 -0.543307 -0.047244
vn -0.850394 -0.519685 0.007874
vn 0.992126 0.110236 -0.000000
vn 0.811024 0.574803 0.070866
vn 0.779528 0.606299 0.149606
vn 1.000000 0.078740 -0.023622
vn 0.834646 0.503937 -0.220472
vn 0.921260 -0.377953 0.039370
vn 0.566929 -0.251969 -0.787401
vn 0.346457 0.716535 -0.598425
vn -0.204724 0.055118 -0.976378
vn 0.771654 -0.629921 -0.086614
vn 0.377953 -0.921260 -0.039370
vn -0.181102 -0.944882 -0.259842
vn -0.677165 -0.559055 -0.480315
vn -0.803150 -0.566929 -0.181102
vn -0.779528 -0.629921 0.007874
vn 0.283465 -0.960630 -0.055118
vn -0.307087 -0.952756 0.000000
vn -0.858268 -0.511811 0.000000
vn 0.795276 0.598425 0.125984
vn 0.377953 0.929134 0.039370
vn 0.842520 0.503937 -0.181102
vn 0.299213 0.944882 0.141732
vn 0.362205 0.716535 -0.598425
vn -0.425197 0.897638 -0.086614
vn -0.307087 0.944882 0.125984
vn -0.244094 0.062992 -0.968504
vn -0.748031 0.661417 0.086614
vn -0.874016 0.173228 -0.456693
vn -0.677165 -0.559055 -0.480315
vn -0.803150 -0.566929 -0.181102
vn -0.992126 0.094488 -0.047244
vn -0.992126 0.110236 0.055118
vn -0.866142 -0.496063 0.015748
vn -0.275591 -0.960630 0.007874
vn -0.834646 -0.551181 0.031496
vn -0.385827 -0.921260 0.015748
vn -0.897638 -0.448819 -0.007874
vn -0.826772 -0.543307 0.173228
vn 0.330709 -0.944882 -0.039370
vn -0.031496 -0.968504 0.244095
vn 0.519685 -0.858268 0.023622
vn 0.929134 -0.377953 0.023622
vn 0.629921 -0.748031 0.196850
vn 1.000000 -0.055118 0.055118
vn 1.000000 0.070866 0.047244
vn 0.960630 -0.259842 0.094488
vn 0.834646 0.551181 0.031496
vn 0.913386 0.409449 0.047244
vn 0.803150 0.598425 0.062992
tan 0.472503 -0.824478 0.146072 1.000000
tan 0.435365 -0.882758 0.112096 1.000000
tan -0.277017 -0.930250 0.195052 1.000000
tan -0.242296 -0.896460 0.319859 1.000000
tan -0.787402 -0.578461 -0.037200 1.000000
tan -0.860996 -0.487507 -0.065658 1.000000
tan 0.032612 -0.634695 0.773017 1.000000
tan -0.551987 0.231694 -0.804328 1.000000
tan -0.534193 0.667245 -0.513981 1.000000
tan -0.871164 0.270507 -0.168950 1.000000
tan -0.937938 -0.027838 -0.204228 1.000000
tan -0.585901 0.788765 -0.162440 1.000000
tan -0.291587 0.772707 -0.562651 1.000000
tan 0.432451 -0.883502 -0.176700 1.000000
tan 0.064976 -0.869366 -0.427057 1.000000
tan 0.501705 -0.825718 -0.174592 1.000000
tan -0.070680 -0.913386 -0.417323 1.000000
tan -0.426003 -0.876992 -0.228160 1.000000
tan -0.779528 -0.629921 -0.047926 1.000000
tan 0.051088 -0.799616 -0.448013 1.000000
tan -0.945502 -0.153884 -0.279000 1.000000
tan -0.937442 -0.075888 -0.328105 1.000000
tan -0.416765 -0.841342 -0.327981 1.000000
tan 0.068386 -0.955794 -0.075020 1.000000
tan -0.884122 0.418253 -0.206770 1.000000
tan -0.891252 -0.414471 -0.142600 1.000000
tan -0.548701 0.565131 -0.616839 1.000000
tan -0.891252 0.425817 -0.163990 1.000000
tan -0.563209 0.819269 -0.068944 1.000000
tan -0.468349 0.867134 -0.082584 1.000000
tan -0.591729 0.798995 -0.079918 1.000000
tan 0.280489 0.767065 -0.568789 1.000000
tan -0.897638 0.434807 -0.028272 1.000000
tan -0.622419 0.779527 0.006138 1.000000
tan -0.615289 0.787959 0.007564 1.000000
tan -0.992126 -0.100874 -0.046872 1.000000
tan -0.937008 0.303119 -0.022134 1.000000
tan -0.597929 0.795275 0.043834 1.000000
tan -0.946866 -0.304111 -0.027156 1.000000
tan -0.694649 -0.716535 -0.011284 1.000000
tan -0.755906 -0.653357 -0.005952 1.000000
tan -0.121396 -0.984314 -0.132804 1.000000
tan -0.057288 -0.992126 -0.110236 1.000000
tan -0.147684 -0.976502 -0.171864 1.000000
tan 0.463327 -0.881890 -0.034720 1.000000
tan 0.545911 -0.834646 -0.046004 1.000000
tan 0.519127 -0.850456 -0.064356 1.000000
tan 0.109368 -0.984314 -0.093744 1.000000
tan 0.577035 -0.811023 -0.025544 1.000000
tan 0.608655 -0.779527 -0.012276 1.000000
tan 0.070122 -0.968504 -0.259842 1.000000
tan 0.386633 -0.791122 -0.344597 1.000000
tan -0.377023 -0.921260 -0.021762 1.000000
tan -0.776738 -0.191456 -0.497985 1.000000
tan -0.073532 -0.599169 -0.759997 1.000000
tan -0.884556 -0.416765 0.161944 1.000000
tan -0.632649 -0.771653 -0.024304 1.000000
tan -0.921260 -0.375163 -0.065286 1.000000
tan -0.922562 0.121582 0.200880 1.000000
tan -0.728377 0.421601 0.536177 1.000000
tan -0.592039 0.784177 0.170748 1.000000
tan -0.629921 0.779527 -0.000000 1.000000
tan -0.960630 -0.281295 -0.037820 1.000000
tan -0.945254 0.304669 -0.090024 1.000000
tan -0.511811 0.858268 -0.027032 1.000000
tan -0.601401 0.796267 0.014074 1.000000
tan -0.921818 0.379317 -0.102424 1.000000
tan -0.532581 0.807924 -0.229525 1.000000
tan -0.944882 0.307025 -0.052080 1.000000
tan -0.795152 -0.030628 -0.517949 1.000000
tan -0.889888 -0.430033 -0.088164 1.000000
tan -0.946866 -0.305103 -0.019716 1.000000
tan -0.632959 -0.732097 0.111910 1.000000
tan -0.663463 -0.748031 -0.017670 1.000000
tan -0.335793 -0.823175 0.330399 1.000000
tan 0.383409 -0.814805 0.407837 1.000000
tan 0.552483 -0.813937 0.097836 1.000000
tan -0.093372 -0.992126 -0.023436 1.000000
tan -0.115444 -0.984314 -0.109368 1.000000
tan 0.495443 -0.866142 -0.034100 1.000000
tan 0.960630 -0.275467 0.015128 1.000000
tan 0.552421 -0.834646 0.032860 1.000000
tan 0.921260 -0.385207 0.036270 1.000000
tan 0.448633 -0.897638 0.021204 1.000000
tan 0.558125 -0.821626 0.086862 1.000000
tan 0.944882 0.329779 0.022320 1.000000
tan 0.960878 -0.000496 0.122016 1.000000
tan 0.858268 0.520243 0.020274 1.000000
tan 0.377581 0.929134 0.014632 1.000000
tan 0.749582 0.634571 0.012710 1.000000
tan 0.055552 1.000000 -0.007874 1.000000
tan -0.073098 1.000000 0.047244 1.000000
tan 0.266539 0.960630 -0.068076 1.000000
tan -0.551677 0.834646 0.013144 1.000000
tan -0.407961 0.913386 -0.028768 1.000000
tan -0.598425 0.803645 -0.004712 1.000000
f 3/3/3 2/2/2 1/1/1
f 3/3/3 1/1/1 4/4/4
f 3/3/3 4/4/4 5/5/5
f 6/6/6 5/5/5 4/4/4
f 6/6/6 4/4/4 7/7/7
f 8/8/8 6/6/6 7/7/7
f 8/8/8 9/9/9 6/6/6
f 5/5/5 6/6/6 10/10/10
f 6/6/6 9/9/9 10/10/10
f 5/5/5 10/10/10 11/11/11
f 10/10/10 12/12/12 11/11/11
f 9/9/9 12/12/12 10/10/10
f 12/12/12 9/9/9 13/13/13
f 16/16/16 15/15/15 14/14/14
f 14/14/14 15/15/15 17/17/17
f 15/15/15 18/18/18 17/17/17
f 17/17/17 18/18/18 19/19/19
f 18/18/18 15/15/15 20/20/20
f 18/18/18 21/21/21 19/19/19
f 21/21/21 22/22/22 19/19/19
f 18/18/18 20/20/20 23/23/23
f 18/18/18 23/23/23 21/21/21
f 23/23/23 20/20/20 24/24/24
f 25/25/25 22/22/22 21/21/21
f 24/24/24 26/26/26 23/23/23
f 23/23/23 26/26/26 21/21/21
f 24/24/24 27/27/27 26/26/26
f 21/21/21 28/28/28 25/25/25
f 21/21/21 26/26/26 28/28/28
f 29/29/29 25/25/25 28/28/28
f 29/29/29 28/28/28 30/30/30
f 28/28/28 31/31/31 30/30/30
f 26/26/26 31/31/31 28/28/28
f 27/27/27 31/31/31 26/26/26
f 32/32/32 31/31/31 27/27/27
f 35/35/35 34/34/34 33/33/33
f 33/33/33 34/34/34 36/36/36
f 38/38/38 37/37/37 34/34/34
f 37/37/37 36/36/36 34/34/34
f 36/36/36 37/37/37 39/39/39
f 40/40/40 36/36/36 39/39/39
f 41/41/41 36/36/36 40/40/40
f 40/40/40 42/42/42 41/41/41
f 43/43/43 41/41/41 42/42/42
f 44/44/44 42/42/42 40/40/40
f 45/45/45 43/43/43 42/42/42
f 44/44/44 46/46/46 42/42/42
f 45/45/45 42/42/42 47/47/47
f 46/46/46 47/47/47 42/42/42
f 50/50/50 49/49/49 48/48/48
f 50/50/50 48/48/48 51/51/51
f 50/50/50 51/51/51 52/52/52
f 53/53/53 51/51/51 48/48/48
f 52/52/52 51/51/51 54/54/54
f 54/54/54 55/55/55 52/52/52
f 56/56/56 55/55/55 54/54/54
f 51/51/51 53/53/53 57/57/57
f 57/57/57 54/54/54 51/51/51
f 57/57/57 53/53/53 58/58/58
f 56/56/56 54/54/54 59/59/59
f 54/54/54 57/57/57 59/59/59
f 60/60/60 56/56/56 59/59/59
f 60/60/60 59/59/59 61/61/61
f 62/62/62 61/61/61 59/59/59
f 58/58/58 63/63/63 57/57/57
f 59/59/59 57/57/57 63/63/63
f 58/58/58 64/64/64 63/63/63
f 59/59/59 63/63/63 64/64/64
f 59/59/59 64/64/64 62/62/62
f 65/65/65 62/62/62 64/64/64
f 68/68/68 67/67/67 66/66/66
f 66/66/66 67/67/67 69/69/69
f 70/70/70 67/67/67 68/68/68
f 67/67/67 71/71/71 69/69/69
f 67/67/67 70/70/70 71/71/71
f 71/71/71 72/72/72 69/69/69
f 73/73/73 71/71/71 70/70/70
f 71/71/71 74/74/74 72/72/72
f 75/75/75 71/71/71 73/73/73
f 73/73/73 76/76/76 75/75/75
f 77/77/77 75/75/75 76/76/76
f 78/78/78 74/74/74 71/71/71
f 71/71/71 75/75/75 78/78/78
f 77/77/77 78/78/78 75/75/75
f 78/78/78 79/79/79 74/74/74
f 78/78/78 77/77/77 80/80/80
f 80/80/80 79/79/79 78/78/78
f 83/83/83 82/82/82 81/81/81
f 84/84/84 82/82/82 83/83/83
f 84/84/84 83/83/83 85/85/85
f 86/86/86 83/83/83 81/81/81
f 85/85/85 83/83/83 87/87/87
f 86/86/86 88/88/88 83/83/83
f 87/87/87 83/83/83 88/88/88
f 89/89/89 88/88/88 86/86/86
f 88/88/88 90/90/90 87/87/87
f 88/88/88 89/89/89 91/91/91
f 90/90/90 88/88/88 91/91/91
f 89/89/89 92/92/92 91/91/91
f 90/90/90 91/91/91 93/93/93
f 92/92/92 94/94/94 91/91/91
f 93/93/93 91/91/91 95/95/95
f 91/91/91 94/94/94 96/96/96
f 96/96/96 95/95/95 91/91/91
