mtllib SM_FoodPot_01_LOD2.mtl
g SM_FoodPot_01_LOD2
#Vertices 116
#Indices 276
#Section 0 Offset 0 NumIndices 276 MaterialIndex 0 MI_FoodPot
v -0.046151 0.215709 -0.001983
v 0.046216 0.215793 -0.000577
v -0.046228 0.217172 -0.001700
v 0.046198 0.217073 -0.000275
v -0.046189 0.215699 0.000580
v 0.046112 0.215700 0.004586
v 0.046152 0.215698 0.001981
v -0.046230 0.215700 0.003183
v -0.046230 0.215700 0.003183
v 0.046112 0.206421 0.004586
v 0.046112 0.215700 0.004586
v -0.046230 0.206421 0.003184
v 0.046112 0.206421 0.004586
v -0.046249 0.206421 0.004440
v 0.046093 0.206421 0.005841
v -0.046230 0.206421 0.003184
v 0.046093 0.206421 0.005841
v -0.046249 0.206421 0.004440
v -0.046249 0.215702 0.004440
v 0.046087 0.215649 0.005868
v -0.046292 0.217028 0.004219
v 0.046157 0.217024 0.005582
v 0.046087 0.215649 0.005868
v 0.046112 0.206421 0.004586
v 0.046093 0.206421 0.005841
v 0.046112 0.215700 0.004586
v 0.046157 0.217024 0.005582
v 0.046099 0.217357 0.004589
v 0.046179 0.217363 0.000711
v 0.046152 0.215698 0.001981
v 0.046216 0.215793 -0.000577
v 0.046198 0.217073 -0.000275
v -0.046234 0.217348 0.003435
v 0.046157 0.217024 0.005582
v -0.046292 0.217028 0.004219
v 0.046099 0.217357 0.004589
v -0.046230 0.217348 0.003184
v -0.046161 0.217358 -0.000529
v 0.046179 0.217363 0.000711
v -0.046228 0.217172 -0.001700
v 0.046198 0.217073 -0.000275
v -0.046189 0.215699 0.000580
v -0.046112 0.200954 -0.004513
v -0.046151 0.215709 -0.001983
v -0.046225 0.201391 0.002853
v -0.046069 0.194065 -0.007402
v -0.046265 0.194301 0.005826
v -0.045828 0.171206 -0.023281
v -0.046499 0.169832 0.022564
v -0.046584 0.160732 0.025394
v -0.045757 0.162072 -0.027818
v -0.045729 0.151650 -0.029827
v -0.046587 0.152882 0.028189
v -0.046626 0.129726 0.029275
v -0.045721 0.135905 -0.030441
v -0.045637 -0.006331 -0.035958
v -0.046705 -0.006331 0.034557
v 0.046216 0.215793 -0.000577
v 0.046110 0.200901 0.004518
v 0.046152 0.215698 0.001981
v 0.046223 0.201365 -0.002843
v 0.046068 0.193926 0.007496
v 0.046272 0.194054 -0.005996
v 0.046509 0.170414 -0.022287
v 0.045828 0.171206 0.023281
v 0.046584 0.160726 -0.025396
v 0.045763 0.162193 0.027793
v 0.045729 0.151650 0.029826
v 0.046585 0.152919 -0.028178
v 0.046626 0.129726 -0.029276
v 0.045719 0.134629 0.030488
v 0.045636 -0.006331 0.035958
v 0.046706 -0.006332 -0.034557
v 0.046223 0.201365 -0.002843
v 0.046216 0.215793 -0.000577
v -0.046151 0.215709 -0.001983
v -0.046112 0.200954 -0.004513
v 0.046272 0.194054 -0.005996
v -0.046069 0.194065 -0.007402
v 0.046509 0.170414 -0.022287
v -0.045828 0.171206 -0.023281
v -0.045757 0.162072 -0.027818
v 0.046584 0.160726 -0.025396
v 0.046585 0.152919 -0.028178
v -0.045729 0.151650 -0.029827
v -0.045721 0.135905 -0.030441
v 0.046626 0.129726 -0.029276
v -0.045637 -0.006331 -0.035958
v 0.046706 -0.006332 -0.034557
v -0.046225 0.201391 0.002853
v -0.046189 0.215699 0.000580
v 0.046152 0.215698 0.001981
v 0.046110 0.200901 0.004518
v -0.046265 0.194301 0.005826
v 0.046068 0.193926 0.007496
v 0.045828 0.171206 0.023281
v -0.046499 0.169832 0.022564
v 0.045763 0.162193 0.027793
v -0.046584 0.160732 0.025394
v -0.046587 0.152882 0.028189
v 0.045729 0.151650 0.029826
v 0.045719 0.134629 0.030488
v -0.046626 0.129726 0.029275
v -0.046705 -0.006331 0.034557
v 0.045636 -0.006331 0.035958
v -0.046189 0.215699 0.000580
v -0.046151 0.215709 -0.001983
v -0.046228 0.217172 -0.001700
v -0.046161 0.217358 -0.000529
v -0.046230 0.217348 0.003184
v -0.046230 0.215700 0.003183
v -0.046234 0.217348 0.003435
v -0.046292 0.217028 0.004219
v -0.046249 0.215702 0.004440
v -0.046249 0.206421 0.004440
v -0.046230 0.206421 0.003184
vt 0.112793 0.927368
vt 0.003708 0.927368
vt 0.112915 0.925781
vt 0.003796 0.925537
vt 0.114136 0.890503
vt 0.002563 0.893494
vt 0.002672 0.890991
vt 0.114258 0.894470
vt 0.113831 0.894226
vt 0.003599 0.904175
vt 0.002657 0.893433
vt 0.112732 0.905212
vt 0.004055 0.904114
vt 0.112854 0.906372
vt 0.003963 0.905884
vt 0.112488 0.905151
vt 0.003883 0.905884
vt 0.112854 0.906372
vt 0.112793 0.916992
vt 0.003799 0.916870
vt 0.112854 0.918945
vt 0.003738 0.918457
vt 0.000980 0.896301
vt 0.004898 0.904846
vt 0.004189 0.906067
vt 0.002142 0.895203
vt 0.000008 0.895325
vt 0.000249 0.894348
vt 0.001152 0.889954
vt 0.002665 0.891968
vt 0.003397 0.889038
vt 0.001852 0.888916
vt 0.112793 0.919861
vt 0.003725 0.918457
vt 0.112854 0.918884
vt 0.003824 0.919617
vt 0.112793 0.920166
vt 0.112793 0.924438
vt 0.003736 0.924438
vt 0.112854 0.925964
vt 0.003817 0.925476
vt 0.805176 0.263184
vt 0.811035 0.245605
vt 0.808105 0.263184
vt 0.802246 0.246582
vt 0.814453 0.237793
vt 0.798340 0.237793
vt 0.832520 0.210449
vt 0.778320 0.209473
vt 0.774902 0.198730
vt 0.837891 0.199707
vt 0.840332 0.187012
vt 0.771484 0.189453
vt 0.770020 0.162109
vt 0.840820 0.168457
vt 0.845703 0.000488
vt 0.762207 0.000977
vt 0.841797 0.528809
vt 0.848145 0.511230
vt 0.845215 0.528809
vt 0.839355 0.511719
vt 0.851562 0.502930
vt 0.835449 0.503174
vt 0.816406 0.475098
vt 0.870117 0.476074
vt 0.812500 0.463867
vt 0.875488 0.465332
vt 0.877930 0.453125
vt 0.809082 0.454590
vt 0.808105 0.427246
vt 0.878418 0.433105
vt 0.885254 0.266113
vt 0.801758 0.266113
vt 0.757812 0.253906
vt 0.758301 0.270996
vt 0.648926 0.270996
vt 0.648926 0.253418
vt 0.757812 0.244629
vt 0.648926 0.244629
vt 0.757812 0.210449
vt 0.648926 0.211914
vt 0.648926 0.199707
vt 0.757812 0.198730
vt 0.757812 0.188965
vt 0.648926 0.187012
vt 0.648926 0.168457
vt 0.757812 0.161133
vt 0.648926 0.000488
vt 0.757812 0.000488
vt 0.757812 0.769653
vt 0.757812 0.786743
vt 0.648926 0.786987
vt 0.648926 0.769165
vt 0.757812 0.760498
vt 0.648926 0.760254
vt 0.648926 0.727539
vt 0.757812 0.725586
vt 0.648926 0.715576
vt 0.757812 0.714355
vt 0.757812 0.704590
vt 0.648926 0.702881
vt 0.648926 0.682861
vt 0.757812 0.677002
vt 0.757812 0.516113
vt 0.648926 0.516113
vt 0.114197 0.891724
vt 0.113220 0.888855
vt 0.114990 0.888672
vt 0.115601 0.889954
vt 0.116638 0.893860
vt 0.114746 0.894836
vt 0.116760 0.894104
vt 0.116943 0.894897
vt 0.115967 0.895874
vt 0.112488 0.906738
vt 0.111816 0.905579
vt1 0.863281 0.981049
vt1 0.863281 0.691162
vt1 0.867676 0.981216
vt1 0.868164 0.691406
vt1 0.961426 0.984612
vt1 0.953613 0.687988
vt1 0.959961 0.688232
vt1 0.950684 0.984779
vt1 0.951660 0.983749
vt1 0.924805 0.690674
vt1 0.953613 0.688232
vt1 0.922363 0.980820
vt1 0.925293 0.691895
vt1 0.919434 0.981186
vt1 0.920410 0.691650
vt1 0.922363 0.980164
vt1 0.920410 0.691406
vt1 0.919434 0.981155
vt1 0.891113 0.980988
vt1 0.891602 0.691406
vt1 0.885742 0.981079
vt1 0.887207 0.691162
vt1 0.945801 0.683838
vt1 0.923340 0.694336
vt1 0.919922 0.692383
vt1 0.949219 0.687012
vt1 0.948730 0.681152
vt1 0.951172 0.681885
vt1 0.962891 0.684326
vt1 0.957520 0.688232
vt1 0.965332 0.690186
vt1 0.965332 0.686035
vt1 0.883301 0.980942
vt1 0.887207 0.691162
vt1 0.886230 0.981094
vt1 0.884277 0.691406
vt1 0.882812 0.980942
vt1 0.871094 0.981018
vt1 0.871094 0.691162
vt1 0.867188 0.981171
vt1 0.868164 0.691406
vt1 0.734375 0.991936
vt1 0.750000 0.945496
vt1 0.742676 0.991882
vt1 0.727051 0.947113
vt1 0.758789 0.923828
vt1 0.717285 0.924988
vt1 0.808105 0.851562
vt1 0.664062 0.848755
vt1 0.654785 0.820312
vt1 0.821777 0.822754
vt1 0.827637 0.790039
vt1 0.645996 0.795776
vt1 0.641602 0.723145
vt1 0.829102 0.740723
vt1 0.842285 0.293945
vt1 0.620605 0.296387
vt1 0.007771 0.135742
vt1 0.054504 0.151855
vt1 0.008072 0.144043
vt1 0.053040 0.128906
vt1 0.076355 0.161133
vt1 0.075989 0.118652
vt1 0.150146 0.067383
vt1 0.147705 0.210449
vt1 0.180542 0.057617
vt1 0.176025 0.224609
vt1 0.209106 0.230957
vt1 0.205078 0.049316
vt1 0.277832 0.045410
vt1 0.262451 0.233398
vt1 0.704590 0.250488
vt1 0.704590 0.028809
vt1 0.298096 0.945984
vt1 0.298340 0.991821
vt1 0.008469 0.991920
vt1 0.008392 0.944946
vt1 0.298096 0.920959
vt1 0.008339 0.921570
vt1 0.297852 0.830811
vt1 0.008156 0.834229
vt1 0.008072 0.802246
vt1 0.297852 0.799072
vt1 0.297852 0.773071
vt1 0.008102 0.768921
vt1 0.008125 0.719482
vt1 0.297852 0.700195
vt1 0.008263 0.272949
vt1 0.298096 0.272949
vt1 0.604492 0.946045
vt1 0.604492 0.991501
vt1 0.314697 0.991928
vt1 0.314697 0.944824
vt1 0.604492 0.921875
vt1 0.314697 0.921082
vt1 0.314453 0.834229
vt1 0.604004 0.828857
vt1 0.314453 0.802612
vt1 0.604492 0.799072
vt1 0.604004 0.772949
vt1 0.314453 0.768921
vt1 0.314453 0.715576
vt1 0.604004 0.700195
vt1 0.604492 0.272949
vt1 0.314697 0.272949
vt1 0.958008 0.984756
vt1 0.965820 0.982147
vt1 0.966309 0.986778
vt1 0.962891 0.988503
vt1 0.952637 0.991211
vt1 0.949707 0.986115
vt1 0.952148 0.991562
vt1 0.949707 0.991943
vt1 0.947266 0.989403
vt1 0.918457 0.980225
vt1 0.921387 0.978378
vn 0.015748 0.149606 -0.984252
vn 0.015748 0.141732 -0.992126
vn 0.015748 0.370079 -0.929134
vn 0.015748 0.385827 -0.921260
vn 0.000000 -1.000000 0.000000
vn 0.000000 -1.000000 0.000000
vn 0.000000 -1.000000 0.000000
vn 0.000000 -1.000000 0.000000
vn 0.015748 -0.000000 -1.000000
vn 0.015748 -0.000000 -1.000000
vn 0.015748 -0.000000 -1.000000
vn 0.015748 -0.000000 -1.000000
vn 0.000000 -1.000000 0.000000
vn 0.000000 -1.000000 0.000000
vn 0.000000 -1.000000 0.000000
vn 0.000000 -1.000000 0.000000
vn -0.015748 0.000000 1.000000
vn -0.015748 0.000000 1.000000
vn -0.015748 0.000000 1.000000
vn -0.015748 0.000000 1.000000
vn -0.015748 0.385827 0.921260
vn -0.015748 0.370079 0.929134
vn 1.000000 0.000000 0.015748
vn 1.000000 0.000000 0.015748
vn 1.000000 0.000000 0.015748
vn 1.000000 0.000000 0.015748
vn 1.000000 0.000000 0.015748
vn 1.000000 0.000000 0.015748
vn 1.000000 0.000000 0.015748
vn 1.000000 0.000000 0.015748
vn 1.000000 0.000000 0.015748
vn 1.000000 0.000000 0.015748
vn -0.007874 0.952756 0.291338
vn -0.007874 0.921260 0.385827
vn -0.007874 0.921260 0.393701
vn 0.000000 1.000000 0.023622
vn 0.000000 1.000000 -0.000000
vn 0.000000 1.000000 -0.031496
vn 0.000000 1.000000 -0.062992
vn 0.007874 0.929134 -0.370079
vn 0.007874 0.929134 -0.377953
vn -1.000000 -0.000000 -0.015748
vn -1.000000 -0.000000 -0.015748
vn -1.000000 -0.000000 -0.015748
vn -1.000000 -0.000000 -0.015748
vn -1.000000 -0.000000 -0.015748
vn -1.000000 -0.000000 -0.015748
vn -1.000000 -0.000000 -0.015748
vn -1.000000 -0.000000 -0.015748
vn -1.000000 -0.000000 -0.015748
vn -1.000000 -0.000000 -0.015748
vn -1.000000 -0.000000 -0.015748
vn -1.000000 -0.000000 -0.015748
vn -1.000000 -0.000000 -0.015748
vn -1.000000 -0.000000 -0.015748
vn -1.000000 -0.000000 -0.015748
vn -1.000000 -0.000000 -0.015748
vn 1.000000 0.000000 0.015748
vn 1.000000 0.000000 0.015748
vn 1.000000 0.000000 0.015748
vn 1.000000 0.000000 0.015748
vn 1.000000 0.000000 0.015748
vn 1.000000 0.000000 0.015748
vn 1.000000 0.000000 0.015748
vn 1.000000 0.000000 0.015748
vn 1.000000 0.000000 0.015748
vn 1.000000 0.000000 0.015748
vn 1.000000 0.000000 0.015748
vn 1.000000 0.000000 0.015748
vn 1.000000 0.000000 0.015748
vn 1.000000 0.000000 0.015748
vn 1.000000 0.000000 0.015748
vn 1.000000 0.000000 0.015748
vn 0.015748 0.204724 -0.976378
vn 0.015748 0.149606 -0.992126
vn 0.015748 0.157480 -0.984252
vn 0.015748 0.236220 -0.968504
vn 0.015748 0.559055 -0.834646
vn 0.015748 0.543307 -0.834646
vn 0.015748 0.511811 -0.858268
vn 0.015748 0.535433 -0.842520
vn 0.023622 0.322834 -0.944882
vn 0.023622 0.307086 -0.952756
vn 0.015748 0.133858 -0.992126
vn 0.015748 0.086614 -1.000000
vn 0.015748 0.039370 -1.000000
vn 0.015748 0.039370 -1.000000
vn 0.015748 0.039370 -1.000000
vn 0.015748 0.039370 -1.000000
vn -0.015748 0.204724 0.976378
vn -0.015748 0.157480 0.984252
vn -0.015748 0.157480 0.984252
vn -0.015748 0.236221 0.968504
vn -0.015748 0.551181 0.834646
vn -0.015748 0.543307 0.834646
vn -0.015748 0.535433 0.842520
vn -0.015748 0.496063 0.866142
vn -0.023622 0.322835 0.944882
vn -0.023622 0.307087 0.952756
vn -0.015748 0.133858 0.992126
vn -0.015748 0.086614 0.992126
vn -0.015748 0.039370 1.000000
vn -0.015748 0.039370 1.000000
vn -0.015748 0.039370 1.000000
vn -0.015748 0.039370 1.000000
vn -1.000000 -0.000000 -0.015748
vn -1.000000 -0.000000 -0.015748
vn -1.000000 -0.000000 -0.015748
vn -1.000000 -0.000000 -0.015748
vn -1.000000 -0.000000 -0.015748
vn -1.000000 -0.000000 -0.015748
vn -1.000000 -0.000000 -0.015748
vn -1.000000 -0.000000 -0.015748
vn -1.000000 -0.000000 -0.015748
vn -1.000000 -0.000000 -0.015748
vn -1.000000 -0.000000 -0.015748
tan 0.000000 0.984252 0.149606 1.000000
tan 0.007812 0.992126 0.141856 1.000000
tan 0.000000 0.929134 0.370079 1.000000
tan 0.000000 0.921260 0.385827 1.000000
tan 0.094488 -0.000000 -0.992126 1.000000
tan -0.062992 -0.000000 -1.000000 1.000000
tan -0.094488 -0.000000 -0.992126 1.000000
tan 0.078740 -0.000000 -1.000000 1.000000
tan 0.070866 1.000000 0.001116 1.000000
tan -0.062992 1.000000 -0.000992 1.000000
tan -0.086614 0.992126 -0.001364 1.000000
tan 0.062992 1.000000 0.000992 1.000000
tan -0.015748 -0.000000 -1.000000 1.000000
tan 0.062992 -0.000000 -1.000000 1.000000
tan -0.007874 -0.000000 -1.000000 1.000000
tan 0.070866 -0.000000 -1.000000 1.000000
tan -0.007874 -1.000000 -0.000124 1.000000
tan 0.031496 -1.000000 0.000496 1.000000
tan 0.007874 -1.000000 0.000124 1.000000
tan 0.015748 -1.000000 0.000248 1.000000
tan 0.000000 -0.921260 0.385827 1.000000
tan 0.000000 -0.929134 0.370079 1.000000
tan 0.011904 0.661417 -0.755905 1.000000
tan 0.010788 0.732283 -0.685039 1.000000
tan 0.010292 0.755905 -0.653543 1.000000
tan 0.012896 0.574803 -0.818898 1.000000
tan 0.013392 0.519685 -0.850394 1.000000
tan 0.014260 0.417323 -0.905512 1.000000
tan 0.015376 0.228346 -0.976378 1.000000
tan 0.015004 0.307086 -0.952756 1.000000
tan 0.015128 0.275590 -0.960630 1.000000
tan 0.015128 0.275590 -0.960630 1.000000
tan -0.015004 -0.291462 0.952756 1.000000
tan -0.007254 -0.385889 0.921260 1.000000
tan -0.007254 -0.393763 0.921260 1.000000
tan -0.007874 -0.023622 1.000000 1.000000
tan -0.015748 0.000000 1.000000 1.000000
tan -0.015748 0.031496 1.000000 1.000000
tan -0.007874 0.062992 1.000000 1.000000
tan -0.007316 0.370141 0.929134 1.000000
tan -0.014632 0.378077 0.929134 1.000000
tan 0.000124 -1.000000 -0.007874 1.000000
tan 0.000124 -1.000000 -0.007874 1.000000
tan 0.000124 -1.000000 -0.007874 1.000000
tan 0.000124 -1.000000 -0.007874 1.000000
tan 0.000124 -1.000000 -0.007874 1.000000
tan 0.000124 -1.000000 -0.007874 1.000000
tan 0.000124 -1.000000 -0.007874 1.000000
tan 0.000124 -1.000000 -0.007874 1.000000
tan 0.000124 -1.000000 -0.007874 1.000000
tan 0.000124 -1.000000 -0.007874 1.000000
tan 0.000124 -1.000000 -0.007874 1.000000
tan 0.000124 -1.000000 -0.007874 1.000000
tan 0.000124 -1.000000 -0.007874 1.000000
tan 0.000124 -1.000000 -0.007874 1.000000
tan 0.000124 -1.000000 -0.007874 1.000000
tan 0.000124 -1.000000 -0.007874 1.000000
tan 0.000000 -1.000000 0.000000 1.000000
tan 0.000000 -1.000000 0.000000 1.000000
tan 0.000000 -1.000000 0.000000 1.000000
tan 0.000000 -1.000000 0.000000 1.000000
tan 0.000000 -1.000000 0.000000 1.000000
tan 0.000000 -1.000000 0.000000 1.000000
tan 0.000000 -1.000000 0.000000 1.000000
tan 0.000000 -1.000000 0.000000 1.000000
tan 0.000000 -1.000000 0.000000 1.000000
tan 0.000000 -1.000000 0.000000 1.000000
tan 0.000000 -1.000000 0.000000 1.000000
tan 0.000000 -1.000000 0.000000 1.000000
tan 0.000000 -1.000000 0.000000 1.000000
tan 0.000000 -1.000000 0.000000 1.000000
tan 0.000000 -1.000000 0.000000 1.000000
tan 0.000000 -1.000000 0.000000 1.000000
tan 0.000000 -0.976378 -0.204724 1.000000
tan 0.000000 -0.992126 -0.149606 1.000000
tan 0.000000 -0.984252 -0.157480 1.000000
tan 0.000000 -0.968504 -0.236220 1.000000
tan 0.000000 -0.834646 -0.559055 1.000000
tan 0.000000 -0.834646 -0.543307 1.000000
tan 0.000000 -0.858268 -0.511811 1.000000
tan 0.004216 -0.842644 -0.535433 1.000000
tan 0.000000 -0.944882 -0.322834 1.000000
tan 0.000000 -0.952756 -0.307086 1.000000
tan 0.000000 -0.992126 -0.133858 1.000000
tan 0.000000 -1.000000 -0.086614 1.000000
tan 0.000000 -1.000000 -0.039370 1.000000
tan 0.000000 -1.000000 -0.039370 1.000000
tan 0.000000 -1.000000 -0.039370 1.000000
tan 0.000000 -1.000000 -0.039370 1.000000
tan 0.000000 -0.976378 0.204724 1.000000
tan 0.000000 -0.984252 0.157480 1.000000
tan 0.000000 -0.984252 0.157480 1.000000
tan 0.000000 -0.968504 0.236221 1.000000
tan 0.000000 -0.834646 0.551181 1.000000
tan -0.004278 -0.834769 0.543307 1.000000
tan -0.004216 -0.842643 0.535433 1.000000
tan 0.000000 -0.866142 0.496063 1.000000
tan 0.000000 -0.944882 0.322835 1.000000
tan 0.000000 -0.952756 0.307087 1.000000
tan 0.000000 -0.992126 0.133858 1.000000
tan 0.000000 -0.992126 0.086614 1.000000
tan 0.000000 -1.000000 0.039370 1.000000
tan 0.000000 -1.000000 0.039370 1.000000
tan 0.000000 -1.000000 0.039370 1.000000
tan 0.000000 -1.000000 0.039370 1.000000
tan 0.015004 0.299212 -0.952756 1.000000
tan 0.015004 0.307086 -0.952756 1.000000
tan 0.015004 0.299212 -0.952756 1.000000
tan 0.015004 0.299212 -0.952756 1.000000
tan 0.013268 0.543307 -0.842520 1.000000
tan 0.012896 0.574803 -0.818898 1.000000
tan 0.012772 0.582677 -0.811024 1.000000
tan 0.013144 0.551181 -0.834646 1.000000
tan 0.010664 0.740157 -0.677165 1.000000
tan 0.009672 0.787401 -0.614173 1.000000
tan 0.009300 0.803149 -0.590551 1.000000
f 3/3/3 2/2/2 1/1/1
f 2/2/2 3/3/3 4/4/4
f 7/7/7 6/6/6 5/5/5
f 8/8/8 5/5/5 6/6/6
f 11/11/11 10/10/10 9/9/9
f 12/12/12 9/9/9 10/10/10
f 15/15/15 14/14/14 13/13/13
f 16/16/16 13/13/13 14/14/14
f 19/19/19 18/18/18 17/17/17
f 20/20/20 19/19/19 17/17/17
f 20/20/20 21/21/21 19/19/19
f 22/22/22 21/21/21 20/20/20
f 25/25/25 24/24/24 23/23/23
f 26/26/26 23/23/23 24/24/24
f 23/23/23 26/26/26 27/27/27
f 28/28/28 27/27/27 26/26/26
f 28/28/28 26/26/26 29/29/29
f 29/29/29 26/26/26 30/30/30
f 31/31/31 29/29/29 30/30/30
f 32/32/32 29/29/29 31/31/31
f 35/35/35 34/34/34 33/33/33
f 36/36/36 33/33/33 34/34/34
f 37/37/37 33/33/33 36/36/36
f 37/37/37 36/36/36 38/38/38
f 39/39/39 38/38/38 36/36/36
f 38/38/38 39/39/39 40/40/40
f 41/41/41 40/40/40 39/39/39
f 44/44/44 43/43/43 42/42/42
f 45/45/45 42/42/42 43/43/43
f 46/46/46 45/45/45 43/43/43
f 47/47/47 45/45/45 46/46/46
f 46/46/46 48/48/48 47/47/47
f 49/49/49 47/47/47 48/48/48
f 49/49/49 48/48/48 50/50/50
f 51/51/51 50/50/50 48/48/48
f 52/52/52 50/50/50 51/51/51
f 53/53/53 50/50/50 52/52/52
f 53/53/53 52/52/52 54/54/54
f 55/55/55 54/54/54 52/52/52
f 55/55/55 56/56/56 54/54/54
f 57/57/57 54/54/54 56/56/56
f 60/60/60 59/59/59 58/58/58
f 61/61/61 58/58/58 59/59/59
f 59/59/59 62/62/62 61/61/61
f 61/61/61 62/62/62 63/63/63
f 62/62/62 64/64/64 63/63/63
f 62/62/62 65/65/65 64/64/64
f 64/64/64 65/65/65 66/66/66
f 67/67/67 66/66/66 65/65/65
f 67/67/67 68/68/68 66/66/66
f 66/66/66 68/68/68 69/69/69
f 69/69/69 68/68/68 70/70/70
f 71/71/71 70/70/70 68/68/68
f 71/71/71 72/72/72 70/70/70
f 73/73/73 70/70/70 72/72/72
f 76/76/76 75/75/75 74/74/74
f 74/74/74 77/77/77 76/76/76
f 77/77/77 74/74/74 78/78/78
f 78/78/78 79/79/79 77/77/77
f 79/79/79 78/78/78 80/80/80
f 80/80/80 81/81/81 79/79/79
f 81/81/81 80/80/80 82/82/82
f 83/83/83 82/82/82 80/80/80
f 82/82/82 83/83/83 84/84/84
f 84/84/84 85/85/85 82/82/82
f 84/84/84 86/86/86 85/85/85
f 87/87/87 86/86/86 84/84/84
f 87/87/87 88/88/88 86/86/86
f 89/89/89 88/88/88 87/87/87
f 92/92/92 91/91/91 90/90/90
f 93/93/93 92/92/92 90/90/90
f 93/93/93 90/90/90 94/94/94
f 94/94/94 95/95/95 93/93/93
f 95/95/95 94/94/94 96/96/96
f 96/96/96 94/94/94 97/97/97
f 96/96/96 97/97/97 98/98/98
f 99/99/99 98/98/98 97/97/97
f 98/98/98 99/99/99 100/100/100
f 100/100/100 101/101/101 98/98/98
f 101/101/101 100/100/100 102/102/102
f 102/102/102 100/100/100 103/103/103
f 102/102/102 103/103/103 104/104/104
f 105/105/105 102/102/102 104/104/104
f 108/108/108 107/107/107 106/106/106
f 108/108/108 106/106/106 109/109/109
f 106/106/106 110/110/110 109/109/109
f 111/111/111 110/110/110 106/106/106
f 112/112/112 110/110/110 111/111/111
f 112/112/112 111/111/111 113/113/113
f 114/114/114 113/113/113 111/111/111
f 111/111/111 115/115/115 114/114/114
f 115/115/115 111/111/111 116/116/116
