mtllib SM_FloorKitchen_LOD5.mtl
g SM_FloorKitchen_LOD5
#Vertices 4
#Indices 6
#Section 0 Offset 0 NumIndices 6 MaterialIndex 0 MI_FloorKitchen
v 0.689869 0.200831 0.255716
v -4.161456 0.201106 8.076039
v -3.375000 0.200441 -0.373125
v 0.946025 0.200752 8.083331
vt 0.094666 0.864014
vt 0.625977 0.006836
vt 0.540039 0.932800
vt 0.066467 0.006348
vt1 0.031464 0.928223
vt1 0.561523 0.073730
vt1 0.475586 0.996868
vt1 0.003372 0.072754
vn 0.000000 1.000000 -0.000000
vn 0.000000 1.000000 -0.000000
vn 0.000000 1.000000 -0.000000
vn 0.000000 1.000000 -0.000000
tan 0.000000 0.000000 1.000000 1.000000
tan 0.000000 0.000000 1.000000 1.000000
tan 0.000000 0.000000 1.000000 1.000000
tan 0.000000 0.000000 1.000000 1.000000
f 3/3/3 2/2/2 1/1/1
f 4/4/4 1/1/1 2/2/2
