mtllib SM_Frames_04_LOD4.mtl
g SM_Frames_04_LOD4
#Vertices 14
#Indices 18
#Section 0 Offset 0 NumIndices 18 MaterialIndex 0 MI_Frames
v 0.003479 0.356054 -0.160467
v -0.003803 0.000068 -0.178141
v 0.003841 0.034071 -0.122616
v 0.004789 0.011834 0.159757
v 0.002822 0.372371 0.188048
v -0.003062 0.334167 0.126630
v 0.001768 0.337839 -0.136077
v 0.001768 0.036819 -0.136077
v 0.001768 0.337839 0.136219
v 0.001768 0.036819 0.136219
v 0.004792 -0.016544 -0.169549
v -0.003174 -0.009644 0.167495
v 0.004303 0.051100 0.136707
v -0.002187 0.044789 -0.133243
vt 0.122070 0.945312
vt 0.106201 0.691895
vt 0.144653 0.716064
vt 0.079224 0.700439
vt 0.095825 0.956970
vt 0.055359 0.929749
vt 0.411865 0.666504
vt 0.411865 0.455078
vt 0.603027 0.666504
vt 0.603027 0.455078
vt 0.913086 0.956665
vt 0.914551 0.716797
vt 0.956055 0.738770
vt 0.955078 0.930908
vt1 0.610840 0.960754
vt1 0.566895 0.275879
vt1 0.673828 0.341309
vt1 0.779297 0.298828
vt1 0.825195 0.992290
vt1 0.712891 0.918701
vt1 0.008064 0.991936
vt1 0.008064 0.412598
vt1 0.532227 0.991936
vt1 0.532227 0.412598
vt1 0.004498 0.120605
vt1 0.652832 0.124023
vt1 0.593750 0.239746
vt1 0.074158 0.236328
vn 1.000000 -0.000000 -0.047244
vn 0.251969 -0.000000 -0.968504
vn 0.803150 0.000000 0.590551
vn 0.897638 0.000000 0.440945
vn 0.574803 0.000000 0.818897
vn 0.551181 -0.000000 -0.834646
vn 1.000000 0.000000 0.000000
vn 1.000000 0.000000 0.000000
vn 1.000000 0.000000 0.000000
vn 1.000000 0.000000 0.000000
vn 0.740157 -0.677165 0.000000
vn 0.330709 -0.944882 0.000000
vn 0.834646 0.543307 -0.000000
vn 0.417323 0.905512 -0.000000
tan 0.000000 -1.000000 0.000000 1.000000
tan 0.000000 -0.972472 0.000000 1.000000
tan 0.000000 -0.914378 0.000000 1.000000
tan 0.000000 -0.970178 0.000000 1.000000
tan 0.000000 -1.000310 0.000000 1.000000
tan 0.000000 -0.994358 0.000000 1.000000
tan 0.000000 -1.000000 0.000000 1.000000
tan 0.000000 -1.000000 0.000000 1.000000
tan 0.000000 -1.000000 0.000000 1.000000
tan 0.000000 -1.000000 0.000000 1.000000
tan 0.000000 0.000000 0.928638 1.000000
tan 0.000000 0.000000 0.960506 1.000000
tan 0.000000 0.000000 0.907062 1.000000
tan 0.000000 0.000000 0.954244 1.000000
f 3/3/3 2/2/2 1/1/1
f 6/6/6 5/5/5 4/4/4
f 9/9/9 8/8/8 7/7/7
f 9/9/9 10/10/10 8/8/8
f 13/13/13 12/12/12 11/11/11
f 14/14/14 13/13/13 11/11/11
