mtllib SM_FlowersPlant_08.mtl
g SM_FlowersPlant_08
#Vertices 52
#Indices 132
#Section 0 Offset 0 NumIndices 132 MaterialIndex 0 MI_FlowersPlant
v 0.167154 -0.056571 0.090019
v 0.047581 -0.049497 0.020983
v 0.169086 -0.010563 0.091134
v 0.150687 0.096812 0.080511
v -0.003464 -0.003574 -0.008488
v 0.130404 0.157560 0.068801
v 0.039601 0.172256 0.016376
v -0.036453 0.185994 -0.027534
v -0.094685 0.177962 -0.061154
v -0.146611 0.023037 -0.091134
v -0.111623 -0.065624 -0.070933
v -0.049478 -0.087611 -0.035054
v -0.071013 -0.102660 -0.047487
v -0.078781 -0.056571 0.155916
v -0.009745 -0.049497 0.036343
v -0.079897 -0.010563 0.157849
v -0.069274 0.096812 0.139449
v 0.019725 -0.003574 -0.014701
v -0.057563 0.157560 0.119167
v -0.005138 0.172256 0.028363
v 0.038772 0.185994 -0.047691
v 0.072392 0.177962 -0.105922
v 0.102372 0.023037 -0.157849
v 0.082171 -0.065624 -0.122860
v 0.046292 -0.087611 -0.060716
v 0.058725 -0.102660 -0.082251
v 0.011237 -0.056571 0.180037
v 0.011237 -0.049497 0.041965
v 0.011237 -0.010563 0.182268
v 0.011237 0.096812 0.161022
v 0.011237 -0.003574 -0.016976
v 0.011237 0.157560 0.137602
v 0.011237 0.172256 0.032751
v 0.011237 0.185994 -0.055068
v 0.011237 0.177962 -0.122309
v 0.011237 0.023037 -0.182268
v 0.011237 -0.065624 -0.141867
v 0.011237 -0.087611 -0.070109
v 0.011237 -0.102660 -0.094975
v -0.168799 -0.056571 0.000000
v -0.030728 -0.049497 0.000000
v -0.171031 -0.010563 0.000000
v -0.149785 0.096812 -0.000000
v 0.028213 -0.003574 0.000000
v -0.126364 0.157560 -0.000000
v -0.021514 0.172256 -0.000000
v 0.066306 0.185994 -0.000000
v 0.133546 0.177962 -0.000000
v 0.193506 0.023037 0.000000
v 0.153104 -0.065624 0.000000
v 0.081346 -0.087611 0.000000
v 0.106213 -0.102660 0.000000
vt 0.590332 0.421875
vt 0.725586 0.428711
vt 0.587891 0.466797
vt 0.608887 0.572266
vt 0.783691 0.473633
vt 0.631836 0.631836
vt 0.734863 0.646240
vt 0.820801 0.659668
vt 0.886719 0.651855
vt 0.945312 0.500000
vt 0.905762 0.413086
vt 0.835449 0.391602
vt 0.859863 0.376953
vt 0.590332 0.421875
vt 0.725586 0.428711
vt 0.587891 0.466797
vt 0.608887 0.572266
vt 0.783691 0.473633
vt 0.631836 0.631836
vt 0.734863 0.646240
vt 0.820801 0.659668
vt 0.886719 0.651855
vt 0.945312 0.500000
vt 0.905762 0.413086
vt 0.835449 0.391602
vt 0.859863 0.376953
vt 0.590332 0.421875
vt 0.725586 0.428711
vt 0.587891 0.466797
vt 0.608887 0.572266
vt 0.783691 0.473633
vt 0.631836 0.631836
vt 0.734863 0.646240
vt 0.820801 0.659668
vt 0.886719 0.651855
vt 0.945312 0.500000
vt 0.905762 0.413086
vt 0.835449 0.391602
vt 0.859863 0.376953
vt 0.590332 0.421875
vt 0.725586 0.428711
vt 0.587891 0.466797
vt 0.608887 0.572266
vt 0.783691 0.473633
vt 0.631836 0.631836
vt 0.734863 0.646240
vt 0.820801 0.659668
vt 0.886719 0.651855
vt 0.945312 0.500000
vt 0.905762 0.413086
vt 0.835449 0.391602
vt 0.859863 0.376953
vt1 0.430420 0.379395
vt1 0.623047 0.369629
vt1 0.427246 0.315430
vt1 0.457031 0.165527
vt1 0.705078 0.305664
vt1 0.489502 0.081055
vt1 0.635742 0.060547
vt1 0.758301 0.041016
vt1 0.852051 0.052246
vt1 0.935547 0.268555
vt1 0.879395 0.392090
vt1 0.779297 0.422852
vt1 0.813965 0.443848
vt1 0.980957 0.460449
vt1 0.788086 0.470215
vt1 0.983887 0.524414
vt1 0.954590 0.674072
vt1 0.706055 0.534180
vt1 0.921875 0.758789
vt1 0.775391 0.779297
vt1 0.652832 0.798462
vt1 0.559082 0.787231
vt1 0.475586 0.571289
vt1 0.531738 0.447754
vt1 0.631836 0.416992
vt1 0.597168 0.395996
vt1 0.072327 0.131836
vt1 0.082153 0.324707
vt1 0.136475 0.128906
vt1 0.286133 0.158691
vt1 0.146240 0.406738
vt1 0.370850 0.191406
vt1 0.391357 0.337402
vt1 0.410645 0.459961
vt1 0.399414 0.553711
vt1 0.183350 0.637207
vt1 0.059692 0.580811
vt1 0.029053 0.480957
vt1 0.008064 0.515381
vt1 0.011169 0.653809
vt1 0.203735 0.663574
vt1 0.008064 0.718018
vt1 0.037689 0.867554
vt1 0.285889 0.727783
vt1 0.070312 0.952301
vt1 0.216553 0.972778
vt1 0.338867 0.991936
vt1 0.432861 0.980743
vt1 0.516113 0.764771
vt1 0.459961 0.641113
vt1 0.359863 0.610352
vt1 0.394531 0.589355
vn -0.496063 0.000000 0.866142
vn -0.503937 0.000000 0.866142
vn -0.496063 0.000000 0.866142
vn -0.496063 0.000000 0.866142
vn -0.503937 0.000000 0.866142
vn -0.496063 0.000000 0.866142
vn -0.496063 0.000000 0.866142
vn -0.503937 0.000000 0.866142
vn -0.503937 0.000000 0.866142
vn -0.503937 0.000000 0.866142
vn -0.503937 0.000000 0.866142
vn -0.503937 0.000000 0.866142
vn -0.503937 0.000000 0.866142
vn -0.866142 -0.000000 -0.496063
vn -0.866142 -0.000000 -0.503937
vn -0.866142 -0.000000 -0.496063
vn -0.866142 -0.000000 -0.496063
vn -0.866142 -0.000000 -0.503937
vn -0.866142 -0.000000 -0.503937
vn -0.866142 -0.000000 -0.503937
vn -0.866142 -0.000000 -0.503937
vn -0.866142 -0.000000 -0.496063
vn -0.866142 -0.000000 -0.496063
vn -0.866142 -0.000000 -0.496063
vn -0.866142 -0.000000 -0.503937
vn -0.866142 -0.000000 -0.496063
vn -1.000000 0.000000 0.000000
vn -1.000000 0.000000 0.000000
vn -1.000000 0.000000 0.000000
vn -1.000000 0.000000 0.000000
vn -1.000000 0.000000 0.000000
vn -1.000000 0.000000 0.000000
vn -1.000000 0.000000 0.000000
vn -1.000000 0.000000 0.000000
vn -1.000000 0.000000 0.000000
vn -1.000000 0.000000 0.000000
vn -1.000000 0.000000 0.000000
vn -1.000000 0.000000 0.000000
vn -1.000000 0.000000 0.000000
vn 0.000000 -0.000000 -1.000000
vn 0.000000 -0.000000 -1.000000
vn 0.000000 -0.000000 -1.000000
vn 0.000000 -0.000000 -1.000000
vn 0.000000 -0.000000 -1.000000
vn 0.000000 -0.000000 -1.000000
vn 0.000000 -0.000000 -1.000000
vn 0.000000 -0.000000 -1.000000
vn 0.000000 -0.000000 -1.000000
vn 0.000000 -0.000000 -1.000000
vn 0.000000 -0.000000 -1.000000
vn 0.000000 -0.000000 -1.000000
vn 0.000000 -0.000000 -1.000000
tan 0.000000 -0.996280 0.000000 1.000000
tan 0.000000 -1.004154 0.000000 1.000000
tan 0.000000 -0.996280 0.000000 1.000000
tan 0.000000 -1.000186 0.000000 1.000000
tan 0.000000 -1.004154 0.000000 1.000000
tan 0.000000 -0.996280 0.000000 1.000000
tan 0.000000 -0.996280 0.000000 1.000000
tan 0.000000 -1.004154 0.000000 1.000000
tan 0.000000 -1.004154 0.000000 1.000000
tan 0.000000 -1.004154 0.000000 1.000000
tan 0.000000 -1.004154 0.000000 1.000000
tan 0.000000 -1.004154 0.000000 1.000000
tan 0.000000 -1.004154 0.000000 1.000000
tan 0.000000 -0.996280 0.000000 1.000000
tan 0.000000 -1.004154 0.000000 1.000000
tan 0.000000 -0.996280 0.000000 1.000000
tan 0.000000 -0.996280 0.000000 1.000000
tan 0.000000 -1.004154 0.000000 1.000000
tan 0.000000 -1.004154 0.000000 1.000000
tan 0.000000 -1.004154 0.000000 1.000000
tan 0.000000 -1.004154 0.000000 1.000000
tan 0.000000 -0.996280 0.000000 1.000000
tan 0.000000 -0.996280 0.000000 1.000000
tan 0.000000 -0.996280 0.000000 1.000000
tan 0.000000 -1.000186 0.000000 1.000000
tan 0.000000 -0.996280 0.000000 1.000000
tan 0.000000 -1.000000 0.000000 1.000000
tan 0.000000 -1.000000 0.000000 1.000000
tan 0.000000 -1.000000 0.000000 1.000000
tan 0.000000 -1.000000 0.000000 1.000000
tan 0.000000 -1.000000 0.000000 1.000000
tan 0.000000 -1.000000 0.000000 1.000000
tan 0.000000 -1.000000 0.000000 1.000000
tan 0.000000 -1.000000 0.000000 1.000000
tan 0.000000 -1.000000 0.000000 1.000000
tan 0.000000 -1.000000 0.000000 1.000000
tan 0.000000 -1.000000 0.000000 1.000000
tan 0.000000 -1.000000 0.000000 1.000000
tan 0.000000 -1.000000 0.000000 1.000000
tan 0.000000 -1.000000 0.000000 1.000000
tan 0.000000 -1.000000 0.000000 1.000000
tan 0.000000 -1.000000 0.000000 1.000000
tan 0.000000 -1.000000 0.000000 1.000000
tan 0.000000 -1.000000 0.000000 1.000000
tan 0.000000 -1.000000 0.000000 1.000000
tan 0.000000 -1.000000 0.000000 1.000000
tan 0.000000 -1.000000 0.000000 1.000000
tan 0.000000 -1.000000 0.000000 1.000000
tan 0.000000 -1.000000 0.000000 1.000000
tan 0.000000 -1.000000 0.000000 1.000000
tan 0.000000 -1.000000 0.000000 1.000000
tan 0.000000 -1.000000 0.000000 1.000000
f 3/3/3 2/2/2 1/1/1
f 4/4/4 2/2/2 3/3/3
f 4/4/4 5/5/5 2/2/2
f 6/6/6 5/5/5 4/4/4
f 7/7/7 5/5/5 6/6/6
f 8/8/8 5/5/5 7/7/7
f 9/9/9 5/5/5 8/8/8
f 10/10/10 5/5/5 9/9/9
f 11/11/11 5/5/5 10/10/10
f 11/11/11 12/12/12 5/5/5
f 12/12/12 11/11/11 13/13/13
f 16/16/16 15/15/15 14/14/14
f 17/17/17 15/15/15 16/16/16
f 17/17/17 18/18/18 15/15/15
f 19/19/19 18/18/18 17/17/17
f 20/20/20 18/18/18 19/19/19
f 21/21/21 18/18/18 20/20/20
f 22/22/22 18/18/18 21/21/21
f 23/23/23 18/18/18 22/22/22
f 24/24/24 18/18/18 23/23/23
f 24/24/24 25/25/25 18/18/18
f 25/25/25 24/24/24 26/26/26
f 29/29/29 28/28/28 27/27/27
f 30/30/30 28/28/28 29/29/29
f 30/30/30 31/31/31 28/28/28
f 32/32/32 31/31/31 30/30/30
f 33/33/33 31/31/31 32/32/32
f 34/34/34 31/31/31 33/33/33
f 35/35/35 31/31/31 34/34/34
f 36/36/36 31/31/31 35/35/35
f 37/37/37 31/31/31 36/36/36
f 37/37/37 38/38/38 31/31/31
f 38/38/38 37/37/37 39/39/39
f 42/42/42 41/41/41 40/40/40
f 43/43/43 41/41/41 42/42/42
f 43/43/43 44/44/44 41/41/41
f 45/45/45 44/44/44 43/43/43
f 46/46/46 44/44/44 45/45/45
f 47/47/47 44/44/44 46/46/46
f 48/48/48 44/44/44 47/47/47
f 49/49/49 44/44/44 48/48/48
f 50/50/50 44/44/44 49/49/49
f 50/50/50 51/51/51 44/44/44
f 51/51/51 50/50/50 52/52/52
