mtllib SM_FloorKitchen_LOD2.mtl
g SM_FloorKitchen_LOD2
#Vertices 12
#Indices 24
#Section 0 Offset 0 NumIndices 24 MaterialIndex 0 MI_FloorKitchen
v 1.282482 0.099566 1.078949
v 1.294263 0.080347 8.083340
v 0.819870 0.105694 8.083151
v 0.820687 0.105693 1.266602
v -0.745914 0.098695 -0.596490
v -4.250000 0.201024 8.083333
v -4.250000 0.201023 4.458333
v -3.375000 0.201023 4.458333
v 0.946025 0.200752 8.083331
v 0.945413 0.200788 1.271889
v -0.666851 0.200763 -0.373510
v -3.375000 0.200441 -0.373125
vt 0.004841 0.788208
vt 0.003832 0.004395
vt 0.057953 0.005371
vt 0.057556 0.766846
vt 0.236206 0.979492
vt 0.635742 0.005859
vt 0.635742 0.403320
vt 0.540039 0.403320
vt 0.066467 0.006348
vt 0.066650 0.752563
vt 0.243286 0.932861
vt 0.540039 0.932800
vt1 0.798340 0.205078
vt1 0.799316 0.964386
vt1 0.747559 0.963348
vt1 0.748047 0.225586
vt1 0.576660 0.019531
vt1 0.571289 0.072754
vt1 0.571289 0.468750
vt1 0.475586 0.468750
vt1 0.003372 0.072754
vt1 0.003523 0.817139
vt1 0.179688 0.996943
vt1 0.475586 0.996868
vn 0.000000 1.000000 -0.000000
vn 0.000000 1.000000 -0.000000
vn 0.000000 1.000000 -0.000000
vn 0.000000 1.000000 -0.000000
vn 0.000000 1.000000 -0.000000
vn 0.000000 1.000000 -0.000000
vn 0.000000 1.000000 -0.000000
vn 0.000000 1.000000 -0.000000
vn 0.000000 1.000000 -0.000000
vn 0.000000 1.000000 -0.000000
vn 0.000000 1.000000 -0.000000
vn 0.000000 1.000000 -0.000000
tan 0.000000 0.000000 1.000000 1.000000
tan 0.007874 0.000000 1.000000 1.000000
tan 0.007874 0.000000 1.000000 1.000000
tan -0.007874 0.000000 1.000000 1.000000
tan 0.000000 0.000000 1.000000 1.000000
tan 0.000000 0.000000 1.000000 1.000000
tan 0.000000 0.000000 1.000000 1.000000
tan 0.000000 0.000000 1.000000 1.000000
tan 0.000000 0.000000 1.000000 1.000000
tan 0.000000 0.000000 1.000000 1.000000
tan 0.000000 0.000000 1.000000 1.000000
tan 0.000000 0.000000 1.000000 1.000000
f 3/3/3 2/2/2 1/1/1
f 1/1/1 4/4/4 3/3/3
f 4/4/4 1/1/1 5/5/5
f 8/8/8 7/7/7 6/6/6
f 6/6/6 9/9/9 8/8/8
f 9/9/9 10/10/10 8/8/8
f 10/10/10 11/11/11 8/8/8
f 12/12/12 8/8/8 11/11/11
