mtllib SM_FlowersPlant_04.mtl
g SM_FlowersPlant_04
#Vertices 40
#Indices 96
#Section 0 Offset 0 NumIndices 96 MaterialIndex 0 MI_FlowersPlant
v 0.011685 0.001125 -0.035995
v 0.017636 0.048540 -0.029154
v 0.014937 0.004305 -0.015544
v 0.023113 0.057830 0.002393
v 0.030406 -0.006765 0.025166
v 0.024063 -0.010839 0.007000
v 0.013260 0.035624 -0.004774
v 0.021898 0.057358 0.025764
v -0.007867 0.096862 -0.038435
v -0.002662 0.120685 -0.016184
v -0.025679 0.126884 -0.074572
v -0.023975 0.157483 -0.059104
v -0.036965 0.134704 -0.101479
v -0.039489 0.169946 -0.095485
v -0.050925 0.175992 -0.123424
v -0.079768 0.198555 -0.191278
v -0.081029 0.157731 -0.209247
v -0.073360 0.111565 -0.205613
v -0.057428 0.073925 -0.177163
v 0.008633 -0.001209 -0.002197
v 0.007874 0.102911 -0.000113
v 0.003275 0.001209 0.007414
v -0.001412 0.105576 0.016536
v 0.012494 0.234562 -0.007469
v 0.002424 0.237383 0.010586
v 0.009701 0.346135 -0.001689
v 0.022472 0.331610 -0.024659
v 0.046558 0.351668 -0.067654
v 0.042658 0.387546 -0.060419
v 0.011692 0.407097 -0.004827
v 0.002357 0.397582 0.011823
v 0.017636 0.048540 -0.029154
v 0.044775 0.208859 0.043138
v 0.023113 0.057830 0.002393
v 0.046350 0.195622 0.063901
v 0.050912 0.204589 0.089276
v 0.055648 0.223867 0.108281
v 0.058625 0.260445 0.102252
v 0.056650 0.281108 0.073225
v 0.049942 0.274800 0.030868
vt 0.531250 0.355957
vt 0.541504 0.397461
vt 0.514648 0.368164
vt 0.516602 0.418945
vt 0.410400 0.331543
vt 0.418457 0.343750
vt 0.389404 0.366699
vt 0.365723 0.350586
vt 0.356689 0.410645
vt 0.333740 0.401367
vt 0.346191 0.446777
vt 0.320312 0.444824
vt 0.348389 0.469727
vt 0.322266 0.475586
vt 0.325928 0.498535
vt 0.329590 0.556152
vt 0.363037 0.557373
vt 0.394287 0.540527
vt 0.412109 0.507812
vt 0.453125 0.315430
vt 0.451660 0.417480
vt 0.442383 0.317871
vt 0.433105 0.420410
vt 0.461182 0.546631
vt 0.440918 0.549561
vt 0.455811 0.656006
vt 0.481445 0.641602
vt 0.529785 0.660889
vt 0.521973 0.696045
vt 0.459961 0.715820
vt 0.441162 0.706543
vt 0.541504 0.397461
vt 0.531738 0.558350
vt 0.516602 0.418945
vt 0.509277 0.557129
vt 0.489990 0.575928
vt 0.479736 0.599854
vt 0.497314 0.626465
vt 0.529785 0.630127
vt 0.564941 0.605713
vt1 0.589844 0.008301
vt1 0.546387 0.156250
vt1 0.664062 0.050781
vt1 0.654297 0.233887
vt1 0.484619 0.008301
vt1 0.526855 0.062500
vt1 0.374023 0.162109
vt1 0.247803 0.090820
vt1 0.199707 0.353027
vt1 0.078430 0.312012
vt1 0.143921 0.510986
vt1 0.008064 0.500732
vt1 0.155884 0.609131
vt1 0.017273 0.636230
vt1 0.037323 0.735596
vt1 0.057037 0.987122
vt1 0.234375 0.991936
vt1 0.398682 0.919067
vt1 0.493896 0.776367
vt1 0.931152 0.991936
vt1 0.935059 0.741211
vt1 0.963379 0.985901
vt1 0.991211 0.734375
vt1 0.906738 0.424316
vt1 0.967285 0.416992
vt1 0.922852 0.155273
vt1 0.846191 0.190430
vt1 0.701172 0.143066
vt1 0.724609 0.056641
vt1 0.910645 0.008301
vt1 0.966797 0.030762
vt1 0.546387 0.156250
vt1 0.587891 0.735107
vt1 0.654297 0.233887
vt1 0.687500 0.730713
vt1 0.771973 0.797485
vt1 0.816406 0.883850
vt1 0.739258 0.979446
vt1 0.597168 0.991936
vt1 0.443359 0.905151
vn -0.984252 0.102362 0.141732
vn -0.984252 0.102362 0.141732
vn -0.984252 0.102362 0.141732
vn -0.984252 0.102362 0.141732
vn -0.929134 -0.125984 0.354331
vn -0.929134 -0.125984 0.354331
vn -0.929134 -0.125984 0.354331
vn -0.929134 -0.125984 0.354331
vn -0.929134 -0.125984 0.354331
vn -0.929134 -0.125984 0.354331
vn -0.929134 -0.125984 0.354331
vn -0.929134 -0.125984 0.354331
vn -0.929134 -0.125984 0.354331
vn -0.929134 -0.125984 0.354331
vn -0.929134 -0.125984 0.354331
vn -0.929134 -0.125984 0.354331
vn -0.929134 -0.125984 0.354331
vn -0.929134 -0.125984 0.354331
vn -0.929134 -0.125984 0.354331
vn -0.874016 -0.000000 -0.488189
vn -0.874016 -0.000000 -0.488189
vn -0.874016 -0.000000 -0.488189
vn -0.874016 -0.000000 -0.488189
vn -0.874016 -0.000000 -0.488189
vn -0.874016 -0.000000 -0.488189
vn -0.874016 -0.000000 -0.488189
vn -0.874016 -0.000000 -0.488189
vn -0.874016 -0.000000 -0.488189
vn -0.874016 -0.000000 -0.488189
vn -0.874016 -0.000000 -0.488189
vn -0.874016 -0.000000 -0.488189
vn -0.984252 0.102362 0.141732
vn -0.984252 0.102362 0.141732
vn -0.984252 0.102362 0.141732
vn -0.984252 0.102362 0.141732
vn -0.984252 0.102362 0.141732
vn -0.984252 0.102362 0.141732
vn -0.984252 0.102362 0.141732
vn -0.984252 0.102362 0.141732
vn -0.984252 0.102362 0.141732
tan -0.157852 -0.862546 -0.473247 1.000000
tan -0.157852 -0.862546 -0.473247 1.000000
tan -0.157852 -0.862546 -0.473247 1.000000
tan -0.157852 -0.862546 -0.473247 1.000000
tan 0.376837 -0.356749 0.861306 1.000000
tan 0.376837 -0.356749 0.861306 1.000000
tan 0.376837 -0.356749 0.861306 1.000000
tan 0.376837 -0.356749 0.861306 1.000000
tan 0.376837 -0.356749 0.861306 1.000000
tan 0.376837 -0.356749 0.861306 1.000000
tan 0.376837 -0.356749 0.861306 1.000000
tan 0.376837 -0.356749 0.861306 1.000000
tan 0.376837 -0.356749 0.861306 1.000000
tan 0.376837 -0.356749 0.861306 1.000000
tan 0.376837 -0.356749 0.861306 1.000000
tan 0.376837 -0.356749 0.861306 1.000000
tan 0.376837 -0.356749 0.861306 1.000000
tan 0.376837 -0.356749 0.861306 1.000000
tan 0.376837 -0.356749 0.861306 1.000000
tan 0.003844 -1.002232 -0.006882 1.000000
tan 0.003844 -1.002232 -0.006882 1.000000
tan 0.003844 -1.002232 -0.006882 1.000000
tan 0.003844 -1.002232 -0.006882 1.000000
tan 0.003844 -1.002232 -0.006882 1.000000
tan 0.003844 -1.002232 -0.006882 1.000000
tan 0.003844 -1.002232 -0.006882 1.000000
tan 0.003844 -1.002232 -0.006882 1.000000
tan 0.003844 -1.002232 -0.006882 1.000000
tan 0.003844 -1.002232 -0.006882 1.000000
tan 0.003844 -1.002232 -0.006882 1.000000
tan 0.003844 -1.002232 -0.006882 1.000000
tan -0.157852 -0.862546 -0.473247 1.000000
tan -0.157852 -0.862546 -0.473247 1.000000
tan -0.157852 -0.862546 -0.473247 1.000000
tan -0.157852 -0.862546 -0.473247 1.000000
tan -0.157852 -0.862546 -0.473247 1.000000
tan -0.157852 -0.862546 -0.473247 1.000000
tan -0.157852 -0.862546 -0.473247 1.000000
tan -0.157852 -0.862546 -0.473247 1.000000
tan -0.157852 -0.862546 -0.473247 1.000000
f 3/3/3 2/2/2 1/1/1
f 4/4/4 2/2/2 3/3/3
f 7/7/7 6/6/6 5/5/5
f 7/7/7 5/5/5 8/8/8
f 7/7/7 8/8/8 9/9/9
f 9/9/9 8/8/8 10/10/10
f 9/9/9 10/10/10 11/11/11
f 11/11/11 10/10/10 12/12/12
f 11/11/11 12/12/12 13/13/13
f 13/13/13 12/12/12 14/14/14
f 13/13/13 14/14/14 15/15/15
f 13/13/13 15/15/15 16/16/16
f 13/13/13 16/16/16 17/17/17
f 13/13/13 17/17/17 18/18/18
f 13/13/13 18/18/18 19/19/19
f 22/22/22 21/21/21 20/20/20
f 23/23/23 21/21/21 22/22/22
f 23/23/23 24/24/24 21/21/21
f 25/25/25 24/24/24 23/23/23
f 26/26/26 24/24/24 25/25/25
f 26/26/26 27/27/27 24/24/24
f 27/27/27 29/29/29 28/28/28
f 27/27/27 30/30/30 29/29/29
f 26/26/26 30/30/30 27/27/27
f 26/26/26 31/31/31 30/30/30
f 34/34/34 33/33/33 32/32/32
f 35/35/35 33/33/33 34/34/34
f 35/35/35 36/36/36 33/33/33
f 33/33/33 36/36/36 37/37/37
f 33/33/33 37/37/37 38/38/38
f 33/33/33 38/38/38 39/39/39
f 33/33/33 39/39/39 40/40/40
