mtllib SM_FlowersPlant_05.mtl
g SM_FlowersPlant_05
#Vertices 13
#Indices 33
#Section 0 Offset 0 NumIndices 33 MaterialIndex 0 MI_FlowersPlant
v -0.000521 0.109987 -0.002724
v 0.009023 0.000000 0.022327
v -0.002893 -0.000000 -0.008952
v 0.010190 0.115364 0.025389
v 0.001852 0.224286 0.003503
v 0.011357 0.226417 0.028451
v 0.032589 0.259756 0.084182
v 0.028311 0.235344 0.072952
v 0.027945 0.292826 0.071991
v 0.003116 0.311767 0.006821
v -0.010054 0.306551 -0.027746
v -0.021414 0.231970 -0.057564
v -0.031555 0.258392 -0.084182
vt 0.391602 0.791626
vt 0.416748 0.687744
vt 0.383789 0.679688
vt 0.421143 0.796509
vt 0.399658 0.903564
vt 0.425781 0.905334
vt 0.484619 0.937317
vt 0.472656 0.913513
vt 0.472412 0.969879
vt 0.404053 0.989281
vt 0.367920 0.984612
vt 0.335693 0.911926
vt 0.308105 0.938141
vt1 0.473877 0.364258
vt1 0.613281 0.033691
vt1 0.429932 0.008301
vt1 0.638672 0.379883
vt1 0.518066 0.719727
vt1 0.663574 0.725342
vt1 0.991699 0.826782
vt1 0.924316 0.751221
vt1 0.922852 0.930298
vt1 0.542969 0.991936
vt1 0.341064 0.977112
vt1 0.161743 0.746094
vt1 0.008064 0.829468
vn -0.937008 0.000000 0.354331
vn -0.937008 0.000000 0.354331
vn -0.937008 0.000000 0.354331
vn -0.937008 0.000000 0.354331
vn -0.937008 0.000000 0.354331
vn -0.937008 0.000000 0.354331
vn -0.937008 0.000000 0.354331
vn -0.937008 0.000000 0.354331
vn -0.937008 0.000000 0.354331
vn -0.937008 0.000000 0.354331
vn -0.937008 0.000000 0.354331
vn -0.937008 0.000000 0.354331
vn -0.937008 0.000000 0.354331
tan -0.025110 -0.996156 -0.066402 1.000000
tan -0.041850 -0.996156 -0.110670 1.000000
tan -0.083700 -0.971232 -0.221340 1.000000
tan 0.002790 -1.003534 0.007378 1.000000
tan 0.005580 -1.003534 0.014756 1.000000
tan 0.005580 -1.003534 0.014756 1.000000
tan 0.005580 -1.003534 0.014756 1.000000
tan 0.005580 -1.003534 0.014756 1.000000
tan 0.005580 -1.003534 0.014756 1.000000
tan 0.005580 -1.003534 0.014756 1.000000
tan 0.005580 -1.003534 0.014756 1.000000
tan 0.005580 -1.003534 0.014756 1.000000
tan 0.005580 -1.003534 0.014756 1.000000
f 3/3/3 2/2/2 1/1/1
f 4/4/4 1/1/1 2/2/2
f 1/1/1 4/4/4 5/5/5
f 6/6/6 5/5/5 4/4/4
f 8/8/8 7/7/7 6/6/6
f 9/9/9 6/6/6 7/7/7
f 9/9/9 10/10/10 6/6/6
f 5/5/5 6/6/6 10/10/10
f 11/11/11 5/5/5 10/10/10
f 5/5/5 11/11/11 12/12/12
f 13/13/13 12/12/12 11/11/11
