mtllib SM_Food_SM_Lemon.mtl
g SM_Food_SM_Lemon
#Vertices 124
#Indices 390
#Section 0 Offset 0 NumIndices 390 MaterialIndex 0 MI_Food
v -0.039043 0.022476 0.002713
v -0.039003 0.014324 0.001950
v -0.041026 0.020423 -0.003653
v 0.027305 0.038286 -0.014703
v 0.038618 0.032360 -0.010895
v 0.027481 0.039790 -0.005995
v 0.039104 0.025090 -0.007784
v 0.027910 0.034693 0.000380
v 0.026372 0.024773 0.000387
v 0.026336 0.017798 -0.006506
v 0.039104 0.025090 -0.007784
v 0.028048 0.026232 -0.019325
v 0.026336 0.017798 -0.006506
v 0.038618 0.032360 -0.010895
v 0.027305 0.038286 -0.014703
v -0.012028 0.025286 0.023653
v -0.008787 0.040731 0.020284
v -0.002843 0.040759 0.020097
v 0.005107 0.030676 0.021222
v -0.006550 0.022296 0.022080
v 0.018826 0.033235 0.014542
v -0.003129 0.012954 0.018629
v 0.020628 0.035989 0.010259
v 0.027910 0.034693 0.000380
v 0.020448 0.019654 0.010712
v 0.026372 0.024773 0.000387
v 0.010918 0.006977 0.006791
v -0.004722 0.002781 0.008141
v 0.019881 0.008761 0.000077
v 0.026336 0.017798 -0.006506
v -0.032632 0.037387 0.013030
v -0.038360 0.029258 0.001863
v -0.038031 0.040086 -0.002025
v -0.030344 0.046008 0.006859
v -0.034582 0.043806 -0.006650
v -0.020773 0.038108 0.019490
v -0.024874 0.053567 -0.006400
v -0.014600 0.050835 0.012504
v -0.008787 0.040731 0.020284
v -0.002843 0.040759 0.020097
v -0.002845 0.051515 0.012114
v -0.002564 0.057721 0.001192
v -0.007316 0.056250 -0.016634
v 0.023484 0.043986 -0.015113
v 0.017829 0.049373 -0.018617
v 0.027305 0.038286 -0.014703
v 0.028048 0.026232 -0.019325
v 0.015764 0.036565 -0.031506
v 0.015390 0.018535 -0.032879
v 0.000461 0.047642 -0.030629
v 0.001136 0.055991 -0.014633
v -0.000521 0.030327 -0.039173
v 0.008006 0.018572 -0.035400
v 0.003068 0.015164 -0.036122
v -0.008768 0.013368 -0.035946
v -0.007167 0.052336 -0.024417
v -0.007316 0.056250 -0.016634
v -0.019195 0.039832 -0.032630
v -0.026973 0.027979 -0.032637
v -0.020947 0.015115 -0.032167
v -0.031145 0.017463 -0.025161
v -0.031251 0.043113 -0.020602
v -0.024874 0.053567 -0.006400
v -0.034582 0.043806 -0.006650
v -0.038031 0.040086 -0.002025
v -0.038114 0.026236 -0.020224
v -0.032935 0.014056 -0.021104
v -0.038957 0.016986 -0.013285
v -0.041026 0.020423 -0.003653
v -0.039043 0.022476 0.002713
v -0.038360 0.029258 0.001863
v -0.012028 0.025286 0.023653
v -0.020773 0.038108 0.019490
v -0.008787 0.040731 0.020284
v -0.032632 0.037387 0.013030
v -0.038360 0.029258 0.001863
v -0.039043 0.022476 0.002713
v -0.030477 0.021365 0.015889
v -0.039003 0.014324 0.001950
v -0.030276 0.007213 0.005041
v -0.006550 0.022296 0.022080
v -0.003129 0.012954 0.018629
v -0.018294 0.010688 0.016006
v -0.017028 0.001545 0.004735
v -0.004722 0.002781 0.008141
v 0.023484 0.043986 -0.015113
v 0.027305 0.038286 -0.014703
v 0.027481 0.039790 -0.005995
v 0.019623 0.048836 0.001036
v 0.027910 0.034693 0.000380
v 0.020628 0.035989 0.010259
v 0.014280 0.053724 -0.010187
v 0.017829 0.049373 -0.018617
v 0.001136 0.055991 -0.014633
v -0.002564 0.057721 0.001192
v -0.007316 0.056250 -0.016634
v 0.012220 0.044744 0.013289
v 0.018826 0.033235 0.014542
v -0.002845 0.051515 0.012114
v -0.002843 0.040759 0.020097
v 0.003068 0.015164 -0.036122
v 0.015390 0.018535 -0.032879
v 0.008006 0.018572 -0.035400
v 0.000878 0.001015 -0.022661
v -0.008768 0.013368 -0.035946
v 0.021061 0.009650 -0.018029
v 0.028048 0.026232 -0.019325
v 0.026336 0.017798 -0.006506
v 0.019881 0.008761 0.000077
v 0.009560 0.000463 -0.012601
v 0.003206 0.000325 0.000103
v 0.010918 0.006977 0.006791
v -0.004722 0.002781 0.008141
v -0.017028 0.001545 0.004735
v -0.015662 -0.001567 -0.008905
v -0.035033 0.006641 -0.006812
v -0.030276 0.007213 0.005041
v -0.039003 0.014324 0.001950
v -0.041026 0.020423 -0.003653
v -0.038957 0.016986 -0.013285
v -0.032935 0.014056 -0.021104
v -0.023249 0.004076 -0.021601
v -0.031145 0.017463 -0.025161
v -0.020947 0.015115 -0.032167
vt 0.698242 0.000488
vt 0.700195 0.006348
vt 0.694336 0.003906
vt 0.612793 0.003418
vt 0.605957 0.011230
vt 0.606934 0.000488
vt 0.600098 0.013184
vt 0.601074 0.000488
vt 0.594238 0.003906
vt 0.589844 0.009277
vt 0.803711 0.115723
vt 0.807617 0.126465
vt 0.796387 0.123535
vt 0.810059 0.116211
vt 0.816895 0.123047
vt 0.860840 0.777832
vt 0.856934 0.789307
vt 0.852539 0.788818
vt 0.847656 0.780396
vt 0.856934 0.775024
vt 0.835938 0.780396
vt 0.854492 0.767212
vt 0.832520 0.781494
vt 0.823730 0.777832
vt 0.835938 0.770020
vt 0.826172 0.770630
vt 0.841797 0.759521
vt 0.854004 0.756104
vt 0.833008 0.759155
vt 0.823730 0.763550
vt 0.050171 0.824463
vt 0.057678 0.832886
vt 0.049744 0.836670
vt 0.043732 0.829102
vt 0.045532 0.839600
vt 0.043945 0.815918
vt 0.035034 0.837646
vt 0.033539 0.821533
vt 0.035400 0.811279
vt 0.031555 0.808960
vt 0.025787 0.817627
vt 0.021164 0.826294
vt 0.019913 0.840332
vt 0.534180 0.955017
vt 0.527832 0.957367
vt 0.537598 0.951172
vt 0.539062 0.940582
vt 0.524414 0.943878
vt 0.526367 0.930481
vt 0.513184 0.951324
vt 0.513672 0.964539
vt 0.512695 0.937195
vt 0.520020 0.929260
vt 0.516113 0.926208
vt 0.505859 0.924927
vt 0.507324 0.956909
vt 0.506348 0.963440
vt 0.499756 0.945404
vt 0.493164 0.937561
vt 0.495117 0.927246
vt 0.485352 0.931763
vt 0.489014 0.951416
vt 0.489502 0.965210
vt 0.480957 0.957703
vt 0.475342 0.956360
vt 0.481689 0.940308
vt 0.481201 0.930664
vt 0.474609 0.936096
vt 0.468750 0.942108
vt 0.465332 0.946259
vt 0.468262 0.950562
vt 0.889648 0.472656
vt 0.900879 0.468750
vt 0.900391 0.478027
vt 0.903320 0.458496
vt 0.899414 0.447266
vt 0.894043 0.446777
vt 0.891113 0.458008
vt 0.887695 0.445312
vt 0.880371 0.450684
vt 0.885254 0.475586
vt 0.877441 0.474121
vt 0.880859 0.462891
vt 0.871094 0.457520
vt 0.868652 0.467285
vt 0.677734 0.771240
vt 0.672852 0.771240
vt 0.672852 0.764526
vt 0.681152 0.759033
vt 0.669434 0.759155
vt 0.673828 0.750244
vt 0.687500 0.766479
vt 0.684082 0.773315
vt 0.697754 0.768188
vt 0.698730 0.755615
vt 0.704590 0.768433
vt 0.682617 0.748291
vt 0.673340 0.745850
vt 0.695312 0.746582
vt 0.689453 0.737793
vt 0.796875 0.986008
vt 0.807617 0.983292
vt 0.802246 0.986519
vt 0.792969 0.972305
vt 0.787109 0.986237
vt 0.808594 0.969650
vt 0.820801 0.974472
vt 0.816895 0.962708
vt 0.808594 0.955933
vt 0.798340 0.964661
vt 0.793945 0.955475
vt 0.801270 0.949738
vt 0.787598 0.949371
vt 0.777832 0.953156
vt 0.780273 0.963196
vt 0.765137 0.964722
vt 0.766113 0.955200
vt 0.757812 0.959900
vt 0.753906 0.965668
vt 0.759277 0.972244
vt 0.766113 0.977142
vt 0.775391 0.973862
vt 0.767090 0.981644
vt 0.776855 0.985222
vt1 0.043793 0.938995
vt1 0.061371 0.991943
vt1 0.008064 0.968536
vt1 0.339844 0.043457
vt1 0.411377 0.103516
vt1 0.314453 0.096680
vt1 0.428467 0.157227
vt1 0.315186 0.150879
vt1 0.342041 0.210938
vt1 0.394775 0.250000
vt1 0.829102 0.245117
vt1 0.866211 0.347168
vt1 0.766113 0.319336
vt1 0.884277 0.247559
vt1 0.945801 0.311035
vt1 0.541992 0.637207
vt1 0.645508 0.599121
vt1 0.640625 0.559326
vt1 0.565430 0.517822
vt1 0.516602 0.601562
vt1 0.565918 0.412598
vt1 0.446777 0.579346
vt1 0.575684 0.378906
vt1 0.541992 0.300781
vt1 0.471680 0.410156
vt1 0.477539 0.325195
vt1 0.377686 0.466309
vt1 0.346680 0.573242
vt1 0.374023 0.384766
vt1 0.413574 0.303711
vt1 0.688477 0.514404
vt1 0.620605 0.438477
vt1 0.692383 0.404297
vt1 0.746582 0.472168
vt1 0.729980 0.377441
vt1 0.744629 0.590576
vt1 0.825195 0.395996
vt1 0.838379 0.540527
vt1 0.821289 0.632324
vt1 0.855957 0.653320
vt1 0.908203 0.575439
vt1 0.949707 0.498047
vt1 0.961426 0.371582
vt1 0.627930 0.899902
vt1 0.571289 0.921143
vt1 0.662598 0.865234
vt1 0.673340 0.769653
vt1 0.543457 0.799561
vt1 0.560059 0.678223
vt1 0.440430 0.866577
vt1 0.446289 0.985954
vt1 0.436523 0.739014
vt1 0.502441 0.667236
vt1 0.464844 0.639893
vt1 0.374268 0.628418
vt1 0.388672 0.916931
vt1 0.377686 0.976013
vt1 0.318115 0.813232
vt1 0.259277 0.742676
vt1 0.276123 0.649170
vt1 0.189209 0.690186
vt1 0.222412 0.867432
vt1 0.226074 0.991936
vt1 0.149170 0.924133
vt1 0.098572 0.912048
vt1 0.154785 0.767334
vt1 0.150757 0.679932
vt1 0.091064 0.729248
vt1 0.038696 0.783569
vt1 0.008064 0.820923
vt1 0.034943 0.859863
vt1 0.738770 0.156738
vt1 0.702148 0.054199
vt1 0.786133 0.059570
vt1 0.608887 0.033691
vt1 0.510254 0.068359
vt1 0.504883 0.116699
vt1 0.604980 0.142090
vt1 0.491699 0.174316
vt1 0.539551 0.240723
vt1 0.762207 0.194336
vt1 0.750488 0.267090
vt1 0.651855 0.237305
vt1 0.603027 0.321777
vt1 0.688965 0.347168
vt1 0.908691 0.973343
vt1 0.956055 0.973709
vt1 0.954102 0.913025
vt1 0.877441 0.863037
vt1 0.985352 0.864380
vt1 0.946777 0.784424
vt1 0.821777 0.930664
vt1 0.850586 0.991936
vt1 0.728027 0.945831
vt1 0.721680 0.833008
vt1 0.668945 0.948486
vt1 0.864258 0.766724
vt1 0.951660 0.744873
vt1 0.753418 0.749756
vt1 0.803223 0.670898
vt1 0.012688 0.440430
vt1 0.037140 0.533203
vt1 0.008064 0.485352
vt1 0.136230 0.402344
vt1 0.010582 0.351562
vt1 0.160156 0.543457
vt1 0.116760 0.653320
vt1 0.222778 0.621094
vt1 0.283691 0.544189
vt1 0.205200 0.454102
vt1 0.288086 0.412109
vt1 0.339600 0.477539
vt1 0.343018 0.356445
vt1 0.309082 0.266113
vt1 0.218262 0.290039
vt1 0.204590 0.152832
vt1 0.290283 0.162598
vt1 0.248169 0.085938
vt1 0.196045 0.051758
vt1 0.136841 0.101074
vt1 0.092651 0.160645
vt1 0.122131 0.247070
vt1 0.052032 0.169922
vt1 0.019760 0.257812
vn -0.937008 0.070866 0.338583
vn -0.866142 -0.370079 0.330709
vn -0.992126 0.118110 0.039370
vn 0.685039 0.527559 -0.503937
vn 0.913386 0.377953 -0.125984
vn 0.763780 0.622047 0.157480
vn 0.913386 -0.385827 0.141732
vn 0.803150 0.259843 0.535433
vn 0.763780 -0.307087 0.566929
vn 0.787402 -0.606299 0.125984
vn 0.913386 -0.385827 0.141732
vn 0.763780 -0.141732 -0.629921
vn 0.787402 -0.606299 0.125984
vn 0.913386 0.377953 -0.125984
vn 0.685039 0.527559 -0.503937
vn -0.118110 -0.102362 0.984252
vn -0.039370 0.417323 0.905512
vn 0.133858 0.401575 0.905512
vn 0.314961 0.023622 0.952756
vn 0.165354 -0.251968 0.952756
vn 0.629921 0.125984 0.763779
vn 0.157480 -0.527559 0.834646
vn 0.740157 0.385827 0.551181
vn 0.803150 0.259843 0.535433
vn 0.677165 -0.346457 0.645669
vn 0.763780 -0.307087 0.566929
vn 0.401575 -0.724409 0.566929
vn 0.070866 -0.842520 0.527559
vn 0.685039 -0.669291 0.291339
vn 0.787402 -0.606299 0.125984
vn -0.685039 0.307087 0.661417
vn -0.937008 0.149606 0.330709
vn -0.905512 0.417323 0.078740
vn -0.590551 0.692913 0.417323
vn -0.755906 0.645669 -0.094488
vn -0.362205 0.307087 0.881890
vn -0.456693 0.889764 -0.039370
vn -0.220472 0.763779 0.606299
vn -0.039370 0.417323 0.905512
vn 0.133858 0.401575 0.905512
vn 0.133858 0.755905 0.645669
vn 0.078740 0.968504 0.236220
vn -0.110236 0.952756 -0.299213
vn 0.779528 0.574803 -0.251969
vn 0.582677 0.700787 -0.409449
vn 0.685039 0.527559 -0.503937
vn 0.763780 -0.141732 -0.629921
vn 0.566929 0.322835 -0.755905
vn 0.551181 -0.314961 -0.771653
vn 0.125984 0.669291 -0.732283
vn 0.173228 0.952756 -0.259843
vn 0.070866 0.141732 -0.984252
vn 0.299213 -0.157480 -0.944882
vn 0.196850 -0.448819 -0.874016
vn -0.133858 -0.456693 -0.881890
vn -0.125984 0.826771 -0.543307
vn -0.110236 0.952756 -0.299213
vn -0.338583 0.480315 -0.811024
vn -0.543307 0.055118 -0.834646
vn -0.425197 -0.401575 -0.811023
vn -0.661417 -0.338583 -0.669291
vn -0.661417 0.590551 -0.464567
vn -0.456693 0.889764 -0.039370
vn -0.755906 0.645669 -0.094488
vn -0.905512 0.417323 0.078740
vn -0.897638 0.062992 -0.440945
vn -0.700787 -0.456693 -0.543307
vn -0.905512 -0.307087 -0.291339
vn -0.992126 0.118110 0.039370
vn -0.937008 0.070866 0.338583
vn -0.937008 0.149606 0.330709
vn -0.118110 -0.102362 0.984252
vn -0.362205 0.307087 0.881890
vn -0.039370 0.417323 0.905512
vn -0.685039 0.307087 0.661417
vn -0.937008 0.149606 0.330709
vn -0.937008 0.070866 0.338583
vn -0.598425 -0.188976 0.779527
vn -0.866142 -0.370079 0.330709
vn -0.511811 -0.732283 0.456693
vn 0.165354 -0.251968 0.952756
vn 0.157480 -0.527559 0.834646
vn -0.251969 -0.590551 0.763779
vn -0.204724 -0.897638 0.385827
vn 0.070866 -0.842520 0.527559
vn 0.779528 0.574803 -0.251969
vn 0.685039 0.527559 -0.503937
vn 0.763780 0.622047 0.157480
vn 0.637795 0.700787 0.322835
vn 0.803150 0.259843 0.535433
vn 0.740157 0.385827 0.551181
vn 0.456693 0.889764 -0.062992
vn 0.582677 0.700787 -0.409449
vn 0.173228 0.952756 -0.259843
vn 0.078740 0.968504 0.236220
vn -0.110236 0.952756 -0.299213
vn 0.433071 0.559055 0.708661
vn 0.629921 0.125984 0.763779
vn 0.133858 0.755905 0.645669
vn 0.133858 0.401575 0.905512
vn 0.196850 -0.448819 -0.874016
vn 0.551181 -0.314961 -0.771653
vn 0.299213 -0.157480 -0.944882
vn 0.133858 -0.874016 -0.464567
vn -0.133858 -0.456693 -0.881890
vn 0.700787 -0.637795 -0.314961
vn 0.763780 -0.141732 -0.629921
vn 0.787402 -0.606299 0.125984
vn 0.685039 -0.669291 0.291339
vn 0.362205 -0.929134 -0.102362
vn 0.212598 -0.937008 0.267717
vn 0.401575 -0.724409 0.566929
vn 0.070866 -0.842520 0.527559
vn -0.204724 -0.897638 0.385827
vn -0.181102 -0.984252 -0.039370
vn -0.692913 -0.716535 -0.055118
vn -0.511811 -0.732283 0.456693
vn -0.866142 -0.370079 0.330709
vn -0.992126 0.118110 0.039370
vn -0.905512 -0.307087 -0.291339
vn -0.700787 -0.456693 -0.543307
vn -0.409449 -0.771653 -0.488189
vn -0.661417 -0.338583 -0.669291
vn -0.425197 -0.401575 -0.811023
tan 0.187798 0.924980 0.326120 1.000000
tan -0.204724 0.871350 0.438899 1.000000
tan 0.124620 0.929630 0.351541 1.000000
tan -0.467915 0.848100 0.251782 1.000000
tan -0.253953 0.793850 0.540393 1.000000
tan -0.607043 0.624527 0.477277 1.000000
tan 0.031682 0.410441 0.913138 1.000000
tan -0.574927 0.567053 0.587203 1.000000
tan -0.451981 0.371629 0.810217 1.000000
tan -0.195672 -0.049600 0.984252 1.000000
tan 0.104718 0.553165 0.830987 1.000000
tan 0.640957 0.301135 0.709405 1.000000
tan 0.366173 0.620497 0.697563 1.000000
tan 0.073408 0.150288 0.983074 1.000000
tan 0.532581 0.109740 0.838862 1.000000
tan 0.105896 -0.983632 -0.089590 1.000000
tan 0.138198 -0.897452 0.419617 1.000000
tan 0.203422 -0.904396 0.371009 1.000000
tan 0.134974 -0.991940 -0.020026 1.000000
tan 0.069316 -0.961188 -0.266228 1.000000
tan 0.261765 -0.966024 -0.056544 1.000000
tan -0.071672 -0.848782 -0.522971 1.000000
tan 0.478269 -0.878170 -0.027528 1.000000
tan 0.377085 -0.919090 -0.119598 1.000000
tan -0.063364 -0.904706 -0.418997 1.000000
tan -0.056916 -0.907310 -0.414781 1.000000
tan -0.224440 -0.678343 -0.707793 1.000000
tan -0.208196 -0.530163 -0.818711 1.000000
tan -0.415773 -0.686775 -0.600099 1.000000
tan -0.443115 -0.693161 -0.566371 1.000000
tan 0.601711 -0.276210 0.751441 1.000000
tan 0.313721 -0.133672 0.949346 1.000000
tan 0.081778 -0.010850 0.997954 1.000000
tan 0.398289 -0.199454 0.894786 1.000000
tan 0.031744 0.180792 0.981462 1.000000
tan 0.647901 -0.595945 0.473619 1.000000
tan 0.235476 0.163246 0.957840 1.000000
tan 0.498171 -0.448323 0.745924 1.000000
tan 0.587823 -0.726021 0.360159 1.000000
tan 0.504371 -0.812201 0.285635 1.000000
tan 0.486701 -0.619319 0.624155 1.000000
tan 0.419245 -0.247380 0.874512 1.000000
tan 0.280365 0.318061 0.909480 1.000000
tan 0.278691 -0.674871 -0.677351 1.000000
tan 0.248559 -0.632525 -0.728873 1.000000
tan 0.141298 -0.776427 -0.620745 1.000000
tan -0.306653 -0.940480 -0.160208 1.000000
tan -0.025234 -0.915122 -0.409759 1.000000
tan -0.329593 -0.932234 0.145080 1.000000
tan 0.010850 -0.739413 -0.673941 1.000000
tan 0.098208 -0.278257 -0.954802 1.000000
tan -0.029822 -0.988716 -0.144522 1.000000
tan -0.199640 -0.981958 0.100440 1.000000
tan -0.116250 -0.898320 0.435117 1.000000
tan 0.148800 -0.886354 0.436419 1.000000
tan -0.108810 -0.554591 -0.818711 1.000000
tan -0.205778 -0.317317 -0.934590 1.000000
tan -0.026164 -0.863910 -0.500713 1.000000
tan 0.155372 -0.972410 -0.165354 1.000000
tan 0.371505 -0.894848 0.248311 1.000000
tan 0.471945 -0.879534 -0.021452 1.000000
tan -0.217372 -0.744311 -0.636679 1.000000
tan -0.497489 -0.291649 -0.820386 1.000000
tan -0.457313 -0.627193 -0.627317 1.000000
tan -0.397235 -0.765391 -0.511625 1.000000
tan 0.129456 -0.915494 -0.394321 1.000000
tan 0.595077 -0.794531 -0.099696 1.000000
tan 0.397235 -0.856408 -0.331949 1.000000
tan -0.123380 -0.882138 -0.462769 1.000000
tan -0.236096 -0.845248 -0.476471 1.000000
tan -0.298159 -0.842396 -0.463699 1.000000
tan -0.927088 -0.343171 -0.146940 1.000000
tan -0.912518 -0.316201 -0.264678 1.000000
tan -0.972720 -0.230330 0.063860 1.000000
tan -0.725401 -0.227664 -0.645607 1.000000
tan -0.355633 -0.197904 -0.918098 1.000000
tan -0.345651 -0.199206 -0.914874 1.000000
tan -0.751813 -0.217682 -0.629921 1.000000
tan -0.339327 -0.044764 -0.938806 1.000000
tan -0.635749 -0.040424 -0.777295 1.000000
tan -0.865088 -0.500899 0.017670 1.000000
tan -0.863228 -0.483973 -0.143034 1.000000
tan -0.823796 -0.279745 -0.488065 1.000000
tan -0.774940 -0.092256 -0.625829 1.000000
tan -0.837126 -0.334367 -0.421539 1.000000
tan 0.144088 0.228409 0.966830 1.000000
tan 0.384339 0.325687 0.863414 1.000000
tan -0.142352 -0.073904 0.982330 1.000000
tan -0.265299 -0.193688 0.944572 1.000000
tan -0.462583 -0.297228 0.838118 1.000000
tan -0.429227 -0.362205 0.829934 1.000000
tan -0.104842 0.123876 0.989646 1.000000
tan 0.101990 0.437597 0.894104 1.000000
tan -0.122760 0.282349 0.953438 1.000000
tan -0.252775 -0.208940 0.940914 1.000000
tan -0.172298 0.277389 0.946742 1.000000
tan -0.489553 -0.515221 0.705623 1.000000
tan -0.596751 -0.552483 0.583297 1.000000
tan -0.451485 -0.533573 0.718271 1.000000
tan -0.601959 -0.692975 0.396305 1.000000
tan 0.295555 -0.825159 0.490297 1.000000
tan 0.395685 -0.712629 0.573501 1.000000
tan 0.431521 -0.860066 0.279993 1.000000
tan 0.121768 -0.450927 0.883440 1.000000
tan 0.022816 -0.891810 0.458367 1.000000
tan 0.117800 -0.331081 0.932544 1.000000
tan 0.497117 -0.497427 0.714675 1.000000
tan -0.256743 -0.133176 0.963730 1.000000
tan -0.242669 0.169508 0.960010 1.000000
tan 0.029760 -0.097960 0.994482 1.000000
tan -0.017918 0.269763 0.958398 1.000000
tan -0.198648 0.537355 0.827329 1.000000
tan -0.006696 0.529791 0.846984 1.000000
tan 0.212350 0.343419 0.911650 1.000000
tan 0.117180 -0.061256 0.992374 1.000000
tan 0.149730 -0.219108 0.966086 1.000000
tan 0.444789 0.229649 0.866700 1.000000
tan 0.383037 -0.073160 0.921322 1.000000
tan 0.001860 -0.301816 0.952322 1.000000
tan -0.150908 -0.407031 0.898072 1.000000
tan -0.211916 -0.594147 0.772770 1.000000
tan 0.004836 -0.536177 0.843450 1.000000
tan -0.259285 -0.734639 0.627875 1.000000
tan -0.186310 -0.842147 0.514663 1.000000
f 3/3/3 2/2/2 1/1/1
f 6/6/6 5/5/5 4/4/4
f 5/5/5 6/6/6 7/7/7
f 8/8/8 7/7/7 6/6/6
f 7/7/7 8/8/8 9/9/9
f 9/9/9 10/10/10 7/7/7
f 13/13/13 12/12/12 11/11/11
f 12/12/12 14/14/14 11/11/11
f 14/14/14 12/12/12 15/15/15
f 18/18/18 17/17/17 16/16/16
f 16/16/16 19/19/19 18/18/18
f 19/19/19 16/16/16 20/20/20
f 21/21/21 18/18/18 19/19/19
f 22/22/22 19/19/19 20/20/20
f 24/24/24 23/23/23 21/21/21
f 21/21/21 19/19/19 25/25/25
f 25/25/25 24/24/24 21/21/21
f 19/19/19 22/22/22 25/25/25
f 25/25/25 26/26/26 24/24/24
f 22/22/22 28/28/28 27/27/27
f 22/22/22 27/27/27 25/25/25
f 27/27/27 29/29/29 25/25/25
f 26/26/26 25/25/25 29/29/29
f 30/30/30 26/26/26 29/29/29
f 33/33/33 32/32/32 31/31/31
f 33/33/33 31/31/31 34/34/34
f 33/33/33 34/34/34 35/35/35
f 31/31/31 36/36/36 34/34/34
f 37/37/37 35/35/35 34/34/34
f 34/34/34 36/36/36 38/38/38
f 37/37/37 34/34/34 38/38/38
f 38/38/38 36/36/36 39/39/39
f 40/40/40 38/38/38 39/39/39
f 38/38/38 40/40/40 41/41/41
f 41/41/41 42/42/42 38/38/38
f 38/38/38 42/42/42 37/37/37
f 43/43/43 37/37/37 42/42/42
f 46/46/46 45/45/45 44/44/44
f 46/46/46 47/47/47 45/45/45
f 48/48/48 45/45/45 47/47/47
f 49/49/49 48/48/48 47/47/47
f 50/50/50 45/45/45 48/48/48
f 50/50/50 51/51/51 45/45/45
f 52/52/52 48/48/48 49/49/49
f 48/48/48 52/52/52 50/50/50
f 53/53/53 52/52/52 49/49/49
f 54/54/54 52/52/52 53/53/53
f 54/54/54 55/55/55 52/52/52
f 56/56/56 51/51/51 50/50/50
f 51/51/51 56/56/56 57/57/57
f 58/58/58 50/50/50 52/52/52
f 50/50/50 58/58/58 56/56/56
f 52/52/52 55/55/55 59/59/59
f 52/52/52 59/59/59 58/58/58
f 59/59/59 55/55/55 60/60/60
f 61/61/61 59/59/59 60/60/60
f 56/56/56 58/58/58 62/62/62
f 62/62/62 57/57/57 56/56/56
f 58/58/58 59/59/59 62/62/62
f 57/57/57 62/62/62 63/63/63
f 63/63/63 62/62/62 64/64/64
f 65/65/65 64/64/64 62/62/62
f 59/59/59 66/66/66 62/62/62
f 66/66/66 65/65/65 62/62/62
f 61/61/61 66/66/66 59/59/59
f 66/66/66 61/61/61 67/67/67
f 68/68/68 66/66/66 67/67/67
f 68/68/68 69/69/69 66/66/66
f 70/70/70 66/66/66 69/69/69
f 70/70/70 65/65/65 66/66/66
f 71/71/71 65/65/65 70/70/70
f 74/74/74 73/73/73 72/72/72
f 75/75/75 72/72/72 73/73/73
f 77/77/77 75/75/75 76/76/76
f 75/75/75 77/77/77 78/78/78
f 78/78/78 72/72/72 75/75/75
f 78/78/78 77/77/77 79/79/79
f 80/80/80 78/78/78 79/79/79
f 72/72/72 82/82/82 81/81/81
f 78/78/78 80/80/80 83/83/83
f 72/72/72 78/78/78 83/83/83
f 83/83/83 82/82/82 72/72/72
f 83/83/83 80/80/80 84/84/84
f 82/82/82 83/83/83 85/85/85
f 85/85/85 83/83/83 84/84/84
f 88/88/88 87/87/87 86/86/86
f 86/86/86 89/89/89 88/88/88
f 89/89/89 90/90/90 88/88/88
f 89/89/89 91/91/91 90/90/90
f 92/92/92 89/89/89 86/86/86
f 92/92/92 86/86/86 93/93/93
f 92/92/92 93/93/93 94/94/94
f 92/92/92 94/94/94 95/95/95
f 92/92/92 95/95/95 89/89/89
f 96/96/96 95/95/95 94/94/94
f 91/91/91 89/89/89 97/97/97
f 97/97/97 89/89/89 95/95/95
f 91/91/91 97/97/97 98/98/98
f 95/95/95 99/99/99 97/97/97
f 100/100/100 98/98/98 97/97/97
f 99/99/99 100/100/100 97/97/97
f 103/103/103 102/102/102 101/101/101
f 104/104/104 101/101/101 102/102/102
f 105/105/105 101/101/101 104/104/104
f 104/104/104 102/102/102 106/106/106
f 107/107/107 106/106/106 102/102/102
f 108/108/108 106/106/106 107/107/107
f 108/108/108 109/109/109 106/106/106
f 109/109/109 110/110/110 106/106/106
f 104/104/104 106/106/106 110/110/110
f 110/110/110 109/109/109 111/111/111
f 109/109/109 112/112/112 111/111/111
f 112/112/112 113/113/113 111/111/111
f 114/114/114 111/111/111 113/113/113
f 111/111/111 115/115/115 110/110/110
f 115/115/115 111/111/111 114/114/114
f 115/115/115 104/104/104 110/110/110
f 114/114/114 116/116/116 115/115/115
f 117/117/117 116/116/116 114/114/114
f 118/118/118 116/116/116 117/117/117
f 119/119/119 116/116/116 118/118/118
f 120/120/120 116/116/116 119/119/119
f 116/116/116 120/120/120 121/121/121
f 115/115/115 116/116/116 122/122/122
f 122/122/122 116/116/116 121/121/121
f 104/104/104 115/115/115 122/122/122
f 105/105/105 104/104/104 122/122/122
f 123/123/123 122/122/122 121/121/121
f 124/124/124 105/105/105 122/122/122
f 124/124/124 122/122/122 123/123/123
