mtllib SM_Knife_LOD4.mtl
g SM_Knife_LOD4
#Vertices 81
#Indices 108
#Section 0 Offset 0 NumIndices 108 MaterialIndex 0 MI_Cutlery
v 0.082691 0.003011 -0.017353
v 0.023300 -0.004898 0.002349
v 0.069964 0.006020 0.015238
v 0.023300 -0.004898 0.002349
v -0.026215 0.006630 -0.020375
v -0.027895 0.000716 0.021319
v -0.215470 0.013978 0.030192
v -0.222772 0.014208 -0.031839
v -0.246090 0.013792 0.011316
v 0.023300 -0.004898 0.002349
v 0.082691 0.003011 -0.017353
v -0.026215 0.006630 -0.020375
v 0.082691 0.003011 -0.017353
v 0.103790 0.007680 0.027462
v 0.069964 0.006020 0.015238
v 0.103790 0.007680 0.027462
v 0.082691 0.003011 -0.017353
v 0.069964 0.006020 0.015238
v 0.103790 0.007680 0.027462
v 0.240801 -0.003337 0.033755
v 0.141354 0.001453 0.028449
v 0.343470 0.003340 -0.013181
v 0.127807 0.017707 -0.027985
v 0.234272 0.001892 -0.023926
v 0.127807 0.017707 -0.027985
v 0.103790 0.007680 0.027462
v 0.141354 0.001453 0.028449
v 0.103790 0.007680 0.027462
v 0.127807 0.017707 -0.027985
v 0.082691 0.003011 -0.017353
v -0.222772 0.014208 -0.031839
v -0.215470 0.013978 0.030192
v -0.189762 -0.003844 -0.027685
v -0.171561 0.000626 0.023707
v -0.189762 -0.003844 -0.027685
v -0.215470 0.013978 0.030192
v -0.140683 0.006363 -0.027533
v -0.222772 0.014208 -0.031839
v -0.189762 -0.003844 -0.027685
v -0.171561 0.000626 0.023707
v -0.215470 0.013978 0.030192
v -0.132294 0.022450 0.034995
v 0.240801 -0.003337 0.033755
v 0.343470 0.003340 -0.013181
v 0.234272 0.001892 -0.023926
v 0.234272 0.001892 -0.023926
v 0.141354 0.001453 0.028449
v 0.127807 0.017707 -0.027985
v -0.083251 -0.004369 -0.026909
v -0.027895 0.000716 0.021319
v -0.026215 0.006630 -0.020375
v -0.082406 0.009426 0.022844
v -0.083251 -0.004369 -0.026909
v -0.132294 0.022450 0.034995
v -0.082406 0.009426 0.022844
v -0.140683 0.006363 -0.027533
v -0.189762 -0.003844 -0.027685
v -0.132294 0.022450 0.034995
v -0.140683 0.006363 -0.027533
v -0.171561 0.000626 0.023707
v 0.069964 0.006020 0.015238
v 0.023300 -0.004898 0.002349
v -0.082406 0.009426 0.022844
v -0.027895 0.000716 0.021319
v -0.140683 0.006363 -0.027533
v -0.132294 0.022450 0.034995
v -0.215470 0.013978 0.030192
v -0.222772 0.014208 -0.031839
v -0.246090 0.013792 0.011316
v 0.069964 0.006020 0.015238
v -0.026215 0.006630 -0.020375
v 0.082691 0.003011 -0.017353
v -0.082406 0.009426 0.022844
v -0.083251 -0.004369 -0.026909
v -0.132294 0.022450 0.034995
v -0.140683 0.006363 -0.027533
v 0.103790 0.007680 0.027462
v 0.343470 0.003340 -0.013181
v 0.240801 -0.003337 0.033755
v 0.127807 0.017707 -0.027985
v 0.082691 0.003011 -0.017353
vt 0.378174 0.416992
vt 0.344727 0.510742
vt 0.326660 0.435547
vt 0.343994 0.509521
vt 0.378418 0.590576
vt 0.311768 0.591064
vt 0.295654 0.901917
vt 0.383545 0.922485
vt 0.320801 0.941956
vt 0.414795 0.510010
vt 0.432617 0.416016
vt 0.425537 0.591064
vt 0.426514 0.415527
vt 0.498779 0.382324
vt 0.479004 0.435547
vt 0.309570 0.388672
vt 0.377930 0.419434
vt 0.327393 0.429688
vt 0.012192 0.454590
vt 0.024857 0.263184
vt 0.022141 0.402344
vt 0.138184 0.176270
vt 0.151733 0.460449
vt 0.131348 0.320312
vt 0.396484 0.343750
vt 0.306885 0.375488
vt 0.306396 0.317383
vt 0.308838 0.375977
vt 0.398193 0.341797
vt 0.376221 0.407715
vt 0.386719 0.903625
vt 0.289551 0.894836
vt 0.384277 0.856934
vt 0.301514 0.821167
vt 0.383545 0.851562
vt 0.290771 0.890198
vt 0.148193 0.435059
vt 0.160645 0.569824
vt 0.137207 0.510742
vt 0.278809 0.514893
vt 0.264404 0.587158
vt 0.253906 0.456055
vt 0.299561 0.158691
vt 0.376221 -0.003906
vt 0.391602 0.169922
vt 0.391602 0.169922
vt 0.306396 0.317383
vt 0.396240 0.339844
vt 0.385986 0.681641
vt 0.312012 0.591064
vt 0.378174 0.590576
vt 0.306641 0.678223
vt 0.382812 0.682129
vt 0.286377 0.761353
vt 0.306641 0.686279
vt 0.384277 0.771729
vt 0.383545 0.850098
vt 0.287598 0.755127
vt 0.384521 0.773560
vt 0.301514 0.821167
vt 0.475586 0.436035
vt 0.485107 0.509766
vt 0.480469 0.681396
vt 0.488770 0.593018
vt 0.410156 0.775146
vt 0.509766 0.763062
vt 0.503418 0.895935
vt 0.403809 0.908203
vt 0.472656 0.945648
vt 0.479004 0.436035
vt 0.421631 0.590820
vt 0.426758 0.415527
vt 0.491455 0.681152
vt 0.412109 0.682861
vt 0.512695 0.763916
vt 0.410156 0.774902
vt 0.498535 0.381348
vt 0.433105 -0.003906
vt 0.508789 0.160645
vt 0.409180 0.342773
vt 0.427490 0.414551
vt1 0.233765 0.439941
vt1 0.154541 0.537109
vt1 0.112061 0.459473
vt1 0.152954 0.536133
vt1 0.234009 0.619873
vt1 0.076599 0.620361
vt1 0.038483 0.942383
vt1 0.246094 0.963684
vt1 0.098145 0.983871
vt1 0.333496 0.537354
vt1 0.375488 0.439453
vt1 0.358887 0.621338
vt1 0.361328 0.438965
vt1 0.531738 0.404785
vt1 0.485352 0.459961
vt1 0.071716 0.410645
vt1 0.232666 0.442383
vt1 0.113525 0.453125
vt1 0.871582 0.832153
vt1 0.946777 0.334473
vt1 0.930664 0.696045
vt1 0.998535 0.100586
vt1 1.071289 0.778442
vt1 0.961426 0.443848
vt1 0.276855 0.364258
vt1 0.064941 0.396973
vt1 0.064087 0.336914
vt1 0.069763 0.397461
vt1 0.281006 0.362305
vt1 0.229126 0.430176
vt1 0.253906 0.944153
vt1 0.024246 0.935059
vt1 0.248169 0.895752
vt1 0.052399 0.858765
vt1 0.246338 0.890198
vt1 0.026932 0.930237
vt1 0.791504 0.691650
vt1 0.848633 0.959717
vt1 0.741699 0.842163
vt1 0.875488 0.786377
vt1 0.810547 0.930115
vt1 0.762695 0.669434
vt1 0.048065 0.172363
vt1 0.228882 0.003906
vt1 0.265137 0.184082
vt1 0.265137 0.184082
vt1 0.064087 0.336914
vt1 0.276123 0.359863
vt1 0.251953 0.714111
vt1 0.077209 0.620361
vt1 0.233398 0.619873
vt1 0.064514 0.710693
vt1 0.244263 0.714600
vt1 0.017014 0.796875
vt1 0.064819 0.718994
vt1 0.248291 0.807617
vt1 0.245972 0.888672
vt1 0.019852 0.790283
vt1 0.248291 0.809448
vt1 0.052307 0.858765
vt1 0.477295 0.460449
vt1 0.499756 0.536865
vt1 0.489014 0.715088
vt1 0.508301 0.623535
vt1 0.322754 0.812256
vt1 0.558594 0.799683
vt1 0.543457 0.937653
vt1 0.307617 0.950348
vt1 0.470459 0.989235
vt1 0.485352 0.460449
vt1 0.349854 0.621094
vt1 0.361572 0.438965
vt1 0.514648 0.714844
vt1 0.327148 0.716553
vt1 0.565430 0.800659
vt1 0.322510 0.812012
vt1 0.531250 0.403809
vt1 0.376953 0.003418
vt1 0.556152 0.174805
vt1 0.320312 0.363770
vt1 0.363770 0.437988
vn 0.000000 -1.000000 0.000000
vn 0.000000 -1.000000 0.000000
vn 0.000000 -1.000000 0.000000
vn 0.000000 -1.000000 0.000000
vn 0.000000 -1.000000 0.000000
vn 0.000000 -1.000000 0.000000
vn -0.196850 -0.976378 0.000000
vn -0.244094 -0.968504 0.000000
vn -0.299213 -0.952756 0.000000
vn 0.000000 1.000000 0.070866
vn 0.000000 1.000000 0.062992
vn -0.007874 1.000000 0.070866
vn -0.070866 1.000000 0.007874
vn -0.070866 1.000000 -0.007874
vn -0.070866 1.000000 -0.007874
vn 0.157480 -0.984252 0.015748
vn 0.157480 -0.984252 -0.015748
vn 0.157480 -0.984252 0.023622
vn -0.133858 0.000000 0.992126
vn -0.031496 0.000000 1.000000
vn -0.023622 0.000000 1.000000
vn 0.007874 -0.000000 -1.000000
vn -0.007874 -0.000000 -1.000000
vn 0.000000 -0.000000 -1.000000
vn 0.015748 -1.000000 0.000000
vn 0.031496 -1.000000 0.000000
vn 0.007874 -1.000000 0.000000
vn 0.039370 -1.000000 0.000000
vn 0.015748 -1.000000 0.000000
vn 0.062992 -1.000000 0.000000
vn -0.188976 -0.984252 0.000000
vn -0.141732 -0.992126 0.000000
vn 0.118110 -0.992126 0.000000
vn 0.015748 -1.000000 0.000000
vn 0.007874 -1.000000 0.000000
vn 0.007874 -1.000000 0.000000
vn -0.015748 -0.000000 -1.000000
vn 0.259843 -0.015748 -0.968504
vn 0.086614 -0.007874 -1.000000
vn 0.031496 -0.007874 1.000000
vn 0.228346 -0.015748 0.976378
vn 0.015748 0.000000 1.000000
vn 0.007874 -1.000000 0.000000
vn 0.007874 -1.000000 0.000000
vn 0.007874 -1.000000 0.000000
vn 0.000000 -1.000000 0.000000
vn 0.007874 -1.000000 0.000000
vn 0.007874 -1.000000 0.000000
vn 0.000000 -1.000000 0.000000
vn 0.000000 -1.000000 0.000000
vn 0.000000 -1.000000 0.000000
vn 0.000000 -1.000000 0.000000
vn 0.000000 -1.000000 0.000000
vn 0.000000 -1.000000 0.000000
vn 0.000000 -1.000000 0.000000
vn 0.000000 -1.000000 0.000000
vn 0.015748 -1.000000 0.000000
vn 0.000000 -1.000000 0.000000
vn 0.000000 -1.000000 0.000000
vn 0.015748 -1.000000 0.000000
vn 0.000000 1.000000 -0.062992
vn 0.000000 1.000000 -0.070866
vn -0.015748 1.000000 -0.070866
vn -0.007874 1.000000 -0.070866
vn -0.047244 1.000000 -0.000000
vn -0.023622 1.000000 -0.000000
vn 0.070866 1.000000 -0.000000
vn 0.125984 0.992126 -0.000000
vn 0.307087 0.952756 -0.000000
vn 0.000000 1.000000 -0.000000
vn 0.000000 1.000000 -0.000000
vn 0.000000 1.000000 -0.000000
vn 0.000000 1.000000 -0.000000
vn 0.000000 1.000000 -0.000000
vn 0.000000 1.000000 -0.000000
vn 0.000000 1.000000 -0.000000
vn 0.015748 1.000000 -0.000000
vn 0.007874 1.000000 -0.000000
vn 0.007874 1.000000 -0.000000
vn 0.007874 1.000000 -0.000000
vn 0.070866 1.000000 -0.000000
tan 1.000000 0.000000 0.015748 1.000000
tan 1.000000 0.000000 0.031496 1.000000
tan 1.000000 0.000000 0.023622 1.000000
tan 1.000000 0.000000 0.031496 1.000000
tan 1.000000 0.000000 0.031496 1.000000
tan 1.000000 0.000000 0.031496 1.000000
tan 0.976378 -0.196850 0.007688 1.000000
tan 0.968504 -0.244094 0.015252 1.000000
tan 0.952756 -0.299213 0.015004 1.000000
tan 1.000000 0.000000 0.000000 1.000000
tan 1.000000 0.000000 0.000000 1.000000
tan 1.000000 0.007874 -0.000000 1.000000
tan 1.000000 0.070866 -0.000000 1.000000
tan 1.000000 0.070866 -0.000000 1.000000
tan 1.000000 0.070866 -0.000000 1.000000
tan 0.984252 0.157728 0.015500 1.000000
tan 0.984252 0.157356 0.007750 1.000000
tan 0.984252 0.157852 0.015500 1.000000
tan 0.992126 0.000000 0.133858 1.000000
tan 1.000000 0.000000 0.031496 1.000000
tan 1.000000 0.000000 0.023622 1.000000
tan 1.000000 0.000000 0.007874 1.000000
tan 1.000000 -0.007874 -0.007874 1.000000
tan 1.000000 0.000000 0.000000 1.000000
tan 1.000000 0.015748 0.007874 1.000000
tan 1.000000 0.031496 0.007874 1.000000
tan 1.000000 0.007874 0.007874 1.000000
tan 1.000000 0.039370 0.015748 1.000000
tan 1.000000 0.015748 0.015748 1.000000
tan 1.000000 0.062992 0.015748 1.000000
tan 0.984252 -0.188976 0.015500 1.000000
tan 0.992126 -0.141732 0.015624 1.000000
tan 0.992126 0.118110 0.015624 1.000000
tan 1.000000 0.015748 0.007874 1.000000
tan 1.000000 0.007874 0.015748 1.000000
tan 1.000000 0.007874 0.015748 1.000000
tan 1.000000 0.047244 -0.015748 1.000000
tan 0.968504 -0.030504 0.260338 1.000000
tan 0.976378 -0.220472 0.086304 1.000000
tan 0.992126 -0.125984 -0.032240 1.000000
tan 0.976378 -0.076880 -0.229586 1.000000
tan 0.984252 0.173228 -0.015500 1.000000
tan 1.000000 0.007874 0.007874 1.000000
tan 1.000000 0.007874 0.007874 1.000000
tan 1.000000 0.007874 0.007874 1.000000
tan 1.000000 0.000000 0.007874 1.000000
tan 1.000000 0.007874 0.007874 1.000000
tan 1.000000 0.007874 0.007874 1.000000
tan 1.000000 0.000000 0.023622 1.000000
tan 1.000000 0.000000 0.031496 1.000000
tan 1.000000 0.000000 0.031496 1.000000
tan 1.000000 0.000000 0.031496 1.000000
tan 1.000000 0.000000 0.023622 1.000000
tan 1.000000 0.000000 0.023622 1.000000
tan 1.000000 0.000000 0.031496 1.000000
tan 1.000000 0.000000 0.023622 1.000000
tan 1.000000 0.015748 0.007874 1.000000
tan 1.000000 0.000000 0.023622 1.000000
tan 1.000000 0.000000 0.015748 1.000000
tan 1.000000 0.015748 0.015748 1.000000
tan 1.000000 0.000000 0.000000 1.000000
tan 1.000000 0.000000 0.000000 1.000000
tan 1.000000 0.015748 -0.000000 1.000000
tan 1.000000 0.007874 -0.000000 1.000000
tan 1.000000 0.047244 -0.000000 1.000000
tan 1.000000 0.023622 -0.000000 1.000000
tan 1.000000 -0.070866 0.000000 1.000000
tan 0.992126 -0.125984 0.000000 1.000000
tan 0.952756 -0.307087 0.000000 1.000000
tan 1.000000 0.000000 0.000000 1.000000
tan 1.000000 0.000000 0.000000 1.000000
tan 1.000000 0.000000 0.000000 1.000000
tan 1.000000 0.000000 0.000000 1.000000
tan 1.000000 0.000000 0.000000 1.000000
tan 1.000000 0.000000 0.000000 1.000000
tan 1.000000 0.000000 0.000000 1.000000
tan 1.000000 -0.015748 0.000000 1.000000
tan 1.000000 -0.007874 0.000000 1.000000
tan 1.000000 -0.007874 0.000000 1.000000
tan 1.000000 -0.007874 0.000000 1.000000
tan 1.000000 -0.070866 0.000000 1.000000
f 3/3/3 2/2/2 1/1/1
f 6/6/6 5/5/5 4/4/4
f 9/9/9 8/8/8 7/7/7
f 12/12/12 11/11/11 10/10/10
f 15/15/15 14/14/14 13/13/13
f 18/18/18 17/17/17 16/16/16
f 21/21/21 20/20/20 19/19/19
f 24/24/24 23/23/23 22/22/22
f 27/27/27 26/26/26 25/25/25
f 30/30/30 29/29/29 28/28/28
f 33/33/33 32/32/32 31/31/31
f 36/36/36 35/35/35 34/34/34
f 39/39/39 38/38/38 37/37/37
f 42/42/42 41/41/41 40/40/40
f 45/45/45 44/44/44 43/43/43
f 43/43/43 47/47/47 46/46/46
f 48/48/48 46/46/46 47/47/47
f 51/51/51 50/50/50 49/49/49
f 52/52/52 49/49/49 50/50/50
f 55/55/55 54/54/54 53/53/53
f 56/56/56 53/53/53 54/54/54
f 59/59/59 58/58/58 57/57/57
f 60/60/60 57/57/57 58/58/58
f 63/63/63 62/62/62 61/61/61
f 62/62/62 63/63/63 64/64/64
f 67/67/67 66/66/66 65/65/65
f 67/67/67 65/65/65 68/68/68
f 69/69/69 67/67/67 68/68/68
f 72/72/72 71/71/71 70/70/70
f 73/73/73 70/70/70 71/71/71
f 73/73/73 71/71/71 74/74/74
f 75/75/75 73/73/73 74/74/74
f 75/75/75 74/74/74 76/76/76
f 79/79/79 78/78/78 77/77/77
f 80/80/80 77/77/77 78/78/78
f 81/81/81 77/77/77 80/80/80
