mtllib SM_KitchenUstensil_Spoon_LOD3.mtl
g SM_KitchenUstensil_Spoon_LOD3
#Vertices 71
#Indices 306
#Section 0 Offset 0 NumIndices 306 MaterialIndex 0 MI_KitchenUstensil
v 0.194661 0.020540 0.047825
v 0.169888 0.022342 0.047433
v 0.150276 0.023968 0.038845
v 0.134654 0.019445 0.005387
v 0.116632 0.023513 0.019033
v 0.205817 0.007541 0.011917
v 0.225953 0.022684 0.033834
v 0.117119 0.023475 -0.017237
v 0.155502 0.023781 -0.040975
v 0.193673 0.023545 -0.046712
v 0.226872 0.019727 -0.036356
v 0.238437 0.018837 0.020477
v 0.243996 0.020943 0.011133
v 0.239813 0.021209 -0.011747
v 0.242666 0.021125 -0.014878
v 0.089695 0.023042 -0.008185
v 0.089928 0.021900 -0.010742
v 0.088256 0.022974 0.011757
v 0.088041 0.021791 0.014399
v -0.238688 0.030159 -0.005976
v -0.239529 0.027612 -0.007772
v -0.240767 0.030681 -0.004390
v -0.241226 0.030145 0.021409
v -0.238981 0.027658 0.022826
v -0.240202 0.030540 0.019318
v -0.245142 0.027924 0.014796
v 0.150276 0.023968 0.038845
v 0.131903 0.007117 0.031445
v 0.116632 0.023513 0.019033
v 0.169888 0.022342 0.047433
v 0.088041 0.021791 0.014399
v 0.194661 0.020540 0.047825
v 0.089115 0.008422 0.014047
v 0.209506 0.003100 0.041643
v 0.225953 0.022684 0.033834
v -0.239151 0.001655 0.023082
v -0.238981 0.027658 0.022826
v -0.241226 0.030145 0.021409
v 0.232768 0.003224 0.023673
v 0.243996 0.020943 0.011133
v -0.244676 0.001317 0.019188
v -0.245142 0.027924 0.014796
v -0.238250 -0.000728 0.020948
v 0.098165 0.006178 0.013043
v -0.240644 -0.000936 0.019118
v -0.245615 0.001295 -0.003071
v -0.240767 0.030681 -0.004390
v 0.115107 0.005022 0.011082
v -0.240176 -0.000995 -0.003868
v -0.239680 0.001595 -0.007947
v -0.239529 0.027612 -0.007772
v 0.089928 0.021900 -0.010742
v -0.238733 -0.000781 -0.005837
v 0.090099 0.008577 -0.010383
v 0.104115 0.004989 -0.007907
v 0.126888 0.007608 -0.024832
v 0.117119 0.023475 -0.017237
v 0.155502 0.023781 -0.040975
v 0.131730 0.001525 -0.022381
v 0.171524 0.003407 -0.043719
v 0.193673 0.023545 -0.046712
v 0.126752 0.002761 0.022375
v 0.222150 0.004064 -0.036466
v 0.226872 0.019727 -0.036356
v 0.242666 0.021125 -0.014878
v 0.180269 -0.000450 0.041453
v 0.208131 0.000133 0.033596
v 0.197101 0.000237 -0.037065
v 0.220752 0.000005 -0.025642
v 0.239104 0.002103 -0.007287
v 0.229433 0.000488 0.017909
vt 0.463135 0.058594
vt 0.462646 0.083984
vt 0.453369 0.104492
vt 0.418457 0.118652
vt 0.431885 0.137695
vt 0.425781 0.046875
vt 0.449951 0.025879
vt 0.395020 0.136719
vt 0.370605 0.097656
vt 0.364502 0.057617
vt 0.377930 0.023926
vt 0.435303 0.013672
vt 0.426758 0.005859
vt 0.402832 0.010254
vt 0.399658 0.007324
vt 0.403809 0.164551
vt 0.400879 0.164062
vt 0.424072 0.166016
vt 0.427002 0.166504
vt 0.400635 0.495605
vt 0.397461 0.496582
vt 0.402344 0.498047
vt 0.428223 0.499023
vt 0.431152 0.496582
vt 0.426270 0.497559
vt 0.421875 0.503906
vt 0.224854 0.133789
vt 0.251465 0.146484
vt 0.250732 0.172363
vt 0.217285 0.104980
vt 0.261475 0.194824
vt 0.218262 0.070312
vt 0.274170 0.193848
vt 0.242676 0.057617
vt 0.237793 0.025879
vt 0.280029 0.492676
vt 0.256592 0.495117
vt 0.259277 0.505127
vt 0.262939 0.033691
vt 0.272461 0.005859
vt 0.283447 0.491699
vt 0.277100 0.515869
vt 0.281982 0.491699
vt 0.276611 0.185059
vt 0.283447 0.494141
vt 0.304688 0.490723
vt 0.324219 0.510010
vt 0.278564 0.168945
vt 0.302734 0.492676
vt 0.306152 0.492676
vt 0.329834 0.493652
vt 0.315674 0.191895
vt 0.304199 0.491699
vt 0.302979 0.191895
vt 0.298096 0.178711
vt 0.318848 0.151367
vt 0.325928 0.170898
vt 0.355469 0.124023
vt 0.314209 0.143066
vt 0.337402 0.098145
vt 0.361328 0.069336
vt 0.263916 0.149902
vt 0.327148 0.042969
vt 0.338623 0.027832
vt 0.308838 0.006836
vt 0.242554 0.089844
vt 0.251709 0.059570
vt 0.328613 0.070312
vt 0.315430 0.045898
vt 0.294922 0.027344
vt 0.269043 0.037109
vt1 0.503418 0.060059
vt1 0.502930 0.084473
vt1 0.494141 0.103516
vt1 0.460693 0.117188
vt1 0.473389 0.135742
vt1 0.467773 0.048828
vt1 0.490723 0.028809
vt1 0.438477 0.134277
vt1 0.415039 0.097168
vt1 0.409180 0.059082
vt1 0.421875 0.026855
vt1 0.477051 0.017090
vt1 0.468750 0.009766
vt1 0.445801 0.014160
vt1 0.442627 0.011230
vt1 0.446777 0.161133
vt1 0.443848 0.160645
vt1 0.466064 0.162598
vt1 0.468994 0.163086
vt1 0.443848 0.477539
vt1 0.440918 0.478027
vt1 0.445312 0.479492
vt1 0.470215 0.480469
vt1 0.472900 0.478027
vt1 0.468262 0.479492
vt1 0.464111 0.485352
vt1 0.260742 0.142090
vt1 0.288818 0.151855
vt1 0.291504 0.177734
vt1 0.250244 0.113281
vt1 0.304688 0.196777
vt1 0.248657 0.077637
vt1 0.316162 0.194336
vt1 0.272461 0.062988
vt1 0.265137 0.031738
vt1 0.344482 0.464844
vt1 0.323242 0.468750
vt1 0.326416 0.477539
vt1 0.290771 0.037598
vt1 0.298340 0.009277
vt1 0.347412 0.463379
vt1 0.343506 0.486328
vt1 0.346191 0.463867
vt1 0.317627 0.186523
vt1 0.347656 0.465820
vt1 0.366455 0.461426
vt1 0.385986 0.477539
vt1 0.317871 0.171387
vt1 0.364990 0.463379
vt1 0.367920 0.462891
vt1 0.389648 0.462402
vt1 0.353516 0.189941
vt1 0.366211 0.461914
vt1 0.342041 0.190918
vt1 0.336670 0.178711
vt1 0.355469 0.151855
vt1 0.363037 0.170410
vt1 0.390869 0.121582
vt1 0.350830 0.143555
vt1 0.370605 0.096680
vt1 0.392578 0.065918
vt1 0.301270 0.153809
vt1 0.355957 0.041992
vt1 0.365967 0.025879
vt1 0.334473 0.007812
vt1 0.274658 0.095703
vt1 0.281494 0.064453
vt1 0.359375 0.069336
vt1 0.344482 0.045898
vt1 0.322510 0.029297
vt1 0.297363 0.041016
vn 0.031496 0.881890 -0.472441
vn -0.149606 0.574803 0.803149
vn 0.062992 0.992126 -0.062992
vn 0.275591 0.960630 -0.047244
vn -0.023622 1.000000 0.031496
vn -0.007874 1.000000 -0.078740
vn -0.330709 0.850394 -0.409449
vn -0.023622 1.000000 -0.039370
vn 0.173228 0.952756 0.251968
vn 0.000000 0.889764 0.448819
vn -0.330709 0.858268 0.393701
vn -0.433071 0.874016 -0.212599
vn 0.952756 0.110236 0.291339
vn -0.354331 0.929134 0.110236
vn 0.913386 0.236220 -0.338583
vn 0.023622 1.000000 -0.031496
vn -0.015748 0.118110 -0.992126
vn 0.023622 1.000000 0.023622
vn 0.023622 0.125984 0.992126
vn 0.007874 0.795275 -0.606299
vn -0.015748 0.110236 -0.992126
vn 0.015748 1.000000 -0.015748
vn 0.007874 0.732283 0.685039
vn 0.023622 0.110236 0.992126
vn 0.023622 1.000000 0.015748
vn -0.984252 0.102362 0.125984
vn -0.472441 0.125984 0.874016
vn -0.503937 -0.322835 0.803150
vn -0.385827 0.291339 0.874016
vn -0.165354 -0.047244 0.984252
vn 0.023622 0.125984 0.992126
vn 0.094488 -0.102362 0.992126
vn 0.015748 -0.133858 0.992126
vn 0.283465 -0.488189 0.818898
vn 0.645669 -0.062992 0.763779
vn 0.015748 -0.157480 0.984252
vn 0.023622 0.110236 0.992126
vn -0.637795 0.133858 0.755905
vn 0.685039 -0.535433 0.488189
vn 0.968504 -0.086614 0.244094
vn -0.937008 -0.133858 0.330709
vn -0.984252 0.102362 0.125984
vn 0.031496 -0.653543 0.755905
vn 0.007874 -0.653543 0.755905
vn 0.015748 -1.000000 0.070866
vn -0.968504 -0.110236 -0.220472
vn -0.850394 0.141732 -0.503937
vn 0.015748 -1.000000 0.039370
vn 0.015748 -1.000000 -0.062992
vn -0.015748 -0.157480 -0.984252
vn -0.015748 0.110236 -0.992126
vn -0.015748 0.118110 -0.992126
vn 0.000000 -0.645669 -0.763779
vn -0.015748 -0.133858 -0.992126
vn 0.015748 -0.992126 -0.133858
vn -0.559055 -0.314961 -0.763779
vn -0.456693 0.291338 -0.842520
vn -0.377953 0.047244 -0.921260
vn -0.110236 -0.992126 -0.031496
vn -0.157480 -0.464567 -0.874016
vn 0.078740 -0.039370 -1.000000
vn -0.165354 -0.984252 0.047244
vn 0.480315 -0.472441 -0.740157
vn 0.614173 -0.125984 -0.779527
vn 0.937008 -0.086614 -0.330709
vn -0.070866 -0.866142 0.496063
vn 0.015748 -1.000000 0.031496
vn 0.015748 -0.992126 -0.102362
vn 0.007874 -1.000000 -0.039370
vn 0.763780 -0.629921 -0.141732
vn 0.125984 -0.992126 0.070866
tan 0.874946 -0.083328 -0.097216 1.000000
tan 0.806188 0.473619 -0.188790 1.000000
tan 0.992126 -0.066960 -0.062496 1.000000
tan 0.960630 -0.276707 -0.022692 1.000000
tan 1.000000 0.024862 -0.039370 1.000000
tan 1.000000 0.007254 -0.007874 1.000000
tan 0.837002 0.389981 0.133920 1.000000
tan 1.000000 0.023932 0.007874 1.000000
tan 0.952756 -0.189100 0.060016 1.000000
tan 0.879224 0.042408 -0.084072 1.000000
tan 0.847852 0.393701 -0.146072 1.000000
tan 0.874016 0.441441 0.034410 1.000000
tan 0.150660 -0.945254 -0.135036 1.000000
tan 0.929134 0.359539 -0.043896 1.000000
tan 0.307955 -0.894476 0.206708 1.000000
tan 1.000000 -0.024118 -0.015748 1.000000
tan 0.992126 -0.023436 -0.018538 1.000000
tan 1.000000 -0.023250 -0.015748 1.000000
tan 0.992126 -0.023436 -0.020646 1.000000
tan 0.974642 -0.031062 -0.028086 1.000000
tan 0.992126 0.046872 -0.010540 1.000000
tan 1.000000 -0.015996 -0.015748 1.000000
tan 0.902660 0.019468 -0.031186 1.000000
tan 0.992126 0.046872 -0.028830 1.000000
tan 1.000000 -0.023374 -0.015748 1.000000
tan 0.129704 0.961002 0.232500 1.000000
tan 0.846488 -0.227106 0.490297 1.000000
tan 0.774072 -0.218984 0.397669 1.000000
tan 0.757022 -0.433567 0.478703 1.000000
tan 0.968752 -0.178250 0.154194 1.000000
tan 0.984314 -0.132804 -0.006572 1.000000
tan 0.984314 0.124992 -0.080848 1.000000
tan 0.992126 -0.054684 -0.023126 1.000000
tan 0.766941 0.426809 -0.011036 1.000000
tan 0.764276 0.047182 -0.642197 1.000000
tan 0.930002 -0.310001 -0.064480 1.000000
tan 0.992126 -0.070308 -0.015810 1.000000
tan 0.742575 -0.124434 0.648583 1.000000
tan 0.673941 0.665695 -0.215574 1.000000
tan 0.158720 0.915122 -0.305041 1.000000
tan 0.332321 -0.649265 0.678777 1.000000
tan -0.060822 -0.938744 0.287557 1.000000
tan 0.835762 -0.384897 -0.367599 1.000000
tan 0.950772 -0.186682 -0.171306 1.000000
tan 0.992126 0.006696 -0.125984 1.000000
tan 0.217868 -0.785479 -0.564325 1.000000
tan 0.442805 -0.251721 -0.818029 1.000000
tan 1.000000 0.013578 -0.055118 1.000000
tan 1.000000 0.013764 0.031496 1.000000
tan 0.953252 -0.248000 0.024428 1.000000
tan 0.992126 -0.054684 -0.021824 1.000000
tan 0.984314 -0.117180 -0.029574 1.000000
tan 0.890260 -0.330771 0.279621 1.000000
tan 0.992126 -0.031248 -0.011532 1.000000
tan 0.992126 0.018910 -0.023436 1.000000
tan 0.756711 -0.141112 -0.495691 1.000000
tan 0.756278 -0.378139 -0.540703 1.000000
tan 0.899498 -0.210366 -0.379813 1.000000
tan 0.992126 -0.109244 -0.031248 1.000000
tan 0.874884 -0.149482 -0.078182 1.000000
tan 0.992126 0.118110 0.073470 1.000000
tan 0.984252 -0.165726 -0.007750 1.000000
tan 0.738793 0.384525 0.233988 1.000000
tan 0.778350 0.122388 0.593465 1.000000
tan 0.193130 0.880588 0.316572 1.000000
tan 0.800980 -0.307459 -0.422407 1.000000
tan 1.000000 0.016492 0.023622 1.000000
tan 0.992126 0.023002 -0.070308 1.000000
tan 1.000000 0.009424 -0.039370 1.000000
tan 0.636617 0.766011 0.026164 1.000000
tan 0.992126 0.127100 0.015624 1.000000
f 3/3/3 2/2/2 1/1/1
f 4/4/4 3/3/3 1/1/1
f 4/4/4 5/5/5 3/3/3
f 4/4/4 1/1/1 6/6/6
f 7/7/7 6/6/6 1/1/1
f 5/5/5 4/4/4 8/8/8
f 8/8/8 4/4/4 9/9/9
f 6/6/6 9/9/9 4/4/4
f 9/9/9 6/6/6 10/10/10
f 6/6/6 11/11/11 10/10/10
f 12/12/12 6/6/6 7/7/7
f 6/6/6 12/12/12 11/11/11
f 7/7/7 13/13/13 12/12/12
f 12/12/12 14/14/14 11/11/11
f 12/12/12 13/13/13 14/14/14
f 15/15/15 11/11/11 14/14/14
f 14/14/14 13/13/13 15/15/15
f 8/8/8 16/16/16 5/5/5
f 16/16/16 8/8/8 17/17/17
f 18/18/18 5/5/5 16/16/16
f 19/19/19 5/5/5 18/18/18
f 16/16/16 17/17/17 20/20/20
f 21/21/21 20/20/20 17/17/17
f 21/21/21 22/22/22 20/20/20
f 22/22/22 16/16/16 20/20/20
f 16/16/16 22/22/22 18/18/18
f 24/24/24 19/19/19 23/23/23
f 18/18/18 23/23/23 19/19/19
f 25/25/25 18/18/18 22/22/22
f 23/23/23 18/18/18 25/25/25
f 26/26/26 25/25/25 22/22/22
f 26/26/26 23/23/23 25/25/25
f 29/29/29 28/28/28 27/27/27
f 27/27/27 28/28/28 30/30/30
f 29/29/29 31/31/31 28/28/28
f 32/32/32 30/30/30 28/28/28
f 31/31/31 33/33/33 28/28/28
f 32/32/32 28/28/28 34/34/34
f 35/35/35 32/32/32 34/34/34
f 33/33/33 31/31/31 36/36/36
f 37/37/37 36/36/36 31/31/31
f 37/37/37 38/38/38 36/36/36
f 39/39/39 35/35/35 34/34/34
f 35/35/35 39/39/39 40/40/40
f 36/36/36 38/38/38 41/41/41
f 38/38/38 42/42/42 41/41/41
f 36/36/36 43/43/43 33/33/33
f 36/36/36 41/41/41 43/43/43
f 44/44/44 33/33/33 43/43/43
f 44/44/44 28/28/28 33/33/33
f 41/41/41 45/45/45 43/43/43
f 45/45/45 44/44/44 43/43/43
f 41/41/41 42/42/42 46/46/46
f 41/41/41 46/46/46 45/45/45
f 47/47/47 46/46/46 42/42/42
f 48/48/48 44/44/44 45/45/45
f 28/28/28 44/44/44 48/48/48
f 49/49/49 45/45/45 46/46/46
f 45/45/45 49/49/49 48/48/48
f 46/46/46 47/47/47 50/50/50
f 49/49/49 46/46/46 50/50/50
f 51/51/51 50/50/50 47/47/47
f 51/51/51 52/52/52 50/50/50
f 50/50/50 53/53/53 49/49/49
f 54/54/54 50/50/50 52/52/52
f 50/50/50 54/54/54 53/53/53
f 53/53/53 55/55/55 49/49/49
f 55/55/55 53/53/53 54/54/54
f 55/55/55 48/48/48 49/49/49
f 52/52/52 56/56/56 54/54/54
f 54/54/54 56/56/56 55/55/55
f 56/56/56 52/52/52 57/57/57
f 57/57/57 58/58/58 56/56/56
f 48/48/48 55/55/55 59/59/59
f 56/56/56 59/59/59 55/55/55
f 60/60/60 56/56/56 58/58/58
f 59/59/59 56/56/56 60/60/60
f 61/61/61 60/60/60 58/58/58
f 59/59/59 62/62/62 48/48/48
f 62/62/62 28/28/28 48/48/48
f 63/63/63 60/60/60 61/61/61
f 63/63/63 61/61/61 64/64/64
f 64/64/64 65/65/65 63/63/63
f 62/62/62 66/66/66 28/28/28
f 34/34/34 28/28/28 66/66/66
f 66/66/66 62/62/62 67/67/67
f 67/67/67 34/34/34 66/66/66
f 67/67/67 62/62/62 59/59/59
f 67/67/67 39/39/39 34/34/34
f 68/68/68 59/59/59 60/60/60
f 68/68/68 60/60/60 63/63/63
f 69/69/69 59/59/59 68/68/68
f 68/68/68 63/63/63 69/69/69
f 69/69/69 67/67/67 59/59/59
f 70/70/70 63/63/63 65/65/65
f 63/63/63 70/70/70 69/69/69
f 40/40/40 70/70/70 65/65/65
f 40/40/40 39/39/39 70/70/70
f 67/67/67 69/69/69 71/71/71
f 70/70/70 71/71/71 69/69/69
f 71/71/71 39/39/39 67/67/67
f 71/71/71 70/70/70 39/39/39
