mtllib SM_KitchenUstensil_Knife_LOD3.mtl
g SM_KitchenUstensil_Knife_LOD3
#Vertices 106
#Indices 285
#Section 0 Offset 0 NumIndices 285 MaterialIndex 0 MI_KitchenUstensil
v -0.245828 0.086970 0.007878
v -0.246047 0.062227 0.006431
v -0.245675 0.086327 -0.008385
v -0.245884 0.063782 -0.008814
v -0.074173 0.059646 0.003692
v -0.232580 0.059156 0.004205
v -0.232692 0.064819 0.011728
v -0.072920 0.066200 0.012317
v -0.230887 0.084015 0.011715
v -0.072640 0.085822 0.011220
v -0.072416 0.091576 0.006757
v -0.235069 0.091649 0.009037
v -0.075758 0.088926 -0.005868
v -0.231048 0.090143 -0.007678
v -0.231171 0.084650 -0.012075
v -0.073052 0.085014 -0.011705
v -0.230745 0.065930 -0.012176
v -0.075057 0.064934 -0.010855
v -0.234211 0.058453 -0.009971
v -0.075851 0.061378 -0.005644
v -0.074173 0.059646 0.003692
v -0.232580 0.059156 0.004205
v 0.239409 0.079010 -0.003796
v 0.313474 0.069011 -0.001396
v 0.313392 0.068938 0.001509
v 0.239216 0.079016 0.003808
v -0.055041 0.079095 -0.003754
v -0.066399 0.079087 0.003806
v 0.313474 0.069011 -0.001396
v 0.287274 0.045532 -0.000865
v 0.313392 0.068938 0.001509
v 0.287274 0.045532 0.000865
v 0.250121 0.026693 0.000817
v 0.174197 0.009001 -0.003243
v 0.171403 0.007926 0.003165
v 0.073910 0.009018 -0.000829
v 0.054880 0.010463 0.000813
v -0.018316 0.019804 0.000865
v -0.018316 0.019804 -0.000865
v -0.054898 0.025716 0.000603
v -0.018316 0.019804 0.000865
v -0.050470 0.046490 0.004243
v 0.054880 0.010463 0.000813
v -0.050145 0.040101 -0.003792
v 0.171403 0.007926 0.003165
v -0.065694 0.066098 -0.003296
v -0.065653 0.067724 0.003251
v -0.066399 0.079087 0.003806
v 0.239216 0.079016 0.003808
v 0.313392 0.068938 0.001509
v 0.287274 0.045532 0.000865
v 0.250121 0.026693 0.000817
v -0.066399 0.079087 0.003806
v -0.065694 0.066098 -0.003296
v -0.055041 0.079095 -0.003754
v -0.050145 0.040101 -0.003792
v -0.054898 0.025716 0.000603
v -0.018316 0.019804 -0.000865
v 0.073910 0.009018 -0.000829
v 0.174197 0.009001 -0.003243
v 0.239409 0.079010 -0.003796
v 0.313474 0.069011 -0.001396
v 0.287274 0.045532 -0.000865
v 0.250121 0.026693 0.000817
v -0.067711 0.050686 0.002630
v -0.074173 0.059646 0.003692
v -0.072920 0.066200 0.012317
v -0.065721 0.060207 0.013468
v -0.068316 0.090598 0.015319
v -0.072640 0.085822 0.011220
v -0.072416 0.091576 0.006757
v -0.068008 0.093721 -0.014197
v -0.075758 0.088926 -0.005868
v -0.073052 0.085014 -0.011705
v -0.074209 0.065058 -0.016354
v -0.066038 0.061785 -0.014887
v -0.075057 0.064934 -0.010855
v -0.067711 0.050686 0.002630
v -0.075851 0.061378 -0.005644
v -0.074173 0.059646 0.003692
v -0.067711 0.050686 0.002630
v -0.065721 0.060207 0.013468
v -0.066038 0.061785 -0.014887
v -0.063800 0.085010 -0.000281
v -0.068316 0.090598 0.015319
v -0.068008 0.093721 -0.014197
v -0.233881 0.052403 0.004577
v -0.232692 0.064819 0.011728
v -0.232580 0.059156 0.004205
v -0.235815 0.077362 0.019538
v -0.246047 0.062227 0.006431
v -0.245828 0.086970 0.007878
v -0.230887 0.084015 0.011715
v -0.235069 0.091649 0.009037
v -0.235094 0.098467 -0.002385
v -0.245675 0.086327 -0.008385
v -0.232114 0.092175 -0.014787
v -0.231048 0.090143 -0.007678
v -0.231171 0.084650 -0.012075
v -0.236745 0.075465 -0.020425
v -0.245884 0.063782 -0.008814
v -0.234211 0.058453 -0.009971
v -0.230745 0.065930 -0.012176
v -0.233881 0.052403 0.004577
v -0.246047 0.062227 0.006431
v -0.232580 0.059156 0.004205
vt 0.957031 0.545166
vt 0.958984 0.513916
vt 0.977539 0.544189
vt 0.978027 0.515869
vt 0.342041 0.535400
vt 0.340088 0.741699
vt 0.329346 0.740479
vt 0.329834 0.533936
vt 0.304443 0.736572
vt 0.302734 0.533691
vt 0.295166 0.533447
vt 0.295410 0.742188
vt 0.276855 0.536865
vt 0.275391 0.736816
vt 0.267090 0.736328
vt 0.266357 0.534912
vt 0.242432 0.736572
vt 0.239868 0.536377
vt 0.232788 0.741699
vt 0.231079 0.537354
vt 0.220093 0.536133
vt 0.216797 0.740479
vt 0.564941 0.396484
vt 0.556641 0.484375
vt 0.554199 0.483398
vt 0.555664 0.396973
vt 0.556641 0.024902
vt 0.546387 0.010742
vt 0.556152 0.486816
vt 0.520996 0.461426
vt 0.555664 0.484863
vt 0.522461 0.459961
vt 0.490723 0.416016
vt 0.461914 0.319824
vt 0.465332 0.315430
vt 0.459961 0.191406
vt 0.463867 0.167480
vt 0.473389 0.075195
vt 0.471191 0.075195
vt 0.478027 0.032715
vt 0.473389 0.075195
vt 0.506348 0.032715
vt 0.463623 0.167480
vt 0.493652 0.025391
vt 0.462158 0.315918
vt 0.525879 0.006836
vt 0.532227 0.011230
vt 0.547363 0.011230
vt 0.554688 0.395996
vt 0.556152 0.484863
vt 0.522461 0.459961
vt 0.489990 0.416016
vt 0.557617 0.010742
vt 0.573242 0.011719
vt 0.557129 0.024902
vt 0.606934 0.029785
vt 0.625488 0.023926
vt 0.633789 0.070312
vt 0.650879 0.187500
vt 0.654785 0.318359
vt 0.564453 0.396484
vt 0.556641 0.485840
vt 0.591797 0.460449
vt 0.627930 0.418945
vt 0.349854 0.528320
vt 0.341309 0.537598
vt 0.328369 0.531250
vt 0.335693 0.521973
vt 0.300781 0.522461
vt 0.303223 0.531250
vt 0.291992 0.529297
vt 0.273682 0.521484
vt 0.276611 0.535645
vt 0.267090 0.531250
vt 0.241821 0.529053
vt 0.237793 0.520996
vt 0.239624 0.535156
vt 0.216675 0.527344
vt 0.230835 0.537598
vt 0.218994 0.537598
vt 0.979004 0.450195
vt 0.992188 0.462402
vt 0.956543 0.464355
vt 0.975098 0.493652
vt 0.995605 0.501221
vt 0.957031 0.505127
vt 0.340576 0.749756
vt 0.325684 0.743896
vt 0.338135 0.742432
vt 0.310791 0.747559
vt 0.328613 0.764038
vt 0.295410 0.760376
vt 0.302734 0.738770
vt 0.294434 0.742676
vt 0.282959 0.745850
vt 0.271973 0.760010
vt 0.272461 0.743408
vt 0.274902 0.739258
vt 0.267334 0.739258
vt 0.256348 0.748047
vt 0.242554 0.761841
vt 0.237305 0.744385
vt 0.244751 0.740234
vt 0.219482 0.749023
vt 0.223755 0.767822
vt 0.221191 0.744873
vt1 0.519531 0.876892
vt1 0.520996 0.847046
vt1 0.539062 0.876099
vt1 0.539551 0.848999
vt1 0.643555 0.489258
vt1 0.640625 0.687988
vt1 0.630371 0.686523
vt1 0.632324 0.488281
vt1 0.606934 0.682373
vt1 0.605957 0.488281
vt1 0.599121 0.487793
vt1 0.598633 0.687500
vt1 0.581543 0.491211
vt1 0.579102 0.682373
vt1 0.571289 0.682129
vt1 0.571289 0.489258
vt1 0.547852 0.682373
vt1 0.545898 0.490234
vt1 0.538086 0.687500
vt1 0.538086 0.491211
vt1 0.527344 0.489258
vt1 0.523438 0.686768
vt1 0.613281 0.383789
vt1 0.606934 0.462891
vt1 0.604980 0.462402
vt1 0.604492 0.384277
vt1 0.604004 0.026855
vt1 0.594238 0.013672
vt1 0.606445 0.466309
vt1 0.572754 0.441406
vt1 0.606445 0.464844
vt1 0.574219 0.439941
vt1 0.544434 0.400391
vt1 0.515137 0.309082
vt1 0.518555 0.304688
vt1 0.512695 0.186035
vt1 0.516113 0.163574
vt1 0.524414 0.075195
vt1 0.522461 0.074707
vt1 0.529297 0.032715
vt1 0.524414 0.075195
vt1 0.555664 0.034668
vt1 0.516113 0.163574
vt1 0.544922 0.028320
vt1 0.516113 0.306152
vt1 0.573730 0.010742
vt1 0.580566 0.014648
vt1 0.594727 0.013672
vt1 0.604492 0.383789
vt1 0.606934 0.464844
vt1 0.574219 0.439941
vt1 0.543945 0.400879
vt1 0.604492 0.013184
vt1 0.619629 0.013672
vt1 0.604492 0.026855
vt1 0.651855 0.031250
vt1 0.669922 0.025391
vt1 0.678223 0.069336
vt1 0.695312 0.181641
vt1 0.698242 0.306641
vt1 0.612305 0.384277
vt1 0.606934 0.465332
vt1 0.640137 0.440918
vt1 0.672852 0.401855
vt1 0.649414 0.482422
vt1 0.642090 0.491211
vt1 0.629883 0.485840
vt1 0.636719 0.477051
vt1 0.604004 0.477539
vt1 0.606445 0.485840
vt1 0.595703 0.484375
vt1 0.578613 0.476562
vt1 0.581055 0.490234
vt1 0.572266 0.485840
vt1 0.548340 0.483398
vt1 0.544434 0.476074
vt1 0.546387 0.489258
vt1 0.525391 0.480957
vt1 0.538086 0.491211
vt1 0.526855 0.490723
vt1 0.444580 0.820923
vt1 0.457520 0.832764
vt1 0.423340 0.834595
vt1 0.440918 0.862549
vt1 0.460449 0.869751
vt1 0.423584 0.873657
vt1 0.640137 0.695557
vt1 0.626465 0.689453
vt1 0.638184 0.688721
vt1 0.612793 0.692383
vt1 0.628418 0.708252
vt1 0.598145 0.704346
vt1 0.604980 0.684326
vt1 0.597168 0.687744
vt1 0.586426 0.690674
vt1 0.576172 0.703857
vt1 0.576660 0.688477
vt1 0.579102 0.684326
vt1 0.571777 0.684570
vt1 0.561523 0.692627
vt1 0.548828 0.705811
vt1 0.543945 0.689697
vt1 0.550781 0.685547
vt1 0.527344 0.694824
vt1 0.531738 0.711670
vt1 0.528809 0.690674
vn -0.944882 0.125984 0.299213
vn -0.984252 -0.094488 0.157480
vn -0.960630 0.094488 -0.251968
vn -0.929134 -0.141732 -0.346457
vn 0.086614 -0.976378 0.196850
vn -0.086614 -0.968504 0.228347
vn -0.070866 -0.251968 0.968504
vn 0.070866 -0.070866 0.992126
vn -0.070866 0.118110 0.992126
vn 0.078740 0.212599 0.976378
vn 0.094488 0.944882 0.322834
vn -0.086614 0.913386 0.393701
vn 0.086614 0.952756 -0.299213
vn -0.086614 0.913386 -0.393701
vn -0.070866 0.212598 -0.976378
vn 0.070866 0.110236 -0.992126
vn -0.070866 -0.094488 -0.992126
vn 0.070866 -0.204724 -0.976378
vn -0.094488 -0.897638 -0.433071
vn 0.086614 -0.952756 -0.299212
vn 0.086614 -0.984252 0.125984
vn -0.086614 -0.984252 0.133858
vn 0.023622 1.000000 -0.000000
vn 0.212598 0.976378 -0.000000
vn 0.212598 0.976378 -0.000000
vn 0.015748 1.000000 -0.000000
vn 0.000000 1.000000 -0.000000
vn 0.000000 1.000000 -0.000000
vn 0.748031 -0.661417 0.000000
vn 0.543307 -0.834646 0.000000
vn 0.748031 -0.669291 0.000000
vn 0.543307 -0.834646 0.000000
vn 0.322835 -0.944882 0.000000
vn 0.125984 -0.992126 0.000000
vn 0.078740 -1.000000 0.000000
vn -0.055118 -1.000000 0.000000
vn -0.078740 -1.000000 0.000000
vn -0.165354 -0.984252 0.000000
vn -0.165354 -0.984252 0.000000
vn -0.196850 -0.275590 0.937008
vn -0.023622 -0.173228 0.984252
vn -0.031496 -0.031496 1.000000
vn -0.007874 -0.165354 0.984252
vn -0.055118 0.015748 -1.000000
vn 0.007874 -0.102362 0.992126
vn -0.393701 -0.496063 -0.779527
vn -0.346457 -0.401575 0.850394
vn -0.015748 0.000000 1.000000
vn 0.000000 0.007874 1.000000
vn 0.039370 0.007874 1.000000
vn 0.102362 -0.188976 0.976378
vn 0.070866 -0.212598 0.976378
vn -0.007874 -0.031496 -1.000000
vn -0.322835 -0.417323 -0.850394
vn -0.007874 0.007874 -1.000000
vn -0.031496 -0.055118 -1.000000
vn -0.196850 -0.283465 -0.937008
vn -0.023622 -0.173228 -0.984252
vn -0.007874 -0.165354 -0.984252
vn 0.007874 -0.102362 -0.992126
vn 0.000000 0.007874 -1.000000
vn 0.039370 0.007874 -1.000000
vn 0.102362 -0.188976 -0.976378
vn 0.070866 -0.212599 -0.976378
vn 0.330709 -0.944882 0.070866
vn -0.921260 -0.385827 0.007874
vn -0.629921 -0.141732 0.763779
vn 0.677165 -0.409449 0.614173
vn 0.480315 0.425197 0.763779
vn -0.842520 0.220472 0.496063
vn -0.598425 0.748031 0.291338
vn 0.574803 0.496063 -0.653543
vn -0.976378 0.212598 -0.062992
vn -0.850394 0.141732 -0.503937
vn -0.543307 -0.141732 -0.826772
vn 0.669291 -0.362205 -0.645669
vn -0.944882 -0.078740 -0.307087
vn 0.259843 -0.960630 0.047244
vn -0.984252 -0.173228 -0.062992
vn -0.937008 -0.354331 0.047244
vn 0.322835 -0.944882 -0.023622
vn 0.874016 -0.220472 0.433071
vn 0.850394 -0.181102 -0.496063
vn 1.000000 0.007874 -0.015748
vn 0.551181 0.362205 0.748031
vn 0.543307 0.503937 -0.677165
vn -0.196850 -0.960630 0.188976
vn 0.889764 -0.125984 0.440945
vn 0.944882 -0.322835 0.039370
vn -0.322835 0.023622 0.944882
vn -0.826772 -0.354331 0.440945
vn -0.779528 0.456693 0.425197
vn 0.952756 0.039370 0.299213
vn 0.779528 0.503937 0.370079
vn -0.330709 0.944882 -0.039370
vn -0.795276 0.338583 -0.503937
vn 0.669291 0.503937 -0.543307
vn 0.921260 0.370079 -0.149606
vn 0.937008 0.086614 -0.338583
vn -0.377953 -0.141732 -0.913386
vn -0.811024 -0.322835 -0.480315
vn 0.811024 -0.440945 -0.385827
vn 0.937008 -0.062992 -0.338583
vn -0.165354 -0.976378 0.133858
vn -0.700787 -0.677165 0.220472
vn 0.905512 -0.409449 0.055118
tan -0.165044 -0.939798 -0.125488 1.000000
tan 0.103168 -0.984252 0.054250 1.000000
tan -0.119536 -0.953066 0.098332 1.000000
tan 0.196788 -0.919958 -0.151404 1.000000
tan 0.974828 0.088164 0.008370 1.000000
tan 0.955050 -0.042098 0.183706 1.000000
tan 0.968504 0.083886 0.092690 1.000000
tan 0.992126 -0.023436 -0.072540 1.000000
tan 0.992126 0.062496 0.063426 1.000000
tan 0.976378 -0.000000 -0.078740 1.000000
tan 0.944882 -0.107198 0.037200 1.000000
tan 0.916486 0.099014 -0.028086 1.000000
tan 0.952756 -0.088970 -0.007502 1.000000
tan 0.913386 0.092814 0.014384 1.000000
tan 0.976378 0.023064 -0.065844 1.000000
tan 0.992126 -0.015624 0.069130 1.000000
tan 0.992126 0.062496 -0.076818 1.000000
tan 0.976378 -0.015376 0.074090 1.000000
tan 0.907868 -0.091078 -0.009300 1.000000
tan 0.955112 0.107818 -0.066836 1.000000
tan 0.984252 0.079670 -0.054250 1.000000
tan 0.984252 -0.092938 -0.046500 1.000000
tan -1.000000 0.023622 -0.015748 1.000000
tan -0.907186 0.197532 0.369025 1.000000
tan -0.937938 0.204228 0.284457 1.000000
tan -1.000000 0.015748 -0.007874 1.000000
tan -1.000000 0.000000 0.000000 1.000000
tan -1.000000 0.000000 0.000000 1.000000
tan -0.624961 -0.706801 0.305785 1.000000
tan -0.716349 -0.466303 0.497613 1.000000
tan -0.637671 -0.712691 0.300391 1.000000
tan -0.709777 -0.462025 0.497613 1.000000
tan -0.900242 -0.307583 0.290161 1.000000
tan -0.953066 -0.121024 0.281233 1.000000
tan -1.000000 -0.078740 0.062992 1.000000
tan -1.000000 0.055118 0.007874 1.000000
tan -1.000000 0.078740 -0.039370 1.000000
tan -0.945502 0.158844 -0.263501 1.000000
tan -0.976502 0.164052 -0.124000 1.000000
tan -0.922252 -0.177072 -0.245830 1.000000
tan -0.985616 0.046686 -0.015438 1.000000
tan -1.000000 0.039370 -0.030256 1.000000
tan -0.984252 0.031000 -0.002666 1.000000
tan 0.992126 0.094488 -0.053196 1.000000
tan -0.992126 0.054684 0.013516 1.000000
tan 0.210924 0.751937 -0.585033 1.000000
tan -0.762973 -0.382913 -0.491661 1.000000
tan -1.000000 -0.000000 -0.015748 1.000000
tan -1.000000 0.055118 -0.000434 1.000000
tan -0.968504 0.259842 0.036084 1.000000
tan -0.947114 0.237522 0.145266 1.000000
tan -0.961002 0.176824 0.108252 1.000000
tan -1.000000 -0.015748 0.008370 1.000000
tan -0.843574 -0.135532 0.386757 1.000000
tan -1.000000 -0.031496 0.007626 1.000000
tan -1.000000 -0.031496 0.033232 1.000000
tan -0.939240 -0.042718 0.210242 1.000000
tan -0.985616 -0.023064 0.027714 1.000000
tan -0.984252 -0.007750 0.009176 1.000000
tan -0.992126 0.039060 -0.011904 1.000000
tan -1.000000 0.062992 0.000496 1.000000
tan -0.976378 0.220472 -0.036704 1.000000
tan -0.939426 0.268274 -0.150412 1.000000
tan -0.953314 0.215264 -0.116064 1.000000
tan 0.907124 0.337219 0.263004 1.000000
tan 0.367041 -0.870420 0.293199 1.000000
tan 0.769360 -0.018786 0.631037 1.000000
tan 0.714117 0.287308 -0.595821 1.000000
tan 0.835452 -0.082522 -0.479447 1.000000
tan 0.537727 0.218923 0.815984 1.000000
tan 0.796888 0.586583 0.130758 1.000000
tan 0.796144 -0.225680 0.528923 1.000000
tan 0.221588 0.937938 -0.269081 1.000000
tan 0.524397 0.194184 -0.830306 1.000000
tan 0.826772 0.006510 -0.544423 1.000000
tan 0.713745 0.178622 0.639655 1.000000
tan 0.317875 -0.245521 -0.915122 1.000000
tan 0.953066 0.252216 -0.113460 1.000000
tan 0.183520 -0.930002 -0.310000 1.000000
tan 0.346705 -0.929630 -0.095914 1.000000
tan -0.945068 -0.324695 0.071858 1.000000
tan -0.297105 -0.907930 0.137392 1.000000
tan -0.314217 -0.886664 -0.214954 1.000000
tan 0.007626 -1.000000 -0.015748 1.000000
tan 0.349123 -0.859322 0.158844 1.000000
tan 0.485089 -0.755595 -0.173104 1.000000
tan 0.900118 -0.117490 0.340381 1.000000
tan 0.457809 0.217186 -0.861740 1.000000
tan 0.324261 0.930002 -0.156240 1.000000
tan 0.944882 0.029760 0.322091 1.000000
tan 0.543617 -0.309009 0.770972 1.000000
tan 0.623845 0.607663 0.491041 1.000000
tan 0.301817 -0.120032 -0.945254 1.000000
tan 0.625147 -0.619939 -0.472627 1.000000
tan 0.945192 0.329779 -0.024924 1.000000
tan 0.604315 0.356935 -0.713869 1.000000
tan 0.730485 -0.518445 0.418997 1.000000
tan 0.399095 -0.884990 0.268399 1.000000
tan 0.348999 -0.199206 0.914874 1.000000
tan 0.917850 0.038440 -0.385765 1.000000
tan 0.577345 -0.376775 -0.721619 1.000000
tan 0.581561 0.558621 0.584041 1.000000
tan 0.343481 0.191828 0.914874 1.000000
tan 0.961002 -0.185938 -0.169136 1.000000
tan 0.690929 -0.700477 0.044702 1.000000
tan 0.413355 0.905512 -0.064170 1.000000
f 3/3/3 2/2/2 1/1/1
f 2/2/2 3/3/3 4/4/4
f 7/7/7 6/6/6 5/5/5
f 8/8/8 7/7/7 5/5/5
f 9/9/9 7/7/7 8/8/8
f 9/9/9 8/8/8 10/10/10
f 10/10/10 11/11/11 9/9/9
f 12/12/12 9/9/9 11/11/11
f 12/12/12 11/11/11 13/13/13
f 14/14/14 12/12/12 13/13/13
f 13/13/13 15/15/15 14/14/14
f 15/15/15 13/13/13 16/16/16
f 16/16/16 17/17/17 15/15/15
f 18/18/18 17/17/17 16/16/16
f 18/18/18 19/19/19 17/17/17
f 20/20/20 19/19/19 18/18/18
f 20/20/20 21/21/21 19/19/19
f 22/22/22 19/19/19 21/21/21
f 25/25/25 24/24/24 23/23/23
f 26/26/26 25/25/25 23/23/23
f 26/26/26 23/23/23 27/27/27
f 28/28/28 26/26/26 27/27/27
f 31/31/31 30/30/30 29/29/29
f 30/30/30 31/31/31 32/32/32
f 32/32/32 33/33/33 30/30/30
f 35/35/35 34/34/34 33/33/33
f 35/35/35 36/36/36 34/34/34
f 35/35/35 37/37/37 36/36/36
f 37/37/37 38/38/38 36/36/36
f 38/38/38 39/39/39 36/36/36
f 38/38/38 40/40/40 39/39/39
f 42/42/42 40/40/40 41/41/41
f 42/42/42 41/41/41 43/43/43
f 44/44/44 40/40/40 42/42/42
f 43/43/43 45/45/45 42/42/42
f 44/44/44 47/47/47 46/46/46
f 42/42/42 47/47/47 44/44/44
f 47/47/47 42/42/42 48/48/48
f 48/48/48 42/42/42 45/45/45
f 49/49/49 48/48/48 45/45/45
f 49/49/49 45/45/45 50/50/50
f 51/51/51 50/50/50 45/45/45
f 45/45/45 52/52/52 51/51/51
f 55/55/55 54/54/54 53/53/53
f 54/54/54 55/55/55 56/56/56
f 58/58/58 57/57/57 56/56/56
f 59/59/59 58/58/58 56/56/56
f 59/59/59 56/56/56 60/60/60
f 60/60/60 56/56/56 55/55/55
f 61/61/61 60/60/60 55/55/55
f 60/60/60 61/61/61 62/62/62
f 63/63/63 60/60/60 62/62/62
f 60/60/60 63/63/63 64/64/64
f 67/67/67 66/66/66 65/65/65
f 67/67/67 65/65/65 68/68/68
f 68/68/68 69/69/69 67/67/67
f 69/69/69 70/70/70 67/67/67
f 69/69/69 71/71/71 70/70/70
f 71/71/71 69/69/69 72/72/72
f 74/74/74 73/73/73 71/71/71
f 72/72/72 74/74/74 71/71/71
f 74/74/74 72/72/72 75/75/75
f 76/76/76 75/75/75 72/72/72
f 77/77/77 74/74/74 75/75/75
f 76/76/76 78/78/78 75/75/75
f 75/75/75 78/78/78 77/77/77
f 79/79/79 77/77/77 78/78/78
f 78/78/78 80/80/80 79/79/79
f 83/83/83 82/82/82 81/81/81
f 83/83/83 84/84/84 82/82/82
f 84/84/84 85/85/85 82/82/82
f 84/84/84 83/83/83 86/86/86
f 85/85/85 84/84/84 86/86/86
f 89/89/89 88/88/88 87/87/87
f 88/88/88 90/90/90 87/87/87
f 90/90/90 91/91/91 87/87/87
f 90/90/90 92/92/92 91/91/91
f 94/94/94 88/88/88 93/93/93
f 94/94/94 90/90/90 88/88/88
f 95/95/95 92/92/92 90/90/90
f 95/95/95 90/90/90 94/94/94
f 96/96/96 92/92/92 95/95/95
f 95/95/95 94/94/94 97/97/97
f 97/97/97 94/94/94 98/98/98
f 98/98/98 99/99/99 97/97/97
f 95/95/95 100/100/100 96/96/96
f 97/97/97 100/100/100 95/95/95
f 101/101/101 96/96/96 100/100/100
f 97/97/97 99/99/99 102/102/102
f 97/97/97 102/102/102 100/100/100
f 103/103/103 102/102/102 99/99/99
f 104/104/104 101/101/101 100/100/100
f 102/102/102 104/104/104 100/100/100
f 104/104/104 105/105/105 101/101/101
f 106/106/106 104/104/104 102/102/102
