mtllib SM_Magnets_03_LOD1.mtl
g SM_Magnets_03_LOD1
#Vertices 14
#Indices 36
#Section 0 Offset 0 NumIndices 36 MaterialIndex 0 MI_Magnets
v 0.050000 -0.000012 -0.033226
v 0.016667 0.001886 -0.050000
v 0.050000 0.001886 -0.050000
v -0.050000 -0.000012 -0.033226
v -0.016667 0.001886 -0.050000
v -0.050000 0.001886 -0.050000
v 0.050000 -0.001886 0.000000
v -0.050000 -0.001886 0.000000
v 0.050000 -0.000012 0.033226
v -0.050000 -0.000012 0.033226
v -0.016667 0.001886 0.050000
v -0.050000 0.001886 0.050000
v 0.016667 0.001886 0.050000
v 0.050000 0.001886 0.050000
vt 0.999512 0.206543
vt 0.938965 0.175781
vt 0.999512 0.175781
vt 0.817871 0.206543
vt 0.878418 0.175781
vt 0.817871 0.175781
vt 0.999512 0.267090
vt 0.817871 0.267090
vt 0.999512 0.327637
vt 0.817871 0.327637
vt 0.878418 0.358398
vt 0.817871 0.358398
vt 0.938965 0.358398
vt 1.000000 0.358398
vt1 0.988281 0.173828
vt1 0.661621 0.008301
vt1 0.988281 0.008301
vt1 0.008064 0.173828
vt1 0.334717 0.008301
vt1 0.008064 0.008301
vt1 0.988770 0.500000
vt1 0.008087 0.500244
vt1 0.988770 0.826416
vt1 0.008118 0.826416
vt1 0.334961 0.991920
vt1 0.008125 0.991936
vt1 0.661621 0.991890
vt1 0.988770 0.991875
vn 0.000000 1.000000 0.078740
vn 0.000000 0.992126 0.110236
vn 0.000000 0.992126 0.110236
vn 0.000000 1.000000 0.078740
vn 0.000000 0.992126 0.110236
vn 0.000000 0.992126 0.110236
vn 0.000000 1.000000 -0.000000
vn 0.000000 1.000000 -0.000000
vn 0.000000 1.000000 -0.078740
vn 0.000000 1.000000 -0.078740
vn 0.000000 0.992126 -0.110236
vn 0.000000 0.992126 -0.110236
vn 0.000000 0.992126 -0.110236
vn 0.000000 0.992126 -0.110236
tan 0.000000 0.078740 -1.000000 1.000000
tan 0.000000 0.110236 -0.992126 1.000000
tan 0.000000 0.110236 -0.992126 1.000000
tan 0.000000 0.078740 -1.000000 1.000000
tan 0.000000 0.110236 -0.992126 1.000000
tan 0.000000 0.110236 -0.992126 1.000000
tan 0.000000 -0.000000 -1.000000 1.000000
tan 0.000000 -0.000000 -1.000000 1.000000
tan 0.000000 -0.078740 -1.000000 1.000000
tan 0.000000 -0.078740 -1.000000 1.000000
tan 0.000000 -0.110236 -0.992126 1.000000
tan 0.000000 -0.110236 -0.992126 1.000000
tan 0.000000 -0.110236 -0.992126 1.000000
tan 0.000000 -0.110236 -0.992126 1.000000
f 3/3/3 2/2/2 1/1/1
f 4/4/4 1/1/1 2/2/2
f 4/4/4 2/2/2 5/5/5
f 5/5/5 6/6/6 4/4/4
f 4/4/4 7/7/7 1/1/1
f 7/7/7 4/4/4 8/8/8
f 8/8/8 9/9/9 7/7/7
f 9/9/9 8/8/8 10/10/10
f 12/12/12 11/11/11 10/10/10
f 9/9/9 10/10/10 11/11/11
f 11/11/11 13/13/13 9/9/9
f 13/13/13 14/14/14 9/9/9
