mtllib SM_Magnets_13_LOD4.mtl
g SM_Magnets_13_LOD4
#Vertices 8
#Indices 12
#Section 0 Offset 0 NumIndices 12 MaterialIndex 0 MI_Magnets
v 0.046960 0.002562 -0.046894
v -0.048910 0.002348 0.048496
v -0.050091 0.002028 -0.048224
v 0.049265 0.002043 0.048613
v 0.049265 0.002043 0.048613
v 0.046960 0.002562 -0.046894
v 0.049248 -0.002906 -0.048369
v -0.050091 0.002028 -0.048224
vt 0.807617 0.184082
vt 0.634277 0.009766
vt 0.809082 0.006836
vt 0.633301 0.187988
vt 0.632324 0.188477
vt 0.809082 0.184570
vt 0.814453 0.189941
vt 0.811523 0.006836
vt1 0.928223 0.926880
vt1 0.059174 0.057129
vt1 0.937500 0.041992
vt1 0.053406 0.947296
vt1 0.049316 0.949646
vt1 0.935547 0.929932
vt1 0.964355 0.957001
vt1 0.949219 0.041992
vn 0.000000 1.000000 -0.000000
vn 0.000000 1.000000 -0.000000
vn 0.000000 1.000000 -0.000000
vn 0.000000 1.000000 -0.000000
vn 0.622047 0.377953 0.685039
vn 0.787402 0.401575 -0.472441
vn 0.637795 0.433071 -0.629921
vn -0.811024 0.338583 -0.480315
tan -1.000000 -0.000000 -0.015748 1.000000
tan -1.000000 -0.000000 -0.015748 1.000000
tan -1.000000 0.000000 0.031496 1.000000
tan -1.000000 -0.000000 -0.023622 1.000000
tan -0.759811 0.268027 0.542067 1.000000
tan -0.606361 0.649761 -0.458305 1.000000
tan -0.752371 0.425631 -0.469155 1.000000
tan -0.583235 -0.562899 0.588009 1.000000
f 3/3/3 2/2/2 1/1/1
f 4/4/4 1/1/1 2/2/2
f 7/7/7 6/6/6 5/5/5
f 7/7/7 8/8/8 6/6/6
