mtllib SM_Magnets_01_LOD1.mtl
g SM_Magnets_01_LOD1
#Vertices 30
#Indices 147
#Section 0 Offset 0 NumIndices 147 MaterialIndex 0 MI_Magnets
v 0.028166 -0.003974 -0.065636
v 0.064544 -0.004514 -0.026246
v 0.040101 0.003119 -0.059943
v -0.027710 -0.003839 -0.065145
v 0.069101 0.001500 -0.012288
v 0.068433 -0.004543 0.010909
v 0.000000 0.004543 -0.064840
v 0.061753 0.001603 0.031695
v 0.053235 -0.004514 0.044950
v 0.058568 0.004544 -0.029891
v 0.040432 0.001817 0.055650
v 0.006475 -0.003976 0.071128
v 0.064454 0.004545 0.010385
v 0.052456 0.004543 0.038112
v 0.029468 0.004544 -0.058255
v 0.029426 0.004543 0.058268
v -0.031564 0.004542 -0.057495
v -0.060979 0.002034 -0.037545
v -0.065132 -0.003996 -0.028930
v -0.059940 0.004548 -0.027725
v -0.068843 0.002039 0.011043
v -0.065421 -0.004543 0.021257
v -0.064451 0.004544 0.010399
v -0.055650 0.001817 0.040432
v -0.044688 -0.004515 0.053474
v -0.052456 0.004543 0.038112
v -0.029331 0.002018 0.063199
v -0.031366 0.004546 0.057555
v 0.000000 0.004543 0.064840
v 0.010675 0.001732 0.068782
vt 0.521484 -0.000977
vt 0.605957 0.063965
vt 0.540527 0.016113
vt 0.414307 0.018555
vt 0.608398 0.094238
vt 0.625488 0.136719
vt 0.468506 0.020020
vt 0.607910 0.176758
vt 0.605957 0.208984
vt 0.583496 0.066406
vt 0.576172 0.225586
vt 0.520996 0.274414
vt 0.605469 0.136719
vt 0.591797 0.189941
vt 0.522949 0.023438
vt 0.556152 0.232422
vt 0.414062 0.042480
vt 0.365479 0.086426
vt 0.349854 0.100586
vt 0.371582 0.103516
vt 0.365723 0.176270
vt 0.364014 0.199219
vt 0.374268 0.173340
vt 0.397461 0.225586
vt 0.414795 0.255859
vt 0.403809 0.219727
vt 0.451660 0.258789
vt 0.447021 0.248535
vt 0.505371 0.252441
vt 0.525879 0.258789
vt1 0.624023 0.002930
vt1 0.930176 0.238281
vt1 0.694336 0.065430
vt1 0.237671 0.075195
vt1 0.939453 0.347168
vt1 1.000977 0.501953
vt1 0.433594 0.080566
vt1 0.937012 0.645020
vt1 0.929688 0.762573
vt1 0.848145 0.247070
vt1 0.822266 0.822998
vt1 0.623535 0.997623
vt1 0.927734 0.501221
vt1 0.878418 0.693115
vt1 0.630859 0.092773
vt1 0.750000 0.847168
vt1 0.236816 0.160156
vt1 0.061432 0.319336
vt1 0.005199 0.370117
vt1 0.083557 0.382324
vt1 0.061707 0.644775
vt1 0.056183 0.726074
vt1 0.093384 0.633301
vt1 0.177002 0.822754
vt1 0.239380 0.931396
vt1 0.199341 0.800537
vt1 0.372314 0.942078
vt1 0.355713 0.904724
vt1 0.565918 0.919800
vt1 0.641602 0.941711
vn 0.393701 0.015748 -0.921260
vn 0.921260 -0.000000 -0.377953
vn 0.488189 0.385827 -0.779527
vn -0.370079 0.039370 -0.929134
vn 0.929134 0.338583 -0.157480
vn 0.984252 0.000000 0.157480
vn 0.000000 0.992126 -0.086614
vn 0.834646 0.354331 0.417323
vn 0.763780 0.000000 0.645669
vn 0.078740 1.000000 -0.039370
vn 0.543307 0.370079 0.748031
vn 0.086614 0.015748 0.992126
vn 0.086614 0.992126 0.007874
vn 0.070866 0.992126 0.055118
vn 0.039370 0.992126 -0.078740
vn 0.039370 0.992126 0.078740
vn -0.047244 0.992126 -0.078740
vn -0.787402 0.362205 -0.496063
vn -0.913386 0.015748 -0.401575
vn -0.086614 0.992126 -0.039370
vn -0.897638 0.409449 0.141732
vn -0.952756 0.000000 0.307087
vn -0.086614 0.992126 0.015748
vn -0.748031 0.370079 0.543307
vn -0.645669 0.000000 0.763779
vn -0.070866 0.992126 0.055118
vn -0.377953 0.409449 0.826771
vn -0.047244 0.992126 0.078740
vn 0.000000 0.992126 0.086614
vn 0.157480 0.330709 0.929134
tan -0.326183 -0.869428 -0.154256 1.000000
tan -0.342241 -0.391717 -0.834211 1.000000
tan -0.466799 -0.633827 -0.606051 1.000000
tan 0.702027 -0.610143 -0.305475 1.000000
tan -0.048732 -0.279249 -0.887904 1.000000
tan 0.157480 -0.085250 -0.984252 1.000000
tan 0.140616 -0.085932 -0.984314 1.000000
tan 0.337715 0.187302 -0.834460 1.000000
tan 0.640585 0.115630 -0.757765 1.000000
tan 0.204724 -0.054560 -0.976378 1.000000
tan 0.457065 0.617273 -0.637361 1.000000
tan 0.328105 0.937442 -0.043524 1.000000
tan 0.171864 -0.007254 -0.976502 1.000000
tan 0.124992 0.045756 -0.984314 1.000000
tan 0.171864 -0.084320 -0.976502 1.000000
tan 0.148428 0.072230 -0.984314 1.000000
tan 0.117180 -0.072540 -0.984314 1.000000
tan 0.425507 -0.183272 -0.809225 1.000000
tan 0.396553 -0.107880 -0.906194 1.000000
tan 0.140616 -0.026784 -0.984314 1.000000
tan -0.001736 0.293136 -0.857834 1.000000
tan -0.275653 0.424949 -0.855230 1.000000
tan 0.195300 0.032550 -0.976502 1.000000
tan -0.290471 0.526071 -0.758261 1.000000
tan -0.679583 0.441689 -0.574493 1.000000
tan 0.195300 0.067766 -0.968690 1.000000
tan -0.205220 0.809101 -0.494513 1.000000
tan 0.179676 0.086056 -0.976502 1.000000
tan 0.140616 0.085932 -0.984314 1.000000
tan 0.197532 0.907186 -0.356377 1.000000
f 3/3/3 2/2/2 1/1/1
f 1/1/1 4/4/4 3/3/3
f 2/2/2 3/3/3 5/5/5
f 5/5/5 6/6/6 2/2/2
f 4/4/4 7/7/7 3/3/3
f 8/8/8 6/6/6 5/5/5
f 6/6/6 8/8/8 9/9/9
f 10/10/10 5/5/5 3/3/3
f 11/11/11 9/9/9 8/8/8
f 9/9/9 11/11/11 12/12/12
f 8/8/8 5/5/5 13/13/13
f 13/13/13 5/5/5 10/10/10
f 13/13/13 14/14/14 8/8/8
f 8/8/8 14/14/14 11/11/11
f 15/15/15 10/10/10 3/3/3
f 15/15/15 3/3/3 7/7/7
f 16/16/16 13/13/13 10/10/10
f 16/16/16 10/10/10 15/15/15
f 16/16/16 14/14/14 13/13/13
f 16/16/16 15/15/15 7/7/7
f 11/11/11 14/14/14 16/16/16
f 17/17/17 7/7/7 4/4/4
f 16/16/16 7/7/7 17/17/17
f 4/4/4 18/18/18 17/17/17
f 4/4/4 19/19/19 18/18/18
f 20/20/20 17/17/17 18/18/18
f 16/16/16 17/17/17 20/20/20
f 21/21/21 18/18/18 19/19/19
f 18/18/18 21/21/21 20/20/20
f 19/19/19 22/22/22 21/21/21
f 23/23/23 20/20/20 21/21/21
f 16/16/16 20/20/20 23/23/23
f 21/21/21 22/22/22 24/24/24
f 25/25/25 24/24/24 22/22/22
f 23/23/23 21/21/21 26/26/26
f 24/24/24 26/26/26 21/21/21
f 16/16/16 23/23/23 26/26/26
f 24/24/24 25/25/25 27/27/27
f 12/12/12 27/27/27 25/25/25
f 26/26/26 24/24/24 28/28/28
f 27/27/27 28/28/28 24/24/24
f 16/16/16 26/26/26 28/28/28
f 28/28/28 27/27/27 29/29/29
f 16/16/16 28/28/28 29/29/29
f 27/27/27 12/12/12 30/30/30
f 29/29/29 27/27/27 30/30/30
f 16/16/16 29/29/29 30/30/30
f 30/30/30 12/12/12 11/11/11
f 30/30/30 11/11/11 16/16/16
