mtllib SM_Magnets_04_LOD2.mtl
g SM_Magnets_04_LOD2
#Vertices 8
#Indices 18
#Section 0 Offset 0 NumIndices 18 MaterialIndex 0 MI_Magnets
v -0.050000 0.001511 -0.050042
v 0.050000 0.001886 -0.050000
v 0.050000 -0.000012 -0.033226
v -0.050000 -0.001886 0.000000
v 0.050000 -0.001886 0.000000
v -0.050000 -0.000012 0.033226
v 0.050000 0.001511 0.050042
v -0.050000 0.001886 0.050000
vt 0.183838 0.788818
vt 0.365967 0.788818
vt 0.365967 0.819580
vt 0.183838 0.880127
vt 0.365967 0.880127
vt 0.183838 0.940704
vt 0.365967 0.971420
vt 0.183838 0.971451
vt1 0.008057 0.008301
vt1 0.988281 0.008301
vt1 0.988281 0.173828
vt1 0.008095 0.500244
vt1 0.988281 0.500000
vt1 0.008133 0.826416
vt1 0.988770 0.991821
vt1 0.008141 0.991936
vn 0.000000 0.992126 0.110236
vn 0.000000 0.992126 0.110236
vn 0.000000 1.000000 0.078740
vn 0.000000 1.000000 -0.000000
vn 0.000000 1.000000 -0.000000
vn 0.000000 1.000000 -0.078740
vn 0.000000 0.992126 -0.110236
vn 0.000000 0.992126 -0.110236
tan 0.000000 0.110236 -0.992126 1.000000
tan 0.000000 0.110236 -0.992126 1.000000
tan 0.000000 0.078740 -1.000000 1.000000
tan 0.000000 -0.000000 -1.000000 1.000000
tan 0.000000 -0.000000 -1.000000 1.000000
tan 0.000000 -0.078740 -1.000000 1.000000
tan 0.000000 -0.110236 -0.992126 1.000000
tan 0.000000 -0.110236 -0.992126 1.000000
f 3/3/3 2/2/2 1/1/1
f 1/1/1 4/4/4 3/3/3
f 5/5/5 3/3/3 4/4/4
f 4/4/4 6/6/6 5/5/5
f 7/7/7 5/5/5 6/6/6
f 8/8/8 7/7/7 6/6/6
