mtllib SM_Microwave_LOD5.mtl
g SM_Microwave_LOD5
#Vertices 30
#Indices 42
#Section 0 Offset 0 NumIndices 42 MaterialIndex 0 MI_Microwave
v 0.278986 0.394333 -0.254491
v 0.370563 -0.002792 -0.230798
v 0.410472 0.391674 -0.256016
v 0.410472 0.391674 -0.256016
v 0.351031 0.410245 0.216344
v 0.278986 0.394333 -0.254491
v -0.269894 0.000058 0.212862
v 0.351031 0.410245 0.216344
v 0.384900 0.000099 0.213579
v -0.295080 0.392492 0.201005
v -0.233823 0.035123 -0.243130
v 0.250325 0.355526 -0.280346
v -0.202184 0.317153 -0.250297
v 0.231571 0.041384 -0.210537
v -0.289671 0.395078 -0.269110
v -0.233823 0.035123 -0.243130
v -0.202184 0.317153 -0.250297
v 0.250325 0.355526 -0.280346
v -0.289671 0.395078 -0.269110
v 0.351031 0.410245 0.216344
v -0.295080 0.392492 0.201005
v 0.250325 0.355526 -0.280346
v -0.233823 0.035123 -0.243130
v -0.295080 0.392492 0.201005
v -0.269894 0.000058 0.212862
v -0.289671 0.395078 -0.269110
v 0.370563 -0.002792 -0.230798
v 0.351031 0.410245 0.216344
v 0.410472 0.391674 -0.256016
v 0.384900 0.000099 0.213579
vt 0.985840 -0.001953
vt 0.905273 0.295410
vt 0.886230 -0.003906
vt 0.996094 0.588135
vt 0.952637 0.944885
vt 0.896973 0.587402
vt 0.020248 0.661865
vt 0.490479 0.351562
vt 0.516113 0.661865
vt 0.001145 0.364746
vt 0.530273 0.322754
vt 0.927734 0.586182
vt 0.556152 0.552734
vt 0.913086 0.323730
vt 0.895020 0.022461
vt 0.851562 0.296875
vt 0.828125 0.081543
vt 0.484863 0.045898
vt 0.005711 0.008301
vt 0.491699 0.374512
vt 0.001101 0.362305
vt 0.412842 -0.002930
vt 0.552734 0.849976
vt 0.890625 0.578613
vt 0.897949 0.876404
vt 0.534180 0.575195
vt 0.512695 0.961243
vt 0.174683 0.651611
vt 0.531738 0.661377
vt 0.176636 0.959045
vt1 0.090210 0.478027
vt1 0.024750 0.720459
vt1 0.009125 0.476562
vt1 0.751953 0.404297
vt1 0.715332 0.695312
vt1 0.670898 0.404785
vt1 0.252197 0.437012
vt1 -0.000848 0.053711
vt1 0.252197 0.032715
vt1 0.009872 0.452637
vt1 0.692871 0.992119
vt1 0.892090 0.692383
vt1 0.866699 0.972366
vt1 0.693848 0.703125
vt1 0.281494 0.008789
vt1 0.504883 0.043457
vt1 0.329590 0.062988
vt1 0.300537 0.342773
vt1 0.562988 0.372559
vt1 0.862793 -0.022461
vt1 0.853027 0.375977
vt1 0.555664 0.039062
vt1 0.617676 0.678223
vt1 0.396484 0.402832
vt1 0.639160 0.396484
vt1 0.393799 0.693115
vt1 0.364990 0.492188
vt1 0.112793 0.768188
vt1 0.120483 0.477051
vt1 0.363281 0.766479
vn -0.007874 -0.118110 -0.992126
vn 0.070866 -0.157480 -0.984252
vn 0.110236 -0.110236 -0.984252
vn 0.196850 0.976378 -0.031496
vn 0.055118 1.000000 0.031496
vn 0.000000 1.000000 -0.023622
vn -0.023622 0.023622 1.000000
vn 0.023622 0.047244 1.000000
vn 0.039370 0.023622 1.000000
vn -0.047244 0.062992 1.000000
vn 0.094488 -0.125984 -0.984252
vn -0.110236 -0.173228 -0.976378
vn 0.110236 -0.165354 -0.976378
vn -0.102362 -0.110236 -0.984252
vn -0.055118 -0.078740 -0.992126
vn -0.015748 -0.149606 -0.992126
vn -0.015748 -0.188976 -0.984252
vn 0.133858 -0.110236 -0.984252
vn -0.023622 1.000000 -0.023622
vn 0.000000 1.000000 0.023622
vn -0.047244 1.000000 0.039370
vn 0.000000 1.000000 -0.031496
vn -1.000000 -0.062992 -0.031496
vn -1.000000 -0.031496 0.015748
vn -1.000000 -0.062992 0.015748
vn -1.000000 -0.015748 -0.047244
vn 1.000000 -0.062992 -0.031496
vn 1.000000 -0.031496 0.015748
vn 1.000000 -0.031496 -0.039370
vn 1.000000 -0.062992 0.015748
tan 0.039060 0.992126 -0.118420 1.000000
tan 0.023250 0.984252 -0.155806 1.000000
tan 0.015500 0.984252 -0.108500 1.000000
tan 0.007688 -0.033046 -0.976378 1.000000
tan 0.015748 0.030628 -1.000000 1.000000
tan -0.015748 -0.023622 -1.000000 1.000000
tan 0.000000 1.000000 -0.023622 1.000000
tan 0.000000 1.000000 -0.047244 1.000000
tan 0.000000 1.000000 -0.023622 1.000000
tan 0.000000 1.000000 -0.062992 1.000000
tan 0.007750 -0.984252 0.126728 1.000000
tan -0.023064 -0.976378 0.175832 1.000000
tan 0.030752 -0.976378 0.168826 1.000000
tan -0.007750 -0.984252 0.111042 1.000000
tan 0.015624 0.992126 -0.079608 1.000000
tan 0.007812 0.992126 -0.149730 1.000000
tan 0.015500 0.984252 -0.189224 1.000000
tan -0.031000 0.984252 -0.114452 1.000000
tan 0.007874 -0.023436 -1.000000 1.000000
tan 0.007874 0.023622 -1.000000 1.000000
tan -0.015748 0.038626 -1.000000 1.000000
tan 0.007874 -0.031496 -1.000000 1.000000
tan -0.062992 1.000000 -0.000000 1.000000
tan -0.031620 1.000000 -0.007874 1.000000
tan -0.063116 1.000000 -0.007874 1.000000
tan -0.016492 1.000000 0.015748 1.000000
tan 0.062992 1.000000 -0.000000 1.000000
tan 0.031496 1.000000 -0.000000 1.000000
tan 0.032116 1.000000 0.015748 1.000000
tan 0.062992 1.000000 -0.000000 1.000000
f 3/3/3 2/2/2 1/1/1
f 6/6/6 5/5/5 4/4/4
f 9/9/9 8/8/8 7/7/7
f 10/10/10 7/7/7 8/8/8
f 13/13/13 12/12/12 11/11/11
f 14/14/14 11/11/11 12/12/12
f 17/17/17 16/16/16 15/15/15
f 15/15/15 18/18/18 17/17/17
f 21/21/21 20/20/20 19/19/19
f 22/22/22 19/19/19 20/20/20
f 25/25/25 24/24/24 23/23/23
f 26/26/26 23/23/23 24/24/24
f 29/29/29 28/28/28 27/27/27
f 30/30/30 27/27/27 28/28/28
