mtllib SM_Magnets_04.mtl
g SM_Magnets_04
#Vertices 20
#Indices 72
#Section 0 Offset 0 NumIndices 72 MaterialIndex 0 MI_Magnets
v 0.016667 0.001886 -0.050000
v 0.050000 0.001886 -0.050000
v 0.050000 -0.000012 -0.033226
v 0.016667 -0.000012 -0.033226
v -0.016667 0.001886 -0.050000
v 0.016667 -0.001886 0.000000
v 0.050000 -0.001886 0.000000
v -0.016667 -0.000012 -0.033226
v -0.050000 0.001886 -0.050000
v -0.050000 -0.000012 -0.033226
v -0.050000 -0.001886 0.000000
v -0.016667 -0.001886 0.000000
v -0.050000 -0.000012 0.033226
v -0.016667 -0.000012 0.033226
v -0.016667 0.001886 0.050000
v -0.050000 0.001886 0.050000
v 0.016667 0.001886 0.050000
v 0.016667 -0.000012 0.033226
v 0.050000 0.001886 0.050000
v 0.050000 -0.000012 0.033226
vt 0.305176 0.788818
vt 0.365967 0.788818
vt 0.365967 0.819580
vt 0.305176 0.819580
vt 0.244507 0.788818
vt 0.305176 0.880127
vt 0.365967 0.880127
vt 0.244507 0.819580
vt 0.183838 0.788818
vt 0.183838 0.819580
vt 0.183838 0.880127
vt 0.244507 0.880127
vt 0.183838 0.940704
vt 0.244507 0.940704
vt 0.244507 0.971436
vt 0.183838 0.971451
vt 0.305176 0.971436
vt 0.305176 0.940704
vt 0.365967 0.971420
vt 0.365967 0.940704
vt1 0.661621 0.008301
vt1 0.988281 0.008301
vt1 0.988281 0.173828
vt1 0.661621 0.173828
vt1 0.334717 0.008301
vt1 0.661621 0.500000
vt1 0.988281 0.500000
vt1 0.334717 0.173828
vt1 0.008064 0.008301
vt1 0.008072 0.173828
vt1 0.008095 0.500244
vt1 0.334961 0.500244
vt1 0.008133 0.826416
vt1 0.334961 0.826416
vt1 0.334961 0.991913
vt1 0.008141 0.991936
vt1 0.661621 0.991875
vt1 0.661621 0.826416
vt1 0.988770 0.991844
vt1 0.988770 0.826416
vn 0.000000 0.992126 0.110236
vn 0.000000 0.992126 0.110236
vn 0.000000 1.000000 0.078740
vn 0.000000 1.000000 0.078740
vn 0.000000 0.992126 0.110236
vn 0.000000 1.000000 -0.000000
vn 0.000000 1.000000 -0.000000
vn 0.000000 1.000000 0.078740
vn 0.000000 0.992126 0.110236
vn 0.000000 1.000000 0.078740
vn 0.000000 1.000000 -0.000000
vn 0.000000 1.000000 -0.000000
vn 0.000000 1.000000 -0.078740
vn 0.000000 1.000000 -0.078740
vn 0.000000 0.992126 -0.110236
vn 0.000000 0.992126 -0.110236
vn 0.000000 0.992126 -0.110236
vn 0.000000 1.000000 -0.078740
vn 0.000000 0.992126 -0.110236
vn 0.000000 1.000000 -0.078740
tan 0.000000 0.110236 -0.992126 1.000000
tan 0.000000 0.110236 -0.992126 1.000000
tan 0.000000 0.078740 -1.000000 1.000000
tan 0.000000 0.078740 -1.000000 1.000000
tan 0.000000 0.110236 -0.992126 1.000000
tan 0.000000 -0.000000 -1.000000 1.000000
tan 0.000000 -0.000000 -1.000000 1.000000
tan 0.000000 0.078740 -1.000000 1.000000
tan 0.000000 0.110236 -0.992126 1.000000
tan 0.000000 0.078740 -1.000000 1.000000
tan 0.000000 -0.000000 -1.000000 1.000000
tan 0.000000 -0.000000 -1.000000 1.000000
tan 0.000000 -0.078740 -1.000000 1.000000
tan 0.000000 -0.078740 -1.000000 1.000000
tan 0.000000 -0.110236 -0.992126 1.000000
tan 0.000000 -0.110236 -0.992126 1.000000
tan 0.000000 -0.110236 -0.992126 1.000000
tan 0.000000 -0.078740 -1.000000 1.000000
tan 0.000000 -0.110236 -0.992126 1.000000
tan 0.000000 -0.078740 -1.000000 1.000000
f 3/3/3 2/2/2 1/1/1
f 4/4/4 3/3/3 1/1/1
f 4/4/4 1/1/1 5/5/5
f 4/4/4 6/6/6 3/3/3
f 7/7/7 3/3/3 6/6/6
f 8/8/8 4/4/4 5/5/5
f 8/8/8 5/5/5 9/9/9
f 10/10/10 8/8/8 9/9/9
f 10/10/10 11/11/11 8/8/8
f 8/8/8 12/12/12 4/4/4
f 12/12/12 8/8/8 11/11/11
f 6/6/6 4/4/4 12/12/12
f 11/11/11 13/13/13 12/12/12
f 12/12/12 14/14/14 6/6/6
f 14/14/14 12/12/12 13/13/13
f 16/16/16 15/15/15 13/13/13
f 15/15/15 14/14/14 13/13/13
f 15/15/15 17/17/17 14/14/14
f 18/18/18 6/6/6 14/14/14
f 18/18/18 14/14/14 17/17/17
f 6/6/6 18/18/18 7/7/7
f 17/17/17 19/19/19 18/18/18
f 20/20/20 7/7/7 18/18/18
f 19/19/19 20/20/20 18/18/18
