mtllib SM_Magnets_06_LOD4.mtl
g SM_Magnets_06_LOD4
#Vertices 4
#Indices 6
#Section 0 Offset 0 NumIndices 6 MaterialIndex 0 MI_Magnets
v -0.049983 -0.000865 -0.050197
v 0.050001 0.001295 -0.050067
v 0.050002 -0.000184 0.050150
v -0.050001 0.001295 0.050067
vt 0.633789 0.378906
vt 0.633789 0.196777
vt 0.816406 0.196777
vt 0.816406 0.378906
vt1 0.008095 0.991722
vt1 0.008125 0.011230
vt1 0.991211 0.011719
vt1 0.991699 0.991943
vn 0.000000 0.992126 0.110236
vn 0.000000 0.992126 0.110236
vn 0.000000 0.992126 -0.110236
vn 0.000000 0.992126 -0.110236
tan 0.992126 0.000000 0.000000 1.000000
tan 0.992126 0.000000 0.000000 1.000000
tan 0.992126 0.000000 0.000000 1.000000
tan 0.992126 0.000000 0.000000 1.000000
f 3/3/3 2/2/2 1/1/1
f 1/1/1 4/4/4 3/3/3
