mtllib SM_Magnets_12_LOD3.mtl
g SM_Magnets_12_LOD3
#Vertices 12
#Indices 24
#Section 0 Offset 0 NumIndices 24 MaterialIndex 0 MI_Magnets
v 0.047443 0.002475 0.047259
v -0.047723 0.002169 0.050222
v -0.047367 0.002449 -0.047389
v 0.047259 0.002606 -0.047123
v -0.048348 -0.002598 -0.050103
v -0.047367 0.002449 -0.047389
v -0.047723 0.002169 0.050222
v 0.047259 0.002606 -0.047123
v 0.049195 -0.002918 -0.048489
v 0.050202 -0.002337 0.047702
v 0.047443 0.002475 0.047259
v -0.043553 0.000513 0.049441
vt 0.467041 0.604248
vt 0.471924 0.777954
vt 0.295410 0.776489
vt 0.294678 0.605713
vt 0.287109 0.781128
vt 0.296143 0.775513
vt 0.470947 0.778320
vt 0.293701 0.604736
vt 0.288330 0.599365
vt 0.470703 0.595459
vt 0.467285 0.604980
vt 0.471436 0.770264
vt1 0.932129 0.066895
vt1 0.956055 0.936646
vt1 0.070862 0.929504
vt1 0.066772 0.075195
vt1 0.028366 0.952667
vt1 0.074402 0.924622
vt1 0.951660 0.938324
vt1 0.062286 0.069824
vt1 0.035278 0.042480
vt1 0.950684 0.023438
vt1 0.933594 0.071289
vt1 0.954102 0.898438
vn 0.000000 1.000000 -0.000000
vn 0.000000 1.000000 -0.000000
vn 0.000000 1.000000 -0.000000
vn 0.000000 1.000000 -0.000000
vn -0.511811 0.417323 -0.755905
vn -0.669291 0.440945 -0.598425
vn -0.661417 0.464567 0.590551
vn 0.669291 0.401575 -0.629921
vn 0.645669 0.440945 -0.629921
vn 0.795276 0.401575 0.448819
vn 0.653543 0.417323 0.629921
vn -0.181102 0.377953 0.905512
tan 1.000000 0.000000 0.007874 1.000000
tan 1.000000 0.000000 0.039370 1.000000
tan 1.000000 -0.000000 -0.007874 1.000000
tan 1.000000 0.000000 0.007874 1.000000
tan 0.800918 0.329221 -0.360531 1.000000
tan 0.738545 0.476471 -0.474921 1.000000
tan 0.737057 0.543307 0.398103 1.000000
tan 0.739413 -0.442061 0.503813 1.000000
tan 0.759874 -0.434745 0.474549 1.000000
tan 0.591109 -0.670531 -0.447455 1.000000
tan 0.744250 -0.439209 -0.481183 1.000000
tan 0.861554 0.295183 0.049104 1.000000
f 3/3/3 2/2/2 1/1/1
f 4/4/4 3/3/3 1/1/1
f 7/7/7 6/6/6 5/5/5
f 5/5/5 6/6/6 8/8/8
f 9/9/9 5/5/5 8/8/8
f 9/9/9 8/8/8 10/10/10
f 11/11/11 10/10/10 8/8/8
f 11/11/11 12/12/12 10/10/10
