mtllib SM_Magnets_01_LOD3.mtl
g SM_Magnets_01_LOD3
#Vertices 11
#Indices 39
#Section 0 Offset 0 NumIndices 39 MaterialIndex 0 MI_Magnets
v 0.075533 -0.002535 0.024699
v 0.035234 -0.003145 -0.066415
v 0.064544 -0.004514 -0.026246
v 0.058568 0.004544 -0.029891
v 0.009418 0.004880 -0.065942
v -0.027710 -0.003839 -0.065145
v -0.063342 0.004178 -0.029514
v 0.040777 0.004629 0.052462
v 0.008715 -0.003824 0.075134
v -0.032591 0.005566 0.057856
v -0.063580 -0.004781 0.040921
vt 0.630371 0.160156
vt 0.532227 0.002930
vt 0.605957 0.063965
vt 0.583496 0.066406
vt 0.484863 0.015625
vt 0.414307 0.018555
vt 0.364990 0.101562
vt 0.574707 0.218750
vt 0.524902 0.276367
vt 0.443115 0.249512
vt 0.377686 0.233887
vt1 1.017578 0.585693
vt1 0.664062 0.017578
vt1 0.930176 0.238281
vt1 0.848145 0.247070
vt1 0.492188 0.063477
vt1 0.237671 0.075195
vt1 0.059357 0.374023
vt1 0.817383 0.797974
vt1 0.637695 1.005558
vt1 0.341797 0.907898
vt1 0.104919 0.852295
vn 0.889764 0.385827 0.251968
vn 0.480315 0.133858 -0.866142
vn 0.921260 -0.000000 -0.377953
vn 0.078740 1.000000 -0.039370
vn 0.023622 1.000000 -0.078740
vn -0.370079 0.039370 -0.929134
vn -0.149606 0.984252 -0.047244
vn 0.086614 0.992126 0.110236
vn 0.015748 0.125984 0.992126
vn -0.047244 1.000000 0.078740
vn -0.858268 0.047244 0.519685
tan 0.304669 -0.124124 -0.885796 1.000000
tan -0.618513 -0.607725 -0.436915 1.000000
tan -0.342241 -0.391717 -0.834211 1.000000
tan 0.204724 -0.054560 -0.976378 1.000000
tan 0.141732 -0.081468 -0.992126 1.000000
tan 0.702027 -0.610143 -0.305475 1.000000
tan 0.139500 -0.025668 -0.976502 1.000000
tan 0.132804 0.097774 -0.984314 1.000000
tan 0.226548 0.968690 -0.126604 1.000000
tan 0.196850 0.086800 -0.984252 1.000000
tan -0.491041 0.214830 -0.830492 1.000000
f 3/3/3 2/2/2 1/1/1
f 4/4/4 1/1/1 2/2/2
f 5/5/5 4/4/4 2/2/2
f 6/6/6 5/5/5 2/2/2
f 6/6/6 7/7/7 5/5/5
f 8/8/8 1/1/1 4/4/4
f 8/8/8 4/4/4 5/5/5
f 8/8/8 5/5/5 7/7/7
f 1/1/1 8/8/8 9/9/9
f 8/8/8 7/7/7 10/10/10
f 8/8/8 10/10/10 9/9/9
f 10/10/10 7/7/7 11/11/11
f 9/9/9 10/10/10 11/11/11
