mtllib SM_Microwave_LOD4.mtl
g SM_Microwave_LOD4
#Vertices 47
#Indices 87
#Section 0 Offset 0 NumIndices 87 MaterialIndex 0 MI_Microwave
v 0.154073 0.092683 -0.206767
v -0.197730 0.069139 -0.209944
v 0.198495 0.063630 -0.217812
v 0.278986 0.394333 -0.254491
v 0.387245 0.000047 -0.193447
v 0.410472 0.391674 -0.256016
v 0.263919 -0.000000 -0.195166
v -0.289671 0.395078 -0.269110
v 0.278990 0.393284 0.202153
v -0.295080 0.392492 0.201005
v 0.286889 0.395558 -0.264140
v -0.269025 -0.000291 -0.215072
v -0.295080 0.392492 0.201005
v -0.269894 0.000058 0.212862
v -0.289671 0.395078 -0.269110
v 0.387245 0.000047 -0.193447
v 0.410869 0.392190 0.200343
v 0.410472 0.391674 -0.256016
v 0.384900 0.000099 0.213579
v 0.410472 0.391674 -0.256016
v 0.410869 0.392190 0.200343
v 0.278986 0.394333 -0.254491
v 0.278990 0.393284 0.202153
v 0.272931 0.312693 -0.263435
v 0.233243 0.095893 -0.225214
v 0.230262 0.305121 -0.303360
v 0.251431 0.088509 -0.268133
v 0.272931 0.312693 -0.263435
v 0.233243 0.095893 -0.225214
v 0.278990 0.393284 0.202153
v -0.269894 0.000058 0.212862
v -0.295080 0.392492 0.201005
v 0.384900 0.000099 0.213579
v 0.410869 0.392190 0.200343
v 0.198495 0.063630 -0.217812
v 0.203520 0.328571 -0.250975
v 0.154073 0.092683 -0.206767
v -0.197730 0.069139 -0.209944
v -0.202184 0.317153 -0.250297
v -0.269025 -0.000291 -0.215072
v 0.198495 0.063630 -0.217812
v -0.197730 0.069139 -0.209944
v -0.289671 0.395078 -0.269110
v 0.277098 0.000648 -0.206783
v -0.202184 0.317153 -0.250297
v 0.203520 0.328571 -0.250975
v 0.286889 0.395558 -0.264140
vt 0.849609 0.365234
vt 0.559570 0.345703
vt 0.886719 0.340332
vt 0.985840 -0.001953
vt 0.892578 0.296875
vt 0.886230 -0.003906
vt 0.985840 0.300293
vt 0.005711 0.008301
vt 0.437500 0.363281
vt 0.001101 0.362305
vt 0.440674 0.008789
vt 0.574219 0.875244
vt 0.890625 0.578613
vt 0.897949 0.876404
vt 0.534180 0.575195
vt 0.484619 0.958344
vt 0.186035 0.661377
vt 0.531738 0.661377
vt 0.176636 0.959045
vt 0.996094 0.588135
vt 0.998047 0.932678
vt 0.896973 0.587402
vt 0.897949 0.935242
vt 0.169678 0.708008
vt 0.136108 0.948853
vt 0.109436 0.711426
vt 0.079956 0.944946
vt 0.040009 0.703369
vt 0.031860 0.951904
vt 0.435791 0.364258
vt 0.020248 0.661865
vt 0.001145 0.364746
vt 0.516113 0.661865
vt 0.535645 0.364746
vt 0.887695 0.341797
vt 0.890137 0.562256
vt 0.849609 0.364746
vt 0.559570 0.346191
vt 0.556152 0.552734
vt 0.875977 0.324219
vt 0.522461 0.272949
vt 0.822754 0.272461
vt 0.895020 0.022461
vt 0.462646 0.320801
vt 0.828125 0.081543
vt 0.520508 0.069824
vt 0.457520 0.018066
vt1 0.725098 0.750977
vt1 0.710938 0.970078
vt1 0.706543 0.723145
vt1 0.090210 0.478027
vt1 0.014313 0.721924
vt1 0.009125 0.476562
vt1 0.090454 0.724609
vt1 0.562988 0.372559
vt1 0.853516 0.020996
vt1 0.853027 0.375977
vt1 0.565430 0.016602
vt1 0.638184 0.660645
vt1 0.396484 0.402832
vt1 0.639160 0.396484
vt1 0.393799 0.693115
vt1 0.362793 0.515381
vt1 0.120728 0.758911
vt1 0.120483 0.477051
vt1 0.363281 0.766479
vt1 0.751953 0.404297
vt1 0.752441 0.685547
vt1 0.670898 0.404785
vt1 0.670898 0.686768
vt1 0.637207 0.719727
vt1 0.619629 0.853027
vt1 0.601562 0.722656
vt1 0.586426 0.850952
vt1 0.562012 0.719971
vt1 0.558105 0.853882
vt1 0.009361 0.098145
vt1 0.252197 0.437012
vt1 0.009872 0.452637
vt1 0.252197 0.032715
vt1 0.010002 0.016602
vt1 0.707520 0.722656
vt1 0.874023 0.720703
vt1 0.725098 0.750977
vt1 0.710938 0.969818
vt1 0.866699 0.972366
vt1 0.527344 0.023926
vt1 0.485596 0.312012
vt1 0.485107 0.067383
vt1 0.281494 0.008789
vt1 0.524414 0.360840
vt1 0.329590 0.062988
vt1 0.320312 0.313965
vt1 0.278076 0.365234
vn 0.000000 0.157480 -0.984252
vn 0.000000 0.157480 -0.984252
vn 0.000000 0.149606 -0.984252
vn -0.007874 -0.118110 -0.992126
vn 0.086614 -0.157480 -0.984252
vn 0.110236 -0.110236 -0.984252
vn 0.000000 -0.149606 -0.984252
vn -0.023622 1.000000 -0.023622
vn 0.000000 1.000000 0.023622
vn -0.047244 1.000000 0.039370
vn 0.000000 1.000000 -0.031496
vn -1.000000 -0.062992 -0.031496
vn -1.000000 -0.031496 0.015748
vn -1.000000 -0.062992 0.015748
vn -1.000000 -0.015748 -0.047244
vn 1.000000 -0.062992 -0.023622
vn 1.000000 -0.031496 0.015748
vn 1.000000 -0.031496 -0.039370
vn 1.000000 -0.062992 0.015748
vn 0.196850 0.976378 -0.031496
vn 0.118110 0.992126 0.023622
vn 0.000000 1.000000 -0.023622
vn 0.000000 1.000000 0.039370
vn 0.236220 0.149606 0.960630
vn -0.409449 0.165354 0.897638
vn -0.236220 -0.157480 -0.960630
vn 0.149606 -0.173228 -0.976378
vn 0.582677 0.110236 0.803149
vn -0.031496 0.165354 0.984252
vn 0.000000 0.047244 1.000000
vn -0.023622 0.023622 1.000000
vn -0.047244 0.062992 1.000000
vn 0.039370 0.023622 1.000000
vn 0.212598 0.047244 0.976378
vn -0.354331 -0.149606 -0.921260
vn -0.086614 -0.173228 -0.984252
vn -0.015748 -0.118110 -0.992126
vn 0.078740 -0.133858 -0.992126
vn 0.110236 -0.165354 -0.976378
vn -0.047244 -0.157480 -0.984252
vn 0.000000 -0.157480 -0.984252
vn 0.007874 -0.165354 -0.984252
vn -0.055118 -0.078740 -0.992126
vn 0.062992 -0.149606 -0.984252
vn -0.015748 -0.188976 -0.984252
vn -0.031496 -0.165354 -0.984252
vn 0.228346 -0.055118 -0.968504
tan 0.000000 -0.984252 -0.157480 1.000000
tan 0.000000 -0.984252 -0.157480 1.000000
tan 0.000000 -0.984252 -0.149606 1.000000
tan 0.039060 0.992126 -0.118420 1.000000
tan 0.023250 0.984252 -0.155434 1.000000
tan 0.015500 0.984252 -0.108500 1.000000
tan 0.031000 0.984252 -0.149606 1.000000
tan 0.007874 -0.023436 -1.000000 1.000000
tan 0.007874 0.023622 -1.000000 1.000000
tan -0.015748 0.038626 -1.000000 1.000000
tan 0.007874 -0.031496 -1.000000 1.000000
tan -0.062992 1.000000 -0.000000 1.000000
tan -0.031620 1.000000 -0.007874 1.000000
tan -0.063116 1.000000 -0.007874 1.000000
tan -0.016492 1.000000 0.015748 1.000000
tan 0.062992 1.000000 -0.000000 1.000000
tan 0.031496 1.000000 -0.000000 1.000000
tan 0.032116 1.000000 0.015748 1.000000
tan 0.062992 1.000000 -0.000000 1.000000
tan 0.007688 -0.033046 -0.976378 1.000000
tan 0.023436 0.020832 -0.992126 1.000000
tan -0.015748 -0.023622 -1.000000 1.000000
tan 0.007874 0.039370 -1.000000 1.000000
tan -0.061690 0.962490 -0.134726 1.000000
tan -0.340381 0.852130 -0.312233 1.000000
tan -0.099572 0.954926 -0.132060 1.000000
tan -0.176824 0.961002 -0.197594 1.000000
tan -0.656209 0.629053 0.389733 1.000000
tan 0.023250 0.984252 -0.164610 1.000000
tan 0.000000 1.000000 -0.047244 1.000000
tan 0.000000 1.000000 -0.023622 1.000000
tan 0.000000 1.000000 -0.062992 1.000000
tan 0.000000 1.000000 -0.023622 1.000000
tan -0.008060 0.978052 -0.045570 1.000000
tan -0.021762 -0.921260 0.157976 1.000000
tan -0.015500 -0.984252 0.174592 1.000000
tan 0.000000 -0.992126 0.118110 1.000000
tan 0.007812 -0.992126 0.134478 1.000000
tan 0.030752 -0.976378 0.168826 1.000000
tan 0.015500 0.984252 -0.158224 1.000000
tan 0.007750 0.984252 -0.157480 1.000000
tan 0.007750 0.984252 -0.165292 1.000000
tan 0.015624 0.992126 -0.079608 1.000000
tan -0.007750 0.984252 -0.150102 1.000000
tan 0.015500 0.984252 -0.189224 1.000000
tan 0.015500 0.984252 -0.165850 1.000000
tan -0.060574 0.970302 -0.069502 1.000000
f 3/3/3 2/2/2 1/1/1
f 6/6/6 5/5/5 4/4/4
f 7/7/7 4/4/4 5/5/5
f 10/10/10 9/9/9 8/8/8
f 11/11/11 8/8/8 9/9/9
f 14/14/14 13/13/13 12/12/12
f 15/15/15 12/12/12 13/13/13
f 18/18/18 17/17/17 16/16/16
f 19/19/19 16/16/16 17/17/17
f 22/22/22 21/21/21 20/20/20
f 21/21/21 22/22/22 23/23/23
f 26/26/26 25/25/25 24/24/24
f 25/25/25 26/26/26 27/27/27
f 28/28/28 27/27/27 26/26/26
f 27/27/27 28/28/28 29/29/29
f 32/32/32 31/31/31 30/30/30
f 33/33/33 30/30/30 31/31/31
f 34/34/34 30/30/30 33/33/33
f 37/37/37 36/36/36 35/35/35
f 37/37/37 38/38/38 36/36/36
f 39/39/39 36/36/36 38/38/38
f 42/42/42 41/41/41 40/40/40
f 40/40/40 43/43/43 42/42/42
f 44/44/44 40/40/40 41/41/41
f 45/45/45 42/42/42 43/43/43
f 41/41/41 46/46/46 44/44/44
f 43/43/43 47/47/47 45/45/45
f 47/47/47 44/44/44 46/46/46
f 46/46/46 45/45/45 47/47/47
