mtllib SM_Magnets_11_LOD2.mtl
g SM_Magnets_11_LOD2
#Vertices 18
#Indices 45
#Section 0 Offset 0 NumIndices 45 MaterialIndex 0 MI_Magnets
v 0.047461 0.002474 0.047258
v 0.040519 0.002468 -0.048209
v 0.048259 0.002472 -0.040013
v -0.047329 0.002451 -0.047389
v -0.048226 0.002469 0.040057
v -0.043469 0.000527 0.049451
v 0.040303 -0.002393 0.050161
v -0.043469 0.000527 0.049451
v 0.047461 0.002474 0.047258
v 0.050302 -0.002543 0.036940
v 0.048259 0.002472 -0.040013
v 0.049244 -0.002949 -0.048446
v 0.040519 0.002468 -0.048209
v -0.040181 -0.002473 -0.050109
v -0.047329 0.002451 -0.047389
v -0.050600 -0.002354 -0.035494
v -0.048226 0.002469 0.040057
v -0.050883 -0.002341 0.036290
vt 0.666016 0.776245
vt 0.652344 0.602051
vt 0.667480 0.616943
vt 0.493896 0.604492
vt 0.491943 0.762817
vt 0.500977 0.778687
vt 0.654785 0.787476
vt 0.500000 0.780518
vt 0.665039 0.776489
vt 0.677734 0.758545
vt 0.667480 0.616943
vt 0.671387 0.597656
vt 0.653320 0.601807
vt 0.505371 0.593506
vt 0.494873 0.605225
vt 0.481445 0.624023
vt 0.491943 0.763062
vt 0.481689 0.758057
vt1 0.932617 0.932556
vt1 0.864258 0.057617
vt1 0.939453 0.132812
vt1 0.070007 0.069824
vt1 0.060394 0.865234
vt1 0.106201 0.944580
vt1 0.874512 0.988899
vt1 0.101685 0.953735
vt1 0.926758 0.933594
vt1 0.991699 0.843872
vt1 0.937988 0.132324
vt1 0.958008 0.036133
vt1 0.867188 0.056641
vt1 0.127686 0.015137
vt1 0.074951 0.073730
vt1 0.008575 0.168457
vt1 0.060852 0.866211
vt1 0.009979 0.841187
vn 0.000000 1.000000 -0.000000
vn 0.000000 1.000000 -0.000000
vn 0.000000 1.000000 -0.000000
vn 0.000000 1.000000 -0.000000
vn 0.000000 1.000000 -0.000000
vn 0.000000 1.000000 -0.000000
vn 0.149606 0.362205 0.921260
vn -0.181102 0.377953 0.905512
vn 0.653543 0.417323 0.629921
vn 0.937008 0.346457 0.047244
vn 0.929134 0.354331 -0.086614
vn 0.645669 0.440945 -0.629921
vn 0.173228 0.330709 -0.929134
vn -0.141732 0.377953 -0.913386
vn -0.669291 0.440945 -0.590551
vn -0.937008 0.346457 -0.047244
vn -0.937008 0.354331 0.070866
vn -0.929134 0.362205 0.078740
tan 0.000000 -0.000000 -1.000000 1.000000
tan -0.007874 -0.000000 -1.000000 1.000000
tan 0.007874 -0.000000 -1.000000 1.000000
tan 0.007874 -0.000000 -1.000000 1.000000
tan 0.000000 -0.000000 -1.000000 1.000000
tan -0.023622 -0.000000 -1.000000 1.000000
tan 0.203112 0.899498 -0.386633 1.000000
tan -0.213900 0.876992 -0.408829 1.000000
tan 0.502883 0.374419 -0.769794 1.000000
tan -0.018972 0.177072 -0.922252 1.000000
tan -0.023870 -0.161634 -0.917292 1.000000
tan -0.444417 -0.449129 -0.769917 1.000000
tan -0.197532 -0.907186 -0.359725 1.000000
tan 0.179800 -0.899002 -0.399901 1.000000
tan 0.455949 -0.367971 -0.791493 1.000000
tan -0.024800 -0.191828 -0.914874 1.000000
tan -0.017298 0.140740 -0.932420 1.000000
tan 0.024180 0.256680 -0.895406 1.000000
f 3/3/3 2/2/2 1/1/1
f 2/2/2 4/4/4 1/1/1
f 4/4/4 5/5/5 1/1/1
f 5/5/5 6/6/6 1/1/1
f 9/9/9 8/8/8 7/7/7
f 10/10/10 9/9/9 7/7/7
f 10/10/10 11/11/11 9/9/9
f 12/12/12 11/11/11 10/10/10
f 12/12/12 13/13/13 11/11/11
f 12/12/12 14/14/14 13/13/13
f 14/14/14 15/15/15 13/13/13
f 14/14/14 16/16/16 15/15/15
f 15/15/15 16/16/16 17/17/17
f 18/18/18 17/17/17 16/16/16
f 17/17/17 18/18/18 8/8/8
