mtllib SM_Magnets_02.mtl
g SM_Magnets_02
#Vertices 51
#Indices 156
#Section 0 Offset 0 NumIndices 156 MaterialIndex 0 MI_Magnets
v 0.031936 0.002464 0.072111
v 0.038372 0.002464 0.055923
v 0.038372 0.002464 0.064018
v 0.000000 0.002464 0.055923
v 0.000000 0.002464 0.072111
v 0.038372 0.002464 -0.023858
v -0.031936 0.002464 0.072111
v -0.038372 0.002464 0.055923
v -0.038372 0.002464 0.064018
v 0.000000 0.002464 -0.023858
v 0.038372 0.002464 -0.055923
v -0.038372 0.002464 -0.023858
v 0.031936 0.002464 -0.072111
v 0.038372 0.002464 -0.064018
v 0.000000 0.002464 -0.055923
v 0.000000 0.002464 -0.072111
v -0.038372 0.002464 -0.055923
v -0.031936 0.002464 -0.072111
v -0.038372 0.002464 -0.064018
v -0.039761 -0.002464 -0.023858
v -0.038372 0.002464 -0.055923
v -0.038372 0.002464 -0.023858
v -0.038372 0.002464 0.055923
v -0.039761 -0.002464 -0.057084
v -0.039761 -0.002464 0.057084
v -0.038372 0.002464 -0.064018
v -0.038372 0.002464 0.064018
v -0.039761 -0.002464 -0.065765
v -0.039761 -0.002464 0.065765
v -0.031936 0.002464 -0.072111
v -0.031936 0.002464 0.072111
v -0.033325 -0.002464 -0.073858
v -0.033325 -0.002464 0.073858
v 0.000000 -0.002464 -0.073858
v 0.000000 -0.002464 0.073858
v 0.000000 0.002464 -0.072111
v 0.000000 0.002464 0.072111
v 0.031936 0.002464 -0.072111
v 0.031936 0.002464 0.072111
v 0.033325 -0.002464 -0.073858
v 0.033325 -0.002464 0.073858
v 0.039761 -0.002464 -0.065765
v 0.039761 -0.002464 0.065765
v 0.038372 0.002464 -0.064018
v 0.038372 0.002464 0.064018
v 0.039761 -0.002464 -0.057084
v 0.039761 -0.002464 0.057084
v 0.038372 0.002464 -0.055923
v 0.038372 0.002464 0.055923
v 0.039761 -0.002464 -0.023858
v 0.038372 0.002464 -0.023858
vt 0.010696 0.657715
vt 0.039673 0.669922
vt 0.025040 0.668945
vt 0.039673 0.600098
vt 0.009773 0.599854
vt 0.185303 0.669922
vt 0.010696 0.542725
vt 0.038879 0.530029
vt 0.024673 0.531250
vt 0.184570 0.599365
vt 0.244507 0.668213
vt 0.184692 0.528564
vt 0.272461 0.655029
vt 0.258789 0.666748
vt 0.242676 0.598633
vt 0.272949 0.598389
vt 0.242920 0.529053
vt 0.271240 0.541748
vt 0.257080 0.530273
vt 0.184692 0.519043
vt 0.242920 0.529053
vt 0.184692 0.528564
vt 0.038879 0.530029
vt 0.245972 0.519775
vt 0.036011 0.520752
vt 0.257080 0.530273
vt 0.024673 0.531250
vt 0.263672 0.522705
vt 0.018265 0.523682
vt 0.271240 0.541748
vt 0.010696 0.542725
vt 0.279785 0.537109
vt 0.002087 0.538086
vt 0.282715 0.598145
vt 0.000000 0.599609
vt 0.272949 0.598389
vt 0.009773 0.599854
vt 0.272461 0.655029
vt 0.010696 0.657715
vt 0.281250 0.659424
vt 0.002098 0.662109
vt 0.265381 0.674072
vt 0.018829 0.676514
vt 0.258789 0.666748
vt 0.025040 0.668945
vt 0.247803 0.677490
vt 0.036896 0.679199
vt 0.244507 0.668213
vt 0.039673 0.669922
vt 0.185547 0.679199
vt 0.185303 0.669922
vt1 0.045258 0.858887
vt1 0.146118 0.934387
vt1 0.095215 0.928345
vt1 0.146118 0.505127
vt1 0.042084 0.503418
vt1 0.652832 0.934326
vt1 0.045288 0.153809
vt1 0.143311 0.075684
vt1 0.093872 0.083008
vt1 0.650391 0.500488
vt1 0.858887 0.923584
vt1 0.650879 0.065918
vt1 0.956543 0.842407
vt1 0.908203 0.914734
vt1 0.852539 0.497070
vt1 0.957520 0.495117
vt1 0.853516 0.069336
vt1 0.952148 0.146973
vt1 0.902832 0.076172
vt1 0.650879 0.008301
vt1 0.853516 0.069336
vt1 0.650879 0.065918
vt1 0.143311 0.075684
vt1 0.863770 0.012207
vt1 0.133301 0.018555
vt1 0.902832 0.076172
vt1 0.093872 0.083008
vt1 0.925293 0.029785
vt1 0.071594 0.036621
vt1 0.952148 0.146973
vt1 0.045288 0.153809
vt1 0.981934 0.118164
vt1 0.015320 0.125488
vt1 0.991699 0.494141
vt1 0.008064 0.502930
vt1 0.957520 0.495117
vt1 0.042084 0.503418
vt1 0.956543 0.842407
vt1 0.045258 0.858887
vt1 0.986816 0.869751
vt1 0.015366 0.887146
vt1 0.931152 0.960083
vt1 0.073547 0.975571
vt1 0.908203 0.914734
vt1 0.095215 0.928345
vt1 0.870117 0.980316
vt1 0.136475 0.991676
vt1 0.858887 0.923584
vt1 0.146118 0.934387
vt1 0.653320 0.991936
vt1 0.652832 0.934326
vn 0.000000 1.000000 -0.000000
vn 0.000000 1.000000 -0.000000
vn 0.000000 1.000000 -0.000000
vn 0.000000 1.000000 -0.000000
vn 0.000000 1.000000 -0.000000
vn 0.000000 1.000000 -0.000000
vn 0.000000 1.000000 -0.000000
vn 0.000000 1.000000 -0.000000
vn 0.000000 1.000000 -0.000000
vn 0.000000 1.000000 -0.000000
vn 0.000000 1.000000 -0.000000
vn 0.000000 1.000000 -0.000000
vn 0.000000 1.000000 -0.000000
vn 0.000000 1.000000 -0.000000
vn 0.000000 1.000000 -0.000000
vn 0.000000 1.000000 -0.000000
vn 0.000000 1.000000 -0.000000
vn 0.000000 1.000000 -0.000000
vn 0.000000 1.000000 -0.000000
vn -0.960630 0.267716 -0.000000
vn -0.960630 0.267716 -0.000000
vn -0.960630 0.267716 -0.000000
vn -0.960630 0.267716 -0.000000
vn -0.960630 0.267716 -0.000000
vn -0.960630 0.267716 -0.000000
vn -0.881890 0.354331 -0.299213
vn -0.881890 0.354331 0.299213
vn -0.850394 0.370079 -0.377953
vn -0.850394 0.370079 0.377953
vn -0.173228 0.370079 -0.913386
vn -0.173228 0.370079 0.913386
vn -0.204724 0.377953 -0.905512
vn -0.204724 0.377953 0.905512
vn 0.000000 0.330709 -0.944882
vn 0.000000 0.330709 0.944882
vn 0.000000 0.330709 -0.944882
vn 0.000000 0.330709 0.944882
vn 0.173228 0.370079 -0.913386
vn 0.173228 0.370079 0.913386
vn 0.204724 0.377953 -0.905512
vn 0.204724 0.377953 0.905512
vn 0.850394 0.370079 -0.377953
vn 0.850394 0.370079 0.377953
vn 0.881890 0.354331 -0.299213
vn 0.881890 0.354331 0.299213
vn 0.960630 0.267716 -0.000000
vn 0.960630 0.267716 -0.000000
vn 0.960630 0.267716 -0.000000
vn 0.960630 0.267716 -0.000000
vn 0.960630 0.267716 -0.000000
vn 0.960630 0.267716 -0.000000
tan -1.000000 -0.000000 -0.023622 1.000000
tan -1.000000 0.000000 0.015748 1.000000
tan -1.000000 0.000000 0.023622 1.000000
tan -1.000000 -0.000000 -0.015748 1.000000
tan -1.000000 0.000000 0.015748 1.000000
tan -1.000000 -0.000000 -0.015748 1.000000
tan -1.000000 0.000000 0.000000 1.000000
tan -1.000000 -0.000000 -0.047244 1.000000
tan -1.000000 -0.000000 -0.039370 1.000000
tan -1.000000 0.000000 0.000000 1.000000
tan -1.000000 -0.000000 -0.062992 1.000000
tan -1.000000 0.000000 0.000000 1.000000
tan -1.000000 -0.000000 -0.015748 1.000000
tan -1.000000 -0.000000 -0.062992 1.000000
tan -1.000000 -0.000000 -0.015748 1.000000
tan -1.000000 -0.000000 -0.015748 1.000000
tan -1.000000 0.000000 0.023622 1.000000
tan -1.000000 -0.000000 -0.007874 1.000000
tan -1.000000 0.000000 0.039370 1.000000
tan -0.267717 -0.960630 0.000000 1.000000
tan -0.267717 -0.960630 0.032364 1.000000
tan -0.267717 -0.960630 0.000000 1.000000
tan -0.267717 -0.960630 -0.032364 1.000000
tan -0.265609 -0.953066 0.097092 1.000000
tan -0.265609 -0.953066 -0.097092 1.000000
tan -0.425817 -0.875938 0.217745 1.000000
tan -0.428173 -0.873582 -0.227478 1.000000
tan -0.511191 -0.770041 0.396181 1.000000
tan -0.508277 -0.763346 -0.396181 1.000000
tan -0.961312 -0.256556 0.078368 1.000000
tan -0.961312 -0.256556 -0.078368 1.000000
tan -0.963420 -0.249426 0.113708 1.000000
tan -0.963420 -0.249426 -0.113708 1.000000
tan -1.002170 -0.007440 -0.002604 1.000000
tan -1.002170 -0.007440 0.002604 1.000000
tan -1.002170 -0.014880 -0.005208 1.000000
tan -1.002170 -0.007440 0.002604 1.000000
tan -0.968504 0.234980 -0.088474 1.000000
tan -0.961312 0.249364 0.081282 1.000000
tan -0.967574 0.233554 -0.121272 1.000000
tan -0.963420 0.242296 0.116684 1.000000
tan -0.511315 0.753673 -0.412487 1.000000
tan -0.505239 0.773018 0.379875 1.000000
tan -0.430095 0.864282 -0.244157 1.000000
tan -0.423461 0.875938 0.210800 1.000000
tan -0.265609 0.953066 -0.121892 1.000000
tan -0.267717 0.960630 0.081964 1.000000
tan -0.267717 0.960630 -0.049600 1.000000
tan -0.267717 0.960630 0.024800 1.000000
tan -0.267717 0.960630 -0.017236 1.000000
tan -0.267717 0.960630 -0.017236 1.000000
f 3/3/3 2/2/2 1/1/1
f 4/4/4 1/1/1 2/2/2
f 5/5/5 1/1/1 4/4/4
f 2/2/2 6/6/6 4/4/4
f 5/5/5 4/4/4 7/7/7
f 9/9/9 7/7/7 8/8/8
f 8/8/8 7/7/7 4/4/4
f 10/10/10 4/4/4 6/6/6
f 4/4/4 10/10/10 8/8/8
f 6/6/6 11/11/11 10/10/10
f 12/12/12 8/8/8 10/10/10
f 14/14/14 13/13/13 11/11/11
f 10/10/10 15/15/15 12/12/12
f 15/15/15 10/10/10 11/11/11
f 11/11/11 13/13/13 15/15/15
f 16/16/16 15/15/15 13/13/13
f 17/17/17 12/12/12 15/15/15
f 16/16/16 18/18/18 15/15/15
f 15/15/15 18/18/18 17/17/17
f 19/19/19 17/17/17 18/18/18
f 22/22/22 21/21/21 20/20/20
f 22/22/22 20/20/20 23/23/23
f 24/24/24 20/20/20 21/21/21
f 25/25/25 23/23/23 20/20/20
f 21/21/21 26/26/26 24/24/24
f 27/27/27 23/23/23 25/25/25
f 28/28/28 24/24/24 26/26/26
f 29/29/29 27/27/27 25/25/25
f 26/26/26 30/30/30 28/28/28
f 27/27/27 29/29/29 31/31/31
f 32/32/32 28/28/28 30/30/30
f 33/33/33 31/31/31 29/29/29
f 30/30/30 34/34/34 32/32/32
f 31/31/31 33/33/33 35/35/35
f 34/34/34 30/30/30 36/36/36
f 37/37/37 31/31/31 35/35/35
f 34/34/34 36/36/36 38/38/38
f 37/37/37 35/35/35 39/39/39
f 38/38/38 40/40/40 34/34/34
f 41/41/41 39/39/39 35/35/35
f 40/40/40 38/38/38 42/42/42
f 39/39/39 41/41/41 43/43/43
f 44/44/44 42/42/42 38/38/38
f 39/39/39 43/43/43 45/45/45
f 44/44/44 46/46/46 42/42/42
f 45/45/45 43/43/43 47/47/47
f 48/48/48 46/46/46 44/44/44
f 45/45/45 47/47/47 49/49/49
f 46/46/46 48/48/48 50/50/50
f 49/49/49 47/47/47 50/50/50
f 51/51/51 50/50/50 48/48/48
f 50/50/50 51/51/51 49/49/49
