mtllib SM_Magnets_02_LOD2.mtl
g SM_Magnets_02_LOD2
#Vertices 16
#Indices 36
#Section 0 Offset 0 NumIndices 36 MaterialIndex 0 MI_Magnets
v 0.038007 0.002470 -0.071087
v -0.038323 0.002467 0.064746
v -0.038095 0.002270 -0.072611
v 0.032935 0.002467 0.071973
v -0.035539 0.000414 0.073198
v 0.038413 0.002449 0.063222
v -0.040016 -0.002450 -0.060401
v -0.038323 0.002467 0.064746
v -0.040169 -0.002431 0.060883
v -0.038095 0.002270 -0.072611
v -0.035539 0.000414 0.073198
v 0.040341 -0.002153 -0.069933
v 0.038007 0.002470 -0.071087
v 0.038413 0.002449 0.063222
v 0.040140 -0.002683 0.071196
v 0.032935 0.002467 0.071973
vt 0.270996 0.667969
vt 0.022858 0.530273
vt 0.273193 0.529053
vt 0.010963 0.660156
vt 0.008896 0.536377
vt 0.026367 0.669922
vt 0.251953 0.518799
vt 0.022781 0.530273
vt 0.028519 0.520752
vt 0.273926 0.529053
vt 0.006317 0.535400
vt 0.271973 0.676025
vt 0.271484 0.666504
vt 0.026276 0.669922
vt 0.008453 0.676514
vt 0.010544 0.659180
vt1 0.951172 0.921814
vt1 0.087585 0.077148
vt1 0.958984 0.069336
vt1 0.046204 0.874634
vt1 0.039032 0.114746
vt1 0.099792 0.934448
vt1 0.885254 0.006836
vt1 0.087341 0.077637
vt1 0.107239 0.018066
vt1 0.961426 0.068848
vt1 0.030045 0.108887
vt1 0.954590 0.971558
vt1 0.952637 0.913208
vt1 0.099487 0.934631
vt1 0.037476 0.975220
vt1 0.044739 0.868652
vn 0.000000 1.000000 -0.000000
vn 0.000000 1.000000 -0.000000
vn 0.000000 1.000000 -0.000000
vn 0.000000 1.000000 -0.000000
vn 0.000000 1.000000 -0.000000
vn 0.000000 1.000000 -0.000000
vn -0.960630 0.283465 -0.023622
vn -0.960630 0.283465 0.039370
vn -0.960630 0.283465 0.047244
vn -0.803150 0.370079 -0.472441
vn -0.212598 0.354331 0.913386
vn 0.913386 0.330709 -0.251969
vn 0.795276 0.377953 -0.480315
vn 0.960630 0.283465 0.031496
vn 0.787402 0.385827 0.488189
vn 0.181102 0.354331 0.913386
tan -1.000000 -0.000000 -0.015748 1.000000
tan -1.000000 -0.000000 -0.047244 1.000000
tan -1.000000 0.000000 0.023622 1.000000
tan -1.000000 0.000000 0.007874 1.000000
tan -1.000000 0.000000 0.007874 1.000000
tan -1.000000 0.000000 0.023622 1.000000
tan -0.285139 -0.960630 0.068076 1.000000
tan -0.285945 -0.960630 -0.060512 1.000000
tan -0.287557 -0.953066 -0.128588 1.000000
tan -0.587699 -0.643189 0.495257 1.000000
tan -0.880216 -0.253394 -0.106578 1.000000
tan -0.395189 0.857834 -0.306653 1.000000
tan -0.593403 0.653977 -0.467915 1.000000
tan -0.284953 0.960630 0.045384 1.000000
tan -0.611507 0.619753 0.496497 1.000000
tan -0.883006 0.247380 0.079112 1.000000
f 3/3/3 2/2/2 1/1/1
f 4/4/4 1/1/1 2/2/2
f 2/2/2 5/5/5 4/4/4
f 6/6/6 1/1/1 4/4/4
f 9/9/9 8/8/8 7/7/7
f 10/10/10 7/7/7 8/8/8
f 8/8/8 9/9/9 11/11/11
f 13/13/13 12/12/12 10/10/10
f 12/12/12 13/13/13 14/14/14
f 14/14/14 15/15/15 12/12/12
f 15/15/15 16/16/16 11/11/11
f 16/16/16 15/15/15 14/14/14
