mtllib SM_Magnets_11_LOD4.mtl
g SM_Magnets_11_LOD4
#Vertices 8
#Indices 12
#Section 0 Offset 0 NumIndices 12 MaterialIndex 0 MI_Magnets
v 0.049097 0.002363 0.047612
v -0.047735 0.002168 0.050213
v -0.048255 0.002351 -0.048595
v 0.047248 0.002608 -0.047111
v 0.049097 0.002363 0.047612
v 0.047248 0.002608 -0.047111
v 0.049244 -0.002949 -0.048446
v -0.048255 0.002351 -0.048595
vt 0.668945 0.776855
vt 0.492920 0.781006
vt 0.492188 0.602295
vt 0.664551 0.604004
vt 0.667969 0.778198
vt 0.666016 0.603027
vt 0.671387 0.597656
vt 0.492432 0.603027
vt1 0.947754 0.935791
vt1 0.065125 0.956085
vt1 0.061554 0.059082
vt1 0.925781 0.067383
vt1 0.941895 0.942413
vt1 0.931152 0.062988
vt1 0.958008 0.036133
vt1 0.063049 0.062500
vn 0.000000 1.000000 -0.000000
vn 0.000000 1.000000 -0.000000
vn 0.000000 1.000000 -0.000000
vn 0.000000 1.000000 -0.000000
vn 0.708661 0.409449 0.574803
vn 0.669291 0.401575 -0.622047
vn 0.645669 0.440945 -0.629921
vn -0.629921 0.433071 -0.645669
tan 0.000000 -0.000000 -1.000000 1.000000
tan 0.000000 -0.000000 -1.000000 1.000000
tan 0.007874 -0.000000 -1.000000 1.000000
tan -0.007874 -0.000000 -1.000000 1.000000
tan 0.508339 0.219480 -0.783062 1.000000
tan -0.504309 -0.357865 -0.773637 1.000000
tan -0.444417 -0.449129 -0.769917 1.000000
tan 0.533573 -0.344225 -0.751441 1.000000
f 3/3/3 2/2/2 1/1/1
f 4/4/4 3/3/3 1/1/1
f 7/7/7 6/6/6 5/5/5
f 7/7/7 8/8/8 6/6/6
