mtllib SM_Magnets_12_LOD2.mtl
g SM_Magnets_12_LOD2
#Vertices 18
#Indices 45
#Section 0 Offset 0 NumIndices 45 MaterialIndex 0 MI_Magnets
v 0.047443 0.002475 0.047259
v 0.040519 0.002468 -0.048210
v 0.048271 0.002464 -0.040040
v -0.047367 0.002449 -0.047389
v -0.048204 0.002473 0.040071
v -0.043553 0.000513 0.049441
v 0.040303 -0.002393 0.050161
v -0.043553 0.000513 0.049441
v 0.047443 0.002475 0.047259
v 0.050320 -0.002535 0.036656
v 0.048271 0.002464 -0.040040
v 0.049195 -0.002918 -0.048489
v 0.040519 0.002468 -0.048210
v -0.040181 -0.002473 -0.050109
v -0.047367 0.002449 -0.047389
v -0.050553 -0.002372 -0.035756
v -0.048204 0.002473 0.040071
v -0.050953 -0.002313 0.035995
vt 0.467041 0.604248
vt 0.292725 0.617920
vt 0.307617 0.603271
vt 0.295410 0.776489
vt 0.453857 0.778931
vt 0.469727 0.769409
vt 0.478271 0.615723
vt 0.471436 0.770264
vt 0.467285 0.604980
vt 0.448975 0.592285
vt 0.307373 0.603516
vt 0.288330 0.599365
vt 0.292480 0.617432
vt 0.284424 0.765259
vt 0.296143 0.775513
vt 0.314697 0.788940
vt 0.453857 0.778687
vt 0.448486 0.788574
vt1 0.932129 0.066895
vt1 0.057343 0.136230
vt1 0.131226 0.062988
vt1 0.070862 0.929504
vt1 0.865234 0.941437
vt1 0.944824 0.893738
vt1 0.988281 0.125000
vt1 0.954102 0.898438
vt1 0.933594 0.071289
vt1 0.840820 0.007812
vt1 0.130981 0.063965
vt1 0.035278 0.042480
vt1 0.056030 0.133301
vt1 0.015701 0.872925
vt1 0.074402 0.924622
vt1 0.166626 0.991646
vt1 0.866211 0.940063
vt1 0.839355 0.989944
vn 0.000000 1.000000 -0.000000
vn 0.000000 1.000000 -0.000000
vn 0.000000 1.000000 -0.000000
vn 0.000000 1.000000 -0.000000
vn 0.000000 1.000000 -0.000000
vn 0.000000 1.000000 -0.000000
vn 0.149606 0.362205 0.921260
vn -0.181102 0.377953 0.905512
vn 0.653543 0.417323 0.629921
vn 0.937008 0.346457 0.047244
vn 0.929134 0.354331 -0.094488
vn 0.645669 0.440945 -0.629921
vn 0.173228 0.330709 -0.929134
vn -0.141732 0.377953 -0.913386
vn -0.669291 0.440945 -0.598425
vn -0.937008 0.346457 -0.047244
vn -0.937008 0.354331 0.055118
vn -0.929134 0.354331 0.078740
tan 1.000000 0.000000 0.007874 1.000000
tan 1.000000 0.000000 0.000000 1.000000
tan 1.000000 0.000000 0.055118 1.000000
tan 1.000000 -0.000000 -0.007874 1.000000
tan 1.000000 0.000000 0.039370 1.000000
tan 1.000000 -0.000000 -0.031496 1.000000
tan 0.876186 -0.307025 -0.021576 1.000000
tan 0.861554 0.295183 0.049104 1.000000
tan 0.744250 -0.439209 -0.481183 1.000000
tan 0.347821 -0.929630 -0.081158 1.000000
tan 0.361957 -0.921818 0.102424 1.000000
tan 0.759874 -0.434745 0.474549 1.000000
tan 0.895158 -0.250108 0.077872 1.000000
tan 0.868994 0.304297 -0.008928 1.000000
tan 0.738545 0.476471 -0.474921 1.000000
tan 0.348193 0.929630 -0.088536 1.000000
tan 0.358237 0.937008 0.066402 1.000000
tan 0.362701 0.921818 0.131688 1.000000
f 3/3/3 2/2/2 1/1/1
f 2/2/2 4/4/4 1/1/1
f 4/4/4 5/5/5 1/1/1
f 5/5/5 6/6/6 1/1/1
f 9/9/9 8/8/8 7/7/7
f 10/10/10 9/9/9 7/7/7
f 9/9/9 10/10/10 11/11/11
f 12/12/12 11/11/11 10/10/10
f 12/12/12 13/13/13 11/11/11
f 12/12/12 14/14/14 13/13/13
f 14/14/14 15/15/15 13/13/13
f 14/14/14 16/16/16 15/15/15
f 17/17/17 15/15/15 16/16/16
f 18/18/18 17/17/17 16/16/16
f 17/17/17 18/18/18 8/8/8
