mtllib SM_Magnets_06_LOD2.mtl
g SM_Magnets_06_LOD2
#Vertices 8
#Indices 18
#Section 0 Offset 0 NumIndices 18 MaterialIndex 0 MI_Magnets
v -0.050000 0.001511 -0.050042
v 0.050000 0.001886 -0.050000
v 0.050000 -0.000012 -0.033226
v -0.050000 -0.001886 -0.000000
v 0.050000 -0.001886 -0.000000
v -0.050000 -0.000012 0.033226
v 0.050000 0.001511 0.050042
v -0.050000 0.001886 0.050000
vt 0.633789 0.378906
vt 0.633789 0.196777
vt 0.664551 0.196777
vt 0.725098 0.378906
vt 0.725098 0.196777
vt 0.785645 0.378906
vt 0.816406 0.196777
vt 0.816406 0.378906
vt1 0.008087 0.991814
vt1 0.008179 0.011230
vt1 0.173706 0.011230
vt1 0.499756 0.991882
vt1 0.500000 0.011719
vt1 0.826172 0.991920
vt1 0.991699 0.011719
vt1 0.991699 0.991943
vn 0.000000 0.992126 0.110236
vn 0.000000 0.992126 0.110236
vn 0.000000 1.000000 0.078740
vn 0.000000 1.000000 -0.000000
vn 0.000000 1.000000 -0.000000
vn 0.000000 1.000000 -0.078740
vn 0.000000 0.992126 -0.110236
vn 0.000000 0.992126 -0.110236
tan 0.992126 0.000000 0.000000 1.000000
tan 0.992126 0.000000 0.000000 1.000000
tan 1.000000 0.000000 0.000000 1.000000
tan 1.000000 0.000000 0.000000 1.000000
tan 1.000000 0.000000 0.000000 1.000000
tan 1.000000 0.000000 0.000000 1.000000
tan 0.992126 0.000000 0.000000 1.000000
tan 0.992126 0.000000 0.000000 1.000000
f 3/3/3 2/2/2 1/1/1
f 1/1/1 4/4/4 3/3/3
f 5/5/5 3/3/3 4/4/4
f 4/4/4 6/6/6 5/5/5
f 7/7/7 5/5/5 6/6/6
f 8/8/8 7/7/7 6/6/6
