mtllib SM_Magnets_12_LOD5.mtl
g SM_Magnets_12_LOD5
#Vertices 4
#Indices 6
#Section 0 Offset 0 NumIndices 6 MaterialIndex 0 MI_Magnets
v 0.049056 0.002368 0.047594
v -0.047723 0.002169 0.050222
v -0.048219 0.002352 -0.048612
v 0.048887 0.002282 -0.048490
vt 0.467773 0.601318
vt 0.471924 0.777954
vt 0.293213 0.778076
vt 0.292236 0.602783
vt1 0.935059 0.052246
vt1 0.956055 0.936646
vt1 0.059753 0.937317
vt1 0.054138 0.060547
vn 0.000000 1.000000 -0.000000
vn 0.000000 1.000000 -0.000000
vn 0.000000 1.000000 -0.000000
vn 0.000000 1.000000 -0.000000
tan 1.000000 0.000000 0.007874 1.000000
tan 1.000000 0.000000 0.039370 1.000000
tan 1.000000 -0.000000 -0.007874 1.000000
tan 1.000000 0.000000 0.007874 1.000000
f 3/3/3 2/2/2 1/1/1
f 4/4/4 3/3/3 1/1/1
