mtllib SM_Magnets_03_LOD2.mtl
g SM_Magnets_03_LOD2
#Vertices 8
#Indices 18
#Section 0 Offset 0 NumIndices 18 MaterialIndex 0 MI_Magnets
v -0.050000 0.001886 -0.050000
v 0.050000 0.001511 -0.050042
v -0.050000 -0.000012 -0.033226
v 0.050000 -0.001886 0.000000
v -0.050000 -0.001886 0.000000
v 0.050000 -0.000012 0.033226
v -0.050000 0.001511 0.050042
v 0.050000 0.001886 0.050000
vt 0.817871 0.175781
vt 0.999512 0.175781
vt 0.817871 0.206543
vt 0.999512 0.267090
vt 0.817871 0.267090
vt 0.999512 0.327637
vt 0.817871 0.358398
vt 1.000000 0.358398
vt1 0.008064 0.008301
vt1 0.988281 0.008301
vt1 0.008064 0.173828
vt1 0.988770 0.500000
vt1 0.008087 0.500244
vt1 0.988770 0.826416
vt1 0.008125 0.991913
vt1 0.988770 0.991875
vn 0.000000 0.992126 0.110236
vn 0.000000 0.992126 0.110236
vn 0.000000 1.000000 0.078740
vn 0.000000 1.000000 -0.000000
vn 0.000000 1.000000 -0.000000
vn 0.000000 1.000000 -0.078740
vn 0.000000 0.992126 -0.110236
vn 0.000000 0.992126 -0.110236
tan 0.000000 0.110236 -0.992126 1.000000
tan 0.000000 0.110236 -0.992126 1.000000
tan 0.000000 0.078740 -1.000000 1.000000
tan 0.000000 -0.000000 -1.000000 1.000000
tan 0.000000 -0.000000 -1.000000 1.000000
tan 0.000000 -0.078740 -1.000000 1.000000
tan 0.000000 -0.110236 -0.992126 1.000000
tan 0.000000 -0.110236 -0.992126 1.000000
f 3/3/3 2/2/2 1/1/1
f 3/3/3 4/4/4 2/2/2
f 4/4/4 3/3/3 5/5/5
f 5/5/5 6/6/6 4/4/4
f 6/6/6 5/5/5 7/7/7
f 6/6/6 7/7/7 8/8/8
