mtllib SM_Magnets_08_LOD3.mtl
g SM_Magnets_08_LOD3
#Vertices 5
#Indices 9
#Section 0 Offset 0 NumIndices 9 MaterialIndex 0 MI_Magnets
v -0.050000 -0.001886 0.000000
v -0.050001 0.001295 -0.050067
v 0.050002 -0.000184 -0.050150
v 0.050001 0.001295 0.050067
v -0.050000 0.001511 0.050042
vt 0.633789 0.470215
vt 0.633789 0.378906
vt 0.815918 0.378906
vt 0.815918 0.561523
vt 0.633789 0.561523
vt1 0.008110 0.500000
vt1 0.008163 0.008301
vt1 0.988770 0.008789
vt1 0.988281 0.991997
vt1 0.008064 0.991806
vn 0.000000 1.000000 -0.000000
vn 0.000000 0.992126 0.110236
vn 0.000000 0.992126 0.110236
vn 0.000000 0.992126 -0.110236
vn 0.000000 0.992126 -0.110236
tan 0.000000 -0.000000 -1.000000 1.000000
tan 0.000000 0.110236 -0.992126 1.000000
tan 0.000000 0.110236 -0.992126 1.000000
tan 0.000000 -0.110236 -0.992126 1.000000
tan 0.000000 -0.110236 -0.992126 1.000000
f 3/3/3 2/2/2 1/1/1
f 1/1/1 4/4/4 3/3/3
f 4/4/4 1/1/1 5/5/5
