mtllib SM_Magnets_12_LOD4.mtl
g SM_Magnets_12_LOD4
#Vertices 8
#Indices 12
#Section 0 Offset 0 NumIndices 12 MaterialIndex 0 MI_Magnets
v 0.049056 0.002368 0.047594
v -0.047723 0.002169 0.050222
v -0.048219 0.002352 -0.048612
v 0.047259 0.002606 -0.047123
v 0.049056 0.002368 0.047594
v 0.047259 0.002606 -0.047123
v 0.049195 -0.002918 -0.048489
v -0.048219 0.002352 -0.048612
vt 0.467773 0.601318
vt 0.471924 0.777954
vt 0.293213 0.778076
vt 0.294678 0.605713
vt 0.468994 0.602295
vt 0.293701 0.604736
vt 0.288330 0.599365
vt 0.293945 0.777954
vt1 0.935059 0.052246
vt1 0.956055 0.936646
vt1 0.059753 0.937317
vt1 0.066772 0.075195
vt1 0.941895 0.057129
vt1 0.062286 0.069824
vt1 0.035278 0.042480
vt1 0.063171 0.936584
vn 0.000000 1.000000 -0.000000
vn 0.000000 1.000000 -0.000000
vn 0.000000 1.000000 -0.000000
vn 0.000000 1.000000 -0.000000
vn 0.708661 0.409449 0.574803
vn 0.669291 0.401575 -0.629921
vn 0.645669 0.440945 -0.629921
vn -0.622047 0.433071 -0.653543
tan 1.000000 0.000000 0.007874 1.000000
tan 1.000000 0.000000 0.039370 1.000000
tan 1.000000 -0.000000 -0.007874 1.000000
tan 1.000000 0.000000 0.007874 1.000000
tan 0.705437 -0.435861 -0.559241 1.000000
tan 0.739413 -0.442061 0.503813 1.000000
tan 0.759874 -0.434745 0.474549 1.000000
tan 0.767438 0.332383 -0.510199 1.000000
f 3/3/3 2/2/2 1/1/1
f 4/4/4 3/3/3 1/1/1
f 7/7/7 6/6/6 5/5/5
f 7/7/7 8/8/8 6/6/6
