mtllib SM_Magnets_04_LOD1.mtl
g SM_Magnets_04_LOD1
#Vertices 14
#Indices 36
#Section 0 Offset 0 NumIndices 36 MaterialIndex 0 MI_Magnets
v 0.050000 -0.000012 0.033226
v 0.050000 0.001886 0.050000
v 0.016667 0.001886 0.050000
v -0.016667 0.001886 0.050000
v -0.050000 -0.000012 0.033226
v -0.050000 0.001886 0.050000
v 0.050000 -0.001886 0.000000
v -0.050000 -0.001886 0.000000
v 0.050000 -0.000012 -0.033226
v -0.050000 -0.000012 -0.033226
v -0.050000 0.001886 -0.050000
v -0.016667 0.001886 -0.050000
v 0.016667 0.001886 -0.050000
v 0.050000 0.001886 -0.050000
vt 0.365967 0.940704
vt 0.365967 0.971420
vt 0.305176 0.971436
vt 0.244507 0.971436
vt 0.183838 0.940704
vt 0.183838 0.971451
vt 0.365967 0.880127
vt 0.183838 0.880127
vt 0.365967 0.819580
vt 0.183838 0.819580
vt 0.183838 0.788818
vt 0.244507 0.788818
vt 0.305176 0.788818
vt 0.365967 0.788818
vt1 0.988770 0.826416
vt1 0.988770 0.991844
vt1 0.661621 0.991875
vt1 0.334961 0.991913
vt1 0.008133 0.826416
vt1 0.008141 0.991936
vt1 0.988281 0.500000
vt1 0.008095 0.500244
vt1 0.988281 0.173828
vt1 0.008072 0.173828
vt1 0.008064 0.008301
vt1 0.334717 0.008301
vt1 0.661621 0.008301
vt1 0.988281 0.008301
vn 0.000000 1.000000 -0.078740
vn 0.000000 0.992126 -0.110236
vn 0.000000 0.992126 -0.110236
vn 0.000000 0.992126 -0.110236
vn 0.000000 1.000000 -0.078740
vn 0.000000 0.992126 -0.110236
vn 0.000000 1.000000 -0.000000
vn 0.000000 1.000000 -0.000000
vn 0.000000 1.000000 0.078740
vn 0.000000 1.000000 0.078740
vn 0.000000 0.992126 0.110236
vn 0.000000 0.992126 0.110236
vn 0.000000 0.992126 0.110236
vn 0.000000 0.992126 0.110236
tan 0.000000 -0.078740 -1.000000 1.000000
tan 0.000000 -0.110236 -0.992126 1.000000
tan 0.000000 -0.110236 -0.992126 1.000000
tan 0.000000 -0.110236 -0.992126 1.000000
tan 0.000000 -0.078740 -1.000000 1.000000
tan 0.000000 -0.110236 -0.992126 1.000000
tan 0.000000 -0.000000 -1.000000 1.000000
tan 0.000000 -0.000000 -1.000000 1.000000
tan 0.000000 0.078740 -1.000000 1.000000
tan 0.000000 0.078740 -1.000000 1.000000
tan 0.000000 0.110236 -0.992126 1.000000
tan 0.000000 0.110236 -0.992126 1.000000
tan 0.000000 0.110236 -0.992126 1.000000
tan 0.000000 0.110236 -0.992126 1.000000
f 3/3/3 2/2/2 1/1/1
f 4/4/4 3/3/3 1/1/1
f 4/4/4 1/1/1 5/5/5
f 6/6/6 4/4/4 5/5/5
f 1/1/1 7/7/7 5/5/5
f 8/8/8 5/5/5 7/7/7
f 7/7/7 9/9/9 8/8/8
f 10/10/10 8/8/8 9/9/9
f 10/10/10 9/9/9 11/11/11
f 9/9/9 12/12/12 11/11/11
f 9/9/9 13/13/13 12/12/12
f 9/9/9 14/14/14 13/13/13
