mtllib SM_Magnets_14_LOD1.mtl
g SM_Magnets_14_LOD1
#Vertices 28
#Indices 78
#Section 0 Offset 0 NumIndices 78 MaterialIndex 0 MI_Magnets
v -0.031936 0.002464 -0.072111
v -0.038372 0.002464 -0.059402
v -0.038372 0.002464 -0.064018
v 0.032948 0.002467 -0.071970
v -0.038372 0.002464 0.055923
v -0.031936 0.002464 0.072111
v -0.038372 0.002464 0.064018
v 0.032935 0.002467 0.071973
v 0.038362 0.002466 -0.064183
v 0.038413 0.002449 0.063223
v -0.040016 -0.002450 -0.060402
v -0.038372 0.002464 -0.064018
v -0.038372 0.002464 -0.059402
v -0.038372 0.002464 0.055923
v -0.031936 0.002464 -0.072111
v -0.040169 -0.002431 0.060883
v -0.032856 -0.002470 -0.073882
v -0.038372 0.002464 0.064018
v 0.032948 0.002467 -0.071970
v -0.031936 0.002464 0.072111
v 0.033325 -0.002464 -0.073858
v -0.032856 -0.002470 0.073882
v 0.039984 -0.002444 -0.060294
v 0.032935 0.002467 0.071973
v 0.038362 0.002466 -0.064183
v 0.033325 -0.002464 0.073858
v 0.038413 0.002449 0.063223
v 0.040129 -0.002424 0.060777
vt 0.622070 0.294922
vt 0.600098 0.281738
vt 0.607910 0.283203
vt 0.623535 0.411621
vt 0.389648 0.283203
vt 0.361328 0.295898
vt 0.375488 0.284668
vt 0.361816 0.413574
vt 0.609863 0.422363
vt 0.377197 0.423340
vt 0.602539 0.271973
vt 0.607910 0.283203
vt 0.600098 0.281738
vt 0.389648 0.283203
vt 0.622070 0.294922
vt 0.379150 0.273926
vt 0.632324 0.291992
vt 0.375488 0.284668
vt 0.623535 0.410156
vt 0.361328 0.295898
vt 0.631836 0.412598
vt 0.351318 0.292480
vt 0.604004 0.431641
vt 0.361328 0.412598
vt 0.609863 0.421875
vt 0.352783 0.415527
vt 0.376953 0.423340
vt 0.380371 0.432617
vt1 0.952148 0.146973
vt1 0.875977 0.065918
vt1 0.902832 0.076172
vt1 0.956543 0.864868
vt1 0.143311 0.075684
vt1 0.045288 0.153809
vt1 0.093872 0.083008
vt1 0.046204 0.874634
vt1 0.909180 0.929077
vt1 0.099792 0.934448
vt1 0.885254 0.006836
vt1 0.902832 0.076172
vt1 0.875977 0.065430
vt1 0.143311 0.075684
vt1 0.952148 0.146973
vt1 0.107239 0.018066
vt1 0.987793 0.127930
vt1 0.093872 0.083008
vt1 0.957031 0.853271
vt1 0.045288 0.153809
vt1 0.986816 0.869751
vt1 0.009727 0.132812
vt1 0.888672 0.986710
vt1 0.044739 0.868652
vt1 0.910156 0.926392
vt1 0.015366 0.887207
vt1 0.099487 0.934631
vt1 0.110901 0.992485
vn 0.000000 1.000000 -0.000000
vn 0.000000 1.000000 -0.000000
vn 0.000000 1.000000 -0.000000
vn 0.000000 1.000000 -0.000000
vn 0.000000 1.000000 -0.000000
vn 0.000000 1.000000 -0.000000
vn 0.000000 1.000000 -0.000000
vn 0.000000 1.000000 -0.000000
vn 0.000000 1.000000 -0.000000
vn 0.000000 1.000000 -0.000000
vn -0.960630 0.283465 -0.023622
vn -0.881890 0.354331 -0.299213
vn -0.960630 0.275591 -0.007874
vn -0.960630 0.267716 -0.000000
vn -0.173228 0.370079 -0.913386
vn -0.960630 0.283465 0.047244
vn -0.188976 0.338583 -0.921260
vn -0.881890 0.354331 0.299213
vn 0.181102 0.354331 -0.913386
vn -0.173228 0.370079 0.913386
vn 0.204724 0.377953 -0.905512
vn -0.188976 0.338583 0.921260
vn 0.960630 0.275591 -0.023622
vn 0.181102 0.354331 0.913386
vn 0.960630 0.283465 -0.047244
vn 0.204724 0.377953 0.905512
vn 0.960630 0.283465 0.031496
vn 0.960630 0.283465 0.039370
tan -1.000000 -0.000000 -0.007874 1.000000
tan -1.000000 0.000000 0.023622 1.000000
tan -1.000000 0.000000 0.039370 1.000000
tan -1.000000 -0.000000 -0.007874 1.000000
tan -1.000000 -0.000000 -0.047244 1.000000
tan -1.000000 0.000000 0.000000 1.000000
tan -1.000000 -0.000000 -0.039370 1.000000
tan -1.000000 0.000000 0.007874 1.000000
tan -1.000000 -0.000000 -0.031496 1.000000
tan -1.000000 0.000000 0.023622 1.000000
tan -0.285139 -0.960630 0.068076 1.000000
tan -0.431397 -0.847418 0.267965 1.000000
tan -0.275777 -0.960630 0.022692 1.000000
tan -0.267717 -0.960630 -0.030256 1.000000
tan -0.909480 -0.245148 0.073160 1.000000
tan -0.287557 -0.953066 -0.128588 1.000000
tan -0.894910 -0.233616 0.097712 1.000000
tan -0.431397 -0.847418 -0.267964 1.000000
tan -0.890198 0.232996 -0.086118 1.000000
tan -0.916672 -0.237956 -0.077438 1.000000
tan -0.919834 0.197594 -0.125488 1.000000
tan -0.894910 -0.233616 -0.097712 1.000000
tan -0.277637 0.960630 -0.083204 1.000000
tan -0.883006 0.247380 0.079112 1.000000
tan -0.287185 0.960630 -0.075640 1.000000
tan -0.912704 0.211854 0.117924 1.000000
tan -0.284953 0.960630 0.045384 1.000000
tan -0.285883 0.953066 0.113460 1.000000
f 3/3/3 2/2/2 1/1/1
f 4/4/4 1/1/1 2/2/2
f 2/2/2 5/5/5 4/4/4
f 7/7/7 6/6/6 5/5/5
f 5/5/5 6/6/6 8/8/8
f 8/8/8 4/4/4 5/5/5
f 4/4/4 8/8/8 9/9/9
f 10/10/10 9/9/9 8/8/8
f 13/13/13 12/12/12 11/11/11
f 13/13/13 11/11/11 14/14/14
f 12/12/12 15/15/15 11/11/11
f 16/16/16 14/14/14 11/11/11
f 17/17/17 11/11/11 15/15/15
f 18/18/18 14/14/14 16/16/16
f 17/17/17 15/15/15 19/19/19
f 18/18/18 16/16/16 20/20/20
f 19/19/19 21/21/21 17/17/17
f 22/22/22 20/20/20 16/16/16
f 21/21/21 19/19/19 23/23/23
f 24/24/24 20/20/20 22/22/22
f 25/25/25 23/23/23 19/19/19
f 26/26/26 24/24/24 22/22/22
f 23/23/23 25/25/25 27/27/27
f 24/24/24 26/26/26 28/28/28
f 27/27/27 28/28/28 23/23/23
f 24/24/24 28/28/28 27/27/27
