mtllib SM_Magnets_13_LOD5.mtl
g SM_Magnets_13_LOD5
#Vertices 4
#Indices 6
#Section 0 Offset 0 NumIndices 6 MaterialIndex 0 MI_Magnets
v 0.048380 0.002419 -0.048118
v -0.048910 0.002348 0.048496
v -0.050091 0.002028 -0.048224
v 0.049265 0.002043 0.048613
vt 0.809570 0.186523
vt 0.634277 0.009766
vt 0.809082 0.006836
vt 0.633301 0.187988
vt1 0.939453 0.939728
vt1 0.059174 0.057129
vt1 0.937500 0.041992
vt1 0.053406 0.947296
vn 0.000000 1.000000 -0.000000
vn 0.000000 1.000000 -0.000000
vn 0.000000 1.000000 -0.000000
vn 0.000000 1.000000 -0.000000
tan -1.000000 -0.000000 -0.015748 1.000000
tan -1.000000 -0.000000 -0.015748 1.000000
tan -1.000000 0.000000 0.031496 1.000000
tan -1.000000 -0.000000 -0.023622 1.000000
f 3/3/3 2/2/2 1/1/1
f 4/4/4 1/1/1 2/2/2
