mtllib SM_Magnets_10_LOD1.mtl
g SM_Magnets_10_LOD1
#Vertices 14
#Indices 36
#Section 0 Offset 0 NumIndices 36 MaterialIndex 0 MI_Magnets
v -0.050000 0.001886 -0.050000
v -0.016667 0.001886 -0.050000
v -0.050000 -0.000012 -0.033226
v 0.016667 0.001886 -0.050000
v 0.050000 -0.000012 -0.033226
v 0.050000 0.001886 -0.050000
v -0.050000 -0.001886 -0.000000
v 0.050000 -0.001886 0.000000
v -0.050000 -0.000012 0.033226
v 0.050000 -0.000012 0.033226
v 0.050000 0.001886 0.050000
v 0.016667 0.001886 0.050000
v -0.016667 0.001886 0.050000
v -0.050000 0.001886 0.050000
vt 0.679688 0.561523
vt 0.740234 0.561523
vt 0.679688 0.592285
vt 0.801270 0.561523
vt 0.861816 0.592285
vt 0.861816 0.561523
vt 0.679688 0.652832
vt 0.861816 0.652832
vt 0.679688 0.713379
vt 0.861816 0.713379
vt 0.861816 0.744141
vt 0.801270 0.744141
vt 0.740234 0.744141
vt 0.679688 0.744141
vt1 0.008163 0.008301
vt1 0.334961 0.008301
vt1 0.008148 0.173828
vt1 0.661621 0.008301
vt1 0.988770 0.173828
vt1 0.988770 0.008301
vt1 0.008110 0.500000
vt1 0.988281 0.500244
vt1 0.008072 0.826294
vt1 0.988281 0.826416
vt1 0.988281 0.991936
vt1 0.661621 0.991905
vt1 0.334717 0.991867
vt1 0.008064 0.991837
vn 0.000000 0.992126 0.110236
vn 0.000000 0.992126 0.110236
vn 0.000000 1.000000 0.078740
vn 0.000000 0.992126 0.110236
vn 0.000000 1.000000 0.078740
vn 0.000000 0.992126 0.110236
vn 0.000000 1.000000 -0.000000
vn 0.000000 1.000000 -0.000000
vn 0.000000 1.000000 -0.078740
vn 0.000000 1.000000 -0.078740
vn 0.000000 0.992126 -0.110236
vn 0.000000 0.992126 -0.110236
vn 0.000000 0.992126 -0.110236
vn 0.000000 0.992126 -0.110236
tan 0.000000 0.110236 -0.992126 1.000000
tan 0.000000 0.110236 -0.992126 1.000000
tan 0.000000 0.078740 -1.000000 1.000000
tan 0.000000 0.110236 -0.992126 1.000000
tan 0.000000 0.078740 -1.000000 1.000000
tan 0.000000 0.110236 -0.992126 1.000000
tan 0.000000 -0.000000 -1.000000 1.000000
tan 0.000000 -0.000000 -1.000000 1.000000
tan 0.000000 -0.078740 -1.000000 1.000000
tan 0.000000 -0.078740 -1.000000 1.000000
tan 0.000000 -0.110236 -0.992126 1.000000
tan 0.000000 -0.110236 -0.992126 1.000000
tan 0.000000 -0.110236 -0.992126 1.000000
tan 0.000000 -0.110236 -0.992126 1.000000
f 3/3/3 2/2/2 1/1/1
f 3/3/3 4/4/4 2/2/2
f 3/3/3 5/5/5 4/4/4
f 5/5/5 6/6/6 4/4/4
f 3/3/3 7/7/7 5/5/5
f 8/8/8 5/5/5 7/7/7
f 7/7/7 9/9/9 8/8/8
f 10/10/10 8/8/8 9/9/9
f 11/11/11 10/10/10 9/9/9
f 12/12/12 11/11/11 9/9/9
f 13/13/13 12/12/12 9/9/9
f 14/14/14 13/13/13 9/9/9
