mtllib SM_Magnets_11_LOD3.mtl
g SM_Magnets_11_LOD3
#Vertices 12
#Indices 24
#Section 0 Offset 0 NumIndices 24 MaterialIndex 0 MI_Magnets
v 0.047461 0.002474 0.047258
v -0.047735 0.002168 0.050213
v -0.047329 0.002451 -0.047389
v 0.047248 0.002608 -0.047111
v -0.047735 0.002168 0.050213
v -0.048401 -0.002617 -0.050082
v -0.047329 0.002451 -0.047389
v 0.047248 0.002608 -0.047111
v 0.049244 -0.002949 -0.048446
v 0.050189 -0.002323 0.047723
v 0.047461 0.002474 0.047258
v -0.043469 0.000527 0.049451
vt 0.666016 0.776245
vt 0.492920 0.781006
vt 0.493896 0.604492
vt 0.664551 0.604004
vt 0.492188 0.780029
vt 0.489258 0.596191
vt 0.494873 0.605225
vt 0.666016 0.603027
vt 0.671387 0.597656
vt 0.674805 0.780029
vt 0.665039 0.776489
vt 0.500000 0.780518
vt1 0.932617 0.932556
vt1 0.065125 0.956085
vt1 0.070007 0.069824
vt1 0.925781 0.067383
vt1 0.061768 0.951691
vt1 0.047302 0.027832
vt1 0.074951 0.073730
vt1 0.931152 0.062988
vt1 0.958008 0.036133
vt1 0.975586 0.951233
vt1 0.926758 0.933594
vt1 0.101685 0.953735
vn 0.000000 1.000000 -0.000000
vn 0.000000 1.000000 -0.000000
vn 0.000000 1.000000 -0.000000
vn 0.000000 1.000000 -0.000000
vn -0.661417 0.464567 0.590551
vn -0.511811 0.417323 -0.748031
vn -0.669291 0.440945 -0.590551
vn 0.669291 0.401575 -0.622047
vn 0.645669 0.440945 -0.629921
vn 0.795276 0.401575 0.448819
vn 0.653543 0.417323 0.629921
vn -0.181102 0.377953 0.905512
tan 0.000000 -0.000000 -1.000000 1.000000
tan 0.000000 -0.000000 -1.000000 1.000000
tan 0.007874 -0.000000 -1.000000 1.000000
tan -0.007874 -0.000000 -1.000000 1.000000
tan -0.445657 0.382045 -0.799678 1.000000
tan 0.486143 -0.574121 -0.652923 1.000000
tan 0.455949 -0.367971 -0.791493 1.000000
tan -0.504309 -0.357865 -0.773637 1.000000
tan -0.444417 -0.449129 -0.769917 1.000000
tan 0.365119 0.208444 -0.833468 1.000000
tan 0.502883 0.374419 -0.769794 1.000000
tan -0.213900 0.876992 -0.408829 1.000000
f 3/3/3 2/2/2 1/1/1
f 4/4/4 3/3/3 1/1/1
f 7/7/7 6/6/6 5/5/5
f 6/6/6 7/7/7 8/8/8
f 9/9/9 6/6/6 8/8/8
f 9/9/9 8/8/8 10/10/10
f 10/10/10 8/8/8 11/11/11
f 11/11/11 12/12/12 10/10/10
