mtllib SM_OliveOilBottle_SM_OliveOilBottle_Cap_LOD1.mtl
g SM_OliveOilBottle_SM_OliveOilBottle_Cap_LOD1
#Vertices 59
#Indices 180
#Section 0 Offset 0 NumIndices 180 MaterialIndex 0 MI_OliveOilBottle
v 0.016083 0.312432 0.006003
v 0.016873 0.312492 -0.000421
v 0.000000 0.312512 -0.000000
v 0.006465 0.312493 0.015540
v 0.016083 0.312432 0.006003
v -0.005791 0.312460 0.016046
v -0.015069 0.312461 0.007655
v -0.016637 0.312512 0.000000
v -0.014790 0.312452 -0.008287
v -0.006983 0.312499 -0.015291
v 0.000100 0.312396 -0.016874
v 0.009779 0.312512 -0.013460
v 0.013459 0.312512 -0.009779
v 0.016873 0.312492 -0.000421
v 0.000000 0.367565 -0.022492
v 0.000100 0.312396 -0.016874
v 0.009759 0.368753 -0.020619
v 0.009779 0.312512 -0.013460
v 0.020206 0.368673 -0.010925
v 0.013459 0.312512 -0.009779
v 0.016873 0.312492 -0.000421
v 0.022492 0.367565 -0.000000
v 0.016083 0.312432 0.006003
v 0.020483 0.368695 0.010085
v 0.012363 0.368686 0.019310
v 0.006465 0.312493 0.015540
v 0.000000 0.367565 0.022492
v -0.005791 0.312460 0.016046
v -0.011655 0.368575 0.019716
v -0.015069 0.312461 0.007655
v -0.020845 0.368733 0.009629
v -0.022639 0.368702 -0.002763
v -0.016637 0.312512 0.000000
v -0.014790 0.312452 -0.008287
v -0.018197 0.367565 -0.013221
v -0.011680 0.368561 -0.019695
v -0.006983 0.312499 -0.015291
v 0.000000 0.367565 -0.022492
v 0.000100 0.312396 -0.016874
v 0.008009 0.369582 -0.019660
v 0.000000 0.367565 -0.022492
v 0.009759 0.368753 -0.020619
v 0.020206 0.368673 -0.010925
v -0.011243 0.369523 -0.017674
v -0.011680 0.368561 -0.019695
v -0.018197 0.367565 -0.013221
v 0.019938 0.369519 -0.005753
v 0.022492 0.367565 -0.000000
v -0.020070 0.369518 -0.004359
v -0.022639 0.368702 -0.002763
v -0.019288 0.369517 0.006267
v -0.020845 0.368733 0.009629
v -0.010887 0.369521 0.017815
v -0.011655 0.368575 0.019716
v 0.000000 0.367565 0.022492
v 0.008000 0.369546 0.019553
v 0.012363 0.368686 0.019310
v 0.020483 0.368695 0.010085
v 0.018586 0.369520 0.008639
vt 0.969727 0.508545
vt 0.931152 0.534668
vt 0.878906 0.425293
vt 0.999512 0.415527
vt 0.969727 0.508545
vt 0.962891 0.335449
vt 0.878418 0.303223
vt 0.824219 0.318359
vt 0.776855 0.357422
vt 0.757812 0.430176
vt 0.770508 0.480957
vt 0.824219 0.531738
vt 0.859863 0.543457
vt 0.931152 0.534668
vt 0.070312 0.000000
vt 0.506348 0.128906
vt 0.041992 0.066895
vt 0.487061 0.200684
vt 0.020676 0.166992
vt 0.479004 0.237305
vt 0.466797 0.308105
vt 0.016937 0.248047
vt 0.461426 0.353516
vt -0.001154 0.320312
vt -0.007549 0.408691
vt 0.454590 0.450684
vt 0.000000 0.500488
vt 0.455078 0.539307
vt -0.005890 0.586914
vt 0.461670 0.629150
vt 0.000970 0.684814
vt 0.013512 0.773926
vt 0.468506 0.684814
vt 0.479492 0.744629
vt 0.038025 0.852783
vt 0.044769 0.919006
vt 0.496094 0.818115
vt 0.076050 1.000000
vt 0.511230 0.868164
vt 0.834961 0.107422
vt 0.813965 0.047363
vt 0.849609 0.110840
vt 0.854492 0.213867
vt 0.727051 0.019531
vt 0.735352 0.006348
vt 0.668457 0.000488
vt 0.825195 0.238770
vt 0.813477 0.285645
vt 0.614746 0.042480
vt 0.592773 0.036621
vt 0.564453 0.100586
vt 0.538086 0.109375
vt 0.548828 0.201660
vt 0.534180 0.207520
vt 0.575684 0.285645
vt 0.635742 0.306641
vt 0.659180 0.328613
vt 0.748047 0.323242
vt 0.745117 0.305176
vt1 0.833496 0.355469
vt1 0.773926 0.395508
vt1 0.693359 0.227051
vt1 0.879395 0.212891
vt1 0.833496 0.355469
vt1 0.822754 0.089355
vt1 0.693359 0.040039
vt1 0.609863 0.062988
vt1 0.537598 0.123047
vt1 0.507812 0.235352
vt1 0.527832 0.312988
vt1 0.609863 0.391113
vt1 0.664551 0.409180
vt1 0.773926 0.395508
vt1 0.073730 0.004395
vt1 0.506348 0.131836
vt1 0.045624 0.070312
vt1 0.487061 0.202637
vt1 0.024475 0.169922
vt1 0.479248 0.239258
vt1 0.467041 0.309570
vt1 0.020767 0.250000
vt1 0.461914 0.354492
vt1 0.002823 0.321777
vt1 -0.003521 0.409180
vt1 0.454834 0.451172
vt1 0.003967 0.500488
vt1 0.455322 0.539062
vt1 -0.001875 0.586426
vt1 0.461914 0.627930
vt1 0.004929 0.683350
vt1 0.017365 0.771729
vt1 0.468750 0.683350
vt1 0.479736 0.742676
vt1 0.041687 0.849976
vt1 0.048401 0.915649
vt1 0.496338 0.815674
vt1 0.079407 0.996033
vt1 0.511230 0.865234
vt1 0.527344 0.580566
vt1 0.560059 0.489746
vt1 0.504883 0.586182
vt1 0.498291 0.743164
vt1 0.691895 0.447266
vt1 0.679199 0.426758
vt1 0.781738 0.417480
vt1 0.542480 0.780884
vt1 0.560059 0.852661
vt1 0.863281 0.481934
vt1 0.896484 0.473145
vt1 0.939453 0.570312
vt1 0.979980 0.583740
vt1 0.963867 0.724854
vt1 0.985840 0.733887
vt1 0.922852 0.852661
vt1 0.831055 0.884583
vt1 0.795410 0.918213
vt1 0.660156 0.909424
vt1 0.664551 0.882080
vn 0.000000 -1.000000 0.000000
vn 0.000000 -1.000000 0.000000
vn 0.000000 -1.000000 0.000000
vn 0.000000 -1.000000 0.000000
vn 0.000000 -1.000000 0.000000
vn 0.000000 -1.000000 0.000000
vn 0.000000 -1.000000 0.000000
vn 0.000000 -1.000000 0.000000
vn 0.000000 -1.000000 0.000000
vn 0.000000 -1.000000 0.000000
vn 0.000000 -1.000000 0.000000
vn 0.000000 -1.000000 0.000000
vn 0.000000 -1.000000 0.000000
vn 0.000000 -1.000000 0.000000
vn 0.000000 -0.062992 -1.000000
vn 0.039370 -0.102362 -0.992126
vn 0.433071 -0.062992 -0.897638
vn 0.582677 -0.102362 -0.803149
vn 0.874016 -0.062992 -0.480315
vn 0.803150 -0.102362 -0.582677
vn 0.992126 -0.102362 -0.047244
vn 1.000000 -0.062992 0.000000
vn 0.921260 -0.102362 0.377953
vn 0.897638 -0.062992 0.440945
vn 0.535433 -0.062992 0.842520
vn 0.393701 -0.102362 0.913386
vn 0.000000 -0.062992 1.000000
vn -0.346457 -0.102362 0.929134
vn -0.496063 -0.062992 0.866142
vn -0.881890 -0.102362 0.456693
vn -0.905512 -0.062992 0.417323
vn -0.992126 -0.062992 -0.133858
vn -0.992126 -0.102362 0.000000
vn -0.866142 -0.102362 -0.488189
vn -0.811024 -0.062992 -0.590551
vn -0.503937 -0.062992 -0.866142
vn -0.417323 -0.102362 -0.905512
vn 0.000000 -0.062992 -1.000000
vn 0.007874 -0.102362 -0.992126
vn 0.062992 0.984252 -0.188976
vn 0.000000 -0.062992 -1.000000
vn 0.385827 0.212598 -0.897638
vn 0.850394 0.188976 -0.488189
vn -0.110236 0.984252 -0.157480
vn -0.488189 0.267716 -0.826772
vn -0.811024 -0.062992 -0.590551
vn 0.181102 0.984252 -0.047244
vn 1.000000 -0.062992 0.000000
vn -0.188976 0.984252 -0.039370
vn -0.960630 0.259842 -0.094488
vn -0.181102 0.984252 0.055118
vn -0.881890 0.157480 0.440945
vn -0.102362 0.984252 0.165354
vn -0.488189 0.259843 0.834646
vn 0.000000 -0.062992 1.000000
vn 0.070866 0.984252 0.181102
vn 0.511811 0.204724 0.834646
vn 0.858268 0.267717 0.433071
vn 0.165354 0.984252 0.094488
tan -0.889764 0.000000 0.456693 1.000000
tan -0.889764 0.000000 0.456693 1.000000
tan -0.889764 0.000000 0.456693 1.000000
tan -0.889764 0.000000 0.456693 1.000000
tan -0.889764 0.000000 0.456693 1.000000
tan -0.889764 0.000000 0.456693 1.000000
tan -0.889764 0.000000 0.456693 1.000000
tan -0.889764 0.000000 0.456693 1.000000
tan -0.889764 0.000000 0.456693 1.000000
tan -0.889764 0.000000 0.456693 1.000000
tan -0.889764 0.000000 0.456693 1.000000
tan -0.889764 0.000000 0.456693 1.000000
tan -0.889764 0.000000 0.456693 1.000000
tan -0.889764 0.000000 0.456693 1.000000
tan -0.952756 0.314961 -0.019840 1.000000
tan -0.937442 0.328105 -0.071052 1.000000
tan -0.883502 0.162564 -0.437659 1.000000
tan -0.788084 0.159216 -0.592039 1.000000
tan -0.470581 0.086366 -0.867630 1.000000
tan -0.570029 0.109120 -0.804886 1.000000
tan -0.030380 0.156240 -0.976502 1.000000
tan 0.009920 0.157480 -0.984252 1.000000
tan 0.386261 0.101556 -0.914006 1.000000
tan 0.446401 0.077748 -0.897638 1.000000
tan 0.843016 0.010850 -0.534937 1.000000
tan 0.913386 -0.007192 -0.394507 1.000000
tan 1.000000 -0.007874 -0.000496 1.000000
tan 0.929134 0.000000 0.346457 1.000000
tan 0.866638 -0.017546 0.495071 1.000000
tan 0.463575 -0.090272 0.874946 1.000000
tan 0.419989 -0.085560 0.898382 1.000000
tan -0.120838 -0.171864 0.976502 1.000000
tan 0.017732 -0.171864 0.976502 1.000000
tan -0.475479 -0.082708 0.860934 1.000000
tan -0.579453 -0.120218 0.808605 1.000000
tan -0.852006 -0.140368 0.505921 1.000000
tan -0.884122 -0.192510 0.429227 1.000000
tan -0.944882 -0.322835 0.020336 1.000000
tan -0.937442 -0.335917 0.027218 1.000000
tan -0.635501 -0.103664 -0.751751 1.000000
tan -0.503937 -0.866142 0.054560 1.000000
tan -0.761299 -0.478579 -0.440573 1.000000
tan -0.522289 0.266848 -0.806498 1.000000
tan -0.674251 -0.189596 -0.713001 1.000000
tan -0.205096 -0.866080 -0.159340 1.000000
tan 0.151032 -0.956414 -0.105400 1.000000
tan -0.720751 0.100254 -0.674251 1.000000
tan 0.054560 0.866142 -0.503937 1.000000
tan -0.736251 -0.167400 -0.651001 1.000000
tan -0.217806 -0.916734 -0.306652 1.000000
tan -0.721185 -0.095294 -0.667927 1.000000
tan -0.465993 -0.347201 -0.807985 1.000000
tan -0.682001 0.048856 -0.713001 1.000000
tan -0.776676 0.314837 -0.552297 1.000000
tan -0.503937 0.866142 0.054560 1.000000
tan -0.627751 0.184946 -0.759501 1.000000
tan -0.211420 0.876868 -0.085436 1.000000
tan -0.160394 0.868746 -0.219171 1.000000
tan -0.720751 0.185814 -0.674251 1.000000
f 3/3/3 2/2/2 1/1/1
f 3/3/3 5/5/5 4/4/4
f 3/3/3 4/4/4 6/6/6
f 3/3/3 6/6/6 7/7/7
f 3/3/3 7/7/7 8/8/8
f 3/3/3 8/8/8 9/9/9
f 3/3/3 9/9/9 10/10/10
f 3/3/3 10/10/10 11/11/11
f 3/3/3 11/11/11 12/12/12
f 3/3/3 12/12/12 13/13/13
f 3/3/3 13/13/13 14/14/14
f 17/17/17 16/16/16 15/15/15
f 16/16/16 17/17/17 18/18/18
f 19/19/19 18/18/18 17/17/17
f 18/18/18 19/19/19 20/20/20
f 20/20/20 19/19/19 21/21/21
f 22/22/22 21/21/21 19/19/19
f 21/21/21 22/22/22 23/23/23
f 24/24/24 23/23/23 22/22/22
f 24/24/24 25/25/25 23/23/23
f 23/23/23 25/25/25 26/26/26
f 25/25/25 27/27/27 26/26/26
f 26/26/26 27/27/27 28/28/28
f 29/29/29 28/28/28 27/27/27
f 28/28/28 29/29/29 30/30/30
f 31/31/31 30/30/30 29/29/29
f 31/31/31 32/32/32 30/30/30
f 33/33/33 30/30/30 32/32/32
f 33/33/33 32/32/32 34/34/34
f 35/35/35 34/34/34 32/32/32
f 36/36/36 34/34/34 35/35/35
f 36/36/36 37/37/37 34/34/34
f 38/38/38 37/37/37 36/36/36
f 39/39/39 37/37/37 38/38/38
f 42/42/42 41/41/41 40/40/40
f 43/43/43 42/42/42 40/40/40
f 40/40/40 41/41/41 44/44/44
f 45/45/45 44/44/44 41/41/41
f 45/45/45 46/46/46 44/44/44
f 43/43/43 40/40/40 47/47/47
f 47/47/47 40/40/40 44/44/44
f 47/47/47 48/48/48 43/43/43
f 46/46/46 49/49/49 44/44/44
f 47/47/47 44/44/44 49/49/49
f 49/49/49 46/46/46 50/50/50
f 50/50/50 51/51/51 49/49/49
f 47/47/47 49/49/49 51/51/51
f 52/52/52 51/51/51 50/50/50
f 53/53/53 51/51/51 52/52/52
f 47/47/47 51/51/51 53/53/53
f 54/54/54 53/53/53 52/52/52
f 54/54/54 55/55/55 53/53/53
f 56/56/56 53/53/53 55/55/55
f 47/47/47 53/53/53 56/56/56
f 56/56/56 55/55/55 57/57/57
f 57/57/57 58/58/58 56/56/56
f 47/47/47 56/56/56 59/59/59
f 59/59/59 56/56/56 58/58/58
f 47/47/47 59/59/59 48/48/48
f 58/58/58 48/48/48 59/59/59
