mtllib SM_OliveOilBottle_SM_OliveOilBottle_Cap_LOD2.mtl
g SM_OliveOilBottle_SM_OliveOilBottle_Cap_LOD2
#Vertices 35
#Indices 90
#Section 0 Offset 0 NumIndices 90 MaterialIndex 0 MI_OliveOilBottle
v 0.000000 0.367565 -0.022492
v -0.000425 0.312055 -0.017400
v 0.008622 0.369721 -0.021193
v 0.011883 0.312315 -0.011903
v 0.020286 0.370448 -0.008850
v 0.017799 0.312095 0.003057
v 0.022959 0.369277 0.004381
v 0.011078 0.369683 0.020265
v 0.006465 0.312493 0.015540
v 0.000000 0.367565 0.022492
v -0.005791 0.312460 0.016046
v -0.012155 0.370066 0.018934
v -0.017717 0.312176 0.002143
v -0.023792 0.370313 0.001158
v -0.014790 0.312452 -0.008287
v -0.013552 0.370201 -0.018846
v -0.000425 0.312055 -0.017400
v 0.000000 0.367565 -0.022492
v -0.013552 0.370201 -0.018846
v 0.000000 0.367565 -0.022492
v 0.008622 0.369721 -0.021193
v 0.020286 0.370448 -0.008850
v -0.023792 0.370313 0.001158
v -0.012155 0.370066 0.018934
v 0.011078 0.369683 0.020265
v 0.000000 0.367565 0.022492
v 0.022959 0.369277 0.004381
v 0.006465 0.312493 0.015540
v 0.017799 0.312095 0.003057
v 0.000000 0.312512 -0.000000
v -0.005791 0.312460 0.016046
v 0.011883 0.312315 -0.011903
v -0.017717 0.312176 0.002143
v -0.000425 0.312055 -0.017400
v -0.014790 0.312452 -0.008287
vt 0.070312 0.000000
vt 0.509766 0.125000
vt 0.036469 0.056152
vt 0.484375 0.219238
vt 0.004833 0.177246
vt 0.466064 0.331543
vt -0.001439 0.276367
vt -0.016235 0.419434
vt 0.454590 0.450684
vt 0.000000 0.500488
vt 0.455078 0.539307
vt -0.017365 0.593750
vt 0.468506 0.670166
vt -0.004181 0.747803
vt 0.479492 0.744629
vt 0.027924 0.907715
vt 0.512695 0.863647
vt 0.076050 1.000000
vt 0.721191 0.002441
vt 0.813965 0.047363
vt 0.845703 0.103027
vt 0.842285 0.224609
vt 0.567871 0.051758
vt 0.537109 0.201172
vt 0.647949 0.325195
vt 0.575684 0.285645
vt 0.788086 0.304199
vt 0.999512 0.415527
vt 0.956543 0.529297
vt 0.878906 0.425293
vt 0.962891 0.335449
vt 0.841309 0.540283
vt 0.834473 0.304199
vt 0.765625 0.479492
vt 0.776855 0.357422
vt1 0.073730 0.004395
vt1 0.509766 0.127930
vt1 0.040131 0.059570
vt1 0.484619 0.221191
vt1 0.008759 0.179688
vt1 0.466553 0.333008
vt1 0.002539 0.278320
vt1 -0.012146 0.419922
vt1 0.454834 0.451172
vt1 0.003967 0.500488
vt1 0.455322 0.539062
vt1 -0.013260 0.593018
vt1 0.468750 0.668945
vt1 -0.000182 0.745605
vt1 0.479736 0.742676
vt1 0.031647 0.904480
vt1 0.512207 0.860840
vt1 0.079407 0.996033
vt1 0.701172 0.421387
vt1 0.560059 0.489746
vt1 0.511230 0.573975
vt1 0.516113 0.759521
vt1 0.934082 0.496094
vt1 0.981934 0.723389
vt1 0.812500 0.913086
vt1 0.922852 0.852661
vt1 0.599121 0.880920
vt1 0.879395 0.212891
vt1 0.812988 0.387207
vt1 0.693359 0.227051
vt1 0.822754 0.089355
vt1 0.635742 0.404297
vt1 0.625488 0.041504
vt1 0.520020 0.310547
vt1 0.537598 0.123047
vn 0.000000 -0.062992 -1.000000
vn 0.007874 -0.102362 -0.992126
vn 0.385827 -0.062992 -0.921260
vn 0.692913 -0.102362 -0.716535
vn 0.913386 -0.062992 -0.409449
vn 0.976378 -0.102362 0.188976
vn 0.976378 -0.062992 0.204724
vn 0.472441 -0.062992 0.881890
vn 0.393701 -0.102362 0.913386
vn 0.000000 -0.062992 1.000000
vn -0.346457 -0.102362 0.929134
vn -0.535433 -0.062992 0.842520
vn -0.976378 -0.102362 0.181102
vn -1.000000 -0.055118 0.062992
vn -0.866142 -0.102362 -0.488189
vn -0.590551 -0.055118 -0.803149
vn -0.086614 -0.102362 -0.992126
vn 0.000000 -0.062992 -1.000000
vn -0.196850 0.944882 -0.259843
vn 0.000000 -0.062992 -1.000000
vn 0.149606 0.913386 -0.385827
vn 0.204724 0.976378 -0.102362
vn -0.299213 0.952756 0.023622
vn -0.149606 0.968504 0.220472
vn 0.188976 0.937008 0.291338
vn 0.000000 -0.062992 1.000000
vn 0.763780 0.622047 0.188976
vn 0.000000 -1.000000 0.000000
vn 0.000000 -1.000000 0.000000
vn 0.000000 -1.000000 0.000000
vn 0.000000 -1.000000 0.000000
vn 0.000000 -1.000000 0.000000
vn 0.000000 -1.000000 0.000000
vn 0.000000 -1.000000 0.000000
vn 0.000000 -1.000000 0.000000
tan -0.952756 0.314961 -0.019840 1.000000
tan -0.929630 0.343729 -0.042842 1.000000
tan -0.906752 0.159588 -0.390663 1.000000
tan -0.714117 0.067146 -0.700167 1.000000
tan -0.403993 0.079112 -0.913386 1.000000
tan 0.202802 0.146072 -0.968690 1.000000
tan 0.211048 0.123008 -0.968690 1.000000
tan 0.881890 0.006944 -0.471945 1.000000
tan 0.913386 -0.007192 -0.394507 1.000000
tan 1.000000 -0.007874 -0.000496 1.000000
tan 0.929134 0.000000 0.346457 1.000000
tan 0.842520 -0.006634 0.534937 1.000000
tan 0.194990 -0.146072 0.968690 1.000000
tan 0.071548 -0.173228 0.984252 1.000000
tan -0.475479 -0.082708 0.860934 1.000000
tan -0.803150 -0.044268 0.593589 1.000000
tan -0.937442 -0.320293 0.114886 1.000000
tan -0.944882 -0.322835 0.020336 1.000000
tan -0.610081 -0.325563 -0.721681 1.000000
tan -0.503937 -0.866142 0.054560 1.000000
tan -0.486825 -0.250357 -0.781449 1.000000
tan -0.722673 0.083018 -0.653481 1.000000
tan -0.802902 -0.239259 -0.519995 1.000000
tan -0.649947 0.063054 -0.718023 1.000000
tan -0.560729 0.347077 -0.752557 1.000000
tan -0.503937 0.866142 0.054560 1.000000
tan -0.600781 0.775621 -0.124930 1.000000
tan -0.889764 0.000000 0.456693 1.000000
tan -0.889764 0.000000 0.456693 1.000000
tan -0.889764 0.000000 0.456693 1.000000
tan -0.889764 0.000000 0.456693 1.000000
tan -0.889764 0.000000 0.456693 1.000000
tan -0.889764 0.000000 0.456693 1.000000
tan -0.889764 0.000000 0.456693 1.000000
tan -0.889764 0.000000 0.456693 1.000000
f 3/3/3 2/2/2 1/1/1
f 2/2/2 3/3/3 4/4/4
f 5/5/5 4/4/4 3/3/3
f 4/4/4 5/5/5 6/6/6
f 7/7/7 6/6/6 5/5/5
f 7/7/7 8/8/8 6/6/6
f 6/6/6 8/8/8 9/9/9
f 8/8/8 10/10/10 9/9/9
f 9/9/9 10/10/10 11/11/11
f 12/12/12 11/11/11 10/10/10
f 11/11/11 12/12/12 13/13/13
f 14/14/14 13/13/13 12/12/12
f 13/13/13 14/14/14 15/15/15
f 16/16/16 15/15/15 14/14/14
f 16/16/16 17/17/17 15/15/15
f 18/18/18 17/17/17 16/16/16
f 21/21/21 20/20/20 19/19/19
f 22/22/22 21/21/21 19/19/19
f 22/22/22 19/19/19 23/23/23
f 22/22/22 23/23/23 24/24/24
f 22/22/22 24/24/24 25/25/25
f 25/25/25 24/24/24 26/26/26
f 22/22/22 25/25/25 27/27/27
f 30/30/30 29/29/29 28/28/28
f 30/30/30 28/28/28 31/31/31
f 30/30/30 32/32/32 29/29/29
f 30/30/30 31/31/31 33/33/33
f 30/30/30 34/34/34 32/32/32
f 30/30/30 33/33/33 35/35/35
f 30/30/30 35/35/35 34/34/34
