mtllib SM_Outlet_LOD3.mtl
g SM_Outlet_LOD3
#Vertices 112
#Indices 174
#Section 0 Offset 0 NumIndices 174 MaterialIndex 0 MI_Outlet
v -0.004410 -0.010245 -0.010017
v -0.004778 -0.008584 0.013019
v -0.005919 -0.013417 0.002374
v -0.004645 -0.031168 -0.014684
v -0.004410 -0.010245 -0.010017
v -0.006366 -0.020697 -0.014797
v -0.004450 -0.026477 0.020558
v -0.004943 -0.039809 0.012830
v -0.006313 -0.025570 0.008491
v -0.004669 -0.036805 -0.007349
v -0.004645 -0.031168 -0.014684
v -0.006254 -0.022866 -0.004345
v -0.005035 -0.016359 0.019262
v -0.004450 -0.026477 0.020558
v -0.006313 -0.025570 0.008491
v -0.004645 -0.031168 -0.014684
v -0.006366 -0.020697 -0.014797
v -0.006254 -0.022866 -0.004345
v -0.006313 -0.025570 0.008491
v -0.006254 -0.022866 -0.004345
v -0.005919 -0.013417 0.002374
v -0.005919 -0.013417 0.002374
v -0.006254 -0.022866 -0.004345
v -0.006366 -0.020697 -0.014797
v -0.006313 -0.025570 0.008491
v -0.005919 -0.013417 0.002374
v -0.005035 -0.016359 0.019262
v -0.005035 -0.016359 0.019262
v -0.005919 -0.013417 0.002374
v -0.004778 -0.008584 0.013019
v -0.004410 -0.010245 -0.010017
v -0.005919 -0.013417 0.002374
v -0.006366 -0.020697 -0.014797
v -0.006366 0.020697 -0.014797
v -0.004410 0.010244 -0.010017
v -0.004645 0.031166 -0.014683
v -0.004450 0.026475 0.020558
v -0.006313 0.025569 0.008490
v -0.004943 0.039807 0.012831
v -0.004645 0.031166 -0.014683
v -0.004669 0.036802 -0.007348
v -0.006254 0.022865 -0.004345
v -0.005034 0.016359 0.019261
v -0.006313 0.025569 0.008490
v -0.004450 0.026475 0.020558
v -0.006366 0.020697 -0.014797
v -0.004645 0.031166 -0.014683
v -0.006254 0.022865 -0.004345
v -0.006313 0.025569 0.008490
v -0.005467 0.011613 0.005334
v -0.006254 0.022865 -0.004345
v -0.005467 0.011613 0.005334
v -0.006366 0.020697 -0.014797
v -0.006254 0.022865 -0.004345
v -0.005467 0.011613 0.005334
v -0.006313 0.025569 0.008490
v -0.005034 0.016359 0.019261
v -0.004410 0.010244 -0.010017
v -0.006366 0.020697 -0.014797
v -0.005467 0.011613 0.005334
v -0.006313 -0.025570 0.008491
v -0.004669 -0.036805 -0.007349
v -0.006254 -0.022866 -0.004345
v -0.004943 -0.039809 0.012830
v -0.004669 -0.036805 -0.007349
v -0.006254 0.022865 -0.004345
v -0.004669 0.036802 -0.007348
v -0.006313 0.025569 0.008490
v -0.004669 0.036802 -0.007348
v -0.004943 0.039807 0.012831
v 0.000000 -0.070754 0.040457
v 0.000000 -0.070754 -0.039659
v -0.004102 -0.066917 -0.035925
v -0.004102 -0.066917 0.036723
v 0.000000 0.000000 0.040457
v 0.000000 -0.070754 0.040457
v -0.004102 -0.066917 0.036723
v -0.004102 0.000000 0.036723
v -0.004102 0.066917 0.036723
v 0.000000 0.000000 0.040457
v 0.000000 0.070754 0.040457
v 0.000000 -0.000000 -0.039659
v -0.004102 -0.066917 -0.035925
v 0.000000 -0.070754 -0.039659
v -0.004102 -0.000000 -0.035925
v 0.000000 -0.000000 -0.039659
v -0.004102 0.066917 -0.035925
v 0.000000 0.070754 -0.039659
v 0.000000 0.070754 -0.039659
v 0.000000 0.070754 0.040457
v -0.004102 0.066917 -0.035925
v -0.004102 0.066917 0.036723
v -0.004102 -0.066917 0.036723
v -0.004943 -0.039809 0.012830
v -0.004450 -0.026477 0.020558
v -0.004669 -0.036805 -0.007349
v -0.004102 -0.066917 -0.035925
v -0.004645 -0.031168 -0.014684
v -0.004102 0.000000 0.036723
v -0.004102 -0.000000 -0.035925
v -0.005035 -0.016359 0.019262
v -0.004410 -0.010245 -0.010017
v -0.004778 -0.008584 0.013019
v -0.004410 0.010244 -0.010017
v -0.004645 0.031166 -0.014683
v -0.005467 0.011613 0.005334
v -0.004102 0.066917 -0.035925
v -0.005034 0.016359 0.019261
v -0.004669 0.036802 -0.007348
v -0.004450 0.026475 0.020558
v -0.004102 0.066917 0.036723
v -0.004943 0.039807 0.012831
vt 0.774414 0.285156
vt 0.929688 0.278809
vt 0.857910 0.305664
vt 0.730469 0.428223
vt 0.757324 0.277832
vt 0.739746 0.357910
vt 0.983398 0.396484
vt 0.931641 0.484375
vt 0.900391 0.392090
vt 0.790527 0.468262
vt 0.740723 0.429688
vt 0.811523 0.373047
vt 0.975098 0.329102
vt 0.983398 0.396484
vt 0.899902 0.390625
vt 0.740723 0.430176
vt 0.739746 0.357910
vt 0.811523 0.373047
vt 0.900391 0.391113
vt 0.811523 0.373047
vt 0.857910 0.308594
vt 0.857422 0.308594
vt 0.811523 0.373047
vt 0.739746 0.357910
vt 0.900391 0.391113
vt 0.857910 0.308594
vt 0.973633 0.326660
vt 0.973633 0.320312
vt 0.857910 0.309082
vt 0.929199 0.274414
vt 0.773926 0.287109
vt 0.857910 0.308594
vt 0.739746 0.357910
vt 0.611328 0.156250
vt 0.629883 0.236328
vt 0.602051 0.085938
vt 0.854980 0.116211
vt 0.771973 0.121094
vt 0.802734 0.028809
vt 0.611816 0.083984
vt 0.661621 0.045410
vt 0.683105 0.140625
vt 0.846680 0.183594
vt 0.771484 0.122559
vt 0.854980 0.116211
vt 0.611328 0.156250
vt 0.611816 0.083984
vt 0.683105 0.140625
vt 0.771973 0.122070
vt 0.750488 0.217285
vt 0.683105 0.140625
vt 0.750000 0.217285
vt 0.611328 0.156250
vt 0.683105 0.140625
vt 0.750000 0.217285
vt 0.771973 0.122070
vt 0.845703 0.186035
vt 0.645996 0.227051
vt 0.611328 0.156250
vt 0.750488 0.217285
vt 0.900391 0.391113
vt 0.791016 0.468262
vt 0.811523 0.373047
vt 0.930176 0.488281
vt 0.791992 0.468750
vt 0.683105 0.140625
vt 0.662109 0.045410
vt 0.771973 0.122070
vt 0.663086 0.044922
vt 0.801270 0.024902
vt 0.570801 0.994202
vt 0.017563 0.997566
vt 0.048340 0.963898
vt 0.539062 0.960541
vt 0.583496 0.499512
vt 0.570801 0.994202
vt 0.539062 0.960541
vt 0.545410 0.499512
vt 0.537109 0.037598
vt 0.583496 0.499512
vt 0.568848 0.003906
vt 0.000058 0.500000
vt 0.048340 0.963898
vt 0.017563 0.997566
vt 0.038391 0.500000
vt 0.000058 0.500000
vt 0.047546 0.036133
vt 0.016068 0.001953
vt 0.016068 0.001953
vt 0.568848 0.003906
vt 0.047546 0.036133
vt 0.537109 0.037598
vt 0.539062 0.960541
vt 0.378906 0.771973
vt 0.432861 0.681396
vt 0.239014 0.750488
vt 0.048340 0.963898
vt 0.187622 0.713623
vt 0.545410 0.499512
vt 0.038391 0.500000
vt 0.423828 0.611572
vt 0.219604 0.569824
vt 0.380127 0.558350
vt 0.219360 0.429688
vt 0.187012 0.286133
vt 0.326416 0.419922
vt 0.047546 0.036133
vt 0.423340 0.387207
vt 0.238159 0.249023
vt 0.432373 0.317383
vt 0.537109 0.037598
vt 0.377930 0.227051
vt1 0.678711 0.303223
vt1 0.895996 0.293945
vt1 0.794922 0.331543
vt1 0.617676 0.502686
vt1 0.655273 0.292480
vt1 0.630371 0.404297
vt1 0.970703 0.458496
vt1 0.898438 0.580811
vt1 0.854492 0.452148
vt1 0.701172 0.558594
vt1 0.631836 0.504883
vt1 0.730957 0.425781
vt1 0.958496 0.364746
vt1 0.970703 0.458496
vt1 0.854004 0.450195
vt1 0.631836 0.505371
vt1 0.630371 0.404297
vt1 0.730957 0.425781
vt1 0.854492 0.450684
vt1 0.730957 0.425781
vt1 0.795410 0.335449
vt1 0.794922 0.335449
vt1 0.730957 0.425781
vt1 0.630371 0.404297
vt1 0.854980 0.450684
vt1 0.795410 0.335449
vt1 0.957031 0.360840
vt1 0.956543 0.352051
vt1 0.795410 0.336426
vt1 0.895020 0.287598
vt1 0.678223 0.305664
vt1 0.795410 0.335449
vt1 0.630371 0.404297
vt1 0.630859 0.857300
vt1 0.656250 0.968887
vt1 0.617676 0.759155
vt1 0.970703 0.801270
vt1 0.854980 0.808350
vt1 0.897461 0.679443
vt1 0.631836 0.756836
vt1 0.700684 0.702881
vt1 0.731445 0.835571
vt1 0.959473 0.895142
vt1 0.854492 0.810303
vt1 0.970703 0.801270
vt1 0.630859 0.857300
vt1 0.631348 0.756226
vt1 0.731445 0.835571
vt1 0.854980 0.809692
vt1 0.824707 0.942261
vt1 0.731445 0.835571
vt1 0.824219 0.942322
vt1 0.630859 0.857300
vt1 0.731445 0.835571
vt1 0.824707 0.942749
vt1 0.854980 0.809570
vt1 0.957520 0.898804
vt1 0.679199 0.955750
vt1 0.630859 0.857300
vt1 0.824707 0.942474
vt1 0.854980 0.451172
vt1 0.702148 0.558594
vt1 0.730957 0.425781
vt1 0.896484 0.586182
vt1 0.703613 0.559326
vt1 0.731445 0.835449
vt1 0.701660 0.702881
vt1 0.854980 0.809326
vt1 0.703125 0.701904
vt1 0.895508 0.673828
vt1 0.571777 0.988617
vt1 0.025345 0.991936
vt1 0.055756 0.958679
vt1 0.540527 0.955353
vt1 0.584473 0.499512
vt1 0.571777 0.988617
vt1 0.540527 0.955353
vt1 0.546875 0.500000
vt1 0.538574 0.043457
vt1 0.584473 0.499512
vt1 0.569824 0.010742
vt1 0.008064 0.500488
vt1 0.055756 0.958679
vt1 0.025345 0.991936
vt1 0.045929 0.500488
vt1 0.008064 0.500488
vt1 0.054962 0.041992
vt1 0.023880 0.008301
vt1 0.023880 0.008301
vt1 0.569824 0.010742
vt1 0.054962 0.041992
vt1 0.538574 0.043457
vt1 0.540527 0.955353
vt1 0.382324 0.769165
vt1 0.435547 0.679688
vt1 0.244019 0.747803
vt1 0.055756 0.958679
vt1 0.193359 0.711426
vt1 0.546875 0.500000
vt1 0.045929 0.500488
vt1 0.426514 0.610840
vt1 0.224854 0.569580
vt1 0.383545 0.558105
vt1 0.224731 0.430664
vt1 0.192749 0.289062
vt1 0.330322 0.421387
vt1 0.054962 0.041992
vt1 0.426270 0.389160
vt1 0.243164 0.252441
vt1 0.435059 0.319824
vt1 0.538574 0.043457
vt1 0.381348 0.230469
vn -1.000000 0.000000 0.000000
vn -1.000000 0.000000 0.000000
vn -1.000000 0.000000 0.000000
vn -0.480315 -0.251969 -0.842520
vn -0.472441 0.692913 -0.551181
vn -0.488189 0.181102 -0.850394
vn -1.000000 0.000000 0.000000
vn -1.000000 0.000000 0.000000
vn -1.000000 0.000000 0.000000
vn -1.000000 0.000000 0.000000
vn -1.000000 0.000000 0.000000
vn -1.000000 0.000000 0.000000
vn -1.000000 0.000000 0.000000
vn -1.000000 0.000000 0.000000
vn -1.000000 0.000000 0.000000
vn -1.000000 0.000000 0.000000
vn -1.000000 0.000000 0.000000
vn -1.000000 0.000000 0.000000
vn -1.000000 0.000000 0.000000
vn -1.000000 0.000000 0.000000
vn -1.000000 0.000000 0.000000
vn -1.000000 0.000000 0.000000
vn -1.000000 0.000000 0.000000
vn -1.000000 0.000000 0.000000
vn -1.000000 0.000000 0.000000
vn -1.000000 0.000000 0.000000
vn -1.000000 0.000000 0.000000
vn -1.000000 0.000000 0.000000
vn -1.000000 0.000000 0.000000
vn -1.000000 0.000000 0.000000
vn -1.000000 0.000000 0.000000
vn -1.000000 0.000000 0.000000
vn -1.000000 0.000000 0.000000
vn -0.488189 -0.181102 -0.850394
vn -0.472441 -0.692913 -0.551181
vn -0.480315 0.251968 -0.842520
vn -1.000000 0.000000 0.000000
vn -1.000000 0.000000 0.000000
vn -1.000000 0.000000 0.000000
vn -1.000000 0.000000 0.000000
vn -1.000000 0.000000 0.000000
vn -1.000000 0.000000 0.000000
vn -1.000000 0.000000 0.000000
vn -1.000000 0.000000 0.000000
vn -1.000000 0.000000 0.000000
vn -1.000000 0.000000 0.000000
vn -1.000000 0.000000 0.000000
vn -1.000000 0.000000 0.000000
vn -1.000000 0.000000 0.000000
vn -1.000000 0.000000 0.000000
vn -1.000000 0.000000 0.000000
vn -1.000000 0.000000 0.000000
vn -1.000000 0.000000 0.000000
vn -1.000000 0.000000 0.000000
vn -1.000000 0.000000 0.000000
vn -1.000000 0.000000 0.000000
vn -1.000000 0.000000 0.000000
vn -1.000000 0.000000 0.000000
vn -1.000000 0.000000 0.000000
vn -1.000000 0.000000 0.000000
vn -1.000000 0.000000 0.000000
vn -1.000000 0.000000 0.000000
vn -1.000000 0.000000 0.000000
vn -1.000000 0.000000 0.000000
vn -1.000000 0.000000 0.000000
vn -1.000000 0.000000 0.000000
vn -1.000000 0.000000 0.000000
vn -1.000000 0.000000 0.000000
vn -1.000000 0.000000 0.000000
vn -1.000000 0.000000 0.000000
vn -0.685039 -0.732283 0.000000
vn -0.685039 -0.732283 0.000000
vn -0.685039 -0.732283 0.000000
vn -0.685039 -0.732283 0.000000
vn -0.669291 0.000000 0.740157
vn -0.669291 0.000000 0.740157
vn -0.669291 0.000000 0.740157
vn -0.669291 0.000000 0.740157
vn -0.669291 0.000000 0.740157
vn -0.669291 0.000000 0.740157
vn -0.669291 0.000000 0.740157
vn -0.669291 -0.000000 -0.740157
vn -0.669291 -0.000000 -0.740157
vn -0.669291 -0.000000 -0.740157
vn -0.669291 -0.000000 -0.740157
vn -0.669291 -0.000000 -0.740157
vn -0.669291 -0.000000 -0.740157
vn -0.669291 -0.000000 -0.740157
vn -0.685039 0.732283 -0.000000
vn -0.685039 0.732283 -0.000000
vn -0.685039 0.732283 -0.000000
vn -0.685039 0.732283 -0.000000
vn -1.000000 0.000000 0.000000
vn -1.000000 0.000000 0.000000
vn -1.000000 0.000000 0.000000
vn -1.000000 0.000000 0.000000
vn -1.000000 0.000000 0.000000
vn -1.000000 0.000000 0.000000
vn -1.000000 0.000000 0.000000
vn -1.000000 0.000000 0.000000
vn -1.000000 0.000000 0.000000
vn -1.000000 0.000000 0.000000
vn -1.000000 0.000000 0.000000
vn -1.000000 0.000000 0.000000
vn -1.000000 0.000000 0.000000
vn -1.000000 0.000000 0.000000
vn -1.000000 0.000000 0.000000
vn -1.000000 0.000000 0.000000
vn -1.000000 0.000000 0.000000
vn -1.000000 0.000000 0.000000
vn -1.000000 0.000000 0.000000
vn -1.000000 0.000000 0.000000
tan 0.000000 1.000000 0.007874 1.000000
tan 0.000000 1.000000 0.007874 1.000000
tan 0.000000 1.000000 0.007874 1.000000
tan -0.064976 0.865212 -0.221713 1.000000
tan 0.495753 0.700601 0.455825 1.000000
tan 0.104036 0.930250 0.138384 1.000000
tan 0.000000 1.000000 0.007874 1.000000
tan 0.000000 1.000000 -0.000000 1.000000
tan 0.000000 1.000000 0.007874 1.000000
tan 0.000000 1.000000 0.007874 1.000000
tan 0.000000 1.000000 0.007874 1.000000
tan 0.000000 1.000000 0.007874 1.000000
tan 0.000000 1.000000 0.015748 1.000000
tan 0.000000 1.000000 0.015748 1.000000
tan 0.000000 1.000000 0.015748 1.000000
tan 0.000000 1.000000 -0.000000 1.000000
tan 0.000000 1.000000 -0.000000 1.000000
tan 0.000000 1.000000 -0.000000 1.000000
tan 0.000000 1.000000 0.007874 1.000000
tan 0.000000 1.000000 0.007874 1.000000
tan 0.000000 1.000000 0.007874 1.000000
tan 0.000000 1.000000 -0.000000 1.000000
tan 0.000000 1.000000 -0.000000 1.000000
tan 0.000000 1.000000 -0.007874 1.000000
tan 0.000000 1.000000 0.007874 1.000000
tan 0.000000 1.000000 0.007874 1.000000
tan 0.000000 1.000000 0.015748 1.000000
tan 0.000000 1.000000 0.031496 1.000000
tan 0.000000 1.000000 0.007874 1.000000
tan 0.000000 1.000000 0.015748 1.000000
tan 0.000000 1.000000 -0.007874 1.000000
tan 0.000000 1.000000 -0.007874 1.000000
tan 0.000000 1.000000 -0.007874 1.000000
tan -0.110732 0.930250 -0.134540 1.000000
tan -0.495753 0.696261 -0.450369 1.000000
tan 0.058342 0.865212 0.225494 1.000000
tan 0.000000 1.000000 -0.000000 1.000000
tan 0.000000 1.000000 -0.000000 1.000000
tan 0.000000 1.000000 0.007874 1.000000
tan 0.000000 1.000000 -0.000000 1.000000
tan 0.000000 1.000000 -0.000000 1.000000
tan 0.000000 1.000000 -0.000000 1.000000
tan 0.000000 1.000000 -0.007874 1.000000
tan 0.000000 1.000000 -0.007874 1.000000
tan 0.000000 1.000000 -0.007874 1.000000
tan 0.000000 1.000000 0.007874 1.000000
tan 0.000000 1.000000 0.007874 1.000000
tan 0.000000 1.000000 0.007874 1.000000
tan 0.000000 1.000000 -0.000000 1.000000
tan 0.000000 1.000000 -0.000000 1.000000
tan 0.000000 1.000000 -0.000000 1.000000
tan 0.000000 1.000000 0.007874 1.000000
tan 0.000000 1.000000 0.007874 1.000000
tan 0.000000 1.000000 0.007874 1.000000
tan 0.000000 1.000000 -0.007874 1.000000
tan 0.000000 1.000000 -0.007874 1.000000
tan 0.000000 1.000000 -0.007874 1.000000
tan 0.000000 1.000000 0.015748 1.000000
tan 0.000000 1.000000 0.015748 1.000000
tan 0.000000 1.000000 0.015748 1.000000
tan 0.000000 1.000000 -0.000000 1.000000
tan 0.000000 1.000000 0.007874 1.000000
tan 0.000000 1.000000 0.007874 1.000000
tan 0.000000 1.000000 0.007874 1.000000
tan 0.000000 1.000000 0.007874 1.000000
tan 0.000000 1.000000 -0.000000 1.000000
tan 0.000000 1.000000 -0.000000 1.000000
tan 0.000000 1.000000 -0.000000 1.000000
tan 0.000000 1.000000 -0.000000 1.000000
tan 0.000000 1.000000 -0.000000 1.000000
tan -0.732283 0.685039 -0.000000 1.000000
tan -0.732283 0.685039 -0.000000 1.000000
tan -0.732283 0.685039 -0.000000 1.000000
tan -0.732283 0.685039 -0.000000 1.000000
tan -0.122388 0.978052 -0.110670 1.000000
tan -0.244776 0.938930 -0.221341 1.000000
tan -0.122388 0.978052 -0.110670 1.000000
tan 0.000000 0.989150 -0.000000 1.000000
tan 0.122388 0.978052 0.110670 1.000000
tan 0.122388 0.978052 0.110670 1.000000
tan 0.233120 0.944200 0.210800 1.000000
tan -0.122388 0.978052 0.110670 1.000000
tan -0.122388 0.978052 0.110670 1.000000
tan -0.238948 0.938930 0.216070 1.000000
tan -0.005828 0.989150 0.005270 1.000000
tan 0.134044 0.978052 -0.121210 1.000000
tan 0.134044 0.978052 -0.121210 1.000000
tan 0.256433 0.933102 -0.231881 1.000000
tan 0.732283 0.685039 -0.000000 1.000000
tan 0.732283 0.685039 -0.000000 1.000000
tan 0.732283 0.685039 -0.000000 1.000000
tan 0.732283 0.685039 -0.000000 1.000000
tan 0.000000 1.000000 -0.007874 1.000000
tan 0.000000 1.000000 -0.015748 1.000000
tan 0.000000 1.000000 -0.007874 1.000000
tan 0.000000 1.000000 0.015748 1.000000
tan 0.000000 1.000000 0.023622 1.000000
tan 0.000000 1.000000 0.015748 1.000000
tan 0.000000 1.000000 -0.000000 1.000000
tan 0.000000 1.000000 -0.000000 1.000000
tan 0.000000 1.000000 -0.000000 1.000000
tan 0.000000 1.000000 -0.000000 1.000000
tan 0.000000 1.000000 -0.000000 1.000000
tan 0.000000 1.000000 -0.000000 1.000000
tan 0.000000 1.000000 -0.015748 1.000000
tan 0.000000 1.000000 -0.000000 1.000000
tan 0.000000 1.000000 -0.015748 1.000000
tan 0.000000 1.000000 -0.000000 1.000000
tan 0.000000 1.000000 -0.007874 1.000000
tan 0.000000 1.000000 0.007874 1.000000
tan 0.000000 1.000000 0.007874 1.000000
tan 0.000000 1.000000 0.015748 1.000000
f 3/3/3 2/2/2 1/1/1
f 6/6/6 5/5/5 4/4/4
f 9/9/9 8/8/8 7/7/7
f 12/12/12 11/11/11 10/10/10
f 15/15/15 14/14/14 13/13/13
f 18/18/18 17/17/17 16/16/16
f 21/21/21 20/20/20 19/19/19
f 24/24/24 23/23/23 22/22/22
f 27/27/27 26/26/26 25/25/25
f 30/30/30 29/29/29 28/28/28
f 33/33/33 32/32/32 31/31/31
f 36/36/36 35/35/35 34/34/34
f 39/39/39 38/38/38 37/37/37
f 42/42/42 41/41/41 40/40/40
f 45/45/45 44/44/44 43/43/43
f 48/48/48 47/47/47 46/46/46
f 51/51/51 50/50/50 49/49/49
f 54/54/54 53/53/53 52/52/52
f 57/57/57 56/56/56 55/55/55
f 60/60/60 59/59/59 58/58/58
f 63/63/63 62/62/62 61/61/61
f 61/61/61 65/65/65 64/64/64
f 68/68/68 67/67/67 66/66/66
f 68/68/68 70/70/70 69/69/69
f 73/73/73 72/72/72 71/71/71
f 74/74/74 73/73/73 71/71/71
f 77/77/77 76/76/76 75/75/75
f 75/75/75 78/78/78 77/77/77
f 80/80/80 79/79/79 78/78/78
f 81/81/81 79/79/79 80/80/80
f 84/84/84 83/83/83 82/82/82
f 85/85/85 82/82/82 83/83/83
f 85/85/85 87/87/87 86/86/86
f 88/88/88 86/86/86 87/87/87
f 91/91/91 90/90/90 89/89/89
f 92/92/92 90/90/90 91/91/91
f 95/95/95 94/94/94 93/93/93
f 94/94/94 96/96/96 93/93/93
f 96/96/96 97/97/97 93/93/93
f 96/96/96 98/98/98 97/97/97
f 93/93/93 99/99/99 95/95/95
f 98/98/98 100/100/100 97/97/97
f 101/101/101 95/95/95 99/99/99
f 98/98/98 102/102/102 100/100/100
f 103/103/103 101/101/101 99/99/99
f 103/103/103 99/99/99 102/102/102
f 102/102/102 99/99/99 100/100/100
f 100/100/100 99/99/99 104/104/104
f 105/105/105 100/100/100 104/104/104
f 106/106/106 104/104/104 99/99/99
f 107/107/107 100/100/100 105/105/105
f 106/106/106 99/99/99 108/108/108
f 109/109/109 107/107/107 105/105/105
f 108/108/108 99/99/99 110/110/110
f 109/109/109 111/111/111 107/107/107
f 111/111/111 110/110/110 99/99/99
f 112/112/112 111/111/111 109/109/109
f 112/112/112 110/110/110 111/111/111
