mtllib SM_OliveOilBottle_SM_OliveOilBottle_Cap_LOD3.mtl
g SM_OliveOilBottle_SM_OliveOilBottle_Cap_LOD3
#Vertices 20
#Indices 42
#Section 0 Offset 0 NumIndices 42 MaterialIndex 0 MI_OliveOilBottle
v -0.000342 0.312463 0.018622
v 0.017799 0.312095 0.003057
v -0.017650 0.310659 -0.000659
v 0.001608 0.310086 -0.019267
v 0.009240 0.369218 0.022427
v -0.021153 0.371319 0.012517
v 0.023744 0.371174 -0.004669
v -0.013552 0.370201 -0.018846
v 0.001048 0.369934 -0.024424
v 0.001048 0.369934 -0.024424
v 0.001608 0.310086 -0.019267
v 0.023744 0.371174 -0.004669
v 0.017799 0.312095 0.003057
v 0.009240 0.369218 0.022427
v -0.000342 0.312463 0.018622
v -0.021153 0.371319 0.012517
v -0.017650 0.310659 -0.000659
v -0.013552 0.370201 -0.018846
v 0.001608 0.310086 -0.019267
v 0.001048 0.369934 -0.024424
vt 0.997070 0.361816
vt 0.956543 0.529297
vt 0.816895 0.313965
vt 0.760254 0.497559
vt 0.627930 0.327148
vt 0.523926 0.122559
vt 0.838867 0.263184
vt 0.721191 0.002441
vt 0.821777 0.050781
vt 0.048676 0.000000
vt 0.521973 0.137695
vt -0.008842 0.214355
vt 0.466064 0.331543
vt -0.013969 0.437500
vt 0.453369 0.500000
vt -0.023026 0.672607
vt 0.483887 0.687012
vt 0.027924 0.907715
vt 0.532227 0.879150
vt 0.059357 1.016312
vt1 0.875000 0.130371
vt1 0.812988 0.387207
vt1 0.598633 0.056641
vt1 0.511719 0.338379
vt1 0.843262 0.915833
vt1 1.000977 0.604248
vt1 0.521484 0.817993
vt1 0.701172 0.421387
vt1 0.547852 0.494141
vt1 0.052277 0.003906
vt1 0.521973 0.140137
vt1 -0.004803 0.216797
vt1 0.466553 0.333008
vt1 -0.009888 0.437988
vt1 0.453613 0.500000
vt1 -0.018875 0.671387
vt1 0.483887 0.685547
vt1 0.031647 0.904480
vt1 0.532227 0.876160
vt1 0.062805 1.012215
vn 0.000000 -1.000000 0.000000
vn 0.000000 -1.000000 0.000000
vn 0.000000 -1.000000 0.000000
vn 0.000000 -1.000000 0.000000
vn 0.165354 0.905512 0.401575
vn -0.259843 0.952756 0.141732
vn 0.299213 0.952756 -0.023622
vn -0.196850 0.944882 -0.259843
vn 0.062992 0.732283 -0.677165
vn 0.047244 -0.055118 -1.000000
vn 0.228346 -0.094488 -0.968504
vn 0.984252 -0.055118 -0.149606
vn 0.976378 -0.102362 0.188976
vn 0.377953 -0.055118 0.921260
vn -0.039370 -0.102362 0.992126
vn -0.874016 -0.055118 0.488189
vn -0.992126 -0.102362 -0.039370
vn -0.590551 -0.055118 -0.803149
vn 0.023622 -0.094488 -0.992126
vn 0.062992 -0.062992 -1.000000
tan -0.889764 0.000000 0.456693 1.000000
tan -0.889764 0.000000 0.456693 1.000000
tan -0.889764 0.000000 0.456693 1.000000
tan -0.889764 0.000000 0.456693 1.000000
tan -0.438093 0.430405 -0.790129 1.000000
tan -0.787712 -0.135594 -0.532643 1.000000
tan -0.765206 0.226362 -0.562651 1.000000
tan -0.610081 -0.325563 -0.721681 1.000000
tan -0.214334 -0.647777 -0.720441 1.000000
tan -0.960630 0.291339 -0.061442 1.000000
tan -0.945626 0.205902 -0.243040 1.000000
tan -0.141918 0.116250 -0.976502 1.000000
tan 0.202802 0.146072 -0.968690 1.000000
tan 0.921260 -0.000000 -0.377953 1.000000
tan 0.992126 0.000000 0.039370 1.000000
tan 0.492529 -0.068820 0.874016 1.000000
tan -0.023746 -0.148428 0.984314 1.000000
tan -0.803150 -0.044268 0.593589 1.000000
tan -0.921818 -0.367165 0.013020 1.000000
tan -0.937008 -0.354331 -0.036704 1.000000
f 3/3/3 2/2/2 1/1/1
f 3/3/3 4/4/4 2/2/2
f 7/7/7 6/6/6 5/5/5
f 7/7/7 8/8/8 6/6/6
f 7/7/7 9/9/9 8/8/8
f 12/12/12 11/11/11 10/10/10
f 11/11/11 12/12/12 13/13/13
f 12/12/12 14/14/14 13/13/13
f 13/13/13 14/14/14 15/15/15
f 16/16/16 15/15/15 14/14/14
f 15/15/15 16/16/16 17/17/17
f 18/18/18 17/17/17 16/16/16
f 18/18/18 19/19/19 17/17/17
f 20/20/20 19/19/19 18/18/18
