mtllib SM_Paper_02_LOD2.mtl
g SM_Paper_02_LOD2
#Vertices 8
#Indices 18
#Section 0 Offset 0 NumIndices 18 MaterialIndex 0 MI_Paper_01
v -0.153334 -0.000894 0.108794
v -0.153432 0.002282 -0.108788
v -0.003465 0.007908 0.108795
v -0.004019 0.003981 -0.108794
v 0.003829 0.007672 0.108792
v 0.003303 0.004070 -0.108798
v 0.153596 0.002353 -0.108794
v 0.153477 -0.000894 0.108794
vt 0.367920 0.523193
vt -0.000003 0.522461
vt 0.367920 0.269043
vt 0.000037 0.269531
vt 0.367920 0.254395
vt 0.000035 0.255371
vt 0.000037 0.000977
vt 0.367920 0.000488
vt1 0.991699 0.991936
vt1 0.008057 0.990639
vt1 0.991699 0.513916
vt1 0.008156 0.514648
vt1 0.991699 0.486328
vt1 0.008156 0.488281
vt1 0.008163 0.009766
vt1 0.991699 0.008301
vn -0.110236 0.992126 -0.000000
vn -0.181102 0.984252 -0.000000
vn 0.118110 0.992126 -0.000000
vn 0.220472 0.976378 -0.000000
vn -0.118110 0.992126 -0.000000
vn -0.220472 0.976378 -0.000000
vn 0.173228 0.984252 -0.000000
vn 0.110236 0.992126 -0.000000
tan 0.992126 0.110236 -0.000000 1.000000
tan 0.984252 0.181102 -0.000000 1.000000
tan 0.992126 -0.118110 0.000000 1.000000
tan 0.976378 -0.220472 0.000000 1.000000
tan 0.992126 0.118110 -0.000000 1.000000
tan 0.976378 0.220472 -0.000000 1.000000
tan 0.984252 -0.173228 0.000000 1.000000
tan 0.992126 -0.110236 0.000000 1.000000
f 3/3/3 2/2/2 1/1/1
f 2/2/2 3/3/3 4/4/4
f 3/3/3 5/5/5 4/4/4
f 4/4/4 5/5/5 6/6/6
f 6/6/6 5/5/5 7/7/7
f 8/8/8 7/7/7 5/5/5
