mtllib SM_PaperPen_03_LOD1.mtl
g SM_PaperPen_03_LOD1
#Vertices 68
#Indices 126
#Section 0 Offset 0 NumIndices 126 MaterialIndex 0 MI_PaperPen
v 0.003571 0.005779 -0.123290
v 0.001839 0.008960 -0.123320
v 0.001628 0.005085 -0.149746
v 0.003571 0.005779 -0.123290
v 0.001628 0.005085 -0.149746
v 0.001864 0.002555 -0.123334
v -0.003571 0.005779 -0.123290
v -0.001839 0.002599 -0.123320
v -0.001710 0.006419 -0.150201
v -0.003571 0.005779 -0.123290
v -0.001710 0.006419 -0.150201
v -0.001864 0.009003 -0.123334
v -0.001710 0.006419 -0.150201
v -0.001839 0.002599 -0.123320
v 0.001628 0.005085 -0.149746
v 0.001864 0.002555 -0.123334
v 0.001628 0.005085 -0.149746
v 0.001839 0.008960 -0.123320
v -0.001710 0.006419 -0.150201
v -0.001864 0.009003 -0.123334
v -0.007718 0.005779 0.106593
v -0.013910 0.005783 -0.080767
v -0.003900 0.012301 0.103912
v -0.006975 0.017890 -0.083158
v -0.011195 0.005779 -0.092247
v -0.001864 0.009003 -0.123334
v -0.003571 0.005779 -0.123290
v -0.003817 -0.000604 0.109273
v -0.006979 -0.006318 -0.080871
v -0.007718 0.005779 0.106593
v -0.013910 0.005783 -0.080767
v -0.005597 -0.003916 -0.092247
v -0.011195 0.005779 -0.092247
v -0.001839 0.002599 -0.123320
v -0.003571 0.005779 -0.123290
v 0.003900 0.012301 0.103912
v 0.013911 0.005783 -0.080774
v 0.007718 0.005779 0.106593
v 0.006980 0.017909 -0.082893
v 0.011195 0.005779 -0.092247
v 0.001839 0.008960 -0.123320
v 0.003571 0.005779 -0.123290
v -0.006975 0.017890 -0.083158
v 0.003900 0.012301 0.103912
v -0.003900 0.012301 0.103912
v 0.006980 0.017909 -0.082893
v -0.001864 0.009003 -0.123334
v 0.001839 0.008960 -0.123320
v 0.001864 0.002555 -0.123334
v 0.011195 0.005779 -0.092247
v 0.003571 0.005779 -0.123290
v 0.006946 -0.006273 -0.083150
v 0.013911 0.005783 -0.080774
v 0.007718 0.005779 0.106593
v 0.003818 -0.000605 0.109274
v -0.001839 0.002599 -0.123320
v -0.005597 -0.003916 -0.092247
v 0.001864 0.002555 -0.123334
v 0.006946 -0.006273 -0.083150
v -0.006979 -0.006318 -0.080871
v -0.003817 -0.000604 0.109273
v 0.003818 -0.000605 0.109274
v -0.007718 0.005779 0.106593
v -0.003900 0.012301 0.103912
v -0.003817 -0.000604 0.109273
v 0.003900 0.012301 0.103912
v 0.007718 0.005779 0.106593
v 0.003818 -0.000605 0.109274
vt 0.861816 0.582520
vt 0.874023 0.582275
vt 0.866699 0.672852
vt 0.862793 0.582520
vt 0.867188 0.672852
vt 0.850586 0.583984
vt 0.895996 0.583740
vt 0.907715 0.586182
vt 0.879883 0.674316
vt 0.896484 0.583984
vt 0.880859 0.674316
vt 0.884277 0.582520
vt 0.856934 0.677002
vt 0.839355 0.586182
vt 0.867676 0.672852
vt 0.851562 0.583984
vt 0.870117 0.672852
vt 0.873047 0.582275
vt 0.880859 0.674561
vt 0.885742 0.582764
vt 0.084717 0.791992
vt 0.040619 0.150391
vt 0.110107 0.781494
vt 0.088379 0.145020
vt 0.058960 0.108887
vt 0.119751 0.012207
vt 0.107788 0.008301
vt 0.060028 0.803345
vt -0.005985 0.147461
vt 0.084717 0.791992
vt 0.041016 0.149902
vt 0.024734 0.093262
vt 0.058960 0.108887
vt 0.097229 0.000488
vt 0.107178 0.007812
vt 0.137085 0.780884
vt 0.178955 0.151855
vt 0.162964 0.790161
vt 0.132202 0.146973
vt 0.172119 0.116699
vt 0.133667 0.013672
vt 0.146484 0.012207
vt 0.086365 0.144531
vt 0.137085 0.780884
vt 0.110107 0.781494
vt 0.133057 0.146973
vt 0.120056 0.012695
vt 0.133179 0.013672
vt 0.159424 0.007324
vt 0.172119 0.116699
vt 0.147339 0.011719
vt 0.225342 0.141113
vt 0.178833 0.151855
vt 0.162964 0.790161
vt 0.188354 0.800293
vt 0.170044 0.000000
vt 0.244629 0.092773
vt 0.159668 0.006836
vt 0.224487 0.140625
vt 0.270996 0.145996
vt 0.214355 0.802002
vt 0.188354 0.800293
vt 0.463867 0.901917
vt 0.490967 0.901672
vt 0.449463 0.924988
vt 0.503906 0.924988
vt 0.489258 0.947937
vt 0.462158 0.947723
vt1 0.460205 0.988022
vt1 0.550293 0.990868
vt1 0.495117 0.325195
vt1 0.466064 0.988472
vt1 0.500488 0.325684
vt1 0.376221 0.977280
vt1 0.709961 0.979141
vt1 0.798340 0.961487
vt1 0.591309 0.314941
vt1 0.715820 0.978241
vt1 0.599609 0.313477
vt1 0.625488 0.987747
vt1 0.424561 0.295898
vt1 0.294189 0.961426
vt1 0.503418 0.325684
vt1 0.384521 0.978577
vt1 0.521973 0.324707
vt1 0.541992 0.990868
vt1 0.600098 0.312500
vt1 0.633789 0.987099
vt1 0.111816 0.978012
vt1 0.057831 0.192383
vt1 0.142944 0.965118
vt1 0.116333 0.185547
vt1 0.080261 0.141602
vt1 0.154663 0.022949
vt1 0.140137 0.018066
vt1 0.081543 0.991936
vt1 0.000730 0.188965
vt1 0.111816 0.978012
vt1 0.058319 0.191895
vt1 0.038361 0.122070
vt1 0.080261 0.141602
vt1 0.127075 0.008789
vt1 0.139282 0.017578
vt1 0.175903 0.964386
vt1 0.227173 0.193848
vt1 0.207764 0.975800
vt1 0.169922 0.187988
vt1 0.218872 0.150879
vt1 0.171753 0.024902
vt1 0.187500 0.022949
vt1 0.113831 0.185059
vt1 0.175903 0.964386
vt1 0.142944 0.965118
vt1 0.171021 0.187988
vt1 0.155029 0.023438
vt1 0.171143 0.024902
vt1 0.203369 0.017090
vt1 0.218872 0.150879
vt1 0.188477 0.022461
vt1 0.283936 0.180664
vt1 0.227051 0.193848
vt1 0.207764 0.975800
vt1 0.238770 0.988159
vt1 0.216309 0.007324
vt1 0.307617 0.121582
vt1 0.203613 0.016602
vt1 0.282959 0.180176
vt1 0.339844 0.187012
vt1 0.270508 0.990288
vt1 0.238770 0.988159
vt1 0.958984 0.116699
vt1 0.960449 0.317383
vt1 0.789551 0.012207
vt1 0.789551 0.411621
vt1 0.620605 0.303223
vt1 0.622559 0.104492
vn 0.858268 0.496063 -0.110236
vn 0.858268 0.496063 -0.110236
vn 0.866142 0.496063 -0.062992
vn 0.858268 -0.496063 -0.110236
vn 0.866142 -0.496063 -0.062992
vn 0.858268 -0.496063 -0.110236
vn -0.858268 -0.496063 -0.110236
vn -0.858268 -0.496063 -0.110236
vn -0.866142 -0.496063 -0.062992
vn -0.858268 0.496063 -0.110236
vn -0.866142 0.496063 -0.062992
vn -0.858268 0.496063 -0.110236
vn 0.000000 -1.000000 -0.062992
vn 0.000000 -0.992126 -0.110236
vn 0.000000 -1.000000 -0.062992
vn 0.000000 -0.992126 -0.110236
vn 0.000000 1.000000 -0.062992
vn 0.000000 0.992126 -0.110236
vn 0.000000 1.000000 -0.062992
vn 0.000000 0.992126 -0.110236
vn -0.866142 0.503937 0.023622
vn -0.866142 0.503937 0.023622
vn -0.866142 0.503937 0.023622
vn -0.866142 0.503937 -0.023622
vn -0.834646 0.480315 -0.251969
vn -0.850394 0.488189 -0.204724
vn -0.850394 0.488189 -0.188976
vn -0.866142 -0.503937 0.023622
vn -0.866142 -0.503937 0.023622
vn -0.866142 -0.503937 0.023622
vn -0.866142 -0.503937 0.023622
vn -0.834646 -0.480315 -0.251968
vn -0.834646 -0.480315 -0.251968
vn -0.850394 -0.488189 -0.204724
vn -0.850394 -0.488189 -0.188976
vn 0.866142 0.503937 0.023622
vn 0.866142 0.503937 0.023622
vn 0.866142 0.503937 0.023622
vn 0.866142 0.503937 -0.015748
vn 0.834646 0.480315 -0.251969
vn 0.850394 0.488189 -0.204724
vn 0.850394 0.488189 -0.188976
vn 0.000000 1.000000 -0.000000
vn 0.000000 1.000000 0.031496
vn 0.000000 1.000000 0.031496
vn 0.000000 1.000000 -0.031496
vn 0.000000 0.976378 -0.204724
vn 0.000000 0.984252 -0.188976
vn 0.850394 -0.488189 -0.204724
vn 0.834646 -0.480315 -0.251968
vn 0.850394 -0.488189 -0.188976
vn 0.866142 -0.503937 0.000000
vn 0.866142 -0.503937 0.023622
vn 0.866142 -0.503937 0.023622
vn 0.866142 -0.503937 0.023622
vn 0.000000 -0.984252 -0.188976
vn 0.000000 -0.968504 -0.251968
vn 0.000000 -0.976378 -0.204724
vn 0.000000 -1.000000 0.000000
vn 0.000000 -1.000000 0.023622
vn 0.000000 -1.000000 0.031496
vn 0.000000 -1.000000 0.031496
vn 0.000000 0.385827 0.921260
vn 0.000000 0.377953 0.921260
vn 0.000000 0.385827 0.921260
vn 0.000000 0.377953 0.921260
vn 0.000000 0.385827 0.921260
vn 0.000000 0.385827 0.921260
tan 0.070308 0.075392 0.886664 1.000000
tan 0.074214 0.068634 0.886664 1.000000
tan 0.007812 0.096968 0.871040 1.000000
tan 0.217000 0.182280 0.869242 1.000000
tan 0.174282 0.193812 0.870110 1.000000
tan 0.213094 0.175522 0.869242 1.000000
tan -0.279063 0.297167 0.835451 1.000000
tan -0.275157 0.290409 0.835451 1.000000
tan -0.282597 0.394569 0.778473 1.000000
tan 0.001736 0.197036 0.873148 1.000000
tan 0.052266 0.201748 0.870110 1.000000
tan 0.001736 0.197036 0.873148 1.000000
tan 0.188976 -0.062000 0.984252 1.000000
tan 0.179676 -0.108500 0.976502 1.000000
tan 0.188976 -0.062000 0.984252 1.000000
tan 0.179676 -0.108500 0.976502 1.000000
tan 0.039370 0.062992 1.000000 1.000000
tan 0.039060 0.110236 0.992126 1.000000
tan 0.039370 0.062992 1.000000 1.000000
tan 0.039060 0.110236 0.992126 1.000000
tan 0.016616 0.072850 -0.944882 1.000000
tan -0.082956 -0.100812 -0.891066 1.000000
tan -0.007192 0.031930 -0.944882 1.000000
tan -0.047988 -0.123504 -0.875194 1.000000
tan 0.075082 -0.328973 -0.875814 1.000000
tan -0.064852 -0.437969 -0.775001 1.000000
tan -0.107508 -0.476905 -0.748217 1.000000
tan -0.110546 0.148366 -0.888214 1.000000
tan 0.060078 -0.144894 -0.888214 1.000000
tan -0.054808 0.049910 -0.944882 1.000000
tan 0.016244 -0.069688 -0.891066 1.000000
tan 0.458119 -0.391469 -0.771281 1.000000
tan 0.426623 -0.308637 -0.824849 1.000000
tan 0.505053 -0.643065 -0.564449 1.000000
tan 0.486949 -0.615289 -0.601773 1.000000
tan 0.027218 -0.002170 -0.951702 1.000000
tan 0.039494 -0.025792 -0.897886 1.000000
tan 0.019282 0.011470 -0.951702 1.000000
tan 0.039928 -0.095976 -0.875194 1.000000
tan -0.202430 -0.129828 -0.918036 1.000000
tan -0.082956 -0.217001 -0.862050 1.000000
tan -0.084568 -0.188976 -0.868746 1.000000
tan -0.031496 -0.000000 -1.000000 1.000000
tan 0.023622 0.031496 -1.000000 1.000000
tan 0.007874 0.031496 -1.000000 1.000000
tan -0.015748 -0.031496 -1.000000 1.000000
tan -0.084568 -0.204724 -0.976378 1.000000
tan -0.077500 -0.188976 -0.984252 1.000000
tan -0.419493 -0.410565 -0.763469 1.000000
tan -0.396739 -0.238949 -0.858702 1.000000
tan -0.429165 -0.465001 -0.729989 1.000000
tan -0.047616 -0.081840 -0.871226 1.000000
tan -0.068014 -0.158348 -0.884246 1.000000
tan 0.027218 0.002170 -0.951702 1.000000
tan 0.050840 0.043090 -0.944882 1.000000
tan -0.496001 0.162192 -0.844752 1.000000
tan -0.291773 0.240064 -0.922748 1.000000
tan -0.553537 0.167648 -0.799553 1.000000
tan -0.141732 -0.000000 -0.992126 1.000000
tan -0.015748 -0.023622 -1.000000 1.000000
tan 0.062992 -0.031496 -1.000000 1.000000
tan 0.039370 -0.031496 -1.000000 1.000000
tan -0.775684 0.529543 -0.221774 1.000000
tan -0.775250 0.529543 -0.217248 1.000000
tan -0.713931 0.587575 -0.246079 1.000000
tan -0.775250 0.529543 -0.217248 1.000000
tan -0.775684 0.529543 -0.221774 1.000000
tan -0.778722 0.529543 -0.221774 1.000000
f 3/3/3 2/2/2 1/1/1
f 6/6/6 5/5/5 4/4/4
f 9/9/9 8/8/8 7/7/7
f 12/12/12 11/11/11 10/10/10
f 15/15/15 14/14/14 13/13/13
f 15/15/15 16/16/16 14/14/14
f 19/19/19 18/18/18 17/17/17
f 19/19/19 20/20/20 18/18/18
f 23/23/23 22/22/22 21/21/21
f 24/24/24 22/22/22 23/23/23
f 25/25/25 22/22/22 24/24/24
f 24/24/24 26/26/26 25/25/25
f 27/27/27 25/25/25 26/26/26
f 30/30/30 29/29/29 28/28/28
f 31/31/31 29/29/29 30/30/30
f 32/32/32 29/29/29 31/31/31
f 31/31/31 33/33/33 32/32/32
f 34/34/34 32/32/32 33/33/33
f 34/34/34 33/33/33 35/35/35
f 38/38/38 37/37/37 36/36/36
f 39/39/39 36/36/36 37/37/37
f 37/37/37 40/40/40 39/39/39
f 41/41/41 39/39/39 40/40/40
f 41/41/41 40/40/40 42/42/42
f 45/45/45 44/44/44 43/43/43
f 43/43/43 44/44/44 46/46/46
f 47/47/47 43/43/43 46/46/46
f 47/47/47 46/46/46 48/48/48
f 51/51/51 50/50/50 49/49/49
f 52/52/52 49/49/49 50/50/50
f 50/50/50 53/53/53 52/52/52
f 53/53/53 54/54/54 52/52/52
f 55/55/55 52/52/52 54/54/54
f 58/58/58 57/57/57 56/56/56
f 58/58/58 59/59/59 57/57/57
f 57/57/57 59/59/59 60/60/60
f 59/59/59 61/61/61 60/60/60
f 62/62/62 61/61/61 59/59/59
f 65/65/65 64/64/64 63/63/63
f 65/65/65 66/66/66 64/64/64
f 65/65/65 67/67/67 66/66/66
f 65/65/65 68/68/68 67/67/67
