mtllib SM_Paper_05_LOD2.mtl
g SM_Paper_05_LOD2
#Vertices 10
#Indices 24
#Section 0 Offset 0 NumIndices 24 MaterialIndex 0 MI_Paper_01
v -0.084494 -0.001574 0.053380
v 0.088841 -0.001574 0.111043
v -0.088829 -0.001574 0.111043
v 0.092753 -0.001574 0.062753
v 0.091365 -0.001574 0.027057
v -0.093417 -0.001574 -0.054203
v 0.086104 -0.001574 -0.027761
v 0.084664 -0.001574 -0.062816
v 0.088841 -0.001574 -0.111043
v -0.088829 -0.001574 -0.111043
vt 0.395752 0.685059
vt 0.688965 0.782471
vt 0.388428 0.782471
vt 0.695312 0.700928
vt 0.692871 0.640381
vt 0.380615 0.502930
vt 0.684082 0.547852
vt 0.681641 0.488770
vt 0.688965 0.407227
vt 0.388428 0.407227
vt1 0.049072 0.738525
vt1 0.975098 0.996033
vt1 0.025894 0.996033
vt1 0.996094 0.780396
vt1 0.988770 0.621094
vt1 0.001388 0.258301
vt1 0.960449 0.376465
vt1 0.953125 0.219727
vt1 0.975098 0.004395
vt1 0.025894 0.004395
vn 0.000000 1.000000 -0.000000
vn 0.000000 1.000000 -0.000000
vn 0.000000 1.000000 -0.000000
vn 0.000000 1.000000 -0.000000
vn 0.000000 1.000000 -0.000000
vn 0.000000 1.000000 -0.000000
vn 0.000000 1.000000 -0.000000
vn 0.000000 1.000000 -0.000000
vn 0.000000 1.000000 -0.000000
vn 0.000000 1.000000 -0.000000
tan 0.000000 -0.000000 -1.000000 1.000000
tan 0.000000 -0.000000 -1.000000 1.000000
tan 0.000000 -0.000000 -1.000000 1.000000
tan 0.000000 -0.000000 -1.000000 1.000000
tan 0.000000 -0.000000 -1.000000 1.000000
tan 0.000000 -0.000000 -1.000000 1.000000
tan 0.000000 -0.000000 -1.000000 1.000000
tan 0.000000 -0.000000 -1.000000 1.000000
tan 0.000000 -0.000000 -1.000000 1.000000
tan 0.000000 -0.000000 -1.000000 1.000000
f 3/3/3 2/2/2 1/1/1
f 2/2/2 4/4/4 1/1/1
f 4/4/4 5/5/5 1/1/1
f 5/5/5 6/6/6 1/1/1
f 5/5/5 7/7/7 6/6/6
f 7/7/7 8/8/8 6/6/6
f 6/6/6 8/8/8 9/9/9
f 6/6/6 9/9/9 10/10/10
