mtllib SM_PaperPen_02_LOD2.mtl
g SM_PaperPen_02_LOD2
#Vertices 34
#Indices 60
#Section 0 Offset 0 NumIndices 60 MaterialIndex 0 MI_PaperPen
v 0.005627 0.005779 -0.065386
v 0.003788 0.012114 0.169777
v 0.001464 0.008387 -0.151053
v 0.007606 0.005779 0.173160
v 0.001464 0.008387 -0.151053
v 0.003788 0.012114 0.169777
v -0.002811 0.010668 -0.065734
v -0.003788 0.012114 0.169777
v 0.005627 0.005779 -0.065386
v 0.001464 0.008387 -0.151053
v 0.002785 0.000931 -0.066026
v 0.007606 0.005779 0.173160
v 0.003818 -0.000605 0.176543
v -0.007606 0.005779 0.173160
v -0.005613 0.005778 -0.065372
v -0.003788 0.012114 0.169777
v -0.002811 0.010668 -0.065734
v 0.001464 0.008387 -0.151053
v -0.003818 -0.000606 0.176544
v -0.002810 0.000888 -0.065906
v -0.007606 0.005779 0.173160
v -0.005613 0.005778 -0.065372
v 0.001464 0.008387 -0.151053
v 0.002785 0.000931 -0.066026
v -0.003818 -0.000606 0.176544
v 0.003818 -0.000605 0.176543
v -0.002810 0.000888 -0.065906
v 0.001464 0.008387 -0.151053
v -0.007606 0.005779 0.173160
v -0.003788 0.012114 0.169777
v -0.003818 -0.000606 0.176544
v 0.003788 0.012114 0.169777
v 0.007606 0.005779 0.173160
v 0.003818 -0.000605 0.176543
vt 0.621094 0.180176
vt 0.604980 0.971588
vt 0.600098 -0.106445
vt 0.630371 0.982773
vt 0.601074 -0.106445
vt 0.604980 0.971588
vt 0.583008 0.179199
vt 0.579102 0.971588
vt 0.621094 0.180664
vt 0.581543 -0.105469
vt 0.640137 0.177734
vt 0.630371 0.982773
vt 0.655762 0.993736
vt 0.554199 0.982773
vt 0.563965 0.180176
vt 0.579102 0.971588
vt 0.583008 0.179199
vt 0.618164 -0.105469
vt 0.528320 0.993721
vt 0.544922 0.177734
vt 0.554199 0.982773
vt 0.563477 0.180176
vt 0.618652 -0.107422
vt 0.640137 0.177734
vt 0.682129 0.993111
vt 0.655762 0.993736
vt 0.659668 0.176758
vt 0.581055 -0.107422
vt 0.386719 0.910522
vt 0.414307 0.910706
vt 0.370850 0.933411
vt 0.426514 0.933533
vt 0.410889 0.956421
vt 0.383057 0.956421
vt1 0.818359 0.108887
vt1 0.030136 0.093262
vt1 1.104492 0.087891
vt1 0.018982 0.118164
vt1 1.103516 0.089355
vt1 0.030136 0.093262
vt1 0.819336 0.070801
vt1 0.030136 0.067383
vt1 0.818359 0.109375
vt1 1.103516 0.069336
vt1 0.821289 0.127930
vt1 0.018982 0.118164
vt1 0.008064 0.143555
vt1 0.018997 0.041992
vt1 0.818848 0.051758
vt1 0.030136 0.067383
vt1 0.819336 0.070801
vt1 1.102539 0.105957
vt1 0.008072 0.016602
vt1 0.821289 0.032715
vt1 0.018997 0.041992
vt1 0.818848 0.051758
vt1 1.105469 0.106445
vt1 0.821289 0.127930
vt1 0.008682 0.169434
vt1 0.008064 0.143555
vt1 0.821777 0.147461
vt1 1.104492 0.069336
vt1 0.213989 0.394043
vt1 0.574707 0.396484
vt1 0.008003 0.691895
vt1 0.730957 0.693848
vt1 0.527344 0.991913
vt1 0.165405 0.991936
vn 0.866142 0.503937 -0.015748
vn 0.858268 0.503937 -0.007874
vn 0.866142 0.503937 -0.055118
vn 0.858268 0.503937 -0.007874
vn 0.000000 1.000000 -0.055118
vn 0.000000 1.000000 -0.007874
vn 0.000000 1.000000 -0.015748
vn 0.000000 1.000000 -0.007874
vn 0.866142 -0.503937 -0.023622
vn 0.866142 -0.496063 -0.102362
vn 0.866142 -0.503937 -0.015748
vn 0.858268 -0.503937 -0.007874
vn 0.858268 -0.503937 -0.007874
vn -0.858268 0.503937 -0.007874
vn -0.866142 0.503937 -0.015748
vn -0.858268 0.503937 -0.007874
vn -0.866142 0.503937 -0.023622
vn -0.866142 0.496063 -0.102362
vn -0.858268 -0.503937 -0.007874
vn -0.866142 -0.503937 -0.015748
vn -0.858268 -0.503937 -0.007874
vn -0.866142 -0.503937 -0.023622
vn -0.866142 -0.496063 -0.102362
vn 0.000000 -1.000000 -0.015748
vn 0.000000 -1.000000 -0.007874
vn 0.000000 -1.000000 -0.007874
vn 0.000000 -1.000000 -0.023622
vn 0.000000 -0.992126 -0.094488
vn 0.000000 0.472441 0.881890
vn 0.000000 0.472441 0.881890
vn 0.000000 0.464567 0.881890
vn 0.000000 0.472441 0.881890
vn 0.000000 0.472441 0.881890
vn 0.000000 0.464567 0.881890
tan -0.003844 -0.021328 -0.893918 1.000000
tan 0.000248 -0.015066 -0.937194 1.000000
tan 0.037014 -0.156860 -0.852502 1.000000
tan 0.000248 -0.015066 -0.937194 1.000000
tan -0.023622 -0.055118 -1.000000 1.000000
tan 0.000000 -0.007874 -1.000000 1.000000
tan -0.007874 -0.015748 -1.000000 1.000000
tan 0.000000 -0.007874 -1.000000 1.000000
tan -0.094860 -0.121644 -0.883130 1.000000
tan -0.411681 -0.586521 -0.641081 1.000000
tan -0.047492 -0.053692 -0.893918 1.000000
tan -0.019592 -0.018724 -0.937194 1.000000
tan -0.019592 -0.018724 -0.937194 1.000000
tan -0.000248 -0.015066 -0.937194 1.000000
tan -0.028024 -0.075888 -0.887098 1.000000
tan 0.003720 -0.008308 -0.937194 1.000000
tan -0.012090 -0.062496 -0.889950 1.000000
tan -0.196602 -0.491041 -0.716101 1.000000
tan 0.027714 -0.033232 -0.893980 1.000000
tan 0.083080 -0.114948 -0.891066 1.000000
tan 0.015624 -0.011966 -0.937194 1.000000
tan 0.075020 -0.087358 -0.887098 1.000000
tan 0.465063 -0.709281 -0.497861 1.000000
tan -0.070866 0.015748 -1.000000 1.000000
tan -0.023622 0.007874 -1.000000 1.000000
tan -0.015748 0.007874 -1.000000 1.000000
tan -0.055118 0.023622 -1.000000 1.000000
tan -0.351541 0.088536 -0.929630 1.000000
tan -0.750202 0.527745 -0.282721 1.000000
tan -0.750202 0.534689 -0.286441 1.000000
tan -0.646537 0.618017 -0.325563 1.000000
tan -0.750202 0.534689 -0.286441 1.000000
tan -0.750202 0.527745 -0.282721 1.000000
tan -0.749272 0.527745 -0.278009 1.000000
f 3/3/3 2/2/2 1/1/1
f 4/4/4 1/1/1 2/2/2
f 7/7/7 6/6/6 5/5/5
f 8/8/8 6/6/6 7/7/7
f 11/11/11 10/10/10 9/9/9
f 9/9/9 12/12/12 11/11/11
f 13/13/13 11/11/11 12/12/12
f 16/16/16 15/15/15 14/14/14
f 17/17/17 15/15/15 16/16/16
f 17/17/17 18/18/18 15/15/15
f 21/21/21 20/20/20 19/19/19
f 20/20/20 21/21/21 22/22/22
f 23/23/23 20/20/20 22/22/22
f 26/26/26 25/25/25 24/24/24
f 24/24/24 25/25/25 27/27/27
f 27/27/27 28/28/28 24/24/24
f 31/31/31 30/30/30 29/29/29
f 31/31/31 32/32/32 30/30/30
f 31/31/31 33/33/33 32/32/32
f 31/31/31 34/34/34 33/33/33
