mtllib SM_Pot_07_LOD3.mtl
g SM_Pot_07_LOD3
#Vertices 107
#Indices 120
#Section 0 Offset 0 NumIndices 120 MaterialIndex 0 MI_Pots
v 0.117945 0.036378 0.018283
v 0.092697 -0.022430 0.063418
v 0.072997 0.015675 -0.011545
v 0.092697 -0.022430 0.063418
v 0.018538 -0.007614 0.071477
v 0.048240 0.020670 0.099417
v 0.048240 0.020670 0.099417
v 0.018538 -0.007614 0.071477
v -0.028064 0.026916 0.121578
v -0.033328 0.008160 0.064409
v 0.048240 0.020670 0.099417
v -0.028064 0.026916 0.121578
v -0.055078 -0.005622 0.055649
v -0.028064 0.026916 0.121578
v 0.018538 -0.007614 0.071477
v -0.028064 0.026916 0.121578
v -0.055078 -0.005622 0.055649
v -0.080137 0.025174 0.112175
v -0.033328 0.008160 0.064409
v -0.028064 0.026916 0.121578
v -0.080137 0.025174 0.112175
v -0.080137 0.025174 0.112175
v -0.055078 -0.005622 0.055649
v -0.119371 0.034322 0.066461
v -0.119371 0.034322 0.066461
v -0.033328 0.008160 0.064409
v -0.080137 0.025174 0.112175
v -0.033328 0.008160 0.064409
v -0.119371 0.034322 0.066461
v -0.076087 0.015610 0.006209
v -0.055078 -0.005622 0.055649
v -0.118172 0.022736 -0.019588
v -0.119371 0.034322 0.066461
v -0.118172 0.022736 -0.019588
v -0.076087 0.015610 0.006209
v -0.119371 0.034322 0.066461
v -0.054514 -0.005240 -0.051323
v -0.118172 0.022736 -0.019588
v -0.055078 -0.005622 0.055649
v -0.054514 -0.005240 -0.051323
v -0.065767 0.023171 -0.087433
v -0.118172 0.022736 -0.019588
v -0.065767 0.023171 -0.087433
v -0.054514 -0.005240 -0.051323
v -0.020803 0.023925 -0.094019
v -0.020803 0.023925 -0.094019
v 0.024191 -0.004923 -0.073656
v 0.019777 0.017263 -0.122466
v 0.024191 -0.004923 -0.073656
v -0.020803 0.023925 -0.094019
v -0.054514 -0.005240 -0.051323
v 0.035463 0.017625 -0.086500
v -0.020803 0.023925 -0.094019
v 0.019777 0.017263 -0.122466
v 0.019777 0.017263 -0.122466
v 0.024191 -0.004923 -0.073656
v 0.081439 0.019497 -0.120307
v 0.070509 -0.005224 -0.018572
v 0.081439 0.019497 -0.120307
v 0.024191 -0.004923 -0.073656
v 0.081439 0.019497 -0.120307
v 0.070509 -0.005224 -0.018572
v 0.119188 0.007481 -0.022069
v 0.035463 0.017625 -0.086500
v 0.081439 0.019497 -0.120307
v 0.072997 0.015675 -0.011545
v 0.119188 0.007481 -0.022069
v 0.092697 -0.022430 0.063418
v 0.117945 0.036378 0.018283
v 0.092697 -0.022430 0.063418
v 0.119188 0.007481 -0.022069
v 0.070509 -0.005224 -0.018572
v 0.081439 0.019497 -0.120307
v 0.035463 0.017625 -0.086500
v 0.019777 0.017263 -0.122466
v 0.117945 0.036378 0.018283
v 0.072997 0.015675 -0.011545
v 0.119188 0.007481 -0.022069
v -0.118172 0.022736 -0.019588
v -0.065767 0.023171 -0.087433
v -0.076087 0.015610 0.006209
v 0.072997 0.015675 -0.011545
v 0.081439 0.019497 -0.120307
v 0.119188 0.007481 -0.022069
v 0.092697 -0.022430 0.063418
v 0.048240 0.020670 0.099417
v 0.000694 0.010910 -0.000000
v -0.065767 0.023171 -0.087433
v -0.020803 0.023925 -0.094019
v 0.048240 0.020670 0.099417
v -0.033328 0.008160 0.064409
v 0.072997 0.015675 -0.011545
v 0.092697 -0.022430 0.063418
v 0.000694 0.010910 -0.000000
v -0.033328 0.008160 0.064409
v -0.076087 0.015610 0.006209
v -0.076087 0.015610 0.006209
v -0.065767 0.023171 -0.087433
v 0.035463 0.017625 -0.086500
v 0.072997 0.015675 -0.011545
v -0.020803 0.023925 -0.094019
v 0.018538 -0.007614 0.071477
v 0.092697 -0.022430 0.063418
v 0.070509 -0.005224 -0.018572
v -0.055078 -0.005622 0.055649
v -0.054514 -0.005240 -0.051323
v 0.024191 -0.004923 -0.073656
vt 0.436279 0.990479
vt 0.409668 0.988747
vt 0.433105 0.964447
vt 0.353271 0.815186
vt 0.327148 0.811890
vt 0.343994 0.796631
vt 0.342529 0.795044
vt 0.326172 0.810669
vt 0.310059 0.779785
vt 0.369873 0.951141
vt 0.384521 0.993233
vt 0.351807 0.973770
vt 0.291748 0.813110
vt 0.307617 0.779419
vt 0.326660 0.811035
vt 0.307373 0.779175
vt 0.291504 0.813599
vt 0.281494 0.781372
vt 0.368896 0.951324
vt 0.348877 0.973587
vt 0.335938 0.951538
vt 0.281494 0.781250
vt 0.291748 0.813599
vt 0.257812 0.799194
vt 0.335449 0.922913
vt 0.370117 0.950989
vt 0.336182 0.952362
vt 0.369385 0.951538
vt 0.336182 0.921143
vt 0.373291 0.916321
vt 0.291016 0.813232
vt 0.251465 0.842896
vt 0.256592 0.800659
vt 0.368164 0.892273
vt 0.373779 0.915710
vt 0.335693 0.921753
vt 0.282959 0.864136
vt 0.252197 0.843750
vt 0.290771 0.814209
vt 0.282715 0.863281
vt 0.271484 0.882141
vt 0.254150 0.848633
vt 0.272217 0.883423
vt 0.283447 0.864502
vt 0.286377 0.889709
vt 0.294434 0.890747
vt 0.317627 0.879944
vt 0.311279 0.904846
vt 0.317383 0.879578
vt 0.293701 0.889526
vt 0.282959 0.864502
vt 0.447021 0.916443
vt 0.428223 0.904541
vt 0.451904 0.905334
vt 0.312500 0.905334
vt 0.316895 0.879456
vt 0.342285 0.907471
vt 0.343018 0.856445
vt 0.341797 0.908020
vt 0.317383 0.879395
vt 0.342041 0.907959
vt 0.343262 0.856323
vt 0.366943 0.862549
vt 0.445557 0.923340
vt 0.471924 0.926270
vt 0.433105 0.962219
vt 0.368896 0.860107
vt 0.346924 0.825928
vt 0.374756 0.842651
vt 0.357422 0.819458
vt 0.366699 0.862061
vt 0.343018 0.856079
vt 0.340088 0.898254
vt 0.322266 0.909607
vt 0.316406 0.905579
vt 0.385498 0.847168
vt 0.381104 0.871338
vt 0.374023 0.868530
vt 0.247559 0.853394
vt 0.262207 0.884766
vt 0.241699 0.860352
vt 0.375732 0.879517
vt 0.335205 0.899719
vt 0.372314 0.870850
vt 0.410156 0.992321
vt 0.385254 0.991127
vt 0.403320 0.941010
vt 0.410400 0.887695
vt 0.427246 0.900208
vt 0.385498 0.992004
vt 0.369385 0.951569
vt 0.430664 0.963287
vt 0.414062 0.990913
vt 0.403320 0.941010
vt 0.369385 0.951508
vt 0.374756 0.916504
vt 0.374756 0.916077
vt 0.411133 0.887512
vt 0.445312 0.923340
vt 0.432373 0.961853
vt 0.429199 0.901672
vt 0.424561 0.082520
vt 0.404541 0.112793
vt 0.373047 0.085449
vt 0.434082 0.046387
vt 0.386719 0.022461
vt 0.359131 0.052246
vt1 0.596680 0.491211
vt1 0.712891 0.483887
vt1 0.610840 0.377930
vt1 0.487305 0.567627
vt1 0.374756 0.553711
vt1 0.447266 0.488770
vt1 0.440918 0.482422
vt1 0.370605 0.548584
vt1 0.301514 0.417480
vt1 0.885254 0.320312
vt1 0.821777 0.502930
vt1 0.963867 0.418457
vt1 0.222900 0.558838
vt1 0.290771 0.416016
vt1 0.372559 0.550293
vt1 0.289795 0.415039
vt1 0.221924 0.560547
vt1 0.179199 0.424316
vt1 0.889648 0.321289
vt1 0.976562 0.417969
vt1 1.032227 0.322266
vt1 0.179688 0.423828
vt1 0.223145 0.560791
vt1 0.077393 0.500000
vt1 1.034180 0.197754
vt1 0.884277 0.319824
vt1 1.031250 0.325684
vt1 0.887207 0.322266
vt1 1.030273 0.189941
vt1 0.870117 0.168945
vt1 0.220337 0.559082
vt1 0.050476 0.685059
vt1 0.071960 0.505859
vt1 0.892090 0.064941
vt1 0.868164 0.166504
vt1 1.033203 0.192871
vt1 0.185669 0.775269
vt1 0.053619 0.688477
vt1 0.218872 0.563721
vt1 0.184692 0.771362
vt1 0.136353 0.851562
vt1 0.061859 0.709229
vt1 0.139038 0.857178
vt1 0.187622 0.776733
vt1 0.200073 0.883606
vt1 0.234741 0.888123
vt1 0.333740 0.842407
vt1 0.306396 0.947998
vt1 0.332764 0.840820
vt1 0.231445 0.882996
vt1 0.185669 0.776611
vt1 0.550293 0.169434
vt1 0.631836 0.118164
vt1 0.529297 0.121582
vt1 0.312012 0.949860
vt1 0.331299 0.840332
vt1 0.439941 0.959045
vt1 0.442871 0.742676
vt1 0.437500 0.961395
vt1 0.333008 0.839966
vt1 0.439209 0.960938
vt1 0.444580 0.742432
vt1 0.545410 0.768311
vt1 0.556152 0.199707
vt1 0.441895 0.212402
vt1 0.610840 0.368652
vt1 0.553711 0.758057
vt1 0.460205 0.613281
vt1 0.579102 0.684326
vt1 0.504883 0.585938
vt1 0.543945 0.766235
vt1 0.443359 0.741211
vt1 0.430176 0.919861
vt1 0.354248 0.968079
vt1 0.328857 0.950867
vt1 0.625000 0.703125
vt1 0.606445 0.805786
vt1 0.576172 0.793579
vt1 0.033539 0.729736
vt1 0.096069 0.862671
vt1 0.008308 0.758911
vt1 0.583496 0.840576
vt1 0.409912 0.926025
vt1 0.568848 0.803589
vt1 0.709961 0.499023
vt1 0.817871 0.494141
vt1 0.739746 0.276367
vt1 0.708496 0.044922
vt1 0.636230 0.099121
vt1 0.816895 0.498047
vt1 0.887695 0.322266
vt1 0.621582 0.373047
vt1 0.693848 0.493164
vt1 0.739746 0.276367
vt1 0.887695 0.322266
vt1 0.864258 0.169922
vt1 0.863770 0.168457
vt1 0.706055 0.043945
vt1 0.557129 0.199707
vt1 0.613770 0.367188
vt1 0.626953 0.105469
vt1 0.921875 0.930542
vt1 0.834961 1.062256
vt1 0.698730 0.942261
vt1 0.963867 0.773926
vt1 0.757812 0.670410
vt1 0.638184 0.799561
vn -0.464567 0.881890 -0.094488
vn -0.299213 0.929134 -0.228347
vn -0.267717 0.960630 0.039370
vn 0.267717 -0.929134 0.251969
vn 0.086614 -0.960630 0.251969
vn 0.173228 -0.913386 0.362205
vn 0.157480 -0.913386 0.377953
vn 0.055118 -0.960630 0.267717
vn -0.086614 -0.897638 0.440945
vn 0.133858 0.968504 -0.212599
vn -0.188976 0.897638 -0.401575
vn 0.110236 0.874016 -0.472441
vn -0.204724 -0.952756 0.212599
vn -0.102362 -0.889764 0.440945
vn 0.062992 -0.960630 0.267717
vn -0.102362 -0.889764 0.440945
vn -0.204724 -0.960630 0.204724
vn -0.283465 -0.874016 0.393701
vn 0.125984 0.960630 -0.236221
vn 0.125984 0.858268 -0.496063
vn 0.322835 0.834646 -0.448819
vn -0.283465 -0.874016 0.393701
vn -0.196850 -0.960630 0.204724
vn -0.433071 -0.874016 0.236221
vn 0.488189 0.826771 -0.283465
vn 0.118110 0.968504 -0.228347
vn 0.314961 0.834646 -0.448819
vn 0.110236 0.968504 -0.228347
vn 0.503937 0.826771 -0.259843
vn 0.291339 0.960630 -0.031496
vn -0.212598 -0.952756 0.196850
vn -0.433071 -0.897638 -0.062992
vn -0.433071 -0.874016 0.236221
vn 0.472441 0.874016 0.078740
vn 0.299213 0.952756 -0.015748
vn 0.488189 0.826771 -0.267717
vn -0.212598 -0.960630 -0.188976
vn -0.425197 -0.897638 -0.070866
vn -0.228346 -0.952756 0.196850
vn -0.212598 -0.960630 -0.181102
vn -0.251969 -0.913386 -0.314960
vn -0.409449 -0.905512 -0.102362
vn -0.244094 -0.913386 -0.330709
vn -0.196850 -0.960630 -0.196850
vn -0.133858 -0.921260 -0.362205
vn -0.078740 -0.929134 -0.362205
vn 0.078740 -0.960630 -0.275590
vn 0.062992 -0.897638 -0.433071
vn 0.086614 -0.960630 -0.275590
vn -0.078740 -0.929134 -0.354331
vn -0.204724 -0.960630 -0.204724
vn -0.110236 0.913386 0.385827
vn 0.062992 0.937008 0.330709
vn -0.070866 0.874016 0.480315
vn 0.070866 -0.897638 -0.433071
vn 0.094488 -0.960630 -0.267716
vn 0.275591 -0.874016 -0.409449
vn 0.259843 -0.960630 -0.078740
vn 0.267717 -0.874016 -0.409449
vn 0.094488 -0.960630 -0.275590
vn 0.267717 -0.874016 -0.409449
vn 0.259843 -0.960630 -0.078740
vn 0.409449 -0.905512 -0.086614
vn -0.133858 0.937008 0.322834
vn -0.307087 0.826772 0.472441
vn -0.259843 0.968504 0.039370
vn 0.425197 -0.905512 -0.062992
vn 0.251969 -0.952756 0.165354
vn 0.440945 -0.897638 0.070866
vn 0.299213 -0.929134 0.228347
vn 0.409449 -0.905512 -0.078740
vn 0.267717 -0.960630 -0.062992
vn 0.511811 -0.519685 -0.685039
vn 0.228346 0.661417 -0.716535
vn 0.141732 -0.645669 -0.748031
vn 0.244094 0.960630 0.118110
vn 0.086614 0.992126 0.015748
vn 0.401575 0.913386 -0.094488
vn -0.181102 -0.976378 0.125984
vn -0.669291 0.322835 -0.669291
vn -0.732283 0.598425 -0.322835
vn 0.740157 0.606299 -0.299213
vn 0.236220 -0.803150 -0.551181
vn 0.204724 -0.968504 0.165354
vn -0.314961 0.921260 -0.236221
vn -0.165354 0.921260 -0.354331
vn 0.000000 1.000000 -0.000000
vn 0.244094 0.921260 0.314960
vn 0.086614 0.937008 0.338583
vn -0.173228 0.921260 -0.354331
vn 0.125984 0.960630 -0.236221
vn -0.267717 0.960630 0.023622
vn -0.314961 0.929134 -0.204724
vn 0.000000 1.000000 -0.000000
vn 0.125984 0.960630 -0.236221
vn 0.283465 0.960630 -0.023622
vn 0.283465 0.960630 -0.023622
vn 0.251969 0.905512 0.338583
vn -0.125984 0.937008 0.314960
vn -0.267717 0.960630 0.047244
vn 0.070866 0.937008 0.346457
vn 0.062992 -0.960630 0.267717
vn 0.322835 -0.921260 0.220473
vn 0.259843 -0.960630 -0.070866
vn -0.204724 -0.960630 0.204724
vn -0.204724 -0.960630 -0.188976
vn 0.086614 -0.960630 -0.275590
tan -0.833282 -0.470953 -0.298593 1.000000
tan -0.746233 -0.376961 -0.556017 1.000000
tan -0.779094 -0.194184 -0.559737 1.000000
tan -0.117056 0.216257 0.921818 1.000000
tan -0.121024 0.239073 0.953066 1.000000
tan -0.079112 0.347201 0.913386 1.000000
tan -0.064728 0.366793 0.913386 1.000000
tan -0.121024 0.258665 0.953066 1.000000
tan -0.070680 0.447765 0.897638 1.000000
tan -0.632959 -0.073222 -0.732097 1.000000
tan -0.459421 -0.441379 -0.770413 1.000000
tan -0.306529 -0.404489 -0.819827 1.000000
tan -0.165044 0.244715 0.937752 1.000000
tan -0.077066 0.449811 0.889764 1.000000
tan -0.090768 0.259657 0.953066 1.000000
tan -0.049042 0.446587 0.889764 1.000000
tan -0.173972 0.238577 0.945502 1.000000
tan -0.137640 0.432141 0.860252 1.000000
tan -0.627813 -0.096224 -0.726145 1.000000
tan -0.458801 -0.361275 -0.741583 1.000000
tan -0.480253 -0.184512 -0.688573 1.000000
tan -0.116994 0.428545 0.867134 1.000000
tan -0.181536 0.238701 0.945502 1.000000
tan -0.273421 0.361461 0.836133 1.000000
tan -0.696757 0.253456 -0.460723 1.000000
tan -0.610081 -0.103602 -0.754975 1.000000
tan -0.480253 -0.192510 -0.695021 1.000000
tan -0.663463 -0.091698 -0.709219 1.000000
tan -0.752743 0.347883 -0.352967 1.000000
tan -0.771530 0.215388 -0.567301 1.000000
tan -0.150040 0.227231 0.937752 1.000000
tan -0.311489 0.091016 0.844504 1.000000
tan -0.337219 0.384711 0.805195 1.000000
tan -0.832724 0.474301 -0.268399 1.000000
tan -0.787712 0.238576 -0.532643 1.000000
tan -0.720317 0.287928 -0.424329 1.000000
tan -0.211792 -0.137640 0.937938 1.000000
tan -0.304483 0.077004 0.851510 1.000000
tan -0.135036 0.227665 0.945254 1.000000
tan -0.128588 -0.151218 0.953066 1.000000
tan -0.115072 -0.280736 0.906194 1.000000
tan -0.249550 0.014508 0.869862 1.000000
tan -0.086304 -0.305040 0.906194 1.000000
tan -0.121024 -0.170500 0.953066 1.000000
tan -0.087048 -0.346705 0.914006 1.000000
tan -0.073160 -0.356005 0.929134 1.000000
tan -0.143716 -0.285200 0.953066 1.000000
tan -0.091884 -0.436109 0.890570 1.000000
tan -0.128588 -0.285014 0.953066 1.000000
tan -0.065844 -0.348751 0.929134 1.000000
tan -0.075640 -0.188604 0.960630 1.000000
tan -0.492095 0.266042 -0.770414 1.000000
tan -0.545973 0.304916 -0.759935 1.000000
tan -0.392957 0.399901 -0.785665 1.000000
tan -0.056544 -0.437535 0.897638 1.000000
tan -0.105896 -0.276024 0.953066 1.000000
tan -0.130758 -0.447455 0.867134 1.000000
tan -0.257177 -0.145204 0.922810 1.000000
tan -0.116994 -0.442061 0.867134 1.000000
tan -0.113460 -0.284580 0.953066 1.000000
tan -0.103230 -0.437845 0.867134 1.000000
tan -0.242048 -0.141732 0.930374 1.000000
tan -0.341559 -0.234546 0.837436 1.000000
tan -0.553351 0.180234 -0.752557 1.000000
tan -0.450121 0.233616 -0.701407 1.000000
tan -0.777854 -0.185132 -0.579577 1.000000
tan -0.192014 -0.151900 0.887470 1.000000
tan -0.180048 0.115134 0.937752 1.000000
tan -0.240870 -0.049972 0.865770 1.000000
tan -0.285325 0.125674 0.885238 1.000000
tan -0.256060 -0.191704 0.873086 1.000000
tan -0.166408 -0.108376 0.945502 1.000000
tan 0.080166 -0.727943 0.612127 1.000000
tan 0.129332 -0.707049 -0.611445 1.000000
tan 0.021948 -0.745799 0.647901 1.000000
tan 0.726145 -0.261702 0.627813 1.000000
tan 0.585901 -0.063922 0.804637 1.000000
tan 0.827082 -0.323455 0.388369 1.000000
tan -0.147064 0.152086 0.967264 1.000000
tan -0.697067 -0.089590 0.653853 1.000000
tan -0.415959 -0.058900 0.834336 1.000000
tan 0.425941 -0.106516 0.837808 1.000000
tan -0.035960 -0.560481 0.801289 1.000000
tan -0.434683 0.055242 0.861740 1.000000
tan -0.718147 -0.394321 -0.580321 1.000000
tan -0.486019 -0.388555 -0.783433 1.000000
tan -0.708661 -0.000000 -0.708661 1.000000
tan -0.616591 0.396491 -0.681877 1.000000
tan -0.523839 0.328353 -0.774691 1.000000
tan -0.529543 -0.389733 -0.754417 1.000000
tan -0.574865 -0.114328 -0.771529 1.000000
tan -0.794222 -0.207948 -0.544609 1.000000
tan -0.724285 -0.374481 -0.585281 1.000000
tan -0.708661 -0.000000 -0.708661 1.000000
tan -0.627813 -0.096224 -0.726145 1.000000
tan -0.771530 0.213528 -0.574865 1.000000
tan -0.816914 0.228594 -0.506789 1.000000
tan -0.570401 0.422655 -0.705871 1.000000
tan -0.553351 0.181040 -0.759935 1.000000
tan -0.809350 -0.199888 -0.521917 1.000000
tan -0.516461 0.328229 -0.782070 1.000000
tan -0.801786 -0.200136 -0.529481 1.000000
tan -0.848720 -0.382479 -0.355447 1.000000
tan -0.900118 -0.218364 -0.340381 1.000000
tan -0.884990 0.108004 -0.378201 1.000000
tan -0.854734 0.268460 -0.438713 1.000000
tan -0.816914 0.071734 -0.506789 1.000000
f 3/3/3 2/2/2 1/1/1
f 6/6/6 5/5/5 4/4/4
f 9/9/9 8/8/8 7/7/7
f 12/12/12 11/11/11 10/10/10
f 15/15/15 14/14/14 13/13/13
f 18/18/18 17/17/17 16/16/16
f 21/21/21 20/20/20 19/19/19
f 24/24/24 23/23/23 22/22/22
f 27/27/27 26/26/26 25/25/25
f 30/30/30 29/29/29 28/28/28
f 33/33/33 32/32/32 31/31/31
f 36/36/36 35/35/35 34/34/34
f 39/39/39 38/38/38 37/37/37
f 42/42/42 41/41/41 40/40/40
f 45/45/45 44/44/44 43/43/43
f 48/48/48 47/47/47 46/46/46
f 51/51/51 50/50/50 49/49/49
f 54/54/54 53/53/53 52/52/52
f 57/57/57 56/56/56 55/55/55
f 60/60/60 59/59/59 58/58/58
f 63/63/63 62/62/62 61/61/61
f 66/66/66 65/65/65 64/64/64
f 69/69/69 68/68/68 67/67/67
f 72/72/72 71/71/71 70/70/70
f 75/75/75 74/74/74 73/73/73
f 78/78/78 77/77/77 76/76/76
f 81/81/81 80/80/80 79/79/79
f 84/84/84 83/83/83 82/82/82
f 87/87/87 86/86/86 85/85/85
f 87/87/87 89/89/89 88/88/88
f 87/87/87 91/91/91 90/90/90
f 94/94/94 93/93/93 92/92/92
f 94/94/94 96/96/96 95/95/95
f 94/94/94 98/98/98 97/97/97
f 94/94/94 100/100/100 99/99/99
f 94/94/94 99/99/99 101/101/101
f 104/104/104 103/103/103 102/102/102
f 104/104/104 102/102/102 105/105/105
f 104/104/104 105/105/105 106/106/106
f 104/104/104 106/106/106 107/107/107
