mtllib SM_PaintTube_Top_LOD3.mtl
g SM_PaintTube_Top_LOD3
#Vertices 92
#Indices 252
#Section 0 Offset 0 NumIndices 252 MaterialIndex 0 MI_PaintTube
v 0.012292 0.014335 0.003650
v -0.000220 0.015578 0.013212
v -0.001016 0.012011 0.013220
v 0.009270 0.012367 -0.007613
v 0.008425 0.015576 -0.009641
v -0.002128 0.013230 -0.012432
v -0.008934 0.015199 -0.010931
v -0.010345 0.011962 -0.006011
v -0.011177 0.012157 0.004603
v -0.011121 0.015831 0.007153
v -0.001016 0.012011 0.013220
v -0.000220 0.015578 0.013212
v 0.012122 0.010770 0.004416
v -0.001016 0.012011 0.013220
v 0.001449 0.008183 0.012542
v 0.009270 0.012367 -0.007613
v 0.011137 0.008456 -0.005234
v 0.000125 0.008761 -0.012986
v -0.011545 0.008665 -0.004956
v -0.010345 0.011962 -0.006011
v -0.011177 0.012157 0.004603
v -0.009421 0.008829 0.008331
v -0.001016 0.012011 0.013220
v 0.001449 0.008183 0.012542
v -0.001016 0.012011 0.013220
v 0.012122 0.010770 0.004416
v 0.012292 0.014335 0.003650
v 0.009270 0.012367 -0.007613
v 0.000125 0.008761 -0.012986
v -0.002128 0.013230 -0.012432
v -0.010345 0.011962 -0.006011
v 0.012559 0.019201 0.006379
v 0.001828 0.019704 0.014187
v -0.000220 0.015578 0.013212
v 0.012292 0.014335 0.003650
v 0.012752 0.018428 -0.001994
v 0.008425 0.015576 -0.009641
v 0.007558 0.019163 -0.011405
v -0.003023 0.018923 -0.012912
v -0.008934 0.015199 -0.010931
v -0.011444 0.018427 -0.005451
v -0.011121 0.015831 0.007153
v -0.010974 0.018449 0.008423
v -0.000220 0.015578 0.013212
v 0.001828 0.019704 0.014187
v 0.011137 0.008456 -0.005234
v 0.012122 0.010770 0.004416
v 0.001449 0.008183 0.012542
v 0.000125 0.008761 -0.012986
v -0.011545 0.008665 -0.004956
v -0.009421 0.008829 0.008331
v 0.000134 0.017547 0.015924
v 0.009230 0.001317 0.013701
v -0.000733 0.000423 0.016014
v 0.011876 0.017397 0.011858
v 0.001828 0.019704 0.014187
v 0.015624 0.000208 0.005316
v 0.012559 0.019201 0.006379
v 0.016105 0.017468 -0.002479
v 0.014117 0.001400 -0.007873
v 0.014445 0.019179 -0.005519
v 0.012752 0.018428 -0.001994
v 0.007558 0.019163 -0.011405
v 0.007461 0.018045 -0.015323
v -0.003023 0.018923 -0.012912
v 0.010115 -0.000036 -0.010765
v 0.006400 0.001593 -0.014746
v -0.003428 0.000389 -0.016001
v -0.008366 0.017737 -0.014042
v -0.013708 0.001712 -0.008665
v -0.010768 0.019408 -0.010737
v -0.011444 0.018427 -0.005451
v -0.016601 0.017653 -0.000496
v -0.014134 0.001796 0.009895
v -0.014602 0.000087 -0.002841
v -0.015140 0.019346 0.000159
v -0.010974 0.018449 0.008423
v -0.008840 0.017525 0.013870
v -0.000733 0.000423 0.016014
v 0.000134 0.017547 0.015924
v -0.009698 0.019447 0.012396
v 0.001828 0.019704 0.014187
v 0.010115 -0.000036 -0.010765
v 0.006400 0.001593 -0.014746
v -0.003428 0.000389 -0.016001
v -0.013708 0.001712 -0.008665
v -0.014602 0.000087 -0.002841
v 0.015624 0.000208 0.005316
v 0.014117 0.001400 -0.007873
v -0.000733 0.000423 0.016014
v 0.009230 0.001317 0.013701
v -0.014134 0.001796 0.009895
vt 0.967285 0.560547
vt 0.978027 0.505371
vt 0.984375 0.504883
vt 0.966797 0.601562
vt 0.957520 0.607422
vt 0.962402 0.645508
vt 0.958008 0.667236
vt 0.967773 0.682373
vt 0.973633 0.720215
vt 0.966309 0.728027
vt 0.985840 0.765015
vt 0.978027 0.769775
vt 0.980957 0.559570
vt 0.993652 0.504883
vt 0.998535 0.516357
vt 0.972168 0.601807
vt 0.982422 0.592285
vt 0.977539 0.637451
vt 0.982422 0.684570
vt 0.975098 0.680176
vt 0.979492 0.717285
vt 0.990723 0.729004
vt 0.990723 0.762451
vt 1.001953 0.767090
vt 0.987793 0.505371
vt 0.979004 0.559326
vt 0.972656 0.560791
vt 0.969727 0.601562
vt 0.973633 0.637695
vt 0.965332 0.645508
vt 0.970215 0.681396
vt 0.952637 0.549072
vt 0.963379 0.505859
vt 0.975098 0.504395
vt 0.962891 0.559326
vt 0.950684 0.575928
vt 0.955078 0.607422
vt 0.946289 0.612549
vt 0.945801 0.648682
vt 0.958008 0.667480
vt 0.949219 0.687256
vt 0.963379 0.729248
vt 0.957520 0.733398
vt 0.973145 0.770874
vt 0.966797 0.779663
vt 0.914551 0.732178
vt 0.881348 0.737061
vt 0.854004 0.699463
vt 0.940918 0.694580
vt 0.913086 0.655029
vt 0.868164 0.662354
vt 0.476807 0.807983
vt 0.541016 0.793823
vt 0.534180 0.828003
vt 0.491699 0.770020
vt 0.472168 0.797363
vt 0.554688 0.759521
vt 0.486084 0.751221
vt 0.501953 0.722900
vt 0.559082 0.712158
vt 0.497803 0.711426
vt 0.487549 0.720215
vt 0.496094 0.680420
vt 0.506348 0.674561
vt 0.495850 0.641113
vt 0.566895 0.694580
vt 0.561523 0.675537
vt 0.565918 0.639648
vt 0.506348 0.625244
vt 0.558105 0.594482
vt 0.499756 0.612793
vt 0.488770 0.597168
vt 0.500488 0.574463
vt 0.545898 0.530762
vt 0.561035 0.573486
vt 0.493896 0.574219
vt 0.480957 0.544678
vt 0.488525 0.524170
vt 0.535156 0.479980
vt 0.476562 0.496582
vt 0.484619 0.530762
vt 0.465576 0.497559
vt 0.228516 0.682617
vt 0.244019 0.694092
vt 0.249146 0.727295
vt 0.226929 0.764038
vt 0.207031 0.768066
vt 0.172852 0.667480
vt 0.218140 0.668945
vt 0.140137 0.725342
vt 0.144897 0.690674
vt 0.163696 0.769653
vt1 0.898926 0.218750
vt1 0.859863 0.019043
vt1 0.837402 0.016602
vt1 0.901855 0.368652
vt1 0.934570 0.389160
vt1 0.916992 0.528320
vt1 0.932617 0.607422
vt1 0.896973 0.661865
vt1 0.876465 0.799561
vt1 0.903320 0.828613
vt1 0.832031 0.963196
vt1 0.860352 0.980316
vt1 0.849121 0.215820
vt1 0.803223 0.016602
vt1 0.786621 0.058594
vt1 0.881836 0.369629
vt1 0.843750 0.334961
vt1 0.862305 0.498535
vt1 0.844238 0.670654
vt1 0.871094 0.654297
vt1 0.854492 0.789307
vt1 0.814941 0.832397
vt1 0.813965 0.953888
vt1 0.773926 0.970795
vt1 0.824707 0.018066
vt1 0.855957 0.214844
vt1 0.880371 0.219727
vt1 0.890625 0.368652
vt1 0.876465 0.499512
vt1 0.906250 0.527832
vt1 0.889160 0.658936
vt1 0.952637 0.177734
vt1 0.914062 0.020020
vt1 0.871582 0.014648
vt1 0.915527 0.214355
vt1 0.959961 0.274902
vt1 0.943848 0.389160
vt1 0.976074 0.408203
vt1 0.977051 0.539307
vt1 0.934082 0.608398
vt1 0.964355 0.680176
vt1 0.913574 0.832397
vt1 0.934570 0.847900
vt1 0.877441 0.984428
vt1 0.900879 1.016312
vt1 0.591797 0.461914
vt1 0.434570 0.484863
vt1 0.304443 0.307129
vt1 0.716309 0.283203
vt1 0.585938 0.095703
vt1 0.371826 0.130371
vt1 0.041962 0.943634
vt1 0.224976 0.903442
vt1 0.205078 1.000486
vt1 0.084106 0.836060
vt1 0.028824 0.913635
vt1 0.262695 0.806152
vt1 0.067932 0.782715
vt1 0.114075 0.701904
vt1 0.275391 0.671631
vt1 0.101257 0.669922
vt1 0.072327 0.694580
vt1 0.096680 0.581543
vt1 0.125488 0.564697
vt1 0.095703 0.470215
vt1 0.298340 0.621582
vt1 0.282715 0.567627
vt1 0.294678 0.466309
vt1 0.126099 0.424805
vt1 0.272705 0.337891
vt1 0.107117 0.389648
vt1 0.076172 0.345703
vt1 0.109924 0.280762
vt1 0.238647 0.157227
vt1 0.281250 0.277832
vt1 0.090271 0.280273
vt1 0.053894 0.196289
vt1 0.075134 0.138184
vt1 0.207886 0.012695
vt1 0.041107 0.060059
vt1 0.064209 0.157227
vt1 0.010170 0.062500
vt1 0.722168 0.572998
vt1 0.795410 0.627197
vt1 0.820312 0.785400
vt1 0.714355 0.959961
vt1 0.620117 0.978989
vt1 0.457520 0.500977
vt1 0.672852 0.508057
vt1 0.302246 0.775513
vt1 0.324951 0.610840
vt1 0.414062 0.986122
vn -0.968504 0.110236 -0.220472
vn -0.007874 0.511811 -0.858268
vn -0.047244 -0.362205 -0.929134
vn -0.661417 -0.480315 0.566929
vn -0.488189 0.677165 0.551181
vn 0.181102 -0.188976 0.968504
vn 0.582677 0.503937 0.629921
vn 0.669291 -0.645669 0.370079
vn 0.755906 -0.543307 -0.362205
vn 0.653543 0.614173 -0.448819
vn 0.015748 -0.692913 -0.724409
vn 0.000000 0.598425 -0.803150
vn -0.850394 0.409449 -0.338583
vn 0.102362 0.590551 -0.795276
vn -0.110236 -0.464567 -0.881890
vn -0.519685 0.740157 0.425197
vn -0.787402 -0.480315 0.385827
vn -0.055118 -0.102362 0.992126
vn 0.818898 -0.456693 0.354331
vn 0.708661 0.543307 0.456693
vn 0.724409 0.637795 -0.275591
vn 0.645669 -0.496063 -0.582677
vn 0.070866 0.637795 -0.763779
vn -0.094488 -0.551181 -0.834646
vn 0.031496 0.275590 -0.960630
vn -0.842520 -0.393701 -0.370079
vn -0.803150 0.559055 -0.188976
vn -0.748031 0.181102 0.637795
vn 0.007874 -0.653543 0.763779
vn 0.133858 0.519685 0.842520
vn 0.834646 0.188976 0.519685
vn -0.629921 0.677165 -0.370079
vn -0.047244 0.944882 -0.322835
vn -0.055118 -0.267717 -0.960630
vn -0.897638 -0.362205 -0.244094
vn -0.897638 0.417323 0.125984
vn -0.629921 -0.322835 0.708661
vn -0.149606 0.874016 0.456693
vn 0.188976 0.519685 0.834646
vn 0.566929 -0.425197 0.700787
vn 0.779528 0.527559 0.346457
vn 0.787402 -0.307087 -0.535433
vn 0.574803 0.677165 -0.456693
vn 0.023622 -0.267717 -0.960630
vn -0.070866 0.960630 -0.275591
vn -0.023622 1.000000 0.015748
vn -0.023622 1.000000 -0.007874
vn 0.000000 1.000000 -0.031496
vn 0.007874 1.000000 0.031496
vn 0.031496 1.000000 0.015748
vn 0.031496 1.000000 -0.023622
vn 0.000000 0.031496 1.000000
vn 0.551181 -0.086614 0.826772
vn -0.047244 -0.165354 0.984252
vn 0.708661 0.023622 0.708661
vn -0.015748 0.976378 0.196850
vn 0.937008 -0.149606 0.307087
vn -0.007874 1.000000 0.007874
vn 0.984252 0.023622 -0.149606
vn 0.874016 -0.086614 -0.480315
vn 0.393701 0.905512 -0.157480
vn -0.606299 0.787401 0.094488
vn -0.157480 0.960630 0.228346
vn 0.425197 0.055118 -0.905512
vn 0.039370 0.952756 0.314960
vn 0.377953 -0.842520 -0.377953
vn 0.401575 -0.078740 -0.913386
vn -0.212598 -0.110236 -0.968504
vn -0.511811 0.047244 -0.858268
vn -0.850394 -0.062992 -0.527559
vn -0.299213 0.905512 -0.307087
vn 0.566929 0.779527 0.259842
vn -1.000000 0.039370 -0.031496
vn -0.826772 -0.094488 0.559055
vn -0.574803 -0.811023 -0.102362
vn -0.322835 0.944882 0.023622
vn 0.433071 0.850394 -0.307087
vn -0.543307 0.031496 0.834646
vn -0.031496 -0.133858 0.992126
vn 0.000000 0.031496 1.000000
vn -0.275591 0.881890 0.385827
vn -0.015748 1.000000 0.015748
vn 0.062992 -0.992126 -0.086614
vn 0.196850 -0.527559 -0.826771
vn -0.070866 -0.976378 -0.212598
vn -0.362205 -0.889764 -0.267716
vn -0.102362 -0.992126 -0.023622
vn 0.110236 -0.992126 0.031496
vn 0.755906 -0.551181 -0.346457
vn -0.007874 -0.984252 0.157480
vn 0.393701 -0.472441 0.787401
vn -0.370079 -0.905512 0.196850
tan -0.184884 0.249923 0.937132 1.000000
tan -0.457995 0.742885 0.447207 1.000000
tan -0.885238 0.292641 -0.069068 1.000000
tan 0.616467 0.039432 0.752619 1.000000
tan 0.530225 -0.200012 0.715357 1.000000
tan 0.969992 0.039556 -0.173662 1.000000
tan 0.764834 -0.107012 -0.621861 1.000000
tan 0.483353 0.082770 -0.729741 1.000000
tan -0.489119 -0.153636 -0.790315 1.000000
tan -0.482113 -0.119660 -0.865770 1.000000
tan -0.640089 -0.469961 0.435613 1.000000
tan -0.404613 -0.701965 -0.523033 1.000000
tan -0.224750 0.232935 0.846178 1.000000
tan -0.173724 0.777295 0.554839 1.000000
tan -0.861802 0.260401 -0.029450 1.000000
tan 0.770290 0.225060 0.549693 1.000000
tan 0.467481 -0.106268 0.821750 1.000000
tan 0.992126 0.023436 0.057536 1.000000
tan 0.379503 0.028396 -0.840474 1.000000
tan 0.571331 -0.119040 -0.744931 1.000000
tan -0.086800 -0.232191 -0.765515 1.000000
tan -0.676235 -0.052080 -0.705003 1.000000
tan -0.202492 -0.738608 -0.635563 1.000000
tan -0.840846 -0.216752 0.238328 1.000000
tan -0.518693 0.809846 0.215326 1.000000
tan -0.460909 0.210986 0.824850 1.000000
tan 0.135718 0.446029 0.742699 1.000000
tan 0.650567 0.018910 0.757641 1.000000
tan 0.794656 -0.017670 -0.023312 1.000000
tan 0.782380 0.369707 -0.352347 1.000000
tan 0.552793 -0.232501 -0.803274 1.000000
tan -0.575733 -0.123132 0.754665 1.000000
tan -0.902784 0.054126 0.290533 1.000000
tan -0.930374 0.249612 -0.016182 1.000000
tan -0.368405 0.358547 0.822741 1.000000
tan 0.270507 0.317317 0.876248 1.000000
tan 0.718395 0.110980 0.689131 1.000000
tan 0.423709 -0.332073 0.774319 1.000000
tan 0.850146 -0.155000 -0.095976 1.000000
tan 0.737988 -0.082832 -0.647281 1.000000
tan 0.564883 -0.336227 -0.759005 1.000000
tan -0.591109 -0.160704 -0.777109 1.000000
tan -0.470085 -0.028272 -0.633579 1.000000
tan -0.920702 -0.272119 0.053196 1.000000
tan -0.960630 -0.081716 -0.037820 1.000000
tan -1.000000 -0.023622 0.000000 1.000000
tan -1.000000 -0.023622 0.000000 1.000000
tan -1.000000 0.000000 0.000000 1.000000
tan -1.000000 0.007874 -0.000000 1.000000
tan -1.000000 0.031496 -0.000000 1.000000
tan -1.000000 0.031496 -0.000000 1.000000
tan 0.952756 0.314961 -0.009920 1.000000
tan 0.828136 0.034720 -0.548453 1.000000
tan 0.914502 0.364251 0.105090 1.000000
tan 0.707917 0.044640 -0.709405 1.000000
tan 0.444355 0.182342 -0.868870 1.000000
tan 0.337343 0.277946 -0.893918 1.000000
tan 0.141732 0.008928 -0.992126 1.000000
tan -0.151342 0.170500 -0.968752 1.000000
tan -0.480315 0.007564 -0.875380 1.000000
tan -0.749892 0.236220 -0.516461 1.000000
tan -0.593465 -0.391035 -0.549445 1.000000
tan -0.803584 -0.007378 -0.523157 1.000000
tan -0.905512 0.007130 -0.424763 1.000000
tan -0.917726 -0.048980 0.262881 1.000000
tan -0.621799 0.011904 -0.648335 1.000000
tan -0.914006 0.068758 -0.407775 1.000000
tan -0.968504 -0.083886 0.222146 1.000000
tan -0.858268 0.006758 0.512183 1.000000
tan -0.527063 -0.010850 0.850890 1.000000
tan -0.727509 -0.046996 0.570277 1.000000
tan -0.626077 0.284767 0.511687 1.000000
tan -0.038502 -0.196850 0.976378 1.000000
tan 0.565069 -0.091140 0.820262 1.000000
tan 0.041168 -0.149420 0.952694 1.000000
tan -0.423895 -0.166098 0.850704 1.000000
tan 0.328663 0.119226 0.793663 1.000000
tan 0.828074 -0.092008 0.542501 1.000000
tan 0.937442 -0.328105 -0.014508 1.000000
tan 0.929134 -0.370079 0.011656 1.000000
tan 0.325501 -0.258664 0.823734 1.000000
tan 0.527559 -0.005084 0.850394 1.000000
tan 0.992126 0.069812 -0.078120 1.000000
tan 0.650691 0.637671 -0.251969 1.000000
tan 0.976378 -0.055800 -0.069192 1.000000
tan 0.889764 -0.374853 0.042036 1.000000
tan 0.992126 -0.100874 -0.062496 1.000000
tan 0.992126 0.108748 -0.046872 1.000000
tan 0.575733 0.766817 0.036208 1.000000
tan 0.976502 -0.021452 -0.085250 1.000000
tan 0.822122 0.477401 -0.124620 1.000000
tan 0.905512 -0.387129 -0.078430 1.000000
f 3/3/3 2/2/2 1/1/1
f 5/5/5 4/4/4 1/1/1
f 5/5/5 6/6/6 4/4/4
f 6/6/6 5/5/5 7/7/7
f 7/7/7 8/8/8 6/6/6
f 7/7/7 9/9/9 8/8/8
f 7/7/7 10/10/10 9/9/9
f 9/9/9 10/10/10 11/11/11
f 12/12/12 11/11/11 10/10/10
f 15/15/15 14/14/14 13/13/13
f 17/17/17 13/13/13 16/16/16
f 17/17/17 16/16/16 18/18/18
f 20/20/20 19/19/19 18/18/18
f 21/21/21 19/19/19 20/20/20
f 22/22/22 19/19/19 21/21/21
f 23/23/23 22/22/22 21/21/21
f 22/22/22 23/23/23 24/24/24
f 27/27/27 26/26/26 25/25/25
f 26/26/26 27/27/27 28/28/28
f 30/30/30 29/29/29 28/28/28
f 30/30/30 31/31/31 29/29/29
f 34/34/34 33/33/33 32/32/32
f 32/32/32 35/35/35 34/34/34
f 35/35/35 32/32/32 36/36/36
f 35/35/35 36/36/36 37/37/37
f 38/38/38 37/37/37 36/36/36
f 38/38/38 39/39/39 37/37/37
f 37/37/37 39/39/39 40/40/40
f 40/40/40 39/39/39 41/41/41
f 40/40/40 41/41/41 42/42/42
f 41/41/41 43/43/43 42/42/42
f 42/42/42 43/43/43 44/44/44
f 45/45/45 44/44/44 43/43/43
f 48/48/48 47/47/47 46/46/46
f 48/48/48 46/46/46 49/49/49
f 48/48/48 49/49/49 50/50/50
f 48/48/48 50/50/50 51/51/51
f 54/54/54 53/53/53 52/52/52
f 55/55/55 52/52/52 53/53/53
f 55/55/55 56/56/56 52/52/52
f 57/57/57 55/55/55 53/53/53
f 56/56/56 55/55/55 58/58/58
f 55/55/55 57/57/57 59/59/59
f 55/55/55 59/59/59 58/58/58
f 60/60/60 59/59/59 57/57/57
f 61/61/61 58/58/58 59/59/59
f 62/62/62 58/58/58 61/61/61
f 63/63/63 62/62/62 61/61/61
f 61/61/61 59/59/59 64/64/64
f 63/63/63 61/61/61 64/64/64
f 59/59/59 60/60/60 64/64/64
f 64/64/64 65/65/65 63/63/63
f 67/67/67 60/60/60 66/66/66
f 67/67/67 64/64/64 60/60/60
f 68/68/68 64/64/64 67/67/67
f 64/64/64 68/68/68 69/69/69
f 69/69/69 65/65/65 64/64/64
f 68/68/68 70/70/70 69/69/69
f 65/65/65 69/69/69 71/71/71
f 72/72/72 65/65/65 71/71/71
f 73/73/73 69/69/69 70/70/70
f 69/69/69 73/73/73 71/71/71
f 75/75/75 74/74/74 70/70/70
f 70/70/70 74/74/74 73/73/73
f 71/71/71 76/76/76 72/72/72
f 76/76/76 71/71/71 73/73/73
f 77/77/77 72/72/72 76/76/76
f 73/73/73 74/74/74 78/78/78
f 74/74/74 79/79/79 78/78/78
f 80/80/80 78/78/78 79/79/79
f 73/73/73 81/81/81 76/76/76
f 78/78/78 81/81/81 73/73/73
f 81/81/81 77/77/77 76/76/76
f 78/78/78 80/80/80 81/81/81
f 77/77/77 81/81/81 82/82/82
f 82/82/82 81/81/81 80/80/80
f 85/85/85 84/84/84 83/83/83
f 87/87/87 86/86/86 85/85/85
f 87/87/87 85/85/85 83/83/83
f 83/83/83 89/89/89 88/88/88
f 87/87/87 83/83/83 88/88/88
f 87/87/87 88/88/88 90/90/90
f 90/90/90 88/88/88 91/91/91
f 87/87/87 90/90/90 92/92/92
