mtllib SM_PaintBrush_03_LOD3.mtl
g SM_PaintBrush_03_LOD3
#Vertices 92
#Indices 252
#Section 0 Offset 0 NumIndices 252 MaterialIndex 0 MI_PaintBrush
v -0.030296 -0.017486 0.256438
v 0.029966 0.017086 0.257268
v 0.029212 -0.017597 0.256402
v -0.029759 0.017230 0.256312
v 0.041390 0.010491 -0.248692
v -0.041505 0.010333 -0.249725
v 0.045110 0.006698 -0.251077
v -0.043613 0.007540 -0.252428
v 0.042609 -0.006648 -0.252768
v -0.044960 -0.007459 -0.251273
v 0.043785 -0.009870 -0.249805
v -0.040834 -0.010111 -0.248789
v 0.052805 -0.011272 -0.166052
v 0.043785 -0.009870 -0.249805
v 0.050121 -0.015389 -0.166107
v 0.042609 -0.006648 -0.252768
v 0.045110 0.006698 -0.251077
v 0.052676 0.012591 -0.166447
v 0.041390 0.010491 -0.248692
v 0.048367 0.015850 -0.166101
v -0.041505 0.010333 -0.249725
v -0.048487 0.015830 -0.166099
v -0.043613 0.007540 -0.252428
v -0.053002 0.011920 -0.166119
v -0.044960 -0.007459 -0.251273
v -0.052912 -0.011440 -0.166337
v -0.048496 -0.015447 -0.166101
v -0.040834 -0.010111 -0.248789
v 0.043785 -0.009870 -0.249805
v 0.050121 -0.015389 -0.166107
v -0.030296 -0.017486 0.256438
v 0.029212 -0.017597 0.256402
v -0.039279 -0.017680 0.201747
v 0.037576 -0.017540 0.200587
v 0.030291 -0.017470 0.143615
v -0.030320 -0.017875 0.142494
v 0.030122 -0.017508 0.054241
v -0.030593 -0.017921 0.052619
v 0.052141 -0.017492 -0.070242
v -0.050665 -0.017535 -0.070386
v -0.053031 -0.016007 -0.068012
v 0.051086 -0.017540 -0.163836
v -0.053127 -0.017751 -0.165914
v 0.053102 -0.015235 -0.169906
v -0.049022 -0.013564 -0.171084
v -0.030296 -0.017486 0.256438
v -0.040234 0.014909 0.200549
v -0.029759 0.017230 0.256312
v -0.039279 -0.017680 0.201747
v -0.030320 -0.017875 0.142494
v -0.030743 0.018216 0.141021
v -0.030593 -0.017921 0.052619
v -0.030307 0.017937 0.056846
v -0.053031 -0.016007 -0.068012
v -0.052269 0.017834 -0.071839
v -0.053127 -0.017751 -0.165914
v -0.052213 0.017661 -0.164992
v -0.050096 0.014121 -0.171184
v -0.049022 -0.013564 -0.171084
v 0.049958 0.014487 -0.171274
v -0.052213 0.017661 -0.164992
v -0.050096 0.014121 -0.171184
v 0.053051 0.017697 -0.165939
v 0.051972 0.017879 -0.068826
v -0.052269 0.017834 -0.071839
v 0.030542 0.017841 0.052557
v -0.030307 0.017937 0.056846
v 0.030185 0.017852 0.142592
v -0.030743 0.018216 0.141021
v -0.037576 0.017540 0.200587
v 0.039591 0.017637 0.201795
v -0.040234 0.014909 0.200549
v 0.029966 0.017086 0.257268
v -0.029759 0.017230 0.256312
v 0.049958 0.014487 -0.171274
v 0.053102 -0.015235 -0.169906
v 0.053051 0.017697 -0.165939
v 0.053166 -0.015049 -0.069564
v 0.051972 0.017879 -0.068826
v 0.052141 -0.017492 -0.070242
v 0.051086 -0.017540 -0.163836
v 0.031566 -0.014957 0.055076
v 0.030122 -0.017508 0.054241
v 0.030542 0.017841 0.052557
v 0.030291 -0.017470 0.143615
v 0.031910 -0.014792 0.146755
v 0.030185 0.017852 0.142592
v 0.037576 -0.017540 0.200587
v 0.040234 -0.014909 0.200549
v 0.039591 0.017637 0.201795
v 0.029212 -0.017597 0.256402
v 0.029966 0.017086 0.257268
vt 0.230103 0.561279
vt 0.154297 0.605957
vt 0.154663 0.562256
vt 0.229858 0.605225
vt 0.587402 0.722900
vt 0.693848 0.724609
vt 0.583496 0.730469
vt 0.695801 0.730225
vt 0.586914 0.750000
vt 0.697754 0.751831
vt 0.584473 0.756104
vt 0.692871 0.758057
vt 0.689941 0.658691
vt 0.719727 0.752686
vt 0.684570 0.660645
vt 0.724121 0.755005
vt 0.737793 0.747803
vt 0.716309 0.651855
vt 0.743164 0.744141
vt 0.722656 0.650146
vt 0.837891 0.732178
vt 0.833496 0.635498
vt 0.842773 0.734619
vt 0.841309 0.635254
vt 0.860352 0.733887
vt 0.868164 0.636475
vt 0.875977 0.636963
vt 0.865723 0.732422
vt 0.960938 0.754150
vt 0.988281 0.660156
vt 0.236816 0.548584
vt 0.161377 0.549561
vt 0.247314 0.479492
vt 0.150024 0.478516
vt 0.159302 0.406250
vt 0.236206 0.404785
vt 0.158691 0.293457
vt 0.235718 0.290527
vt 0.127686 0.135742
vt 0.258789 0.134277
vt 0.262207 0.137207
vt 0.130371 0.015137
vt 0.260254 0.015137
vt 0.128296 0.006836
vt 0.256104 0.006836
vt 0.429932 0.003906
vt 0.390625 0.078613
vt 0.387939 0.003906
vt 0.430420 0.077148
vt 0.430420 0.156250
vt 0.386719 0.158203
vt 0.430664 0.274414
vt 0.386963 0.268555
vt 0.428223 0.436035
vt 0.387207 0.440918
vt 0.430420 0.564697
vt 0.387207 0.563477
vt 0.388916 0.572754
vt 0.428223 0.573242
vt 0.013702 0.543701
vt 0.140503 0.535156
vt 0.138062 0.543945
vt 0.010017 0.536133
vt 0.008270 0.414551
vt 0.141235 0.416016
vt 0.032715 0.260254
vt 0.109802 0.253418
vt 0.030792 0.145996
vt 0.108093 0.146484
vt 0.115051 0.070801
vt 0.017792 0.071289
vt 0.119812 0.070801
vt 0.028442 0.000488
vt 0.104065 0.000488
vt 0.475342 0.567871
vt 0.436035 0.564697
vt 0.476562 0.559570
vt 0.436523 0.434082
vt 0.476807 0.433105
vt 0.433350 0.434570
vt 0.431885 0.556885
vt 0.436768 0.269531
vt 0.433105 0.270508
vt 0.476807 0.272461
vt 0.433350 0.154297
vt 0.437012 0.149902
vt 0.476807 0.155273
vt 0.431885 0.078613
vt 0.436768 0.078613
vt 0.476562 0.077148
vt 0.433594 0.004883
vt 0.475830 0.003906
vt1 0.780273 0.579590
vt1 0.859375 0.717285
vt1 0.780762 0.715820
vt1 0.859375 0.581055
vt1 0.878418 0.740479
vt1 0.881348 0.550781
vt1 0.891113 0.748779
vt1 0.890625 0.546387
vt1 0.922852 0.742676
vt1 0.925781 0.542969
vt1 0.932617 0.745850
vt1 0.936035 0.552246
vt1 0.710938 0.592285
vt1 0.896973 0.535156
vt1 0.714355 0.603271
vt1 0.901855 0.526123
vt1 0.887695 0.499023
vt1 0.697266 0.539307
vt1 0.880371 0.488281
vt1 0.693848 0.526611
vt1 0.858887 0.299316
vt1 0.666992 0.306641
vt1 0.864258 0.290527
vt1 0.666504 0.291504
vt1 0.862793 0.256836
vt1 0.669434 0.237793
vt1 0.670898 0.223145
vt1 0.859863 0.245605
vt1 0.904297 0.057129
vt1 0.719238 0.001465
vt1 0.614258 0.992615
vt1 0.478027 0.993404
vt1 0.633789 0.867554
vt1 0.458008 0.865601
vt1 0.474365 0.734863
vt1 0.613281 0.731689
vt1 0.473389 0.530518
vt1 0.612305 0.525391
vt1 0.418945 0.245605
vt1 0.654297 0.243652
vt1 0.660645 0.249023
vt1 0.421631 0.030762
vt1 0.659668 0.026367
vt1 0.417236 0.015625
vt1 0.650879 0.011230
vt1 0.165771 0.002441
vt1 0.091797 0.132812
vt1 0.086487 0.002441
vt1 0.166504 0.129883
vt1 0.166870 0.267090
vt1 0.084290 0.270508
vt1 0.166870 0.472656
vt1 0.084961 0.462891
vt1 0.162598 0.753052
vt1 0.085083 0.761597
vt1 0.166626 0.977188
vt1 0.085510 0.975143
vt1 0.093628 0.991264
vt1 0.157104 0.992188
vt1 0.175171 0.982849
vt1 0.408203 0.967224
vt1 0.403320 0.983078
vt1 0.168579 0.969421
vt1 0.169678 0.748291
vt1 0.408447 0.753540
vt1 0.215454 0.469727
vt1 0.354492 0.458496
vt1 0.213501 0.263672
vt1 0.352783 0.265625
vt1 0.366943 0.128906
vt1 0.190552 0.127930
vt1 0.375488 0.128906
vt1 0.211182 0.000977
vt1 0.347900 0.001465
vt1 0.079285 0.992035
vt1 0.011063 0.985329
vt1 0.086853 0.977371
vt1 0.012810 0.756348
vt1 0.088135 0.754517
vt1 0.006817 0.757690
vt1 0.003647 0.971741
vt1 0.012558 0.467773
vt1 0.005981 0.469238
vt1 0.087646 0.473145
vt1 0.006248 0.265137
vt1 0.012741 0.257324
vt1 0.087524 0.267578
vt1 0.004570 0.132812
vt1 0.013107 0.132812
vt1 0.087402 0.129883
vt1 0.006618 0.002930
vt1 0.086121 0.000977
vn -0.078740 -0.157480 0.984252
vn 0.078740 0.149606 0.984252
vn 0.094488 -0.196850 0.976378
vn -0.141732 0.196850 0.968504
vn 0.007874 0.992126 -0.149606
vn -0.015748 0.881890 -0.472441
vn 0.039370 0.291338 -0.952756
vn -0.015748 0.118110 -0.992126
vn 0.015748 -0.086614 -1.000000
vn -0.031496 -0.330709 -0.944882
vn 0.015748 -0.850394 -0.527559
vn -0.007874 -0.984252 -0.165354
vn 1.000000 -0.031496 -0.055118
vn 0.645669 -0.748031 -0.157480
vn 0.433071 -0.897638 -0.078740
vn 0.937008 -0.133858 -0.322835
vn 0.984252 0.070866 -0.181102
vn 0.992126 0.110236 -0.039370
vn 0.000000 1.000000 -0.047244
vn 0.007874 1.000000 -0.062992
vn -0.007874 1.000000 -0.055118
vn -0.007874 1.000000 -0.062992
vn -0.921260 0.275590 -0.283465
vn -1.000000 0.055118 -0.055118
vn -0.976378 -0.118110 -0.173228
vn -1.000000 -0.070866 -0.031496
vn -0.007874 -1.000000 -0.062992
vn 0.000000 -1.000000 -0.039370
vn 0.007874 -1.000000 -0.055118
vn 0.023622 -1.000000 -0.062992
vn -0.094488 -0.992126 0.102362
vn 0.023622 -1.000000 0.055118
vn -0.062992 -1.000000 0.000000
vn 0.039370 -1.000000 0.000000
vn 0.039370 -1.000000 -0.007874
vn -0.062992 -1.000000 -0.007874
vn 0.039370 -1.000000 0.000000
vn -0.047244 -1.000000 0.007874
vn 0.031496 -1.000000 0.007874
vn -0.031496 -1.000000 0.007874
vn -0.929134 -0.362205 0.094488
vn 0.023622 -1.000000 -0.015748
vn -0.055118 -1.000000 -0.039370
vn 0.023622 -0.826772 -0.566929
vn -0.039370 -0.724409 -0.692913
vn -0.921260 -0.086614 0.385827
vn -1.000000 0.078740 -0.023622
vn -0.905512 0.086614 0.409449
vn -0.992126 -0.086614 -0.015748
vn -0.992126 -0.094488 -0.102362
vn -0.992126 0.102362 -0.070866
vn -0.992126 -0.102362 0.102362
vn -0.984252 0.102362 0.125984
vn -0.992126 -0.086614 0.110236
vn -0.992126 0.094488 0.078740
vn -0.992126 -0.094488 -0.023622
vn -0.992126 0.094488 -0.023622
vn -0.708661 0.078740 -0.700787
vn -0.692913 -0.078740 -0.716535
vn 0.047244 0.740157 -0.669291
vn -0.031496 1.000000 -0.023622
vn -0.070866 0.732283 -0.677165
vn 0.055118 1.000000 -0.023622
vn 0.047244 1.000000 0.007874
vn -0.047244 1.000000 0.007874
vn 0.047244 1.000000 0.007874
vn -0.062992 1.000000 0.007874
vn 0.055118 1.000000 -0.007874
vn -0.094488 0.992126 -0.007874
vn -0.039370 1.000000 -0.000000
vn 0.078740 1.000000 -0.000000
vn -1.000000 0.078740 -0.023622
vn 0.070866 0.992126 0.062992
vn -0.094488 0.992126 0.102362
vn 0.708661 0.086614 -0.700787
vn 0.984252 -0.125984 -0.118110
vn 0.992126 0.094488 -0.023622
vn 0.992126 -0.078740 0.086614
vn 0.992126 0.094488 0.118110
vn 0.362205 -0.929134 0.031496
vn 0.023622 -1.000000 -0.015748
vn 0.992126 -0.078740 0.118110
vn 0.291339 -0.952756 0.031496
vn 0.992126 0.102362 0.110236
vn 0.354331 -0.937008 -0.031496
vn 0.992126 -0.078740 -0.086614
vn 0.992126 0.094488 -0.102362
vn 0.039370 -1.000000 0.000000
vn 1.000000 -0.078740 -0.023622
vn 0.992126 0.086614 -0.015748
vn 0.866142 -0.283464 0.401575
vn 0.913386 0.086614 0.401575
tan -0.015500 -0.984252 -0.158720 1.000000
tan -0.015500 -0.984252 0.150846 1.000000
tan 0.007688 -0.976378 -0.197594 1.000000
tan 0.015252 -0.968504 0.199082 1.000000
tan -0.007812 0.149668 0.992126 1.000000
tan 0.013888 0.472689 0.881890 1.000000
tan 0.007502 0.952756 0.291648 1.000000
tan -0.007812 0.992126 0.118234 1.000000
tan -0.007874 1.000000 -0.086738 1.000000
tan 0.014880 0.944882 -0.331205 1.000000
tan 0.006696 0.527683 -0.850394 1.000000
tan -0.007750 0.165416 -0.984252 1.000000
tan 0.061380 0.267717 0.960630 1.000000
tan 0.749582 0.626945 0.095294 1.000000
tan 0.544857 0.199950 0.717279 1.000000
tan 0.348069 0.265609 0.900118 1.000000
tan 0.151342 0.294501 0.937752 1.000000
tan -0.016182 0.460909 0.882758 1.000000
tan -0.125984 0.046872 0.992126 1.000000
tan -0.133858 0.063550 0.992126 1.000000
tan -0.133858 0.053630 0.992126 1.000000
tan -0.125984 0.061504 0.992126 1.000000
tan -0.333189 -0.181908 0.906008 1.000000
tan -0.054250 0.015748 1.000000 1.000000
tan -0.193316 0.199888 0.953314 1.000000
tan -0.040176 0.125984 0.992126 1.000000
tan -0.204724 -0.059892 0.976378 1.000000
tan -0.212598 -0.038440 0.976378 1.000000
tan -0.212598 -0.055490 0.976378 1.000000
tan -0.204724 -0.066340 0.976378 1.000000
tan 0.039060 -0.106082 -0.992126 1.000000
tan 0.000000 -0.055118 -1.000000 1.000000
tan -0.007874 0.000496 -1.000000 1.000000
tan -0.007874 -0.000310 -1.000000 1.000000
tan -0.007874 0.007564 -1.000000 1.000000
tan -0.007874 0.008370 -1.000000 1.000000
tan -0.015748 -0.000620 -1.000000 1.000000
tan -0.007874 -0.007502 -1.000000 1.000000
tan -0.007874 -0.008122 -1.000000 1.000000
tan -0.007874 -0.007626 -1.000000 1.000000
tan -0.053816 -0.106888 -0.938930 1.000000
tan 0.000000 0.015748 -1.000000 1.000000
tan 0.000000 0.039370 -1.000000 1.000000
tan 0.006510 0.567115 -0.826772 1.000000
tan 0.010664 0.693223 -0.725339 1.000000
tan 0.387191 -0.014508 0.921260 1.000000
tan -0.023622 0.000000 1.000000 1.000000
tan 0.410813 0.014260 0.905512 1.000000
tan -0.015748 0.000000 0.992126 1.000000
tan -0.103106 0.007812 0.992126 1.000000
tan -0.071672 -0.007812 0.992126 1.000000
tan 0.103168 -0.007812 0.992126 1.000000
tan 0.127596 0.015500 0.984252 1.000000
tan 0.110918 -0.007812 0.992126 1.000000
tan 0.079484 0.007812 0.992126 1.000000
tan -0.023622 0.000000 0.992126 1.000000
tan -0.023622 0.000000 0.992126 1.000000
tan -0.701407 -0.000062 0.709281 1.000000
tan -0.717155 -0.000186 0.693533 1.000000
tan 0.004712 0.669663 0.740901 1.000000
tan 0.000000 0.023622 1.000000 1.000000
tan -0.004464 0.678281 0.733957 1.000000
tan -0.015748 0.024490 1.000000 1.000000
tan -0.015748 -0.007130 1.000000 1.000000
tan -0.023622 -0.008990 1.000000 1.000000
tan -0.015748 -0.007130 1.000000 1.000000
tan -0.031496 -0.009858 1.000000 1.000000
tan -0.023622 0.009176 1.000000 1.000000
tan -0.015624 0.006386 0.992126 1.000000
tan -0.015748 -0.000620 1.000000 1.000000
tan -0.015748 0.001240 1.000000 1.000000
tan -0.024242 -0.007874 1.000000 1.000000
tan 0.000000 -0.062992 0.992126 1.000000
tan -0.085932 -0.110546 0.992126 1.000000
tan 0.701469 -0.000062 0.709343 1.000000
tan 0.118110 0.000000 0.984252 1.000000
tan 0.023622 0.000000 0.992126 1.000000
tan -0.087234 -0.007812 0.992126 1.000000
tan -0.118854 0.007812 0.992126 1.000000
tan -0.111724 -0.011532 0.944634 1.000000
tan 0.015748 -0.015376 1.000000 1.000000
tan -0.118730 -0.007812 0.992126 1.000000
tan -0.113274 -0.003162 0.952136 1.000000
tan -0.111042 0.007812 0.992126 1.000000
tan 0.105028 0.007812 0.949160 1.000000
tan 0.087234 0.007812 0.992126 1.000000
tan 0.103106 -0.007812 0.992126 1.000000
tan 0.007874 0.000310 1.000000 1.000000
tan 0.023622 0.000000 1.000000 1.000000
tan 0.015748 0.000000 0.992126 1.000000
tan -0.417199 -0.044578 0.868374 1.000000
tan -0.402939 0.014384 0.913386 1.000000
f 3/3/3 2/2/2 1/1/1
f 4/4/4 1/1/1 2/2/2
f 7/7/7 6/6/6 5/5/5
f 6/6/6 7/7/7 8/8/8
f 7/7/7 9/9/9 8/8/8
f 8/8/8 9/9/9 10/10/10
f 11/11/11 10/10/10 9/9/9
f 10/10/10 11/11/11 12/12/12
f 15/15/15 14/14/14 13/13/13
f 16/16/16 13/13/13 14/14/14
f 16/16/16 17/17/17 13/13/13
f 13/13/13 17/17/17 18/18/18
f 19/19/19 18/18/18 17/17/17
f 18/18/18 19/19/19 20/20/20
f 19/19/19 21/21/21 20/20/20
f 22/22/22 20/20/20 21/21/21
f 23/23/23 22/22/22 21/21/21
f 24/24/24 22/22/22 23/23/23
f 25/25/25 24/24/24 23/23/23
f 25/25/25 26/26/26 24/24/24
f 26/26/26 25/25/25 27/27/27
f 28/28/28 27/27/27 25/25/25
f 29/29/29 27/27/27 28/28/28
f 29/29/29 30/30/30 27/27/27
f 33/33/33 32/32/32 31/31/31
f 34/34/34 32/32/32 33/33/33
f 34/34/34 33/33/33 35/35/35
f 36/36/36 35/35/35 33/33/33
f 35/35/35 36/36/36 37/37/37
f 38/38/38 37/37/37 36/36/36
f 37/37/37 38/38/38 39/39/39
f 40/40/40 39/39/39 38/38/38
f 41/41/41 40/40/40 38/38/38
f 42/42/42 39/39/39 40/40/40
f 41/41/41 43/43/43 40/40/40
f 42/42/42 40/40/40 43/43/43
f 44/44/44 42/42/42 43/43/43
f 45/45/45 44/44/44 43/43/43
f 48/48/48 47/47/47 46/46/46
f 49/49/49 46/46/46 47/47/47
f 49/49/49 47/47/47 50/50/50
f 51/51/51 50/50/50 47/47/47
f 50/50/50 51/51/51 52/52/52
f 52/52/52 51/51/51 53/53/53
f 52/52/52 53/53/53 54/54/54
f 54/54/54 53/53/53 55/55/55
f 54/54/54 55/55/55 56/56/56
f 56/56/56 55/55/55 57/57/57
f 58/58/58 56/56/56 57/57/57
f 59/59/59 56/56/56 58/58/58
f 62/62/62 61/61/61 60/60/60
f 63/63/63 60/60/60 61/61/61
f 63/63/63 61/61/61 64/64/64
f 65/65/65 64/64/64 61/61/61
f 66/66/66 64/64/64 65/65/65
f 66/66/66 65/65/65 67/67/67
f 68/68/68 66/66/66 67/67/67
f 68/68/68 67/67/67 69/69/69
f 69/69/69 70/70/70 68/68/68
f 71/71/71 68/68/68 70/70/70
f 70/70/70 69/69/69 72/72/72
f 71/71/71 70/70/70 73/73/73
f 72/72/72 74/74/74 70/70/70
f 74/74/74 73/73/73 70/70/70
f 77/77/77 76/76/76 75/75/75
f 76/76/76 77/77/77 78/78/78
f 78/78/78 77/77/77 79/79/79
f 81/81/81 76/76/76 80/80/80
f 80/80/80 76/76/76 78/78/78
f 78/78/78 79/79/79 82/82/82
f 78/78/78 82/82/82 80/80/80
f 83/83/83 80/80/80 82/82/82
f 82/82/82 79/79/79 84/84/84
f 83/83/83 82/82/82 85/85/85
f 82/82/82 84/84/84 86/86/86
f 85/85/85 82/82/82 86/86/86
f 86/86/86 84/84/84 87/87/87
f 85/85/85 86/86/86 88/88/88
f 86/86/86 87/87/87 89/89/89
f 88/88/88 86/86/86 89/89/89
f 87/87/87 90/90/90 89/89/89
f 89/89/89 91/91/91 88/88/88
f 89/89/89 90/90/90 92/92/92
f 89/89/89 92/92/92 91/91/91
