mtllib SM_PaperPen_02_LOD1.mtl
g SM_PaperPen_02_LOD1
#Vertices 72
#Indices 126
#Section 0 Offset 0 NumIndices 126 MaterialIndex 0 MI_PaperPen
v -0.000394 0.005560 -0.147727
v 0.000228 0.005384 -0.147501
v 0.000396 0.005999 -0.147690
v -0.000228 0.006174 -0.147502
v -0.000394 0.005560 -0.147727
v 0.000396 0.005999 -0.147690
v 0.001215 0.005779 -0.116910
v 0.000630 0.006873 -0.116916
v 0.000396 0.005999 -0.147690
v -0.001215 0.005779 -0.116910
v -0.000630 0.004686 -0.116916
v -0.000394 0.005560 -0.147727
v 0.000228 0.005384 -0.147501
v 0.001215 0.005779 -0.116910
v 0.000396 0.005999 -0.147690
v 0.000628 0.004694 -0.116914
v -0.000394 0.005560 -0.147727
v -0.000630 0.004686 -0.116916
v 0.000228 0.005384 -0.147501
v 0.000628 0.004694 -0.116914
v -0.000228 0.006174 -0.147502
v -0.001215 0.005779 -0.116910
v -0.000394 0.005560 -0.147727
v -0.000628 0.006864 -0.116914
v 0.000396 0.005999 -0.147690
v 0.000630 0.006873 -0.116916
v -0.000228 0.006174 -0.147502
v -0.000628 0.006864 -0.116914
v -0.003818 -0.000606 0.176544
v -0.002810 0.000888 -0.065906
v -0.007606 0.005779 0.173160
v -0.005613 0.005778 -0.065372
v -0.000630 0.004686 -0.116916
v -0.001215 0.005779 -0.116910
v 0.002871 0.000806 -0.037129
v -0.003818 -0.000606 0.176544
v 0.003818 -0.000605 0.176543
v -0.002810 0.000888 -0.065906
v 0.003001 0.000574 -0.064400
v -0.000630 0.004686 -0.116916
v 0.000628 0.004694 -0.116914
v 0.007606 0.005779 0.173160
v 0.002871 0.000806 -0.037129
v 0.003818 -0.000605 0.176543
v 0.005627 0.005779 -0.065386
v 0.003001 0.000574 -0.064400
v 0.000628 0.004694 -0.116914
v 0.001215 0.005779 -0.116910
v -0.007606 0.005779 0.173160
v -0.003788 0.012114 0.169777
v -0.003818 -0.000606 0.176544
v 0.003788 0.012114 0.169777
v 0.007606 0.005779 0.173160
v 0.003818 -0.000605 0.176543
v -0.007606 0.005779 0.173160
v -0.005613 0.005778 -0.065372
v -0.003788 0.012114 0.169777
v -0.002811 0.010668 -0.065734
v -0.000628 0.006864 -0.116914
v -0.001215 0.005779 -0.116910
v 0.003788 0.012114 0.169777
v 0.005627 0.005779 -0.065386
v 0.007606 0.005779 0.173160
v 0.002841 0.010720 -0.065966
v 0.000630 0.006873 -0.116916
v 0.001215 0.005779 -0.116910
v -0.002811 0.010668 -0.065734
v 0.003788 0.012114 0.169777
v -0.003788 0.012114 0.169777
v 0.002841 0.010720 -0.065966
v 0.000630 0.006873 -0.116916
v -0.000628 0.006864 -0.116914
vt 0.742676 0.663330
vt 0.742188 0.665283
vt 0.740234 0.664795
vt 0.740723 0.662598
vt 0.742676 0.663330
vt 0.740234 0.664795
vt 0.700195 0.588623
vt 0.704590 0.588623
vt 0.703613 0.693359
vt 0.711914 0.588623
vt 0.715820 0.588867
vt 0.708008 0.693604
vt 0.701172 0.692871
vt 0.700195 0.588623
vt 0.703125 0.693359
vt 0.696289 0.588623
vt 0.699219 0.693604
vt 0.692383 0.588867
vt 0.701172 0.692871
vt 0.696777 0.588623
vt 0.705566 0.692871
vt 0.711914 0.588623
vt 0.708008 0.693604
vt 0.708008 0.588623
vt 0.703613 0.693359
vt 0.704102 0.588623
vt 0.705566 0.692871
vt 0.708008 0.588623
vt 0.528320 0.993721
vt 0.544922 0.177734
vt 0.554199 0.982773
vt 0.563477 0.180176
vt 0.587891 0.006836
vt 0.591797 0.007812
vt 0.641602 0.274902
vt 0.682129 0.993111
vt 0.655762 0.993736
vt 0.659668 0.176758
vt 0.642090 0.183105
vt 0.613281 0.006348
vt 0.609375 0.007324
vt 0.630371 0.982773
vt 0.641602 0.274902
vt 0.655762 0.993736
vt 0.621094 0.180664
vt 0.642090 0.182617
vt 0.609375 0.007812
vt 0.604980 0.008301
vt 0.386719 0.910522
vt 0.414307 0.910706
vt 0.370850 0.933411
vt 0.426514 0.933533
vt 0.410889 0.956421
vt 0.383057 0.956421
vt 0.554199 0.982773
vt 0.563965 0.180176
vt 0.579102 0.971588
vt 0.583008 0.179199
vt 0.596191 0.008301
vt 0.592285 0.007812
vt 0.604980 0.971588
vt 0.621094 0.180176
vt 0.630371 0.982773
vt 0.602051 0.178711
vt 0.600586 0.008301
vt 0.604980 0.008301
vt 0.583008 0.179199
vt 0.604980 0.971588
vt 0.579102 0.971588
vt 0.602051 0.178711
vt 0.600586 0.008301
vt 0.596191 0.008301
vt1 0.045441 0.964142
vt1 0.038422 0.991936
vt1 0.011093 0.982910
vt1 0.018173 0.956909
vt1 0.045441 0.964142
vt1 0.013184 0.984749
vt1 0.990723 0.248047
vt1 0.991211 0.287598
vt1 0.003441 0.278809
vt1 0.989746 0.357422
vt1 0.987305 0.396973
vt1 0.001297 0.322266
vt1 0.008881 0.256836
vt1 0.991211 0.250488
vt1 0.003384 0.276855
vt1 0.989746 0.210938
vt1 0.000386 0.237305
vt1 0.987305 0.174316
vt1 0.008881 0.256836
vt1 0.989746 0.214355
vt1 0.009369 0.300781
vt1 0.989746 0.359863
vt1 0.001366 0.320312
vt1 0.990723 0.320801
vt1 0.003416 0.280762
vt1 0.991211 0.284180
vt1 0.009369 0.300781
vt1 0.990723 0.324219
vt1 0.008072 0.016602
vt1 0.821289 0.032715
vt1 0.018997 0.041992
vt1 0.818848 0.051758
vt1 0.991211 0.075684
vt1 0.990234 0.080078
vt1 0.724121 0.129395
vt1 0.008682 0.169434
vt1 0.008064 0.143555
vt1 0.821777 0.147461
vt1 0.815918 0.129883
vt1 0.991699 0.101562
vt1 0.990723 0.097168
vt1 0.018982 0.118164
vt1 0.724121 0.129395
vt1 0.008064 0.143555
vt1 0.818359 0.109375
vt1 0.815918 0.129883
vt1 0.990723 0.097168
vt1 0.990234 0.092773
vt1 0.213989 0.394043
vt1 0.574707 0.396484
vt1 0.008003 0.691895
vt1 0.730957 0.693848
vt1 0.527344 0.991913
vt1 0.165405 0.991936
vt1 0.018997 0.041992
vt1 0.818848 0.051758
vt1 0.030136 0.067383
vt1 0.819336 0.070801
vt1 0.989746 0.083984
vt1 0.990234 0.080078
vt1 0.030136 0.093262
vt1 0.818359 0.108887
vt1 0.018982 0.118164
vt1 0.819824 0.089844
vt1 0.989746 0.088379
vt1 0.989746 0.092773
vt1 0.819336 0.070801
vt1 0.030136 0.093262
vt1 0.030136 0.067383
vt1 0.819824 0.089844
vt1 0.989746 0.088379
vt1 0.989746 0.084473
vn 0.000000 -0.000000 -1.000000
vn 0.000000 -0.000000 -1.000000
vn 0.000000 -0.000000 -1.000000
vn 0.000000 -0.000000 -1.000000
vn 0.000000 -0.000000 -1.000000
vn 0.000000 -0.000000 -1.000000
vn 0.866142 0.496063 -0.031496
vn 0.866142 0.496063 -0.031496
vn 0.866142 0.496063 -0.015748
vn -0.866142 -0.496063 -0.031496
vn -0.866142 -0.496063 -0.031496
vn -0.866142 -0.496063 -0.015748
vn 0.866142 -0.496063 -0.015748
vn 0.866142 -0.496063 -0.031496
vn 0.866142 -0.496063 -0.015748
vn 0.866142 -0.496063 -0.031496
vn 0.000000 -1.000000 -0.015748
vn 0.000000 -1.000000 -0.031496
vn 0.000000 -1.000000 -0.015748
vn 0.000000 -1.000000 -0.031496
vn -0.866142 0.496063 -0.015748
vn -0.866142 0.496063 -0.031496
vn -0.866142 0.496063 -0.015748
vn -0.866142 0.496063 -0.031496
vn 0.000000 1.000000 -0.015748
vn 0.000000 1.000000 -0.031496
vn 0.000000 1.000000 -0.015748
vn 0.000000 1.000000 -0.031496
vn -0.858268 -0.503937 -0.007874
vn -0.866142 -0.503937 -0.015748
vn -0.858268 -0.503937 -0.007874
vn -0.866142 -0.503937 -0.023622
vn -0.866142 -0.496063 -0.070866
vn -0.866142 -0.496063 -0.062992
vn 0.000000 -1.000000 -0.007874
vn 0.000000 -1.000000 -0.007874
vn 0.000000 -1.000000 -0.007874
vn 0.000000 -1.000000 -0.023622
vn 0.000000 -1.000000 -0.055118
vn 0.000000 -1.000000 -0.070866
vn 0.000000 -1.000000 -0.062992
vn 0.858268 -0.503937 -0.007874
vn 0.858268 -0.503937 -0.007874
vn 0.858268 -0.503937 -0.007874
vn 0.866142 -0.503937 -0.023622
vn 0.866142 -0.496063 -0.047244
vn 0.866142 -0.496063 -0.070866
vn 0.866142 -0.496063 -0.062992
vn 0.000000 0.472441 0.881890
vn 0.000000 0.472441 0.881890
vn 0.000000 0.464567 0.881890
vn 0.000000 0.472441 0.881890
vn 0.000000 0.472441 0.881890
vn 0.000000 0.464567 0.881890
vn -0.858268 0.503937 -0.007874
vn -0.866142 0.503937 -0.015748
vn -0.858268 0.503937 -0.007874
vn -0.866142 0.503937 -0.023622
vn -0.866142 0.496063 -0.070866
vn -0.866142 0.496063 -0.062992
vn 0.858268 0.503937 -0.007874
vn 0.866142 0.503937 -0.015748
vn 0.858268 0.503937 -0.007874
vn 0.866142 0.503937 -0.023622
vn 0.866142 0.496063 -0.070866
vn 0.866142 0.496063 -0.062992
vn 0.000000 1.000000 -0.015748
vn 0.000000 1.000000 -0.007874
vn 0.000000 1.000000 -0.007874
vn 0.000000 1.000000 -0.023622
vn 0.000000 1.000000 -0.070866
vn 0.000000 1.000000 -0.062992
tan -0.866142 0.496063 -0.000000 1.000000
tan -0.866142 0.496063 -0.000000 1.000000
tan -0.866142 0.496063 -0.000000 1.000000
tan -0.866142 0.496063 -0.000000 1.000000
tan -0.866142 0.496063 -0.000000 1.000000
tan -0.866142 0.496063 -0.000000 1.000000
tan 0.019778 0.022444 0.897390 1.000000
tan 0.019778 0.022444 0.897390 1.000000
tan 0.004030 0.021328 0.893484 1.000000
tan -0.085932 0.093496 0.890570 1.000000
tan -0.085932 0.093496 0.890570 1.000000
tan -0.070308 0.094488 0.890570 1.000000
tan 0.038936 0.037944 0.946246 1.000000
tan 0.066402 0.059396 0.890570 1.000000
tan 0.066402 0.088536 0.863228 1.000000
tan 0.066402 0.059396 0.890570 1.000000
tan 0.055118 -0.015748 1.000000 1.000000
tan 0.055118 -0.031496 1.000000 1.000000
tan 0.055118 -0.015748 1.000000 1.000000
tan 0.055118 -0.031496 1.000000 1.000000
tan 0.007936 0.043896 0.946246 1.000000
tan 0.003906 0.063364 0.890570 1.000000
tan 0.019530 0.062372 0.890570 1.000000
tan 0.000000 0.056544 0.890570 1.000000
tan 0.007874 0.015748 1.000000 1.000000
tan 0.007874 0.031496 1.000000 1.000000
tan 0.007874 0.015748 1.000000 1.000000
tan 0.007874 0.031496 1.000000 1.000000
tan 0.027714 -0.033232 -0.893980 1.000000
tan 0.083080 -0.114948 -0.891066 1.000000
tan 0.015624 -0.011966 -0.937194 1.000000
tan 0.075020 -0.087358 -0.887098 1.000000
tan 0.278443 -0.371195 -0.804823 1.000000
tan 0.260649 -0.351169 -0.818463 1.000000
tan -0.039370 0.007874 -1.000000 1.000000
tan -0.023622 0.007874 -1.000000 1.000000
tan -0.015748 0.007874 -1.000000 1.000000
tan -0.055118 0.023622 -1.000000 1.000000
tan -0.165354 0.054250 -0.984252 1.000000
tan -0.236220 0.069192 -0.976378 1.000000
tan -0.259843 0.061008 -0.968504 1.000000
tan -0.019592 -0.018724 -0.937194 1.000000
tan -0.019592 -0.018724 -0.937194 1.000000
tan -0.019592 -0.018724 -0.937194 1.000000
tan -0.094860 -0.121644 -0.883130 1.000000
tan -0.101556 -0.092132 -0.894476 1.000000
tan -0.208134 -0.241057 -0.856470 1.000000
tan -0.212350 -0.262013 -0.856470 1.000000
tan -0.750202 0.527745 -0.282721 1.000000
tan -0.750202 0.534689 -0.286441 1.000000
tan -0.646537 0.618017 -0.325563 1.000000
tan -0.750202 0.534689 -0.286441 1.000000
tan -0.750202 0.527745 -0.282721 1.000000
tan -0.749272 0.527745 -0.278009 1.000000
tan -0.000248 -0.015066 -0.937194 1.000000
tan -0.028024 -0.075888 -0.887098 1.000000
tan 0.003720 -0.008308 -0.937194 1.000000
tan -0.012090 -0.062496 -0.889950 1.000000
tan -0.052452 -0.215885 -0.870110 1.000000
tan -0.068386 -0.229029 -0.863290 1.000000
tan 0.000248 -0.015066 -0.937194 1.000000
tan -0.003844 -0.021328 -0.893918 1.000000
tan 0.000248 -0.015066 -0.937194 1.000000
tan 0.000186 -0.042036 -0.889950 1.000000
tan -0.007812 -0.113584 -0.890570 1.000000
tan -0.007812 -0.099448 -0.890570 1.000000
tan -0.007874 -0.015748 -1.000000 1.000000
tan 0.000000 -0.007874 -1.000000 1.000000
tan 0.000000 -0.007874 -1.000000 1.000000
tan -0.007874 -0.023622 -1.000000 1.000000
tan -0.031496 -0.070866 -1.000000 1.000000
tan -0.031496 -0.062992 -1.000000 1.000000
f 3/3/3 2/2/2 1/1/1
f 6/6/6 5/5/5 4/4/4
f 9/9/9 8/8/8 7/7/7
f 12/12/12 11/11/11 10/10/10
f 15/15/15 14/14/14 13/13/13
f 16/16/16 13/13/13 14/14/14
f 19/19/19 18/18/18 17/17/17
f 19/19/19 20/20/20 18/18/18
f 23/23/23 22/22/22 21/21/21
f 24/24/24 21/21/21 22/22/22
f 27/27/27 26/26/26 25/25/25
f 27/27/27 28/28/28 26/26/26
f 31/31/31 30/30/30 29/29/29
f 30/30/30 31/31/31 32/32/32
f 33/33/33 30/30/30 32/32/32
f 33/33/33 32/32/32 34/34/34
f 37/37/37 36/36/36 35/35/35
f 35/35/35 36/36/36 38/38/38
f 35/35/35 38/38/38 39/39/39
f 38/38/38 40/40/40 39/39/39
f 41/41/41 39/39/39 40/40/40
f 44/44/44 43/43/43 42/42/42
f 45/45/45 42/42/42 43/43/43
f 46/46/46 45/45/45 43/43/43
f 46/46/46 47/47/47 45/45/45
f 48/48/48 45/45/45 47/47/47
f 51/51/51 50/50/50 49/49/49
f 51/51/51 52/52/52 50/50/50
f 51/51/51 53/53/53 52/52/52
f 51/51/51 54/54/54 53/53/53
f 57/57/57 56/56/56 55/55/55
f 58/58/58 56/56/56 57/57/57
f 58/58/58 59/59/59 56/56/56
f 60/60/60 56/56/56 59/59/59
f 63/63/63 62/62/62 61/61/61
f 64/64/64 61/61/61 62/62/62
f 65/65/65 64/64/64 62/62/62
f 65/65/65 62/62/62 66/66/66
f 69/69/69 68/68/68 67/67/67
f 67/67/67 68/68/68 70/70/70
f 70/70/70 71/71/71 67/67/67
f 72/72/72 67/67/67 71/71/71
