mtllib SM_Paper_05_LOD3.mtl
g SM_Paper_05_LOD3
#Vertices 6
#Indices 12
#Section 0 Offset 0 NumIndices 12 MaterialIndex 0 MI_Paper_01
v -0.088829 -0.001574 -0.111043
v 0.084288 -0.001574 -0.110654
v -0.093417 -0.001574 -0.054203
v 0.093239 -0.001574 0.110597
v -0.084494 -0.001574 0.053380
v -0.088829 -0.001574 0.111043
vt 0.388428 0.407227
vt 0.681152 0.407715
vt 0.380615 0.502930
vt 0.696289 0.781616
vt 0.395752 0.685059
vt 0.388428 0.782471
vt1 0.025894 0.004395
vt1 0.950684 0.005859
vt1 0.001388 0.258301
vt1 0.998535 0.994038
vt1 0.049072 0.738525
vt1 0.025894 0.996033
vn 0.000000 1.000000 -0.000000
vn 0.000000 1.000000 -0.000000
vn 0.000000 1.000000 -0.000000
vn 0.000000 1.000000 -0.000000
vn 0.000000 1.000000 -0.000000
vn 0.000000 1.000000 -0.000000
tan 0.000000 -0.000000 -1.000000 1.000000
tan 0.000000 -0.000000 -1.000000 1.000000
tan 0.000000 -0.000000 -1.000000 1.000000
tan 0.000000 -0.000000 -1.000000 1.000000
tan 0.000000 -0.000000 -1.000000 1.000000
tan 0.000000 -0.000000 -1.000000 1.000000
f 3/3/3 2/2/2 1/1/1
f 4/4/4 2/2/2 3/3/3
f 4/4/4 3/3/3 5/5/5
f 6/6/6 4/4/4 5/5/5
