mtllib SM_Paper_02_LOD5.mtl
g SM_Paper_02_LOD5
#Vertices 4
#Indices 6
#Section 0 Offset 0 NumIndices 6 MaterialIndex 0 MI_Paper_01
v 0.153596 0.002353 -0.108794
v 0.153806 0.005995 0.108803
v -0.153474 0.003156 -0.108621
v -0.153334 -0.000894 0.108794
vt 0.000037 0.000977
vt 0.367920 0.000488
vt 0.000282 0.522461
vt 0.367920 0.523193
vt1 0.008163 0.009766
vt1 0.991699 0.008789
vt1 0.008812 0.990585
vt1 0.991699 0.991936
vn 0.173228 0.984252 -0.000000
vn 0.141732 0.992126 -0.000000
vn -0.181102 0.984252 -0.000000
vn -0.110236 0.992126 -0.000000
tan 0.984252 -0.173228 0.000000 1.000000
tan 0.992126 -0.141732 0.000000 1.000000
tan 0.984252 0.181102 -0.000000 1.000000
tan 0.992126 0.110236 -0.000000 1.000000
f 3/3/3 2/2/2 1/1/1
f 2/2/2 3/3/3 4/4/4
