mtllib SM_Paper_03_LOD4.mtl
g SM_Paper_03_LOD4
#Vertices 4
#Indices 6
#Section 0 Offset 0 NumIndices 6 MaterialIndex 0 MI_Paper_01
v 0.088610 -0.001311 -0.069918
v -0.085428 -0.001943 0.074286
v -0.086994 -0.003588 -0.084060
v 0.089496 -0.003856 0.083101
vt 0.300293 0.611084
vt 0.005692 0.854492
vt 0.003353 0.586670
vt 0.301514 0.869873
vt1 0.993164 0.198730
vt1 0.022720 0.820435
vt1 0.015015 0.136719
vt1 0.997070 0.859497
vn 0.000000 1.000000 -0.000000
vn 0.000000 1.000000 0.007874
vn 0.000000 1.000000 -0.000000
vn 0.000000 1.000000 0.007874
tan 0.000000 -0.000000 -1.000000 1.000000
tan 0.000000 0.007874 -1.000000 1.000000
tan 0.000000 -0.000000 -1.000000 1.000000
tan 0.000000 0.007874 -1.000000 1.000000
f 3/3/3 2/2/2 1/1/1
f 4/4/4 1/1/1 2/2/2
