mtllib SM_Paper_01_LOD1.mtl
g SM_Paper_01_LOD1
#Vertices 11
#Indices 15
#Section 0 Offset 0 NumIndices 15 MaterialIndex 0 MI_Paper_01
v 0.084928 0.004108 0.014064
v -0.095789 0.001300 0.038687
v -0.094557 0.003071 0.003159
v 0.084436 0.003557 -0.035977
v -0.094557 0.003071 0.003159
v -0.094361 0.002250 -0.037565
v 0.084928 0.004108 0.014064
v 0.084632 0.001184 -0.076429
v -0.094361 0.002250 -0.037565
v -0.094166 -0.000123 -0.078017
v 0.084436 0.003557 -0.035977
vt 0.861816 0.387207
vt 0.905762 0.692139
vt 0.845703 0.690674
vt 0.776855 0.388672
vt 0.845703 0.690674
vt 0.776855 0.690918
vt 0.861816 0.387207
vt 0.708496 0.388672
vt 0.776855 0.690918
vt 0.708496 0.691162
vt 0.776855 0.388672
vt1 0.570312 0.001465
vt1 0.734375 0.999391
vt1 0.511719 0.994202
vt1 0.257568 0.006348
vt1 0.511719 0.994202
vt1 0.257324 0.995094
vt1 0.570312 0.001465
vt1 0.004272 0.007324
vt1 0.257324 0.995094
vt1 0.003967 0.996033
vt1 0.257568 0.006348
vn -0.007874 1.000000 0.055118
vn -0.007874 0.984252 0.196850
vn -0.007874 1.000000 0.007874
vn -0.007874 0.992126 -0.110236
vn -0.007874 1.000000 0.007874
vn -0.007874 0.992126 -0.110236
vn -0.007874 1.000000 0.039370
vn -0.007874 0.984252 -0.165354
vn -0.007874 0.992126 -0.110236
vn -0.007874 0.984252 -0.165354
vn -0.007874 0.992126 -0.110236
tan 1.000000 0.007440 0.007874 1.000000
tan 0.984252 0.006324 0.007750 1.000000
tan 1.000000 0.007812 0.007874 1.000000
tan 0.992126 0.008742 0.007812 1.000000
tan 1.000000 0.007812 0.007874 1.000000
tan 0.992126 0.008742 0.007812 1.000000
tan 1.000000 0.007564 0.007874 1.000000
tan 0.985554 0.009176 0.007688 1.000000
tan 0.992126 0.008742 0.007812 1.000000
tan 0.985554 0.009176 0.007688 1.000000
tan 0.992126 0.008742 0.007812 1.000000
f 3/3/3 2/2/2 1/1/1
f 6/6/6 5/5/5 4/4/4
f 7/7/7 4/4/4 5/5/5
f 10/10/10 9/9/9 8/8/8
f 11/11/11 8/8/8 9/9/9
