mtllib SM_Paper_06_LOD5.mtl
g SM_Paper_06_LOD5
#Vertices 4
#Indices 6
#Section 0 Offset 0 NumIndices 6 MaterialIndex 0 MI_Paper_01
v -0.075958 0.001441 -0.082335
v 0.096549 0.000245 -0.088855
v 0.074275 0.000119 0.021167
v -0.071258 0.000210 0.022542
vt 0.392578 0.345215
vt 0.381592 0.053223
vt 0.567871 0.091309
vt 0.569824 0.337402
vt1 0.038513 0.871826
vt1 0.002750 0.136230
vt1 0.611816 0.231445
vt1 0.619141 0.852173
vn 0.023622 1.000000 0.007874
vn -0.015748 1.000000 -0.000000
vn -0.007874 1.000000 0.007874
vn 0.023622 1.000000 0.007874
tan 1.000000 -0.023622 0.000000 1.000000
tan 1.000000 0.015748 -0.000000 1.000000
tan 1.000000 0.007874 -0.000000 1.000000
tan 1.000000 -0.023622 0.000000 1.000000
f 3/3/3 2/2/2 1/1/1
f 4/4/4 3/3/3 1/1/1
