mtllib SM_Paper_06_LOD4.mtl
g SM_Paper_06_LOD4
#Vertices 8
#Indices 12
#Section 0 Offset 0 NumIndices 12 MaterialIndex 0 MI_Paper_01
v -0.075958 0.001441 -0.082335
v 0.096549 0.000245 -0.088855
v 0.091212 0.000280 -0.003618
v -0.072704 0.000204 -0.000605
v -0.072704 0.000204 -0.000605
v 0.091212 0.000280 -0.003618
v 0.080210 -0.000541 0.069351
v -0.083927 0.002319 0.067133
vt 0.392578 0.345215
vt 0.381592 0.053223
vt 0.525879 0.062500
vt 0.530762 0.339844
vt 0.530762 0.339844
vt 0.525879 0.062500
vt 0.649414 0.081055
vt 0.645020 0.358887
vt1 0.038513 0.871826
vt1 0.002750 0.136230
vt1 0.474854 0.159180
vt1 0.490967 0.858276
vt1 0.490967 0.858276
vt1 0.474854 0.159180
vt1 0.879395 0.206543
vt1 0.866211 0.906311
vn 0.023622 1.000000 0.007874
vn -0.015748 1.000000 -0.000000
vn -0.015748 1.000000 -0.000000
vn 0.023622 1.000000 0.007874
vn 0.015748 1.000000 0.007874
vn -0.015748 1.000000 0.007874
vn -0.031496 1.000000 -0.000000
vn 0.015748 1.000000 0.007874
tan 1.000000 -0.023622 0.000000 1.000000
tan 1.000000 0.015748 -0.000000 1.000000
tan 1.000000 0.015748 -0.000000 1.000000
tan 1.000000 -0.023622 0.000000 1.000000
tan 1.000000 -0.015748 0.000000 1.000000
tan 1.000000 0.015748 -0.000000 1.000000
tan 1.000000 0.031496 -0.000000 1.000000
tan 1.000000 -0.015748 0.000000 1.000000
f 3/3/3 2/2/2 1/1/1
f 4/4/4 3/3/3 1/1/1
f 7/7/7 6/6/6 5/5/5
f 8/8/8 7/7/7 5/5/5
