mtllib SM_Paper_06_LOD2.mtl
g SM_Paper_06_LOD2
#Vertices 32
#Indices 42
#Section 0 Offset 0 NumIndices 42 MaterialIndex 0 MI_Paper_01
v -0.069648 0.000339 -0.013362
v -0.070516 0.000012 0.013361
v -0.099217 0.020206 0.000501
v 0.096549 0.000245 -0.088855
v 0.093511 0.000480 0.007771
v 0.083374 0.000000 -0.014747
v -0.089055 0.009950 -0.086125
v -0.069648 0.000339 -0.013362
v -0.099217 0.020206 0.000501
v -0.051503 0.000000 -0.088887
v -0.069648 0.000339 -0.013362
v -0.089055 0.009950 -0.086125
v -0.072739 -0.000204 0.059423
v 0.085137 0.000217 0.059476
v 0.075360 0.000000 0.088643
v -0.092529 0.005999 0.081648
v -0.069648 0.000339 -0.013362
v 0.083374 0.000000 -0.014747
v 0.093511 0.000480 0.007771
v -0.070516 0.000012 0.013361
v -0.051503 0.000000 -0.088887
v 0.096549 0.000245 -0.088855
v 0.083374 0.000000 -0.014747
v -0.069648 0.000339 -0.013362
v -0.070516 0.000012 0.013361
v -0.072739 -0.000204 0.059423
v -0.099217 0.020206 0.000501
v -0.092529 0.005999 0.081648
v -0.070516 0.000012 0.013361
v 0.093511 0.000480 0.007771
v 0.085137 0.000217 0.059476
v -0.072739 -0.000204 0.059423
vt 0.509766 0.334961
vt 0.554199 0.336426
vt 0.532227 0.395020
vt 0.381592 0.053223
vt 0.544922 0.058594
vt 0.506836 0.075684
vt 0.385986 0.369629
vt 0.509277 0.335449
vt 0.532227 0.395020
vt 0.381592 0.303711
vt 0.509277 0.333984
vt 0.385986 0.369141
vt 0.632324 0.339844
vt 0.632324 0.072754
vt 0.681641 0.089355
vt 0.669922 0.373535
vt 0.509277 0.334473
vt 0.506836 0.075684
vt 0.544922 0.058594
vt 0.554199 0.335938
vt 0.381592 0.303711
vt 0.381592 0.053223
vt 0.506836 0.075684
vt 0.509277 0.334473
vt 0.554688 0.336914
vt 0.632324 0.339844
vt 0.532227 0.395020
vt 0.669434 0.373047
vt 0.554199 0.335938
vt 0.544922 0.058594
vt 0.632324 0.072754
vt 0.632324 0.339844
vt1 0.423096 0.845947
vt1 0.568359 0.850098
vt1 0.495605 0.998067
vt1 0.002703 0.136230
vt1 0.538086 0.148926
vt1 0.413330 0.192383
vt1 0.016830 0.933472
vt1 0.420898 0.847046
vt1 0.495605 0.998043
vt1 0.002274 0.767456
vt1 0.420654 0.844116
vt1 0.016800 0.932800
vt1 0.823242 0.858521
vt1 0.824219 0.185547
vt1 0.985840 0.227051
vt1 0.946289 0.942963
vt1 0.420410 0.845093
vt1 0.413330 0.192383
vt1 0.538086 0.149414
vt1 0.568359 0.848999
vt1 0.002274 0.767456
vt1 0.002750 0.136230
vt1 0.413330 0.192383
vt1 0.420410 0.845093
vt1 0.570312 0.850708
vt1 0.823730 0.858765
vt1 0.495605 0.998028
vt1 0.945801 0.942535
vt1 0.568359 0.848999
vt1 0.538086 0.149414
vt1 0.824219 0.185547
vt1 0.823242 0.858521
vn 0.425197 0.905512 0.015748
vn 0.464567 0.881890 0.015748
vn 0.700787 0.708661 0.007874
vn -0.047244 1.000000 -0.000000
vn -0.062992 1.000000 -0.007874
vn -0.007874 1.000000 0.007874
vn 0.582677 0.811023 0.007874
vn 0.409449 0.913386 0.015748
vn 0.700787 0.708661 0.007874
vn 0.023622 1.000000 0.007874
vn 0.173228 0.984252 0.015748
vn 0.433071 0.905512 0.031496
vn 0.015748 1.000000 0.007874
vn -0.031496 1.000000 -0.000000
vn -0.031496 1.000000 -0.007874
vn 0.023622 1.000000 0.007874
vn 0.023622 1.000000 0.007874
vn -0.007874 1.000000 0.007874
vn -0.015748 1.000000 -0.000000
vn 0.015748 1.000000 0.007874
vn 0.023622 1.000000 0.007874
vn -0.015748 1.000000 -0.000000
vn -0.007874 1.000000 0.007874
vn 0.023622 1.000000 0.007874
vn 0.488189 0.874016 0.015748
vn 0.456693 0.889764 0.015748
vn 0.692913 0.716535 0.007874
vn 0.598425 0.803149 0.015748
vn 0.015748 1.000000 0.007874
vn -0.023622 1.000000 -0.000000
vn -0.031496 1.000000 -0.000000
vn 0.015748 1.000000 0.007874
tan 0.905512 -0.425197 0.000000 1.000000
tan 0.881890 -0.464567 0.000000 1.000000
tan 0.708661 -0.700787 0.000000 1.000000
tan 1.000000 0.047244 -0.000000 1.000000
tan 1.000000 0.062992 -0.000000 1.000000
tan 1.000000 0.007874 -0.000000 1.000000
tan 0.811024 -0.582677 0.000000 1.000000
tan 0.913386 -0.409449 0.000000 1.000000
tan 0.708661 -0.700787 0.000000 1.000000
tan 1.000000 -0.023622 0.000000 1.000000
tan 0.984252 -0.173228 0.000000 1.000000
tan 0.905512 -0.433071 0.000000 1.000000
tan 1.000000 -0.015748 0.000000 1.000000
tan 1.000000 0.031496 -0.000000 1.000000
tan 1.000000 0.031496 -0.000000 1.000000
tan 1.000000 -0.023622 0.000000 1.000000
tan 1.000000 -0.023622 0.000000 1.000000
tan 1.000000 0.007874 -0.000000 1.000000
tan 1.000000 0.015748 -0.000000 1.000000
tan 1.000000 -0.015748 0.000000 1.000000
tan 1.000000 -0.023622 0.000000 1.000000
tan 1.000000 0.015748 -0.000000 1.000000
tan 1.000000 0.007874 -0.000000 1.000000
tan 1.000000 -0.023622 0.000000 1.000000
tan 0.874016 -0.488189 0.000000 1.000000
tan 0.889764 -0.456693 0.000000 1.000000
tan 0.716535 -0.692913 0.000000 1.000000
tan 0.803150 -0.598425 0.000000 1.000000
tan 1.000000 -0.015748 0.000000 1.000000
tan 1.000000 0.023622 -0.000000 1.000000
tan 1.000000 0.031496 -0.000000 1.000000
tan 1.000000 -0.015748 0.000000 1.000000
f 3/3/3 2/2/2 1/1/1
f 6/6/6 5/5/5 4/4/4
f 9/9/9 8/8/8 7/7/7
f 12/12/12 11/11/11 10/10/10
f 15/15/15 14/14/14 13/13/13
f 16/16/16 15/15/15 13/13/13
f 19/19/19 18/18/18 17/17/17
f 20/20/20 19/19/19 17/17/17
f 23/23/23 22/22/22 21/21/21
f 24/24/24 23/23/23 21/21/21
f 27/27/27 26/26/26 25/25/25
f 28/28/28 26/26/26 27/27/27
f 31/31/31 30/30/30 29/29/29
f 32/32/32 31/31/31 29/29/29
