mtllib SM_Pillow_LOD3.mtl
g SM_Pillow_LOD3
#Vertices 130
#Indices 474
#Section 0 Offset 0 NumIndices 474 MaterialIndex 0 MI_Pillow_01
v 0.259531 -0.004003 -0.292086
v 0.242833 0.007104 -0.263516
v 0.246871 0.002396 -0.293442
v 0.220578 0.015752 -0.088752
v 0.219541 -0.000753 -0.001822
v 0.219138 0.013435 0.077511
v 0.233883 0.009220 0.184987
v 0.262165 -0.006523 -0.293786
v 0.243427 -0.004360 0.179634
v 0.217085 -0.005821 0.022661
v 0.247493 -0.012344 -0.289469
v 0.242359 -0.007206 0.179244
v 0.221667 -0.017026 -0.051981
v 0.218903 -0.021656 0.066526
v 0.236005 -0.014573 0.186977
v -0.222613 -0.016511 0.057527
v -0.257623 -0.008807 0.290418
v -0.248152 -0.013614 0.290190
v -0.228518 -0.007444 0.051771
v -0.232731 -0.016049 -0.160012
v -0.238786 -0.006955 -0.155316
v -0.258905 -0.003830 0.292430
v -0.229798 -0.006467 -0.155495
v -0.245228 0.004206 0.265406
v -0.246586 0.004009 0.295640
v -0.224047 0.009457 0.049368
v -0.232488 0.011149 -0.158818
v -0.257623 -0.008807 0.290418
v -0.245074 -0.011744 0.297699
v -0.248152 -0.013614 0.290190
v -0.258905 -0.003830 0.292430
v -0.241394 -0.004480 0.303456
v -0.246586 0.004009 0.295640
v -0.063881 0.012275 0.295579
v 0.080793 0.009357 0.294339
v 0.079583 -0.006954 0.304945
v -0.015751 -0.020761 0.295846
v 0.142827 -0.014256 0.296809
v 0.251307 -0.001023 0.303016
v 0.207063 0.011772 0.290357
v 0.252824 0.002685 0.290688
v 0.258431 -0.008578 0.298286
v 0.234143 -0.016917 0.293912
v 0.252045 -0.012466 0.286310
v 0.236005 -0.014573 0.186977
v 0.242359 -0.007206 0.179244
v 0.243427 -0.004360 0.179634
v 0.233883 0.009220 0.184987
v 0.262165 -0.006523 -0.293786
v 0.227030 -0.015517 -0.296078
v 0.247493 -0.012344 -0.289469
v 0.171493 -0.007576 -0.306540
v -0.035564 -0.018437 -0.293148
v 0.186273 -0.004165 -0.304912
v 0.259531 -0.004003 -0.292086
v 0.246871 0.002396 -0.293442
v 0.068893 0.010222 -0.298357
v -0.160283 -0.006983 -0.302776
v -0.235068 -0.014722 -0.292550
v -0.255412 -0.012491 -0.291029
v -0.033531 -0.002813 -0.303521
v -0.081494 0.007758 -0.289042
v -0.235922 0.006701 -0.291742
v -0.254536 -0.003558 -0.294487
v -0.254285 0.006304 -0.286210
v -0.260361 -0.008078 -0.282474
v -0.232731 -0.016049 -0.160012
v -0.238786 -0.006955 -0.155316
v -0.261541 -0.003042 -0.281916
v -0.232488 0.011149 -0.158818
v -0.229798 -0.006467 -0.155495
v -0.063881 0.012275 0.295579
v 0.207063 0.011772 0.290357
v 0.080793 0.009357 0.294339
v -0.010510 0.063622 0.250260
v -0.166111 0.049735 0.251173
v -0.246586 0.004009 0.295640
v -0.245228 0.004206 0.265406
v 0.186501 0.048488 0.243992
v 0.252824 0.002685 0.290688
v 0.233883 0.009220 0.184987
v 0.219138 0.013435 0.077511
v -0.178209 0.067866 0.066257
v -0.224047 0.009457 0.049368
v 0.163663 0.076590 0.087569
v 0.220578 0.015752 -0.088752
v -0.169496 0.072346 -0.106983
v -0.232488 0.011149 -0.158818
v -0.111137 0.088551 0.107433
v -0.181644 0.048257 -0.232609
v -0.254285 0.006304 -0.286210
v -0.235922 0.006701 -0.291742
v -0.056019 0.094265 -0.120310
v 0.031572 0.097778 0.092182
v -0.043347 0.054166 -0.255526
v -0.081494 0.007758 -0.289042
v 0.068893 0.010222 -0.298357
v 0.092737 0.086185 -0.137181
v 0.183694 0.046615 -0.233678
v 0.246871 0.002396 -0.293442
v 0.242833 0.007104 -0.263516
v 0.171057 0.069197 -0.085945
v 0.234143 -0.016917 0.293912
v -0.015751 -0.020761 0.295846
v 0.142827 -0.014256 0.296809
v -0.005728 -0.070095 0.234861
v 0.204296 -0.040748 0.253406
v 0.252045 -0.012466 0.286310
v 0.236005 -0.014573 0.186977
v -0.151191 -0.048313 0.256803
v -0.245074 -0.011744 0.297699
v -0.248152 -0.013614 0.290190
v 0.008149 -0.097764 0.125693
v 0.165814 -0.073859 0.060962
v 0.218903 -0.021656 0.066526
v -0.132026 -0.079959 0.119603
v 0.157451 -0.079601 -0.125072
v 0.221667 -0.017026 -0.051981
v 0.247493 -0.012344 -0.289469
v -0.107326 -0.092473 -0.120992
v -0.182486 -0.062082 0.001104
v -0.222613 -0.016511 0.057527
v -0.232731 -0.016049 -0.160012
v -0.199428 -0.038969 -0.236812
v -0.255412 -0.012491 -0.291029
v -0.235068 -0.014722 -0.292550
v -0.044245 -0.058452 -0.243230
v -0.035564 -0.018437 -0.293148
v 0.163957 -0.045130 -0.247424
v 0.227030 -0.015517 -0.296078
vt 0.716797 0.776733
vt 0.683594 0.766479
vt 0.719727 0.766479
vt 0.471680 0.765259
vt 0.373047 0.781494
vt 0.281982 0.770752
vt 0.151245 0.772217
vt 0.720703 0.781250
vt 0.155151 0.785645
vt 0.343506 0.789307
vt 0.712402 0.792480
vt 0.157593 0.792725
vt 0.430908 0.796143
vt 0.295410 0.804688
vt 0.153687 0.798828
vt 0.702148 0.827026
vt 0.993164 0.819092
vt 0.992188 0.824707
vt 0.695312 0.818237
vt 0.440918 0.826294
vt 0.446533 0.817749
vt 0.997070 0.810913
vt 0.444580 0.815186
vt 0.959961 0.802368
vt 1.003906 0.804321
vt 0.692871 0.801147
vt 0.442139 0.800415
vt 0.308838 0.706055
vt 0.323730 0.711670
vt 0.308838 0.709473
vt 0.308594 0.698486
vt 0.328369 0.697266
vt 0.316650 0.689941
vt 0.508789 0.687256
vt 0.649902 0.692871
vt 0.648438 0.714355
vt 0.553223 0.725830
vt 0.709473 0.725830
vt 0.818359 0.708740
vt 0.777344 0.692383
vt 0.828613 0.703613
vt 0.822266 0.719727
vt 0.802734 0.725830
vt 0.832520 0.726318
vt 0.993164 0.728271
vt 0.996094 0.718506
vt 0.996094 0.710938
vt 0.991211 0.695801
vt 0.002413 0.749512
vt 0.038910 0.760864
vt 0.009239 0.757812
vt 0.093323 0.750244
vt 0.298584 0.765259
vt 0.078918 0.743164
vt 0.004318 0.742676
vt 0.015587 0.737549
vt 0.195679 0.731201
vt 0.422363 0.751953
vt 0.498291 0.761597
vt 0.521973 0.758423
vt 0.296143 0.742920
vt 0.343018 0.731445
vt 0.501953 0.734131
vt 0.519043 0.745850
vt 0.528809 0.735840
vt 0.537109 0.753540
vt 0.719727 0.764526
vt 0.725098 0.752686
vt 0.538574 0.744629
vt 0.720215 0.729736
vt 0.727539 0.745117
vt 0.191650 0.684570
vt 0.449707 0.667725
vt 0.331055 0.687988
vt 0.243164 0.606934
vt 0.098999 0.609619
vt 0.015457 0.671631
vt 0.005001 0.631592
vt 0.424072 0.603760
vt 0.500000 0.667480
vt 0.500488 0.547852
vt 0.494873 0.431152
vt 0.085205 0.414062
vt 0.005089 0.398438
vt 0.404297 0.437500
vt 0.492920 0.249512
vt 0.097778 0.232422
vt 0.009674 0.171387
vt 0.152344 0.455566
vt 0.086609 0.097656
vt 0.009636 0.031250
vt 0.029449 0.022949
vt 0.203979 0.221680
vt 0.282227 0.439941
vt 0.216064 0.073730
vt 0.177124 0.004883
vt 0.322510 0.004883
vt 0.339111 0.204102
vt 0.425781 0.098145
vt 0.493408 0.021484
vt 0.495850 0.059570
vt 0.415527 0.255859
vt 0.529297 0.661865
vt 0.768066 0.671387
vt 0.615234 0.674805
vt 0.757812 0.585693
vt 0.560059 0.609375
vt 0.507324 0.651611
vt 0.510254 0.540283
vt 0.895996 0.611328
vt 0.989258 0.667480
vt 0.996094 0.651367
vt 0.744629 0.467773
vt 0.596191 0.402344
vt 0.518555 0.409668
vt 0.875000 0.462891
vt 0.606445 0.206543
vt 0.513672 0.279785
vt 0.509766 0.023438
vt 0.849609 0.211426
vt 0.931152 0.338379
vt 0.994141 0.398926
vt 0.993164 0.162598
vt 0.940918 0.082520
vt 0.998047 0.019043
vt 0.976074 0.016113
vt 0.791992 0.076660
vt 0.784180 0.004883
vt 0.595703 0.072266
vt 0.533691 0.013672
vt1 0.457764 0.219727
vt1 0.431396 0.208496
vt1 0.460449 0.208496
vt1 0.263184 0.207520
vt1 0.184814 0.224609
vt1 0.112427 0.213379
vt1 0.008545 0.214844
vt1 0.460938 0.224609
vt1 0.011581 0.229004
vt1 0.161255 0.232910
vt1 0.454346 0.236328
vt1 0.013504 0.236816
vt1 0.230713 0.240234
vt1 0.123169 0.249512
vt1 0.010460 0.243164
vt1 0.674316 0.250488
vt1 0.897461 0.241699
vt1 0.896973 0.247559
vt1 0.669434 0.240723
vt1 0.474365 0.249512
vt1 0.478760 0.240234
vt1 0.900391 0.232422
vt1 0.477295 0.237305
vt1 0.872070 0.223145
vt1 0.906250 0.225098
vt1 0.667480 0.221680
vt1 0.475342 0.220703
vt1 0.332764 0.356445
vt1 0.345947 0.362305
vt1 0.332764 0.359863
vt1 0.332520 0.349121
vt1 0.349854 0.348145
vt1 0.339600 0.340820
vt1 0.506836 0.338379
vt1 0.629395 0.343750
vt1 0.628418 0.364746
vt1 0.545410 0.375977
vt1 0.681152 0.376465
vt1 0.776367 0.359375
vt1 0.740234 0.343262
vt1 0.784668 0.354004
vt1 0.779785 0.370117
vt1 0.762207 0.375977
vt1 0.788574 0.376465
vt1 0.927734 0.378418
vt1 0.930664 0.369141
vt1 0.930176 0.361328
vt1 0.926270 0.346680
vt1 0.010139 0.299805
vt1 0.041534 0.311035
vt1 0.016006 0.308105
vt1 0.088318 0.300781
vt1 0.264893 0.315430
vt1 0.075928 0.293457
vt1 0.011772 0.292969
vt1 0.021454 0.288086
vt1 0.176270 0.281738
vt1 0.371338 0.302246
vt1 0.436279 0.312012
vt1 0.456787 0.308594
vt1 0.262695 0.293457
vt1 0.302979 0.281738
vt1 0.439697 0.284668
vt1 0.454346 0.296387
vt1 0.462891 0.286621
vt1 0.470215 0.304199
vt1 0.626953 0.314941
vt1 0.631348 0.303223
vt1 0.470947 0.294922
vt1 0.626953 0.280273
vt1 0.633301 0.295410
vt1 0.193115 0.988777
vt1 0.442383 0.974182
vt1 0.327637 0.991768
vt1 0.242798 0.920898
vt1 0.103638 0.923218
vt1 0.022980 0.977432
vt1 0.012886 0.942444
vt1 0.417480 0.918091
vt1 0.490967 0.973846
vt1 0.491455 0.869385
vt1 0.485840 0.767334
vt1 0.090332 0.752319
vt1 0.012970 0.738525
vt1 0.398438 0.772949
vt1 0.483887 0.608643
vt1 0.102478 0.593506
vt1 0.017395 0.540283
vt1 0.155151 0.788574
vt1 0.091675 0.476074
vt1 0.017365 0.417969
vt1 0.036469 0.410645
vt1 0.204956 0.583984
vt1 0.280518 0.774902
vt1 0.216675 0.455078
vt1 0.178955 0.394531
vt1 0.319336 0.395020
vt1 0.335449 0.568604
vt1 0.419189 0.476074
vt1 0.484375 0.409180
vt1 0.486816 0.442383
vt1 0.409180 0.614014
vt1 0.531738 0.978546
vt1 0.762695 0.986916
vt1 0.614746 0.989998
vt1 0.752441 0.912109
vt1 0.561035 0.932922
vt1 0.510254 0.969757
vt1 0.513184 0.872559
vt1 0.885742 0.934631
vt1 0.976074 0.983582
vt1 0.982422 0.969498
vt1 0.739746 0.809082
vt1 0.596191 0.751953
vt1 0.521484 0.758057
vt1 0.865723 0.804688
vt1 0.606445 0.580811
vt1 0.516602 0.644775
vt1 0.513184 0.420898
vt1 0.841309 0.585205
vt1 0.920410 0.695801
vt1 0.980957 0.748779
vt1 0.979980 0.542480
vt1 0.929688 0.472656
vt1 0.984375 0.417480
vt1 0.963379 0.415039
vt1 0.785645 0.467773
vt1 0.777832 0.404785
vt1 0.596191 0.463867
vt1 0.535645 0.412598
vn 0.740157 0.669291 0.078740
vn 0.645669 0.763779 -0.000000
vn 0.362205 0.897638 -0.267717
vn 0.850394 0.519685 0.086614
vn 0.929134 0.362205 0.023622
vn 0.858268 0.503937 -0.078740
vn 0.771654 0.629921 -0.078740
vn 0.716535 -0.685039 0.133858
vn 0.913386 0.385827 -0.118110
vn 0.866142 -0.496063 0.015748
vn 0.559055 -0.826772 0.039370
vn 0.653543 -0.748031 -0.110236
vn 0.874016 -0.480315 0.047244
vn 0.850394 -0.519685 -0.070866
vn 0.692913 -0.708661 -0.094488
vn -0.811024 -0.582677 -0.062992
vn -0.629921 -0.771653 -0.078740
vn -0.464567 -0.881890 0.047244
vn -0.763780 -0.645669 -0.039370
vn -0.771654 -0.637795 0.070866
vn -0.748031 -0.661417 0.086614
vn -0.850394 0.519685 -0.062992
vn -0.881890 0.472441 0.047244
vn -0.724409 0.685039 -0.078740
vn -0.299213 0.842520 0.448819
vn -0.881890 0.464567 -0.023622
vn -0.842520 0.535433 0.086614
vn -0.645669 -0.755905 0.078740
vn -0.015748 -0.779527 0.622047
vn -0.330709 -0.921260 0.212599
vn -0.881890 0.433071 0.188976
vn -0.007874 0.724409 0.685039
vn -0.188976 0.771653 0.606299
vn 0.031496 0.535433 0.842520
vn -0.015748 0.511811 0.858268
vn -0.007874 -0.771653 0.629921
vn -0.015748 -0.582677 0.811024
vn 0.031496 -0.661417 0.748031
vn 0.055118 0.653543 0.755905
vn 0.078740 0.700787 0.708661
vn 0.519685 0.850394 0.055118
vn 0.314961 -0.881890 0.346457
vn 0.055118 -0.826771 0.566929
vn 0.417323 -0.905512 0.055118
vn 0.708661 -0.700787 -0.094488
vn 0.732283 -0.677165 -0.110236
vn 0.921260 0.377953 -0.125984
vn 0.771654 0.629921 -0.062992
vn 0.377953 -0.488189 -0.787401
vn 0.078740 -0.818898 -0.566929
vn 0.291339 -0.929134 -0.228346
vn 0.000000 -0.661417 -0.748031
vn -0.015748 -0.700787 -0.708661
vn 0.031496 0.811023 -0.582677
vn 0.314961 0.811023 -0.488189
vn 0.173228 0.834646 -0.527559
vn -0.031496 0.551181 -0.834646
vn -0.015748 -0.803150 -0.598425
vn -0.078740 -0.732283 -0.677165
vn -0.275591 -0.905512 -0.330709
vn 0.023622 0.748031 -0.669291
vn 0.023622 0.582677 -0.811024
vn -0.118110 0.692913 -0.708661
vn -0.220472 0.456693 -0.858268
vn -0.606299 0.787401 -0.094488
vn -0.637795 -0.755905 0.133858
vn -0.732283 -0.677165 0.070866
vn -0.748031 -0.661417 0.086614
vn -0.803150 0.574803 0.125984
vn -0.826772 0.559055 0.086614
vn -0.913386 0.393701 0.118110
vn -0.007874 0.433071 0.897638
vn 0.078740 0.700787 0.708661
vn -0.007874 0.543307 0.834646
vn 0.000000 0.913386 0.409449
vn -0.228346 0.929134 0.291338
vn -0.149606 0.740157 0.653543
vn -0.669291 0.740157 -0.015748
vn 0.291339 0.929134 0.236220
vn 0.511811 0.842520 0.181102
vn 0.771654 0.629921 -0.070866
vn 0.889764 0.448819 -0.086614
vn -0.527559 0.850394 0.031496
vn -0.897638 0.433071 -0.015748
vn 0.362205 0.929134 0.055118
vn 0.897638 0.433071 0.070866
vn -0.401575 0.913386 -0.062992
vn -0.811024 0.574803 0.070866
vn -0.173228 0.984252 0.086614
vn -0.267717 0.921260 -0.275591
vn -0.551181 0.834646 -0.094488
vn -0.102362 0.755905 -0.645669
vn -0.070866 0.992126 -0.110236
vn 0.047244 1.000000 0.070866
vn -0.055118 0.858268 -0.503937
vn 0.023622 0.566929 -0.826772
vn -0.007874 0.582677 -0.818898
vn 0.141732 0.984252 -0.125984
vn 0.244094 0.921260 -0.307087
vn 0.188976 0.850394 -0.488189
vn 0.692913 0.724409 0.015748
vn 0.433071 0.897638 -0.039370
vn 0.133858 -0.779527 0.606299
vn -0.015748 -0.527559 0.850394
vn 0.015748 -0.606299 0.795276
vn -0.031496 -0.929134 0.370079
vn 0.322835 -0.921260 0.220473
vn 0.456693 -0.889764 0.015748
vn 0.740157 -0.669291 -0.062992
vn -0.165354 -0.929134 0.322835
vn -0.047244 -0.771653 0.629921
vn -0.464567 -0.881890 0.102362
vn 0.007874 -0.992126 0.102362
vn 0.377953 -0.921260 0.039370
vn 0.874016 -0.480315 -0.023622
vn -0.251969 -0.960630 0.094488
vn 0.267717 -0.960630 -0.102362
vn 0.889764 -0.456693 0.070866
vn 0.496063 -0.866142 -0.055118
vn -0.157480 -0.984252 -0.102362
vn -0.574803 -0.818897 0.000000
vn -0.834646 -0.543307 -0.023622
vn -0.763780 -0.645669 0.062992
vn -0.314961 -0.921260 -0.212598
vn -0.488189 -0.874016 0.023622
vn -0.102362 -0.874016 -0.480315
vn -0.039370 -0.897638 -0.440945
vn -0.047244 -0.653543 -0.755905
vn 0.165354 -0.937008 -0.299212
vn 0.102362 -0.881890 -0.456693
tan -0.669291 0.740157 -0.000000 1.000000
tan -0.763780 0.645669 -0.040238 1.000000
tan -0.897638 0.355881 -0.021204 1.000000
tan -0.519003 0.850394 -0.006696 1.000000
tan -0.362019 0.929134 -0.007316 1.000000
tan -0.503317 0.858888 0.010726 1.000000
tan -0.629921 0.772893 0.009920 1.000000
tan 0.685039 0.717589 0.005394 1.000000
tan -0.385827 0.913386 -0.000000 1.000000
tan 0.496063 0.866142 -0.000000 1.000000
tan 0.826772 0.559365 0.006510 1.000000
tan 0.748031 0.657015 -0.023560 1.000000
tan 0.480687 0.874016 -0.006882 1.000000
tan 0.519127 0.850952 -0.010788 1.000000
tan 0.708661 0.695889 -0.022320 1.000000
tan -0.582677 0.811520 -0.004588 1.000000
tan -0.771654 0.630541 -0.006076 1.000000
tan -0.881890 0.467915 0.062496 1.000000
tan -0.645669 0.763779 -0.000000 1.000000
tan -0.637795 0.771653 -0.000000 1.000000
tan -0.662099 0.752123 0.025358 1.000000
tan 0.519685 0.850394 -0.000000 1.000000
tan 0.472441 0.881890 -0.000000 1.000000
tan 0.685039 0.724409 -0.000000 1.000000
tan 0.763346 0.462955 -0.360159 1.000000
tan 0.464567 0.881890 -0.000000 1.000000
tan 0.535433 0.842520 -0.000000 1.000000
tan -0.755906 0.646909 0.011904 1.000000
tan -0.018414 0.622419 0.779527 1.000000
tan -0.739909 0.391159 0.544051 1.000000
tan 0.433071 0.878914 0.006820 1.000000
tan -0.005704 0.684977 -0.724409 1.000000
tan 0.121520 0.626511 -0.759501 1.000000
tan -0.017484 0.842768 -0.534937 1.000000
tan -0.013516 0.858268 -0.512059 1.000000
tan 0.000000 0.629921 0.771653 1.000000
tan -0.006386 0.811024 0.582553 1.000000
tan -0.005890 0.748031 0.661665 1.000000
tan 0.000000 0.755905 -0.653543 1.000000
tan -0.011036 0.709901 -0.700787 1.000000
tan -0.843698 0.523405 -0.120528 1.000000
tan 0.472193 0.460537 0.743009 1.000000
tan 0.026040 0.568665 0.826771 1.000000
tan 0.884122 0.419183 0.192510 1.000000
tan 0.700787 0.710893 -0.016554 1.000000
tan 0.677165 0.734887 -0.015996 1.000000
tan -0.376961 0.921260 0.007254 1.000000
tan -0.629425 0.772645 0.015996 1.000000
tan 0.060016 0.822865 -0.481369 1.000000
tan 0.051584 0.571889 -0.818898 1.000000
tan 0.585281 0.361523 -0.724285 1.000000
tan 0.000000 0.748031 -0.661417 1.000000
tan 0.000000 0.708661 -0.700787 1.000000
tan 0.000000 0.582677 0.811023 1.000000
tan -0.306529 0.572633 0.753549 1.000000
tan -0.118296 0.547957 0.828074 1.000000
tan 0.004340 0.834894 0.551181 1.000000
tan 0.000000 0.598425 -0.803150 1.000000
tan -0.017298 0.679025 -0.732283 1.000000
tan -0.563271 0.429227 -0.705871 1.000000
tan 0.000000 0.669291 0.748031 1.000000
tan 0.000000 0.811024 0.582677 1.000000
tan 0.027404 0.712381 0.691983 1.000000
tan 0.013516 0.858268 0.453221 1.000000
tan 0.781202 0.612685 0.093000 1.000000
tan -0.755906 0.640957 0.017856 1.000000
tan -0.677165 0.732283 -0.000000 1.000000
tan -0.660053 0.753487 0.053444 1.000000
tan 0.574803 0.803149 -0.000000 1.000000
tan 0.558373 0.827454 -0.010912 1.000000
tan 0.393701 0.913386 -0.000000 1.000000
tan -0.007068 0.897638 -0.433133 1.000000
tan 0.016678 0.708041 -0.702027 1.000000
tan 0.013144 0.834646 -0.543183 1.000000
tan 0.000000 0.409449 -0.913386 1.000000
tan 0.000000 0.291338 -0.929134 1.000000
tan 0.000682 0.654721 -0.741336 1.000000
tan 0.616901 0.545911 -0.560481 1.000000
tan -0.104284 0.266476 -0.919524 1.000000
tan -0.542563 0.468783 -0.647529 1.000000
tan -0.242730 0.195858 -0.902102 1.000000
tan -0.159464 0.148490 -0.868684 1.000000
tan 0.052576 0.064728 -0.867010 1.000000
tan 0.046438 0.064108 -0.883998 1.000000
tan -0.051212 0.075082 -0.929134 1.000000
tan 0.141360 -0.150660 -0.869862 1.000000
tan -0.043648 -0.081964 -0.910224 1.000000
tan -0.294997 -0.316759 -0.806807 1.000000
tan 0.007750 0.087978 -0.984252 1.000000
tan -0.005084 -0.277699 -0.923368 1.000000
tan -0.547585 -0.435241 -0.650381 1.000000
tan 0.011036 -0.644863 -0.756711 1.000000
tan -0.015624 -0.111352 -0.992126 1.000000
tan -0.007874 0.071238 -1.000000 1.000000
tan -0.006758 -0.504371 -0.858268 1.000000
tan 0.006510 -0.826772 -0.566743 1.000000
tan 0.000000 -0.818898 -0.582677 1.000000
tan 0.015500 -0.128216 -0.984252 1.000000
tan 0.000000 -0.307087 -0.921260 1.000000
tan 0.029636 -0.495629 -0.851882 1.000000
tan 0.619753 -0.581809 -0.505921 1.000000
tan 0.035340 -0.056420 -0.897638 1.000000
tan -0.001364 -0.607353 -0.780581 1.000000
tan 0.000000 -0.850394 -0.527559 1.000000
tan 0.012524 -0.795276 -0.606547 1.000000
tan 0.007316 -0.370327 -0.929134 1.000000
tan -0.065286 -0.243351 -0.921260 1.000000
tan -0.203298 -0.119660 -0.865150 1.000000
tan 0.312419 0.425197 -0.846798 1.000000
tan 0.000000 -0.322835 -0.929134 1.000000
tan 0.006076 -0.630293 -0.771653 1.000000
tan 0.207514 -0.208878 -0.857772 1.000000
tan -0.007812 -0.102424 -0.992126 1.000000
tan -0.043524 -0.057226 -0.921260 1.000000
tan -0.080166 -0.103044 -0.870916 1.000000
tan 0.022692 -0.100440 -0.960630 1.000000
tan 0.030256 0.110794 -0.960630 1.000000
tan 0.180110 0.216628 -0.865336 1.000000
tan 0.292393 0.220038 -0.826214 1.000000
tan -0.031000 0.107322 -0.984252 1.000000
tan 0.083824 -0.058838 -0.844132 1.000000
tan 0.083328 -0.091078 -0.849464 1.000000
tan -0.453345 0.465745 -0.722921 1.000000
tan -0.010044 0.220038 -0.938620 1.000000
tan -0.481555 0.249364 -0.725649 1.000000
tan 0.006882 0.479509 -0.874016 1.000000
tan 0.000000 0.440945 -0.897638 1.000000
tan 0.000000 0.755905 -0.653543 1.000000
tan 0.000000 0.299212 -0.937008 1.000000
tan -0.006944 0.455887 -0.881890 1.000000
f 3/3/3 2/2/2 1/1/1
f 2/2/2 4/4/4 1/1/1
f 5/5/5 1/1/1 4/4/4
f 6/6/6 5/5/5 4/4/4
f 7/7/7 5/5/5 6/6/6
f 5/5/5 8/8/8 1/1/1
f 5/5/5 7/7/7 9/9/9
f 5/5/5 10/10/10 8/8/8
f 5/5/5 9/9/9 10/10/10
f 10/10/10 11/11/11 8/8/8
f 12/12/12 10/10/10 9/9/9
f 11/11/11 10/10/10 13/13/13
f 10/10/10 12/12/12 13/13/13
f 14/14/14 13/13/13 12/12/12
f 12/12/12 15/15/15 14/14/14
f 18/18/18 17/17/17 16/16/16
f 19/19/19 16/16/16 17/17/17
f 16/16/16 19/19/19 20/20/20
f 20/20/20 19/19/19 21/21/21
f 17/17/17 22/22/22 19/19/19
f 21/21/21 19/19/19 23/23/23
f 19/19/19 22/22/22 23/23/23
f 22/22/22 25/25/25 24/24/24
f 24/24/24 23/23/23 22/22/22
f 23/23/23 24/24/24 26/26/26
f 27/27/27 23/23/23 26/26/26
f 30/30/30 29/29/29 28/28/28
f 29/29/29 31/31/31 28/28/28
f 29/29/29 32/32/32 31/31/31
f 32/32/32 33/33/33 31/31/31
f 33/33/33 32/32/32 34/34/34
f 34/34/34 32/32/32 35/35/35
f 32/32/32 29/29/29 36/36/36
f 29/29/29 37/37/37 36/36/36
f 38/38/38 36/36/36 37/37/37
f 39/39/39 35/35/35 32/32/32
f 32/32/32 36/36/36 39/39/39
f 40/40/40 35/35/35 39/39/39
f 41/41/41 40/40/40 39/39/39
f 36/36/36 38/38/38 42/42/42
f 39/39/39 36/36/36 42/42/42
f 39/39/39 42/42/42 41/41/41
f 43/43/43 42/42/42 38/38/38
f 44/44/44 42/42/42 43/43/43
f 42/42/42 44/44/44 45/45/45
f 45/45/45 46/46/46 42/42/42
f 42/42/42 46/46/46 47/47/47
f 47/47/47 41/41/41 42/42/42
f 47/47/47 48/48/48 41/41/41
f 51/51/51 50/50/50 49/49/49
f 50/50/50 52/52/52 49/49/49
f 52/52/52 50/50/50 53/53/53
f 52/52/52 54/54/54 49/49/49
f 55/55/55 49/49/49 54/54/54
f 56/56/56 55/55/55 54/54/54
f 56/56/56 54/54/54 57/57/57
f 53/53/53 58/58/58 52/52/52
f 54/54/54 52/52/52 58/58/58
f 59/59/59 58/58/58 53/53/53
f 58/58/58 59/59/59 60/60/60
f 61/61/61 57/57/57 54/54/54
f 58/58/58 61/61/61 54/54/54
f 61/61/61 62/62/62 57/57/57
f 61/61/61 63/63/63 62/62/62
f 58/58/58 64/64/64 61/61/61
f 63/63/63 61/61/61 64/64/64
f 64/64/64 58/58/58 60/60/60
f 65/65/65 63/63/63 64/64/64
f 60/60/60 66/66/66 64/64/64
f 66/66/66 60/60/60 67/67/67
f 67/67/67 68/68/68 66/66/66
f 69/69/69 65/65/65 64/64/64
f 66/66/66 69/69/69 64/64/64
f 66/66/66 68/68/68 69/69/69
f 65/65/65 69/69/69 70/70/70
f 71/71/71 69/69/69 68/68/68
f 71/71/71 70/70/70 69/69/69
f 74/74/74 73/73/73 72/72/72
f 72/72/72 73/73/73 75/75/75
f 76/76/76 72/72/72 75/75/75
f 76/76/76 77/77/77 72/72/72
f 76/76/76 78/78/78 77/77/77
f 79/79/79 75/75/75 73/73/73
f 73/73/73 80/80/80 79/79/79
f 79/79/79 80/80/80 81/81/81
f 79/79/79 81/81/81 82/82/82
f 76/76/76 83/83/83 78/78/78
f 84/84/84 78/78/78 83/83/83
f 85/85/85 79/79/79 82/82/82
f 82/82/82 86/86/86 85/85/85
f 83/83/83 87/87/87 84/84/84
f 88/88/88 84/84/84 87/87/87
f 83/83/83 76/76/76 89/89/89
f 83/83/83 89/89/89 87/87/87
f 76/76/76 75/75/75 89/89/89
f 87/87/87 90/90/90 88/88/88
f 91/91/91 88/88/88 90/90/90
f 92/92/92 91/91/91 90/90/90
f 89/89/89 93/93/93 87/87/87
f 87/87/87 93/93/93 90/90/90
f 94/94/94 89/89/89 75/75/75
f 89/89/89 94/94/94 93/93/93
f 75/75/75 79/79/79 94/94/94
f 94/94/94 79/79/79 85/85/85
f 90/90/90 95/95/95 92/92/92
f 95/95/95 90/90/90 93/93/93
f 96/96/96 92/92/92 95/95/95
f 97/97/97 96/96/96 95/95/95
f 98/98/98 93/93/93 94/94/94
f 93/93/93 98/98/98 95/95/95
f 94/94/94 85/85/85 98/98/98
f 99/99/99 97/97/97 95/95/95
f 98/98/98 99/99/99 95/95/95
f 97/97/97 99/99/99 100/100/100
f 101/101/101 100/100/100 99/99/99
f 85/85/85 102/102/102 98/98/98
f 98/98/98 102/102/102 99/99/99
f 99/99/99 102/102/102 101/101/101
f 102/102/102 85/85/85 86/86/86
f 86/86/86 101/101/101 102/102/102
f 105/105/105 104/104/104 103/103/103
f 103/103/103 104/104/104 106/106/106
f 103/103/103 106/106/106 107/107/107
f 108/108/108 103/103/103 107/107/107
f 109/109/109 108/108/108 107/107/107
f 104/104/104 110/110/110 106/106/106
f 104/104/104 111/111/111 110/110/110
f 112/112/112 110/110/110 111/111/111
f 106/106/106 113/113/113 107/107/107
f 106/106/106 110/110/110 113/113/113
f 109/109/109 107/107/107 114/114/114
f 114/114/114 107/107/107 113/113/113
f 114/114/114 115/115/115 109/109/109
f 116/116/116 113/113/113 110/110/110
f 110/110/110 112/112/112 116/116/116
f 114/114/114 117/117/117 115/115/115
f 117/117/117 114/114/114 113/113/113
f 118/118/118 115/115/115 117/117/117
f 119/119/119 118/118/118 117/117/117
f 116/116/116 120/120/120 113/113/113
f 113/113/113 120/120/120 117/117/117
f 121/121/121 116/116/116 112/112/112
f 120/120/120 116/116/116 121/121/121
f 112/112/112 122/122/122 121/121/121
f 123/123/123 121/121/121 122/122/122
f 121/121/121 123/123/123 124/124/124
f 121/121/121 124/124/124 120/120/120
f 125/125/125 124/124/124 123/123/123
f 125/125/125 126/126/126 124/124/124
f 127/127/127 120/120/120 124/124/124
f 124/124/124 126/126/126 127/127/127
f 117/117/117 120/120/120 127/127/127
f 126/126/126 128/128/128 127/127/127
f 127/127/127 129/129/129 117/117/117
f 129/129/129 127/127/127 128/128/128
f 117/117/117 129/129/129 119/119/119
f 128/128/128 130/130/130 129/129/129
f 119/119/119 129/129/129 130/130/130
