mtllib SM_PaperPen_0q_LOD1.mtl
g SM_PaperPen_0q_LOD1
#Vertices 68
#Indices 126
#Section 0 Offset 0 NumIndices 126 MaterialIndex 0 MI_PaperPen
v 0.001308 0.005779 -0.130097
v 0.000682 0.007837 -0.130146
v 0.000337 0.007032 -0.149207
v -0.000682 0.003722 -0.130146
v 0.000701 0.003696 -0.130152
v -0.000648 0.004902 -0.149195
v -0.001308 0.005779 -0.130097
v -0.000682 0.003722 -0.130146
v -0.000648 0.004902 -0.149195
v 0.000682 0.007837 -0.130146
v -0.000701 0.007863 -0.130151
v 0.000337 0.007032 -0.149207
v -0.000648 0.004902 -0.149195
v 0.001308 0.005779 -0.130097
v 0.000337 0.007032 -0.149207
v 0.000701 0.003696 -0.130152
v 0.000337 0.007032 -0.149207
v -0.001308 0.005779 -0.130097
v -0.000648 0.004902 -0.149195
v -0.000701 0.007863 -0.130151
v -0.003586 -0.003106 -0.084837
v -0.011761 0.005779 0.034554
v -0.005918 -0.004116 0.036476
v -0.007017 0.005795 -0.096060
v -0.003479 -0.003496 -0.101326
v -0.000682 0.003722 -0.130146
v -0.001308 0.005779 -0.130097
v 0.003586 -0.003106 -0.084837
v -0.005918 -0.004116 0.036476
v 0.005917 -0.004115 0.036475
v -0.003586 -0.003106 -0.084837
v 0.003516 -0.003581 -0.101227
v -0.003479 -0.003496 -0.101326
v 0.000701 0.003696 -0.130152
v -0.000682 0.003722 -0.130146
v 0.011761 0.005779 0.034554
v 0.003586 -0.003106 -0.084837
v 0.005917 -0.004115 0.036475
v 0.007105 0.005793 -0.094260
v 0.003516 -0.003581 -0.101227
v 0.000701 0.003696 -0.130152
v 0.001308 0.005779 -0.130097
v -0.003389 0.014776 -0.099012
v 0.005843 0.015632 0.032634
v -0.005843 0.015632 0.032634
v 0.003373 0.014746 -0.100537
v -0.002552 0.012784 -0.107912
v -0.000701 0.007863 -0.130151
v 0.000682 0.007837 -0.130146
v -0.011761 0.005779 0.034554
v -0.005843 0.015632 0.032634
v -0.005918 -0.004116 0.036476
v 0.005843 0.015632 0.032634
v 0.011761 0.005779 0.034554
v 0.005917 -0.004115 0.036475
v 0.005843 0.015632 0.032634
v 0.007105 0.005793 -0.094260
v 0.011761 0.005779 0.034554
v 0.003373 0.014746 -0.100537
v 0.000682 0.007837 -0.130146
v 0.001308 0.005779 -0.130097
v -0.007017 0.005795 -0.096060
v -0.005843 0.015632 0.032634
v -0.011761 0.005779 0.034554
v -0.003389 0.014776 -0.099012
v -0.002552 0.012784 -0.107912
v -0.000701 0.007863 -0.130151
v -0.001308 0.005779 -0.130097
vt 0.736816 0.586670
vt 0.744141 0.586426
vt 0.745605 0.651367
vt 0.726074 0.588135
vt 0.730469 0.587402
vt 0.736328 0.652100
vt 0.754883 0.586914
vt 0.761719 0.587891
vt 0.750000 0.651855
vt 0.743652 0.586426
vt 0.748047 0.586426
vt 0.743652 0.651367
vt 0.737793 0.652100
vt 0.737305 0.586670
vt 0.744141 0.651367
vt 0.729980 0.587402
vt 0.742676 0.651367
vt 0.754883 0.586914
vt 0.750977 0.652100
vt 0.747559 0.586426
vt 0.740723 0.153320
vt 0.759277 0.562744
vt 0.719727 0.567139
vt 0.774902 0.118652
vt 0.746582 0.095703
vt 0.793945 0.002930
vt 0.800781 0.004883
vt 0.716309 0.150391
vt 0.719727 0.567139
vt 0.679199 0.564209
vt 0.740723 0.153320
vt 0.725098 0.087891
vt 0.746582 0.096191
vt 0.789551 0.000000
vt 0.793457 0.002930
vt 0.878418 0.562744
vt 0.896973 0.152344
vt 0.917969 0.567139
vt 0.863770 0.122559
vt 0.891113 0.088867
vt 0.827148 0.000000
vt 0.820801 0.003418
vt 0.807617 0.109863
vt 0.838867 0.556885
vt 0.798828 0.556885
vt 0.830078 0.104980
vt 0.808105 0.083008
vt 0.808594 0.006348
vt 0.813477 0.006348
vt 0.499756 0.885742
vt 0.459961 0.885742
vt 0.519043 0.851196
vt 0.439697 0.851440
vt 0.458984 0.816772
vt 0.498779 0.816406
vt 0.838867 0.556885
vt 0.863770 0.122559
vt 0.878418 0.562744
vt 0.830078 0.104980
vt 0.813477 0.006348
vt 0.820312 0.003418
vt 0.774414 0.118164
vt 0.798828 0.556885
vt 0.759277 0.562744
vt 0.807617 0.110352
vt 0.808105 0.083008
vt 0.808594 0.006348
vt 0.801270 0.004883
vt1 0.413330 0.103027
vt1 0.411377 0.161133
vt1 0.928711 0.172852
vt1 0.424561 0.015137
vt1 0.418945 0.051270
vt1 0.935547 0.099121
vt1 0.416016 0.244629
vt1 0.424561 0.302246
vt1 0.933594 0.208496
vt1 0.411377 0.155762
vt1 0.412109 0.192871
vt1 0.928711 0.155762
vt1 0.934082 0.109863
vt1 0.413330 0.104492
vt1 0.929688 0.158691
vt1 0.419678 0.045898
vt1 0.928711 0.150391
vt1 0.416260 0.245605
vt1 0.934082 0.212891
vt1 0.411865 0.187012
vt1 0.114380 0.273926
vt1 0.146729 0.984421
vt1 0.078064 0.991943
vt1 0.173828 0.213379
vt1 0.124695 0.173828
vt1 0.206787 0.012695
vt1 0.219116 0.016602
vt1 0.071960 0.269043
vt1 0.078064 0.991943
vt1 0.008064 0.986809
vt1 0.114380 0.273926
vt1 0.087341 0.160156
vt1 0.124695 0.174805
vt1 0.199585 0.007812
vt1 0.206299 0.012695
vt1 0.353271 0.984314
vt1 0.385742 0.271973
vt1 0.421875 0.991898
vt1 0.328369 0.220703
vt1 0.375244 0.162109
vt1 0.264648 0.007324
vt1 0.253174 0.013672
vt1 0.230591 0.198730
vt1 0.284912 0.974136
vt1 0.215332 0.974213
vt1 0.269531 0.189941
vt1 0.231567 0.151367
vt1 0.232422 0.019531
vt1 0.240723 0.018555
vt1 0.427246 0.434570
vt1 0.427490 0.750366
vt1 0.702637 0.279297
vt1 0.700684 0.911316
vt1 0.977051 0.758179
vt1 0.979492 0.442383
vt1 0.284912 0.974136
vt1 0.327881 0.220703
vt1 0.353271 0.984314
vt1 0.269531 0.189941
vt1 0.241211 0.018555
vt1 0.252930 0.014160
vt1 0.173462 0.212891
vt1 0.215332 0.974213
vt1 0.146729 0.984421
vt1 0.230835 0.199219
vt1 0.231567 0.151367
vt1 0.232056 0.019043
vt1 0.219360 0.016602
vn 0.952756 0.299213 -0.062992
vn 0.952756 0.299213 -0.070866
vn 0.952756 0.299213 -0.039370
vn 0.000000 -0.992126 -0.102362
vn 0.000000 -0.992126 -0.102362
vn 0.000000 -1.000000 -0.062992
vn -0.952756 -0.299213 -0.062992
vn -0.952756 -0.299213 -0.070866
vn -0.952756 -0.299213 -0.039370
vn 0.000000 0.992126 -0.102362
vn 0.000000 0.992126 -0.102362
vn 0.000000 1.000000 -0.062992
vn 0.952756 -0.299213 -0.039370
vn 0.952756 -0.299213 -0.062992
vn 0.952756 -0.299213 -0.039370
vn 0.952756 -0.299213 -0.070866
vn -0.952756 0.299213 -0.039370
vn -0.952756 0.299213 -0.062992
vn -0.952756 0.299213 -0.039370
vn -0.952756 0.299213 -0.070866
vn -0.897638 -0.440945 -0.023622
vn -0.889764 -0.448819 -0.023622
vn -0.889764 -0.448819 -0.023622
vn -0.913386 -0.409449 -0.055118
vn -0.929134 -0.346457 -0.141732
vn -0.929134 -0.330709 -0.149606
vn -0.937008 -0.322835 -0.141732
vn 0.000000 -1.000000 0.000000
vn 0.000000 -1.000000 -0.007874
vn 0.000000 -1.000000 -0.007874
vn 0.000000 -1.000000 0.000000
vn 0.000000 -0.992126 -0.149606
vn 0.000000 -0.984252 -0.157480
vn 0.000000 -0.976378 -0.212598
vn 0.000000 -0.976378 -0.196850
vn 0.889764 -0.448819 -0.023622
vn 0.897638 -0.440945 -0.023622
vn 0.889764 -0.448819 -0.023622
vn 0.905512 -0.409449 -0.055118
vn 0.929134 -0.346457 -0.141732
vn 0.929134 -0.330709 -0.149606
vn 0.937008 -0.322835 -0.141732
vn 0.000000 1.000000 -0.007874
vn 0.000000 1.000000 -0.007874
vn 0.000000 1.000000 -0.007874
vn 0.000000 1.000000 -0.055118
vn 0.000000 0.960630 -0.283465
vn 0.000000 0.976378 -0.212599
vn 0.000000 0.976378 -0.196850
vn 0.000000 0.188976 0.984252
vn 0.000000 0.188976 0.984252
vn 0.000000 0.188976 0.984252
vn 0.000000 0.188976 0.984252
vn 0.000000 0.188976 0.984252
vn 0.000000 0.188976 0.984252
vn 0.889764 0.448819 -0.031496
vn 0.905512 0.425197 -0.039370
vn 0.889764 0.448819 -0.031496
vn 0.913386 0.409449 -0.062992
vn 0.929134 0.330709 -0.149606
vn 0.937008 0.322835 -0.141732
vn -0.905512 0.425197 -0.039370
vn -0.889764 0.448819 -0.031496
vn -0.889764 0.448819 -0.031496
vn -0.913386 0.417323 -0.039370
vn -0.921260 0.330709 -0.212598
vn -0.929134 0.330709 -0.149606
vn -0.937008 0.322835 -0.141732
tan 0.041788 0.067518 0.952756 1.000000
tan 0.049662 0.067518 0.952756 1.000000
tan 0.018166 0.067518 0.952756 1.000000
tan 0.156240 -0.100750 0.976502 1.000000
tan 0.156240 -0.100750 0.976502 1.000000
tan 0.157480 -0.062000 0.984252 1.000000
tan -0.107260 0.142538 0.945254 1.000000
tan -0.115072 0.142538 0.945254 1.000000
tan -0.085870 0.150040 0.937752 1.000000
tan 0.015624 0.102362 0.992126 1.000000
tan 0.015624 0.102362 0.992126 1.000000
tan 0.015748 0.062992 1.000000 1.000000
tan 0.069688 0.097526 0.945254 1.000000
tan 0.093124 0.097526 0.945254 1.000000
tan 0.074400 0.112530 0.945254 1.000000
tan 0.100936 0.097526 0.945254 1.000000
tan 0.000992 0.127534 0.945254 1.000000
tan -0.027156 0.112530 0.945254 1.000000
tan -0.006076 0.105338 0.947610 1.000000
tan -0.034968 0.112530 0.945254 1.000000
tan 0.082274 -0.117366 -0.935582 1.000000
tan 0.069192 -0.088102 -0.932296 1.000000
tan 0.065844 -0.083328 -0.896894 1.000000
tan 0.134416 -0.178932 -0.898258 1.000000
tan 0.212040 -0.196416 -0.909914 1.000000
tan 0.250728 -0.306095 -0.880526 1.000000
tan 0.247194 -0.330895 -0.880526 1.000000
tan 0.157480 -0.000000 -0.984252 1.000000
tan 0.070866 0.007874 -1.000000 1.000000
tan 0.086614 0.007812 -0.992126 1.000000
tan 0.094488 -0.000000 -0.992126 1.000000
tan 0.343729 0.140182 -0.929630 1.000000
tan 0.255751 0.152520 -0.953252 1.000000
tan 0.515097 0.180792 -0.830306 1.000000
tan 0.484345 0.170500 -0.845682 1.000000
tan -0.069192 -0.088102 -0.932296 1.000000
tan -0.089218 -0.131502 -0.935582 1.000000
tan -0.058776 -0.067084 -0.939302 1.000000
tan -0.147312 -0.205902 -0.890570 1.000000
tan -0.238700 -0.276893 -0.887966 1.000000
tan -0.296237 -0.467047 -0.807365 1.000000
tan -0.296237 -0.515345 -0.784611 1.000000
tan 0.015748 -0.007874 -1.000000 1.000000
tan 0.000000 -0.007874 -1.000000 1.000000
tan 0.007874 -0.007874 -1.000000 1.000000
tan 0.015748 -0.055118 -1.000000 1.000000
tan 0.060512 -0.283465 -0.960630 1.000000
tan 0.076880 -0.212599 -0.976378 1.000000
tan 0.069192 -0.196850 -0.976378 1.000000
tan 0.838490 -0.519251 0.099696 1.000000
tan 0.838490 -0.519251 0.099696 1.000000
tan 0.829252 -0.534751 0.102672 1.000000
tan 0.838490 -0.519251 0.099696 1.000000
tan 0.838490 -0.519251 0.099696 1.000000
tan 0.838490 -0.519251 0.099696 1.000000
tan -0.006510 -0.053010 -0.939302 1.000000
tan 0.014508 -0.115010 -0.908426 1.000000
tan -0.020646 -0.024986 -0.939302 1.000000
tan 0.022320 -0.187984 -0.898258 1.000000
tan -0.003844 -0.374295 -0.851261 1.000000
tan 0.017670 -0.421663 -0.843635 1.000000
tan 0.002542 -0.079360 -0.915556 1.000000
tan 0.010044 -0.046004 -0.939302 1.000000
tan 0.020646 -0.024986 -0.939302 1.000000
tan -0.010230 -0.108500 -0.912766 1.000000
tan 0.166656 -0.138384 -0.937442 1.000000
tan 0.067952 -0.220659 -0.909790 1.000000
tan 0.053382 -0.244591 -0.910038 1.000000
f 3/3/3 2/2/2 1/1/1
f 6/6/6 5/5/5 4/4/4
f 9/9/9 8/8/8 7/7/7
f 12/12/12 11/11/11 10/10/10
f 15/15/15 14/14/14 13/13/13
f 16/16/16 13/13/13 14/14/14
f 19/19/19 18/18/18 17/17/17
f 20/20/20 17/17/17 18/18/18
f 23/23/23 22/22/22 21/21/21
f 21/21/21 22/22/22 24/24/24
f 25/25/25 21/21/21 24/24/24
f 26/26/26 25/25/25 24/24/24
f 26/26/26 24/24/24 27/27/27
f 30/30/30 29/29/29 28/28/28
f 28/28/28 29/29/29 31/31/31
f 28/28/28 31/31/31 32/32/32
f 32/32/32 31/31/31 33/33/33
f 34/34/34 32/32/32 33/33/33
f 34/34/34 33/33/33 35/35/35
f 38/38/38 37/37/37 36/36/36
f 39/39/39 36/36/36 37/37/37
f 39/39/39 37/37/37 40/40/40
f 40/40/40 41/41/41 39/39/39
f 42/42/42 39/39/39 41/41/41
f 45/45/45 44/44/44 43/43/43
f 43/43/43 44/44/44 46/46/46
f 47/47/47 43/43/43 46/46/46
f 48/48/48 47/47/47 46/46/46
f 48/48/48 46/46/46 49/49/49
f 52/52/52 51/51/51 50/50/50
f 52/52/52 53/53/53 51/51/51
f 52/52/52 54/54/54 53/53/53
f 52/52/52 55/55/55 54/54/54
f 58/58/58 57/57/57 56/56/56
f 59/59/59 56/56/56 57/57/57
f 60/60/60 59/59/59 57/57/57
f 60/60/60 57/57/57 61/61/61
f 64/64/64 63/63/63 62/62/62
f 65/65/65 62/62/62 63/63/63
f 65/65/65 66/66/66 62/62/62
f 66/66/66 67/67/67 62/62/62
f 68/68/68 62/62/62 67/67/67
