mtllib SM_PaperPen_01.mtl
g SM_PaperPen_01
#Vertices 120
#Indices 252
#Section 0 Offset 0 NumIndices 252 MaterialIndex 0 MI_PaperPen
v -0.001609 0.004261 -0.146674
v -0.000472 0.004261 -0.146674
v -0.001040 0.005245 -0.146675
v -0.002177 0.005245 -0.146675
v -0.001609 0.004261 -0.146674
v -0.001040 0.005245 -0.146675
v -0.000472 0.006230 -0.146675
v -0.001609 0.006230 -0.146675
v -0.001040 0.005245 -0.146675
v 0.000096 0.005245 -0.146674
v -0.000472 0.006230 -0.146675
v -0.001040 0.005245 -0.146675
v -0.001609 0.006230 -0.146675
v -0.002177 0.005245 -0.146675
v -0.001040 0.005245 -0.146675
v -0.000472 0.004261 -0.146674
v 0.000096 0.005245 -0.146674
v 0.000096 0.005245 -0.146674
v 0.001649 0.005245 -0.122424
v -0.000472 0.006230 -0.146675
v 0.000304 0.007574 -0.122424
v -0.000472 0.004261 -0.146674
v 0.001649 0.005245 -0.122424
v 0.000096 0.005245 -0.146674
v 0.000304 0.002917 -0.122424
v -0.001609 0.004261 -0.146674
v -0.002385 0.002917 -0.122424
v -0.000472 0.004261 -0.146674
v 0.000304 0.002917 -0.122424
v -0.002177 0.005245 -0.146675
v -0.003729 0.005245 -0.122424
v -0.001609 0.004261 -0.146674
v -0.002385 0.002917 -0.122424
v -0.001609 0.006230 -0.146675
v -0.003729 0.005245 -0.122424
v -0.002177 0.005245 -0.146675
v -0.002385 0.007574 -0.122424
v -0.000472 0.006230 -0.146675
v 0.000304 0.007574 -0.122424
v -0.001609 0.006230 -0.146675
v -0.002385 0.007574 -0.122424
v -0.002385 0.002917 -0.122424
v -0.003729 0.005245 -0.122424
v -0.004444 0.005245 -0.120866
v -0.002742 0.002298 -0.120866
v -0.010683 0.005245 -0.091420
v -0.005862 -0.003106 -0.091420
v -0.014702 0.005245 -0.080340
v -0.007871 -0.006586 -0.080340
v -0.006977 -0.005037 -0.059214
v -0.012914 0.005245 -0.059214
v -0.012914 0.005245 0.107420
v -0.006977 -0.004682 0.110101
v 0.000304 0.007574 -0.122424
v 0.001649 0.005245 -0.122424
v 0.002363 0.005245 -0.120866
v 0.000662 0.008193 -0.120866
v 0.008603 0.005245 -0.091420
v 0.003781 0.013597 -0.091420
v 0.012621 0.005245 -0.080340
v 0.005791 0.017077 -0.080340
v 0.004897 0.015528 -0.059214
v 0.010833 0.005245 -0.059214
v 0.004897 0.015173 0.104739
v 0.010833 0.005245 0.107420
v -0.012914 0.005245 -0.059214
v -0.006977 0.015173 0.104739
v -0.012914 0.005245 0.107420
v -0.006977 0.015528 -0.059214
v -0.014702 0.005245 -0.080340
v -0.007871 0.017076 -0.080340
v -0.005862 0.013597 -0.091420
v -0.010683 0.005245 -0.091420
v -0.002742 0.008193 -0.120866
v -0.004444 0.005245 -0.120866
v -0.002385 0.007574 -0.122424
v -0.003729 0.005245 -0.122424
v 0.004897 -0.005037 -0.059214
v -0.006977 -0.004682 0.110101
v 0.004897 -0.004682 0.110101
v -0.006977 -0.005037 -0.059214
v 0.005791 -0.006586 -0.080340
v -0.007871 -0.006586 -0.080340
v 0.003781 -0.003106 -0.091420
v -0.005862 -0.003106 -0.091420
v 0.000662 0.002298 -0.120866
v -0.002742 0.002298 -0.120866
v 0.000304 0.002917 -0.122424
v -0.002385 0.002917 -0.122424
v -0.006977 0.015528 -0.059214
v 0.004897 0.015173 0.104739
v -0.006977 0.015173 0.104739
v 0.004897 0.015528 -0.059214
v -0.007871 0.017076 -0.080340
v 0.005791 0.017077 -0.080340
v -0.005862 0.013597 -0.091420
v 0.003781 0.013597 -0.091420
v -0.002742 0.008193 -0.120866
v 0.000662 0.008193 -0.120866
v -0.002385 0.007574 -0.122424
v 0.000304 0.007574 -0.122424
v 0.000304 0.002917 -0.122424
v 0.002363 0.005245 -0.120866
v 0.001649 0.005245 -0.122424
v 0.000662 0.002298 -0.120866
v 0.008603 0.005245 -0.091420
v 0.003781 -0.003106 -0.091420
v 0.012621 0.005245 -0.080340
v 0.005791 -0.006586 -0.080340
v 0.004897 -0.005037 -0.059214
v 0.010833 0.005245 -0.059214
v 0.010833 0.005245 0.107420
v 0.004897 -0.004682 0.110101
v 0.004897 -0.004682 0.110101
v -0.006977 -0.004682 0.110101
v -0.001040 0.005245 0.107420
v 0.010833 0.005245 0.107420
v -0.012914 0.005245 0.107420
v 0.004897 0.015173 0.104739
v -0.006977 0.015173 0.104739
vt 0.752441 0.666992
vt 0.749023 0.668945
vt 0.749023 0.665039
vt 0.752441 0.663086
vt 0.752441 0.666992
vt 0.749023 0.665039
vt 0.745605 0.663086
vt 0.749023 0.661133
vt 0.749023 0.665039
vt 0.745605 0.666992
vt 0.745605 0.663086
vt 0.749023 0.665039
vt 0.749023 0.661133
vt 0.752441 0.663086
vt 0.749023 0.665039
vt 0.749023 0.668945
vt 0.745605 0.666992
vt 0.792969 0.663330
vt 0.787598 0.580811
vt 0.796875 0.663330
vt 0.796875 0.580566
vt 0.789062 0.663818
vt 0.787598 0.580811
vt 0.792969 0.663330
vt 0.778809 0.581543
vt 0.785645 0.664307
vt 0.769531 0.583008
vt 0.789062 0.663818
vt 0.778809 0.581543
vt 0.804688 0.663818
vt 0.815430 0.581543
vt 0.808594 0.664307
vt 0.824219 0.583008
vt 0.800781 0.663330
vt 0.815430 0.581543
vt 0.804688 0.663818
vt 0.806152 0.580811
vt 0.796875 0.663330
vt 0.796875 0.580566
vt 0.800781 0.663330
vt 0.806152 0.580811
vt 0.375244 0.000977
vt 0.383057 0.005859
vt 0.380371 0.010742
vt 0.370605 0.004883
vt 0.337646 0.106445
vt 0.307861 0.092773
vt 0.324707 0.144043
vt 0.283203 0.132324
vt 0.278809 0.215820
vt 0.319824 0.217773
vt 0.321289 0.787354
vt 0.281738 0.796631
vt 0.403320 0.009766
vt 0.413818 0.008789
vt 0.415283 0.014160
vt 0.403320 0.015625
vt 0.436768 0.113770
vt 0.403564 0.116211
vt 0.441162 0.151367
vt 0.402344 0.153320
vt 0.401855 0.220215
vt 0.443115 0.219727
vt 0.401855 0.778198
vt 0.441406 0.787354
vt 0.319824 0.217773
vt 0.360840 0.778198
vt 0.321289 0.787354
vt 0.360840 0.219727
vt 0.324707 0.144043
vt 0.363770 0.150879
vt 0.370117 0.113770
vt 0.337646 0.106445
vt 0.391602 0.014648
vt 0.380371 0.010742
vt 0.392822 0.008789
vt 0.383057 0.005859
vt 0.483887 0.217773
vt 0.521484 0.796509
vt 0.480957 0.796509
vt 0.524414 0.216309
vt 0.480957 0.145996
vt 0.523926 0.135742
vt 0.469727 0.106934
vt 0.500000 0.093750
vt 0.426514 0.010742
vt 0.436523 0.004395
vt 0.423584 0.005371
vt 0.431641 0.000000
vt 0.360840 0.219727
vt 0.401855 0.778198
vt 0.360840 0.778198
vt 0.401855 0.220215
vt 0.363770 0.150879
vt 0.402344 0.153320
vt 0.370117 0.113770
vt 0.403564 0.116211
vt 0.391602 0.014648
vt 0.403320 0.015625
vt 0.392822 0.008789
vt 0.403320 0.009766
vt 0.423584 0.005371
vt 0.415283 0.014160
vt 0.413818 0.008789
vt 0.426514 0.010742
vt 0.436768 0.113770
vt 0.469727 0.106934
vt 0.441162 0.151367
vt 0.480957 0.145996
vt 0.483887 0.217773
vt 0.443115 0.219727
vt 0.441406 0.787354
vt 0.480957 0.796509
vt 0.349365 0.856323
vt 0.369385 0.821289
vt 0.389648 0.856323
vt 0.369385 0.891296
vt 0.409912 0.821289
vt 0.409912 0.891296
vt 0.430176 0.856323
vt1 0.344482 0.991936
vt1 0.330566 0.967743
vt1 0.358398 0.967743
vt1 0.372559 0.991936
vt1 0.344482 0.991936
vt1 0.358398 0.967743
vt1 0.372559 0.943512
vt1 0.386475 0.967743
vt1 0.358398 0.967743
vt1 0.344482 0.943512
vt1 0.372559 0.943512
vt1 0.358398 0.967743
vt1 0.386475 0.967743
vt1 0.372559 0.991936
vt1 0.358398 0.967743
vt1 0.330566 0.967743
vt1 0.344482 0.943512
vt1 0.353760 0.322754
vt1 0.950195 0.360840
vt1 0.354736 0.294922
vt1 0.952637 0.294922
vt1 0.351074 0.350586
vt1 0.950195 0.360840
vt1 0.353760 0.322754
vt1 0.943848 0.426758
vt1 0.346680 0.377930
vt1 0.933594 0.492188
vt1 0.351074 0.350586
vt1 0.943848 0.426758
vt1 0.351074 0.238770
vt1 0.943848 0.163086
vt1 0.346680 0.211426
vt1 0.933594 0.097656
vt1 0.353760 0.266602
vt1 0.943848 0.163086
vt1 0.351074 0.238770
vt1 0.950195 0.228516
vt1 0.354736 0.294922
vt1 0.952637 0.294922
vt1 0.353760 0.266602
vt1 0.950195 0.228516
vt1 0.126953 0.008789
vt1 0.136841 0.015137
vt1 0.133301 0.021484
vt1 0.121338 0.014160
vt1 0.080505 0.139648
vt1 0.043701 0.123047
vt1 0.064575 0.186035
vt1 0.013245 0.171387
vt1 0.008064 0.274414
vt1 0.058502 0.276855
vt1 0.060455 0.980530
vt1 0.011696 0.991936
vt1 0.161743 0.020020
vt1 0.174683 0.018555
vt1 0.176392 0.025879
vt1 0.161743 0.027344
vt1 0.203125 0.148438
vt1 0.161865 0.151367
vt1 0.208374 0.195312
vt1 0.160522 0.197266
vt1 0.159912 0.280273
vt1 0.210693 0.279297
vt1 0.159790 0.969193
vt1 0.208740 0.980499
vt1 0.058502 0.276855
vt1 0.109375 0.969208
vt1 0.060455 0.980530
vt1 0.109192 0.279297
vt1 0.064575 0.186035
vt1 0.113037 0.194336
vt1 0.120667 0.148438
vt1 0.080505 0.139648
vt1 0.147095 0.025879
vt1 0.133301 0.021484
vt1 0.148804 0.019043
vt1 0.136841 0.015137
vt1 0.261230 0.277344
vt1 0.307617 0.991791
vt1 0.257568 0.991760
vt1 0.311279 0.275391
vt1 0.257568 0.188477
vt1 0.310547 0.175781
vt1 0.243530 0.139648
vt1 0.281250 0.123535
vt1 0.190308 0.020996
vt1 0.202637 0.013184
vt1 0.186768 0.014648
vt1 0.196777 0.008301
vt1 0.109192 0.279297
vt1 0.159790 0.969193
vt1 0.109375 0.969208
vt1 0.159912 0.280273
vt1 0.113037 0.194336
vt1 0.160522 0.197266
vt1 0.120667 0.148438
vt1 0.161865 0.151367
vt1 0.147095 0.025879
vt1 0.161743 0.027344
vt1 0.148804 0.019043
vt1 0.161743 0.020020
vt1 0.186768 0.014648
vt1 0.176392 0.025879
vt1 0.174683 0.018555
vt1 0.190308 0.020996
vt1 0.203125 0.148438
vt1 0.243530 0.139648
vt1 0.208374 0.195312
vt1 0.257568 0.188477
vt1 0.261230 0.277344
vt1 0.210693 0.279297
vt1 0.208740 0.980499
vt1 0.257568 0.991760
vt1 0.330566 0.739014
vt1 0.476562 0.486328
vt1 0.622559 0.739014
vt1 0.476562 0.991913
vt1 0.768555 0.486328
vt1 0.768555 0.991936
vt1 0.914551 0.739014
vn 0.000000 -0.000000 -1.000000
vn 0.000000 -0.000000 -1.000000
vn 0.000000 -0.000000 -1.000000
vn 0.000000 -0.000000 -1.000000
vn 0.000000 -0.000000 -1.000000
vn 0.000000 -0.000000 -1.000000
vn 0.000000 -0.000000 -1.000000
vn 0.000000 -0.000000 -1.000000
vn 0.000000 -0.000000 -1.000000
vn 0.000000 -0.000000 -1.000000
vn 0.000000 -0.000000 -1.000000
vn 0.000000 -0.000000 -1.000000
vn 0.000000 -0.000000 -1.000000
vn 0.000000 -0.000000 -1.000000
vn 0.000000 -0.000000 -1.000000
vn 0.000000 -0.000000 -1.000000
vn 0.000000 -0.000000 -1.000000
vn 0.866142 0.496063 -0.055118
vn 0.866142 0.496063 -0.094488
vn 0.866142 0.496063 -0.055118
vn 0.866142 0.496063 -0.094488
vn 0.866142 -0.496063 -0.055118
vn 0.866142 -0.496063 -0.094488
vn 0.866142 -0.496063 -0.055118
vn 0.866142 -0.496063 -0.094488
vn 0.000000 -1.000000 -0.055118
vn 0.000000 -0.992126 -0.094488
vn 0.000000 -1.000000 -0.055118
vn 0.000000 -0.992126 -0.094488
vn -0.866142 -0.496063 -0.055118
vn -0.866142 -0.496063 -0.094488
vn -0.866142 -0.496063 -0.055118
vn -0.866142 -0.496063 -0.094488
vn -0.866142 0.496063 -0.055118
vn -0.866142 0.496063 -0.094488
vn -0.866142 0.496063 -0.055118
vn -0.866142 0.496063 -0.094488
vn 0.000000 1.000000 -0.055118
vn 0.000000 0.992126 -0.094488
vn 0.000000 1.000000 -0.055118
vn 0.000000 0.992126 -0.094488
vn -0.866142 -0.496063 -0.094488
vn -0.866142 -0.496063 -0.094488
vn -0.850394 -0.488189 -0.181102
vn -0.850394 -0.488189 -0.181102
vn -0.842520 -0.488189 -0.236220
vn -0.842520 -0.488189 -0.236220
vn -0.866142 -0.496063 -0.047244
vn -0.866142 -0.496063 -0.047244
vn -0.866142 -0.503937 0.007874
vn -0.866142 -0.503937 0.007874
vn -0.866142 -0.503937 0.000000
vn -0.866142 -0.503937 0.000000
vn 0.866142 0.496063 -0.094488
vn 0.866142 0.496063 -0.094488
vn 0.850394 0.488189 -0.181102
vn 0.850394 0.488189 -0.181102
vn 0.842520 0.488189 -0.236221
vn 0.842520 0.488189 -0.236221
vn 0.866142 0.496063 -0.047244
vn 0.866142 0.496063 -0.047244
vn 0.866142 0.503937 0.007874
vn 0.866142 0.503937 0.007874
vn 0.858268 0.503937 -0.000000
vn 0.858268 0.503937 -0.000000
vn -0.866142 0.503937 0.007874
vn -0.858268 0.503937 -0.000000
vn -0.858268 0.503937 -0.000000
vn -0.866142 0.503937 0.007874
vn -0.866142 0.496063 -0.047244
vn -0.866142 0.496063 -0.047244
vn -0.842520 0.488189 -0.236221
vn -0.842520 0.488189 -0.236221
vn -0.850394 0.488189 -0.181102
vn -0.850394 0.488189 -0.181102
vn -0.866142 0.496063 -0.094488
vn -0.866142 0.496063 -0.094488
vn 0.000000 -1.000000 0.007874
vn 0.000000 -1.000000 0.000000
vn 0.000000 -1.000000 0.000000
vn 0.000000 -1.000000 0.007874
vn 0.000000 -1.000000 -0.047244
vn 0.000000 -1.000000 -0.047244
vn 0.000000 -0.968504 -0.236220
vn 0.000000 -0.968504 -0.236220
vn 0.000000 -0.984252 -0.181102
vn 0.000000 -0.984252 -0.181102
vn 0.000000 -0.992126 -0.094488
vn 0.000000 -0.992126 -0.094488
vn 0.000000 1.000000 0.007874
vn 0.000000 1.000000 -0.000000
vn 0.000000 1.000000 -0.000000
vn 0.000000 1.000000 0.007874
vn 0.000000 1.000000 -0.047244
vn 0.000000 1.000000 -0.047244
vn 0.000000 0.968504 -0.236221
vn 0.000000 0.968504 -0.236221
vn 0.000000 0.984252 -0.181102
vn 0.000000 0.984252 -0.181102
vn 0.000000 0.992126 -0.094488
vn 0.000000 0.992126 -0.094488
vn 0.866142 -0.496063 -0.094488
vn 0.850394 -0.488189 -0.181102
vn 0.866142 -0.496063 -0.094488
vn 0.850394 -0.488189 -0.181102
vn 0.842520 -0.488189 -0.236220
vn 0.842520 -0.488189 -0.236220
vn 0.866142 -0.496063 -0.047244
vn 0.866142 -0.496063 -0.047244
vn 0.866142 -0.503937 0.007874
vn 0.866142 -0.503937 0.007874
vn 0.866142 -0.503937 0.000000
vn 0.866142 -0.503937 0.000000
vn 0.000000 0.259843 0.968504
vn 0.000000 0.259843 0.968504
vn 0.000000 0.259843 0.968504
vn 0.000000 0.259843 0.968504
vn 0.000000 0.259843 0.968504
vn 0.000000 0.259843 0.968504
vn 0.000000 0.259843 0.968504
tan -0.503937 0.866142 -0.000000 1.000000
tan -0.503937 0.866142 -0.000000 1.000000
tan -0.503937 0.866142 -0.000000 1.000000
tan -0.503937 0.866142 -0.000000 1.000000
tan -0.503937 0.866142 -0.000000 1.000000
tan -0.503937 0.866142 -0.000000 1.000000
tan -0.503937 0.866142 -0.000000 1.000000
tan -0.503937 0.866142 -0.000000 1.000000
tan -0.503937 0.866142 -0.000000 1.000000
tan -0.503937 0.866142 -0.000000 1.000000
tan -0.503937 0.866142 -0.000000 1.000000
tan -0.503937 0.866142 -0.000000 1.000000
tan -0.503937 0.866142 -0.000000 1.000000
tan -0.503937 0.866142 -0.000000 1.000000
tan -0.503937 0.866142 -0.000000 1.000000
tan -0.503937 0.866142 -0.000000 1.000000
tan -0.503937 0.866142 -0.000000 1.000000
tan 0.032116 0.055056 1.000186 1.000000
tan 0.066216 0.074896 1.000186 1.000000
tan 0.032116 0.055056 1.000186 1.000000
tan 0.066216 0.074896 1.000186 1.000000
tan 0.094612 0.054498 0.996280 1.000000
tan 0.128712 0.035712 0.992374 1.000000
tan 0.094612 0.054498 0.996280 1.000000
tan 0.128712 0.035712 0.992374 1.000000
tan 0.157914 -0.054250 0.984252 1.000000
tan 0.157728 -0.093000 0.976502 1.000000
tan 0.157914 -0.054250 0.984252 1.000000
tan 0.157728 -0.093000 0.976502 1.000000
tan -0.125426 0.109492 0.985554 1.000000
tan -0.159960 0.091016 0.988468 1.000000
tan -0.125426 0.109492 0.985554 1.000000
tan -0.159960 0.091016 0.988468 1.000000
tan -0.000434 0.109616 0.993366 1.000000
tan -0.034224 0.129456 0.993366 1.000000
tan -0.000434 0.109616 0.993366 1.000000
tan -0.034224 0.129456 0.993366 1.000000
tan 0.031496 0.055118 1.000000 1.000000
tan 0.031248 0.094488 0.992126 1.000000
tan 0.031496 0.055118 1.000000 1.000000
tan 0.031248 0.094488 0.992126 1.000000
tan 0.340195 -0.434869 -0.835389 1.000000
tan 0.340195 -0.434869 -0.835389 1.000000
tan 0.379937 -0.344287 -0.855974 1.000000
tan 0.398723 -0.387315 -0.828197 1.000000
tan 0.366173 -0.192262 -0.908674 1.000000
tan 0.400893 -0.266043 -0.880030 1.000000
tan 0.130386 -0.133796 -0.985554 1.000000
tan 0.176142 -0.216381 -0.957282 1.000000
tan 0.032922 -0.072168 -0.997334 1.000000
tan 0.021018 -0.051708 -0.997334 1.000000
tan 0.011904 -0.020460 -0.997334 1.000000
tan 0.000000 -0.000000 -1.004154 1.000000
tan -0.022506 -0.149916 -0.993366 1.000000
tan -0.026412 -0.143096 -0.993366 1.000000
tan -0.107880 -0.173042 -0.973030 1.000000
tan -0.100192 -0.186434 -0.973030 1.000000
tan -0.175832 -0.167338 -0.972968 1.000000
tan -0.162440 -0.187240 -0.966334 1.000000
tan -0.025296 -0.051088 -1.000186 1.000000
tan -0.017484 -0.064728 -1.000186 1.000000
tan 0.018724 -0.016492 -1.004154 1.000000
tan 0.010788 -0.002852 -1.004154 1.000000
tan 0.003968 -0.006758 -0.990576 1.000000
tan 0.000000 -0.000000 -0.990576 1.000000
tan -0.034534 -0.043772 -0.997334 1.000000
tan -0.011904 -0.020274 -0.990576 1.000000
tan 0.000000 -0.000000 -0.990576 1.000000
tan -0.030566 -0.036952 -0.997334 1.000000
tan -0.041850 -0.166656 -0.982640 1.000000
tan -0.014136 -0.119288 -0.993366 1.000000
tan 0.103044 -0.283837 -0.954120 1.000000
tan 0.076260 -0.325501 -0.944696 1.000000
tan 0.010912 -0.329903 -0.940542 1.000000
tan -0.005890 -0.356687 -0.933846 1.000000
tan -0.075702 -0.313597 -0.952446 1.000000
tan -0.075702 -0.312853 -0.948540 1.000000
tan -0.094488 -0.007812 -0.992126 1.000000
tan 0.000000 -0.000000 -1.000000 1.000000
tan -0.015748 -0.000000 -1.000000 1.000000
tan -0.023622 -0.007874 -1.000000 1.000000
tan -0.260215 0.045756 -0.968504 1.000000
tan -0.142104 0.046872 -0.992126 1.000000
tan -0.435985 0.212040 -0.869366 1.000000
tan -0.331267 0.223200 -0.915122 1.000000
tan -0.553289 0.151156 -0.821502 1.000000
tan -0.488437 0.158286 -0.860252 1.000000
tan -0.583297 0.076632 -0.804637 1.000000
tan -0.559117 0.078120 -0.820262 1.000000
tan -0.031496 0.007874 -1.000000 1.000000
tan 0.000000 -0.000000 -1.000000 1.000000
tan -0.007874 -0.000000 -1.000000 1.000000
tan -0.015748 0.007874 -1.000000 1.000000
tan -0.055118 -0.047244 -1.000000 1.000000
tan -0.039370 -0.047244 -1.000000 1.000000
tan -0.079980 -0.236221 -0.968504 1.000000
tan -0.064728 -0.236221 -0.968504 1.000000
tan -0.095852 -0.179676 -0.976502 1.000000
tan -0.088102 -0.181102 -0.984252 1.000000
tan -0.094488 -0.093744 -0.984314 1.000000
tan -0.094488 -0.093744 -0.984314 1.000000
tan -0.239010 -0.237213 -0.945564 1.000000
tan -0.311613 -0.198958 -0.926902 1.000000
tan -0.246078 -0.251597 -0.934838 1.000000
tan -0.289975 -0.155930 -0.941286 1.000000
tan -0.323765 -0.103354 -0.941162 1.000000
tan -0.294873 -0.044702 -0.959328 1.000000
tan -0.114762 -0.106516 -0.985554 1.000000
tan -0.087792 -0.058404 -0.996280 1.000000
tan -0.009114 -0.031248 -0.997334 1.000000
tan -0.028954 -0.065348 -0.997334 1.000000
tan -0.011904 -0.020460 -0.997334 1.000000
tan 0.000000 -0.000000 -1.004154 1.000000
tan -0.867692 -0.488065 0.130944 1.000000
tan -0.867692 -0.488065 0.130944 1.000000
tan -0.867692 -0.488065 0.130944 1.000000
tan -0.867692 -0.488065 0.130944 1.000000
tan -0.867692 -0.488065 0.130944 1.000000
tan -0.867692 -0.488065 0.130944 1.000000
tan -0.867692 -0.488065 0.130944 1.000000
f 3/3/3 2/2/2 1/1/1
f 6/6/6 5/5/5 4/4/4
f 9/9/9 8/8/8 7/7/7
f 12/12/12 11/11/11 10/10/10
f 15/15/15 14/14/14 13/13/13
f 15/15/15 17/17/17 16/16/16
f 20/20/20 19/19/19 18/18/18
f 20/20/20 21/21/21 19/19/19
f 24/24/24 23/23/23 22/22/22
f 25/25/25 22/22/22 23/23/23
f 28/28/28 27/27/27 26/26/26
f 28/28/28 29/29/29 27/27/27
f 32/32/32 31/31/31 30/30/30
f 32/32/32 33/33/33 31/31/31
f 36/36/36 35/35/35 34/34/34
f 37/37/37 34/34/34 35/35/35
f 40/40/40 39/39/39 38/38/38
f 40/40/40 41/41/41 39/39/39
f 44/44/44 43/43/43 42/42/42
f 42/42/42 45/45/45 44/44/44
f 45/45/45 46/46/46 44/44/44
f 45/45/45 47/47/47 46/46/46
f 48/48/48 46/46/46 47/47/47
f 47/47/47 49/49/49 48/48/48
f 49/49/49 50/50/50 48/48/48
f 51/51/51 48/48/48 50/50/50
f 50/50/50 52/52/52 51/51/51
f 53/53/53 52/52/52 50/50/50
f 56/56/56 55/55/55 54/54/54
f 54/54/54 57/57/57 56/56/56
f 57/57/57 58/58/58 56/56/56
f 57/57/57 59/59/59 58/58/58
f 60/60/60 58/58/58 59/59/59
f 59/59/59 61/61/61 60/60/60
f 61/61/61 62/62/62 60/60/60
f 63/63/63 60/60/60 62/62/62
f 62/62/62 64/64/64 63/63/63
f 65/65/65 63/63/63 64/64/64
f 68/68/68 67/67/67 66/66/66
f 66/66/66 67/67/67 69/69/69
f 66/66/66 69/69/69 70/70/70
f 71/71/71 70/70/70 69/69/69
f 71/71/71 72/72/72 70/70/70
f 73/73/73 70/70/70 72/72/72
f 72/72/72 74/74/74 73/73/73
f 75/75/75 73/73/73 74/74/74
f 74/74/74 76/76/76 75/75/75
f 77/77/77 75/75/75 76/76/76
f 80/80/80 79/79/79 78/78/78
f 78/78/78 79/79/79 81/81/81
f 78/78/78 81/81/81 82/82/82
f 82/82/82 81/81/81 83/83/83
f 84/84/84 82/82/82 83/83/83
f 85/85/85 84/84/84 83/83/83
f 86/86/86 84/84/84 85/85/85
f 86/86/86 85/85/85 87/87/87
f 88/88/88 86/86/86 87/87/87
f 89/89/89 88/88/88 87/87/87
f 92/92/92 91/91/91 90/90/90
f 90/90/90 91/91/91 93/93/93
f 90/90/90 93/93/93 94/94/94
f 94/94/94 93/93/93 95/95/95
f 96/96/96 94/94/94 95/95/95
f 97/97/97 96/96/96 95/95/95
f 98/98/98 96/96/96 97/97/97
f 98/98/98 97/97/97 99/99/99
f 100/100/100 98/98/98 99/99/99
f 101/101/101 100/100/100 99/99/99
f 104/104/104 103/103/103 102/102/102
f 105/105/105 102/102/102 103/103/103
f 103/103/103 106/106/106 105/105/105
f 107/107/107 105/105/105 106/106/106
f 106/106/106 108/108/108 107/107/107
f 109/109/109 107/107/107 108/108/108
f 108/108/108 110/110/110 109/109/109
f 111/111/111 110/110/110 108/108/108
f 111/111/111 112/112/112 110/110/110
f 113/113/113 110/110/110 112/112/112
f 116/116/116 115/115/115 114/114/114
f 116/116/116 114/114/114 117/117/117
f 116/116/116 118/118/118 115/115/115
f 116/116/116 117/117/117 119/119/119
f 116/116/116 120/120/120 118/118/118
f 116/116/116 119/119/119 120/120/120
