mtllib SM_Paper_01_LOD2.mtl
g SM_Paper_01_LOD2
#Vertices 7
#Indices 9
#Section 0 Offset 0 NumIndices 9 MaterialIndex 0 MI_Paper_01
v -0.094993 0.001642 -0.051036
v 0.084632 0.001184 -0.076429
v 0.084436 0.003557 -0.035977
v 0.084436 0.003557 -0.035977
v -0.087671 0.002964 0.014883
v -0.094993 0.001642 -0.051036
v 0.084928 0.004108 0.014064
vt 0.753906 0.692139
vt 0.708496 0.388672
vt 0.776855 0.388672
vt 0.776855 0.388672
vt 0.865723 0.678711
vt 0.753906 0.692139
vt 0.861816 0.387207
vt1 0.172974 0.999251
vt1 0.004272 0.007324
vt1 0.257568 0.006348
vt1 0.257568 0.006348
vt1 0.584961 0.955566
vt1 0.173096 0.999251
vt1 0.570312 0.001465
vn -0.007874 0.992126 -0.125984
vn -0.007874 0.984252 -0.165354
vn -0.007874 0.992126 -0.110236
vn -0.007874 0.992126 -0.110236
vn -0.007874 1.000000 0.039370
vn -0.007874 0.992126 -0.149606
vn -0.007874 1.000000 0.039370
tan 0.992126 0.008866 0.007812 1.000000
tan 0.985554 0.009176 0.007688 1.000000
tan 0.992126 0.008742 0.007812 1.000000
tan 0.992126 0.008742 0.007812 1.000000
tan 1.000000 0.007564 0.007874 1.000000
tan 0.992126 0.009052 0.007812 1.000000
tan 1.000000 0.007564 0.007874 1.000000
f 3/3/3 2/2/2 1/1/1
f 6/6/6 5/5/5 4/4/4
f 7/7/7 4/4/4 5/5/5
