mtllib SM_Paper_05_LOD1.mtl
g SM_Paper_05_LOD1
#Vertices 18
#Indices 48
#Section 0 Offset 0 NumIndices 48 MaterialIndex 0 MI_Paper_01
v -0.086268 -0.001574 0.083283
v 0.088841 -0.001574 0.111043
v -0.088829 -0.001574 0.111043
v 0.091401 -0.001574 0.083283
v -0.084988 -0.001574 0.055522
v 0.091401 -0.001574 0.027761
v 0.092682 -0.001574 0.055522
v -0.086268 -0.001574 0.027761
v -0.092934 -0.001574 -0.055522
v -0.088873 -0.001574 0.000000
v -0.091566 -0.001574 -0.027761
v 0.088797 -0.001574 0.000000
v 0.086104 -0.001574 -0.027761
v 0.084736 -0.001574 -0.055522
v 0.086104 -0.001574 -0.083283
v 0.088841 -0.001574 -0.111043
v -0.088829 -0.001574 -0.111043
v -0.091566 -0.001574 -0.083283
vt 0.392822 0.735596
vt 0.688965 0.782471
vt 0.388428 0.782471
vt 0.692871 0.735596
vt 0.394775 0.688477
vt 0.692871 0.641602
vt 0.695312 0.688477
vt 0.392822 0.641602
vt 0.381348 0.500732
vt 0.388428 0.594727
vt 0.383789 0.547852
vt 0.688477 0.594727
vt 0.684082 0.547852
vt 0.681641 0.500732
vt 0.684082 0.454102
vt 0.688965 0.407227
vt 0.388428 0.407227
vt 0.383789 0.454102
vt1 0.039581 0.872070
vt1 0.975098 0.996033
vt1 0.025894 0.996033
vt1 0.988770 0.872070
vt1 0.046417 0.748047
vt1 0.988770 0.624023
vt1 0.995605 0.748047
vt1 0.039581 0.624023
vt1 0.003967 0.252441
vt1 0.025665 0.500244
vt1 0.011276 0.376465
vt1 0.975098 0.500244
vt1 0.960449 0.376465
vt1 0.953125 0.252441
vt1 0.960449 0.128418
vt1 0.975098 0.004395
vt1 0.025894 0.004395
vt1 0.011276 0.128418
vn 0.000000 1.000000 -0.000000
vn 0.000000 1.000000 -0.000000
vn 0.000000 1.000000 -0.000000
vn 0.000000 1.000000 -0.000000
vn 0.000000 1.000000 -0.000000
vn 0.000000 1.000000 -0.000000
vn 0.000000 1.000000 -0.000000
vn 0.000000 1.000000 -0.000000
vn 0.000000 1.000000 -0.000000
vn 0.000000 1.000000 -0.000000
vn 0.000000 1.000000 -0.000000
vn 0.000000 1.000000 -0.000000
vn 0.000000 1.000000 -0.000000
vn 0.000000 1.000000 -0.000000
vn 0.000000 1.000000 -0.000000
vn 0.000000 1.000000 -0.000000
vn 0.000000 1.000000 -0.000000
vn 0.000000 1.000000 -0.000000
tan 0.000000 -0.000000 -1.000000 1.000000
tan 0.000000 -0.000000 -1.000000 1.000000
tan 0.000000 -0.000000 -1.000000 1.000000
tan 0.000000 -0.000000 -1.000000 1.000000
tan 0.000000 -0.000000 -1.000000 1.000000
tan 0.000000 -0.000000 -1.000000 1.000000
tan 0.000000 -0.000000 -1.000000 1.000000
tan 0.000000 -0.000000 -1.000000 1.000000
tan 0.000000 -0.000000 -1.000000 1.000000
tan 0.000000 -0.000000 -1.000000 1.000000
tan 0.000000 -0.000000 -1.000000 1.000000
tan 0.000000 -0.000000 -1.000000 1.000000
tan 0.000000 -0.000000 -1.000000 1.000000
tan 0.000000 -0.000000 -1.000000 1.000000
tan 0.000000 -0.000000 -1.000000 1.000000
tan 0.000000 -0.000000 -1.000000 1.000000
tan 0.000000 -0.000000 -1.000000 1.000000
tan 0.000000 -0.000000 -1.000000 1.000000
f 3/3/3 2/2/2 1/1/1
f 2/2/2 4/4/4 1/1/1
f 1/1/1 4/4/4 5/5/5
f 4/4/4 6/6/6 5/5/5
f 7/7/7 6/6/6 4/4/4
f 8/8/8 5/5/5 6/6/6
f 6/6/6 9/9/9 8/8/8
f 10/10/10 8/8/8 9/9/9
f 11/11/11 10/10/10 9/9/9
f 9/9/9 6/6/6 12/12/12
f 12/12/12 13/13/13 9/9/9
f 13/13/13 14/14/14 9/9/9
f 14/14/14 15/15/15 9/9/9
f 9/9/9 15/15/15 16/16/16
f 9/9/9 16/16/16 17/17/17
f 18/18/18 9/9/9 17/17/17
