mtllib SM_PlateHolder_LOD5.mtl
g SM_PlateHolder_LOD5
#Vertices 34
#Indices 48
#Section 0 Offset 0 NumIndices 48 MaterialIndex 0 MI_PlateHolder
v 0.173450 0.073768 0.224195
v -0.158979 -0.001931 0.205570
v -0.206922 0.131835 0.182413
v 0.158964 -0.002058 -0.205528
v 0.173450 0.073768 0.224195
v 0.201619 0.129612 -0.191709
v 0.149698 0.009616 -0.196739
v -0.149984 0.009624 0.196937
v -0.150504 0.009453 -0.197332
v 0.148876 0.018117 0.197619
v 0.201619 0.129612 -0.191709
v -0.174864 0.120368 -0.233910
v 0.158964 -0.002058 -0.205528
v -0.159943 -0.000063 -0.204870
v -0.174864 0.120368 -0.233910
v -0.206922 0.131835 0.182413
v -0.159943 -0.000063 -0.204870
v -0.158979 -0.001931 0.205570
v -0.206922 0.131835 0.182413
v 0.148876 0.018117 0.197619
v 0.173450 0.073768 0.224195
v -0.149984 0.009624 0.196937
v 0.201619 0.129612 -0.191709
v 0.148876 0.018117 0.197619
v 0.149698 0.009616 -0.196739
v 0.173450 0.073768 0.224195
v -0.150504 0.009453 -0.197332
v -0.206922 0.131835 0.182413
v -0.174864 0.120368 -0.233910
v -0.149984 0.009624 0.196937
v 0.149698 0.009616 -0.196739
v -0.150504 0.009453 -0.197332
v 0.201619 0.129612 -0.191709
v -0.174864 0.120368 -0.233910
vt 0.236694 0.989662
vt 0.167358 0.693604
vt 0.281738 0.649902
vt 0.028183 0.734619
vt 0.095886 0.352051
vt 0.148804 0.722412
vt 0.268311 0.000977
vt 0.001172 0.352051
vt 0.000686 0.000488
vt 0.267578 0.352539
vt 0.504395 1.028870
vt 0.501953 0.687500
vt 0.615723 0.982971
vt 0.612793 0.704102
vt 0.677246 -0.017578
vt 0.692383 0.354492
vt 0.569336 0.009277
vt 0.568848 0.373047
vt 0.447021 0.355469
vt 0.534180 0.671631
vt 0.472900 0.696289
vt 0.544434 0.407715
vt 0.541992 0.029785
vt 0.437500 0.376465
vt 0.425781 0.024902
vt 0.499023 0.399414
vt 0.414062 0.027832
vt 0.295166 0.364258
vt 0.312744 -0.007812
vt 0.414551 0.372559
vt 0.266357 0.396484
vt 0.268066 0.654785
vt 0.164185 0.344727
vt 0.162109 0.684082
vt1 0.719238 0.524902
vt1 0.667969 0.303711
vt1 0.753418 0.271973
vt1 0.372314 0.294922
vt1 0.422852 0.008789
vt1 0.462402 0.285645
vt1 0.671387 0.016113
vt1 0.471924 0.278320
vt1 0.471680 0.015625
vt1 0.670898 0.278320
vt1 0.454590 0.554443
vt1 0.456055 0.302734
vt1 0.539551 0.524658
vt1 0.538086 0.312988
vt1 0.353516 0.001465
vt1 0.364014 0.278809
vt1 0.272949 0.020996
vt1 0.271973 0.293945
vt1 0.812012 0.248047
vt1 0.880859 0.483398
vt1 0.834961 0.501465
vt1 0.886230 0.284668
vt1 0.230591 0.037598
vt1 0.152466 0.296875
vt1 0.143677 0.034180
vt1 0.198364 0.313965
vt1 0.111389 0.032227
vt1 0.026474 0.285645
vt1 0.034454 0.008789
vt1 0.114990 0.293945
vt1 0.804688 0.038574
vt1 0.805176 0.237793
vt1 0.729980 0.003418
vt1 0.725098 0.254395
vn 0.055118 -0.173228 0.984252
vn -0.047244 -0.196850 0.976378
vn -0.039370 -0.157480 0.984252
vn 0.976378 -0.212598 -0.055118
vn 0.992126 -0.125984 0.047244
vn 0.992126 -0.102362 -0.015748
vn 0.000000 1.000000 -0.000000
vn 0.000000 1.000000 -0.000000
vn 0.000000 1.000000 -0.000000
vn 0.000000 1.000000 -0.000000
vn 0.078740 -0.165354 -0.984252
vn -0.047244 -0.141732 -0.992126
vn 0.055118 -0.196850 -0.976378
vn -0.070866 -0.236221 -0.968504
vn -0.992126 -0.133858 -0.023622
vn -0.992126 -0.102362 0.031496
vn -0.984252 -0.165354 -0.039370
vn -0.976378 -0.220472 0.070866
vn 0.023622 0.456693 -0.889764
vn -0.023622 0.094488 -0.992126
vn 0.062992 0.700787 0.716535
vn 0.000000 0.133858 -0.992126
vn -0.944882 0.314961 0.023622
vn -0.992126 0.118110 -0.000000
vn -0.992126 0.102362 -0.000000
vn 0.480315 0.874016 0.023622
vn 0.992126 0.102362 -0.000000
vn 0.976378 0.220472 -0.007874
vn 0.866142 0.496063 0.023622
vn 0.992126 0.102362 -0.000000
vn 0.000000 0.133858 0.992126
vn 0.000000 0.133858 0.992126
vn -0.031496 0.322835 0.944882
vn 0.062992 0.645669 0.763779
tan -0.984252 -0.031000 0.049662 1.000000
tan -0.976378 0.007688 -0.045694 1.000000
tan -0.984252 0.023250 -0.035650 1.000000
tan 0.056792 0.007688 0.976378 1.000000
tan -0.048236 -0.007812 0.992126 1.000000
tan 0.015748 0.000000 0.992126 1.000000
tan 0.000000 -0.000000 -1.000000 1.000000
tan 0.000000 -0.000000 -1.000000 1.000000
tan 0.000000 -0.000000 -1.000000 1.000000
tan 0.000000 -0.000000 -1.000000 1.000000
tan -0.984252 -0.077500 -0.065720 1.000000
tan -0.992126 0.054684 0.039432 1.000000
tan -0.976378 -0.030752 -0.048918 1.000000
tan -0.968504 0.015252 0.067146 1.000000
tan 0.021514 0.015624 -0.992126 1.000000
tan -0.028272 -0.031248 -0.992126 1.000000
tan 0.040672 -0.007750 -0.984252 1.000000
tan -0.070866 -0.000000 -0.976378 1.000000
tan -0.904148 0.007750 -0.020026 1.000000
tan -0.992126 -0.054684 0.018414 1.000000
tan -0.321471 -0.642693 0.656829 1.000000
tan -0.992126 0.007812 0.001054 1.000000
tan -0.028582 -0.015066 -0.942402 1.000000
tan 0.000000 -0.000000 -0.992126 1.000000
tan 0.000000 -0.000000 -0.992126 1.000000
tan 0.028644 0.010788 -0.981586 1.000000
tan -0.003224 0.031248 -0.992126 1.000000
tan -0.004402 -0.015314 -0.974642 1.000000
tan -0.027342 0.089404 -0.874946 1.000000
tan 0.005642 -0.054684 -0.992126 1.000000
tan 0.992126 0.046872 -0.006324 1.000000
tan 0.992126 -0.046872 0.006324 1.000000
tan 0.947424 0.037448 0.018786 1.000000
tan 0.807676 -0.125736 0.039680 1.000000
f 3/3/3 2/2/2 1/1/1
f 6/6/6 5/5/5 4/4/4
f 9/9/9 8/8/8 7/7/7
f 7/7/7 8/8/8 10/10/10
f 13/13/13 12/12/12 11/11/11
f 13/13/13 14/14/14 12/12/12
f 17/17/17 16/16/16 15/15/15
f 18/18/18 16/16/16 17/17/17
f 21/21/21 20/20/20 19/19/19
f 19/19/19 20/20/20 22/22/22
f 25/25/25 24/24/24 23/23/23
f 24/24/24 26/26/26 23/23/23
f 29/29/29 28/28/28 27/27/27
f 28/28/28 30/30/30 27/27/27
f 33/33/33 32/32/32 31/31/31
f 33/33/33 34/34/34 32/32/32
