mtllib SM_Paper_04.mtl
g SM_Paper_04
#Vertices 48
#Indices 210
#Section 0 Offset 0 NumIndices 210 MaterialIndex 0 MI_Paper_01
v 0.088761 -0.001692 -0.099067
v 0.064326 -0.001024 -0.111044
v 0.088761 -0.002585 -0.111044
v 0.064326 -0.000190 -0.098913
v 0.040932 0.000283 -0.111044
v 0.064326 -0.000164 -0.085818
v 0.088761 -0.001631 -0.085216
v 0.040932 0.001062 -0.098765
v -0.006471 0.002345 -0.111044
v 0.040932 0.001055 -0.086394
v 0.064326 0.000096 -0.065323
v 0.088761 -0.001062 -0.063429
v 0.040932 0.001018 -0.067137
v 0.064326 -0.000711 0.075297
v 0.088761 -0.002119 0.077192
v 0.040932 0.000450 0.073484
v 0.064326 -0.000734 0.088987
v 0.088761 -0.001789 0.089589
v 0.040932 0.000090 0.088411
v 0.064326 -0.001105 0.098098
v 0.088761 -0.002040 0.097944
v 0.088761 -0.002363 0.111044
v 0.064326 -0.001660 0.111044
v 0.040932 -0.000397 0.098246
v 0.040932 -0.001173 0.111044
v -0.006471 0.000451 0.098547
v -0.006471 -0.000774 0.111044
v -0.006471 0.001171 0.087243
v -0.052538 -0.002048 0.098838
v -0.052538 -0.003710 0.111044
v -0.006471 0.002215 0.069809
v -0.088761 -0.004719 0.099067
v -0.088761 -0.006724 0.111044
v -0.052538 -0.001101 0.086108
v -0.088761 -0.003594 0.085216
v -0.052538 0.000608 0.066237
v -0.088761 -0.001363 0.063429
v -0.006471 0.002299 -0.070812
v -0.052538 0.000221 -0.074384
v -0.088761 -0.002119 -0.077192
v -0.006471 0.002935 -0.087562
v -0.052538 0.001439 -0.088697
v -0.088761 -0.000444 -0.089589
v -0.006471 0.003010 -0.098465
v -0.052538 0.001025 -0.111044
v -0.052538 0.001580 -0.098173
v -0.088761 -0.000250 -0.097944
v -0.088761 -0.000719 -0.111044
vt 0.999512 0.020508
vt 0.958496 0.000488
vt 1.000000 0.000488
vt 0.958496 0.020996
vt 0.918945 0.000488
vt 0.958496 0.042969
vt 0.999512 0.043945
vt 0.918457 0.020996
vt 0.838379 0.000488
vt 0.918457 0.041992
vt 0.958496 0.077637
vt 0.999512 0.081055
vt 0.918457 0.074707
vt 0.958496 0.315430
vt 0.999512 0.318848
vt 0.918945 0.312500
vt 0.958496 0.338867
vt 0.999512 0.339844
vt 0.918945 0.337891
vt 0.958496 0.354004
vt 0.999512 0.354004
vt 0.999512 0.375977
vt 0.958496 0.375977
vt 0.918945 0.354492
vt 0.918945 0.375977
vt 0.838379 0.354980
vt 0.838379 0.375977
vt 0.838379 0.335449
vt 0.760742 0.355469
vt 0.760254 0.376465
vt 0.838379 0.306152
vt 0.699219 0.355957
vt 0.698730 0.376465
vt 0.760742 0.333984
vt 0.699219 0.332520
vt 0.760742 0.300293
vt 0.699219 0.295410
vt 0.838379 0.068359
vt 0.760254 0.062500
vt 0.699219 0.057617
vt 0.838379 0.040039
vt 0.760254 0.038086
vt 0.699219 0.036621
vt 0.838379 0.021484
vt 0.760254 0.000488
vt 0.760742 0.021973
vt 0.699219 0.022461
vt 0.699219 0.000488
vt1 0.990234 0.057617
vt1 0.854492 0.004395
vt1 0.990234 0.004395
vt1 0.854492 0.058594
vt1 0.724609 0.004395
vt1 0.854492 0.116699
vt1 0.990234 0.119629
vt1 0.724609 0.059082
vt1 0.461426 0.004395
vt1 0.724609 0.114258
vt1 0.854492 0.208008
vt1 0.990234 0.216797
vt1 0.724609 0.200195
vt1 0.854492 0.834839
vt1 0.990234 0.843384
vt1 0.724609 0.826782
vt1 0.854492 0.895874
vt1 0.990234 0.898621
vt1 0.724609 0.893250
vt1 0.854492 0.936523
vt1 0.990234 0.935913
vt1 0.990234 0.994270
vt1 0.854492 0.994236
vt1 0.724609 0.937134
vt1 0.724609 0.994251
vt1 0.461670 0.938385
vt1 0.461670 0.994328
vt1 0.461670 0.887939
vt1 0.205933 0.940277
vt1 0.205566 0.995144
vt1 0.461670 0.810181
vt1 0.004486 0.941925
vt1 0.003967 0.996033
vt1 0.205933 0.883362
vt1 0.004612 0.879944
vt1 0.206177 0.794556
vt1 0.005032 0.782349
vt1 0.461426 0.183594
vt1 0.205566 0.167969
vt1 0.004238 0.155762
vt1 0.461426 0.108887
vt1 0.205933 0.104004
vt1 0.004757 0.100098
vt1 0.461426 0.060547
vt1 0.205811 0.004395
vt1 0.205933 0.061523
vt1 0.004833 0.062500
vt1 0.004742 0.004395
vn 0.062992 0.992126 -0.070866
vn 0.055118 0.992126 -0.070866
vn 0.062992 0.992126 -0.070866
vn 0.055118 0.992126 -0.070866
vn 0.047244 1.000000 -0.062992
vn 0.055118 1.000000 -0.007874
vn 0.055118 1.000000 -0.015748
vn 0.047244 1.000000 -0.000000
vn 0.007874 1.000000 -0.055118
vn 0.039370 1.000000 0.007874
vn 0.047244 1.000000 -0.000000
vn 0.055118 1.000000 -0.000000
vn 0.039370 1.000000 -0.000000
vn 0.047244 1.000000 0.007874
vn 0.055118 1.000000 0.007874
vn 0.039370 1.000000 0.007874
vn 0.039370 1.000000 0.015748
vn 0.047244 1.000000 0.007874
vn 0.031496 1.000000 0.039370
vn 0.031496 1.000000 0.039370
vn 0.039370 1.000000 0.031496
vn 0.031496 1.000000 0.031496
vn 0.031496 1.000000 0.039370
vn 0.023622 1.000000 0.062992
vn 0.015748 1.000000 0.070866
vn -0.023622 1.000000 0.078740
vn -0.023622 0.992126 0.094488
vn -0.015748 1.000000 0.062992
vn -0.062992 0.992126 0.102362
vn -0.062992 0.992126 0.133858
vn 0.000000 1.000000 0.007874
vn -0.070866 0.992126 0.110236
vn -0.078740 0.984252 0.149606
vn -0.055118 0.992126 0.078740
vn -0.070866 0.992126 0.086614
vn -0.047244 1.000000 0.007874
vn -0.062992 1.000000 0.007874
vn -0.007874 1.000000 0.007874
vn -0.047244 1.000000 0.007874
vn -0.062992 1.000000 0.007874
vn 0.000000 1.000000 0.023622
vn -0.047244 1.000000 0.055118
vn -0.055118 0.992126 0.070866
vn 0.007874 1.000000 0.007874
vn -0.039370 1.000000 -0.047244
vn -0.039370 1.000000 0.015748
vn -0.055118 1.000000 0.015748
vn -0.047244 1.000000 -0.039370
tan -0.004464 -0.070866 -0.996094 1.000000
tan -0.003906 -0.070866 -0.995164 1.000000
tan -0.004464 -0.070866 -0.996094 1.000000
tan -0.003906 -0.070866 -0.995164 1.000000
tan -0.002976 -0.062992 -1.002232 1.000000
tan -0.000434 -0.007874 -1.003038 1.000000
tan -0.000868 -0.015748 -1.003038 1.000000
tan 0.000000 -0.000000 -1.002232 1.000000
tan -0.000434 -0.055118 -1.000062 1.000000
tan 0.000310 0.007874 -1.001550 1.000000
tan 0.000000 -0.000000 -1.002232 1.000000
tan 0.000000 -0.000000 -1.003038 1.000000
tan 0.000000 -0.000000 -1.001550 1.000000
tan 0.000372 0.007874 -1.002232 1.000000
tan 0.000434 0.007874 -1.003038 1.000000
tan 0.000310 0.007874 -1.001550 1.000000
tan 0.000620 0.015748 -1.001550 1.000000
tan 0.000372 0.007874 -1.002232 1.000000
tan 0.001240 0.039370 -1.000992 1.000000
tan 0.001240 0.039370 -1.000992 1.000000
tan 0.001240 0.031496 -1.001550 1.000000
tan 0.000992 0.031496 -1.000992 1.000000
tan 0.001240 0.039370 -1.000992 1.000000
tan 0.001488 0.062992 -1.000558 1.000000
tan 0.001116 0.070866 -1.000248 1.000000
tan -0.001860 0.078740 -1.000558 1.000000
tan -0.002232 0.094488 -0.992684 1.000000
tan -0.000992 0.062992 -1.000248 1.000000
tan -0.006448 0.102362 -0.996094 1.000000
tan -0.008432 0.133858 -0.996094 1.000000
tan 0.000000 0.007874 -1.000000 1.000000
tan 0.000000 0.110794 -0.997148 1.000000
tan -0.004030 0.150226 -0.990452 1.000000
tan -0.004340 0.078740 -0.995164 1.000000
tan -0.006138 0.086614 -0.997148 1.000000
tan -0.000372 0.007874 -1.002232 1.000000
tan -0.000496 0.007874 -1.003968 1.000000
tan -0.000062 0.007874 -1.000062 1.000000
tan -0.000372 0.007874 -1.002232 1.000000
tan -0.000496 0.007874 -1.003968 1.000000
tan 0.000000 0.023622 -1.000000 1.000000
tan -0.002604 0.055118 -1.002232 1.000000
tan -0.003906 0.070866 -0.995164 1.000000
tan 0.000062 0.007874 -1.000062 1.000000
tan 0.001860 -0.047244 -1.001550 1.000000
tan -0.000620 0.015748 -1.001550 1.000000
tan -0.000868 0.015748 -1.003038 1.000000
tan 0.001860 -0.039370 -1.002232 1.000000
f 3/3/3 2/2/2 1/1/1
f 4/4/4 1/1/1 2/2/2
f 2/2/2 5/5/5 4/4/4
f 4/4/4 6/6/6 1/1/1
f 7/7/7 1/1/1 6/6/6
f 8/8/8 4/4/4 5/5/5
f 5/5/5 9/9/9 8/8/8
f 6/6/6 4/4/4 10/10/10
f 8/8/8 10/10/10 4/4/4
f 6/6/6 11/11/11 7/7/7
f 12/12/12 7/7/7 11/11/11
f 10/10/10 13/13/13 6/6/6
f 11/11/11 6/6/6 13/13/13
f 11/11/11 14/14/14 12/12/12
f 15/15/15 12/12/12 14/14/14
f 13/13/13 16/16/16 11/11/11
f 14/14/14 11/11/11 16/16/16
f 14/14/14 17/17/17 15/15/15
f 18/18/18 15/15/15 17/17/17
f 16/16/16 19/19/19 14/14/14
f 17/17/17 14/14/14 19/19/19
f 17/17/17 20/20/20 18/18/18
f 21/21/21 18/18/18 20/20/20
f 21/21/21 20/20/20 22/22/22
f 23/23/23 22/22/22 20/20/20
f 20/20/20 17/17/17 24/24/24
f 20/20/20 24/24/24 23/23/23
f 19/19/19 24/24/24 17/17/17
f 25/25/25 23/23/23 24/24/24
f 24/24/24 26/26/26 25/25/25
f 24/24/24 19/19/19 26/26/26
f 27/27/27 25/25/25 26/26/26
f 28/28/28 26/26/26 19/19/19
f 19/19/19 16/16/16 28/28/28
f 26/26/26 29/29/29 27/27/27
f 26/26/26 28/28/28 29/29/29
f 30/30/30 27/27/27 29/29/29
f 31/31/31 28/28/28 16/16/16
f 16/16/16 13/13/13 31/31/31
f 29/29/29 32/32/32 30/30/30
f 33/33/33 30/30/30 32/32/32
f 34/34/34 29/29/29 28/28/28
f 29/29/29 34/34/34 32/32/32
f 28/28/28 31/31/31 34/34/34
f 35/35/35 32/32/32 34/34/34
f 34/34/34 36/36/36 35/35/35
f 36/36/36 34/34/34 31/31/31
f 37/37/37 35/35/35 36/36/36
f 38/38/38 31/31/31 13/13/13
f 31/31/31 38/38/38 36/36/36
f 13/13/13 10/10/10 38/38/38
f 36/36/36 39/39/39 37/37/37
f 39/39/39 36/36/36 38/38/38
f 40/40/40 37/37/37 39/39/39
f 41/41/41 38/38/38 10/10/10
f 38/38/38 41/41/41 39/39/39
f 10/10/10 8/8/8 41/41/41
f 39/39/39 42/42/42 40/40/40
f 42/42/42 39/39/39 41/41/41
f 43/43/43 40/40/40 42/42/42
f 44/44/44 41/41/41 8/8/8
f 41/41/41 44/44/44 42/42/42
f 44/44/44 8/8/8 9/9/9
f 9/9/9 45/45/45 44/44/44
f 42/42/42 46/46/46 43/43/43
f 46/46/46 42/42/42 44/44/44
f 46/46/46 44/44/44 45/45/45
f 47/47/47 43/43/43 46/46/46
f 45/45/45 48/48/48 46/46/46
f 47/47/47 46/46/46 48/48/48
