mtllib SM_Pot_09_LOD3.mtl
g SM_Pot_09_LOD3
#Vertices 119
#Indices 132
#Section 0 Offset 0 NumIndices 132 MaterialIndex 0 MI_Pots
v -0.020113 0.010733 0.043379
v 0.024102 -0.003144 0.042317
v -0.000530 -0.001563 0.000000
v -0.037808 -0.002295 0.031692
v -0.020113 0.010733 0.043379
v -0.000530 -0.001563 0.000000
v 0.013135 0.015620 0.064329
v -0.020113 0.010733 0.043379
v -0.000530 0.008279 -0.000000
v 0.078444 0.012446 0.011797
v 0.024102 -0.003144 0.042317
v 0.075035 0.014692 0.050928
v 0.024102 -0.003144 0.042317
v 0.078444 0.012446 0.011797
v 0.043585 -0.003786 -0.023622
v 0.072506 0.021966 0.012860
v 0.075035 0.014692 0.050928
v 0.033658 0.007047 0.035028
v 0.072506 0.021966 0.012860
v 0.033658 0.007047 0.035028
v 0.047717 0.008055 -0.007112
v 0.075035 0.014692 0.050928
v 0.024102 -0.003144 0.042317
v 0.057154 0.020334 0.075154
v 0.057154 0.020334 0.075154
v 0.033658 0.007047 0.035028
v 0.075035 0.014692 0.050928
v 0.057154 0.020334 0.075154
v 0.024102 -0.003144 0.042317
v 0.013135 0.015620 0.064329
v 0.013135 0.015620 0.064329
v 0.033658 0.007047 0.035028
v 0.057154 0.020334 0.075154
v -0.020113 0.010733 0.043379
v 0.013135 0.015620 0.064329
v 0.024102 -0.003144 0.042317
v -0.020113 0.010733 0.043379
v -0.037808 -0.002295 0.031692
v -0.068254 0.019894 0.063082
v -0.080515 0.012939 0.011616
v -0.068254 0.019894 0.063082
v -0.037808 -0.002295 0.031692
v -0.073638 0.022121 0.012862
v -0.020113 0.010733 0.043379
v -0.068254 0.019894 0.063082
v -0.020113 0.010733 0.043379
v -0.073638 0.022121 0.012862
v -0.062999 0.012829 -0.018060
v -0.043342 -0.003142 -0.022007
v -0.080515 0.012939 0.011616
v -0.037808 -0.002295 0.031692
v -0.080515 0.012939 0.011616
v -0.043342 -0.003142 -0.022007
v -0.062999 0.012829 -0.018060
v -0.043342 -0.003142 -0.022007
v -0.047513 0.017700 -0.047695
v -0.062999 0.012829 -0.018060
v -0.047513 0.017700 -0.047695
v -0.043342 -0.003142 -0.022007
v -0.024478 0.021208 -0.093684
v -0.043342 -0.003142 -0.022007
v -0.004120 0.001419 -0.062854
v -0.024478 0.021208 -0.093684
v -0.047513 0.017700 -0.047695
v -0.024478 0.021208 -0.093684
v -0.004120 0.001419 -0.062854
v -0.004120 0.001419 -0.062854
v 0.043585 -0.003786 -0.023622
v 0.055273 0.039561 -0.055159
v 0.055273 0.039561 -0.055159
v 0.026157 0.008186 -0.040492
v -0.004120 0.001419 -0.062854
v 0.055273 0.039561 -0.055159
v 0.043585 -0.003786 -0.023622
v 0.084217 0.018976 -0.027404
v 0.055273 0.039561 -0.055159
v 0.047717 0.008055 -0.007112
v 0.026157 0.008186 -0.040492
v 0.047717 0.008055 -0.007112
v 0.055273 0.039561 -0.055159
v 0.084217 0.018976 -0.027404
v 0.084217 0.018976 -0.027404
v 0.043585 -0.003786 -0.023622
v 0.078444 0.012446 0.011797
v 0.072506 0.021966 0.012860
v 0.047717 0.008055 -0.007112
v 0.084217 0.018976 -0.027404
v 0.078444 0.012446 0.011797
v 0.075035 0.014692 0.050928
v 0.072506 0.021966 0.012860
v -0.073638 0.022121 0.012862
v -0.068254 0.019894 0.063082
v -0.080515 0.012939 0.011616
v -0.062999 0.012829 -0.018060
v -0.073638 0.022121 0.012862
v -0.080515 0.012939 0.011616
v 0.084217 0.018976 -0.027404
v 0.078444 0.012446 0.011797
v 0.072506 0.021966 0.012860
v 0.047717 0.008055 -0.007112
v 0.033658 0.007047 0.035028
v -0.000530 0.008279 -0.000000
v 0.033658 0.007047 0.035028
v 0.013135 0.015620 0.064329
v -0.020113 0.010733 0.043379
v -0.062999 0.012829 -0.018060
v -0.047513 0.017700 -0.047695
v -0.004120 0.001419 -0.062854
v -0.062999 0.012829 -0.018060
v -0.047513 0.017700 -0.047695
v 0.026157 0.008186 -0.040492
v 0.047717 0.008055 -0.007112
v -0.004120 0.001419 -0.062854
v 0.024102 -0.003144 0.042317
v 0.043585 -0.003786 -0.023622
v -0.000530 -0.001563 0.000000
v -0.004120 0.001419 -0.062854
v -0.043342 -0.003142 -0.022007
v -0.037808 -0.002295 0.031692
vt 0.546875 0.935669
vt 0.566406 0.945984
vt 0.545898 0.959198
vt 0.536621 0.936768
vt 0.546875 0.935730
vt 0.545898 0.959198
vt 0.750977 0.961548
vt 0.748047 0.943420
vt 0.769531 0.935242
vt 0.693848 0.951508
vt 0.675293 0.926025
vt 0.700684 0.933411
vt 0.675781 0.926208
vt 0.693848 0.951263
vt 0.669922 0.958130
vt 0.791016 0.967621
vt 0.777344 0.978607
vt 0.769531 0.958649
vt 0.791016 0.966980
vt 0.769043 0.959106
vt 0.788574 0.950073
vt 0.700684 0.933411
vt 0.675293 0.926392
vt 0.698730 0.918457
vt 0.765137 0.982315
vt 0.769043 0.958923
vt 0.778809 0.978378
vt 0.698730 0.918213
vt 0.675293 0.925720
vt 0.678223 0.912781
vt 0.751953 0.963287
vt 0.769043 0.959076
vt 0.763672 0.981979
vt 0.660156 0.912781
vt 0.677734 0.912415
vt 0.675781 0.925903
vt 0.657227 0.914307
vt 0.647461 0.917969
vt 0.643066 0.895569
vt 0.623535 0.916321
vt 0.639648 0.895752
vt 0.647461 0.917969
vt 0.737305 0.913635
vt 0.748047 0.942719
vt 0.725586 0.933472
vt 0.746582 0.942993
vt 0.737793 0.913452
vt 0.752930 0.907166
vt 0.633301 0.939972
vt 0.623047 0.916626
vt 0.646973 0.918152
vt 0.623047 0.916504
vt 0.633301 0.940033
vt 0.623535 0.933228
vt 0.633789 0.940063
vt 0.622559 0.950256
vt 0.623047 0.935242
vt 0.623535 0.951447
vt 0.632812 0.939728
vt 0.623535 0.975891
vt 0.633301 0.939941
vt 0.640625 0.965668
vt 0.623535 0.976059
vt 0.770020 0.901611
vt 0.794434 0.893921
vt 0.790039 0.913452
vt 0.640625 0.964478
vt 0.668457 0.958588
vt 0.664062 0.979538
vt 0.808594 0.932312
vt 0.793457 0.930786
vt 0.790039 0.914124
vt 0.673828 0.980209
vt 0.668945 0.958344
vt 0.687988 0.970810
vt 0.809570 0.935669
vt 0.788574 0.949493
vt 0.792969 0.930603
vt 0.789062 0.949402
vt 0.810059 0.938141
vt 0.809570 0.954041
vt 0.687988 0.970825
vt 0.668945 0.958466
vt 0.693848 0.951721
vt 0.791992 0.966736
vt 0.788574 0.949585
vt 0.809082 0.955139
vt 0.695312 0.949829
vt 0.695801 0.933472
vt 0.698730 0.949951
vt 0.622070 0.911499
vt 0.640625 0.899353
vt 0.624023 0.914429
vt 0.612305 0.928833
vt 0.614746 0.909851
vt 0.619629 0.912720
vt 0.681641 0.971680
vt 0.699219 0.952698
vt 0.704102 0.955017
vt 0.788574 0.949493
vt 0.769043 0.959198
vt 0.769531 0.935242
vt 0.769043 0.959198
vt 0.751953 0.962128
vt 0.747559 0.942749
vt 0.753906 0.907593
vt 0.769531 0.902466
vt 0.790527 0.912537
vt 0.754395 0.907166
vt 0.769531 0.902588
vt 0.792969 0.930481
vt 0.788574 0.949493
vt 0.790039 0.912231
vt 0.566406 0.946014
vt 0.560059 0.979553
vt 0.545898 0.959198
vt 0.530273 0.986145
vt 0.521973 0.959290
vt 0.536621 0.936829
vt1 0.808594 0.670166
vt1 0.937988 0.738770
vt1 0.802246 0.826538
vt1 0.740234 0.677490
vt1 0.809570 0.670410
vt1 0.802246 0.826538
vt1 0.861816 0.451660
vt1 0.883789 0.331055
vt1 0.739746 0.276367
vt1 0.559570 0.765747
vt1 0.440430 0.598633
vt1 0.604980 0.646973
vt1 0.440918 0.600098
vt1 0.559570 0.764282
vt1 0.402832 0.809326
vt1 0.595703 0.492188
vt1 0.686035 0.565186
vt1 0.740234 0.432129
vt1 0.594727 0.487793
vt1 0.741699 0.435547
vt1 0.611328 0.375000
vt1 0.604492 0.647217
vt1 0.439941 0.600830
vt1 0.594238 0.548828
vt1 0.767578 0.589844
vt1 0.743652 0.434082
vt1 0.678223 0.563721
vt1 0.593750 0.547363
vt1 0.439941 0.596924
vt1 0.457275 0.511719
vt1 0.857422 0.463379
vt1 0.741699 0.435547
vt1 0.776855 0.587646
vt1 0.339844 0.511963
vt1 0.454102 0.509277
vt1 0.442139 0.598145
vt1 0.321045 0.521973
vt1 0.257080 0.545898
vt1 0.228882 0.399414
vt1 0.098572 0.534912
vt1 0.206543 0.400391
vt1 0.256836 0.545898
vt1 0.955078 0.132324
vt1 0.880859 0.326172
vt1 1.030273 0.264648
vt1 0.891113 0.328125
vt1 0.951172 0.131836
vt1 0.851074 0.089355
vt1 0.165161 0.690186
vt1 0.097839 0.537109
vt1 0.252686 0.546875
vt1 0.097900 0.536133
vt1 0.165039 0.690674
vt1 0.100342 0.645996
vt1 0.166016 0.690674
vt1 0.092468 0.757568
vt1 0.095581 0.659180
vt1 0.098328 0.765503
vt1 0.161377 0.688721
vt1 0.100281 0.925659
vt1 0.162476 0.690186
vt1 0.212158 0.858643
vt1 0.101257 0.926758
vt1 0.734375 0.052734
vt1 0.573730 0.001465
vt1 0.601562 0.131348
vt1 0.211060 0.850952
vt1 0.395996 0.812256
vt1 0.364502 0.949554
vt1 0.478271 0.256836
vt1 0.578613 0.247070
vt1 0.602051 0.135742
vt1 0.429443 0.954010
vt1 0.396973 0.810669
vt1 0.521973 0.892334
vt1 0.471680 0.279297
vt1 0.611816 0.371582
vt1 0.583984 0.245605
vt1 0.610352 0.370605
vt1 0.469727 0.295898
vt1 0.473145 0.401855
vt1 0.521484 0.892517
vt1 0.397705 0.811401
vt1 0.559570 0.767212
vt1 0.590332 0.486328
vt1 0.611328 0.372070
vt1 0.475830 0.409180
vt1 0.570312 0.754883
vt1 0.572266 0.647461
vt1 0.593262 0.755615
vt1 0.088928 0.503418
vt1 0.212524 0.423828
vt1 0.101868 0.522705
vt1 0.026978 0.616943
vt1 0.042877 0.492676
vt1 0.074280 0.511475
vt1 0.480469 0.898071
vt1 0.597168 0.773560
vt1 0.628418 0.788940
vt1 0.611816 0.371582
vt1 0.741211 0.436035
vt1 0.739746 0.276367
vt1 0.741699 0.436035
vt1 0.856445 0.455566
vt1 0.884766 0.326660
vt1 0.842773 0.092285
vt1 0.738281 0.058105
vt1 0.600098 0.125488
vt1 0.839844 0.089844
vt1 0.738281 0.059082
vt1 0.584961 0.244629
vt1 0.611816 0.371582
vt1 0.603027 0.123535
vt1 0.938477 0.739014
vt1 0.896973 0.962189
vt1 0.802246 0.826538
vt1 0.697266 1.006062
vt1 0.643066 0.827148
vt1 0.740234 0.677490
vn -0.110236 -0.960630 0.244095
vn 0.141732 -0.960630 0.236221
vn 0.000000 -1.000000 0.000000
vn -0.212598 -0.960630 0.181102
vn -0.110236 -0.960630 0.244095
vn 0.000000 -1.000000 0.000000
vn -0.062992 0.929134 -0.362205
vn 0.110236 0.960630 -0.244095
vn 0.000000 1.000000 -0.000000
vn 0.433071 -0.897638 0.062992
vn 0.149606 -0.960630 0.236221
vn 0.401575 -0.874016 0.267717
vn 0.149606 -0.960630 0.236221
vn 0.433071 -0.897638 0.062992
vn 0.267717 -0.952756 -0.118110
vn -0.472441 0.881890 -0.094488
vn -0.448819 0.834646 -0.307087
vn -0.181102 0.960630 -0.188976
vn -0.464567 0.881890 -0.086614
vn -0.188976 0.960630 -0.196850
vn -0.267717 0.960630 0.039370
vn 0.401575 -0.874016 0.267717
vn 0.141732 -0.960630 0.236221
vn 0.307087 -0.866142 0.401575
vn -0.377953 0.811023 -0.448819
vn -0.188976 0.960630 -0.196850
vn -0.456693 0.842520 -0.299213
vn 0.307087 -0.866142 0.401575
vn 0.133858 -0.960630 0.244095
vn 0.086614 -0.921260 0.377953
vn -0.094488 0.913386 -0.385827
vn -0.188976 0.960630 -0.196850
vn -0.354331 0.811023 -0.456693
vn -0.102362 -0.952756 0.299213
vn 0.078740 -0.921260 0.377953
vn 0.141732 -0.960630 0.244095
vn -0.125984 -0.952756 0.267717
vn -0.212598 -0.960630 0.181102
vn -0.338583 -0.874016 0.354331
vn -0.433071 -0.897638 0.062992
vn -0.362205 -0.866142 0.338583
vn -0.212598 -0.960630 0.181102
vn 0.472441 0.881890 -0.094488
vn 0.094488 0.968504 -0.228347
vn 0.393701 0.842520 -0.362205
vn 0.110236 0.968504 -0.236221
vn 0.464567 0.881890 -0.094488
vn 0.354331 0.929134 0.086614
vn -0.244094 -0.960630 -0.125984
vn -0.433071 -0.897638 0.062992
vn -0.236220 -0.960630 0.173228
vn -0.433071 -0.897638 0.062992
vn -0.244094 -0.960630 -0.125984
vn -0.362205 -0.929134 -0.102362
vn -0.244094 -0.960630 -0.125984
vn -0.283465 -0.921260 -0.275590
vn -0.354331 -0.929134 -0.125984
vn -0.267717 -0.921260 -0.283464
vn -0.244094 -0.960630 -0.141732
vn -0.125984 -0.858268 -0.496063
vn -0.244094 -0.960630 -0.133858
vn -0.015748 -0.937008 -0.346457
vn -0.125984 -0.858268 -0.496063
vn 0.275591 0.913386 0.299212
vn 0.149606 0.803150 0.574803
vn 0.007874 0.937008 0.354331
vn -0.015748 -0.944882 -0.338583
vn 0.236220 -0.960630 -0.149606
vn 0.275591 -0.897638 -0.354331
vn -0.314961 0.874016 0.370079
vn -0.157480 0.960630 0.236220
vn 0.007874 0.937008 0.346457
vn 0.370079 -0.874016 -0.307086
vn 0.244094 -0.960630 -0.133858
vn 0.456693 -0.874016 -0.149606
vn -0.354331 0.866142 0.338583
vn -0.267717 0.960630 0.039370
vn -0.141732 0.960630 0.220472
vn -0.267717 0.960630 0.039370
vn -0.377953 0.866142 0.330709
vn -0.519685 0.834646 0.188976
vn 0.456693 -0.874016 -0.149606
vn 0.251969 -0.960630 -0.133858
vn 0.433071 -0.897638 0.062992
vn -0.464567 0.881890 -0.078740
vn -0.275591 0.960630 0.039370
vn -0.519685 0.834646 0.173228
vn 0.700787 -0.700787 0.118110
vn 0.614173 -0.653543 0.440945
vn 0.811024 0.559055 0.173228
vn -0.803150 0.566929 0.173228
vn -0.732283 0.031496 0.677165
vn -0.708661 -0.700787 0.110236
vn -0.322835 0.944882 -0.047244
vn -0.110236 0.992126 0.031496
vn -0.464567 0.889764 0.031496
vn 0.614173 0.779527 -0.078740
vn 0.448819 0.889764 0.031496
vn 0.118110 0.992126 0.031496
vn -0.275591 0.960630 0.039370
vn -0.196850 0.960630 -0.196850
vn 0.000000 1.000000 -0.000000
vn -0.196850 0.960630 -0.196850
vn -0.078740 0.929134 -0.354331
vn 0.118110 0.960630 -0.236221
vn 0.346457 0.929134 0.094488
vn 0.259843 0.929134 0.267716
vn 0.015748 0.937008 0.354331
vn 0.346457 0.929134 0.102362
vn 0.259843 0.929134 0.267716
vn -0.149606 0.960630 0.228346
vn -0.275591 0.960630 0.039370
vn 0.023622 0.937008 0.354331
vn 0.141732 -0.960630 0.236221
vn 0.251969 -0.960630 -0.133858
vn 0.000000 -1.000000 0.000000
vn -0.023622 -0.937008 -0.354331
vn -0.244094 -0.960630 -0.125984
vn -0.212598 -0.960630 0.181102
tan -0.355509 0.267593 0.892554 1.000000
tan -0.378201 0.161820 0.884990 1.000000
tan -0.456693 0.000000 0.889764 1.000000
tan -0.468969 0.262075 0.839606 1.000000
tan -0.385765 0.267221 0.877426 1.000000
tan -0.456693 0.000000 0.889764 1.000000
tan -0.490173 -0.341249 -0.790129 1.000000
tan -0.597557 -0.121706 -0.748837 1.000000
tan -0.708661 -0.000000 -0.708661 1.000000
tan -0.587141 -0.235414 0.681939 1.000000
tan -0.355509 0.164114 0.892554 1.000000
tan -0.483849 0.002108 0.732655 1.000000
tan -0.400893 0.151466 0.869862 1.000000
tan -0.614917 -0.251038 0.650257 1.000000
tan -0.495133 -0.239568 0.810218 1.000000
tan -0.811706 -0.471697 -0.343977 1.000000
tan -0.683489 -0.544051 -0.479757 1.000000
tan -0.642941 -0.261083 -0.711017 1.000000
tan -0.812450 -0.462087 -0.347201 1.000000
tan -0.658069 -0.273607 -0.703453 1.000000
tan -0.771530 -0.191456 -0.574865 1.000000
tan -0.442557 0.029512 0.760183 1.000000
tan -0.378201 0.161820 0.884990 1.000000
tan -0.310063 0.267469 0.813999 1.000000
tan -0.485337 -0.586645 -0.651373 1.000000
tan -0.703453 -0.271685 -0.650505 1.000000
tan -0.680947 -0.544733 -0.494513 1.000000
tan -0.245520 0.298717 0.832042 1.000000
tan -0.423585 0.160084 0.862298 1.000000
tan -0.253890 0.339203 0.884990 1.000000
tan -0.417137 -0.386447 -0.812697 1.000000
tan -0.688325 -0.273359 -0.673197 1.000000
tan -0.485337 -0.578833 -0.651373 1.000000
tan -0.337591 0.316635 0.892740 1.000000
tan -0.261144 0.340753 0.884990 1.000000
tan -0.385765 0.167958 0.884990 1.000000
tan -0.360097 0.296361 0.885238 1.000000
tan -0.453841 0.260153 0.847170 1.000000
tan -0.385393 0.467357 0.784549 1.000000
tan -0.657325 0.359787 0.607849 1.000000
tan -0.436481 0.475789 0.750201 1.000000
tan -0.431149 0.256557 0.854734 1.000000
tan -0.792362 0.382417 -0.392585 1.000000
tan -0.564325 -0.130138 -0.785479 1.000000
tan -0.666253 0.087544 -0.520553 1.000000
tan -0.625333 -0.109244 -0.739723 1.000000
tan -0.806250 0.384897 -0.371691 1.000000
tan -0.804762 0.349867 -0.460909 1.000000
tan -0.499225 0.019716 0.816914 1.000000
tan -0.643189 0.353959 0.621985 1.000000
tan -0.416021 0.257797 0.862298 1.000000
tan -0.685597 0.371443 0.579577 1.000000
tan -0.446277 0.002294 0.847170 1.000000
tan -0.614545 0.162998 0.695021 1.000000
tan -0.438713 -0.000620 0.854734 1.000000
tan -0.420733 -0.115754 0.819704 1.000000
tan -0.599913 0.132556 0.709653 1.000000
tan -0.377209 -0.149296 0.841466 1.000000
tan -0.491661 0.003286 0.824478 1.000000
tan -0.189224 -0.456569 0.837994 1.000000
tan -0.438713 -0.007626 0.854734 1.000000
tan -0.272987 -0.325501 0.892740 1.000000
tan -0.172856 -0.459545 0.838986 1.000000
tan -0.575361 0.404489 -0.704817 1.000000
tan -0.219542 0.592225 -0.770351 1.000000
tan -0.457437 0.313534 -0.818960 1.000000
tan -0.193440 -0.327360 0.922562 1.000000
tan -0.537045 -0.255750 0.794222 1.000000
tan -0.360469 -0.434311 0.819890 1.000000
tan -0.543679 0.092566 -0.681319 1.000000
tan -0.642941 0.069440 -0.711017 1.000000
tan -0.376279 0.319611 -0.855850 1.000000
tan -0.447331 -0.452973 0.750139 1.000000
tan -0.416021 -0.225866 0.862298 1.000000
tan -0.640027 -0.435737 0.591853 1.000000
tan -0.688821 -0.076508 -0.525141 1.000000
tan -0.711017 -0.171802 -0.642941 1.000000
tan -0.673197 0.058652 -0.688325 1.000000
tan -0.748837 -0.183892 -0.605121 1.000000
tan -0.695641 -0.108252 -0.511501 1.000000
tan -0.776986 -0.412921 -0.312977 1.000000
tan -0.626263 -0.432079 0.612499 1.000000
tan -0.416021 -0.229276 0.862298 1.000000
tan -0.728005 -0.314031 0.530101 1.000000
tan -0.734205 -0.431149 -0.497055 1.000000
tan -0.733709 -0.185070 -0.620249 1.000000
tan -0.752186 -0.383285 -0.409821 1.000000
tan -0.706491 -0.675801 0.182094 1.000000
tan -0.670469 -0.304297 0.482857 1.000000
tan -0.518941 0.565193 0.605555 1.000000
tan 0.408581 0.345465 0.763717 1.000000
tan 0.580693 0.524335 0.603571 1.000000
tan -0.685721 0.708289 0.094488 1.000000
tan 0.572881 0.233307 0.751441 1.000000
tan 0.210924 -0.007316 0.968690 1.000000
tan 0.658813 0.322525 0.606175 1.000000
tan 0.754975 -0.574989 0.196416 1.000000
tan 0.721371 -0.382355 0.521979 1.000000
tan 0.328105 -0.068820 0.937442 1.000000
tan -0.801786 -0.208630 -0.521917 1.000000
tan -0.673197 -0.279001 -0.688325 1.000000
tan -0.708661 -0.000000 -0.708661 1.000000
tan -0.680761 -0.277451 -0.673197 1.000000
tan -0.504805 -0.341311 -0.782813 1.000000
tan -0.620249 -0.104160 -0.733709 1.000000
tan -0.804762 0.346953 -0.460909 1.000000
tan -0.665757 0.373799 -0.651125 1.000000
tan -0.479571 0.312171 -0.804204 1.000000
tan -0.768182 0.343667 -0.519437 1.000000
tan -0.658441 0.373861 -0.658441 1.000000
tan -0.650505 0.067704 -0.711017 1.000000
tan -0.756402 -0.192820 -0.589993 1.000000
tan -0.516461 0.308761 -0.782070 1.000000
tan -0.370637 0.162936 0.884990 1.000000
tan -0.544609 -0.253518 0.794222 1.000000
tan -0.456693 0.000000 0.889764 1.000000
tan -0.287743 -0.330337 0.892740 1.000000
tan -0.468969 0.009052 0.839606 1.000000
tan -0.499225 0.265919 0.824477 1.000000
f 3/3/3 2/2/2 1/1/1
f 6/6/6 5/5/5 4/4/4
f 9/9/9 8/8/8 7/7/7
f 12/12/12 11/11/11 10/10/10
f 15/15/15 14/14/14 13/13/13
f 18/18/18 17/17/17 16/16/16
f 21/21/21 20/20/20 19/19/19
f 24/24/24 23/23/23 22/22/22
f 27/27/27 26/26/26 25/25/25
f 30/30/30 29/29/29 28/28/28
f 33/33/33 32/32/32 31/31/31
f 36/36/36 35/35/35 34/34/34
f 39/39/39 38/38/38 37/37/37
f 42/42/42 41/41/41 40/40/40
f 45/45/45 44/44/44 43/43/43
f 48/48/48 47/47/47 46/46/46
f 51/51/51 50/50/50 49/49/49
f 54/54/54 53/53/53 52/52/52
f 57/57/57 56/56/56 55/55/55
f 60/60/60 59/59/59 58/58/58
f 63/63/63 62/62/62 61/61/61
f 66/66/66 65/65/65 64/64/64
f 69/69/69 68/68/68 67/67/67
f 72/72/72 71/71/71 70/70/70
f 75/75/75 74/74/74 73/73/73
f 78/78/78 77/77/77 76/76/76
f 81/81/81 80/80/80 79/79/79
f 84/84/84 83/83/83 82/82/82
f 87/87/87 86/86/86 85/85/85
f 90/90/90 89/89/89 88/88/88
f 93/93/93 92/92/92 91/91/91
f 96/96/96 95/95/95 94/94/94
f 99/99/99 98/98/98 97/97/97
f 102/102/102 101/101/101 100/100/100
f 102/102/102 104/104/104 103/103/103
f 102/102/102 106/106/106 105/105/105
f 102/102/102 108/108/108 107/107/107
f 102/102/102 110/110/110 109/109/109
f 102/102/102 112/112/112 111/111/111
f 102/102/102 111/111/111 113/113/113
f 116/116/116 115/115/115 114/114/114
f 116/116/116 117/117/117 115/115/115
f 116/116/116 118/118/118 117/117/117
f 116/116/116 119/119/119 118/118/118
