mtllib SM_PaperPen_0q.mtl
g SM_PaperPen_0q
#Vertices 121
#Indices 252
#Section 0 Offset 0 NumIndices 252 MaterialIndex 0 MI_PaperPen
v -0.000228 0.004996 -0.147501
v 0.000228 0.004996 -0.147501
v 0.000000 0.005779 -0.147502
v -0.000456 0.005779 -0.147502
v -0.000228 0.004996 -0.147501
v 0.000000 0.005779 -0.147502
v -0.000228 0.006562 -0.147502
v -0.000456 0.005779 -0.147502
v 0.000000 0.005779 -0.147502
v 0.000228 0.006562 -0.147502
v -0.000228 0.006562 -0.147502
v 0.000000 0.005779 -0.147502
v 0.000456 0.005779 -0.147501
v 0.000228 0.006562 -0.147502
v 0.000000 0.005779 -0.147502
v 0.000228 0.004996 -0.147501
v 0.000456 0.005779 -0.147501
v 0.000000 0.005779 -0.147502
v 0.000456 0.005779 -0.147501
v 0.001230 0.005779 -0.130127
v 0.000228 0.006562 -0.147502
v 0.000615 0.007676 -0.130127
v 0.000228 0.004996 -0.147501
v 0.001230 0.005779 -0.130127
v 0.000456 0.005779 -0.147501
v 0.000615 0.003883 -0.130127
v -0.000228 0.004996 -0.147501
v -0.000615 0.003883 -0.130127
v 0.000228 0.004996 -0.147501
v 0.000615 0.003883 -0.130127
v -0.000456 0.005779 -0.147502
v -0.001230 0.005779 -0.130127
v -0.000228 0.004996 -0.147501
v -0.000615 0.003883 -0.130127
v -0.000228 0.006562 -0.147502
v -0.001230 0.005779 -0.130127
v -0.000456 0.005779 -0.147502
v -0.000615 0.007676 -0.130127
v 0.000228 0.006562 -0.147502
v 0.000615 0.007676 -0.130127
v -0.000228 0.006562 -0.147502
v -0.000615 0.007676 -0.130127
v 0.000615 0.003883 -0.130127
v -0.000615 0.003883 -0.130127
v -0.000785 0.003375 -0.129010
v 0.000785 0.003375 -0.129010
v -0.002552 -0.001226 -0.107912
v 0.002552 -0.001226 -0.107912
v 0.003791 -0.004247 -0.099974
v -0.003791 -0.004247 -0.099974
v -0.003586 -0.003106 -0.084837
v 0.003586 -0.003106 -0.084837
v -0.005917 -0.004115 0.036475
v 0.005917 -0.004115 0.036475
v -0.000615 0.003883 -0.130127
v -0.001230 0.005779 -0.130127
v -0.001569 0.005779 -0.129010
v -0.000785 0.003375 -0.129010
v -0.005104 0.005779 -0.107912
v -0.002552 -0.001226 -0.107912
v -0.007583 0.005779 -0.099974
v -0.003791 -0.004247 -0.099974
v -0.003586 -0.003106 -0.084837
v -0.007172 0.005779 -0.084837
v -0.011761 0.005779 0.034554
v -0.005917 -0.004115 0.036475
v -0.000615 0.007676 -0.130127
v 0.000615 0.007676 -0.130127
v 0.000785 0.008184 -0.129010
v -0.000785 0.008184 -0.129010
v 0.002552 0.012784 -0.107912
v -0.002552 0.012784 -0.107912
v -0.003791 0.015806 -0.099974
v 0.003791 0.015806 -0.099974
v 0.003586 0.014664 -0.084837
v -0.003586 0.014664 -0.084837
v 0.005843 0.015632 0.032634
v -0.005843 0.015632 0.032634
v 0.000615 0.007676 -0.130127
v 0.001230 0.005779 -0.130127
v 0.001569 0.005779 -0.129010
v 0.000785 0.008184 -0.129010
v 0.005104 0.005779 -0.107912
v 0.002552 0.012784 -0.107912
v 0.007583 0.005779 -0.099974
v 0.003791 0.015806 -0.099974
v 0.003586 0.014664 -0.084837
v 0.007172 0.005779 -0.084837
v 0.005843 0.015632 0.032634
v 0.011761 0.005779 0.034554
v -0.007172 0.005779 -0.084837
v -0.005843 0.015632 0.032634
v -0.011761 0.005779 0.034554
v -0.003586 0.014664 -0.084837
v -0.007583 0.005779 -0.099974
v -0.003791 0.015806 -0.099974
v -0.002552 0.012784 -0.107912
v -0.005104 0.005779 -0.107912
v -0.000785 0.008184 -0.129010
v -0.001569 0.005779 -0.129010
v -0.000615 0.007676 -0.130127
v -0.001230 0.005779 -0.130127
v 0.000615 0.003883 -0.130127
v 0.001569 0.005779 -0.129010
v 0.001230 0.005779 -0.130127
v 0.000785 0.003375 -0.129010
v 0.005104 0.005779 -0.107912
v 0.002552 -0.001226 -0.107912
v 0.007583 0.005779 -0.099974
v 0.003791 -0.004247 -0.099974
v 0.003586 -0.003106 -0.084837
v 0.007172 0.005779 -0.084837
v 0.011761 0.005779 0.034554
v 0.005917 -0.004115 0.036475
v 0.005917 -0.004115 0.036475
v -0.005917 -0.004115 0.036475
v 0.000000 0.005779 0.034554
v 0.011761 0.005779 0.034554
v -0.011761 0.005779 0.034554
v 0.005843 0.015632 0.032634
v -0.005843 0.015632 0.032634
vt 0.742188 0.667969
vt 0.743652 0.667480
vt 0.743652 0.670410
vt 0.742188 0.670654
vt 0.742188 0.667969
vt 0.743652 0.670410
vt 0.743652 0.673096
vt 0.742188 0.670654
vt 0.743652 0.670410
vt 0.745117 0.672607
vt 0.743652 0.673096
vt 0.743652 0.670410
vt 0.745117 0.669922
vt 0.745117 0.672607
vt 0.743652 0.670410
vt 0.743652 0.667480
vt 0.745117 0.669922
vt 0.743652 0.670410
vt 0.741211 0.645752
vt 0.736816 0.586670
vt 0.744141 0.645752
vt 0.743652 0.586426
vt 0.738281 0.645996
vt 0.736816 0.586670
vt 0.741211 0.645752
vt 0.730469 0.587402
vt 0.736816 0.646240
vt 0.726074 0.587891
vt 0.738281 0.645996
vt 0.730469 0.587402
vt 0.748535 0.645996
vt 0.754883 0.587158
vt 0.750977 0.646240
vt 0.761719 0.587891
vt 0.745605 0.645752
vt 0.754883 0.587158
vt 0.748535 0.645996
vt 0.748047 0.586426
vt 0.744141 0.645752
vt 0.743652 0.586426
vt 0.745605 0.645752
vt 0.748047 0.586426
vt 0.790527 0.000488
vt 0.793945 0.002930
vt 0.791504 0.006348
vt 0.787109 0.003418
vt 0.756836 0.073242
vt 0.741699 0.065430
vt 0.722656 0.093262
vt 0.745605 0.100586
vt 0.740723 0.153320
vt 0.716309 0.150391
vt 0.719727 0.567139
vt 0.679199 0.564209
vt 0.793945 0.002930
vt 0.801270 0.004883
vt 0.800293 0.008789
vt 0.791504 0.006348
vt 0.782227 0.079590
vt 0.756836 0.073242
vt 0.776855 0.106445
vt 0.745605 0.100586
vt 0.740723 0.153320
vt 0.773438 0.156250
vt 0.759277 0.562744
vt 0.719727 0.567139
vt 0.808594 0.006348
vt 0.813477 0.005859
vt 0.813965 0.010254
vt 0.808594 0.010742
vt 0.826172 0.081543
vt 0.808105 0.083008
vt 0.807617 0.109375
vt 0.829102 0.108887
vt 0.831543 0.157227
vt 0.806641 0.157715
vt 0.838867 0.556885
vt 0.798828 0.556885
vt 0.813477 0.005859
vt 0.820312 0.003418
vt 0.822266 0.006836
vt 0.813965 0.010254
vt 0.851074 0.075684
vt 0.826172 0.081543
vt 0.860352 0.103027
vt 0.829102 0.108887
vt 0.831543 0.157227
vt 0.864258 0.155273
vt 0.838867 0.556885
vt 0.878418 0.562744
vt 0.773438 0.156250
vt 0.798828 0.556885
vt 0.759277 0.562744
vt 0.806641 0.157715
vt 0.776855 0.106445
vt 0.807617 0.109375
vt 0.808105 0.083008
vt 0.782227 0.079590
vt 0.808594 0.010742
vt 0.800293 0.008789
vt 0.808594 0.006348
vt 0.801270 0.004883
vt 0.826660 0.000488
vt 0.822266 0.006836
vt 0.820312 0.003418
vt 0.830078 0.002930
vt 0.851074 0.075684
vt 0.875000 0.066406
vt 0.860352 0.103027
vt 0.893555 0.094727
vt 0.896973 0.152344
vt 0.864258 0.155273
vt 0.878418 0.562744
vt 0.917969 0.567139
vt 0.498779 0.816406
vt 0.519043 0.851196
vt 0.479248 0.851196
vt 0.458984 0.816772
vt 0.499756 0.885742
vt 0.439697 0.851440
vt 0.459961 0.885742
vt1 0.484131 0.968201
vt1 0.487793 0.980057
vt1 0.465576 0.980057
vt1 0.462158 0.968201
vt1 0.484131 0.968201
vt1 0.465576 0.980057
vt1 0.443359 0.980057
vt1 0.462158 0.968201
vt1 0.465576 0.980057
vt1 0.446777 0.991936
vt1 0.443359 0.980057
vt1 0.465576 0.980057
vt1 0.468994 0.991936
vt1 0.446777 0.991936
vt1 0.465576 0.980057
vt1 0.487793 0.980057
vt1 0.468994 0.991936
vt1 0.465576 0.980057
vt1 0.884766 0.136719
vt1 0.414307 0.103516
vt1 0.883789 0.159180
vt1 0.411133 0.157715
vt1 0.886719 0.114746
vt1 0.414307 0.103516
vt1 0.884766 0.136719
vt1 0.418701 0.049805
vt1 0.888672 0.102539
vt1 0.424072 0.016602
vt1 0.886719 0.114746
vt1 0.418701 0.049805
vt1 0.886230 0.193359
vt1 0.416992 0.245117
vt1 0.888672 0.215332
vt1 0.423584 0.298828
vt1 0.883789 0.171387
vt1 0.416992 0.245117
vt1 0.886230 0.193359
vt1 0.411865 0.190918
vt1 0.883789 0.159180
vt1 0.411133 0.157715
vt1 0.883789 0.171387
vt1 0.411865 0.190918
vt1 0.201050 0.008789
vt1 0.207153 0.012695
vt1 0.203003 0.019043
vt1 0.195312 0.013672
vt1 0.142822 0.135254
vt1 0.116089 0.121582
vt1 0.083008 0.169434
vt1 0.122864 0.182617
vt1 0.114380 0.273926
vt1 0.071960 0.269043
vt1 0.078064 0.991936
vt1 0.008064 0.986809
vt1 0.207153 0.012695
vt1 0.219360 0.016602
vt1 0.217651 0.022949
vt1 0.203003 0.019043
vt1 0.186768 0.145996
vt1 0.142822 0.135254
vt1 0.177612 0.192383
vt1 0.122864 0.182617
vt1 0.114380 0.273926
vt1 0.171509 0.278809
vt1 0.146729 0.984421
vt1 0.078064 0.991936
vt1 0.232300 0.019043
vt1 0.240723 0.018066
vt1 0.241943 0.025391
vt1 0.232422 0.026367
vt1 0.262695 0.149414
vt1 0.231567 0.151367
vt1 0.230957 0.197266
vt1 0.267578 0.197266
vt1 0.271973 0.280762
vt1 0.228882 0.281250
vt1 0.284912 0.974136
vt1 0.215332 0.974213
vt1 0.240723 0.018066
vt1 0.252686 0.014160
vt1 0.255859 0.020020
vt1 0.241943 0.025391
vt1 0.306396 0.139160
vt1 0.262695 0.149414
vt1 0.322021 0.187012
vt1 0.267578 0.197266
vt1 0.271973 0.280762
vt1 0.328857 0.276855
vt1 0.284912 0.974136
vt1 0.353271 0.984314
vt1 0.171509 0.278809
vt1 0.215332 0.974213
vt1 0.146729 0.984421
vt1 0.228882 0.281250
vt1 0.177612 0.192383
vt1 0.230957 0.197266
vt1 0.231567 0.151367
vt1 0.186768 0.145996
vt1 0.232422 0.026367
vt1 0.217651 0.022949
vt1 0.232300 0.019043
vt1 0.219360 0.016602
vt1 0.263428 0.008301
vt1 0.255859 0.020020
vt1 0.252686 0.014160
vt1 0.269287 0.013184
vt1 0.306396 0.139160
vt1 0.347900 0.123535
vt1 0.322021 0.187012
vt1 0.379639 0.172363
vt1 0.385742 0.271973
vt1 0.328857 0.276855
vt1 0.353271 0.984314
vt1 0.421875 0.991898
vt1 0.979492 0.442383
vt1 0.702637 0.279297
vt1 0.702148 0.596191
vt1 0.977051 0.758179
vt1 0.427246 0.434570
vt1 0.700684 0.911316
vt1 0.427490 0.750366
vn 0.000000 -0.000000 -1.000000
vn 0.000000 -0.000000 -1.000000
vn 0.000000 -0.000000 -1.000000
vn 0.000000 -0.000000 -1.000000
vn 0.000000 -0.000000 -1.000000
vn 0.000000 -0.000000 -1.000000
vn 0.000000 -0.000000 -1.000000
vn 0.000000 -0.000000 -1.000000
vn 0.000000 -0.000000 -1.000000
vn 0.000000 -0.000000 -1.000000
vn 0.000000 -0.000000 -1.000000
vn 0.000000 -0.000000 -1.000000
vn 0.000000 -0.000000 -1.000000
vn 0.000000 -0.000000 -1.000000
vn 0.000000 -0.000000 -1.000000
vn 0.000000 -0.000000 -1.000000
vn 0.000000 -0.000000 -1.000000
vn 0.000000 -0.000000 -1.000000
vn 0.952756 0.299213 -0.039370
vn 0.952756 0.299213 -0.062992
vn 0.952756 0.299213 -0.039370
vn 0.952756 0.299213 -0.070866
vn 0.952756 -0.299213 -0.039370
vn 0.952756 -0.299213 -0.062992
vn 0.952756 -0.299213 -0.039370
vn 0.952756 -0.299213 -0.070866
vn 0.000000 -1.000000 -0.062992
vn 0.000000 -0.992126 -0.102362
vn 0.000000 -1.000000 -0.062992
vn 0.000000 -0.992126 -0.102362
vn -0.952756 -0.299213 -0.039370
vn -0.952756 -0.299213 -0.062992
vn -0.952756 -0.299213 -0.039370
vn -0.952756 -0.299213 -0.070866
vn -0.952756 0.299213 -0.039370
vn -0.952756 0.299213 -0.062992
vn -0.952756 0.299213 -0.039370
vn -0.952756 0.299213 -0.070866
vn 0.000000 1.000000 -0.062992
vn 0.000000 0.992126 -0.102362
vn 0.000000 1.000000 -0.062992
vn 0.000000 0.992126 -0.102362
vn 0.000000 -0.992126 -0.102362
vn 0.000000 -0.992126 -0.102362
vn 0.000000 -0.976378 -0.220472
vn 0.000000 -0.976378 -0.220472
vn 0.000000 -0.960630 -0.283464
vn 0.000000 -0.960630 -0.283464
vn 0.000000 -1.000000 -0.055118
vn 0.000000 -1.000000 -0.055118
vn 0.000000 -1.000000 0.000000
vn 0.000000 -1.000000 0.000000
vn 0.000000 -1.000000 -0.007874
vn 0.000000 -1.000000 -0.007874
vn -0.952756 -0.299213 -0.070866
vn -0.952756 -0.299213 -0.062992
vn -0.929134 -0.330709 -0.157480
vn -0.929134 -0.330709 -0.157480
vn -0.921260 -0.330709 -0.204724
vn -0.921260 -0.330709 -0.212598
vn -0.929134 -0.362205 -0.062992
vn -0.929134 -0.362205 -0.055118
vn -0.897638 -0.440945 -0.023622
vn -0.897638 -0.440945 -0.023622
vn -0.889764 -0.448819 -0.023622
vn -0.889764 -0.448819 -0.023622
vn 0.000000 0.992126 -0.102362
vn 0.000000 0.992126 -0.102362
vn 0.000000 0.976378 -0.220473
vn 0.000000 0.976378 -0.220473
vn 0.000000 0.960630 -0.283465
vn 0.000000 0.960630 -0.283465
vn 0.000000 1.000000 -0.055118
vn 0.000000 1.000000 -0.055118
vn 0.000000 1.000000 -0.000000
vn 0.000000 1.000000 -0.000000
vn 0.000000 1.000000 -0.007874
vn 0.000000 1.000000 -0.007874
vn 0.952756 0.299213 -0.070866
vn 0.952756 0.299213 -0.062992
vn 0.929134 0.330709 -0.157480
vn 0.929134 0.330709 -0.157480
vn 0.921260 0.330709 -0.204724
vn 0.921260 0.330709 -0.212598
vn 0.929134 0.362205 -0.062992
vn 0.929134 0.362205 -0.055118
vn 0.897638 0.440945 -0.023622
vn 0.897638 0.440945 -0.023622
vn 0.889764 0.448819 -0.031496
vn 0.889764 0.448819 -0.031496
vn -0.897638 0.440945 -0.023622
vn -0.889764 0.448819 -0.031496
vn -0.889764 0.448819 -0.031496
vn -0.897638 0.440945 -0.023622
vn -0.929134 0.362205 -0.062992
vn -0.929134 0.362205 -0.055118
vn -0.921260 0.330709 -0.212598
vn -0.921260 0.330709 -0.204724
vn -0.929134 0.330709 -0.157480
vn -0.929134 0.330709 -0.157480
vn -0.952756 0.299213 -0.070866
vn -0.952756 0.299213 -0.062992
vn 0.952756 -0.299213 -0.070866
vn 0.929134 -0.330709 -0.157480
vn 0.952756 -0.299213 -0.062992
vn 0.929134 -0.330709 -0.157480
vn 0.921260 -0.330709 -0.204724
vn 0.921260 -0.330709 -0.212598
vn 0.929134 -0.362205 -0.062992
vn 0.929134 -0.362205 -0.055118
vn 0.897638 -0.440945 -0.023622
vn 0.897638 -0.440945 -0.023622
vn 0.889764 -0.448819 -0.023622
vn 0.889764 -0.448819 -0.023622
vn 0.000000 0.188976 0.984252
vn 0.000000 0.188976 0.984252
vn 0.000000 0.188976 0.984252
vn 0.000000 0.188976 0.984252
vn 0.000000 0.188976 0.984252
vn 0.000000 0.188976 0.984252
vn 0.000000 0.188976 0.984252
tan 0.283465 -0.960630 0.000000 1.000000
tan 0.283465 -0.960630 0.000000 1.000000
tan 0.283465 -0.960630 0.000000 1.000000
tan 0.283465 -0.960630 0.000000 1.000000
tan 0.283465 -0.960630 0.000000 1.000000
tan 0.283465 -0.960630 0.000000 1.000000
tan 0.283465 -0.960630 0.000000 1.000000
tan 0.283465 -0.960630 0.000000 1.000000
tan 0.283465 -0.960630 0.000000 1.000000
tan 0.283465 -0.960630 0.000000 1.000000
tan 0.283465 -0.960630 0.000000 1.000000
tan 0.283465 -0.960630 0.000000 1.000000
tan 0.283465 -0.960630 0.000000 1.000000
tan 0.283465 -0.960630 0.000000 1.000000
tan 0.283465 -0.960630 0.000000 1.000000
tan 0.283465 -0.960630 0.000000 1.000000
tan 0.283465 -0.960630 0.000000 1.000000
tan 0.283465 -0.960630 0.000000 1.000000
tan 0.021018 0.064294 0.997272 1.000000
tan 0.043524 0.071858 0.999628 1.000000
tan 0.021018 0.064294 0.997272 1.000000
tan 0.051026 0.074276 0.999628 1.000000
tan 0.063426 0.070742 0.997272 1.000000
tan 0.085932 0.064170 0.994916 1.000000
tan 0.063426 0.070742 0.997272 1.000000
tan 0.093434 0.061876 0.994916 1.000000
tan 0.157976 -0.062000 0.984252 1.000000
tan 0.157852 -0.100750 0.976502 1.000000
tan 0.157976 -0.062000 0.984252 1.000000
tan 0.157852 -0.100750 0.976502 1.000000
tan -0.074896 0.108562 0.987414 1.000000
tan -0.097712 0.101680 0.994916 1.000000
tan -0.074896 0.108562 0.987414 1.000000
tan -0.102858 0.091884 0.994916 1.000000
tan -0.008928 0.101804 0.989770 1.000000
tan -0.031248 0.109368 0.992126 1.000000
tan -0.008928 0.101804 0.989770 1.000000
tan -0.038688 0.111786 0.992126 1.000000
tan 0.015748 0.062992 1.000000 1.000000
tan 0.015624 0.102362 0.992126 1.000000
tan 0.015748 0.062992 1.000000 1.000000
tan 0.015624 0.102362 0.992126 1.000000
tan 0.576725 0.083824 -0.812449 1.000000
tan 0.576725 0.083824 -0.812449 1.000000
tan 0.533449 0.187488 -0.830306 1.000000
tan 0.573625 0.180544 -0.799553 1.000000
tan 0.394321 0.261144 -0.884990 1.000000
tan 0.469093 0.249984 -0.847170 1.000000
tan 0.315829 0.052080 -0.944882 1.000000
tan 0.221340 0.053816 -0.976378 1.000000
tan 0.094488 -0.000000 -0.992126 1.000000
tan 0.157480 -0.000000 -0.984252 1.000000
tan 0.070866 0.007874 -1.000000 1.000000
tan 0.086614 0.007812 -0.992126 1.000000
tan 0.150102 -0.251101 -0.957840 1.000000
tan 0.147064 -0.268213 -0.950338 1.000000
tan 0.238824 -0.219977 -0.947114 1.000000
tan 0.231012 -0.196788 -0.949718 1.000000
tan 0.273545 -0.174096 -0.949718 1.000000
tan 0.266911 -0.126666 -0.959576 1.000000
tan 0.115568 -0.124496 -0.988778 1.000000
tan 0.105400 -0.119908 -0.988778 1.000000
tan 0.062868 -0.074400 -1.000186 1.000000
tan 0.062868 -0.074400 -1.000186 1.000000
tan 0.052824 -0.052452 -0.993118 1.000000
tan 0.045756 -0.038440 -0.993118 1.000000
tan 0.094550 -0.101556 -0.984314 1.000000
tan 0.086738 -0.102362 -0.992126 1.000000
tan 0.072664 -0.220473 -0.976378 1.000000
tan 0.080352 -0.220473 -0.976378 1.000000
tan 0.049848 -0.283465 -0.960630 1.000000
tan 0.074772 -0.283465 -0.960630 1.000000
tan 0.023622 -0.055118 -1.000000 1.000000
tan 0.007874 -0.055118 -1.000000 1.000000
tan 0.015748 -0.000000 -1.000000 1.000000
tan 0.015748 -0.000000 -1.000000 1.000000
tan 0.000000 -0.007874 -1.000000 1.000000
tan 0.007874 -0.007874 -1.000000 1.000000
tan 0.045880 -0.366855 -0.932110 1.000000
tan 0.052824 -0.364437 -0.932110 1.000000
tan -0.017980 -0.386261 -0.917230 1.000000
tan -0.033480 -0.349681 -0.931862 1.000000
tan -0.093620 -0.324013 -0.944696 1.000000
tan -0.124806 -0.268957 -0.959204 1.000000
tan -0.000992 -0.169136 -0.987166 1.000000
tan 0.009548 -0.173600 -0.979850 1.000000
tan 0.020646 -0.095232 -0.993118 1.000000
tan -0.000372 -0.052824 -1.000186 1.000000
tan -0.010354 -0.049166 -0.993118 1.000000
tan -0.017422 -0.035154 -0.993118 1.000000
tan 0.003844 -0.045756 -1.000186 1.000000
tan 0.013888 -0.042160 -0.993118 1.000000
tan 0.020956 -0.028148 -0.993118 1.000000
tan -0.003100 -0.059892 -1.000186 1.000000
tan 0.027156 -0.103292 -0.994482 1.000000
tan 0.022692 -0.093124 -0.994482 1.000000
tan 0.156798 -0.185814 -0.968504 1.000000
tan 0.139128 -0.213591 -0.971108 1.000000
tan 0.085188 -0.224069 -0.973154 1.000000
tan 0.076136 -0.246017 -0.965838 1.000000
tan 0.004588 -0.216815 -0.977122 1.000000
tan -0.005084 -0.221899 -0.977122 1.000000
tan -0.199826 -0.425879 -0.888400 1.000000
tan -0.286193 -0.388369 -0.872962 1.000000
tan -0.196788 -0.442743 -0.873396 1.000000
tan -0.275653 -0.349309 -0.892802 1.000000
tan -0.307149 -0.299833 -0.897824 1.000000
tan -0.295741 -0.227665 -0.927398 1.000000
tan -0.134540 -0.176204 -0.971294 1.000000
tan -0.124496 -0.171554 -0.971294 1.000000
tan -0.069626 -0.088722 -0.989646 1.000000
tan -0.062868 -0.074400 -1.000186 1.000000
tan -0.052824 -0.052452 -0.993118 1.000000
tan -0.045756 -0.038440 -0.993118 1.000000
tan 0.860500 -0.496001 0.095232 1.000000
tan 0.860500 -0.496001 0.095232 1.000000
tan 0.860500 -0.496001 0.095232 1.000000
tan 0.860500 -0.496001 0.095232 1.000000
tan 0.860500 -0.496001 0.095232 1.000000
tan 0.860500 -0.496001 0.095232 1.000000
tan 0.860500 -0.496001 0.095232 1.000000
f 3/3/3 2/2/2 1/1/1
f 6/6/6 5/5/5 4/4/4
f 9/9/9 8/8/8 7/7/7
f 12/12/12 11/11/11 10/10/10
f 15/15/15 14/14/14 13/13/13
f 18/18/18 17/17/17 16/16/16
f 21/21/21 20/20/20 19/19/19
f 21/21/21 22/22/22 20/20/20
f 25/25/25 24/24/24 23/23/23
f 26/26/26 23/23/23 24/24/24
f 29/29/29 28/28/28 27/27/27
f 29/29/29 30/30/30 28/28/28
f 33/33/33 32/32/32 31/31/31
f 33/33/33 34/34/34 32/32/32
f 37/37/37 36/36/36 35/35/35
f 38/38/38 35/35/35 36/36/36
f 41/41/41 40/40/40 39/39/39
f 41/41/41 42/42/42 40/40/40
f 45/45/45 44/44/44 43/43/43
f 46/46/46 45/45/45 43/43/43
f 46/46/46 47/47/47 45/45/45
f 46/46/46 48/48/48 47/47/47
f 48/48/48 49/49/49 47/47/47
f 50/50/50 47/47/47 49/49/49
f 49/49/49 51/51/51 50/50/50
f 52/52/52 51/51/51 49/49/49
f 52/52/52 53/53/53 51/51/51
f 54/54/54 53/53/53 52/52/52
f 57/57/57 56/56/56 55/55/55
f 55/55/55 58/58/58 57/57/57
f 58/58/58 59/59/59 57/57/57
f 58/58/58 60/60/60 59/59/59
f 61/61/61 59/59/59 60/60/60
f 60/60/60 62/62/62 61/61/61
f 62/62/62 63/63/63 61/61/61
f 64/64/64 61/61/61 63/63/63
f 63/63/63 65/65/65 64/64/64
f 66/66/66 65/65/65 63/63/63
f 69/69/69 68/68/68 67/67/67
f 70/70/70 69/69/69 67/67/67
f 70/70/70 71/71/71 69/69/69
f 70/70/70 72/72/72 71/71/71
f 72/72/72 73/73/73 71/71/71
f 74/74/74 71/71/71 73/73/73
f 73/73/73 75/75/75 74/74/74
f 76/76/76 75/75/75 73/73/73
f 76/76/76 77/77/77 75/75/75
f 78/78/78 77/77/77 76/76/76
f 81/81/81 80/80/80 79/79/79
f 79/79/79 82/82/82 81/81/81
f 82/82/82 83/83/83 81/81/81
f 82/82/82 84/84/84 83/83/83
f 85/85/85 83/83/83 84/84/84
f 84/84/84 86/86/86 85/85/85
f 86/86/86 87/87/87 85/85/85
f 88/88/88 85/85/85 87/87/87
f 87/87/87 89/89/89 88/88/88
f 90/90/90 88/88/88 89/89/89
f 93/93/93 92/92/92 91/91/91
f 94/94/94 91/91/91 92/92/92
f 91/91/91 94/94/94 95/95/95
f 95/95/95 94/94/94 96/96/96
f 96/96/96 97/97/97 95/95/95
f 98/98/98 95/95/95 97/97/97
f 97/97/97 99/99/99 98/98/98
f 100/100/100 98/98/98 99/99/99
f 99/99/99 101/101/101 100/100/100
f 102/102/102 100/100/100 101/101/101
f 105/105/105 104/104/104 103/103/103
f 106/106/106 103/103/103 104/104/104
f 104/104/104 107/107/107 106/106/106
f 108/108/108 106/106/106 107/107/107
f 107/107/107 109/109/109 108/108/108
f 110/110/110 108/108/108 109/109/109
f 109/109/109 111/111/111 110/110/110
f 112/112/112 111/111/111 109/109/109
f 112/112/112 113/113/113 111/111/111
f 114/114/114 111/111/111 113/113/113
f 117/117/117 116/116/116 115/115/115
f 117/117/117 115/115/115 118/118/118
f 117/117/117 119/119/119 116/116/116
f 117/117/117 118/118/118 120/120/120
f 117/117/117 121/121/121 119/119/119
f 117/117/117 120/120/120 121/121/121
