mtllib SM_Paper_03_LOD2.mtl
g SM_Paper_03_LOD2
#Vertices 10
#Indices 12
#Section 0 Offset 0 NumIndices 12 MaterialIndex 0 MI_Paper_01
v 0.089496 -0.003856 0.083101
v -0.086080 -0.005648 0.095177
v -0.088770 -0.001690 0.063429
v 0.088610 -0.001311 -0.069918
v -0.088770 -0.004024 -0.077192
v -0.086340 0.002490 -0.096825
v 0.088610 -0.001311 -0.069918
v -0.088770 -0.001690 0.063429
v -0.088770 -0.004024 -0.077192
v 0.089496 -0.003856 0.083101
vt 0.301514 0.869507
vt 0.004597 0.890015
vt 0.000066 0.836182
vt 0.300049 0.610107
vt 0.000324 0.598389
vt 0.004345 0.563477
vt 0.300293 0.611084
vt 0.000066 0.836182
vt 0.000324 0.598389
vt 0.301514 0.869873
vt1 0.997070 0.858765
vt1 0.019119 0.911072
vt1 0.004185 0.773438
vt1 0.992676 0.196289
vt1 0.005035 0.166504
vt1 0.018280 0.077148
vt1 0.993164 0.198730
vt1 0.004185 0.773438
vt1 0.005035 0.166504
vt1 0.997070 0.859497
vn -0.007874 1.000000 -0.031496
vn -0.031496 0.984252 -0.149606
vn 0.000000 1.000000 0.007874
vn 0.000000 1.000000 0.031496
vn 0.000000 1.000000 -0.000000
vn 0.015748 0.968504 0.236220
vn 0.000000 1.000000 -0.000000
vn 0.000000 1.000000 0.007874
vn 0.000000 1.000000 -0.000000
vn 0.000000 1.000000 0.007874
tan 0.000000 -0.031496 -1.000000 1.000000
tan 0.000000 -0.149606 -0.984252 1.000000
tan 0.000000 0.007874 -1.000000 1.000000
tan 0.000000 0.031496 -1.000000 1.000000
tan 0.000000 -0.000000 -1.000000 1.000000
tan 0.000000 0.236220 -0.968504 1.000000
tan 0.000000 -0.000000 -1.000000 1.000000
tan 0.000000 0.007874 -1.000000 1.000000
tan 0.000000 -0.000000 -1.000000 1.000000
tan 0.000000 0.007874 -1.000000 1.000000
f 3/3/3 2/2/2 1/1/1
f 6/6/6 5/5/5 4/4/4
f 9/9/9 8/8/8 7/7/7
f 10/10/10 7/7/7 8/8/8
