mtllib SM_PaperPen_01_LOD3.mtl
g SM_PaperPen_01_LOD3
#Vertices 22
#Indices 30
#Section 0 Offset 0 NumIndices 30 MaterialIndex 0 MI_PaperPen
v -0.010486 -0.000703 -0.128634
v -0.012822 0.011134 0.109022
v -0.006977 -0.004682 0.110101
v 0.000587 0.016988 -0.116697
v 0.004897 0.015173 0.104739
v -0.012822 0.011134 0.109022
v -0.006977 -0.004682 0.110101
v -0.012822 0.011134 0.109022
v 0.009720 -0.000942 0.112350
v 0.004897 0.015173 0.104739
v 0.000587 0.016988 -0.116697
v -0.012822 0.011134 0.109022
v -0.010486 -0.000703 -0.128634
v 0.010376 -0.002964 -0.135534
v -0.010486 -0.000703 -0.128634
v -0.006977 -0.004682 0.110101
v 0.010376 -0.002964 -0.135534
v 0.009720 -0.000942 0.112350
v 0.010376 -0.002964 -0.135534
v 0.004897 0.015173 0.104739
v 0.000587 0.016988 -0.116697
v 0.009720 -0.000942 0.112350
vt 0.311279 -0.022461
vt 0.338379 0.793823
vt 0.281738 0.796631
vt 0.389160 0.027832
vt 0.401855 0.778198
vt 0.340820 0.792847
vt 0.369385 0.821289
vt 0.424316 0.831177
vt 0.350098 0.875671
vt 0.409912 0.891296
vt 0.374512 0.027344
vt 0.338867 0.792114
vt 0.319580 -0.018555
vt 0.422363 -0.046875
vt 0.516113 -0.026367
vt 0.521484 0.796509
vt 0.452637 -0.040039
vt 0.464600 0.804199
vt 0.460693 -0.037109
vt 0.401855 0.778198
vt 0.388428 0.028809
vt 0.457764 0.804077
vt1 0.048035 -0.019531
vt1 0.081543 0.988548
vt1 0.011696 0.991936
vt1 0.144165 0.042480
vt1 0.159790 0.969193
vt1 0.084534 0.987259
vt1 0.476562 0.486328
vt1 0.872559 0.557373
vt1 0.335693 0.878906
vt1 0.768555 0.991936
vt1 0.126221 0.041992
vt1 0.082031 0.986397
vt1 0.058167 -0.015625
vt1 0.185181 -0.049805
vt1 0.301025 -0.024414
vt1 0.307617 0.991791
vt1 0.222534 -0.041992
vt1 0.237305 1.001291
vt1 0.232422 -0.038086
vt1 0.159790 0.969193
vt1 0.143188 0.043457
vt1 0.228760 1.001248
vn -0.866142 -0.503937 -0.055118
vn -0.866142 -0.503937 -0.007874
vn -0.866142 -0.503937 0.000000
vn 0.000000 1.000000 -0.055118
vn 0.000000 1.000000 -0.000000
vn 0.000000 1.000000 -0.000000
vn 0.000000 0.259843 0.968504
vn 0.000000 0.259843 0.968504
vn 0.000000 0.259843 0.968504
vn 0.000000 0.259843 0.968504
vn -0.866142 0.503937 -0.062992
vn -0.858268 0.503937 -0.000000
vn -0.866142 0.503937 -0.062992
vn -0.842520 0.480315 -0.251969
vn 0.000000 -0.992126 -0.094488
vn 0.000000 -1.000000 0.000000
vn 0.000000 -1.000000 -0.055118
vn 0.000000 -1.000000 0.000000
vn 0.858268 0.503937 -0.070866
vn 0.858268 0.503937 -0.000000
vn 0.866142 0.503937 -0.070866
vn 0.858268 0.503937 -0.000000
tan 0.334801 -0.498295 -0.705313 1.000000
tan 0.031682 -0.040362 -0.901854 1.000000
tan 0.000000 -0.000000 -0.944882 1.000000
tan -0.039370 -0.055118 -1.000000 1.000000
tan 0.000000 -0.000000 -1.000000 1.000000
tan -0.015748 -0.000000 -1.000000 1.000000
tan -0.820076 -0.526195 0.141174 1.000000
tan -0.793106 -0.549073 0.147312 1.000000
tan -0.777854 -0.571951 0.153450 1.000000
tan -0.820076 -0.526195 0.141174 1.000000
tan -0.127968 -0.321037 -0.808729 1.000000
tan -0.015872 -0.027032 -0.893980 1.000000
tan -0.203856 -0.443797 -0.747349 1.000000
tan -0.360779 -0.789447 -0.298530 1.000000
tan -0.179676 0.093000 -0.976502 1.000000
tan 0.000000 -0.000000 -1.000000 1.000000
tan -0.267717 0.052948 -0.960630 1.000000
tan -0.023622 -0.000000 -1.000000 1.000000
tan 0.005642 -0.127844 -0.840784 1.000000
tan 0.007936 -0.013516 -0.937194 1.000000
tan 0.041912 -0.190960 -0.845682 1.000000
tan -0.003968 0.006758 -0.893980 1.000000
f 3/3/3 2/2/2 1/1/1
f 6/6/6 5/5/5 4/4/4
f 9/9/9 8/8/8 7/7/7
f 9/9/9 10/10/10 8/8/8
f 13/13/13 12/12/12 11/11/11
f 11/11/11 14/14/14 13/13/13
f 17/17/17 16/16/16 15/15/15
f 18/18/18 16/16/16 17/17/17
f 21/21/21 20/20/20 19/19/19
f 22/22/22 19/19/19 20/20/20
