mtllib SM_PaperPen_01_LOD2.mtl
g SM_PaperPen_01_LOD2
#Vertices 34
#Indices 60
#Section 0 Offset 0 NumIndices 60 MaterialIndex 0 MI_PaperPen
v 0.005036 -0.005312 -0.082103
v 0.009720 -0.000942 0.112350
v 0.011141 0.005251 -0.081456
v -0.001099 0.005167 -0.134886
v -0.006977 -0.004682 0.110101
v -0.012914 0.005245 0.107420
v 0.009720 -0.000942 0.112350
v -0.006977 0.015173 0.104739
v 0.004897 0.015173 0.104739
v -0.013219 0.005249 -0.081449
v -0.006977 0.015173 0.104739
v -0.012914 0.005245 0.107420
v -0.007151 0.015867 -0.082118
v -0.001099 0.005167 -0.134886
v -0.007129 -0.005346 -0.081755
v -0.012914 0.005245 0.107420
v -0.006977 -0.004682 0.110101
v -0.013219 0.005249 -0.081449
v -0.001099 0.005167 -0.134886
v 0.005036 -0.005312 -0.082103
v -0.006977 -0.004682 0.110101
v 0.009720 -0.000942 0.112350
v -0.007129 -0.005346 -0.081755
v -0.001099 0.005167 -0.134886
v 0.004897 0.015173 0.104739
v 0.011141 0.005251 -0.081456
v 0.009720 -0.000942 0.112350
v 0.005095 0.015916 -0.081814
v -0.001099 0.005167 -0.134886
v -0.007151 0.015867 -0.082118
v 0.004897 0.015173 0.104739
v -0.006977 0.015173 0.104739
v 0.005095 0.015916 -0.081814
v -0.001099 0.005167 -0.134886
vt 0.483887 0.139648
vt 0.461426 0.803589
vt 0.443115 0.145508
vt 0.406494 -0.034180
vt 0.369385 0.821289
vt 0.409912 0.821289
vt 0.350098 0.875671
vt 0.430176 0.856323
vt 0.409912 0.891296
vt 0.320801 0.141602
vt 0.360840 0.778198
vt 0.321289 0.787354
vt 0.362793 0.143066
vt 0.402100 -0.033203
vt 0.280029 0.135742
vt 0.321289 0.787354
vt 0.281738 0.796631
vt 0.321289 0.141113
vt 0.402588 -0.040039
vt 0.483398 0.139648
vt 0.521484 0.796509
vt 0.464600 0.804199
vt 0.523438 0.134277
vt 0.405762 -0.037109
vt 0.401855 0.778198
vt 0.443115 0.145020
vt 0.457764 0.804077
vt 0.401611 0.145508
vt 0.404541 -0.031250
vt 0.361572 0.142578
vt 0.401855 0.778198
vt 0.360840 0.778198
vt 0.402344 0.145508
vt 0.402344 -0.031250
vt1 0.260986 0.180664
vt1 0.233398 1.000508
vt1 0.210693 0.187500
vt1 0.165527 -0.034180
vt1 0.476562 0.486328
vt1 0.768555 0.486328
vt1 0.335693 0.878906
vt1 0.914551 0.739014
vt1 0.768555 0.991936
vt1 0.059662 0.182617
vt1 0.109375 0.969208
vt1 0.060455 0.980530
vt1 0.111511 0.184570
vt1 0.160278 -0.033203
vt1 0.009346 0.175293
vt1 0.060455 0.980530
vt1 0.011696 0.991936
vt1 0.060272 0.182129
vt1 0.160889 -0.041016
vt1 0.260742 0.180664
vt1 0.307617 0.991791
vt1 0.237305 1.001291
vt1 0.310059 0.174316
vt1 0.164673 -0.038086
vt1 0.159790 0.969193
vt1 0.210815 0.187012
vt1 0.228760 1.001248
vt1 0.159546 0.187988
vt1 0.163086 -0.030273
vt1 0.109985 0.184082
vt1 0.159790 0.969193
vt1 0.109375 0.969208
vt1 0.160400 0.187988
vt1 0.160400 -0.031250
vn 0.866142 -0.503937 -0.015748
vn 0.858268 -0.503937 0.007874
vn 0.866142 -0.503937 -0.047244
vn 0.842520 -0.488189 -0.220472
vn 0.000000 0.259843 0.968504
vn 0.000000 0.259843 0.968504
vn 0.000000 0.259843 0.968504
vn 0.000000 0.259843 0.968504
vn 0.000000 0.259843 0.968504
vn -0.866142 0.503937 -0.023622
vn -0.858268 0.503937 -0.000000
vn -0.858268 0.503937 -0.000000
vn -0.866142 0.503937 -0.039370
vn -0.842520 0.488189 -0.220472
vn -0.866142 -0.503937 -0.015748
vn -0.866142 -0.503937 0.000000
vn -0.866142 -0.503937 0.000000
vn -0.866142 -0.503937 -0.047244
vn -0.842520 -0.488189 -0.220472
vn 0.000000 -1.000000 -0.015748
vn 0.000000 -1.000000 0.000000
vn 0.000000 -1.000000 0.000000
vn 0.000000 -1.000000 -0.047244
vn 0.000000 -0.976378 -0.220472
vn 0.858268 0.503937 -0.000000
vn 0.866142 0.503937 -0.023622
vn 0.858268 0.503937 -0.000000
vn 0.866142 0.503937 -0.039370
vn 0.842520 0.488189 -0.220472
vn 0.000000 1.000000 -0.015748
vn 0.000000 1.000000 -0.000000
vn 0.000000 1.000000 -0.000000
vn 0.000000 1.000000 -0.047244
vn 0.000000 0.976378 -0.220473
tan -0.087048 -0.122388 -0.871226 1.000000
tan 0.011842 0.006324 -0.886044 1.000000
tan -0.188232 -0.244033 -0.847914 1.000000
tan -0.517329 -0.648397 -0.541199 1.000000
tan -0.820076 -0.526195 0.141174 1.000000
tan -0.820076 -0.526195 0.141174 1.000000
tan -0.777854 -0.571951 0.153450 1.000000
tan -0.820076 -0.526195 0.141174 1.000000
tan -0.820076 -0.526195 0.141174 1.000000
tan -0.100130 -0.212165 -0.854734 1.000000
tan -0.015872 -0.027032 -0.937194 1.000000
tan 0.000000 -0.000000 -0.937194 1.000000
tan -0.068696 -0.185380 -0.861554 1.000000
tan -0.254573 -0.671771 -0.514663 1.000000
tan 0.185380 -0.292889 -0.823485 1.000000
tan 0.019840 -0.034100 -0.944882 1.000000
tan 0.000000 -0.000000 -0.944882 1.000000
tan 0.184264 -0.237213 -0.847914 1.000000
tan 0.533449 -0.782813 -0.305165 1.000000
tan -0.149606 0.015624 -0.992126 1.000000
tan 0.000000 -0.000000 -1.000000 1.000000
tan -0.023622 -0.000000 -1.000000 1.000000
tan -0.094488 0.046872 -0.992126 1.000000
tan -0.561225 0.180544 -0.799553 1.000000
tan 0.007936 -0.013516 -0.937194 1.000000
tan 0.000186 -0.041664 -0.882014 1.000000
tan -0.003968 0.006758 -0.893980 1.000000
tan 0.008556 -0.083080 -0.875194 1.000000
tan -0.020336 -0.320169 -0.786657 1.000000
tan -0.039370 -0.015748 -1.000000 1.000000
tan 0.000000 -0.000000 -1.000000 1.000000
tan -0.007874 -0.000000 -1.000000 1.000000
tan -0.023622 -0.047244 -1.000000 1.000000
tan -0.092256 -0.218737 -0.968690 1.000000
f 3/3/3 2/2/2 1/1/1
f 1/1/1 4/4/4 3/3/3
f 7/7/7 6/6/6 5/5/5
f 7/7/7 8/8/8 6/6/6
f 7/7/7 9/9/9 8/8/8
f 12/12/12 11/11/11 10/10/10
f 10/10/10 11/11/11 13/13/13
f 13/13/13 14/14/14 10/10/10
f 17/17/17 16/16/16 15/15/15
f 15/15/15 16/16/16 18/18/18
f 19/19/19 15/15/15 18/18/18
f 22/22/22 21/21/21 20/20/20
f 20/20/20 21/21/21 23/23/23
f 24/24/24 20/20/20 23/23/23
f 27/27/27 26/26/26 25/25/25
f 28/28/28 25/25/25 26/26/26
f 29/29/29 28/28/28 26/26/26
f 32/32/32 31/31/31 30/30/30
f 30/30/30 31/31/31 33/33/33
f 34/34/34 30/30/30 33/33/33
