mtllib SM_Paper_04_LOD4.mtl
g SM_Paper_04_LOD4
#Vertices 6
#Indices 12
#Section 0 Offset 0 NumIndices 12 MaterialIndex 0 MI_Paper_01
v 0.088788 -0.001699 0.111035
v -0.088954 -0.002792 0.111337
v -0.088886 0.000889 0.058641
v 0.088855 0.000764 -0.090058
v -0.088817 -0.000405 -0.110804
v 0.088804 -0.001503 -0.110998
vt 0.999512 0.375977
vt 0.699219 0.376465
vt 0.699219 0.287109
vt 0.999512 0.035645
vt 0.699219 0.000977
vt 0.999512 0.000488
vt1 0.990234 0.994064
vt1 0.004406 0.995354
vt1 0.004944 0.760620
vt1 0.990234 0.098145
vt1 0.004555 0.005371
vt1 0.990234 0.004395
vn 0.055118 1.000000 0.023622
vn -0.086614 0.984252 0.149606
vn -0.070866 1.000000 0.007874
vn 0.070866 1.000000 -0.000000
vn -0.062992 1.000000 0.007874
vn 0.078740 0.992126 -0.094488
tan 0.000000 0.023622 -1.000000 1.000000
tan 0.000000 0.149606 -0.984252 1.000000
tan 0.000000 0.007874 -1.000000 1.000000
tan 0.000000 -0.000000 -1.000000 1.000000
tan 0.000000 0.007874 -1.000000 1.000000
tan 0.000000 -0.094488 -0.992126 1.000000
f 3/3/3 2/2/2 1/1/1
f 1/1/1 4/4/4 3/3/3
f 5/5/5 3/3/3 4/4/4
f 6/6/6 5/5/5 4/4/4
