mtllib SM_RangeHood.mtl
g SM_RangeHood
#Vertices 140
#Indices 360
#Section 0 Offset 0 NumIndices 360 MaterialIndex 0 MI_RangeHood
v 0.445481 0.025510 -0.563333
v -0.445481 0.025510 -0.563333
v -0.445481 0.025510 -0.055495
v 0.445481 0.025510 -0.055495
v -0.170697 1.567311 -0.419720
v -0.223613 0.296003 -0.452950
v 0.170697 1.567311 -0.419720
v 0.223613 0.296003 -0.452950
v 0.170697 1.567311 -0.199108
v 0.223613 0.296003 -0.165878
v -0.223613 0.296003 -0.165878
v -0.170697 1.567311 -0.199108
v -0.170697 1.567311 -0.199108
v -0.223613 0.296003 -0.165878
v -0.175801 1.567311 -0.204208
v -0.228761 0.296003 -0.171022
v -0.175801 1.567311 -0.414620
v -0.228761 0.296003 -0.447806
v -0.223613 0.296003 -0.452950
v -0.170697 1.567311 -0.419720
v 0.488027 0.005101 -0.000000
v -0.488027 0.005101 -0.000000
v -0.488145 0.061326 -0.000000
v 0.488145 0.061326 -0.000000
v -0.484006 0.068258 -0.002050
v 0.484096 0.068226 -0.002030
v 0.223613 0.296003 -0.165878
v -0.223613 0.296003 -0.165878
v 0.175800 1.567311 -0.204208
v 0.223613 0.296003 -0.165878
v 0.170697 1.567311 -0.199108
v 0.228761 0.296003 -0.171022
v 0.175800 1.567311 -0.414620
v 0.228761 0.296003 -0.447806
v 0.223613 0.296003 -0.452950
v 0.170697 1.567311 -0.419720
v 0.445481 0.005101 -0.055495
v 0.445481 0.025510 -0.563333
v 0.445481 0.025510 -0.055495
v 0.445481 0.005101 -0.563333
v 0.450583 -0.000000 -0.050394
v 0.450583 -0.000000 -0.568434
v 0.469779 -0.000000 -0.596756
v 0.469779 -0.000000 -0.022072
v 0.488027 -0.000000 -0.005102
v 0.488027 -0.000000 -0.613726
v 0.488027 0.005101 -0.000000
v 0.493129 0.005101 -0.005102
v 0.493129 0.005101 -0.613726
v 0.488027 0.005101 -0.618828
v -0.488027 0.005101 -0.000000
v 0.488027 0.005101 -0.000000
v -0.488027 -0.000000 -0.005102
v 0.488027 -0.000000 -0.005102
v 0.469779 -0.000000 -0.022072
v -0.469779 -0.000000 -0.022072
v 0.450583 -0.000000 -0.050394
v -0.450583 -0.000000 -0.050394
v -0.445481 0.005101 -0.055495
v 0.445481 0.005101 -0.055495
v 0.445481 0.025510 -0.055495
v -0.445481 0.025510 -0.055495
v -0.488027 0.005101 -0.618828
v 0.488027 -0.000000 -0.613726
v 0.488027 0.005101 -0.618828
v -0.488027 -0.000000 -0.613726
v -0.469779 -0.000000 -0.596756
v 0.469779 -0.000000 -0.596756
v -0.450583 -0.000000 -0.568434
v 0.450583 -0.000000 -0.568434
v 0.445481 0.005101 -0.563333
v -0.445481 0.005101 -0.563333
v -0.445481 0.025510 -0.563333
v 0.445481 0.025510 -0.563333
v -0.223613 0.296003 -0.452950
v 0.484006 0.068258 -0.616778
v 0.223613 0.296003 -0.452950
v -0.484096 0.068226 -0.616798
v -0.488145 0.061326 -0.618828
v 0.488145 0.061326 -0.618828
v 0.488027 0.005101 -0.618828
v -0.488027 0.005101 -0.618828
v -0.445481 0.025510 -0.055495
v -0.445481 0.025510 -0.563333
v -0.445481 0.005101 -0.563333
v -0.445481 0.005101 -0.055495
v -0.450583 -0.000000 -0.050394
v -0.450583 -0.000000 -0.568434
v -0.469779 -0.000000 -0.596756
v -0.469779 -0.000000 -0.022072
v -0.488027 -0.000000 -0.005102
v -0.488027 -0.000000 -0.613726
v -0.493129 0.005101 -0.005102
v -0.488027 0.005101 -0.000000
v -0.493129 0.005101 -0.613726
v -0.488027 0.005101 -0.618828
v 0.018144 0.026219 -0.040460
v 0.018144 0.026219 -0.578683
v 0.018144 0.008739 -0.578683
v 0.018144 0.008739 -0.040460
v 0.014588 0.004514 -0.040460
v 0.014588 0.004514 -0.578683
v -0.014588 0.004514 -0.578683
v -0.014588 0.004514 -0.040460
v -0.018144 0.008739 -0.040460
v -0.018144 0.008739 -0.578683
v -0.018144 0.026219 -0.578683
v -0.018144 0.026219 -0.040460
v -0.228761 0.296003 -0.447806
v -0.484096 0.068226 -0.616798
v -0.223613 0.296003 -0.452950
v -0.490308 0.067812 -0.612198
v -0.488145 0.061326 -0.618828
v -0.228761 0.296003 -0.171022
v -0.484006 0.068258 -0.002050
v -0.223613 0.296003 -0.165878
v -0.490347 0.067773 -0.006538
v -0.488145 0.061326 -0.000000
v -0.493129 0.061189 -0.004970
v -0.488027 0.005101 -0.000000
v -0.493129 0.005101 -0.005102
v -0.493129 0.061188 -0.613857
v -0.493129 0.005101 -0.613726
v -0.488027 0.005101 -0.618828
v 0.228761 0.296003 -0.171022
v 0.484096 0.068226 -0.002030
v 0.223613 0.296003 -0.165878
v 0.490308 0.067812 -0.006630
v 0.488145 0.061326 -0.000000
v 0.228761 0.296003 -0.447806
v 0.223613 0.296003 -0.452950
v 0.484006 0.068258 -0.616778
v 0.490347 0.067773 -0.612290
v 0.488145 0.061326 -0.618828
v 0.493129 0.061189 -0.004970
v 0.488027 0.005101 -0.000000
v 0.493129 0.005101 -0.005102
v 0.493129 0.061188 -0.613857
v 0.488027 0.005101 -0.618828
v 0.493129 0.005101 -0.613726
vt 0.620117 0.866821
vt 0.145874 0.866821
vt 0.145996 0.596191
vt 0.620605 0.596436
vt 0.457275 0.566895
vt 0.438477 0.121094
vt 0.576660 0.566895
vt 0.595215 0.121094
vt 0.111328 0.566895
vt 0.092773 0.121094
vt 0.249512 0.121094
vt 0.231079 0.566895
vt 0.873535 0.830444
vt 0.842773 0.386719
vt 0.875977 0.830200
vt 0.845215 0.385742
vt 0.949707 0.828491
vt 0.943848 0.380371
vt 0.946289 0.380859
vt 0.952148 0.828613
vt 0.000040 0.000488
vt 0.342285 0.000488
vt 0.342285 0.020020
vt 0.000000 0.020020
vt 0.340820 0.022461
vt 0.001420 0.022461
vt 0.092773 0.121094
vt 0.249512 0.121094
vt 0.785156 0.687744
vt 0.781738 0.239746
vt 0.787598 0.687744
vt 0.779297 0.239258
vt 0.711426 0.689453
vt 0.680176 0.245117
vt 0.677734 0.245605
vt 0.708984 0.689453
vt 0.030258 0.386719
vt 0.025864 0.573730
vt 0.025940 0.392578
vt 0.030594 0.579102
vt 0.032593 0.384277
vt 0.032990 0.581543
vt 0.040070 0.591797
vt 0.039642 0.374023
vt 0.046356 0.367676
vt 0.046844 0.597900
vt 0.047638 0.365723
vt 0.048981 0.367676
vt 0.049469 0.597900
vt 0.048187 0.600342
vt 0.102234 0.950623
vt 0.102234 0.593018
vt 0.104858 0.950348
vt 0.104858 0.593018
vt 0.111023 0.599609
vt 0.111023 0.943665
vt 0.121399 0.606689
vt 0.121338 0.936707
vt 0.123779 0.934326
vt 0.123840 0.608887
vt 0.129395 0.613281
vt 0.128906 0.929688
vt 0.093689 0.952698
vt 0.091064 0.593994
vt 0.093689 0.593994
vt 0.091064 0.952667
vt 0.084900 0.945862
vt 0.084900 0.600830
vt 0.074585 0.938751
vt 0.074585 0.607666
vt 0.072144 0.610107
vt 0.072144 0.936401
vt 0.066650 0.932007
vt 0.067017 0.614990
vt 0.438477 0.121094
vt 0.686523 0.022461
vt 0.595215 0.121094
vt 0.347168 0.022461
vt 0.345703 0.020020
vt 0.687988 0.020020
vt 0.687988 0.000488
vt 0.345947 0.000488
vt 0.044830 0.164551
vt 0.043945 0.345703
vt 0.039581 0.351562
vt 0.040131 0.159180
vt 0.037720 0.156738
vt 0.037201 0.354004
vt 0.030060 0.364258
vt 0.030762 0.146484
vt 0.024063 0.140137
vt 0.023239 0.370605
vt 0.021469 0.140137
vt 0.023788 0.137695
vt 0.020630 0.370117
vt 0.021912 0.372559
vt 0.050568 0.612305
vt 0.050598 0.801025
vt 0.044464 0.801025
vt 0.044434 0.612305
vt 0.042511 0.612305
vt 0.042542 0.801025
vt 0.032318 0.801025
vt 0.032288 0.612305
vt 0.030350 0.612305
vt 0.030380 0.801025
vt 0.024246 0.801025
vt 0.024216 0.612305
vt 0.943848 0.380371
vt 0.997559 0.262695
vt 0.946289 0.380859
vt 0.995605 0.261719
vt 0.998535 0.259766
vt 0.845215 0.385742
vt 0.788086 0.262695
vt 0.842773 0.386719
vt 0.790039 0.261230
vt 0.787109 0.259277
vt 0.789551 0.258789
vt 0.785156 0.239258
vt 0.788086 0.239258
vt 0.996094 0.258789
vt 0.997070 0.239258
vt 1.000000 0.239258
vt 0.779297 0.239258
vt 0.833008 0.122070
vt 0.781738 0.239746
vt 0.831055 0.120605
vt 0.833984 0.118652
vt 0.680176 0.245117
vt 0.677734 0.245605
vt 0.623535 0.121582
vt 0.625488 0.120117
vt 0.622559 0.118164
vt 0.831543 0.118164
vt 0.834961 0.098633
vt 0.832520 0.098145
vt 0.625000 0.117676
vt 0.620605 0.098633
vt 0.623535 0.098145
vt1 0.346191 0.233887
vt1 0.008064 0.233887
vt1 0.008095 0.041504
vt1 0.346191 0.041504
vt1 0.532227 0.378906
vt1 0.552246 0.861450
vt1 0.402588 0.378906
vt1 0.382568 0.861450
vt1 0.128540 0.991936
vt1 0.108459 0.509277
vt1 0.278076 0.509277
vt1 0.258057 0.991928
vt1 0.806152 0.351562
vt1 0.839355 0.832397
vt1 0.803223 0.352051
vt1 0.836914 0.833008
vt1 0.723633 0.354004
vt1 0.729492 0.838989
vt1 0.727051 0.838501
vt1 0.720703 0.353516
vt1 0.008102 0.378906
vt1 0.378418 0.378906
vt1 0.378418 0.400391
vt1 0.008064 0.400391
vt1 0.376953 0.402832
vt1 0.009598 0.402832
vt1 0.108459 0.509277
vt1 0.278076 0.509277
vt1 0.058502 0.357422
vt1 0.542969 0.354004
vt1 0.058441 0.359863
vt1 0.543945 0.351074
vt1 0.056641 0.277344
vt1 0.537598 0.244141
vt1 0.537109 0.241211
vt1 0.056427 0.274902
vt1 0.577637 0.632080
vt1 0.572266 0.820312
vt1 0.572266 0.637695
vt1 0.578125 0.825439
vt1 0.580566 0.629639
vt1 0.581055 0.827881
vt1 0.589844 0.838379
vt1 0.589355 0.619141
vt1 0.597656 0.612793
vt1 0.598145 0.844604
vt1 0.599121 0.610596
vt1 0.600586 0.612793
vt1 0.601562 0.844482
vt1 0.599609 0.846802
vt1 0.008072 0.991936
vt1 0.008064 0.620117
vt1 0.011116 0.991653
vt1 0.011116 0.620117
vt1 0.018402 0.626953
vt1 0.018372 0.984718
vt1 0.030548 0.634277
vt1 0.030502 0.977478
vt1 0.033356 0.975006
vt1 0.033417 0.636719
vt1 0.039917 0.641357
vt1 0.039429 0.970139
vt1 0.088257 0.991936
vt1 0.085205 0.620117
vt1 0.088257 0.620117
vt1 0.085205 0.991913
vt1 0.077881 0.984863
vt1 0.077881 0.627197
vt1 0.065735 0.977493
vt1 0.065735 0.634521
vt1 0.062927 0.636963
vt1 0.062866 0.975037
vt1 0.056427 0.970505
vt1 0.056824 0.641846
vt1 0.552246 0.861450
vt1 0.283691 0.967865
vt1 0.382568 0.861450
vt1 0.650879 0.967865
vt1 0.652832 0.970581
vt1 0.282227 0.970596
vt1 0.282227 0.991936
vt1 0.652344 0.991913
vt1 0.328125 0.669434
vt1 0.326904 0.852173
vt1 0.321533 0.857666
vt1 0.322266 0.664307
vt1 0.319336 0.661865
vt1 0.318604 0.860107
vt1 0.309814 0.870605
vt1 0.310791 0.651367
vt1 0.302490 0.645264
vt1 0.301514 0.876831
vt1 0.299316 0.644775
vt1 0.302246 0.642578
vt1 0.298340 0.876770
vt1 0.299805 0.879089
vt1 0.391357 0.013672
vt1 0.391357 0.217773
vt1 0.384766 0.217773
vt1 0.384766 0.013672
vt1 0.382568 0.013672
vt1 0.382568 0.217773
vt1 0.371582 0.217773
vt1 0.371582 0.013672
vt1 0.369385 0.013672
vt1 0.369385 0.217773
vt1 0.362793 0.217773
vt1 0.362793 0.013672
vt1 0.729492 0.838989
vt1 0.671387 0.966248
vt1 0.727051 0.838501
vt1 0.673828 0.967743
vt1 0.670410 0.969849
vt1 0.836914 0.833008
vt1 0.898438 0.966583
vt1 0.839355 0.832397
vt1 0.895996 0.968140
vt1 0.899414 0.970169
vt1 0.896973 0.970840
vt1 0.901367 0.991539
vt1 0.898438 0.991936
vt1 0.672852 0.970474
vt1 0.671875 0.991920
vt1 0.668945 0.991585
vt1 0.543945 0.351074
vt1 0.670898 0.409180
vt1 0.542969 0.354004
vt1 0.672363 0.407227
vt1 0.674805 0.410156
vt1 0.537598 0.244141
vt1 0.537109 0.241211
vt1 0.671387 0.182129
vt1 0.672852 0.184570
vt1 0.674805 0.181152
vt1 0.675293 0.407715
vt1 0.696289 0.411621
vt1 0.696777 0.408691
vt1 0.675781 0.184082
vt1 0.696289 0.179199
vt1 0.696777 0.182129
vn 0.000000 -1.000000 0.000000
vn 0.000000 -1.000000 0.000000
vn 0.000000 -1.000000 0.000000
vn 0.000000 -1.000000 0.000000
vn -0.015748 0.023622 -1.000000
vn -0.015748 0.023622 -1.000000
vn 0.015748 0.023622 -1.000000
vn 0.015748 0.023622 -1.000000
vn 0.015748 0.023622 1.000000
vn 0.015748 0.023622 1.000000
vn -0.015748 0.023622 1.000000
vn -0.015748 0.023622 1.000000
vn -0.015748 0.023622 1.000000
vn -0.015748 0.023622 1.000000
vn -1.000000 0.039370 0.023622
vn -1.000000 0.039370 0.023622
vn -1.000000 0.039370 -0.023622
vn -1.000000 0.039370 -0.023622
vn -0.015748 0.023622 -1.000000
vn -0.015748 0.023622 -1.000000
vn 0.007874 -0.078740 1.000000
vn -0.007874 -0.078740 1.000000
vn -0.007874 0.023622 1.000000
vn 0.007874 0.023622 1.000000
vn -0.015748 0.574803 0.818897
vn 0.015748 0.574803 0.818897
vn 0.000000 0.582677 0.811023
vn 0.000000 0.582677 0.811023
vn 1.000000 0.039370 0.023622
vn 0.015748 0.023622 1.000000
vn 0.015748 0.023622 1.000000
vn 1.000000 0.039370 0.023622
vn 1.000000 0.039370 -0.023622
vn 1.000000 0.039370 -0.023622
vn 0.015748 0.023622 -1.000000
vn 0.015748 0.023622 -1.000000
vn -0.968504 -0.251968 0.000000
vn -1.000000 0.000000 0.000000
vn -1.000000 0.000000 0.000000
vn -0.968504 -0.251968 0.000000
vn -0.086614 -1.000000 0.000000
vn -0.086614 -1.000000 0.000000
vn 0.000000 -1.000000 0.000000
vn 0.000000 -1.000000 0.000000
vn 0.141732 -0.968504 0.220473
vn 0.141732 -0.968504 -0.220472
vn 0.007874 -0.078740 1.000000
vn 1.000000 -0.078740 0.007874
vn 1.000000 -0.078740 -0.007874
vn 0.007874 -0.078740 -1.000000
vn -0.007874 -0.078740 1.000000
vn 0.007874 -0.078740 1.000000
vn -0.141732 -0.968504 0.220473
vn 0.141732 -0.968504 0.220473
vn 0.000000 -1.000000 0.000000
vn 0.000000 -1.000000 0.000000
vn 0.000000 -1.000000 -0.070866
vn 0.000000 -1.000000 -0.070866
vn 0.000000 -0.251969 -0.968504
vn 0.000000 -0.251969 -0.968504
vn 0.000000 -0.000000 -1.000000
vn 0.000000 -0.000000 -1.000000
vn -0.007874 -0.078740 -1.000000
vn 0.141732 -0.968504 -0.220472
vn 0.007874 -0.078740 -1.000000
vn -0.141732 -0.968504 -0.220472
vn 0.000000 -1.000000 0.000000
vn 0.000000 -1.000000 0.000000
vn 0.000000 -1.000000 0.070866
vn 0.000000 -1.000000 0.070866
vn 0.000000 -0.251968 0.968504
vn 0.000000 -0.251968 0.968504
vn 0.000000 0.000000 1.000000
vn 0.000000 0.000000 1.000000
vn 0.000000 0.582677 -0.811024
vn 0.015748 0.574803 -0.818898
vn 0.000000 0.582677 -0.811024
vn -0.015748 0.574803 -0.818898
vn -0.007874 0.023622 -1.000000
vn 0.007874 0.023622 -1.000000
vn 0.007874 -0.078740 -1.000000
vn -0.007874 -0.078740 -1.000000
vn 1.000000 0.000000 0.000000
vn 1.000000 0.000000 0.000000
vn 0.968504 -0.251968 0.000000
vn 0.968504 -0.251968 0.000000
vn 0.086614 -1.000000 0.000000
vn 0.086614 -1.000000 0.000000
vn 0.000000 -1.000000 0.000000
vn 0.000000 -1.000000 0.000000
vn -0.141732 -0.968504 0.220473
vn -0.141732 -0.968504 -0.220472
vn -1.000000 -0.078740 0.007874
vn -0.007874 -0.078740 1.000000
vn -1.000000 -0.078740 -0.007874
vn -0.007874 -0.078740 -1.000000
vn 1.000000 0.000000 0.000000
vn 1.000000 0.000000 0.000000
vn 0.984252 -0.165354 0.000000
vn 0.984252 -0.165354 0.000000
vn 0.125984 -0.992126 0.000000
vn 0.125984 -0.992126 0.000000
vn -0.125984 -0.992126 0.000000
vn -0.125984 -0.992126 0.000000
vn -0.984252 -0.165354 0.000000
vn -0.984252 -0.165354 0.000000
vn -1.000000 0.000000 0.000000
vn -1.000000 0.000000 0.000000
vn -0.653543 0.755905 -0.007874
vn -0.015748 0.574803 -0.818898
vn 0.000000 0.582677 -0.811024
vn -0.669291 0.740157 -0.007874
vn -0.007874 0.023622 -1.000000
vn -0.653543 0.755905 0.007874
vn -0.015748 0.574803 0.818897
vn 0.000000 0.582677 0.811023
vn -0.669291 0.740157 0.007874
vn -0.007874 0.023622 1.000000
vn -1.000000 0.039370 0.007874
vn -0.007874 -0.078740 1.000000
vn -1.000000 -0.078740 0.007874
vn -1.000000 0.039370 -0.007874
vn -1.000000 -0.078740 -0.007874
vn -0.007874 -0.078740 -1.000000
vn 0.653543 0.755905 0.007874
vn 0.015748 0.574803 0.818897
vn 0.000000 0.582677 0.811023
vn 0.669291 0.740157 0.007874
vn 0.007874 0.023622 1.000000
vn 0.653543 0.755905 -0.007874
vn 0.000000 0.582677 -0.811024
vn 0.015748 0.574803 -0.818898
vn 0.669291 0.740157 -0.007874
vn 0.007874 0.023622 -1.000000
vn 1.000000 0.039370 0.007874
vn 0.007874 -0.078740 1.000000
vn 1.000000 -0.078740 0.007874
vn 1.000000 0.039370 -0.007874
vn 0.007874 -0.078740 -1.000000
vn 1.000000 -0.078740 -0.007874
tan 0.000000 0.000000 1.000000 1.000000
tan 0.000000 0.000000 1.000000 1.000000
tan 0.000000 0.000000 1.000000 1.000000
tan 0.000000 0.000000 1.000000 1.000000
tan 0.000372 1.000248 0.023622 1.000000
tan 0.000372 1.000248 0.023622 1.000000
tan -0.000372 1.000248 0.023622 1.000000
tan -0.000372 1.000248 0.023622 1.000000
tan 0.000372 -1.000248 0.023622 1.000000
tan 0.000372 -1.000248 0.023622 1.000000
tan -0.000372 -1.000248 0.023622 1.000000
tan -0.000372 -1.000248 0.023622 1.000000
tan 0.268275 0.961002 -0.018476 1.000000
tan 0.315519 0.945254 -0.017360 1.000000
tan 0.041850 0.992498 0.117490 1.000000
tan 0.042470 0.984624 0.156860 1.000000
tan 0.041106 0.992684 -0.085684 1.000000
tan 0.041044 1.000558 -0.069936 1.000000
tan 0.260401 0.968876 0.018786 1.000000
tan 0.260401 0.961002 0.018600 1.000000
tan -0.000620 -1.000062 -0.078740 1.000000
tan 0.000620 -1.000062 -0.078740 1.000000
tan -0.000186 -1.000062 0.023622 1.000000
tan 0.000186 -1.000062 0.023622 1.000000
tan -0.002604 -0.819145 0.574927 1.000000
tan 0.002604 -0.819145 0.574927 1.000000
tan 0.000000 -0.811023 0.582677 1.000000
tan 0.000000 -0.811023 0.582677 1.000000
tan 0.025172 -0.038440 -1.001550 1.000000
tan 1.000558 0.031124 -0.016492 1.000000
tan 1.000558 0.031124 -0.016492 1.000000
tan 0.025172 -0.038440 -1.001550 1.000000
tan -0.022382 -0.032426 -1.001550 1.000000
tan -0.022382 -0.032426 -1.001550 1.000000
tan -0.992684 -0.086242 -0.017670 1.000000
tan -0.992684 -0.094116 -0.017856 1.000000
tan 0.095232 -0.366049 0.928886 1.000000
tan 0.000000 0.527559 0.850394 1.000000
tan 0.000000 -0.606299 0.795276 1.000000
tan -0.089280 0.343171 0.936512 1.000000
tan 0.023622 -0.002046 0.999628 1.000000
tan -0.023622 0.002046 1.007502 1.000000
tan 0.031496 0.000000 1.000000 1.000000
tan -0.023622 0.000000 1.000000 1.000000
tan -0.152582 0.198524 0.970178 1.000000
tan 0.200074 -0.190092 0.963668 1.000000
tan -0.704507 0.708289 0.061318 1.000000
tan -0.007254 0.008494 1.006200 1.000000
tan 0.011532 0.046624 0.998326 1.000000
tan 0.728749 -0.684605 0.059644 1.000000
tan 0.990452 -0.142352 -0.003410 1.000000
tan 1.006200 0.008494 -0.007254 1.000000
tan 0.994234 -0.145328 0.000744 1.000000
tan 0.988344 0.125116 -0.085746 1.000000
tan 1.000000 -0.000000 -0.007874 1.000000
tan 1.000000 0.000000 0.000000 1.000000
tan 0.997148 -0.004464 0.062992 1.000000
tan 0.997148 0.004464 -0.062992 1.000000
tan 0.936512 0.343171 -0.089280 1.000000
tan 0.936512 -0.335545 0.087296 1.000000
tan 0.866142 -0.503937 0.000000 1.000000
tan 0.842520 0.543307 -0.000000 1.000000
tan 1.006200 -0.016368 -0.006634 1.000000
tan 0.988344 0.126852 0.078120 1.000000
tan 1.006200 0.008494 0.007254 1.000000
tan 0.995970 -0.129704 -0.070494 1.000000
tan 1.000000 0.000000 0.015748 1.000000
tan 1.000000 -0.000000 -0.015748 1.000000
tan 0.997148 0.005022 0.070866 1.000000
tan 0.997148 -0.004464 -0.062992 1.000000
tan 0.936512 -0.335545 -0.087296 1.000000
tan 0.936512 0.335545 0.087296 1.000000
tan 0.866142 0.496063 -0.000000 1.000000
tan 0.842520 -0.543307 0.000000 1.000000
tan 0.000000 0.811024 0.582677 1.000000
tan -0.002604 0.819146 0.574927 1.000000
tan 0.000000 0.811024 0.582677 1.000000
tan 0.002604 0.819146 0.574927 1.000000
tan 0.000186 1.000062 0.023622 1.000000
tan -0.000186 1.000062 0.023622 1.000000
tan 0.000620 1.000062 -0.078740 1.000000
tan -0.000620 1.000062 -0.078740 1.000000
tan 0.000000 -0.527559 0.850394 1.000000
tan 0.000000 0.598425 0.803149 1.000000
tan 0.093248 0.358423 0.928886 1.000000
tan -0.091264 -0.350797 0.936512 1.000000
tan -0.023622 -0.002046 0.999628 1.000000
tan 0.023622 0.002046 1.007502 1.000000
tan -0.031496 0.000000 1.000000 1.000000
tan 0.047244 0.000000 1.000000 1.000000
tan 0.000744 0.223201 0.980966 1.000000
tan -0.175460 -0.195176 0.970178 1.000000
tan -0.009734 0.221093 0.974704 1.000000
tan 0.625147 0.779217 0.066278 1.000000
tan -0.009734 0.023002 1.006200 1.000000
tan -0.720255 -0.700415 0.060822 1.000000
tan 0.000000 0.000000 1.000000 1.000000
tan 0.000000 0.000000 1.000000 1.000000
tan 0.000000 0.000000 0.996094 1.000000
tan 0.000000 0.000000 0.996094 1.000000
tan 0.000000 0.000000 1.000186 1.000000
tan 0.000000 0.000000 1.000186 1.000000
tan 0.000000 0.000000 1.000186 1.000000
tan 0.000000 0.000000 1.000186 1.000000
tan 0.000000 0.000000 0.996094 1.000000
tan 0.000000 0.000000 0.996094 1.000000
tan 0.000000 0.000000 1.000000 1.000000
tan 0.000000 0.000000 1.000000 1.000000
tan 0.736934 0.639469 0.223572 1.000000
tan 0.817720 0.478269 0.319983 1.000000
tan 0.698369 0.581127 0.417509 1.000000
tan 0.733585 0.664889 0.144832 1.000000
tan 0.354703 0.937132 0.019344 1.000000
tan 0.743196 0.644243 -0.162130 1.000000
tan 0.806746 0.491041 -0.329159 1.000000
tan 0.733089 0.549197 -0.394569 1.000000
tan 0.733585 0.664889 -0.144832 1.000000
tan 0.378325 0.929258 -0.018972 1.000000
tan 0.040114 0.992126 0.133858 1.000000
tan 0.133858 0.992126 0.079174 1.000000
tan -0.077004 0.992250 0.142972 1.000000
tan 0.040052 0.992126 -0.125984 1.000000
tan -0.077128 0.992250 -0.127224 1.000000
tan 0.102362 0.992126 -0.078926 1.000000
tan 0.082522 -0.060946 -0.998512 1.000000
tan 0.511129 0.698369 -0.500031 1.000000
tan 0.530163 0.689689 -0.495505 1.000000
tan 0.034410 -0.020522 -0.995784 1.000000
tan 0.929506 0.369955 -0.016058 1.000000
tan -0.046810 0.030070 -0.998512 1.000000
tan -0.512803 -0.696075 -0.500093 1.000000
tan -0.556947 -0.672205 -0.482547 1.000000
tan -0.046066 0.031062 -0.995784 1.000000
tan -0.929506 -0.362081 -0.015872 1.000000
tan 0.008184 -0.007564 -1.001550 1.000000
tan 1.006200 0.032116 -0.005394 1.000000
tan 0.010974 0.038750 -1.006200 1.000000
tan -0.007874 -0.000310 -1.001550 1.000000
tan -0.998326 -0.063612 -0.002852 1.000000
tan -0.014012 -0.078120 -0.998326 1.000000
f 3/3/3 2/2/2 1/1/1
f 4/4/4 3/3/3 1/1/1
f 7/7/7 6/6/6 5/5/5
f 8/8/8 6/6/6 7/7/7
f 11/11/11 10/10/10 9/9/9
f 9/9/9 12/12/12 11/11/11
f 15/15/15 14/14/14 13/13/13
f 14/14/14 15/15/15 16/16/16
f 15/15/15 17/17/17 16/16/16
f 18/18/18 16/16/16 17/17/17
f 18/18/18 17/17/17 19/19/19
f 20/20/20 19/19/19 17/17/17
f 23/23/23 22/22/22 21/21/21
f 24/24/24 23/23/23 21/21/21
f 23/23/23 24/24/24 25/25/25
f 26/26/26 25/25/25 24/24/24
f 26/26/26 27/27/27 25/25/25
f 28/28/28 25/25/25 27/27/27
f 31/31/31 30/30/30 29/29/29
f 32/32/32 29/29/29 30/30/30
f 29/29/29 32/32/32 33/33/33
f 34/34/34 33/33/33 32/32/32
f 35/35/35 33/33/33 34/34/34
f 33/33/33 35/35/35 36/36/36
f 39/39/39 38/38/38 37/37/37
f 40/40/40 37/37/37 38/38/38
f 37/37/37 40/40/40 41/41/41
f 42/42/42 41/41/41 40/40/40
f 42/42/42 43/43/43 41/41/41
f 44/44/44 41/41/41 43/43/43
f 44/44/44 43/43/43 45/45/45
f 43/43/43 46/46/46 45/45/45
f 45/45/45 48/48/48 47/47/47
f 48/48/48 45/45/45 49/49/49
f 49/49/49 45/45/45 46/46/46
f 46/46/46 50/50/50 49/49/49
f 53/53/53 52/52/52 51/51/51
f 52/52/52 53/53/53 54/54/54
f 55/55/55 54/54/54 53/53/53
f 56/56/56 55/55/55 53/53/53
f 57/57/57 55/55/55 56/56/56
f 58/58/58 57/57/57 56/56/56
f 59/59/59 57/57/57 58/58/58
f 60/60/60 57/57/57 59/59/59
f 60/60/60 59/59/59 61/61/61
f 59/59/59 62/62/62 61/61/61
f 65/65/65 64/64/64 63/63/63
f 66/66/66 63/63/63 64/64/64
f 67/67/67 66/66/66 64/64/64
f 68/68/68 67/67/67 64/64/64
f 69/69/69 67/67/67 68/68/68
f 70/70/70 69/69/69 68/68/68
f 71/71/71 69/69/69 70/70/70
f 72/72/72 69/69/69 71/71/71
f 72/72/72 71/71/71 73/73/73
f 74/74/74 73/73/73 71/71/71
f 77/77/77 76/76/76 75/75/75
f 78/78/78 75/75/75 76/76/76
f 78/78/78 76/76/76 79/79/79
f 80/80/80 79/79/79 76/76/76
f 80/80/80 81/81/81 79/79/79
f 82/82/82 79/79/79 81/81/81
f 85/85/85 84/84/84 83/83/83
f 83/83/83 86/86/86 85/85/85
f 86/86/86 87/87/87 85/85/85
f 85/85/85 87/87/87 88/88/88
f 88/88/88 87/87/87 89/89/89
f 87/87/87 90/90/90 89/89/89
f 90/90/90 91/91/91 89/89/89
f 92/92/92 89/89/89 91/91/91
f 91/91/91 94/94/94 93/93/93
f 91/91/91 93/93/93 92/92/92
f 92/92/92 93/93/93 95/95/95
f 92/92/92 95/95/95 96/96/96
f 99/99/99 98/98/98 97/97/97
f 97/97/97 100/100/100 99/99/99
f 100/100/100 101/101/101 99/99/99
f 99/99/99 101/101/101 102/102/102
f 103/103/103 102/102/102 101/101/101
f 101/101/101 104/104/104 103/103/103
f 104/104/104 105/105/105 103/103/103
f 103/103/103 105/105/105 106/106/106
f 106/106/106 105/105/105 107/107/107
f 108/108/108 107/107/107 105/105/105
f 111/111/111 110/110/110 109/109/109
f 112/112/112 109/109/109 110/110/110
f 113/113/113 112/112/112 110/110/110
f 109/109/109 112/112/112 114/114/114
f 116/116/116 114/114/114 115/115/115
f 115/115/115 114/114/114 117/117/117
f 117/117/117 114/114/114 112/112/112
f 115/115/115 117/117/117 118/118/118
f 119/119/119 118/118/118 117/117/117
f 117/117/117 112/112/112 119/119/119
f 118/118/118 119/119/119 120/120/120
f 120/120/120 119/119/119 121/121/121
f 122/122/122 119/119/119 112/112/112
f 121/121/121 119/119/119 122/122/122
f 122/122/122 112/112/112 113/113/113
f 122/122/122 123/123/123 121/121/121
f 113/113/113 124/124/124 122/122/122
f 123/123/123 122/122/122 124/124/124
f 127/127/127 126/126/126 125/125/125
f 128/128/128 125/125/125 126/126/126
f 128/128/128 126/126/126 129/129/129
f 125/125/125 128/128/128 130/130/130
f 130/130/130 132/132/132 131/131/131
f 132/132/132 130/130/130 133/133/133
f 133/133/133 130/130/130 128/128/128
f 132/132/132 133/133/133 134/134/134
f 129/129/129 135/135/135 128/128/128
f 129/129/129 136/136/136 135/135/135
f 137/137/137 135/135/135 136/136/136
f 133/133/133 128/128/128 138/138/138
f 135/135/135 138/138/138 128/128/128
f 138/138/138 134/134/134 133/133/133
f 135/135/135 137/137/137 138/138/138
f 138/138/138 139/139/139 134/134/134
f 140/140/140 138/138/138 137/137/137
f 140/140/140 139/139/139 138/138/138
