mtllib SM_RangeHood_LOD2.mtl
g SM_RangeHood_LOD2
#Vertices 56
#Indices 90
#Section 0 Offset 0 NumIndices 90 MaterialIndex 0 MI_RangeHood
v 0.446804 0.023442 -0.565487
v -0.446652 0.019993 -0.563910
v -0.447512 0.022942 -0.054457
v 0.451837 0.017950 -0.049226
v -0.175893 1.567311 -0.419371
v -0.227076 0.296166 -0.453394
v 0.175340 1.567312 -0.419912
v 0.227600 0.296611 -0.453497
v 0.174622 1.567301 -0.198869
v 0.227797 0.296356 -0.165346
v -0.227734 0.296297 -0.165271
v -0.175274 1.567309 -0.198988
v -0.227734 0.296297 -0.165271
v -0.175893 1.567311 -0.419371
v -0.175274 1.567309 -0.198988
v -0.227076 0.296166 -0.453394
v 0.175340 1.567312 -0.419912
v 0.227797 0.296356 -0.165346
v 0.174622 1.567301 -0.198869
v 0.227600 0.296611 -0.453497
v 0.451837 0.017950 -0.049226
v 0.492881 0.000861 -0.619299
v 0.446804 0.023442 -0.565487
v 0.493169 0.001162 0.000045
v -0.523992 0.023774 0.026963
v 0.493169 0.001162 0.000045
v 0.451837 0.017950 -0.049226
v -0.447512 0.022942 -0.054457
v 0.492881 0.000861 -0.619299
v -0.523742 0.023305 -0.643661
v -0.446652 0.019993 -0.563910
v 0.446804 0.023442 -0.565487
v -0.523742 0.023305 -0.643661
v -0.447512 0.022942 -0.054457
v -0.446652 0.019993 -0.563910
v -0.523992 0.023774 0.026963
v -0.227734 0.296297 -0.165271
v -0.523742 0.023305 -0.643661
v -0.227076 0.296166 -0.453394
v -0.523992 0.023774 0.026963
v -0.523742 0.023305 -0.643661
v 0.492881 0.000861 -0.619299
v 0.491773 0.066388 -0.618431
v -0.227076 0.296166 -0.453394
v 0.227600 0.296611 -0.453497
v 0.493169 0.001162 0.000045
v -0.523992 0.023774 0.026963
v 0.492004 0.065935 -0.000003
v 0.227797 0.296356 -0.165346
v -0.227734 0.296297 -0.165271
v 0.227600 0.296611 -0.453497
v 0.492004 0.065935 -0.000003
v 0.227797 0.296356 -0.165346
v 0.491773 0.066388 -0.618431
v 0.493169 0.001162 0.000045
v 0.492881 0.000861 -0.619299
vt 0.620605 0.868042
vt 0.145142 0.867188
vt 0.144897 0.595703
vt 0.623535 0.593262
vt 0.455322 0.567139
vt 0.437256 0.121582
vt 0.578125 0.566895
vt 0.596191 0.121582
vt 0.109924 0.566895
vt 0.091248 0.121582
vt 0.250732 0.121582
vt 0.232666 0.566895
vt 0.842773 0.386230
vt 0.951172 0.828491
vt 0.874023 0.830322
vt 0.945801 0.380371
vt 0.709473 0.689697
vt 0.781250 0.239746
vt 0.786621 0.687744
vt 0.677734 0.245605
vt 0.030304 0.384766
vt 0.048553 0.600342
vt 0.028381 0.578613
vt 0.048157 0.366211
vt 0.096252 0.963531
vt 0.102966 0.591309
vt 0.123657 0.607178
vt 0.125977 0.934387
vt 0.093018 0.592529
vt 0.098938 0.966156
vt 0.070435 0.936218
vt 0.070068 0.610352
vt 0.014221 0.382324
vt 0.041656 0.160156
vt 0.041138 0.351074
vt 0.014763 0.128906
vt 0.842773 0.386230
vt 1.005859 0.243652
vt 0.945801 0.380859
vt 0.778320 0.243164
vt 0.333252 0.005371
vt 0.689453 -0.000977
vt 0.688965 0.021973
vt 0.437256 0.121094
vt 0.596191 0.121582
vt -0.001760 0.000000
vt 0.354736 0.004883
vt -0.001352 0.021484
vt 0.091248 0.121094
vt 0.250732 0.121094
vt 0.677734 0.245605
vt 0.833008 0.120117
vt 0.781250 0.239746
vt 0.623047 0.119629
vt 0.833984 0.097168
vt 0.621094 0.097168
vt1 0.346680 0.234863
vt1 0.007622 0.234375
vt1 0.007320 0.041504
vt1 0.348389 0.039551
vt1 0.534180 0.378906
vt1 0.553223 0.861450
vt1 0.400635 0.379395
vt1 0.380859 0.861328
vt1 0.126953 0.991936
vt1 0.106873 0.509521
vt1 0.279541 0.509521
vt1 0.259766 0.991928
vt1 0.838867 0.832886
vt1 0.721680 0.354492
vt1 0.804688 0.352051
vt1 0.727051 0.839111
vt1 0.056519 0.275391
vt1 0.543457 0.353516
vt1 0.058502 0.359863
vt1 0.537109 0.242188
vt1 0.577637 0.629883
vt1 0.600098 0.846924
vt1 0.575195 0.825073
vt1 0.599609 0.611084
vt1 0.001050 1.005348
vt1 0.008949 0.618164
vt1 0.033203 0.635010
vt1 0.036041 0.975052
vt1 0.087524 0.618408
vt1 0.094482 1.005859
vt1 0.060852 0.974884
vt1 0.060455 0.637207
vt1 0.290283 0.888367
vt1 0.323975 0.665039
vt1 0.323486 0.857300
vt1 0.291016 0.633545
vt1 0.838867 0.832642
vt1 0.662109 0.987671
vt1 0.727051 0.838745
vt1 0.908203 0.988258
vt1 0.665527 0.986572
vt1 0.280273 0.993546
vt1 0.280518 0.968796
vt1 0.553223 0.861572
vt1 0.380859 0.861450
vt1 0.006149 0.377441
vt1 0.392090 0.384277
vt1 0.006596 0.401855
vt1 0.106812 0.509277
vt1 0.279541 0.509277
vt1 0.536621 0.242188
vt1 0.673340 0.409668
vt1 0.543457 0.353516
vt1 0.673340 0.182617
vt1 0.698242 0.410645
vt1 0.698242 0.180176
vn 0.000000 -1.000000 0.000000
vn 0.000000 -1.000000 0.000000
vn 0.000000 -1.000000 0.000000
vn 0.000000 -1.000000 0.000000
vn -0.015748 0.023622 -1.000000
vn -0.015748 0.023622 -1.000000
vn 0.015748 0.023622 -1.000000
vn 0.015748 0.023622 -1.000000
vn 0.015748 0.023622 1.000000
vn 0.015748 0.023622 1.000000
vn -0.015748 0.023622 1.000000
vn -0.015748 0.023622 1.000000
vn -1.000000 0.039370 0.047244
vn -1.000000 0.039370 -0.047244
vn -0.992126 0.039370 0.078740
vn -1.000000 0.039370 -0.062992
vn 1.000000 0.039370 -0.047244
vn 1.000000 0.039370 0.047244
vn 0.992126 0.039370 0.086614
vn 1.000000 0.039370 -0.055118
vn -0.448819 -0.889764 0.007874
vn 0.236220 -0.968504 -0.062992
vn -0.944882 -0.322835 0.000000
vn 0.362205 -0.913386 0.196850
vn -0.070866 -0.881890 0.464567
vn 0.086614 -0.944882 0.307087
vn 0.007874 -0.921260 -0.393701
vn 0.000000 -0.385827 -0.921260
vn 0.078740 -0.960630 -0.259842
vn -0.094488 -0.850394 -0.519685
vn -0.007874 -0.803149 0.590551
vn 0.000000 -0.409449 0.913386
vn -0.519685 -0.850394 -0.062992
vn 0.669291 -0.740157 0.007874
vn 0.905512 -0.425197 0.000000
vn -0.551181 -0.811023 0.196850
vn -0.653543 0.755905 0.015748
vn -0.858268 0.511811 -0.023622
vn -0.637795 0.763779 -0.039370
vn -0.834646 0.543307 0.031496
vn -0.015748 0.267716 -0.960630
vn 0.007874 -0.086614 -1.000000
vn 0.015748 0.511811 -0.858268
vn 0.000000 0.582677 -0.811024
vn 0.000000 0.582677 -0.811024
vn 0.007874 -0.086614 1.000000
vn -0.015748 0.338583 0.937008
vn 0.015748 0.488189 0.874016
vn 0.000000 0.582677 0.811023
vn 0.000000 0.582677 0.811023
vn 0.653543 0.755905 -0.015748
vn 0.724409 0.685039 0.023622
vn 0.645669 0.763779 0.039370
vn 0.795276 0.606299 -0.023622
vn 0.992126 -0.086614 0.015748
vn 0.992126 -0.086614 -0.023622
tan 0.000000 0.000000 1.000000 1.000000
tan 0.000000 0.000000 1.000000 1.000000
tan 0.000000 0.000000 1.000000 1.000000
tan 0.000000 0.000000 1.000000 1.000000
tan 0.000000 1.000000 0.023622 1.000000
tan 0.000000 1.000000 0.023622 1.000000
tan 0.000000 1.000000 0.023622 1.000000
tan 0.000000 1.000000 0.023622 1.000000
tan 0.000000 -1.000000 0.023622 1.000000
tan 0.000000 -1.000000 0.023622 1.000000
tan 0.000000 -1.000000 0.023622 1.000000
tan 0.000000 -1.000000 0.023622 1.000000
tan 0.046562 0.984252 0.165354 1.000000
tan 0.043524 0.992126 -0.094488 1.000000
tan 0.049600 0.984314 0.132804 1.000000
tan 0.044826 1.000000 -0.086614 1.000000
tan -0.046004 -0.031496 -1.000000 1.000000
tan 0.048794 -0.039370 -1.000000 1.000000
tan 0.087854 -0.031248 -0.992126 1.000000
tan -0.053878 -0.031496 -1.000000 1.000000
tan 0.154814 -0.069998 0.914626 1.000000
tan 0.084382 -0.042532 0.970364 1.000000
tan -0.180482 0.528241 0.796453 1.000000
tan -0.145948 0.139562 0.916114 1.000000
tan 0.896522 -0.070866 0.002232 1.000000
tan 0.949718 0.062434 -0.075764 1.000000
tan 0.921198 -0.072912 0.189038 1.000000
tan 0.744311 0.580321 -0.243041 1.000000
tan 0.962676 0.074648 0.015748 1.000000
tan 0.846674 0.014136 -0.177072 1.000000
tan 0.838862 0.216070 0.305041 1.000000
tan 0.729121 -0.589745 -0.264368 1.000000
tan -0.191456 0.053568 0.856346 1.000000
tan -0.305661 -0.267344 0.850766 1.000000
tan 0.284581 0.606051 0.703267 1.000000
tan 0.103354 0.134540 0.843698 1.000000
tan 0.755657 0.654287 -0.046004 1.000000
tan 0.512183 0.858268 -0.013516 1.000000
tan 0.763160 0.641205 0.076198 1.000000
tan 0.544051 0.834646 0.019716 1.000000
tan 0.000000 0.960630 0.267716 1.000000
tan 0.000000 1.000000 -0.086614 1.000000
tan 0.000000 0.858268 0.511811 1.000000
tan 0.000000 0.811024 0.582677 1.000000
tan 0.000000 0.811024 0.582677 1.000000
tan 0.000000 -1.000000 -0.086614 1.000000
tan 0.000000 -0.937008 0.338583 1.000000
tan 0.000000 -0.874016 0.488189 1.000000
tan 0.000000 -0.811023 0.582677 1.000000
tan 0.000000 -0.811023 0.582677 1.000000
tan -0.167276 0.125054 -0.939364 1.000000
tan 0.214086 -0.193751 -0.946556 1.000000
tan 0.285821 -0.195300 -0.898630 1.000000
tan -0.210490 0.239320 -0.943952 1.000000
tan 0.019158 0.039060 -0.992126 1.000000
tan -0.031124 -0.085932 -0.992126 1.000000
f 3/3/3 2/2/2 1/1/1
f 4/4/4 3/3/3 1/1/1
f 7/7/7 6/6/6 5/5/5
f 8/8/8 6/6/6 7/7/7
f 11/11/11 10/10/10 9/9/9
f 9/9/9 12/12/12 11/11/11
f 15/15/15 14/14/14 13/13/13
f 16/16/16 13/13/13 14/14/14
f 19/19/19 18/18/18 17/17/17
f 20/20/20 17/17/17 18/18/18
f 23/23/23 22/22/22 21/21/21
f 24/24/24 21/21/21 22/22/22
f 27/27/27 26/26/26 25/25/25
f 28/28/28 27/27/27 25/25/25
f 31/31/31 30/30/30 29/29/29
f 32/32/32 31/31/31 29/29/29
f 35/35/35 34/34/34 33/33/33
f 34/34/34 36/36/36 33/33/33
f 39/39/39 38/38/38 37/37/37
f 40/40/40 37/37/37 38/38/38
f 43/43/43 42/42/42 41/41/41
f 41/41/41 44/44/44 43/43/43
f 45/45/45 43/43/43 44/44/44
f 48/48/48 47/47/47 46/46/46
f 48/48/48 49/49/49 47/47/47
f 50/50/50 47/47/47 49/49/49
f 53/53/53 52/52/52 51/51/51
f 54/54/54 51/51/51 52/52/52
f 52/52/52 55/55/55 54/54/54
f 56/56/56 54/54/54 55/55/55
