mtllib SM_RangeHood_LOD3.mtl
g SM_RangeHood_LOD3
#Vertices 33
#Indices 45
#Section 0 Offset 0 NumIndices 45 MaterialIndex 0 MI_RangeHood
v -0.280814 1.580721 -0.309347
v -0.227734 0.296297 -0.165271
v -0.322356 0.134924 -0.513445
v -0.322356 0.134924 -0.513445
v 0.476037 -0.022722 -0.597662
v 0.227600 0.296611 -0.453497
v -0.322356 0.134924 -0.513445
v -0.227734 0.296297 -0.165271
v -0.476629 -0.007327 -0.016032
v 0.476037 -0.022722 -0.597662
v -0.322356 0.134924 -0.513445
v -0.476629 -0.007327 -0.016032
v 0.500737 -0.025302 -0.006607
v -0.280814 1.580721 -0.309347
v -0.322356 0.134924 -0.513445
v 0.175340 1.567312 -0.419912
v 0.227600 0.296611 -0.453497
v 0.174622 1.567301 -0.198869
v 0.227797 0.296356 -0.165346
v -0.227734 0.296297 -0.165271
v -0.280814 1.580721 -0.309347
v -0.476629 -0.007327 -0.016032
v 0.227797 0.296356 -0.165346
v 0.500737 -0.025302 -0.006607
v -0.227734 0.296297 -0.165271
v 0.175340 1.567312 -0.419912
v 0.227797 0.296356 -0.165346
v 0.174622 1.567301 -0.198869
v 0.227600 0.296611 -0.453497
v 0.227600 0.296611 -0.453497
v 0.500737 -0.025302 -0.006607
v 0.227797 0.296356 -0.165346
v 0.476037 -0.022722 -0.597662
vt 0.912598 0.833130
vt 0.842773 0.386230
vt 0.964844 0.324707
vt 0.404297 0.062500
vt 0.683105 0.001465
vt 0.596191 0.121582
vt 0.961426 0.319824
vt 0.842773 0.386230
vt 0.792969 0.248047
vt 0.636230 0.885071
vt 0.208252 0.843750
vt 0.129761 0.575928
vt 0.648926 0.572510
vt 0.418701 0.572754
vt 0.406494 0.063477
vt 0.578125 0.566895
vt 0.596191 0.121582
vt 0.109924 0.566895
vt 0.091248 0.121582
vt 0.250732 0.121582
vt 0.269531 0.572754
vt 0.338135 0.004883
vt 0.091248 0.121094
vt -0.003475 -0.002930
vt 0.250732 0.121094
vt 0.709473 0.689697
vt 0.781250 0.239746
vt 0.786621 0.687744
vt 0.677734 0.245605
vt 0.677734 0.245605
vt 0.829590 0.095703
vt 0.781250 0.239746
vt 0.630371 0.103027
vt1 0.763672 0.349121
vt1 0.838867 0.832886
vt1 0.706055 0.899841
vt1 0.588867 0.925232
vt1 0.286865 0.990738
vt1 0.380859 0.861450
vt1 0.709961 0.904846
vt1 0.838867 0.832642
vt1 0.892578 0.982895
vt1 0.357666 0.247070
vt1 0.052551 0.217773
vt1 -0.003416 0.027344
vt1 0.366455 0.024414
vt1 0.573730 0.373047
vt1 0.586426 0.924072
vt1 0.400635 0.379395
vt1 0.380859 0.861328
vt1 0.126953 0.991936
vt1 0.106873 0.509521
vt1 0.279541 0.509521
vt1 0.299805 0.998124
vt1 0.374023 0.383789
vt1 0.106812 0.509277
vt1 0.004299 0.375000
vt1 0.279541 0.509277
vt1 0.056519 0.275391
vt1 0.543457 0.353516
vt1 0.058502 0.359863
vt1 0.537109 0.242188
vt1 0.536621 0.242188
vt1 0.699219 0.406250
vt1 0.543457 0.353516
vt1 0.691406 0.189941
vn -1.000000 0.039370 0.007874
vn -1.000000 0.039370 0.047244
vn -0.992126 0.039370 -0.086614
vn 0.000000 0.448819 -0.889764
vn 0.015748 0.393701 -0.921260
vn 0.000000 0.582677 -0.811024
vn -0.755906 0.653543 -0.023622
vn -0.653543 0.755905 0.015748
vn -0.834646 0.551181 0.023622
vn 0.000000 -1.000000 0.000000
vn 0.000000 -1.000000 0.000000
vn 0.000000 -1.000000 0.000000
vn 0.000000 -1.000000 0.000000
vn -0.023622 0.023622 -1.000000
vn -0.023622 0.023622 -1.000000
vn 0.015748 0.023622 -1.000000
vn 0.015748 0.023622 -1.000000
vn 0.015748 0.023622 1.000000
vn 0.015748 0.023622 1.000000
vn -0.015748 0.023622 1.000000
vn -0.023622 0.023622 1.000000
vn -0.015748 0.338583 0.937008
vn 0.000000 0.582677 0.811023
vn 0.015748 0.346457 0.937008
vn 0.000000 0.582677 0.811023
vn 1.000000 0.039370 -0.047244
vn 1.000000 0.039370 0.047244
vn 0.992126 0.039370 0.086614
vn 1.000000 0.039370 -0.055118
vn 0.653543 0.755905 -0.015748
vn 0.842520 0.543307 0.015748
vn 0.645669 0.763779 0.039370
vn 0.874016 0.480315 -0.023622
tan 0.039432 1.000000 0.007874 1.000000
tan 0.046562 0.984252 0.165354 1.000000
tan 0.050654 0.984314 -0.132804 1.000000
tan 0.000000 0.889764 0.448819 1.000000
tan 0.000000 0.921260 0.393701 1.000000
tan 0.000000 0.811024 0.582677 1.000000
tan 0.653729 0.755905 -0.005952 1.000000
tan 0.755657 0.654287 -0.046004 1.000000
tan 0.551553 0.834646 0.013144 1.000000
tan 0.000000 0.000000 1.000000 1.000000
tan 0.000000 0.000000 1.000000 1.000000
tan 0.000000 0.000000 1.000000 1.000000
tan 0.000000 0.000000 1.000000 1.000000
tan 0.000000 1.000000 0.023622 1.000000
tan 0.000000 1.000000 0.023622 1.000000
tan 0.000000 1.000000 0.023622 1.000000
tan 0.000000 1.000000 0.023622 1.000000
tan 0.000000 -1.000000 0.023622 1.000000
tan 0.000000 -1.000000 0.023622 1.000000
tan 0.000000 -1.000000 0.023622 1.000000
tan 0.000000 -1.000000 0.023622 1.000000
tan 0.000000 -0.937008 0.338583 1.000000
tan 0.000000 -0.811023 0.582677 1.000000
tan 0.000000 -0.937008 0.346457 1.000000
tan 0.000000 -0.811023 0.582677 1.000000
tan -0.046004 -0.031496 -1.000000 1.000000
tan 0.048794 -0.039370 -1.000000 1.000000
tan 0.087854 -0.031248 -0.992126 1.000000
tan -0.053878 -0.031496 -1.000000 1.000000
tan -0.167276 0.125054 -0.939364 1.000000
tan 0.274723 -0.402939 -0.796267 1.000000
tan 0.285821 -0.195300 -0.898630 1.000000
tan -0.203298 0.329407 -0.824106 1.000000
f 3/3/3 2/2/2 1/1/1
f 6/6/6 5/5/5 4/4/4
f 9/9/9 8/8/8 7/7/7
f 12/12/12 11/11/11 10/10/10
f 13/13/13 12/12/12 10/10/10
f 16/16/16 15/15/15 14/14/14
f 17/17/17 15/15/15 16/16/16
f 20/20/20 19/19/19 18/18/18
f 18/18/18 21/21/21 20/20/20
f 24/24/24 23/23/23 22/22/22
f 25/25/25 22/22/22 23/23/23
f 28/28/28 27/27/27 26/26/26
f 29/29/29 26/26/26 27/27/27
f 32/32/32 31/31/31 30/30/30
f 33/33/33 30/30/30 31/31/31
