mtllib SM_Soap_01.mtl
g SM_Soap_01
#Vertices 42
#Indices 132
#Section 0 Offset 0 NumIndices 132 MaterialIndex 0 MI_Soap
v 0.047624 0.000000 0.028772
v -0.047624 0.000000 0.028772
v 0.047624 0.002803 0.031575
v -0.047624 0.002803 0.031575
v -0.047624 0.025234 0.031575
v 0.047624 0.025234 0.031575
v 0.047624 0.028037 0.028772
v -0.047624 0.028037 0.028772
v -0.047624 0.028037 -0.028772
v 0.047624 0.028037 -0.028772
v 0.047624 0.025234 -0.031575
v -0.047624 0.025234 -0.031575
v -0.047624 0.002803 -0.031575
v 0.047624 0.002803 -0.031575
v 0.047624 -0.000000 -0.028772
v -0.047624 -0.000000 -0.028772
v -0.047624 0.000000 0.028772
v 0.047624 0.000000 0.028772
v -0.047624 0.025234 -0.031575
v -0.050428 0.002803 -0.028772
v -0.047624 0.002803 -0.031575
v -0.047624 -0.000000 -0.028772
v -0.050428 0.025234 -0.028772
v -0.047624 0.028037 -0.028772
v -0.047624 0.028037 0.028772
v -0.050428 0.002803 0.028772
v -0.047624 0.000000 0.028772
v -0.047624 0.002803 0.031575
v -0.050428 0.025234 0.028772
v -0.047624 0.025234 0.031575
v 0.047624 0.025234 -0.031575
v 0.047624 0.002803 -0.031575
v 0.050428 0.025234 -0.028772
v 0.047624 0.028037 -0.028772
v 0.050428 0.002803 -0.028772
v 0.047624 -0.000000 -0.028772
v 0.047624 0.000000 0.028772
v 0.050428 0.025234 0.028772
v 0.047624 0.028037 0.028772
v 0.047624 0.025234 0.031575
v 0.050428 0.002803 0.028772
v 0.047624 0.002803 0.031575
vt 0.544434 0.568604
vt 0.236816 0.568848
vt 0.544434 0.555664
vt 0.236816 0.556152
vt 0.236816 0.483887
vt 0.544434 0.483398
vt 0.544434 0.470703
vt 0.236816 0.470703
vt 0.236572 0.284668
vt 0.544434 0.284668
vt 0.544434 0.271484
vt 0.236572 0.271973
vt 0.236450 0.199219
vt 0.544434 0.199219
vt 0.544434 0.186523
vt 0.236450 0.186523
vt 0.236328 0.000488
vt 0.543945 0.000488
vt 0.988281 0.000488
vt 0.914551 0.013184
vt 0.913086 0.000488
vt 0.901855 0.011719
vt 0.986816 0.012695
vt 0.999512 0.011230
vt 1.000000 0.200195
vt 0.914551 0.198730
vt 0.901855 0.200195
vt 0.913086 0.211426
vt 0.987305 0.198730
vt 0.988770 0.211426
vt 0.735352 0.851929
vt 0.735352 0.776367
vt 0.748047 0.850342
vt 0.746582 0.862915
vt 0.748047 0.777832
vt 0.746582 0.765137
vt 0.935547 0.765015
vt 0.934082 0.850098
vt 0.935547 0.862915
vt 0.946289 0.851562
vt 0.934082 0.777588
vt 0.946777 0.776001
vt1 0.541504 0.991417
vt1 0.009018 0.991936
vt1 0.541504 0.969254
vt1 0.008995 0.969772
vt1 0.008873 0.844360
vt1 0.541504 0.843872
vt1 0.541504 0.821655
vt1 0.008850 0.822144
vt1 0.008537 0.500488
vt1 0.541016 0.500000
vt1 0.541016 0.478027
vt1 0.008514 0.478516
vt1 0.008392 0.353027
vt1 0.541016 0.352539
vt1 0.541016 0.330078
vt1 0.008377 0.330566
vt1 0.008064 0.008789
vt1 0.540527 0.008301
vt1 0.767090 0.018066
vt1 0.600586 0.046387
vt1 0.597168 0.017578
vt1 0.572266 0.042969
vt1 0.763672 0.045898
vt1 0.792480 0.042480
vt1 0.792480 0.466797
vt1 0.601074 0.463867
vt1 0.572266 0.467285
vt1 0.597656 0.491699
vt1 0.764160 0.463379
vt1 0.767578 0.492188
vt1 0.597168 0.517578
vt1 0.767090 0.517822
vt1 0.600586 0.546143
vt1 0.572266 0.542725
vt1 0.763672 0.545654
vt1 0.792480 0.542480
vt1 0.792480 0.966675
vt1 0.601074 0.963745
vt1 0.572754 0.967010
vt1 0.598145 0.991600
vt1 0.764160 0.963318
vt1 0.767578 0.991936
vn 0.031496 -1.000000 0.047244
vn -0.031496 -1.000000 0.047244
vn 0.023622 -0.110236 0.992126
vn -0.023622 -0.110236 0.992126
vn -0.023622 0.110236 0.992126
vn 0.023622 0.110236 0.992126
vn 0.031496 1.000000 0.047244
vn -0.031496 1.000000 0.047244
vn -0.031496 1.000000 -0.047244
vn 0.031496 1.000000 -0.047244
vn 0.023622 0.110236 -0.992126
vn -0.023622 0.110236 -0.992126
vn -0.023622 -0.110236 -0.992126
vn 0.023622 -0.110236 -0.992126
vn 0.031496 -1.000000 -0.047244
vn -0.031496 -1.000000 -0.047244
vn -0.031496 -1.000000 0.047244
vn 0.031496 -1.000000 0.047244
vn -0.023622 0.110236 -0.992126
vn -0.992126 -0.110236 -0.039370
vn -0.023622 -0.110236 -0.992126
vn -0.031496 -1.000000 -0.047244
vn -0.992126 0.110236 -0.039370
vn -0.031496 1.000000 -0.047244
vn -0.031496 1.000000 0.047244
vn -0.992126 -0.110236 0.039370
vn -0.031496 -1.000000 0.047244
vn -0.023622 -0.110236 0.992126
vn -0.992126 0.110236 0.039370
vn -0.023622 0.110236 0.992126
vn 0.023622 0.110236 -0.992126
vn 0.023622 -0.110236 -0.992126
vn 0.992126 0.110236 -0.039370
vn 0.031496 1.000000 -0.047244
vn 0.992126 -0.110236 -0.039370
vn 0.031496 -1.000000 -0.047244
vn 0.031496 -1.000000 0.047244
vn 0.992126 0.110236 0.039370
vn 0.031496 1.000000 0.047244
vn 0.023622 0.110236 0.992126
vn 0.992126 -0.110236 0.039370
vn 0.023622 -0.110236 0.992126
tan -0.001488 0.047244 1.000992 1.000000
tan 0.001488 0.047244 1.000992 1.000000
tan 0.002604 0.992684 0.110236 1.000000
tan -0.002604 0.992684 0.110236 1.000000
tan 0.002604 0.992684 -0.110236 1.000000
tan -0.002604 0.992684 -0.110236 1.000000
tan 0.001488 0.047244 -1.000992 1.000000
tan -0.001488 0.047244 -1.000992 1.000000
tan 0.001488 -0.047244 -1.000992 1.000000
tan -0.001488 -0.047244 -1.000992 1.000000
tan 0.002604 -0.992684 -0.110236 1.000000
tan -0.002604 -0.992684 -0.110236 1.000000
tan 0.002604 -0.992684 0.110236 1.000000
tan -0.002604 -0.992684 0.110236 1.000000
tan 0.001488 -0.047244 1.000992 1.000000
tan -0.001488 -0.047244 1.000992 1.000000
tan 0.001488 0.047244 1.000992 1.000000
tan -0.001488 0.047244 1.000992 1.000000
tan 0.932234 -0.349309 -0.061008 1.000000
tan 0.039060 0.004340 -0.996466 1.000000
tan 0.972162 0.231942 -0.048918 1.000000
tan 0.190836 0.040548 -0.985492 1.000000
tan 0.043400 0.035030 -0.995598 1.000000
tan 0.088102 -0.044144 -0.993118 1.000000
tan -0.190836 0.040548 -0.985492 1.000000
tan -0.043400 0.035030 -0.995598 1.000000
tan -0.088102 -0.044144 -0.993118 1.000000
tan -0.932234 -0.349309 -0.061008 1.000000
tan -0.039060 0.004340 -0.996466 1.000000
tan -0.972162 0.231942 -0.048918 1.000000
tan 0.152768 -0.977432 -0.104966 1.000000
tan -0.240436 -0.962180 0.101184 1.000000
tan 0.111166 -0.993676 0.019096 1.000000
tan 0.938496 -0.046252 -0.353339 1.000000
tan -0.108996 -0.993986 0.036456 1.000000
tan -0.970364 -0.041664 0.234980 1.000000
tan -0.938496 -0.046252 -0.353339 1.000000
tan 0.108996 -0.993986 0.036456 1.000000
tan 0.970364 -0.041664 0.234980 1.000000
tan 0.240436 -0.962180 0.101184 1.000000
tan -0.111166 -0.993676 0.019096 1.000000
tan -0.152768 -0.977432 -0.104966 1.000000
f 3/3/3 2/2/2 1/1/1
f 2/2/2 3/3/3 4/4/4
f 5/5/5 4/4/4 3/3/3
f 6/6/6 5/5/5 3/3/3
f 6/6/6 7/7/7 5/5/5
f 8/8/8 5/5/5 7/7/7
f 8/8/8 7/7/7 9/9/9
f 10/10/10 9/9/9 7/7/7
f 10/10/10 11/11/11 9/9/9
f 12/12/12 9/9/9 11/11/11
f 13/13/13 12/12/12 11/11/11
f 14/14/14 13/13/13 11/11/11
f 15/15/15 13/13/13 14/14/14
f 13/13/13 15/15/15 16/16/16
f 17/17/17 16/16/16 15/15/15
f 18/18/18 17/17/17 15/15/15
f 21/21/21 20/20/20 19/19/19
f 20/20/20 21/21/21 22/22/22
f 23/23/23 19/19/19 20/20/20
f 24/24/24 19/19/19 23/23/23
f 24/24/24 23/23/23 25/25/25
f 22/22/22 26/26/26 20/20/20
f 20/20/20 26/26/26 23/23/23
f 27/27/27 26/26/26 22/22/22
f 27/27/27 28/28/28 26/26/26
f 29/29/29 25/25/25 23/23/23
f 29/29/29 23/23/23 26/26/26
f 28/28/28 29/29/29 26/26/26
f 30/30/30 25/25/25 29/29/29
f 29/29/29 28/28/28 30/30/30
f 33/33/33 32/32/32 31/31/31
f 33/33/33 31/31/31 34/34/34
f 32/32/32 33/33/33 35/35/35
f 36/36/36 32/32/32 35/35/35
f 35/35/35 37/37/37 36/36/36
f 33/33/33 34/34/34 38/38/38
f 35/35/35 33/33/33 38/38/38
f 39/39/39 38/38/38 34/34/34
f 38/38/38 39/39/39 40/40/40
f 41/41/41 37/37/37 35/35/35
f 38/38/38 41/41/41 35/35/35
f 38/38/38 40/40/40 41/41/41
f 41/41/41 42/42/42 37/37/37
f 42/42/42 41/41/41 40/40/40
