mtllib SM_Soap_02.mtl
g SM_Soap_02
#Vertices 42
#Indices 132
#Section 0 Offset 0 NumIndices 132 MaterialIndex 0 MI_Soap
v 0.033935 0.000000 0.033935
v -0.033935 0.000000 0.033935
v 0.033935 0.003770 0.037705
v -0.033935 0.003770 0.037705
v -0.033935 0.071640 0.037705
v 0.033935 0.071640 0.037705
v 0.033935 0.075410 0.033935
v -0.033935 0.075410 0.033935
v -0.033935 0.075410 -0.033935
v 0.033935 0.075410 -0.033935
v 0.033935 0.071640 -0.037705
v -0.033935 0.071640 -0.037705
v -0.033935 0.003770 -0.037705
v 0.033935 0.003770 -0.037705
v 0.033935 -0.000000 -0.033935
v -0.033935 -0.000000 -0.033935
v -0.033935 0.000000 0.033935
v 0.033935 0.000000 0.033935
v -0.033935 0.071640 -0.037705
v -0.037705 0.003770 -0.033935
v -0.033935 0.003770 -0.037705
v -0.033935 -0.000000 -0.033935
v -0.037705 0.071640 -0.033935
v -0.033935 0.075410 -0.033935
v -0.033935 0.075410 0.033935
v -0.037705 0.003770 0.033935
v -0.033935 0.000000 0.033935
v -0.033935 0.003770 0.037705
v -0.037705 0.071640 0.033935
v -0.033935 0.071640 0.037705
v 0.033935 0.071640 -0.037705
v 0.033935 0.003770 -0.037705
v 0.037705 0.071640 -0.033935
v 0.033935 0.075410 -0.033935
v 0.037705 0.003770 -0.033935
v 0.033935 -0.000000 -0.033935
v 0.033935 0.000000 0.033935
v 0.037705 0.071640 0.033935
v 0.033935 0.075410 0.033935
v 0.033935 0.071640 0.037705
v 0.037705 0.003770 0.033935
v 0.033935 0.003770 0.037705
vt 0.227539 0.946777
vt 0.008202 0.948669
vt 0.227417 0.929565
vt 0.008049 0.931458
vt 0.006153 0.712158
vt 0.225586 0.710205
vt 0.225342 0.692871
vt 0.006004 0.694824
vt 0.004101 0.475586
vt 0.223511 0.473633
vt 0.223389 0.456543
vt 0.003952 0.458496
vt 0.002050 0.238770
vt 0.221436 0.236816
vt 0.221313 0.219727
vt 0.001902 0.221680
vt 0.000000 0.001953
vt 0.219360 0.000000
vt 0.665039 0.577637
vt 0.443848 0.594971
vt 0.441650 0.577637
vt 0.426758 0.593018
vt 0.663086 0.594482
vt 0.680176 0.592529
vt 0.680176 0.815918
vt 0.443848 0.814331
vt 0.426758 0.816162
vt 0.442139 0.831177
vt 0.663086 0.813843
vt 0.665527 0.831055
vt 0.933594 0.753418
vt 0.710449 0.756348
vt 0.931152 0.736328
vt 0.948242 0.738037
vt 0.711914 0.739502
vt 0.694824 0.741699
vt 0.691895 0.518311
vt 0.928223 0.516846
vt 0.945312 0.514648
vt 0.930176 0.500000
vt 0.708984 0.520020
vt 0.706543 0.502930
vt1 0.744141 0.989967
vt1 0.516113 0.991936
vt1 0.743652 0.972092
vt1 0.516113 0.974060
vt1 0.514160 0.746582
vt1 0.741699 0.744629
vt1 0.741699 0.726807
vt1 0.514160 0.728760
vt1 0.512207 0.501221
vt1 0.739746 0.499023
vt1 0.739746 0.481445
vt1 0.511719 0.483398
vt1 0.509766 0.255859
vt1 0.737305 0.253906
vt1 0.737305 0.235840
vt1 0.509766 0.237793
vt1 0.507812 0.010254
vt1 0.735352 0.008301
vt1 0.457520 0.013672
vt1 0.040039 0.045898
vt1 0.036224 0.013672
vt1 0.008125 0.042480
vt1 0.454102 0.045410
vt1 0.486328 0.041992
vt1 0.486328 0.463379
vt1 0.040436 0.460449
vt1 0.008064 0.463867
vt1 0.036896 0.492188
vt1 0.454346 0.459473
vt1 0.458252 0.491699
vt1 0.463867 0.986229
vt1 0.042603 0.991936
vt1 0.459717 0.953918
vt1 0.491699 0.957245
vt1 0.045746 0.959961
vt1 0.013412 0.964020
vt1 0.008064 0.542725
vt1 0.454102 0.540039
vt1 0.486328 0.535889
vt1 0.457031 0.508057
vt1 0.040009 0.545898
vt1 0.035797 0.513672
vn 0.047244 -1.000000 0.047244
vn -0.047244 -1.000000 0.047244
vn 0.047244 -0.047244 1.000000
vn -0.047244 -0.047244 1.000000
vn -0.047244 0.047244 1.000000
vn 0.047244 0.047244 1.000000
vn 0.047244 1.000000 0.047244
vn -0.047244 1.000000 0.047244
vn -0.047244 1.000000 -0.047244
vn 0.047244 1.000000 -0.047244
vn 0.047244 0.047244 -1.000000
vn -0.047244 0.047244 -1.000000
vn -0.047244 -0.047244 -1.000000
vn 0.047244 -0.047244 -1.000000
vn 0.047244 -1.000000 -0.047244
vn -0.047244 -1.000000 -0.047244
vn -0.047244 -1.000000 0.047244
vn 0.047244 -1.000000 0.047244
vn -0.047244 0.047244 -1.000000
vn -1.000000 -0.047244 -0.047244
vn -0.047244 -0.047244 -1.000000
vn -0.047244 -1.000000 -0.047244
vn -1.000000 0.047244 -0.047244
vn -0.047244 1.000000 -0.047244
vn -0.047244 1.000000 0.047244
vn -1.000000 -0.047244 0.047244
vn -0.047244 -1.000000 0.047244
vn -0.047244 -0.047244 1.000000
vn -1.000000 0.047244 0.047244
vn -0.047244 0.047244 1.000000
vn 0.047244 0.047244 -1.000000
vn 0.047244 -0.047244 -1.000000
vn 1.000000 0.047244 -0.047244
vn 0.047244 1.000000 -0.047244
vn 1.000000 -0.047244 -0.047244
vn 0.047244 -1.000000 -0.047244
vn 0.047244 -1.000000 0.047244
vn 1.000000 0.047244 0.047244
vn 0.047244 1.000000 0.047244
vn 0.047244 0.047244 1.000000
vn 1.000000 -0.047244 0.047244
vn 0.047244 -0.047244 1.000000
tan 0.005642 0.047616 1.002232 1.000000
tan 0.002232 0.047244 1.002232 1.000000
tan 0.010106 1.002232 0.046872 1.000000
tan 0.005642 1.002232 0.047616 1.000000
tan 0.010106 1.002232 -0.046872 1.000000
tan 0.005642 1.002232 -0.047616 1.000000
tan 0.010106 0.046872 -1.002232 1.000000
tan 0.005642 0.047616 -1.002232 1.000000
tan 0.010106 -0.046872 -1.002232 1.000000
tan 0.005642 -0.047616 -1.002232 1.000000
tan 0.010106 -1.002232 -0.046872 1.000000
tan 0.005642 -1.002232 -0.047616 1.000000
tan 0.010106 -1.002232 0.046872 1.000000
tan 0.005642 -1.002232 0.047616 1.000000
tan 0.010106 -0.046872 1.002232 1.000000
tan 0.005642 -0.047616 1.002232 1.000000
tan 0.010106 0.046872 1.002232 1.000000
tan 0.005642 0.047616 1.002232 1.000000
tan 0.938496 -0.352843 -0.061008 1.000000
tan 0.047244 0.002232 -1.002232 1.000000
tan 0.970364 0.234360 -0.056916 1.000000
tan 0.184078 0.037944 -0.987228 1.000000
tan 0.049104 0.037138 -1.002232 1.000000
tan 0.089218 -0.042780 -0.994730 1.000000
tan -0.184078 0.037944 -0.987228 1.000000
tan -0.049104 0.037138 -1.002232 1.000000
tan -0.089218 -0.042780 -0.994730 1.000000
tan -0.938496 -0.352843 -0.061008 1.000000
tan -0.047244 0.002232 -1.002232 1.000000
tan -0.970364 0.234360 -0.056916 1.000000
tan 0.970364 0.242234 0.057288 1.000000
tan 0.938496 -0.344969 0.060636 1.000000
tan 0.046500 0.018352 1.002604 1.000000
tan 0.167958 0.038688 0.986856 1.000000
tan 0.049476 0.045012 1.002232 1.000000
tan 0.104966 -0.042036 0.994730 1.000000
tan -0.167958 0.038688 0.986856 1.000000
tan -0.049476 0.045012 1.002232 1.000000
tan -0.104966 -0.042036 0.994730 1.000000
tan -0.938496 -0.344969 0.060636 1.000000
tan -0.046500 0.018352 1.002604 1.000000
tan -0.970364 0.242234 0.057288 1.000000
f 3/3/3 2/2/2 1/1/1
f 2/2/2 3/3/3 4/4/4
f 5/5/5 4/4/4 3/3/3
f 6/6/6 5/5/5 3/3/3
f 6/6/6 7/7/7 5/5/5
f 8/8/8 5/5/5 7/7/7
f 8/8/8 7/7/7 9/9/9
f 9/9/9 7/7/7 10/10/10
f 10/10/10 11/11/11 9/9/9
f 12/12/12 9/9/9 11/11/11
f 13/13/13 12/12/12 11/11/11
f 14/14/14 13/13/13 11/11/11
f 15/15/15 13/13/13 14/14/14
f 13/13/13 15/15/15 16/16/16
f 17/17/17 16/16/16 15/15/15
f 18/18/18 17/17/17 15/15/15
f 21/21/21 20/20/20 19/19/19
f 20/20/20 21/21/21 22/22/22
f 19/19/19 20/20/20 23/23/23
f 24/24/24 19/19/19 23/23/23
f 23/23/23 25/25/25 24/24/24
f 22/22/22 26/26/26 20/20/20
f 20/20/20 26/26/26 23/23/23
f 27/27/27 26/26/26 22/22/22
f 27/27/27 28/28/28 26/26/26
f 29/29/29 25/25/25 23/23/23
f 29/29/29 23/23/23 26/26/26
f 28/28/28 29/29/29 26/26/26
f 30/30/30 25/25/25 29/29/29
f 30/30/30 29/29/29 28/28/28
f 33/33/33 32/32/32 31/31/31
f 33/33/33 31/31/31 34/34/34
f 35/35/35 32/32/32 33/33/33
f 36/36/36 32/32/32 35/35/35
f 35/35/35 37/37/37 36/36/36
f 34/34/34 38/38/38 33/33/33
f 38/38/38 35/35/35 33/33/33
f 39/39/39 38/38/38 34/34/34
f 38/38/38 39/39/39 40/40/40
f 41/41/41 37/37/37 35/35/35
f 38/38/38 41/41/41 35/35/35
f 38/38/38 40/40/40 41/41/41
f 41/41/41 42/42/42 37/37/37
f 41/41/41 40/40/40 42/42/42
