mtllib SM_SmallTable_01_LOD5.mtl
g SM_SmallTable_01_LOD5
#Vertices 52
#Indices 72
#Section 0 Offset 0 NumIndices 72 MaterialIndex 0 MI_SmallTable_01
v -0.278871 0.393223 0.313006
v -0.274573 -0.074989 0.481883
v -0.370984 0.193501 0.477489
v -0.274573 -0.074989 0.481883
v -0.278871 0.393223 0.313006
v -0.370984 0.193501 0.477489
v 0.469017 0.452624 -0.154893
v 0.451742 0.382863 0.133733
v 0.296970 0.467643 0.654499
v -0.429336 0.452361 0.336529
v -0.404499 0.388478 0.403559
v -0.392538 0.391730 -0.469987
v -0.407584 0.451920 -0.401058
v -0.429336 0.452361 0.336529
v -0.392538 0.391730 -0.469987
v 0.268225 0.393470 -0.663236
v 0.451742 0.382863 0.133733
v 0.469017 0.452624 -0.154893
v -0.429336 0.452361 0.336529
v -0.175200 0.453277 0.760503
v -0.404499 0.388478 0.403559
v -0.392538 0.391730 -0.469987
v -0.007850 0.344230 -0.843421
v -0.407584 0.451920 -0.401058
v 0.180125 0.454522 -0.747174
v -0.007850 0.344230 -0.843421
v 0.268225 0.393470 -0.663236
v 0.268225 0.393470 -0.663236
v 0.469017 0.452624 -0.154893
v 0.180125 0.454522 -0.747174
v 0.296970 0.467643 0.654499
v -0.000687 0.384161 0.809816
v 0.000000 0.454747 -0.000000
v -0.000687 0.384161 0.809816
v -0.175200 0.453277 0.760503
v 0.469017 0.452624 -0.154893
v 0.296970 0.467643 0.654499
v 0.180125 0.454522 -0.747174
v -0.007850 0.344230 -0.843421
v 0.180125 0.454522 -0.747174
v -0.407584 0.451920 -0.401058
v -0.429336 0.452361 0.336529
v -0.175200 0.453277 0.760503
v 0.296970 0.467643 0.654499
v 0.451742 0.382863 0.133733
v -0.000687 0.384161 0.809816
v 0.268225 0.393470 -0.663236
v -0.007850 0.344230 -0.843421
v -0.007850 0.344230 -0.843421
v -0.392538 0.391730 -0.469987
v -0.404499 0.388478 0.403559
v -0.175200 0.453277 0.760503
vt 0.136719 0.976135
vt 0.141357 0.728516
vt 0.124268 0.854980
vt 0.134644 0.728760
vt 0.139282 0.975906
vt 0.094116 0.855103
vt 0.929199 0.424805
vt 0.963379 0.566406
vt 0.921875 0.831421
vt 0.878906 0.332520
vt 0.910645 0.299316
vt 0.917480 0.732666
vt 0.877930 0.698975
vt 0.873535 0.334961
vt 0.903320 0.733154
vt 0.963867 0.156250
vt 0.982910 0.559326
vt 0.929199 0.425781
vt 0.878906 0.330078
vt 0.873047 0.092285
vt 0.903320 0.296875
vt 0.905273 0.731689
vt 0.914062 0.989906
vt 0.875000 0.701904
vt 0.928711 0.094238
vt 0.969727 -0.008789
vt 0.960449 0.147461
vt 0.956055 0.155273
vt 0.922363 0.422363
vt 0.921387 0.098633
vt 0.366211 0.719727
vt 0.225098 0.800049
vt 0.215088 0.396973
vt 0.225830 0.800049
vt 0.138306 0.777832
vt 0.446533 0.313477
vt 0.371826 0.718506
vt 0.294434 0.022461
vt 0.199463 -0.022461
vt 0.294434 0.022461
vt 0.006779 0.203125
vt 0.006062 0.570312
vt 0.138184 0.777832
vt 0.793945 0.054688
vt 0.874512 0.320801
vt 0.637207 -0.005859
vt 0.791992 0.723389
vt 0.656738 0.816650
vt 0.657227 0.816650
vt 0.460449 0.636475
vt 0.441162 0.200684
vt 0.548828 0.018555
vt1 0.251221 0.894104
vt1 0.255127 0.677734
vt1 0.240356 0.788208
vt1 0.249512 0.677734
vt1 0.253418 0.893921
vt1 0.213989 0.788208
vt1 0.017471 0.385742
vt1 0.047333 0.510010
vt1 0.010872 0.741455
vt1 0.082336 0.304688
vt1 0.110229 0.275879
vt1 0.115479 0.654785
vt1 0.081116 0.625244
vt1 0.077515 0.306641
vt1 0.103088 0.655029
vt1 0.048096 0.151367
vt1 0.064026 0.503662
vt1 0.017456 0.386719
vt1 0.082275 0.303223
vt1 0.077759 0.094727
vt1 0.103638 0.273438
vt1 0.104797 0.654053
vt1 0.112244 0.879700
vt1 0.078430 0.627686
vt1 0.017761 0.096680
vt1 0.053406 0.006836
vt1 0.045074 0.143555
vt1 0.041199 0.150391
vt1 0.011665 0.383789
vt1 0.011169 0.100586
vt1 0.869141 0.642578
vt1 0.746094 0.713135
vt1 0.736816 0.360840
vt1 0.746582 0.713135
vt1 0.669922 0.693848
vt1 0.938965 0.287598
vt1 0.874023 0.641602
vt1 0.805664 0.033203
vt1 0.722168 -0.005859
vt1 0.805664 0.033203
vt1 0.554199 0.191406
vt1 0.554199 0.512451
vt1 0.669922 0.693848
vt1 0.454346 0.061035
vt1 0.524414 0.293945
vt1 0.317383 0.008301
vt1 0.452881 0.645996
vt1 0.334961 0.727783
vt1 0.334961 0.727783
vt1 0.163086 0.570312
vt1 0.145874 0.188965
vt1 0.239990 0.029785
vn -0.188976 -0.228347 -0.952756
vn 0.850394 -0.275591 -0.448819
vn 0.000000 -0.267717 -0.960630
vn 0.724409 -0.275591 -0.629921
vn -0.299213 -0.220473 -0.929134
vn -0.913386 0.015748 -0.401575
vn 0.858268 0.511811 -0.023622
vn 0.677165 -0.732283 0.102362
vn 0.661417 0.685039 0.299212
vn -0.921260 0.322835 0.212598
vn -0.834646 -0.496063 0.236221
vn -0.771654 -0.590551 -0.251968
vn -0.921260 0.307087 -0.228346
vn -0.889764 0.425197 0.181102
vn -0.913386 -0.314961 -0.267716
vn 0.716535 -0.535433 -0.448819
vn 0.732283 -0.677165 0.086614
vn 0.921260 0.370079 -0.102362
vn -0.779528 0.614173 0.133858
vn -0.417323 0.755905 0.503937
vn -0.889764 -0.362205 0.283465
vn -0.842520 -0.440945 -0.307087
vn -0.496063 -0.582677 -0.637795
vn -0.645669 0.755905 -0.110236
vn 0.464567 0.685039 -0.566929
vn 0.062992 -0.716535 -0.692913
vn 0.685039 -0.511811 -0.527559
vn 0.732283 -0.464567 -0.503937
vn 0.748031 0.661417 -0.062992
vn 0.299213 0.881890 -0.362205
vn 0.023622 1.000000 0.007874
vn 0.000000 1.000000 0.031496
vn 0.000000 1.000000 -0.000000
vn 0.000000 1.000000 0.031496
vn -0.023622 1.000000 0.031496
vn 0.062992 1.000000 -0.007874
vn 0.007874 1.000000 0.015748
vn 0.000000 1.000000 -0.007874
vn 0.000000 1.000000 -0.007874
vn 0.007874 1.000000 -0.015748
vn -0.039370 1.000000 -0.007874
vn -0.055118 1.000000 0.015748
vn -0.007874 1.000000 0.015748
vn 0.039370 -1.000000 0.031496
vn 0.055118 -1.000000 0.007874
vn 0.000000 -1.000000 0.031496
vn 0.031496 -1.000000 -0.023622
vn 0.000000 -1.000000 -0.031496
vn 0.000000 -1.000000 -0.031496
vn -0.047244 -1.000000 -0.015748
vn -0.047244 -1.000000 0.015748
vn -0.023622 -1.000000 0.031496
tan -0.318991 -0.895716 0.277947 1.000000
tan 0.352471 -0.309318 0.857772 1.000000
tan -0.052948 -0.960630 0.267717 1.000000
tan 0.501581 -0.388369 0.746729 1.000000
tan -0.307273 -0.877922 0.307273 1.000000
tan -0.401947 -0.040548 0.912642 1.000000
tan 0.362825 -0.635439 -0.585219 1.000000
tan 0.734329 0.653109 -0.185628 1.000000
tan -0.745551 0.610329 0.250728 1.000000
tan 0.180420 -0.087048 0.914006 1.000000
tan 0.292951 -0.098580 0.828074 1.000000
tan -0.362267 0.151900 0.753425 1.000000
tan -0.255565 -0.087048 0.914006 1.000000
tan 0.191146 0.021018 0.889764 1.000000
tan -0.252836 -0.043152 0.913386 1.000000
tan -0.543617 -0.137516 -0.703825 1.000000
tan -0.437225 -0.536239 -0.495877 1.000000
tan -0.148180 0.116064 -0.914006 1.000000
tan 0.626263 0.750077 0.205530 1.000000
tan 0.511873 -0.115444 0.597061 1.000000
tan 0.315457 -0.063984 0.908426 1.000000
tan -0.454089 0.309939 0.800793 1.000000
tan 0.772708 -0.563581 -0.086118 1.000000
tan -0.760370 -0.639717 0.066960 1.000000
tan -0.325129 -0.424329 -0.779155 1.000000
tan 0.284829 -0.640833 0.688573 1.000000
tan -0.567115 0.054932 -0.789695 1.000000
tan -0.676049 -0.458801 -0.559427 1.000000
tan 0.660177 -0.733337 0.139562 1.000000
tan -0.719325 0.036828 -0.504557 1.000000
tan 0.023622 0.007316 -1.000000 1.000000
tan 0.023622 0.031496 -1.000000 1.000000
tan 0.023622 -0.000000 -1.000000 1.000000
tan 0.023622 0.031496 -1.000000 1.000000
tan 0.031496 0.032240 -1.000000 1.000000
tan 0.031496 -0.009858 -1.000000 1.000000
tan 0.023622 0.015562 -1.000000 1.000000
tan 0.023622 -0.007874 -1.000000 1.000000
tan 0.023622 -0.007874 -1.000000 1.000000
tan 0.031496 -0.015996 -1.000000 1.000000
tan 0.023622 -0.006944 -1.000000 1.000000
tan 0.031496 0.017484 -1.000000 1.000000
tan 0.031496 0.015996 -1.000000 1.000000
tan 0.031496 0.032736 1.000000 1.000000
tan 0.031496 0.009610 1.000000 1.000000
tan 0.031496 0.031496 1.000000 1.000000
tan 0.023622 -0.022878 1.000000 1.000000
tan 0.031496 -0.031496 1.000000 1.000000
tan 0.031496 -0.031496 1.000000 1.000000
tan 0.031496 -0.017236 1.000000 1.000000
tan 0.031496 0.014260 1.000000 1.000000
tan 0.023622 0.030938 1.000000 1.000000
f 3/3/3 2/2/2 1/1/1
f 6/6/6 5/5/5 4/4/4
f 9/9/9 8/8/8 7/7/7
f 12/12/12 11/11/11 10/10/10
f 15/15/15 14/14/14 13/13/13
f 18/18/18 17/17/17 16/16/16
f 21/21/21 20/20/20 19/19/19
f 24/24/24 23/23/23 22/22/22
f 27/27/27 26/26/26 25/25/25
f 30/30/30 29/29/29 28/28/28
f 33/33/33 32/32/32 31/31/31
f 33/33/33 35/35/35 34/34/34
f 33/33/33 37/37/37 36/36/36
f 33/33/33 36/36/36 38/38/38
f 33/33/33 40/40/40 39/39/39
f 33/33/33 39/39/39 41/41/41
f 33/33/33 41/41/41 42/42/42
f 33/33/33 42/42/42 43/43/43
f 46/46/46 45/45/45 44/44/44
f 46/46/46 47/47/47 45/45/45
f 46/46/46 48/48/48 47/47/47
f 46/46/46 50/50/50 49/49/49
f 46/46/46 51/51/51 50/50/50
f 46/46/46 52/52/52 51/51/51
