mtllib SM_Shelf_01_LOD3.mtl
g SM_Shelf_01_LOD3
#Vertices 99
#Indices 207
#Section 0 Offset 0 NumIndices 207 MaterialIndex 0 MI_Shelf_01
v 0.377874 0.638079 -0.000014
v 0.410415 0.635716 -0.280854
v 0.409999 0.635134 -0.000002
v 0.378203 0.635972 -0.283280
v 0.377834 0.005189 -0.168429
v 0.378267 0.004633 0.001156
v 0.410891 0.004241 -0.170335
v 0.410020 0.005189 0.001126
v -0.410526 0.637950 0.000009
v -0.378096 0.635754 -0.279613
v -0.378385 0.635134 -0.000002
v -0.410259 0.635862 -0.283944
v -0.410548 0.005206 -0.168452
v -0.410116 0.004633 0.001156
v -0.377508 0.004267 -0.170412
v -0.378364 0.005189 0.001126
v -0.396568 0.129524 -0.222139
v 0.387733 0.129311 -0.220898
v -0.396103 0.111946 -0.241005
v 0.388025 0.130736 -0.265400
v -0.396394 0.136822 -0.265225
v 0.388258 0.156194 -0.246025
v -0.396592 0.154559 -0.242898
v 0.387733 0.129311 -0.220898
v -0.396568 0.129524 -0.222139
v -0.396569 0.079636 -0.184330
v 0.387732 0.079423 -0.183089
v -0.396103 0.062058 -0.203195
v 0.388025 0.080847 -0.227591
v -0.396394 0.086934 -0.227416
v 0.388258 0.106306 -0.208216
v -0.396592 0.104671 -0.205088
v 0.387732 0.079423 -0.183089
v -0.396569 0.079636 -0.184330
v 0.410415 0.635716 -0.280854
v 0.410020 0.005189 0.001126
v 0.409999 0.635134 -0.000002
v 0.410248 0.140370 -0.281378
v 0.410891 0.004241 -0.170335
v 0.378267 0.004633 0.001156
v 0.378203 0.635972 -0.283280
v 0.377874 0.638079 -0.000014
v 0.378228 0.139843 -0.284699
v 0.377834 0.005189 -0.168429
v -0.410259 0.635862 -0.283944
v -0.378136 0.143284 -0.283309
v -0.378096 0.635754 -0.279613
v -0.410059 0.138858 -0.283874
v -0.377508 0.004267 -0.170412
v -0.410548 0.005206 -0.168452
v -0.378096 0.635754 -0.279613
v -0.378364 0.005189 0.001126
v -0.378385 0.635134 -0.000002
v -0.378136 0.143284 -0.283309
v -0.377508 0.004267 -0.170412
v -0.410116 0.004633 0.001156
v -0.410259 0.635862 -0.283944
v -0.410526 0.637950 0.000009
v -0.410059 0.138858 -0.283874
v -0.410548 0.005206 -0.168452
v 0.378203 0.635972 -0.283280
v 0.378228 0.139843 -0.284699
v 0.410415 0.635716 -0.280854
v 0.410248 0.140370 -0.281378
v 0.410891 0.004241 -0.170335
v 0.377834 0.005189 -0.168429
v -0.396594 0.043165 -0.161350
v 0.388171 0.043382 -0.000000
v -0.396622 0.043382 -0.000000
v 0.388171 0.043039 -0.160051
v 0.388199 0.033826 -0.168031
v -0.396622 0.034543 -0.165197
v -0.396581 0.010975 -0.164007
v 0.388171 0.008022 -0.152147
v -0.396622 0.008022 -0.152147
v -0.396622 0.008022 -0.000000
v 0.388171 0.008022 -0.000000
v -0.396603 0.382552 -0.272324
v 0.388171 0.382676 -0.000000
v -0.396622 0.382676 -0.000000
v 0.388171 0.382476 -0.270896
v 0.388199 0.373119 -0.279159
v -0.396622 0.373837 -0.276332
v -0.396581 0.350229 -0.275122
v 0.388171 0.347316 -0.263282
v -0.396622 0.347316 -0.263282
v -0.396622 0.347316 -0.000000
v 0.388171 0.347316 -0.000000
v -0.396603 0.612321 -0.272324
v 0.388171 0.612445 -0.000000
v -0.396622 0.612445 -0.000000
v 0.388171 0.612245 -0.270896
v 0.388199 0.602888 -0.279159
v -0.396622 0.603606 -0.276332
v -0.396581 0.579998 -0.275122
v 0.388171 0.577085 -0.263282
v -0.396622 0.577085 -0.263282
v -0.396622 0.577085 -0.000000
v 0.388171 0.577085 -0.000000
vt 0.982422 0.000488
vt 0.961426 0.178223
vt 0.959961 0.000488
vt 0.982910 0.179688
vt 0.062988 0.607666
vt 0.063171 0.500000
vt 0.084106 0.608887
vt 0.084167 0.500000
vt 0.994629 0.187012
vt 0.974121 0.364258
vt 0.972656 0.187012
vt 0.995605 0.367188
vt 0.961426 0.480469
vt 0.961914 0.373047
vt 0.982910 0.481445
vt 0.982910 0.373047
vt 0.554688 0.998075
vt 0.553223 0.501221
vt 0.570312 0.997738
vt 0.583984 0.500977
vt 0.589844 0.997862
vt 0.603516 0.500732
vt 0.606445 0.997953
vt 0.625977 0.500977
vt 0.626953 0.997885
vt 0.478027 0.997892
vt 0.477783 0.500977
vt 0.493408 0.997599
vt 0.508301 0.500732
vt 0.513184 0.997776
vt 0.527832 0.500732
vt 0.529785 0.997913
vt 0.550293 0.500977
vt 0.549805 0.997900
vt 0.281250 0.899841
vt 0.459229 0.500000
vt 0.459229 0.899170
vt 0.280518 0.586182
vt 0.349854 0.500000
vt 0.091248 0.499512
vt 0.270996 0.899902
vt 0.091492 0.901245
vt 0.271973 0.585938
vt 0.199219 0.500244
vt 0.916992 0.425293
vt 0.937012 0.113281
vt 0.937012 0.425293
vt 0.916992 0.110352
vt 0.937500 -0.000977
vt 0.916504 -0.000977
vt 0.635254 0.899902
vt 0.812500 0.500000
vt 0.812500 0.899109
vt 0.632812 0.587891
vt 0.703125 0.500000
vt 0.818359 0.498535
vt 0.998535 0.898804
vt 0.818359 0.900085
vt 0.998535 0.584229
vt 0.926270 0.499512
vt 0.937500 0.425293
vt 0.937012 0.110840
vt 0.957520 0.425293
vt 0.957520 0.110840
vt 0.957520 -0.000977
vt 0.936523 -0.000977
vt 0.822266 0.497559
vt 0.916016 0.000488
vt 0.916016 0.497559
vt 0.822754 0.000488
vt 0.815430 0.000000
vt 0.816895 0.497559
vt 0.802246 0.497559
vt 0.794922 0.000488
vt 0.794922 0.497559
vt 0.706543 0.497559
vt 0.706543 0.000488
vt 0.539062 0.497559
vt 0.703125 0.000488
vt 0.703125 0.497559
vt 0.540039 0.000488
vt 0.532227 0.000000
vt 0.533691 0.497559
vt 0.519043 0.497559
vt 0.511719 0.000488
vt 0.511719 0.497559
vt 0.353516 0.497559
vt 0.353271 0.000488
vt 0.186035 0.497559
vt 0.349854 0.000488
vt 0.350098 0.497559
vt 0.186646 0.000488
vt 0.179199 0.000488
vt 0.180664 0.497559
vt 0.166016 0.497559
vt 0.158569 0.000488
vt 0.158813 0.497559
vt 0.000175 0.497559
vt 0.000000 0.000488
vt1 0.877441 0.459961
vt1 0.859863 0.608398
vt1 0.858887 0.459961
vt1 0.877930 0.609863
vt1 0.854004 0.734131
vt1 0.854004 0.644287
vt1 0.871582 0.735107
vt1 0.871582 0.644287
vt1 0.927734 0.491699
vt1 0.910645 0.639893
vt1 0.909668 0.491699
vt1 0.928711 0.642090
vt1 0.908691 0.764404
vt1 0.909180 0.674561
vt1 0.926270 0.765381
vt1 0.926270 0.674561
vt1 0.579102 0.871338
vt1 0.578613 0.456055
vt1 0.591797 0.871094
vt1 0.604492 0.456055
vt1 0.608398 0.871216
vt1 0.620605 0.456055
vt1 0.622070 0.871338
vt1 0.639648 0.456055
vt1 0.638672 0.871338
vt1 0.875000 0.429199
vt1 0.875000 0.014160
vt1 0.887695 0.429199
vt1 0.900391 0.013672
vt1 0.904297 0.429199
vt1 0.916992 0.013672
vt1 0.917969 0.429199
vt1 0.935547 0.014160
vt1 0.935059 0.429199
vt1 0.674316 0.792114
vt1 0.823242 0.458008
vt1 0.823242 0.791626
vt1 0.673828 0.529785
vt1 0.732422 0.458008
vt1 0.201294 0.461914
vt1 0.351807 0.796265
vt1 0.201782 0.797241
vt1 0.352539 0.533691
vt1 0.291260 0.462402
vt1 0.970215 0.370605
vt1 0.986816 0.109375
vt1 0.986816 0.370605
vt1 0.970215 0.107422
vt1 0.987305 0.014160
vt1 0.969727 0.013672
vt1 0.018097 0.796143
vt1 0.166382 0.461914
vt1 0.166138 0.795654
vt1 0.015884 0.535400
vt1 0.075439 0.461914
vt1 0.387939 0.461914
vt1 0.538574 0.796265
vt1 0.388184 0.797241
vt1 0.538574 0.533203
vt1 0.477783 0.462402
vt1 0.964355 0.755859
vt1 0.963867 0.493164
vt1 0.980957 0.755737
vt1 0.980957 0.493164
vt1 0.980957 0.399414
vt1 0.963867 0.398926
vt1 0.437500 0.430664
vt1 0.515625 0.015137
vt1 0.515625 0.430664
vt1 0.438232 0.015137
vt1 0.431885 0.015137
vt1 0.433105 0.430664
vt1 0.420898 0.430664
vt1 0.414795 0.015137
vt1 0.414795 0.430664
vt1 0.341064 0.430664
vt1 0.341064 0.015137
vt1 0.169922 0.430664
vt1 0.306885 0.015137
vt1 0.306885 0.430664
vt1 0.170532 0.015137
vt1 0.164307 0.015137
vt1 0.165405 0.430664
vt1 0.153198 0.430664
vt1 0.147095 0.015137
vt1 0.147095 0.430664
vt1 0.014587 0.430664
vt1 0.014557 0.015137
vt1 0.705078 0.428711
vt1 0.842285 0.013184
vt1 0.842285 0.428711
vt1 0.706055 0.013184
vt1 0.699707 0.013184
vt1 0.700684 0.428711
vt1 0.688477 0.428711
vt1 0.682617 0.013184
vt1 0.682617 0.428711
vt1 0.549805 0.428711
vt1 0.549805 0.013184
vn -0.692913 0.716535 -0.000000
vn 0.645669 0.763779 -0.031496
vn 0.921260 0.393701 0.007874
vn -0.653543 0.755905 -0.047244
vn -0.692913 -0.716535 -0.062992
vn -0.582677 -0.811023 0.000000
vn 0.464567 -0.889764 -0.039370
vn 0.677165 -0.732283 0.000000
vn -0.700787 0.716535 -0.000000
vn 0.637795 0.771653 -0.039370
vn 0.921260 0.393701 0.007874
vn -0.637795 0.763779 -0.039370
vn -0.692913 -0.716535 -0.062992
vn -0.582677 -0.811023 0.000000
vn 0.464567 -0.889764 -0.039370
vn 0.677165 -0.732283 0.000000
vn 0.000000 -0.488189 0.874016
vn 0.000000 -0.543307 0.842520
vn 0.000000 -0.944882 -0.338583
vn 0.000000 -0.645669 -0.763779
vn 0.000000 0.141732 -0.992126
vn 0.000000 1.000000 0.086614
vn 0.000000 0.874016 0.488189
vn 0.000000 0.346457 0.937008
vn 0.000000 0.259843 0.968504
vn 0.000000 -0.488189 0.874016
vn 0.000000 -0.543307 0.842520
vn 0.000000 -0.944882 -0.338583
vn 0.000000 -0.645669 -0.763779
vn 0.000000 0.141732 -0.992126
vn 0.000000 1.000000 0.086614
vn 0.000000 0.874016 0.488189
vn 0.000000 0.346457 0.937008
vn 0.000000 0.259843 0.968504
vn 1.000000 -0.000000 -0.015748
vn 1.000000 0.000000 0.000000
vn 1.000000 0.000000 0.000000
vn 1.000000 -0.007874 -0.039370
vn 0.992126 -0.086614 -0.086614
vn -1.000000 0.000000 0.000000
vn -1.000000 -0.000000 -0.015748
vn -1.000000 0.000000 0.000000
vn -1.000000 -0.007874 -0.047244
vn -0.992126 -0.070866 -0.070866
vn -0.283465 -0.000000 -0.960630
vn 0.267717 -0.094488 -0.960630
vn 0.259843 -0.000000 -0.968504
vn -0.267717 -0.314961 -0.913386
vn 0.330709 -0.598425 -0.732283
vn -0.448819 -0.566929 -0.685039
vn 1.000000 -0.000000 -0.015748
vn 1.000000 0.000000 0.000000
vn 1.000000 0.000000 0.000000
vn 1.000000 -0.007874 -0.039370
vn 0.992126 -0.086614 -0.086614
vn -1.000000 0.000000 0.000000
vn -1.000000 -0.000000 -0.023622
vn -1.000000 0.000000 0.000000
vn -1.000000 -0.007874 -0.047244
vn -0.992126 -0.070866 -0.070866
vn -0.362205 -0.000000 -0.937008
vn -0.244094 -0.181102 -0.952756
vn 0.220472 -0.000000 -0.976378
vn 0.338583 -0.188976 -0.921260
vn 0.330709 -0.606299 -0.724409
vn -0.448819 -0.574803 -0.685039
vn 0.000000 1.000000 -0.039370
vn 0.000000 1.000000 0.015748
vn 0.000000 1.000000 0.015748
vn 0.000000 1.000000 -0.047244
vn 0.000000 0.118110 -0.992126
vn -0.007874 0.157480 -0.984252
vn 0.000000 -0.322835 -0.944882
vn 0.000000 -1.000000 -0.015748
vn 0.000000 -1.000000 -0.015748
vn 0.000000 -1.000000 0.015748
vn 0.000000 -1.000000 0.015748
vn 0.000000 1.000000 -0.023622
vn 0.000000 1.000000 0.007874
vn 0.000000 1.000000 0.007874
vn 0.000000 1.000000 -0.031496
vn 0.000000 0.118110 -0.992126
vn -0.007874 0.157480 -0.984252
vn 0.000000 -0.322835 -0.944882
vn 0.000000 -1.000000 -0.007874
vn 0.000000 -1.000000 -0.007874
vn 0.000000 -1.000000 0.007874
vn 0.000000 -1.000000 0.007874
vn 0.000000 1.000000 -0.023622
vn 0.000000 1.000000 0.007874
vn 0.000000 1.000000 0.007874
vn 0.000000 1.000000 -0.031496
vn 0.000000 0.118110 -0.992126
vn -0.007874 0.157480 -0.984252
vn 0.000000 -0.322835 -0.944882
vn 0.000000 -1.000000 -0.007874
vn 0.000000 -1.000000 -0.007874
vn 0.000000 -1.000000 0.007874
vn 0.000000 -1.000000 0.007874
tan 0.310311 0.300081 0.858826 1.000000
tan -0.615227 0.541509 0.519437 1.000000
tan 0.020088 -0.065906 0.945006 1.000000
tan 0.208320 0.233927 0.861058 1.000000
tan 0.267903 -0.332321 0.833220 1.000000
tan 0.019158 -0.013764 0.924918 1.000000
tan -0.103230 -0.093930 0.904706 1.000000
tan 0.028830 0.026660 0.970178 1.000000
tan 0.270817 0.264865 0.901048 1.000000
tan -0.614483 0.535185 0.534999 1.000000
tan 0.020088 -0.065906 0.945006 1.000000
tan 0.251162 0.252217 0.824167 1.000000
tan 0.262261 -0.326865 0.833220 1.000000
tan 0.019158 -0.013764 0.924918 1.000000
tan -0.103230 -0.093930 0.904706 1.000000
tan 0.028830 0.026660 0.970178 1.000000
tan 0.900924 -0.006882 -0.003844 1.000000
tan 0.889578 -0.013268 -0.008556 1.000000
tan 0.958212 0.002666 -0.007440 1.000000
tan 0.944448 0.006014 -0.005084 1.000000
tan 0.992126 0.007812 0.001116 1.000000
tan 1.000000 -0.000682 0.007874 1.000000
tan 0.932482 -0.007688 0.013764 1.000000
tan 0.939736 -0.007378 0.002728 1.000000
tan 0.968504 0.000000 0.000000 1.000000
tan 0.900924 0.000000 0.000000 1.000000
tan 0.889578 0.000000 0.000000 1.000000
tan 0.958212 0.000000 0.000000 1.000000
tan 0.944448 0.000000 0.000000 1.000000
tan 0.992126 0.000000 0.000000 1.000000
tan 1.000000 0.000000 0.000000 1.000000
tan 0.932482 0.000000 0.000000 1.000000
tan 0.939736 0.000000 0.000000 1.000000
tan 0.968504 0.000000 0.000000 1.000000
tan 0.000000 -1.000000 0.000000 1.000000
tan 0.000000 -1.000000 0.000000 1.000000
tan 0.000000 -1.000000 0.000000 1.000000
tan -0.007874 -1.000000 0.000000 1.000000
tan -0.090024 -0.992126 -0.039060 1.000000
tan 0.000000 -1.000000 0.000000 1.000000
tan -0.000124 -1.000000 0.007874 1.000000
tan 0.000000 -1.000000 0.000000 1.000000
tan 0.009362 -1.000000 -0.031496 1.000000
tan 0.071982 -0.992126 -0.015624 1.000000
tan -0.007564 -0.960630 0.002232 1.000000
tan 0.045384 -0.960630 0.107136 1.000000
tan 0.000000 -0.968504 0.000000 1.000000
tan -0.064728 -0.913386 0.333933 1.000000
tan 0.052452 -0.742141 0.630169 1.000000
tan -0.064170 -0.713125 0.632215 1.000000
tan 0.000124 -1.000000 0.007874 1.000000
tan 0.000000 -1.000000 0.000000 1.000000
tan 0.000000 -1.000000 0.000000 1.000000
tan -0.008184 -1.000000 -0.007874 1.000000
tan -0.090024 -0.992126 -0.039060 1.000000
tan 0.000000 -1.000000 0.000000 1.000000
tan 0.000000 -1.000000 0.000000 1.000000
tan 0.000000 -1.000000 0.000000 1.000000
tan 0.009362 -1.000000 -0.031496 1.000000
tan 0.071982 -0.992126 -0.015624 1.000000
tan 0.000000 -0.937008 0.000000 1.000000
tan -0.052514 -0.952756 0.194556 1.000000
tan 0.007688 -0.976378 0.001736 1.000000
tan 0.079794 -0.921260 0.218303 1.000000
tan 0.051212 -0.734329 0.637981 1.000000
tan -0.063488 -0.713125 0.639965 1.000000
tan 1.000000 0.000000 0.000000 1.000000
tan 1.000000 0.000000 0.000000 1.000000
tan 1.000000 0.000000 0.000000 1.000000
tan 1.000000 0.000000 0.000000 1.000000
tan 0.992126 0.000000 0.000000 1.000000
tan 0.985492 0.000062 -0.007874 1.000000
tan 0.947424 0.000000 0.000000 1.000000
tan 1.000000 0.000000 0.000000 1.000000
tan 1.000000 0.000000 0.000000 1.000000
tan 1.000000 0.000000 0.000000 1.000000
tan 1.000000 0.000000 0.000000 1.000000
tan 1.000000 0.000000 0.000000 1.000000
tan 1.000000 0.000000 0.000000 1.000000
tan 1.000000 0.000000 0.000000 1.000000
tan 1.000000 0.000000 0.000000 1.000000
tan 0.992126 0.000000 0.000000 1.000000
tan 0.985492 0.000062 -0.007874 1.000000
tan 0.947424 0.000000 0.000000 1.000000
tan 1.000000 0.000000 0.000000 1.000000
tan 1.000000 0.000000 0.000000 1.000000
tan 1.000000 0.000000 0.000000 1.000000
tan 1.000000 0.000000 0.000000 1.000000
tan 1.000000 0.000000 0.000000 1.000000
tan 1.000000 0.000000 0.000000 1.000000
tan 1.000000 0.000000 0.000000 1.000000
tan 1.000000 0.000000 0.000000 1.000000
tan 0.992126 0.000000 0.000000 1.000000
tan 0.985492 0.000062 -0.007874 1.000000
tan 0.947424 0.000000 0.000000 1.000000
tan 1.000000 0.000000 0.000000 1.000000
tan 1.000000 0.000000 0.000000 1.000000
tan 1.000000 0.000000 0.000000 1.000000
tan 1.000000 0.000000 0.000000 1.000000
f 3/3/3 2/2/2 1/1/1
f 4/4/4 1/1/1 2/2/2
f 7/7/7 6/6/6 5/5/5
f 8/8/8 6/6/6 7/7/7
f 11/11/11 10/10/10 9/9/9
f 10/10/10 12/12/12 9/9/9
f 15/15/15 14/14/14 13/13/13
f 16/16/16 14/14/14 15/15/15
f 19/19/19 18/18/18 17/17/17
f 18/18/18 19/19/19 20/20/20
f 19/19/19 21/21/21 20/20/20
f 20/20/20 21/21/21 22/22/22
f 23/23/23 22/22/22 21/21/21
f 22/22/22 23/23/23 24/24/24
f 23/23/23 25/25/25 24/24/24
f 28/28/28 27/27/27 26/26/26
f 27/27/27 28/28/28 29/29/29
f 28/28/28 30/30/30 29/29/29
f 29/29/29 30/30/30 31/31/31
f 32/32/32 31/31/31 30/30/30
f 31/31/31 32/32/32 33/33/33
f 32/32/32 34/34/34 33/33/33
f 37/37/37 36/36/36 35/35/35
f 38/38/38 35/35/35 36/36/36
f 39/39/39 38/38/38 36/36/36
f 42/42/42 41/41/41 40/40/40
f 43/43/43 40/40/40 41/41/41
f 44/44/44 40/40/40 43/43/43
f 47/47/47 46/46/46 45/45/45
f 48/48/48 45/45/45 46/46/46
f 46/46/46 49/49/49 48/48/48
f 50/50/50 48/48/48 49/49/49
f 53/53/53 52/52/52 51/51/51
f 54/54/54 51/51/51 52/52/52
f 55/55/55 54/54/54 52/52/52
f 58/58/58 57/57/57 56/56/56
f 59/59/59 56/56/56 57/57/57
f 60/60/60 56/56/56 59/59/59
f 63/63/63 62/62/62 61/61/61
f 64/64/64 62/62/62 63/63/63
f 64/64/64 65/65/65 62/62/62
f 66/66/66 62/62/62 65/65/65
f 69/69/69 68/68/68 67/67/67
f 68/68/68 70/70/70 67/67/67
f 71/71/71 67/67/67 70/70/70
f 67/67/67 71/71/71 72/72/72
f 73/73/73 72/72/72 71/71/71
f 74/74/74 73/73/73 71/71/71
f 73/73/73 74/74/74 75/75/75
f 76/76/76 75/75/75 74/74/74
f 77/77/77 76/76/76 74/74/74
f 80/80/80 79/79/79 78/78/78
f 81/81/81 78/78/78 79/79/79
f 82/82/82 78/78/78 81/81/81
f 78/78/78 82/82/82 83/83/83
f 84/84/84 83/83/83 82/82/82
f 85/85/85 84/84/84 82/82/82
f 84/84/84 85/85/85 86/86/86
f 87/87/87 86/86/86 85/85/85
f 88/88/88 87/87/87 85/85/85
f 91/91/91 90/90/90 89/89/89
f 92/92/92 89/89/89 90/90/90
f 93/93/93 89/89/89 92/92/92
f 89/89/89 93/93/93 94/94/94
f 95/95/95 94/94/94 93/93/93
f 96/96/96 95/95/95 93/93/93
f 95/95/95 96/96/96 97/97/97
f 98/98/98 97/97/97 96/96/96
f 99/99/99 98/98/98 96/96/96
