mtllib SM_Spatule_LOD3.mtl
g SM_Spatule_LOD3
#Vertices 84
#Indices 174
#Section 0 Offset 0 NumIndices 174 MaterialIndex 0 MI_Spatule
v 0.145805 0.001813 -0.065966
v 0.145819 -0.002338 -0.064770
v 0.149892 -0.003162 0.071276
v 0.149892 -0.003162 0.071276
v 0.000925 -0.002311 0.029707
v 0.000620 0.003458 0.030442
v -0.267153 0.112562 0.012730
v -0.265942 0.111514 -0.012979
v 0.002918 0.003227 -0.005499
v -0.267153 0.112562 0.012730
v 0.002918 0.003227 -0.005499
v 0.000861 0.002375 0.006637
v -0.271762 0.100386 -0.012424
v -0.267153 0.112562 0.012730
v -0.274217 0.101360 0.012149
v -0.265942 0.111514 -0.012979
v -0.274217 0.101360 0.012149
v 0.000861 0.002375 0.006637
v 0.004631 -0.003046 0.004866
v -0.267153 0.112562 0.012730
v 0.002918 0.003227 -0.005499
v -0.271762 0.100386 -0.012424
v 0.002850 -0.001991 -0.005339
v -0.265942 0.111514 -0.012979
v 0.000925 -0.002311 0.029707
v 0.000861 0.002375 0.006637
v 0.000620 0.003458 0.030442
v 0.004631 -0.003046 0.004866
v 0.000620 0.003456 -0.030442
v 0.002918 0.003227 -0.005499
v 0.000931 -0.002310 -0.029716
v 0.002850 -0.001991 -0.005339
v 0.000620 0.003456 -0.030442
v 0.145819 -0.002338 -0.064770
v 0.145805 0.001813 -0.065966
v 0.000931 -0.002310 -0.029716
v -0.271762 0.100386 -0.012424
v -0.274217 0.101360 0.012149
v 0.002850 -0.001991 -0.005339
v 0.004631 -0.003046 0.004866
v 0.002850 -0.001991 -0.005339
v 0.004631 -0.003046 0.004866
v 0.002918 0.003227 -0.005499
v 0.117044 0.002106 -0.002082
v 0.127990 0.001896 -0.044082
v 0.126374 -0.003928 -0.028696
v 0.127532 -0.002222 -0.042721
v 0.020932 0.002287 -0.013476
v 0.002850 -0.001991 -0.005339
v 0.002918 0.003227 -0.005499
v 0.000931 -0.002310 -0.029716
v 0.002850 -0.001991 -0.005339
v 0.020932 0.002287 -0.013476
v 0.127532 -0.002222 -0.042721
v 0.145819 -0.002338 -0.064770
v 0.149892 -0.003162 0.071276
v 0.126374 -0.003928 -0.028696
v 0.117044 0.002106 -0.002082
v 0.128495 -0.002256 0.025367
v 0.004631 -0.003046 0.004866
v 0.127580 -0.002183 0.043372
v 0.000925 -0.002311 0.029707
v 0.023877 0.002798 0.014126
v 0.128006 0.001896 0.044746
v 0.023877 0.002798 0.014126
v 0.127580 -0.002183 0.043372
v 0.127951 0.001814 0.025829
v 0.128495 -0.002256 0.025367
v 0.004631 -0.003046 0.004866
v 0.000861 0.002375 0.006637
v 0.002918 0.003227 -0.005499
v 0.000620 0.003456 -0.030442
v 0.020932 0.002287 -0.013476
v 0.127990 0.001896 -0.044082
v 0.145805 0.001813 -0.065966
v 0.126374 -0.003928 -0.028696
v 0.117044 0.002106 -0.002082
v 0.000861 0.002375 0.006637
v 0.004631 -0.003046 0.004866
v 0.127951 0.001814 0.025829
v 0.128006 0.001896 0.044746
v 0.149892 -0.003162 0.071276
v 0.000620 0.003458 0.030442
v 0.023877 0.002798 0.014126
vt 0.742188 0.296875
vt 0.732910 0.293945
vt 0.730957 -0.012695
vt 0.069763 0.404297
vt 0.073914 0.055176
vt 0.086914 0.055176
vt 0.097046 0.012695
vt 0.151489 0.014648
vt 0.152466 0.669922
vt 0.097168 0.012695
vt 0.152710 0.669922
vt 0.125122 0.666992
vt 0.718750 0.074707
vt 0.687012 0.016602
vt 0.707520 0.024902
vt 0.718262 0.094238
vt -0.000807 -0.008789
vt 0.023834 0.651611
vt 0.016617 0.664307
vt 0.026749 -0.002930
vt 0.060852 -0.002930
vt 0.033508 0.655029
vt 0.051239 -0.006836
vt 0.059967 0.652100
vt 0.073853 0.057617
vt 0.079102 0.004883
vt 0.086914 0.058105
vt 0.065063 0.001953
vt 0.159424 0.058105
vt 0.166260 0.001953
vt 0.172485 0.057617
vt 0.176514 0.002930
vt 0.159424 0.055176
vt 0.177124 0.392090
vt 0.167480 0.392578
vt 0.172363 0.055176
vt 0.357910 0.989433
vt 0.305908 0.995380
vt 0.343750 0.327148
vt 0.320557 0.322754
vt 0.654297 0.293945
vt 0.665527 0.294922
vt 0.647949 0.298340
vt 0.624023 0.033691
vt 0.611816 0.257324
vt 0.562500 0.245605
vt 0.602539 0.253906
vt 0.606445 0.000977
vt 0.591309 -0.037109
vt 0.583984 -0.040039
vt 0.398926 0.327637
vt 0.343750 0.323242
vt 0.361816 0.282715
vt 0.428223 0.041992
vt 0.478027 0.000488
vt 0.170776 -0.008789
vt 0.396484 0.043945
vt 0.336182 0.063477
vt 0.274414 0.039551
vt 0.320312 0.318848
vt 0.233887 0.041504
vt 0.264648 0.327637
vt 0.299805 0.275879
vt 0.546387 0.008301
vt 0.540527 0.257812
vt 0.537109 0.011719
vt 0.485596 0.017090
vt 0.494873 0.019043
vt 0.520020 0.300781
vt 0.515625 0.310059
vt 0.153320 0.670410
vt 0.208862 0.663818
vt 0.171631 0.710449
vt 0.246704 0.950409
vt 0.296875 0.989487
vt 0.211914 0.947723
vt 0.150024 0.928467
vt 0.125122 0.666260
vt 0.131348 0.674072
vt 0.088928 0.954224
vt 0.046204 0.955414
vt -0.012405 1.006382
vt 0.071411 0.666992
vt 0.109497 0.718750
vt1 0.737305 0.304688
vt1 0.728027 0.301758
vt1 0.726562 0.003906
vt1 0.635254 0.408203
vt1 0.639648 0.069336
vt1 0.651855 0.069336
vt1 0.325928 0.027344
vt1 0.378662 0.030762
vt1 0.364258 0.666504
vt1 0.326172 0.027832
vt1 0.364258 0.666504
vt1 0.337646 0.662842
vt1 0.044342 0.351562
vt1 0.016769 0.301270
vt1 0.042969 0.308105
vt1 0.029190 0.364258
vt1 0.526367 0.007324
vt1 0.551270 0.648193
vt1 0.544434 0.660400
vt1 0.553223 0.012695
vt1 0.605469 0.013184
vt1 0.578125 0.651367
vt1 0.596191 0.008789
vt1 0.604004 0.648682
vt1 0.639160 0.071777
vt1 0.644531 0.020508
vt1 0.651855 0.072266
vt1 0.630859 0.017578
vt1 0.679688 0.072266
vt1 0.686523 0.017578
vt1 0.692383 0.071777
vt1 0.696289 0.018555
vt1 0.679688 0.069336
vt1 0.697266 0.395996
vt1 0.687988 0.396484
vt1 0.692383 0.069336
vt1 0.179688 0.975189
vt1 0.129272 0.980957
vt1 0.165894 0.332520
vt1 0.143555 0.328125
vt1 0.874512 0.648926
vt1 0.868652 0.650635
vt1 0.866699 0.650635
vt1 0.837402 0.361328
vt1 0.908203 0.290039
vt1 0.862793 0.279785
vt1 0.897949 0.287598
vt1 0.902832 0.011719
vt1 0.903320 -0.032227
vt1 0.895020 -0.032227
vt1 0.219482 0.333008
vt1 0.166016 0.329102
vt1 0.183594 0.289062
vt1 0.247925 0.055664
vt1 0.296143 0.015625
vt1 -0.001777 0.006836
vt1 0.217285 0.058105
vt1 0.158691 0.076660
vt1 0.098816 0.053711
vt1 0.143311 0.324707
vt1 0.059387 0.055664
vt1 0.089233 0.333008
vt1 0.123535 0.282715
vt1 0.825684 0.023438
vt1 0.821777 0.295898
vt1 0.815918 0.025391
vt1 0.769043 0.033691
vt1 0.778320 0.032715
vt1 0.816406 0.342773
vt1 0.810059 0.349609
vt1 0.364990 0.666748
vt1 0.418945 0.661621
vt1 0.381836 0.706299
vt1 0.448975 0.940735
vt1 0.496582 0.979843
vt1 0.415283 0.937317
vt1 0.355713 0.917114
vt1 0.337646 0.662354
vt1 0.343506 0.669922
vt1 0.295654 0.940674
vt1 0.254150 0.940796
vt1 0.196167 0.988861
vt1 0.285645 0.661621
vt1 0.321289 0.712646
vn 1.000000 0.023622 -0.031496
vn 1.000000 -0.015748 -0.055118
vn 1.000000 -0.015748 0.023622
vn -0.212598 -0.228346 0.944882
vn -0.291339 -0.181102 0.937008
vn -0.275591 -0.157480 0.944882
vn 0.377953 0.929134 -0.000000
vn 0.377953 0.929134 -0.000000
vn 0.377953 0.929134 -0.000000
vn 0.377953 0.929134 -0.000000
vn 0.377953 0.929134 -0.000000
vn 0.377953 0.929134 -0.000000
vn -0.614173 0.188976 -0.763779
vn -0.669291 0.212598 0.716535
vn -0.677165 0.212598 0.708661
vn 0.000000 -0.031496 -1.000000
vn 0.000000 -0.031496 1.000000
vn 0.000000 -0.039370 1.000000
vn -0.039370 -0.039370 1.000000
vn 0.000000 -0.031496 1.000000
vn 0.000000 -0.039370 -1.000000
vn 0.000000 -0.031496 -1.000000
vn -0.039370 -0.039370 -1.000000
vn 0.000000 -0.031496 -1.000000
vn -0.984252 -0.023622 0.188976
vn -0.826772 -0.023622 0.566929
vn -0.960630 -0.047244 0.275591
vn -0.299213 -0.031496 0.952756
vn -0.960630 -0.047244 -0.275591
vn -0.811024 -0.023622 -0.582677
vn -0.984252 -0.023622 -0.188976
vn -0.480315 -0.031496 -0.874016
vn -0.275591 -0.157480 -0.944882
vn -0.220472 -0.228347 -0.944882
vn -0.204724 -0.212599 -0.952756
vn -0.291339 -0.181102 -0.937008
vn -0.346457 -0.937008 0.000000
vn -0.346457 -0.937008 0.000000
vn -0.346457 -0.937008 0.000000
vn -0.346457 -0.937008 0.000000
vn 0.141732 0.023622 0.992126
vn 0.070866 0.015748 -1.000000
vn 0.125984 0.023622 0.992126
vn 0.007874 0.023622 1.000000
vn 0.125984 0.141732 0.984252
vn -0.267717 -0.086614 -0.960630
vn -0.070866 0.133858 0.984252
vn 0.338583 0.125984 0.929134
vn -0.055118 -0.086614 -0.992126
vn -0.062992 -0.086614 -0.992126
vn 0.000000 -1.000000 0.000000
vn 0.000000 -1.000000 0.000000
vn 0.000000 -1.000000 0.000000
vn 0.000000 -1.000000 0.000000
vn 0.000000 -1.000000 0.000000
vn 0.000000 -1.000000 0.000000
vn 0.000000 -1.000000 0.000000
vn 0.000000 -1.000000 0.000000
vn 0.000000 -1.000000 0.000000
vn 0.000000 -1.000000 0.000000
vn 0.000000 -1.000000 0.000000
vn 0.000000 -1.000000 0.000000
vn 0.000000 -1.000000 0.000000
vn 0.125984 0.141732 -0.984252
vn 0.362205 0.133858 -0.921260
vn -0.086614 0.133858 -0.984252
vn -0.244094 -0.086614 0.968504
vn -0.259843 -0.086614 0.960630
vn -0.070866 -0.086614 0.992126
vn -0.031496 -0.086614 0.992126
vn 0.007874 1.000000 -0.000000
vn 0.007874 1.000000 -0.000000
vn 0.007874 1.000000 -0.000000
vn 0.007874 1.000000 -0.000000
vn 0.007874 1.000000 -0.000000
vn 0.007874 1.000000 -0.000000
vn 0.007874 1.000000 -0.000000
vn 0.007874 1.000000 -0.000000
vn 0.007874 1.000000 -0.000000
vn 0.007874 1.000000 -0.000000
vn 0.007874 1.000000 -0.000000
vn 0.007874 1.000000 -0.000000
vn 0.007874 1.000000 -0.000000
vn 0.007874 1.000000 -0.000000
tan 0.031496 0.000000 1.000000 1.000000
tan 0.055242 0.007874 1.000000 1.000000
tan -0.023622 0.000000 1.000000 1.000000
tan -0.944882 -0.066960 -0.228780 1.000000
tan -0.937008 -0.044268 -0.299895 1.000000
tan -0.944882 -0.037200 -0.281791 1.000000
tan -0.929134 0.377953 -0.014632 1.000000
tan -0.929134 0.377953 -0.014632 1.000000
tan -0.929134 0.377953 -0.014632 1.000000
tan -0.929134 0.377953 -0.014632 1.000000
tan -0.929134 0.377953 -0.014632 1.000000
tan -0.929134 0.377953 -0.014632 1.000000
tan -0.775498 -0.210986 0.571393 1.000000
tan 0.713187 -0.021824 0.672639 1.000000
tan 0.720379 0.059644 0.670469 1.000000
tan -0.944882 -0.338583 0.010664 1.000000
tan -0.929134 0.370079 0.011656 1.000000
tan -0.929134 0.377953 0.014880 1.000000
tan -0.929134 0.370079 -0.022010 1.000000
tan -0.929134 0.370079 0.011656 1.000000
tan 0.929134 -0.377953 0.014880 1.000000
tan 0.929134 -0.370079 0.011656 1.000000
tan 0.929134 -0.370079 -0.022010 1.000000
tan 0.929134 -0.370079 0.011656 1.000000
tan -0.190836 0.077500 -0.984252 1.000000
tan -0.567487 0.019530 -0.826772 1.000000
tan -0.278939 0.068076 -0.960630 1.000000
tan -0.952756 -0.000000 -0.299213 1.000000
tan -0.278939 0.068076 0.960630 1.000000
tan -0.583049 0.012772 0.811023 1.000000
tan -0.190836 0.077500 0.984252 1.000000
tan -0.874016 0.000000 0.480315 1.000000
tan -0.944882 -0.037200 0.281791 1.000000
tan -0.944882 -0.066960 0.236654 1.000000
tan -0.952756 -0.060016 0.218116 1.000000
tan -0.937008 -0.044268 0.299895 1.000000
tan 0.937008 -0.346457 0.000000 1.000000
tan 0.937008 -0.346457 0.000000 1.000000
tan 0.937008 -0.346457 0.000000 1.000000
tan 0.937008 -0.346457 0.000000 1.000000
tan 0.874946 -0.476533 -0.113646 1.000000
tan 0.889764 -0.448819 0.055986 1.000000
tan 0.874946 -0.468721 -0.099944 1.000000
tan 1.000000 0.086614 -0.009920 1.000000
tan -0.961002 -0.217000 0.154256 1.000000
tan -0.945502 -0.151280 0.277141 1.000000
tan -0.954306 -0.240808 -0.035960 1.000000
tan -0.899870 0.234112 0.296175 1.000000
tan -0.804638 0.578089 -0.005766 1.000000
tan -0.828074 0.554653 0.004154 1.000000
tan 1.000000 0.000000 0.000000 1.000000
tan 1.000000 0.000000 0.000000 1.000000
tan 1.000000 0.000000 0.000000 1.000000
tan 1.000000 0.000000 0.000000 1.000000
tan 1.000000 0.000000 0.000000 1.000000
tan 1.000000 0.000000 0.000000 1.000000
tan 1.000000 0.000000 0.000000 1.000000
tan 1.000000 0.000000 0.000000 1.000000
tan 1.000000 0.000000 0.000000 1.000000
tan 1.000000 0.000000 0.000000 1.000000
tan 1.000000 0.000000 0.000000 1.000000
tan 1.000000 0.000000 0.000000 1.000000
tan 1.000000 0.000000 0.000000 1.000000
tan 0.961002 0.201500 0.152024 1.000000
tan 0.892244 -0.217620 0.319177 1.000000
tan 0.962056 0.225432 -0.054002 1.000000
tan 0.952570 0.154442 0.253890 1.000000
tan 0.944820 0.176018 0.271436 1.000000
tan 0.828074 -0.546841 0.011408 1.000000
tan 0.804638 -0.578089 -0.024924 1.000000
tan -1.000000 0.007874 -0.023622 1.000000
tan -1.000000 0.007874 -0.023622 1.000000
tan -1.000000 0.007874 -0.023622 1.000000
tan -1.000000 0.007874 -0.023622 1.000000
tan -1.000000 0.007874 -0.023622 1.000000
tan -1.000000 0.007874 -0.023622 1.000000
tan -1.000000 0.007874 -0.023622 1.000000
tan -1.000000 0.007874 -0.023622 1.000000
tan -1.000000 0.007874 -0.023622 1.000000
tan -1.000000 0.007874 -0.023622 1.000000
tan -1.000000 0.007874 -0.023622 1.000000
tan -1.000000 0.007874 -0.023622 1.000000
tan -1.000000 0.007874 -0.023622 1.000000
tan -1.000000 0.007874 -0.023622 1.000000
f 3/3/3 2/2/2 1/1/1
f 6/6/6 5/5/5 4/4/4
f 9/9/9 8/8/8 7/7/7
f 12/12/12 11/11/11 10/10/10
f 15/15/15 14/14/14 13/13/13
f 14/14/14 16/16/16 13/13/13
f 19/19/19 18/18/18 17/17/17
f 17/17/17 18/18/18 20/20/20
f 23/23/23 22/22/22 21/21/21
f 24/24/24 21/21/21 22/22/22
f 27/27/27 26/26/26 25/25/25
f 28/28/28 25/25/25 26/26/26
f 31/31/31 30/30/30 29/29/29
f 32/32/32 30/30/30 31/31/31
f 35/35/35 34/34/34 33/33/33
f 36/36/36 33/33/33 34/34/34
f 39/39/39 38/38/38 37/37/37
f 40/40/40 38/38/38 39/39/39
f 43/43/43 42/42/42 41/41/41
f 41/41/41 44/44/44 43/43/43
f 47/47/47 46/46/46 45/45/45
f 45/45/45 48/48/48 47/47/47
f 50/50/50 46/46/46 49/49/49
f 49/49/49 48/48/48 50/50/50
f 53/53/53 52/52/52 51/51/51
f 51/51/51 54/54/54 53/53/53
f 51/51/51 55/55/55 54/54/54
f 54/54/54 55/55/55 56/56/56
f 56/56/56 57/57/57 54/54/54
f 57/57/57 58/58/58 52/52/52
f 58/58/58 57/57/57 59/59/59
f 59/59/59 57/57/57 56/56/56
f 59/59/59 60/60/60 58/58/58
f 59/59/59 56/56/56 61/61/61
f 62/62/62 61/61/61 56/56/56
f 63/63/63 62/62/62 60/60/60
f 61/61/61 62/62/62 63/63/63
f 66/66/66 65/65/65 64/64/64
f 64/64/64 67/67/67 66/66/66
f 68/68/68 66/66/66 67/67/67
f 67/67/67 69/69/69 68/68/68
f 69/69/69 70/70/70 65/65/65
f 69/69/69 67/67/67 70/70/70
f 73/73/73 72/72/72 71/71/71
f 74/74/74 72/72/72 73/73/73
f 72/72/72 74/74/74 75/75/75
f 76/76/76 75/75/75 74/74/74
f 77/77/77 76/76/76 71/71/71
f 77/77/77 75/75/75 76/76/76
f 79/79/79 71/71/71 78/78/78
f 79/79/79 78/78/78 77/77/77
f 80/80/80 77/77/77 78/78/78
f 80/80/80 75/75/75 77/77/77
f 81/81/81 75/75/75 80/80/80
f 81/81/81 82/82/82 75/75/75
f 82/82/82 81/81/81 83/83/83
f 84/84/84 78/78/78 83/83/83
f 84/84/84 83/83/83 81/81/81
