mtllib SM_SaucePan_Copper_Pan_01_LOD3.mtl
g SM_SaucePan_Copper_Pan_01_LOD3
#Vertices 101
#Indices 336
#Section 0 Offset 0 NumIndices 336 MaterialIndex 0 MI_SaucePan
v 0.208992 0.083057 -0.011074
v 0.080086 0.070345 -0.008427
v 0.235378 0.080464 -0.011403
v 0.083266 0.040969 -0.004746
v 0.074037 0.046772 0.006590
v 0.083212 0.071208 0.007204
v 0.208939 0.083276 0.011132
v 0.236173 0.079443 0.010537
v 0.092986 0.076413 0.007238
v 0.236173 0.079443 0.010537
v 0.208992 0.083057 -0.011074
v 0.235378 0.080464 -0.011403
v 0.208939 0.083276 0.011132
v 0.080086 0.070345 -0.008427
v 0.083212 0.071208 0.007204
v 0.074037 0.046772 0.006590
v 0.083266 0.040969 -0.004746
v 0.080086 0.070345 -0.008427
v 0.092986 0.076413 0.007238
v 0.083212 0.071208 0.007204
v 0.208992 0.083057 -0.011074
v 0.208939 0.083276 0.011132
v 0.083212 0.071208 0.007204
v 0.080086 0.070345 -0.008427
v 0.083266 0.040969 -0.004746
v 0.236173 0.079443 0.010537
v 0.235378 0.080464 -0.011403
v 0.208992 0.083057 -0.011074
v 0.063001 0.003048 -0.008180
v 0.054981 0.001463 0.028566
v 0.028389 0.001713 -0.057181
v -0.019975 0.001014 -0.061168
v -0.032521 0.001544 0.056239
v 0.021472 -0.000434 0.059762
v -0.061581 0.002089 0.008334
v -0.055205 0.001343 -0.030044
v 0.074922 0.012422 0.000050
v 0.054981 0.001463 0.028566
v 0.063001 0.003048 -0.008180
v 0.057446 0.015113 0.055044
v 0.021472 -0.000434 0.059762
v 0.074747 0.076560 -0.000297
v -0.016106 0.015183 0.076089
v -0.032521 0.001544 0.056239
v 0.049658 0.071821 0.063470
v 0.073462 0.079896 0.033325
v 0.079357 0.076976 0.000001
v -0.076803 0.014278 0.021867
v -0.061581 0.002089 0.008334
v -0.055205 0.001343 -0.030044
v 0.063934 0.074452 0.053740
v 0.083405 0.007662 -0.000712
v 0.069649 -0.000303 -0.000006
v 0.061357 -0.000356 0.035908
v 0.064171 0.011997 0.049785
v 0.022912 -0.000661 0.068322
v 0.032042 0.079146 0.076968
v -0.000240 0.080087 0.085108
v 0.001283 0.010600 0.082613
v -0.030264 -0.001656 0.063960
v -0.033345 0.079791 0.073049
v -0.075416 0.011774 0.039335
v -0.063730 -0.000082 0.032583
v -0.069429 -0.001522 -0.011310
v -0.067254 0.075290 0.050018
v -0.064203 0.010833 -0.052358
v -0.042106 0.000607 -0.057566
v -0.080867 0.076079 0.000381
v -0.030690 0.074163 0.072313
v -0.071190 0.074493 0.024061
v -0.078883 0.080839 -0.011605
v -0.070058 0.073401 -0.033342
v -0.055827 0.076470 -0.061354
v -0.060569 0.014627 -0.047406
v -0.019975 0.001014 -0.061168
v -0.030184 0.074702 -0.068978
v 0.039855 0.014311 -0.073758
v 0.028389 0.001713 -0.057181
v 0.063001 0.003048 -0.008180
v 0.074922 0.012422 0.000050
v 0.064430 0.074543 -0.039439
v 0.074747 0.076560 -0.000297
v 0.023343 0.072929 -0.073625
v -0.015695 0.079676 -0.078602
v 0.037722 0.079001 -0.072503
v 0.071916 0.074271 -0.041583
v 0.079357 0.076976 0.000001
v 0.083405 0.007662 -0.000712
v 0.012059 0.011506 -0.085609
v 0.018566 0.000234 -0.069783
v 0.058860 0.000077 -0.035695
v 0.069649 -0.000303 -0.000006
v -0.030264 -0.001656 0.063960
v 0.022912 -0.000661 0.068322
v -0.063730 -0.000082 0.032583
v 0.061357 -0.000356 0.035908
v 0.069649 -0.000303 -0.000006
v 0.058860 0.000077 -0.035695
v 0.018566 0.000234 -0.069783
v -0.042106 0.000607 -0.057566
v -0.069429 -0.001522 -0.011310
vt 0.913574 0.328125
vt 0.915527 0.277832
vt 0.915527 0.337891
vt 0.916992 0.268066
vt 0.921875 0.269043
vt 0.920898 0.278809
vt 0.925781 0.327637
vt 0.923828 0.338379
vt 0.922852 0.281738
vt 0.518555 0.148926
vt 0.509766 0.159668
vt 0.510254 0.148438
vt 0.518555 0.160156
vt 0.507812 0.209961
vt 0.513672 0.209473
vt 0.513184 0.219727
vt 0.508789 0.220703
vt 0.507812 0.209961
vt 0.514648 0.204590
vt 0.513672 0.208984
vt 0.510254 0.159180
vt 0.519043 0.159668
vt 0.995117 0.183594
vt 0.988770 0.182129
vt 0.990234 0.172852
vt 0.997070 0.242188
vt 0.988770 0.242188
vt 0.988770 0.232422
vt 0.373047 0.600098
vt 0.360596 0.607910
vt 0.376709 0.577148
vt 0.364746 0.562988
vt 0.329102 0.591553
vt 0.343018 0.607178
vt 0.334229 0.570557
vt 0.346680 0.562012
vt 0.044037 0.874634
vt 0.058929 0.877747
vt 0.044159 0.881287
vt 0.065063 0.868896
vt 0.079224 0.874756
vt 0.039154 0.848389
vt 0.093323 0.867065
vt 0.103027 0.872925
vt 0.066040 0.846924
vt 0.051361 0.844482
vt 0.037994 0.843994
vt 0.123901 0.866455
vt 0.128052 0.873901
vt 0.145386 0.873169
vt 0.059357 0.841064
vt 0.036774 0.814941
vt 0.039032 0.809937
vt 0.053436 0.811035
vt 0.057251 0.816650
vt 0.074463 0.810059
vt 0.073669 0.842529
vt 0.085571 0.840942
vt 0.083801 0.814575
vt 0.097107 0.808105
vt 0.098083 0.841064
vt 0.116882 0.813477
vt 0.117065 0.807739
vt 0.136230 0.807007
vt 0.112793 0.838379
vt 0.151733 0.812866
vt 0.159546 0.807129
vt 0.131348 0.838013
vt 0.097412 0.844116
vt 0.121948 0.843262
vt 0.135864 0.840576
vt 0.144531 0.843506
vt 0.156006 0.838501
vt 0.150635 0.866211
vt 0.166992 0.872925
vt 0.165405 0.843384
vt 0.189819 0.867310
vt 0.188354 0.873657
vt 0.213745 0.878113
vt 0.219727 0.872925
vt 0.208130 0.845337
vt 0.224121 0.846313
vt 0.186890 0.844727
vt 0.171997 0.840576
vt 0.192017 0.841431
vt 0.209229 0.839844
vt 0.224976 0.841797
vt 0.224976 0.813354
vt 0.182617 0.814819
vt 0.185791 0.808105
vt 0.208374 0.808472
vt 0.223511 0.808105
vt 0.873535 0.695557
vt 0.889160 0.708984
vt 0.855469 0.694824
vt 0.891113 0.728271
vt 0.883301 0.740479
vt 0.870605 0.747314
vt 0.850098 0.745605
vt 0.836914 0.725586
vt 0.842285 0.705566
vt1 0.802246 0.094238
vt1 0.379150 0.111328
vt1 0.885254 0.108887
vt1 0.301270 0.121582
vt1 0.304199 0.167969
vt1 0.386719 0.155762
vt1 0.800781 0.195312
vt1 0.890625 0.177734
vt1 0.417480 0.170898
vt1 0.006779 0.102539
vt1 0.098511 0.026855
vt1 0.006943 0.028320
vt1 0.102600 0.100098
vt1 0.521484 0.013184
vt1 0.520508 0.059570
vt1 0.604492 0.054199
vt1 0.610352 0.016602
vt1 0.521973 0.010254
vt1 0.481201 0.063965
vt1 0.517090 0.061523
vt1 0.098083 0.027344
vt1 0.102661 0.100586
vt1 0.921875 0.088867
vt1 0.971680 0.078613
vt1 0.960449 -0.000977
vt1 0.902832 0.586670
vt1 0.974609 0.585449
vt1 0.974609 0.501221
vt1 0.807617 0.523926
vt1 0.704102 0.589844
vt1 0.840332 0.330566
vt1 0.737793 0.209473
vt1 0.437744 0.452148
vt1 0.554199 0.583740
vt1 0.480713 0.273926
vt1 0.584473 0.200195
vt1 0.038269 0.962646
vt1 0.116943 0.979553
vt1 0.039001 0.998656
vt1 0.149170 0.932922
vt1 0.223999 0.963989
vt1 0.012421 0.824707
vt1 0.298584 0.922974
vt1 0.349609 0.954071
vt1 0.154541 0.817017
vt1 0.077026 0.803467
vt1 0.006470 0.800781
vt1 0.459961 0.919434
vt1 0.481934 0.958954
vt1 0.573730 0.955109
vt1 0.119141 0.786133
vt1 0.000062 0.647461
vt1 0.011772 0.621582
vt1 0.087891 0.627197
vt1 0.107971 0.656982
vt1 0.199219 0.622314
vt1 0.194702 0.793945
vt1 0.257812 0.785156
vt1 0.248169 0.646240
vt1 0.318359 0.612305
vt1 0.323486 0.786133
vt1 0.422607 0.639893
vt1 0.423828 0.610107
vt1 0.524902 0.605713
vt1 0.401123 0.771118
vt1 0.606934 0.637207
vt1 0.648438 0.606934
vt1 0.499512 0.769775
vt1 0.319824 0.802124
vt1 0.449707 0.797363
vt1 0.523438 0.783325
vt1 0.568359 0.798584
vt1 0.629883 0.772095
vt1 0.600586 0.918518
vt1 0.687500 0.954254
vt1 0.679199 0.797852
vt1 0.808105 0.924011
vt1 0.800293 0.958008
vt1 0.934082 0.981613
vt1 0.965820 0.953888
vt1 0.904297 0.808350
vt1 0.988770 0.813477
vt1 0.792480 0.805176
vt1 0.713379 0.783447
vt1 0.819824 0.787354
vt1 0.910156 0.779297
vt1 0.993652 0.790039
vt1 0.993164 0.639404
vt1 0.770020 0.647705
vt1 0.786621 0.611816
vt1 0.905762 0.613770
vt1 0.985840 0.611328
vt1 0.298584 0.165039
vt1 0.431885 0.277832
vt1 0.148926 0.160156
vt1 0.445801 0.441406
vt1 0.381836 0.543457
vt1 0.274414 0.601074
vt1 0.102478 0.586670
vt1 -0.009491 0.418457
vt1 0.034271 0.248535
vn -0.031496 -0.000000 -1.000000
vn -0.007874 0.031496 -1.000000
vn 0.165354 0.023622 -0.984252
vn 0.078740 -0.960630 -0.259842
vn 0.031496 -0.362205 0.929134
vn -0.015748 0.015748 1.000000
vn -0.031496 0.000000 1.000000
vn 0.149606 0.023622 0.992126
vn -0.031496 0.000000 1.000000
vn -0.078740 1.000000 -0.000000
vn -0.062992 1.000000 -0.000000
vn -0.078740 1.000000 -0.000000
vn -0.070866 1.000000 -0.000000
vn -0.944882 0.322835 -0.000000
vn -0.937008 0.338583 -0.000000
vn -1.000000 0.047244 -0.000000
vn -1.000000 0.031496 -0.000000
vn -0.236220 0.968504 -0.000000
vn -0.078740 1.000000 -0.000000
vn -0.614173 0.787401 -0.000000
vn -0.062992 1.000000 -0.000000
vn -0.062992 1.000000 -0.000000
vn 0.291339 -0.960630 0.000000
vn 0.149606 -0.992126 0.000000
vn 0.929134 0.370079 -0.000000
vn 0.047244 -1.000000 0.000000
vn 0.055118 -1.000000 0.000000
vn 0.055118 -1.000000 0.000000
vn -0.330709 0.944882 0.055118
vn -0.125984 0.992126 -0.078740
vn -0.094488 0.976378 0.188976
vn 0.031496 0.992126 0.133858
vn 0.102362 0.984252 -0.125984
vn -0.133858 0.937008 -0.314961
vn 0.212598 0.976378 -0.023622
vn 0.322835 0.929134 0.165354
vn -0.976378 0.196850 -0.015748
vn -0.275591 0.952756 -0.141732
vn -0.370079 0.929134 0.039370
vn -0.724409 0.078740 -0.685039
vn -0.125984 0.952756 -0.291339
vn -1.000000 0.078740 -0.015748
vn 0.212598 0.055118 -0.976378
vn 0.188976 0.897638 -0.393701
vn -0.622047 0.015748 -0.779527
vn 0.157480 0.984252 0.102362
vn 1.000000 -0.031496 0.000000
vn 0.960630 0.078740 -0.275591
vn 0.314961 0.944882 -0.039370
vn 0.267717 0.944882 0.173228
vn 0.763780 -0.055118 0.645669
vn 1.000000 -0.031496 -0.023622
vn 0.299213 -0.952756 -0.023622
vn 0.307087 -0.929134 0.204724
vn 0.787402 -0.023622 0.614173
vn 0.133858 -0.905512 0.401575
vn 0.062992 0.992126 0.133858
vn 0.000000 -0.055118 1.000000
vn 0.015748 -0.023622 1.000000
vn -0.165354 -0.944882 0.291339
vn -0.141732 0.937008 0.307086
vn -0.889764 -0.023622 0.456693
vn -0.338583 -0.929134 0.165354
vn -0.299213 -0.952756 -0.039370
vn -0.803150 0.047244 0.590551
vn -0.771654 -0.055118 -0.629921
vn -0.094488 -0.984252 -0.149606
vn -1.000000 -0.047244 0.000000
vn 0.393701 0.047244 -0.921260
vn 0.944882 0.062992 -0.322835
vn 0.291339 0.952756 0.039370
vn 0.905512 0.023622 0.425197
vn -0.677165 0.031496 -0.732283
vn 0.787402 0.055118 0.622047
vn 0.102362 0.929134 0.346457
vn 0.401575 0.055118 0.913386
vn -0.440945 0.062992 0.889764
vn -0.173228 0.929134 0.330709
vn -0.385827 0.921260 -0.023622
vn -0.984252 0.157480 0.007874
vn -0.842520 0.094488 0.519685
vn -0.984252 0.149606 0.023622
vn -0.299213 0.039370 0.952756
vn -0.039370 0.929134 -0.362205
vn 0.204724 0.881890 -0.417323
vn 0.850394 0.007874 -0.519685
vn 1.000000 -0.039370 0.000000
vn 0.992126 -0.086614 -0.039370
vn 0.157480 -0.070866 -0.984252
vn 0.125984 -0.976378 -0.157480
vn 0.070866 -0.992126 -0.055118
vn 0.307087 -0.952756 0.023622
vn -0.023622 -1.000000 0.047244
vn 0.015748 -1.000000 0.047244
vn -0.047244 -1.000000 0.023622
vn 0.047244 -1.000000 0.031496
vn 0.047244 -1.000000 0.000000
vn 0.039370 -1.000000 -0.031496
vn 0.015748 -1.000000 -0.047244
vn -0.031496 -1.000000 -0.047244
vn -0.047244 -1.000000 -0.007874
tan -0.070866 1.000000 0.002232 1.000000
tan -0.566929 0.818897 0.030256 1.000000
tan -0.434001 0.883502 -0.051708 1.000000
tan 0.024738 0.261702 -0.960010 1.000000
tan 0.646661 -0.665509 -0.281356 1.000000
tan 0.362205 -0.929134 0.020336 1.000000
tan 0.047244 -1.000000 0.001488 1.000000
tan 0.437473 -0.890570 -0.044764 1.000000
tan 0.149606 -0.992126 0.004712 1.000000
tan -0.039370 -0.003100 -1.000000 1.000000
tan -0.039370 -0.002480 -1.000000 1.000000
tan -0.062992 -0.004960 -1.000000 1.000000
tan -0.078740 -0.005580 -1.000000 1.000000
tan -0.033046 -0.096720 -0.937442 1.000000
tan -0.031992 -0.088536 -0.929630 1.000000
tan -0.002976 -0.062992 -1.000000 1.000000
tan -0.001736 -0.055118 -1.000000 1.000000
tan -0.160146 -0.039060 -0.955112 1.000000
tan -0.062992 -0.004960 -1.000000 1.000000
tan -0.285201 -0.222457 -0.922562 1.000000
tan -0.023622 -0.001488 -1.000000 1.000000
tan -0.070866 -0.004464 -1.000000 1.000000
tan -0.960630 -0.291339 0.007564 1.000000
tan -0.992126 -0.149606 0.007812 1.000000
tan 0.370079 -0.929134 0.014632 1.000000
tan -1.000000 -0.047244 0.000000 1.000000
tan -1.000000 -0.055118 -0.007874 1.000000
tan -1.000000 -0.055118 0.055118 1.000000
tan -0.773762 -0.239135 -0.543121 1.000000
tan -0.726517 -0.145576 -0.671833 1.000000
tan -0.645793 0.078864 -0.730361 1.000000
tan -0.671833 0.119350 -0.726517 1.000000
tan -0.666501 -0.023932 -0.728501 1.000000
tan -0.560729 -0.333065 -0.752557 1.000000
tan -0.745737 0.147126 -0.630417 1.000000
tan -0.738917 0.356997 -0.563333 1.000000
tan 0.186930 0.945626 0.230640 1.000000
tan 0.810218 0.309133 0.502635 1.000000
tan 0.885548 0.341125 0.273607 1.000000
tan -0.352471 0.791990 0.463761 1.000000
tan 0.084816 0.302251 0.951764 1.000000
tan 0.075888 0.992126 0.141732 1.000000
tan -0.045694 0.974704 0.045074 1.000000
tan -0.409945 0.436605 0.798685 1.000000
tan -0.395127 0.796330 0.331391 1.000000
tan 0.891252 -0.186930 0.426251 1.000000
tan -0.031496 -1.000000 0.062992 1.000000
tan -0.087420 0.960630 -0.030256 1.000000
tan -0.944882 0.318061 0.074400 1.000000
tan -0.900242 0.308265 -0.290161 1.000000
tan -0.476719 -0.659123 0.507657 1.000000
tan -0.033170 -1.000000 -0.070866 1.000000
tan -0.945254 -0.293323 -0.142538 1.000000
tan -0.890942 -0.351417 -0.258478 1.000000
tan -0.242730 -0.898258 0.276645 1.000000
tan -0.103788 -0.414223 -0.899436 1.000000
tan 0.226548 -0.145080 0.968690 1.000000
tan 0.055118 -1.000000 -0.055118 1.000000
tan -0.015748 -1.000000 -0.023374 1.000000
tan 0.141360 -0.313783 -0.937442 1.000000
tan -0.332011 -0.337963 0.877984 1.000000
tan -0.048670 -0.915308 -0.142166 1.000000
tan 0.899870 -0.369583 -0.234112 1.000000
tan 0.952756 -0.302313 0.075020 1.000000
tan -0.283837 -0.840164 -0.318805 1.000000
tan -0.051212 -0.890074 0.140616 1.000000
tan 0.581251 -0.177134 0.798251 1.000000
tan 0.047244 -1.000000 -0.007874 1.000000
tan -0.087048 0.914006 0.009672 1.000000
tan -0.073160 0.944882 -0.029760 1.000000
tan -0.952756 0.294749 -0.082522 1.000000
tan -0.030318 0.912208 0.013888 1.000000
tan -0.382417 -0.841466 0.317441 1.000000
tan -0.071672 0.944820 0.007006 1.000000
tan -0.124372 0.357431 -0.921818 1.000000
tan -0.057102 0.910224 -0.029822 1.000000
tan -0.329841 0.864840 -0.224689 1.000000
tan 0.192820 0.358361 -0.905822 1.000000
tan 0.884804 0.363755 -0.265361 1.000000
tan 0.152086 0.961002 -0.209251 1.000000
tan -0.027156 0.848720 -0.198338 1.000000
tan 0.146010 0.976502 -0.100750 1.000000
tan -0.082832 0.950400 -0.065286 1.000000
tan -0.146320 -0.362701 -0.914502 1.000000
tan 0.263873 -0.458863 -0.840226 1.000000
tan -0.375287 -0.622357 -0.623535 1.000000
tan -0.039370 -1.000000 -0.031496 1.000000
tan -0.079050 -0.976502 0.156240 1.000000
tan -0.015500 -0.984252 0.068386 1.000000
tan -0.184512 -0.178808 0.961002 1.000000
tan -0.867134 -0.088412 0.476533 1.000000
tan -0.937752 -0.298345 0.157542 1.000000
tan -0.700787 0.050034 0.708661 1.000000
tan -0.700787 0.022444 0.708661 1.000000
tan -0.708661 0.050220 0.708661 1.000000
tan -0.708661 -0.011408 0.700787 1.000000
tan -0.708661 -0.033480 0.708661 1.000000
tan -0.708661 -0.050220 0.708661 1.000000
tan -0.708661 -0.044640 0.708661 1.000000
tan -0.700787 -0.011408 0.708661 1.000000
tan -0.708661 0.027962 0.700787 1.000000
f 3/3/3 2/2/2 1/1/1
f 6/6/6 5/5/5 4/4/4
f 8/8/8 7/7/7 6/6/6
f 9/9/9 6/6/6 7/7/7
f 12/12/12 11/11/11 10/10/10
f 11/11/11 13/13/13 10/10/10
f 16/16/16 15/15/15 14/14/14
f 16/16/16 14/14/14 17/17/17
f 20/20/20 19/19/19 18/18/18
f 19/19/19 21/21/21 18/18/18
f 21/21/21 19/19/19 22/22/22
f 25/25/25 24/24/24 23/23/23
f 23/23/23 24/24/24 26/26/26
f 27/27/27 26/26/26 24/24/24
f 26/26/26 28/28/28 27/27/27
f 28/28/28 26/26/26 27/27/27
f 31/31/31 30/30/30 29/29/29
f 32/32/32 30/30/30 31/31/31
f 34/34/34 30/30/30 33/33/33
f 32/32/32 33/33/33 30/30/30
f 32/32/32 35/35/35 33/33/33
f 35/35/35 32/32/32 36/36/36
f 39/39/39 38/38/38 37/37/37
f 40/40/40 37/37/37 38/38/38
f 40/40/40 38/38/38 41/41/41
f 40/40/40 42/42/42 37/37/37
f 40/40/40 41/41/41 43/43/43
f 41/41/41 44/44/44 43/43/43
f 42/42/42 40/40/40 45/45/45
f 40/40/40 43/43/43 45/45/45
f 45/45/45 46/46/46 42/42/42
f 47/47/47 42/42/42 46/46/46
f 43/43/43 44/44/44 48/48/48
f 48/48/48 44/44/44 49/49/49
f 50/50/50 48/48/48 49/49/49
f 46/46/46 51/51/51 47/47/47
f 51/51/51 52/52/52 47/47/47
f 52/52/52 54/54/54 53/53/53
f 55/55/55 54/54/54 52/52/52
f 52/52/52 51/51/51 55/55/55
f 56/56/56 54/54/54 55/55/55
f 57/57/57 51/51/51 46/46/46
f 46/46/46 45/45/45 57/57/57
f 51/51/51 58/58/58 55/55/55
f 51/51/51 57/57/57 58/58/58
f 55/55/55 59/59/59 56/56/56
f 59/59/59 55/55/55 58/58/58
f 56/56/56 59/59/59 60/60/60
f 57/57/57 61/61/61 58/58/58
f 62/62/62 60/60/60 59/59/59
f 63/63/63 60/60/60 62/62/62
f 64/64/64 63/63/63 62/62/62
f 58/58/58 65/65/65 59/59/59
f 62/62/62 59/59/59 65/65/65
f 61/61/61 65/65/65 58/58/58
f 64/64/64 62/62/62 66/66/66
f 66/66/66 67/67/67 64/64/64
f 65/65/65 68/68/68 62/62/62
f 66/66/66 62/62/62 68/68/68
f 69/69/69 61/61/61 57/57/57
f 61/61/61 69/69/69 65/65/65
f 57/57/57 45/45/45 69/69/69
f 69/69/69 45/45/45 43/43/43
f 43/43/43 48/48/48 69/69/69
f 70/70/70 65/65/65 69/69/69
f 70/70/70 69/69/69 48/48/48
f 71/71/71 68/68/68 65/65/65
f 70/70/70 71/71/71 65/65/65
f 72/72/72 70/70/70 48/48/48
f 72/72/72 71/71/71 70/70/70
f 73/73/73 68/68/68 71/71/71
f 72/72/72 73/73/73 71/71/71
f 68/68/68 73/73/73 66/66/66
f 48/48/48 74/74/74 72/72/72
f 74/74/74 48/48/48 50/50/50
f 74/74/74 50/50/50 75/75/75
f 76/76/76 72/72/72 74/74/74
f 76/76/76 73/73/73 72/72/72
f 75/75/75 77/77/77 74/74/74
f 77/77/77 76/76/76 74/74/74
f 75/75/75 78/78/78 77/77/77
f 77/77/77 78/78/78 79/79/79
f 79/79/79 80/80/80 77/77/77
f 80/80/80 81/81/81 77/77/77
f 81/81/81 80/80/80 82/82/82
f 83/83/83 76/76/76 77/77/77
f 81/81/81 83/83/83 77/77/77
f 83/83/83 84/84/84 76/76/76
f 76/76/76 84/84/84 73/73/73
f 83/83/83 81/81/81 85/85/85
f 84/84/84 83/83/83 85/85/85
f 86/86/86 81/81/81 82/82/82
f 86/86/86 85/85/85 81/81/81
f 82/82/82 87/87/87 86/86/86
f 87/87/87 88/88/88 86/86/86
f 89/89/89 84/84/84 85/85/85
f 85/85/85 86/86/86 89/89/89
f 73/73/73 84/84/84 89/89/89
f 88/88/88 89/89/89 86/86/86
f 89/89/89 66/66/66 73/73/73
f 66/66/66 89/89/89 67/67/67
f 89/89/89 90/90/90 67/67/67
f 90/90/90 89/89/89 91/91/91
f 91/91/91 89/89/89 88/88/88
f 88/88/88 92/92/92 91/91/91
f 95/95/95 94/94/94 93/93/93
f 95/95/95 96/96/96 94/94/94
f 95/95/95 97/97/97 96/96/96
f 95/95/95 98/98/98 97/97/97
f 95/95/95 99/99/99 98/98/98
f 95/95/95 100/100/100 99/99/99
f 95/95/95 101/101/101 100/100/100
