mtllib SM_Sponge_02_LOD3.mtl
g SM_Sponge_02_LOD3
#Vertices 50
#Indices 126
#Section 0 Offset 0 NumIndices 126 MaterialIndex 0 MI_Sponge
v 0.000190 -0.000231 0.022894
v -0.000633 0.027493 0.024333
v 0.024270 0.000990 0.029773
v 0.036192 0.027970 0.029292
v 0.043332 -0.000178 0.028346
v 0.055422 0.028019 0.016749
v 0.058549 0.001049 0.008682
v 0.058500 0.028857 -0.014248
v 0.057760 -0.000345 -0.011449
v 0.041586 -0.000085 -0.029581
v 0.033072 0.027409 -0.030642
v 0.024016 0.001564 -0.029186
v -0.000023 0.027446 -0.023755
v 0.000435 0.000167 -0.023773
v -0.045352 -0.000744 0.026860
v -0.052178 -0.000664 -0.019905
v -0.059525 -0.002813 0.004717
v -0.037052 -0.000249 -0.030079
v -0.028009 -0.001003 0.029090
v 0.000190 -0.000231 0.022894
v 0.000435 0.000167 -0.023773
v 0.041586 -0.000085 -0.029581
v 0.024016 0.001564 -0.029186
v 0.043332 -0.000178 0.028346
v 0.024270 0.000990 0.029773
v 0.057760 -0.000345 -0.011449
v 0.058549 0.001049 0.008682
v 0.036192 0.027970 0.029292
v 0.058500 0.028857 -0.014248
v 0.055422 0.028019 0.016749
v 0.033072 0.027409 -0.030642
v -0.000023 0.027446 -0.023755
v -0.000633 0.027493 0.024333
v -0.034989 0.027498 0.031083
v -0.036066 0.027502 -0.031380
v -0.058786 0.027830 -0.011116
v -0.055790 0.027376 0.017630
v -0.034989 0.027498 0.031083
v -0.000633 0.027493 0.024333
v 0.000190 -0.000231 0.022894
v -0.028009 -0.001003 0.029090
v -0.045352 -0.000744 0.026860
v -0.055790 0.027376 0.017630
v -0.059525 -0.002813 0.004717
v -0.058786 0.027830 -0.011116
v -0.052178 -0.000664 -0.019905
v -0.036066 0.027502 -0.031380
v -0.037052 -0.000249 -0.030079
v 0.000435 0.000167 -0.023773
v -0.000023 0.027446 -0.023755
vt 0.834473 0.999977
vt 0.735352 1.002022
vt 0.829590 0.909912
vt 0.734375 0.866089
vt 0.833496 0.839478
vt 0.733398 0.779663
vt 0.830566 0.748047
vt 0.730957 0.666260
vt 0.833984 0.673584
vt 0.833496 0.585205
vt 0.736816 0.554443
vt 0.828125 0.520996
vt 0.735352 0.433105
vt 0.833008 0.434570
vt 0.525879 0.675293
vt 0.692383 0.699951
vt 0.604980 0.724609
vt 0.729004 0.645020
vt 0.517578 0.613281
vt 0.538574 0.512451
vt 0.707031 0.510498
vt 0.726074 0.363281
vt 0.727539 0.426270
vt 0.519531 0.357910
vt 0.515625 0.425781
vt 0.661133 0.306152
vt 0.589355 0.303223
vt 0.939941 0.083008
vt 0.784180 0.003418
vt 0.894531 0.014160
vt 0.725586 0.094238
vt 0.749512 0.212891
vt 0.922852 0.214844
vt 0.945801 0.338379
vt 0.723145 0.341309
vt 0.794922 0.422852
vt 0.897461 0.412598
vt 0.848145 0.560791
vt 0.848633 0.434082
vt 0.946777 0.430176
vt 0.948242 0.534668
vt 0.948730 0.601562
vt 0.848633 0.649902
vt 0.955078 0.698975
vt 0.846680 0.755371
vt 0.946777 0.794434
vt 0.848145 0.866089
vt 0.945801 0.863403
vt 0.945801 1.000432
vt 0.848145 0.998979
vt1 0.008095 0.336426
vt1 0.004997 0.186523
vt1 0.144653 0.329102
vt1 0.211182 0.184570
vt1 0.251221 0.334961
vt1 0.342041 0.183594
vt1 0.389893 0.331055
vt1 0.514160 0.179688
vt1 0.502930 0.335938
vt1 0.637207 0.334961
vt1 0.683594 0.188477
vt1 0.733887 0.326660
vt1 0.868164 0.186523
vt1 0.865723 0.334473
vt1 0.028107 0.916626
vt1 0.280273 0.954041
vt1 0.147827 0.991241
vt1 0.335205 0.870850
vt1 0.015434 0.822876
vt1 0.047302 0.669922
vt1 0.301758 0.667236
vt1 0.331055 0.444336
vt1 0.333008 0.539307
vt1 0.018082 0.435547
vt1 0.012314 0.538330
vt1 0.232666 0.356934
vt1 0.123596 0.352539
vt1 0.865234 0.557129
vt1 0.985352 0.792847
vt1 0.968750 0.625732
vt1 0.847656 0.881226
vt1 0.668457 0.845093
vt1 0.665039 0.582764
vt1 0.478027 0.547852
vt1 0.473145 0.884949
vt1 0.349854 0.776367
vt1 0.365723 0.620850
vt1 0.671875 0.024902
vt1 0.863770 0.025879
vt1 0.870117 0.174805
vt1 0.711426 0.177246
vt1 0.609863 0.177734
vt1 0.536621 0.025879
vt1 0.462158 0.187500
vt1 0.376709 0.023438
vt1 0.317383 0.175293
vt1 0.208740 0.024902
vt1 0.212891 0.173340
vt1 0.005146 0.173828
vt1 0.007347 0.025391
vn 0.000000 -0.251968 0.968504
vn 0.007874 0.212599 0.976378
vn -0.251969 -0.157480 0.952756
vn 0.062992 0.275591 0.960630
vn 0.448819 -0.275590 0.850394
vn 0.811024 0.322835 0.496063
vn 0.913386 -0.307087 0.259843
vn 0.858268 0.314961 -0.393701
vn 0.881890 -0.322835 -0.346457
vn 0.370079 -0.267717 -0.889764
vn -0.015748 0.259842 -0.960630
vn -0.244094 -0.173228 -0.952756
vn -0.078740 0.228346 -0.968504
vn -0.007874 -0.251969 -0.968504
vn -0.047244 -1.000000 0.070866
vn -0.133858 -0.976378 -0.149606
vn -0.440945 -0.897638 0.062992
vn 0.007874 -1.000000 -0.055118
vn 0.007874 -1.000000 0.062992
vn 0.000000 -1.000000 0.031496
vn -0.007874 -1.000000 -0.070866
vn 0.015748 -1.000000 -0.039370
vn -0.110236 -0.566929 -0.818897
vn 0.031496 -1.000000 0.047244
vn -0.157480 -0.700787 0.700787
vn 0.173228 -0.984252 -0.062992
vn 0.322835 -0.937008 0.133858
vn -0.007874 1.000000 0.055118
vn 0.244094 0.968504 -0.062992
vn 0.173228 0.984252 0.078740
vn 0.000000 1.000000 -0.055118
vn 0.000000 1.000000 -0.047244
vn 0.007874 1.000000 0.078740
vn 0.000000 1.000000 0.062992
vn -0.007874 1.000000 -0.070866
vn -0.236220 0.968504 -0.031496
vn -0.181102 0.976378 0.094488
vn 0.031496 0.220473 0.976378
vn 0.000000 0.236221 0.968504
vn 0.102362 -0.181102 0.976378
vn 0.125984 -0.244094 0.960630
vn -0.519685 -0.291338 0.803150
vn -0.811024 0.291339 0.511811
vn -0.929134 -0.338583 0.118110
vn -0.897638 0.307087 -0.314961
vn -0.732283 -0.299213 -0.614173
vn 0.007874 0.220472 -0.976378
vn -0.039370 -0.236221 -0.968504
vn 0.086614 -0.236221 -0.968504
vn -0.007874 0.259842 -0.968504
tan 0.968504 0.068634 0.017856 1.000000
tan 0.976378 -0.046128 0.002170 1.000000
tan 0.952756 -0.022506 0.248248 1.000000
tan 0.960630 0.075640 -0.084692 1.000000
tan 0.852564 -0.043338 -0.464009 1.000000
tan 0.525203 -0.079112 -0.807180 1.000000
tan 0.296485 0.113026 -0.908612 1.000000
tan -0.413541 0.050964 -0.860748 1.000000
tan -0.386943 -0.109864 -0.882572 1.000000
tan -0.884866 0.095170 -0.396677 1.000000
tan -0.955112 -0.121148 -0.017112 1.000000
tan -0.952756 0.015004 0.241366 1.000000
tan -0.968504 0.068634 0.094922 1.000000
tan -0.970488 -0.068572 0.025730 1.000000
tan 1.000000 -0.051150 -0.055118 1.000000
tan 0.977556 -0.144460 0.068138 1.000000
tan 0.897638 -0.442433 -0.021204 1.000000
tan 1.000000 0.007006 0.015748 1.000000
tan 1.000000 0.007874 -0.000000 1.000000
tan 1.000000 -0.000248 -0.007874 1.000000
tan 1.000000 -0.008432 0.007874 1.000000
tan 1.000000 0.016368 -0.015748 1.000000
tan 0.908674 -0.045756 -0.090644 1.000000
tan 1.000000 0.032612 0.023622 1.000000
tan 0.915990 -0.217186 -0.011346 1.000000
tan 0.984252 0.175708 -0.038750 1.000000
tan 0.938062 0.329159 0.041726 1.000000
tan 1.000000 0.007006 0.015748 1.000000
tan 0.968504 -0.246574 -0.038130 1.000000
tan 0.984252 -0.176948 0.046500 1.000000
tan 1.000000 -0.000868 -0.015748 1.000000
tan 1.000000 0.000000 0.000000 1.000000
tan 1.000000 -0.009114 0.015748 1.000000
tan 1.000000 0.001488 -0.023622 1.000000
tan 1.000000 0.008990 0.015748 1.000000
tan 0.968504 0.237212 0.030504 1.000000
tan 0.976378 0.186310 -0.053816 1.000000
tan 0.976378 -0.076880 -0.014136 1.000000
tan 0.962738 0.091512 -0.022320 1.000000
tan 0.976378 -0.015376 -0.105214 1.000000
tan 0.960630 0.037820 -0.116374 1.000000
tan 0.807738 0.029760 0.533449 1.000000
tan 0.534751 0.059830 0.813317 1.000000
tan 0.120776 -0.007316 0.929134 1.000000
tan -0.348751 -0.106020 0.890570 1.000000
tan -0.621241 -0.002046 0.741707 1.000000
tan -0.976378 0.069192 0.007750 1.000000
tan -0.968504 -0.038130 0.048670 1.000000
tan -0.970364 -0.000682 -0.086614 1.000000
tan -0.970550 -0.053444 -0.006448 1.000000
f 3/3/3 2/2/2 1/1/1
f 3/3/3 4/4/4 2/2/2
f 4/4/4 3/3/3 5/5/5
f 5/5/5 6/6/6 4/4/4
f 7/7/7 6/6/6 5/5/5
f 6/6/6 7/7/7 8/8/8
f 8/8/8 7/7/7 9/9/9
f 9/9/9 10/10/10 8/8/8
f 10/10/10 11/11/11 8/8/8
f 12/12/12 11/11/11 10/10/10
f 13/13/13 11/11/11 12/12/12
f 14/14/14 13/13/13 12/12/12
f 17/17/17 16/16/16 15/15/15
f 16/16/16 18/18/18 15/15/15
f 15/15/15 18/18/18 19/19/19
f 19/19/19 18/18/18 20/20/20
f 21/21/21 20/20/20 18/18/18
f 23/23/23 22/22/22 21/21/21
f 21/21/21 22/22/22 20/20/20
f 24/24/24 20/20/20 22/22/22
f 20/20/20 24/24/24 25/25/25
f 22/22/22 26/26/26 24/24/24
f 27/27/27 24/24/24 26/26/26
f 30/30/30 29/29/29 28/28/28
f 31/31/31 28/28/28 29/29/29
f 32/32/32 28/28/28 31/31/31
f 33/33/33 28/28/28 32/32/32
f 33/33/33 32/32/32 34/34/34
f 35/35/35 34/34/34 32/32/32
f 36/36/36 34/34/34 35/35/35
f 37/37/37 34/34/34 36/36/36
f 40/40/40 39/39/39 38/38/38
f 40/40/40 38/38/38 41/41/41
f 38/38/38 42/42/42 41/41/41
f 43/43/43 42/42/42 38/38/38
f 42/42/42 43/43/43 44/44/44
f 45/45/45 44/44/44 43/43/43
f 45/45/45 46/46/46 44/44/44
f 46/46/46 45/45/45 47/47/47
f 46/46/46 47/47/47 48/48/48
f 49/49/49 48/48/48 47/47/47
f 49/49/49 47/47/47 50/50/50
