mtllib SM_SaucePan_Steel_Top_01_LOD3.mtl
g SM_SaucePan_Steel_Top_01_LOD3
#Vertices 71
#Indices 210
#Section 0 Offset 0 NumIndices 210 MaterialIndex 0 MI_SaucePan
v -0.114834 0.003751 0.091895
v -0.148615 0.007908 0.018416
v -0.141849 0.015947 0.060568
v 0.013386 0.072604 -0.027921
v 0.030257 0.071381 0.011185
v -0.013642 0.072796 0.030219
v -0.019269 0.070842 -0.024675
v -0.030545 0.071154 -0.006901
v -0.008586 0.038355 -0.008599
v -0.030545 0.071154 -0.006901
v -0.011531 0.037152 0.012523
v -0.013642 0.072796 0.030219
v 0.009215 0.035334 0.017433
v 0.030257 0.071381 0.011185
v 0.016389 0.037175 -0.004880
v 0.013386 0.072604 -0.027921
v -0.008586 0.038355 -0.008599
v -0.019269 0.070842 -0.024675
v -0.030545 0.071154 -0.006901
v 0.124548 0.008792 -0.077365
v 0.147540 0.004149 0.001028
v 0.138106 0.007865 -0.072670
v 0.085408 0.004972 -0.117555
v 0.084182 0.005313 -0.130056
v 0.015715 0.005904 -0.150295
v 0.044017 0.015306 -0.141057
v -0.077444 0.012073 -0.127336
v -0.049869 0.006701 -0.146946
v -0.109901 0.005352 -0.107744
v -0.141966 0.003033 -0.046439
v -0.148615 0.007908 0.018416
v -0.114834 0.003751 0.091895
v -0.075063 0.006769 0.132458
v -0.077444 0.012073 -0.127336
v -0.141966 0.003033 -0.046439
v -0.007606 0.037179 0.016758
v 0.013254 0.010197 0.148660
v 0.044017 0.015306 -0.141057
v 0.015715 0.005904 -0.150295
v 0.133108 0.012852 0.070864
v 0.084084 0.003643 0.121073
v 0.124548 0.008792 -0.077365
v 0.147540 0.004149 0.001028
v 0.085408 0.004972 -0.117555
v -0.114834 0.003751 0.091895
v -0.141849 0.015947 0.060568
v -0.075063 0.006769 0.132458
v -0.025162 0.020706 0.151556
v 0.013254 0.010197 0.148660
v -0.131605 0.019472 -0.080605
v 0.066680 0.018142 0.138669
v -0.152370 0.012025 -0.047504
v -0.148615 0.007908 0.018416
v -0.141966 0.003033 -0.046439
v -0.109901 0.005352 -0.107744
v -0.049869 0.006701 -0.146946
v -0.011531 0.037152 0.012523
v -0.008586 0.038355 -0.008599
v 0.009215 0.035334 0.017433
v -0.007473 0.018143 -0.154272
v 0.015715 0.005904 -0.150295
v 0.084182 0.005313 -0.130056
v 0.016389 0.037175 -0.004880
v 0.104410 0.018856 -0.109117
v 0.138106 0.007865 -0.072670
v 0.146642 0.018837 -0.037779
v 0.139199 0.014581 0.093187
v 0.147540 0.004149 0.001028
v 0.133108 0.012852 0.070864
v 0.084084 0.003643 0.121073
v 0.121165 0.016681 0.088032
vt 0.529297 0.764404
vt 0.497559 0.766235
vt 0.513184 0.760986
vt 0.011093 0.000000
vt 0.023743 0.010254
vt 0.011978 0.024414
vt 0.000407 0.006348
vt -0.000360 0.014648
vt 0.385986 0.052246
vt 0.375244 0.062500
vt 0.380127 0.045898
vt 0.365234 0.050293
vt 0.376953 0.037109
vt 0.361572 0.031738
vt 0.376465 0.026855
vt 0.364502 0.015137
vt 0.382080 0.014160
vt 0.371338 0.004395
vt 0.376709 -0.000977
vt 0.512695 0.879944
vt 0.544434 0.873901
vt 0.516602 0.882812
vt 0.491455 0.872803
vt 0.486816 0.874512
vt 0.467285 0.854248
vt 0.475342 0.862671
vt 0.458008 0.816528
vt 0.457031 0.830444
vt 0.459961 0.802124
vt 0.475830 0.780151
vt 0.497559 0.766357
vt 0.529297 0.764404
vt 0.550293 0.771729
vt 0.459717 0.817017
vt 0.475586 0.779785
vt 0.521973 0.816162
vt 0.571289 0.799927
vt 0.476562 0.861694
vt 0.467773 0.854004
vt 0.565430 0.855225
vt 0.575195 0.829468
vt 0.512695 0.878845
vt 0.544434 0.873291
vt 0.491455 0.872803
vt 0.029739 0.712402
vt 0.041382 0.699951
vt 0.024612 0.735107
vt 0.030380 0.755981
vt 0.036285 0.770386
vt 0.091797 0.678711
vt 0.051117 0.785767
vt 0.076782 0.676758
vt 0.052795 0.686523
vt 0.077576 0.675781
vt 0.106445 0.677734
vt 0.130981 0.693115
vt 0.081177 0.736572
vt 0.088684 0.734131
vt 0.082947 0.744629
vt 0.139404 0.708496
vt 0.144897 0.716064
vt 0.150513 0.744385
vt 0.091858 0.742920
vt 0.143433 0.755127
vt 0.138428 0.774536
vt 0.126221 0.782471
vt 0.080322 0.804199
vt 0.115479 0.794312
vt 0.086182 0.801270
vt 0.057800 0.793701
vt 0.078247 0.795776
vt1 0.662109 0.023926
vt1 0.810547 0.032715
vt1 0.736816 0.008301
vt1 0.573730 0.887329
vt1 0.514648 0.936157
vt1 0.569824 1.002419
vt1 0.623535 0.919189
vt1 0.627441 0.957367
vt1 0.003048 0.458008
vt1 0.053802 0.505127
vt1 0.030594 0.428223
vt1 0.099792 0.447754
vt1 0.045013 0.386719
vt1 0.116821 0.361816
vt1 0.047577 0.338379
vt1 0.103760 0.284668
vt1 0.021133 0.280273
vt1 0.071716 0.234375
vt1 0.046936 0.207520
vt1 0.738281 0.562988
vt1 0.590332 0.534912
vt1 0.720703 0.576172
vt1 0.838867 0.529541
vt1 0.859863 0.537842
vt1 0.951172 0.443359
vt1 0.913086 0.482422
vt1 0.993652 0.267578
vt1 0.999512 0.332031
vt1 0.985352 0.200195
vt1 0.910645 0.097656
vt1 0.810059 0.033691
vt1 0.662109 0.024414
vt1 0.563965 0.058594
vt1 0.986328 0.269531
vt1 0.913086 0.096191
vt1 0.696777 0.265625
vt1 0.464844 0.189941
vt1 0.907715 0.477539
vt1 0.949219 0.442383
vt1 0.493896 0.447754
vt1 0.447266 0.327637
vt1 0.738770 0.557861
vt1 0.591797 0.531982
vt1 0.838867 0.529541
vt1 0.025879 0.583984
vt1 0.080261 0.526123
vt1 0.002012 0.689941
vt1 0.028900 0.788086
vt1 0.056396 0.854858
vt1 0.315186 0.426758
vt1 0.125610 0.926819
vt1 0.245239 0.418457
vt1 0.133423 0.464355
vt1 0.249023 0.413574
vt1 0.383545 0.423340
vt1 0.498291 0.494141
vt1 0.265625 0.697266
vt1 0.301025 0.685303
vt1 0.274170 0.734131
vt1 0.537598 0.565674
vt1 0.562988 0.601318
vt1 0.589355 0.733887
vt1 0.315430 0.727051
vt1 0.556152 0.784058
vt1 0.533203 0.874146
vt1 0.475830 0.911560
vt1 0.261963 1.012703
vt1 0.425781 0.966705
vt1 0.289062 0.999101
vt1 0.156738 0.963654
vt1 0.251953 0.973694
vn 0.000000 -1.000000 0.000000
vn 0.000000 -1.000000 0.000000
vn 0.000000 -1.000000 0.000000
vn 0.102362 0.944882 -0.307087
vn 0.417323 0.905512 0.078740
vn -0.094488 0.921260 0.377953
vn -0.204724 0.937008 -0.291339
vn -0.858268 0.503937 -0.102362
vn -0.905512 -0.259843 -0.330709
vn -0.952756 -0.204724 -0.228346
vn -0.669291 -0.259842 0.700787
vn -0.417323 -0.196850 0.889764
vn 0.480315 -0.251968 0.842520
vn 0.929134 -0.204724 0.299213
vn 0.929134 -0.259843 -0.275590
vn 0.433071 -0.212599 -0.874016
vn -0.456693 -0.283465 -0.842520
vn -0.622047 -0.212598 -0.755905
vn -0.952756 -0.212598 -0.204724
vn 0.000000 -1.000000 0.000000
vn 0.000000 -1.000000 0.000000
vn 0.000000 -1.000000 0.000000
vn 0.000000 -1.000000 0.000000
vn 0.000000 -1.000000 0.000000
vn 0.000000 -1.000000 0.000000
vn 0.000000 -1.000000 0.000000
vn 0.000000 -1.000000 0.000000
vn 0.000000 -1.000000 0.000000
vn 0.000000 -1.000000 0.000000
vn 0.000000 -1.000000 0.000000
vn 0.409449 -0.913386 -0.055118
vn 0.393701 -0.866142 -0.307086
vn 0.204724 -0.905512 -0.362205
vn 0.188976 -0.929134 0.322835
vn 0.496063 -0.850394 0.165354
vn 0.000000 -1.000000 -0.039370
vn -0.031496 -0.921260 -0.385827
vn -0.102362 -0.937008 0.338583
vn -0.047244 -0.866142 0.488189
vn -0.330709 -0.929134 -0.173228
vn -0.291339 -0.866142 -0.409449
vn -0.354331 -0.905512 0.220473
vn -0.496063 -0.866142 -0.007874
vn -0.275591 -0.881890 0.385827
vn -0.779528 -0.039370 0.622047
vn -0.393701 0.905512 0.125984
vn -0.535433 -0.007874 0.850394
vn 0.007874 0.976378 0.228346
vn 0.039370 0.149606 0.984252
vn -0.188976 0.976378 -0.125984
vn 0.086614 0.976378 0.188976
vn -0.937008 0.244094 -0.244094
vn -0.992126 0.023622 0.118110
vn -0.944882 -0.078740 -0.322835
vn -0.708661 0.015748 -0.700787
vn -0.338583 0.015748 -0.937008
vn -0.055118 0.992126 0.078740
vn -0.047244 0.992126 -0.078740
vn 0.047244 0.992126 0.086614
vn -0.015748 0.976378 -0.228347
vn 0.055118 -0.094488 -0.992126
vn 0.527559 -0.007874 -0.850394
vn 0.110236 0.992126 -0.000000
vn 0.157480 0.976378 -0.149606
vn 0.874016 -0.015748 -0.480315
vn 0.196850 0.976378 -0.062992
vn 0.866142 0.047244 0.496063
vn 1.000000 -0.015748 0.007874
vn 0.881890 0.023622 0.464567
vn 0.574803 -0.007874 0.818897
vn 0.220472 0.960630 0.157480
tan -0.889764 0.000000 0.448819 1.000000
tan -0.889764 0.000000 0.456693 1.000000
tan -0.889764 0.000000 0.456693 1.000000
tan 0.364561 -0.322401 -0.870482 1.000000
tan 0.642321 -0.240561 -0.637857 1.000000
tan 0.293137 0.386881 -0.869738 1.000000
tan 0.346767 -0.194928 -0.870606 1.000000
tan 0.507657 0.798561 -0.325129 1.000000
tan -0.084816 -0.584661 0.691611 1.000000
tan 0.032984 -0.772707 0.555149 1.000000
tan 0.730051 -0.139252 0.645607 1.000000
tan 0.861740 -0.224192 0.354579 1.000000
tan 0.831236 -0.148800 -0.518383 1.000000
tan 0.310497 0.053568 -0.927522 1.000000
tan -0.259223 0.058528 -0.929134 1.000000
tan -0.825842 0.275280 -0.476161 1.000000
tan -0.813876 0.270073 0.350301 1.000000
tan -0.754975 0.103974 0.592039 1.000000
tan -0.291773 0.780209 0.547647 1.000000
tan -0.889764 0.000000 0.448819 1.000000
tan -0.889764 0.000000 0.464567 1.000000
tan -0.889764 0.000000 0.456693 1.000000
tan -0.897638 0.000000 0.448819 1.000000
tan -0.897638 0.000000 0.448819 1.000000
tan -0.897638 0.000000 0.448819 1.000000
tan -0.897638 0.000000 0.448819 1.000000
tan -0.889764 0.000000 0.456693 1.000000
tan -0.897638 0.000000 0.448819 1.000000
tan -0.889764 0.000000 0.456693 1.000000
tan -0.889764 0.000000 0.464567 1.000000
tan -0.884618 -0.410007 0.222952 1.000000
tan -0.779900 -0.488809 0.378821 1.000000
tan -0.670221 -0.396801 0.613181 1.000000
tan -0.797446 0.003038 0.475541 1.000000
tan -0.823424 -0.428359 0.267283 1.000000
tan -0.889764 -0.017670 0.448819 1.000000
tan -0.515035 -0.301382 0.761671 1.000000
tan -0.723045 0.294935 0.597619 1.000000
tan -0.636865 0.375597 0.604749 1.000000
tan -0.899870 0.275281 0.241428 1.000000
tan -0.755906 0.034968 0.463885 1.000000
tan -0.848472 0.410131 0.320851 1.000000
tan -0.832166 0.474425 0.239692 1.000000
tan -0.771220 0.437907 0.450059 1.000000
tan -0.613429 -0.088350 -0.774319 1.000000
tan -0.871846 -0.342489 -0.262880 1.000000
tan -0.850456 0.004216 -0.535433 1.000000
tan -0.807242 0.135966 -0.553537 1.000000
tan -0.860252 0.480501 -0.038626 1.000000
tan -0.891810 -0.223200 -0.392089 1.000000
tan -0.830306 0.173352 -0.515097 1.000000
tan -0.192200 -0.924174 -0.186372 1.000000
tan -0.094302 -0.757765 -0.640585 1.000000
tan 0.174158 -0.902784 -0.289540 1.000000
tan -0.504805 -0.699361 0.494761 1.000000
tan -0.767190 -0.535929 0.268213 1.000000
tan -0.882758 -0.013082 -0.453097 1.000000
tan -0.882758 -0.078616 -0.460909 1.000000
tan -0.882758 0.082274 -0.460909 1.000000
tan -0.807242 -0.142476 -0.553537 1.000000
tan -0.937442 -0.328105 -0.020832 1.000000
tan -0.850518 0.018476 -0.527807 1.000000
tan -0.898382 0.099820 -0.421849 1.000000
tan -0.868746 0.071796 -0.445905 1.000000
tan -0.465745 0.186496 -0.853618 1.000000
tan -0.907186 0.160084 -0.353649 1.000000
tan -0.253705 0.807738 0.366049 1.000000
tan 0.017546 0.842520 -0.543307 1.000000
tan -0.041912 0.889206 0.034348 1.000000
tan -0.637423 0.570835 0.452911 1.000000
tan -0.854734 0.268088 -0.438713 1.000000
f 3/3/3 2/2/2 1/1/1
f 6/6/6 5/5/5 4/4/4
f 6/6/6 4/4/4 7/7/7
f 6/6/6 7/7/7 8/8/8
f 11/11/11 10/10/10 9/9/9
f 12/12/12 10/10/10 11/11/11
f 13/13/13 12/12/12 11/11/11
f 14/14/14 12/12/12 13/13/13
f 15/15/15 14/14/14 13/13/13
f 14/14/14 15/15/15 16/16/16
f 17/17/17 16/16/16 15/15/15
f 16/16/16 17/17/17 18/18/18
f 18/18/18 17/17/17 19/19/19
f 22/22/22 21/21/21 20/20/20
f 22/22/22 20/20/20 23/23/23
f 23/23/23 24/24/24 22/22/22
f 24/24/24 23/23/23 25/25/25
f 26/26/26 25/25/25 23/23/23
f 28/28/28 25/25/25 27/27/27
f 29/29/29 28/28/28 27/27/27
f 29/29/29 27/27/27 30/30/30
f 33/33/33 32/32/32 31/31/31
f 35/35/35 34/34/34 31/31/31
f 31/31/31 36/36/36 33/33/33
f 36/36/36 31/31/31 34/34/34
f 36/36/36 37/37/37 33/33/33
f 39/39/39 38/38/38 34/34/34
f 38/38/38 36/36/36 34/34/34
f 37/37/37 36/36/36 40/40/40
f 40/40/40 36/36/36 38/38/38
f 41/41/41 37/37/37 40/40/40
f 38/38/38 42/42/42 40/40/40
f 42/42/42 43/43/43 40/40/40
f 38/38/38 44/44/44 42/42/42
f 47/47/47 46/46/46 45/45/45
f 48/48/48 46/46/46 47/47/47
f 47/47/47 49/49/49 48/48/48
f 50/50/50 46/46/46 48/48/48
f 48/48/48 49/49/49 51/51/51
f 52/52/52 46/46/46 50/50/50
f 52/52/52 53/53/53 46/46/46
f 54/54/54 53/53/53 52/52/52
f 55/55/55 54/54/54 52/52/52
f 56/56/56 55/55/55 52/52/52
f 50/50/50 56/56/56 52/52/52
f 57/57/57 50/50/50 48/48/48
f 57/57/57 48/48/48 51/51/51
f 57/57/57 58/58/58 50/50/50
f 51/51/51 59/59/59 57/57/57
f 60/60/60 56/56/56 50/50/50
f 58/58/58 60/60/60 50/50/50
f 60/60/60 61/61/61 56/56/56
f 62/62/62 61/61/61 60/60/60
f 63/63/63 59/59/59 51/51/51
f 60/60/60 64/64/64 62/62/62
f 58/58/58 64/64/64 60/60/60
f 63/63/63 64/64/64 58/58/58
f 64/64/64 65/65/65 62/62/62
f 63/63/63 66/66/66 64/64/64
f 66/66/66 65/65/65 64/64/64
f 63/63/63 51/51/51 66/66/66
f 66/66/66 67/67/67 65/65/65
f 67/67/67 68/68/68 65/65/65
f 67/67/67 69/69/69 68/68/68
f 70/70/70 69/69/69 67/67/67
f 49/49/49 70/70/70 67/67/67
f 67/67/67 51/51/51 49/49/49
f 66/66/66 51/51/51 71/71/71
f 66/66/66 71/71/71 67/67/67
f 67/67/67 71/71/71 51/51/51
