mtllib SM_SmallTable_01_LOD4.mtl
g SM_SmallTable_01_LOD4
#Vertices 116
#Indices 144
#Section 0 Offset 0 NumIndices 144 MaterialIndex 0 MI_SmallTable_01
v -0.278871 0.393223 0.313006
v -0.274573 -0.074989 0.481883
v -0.247634 0.395224 0.466004
v -0.274573 -0.074989 0.481883
v -0.278871 0.393223 0.313006
v -0.354250 -0.024535 0.463158
v -0.354250 -0.024535 0.463158
v -0.278871 0.393223 0.313006
v -0.247634 0.395224 0.466004
v -0.247634 0.395224 0.466004
v -0.274573 -0.074989 0.481883
v -0.354250 -0.024535 0.463158
v 0.239327 0.390801 -0.285311
v 0.357711 -0.042496 -0.468634
v 0.275410 -0.032671 -0.447989
v 0.258376 0.401185 -0.464697
v 0.357711 -0.042496 -0.468634
v 0.239327 0.390801 -0.285311
v 0.258376 0.401185 -0.464697
v 0.275410 -0.032671 -0.447989
v 0.357711 -0.042496 -0.468634
v 0.275410 -0.032671 -0.447989
v 0.258376 0.401185 -0.464697
v 0.239327 0.390801 -0.285311
v 0.457001 0.394011 -0.064830
v 0.341037 0.388142 0.563906
v 0.469017 0.452624 -0.154893
v 0.469017 0.452624 -0.154893
v 0.341037 0.388142 0.563906
v 0.296970 0.467643 0.654499
v -0.443458 0.452745 0.173349
v -0.356731 0.392797 0.529180
v -0.432620 0.394900 0.200256
v -0.443458 0.452745 0.173349
v -0.432620 0.394900 0.200256
v -0.435272 0.394212 -0.203566
v -0.407584 0.451920 -0.401058
v -0.443458 0.452745 0.173349
v -0.435272 0.394212 -0.203566
v -0.273346 0.393176 -0.645395
v -0.407584 0.451920 -0.401058
v -0.435272 0.394212 -0.203566
v 0.268225 0.393470 -0.663236
v 0.457001 0.394011 -0.064830
v 0.469017 0.452624 -0.154893
v -0.344545 0.451569 0.514064
v -0.175200 0.453277 0.760503
v -0.356731 0.392797 0.529180
v -0.443458 0.452745 0.173349
v -0.344545 0.451569 0.514064
v -0.356731 0.392797 0.529180
v -0.273346 0.393176 -0.645395
v -0.106575 0.455290 -0.785490
v -0.407584 0.451920 -0.401058
v -0.273346 0.393176 -0.645395
v 0.002333 0.392827 -0.806997
v -0.106575 0.455290 -0.785490
v 0.002333 0.392827 -0.806997
v 0.180125 0.454522 -0.747174
v -0.106575 0.455290 -0.785490
v 0.180125 0.454522 -0.747174
v 0.002333 0.392827 -0.806997
v 0.268225 0.393470 -0.663236
v 0.268225 0.393470 -0.663236
v 0.469017 0.452624 -0.154893
v 0.180125 0.454522 -0.747174
v 0.357681 -0.042407 0.482797
v 0.239329 0.390797 0.299450
v 0.275414 -0.032670 0.462129
v 0.239329 0.390797 0.299450
v 0.357681 -0.042407 0.482797
v 0.258346 0.401170 0.478858
v 0.275414 -0.032670 0.462129
v 0.258346 0.401170 0.478858
v 0.357681 -0.042407 0.482797
v 0.258346 0.401170 0.478858
v 0.275414 -0.032670 0.462129
v 0.239329 0.390797 0.299450
v -0.274574 -0.074991 -0.467746
v -0.278871 0.393222 -0.298868
v -0.247635 0.395222 -0.451866
v -0.354250 -0.024537 -0.449020
v -0.278871 0.393222 -0.298868
v -0.274574 -0.074991 -0.467746
v -0.278871 0.393222 -0.298868
v -0.354250 -0.024537 -0.449020
v -0.247635 0.395222 -0.451866
v -0.274574 -0.074991 -0.467746
v -0.247635 0.395222 -0.451866
v -0.354250 -0.024537 -0.449020
v 0.296970 0.467643 0.654499
v -0.000687 0.384161 0.809816
v 0.000000 0.454747 -0.000000
v -0.000687 0.384161 0.809816
v -0.175200 0.453277 0.760503
v 0.469017 0.452624 -0.154893
v 0.296970 0.467643 0.654499
v 0.180125 0.454522 -0.747174
v -0.106575 0.455290 -0.785490
v 0.180125 0.454522 -0.747174
v -0.407584 0.451920 -0.401058
v -0.443458 0.452745 0.173349
v -0.344545 0.451569 0.514064
v -0.175200 0.453277 0.760503
v 0.296970 0.467643 0.654499
v 0.341037 0.388142 0.563906
v -0.000687 0.384161 0.809816
v 0.457001 0.394011 -0.064830
v 0.268225 0.393470 -0.663236
v 0.002333 0.392827 -0.806997
v 0.002333 0.392827 -0.806997
v -0.273346 0.393176 -0.645395
v -0.435272 0.394212 -0.203566
v -0.432620 0.394900 0.200256
v -0.356731 0.392797 0.529180
v -0.175200 0.453277 0.760503
vt 0.136719 0.976135
vt 0.141357 0.728516
vt 0.188843 0.952362
vt 0.134644 0.728760
vt 0.139282 0.975906
vt 0.098877 0.755615
vt 0.100647 0.755615
vt 0.132935 0.976562
vt 0.065674 0.966858
vt 0.064087 0.966949
vt 0.062103 0.733398
vt 0.099670 0.755493
vt 0.405273 0.983398
vt 0.347168 0.750000
vt 0.384766 0.757935
vt 0.332764 0.972672
vt 0.340332 0.751099
vt 0.407227 0.982758
vt 0.335938 0.974564
vt 0.309326 0.761353
vt 0.345459 0.749512
vt 0.308350 0.761353
vt 0.335449 0.974457
vt 0.259033 0.980515
vt 0.960938 0.467285
vt 0.962891 0.784668
vt 0.933594 0.422363
vt 0.929199 0.424805
vt 0.958496 0.784546
vt 0.921875 0.831421
vt 0.879395 0.414551
vt 0.903809 0.232910
vt 0.907227 0.399902
vt 0.877441 0.414062
vt 0.906250 0.400391
vt 0.907715 0.601318
vt 0.877930 0.698975
vt 0.876465 0.414551
vt 0.906250 0.600830
vt 0.915039 0.834473
vt 0.876953 0.699463
vt 0.906738 0.601318
vt 0.963867 0.156250
vt 0.961914 0.466309
vt 0.929199 0.425781
vt 0.875488 0.236816
vt 0.873047 0.092285
vt 0.905273 0.233398
vt 0.875488 0.414062
vt 0.875000 0.238281
vt 0.905273 0.232910
vt 0.909180 0.834595
vt 0.877930 0.939423
vt 0.875000 0.701904
vt 0.912598 0.848145
vt 0.903809 0.997812
vt 0.875000 0.944489
vt 0.955566 0.001953
vt 0.927246 0.094238
vt 0.923828 -0.045898
vt 0.928711 0.094238
vt 0.957031 0.004395
vt 0.960449 0.147461
vt 0.956055 0.155273
vt 0.922363 0.422363
vt 0.921387 0.098633
vt 0.507324 0.751099
vt 0.449463 0.984604
vt 0.469971 0.759155
vt 0.447510 0.983978
vt 0.514160 0.752441
vt 0.521973 0.973877
vt 0.545410 0.762573
vt 0.519043 0.975769
vt 0.509277 0.750732
vt 0.519531 0.975662
vt 0.546387 0.762573
vt 0.595703 0.981720
vt 0.783691 0.746338
vt 0.872559 0.977264
vt 0.815918 0.972794
vt 0.758789 0.765381
vt 0.718262 0.985733
vt 0.722656 0.738525
vt 0.724609 0.986382
vt 0.756836 0.765503
vt 0.791992 0.976685
vt 0.795410 0.743164
vt 0.793457 0.976761
vt 0.757812 0.765381
vt 0.366211 0.719727
vt 0.225098 0.800049
vt 0.215088 0.396973
vt 0.225830 0.800049
vt 0.138306 0.777832
vt 0.446533 0.313477
vt 0.371826 0.718506
vt 0.294434 0.022461
vt 0.151367 0.007324
vt 0.294434 0.022461
vt 0.006779 0.203125
vt -0.003214 0.489258
vt 0.050690 0.657471
vt 0.138184 0.777832
vt 0.793945 0.054688
vt 0.811523 0.110352
vt 0.637207 -0.005859
vt 0.877441 0.422852
vt 0.791992 0.723389
vt 0.661621 0.798462
vt 0.661621 0.798462
vt 0.521973 0.721924
vt 0.435303 0.504395
vt 0.430908 0.303223
vt 0.463623 0.137695
vt 0.548828 0.018555
vt1 0.251221 0.894104
vt1 0.255127 0.677734
vt1 0.296631 0.873413
vt1 0.249512 0.677734
vt1 0.253418 0.893921
vt1 0.218140 0.701416
vt1 0.219727 0.701416
vt1 0.247925 0.894470
vt1 0.189087 0.885986
vt1 0.187744 0.886047
vt1 0.186035 0.681885
vt1 0.218872 0.701416
vt1 0.595703 0.802124
vt1 0.544434 0.598145
vt1 0.577637 0.604980
vt1 0.531738 0.792847
vt1 0.538574 0.599121
vt1 0.597168 0.801636
vt1 0.534668 0.794434
vt1 0.511230 0.608154
vt1 0.542969 0.597656
vt1 0.510742 0.608154
vt1 0.534180 0.794312
vt1 0.467529 0.799683
vt1 0.045197 0.423340
vt1 0.046539 0.700684
vt1 0.021469 0.383789
vt1 0.017471 0.385742
vt1 0.042664 0.700684
vt1 0.010872 0.741455
vt1 0.082703 0.376465
vt1 0.104370 0.217773
vt1 0.106873 0.363770
vt1 0.080994 0.375977
vt1 0.106018 0.364258
vt1 0.107300 0.539795
vt1 0.081116 0.625244
vt1 0.080139 0.376953
vt1 0.106079 0.539551
vt1 0.113098 0.743896
vt1 0.080383 0.625732
vt1 0.106140 0.540039
vt1 0.048096 0.151367
vt1 0.046112 0.422363
vt1 0.017456 0.386719
vt1 0.079529 0.221191
vt1 0.077759 0.094727
vt1 0.105469 0.218262
vt1 0.079346 0.375977
vt1 0.079163 0.222656
vt1 0.105408 0.217773
vt1 0.107910 0.743896
vt1 0.080750 0.835449
vt1 0.078430 0.627686
vt1 0.111084 0.755859
vt1 0.102905 0.886597
vt1 0.078308 0.839966
vt1 0.041046 0.016113
vt1 0.016373 0.097168
vt1 0.013969 -0.025391
vt1 0.017761 0.096680
vt1 0.042145 0.018555
vt1 0.045074 0.143555
vt1 0.041199 0.150391
vt1 0.011665 0.383789
vt1 0.011169 0.100586
vt1 0.917480 0.636475
vt1 0.866699 0.840698
vt1 0.884766 0.643555
vt1 0.865234 0.840088
vt1 0.923828 0.637695
vt1 0.930176 0.831299
vt1 0.950684 0.646484
vt1 0.927734 0.832886
vt1 0.919434 0.636230
vt1 0.927734 0.832886
vt1 0.951660 0.646484
vt1 0.994629 0.838135
vt1 0.391602 0.708984
vt1 0.469727 0.910950
vt1 0.419922 0.907043
vt1 0.370117 0.725830
vt1 0.334717 0.918335
vt1 0.338623 0.702148
vt1 0.340332 0.918945
vt1 0.368408 0.725830
vt1 0.399170 0.910461
vt1 0.402100 0.706299
vt1 0.400391 0.910522
vt1 0.369385 0.725830
vt1 0.869141 0.642578
vt1 0.746094 0.713135
vt1 0.736816 0.360840
vt1 0.746582 0.713135
vt1 0.669922 0.693848
vt1 0.938965 0.287598
vt1 0.874023 0.641602
vt1 0.805664 0.033203
vt1 0.680176 0.020020
vt1 0.805664 0.033203
vt1 0.554199 0.191406
vt1 0.545898 0.441895
vt1 0.593262 0.588623
vt1 0.669922 0.693848
vt1 0.454346 0.061035
vt1 0.469482 0.109863
vt1 0.317383 0.008301
vt1 0.527344 0.383301
vt1 0.452881 0.645996
vt1 0.339111 0.711914
vt1 0.339111 0.711914
vt1 0.217041 0.645020
vt1 0.140991 0.454590
vt1 0.137085 0.279297
vt1 0.165527 0.134277
vt1 0.239990 0.029785
vn -0.188976 -0.228347 -0.952756
vn 0.850394 -0.275591 -0.448819
vn 0.952756 -0.228346 -0.212598
vn 0.724409 -0.275591 -0.629921
vn -0.299213 -0.220473 -0.929134
vn -0.826772 -0.047244 -0.559055
vn -0.992126 0.094488 0.015748
vn -0.803150 -0.055118 -0.590551
vn -0.433071 0.228347 0.874016
vn 0.204724 0.141732 0.968504
vn 0.433071 0.102362 0.897638
vn -0.944882 0.165354 0.291339
vn -0.196850 -0.291338 0.937008
vn 0.858268 -0.031496 0.519685
vn -0.661417 -0.291338 0.692913
vn 0.913386 0.181102 -0.370079
vn 0.992126 0.078740 0.062992
vn 0.149606 -0.228346 0.960630
vn 0.251969 0.204724 -0.944882
vn -0.944882 -0.110236 -0.314961
vn 0.409449 0.220472 -0.881890
vn -0.976378 -0.212598 0.039370
vn -0.385827 0.118110 -0.913386
vn -0.763780 -0.283464 0.582677
vn 0.637795 -0.763779 -0.055118
vn 0.582677 -0.763779 0.267717
vn 0.929134 0.370079 -0.062992
vn 0.858268 0.511811 -0.023622
vn 0.661417 -0.692913 0.283465
vn 0.661417 0.685039 0.299212
vn -0.952756 0.283465 0.110236
vn -0.858268 -0.346457 0.377953
vn -0.897638 -0.433071 0.110236
vn -0.929134 0.354331 0.110236
vn -0.905512 -0.401575 0.125984
vn -0.889764 -0.433071 -0.125984
vn -0.921260 0.307087 -0.228346
vn -0.929134 0.362205 0.102362
vn -0.913386 -0.393701 -0.118110
vn -0.858268 -0.267717 -0.440945
vn -0.881890 0.393701 -0.267717
vn -0.456693 -0.889764 -0.015748
vn 0.716535 -0.535433 -0.448819
vn 0.913386 -0.409449 -0.023622
vn 0.921260 0.370079 -0.102362
vn -0.637795 0.724409 0.275590
vn -0.417323 0.755905 0.503937
vn -0.795276 -0.464567 0.393701
vn -0.921260 0.377953 0.094488
vn -0.826772 0.440945 0.362205
vn -0.866142 -0.338583 0.377953
vn -0.700787 -0.527559 -0.480315
vn -0.480315 0.606299 -0.637795
vn -0.645669 0.755905 -0.110236
vn -0.653543 -0.566929 -0.503937
vn -0.141732 -0.377953 -0.913386
vn -0.275591 0.748031 -0.606299
vn 0.047244 -0.433071 -0.897638
vn 0.488189 0.692913 -0.527559
vn -0.212598 0.740157 -0.637795
vn 0.464567 0.685039 -0.566929
vn 0.133858 -0.464567 -0.874016
vn 0.685039 -0.511811 -0.527559
vn 0.732283 -0.464567 -0.503937
vn 0.748031 0.661417 -0.062992
vn 0.299213 0.881890 -0.362205
vn 0.858268 -0.031496 -0.519685
vn -0.196850 -0.291339 -0.937008
vn -0.661417 -0.291339 -0.692913
vn 0.149606 -0.228347 -0.960630
vn 0.992126 0.078740 -0.062992
vn 0.913386 0.181102 0.370079
vn -0.944882 -0.110236 0.314961
vn 0.251969 0.204724 0.944882
vn 0.409449 0.220473 0.881890
vn -0.385827 0.118110 0.913386
vn -0.976378 -0.212598 -0.039370
vn -0.763780 -0.283465 -0.582677
vn 0.850394 -0.275590 0.448819
vn -0.188976 -0.228346 0.952756
vn 0.952756 -0.228346 0.212598
vn -0.826772 -0.047244 0.559055
vn -0.299213 -0.220472 0.929134
vn 0.724409 -0.275590 0.629921
vn -0.803150 -0.055118 0.590551
vn -0.992126 0.094488 -0.015748
vn -0.433071 0.228346 -0.874016
vn 0.433071 0.102362 -0.897638
vn 0.204724 0.141732 -0.968504
vn -0.944882 0.165354 -0.291339
vn 0.023622 1.000000 0.007874
vn 0.000000 1.000000 0.031496
vn 0.000000 1.000000 -0.000000
vn 0.000000 1.000000 0.031496
vn -0.023622 1.000000 0.031496
vn 0.062992 1.000000 -0.007874
vn 0.007874 1.000000 0.015748
vn 0.000000 1.000000 -0.007874
vn -0.007874 1.000000 -0.007874
vn 0.007874 1.000000 -0.015748
vn -0.039370 1.000000 -0.007874
vn -0.055118 1.000000 0.007874
vn -0.047244 1.000000 0.023622
vn -0.007874 1.000000 0.015748
vn 0.039370 -1.000000 0.031496
vn 0.039370 -1.000000 0.023622
vn 0.000000 -1.000000 0.031496
vn 0.055118 -1.000000 0.000000
vn 0.031496 -1.000000 -0.023622
vn 0.000000 -1.000000 -0.031496
vn 0.000000 -1.000000 -0.031496
vn -0.031496 -1.000000 -0.023622
vn -0.055118 -1.000000 -0.007874
vn -0.055118 -1.000000 0.007874
vn -0.047244 -1.000000 0.015748
vn -0.023622 -1.000000 0.031496
tan -0.318991 -0.895716 0.277947 1.000000
tan 0.352471 -0.309318 0.857772 1.000000
tan 0.074338 -0.463451 0.830926 1.000000
tan 0.501581 -0.388369 0.746729 1.000000
tan -0.307273 -0.877922 0.307273 1.000000
tan -0.509145 -0.250542 0.774134 1.000000
tan -0.091388 -0.984314 0.148428 1.000000
tan -0.124186 -0.769855 0.240747 1.000000
tan 0.365677 -0.420175 0.290967 1.000000
tan -0.264679 -0.933598 0.192572 1.000000
tan -0.354827 -0.843759 0.267407 1.000000
tan -0.039928 -0.877364 0.368467 1.000000
tan -0.265609 -0.900118 -0.335669 1.000000
tan 0.497985 -0.177010 -0.833158 1.000000
tan -0.445099 -0.534441 -0.649575 1.000000
tan 0.283279 -0.884804 0.266167 1.000000
tan 0.087420 -0.976502 -0.156240 1.000000
tan 0.775126 -0.572509 -0.256804 1.000000
tan -0.093496 -0.941410 -0.228904 1.000000
tan 0.332941 -0.260401 -0.907682 1.000000
tan -0.496497 -0.735569 -0.414409 1.000000
tan 0.213838 -0.976378 0.030752 1.000000
tan 0.910596 -0.016306 -0.386757 1.000000
tan 0.546097 -0.655527 0.396925 1.000000
tan -0.108252 -0.020088 -0.974270 1.000000
tan 0.778536 0.574245 -0.056172 1.000000
tan 0.224936 -0.671585 -0.627751 1.000000
tan 0.362825 -0.635439 -0.585219 1.000000
tan 0.735074 0.582553 -0.291153 1.000000
tan -0.745551 0.610329 0.250728 1.000000
tan 0.133920 0.082522 0.945254 1.000000
tan 0.415897 -0.101370 0.851510 1.000000
tan 0.180110 -0.148428 0.883502 1.000000
tan 0.093496 -0.043896 0.929134 1.000000
tan 0.141794 -0.035650 0.905512 1.000000
tan -0.153264 0.056048 0.889764 1.000000
tan -0.255565 -0.087048 0.914006 1.000000
tan 0.102362 0.000000 0.929134 1.000000
tan -0.121210 0.007192 0.913386 1.000000
tan -0.385517 -0.141546 0.836320 1.000000
tan -0.368777 -0.245768 0.853370 1.000000
tan -0.834088 0.422469 0.319053 1.000000
tan -0.543617 -0.137516 -0.703825 1.000000
tan -0.135532 -0.251721 -0.877426 1.000000
tan -0.148180 0.116064 -0.914006 1.000000
tan 0.754169 0.526815 0.360593 1.000000
tan 0.511873 -0.115444 0.597061 1.000000
tan 0.526195 -0.228966 0.792733 1.000000
tan 0.189720 0.239383 0.892244 1.000000
tan 0.429413 0.133858 0.817224 1.000000
tan 0.433319 -0.156860 0.852502 1.000000
tan -0.687519 0.410999 0.551677 1.000000
tan -0.526505 0.265175 0.648583 1.000000
tan -0.760370 -0.639717 0.066960 1.000000
tan -0.562465 -0.061380 0.798499 1.000000
tan -0.783930 -0.474673 0.318061 1.000000
tan -0.314837 0.499101 0.758881 1.000000
tan -0.755782 0.500341 -0.281171 1.000000
tan -0.489863 -0.228595 -0.753549 1.000000
tan 0.138818 0.634447 0.689999 1.000000
tan -0.325129 -0.424329 -0.779155 1.000000
tan -0.671213 0.556389 -0.398537 1.000000
tan -0.567115 0.054932 -0.789695 1.000000
tan -0.676049 -0.458801 -0.559427 1.000000
tan 0.660177 -0.733337 0.139562 1.000000
tan -0.719325 0.036828 -0.504557 1.000000
tan 0.497985 -0.177010 0.833158 1.000000
tan -0.265609 -0.900118 0.335669 1.000000
tan -0.445099 -0.534441 0.649575 1.000000
tan 0.775126 -0.572509 0.256805 1.000000
tan 0.087420 -0.976502 0.156240 1.000000
tan 0.283279 -0.884804 -0.266166 1.000000
tan 0.332941 -0.260400 0.907682 1.000000
tan -0.093496 -0.941410 0.228905 1.000000
tan -0.496497 -0.735569 0.414409 1.000000
tan 0.910596 -0.016306 0.386757 1.000000
tan 0.213838 -0.976378 -0.030752 1.000000
tan 0.546097 -0.655527 -0.396925 1.000000
tan -0.509393 -0.565255 0.618079 1.000000
tan -0.054622 -0.957220 -0.240250 1.000000
tan -0.304793 -0.816045 0.489429 1.000000
tan -0.509145 -0.250543 -0.774133 1.000000
tan -0.307273 -0.877922 -0.307272 1.000000
tan 0.501581 -0.388369 -0.746729 1.000000
tan -0.124186 -0.769855 -0.240746 1.000000
tan -0.091388 -0.984314 -0.148428 1.000000
tan 0.365677 -0.420175 -0.290967 1.000000
tan -0.354827 -0.843760 -0.267406 1.000000
tan -0.264679 -0.933598 -0.192572 1.000000
tan -0.039928 -0.877364 -0.368467 1.000000
tan 0.023622 0.007316 -1.000000 1.000000
tan 0.023622 0.031496 -1.000000 1.000000
tan 0.023622 -0.000000 -1.000000 1.000000
tan 0.023622 0.031496 -1.000000 1.000000
tan 0.031496 0.032240 -1.000000 1.000000
tan 0.031496 -0.009858 -1.000000 1.000000
tan 0.023622 0.015562 -1.000000 1.000000
tan 0.023622 -0.007874 -1.000000 1.000000
tan 0.023622 -0.007688 -1.000000 1.000000
tan 0.031496 -0.015996 -1.000000 1.000000
tan 0.023622 -0.006944 -1.000000 1.000000
tan 0.031496 0.009610 -1.000000 1.000000
tan 0.031496 0.025110 -1.000000 1.000000
tan 0.031496 0.015996 -1.000000 1.000000
tan 0.031496 0.032736 1.000000 1.000000
tan 0.031496 0.024862 1.000000 1.000000
tan 0.031496 0.031496 1.000000 1.000000
tan 0.031496 0.001736 1.000000 1.000000
tan 0.023622 -0.022878 1.000000 1.000000
tan 0.031496 -0.031496 1.000000 1.000000
tan 0.031496 -0.031496 1.000000 1.000000
tan 0.031496 -0.024614 1.000000 1.000000
tan 0.031496 -0.009610 1.000000 1.000000
tan 0.031496 0.006138 1.000000 1.000000
tan 0.031496 0.014260 1.000000 1.000000
tan 0.023622 0.030938 1.000000 1.000000
f 3/3/3 2/2/2 1/1/1
f 6/6/6 5/5/5 4/4/4
f 9/9/9 8/8/8 7/7/7
f 12/12/12 11/11/11 10/10/10
f 15/15/15 14/14/14 13/13/13
f 18/18/18 17/17/17 16/16/16
f 21/21/21 20/20/20 19/19/19
f 24/24/24 23/23/23 22/22/22
f 27/27/27 26/26/26 25/25/25
f 30/30/30 29/29/29 28/28/28
f 33/33/33 32/32/32 31/31/31
f 36/36/36 35/35/35 34/34/34
f 39/39/39 38/38/38 37/37/37
f 42/42/42 41/41/41 40/40/40
f 45/45/45 44/44/44 43/43/43
f 48/48/48 47/47/47 46/46/46
f 51/51/51 50/50/50 49/49/49
f 54/54/54 53/53/53 52/52/52
f 57/57/57 56/56/56 55/55/55
f 60/60/60 59/59/59 58/58/58
f 63/63/63 62/62/62 61/61/61
f 66/66/66 65/65/65 64/64/64
f 69/69/69 68/68/68 67/67/67
f 72/72/72 71/71/71 70/70/70
f 75/75/75 74/74/74 73/73/73
f 78/78/78 77/77/77 76/76/76
f 81/81/81 80/80/80 79/79/79
f 84/84/84 83/83/83 82/82/82
f 87/87/87 86/86/86 85/85/85
f 90/90/90 89/89/89 88/88/88
f 93/93/93 92/92/92 91/91/91
f 93/93/93 95/95/95 94/94/94
f 93/93/93 97/97/97 96/96/96
f 93/93/93 96/96/96 98/98/98
f 93/93/93 100/100/100 99/99/99
f 93/93/93 99/99/99 101/101/101
f 93/93/93 101/101/101 102/102/102
f 93/93/93 102/102/102 103/103/103
f 93/93/93 103/103/103 104/104/104
f 107/107/107 106/106/106 105/105/105
f 107/107/107 108/108/108 106/106/106
f 107/107/107 109/109/109 108/108/108
f 107/107/107 110/110/110 109/109/109
f 107/107/107 112/112/112 111/111/111
f 107/107/107 113/113/113 112/112/112
f 107/107/107 114/114/114 113/113/113
f 107/107/107 115/115/115 114/114/114
f 107/107/107 116/116/116 115/115/115
