mtllib SM_Sponge_01_LOD3.mtl
g SM_Sponge_01_LOD3
#Vertices 116
#Indices 168
#Section 0 Offset 0 NumIndices 168 MaterialIndex 0 MI_Sponge
v 0.044717 -0.005565 0.039732
v 0.039714 0.023182 0.041419
v 0.058371 0.020127 0.038825
v -0.044736 -0.005533 0.039766
v -0.058365 0.020126 0.038824
v -0.039713 0.023181 0.041420
v -0.055234 -0.003971 -0.030659
v -0.044736 -0.005533 0.039766
v -0.039576 -0.001713 -0.030548
v 0.039576 -0.001713 -0.030548
v 0.044717 -0.005565 0.039732
v 0.055176 -0.004030 -0.030609
v 0.055176 -0.004030 -0.030609
v 0.058371 0.020127 0.038825
v 0.059593 0.021691 -0.031477
v 0.044717 -0.005565 0.039732
v -0.059588 0.021692 -0.031476
v -0.058365 0.020126 0.038824
v -0.055234 -0.003971 -0.030659
v -0.044736 -0.005533 0.039766
v 0.025416 0.023194 -0.036224
v 0.007631 0.023455 0.033470
v 0.007456 0.023098 -0.041495
v 0.024809 0.022507 0.037879
v -0.025413 0.023218 -0.036200
v -0.007339 -0.001714 -0.038426
v -0.007690 0.022734 -0.041440
v -0.024940 -0.002164 -0.032759
v -0.007690 0.022734 -0.041440
v -0.007260 0.023652 0.033560
v -0.025413 0.023218 -0.036200
v -0.024813 0.022513 0.037825
v 0.007528 -0.001714 0.030547
v 0.024809 0.022507 0.037879
v 0.025154 -0.001690 0.034785
v 0.007631 0.023455 0.033470
v -0.007531 -0.001711 0.030549
v -0.025155 -0.001691 0.034783
v -0.024813 0.022513 0.037825
v -0.007260 0.023652 0.033560
v 0.007456 0.023098 -0.041495
v 0.007350 -0.001716 -0.038422
v 0.025416 0.023194 -0.036224
v 0.024939 -0.002166 -0.032753
v -0.024940 -0.002164 -0.032759
v -0.007531 -0.001711 0.030549
v -0.007339 -0.001714 -0.038426
v -0.025155 -0.001691 0.034783
v 0.007350 -0.001716 -0.038422
v 0.007528 -0.001714 0.030547
v 0.024939 -0.002166 -0.032753
v 0.025154 -0.001690 0.034785
v 0.007456 0.023098 -0.041495
v -0.007260 0.023652 0.033560
v -0.007690 0.022734 -0.041440
v 0.007631 0.023455 0.033470
v 0.007528 -0.001714 0.030547
v -0.007260 0.023652 0.033560
v 0.007631 0.023455 0.033470
v -0.007531 -0.001711 0.030549
v 0.007456 0.023098 -0.041495
v -0.007339 -0.001714 -0.038426
v 0.007350 -0.001716 -0.038422
v -0.007690 0.022734 -0.041440
v -0.007339 -0.001714 -0.038426
v 0.007528 -0.001714 0.030547
v 0.007350 -0.001716 -0.038422
v -0.007531 -0.001711 0.030549
v -0.039576 -0.001713 -0.030548
v -0.025413 0.023218 -0.036200
v -0.039773 0.022853 -0.033675
v -0.024940 -0.002164 -0.032759
v -0.044736 -0.005533 0.039766
v -0.024813 0.022513 0.037825
v -0.025155 -0.001691 0.034783
v -0.039713 0.023181 0.041420
v 0.025154 -0.001690 0.034785
v 0.024809 0.022507 0.037879
v 0.044717 -0.005565 0.039732
v 0.039714 0.023182 0.041419
v 0.039772 0.022853 -0.033675
v 0.024809 0.022507 0.037879
v 0.025416 0.023194 -0.036224
v 0.039714 0.023182 0.041419
v -0.025413 0.023218 -0.036200
v -0.024813 0.022513 0.037825
v -0.039773 0.022853 -0.033675
v -0.039713 0.023181 0.041420
v 0.025416 0.023194 -0.036224
v 0.039576 -0.001713 -0.030548
v 0.039772 0.022853 -0.033675
v 0.024939 -0.002166 -0.032753
v -0.039576 -0.001713 -0.030548
v -0.025155 -0.001691 0.034783
v -0.024940 -0.002164 -0.032759
v -0.044736 -0.005533 0.039766
v 0.024939 -0.002166 -0.032753
v 0.025154 -0.001690 0.034785
v 0.039576 -0.001713 -0.030548
v 0.044717 -0.005565 0.039732
v -0.059588 0.021692 -0.031476
v -0.039773 0.022853 -0.033675
v -0.039713 0.023181 0.041420
v -0.058365 0.020126 0.038824
v 0.059593 0.021691 -0.031477
v 0.039714 0.023182 0.041419
v 0.039772 0.022853 -0.033675
v 0.058371 0.020127 0.038825
v 0.039772 0.022853 -0.033675
v 0.055176 -0.004030 -0.030609
v 0.059593 0.021691 -0.031477
v 0.039576 -0.001713 -0.030548
v -0.039773 0.022853 -0.033675
v -0.055234 -0.003971 -0.030659
v -0.039576 -0.001713 -0.030548
v -0.059588 0.021692 -0.031476
vt 0.433350 0.080566
vt 0.432617 -0.017578
vt 0.503418 0.005859
vt 0.118225 0.082520
vt 0.047760 0.008789
vt 0.118652 -0.015625
vt 0.084167 0.312012
vt 0.112549 0.064941
vt 0.139282 0.314453
vt 0.416016 0.312988
vt 0.439453 0.063477
vt 0.471680 0.309570
vt 0.469971 0.310059
vt 0.560059 0.068359
vt 0.563965 0.313965
vt 0.462158 0.063965
vt -0.007397 0.318359
vt -0.009003 0.072266
vt 0.085754 0.312988
vt 0.089172 0.066406
vt 0.316406 0.437500
vt 0.254395 0.702637
vt 0.252686 0.420898
vt 0.317383 0.713623
vt 0.177856 0.414551
vt 0.252686 0.335938
vt 0.246582 0.420898
vt 0.190674 0.324219
vt 0.198242 0.420898
vt 0.198730 0.703125
vt 0.135498 0.437500
vt 0.134155 0.713623
vt 0.303711 0.083008
vt 0.370117 -0.013672
vt 0.369141 0.076172
vt 0.307373 -0.011719
vt 0.248535 0.083496
vt 0.183105 0.077148
vt 0.181030 -0.012695
vt 0.245239 -0.012695
vt 0.309082 0.423828
vt 0.302734 0.334961
vt 0.378174 0.413086
vt 0.364746 0.323730
vt 0.190796 0.319824
vt 0.248535 0.082520
vt 0.252441 0.336914
vt 0.183838 0.073242
vt 0.302979 0.336426
vt 0.303711 0.082031
vt 0.364502 0.319336
vt 0.368408 0.072266
vt 0.251953 0.420898
vt 0.199097 0.703125
vt 0.198853 0.420898
vt 0.253906 0.702637
vt 0.303711 0.083008
vt 0.250000 -0.012695
vt 0.303467 -0.010742
vt 0.248413 0.083496
vt 0.306396 0.424316
vt 0.252441 0.335449
vt 0.302734 0.334961
vt 0.247070 0.420898
vt 0.252441 0.336914
vt 0.303711 0.082031
vt 0.302979 0.336426
vt 0.248535 0.082520
vt 0.139282 0.313477
vt 0.171631 0.414551
vt 0.121033 0.403809
vt 0.191528 0.320801
vt 0.114014 0.082031
vt 0.177490 -0.011719
vt 0.183472 0.073730
vt 0.120789 -0.015625
vt 0.368896 0.072266
vt 0.373535 -0.012695
vt 0.438232 0.080566
vt 0.430176 -0.018555
vt 0.365723 0.448730
vt 0.317139 0.709473
vt 0.316650 0.436035
vt 0.370117 0.716309
vt 0.135132 0.436035
vt 0.134399 0.709229
vt 0.086182 0.448730
vt 0.081604 0.716309
vt 0.384521 0.413574
vt 0.416016 0.312012
vt 0.435303 0.401367
vt 0.363770 0.319824
vt 0.139282 0.314453
vt 0.183472 0.076660
vt 0.191162 0.321289
vt 0.113953 0.065918
vt 0.364258 0.320312
vt 0.368652 0.075195
vt 0.416016 0.312988
vt 0.437988 0.064453
vt 0.014160 0.467285
vt 0.085022 0.449219
vt 0.081055 0.715332
vt 0.019592 0.696777
vt 0.437744 0.467285
vt 0.370605 0.715576
vt 0.366699 0.449219
vt 0.431885 0.696777
vt 0.440918 0.398926
vt 0.468262 0.298340
vt 0.513672 0.372559
vt 0.416016 0.312012
vt 0.115234 0.401367
vt 0.087463 0.300781
vt 0.139282 0.313477
vt 0.042297 0.375000
vt1 0.585449 0.560791
vt1 0.583984 0.429199
vt1 0.679199 0.461426
vt1 0.165527 0.562988
vt1 0.071655 0.464844
vt1 0.166016 0.433105
vt1 0.120239 0.868408
vt1 0.157959 0.539795
vt1 0.193604 0.871582
vt1 0.562012 0.869995
vt1 0.593262 0.537598
vt1 0.636230 0.864990
vt1 0.633789 0.865967
vt1 0.753906 0.544189
vt1 0.759277 0.870972
vt1 0.623535 0.538574
vt1 -0.001790 0.876770
vt1 -0.003933 0.549805
vt1 0.122314 0.869629
vt1 0.126831 0.541504
vt1 0.430908 0.043457
vt1 0.347900 0.396484
vt1 0.345703 0.020996
vt1 0.432373 0.411133
vt1 0.244995 1.004799
vt1 0.344727 0.900085
vt1 0.336426 1.013206
vt1 0.261963 0.884583
vt1 0.272949 0.020996
vt1 0.273682 0.397461
vt1 0.189209 0.042969
vt1 0.187378 0.411133
vt1 0.412598 0.563965
vt1 0.500977 0.434570
vt1 0.499756 0.554443
vt1 0.417480 0.437500
vt1 0.339111 0.564697
vt1 0.251953 0.555664
vt1 0.249268 0.435547
vt1 0.334717 0.436523
vt1 0.419922 1.017288
vt1 0.411377 0.899231
vt1 0.511719 1.003113
vt1 0.494141 0.884155
vt1 0.262207 0.878723
vt1 0.339111 0.563477
vt1 0.344482 0.901489
vt1 0.252930 0.550781
vt1 0.411621 0.900818
vt1 0.412598 0.562500
vt1 0.493652 0.877991
vt1 0.498779 0.549561
vt1 0.344727 0.020996
vt1 0.274170 0.397461
vt1 0.273926 0.020996
vt1 0.347656 0.396484
vt1 0.412842 0.563965
vt1 0.341064 0.436523
vt1 0.412354 0.438477
vt1 0.338867 0.564697
vt1 0.416260 1.017654
vt1 0.344482 0.899963
vt1 0.411377 0.899109
vt1 0.337158 1.013367
vt1 0.344238 0.901489
vt1 0.412598 0.562500
vt1 0.411621 0.900818
vt1 0.339111 0.563477
vt1 0.193604 0.870361
vt1 0.236694 1.005119
vt1 0.169189 0.990837
vt1 0.263184 0.880066
vt1 0.159912 0.562744
vt1 0.244507 0.437988
vt1 0.252441 0.551758
vt1 0.168945 0.432129
vt1 0.499268 0.549561
vt1 0.505859 0.437012
vt1 0.591797 0.560547
vt1 0.581055 0.428711
vt1 0.496826 0.058105
vt1 0.431885 0.405273
vt1 0.431396 0.041016
vt1 0.502441 0.414551
vt1 0.188721 0.041016
vt1 0.187744 0.405273
vt1 0.123291 0.057617
vt1 0.117126 0.414551
vt1 0.520508 1.003742
vt1 0.562012 0.868774
vt1 0.587891 0.987694
vt1 0.492676 0.878540
vt1 0.193604 0.871582
vt1 0.252441 0.555176
vt1 0.262695 0.881042
vt1 0.159790 0.541260
vt1 0.493164 0.879639
vt1 0.499268 0.553223
vt1 0.562012 0.869995
vt1 0.591309 0.539307
vt1 0.026993 0.083008
vt1 0.121765 0.058594
vt1 0.116455 0.413574
vt1 0.034241 0.388672
vt1 0.593262 0.083008
vt1 0.502930 0.413574
vt1 0.498291 0.058594
vt1 0.585449 0.388672
vt1 0.595215 0.983902
vt1 0.631836 0.850586
vt1 0.692383 0.949158
vt1 0.562012 0.868774
vt1 0.161499 0.987076
vt1 0.124573 0.853760
vt1 0.193726 0.870361
vt1 0.064392 0.952332
vn -0.023622 -0.039370 1.000000
vn -0.086614 0.047244 0.992126
vn 0.157480 0.023622 0.984252
vn 0.023622 -0.039370 1.000000
vn -0.157480 0.023622 0.984252
vn 0.086614 0.047244 0.992126
vn 0.000000 -1.000000 -0.007874
vn 0.000000 -1.000000 0.007874
vn 0.000000 -1.000000 -0.007874
vn 0.000000 -1.000000 -0.007874
vn 0.000000 -1.000000 0.007874
vn 0.000000 -1.000000 -0.007874
vn 1.000000 -0.039370 -0.023622
vn 1.000000 0.039370 0.023622
vn 1.000000 0.047244 -0.023622
vn 1.000000 -0.047244 0.023622
vn -1.000000 0.047244 -0.023622
vn -1.000000 0.039370 0.023622
vn -1.000000 -0.031496 -0.023622
vn -1.000000 -0.047244 0.023622
vn 0.007874 1.000000 -0.023622
vn 0.000000 1.000000 0.015748
vn 0.000000 1.000000 -0.023622
vn -0.007874 1.000000 0.023622
vn -0.322835 0.039370 -0.944882
vn -0.086614 -0.031496 -0.992126
vn -0.094488 0.039370 -0.992126
vn -0.322835 -0.031496 -0.944882
vn 0.000000 1.000000 -0.023622
vn 0.000000 1.000000 0.015748
vn -0.007874 1.000000 -0.023622
vn 0.007874 1.000000 0.023622
vn -0.086614 -0.031496 0.992126
vn -0.314961 0.023622 0.944882
vn -0.314961 -0.031496 0.944882
vn -0.110236 0.031496 0.992126
vn 0.086614 -0.031496 0.992126
vn 0.314961 -0.031496 0.944882
vn 0.314961 0.023622 0.944882
vn 0.102362 0.031496 0.992126
vn 0.086614 0.039370 -0.992126
vn 0.086614 -0.031496 -0.992126
vn 0.322835 0.039370 -0.944882
vn 0.322835 -0.031496 -0.944882
vn 0.000000 -1.000000 -0.007874
vn 0.000000 -1.000000 0.007874
vn 0.000000 -1.000000 -0.007874
vn 0.000000 -1.000000 0.007874
vn 0.000000 -1.000000 -0.007874
vn 0.000000 -1.000000 0.007874
vn 0.000000 -1.000000 -0.007874
vn 0.000000 -1.000000 0.007874
vn 0.000000 1.000000 -0.023622
vn 0.000000 1.000000 0.015748
vn 0.000000 1.000000 -0.023622
vn 0.000000 1.000000 0.015748
vn -0.086614 -0.031496 0.992126
vn 0.086614 0.031496 0.992126
vn -0.094488 0.031496 0.992126
vn 0.086614 -0.031496 0.992126
vn 0.086614 0.039370 -0.992126
vn -0.086614 -0.031496 -0.992126
vn 0.086614 -0.031496 -0.992126
vn -0.086614 0.039370 -0.992126
vn 0.000000 -1.000000 -0.007874
vn 0.000000 -1.000000 0.007874
vn 0.000000 -1.000000 -0.007874
vn 0.000000 -1.000000 0.007874
vn -0.086614 -0.031496 -0.992126
vn -0.346457 0.039370 -0.937008
vn -0.110236 0.031496 -0.992126
vn -0.354331 -0.031496 -0.937008
vn 0.000000 -0.039370 1.000000
vn 0.330709 0.047244 0.944882
vn 0.346457 -0.023622 0.937008
vn 0.094488 0.047244 0.992126
vn -0.346457 -0.023622 0.937008
vn -0.330709 0.047244 0.944882
vn 0.000000 -0.039370 1.000000
vn -0.094488 0.047244 0.992126
vn 0.000000 1.000000 -0.015748
vn -0.007874 1.000000 0.023622
vn 0.007874 1.000000 -0.023622
vn 0.000000 1.000000 0.015748
vn -0.007874 1.000000 -0.023622
vn 0.007874 1.000000 0.023622
vn 0.000000 1.000000 -0.015748
vn 0.000000 1.000000 0.015748
vn 0.346457 0.039370 -0.937008
vn 0.086614 -0.031496 -0.992126
vn 0.110236 0.031496 -0.992126
vn 0.354331 -0.031496 -0.937008
vn 0.000000 -1.000000 -0.007874
vn 0.000000 -1.000000 0.007874
vn 0.000000 -1.000000 -0.007874
vn 0.000000 -1.000000 0.007874
vn 0.000000 -1.000000 -0.007874
vn 0.000000 -1.000000 0.007874
vn 0.000000 -1.000000 -0.007874
vn 0.000000 -1.000000 0.007874
vn -0.055118 1.000000 -0.007874
vn 0.000000 1.000000 -0.015748
vn 0.000000 1.000000 0.015748
vn -0.047244 1.000000 -0.000000
vn 0.055118 1.000000 -0.007874
vn 0.000000 1.000000 0.015748
vn 0.000000 1.000000 -0.015748
vn 0.047244 1.000000 -0.000000
vn 0.078740 0.031496 -1.000000
vn 0.086614 -0.031496 -0.992126
vn 0.086614 0.023622 -0.992126
vn 0.086614 -0.031496 -0.992126
vn -0.078740 0.031496 -1.000000
vn -0.086614 -0.031496 -0.992126
vn -0.086614 -0.031496 -0.992126
vn -0.086614 0.023622 -0.992126
tan -0.078740 1.000000 0.037510 1.000000
tan -0.171864 0.976502 -0.061504 1.000000
tan -0.279001 0.945502 0.021948 1.000000
tan 0.094488 0.992126 0.036828 1.000000
tan 0.271251 0.945502 0.020708 1.000000
tan 0.179676 0.976502 -0.062186 1.000000
tan 0.023622 -0.007874 1.000000 1.000000
tan 0.039370 0.007874 1.000000 1.000000
tan -0.062992 -0.007874 1.000000 1.000000
tan 0.007874 -0.007874 1.000000 1.000000
tan -0.039370 0.007874 1.000000 1.000000
tan 0.102362 -0.007812 0.992126 1.000000
tan 0.023312 -0.007874 1.000000 1.000000
tan -0.023312 -0.007874 1.000000 1.000000
tan 0.023994 -0.007874 1.000000 1.000000
tan -0.023994 -0.007874 1.000000 1.000000
tan -0.025110 -0.031496 1.000000 1.000000
tan 0.022692 -0.023622 1.000000 1.000000
tan -0.022878 -0.023622 1.000000 1.000000
tan 0.025110 -0.031496 1.000000 1.000000
tan 0.070866 -0.024180 -1.000000 1.000000
tan 0.062992 0.015748 -1.000000 1.000000
tan 0.039370 -0.023622 -1.000000 1.000000
tan 0.094488 0.024180 -0.992126 1.000000
tan -0.178560 -0.930002 0.022258 1.000000
tan -0.124992 -0.984314 0.042160 1.000000
tan -0.117180 -0.984314 -0.027900 1.000000
tan -0.193440 -0.922562 0.096844 1.000000
tan -0.039370 -0.023622 -1.000000 1.000000
tan -0.062992 0.015748 -1.000000 1.000000
tan -0.070866 -0.024180 -1.000000 1.000000
tan -0.094488 0.024180 -0.992126 1.000000
tan 0.085932 0.984314 0.038750 1.000000
tan 0.133920 0.937442 0.021204 1.000000
tan 0.133920 0.937442 0.075888 1.000000
tan 0.093744 0.984314 -0.020832 1.000000
tan -0.085932 0.984314 0.038750 1.000000
tan -0.111600 0.937442 0.068448 1.000000
tan -0.096720 0.937442 0.008804 1.000000
tan -0.085932 0.992126 -0.022630 1.000000
tan 0.156240 -0.976502 -0.025110 1.000000
tan 0.132804 -0.984314 0.042842 1.000000
tan 0.238080 -0.915122 0.043214 1.000000
tan 0.200880 -0.922562 0.099386 1.000000
tan 0.078740 -0.007874 1.000000 1.000000
tan 0.070866 0.007874 1.000000 1.000000
tan 0.055118 -0.007874 1.000000 1.000000
tan 0.102362 0.007812 0.992126 1.000000
tan -0.055118 -0.007874 1.000000 1.000000
tan -0.070866 0.007874 1.000000 1.000000
tan -0.078740 -0.007874 1.000000 1.000000
tan -0.094488 0.007812 0.992126 1.000000
tan 0.000000 -0.023622 -1.000000 1.000000
tan 0.000000 0.015748 -1.000000 1.000000
tan 0.000000 -0.023622 -1.000000 1.000000
tan 0.000000 0.015748 -1.000000 1.000000
tan 0.007812 0.992126 0.032178 1.000000
tan 0.007812 0.992126 -0.032178 1.000000
tan 0.000000 0.992126 -0.031496 1.000000
tan 0.007812 0.992126 0.030814 1.000000
tan -0.015624 -0.992126 -0.040734 1.000000
tan -0.007812 -0.992126 0.032178 1.000000
tan 0.015624 -0.992126 0.032860 1.000000
tan -0.023436 -0.992126 -0.037324 1.000000
tan 0.007874 -0.007874 1.000000 1.000000
tan 0.007874 0.007874 1.000000 1.000000
tan 0.007874 -0.007874 1.000000 1.000000
tan 0.007874 0.007874 1.000000 1.000000
tan -0.164052 -0.976502 0.045322 1.000000
tan -0.287743 -0.892740 0.068882 1.000000
tan -0.195300 -0.968690 -0.009052 1.000000
tan -0.250852 -0.900118 0.125116 1.000000
tan -0.031496 1.000000 0.039370 1.000000
tan -0.066960 0.944882 -0.023808 1.000000
tan -0.103292 0.929630 0.061628 1.000000
tan -0.031248 0.992126 -0.044268 1.000000
tan 0.095914 0.929630 0.058900 1.000000
tan 0.096720 0.937442 -0.013020 1.000000
tan 0.047244 1.000000 0.039370 1.000000
tan 0.078120 0.992126 -0.039804 1.000000
tan 0.031496 -0.015748 -1.000000 1.000000
tan 0.007874 0.023684 -1.000000 1.000000
tan -0.094488 -0.022692 -0.992126 1.000000
tan 0.133858 0.015624 -0.992126 1.000000
tan 0.094488 -0.022692 -0.992126 1.000000
tan -0.007874 0.023684 -1.000000 1.000000
tan -0.031496 -0.015748 -1.000000 1.000000
tan -0.141732 0.015624 -0.992126 1.000000
tan 0.287743 -0.892740 0.068882 1.000000
tan 0.195300 -0.976502 0.048050 1.000000
tan 0.242172 -0.960878 -0.003596 1.000000
tan 0.221340 -0.907496 0.114204 1.000000
tan 0.070866 -0.007874 1.000000 1.000000
tan 0.047244 0.007874 1.000000 1.000000
tan -0.007874 -0.007874 1.000000 1.000000
tan 0.149606 0.007812 0.992126 1.000000
tan 0.007874 -0.007874 1.000000 1.000000
tan -0.039370 0.007874 1.000000 1.000000
tan -0.062992 -0.007874 1.000000 1.000000
tan -0.149606 0.007812 0.992126 1.000000
tan 0.039370 -0.005704 -1.000000 1.000000
tan 0.047244 -0.015748 -1.000000 1.000000
tan -0.173228 0.015500 -0.984252 1.000000
tan 0.133858 0.006324 -0.992126 1.000000
tan -0.039370 -0.005704 -1.000000 1.000000
tan 0.173228 0.015500 -0.984252 1.000000
tan -0.047244 -0.015748 -1.000000 1.000000
tan -0.133858 0.006324 -0.992126 1.000000
tan 0.251969 -0.968504 -0.010664 1.000000
tan 0.218736 -0.968690 0.049848 1.000000
tan 0.421849 -0.898382 0.015438 1.000000
tan 0.093744 -0.984314 0.039432 1.000000
tan -0.244094 -0.968504 -0.011284 1.000000
tan -0.210924 -0.968690 0.049166 1.000000
tan -0.070308 -0.992126 0.037634 1.000000
tan -0.421849 -0.898382 0.015438 1.000000
f 3/3/3 2/2/2 1/1/1
f 6/6/6 5/5/5 4/4/4
f 9/9/9 8/8/8 7/7/7
f 12/12/12 11/11/11 10/10/10
f 15/15/15 14/14/14 13/13/13
f 16/16/16 13/13/13 14/14/14
f 19/19/19 18/18/18 17/17/17
f 20/20/20 18/18/18 19/19/19
f 23/23/23 22/22/22 21/21/21
f 24/24/24 21/21/21 22/22/22
f 27/27/27 26/26/26 25/25/25
f 28/28/28 25/25/25 26/26/26
f 31/31/31 30/30/30 29/29/29
f 32/32/32 30/30/30 31/31/31
f 35/35/35 34/34/34 33/33/33
f 36/36/36 33/33/33 34/34/34
f 39/39/39 38/38/38 37/37/37
f 40/40/40 39/39/39 37/37/37
f 43/43/43 42/42/42 41/41/41
f 44/44/44 42/42/42 43/43/43
f 47/47/47 46/46/46 45/45/45
f 48/48/48 45/45/45 46/46/46
f 51/51/51 50/50/50 49/49/49
f 52/52/52 50/50/50 51/51/51
f 55/55/55 54/54/54 53/53/53
f 56/56/56 53/53/53 54/54/54
f 59/59/59 58/58/58 57/57/57
f 60/60/60 57/57/57 58/58/58
f 63/63/63 62/62/62 61/61/61
f 64/64/64 61/61/61 62/62/62
f 67/67/67 66/66/66 65/65/65
f 68/68/68 65/65/65 66/66/66
f 71/71/71 70/70/70 69/69/69
f 72/72/72 69/69/69 70/70/70
f 75/75/75 74/74/74 73/73/73
f 76/76/76 73/73/73 74/74/74
f 79/79/79 78/78/78 77/77/77
f 80/80/80 78/78/78 79/79/79
f 83/83/83 82/82/82 81/81/81
f 84/84/84 81/81/81 82/82/82
f 87/87/87 86/86/86 85/85/85
f 88/88/88 86/86/86 87/87/87
f 91/91/91 90/90/90 89/89/89
f 92/92/92 89/89/89 90/90/90
f 95/95/95 94/94/94 93/93/93
f 96/96/96 93/93/93 94/94/94
f 99/99/99 98/98/98 97/97/97
f 100/100/100 98/98/98 99/99/99
f 103/103/103 102/102/102 101/101/101
f 104/104/104 103/103/103 101/101/101
f 107/107/107 106/106/106 105/105/105
f 108/108/108 105/105/105 106/106/106
f 111/111/111 110/110/110 109/109/109
f 112/112/112 109/109/109 110/110/110
f 115/115/115 114/114/114 113/113/113
f 116/116/116 113/113/113 114/114/114
