mtllib SM_SaucePan_Steel_Pot_02_LOD2.mtl
g SM_SaucePan_Steel_Pot_02_LOD2
#Vertices 103
#Indices 420
#Section 0 Offset 0 NumIndices 420 MaterialIndex 0 MI_SaucePan
v -0.011727 -0.001787 0.089262
v 0.058757 -0.000239 0.071415
v -0.073139 0.000042 0.051549
v 0.086062 0.000027 0.013641
v 0.078752 0.000021 -0.038223
v 0.025477 -0.000511 -0.089608
v -0.026469 -0.000000 -0.081463
v -0.063518 0.000070 -0.060015
v -0.085816 -0.000052 -0.013315
v 0.077750 0.007519 0.042334
v 0.042955 0.007428 0.078819
v 0.086374 0.007030 0.000000
v 0.003561 0.007280 0.088778
v -0.040233 0.007263 0.080855
v -0.086482 0.007158 0.028213
v -0.081945 0.007029 -0.026625
v -0.059609 0.007205 -0.066916
v -0.008627 0.007240 -0.090575
v 0.044087 0.007002 -0.077410
v 0.079386 0.007260 -0.039903
v -0.089810 0.003375 0.063201
v -0.073139 0.000042 0.051549
v -0.085816 -0.000052 -0.013315
v -0.011727 -0.001787 0.089262
v -0.104822 0.012810 -0.040850
v -0.063518 0.000070 -0.060015
v -0.031244 0.013096 0.106876
v -0.048654 0.013820 -0.099208
v -0.026469 -0.000000 -0.081463
v 0.025477 -0.000511 -0.089608
v -0.099057 0.013785 0.045242
v -0.111506 0.078364 0.016068
v -0.079482 0.077848 0.078693
v -0.100370 0.077488 -0.051204
v -0.021003 0.081468 0.112883
v -0.069021 0.080815 -0.089240
v -0.016900 0.082331 -0.111291
v 0.047560 0.012809 0.098972
v 0.048935 0.083702 0.103163
v 0.058757 -0.000239 0.071415
v 0.096452 0.083332 0.060595
v 0.114328 0.013131 0.007986
v 0.086062 0.000027 0.013641
v 0.111512 0.080336 0.000354
v 0.078752 0.000021 -0.038223
v 0.100281 0.078391 -0.048991
v 0.064559 0.016075 -0.098207
v 0.051591 0.081657 -0.101212
v -0.090999 0.080600 0.077784
v -0.079482 0.077848 0.078693
v -0.111506 0.078364 0.016068
v -0.021003 0.081468 0.112883
v -0.117360 0.082577 -0.018640
v -0.100370 0.077488 -0.051204
v -0.069021 0.080815 -0.089240
v -0.052358 0.085750 0.102016
v -0.103351 0.087711 0.050591
v -0.092479 0.086419 -0.065791
v -0.112703 0.086083 -0.017742
v -0.049377 0.085974 -0.105591
v -0.016900 0.082331 -0.111291
v -0.079956 0.086383 -0.072745
v -0.097415 0.086337 0.049775
v -0.107195 0.081814 -0.016727
v -0.049739 0.082302 0.096179
v -0.087258 0.016586 0.064447
v -0.102099 0.016928 -0.030474
v -0.000000 0.084976 0.106794
v 0.002234 0.086337 0.114562
v 0.048935 0.083702 0.103163
v 0.005182 0.016884 0.105620
v 0.049032 0.085503 0.095639
v 0.094157 0.088184 0.053747
v 0.096452 0.083332 0.060595
v 0.073808 0.015622 0.073832
v -0.040233 0.007263 0.080855
v 0.003561 0.007280 0.088778
v -0.086482 0.007158 0.028213
v 0.042955 0.007428 0.078819
v 0.077750 0.007519 0.042334
v -0.081945 0.007029 -0.026625
v -0.059609 0.007205 -0.066916
v 0.106322 0.016890 0.005381
v 0.086374 0.007030 0.000000
v 0.079386 0.007260 -0.039903
v -0.049754 0.016393 -0.092851
v -0.008627 0.007240 -0.090575
v -0.033002 0.084976 -0.101567
v 0.018822 0.016899 -0.102101
v 0.044087 0.007002 -0.077410
v 0.017197 0.085514 -0.108131
v 0.075434 0.016031 -0.073178
v 0.017397 0.085956 -0.114025
v 0.051591 0.081657 -0.101212
v 0.066997 0.086562 -0.091568
v 0.062772 0.084976 -0.086398
v 0.095920 0.084580 -0.048916
v 0.106794 0.084976 0.000000
v 0.099975 0.086075 -0.052283
v 0.115292 0.087274 -0.002063
v 0.111512 0.080336 0.000354
v 0.103968 0.082645 -0.057198
v 0.100281 0.078391 -0.048991
vt 0.979492 0.274414
vt 1.000000 0.293945
vt 0.951660 0.275879
vt 0.998535 0.318848
vt 0.986328 0.334961
vt 0.958496 0.342285
vt 0.942383 0.329590
vt 0.934082 0.315430
vt 0.935059 0.295410
vt 0.385254 0.964203
vt 0.380371 0.983078
vt 0.380371 0.948212
vt 0.368896 0.993862
vt 0.352539 0.999411
vt 0.327148 0.990280
vt 0.318359 0.970856
vt 0.318359 0.953003
vt 0.331055 0.935425
vt 0.351318 0.929993
vt 0.370361 0.936035
vt 0.726562 0.515869
vt 0.729980 0.522461
vt 0.714844 0.540771
vt 0.756348 0.521484
vt 0.702148 0.545898
vt 0.713379 0.559326
vt 0.754883 0.510254
vt 0.709961 0.575928
vt 0.721680 0.572510
vt 0.736328 0.584717
vt 0.719238 0.518066
vt 0.691895 0.513184
vt 0.725098 0.490234
vt 0.679688 0.549561
vt 0.766602 0.489258
vt 0.684570 0.577637
vt 0.705078 0.604492
vt 0.778320 0.527100
vt 0.798340 0.512939
vt 0.775879 0.539307
vt 0.810547 0.547363
vt 0.783203 0.570312
vt 0.773438 0.562500
vt 0.800781 0.582764
vt 0.762207 0.577637
vt 0.781738 0.603760
vt 0.747070 0.596680
vt 0.741211 0.617676
vt 0.719238 0.780884
vt 0.724609 0.782471
vt 0.688965 0.759888
vt 0.764160 0.780273
vt 0.681152 0.740723
vt 0.675293 0.720459
vt 0.682129 0.692871
vt 0.745117 0.780518
vt 0.707031 0.769897
vt 0.680664 0.711426
vt 0.684082 0.739990
vt 0.690430 0.680908
vt 0.701660 0.666016
vt 0.683105 0.705078
vt 0.708984 0.768799
vt 0.687500 0.739990
vt 0.745117 0.777100
vt 0.727051 0.753296
vt 0.705566 0.726807
vt 0.771973 0.769531
vt 0.774414 0.771606
vt 0.794922 0.754517
vt 0.762695 0.750000
vt 0.791992 0.751709
vt 0.803711 0.716553
vt 0.807129 0.720703
vt 0.778320 0.728516
vt 0.743652 0.749268
vt 0.758301 0.744141
vt 0.721191 0.740967
vt 0.769043 0.734619
vt 0.773438 0.717529
vt 0.712891 0.723633
vt 0.712891 0.707520
vt 0.776855 0.700928
vt 0.769043 0.703125
vt 0.759766 0.692139
vt 0.710938 0.697021
vt 0.724609 0.691650
vt 0.698242 0.677490
vt 0.729980 0.682617
vt 0.742676 0.686768
vt 0.721191 0.660889
vt 0.753906 0.681641
vt 0.720215 0.658936
vt 0.739746 0.651123
vt 0.749512 0.656006
vt 0.749023 0.658447
vt 0.776367 0.668457
vt 0.794434 0.688232
vt 0.776367 0.665527
vt 0.796387 0.685791
vt 0.800293 0.685059
vt 0.776367 0.662354
vt 0.781250 0.661865
vt1 0.207153 0.127441
vt1 0.297607 0.213379
vt1 0.083618 0.132324
vt1 0.290039 0.322754
vt1 0.235718 0.394043
vt1 0.112915 0.426270
vt1 0.041992 0.370605
vt1 0.004509 0.307617
vt1 0.010284 0.218750
vt1 0.881836 0.848145
vt1 0.859863 0.931763
vt1 0.859375 0.777344
vt1 0.809082 0.979507
vt1 0.736816 1.004086
vt1 0.623535 0.963654
vt1 0.584961 0.877625
vt1 0.584473 0.798584
vt1 0.641602 0.720703
vt1 0.731445 0.696533
vt1 0.815918 0.723389
vt1 0.786621 0.131836
vt1 0.771484 0.161133
vt1 0.839355 0.241211
vt1 0.657227 0.157227
vt1 0.894531 0.264648
vt1 0.844727 0.323242
vt1 0.663574 0.107910
vt1 0.860840 0.396484
vt1 0.810059 0.381836
vt1 0.744141 0.435059
vt1 0.819336 0.142090
vt1 0.939941 0.120605
vt1 0.793457 0.019531
vt1 0.993164 0.280762
vt1 0.610840 0.014648
vt1 0.972168 0.403809
vt1 0.881836 0.521729
vt1 0.560547 0.181641
vt1 0.472168 0.119629
vt1 0.571289 0.235840
vt1 0.418457 0.270508
vt1 0.538086 0.371582
vt1 0.580566 0.337402
vt1 0.460938 0.426270
vt1 0.630859 0.403320
vt1 0.544434 0.518799
vt1 0.696289 0.487793
vt1 0.723633 0.579834
vt1 0.194214 0.980850
vt1 0.217407 0.987610
vt1 0.061157 0.889160
vt1 0.391113 0.978271
vt1 0.027145 0.804810
vt1 0.001582 0.716309
vt1 0.030334 0.594971
vt1 0.307861 0.979050
vt1 0.139893 0.932861
vt1 0.024216 0.676758
vt1 0.038849 0.801514
vt1 0.068542 0.542969
vt1 0.117065 0.477051
vt1 0.035797 0.648438
vt1 0.147949 0.928101
vt1 0.054352 0.801147
vt1 0.307373 0.964386
vt1 0.227417 0.860107
vt1 0.133301 0.743408
vt1 0.425049 0.931335
vt1 0.436279 0.940338
vt1 0.525879 0.865356
vt1 0.384766 0.845093
vt1 0.513184 0.852905
vt1 0.563965 0.698730
vt1 0.578125 0.716797
vt1 0.452881 0.750977
vt1 0.301758 0.841919
vt1 0.365967 0.820190
vt1 0.201904 0.805908
vt1 0.411621 0.777466
vt1 0.431152 0.702637
vt1 0.166504 0.729492
vt1 0.166748 0.659424
vt1 0.446533 0.630615
vt1 0.411377 0.640137
vt1 0.371826 0.591553
vt1 0.157104 0.613281
vt1 0.217285 0.589600
vt1 0.102905 0.527832
vt1 0.241699 0.550293
vt1 0.297363 0.567627
vt1 0.201782 0.455566
vt1 0.345703 0.546143
vt1 0.197510 0.446777
vt1 0.282715 0.412109
vt1 0.327393 0.433105
vt1 0.324951 0.444336
vt1 0.445068 0.487793
vt1 0.522949 0.574951
vt1 0.444580 0.474609
vt1 0.532715 0.563721
vt1 0.547852 0.561035
vt1 0.445312 0.461426
vt1 0.464844 0.458984
vn 0.000000 -1.000000 0.015748
vn 0.007874 -1.000000 0.015748
vn -0.015748 -1.000000 0.007874
vn 0.015748 -1.000000 0.000000
vn 0.015748 -1.000000 -0.007874
vn 0.007874 -1.000000 -0.015748
vn -0.007874 -1.000000 -0.015748
vn -0.015748 -1.000000 -0.007874
vn -0.015748 -1.000000 0.000000
vn -0.078740 0.992126 -0.039370
vn -0.047244 0.992126 -0.078740
vn -0.086614 1.000000 -0.000000
vn 0.000000 0.992126 -0.086614
vn 0.039370 0.992126 -0.078740
vn 0.086614 0.992126 -0.031496
vn 0.086614 1.000000 0.023622
vn 0.062992 0.992126 0.070866
vn 0.007874 0.992126 0.094488
vn -0.047244 0.992126 0.078740
vn -0.078740 0.992126 0.039370
vn -0.488189 -0.803149 0.338583
vn -0.007874 -1.000000 0.031496
vn -0.023622 -1.000000 -0.031496
vn -0.039370 -0.992126 0.125984
vn -0.921260 -0.149606 -0.370079
vn -0.070866 -1.000000 -0.023622
vn -0.291339 -0.062992 0.952756
vn -0.433071 -0.141732 -0.889764
vn -0.007874 -1.000000 -0.015748
vn 0.062992 -0.992126 -0.125984
vn -0.905512 -0.062992 0.417323
vn -0.984252 -0.055118 0.141732
vn -0.708661 -0.055118 0.700787
vn -0.889764 -0.055118 -0.456693
vn -0.181102 -0.055118 0.984252
vn -0.614173 -0.055118 -0.787401
vn -0.149606 -0.047244 -0.984252
vn 0.433071 -0.062992 0.897638
vn 0.433071 -0.055118 0.897638
vn 0.125984 -0.976378 0.196850
vn 0.850394 -0.055118 0.527559
vn 0.984252 -0.141732 0.070866
vn 0.039370 -1.000000 0.031496
vn 1.000000 -0.055118 0.000000
vn 0.055118 -1.000000 0.000000
vn 0.897638 -0.055118 -0.440945
vn 0.551181 -0.110236 -0.826772
vn 0.456693 -0.055118 -0.889764
vn -0.606299 -0.606299 0.511811
vn -0.385827 -0.850394 0.362205
vn -0.503937 -0.858268 0.047244
vn -0.188976 -0.480315 0.858268
vn -0.976378 -0.149606 -0.149606
vn -0.480315 -0.842520 -0.228346
vn -0.511811 -0.582677 -0.629921
vn -0.141732 0.952756 0.275590
vn -0.322835 0.929134 0.181102
vn -0.370079 0.881890 -0.299213
vn -0.157480 0.984252 -0.023622
vn -0.244094 0.826771 -0.503937
vn -0.110236 -0.661417 -0.740157
vn 0.732283 0.133858 0.669291
vn 0.881890 0.133858 -0.448819
vn 0.976378 0.133858 0.149606
vn 0.456693 0.133858 -0.881890
vn 0.795276 0.165354 -0.582677
vn 0.937008 0.196850 0.283464
vn 0.000000 0.133858 -0.992126
vn 0.000000 0.803150 0.590551
vn 0.362205 0.685039 0.629921
vn -0.047244 0.141732 -0.984252
vn -0.456693 0.133858 -0.881890
vn -0.866142 0.133858 -0.488189
vn 0.818898 0.204724 0.535433
vn -0.700787 0.149606 -0.700787
vn 0.086614 0.976378 -0.181102
vn -0.015748 0.984252 -0.181102
vn 0.165354 0.984252 -0.070866
vn -0.078740 0.984252 -0.165354
vn -0.141732 0.984252 -0.047244
vn 0.086614 1.000000 0.023622
vn 0.149606 0.984252 0.118110
vn -0.984252 0.181102 -0.047244
vn -0.094488 0.992126 -0.000000
vn -0.141732 0.984252 0.062992
vn 0.464567 0.141732 0.874016
vn 0.000000 0.968504 0.251968
vn 0.307087 0.133858 0.944882
vn -0.181102 0.149606 0.976378
vn -0.070866 0.992126 0.118110
vn -0.157480 0.141732 0.976378
vn -0.708661 0.141732 0.685039
vn 0.086614 0.842520 -0.535433
vn 0.338583 -0.661417 -0.669291
vn 0.259843 0.881890 -0.393701
vn -0.582677 0.133858 0.803149
vn -0.881890 0.133858 0.456693
vn -0.992126 0.133858 -0.000000
vn 0.015748 1.000000 -0.015748
vn 0.590551 0.811023 0.015748
vn 0.661417 -0.748031 0.007874
vn 0.866142 -0.118110 -0.480315
vn 0.440945 -0.866142 -0.236220
tan -0.488189 0.013764 0.874016 1.000000
tan -0.488189 0.009920 0.874016 1.000000
tan -0.488189 0.014570 0.874016 1.000000
tan -0.488189 -0.007688 0.874016 1.000000
tan -0.488189 -0.014570 0.874016 1.000000
tan -0.488189 -0.017608 0.874016 1.000000
tan -0.488189 -0.009920 0.874016 1.000000
tan -0.488189 0.000806 0.874016 1.000000
tan -0.488189 0.007688 0.874016 1.000000
tan 0.484345 0.004030 -0.867134 1.000000
tan 0.476533 -0.046748 -0.874946 1.000000
tan 0.488189 0.042284 -0.874016 1.000000
tan 0.468721 -0.076384 -0.874946 1.000000
tan 0.476533 -0.087730 -0.867134 1.000000
tan 0.492157 -0.070246 -0.859322 1.000000
tan 0.488189 -0.021638 -0.874016 1.000000
tan 0.476533 0.031682 -0.867134 1.000000
tan 0.468721 0.079608 -0.874946 1.000000
tan 0.476533 0.091512 -0.867134 1.000000
tan 0.492157 0.073160 -0.859322 1.000000
tan -0.649699 0.597061 0.479509 1.000000
tan -0.464567 0.031682 0.889764 1.000000
tan -0.496063 -0.015562 0.866142 1.000000
tan -0.335917 0.131378 0.929630 1.000000
tan -0.397917 0.258231 0.886168 1.000000
tan -0.559055 0.020088 0.826772 1.000000
tan -0.345589 0.895034 -0.046500 1.000000
tan -0.811582 -0.360717 0.452477 1.000000
tan -0.488189 -0.009920 0.874016 1.000000
tan -0.335917 -0.140368 0.937442 1.000000
tan 0.278071 0.587947 0.692107 1.000000
tan 0.106888 0.403001 0.899002 1.000000
tan 0.594705 0.482609 0.639345 1.000000
tan -0.455391 -0.021018 0.889764 1.000000
tan -0.395251 0.899002 -0.022382 1.000000
tan -0.779900 -0.119908 0.616715 1.000000
tan -0.705251 -0.682001 0.139934 1.000000
tan -0.854734 0.271995 0.431459 1.000000
tan -0.876434 0.204972 0.435427 1.000000
tan -0.407465 0.125674 0.884122 1.000000
tan -0.526257 0.020088 0.850394 1.000000
tan -0.136710 -0.534751 0.829252 1.000000
tan -0.503937 0.007440 0.866142 1.000000
tan -0.016058 -0.291338 0.952756 1.000000
tan -0.559055 -0.030814 0.826772 1.000000
tan 0.371939 -0.395685 0.806622 1.000000
tan 0.325935 -0.785541 0.322029 1.000000
tan 0.111662 -0.886354 0.112220 1.000000
tan -0.617521 0.754541 0.162316 1.000000
tan -0.801538 0.489677 0.295865 1.000000
tan -0.644615 0.345713 -0.595449 1.000000
tan 0.105152 0.850022 0.498853 1.000000
tan 0.050654 0.508587 -0.839172 1.000000
tan 0.623473 -0.185938 -0.625395 1.000000
tan 0.836630 -0.162130 -0.529791 1.000000
tan 0.375101 0.309690 -0.877736 1.000000
tan 0.585281 0.344535 -0.724285 1.000000
tan 0.484345 -0.065038 -0.790749 1.000000
tan 0.465001 0.053568 -0.868002 1.000000
tan 0.305165 -0.395437 -0.796577 1.000000
tan 0.246513 -0.730733 0.616281 1.000000
tan 0.666129 0.048918 -0.738607 1.000000
tan -0.219666 -0.639097 -0.622233 1.000000
tan 0.195052 -0.468969 -0.853370 1.000000
tan 0.054932 -0.903466 -0.108686 1.000000
tan -0.406287 -0.494203 -0.694773 1.000000
tan 0.328105 -0.265609 -0.900118 1.000000
tan 0.484345 -0.867134 -0.116994 1.000000
tan 0.264493 0.567301 -0.771529 1.000000
tan 0.260773 0.548825 -0.746791 1.000000
tan 0.480501 -0.860252 -0.146940 1.000000
tan 0.804452 -0.357741 -0.470891 1.000000
tan 0.498729 0.064356 -0.867196 1.000000
tan 0.542129 0.032240 -0.841466 1.000000
tan 0.688201 -0.093806 -0.708227 1.000000
tan 0.407465 -0.201562 -0.891810 1.000000
tan 0.434001 -0.155620 -0.883502 1.000000
tan 0.558001 -0.152334 -0.813752 1.000000
tan 0.393949 -0.119412 -0.898382 1.000000
tan 0.527001 0.035712 -0.837002 1.000000
tan 0.488189 -0.021638 -0.874016 1.000000
tan 0.480501 0.030194 -0.860252 1.000000
tan 0.140306 0.550251 -0.813752 1.000000
tan 0.507781 0.048360 -0.851510 1.000000
tan 0.542997 0.130696 -0.820386 1.000000
tan 0.789200 0.372063 -0.479819 1.000000
tan 0.312667 0.238080 -0.915122 1.000000
tan 0.712133 0.622357 -0.319611 1.000000
tan 0.292145 0.930250 -0.088350 1.000000
tan 0.429661 0.136710 -0.890570 1.000000
tan 0.369025 0.907186 -0.072168 1.000000
tan -0.445471 0.658441 -0.597061 1.000000
tan 0.200818 -0.542563 -0.821253 1.000000
tan -0.077810 -0.712071 0.664331 1.000000
tan 0.357989 -0.465993 -0.807551 1.000000
tan -0.085374 0.946370 -0.219667 1.000000
tan -0.242730 0.618513 -0.650009 1.000000
tan 0.080104 0.593713 -0.796826 1.000000
tan 0.440945 -0.021080 -0.897638 1.000000
tan 0.547523 -0.384587 -0.725897 1.000000
tan -0.622171 -0.555769 -0.535681 1.000000
tan -0.393701 -0.683489 -0.541881 1.000000
tan -0.810342 -0.324137 -0.324137 1.000000
f 3/3/3 2/2/2 1/1/1
f 3/3/3 4/4/4 2/2/2
f 3/3/3 5/5/5 4/4/4
f 3/3/3 6/6/6 5/5/5
f 3/3/3 7/7/7 6/6/6
f 3/3/3 8/8/8 7/7/7
f 3/3/3 9/9/9 8/8/8
f 12/12/12 11/11/11 10/10/10
f 12/12/12 13/13/13 11/11/11
f 12/12/12 14/14/14 13/13/13
f 12/12/12 15/15/15 14/14/14
f 12/12/12 16/16/16 15/15/15
f 12/12/12 17/17/17 16/16/16
f 12/12/12 18/18/18 17/17/17
f 12/12/12 19/19/19 18/18/18
f 12/12/12 20/20/20 19/19/19
f 23/23/23 22/22/22 21/21/21
f 22/22/22 24/24/24 21/21/21
f 23/23/23 21/21/21 25/25/25
f 23/23/23 25/25/25 26/26/26
f 24/24/24 27/27/27 21/21/21
f 28/28/28 26/26/26 25/25/25
f 29/29/29 26/26/26 28/28/28
f 28/28/28 30/30/30 29/29/29
f 31/31/31 25/25/25 21/21/21
f 31/31/31 21/21/21 27/27/27
f 25/25/25 31/31/31 32/32/32
f 33/33/33 32/32/32 31/31/31
f 31/31/31 27/27/27 33/33/33
f 34/34/34 25/25/25 32/32/32
f 25/25/25 34/34/34 28/28/28
f 33/33/33 27/27/27 35/35/35
f 36/36/36 28/28/28 34/34/34
f 37/37/37 28/28/28 36/36/36
f 38/38/38 35/35/35 27/27/27
f 38/38/38 27/27/27 24/24/24
f 39/39/39 35/35/35 38/38/38
f 24/24/24 40/40/40 38/38/38
f 39/39/39 38/38/38 41/41/41
f 42/42/42 38/38/38 40/40/40
f 42/42/42 41/41/41 38/38/38
f 42/42/42 40/40/40 43/43/43
f 41/41/41 42/42/42 44/44/44
f 45/45/45 42/42/42 43/43/43
f 44/44/44 42/42/42 46/46/46
f 47/47/47 42/42/42 45/45/45
f 47/47/47 46/46/46 42/42/42
f 30/30/30 47/47/47 45/45/45
f 30/30/30 28/28/28 47/47/47
f 47/47/47 28/28/28 37/37/37
f 46/46/46 47/47/47 48/48/48
f 48/48/48 47/47/47 37/37/37
f 51/51/51 50/50/50 49/49/49
f 50/50/50 52/52/52 49/49/49
f 49/49/49 53/53/53 51/51/51
f 51/51/51 53/53/53 54/54/54
f 54/54/54 53/53/53 55/55/55
f 56/56/56 49/49/49 52/52/52
f 57/57/57 53/53/53 49/49/49
f 56/56/56 57/57/57 49/49/49
f 58/58/58 55/55/55 53/53/53
f 59/59/59 53/53/53 57/57/57
f 53/53/53 59/59/59 58/58/58
f 60/60/60 55/55/55 58/58/58
f 61/61/61 55/55/55 60/60/60
f 58/58/58 59/59/59 62/62/62
f 62/62/62 60/60/60 58/58/58
f 57/57/57 63/63/63 59/59/59
f 63/63/63 57/57/57 56/56/56
f 64/64/64 59/59/59 63/63/63
f 59/59/59 64/64/64 62/62/62
f 56/56/56 65/65/65 63/63/63
f 63/63/63 66/66/66 64/64/64
f 65/65/65 66/66/66 63/63/63
f 62/62/62 64/64/64 67/67/67
f 67/67/67 64/64/64 66/66/66
f 65/65/65 56/56/56 68/68/68
f 56/56/56 52/52/52 69/69/69
f 69/69/69 68/68/68 56/56/56
f 69/69/69 52/52/52 70/70/70
f 69/69/69 70/70/70 68/68/68
f 68/68/68 71/71/71 65/65/65
f 71/71/71 66/66/66 65/65/65
f 72/72/72 68/68/68 70/70/70
f 72/72/72 71/71/71 68/68/68
f 72/72/72 70/70/70 73/73/73
f 74/74/74 73/73/73 70/70/70
f 71/71/71 72/72/72 75/75/75
f 73/73/73 75/75/75 72/72/72
f 76/76/76 66/66/66 71/71/71
f 76/76/76 71/71/71 77/77/77
f 78/78/78 66/66/66 76/76/76
f 79/79/79 77/77/77 71/71/71
f 75/75/75 79/79/79 71/71/71
f 66/66/66 78/78/78 67/67/67
f 79/79/79 75/75/75 80/80/80
f 78/78/78 81/81/81 67/67/67
f 81/81/81 82/82/82 67/67/67
f 80/80/80 75/75/75 83/83/83
f 75/75/75 73/73/73 83/83/83
f 83/83/83 84/84/84 80/80/80
f 84/84/84 83/83/83 85/85/85
f 82/82/82 86/86/86 67/67/67
f 67/67/67 86/86/86 62/62/62
f 87/87/87 86/86/86 82/82/82
f 62/62/62 86/86/86 88/88/88
f 60/60/60 62/62/62 88/88/88
f 86/86/86 87/87/87 89/89/89
f 87/87/87 90/90/90 89/89/89
f 88/88/88 86/86/86 91/91/91
f 89/89/89 91/91/91 86/86/86
f 60/60/60 88/88/88 91/91/91
f 92/92/92 89/89/89 90/90/90
f 85/85/85 92/92/92 90/90/90
f 92/92/92 91/91/91 89/89/89
f 85/85/85 83/83/83 92/92/92
f 91/91/91 93/93/93 60/60/60
f 61/61/61 60/60/60 93/93/93
f 61/61/61 93/93/93 94/94/94
f 93/93/93 91/91/91 95/95/95
f 95/95/95 94/94/94 93/93/93
f 96/96/96 91/91/91 92/92/92
f 96/96/96 95/95/95 91/91/91
f 83/83/83 97/97/97 92/92/92
f 96/96/96 92/92/92 97/97/97
f 97/97/97 83/83/83 98/98/98
f 98/98/98 83/83/83 73/73/73
f 97/97/97 99/99/99 96/96/96
f 99/99/99 97/97/97 98/98/98
f 95/95/95 96/96/96 99/99/99
f 100/100/100 98/98/98 73/73/73
f 98/98/98 100/100/100 99/99/99
f 73/73/73 74/74/74 100/100/100
f 101/101/101 100/100/100 74/74/74
f 102/102/102 95/95/95 99/99/99
f 102/102/102 99/99/99 100/100/100
f 100/100/100 101/101/101 102/102/102
f 94/94/94 95/95/95 102/102/102
f 102/102/102 101/101/101 103/103/103
f 103/103/103 94/94/94 102/102/102
