mtllib SM_Shelf_Support_LOD2.mtl
g SM_Shelf_Support_LOD2
#Vertices 32
#Indices 78
#Section 0 Offset 0 NumIndices 78 MaterialIndex 0 MI_Shelf
v 0.000418 -0.285377 0.157473
v 0.000908 0.288631 -0.426997
v -0.015474 -0.284980 0.145826
v -0.061428 0.286512 -0.429309
v -0.061061 -0.292649 0.154509
v -0.063402 0.282982 -0.413085
v -0.063402 -0.282982 0.157184
v -0.063402 0.282982 -0.157184
v -0.063468 -0.286394 0.421226
v -0.052470 0.286286 -0.143008
v -0.050214 -0.281648 0.428655
v -0.002971 0.290083 -0.151880
v -0.004270 -0.282922 0.424190
v 0.000912 -0.285757 0.417543
v 0.000000 0.282982 -0.157184
v 0.000418 -0.285377 0.157473
v 0.000908 0.288631 -0.426997
v -0.002971 0.290083 -0.151880
v 0.000908 0.288631 -0.426997
v 0.000000 0.282982 -0.157184
v -0.052470 0.286286 -0.143008
v -0.061428 0.286512 -0.429309
v -0.063402 0.282982 -0.413085
v -0.063402 0.282982 -0.157184
v 0.000912 -0.285757 0.417543
v -0.050214 -0.281648 0.428655
v -0.004270 -0.282922 0.424190
v -0.061061 -0.292649 0.154509
v -0.063468 -0.286394 0.421226
v -0.063402 -0.282982 0.157184
v 0.000418 -0.285377 0.157473
v -0.015474 -0.284980 0.145826
vt 0.004562 1.005787
vt 0.008102 -0.008789
vt 0.021408 1.003469
vt 0.054138 -0.006836
vt 0.053680 1.016144
vt 0.065613 0.000488
vt 0.065735 0.999991
vt 0.384521 0.000488
vt 0.390625 1.005833
vt 0.403076 -0.001953
vt 0.404297 1.000771
vt 0.437744 -0.011719
vt 0.437500 0.999719
vt 0.448242 1.004902
vt 0.450195 0.000488
vt 0.771484 1.004120
vt 0.779297 -0.009766
vt 0.909668 0.348633
vt 0.912598 0.005859
vt 0.919434 0.343750
vt 0.873047 0.359375
vt 0.865723 0.003418
vt 0.857422 0.020996
vt 0.857910 0.343750
vt 0.835449 0.016602
vt 0.797363 0.003418
vt 0.832031 0.004395
vt 0.793457 0.345215
vt 0.784180 0.013672
vt 0.783691 0.344238
vt 0.840820 0.341797
vt 0.827148 0.359863
vt1 0.012550 0.997631
vt1 0.016037 0.000000
vt1 0.029129 0.995350
vt1 0.061310 0.001465
vt1 0.060883 1.007828
vt1 0.072571 0.008301
vt1 0.072754 0.991928
vt1 0.386230 0.008301
vt1 0.392334 0.997679
vt1 0.404541 0.006348
vt1 0.405762 0.992695
vt1 0.438721 -0.002930
vt1 0.438477 0.991661
vt1 0.448975 0.996761
vt1 0.450928 0.008301
vt1 0.767578 0.995991
vt1 0.774902 -0.000977
vt1 0.885254 0.471191
vt1 0.891113 0.017578
vt1 0.904785 0.464844
vt1 0.812988 0.485352
vt1 0.798828 0.014648
vt1 0.782227 0.038086
vt1 0.782715 0.464844
vt1 0.891602 0.532471
vt1 0.815918 0.514648
vt1 0.884277 0.516357
vt1 0.808594 0.966980
vt1 0.790527 0.528320
vt1 0.789551 0.965363
vt1 0.901855 0.962677
vt1 0.875000 0.986053
vn 0.992126 -0.078740 -0.078740
vn 0.732283 -0.480315 -0.488189
vn 0.102362 -0.708661 -0.700787
vn -0.236220 -0.685039 -0.692913
vn -0.236220 -0.692913 -0.685039
vn -1.000000 -0.007874 -0.015748
vn -1.000000 -0.015748 -0.007874
vn -1.000000 0.015748 0.007874
vn -1.000000 0.031496 0.039370
vn -0.330709 0.669291 0.661417
vn -0.125984 0.700787 0.700787
vn 0.220472 0.692913 0.685039
vn 0.244094 0.685039 0.685039
vn 1.000000 0.015748 0.023622
vn 1.000000 0.015748 0.007874
vn 1.000000 -0.015748 -0.007874
vn 1.000000 -0.007874 -0.015748
vn 0.574803 0.622047 -0.535433
vn 0.519685 0.566929 -0.645669
vn 1.000000 0.015748 0.007874
vn -0.157480 0.740157 -0.653543
vn -0.338583 0.574803 -0.748031
vn -1.000000 -0.007874 -0.015748
vn -1.000000 0.015748 0.007874
vn 0.393701 -0.629921 0.669291
vn -0.236220 -0.511811 0.826772
vn 0.267717 0.637795 0.724409
vn -0.385827 -0.677165 0.622047
vn -0.984252 -0.094488 0.133858
vn -1.000000 -0.015748 -0.007874
vn 0.598425 -0.590551 0.543307
vn 0.102362 -0.779527 -0.622047
tan 0.075640 0.992126 -0.039060 1.000000
tan 0.388989 0.872590 -0.275033 1.000000
tan 0.128092 0.710583 -0.699857 1.000000
tan -0.129580 0.722921 -0.670531 1.000000
tan -0.196044 0.719263 -0.659929 1.000000
tan -0.007874 1.000000 -0.000000 1.000000
tan -0.015748 1.000000 -0.000000 1.000000
tan 0.015748 1.000000 -0.000000 1.000000
tan 0.030566 1.000000 -0.023622 1.000000
tan 0.242482 0.736933 -0.624465 1.000000
tan 0.060698 0.710707 -0.699795 1.000000
tan -0.157914 0.715915 -0.673321 1.000000
tan -0.231942 0.726083 -0.643437 1.000000
tan -0.015748 1.000000 -0.000000 1.000000
tan -0.015748 1.000000 -0.000000 1.000000
tan 0.015748 1.000000 -0.000000 1.000000
tan 0.007874 1.000000 -0.000000 1.000000
tan -0.280303 -0.450183 -0.823919 1.000000
tan -0.217868 -0.623473 -0.722797 1.000000
tan 0.004216 0.220472 -0.976378 1.000000
tan 0.032240 -0.651063 -0.745117 1.000000
tan 0.214768 -0.718023 -0.648955 1.000000
tan 0.017112 -0.220473 -0.976378 1.000000
tan -0.005704 0.133858 -0.992126 1.000000
tan -0.211110 0.635501 0.722301 1.000000
tan 0.214830 0.800732 0.557071 1.000000
tan -0.251473 0.729617 -0.549445 1.000000
tan 0.178064 0.590303 0.753053 1.000000
tan 0.118668 0.147250 0.976502 1.000000
tan -0.005580 -0.141732 0.992126 1.000000
tan -0.379627 0.359229 0.808605 1.000000
tan -0.006200 -0.626077 0.783557 1.000000
f 3/3/3 2/2/2 1/1/1
f 4/4/4 2/2/2 3/3/3
f 5/5/5 4/4/4 3/3/3
f 4/4/4 5/5/5 6/6/6
f 7/7/7 6/6/6 5/5/5
f 6/6/6 7/7/7 8/8/8
f 7/7/7 9/9/9 8/8/8
f 8/8/8 9/9/9 10/10/10
f 11/11/11 10/10/10 9/9/9
f 12/12/12 10/10/10 11/11/11
f 13/13/13 12/12/12 11/11/11
f 14/14/14 12/12/12 13/13/13
f 12/12/12 14/14/14 15/15/15
f 14/14/14 16/16/16 15/15/15
f 17/17/17 15/15/15 16/16/16
f 20/20/20 19/19/19 18/18/18
f 18/18/18 19/19/19 21/21/21
f 22/22/22 21/21/21 19/19/19
f 23/23/23 21/21/21 22/22/22
f 24/24/24 21/21/21 23/23/23
f 27/27/27 26/26/26 25/25/25
f 25/25/25 26/26/26 28/28/28
f 28/28/28 26/26/26 29/29/29
f 29/29/29 30/30/30 28/28/28
f 28/28/28 31/31/31 25/25/25
f 31/31/31 28/28/28 32/32/32
