mtllib SM_Shelf.mtl
g SM_Shelf
#Vertices 82
#Indices 324
#Section 0 Offset 0 NumIndices 324 MaterialIndex 0 MI_Shelf
v 0.401089 0.000000 0.127951
v -0.401089 0.000000 0.127951
v 0.401089 0.002646 0.137383
v -0.401089 0.002646 0.137383
v 0.401089 0.009035 0.141290
v -0.401089 0.009035 0.141290
v -0.401089 0.027108 0.141290
v 0.401089 0.027108 0.141290
v 0.401089 0.033497 0.137383
v -0.401089 0.033497 0.137383
v 0.401089 0.036143 0.127951
v -0.401089 0.036143 0.127951
v -0.401089 0.036143 -0.127951
v 0.401089 0.036143 -0.127951
v 0.401089 0.033497 -0.137383
v -0.401089 0.033497 -0.137383
v 0.401089 0.027108 -0.141290
v -0.401089 0.027108 -0.141290
v -0.401089 0.009035 -0.141290
v 0.401089 0.009035 -0.141290
v 0.401089 0.002646 -0.137383
v -0.401089 0.002646 -0.137383
v 0.401089 -0.000000 -0.127951
v -0.401089 -0.000000 -0.127951
v -0.401089 0.000000 0.127951
v 0.401089 0.000000 0.127951
v -0.401089 0.009035 -0.141290
v -0.407791 0.003820 -0.135649
v -0.401089 0.002646 -0.137383
v -0.401089 -0.000000 -0.127951
v -0.409300 0.009035 -0.137383
v -0.401089 0.027108 -0.141290
v -0.409300 0.002646 -0.127951
v -0.409300 0.027108 -0.137383
v -0.412701 0.009035 -0.127951
v -0.407791 0.032323 -0.135649
v -0.401089 0.033497 -0.137383
v -0.401089 0.036143 -0.127951
v -0.412701 0.027108 -0.127951
v -0.409300 0.033497 -0.127951
v -0.401089 0.036143 0.127951
v -0.409300 0.033497 0.127951
v -0.412701 0.009035 0.127951
v -0.412701 0.027108 0.127951
v -0.407791 0.032323 0.135649
v -0.401089 0.033497 0.137383
v -0.401089 0.027108 0.141290
v -0.409300 0.027108 0.137383
v -0.401089 0.009035 0.141290
v -0.409300 0.009035 0.137383
v -0.407791 0.003820 0.135649
v -0.401089 0.002646 0.137383
v -0.401089 0.000000 0.127951
v -0.409300 0.002646 0.127951
v 0.401089 -0.000000 -0.127951
v 0.407791 0.003820 -0.135649
v 0.401089 0.002646 -0.137383
v 0.401089 0.009035 -0.141290
v 0.409300 0.002646 -0.127951
v 0.401089 0.000000 0.127951
v 0.409300 0.009035 -0.137383
v 0.409300 0.002646 0.127951
v 0.412701 0.009035 -0.127951
v 0.407791 0.003820 0.135649
v 0.401089 0.002646 0.137383
v 0.401089 0.009035 0.141290
v 0.412701 0.009035 0.127951
v 0.409300 0.009035 0.137383
v 0.401089 0.027108 0.141290
v 0.409300 0.027108 0.137383
v 0.412701 0.027108 0.127951
v 0.407791 0.032323 0.135649
v 0.401089 0.033497 0.137383
v 0.401089 0.036143 0.127951
v 0.409300 0.033497 0.127951
v 0.401089 0.036143 -0.127951
v 0.409300 0.033497 -0.127951
v 0.412701 0.027108 -0.127951
v 0.407791 0.032323 -0.135649
v 0.401089 0.033497 -0.137383
v 0.401089 0.027108 -0.141290
v 0.409300 0.027108 -0.137383
vt 0.000141 1.000000
vt 0.000000 0.000488
vt 0.012344 0.999998
vt 0.012207 0.000488
vt 0.021683 0.999997
vt 0.021530 0.000488
vt 0.044067 0.000488
vt 0.044189 0.999994
vt 0.053528 0.999992
vt 0.053406 0.000488
vt 0.065735 0.999991
vt 0.065613 0.000488
vt 0.384521 0.000488
vt 0.384521 0.999946
vt 0.396729 0.999944
vt 0.396729 0.000488
vt 0.406250 0.999943
vt 0.406006 0.000488
vt 0.428467 0.000488
vt 0.428711 0.999940
vt 0.437988 0.999938
vt 0.437988 0.000488
vt 0.450195 0.999937
vt 0.450195 0.000488
vt 0.769043 0.000488
vt 0.769043 0.999892
vt 0.901855 0.364258
vt 0.906738 0.351562
vt 0.912109 0.357910
vt 0.919434 0.343750
vt 0.899902 0.353027
vt 0.875488 0.363770
vt 0.909180 0.342285
vt 0.877441 0.353516
vt 0.899902 0.341797
vt 0.870605 0.351562
vt 0.865723 0.357422
vt 0.857910 0.343750
vt 0.877441 0.341797
vt 0.868652 0.342285
vt 0.857422 0.020996
vt 0.867676 0.022461
vt 0.899414 0.022949
vt 0.876953 0.022949
vt 0.870117 0.013184
vt 0.864746 0.006836
vt 0.875000 0.000000
vt 0.876953 0.011719
vt 0.901367 0.000977
vt 0.899414 0.011230
vt 0.906250 0.013184
vt 0.911621 0.006836
vt 0.919434 0.020996
vt 0.908691 0.022461
vt 0.841797 0.020508
vt 0.829102 0.012695
vt 0.833984 0.006836
vt 0.823730 0.000488
vt 0.831055 0.021973
vt 0.845703 0.343262
vt 0.822266 0.011230
vt 0.834961 0.341797
vt 0.822266 0.022949
vt 0.833008 0.351074
vt 0.838379 0.357422
vt 0.828125 0.364258
vt 0.826172 0.341309
vt 0.826172 0.353027
vt 0.801758 0.363770
vt 0.803711 0.353516
vt 0.803711 0.341797
vt 0.796875 0.351562
vt 0.791992 0.357910
vt 0.783691 0.344238
vt 0.794434 0.342285
vt 0.779785 0.020996
vt 0.790527 0.022461
vt 0.799805 0.022949
vt 0.792969 0.013184
vt 0.787598 0.006836
vt 0.797363 0.000488
vt 0.799805 0.011719
vt1 0.008202 0.991936
vt1 0.008064 0.008301
vt1 0.020203 0.991936
vt1 0.020065 0.008301
vt1 0.029388 0.991936
vt1 0.029251 0.008301
vt1 0.051422 0.008301
vt1 0.051544 0.991936
vt1 0.060730 0.991928
vt1 0.060608 0.008301
vt1 0.072754 0.991928
vt1 0.072571 0.008301
vt1 0.386230 0.008301
vt1 0.386475 0.991882
vt1 0.398438 0.991882
vt1 0.398438 0.008301
vt1 0.407715 0.991882
vt1 0.407471 0.008301
vt1 0.429688 0.008301
vt1 0.429932 0.991882
vt1 0.438965 0.991875
vt1 0.438965 0.008301
vt1 0.450928 0.991875
vt1 0.450928 0.008301
vt1 0.764648 0.008301
vt1 0.764648 0.991837
vt1 0.961426 0.782349
vt1 0.968750 0.763184
vt1 0.976562 0.772339
vt1 0.988281 0.751465
vt1 0.958496 0.765503
vt1 0.922363 0.781494
vt1 0.972168 0.749023
vt1 0.925293 0.765869
vt1 0.958984 0.748291
vt1 0.915039 0.763184
vt1 0.907227 0.772095
vt1 0.895508 0.751709
vt1 0.925293 0.748291
vt1 0.911621 0.749268
vt1 0.895020 0.270996
vt1 0.910645 0.273438
vt1 0.958008 0.273926
vt1 0.924316 0.273926
vt1 0.914062 0.259277
vt1 0.906250 0.250000
vt1 0.921387 0.239746
vt1 0.924316 0.256836
vt1 0.960938 0.240723
vt1 0.958008 0.256348
vt1 0.968262 0.259277
vt1 0.976074 0.250000
vt1 0.987305 0.270508
vt1 0.971191 0.272949
vt1 0.874512 0.479980
vt1 0.854980 0.468750
vt1 0.862793 0.459473
vt1 0.847656 0.450684
vt1 0.858398 0.482910
vt1 0.880371 0.960876
vt1 0.844727 0.466309
vt1 0.864258 0.958557
vt1 0.845215 0.483887
vt1 0.861328 0.972763
vt1 0.869141 0.981766
vt1 0.854004 0.991936
vt1 0.851074 0.957855
vt1 0.851074 0.975204
vt1 0.814453 0.991508
vt1 0.817383 0.975830
vt1 0.817383 0.958313
vt1 0.807129 0.973328
vt1 0.799805 0.982346
vt1 0.787598 0.962006
vt1 0.803711 0.959290
vt1 0.782227 0.480957
vt1 0.797852 0.483398
vt1 0.811523 0.484375
vt1 0.801270 0.469238
vt1 0.793457 0.460449
vt1 0.808105 0.450195
vt1 0.811035 0.466797
vn 0.000000 -1.000000 0.007874
vn 0.000000 -1.000000 0.007874
vn 0.000000 -0.960630 0.267717
vn 0.000000 -0.960630 0.267717
vn 0.007874 -0.157480 0.984252
vn -0.007874 -0.157480 0.984252
vn -0.007874 0.157480 0.984252
vn 0.007874 0.157480 0.984252
vn 0.000000 0.519685 0.850394
vn 0.000000 0.519685 0.850394
vn 0.000000 1.000000 0.007874
vn 0.000000 1.000000 0.007874
vn 0.000000 1.000000 -0.007874
vn 0.000000 1.000000 -0.007874
vn 0.000000 0.960630 -0.267717
vn 0.000000 0.960630 -0.267717
vn 0.007874 0.157480 -0.984252
vn -0.007874 0.157480 -0.984252
vn -0.007874 -0.157480 -0.984252
vn 0.007874 -0.157480 -0.984252
vn 0.000000 -0.519685 -0.850394
vn 0.000000 -0.519685 -0.850394
vn 0.000000 -1.000000 -0.007874
vn 0.000000 -1.000000 -0.007874
vn 0.000000 -1.000000 0.007874
vn 0.000000 -1.000000 0.007874
vn -0.007874 -0.157480 -0.984252
vn -0.866142 -0.409449 -0.275590
vn 0.000000 -0.519685 -0.850394
vn 0.000000 -1.000000 -0.007874
vn -0.937008 -0.086614 -0.330709
vn -0.007874 0.157480 -0.984252
vn -0.307087 -0.952756 -0.007874
vn -0.937008 0.086614 -0.330709
vn -0.992126 -0.133858 -0.007874
vn -0.267717 0.937008 -0.228347
vn 0.000000 0.960630 -0.267717
vn 0.000000 1.000000 -0.007874
vn -0.992126 0.133858 -0.007874
vn -0.881890 0.472441 -0.007874
vn 0.000000 1.000000 0.007874
vn -0.881890 0.472441 0.007874
vn -0.992126 -0.133858 0.007874
vn -0.992126 0.133858 0.007874
vn -0.346457 0.448819 0.826771
vn 0.000000 0.519685 0.850394
vn -0.007874 0.157480 0.984252
vn -0.937008 0.086614 0.330709
vn -0.007874 -0.157480 0.984252
vn -0.937008 -0.086614 0.330709
vn -0.267717 -0.937008 0.228347
vn 0.000000 -0.960630 0.267717
vn 0.000000 -1.000000 0.007874
vn -0.307087 -0.952756 0.007874
vn 0.000000 -1.000000 -0.007874
vn 0.267717 -0.937008 -0.228346
vn 0.000000 -0.519685 -0.850394
vn 0.007874 -0.157480 -0.984252
vn 0.881890 -0.472441 -0.007874
vn 0.000000 -1.000000 0.007874
vn 0.417323 -0.102362 -0.905512
vn 0.881890 -0.472441 0.007874
vn 0.992126 -0.133858 -0.007874
vn 0.866142 -0.409449 0.275591
vn 0.000000 -0.960630 0.267717
vn 0.007874 -0.157480 0.984252
vn 0.992126 -0.133858 0.007874
vn 0.417323 -0.102362 0.905512
vn 0.007874 0.157480 0.984252
vn 0.417323 0.102362 0.905512
vn 0.992126 0.133858 0.007874
vn 0.866142 0.409449 0.275590
vn 0.000000 0.519685 0.850394
vn 0.000000 1.000000 0.007874
vn 0.307087 0.952756 0.007874
vn 0.000000 1.000000 -0.007874
vn 0.307087 0.952756 -0.007874
vn 0.992126 0.133858 -0.007874
vn 0.866142 0.409449 -0.275591
vn 0.000000 0.960630 -0.267717
vn 0.007874 0.157480 -0.984252
vn 0.417323 0.102362 -0.905512
tan -1.000062 0.000000 0.000000 1.000000
tan -1.000062 0.000000 0.000000 1.000000
tan -0.994482 0.000000 0.000000 1.000000
tan -0.994482 0.000000 0.000000 1.000000
tan -0.993552 -0.001240 0.007750 1.000000
tan -0.993552 0.001240 -0.007750 1.000000
tan -0.993552 -0.001240 -0.007750 1.000000
tan -0.993552 0.001240 0.007750 1.000000
tan -0.993242 0.000000 0.000000 1.000000
tan -0.993242 0.000000 0.000000 1.000000
tan -1.000062 0.000000 0.000000 1.000000
tan -1.000062 0.000000 0.000000 1.000000
tan -1.000062 0.000000 0.000000 1.000000
tan -1.000062 0.000000 0.000000 1.000000
tan -0.994482 0.000000 0.000000 1.000000
tan -0.994482 0.000000 0.000000 1.000000
tan -0.993552 0.001240 -0.007750 1.000000
tan -0.993552 -0.001240 0.007750 1.000000
tan -0.993552 0.001240 0.007750 1.000000
tan -0.993552 -0.001240 -0.007750 1.000000
tan -0.993242 0.000000 0.000000 1.000000
tan -0.993242 0.000000 0.000000 1.000000
tan -1.000062 0.000000 0.000000 1.000000
tan -1.000062 0.000000 0.000000 1.000000
tan -1.000062 0.000000 0.000000 1.000000
tan -1.000062 0.000000 0.000000 1.000000
tan -0.953562 -0.285573 0.053320 1.000000
tan -0.287185 -0.035650 0.955546 1.000000
tan -0.577345 -0.689689 0.421477 1.000000
tan -0.220534 -0.007688 0.976378 1.000000
tan -0.330151 -0.006510 0.937132 1.000000
tan -0.913572 0.401885 0.071610 1.000000
tan -0.069936 0.014260 1.002046 1.000000
tan -0.329469 0.013888 0.937132 1.000000
tan -0.009920 0.014570 1.002232 1.000000
tan -0.378015 0.116746 0.922252 1.000000
tan -0.449749 0.238205 0.854734 1.000000
tan -0.133920 0.007812 0.992126 1.000000
tan -0.012028 -0.030194 1.002232 1.000000
tan -0.051584 -0.079670 0.997210 1.000000
tan 0.220534 -0.007688 0.976378 1.000000
tan 0.036704 0.051894 0.997210 1.000000
tan 0.012028 -0.030194 1.002232 1.000000
tan 0.009920 0.014570 1.002232 1.000000
tan 0.674995 -0.496683 0.552483 1.000000
tan 0.577345 -0.689689 0.421477 1.000000
tan 0.953562 -0.285573 0.053320 1.000000
tan 0.330151 -0.006510 0.937132 1.000000
tan 0.913572 0.401885 0.071610 1.000000
tan 0.329469 0.013888 0.937132 1.000000
tan 0.378015 0.116746 0.922252 1.000000
tan 0.449749 0.238205 0.854734 1.000000
tan 0.133920 0.007812 0.992126 1.000000
tan 0.084940 -0.019158 0.994544 1.000000
tan -0.141794 0.007812 -0.992126 1.000000
tan -0.385393 0.112840 -0.914874 1.000000
tan -0.598921 0.676297 -0.413293 1.000000
tan -0.913572 0.386385 -0.069130 1.000000
tan -0.059024 -0.093558 -0.997210 1.000000
tan 0.212660 -0.007688 -0.976378 1.000000
tan -0.895282 0.126170 -0.426871 1.000000
tan 0.029264 0.038006 -0.997210 1.000000
tan -0.014136 -0.045818 -1.002232 1.000000
tan 0.283961 -0.042470 -0.955546 1.000000
tan 0.424949 -0.242421 -0.869862 1.000000
tan 0.953562 -0.293323 -0.054560 1.000000
tan 0.008866 0.006758 -1.002232 1.000000
tan 0.894476 -0.136586 -0.427677 1.000000
tan 0.913572 0.386385 -0.069130 1.000000
tan 0.895282 0.126170 -0.426871 1.000000
tan 0.014136 -0.045818 -1.002232 1.000000
tan 0.290409 0.028830 -0.955546 1.000000
tan 0.598921 0.676297 -0.413293 1.000000
tan 0.141794 0.007812 -0.992126 1.000000
tan 0.099944 -0.023994 -0.994544 1.000000
tan -0.212660 -0.007688 -0.976378 1.000000
tan -0.054932 0.009424 -1.002046 1.000000
tan -0.008866 0.006758 -1.002232 1.000000
tan -0.283961 -0.042470 -0.955546 1.000000
tan -0.424949 -0.242421 -0.869862 1.000000
tan -0.953562 -0.293323 -0.054560 1.000000
tan -0.894476 -0.136586 -0.427677 1.000000
f 3/3/3 2/2/2 1/1/1
f 2/2/2 3/3/3 4/4/4
f 5/5/5 4/4/4 3/3/3
f 4/4/4 5/5/5 6/6/6
f 7/7/7 6/6/6 5/5/5
f 8/8/8 7/7/7 5/5/5
f 9/9/9 7/7/7 8/8/8
f 7/7/7 9/9/9 10/10/10
f 9/9/9 11/11/11 10/10/10
f 12/12/12 10/10/10 11/11/11
f 12/12/12 11/11/11 13/13/13
f 11/11/11 14/14/14 13/13/13
f 14/14/14 15/15/15 13/13/13
f 16/16/16 13/13/13 15/15/15
f 17/17/17 16/16/16 15/15/15
f 16/16/16 17/17/17 18/18/18
f 19/19/19 18/18/18 17/17/17
f 20/20/20 19/19/19 17/17/17
f 21/21/21 19/19/19 20/20/20
f 19/19/19 21/21/21 22/22/22
f 23/23/23 22/22/22 21/21/21
f 22/22/22 23/23/23 24/24/24
f 25/25/25 24/24/24 23/23/23
f 26/26/26 25/25/25 23/23/23
f 29/29/29 28/28/28 27/27/27
f 29/29/29 30/30/30 28/28/28
f 31/31/31 27/27/27 28/28/28
f 27/27/27 31/31/31 32/32/32
f 33/33/33 28/28/28 30/30/30
f 32/32/32 31/31/31 34/34/34
f 31/31/31 28/28/28 35/35/35
f 31/31/31 35/35/35 34/34/34
f 33/33/33 35/35/35 28/28/28
f 34/34/34 36/36/36 32/32/32
f 37/37/37 32/32/32 36/36/36
f 37/37/37 36/36/36 38/38/38
f 39/39/39 34/34/34 35/35/35
f 34/34/34 39/39/39 36/36/36
f 40/40/40 38/38/38 36/36/36
f 40/40/40 36/36/36 39/39/39
f 40/40/40 41/41/41 38/38/38
f 39/39/39 42/42/42 40/40/40
f 42/42/42 41/41/41 40/40/40
f 35/35/35 43/43/43 39/39/39
f 33/33/33 43/43/43 35/35/35
f 44/44/44 42/42/42 39/39/39
f 44/44/44 39/39/39 43/43/43
f 42/42/42 45/45/45 41/41/41
f 42/42/42 44/44/44 45/45/45
f 46/46/46 41/41/41 45/45/45
f 46/46/46 45/45/45 47/47/47
f 48/48/48 47/47/47 45/45/45
f 48/48/48 45/45/45 44/44/44
f 47/47/47 48/48/48 49/49/49
f 44/44/44 50/50/50 48/48/48
f 49/49/49 48/48/48 50/50/50
f 50/50/50 44/44/44 43/43/43
f 50/50/50 51/51/51 49/49/49
f 50/50/50 43/43/43 51/51/51
f 52/52/52 49/49/49 51/51/51
f 52/52/52 51/51/51 53/53/53
f 54/54/54 51/51/51 43/43/43
f 54/54/54 53/53/53 51/51/51
f 54/54/54 43/43/43 33/33/33
f 53/53/53 54/54/54 30/30/30
f 33/33/33 30/30/30 54/54/54
f 57/57/57 56/56/56 55/55/55
f 57/57/57 58/58/58 56/56/56
f 59/59/59 55/55/55 56/56/56
f 59/59/59 60/60/60 55/55/55
f 61/61/61 56/56/56 58/58/58
f 62/62/62 60/60/60 59/59/59
f 59/59/59 56/56/56 63/63/63
f 63/63/63 62/62/62 59/59/59
f 61/61/61 63/63/63 56/56/56
f 62/62/62 64/64/64 60/60/60
f 65/65/65 60/60/60 64/64/64
f 65/65/65 64/64/64 66/66/66
f 62/62/62 67/67/67 64/64/64
f 67/67/67 62/62/62 63/63/63
f 68/68/68 66/66/66 64/64/64
f 68/68/68 64/64/64 67/67/67
f 68/68/68 69/69/69 66/66/66
f 68/68/68 67/67/67 70/70/70
f 70/70/70 69/69/69 68/68/68
f 71/71/71 67/67/67 63/63/63
f 71/71/71 70/70/70 67/67/67
f 70/70/70 72/72/72 69/69/69
f 70/70/70 71/71/71 72/72/72
f 73/73/73 69/69/69 72/72/72
f 73/73/73 72/72/72 74/74/74
f 75/75/75 74/74/74 72/72/72
f 75/75/75 72/72/72 71/71/71
f 74/74/74 75/75/75 76/76/76
f 75/75/75 71/71/71 77/77/77
f 77/77/77 76/76/76 75/75/75
f 63/63/63 78/78/78 71/71/71
f 77/77/77 71/71/71 78/78/78
f 61/61/61 78/78/78 63/63/63
f 77/77/77 79/79/79 76/76/76
f 77/77/77 78/78/78 79/79/79
f 80/80/80 76/76/76 79/79/79
f 80/80/80 79/79/79 81/81/81
f 78/78/78 61/61/61 82/82/82
f 82/82/82 79/79/79 78/78/78
f 82/82/82 81/81/81 79/79/79
f 61/61/61 58/58/58 82/82/82
f 82/82/82 58/58/58 81/81/81
