mtllib SM_SaucePan_Steel_Top_01_LOD2.mtl
g SM_SaucePan_Steel_Top_01_LOD2
#Vertices 122
#Indices 420
#Section 0 Offset 0 NumIndices 420 MaterialIndex 0 MI_SaucePan
v -0.030545 0.071154 -0.006901
v -0.016837 0.037397 -0.006755
v -0.019269 0.070842 -0.024675
v -0.001302 0.034995 -0.019148
v 0.013386 0.072604 -0.027921
v 0.014757 0.035182 -0.013432
v 0.028865 0.070225 -0.004453
v 0.018584 0.036433 0.002372
v 0.024396 0.070678 0.018435
v 0.009215 0.035334 0.017433
v 0.000396 0.069952 0.030165
v -0.011531 0.037152 0.012523
v -0.021923 0.071139 0.023317
v -0.030545 0.071154 -0.006901
v -0.016837 0.037397 -0.006755
v -0.030545 0.071154 -0.006901
v -0.019269 0.070842 -0.024675
v -0.021923 0.071139 0.023317
v 0.013386 0.072604 -0.027921
v 0.024396 0.070678 0.018435
v 0.028865 0.070225 -0.004453
v 0.000396 0.069952 0.030165
v -0.138194 0.004972 -0.044902
v -0.145305 0.004972 0.000000
v -0.139594 0.008320 0.043465
v -0.119061 0.012417 -0.086366
v -0.114834 0.003751 0.091895
v -0.056694 0.009450 0.135374
v -0.007606 0.037179 0.016758
v 0.000000 0.004972 0.145305
v 0.045195 0.011470 0.139933
v 0.117555 0.004972 0.085409
v 0.085408 0.004972 0.117555
v 0.139966 0.012664 0.045377
v 0.145305 0.004972 0.000000
v 0.139554 0.009448 -0.045103
v 0.043861 0.018603 -0.121855
v 0.117555 0.004972 -0.085408
v -0.085097 0.007271 -0.118508
v 0.085408 0.004972 -0.117555
v -0.044902 0.004972 -0.138194
v 0.044902 0.004972 -0.138194
v 0.000000 0.004972 -0.145305
v -0.056694 0.009450 0.135374
v -0.114834 0.003751 0.091895
v -0.068249 0.005954 0.137970
v 0.000000 0.004972 0.152039
v 0.000000 0.004972 0.145305
v 0.046983 0.004972 0.144598
v 0.045195 0.011470 0.139933
v 0.085408 0.004972 0.117555
v 0.089366 0.004972 0.123002
v 0.117555 0.004972 0.085409
v 0.138437 0.006949 0.070147
v 0.139966 0.012664 0.045377
v 0.152039 0.004972 0.000000
v 0.145305 0.004972 0.000000
v 0.139554 0.009448 -0.045103
v 0.137974 0.005383 -0.070233
v 0.117555 0.004972 -0.085408
v 0.085408 0.004972 -0.117555
v 0.084182 0.005313 -0.130056
v 0.046983 0.004972 -0.144598
v 0.044902 0.004972 -0.138194
v 0.000000 0.004972 -0.152039
v 0.000000 0.004972 -0.145305
v -0.044902 0.004972 -0.138194
v -0.049869 0.006701 -0.146946
v -0.085097 0.007271 -0.118508
v -0.109901 0.005352 -0.107744
v -0.119061 0.012417 -0.086366
v -0.138194 0.004972 -0.044902
v -0.144598 0.004972 -0.046983
v -0.152039 0.004972 0.000000
v -0.145305 0.004972 0.000000
v -0.139594 0.008320 0.043465
v -0.141627 0.006520 0.062089
v 0.084182 0.005313 -0.130056
v 0.000000 0.004972 -0.152039
v 0.046983 0.004972 -0.144598
v 0.000000 0.014057 -0.152039
v -0.049869 0.006701 -0.146946
v 0.015182 0.017262 -0.150113
v -0.060693 0.017292 -0.141096
v 0.089999 0.018016 -0.121358
v -0.121165 0.016681 -0.088031
v -0.123002 0.014057 -0.089366
v -0.109901 0.005352 -0.107744
v -0.144598 0.004972 -0.046983
v -0.152169 0.011376 -0.024041
v -0.152039 0.004972 0.000000
v -0.141627 0.006520 0.062089
v -0.152648 0.018729 -0.024460
v -0.136320 0.016689 0.066976
v -0.111224 0.014117 0.105383
v -0.114834 0.003751 0.091895
v -0.068249 0.005954 0.137970
v -0.016837 0.037397 -0.006755
v -0.011531 0.037152 0.012523
v -0.001302 0.034995 -0.019148
v 0.014757 0.035182 -0.013432
v 0.018584 0.036433 0.002372
v -0.088219 0.017389 0.121526
v -0.046983 0.014057 0.144598
v 0.000000 0.004972 0.152039
v 0.066680 0.018142 0.138669
v 0.009215 0.035334 0.017433
v -0.046281 0.016681 0.142438
v 0.000000 0.014057 0.152039
v 0.000000 0.016681 0.149768
v 0.070397 0.011051 0.137875
v 0.046983 0.004972 0.144598
v 0.089366 0.004972 0.123002
v 0.138437 0.006949 0.070147
v 0.123002 0.014057 0.089367
v 0.121165 0.016681 0.088032
v 0.153145 0.011715 0.023990
v 0.152039 0.004972 0.000000
v 0.137974 0.005383 -0.070233
v 0.146642 0.018837 -0.037779
v 0.130681 0.016553 -0.083577
v 0.121165 0.016681 -0.088031
vt 0.376709 -0.000977
vt 0.384766 0.010254
vt 0.371338 0.004395
vt 0.380371 0.017090
vt 0.364502 0.015137
vt 0.377441 0.023438
vt 0.362793 0.025879
vt 0.376221 0.029785
vt 0.362305 0.035156
vt 0.376953 0.037109
vt 0.364746 0.044922
vt 0.380127 0.045898
vt 0.367676 0.053223
vt 0.375244 0.062500
vt 0.385498 0.052734
vt -0.000360 0.014648
vt 0.000407 0.006348
vt 0.007927 0.023438
vt 0.011093 0.000000
vt 0.023010 0.013672
vt 0.020615 0.004883
vt 0.016830 0.021973
vt 0.476807 0.780884
vt 0.491455 0.770386
vt 0.507812 0.765137
vt 0.466553 0.795532
vt 0.529297 0.764404
vt 0.554688 0.777710
vt 0.521973 0.816162
vt 0.568848 0.795532
vt 0.573730 0.812500
vt 0.568848 0.847656
vt 0.574219 0.830566
vt 0.557617 0.862061
vt 0.543457 0.872803
vt 0.526367 0.878174
vt 0.483154 0.858154
vt 0.508301 0.878357
vt 0.460938 0.812988
vt 0.491455 0.872803
vt 0.460693 0.830566
vt 0.476807 0.862305
vt 0.466309 0.847656
vt 0.555176 0.776855
vt 0.529297 0.764404
vt 0.553711 0.772949
vt 0.570801 0.794312
vt 0.568848 0.795532
vt 0.576660 0.812134
vt 0.574707 0.812378
vt 0.574219 0.830566
vt 0.576660 0.830933
vt 0.568848 0.847656
vt 0.566406 0.857300
vt 0.558594 0.862793
vt 0.544922 0.875122
vt 0.543457 0.872803
vt 0.526367 0.878845
vt 0.517578 0.882568
vt 0.508301 0.878357
vt 0.491455 0.872803
vt 0.486816 0.874512
vt 0.475098 0.864136
vt 0.476807 0.862305
vt 0.463867 0.848877
vt 0.466309 0.847656
vt 0.460693 0.830566
vt 0.457031 0.830444
vt 0.460449 0.812866
vt 0.459961 0.802124
vt 0.465576 0.795166
vt 0.476807 0.780884
vt 0.475098 0.779053
vt 0.490234 0.768066
vt 0.491455 0.770386
vt 0.507812 0.764526
vt 0.513672 0.760986
vt 0.150513 0.744385
vt 0.143555 0.709717
vt 0.149658 0.728516
vt 0.140381 0.711182
vt 0.130981 0.693115
vt 0.142090 0.717041
vt 0.125488 0.692383
vt 0.145142 0.748047
vt 0.096497 0.680908
vt 0.096680 0.679443
vt 0.106445 0.677734
vt 0.077454 0.676025
vt 0.068420 0.680420
vt 0.058716 0.682129
vt 0.039093 0.698486
vt 0.068909 0.681152
vt 0.040070 0.702881
vt 0.030762 0.718506
vt 0.029739 0.712402
vt 0.023926 0.738770
vt 0.086670 0.731445
vt 0.081177 0.736572
vt 0.093689 0.734619
vt 0.094543 0.740967
vt 0.089722 0.745117
vt 0.029709 0.729248
vt 0.028503 0.747559
vt 0.031143 0.766968
vt 0.051117 0.785767
vt 0.082947 0.744629
vt 0.029831 0.747559
vt 0.034241 0.765381
vt 0.035461 0.764771
vt 0.051392 0.788086
vt 0.042725 0.782959
vt 0.058716 0.794556
vt 0.087341 0.801514
vt 0.078003 0.797119
vt 0.078247 0.795776
vt 0.106445 0.796509
vt 0.116028 0.794556
vt 0.138916 0.775879
vt 0.126221 0.782471
vt 0.139404 0.769409
vt 0.139282 0.764771
vt1 0.046936 0.207520
vt1 0.009483 0.262207
vt1 0.071716 0.234375
vt1 0.029892 0.294434
vt1 0.103760 0.284668
vt1 0.042572 0.323242
vt1 0.111633 0.335449
vt1 0.049103 0.353027
vt1 0.113892 0.377441
vt1 0.045013 0.386719
vt1 0.102661 0.423828
vt1 0.030594 0.428223
vt1 0.088562 0.461914
vt1 0.053802 0.505127
vt1 0.005756 0.460938
vt1 0.627441 0.957367
vt1 0.623535 0.919189
vt1 0.588867 0.998155
vt1 0.573730 0.887329
vt1 0.518555 0.952667
vt1 0.529297 0.911865
vt1 0.546875 0.991821
vt1 0.906738 0.101562
vt1 0.838867 0.052246
vt1 0.762207 0.027344
vt1 0.954590 0.169434
vt1 0.662109 0.024414
vt1 0.543945 0.086426
vt1 0.696777 0.265625
vt1 0.478271 0.169434
vt1 0.453613 0.248535
vt1 0.478271 0.412598
vt1 0.452393 0.333008
vt1 0.528809 0.479492
vt1 0.595215 0.529541
vt1 0.674805 0.554932
vt1 0.877441 0.461914
vt1 0.758789 0.555664
vt1 0.980957 0.250977
vt1 0.838867 0.529541
vt1 0.981934 0.333008
vt1 0.906250 0.480469
vt1 0.955566 0.412598
vt1 0.541504 0.082031
vt1 0.662109 0.023926
vt1 0.548340 0.064453
vt1 0.467529 0.163574
vt1 0.478271 0.169434
vt1 0.440430 0.247070
vt1 0.449219 0.248047
vt1 0.452393 0.333008
vt1 0.440430 0.334961
vt1 0.478271 0.412598
vt1 0.488770 0.457520
vt1 0.525391 0.482910
vt1 0.589844 0.540527
vt1 0.595215 0.529541
vt1 0.674316 0.557861
vt1 0.716797 0.575195
vt1 0.758789 0.555664
vt1 0.838867 0.529541
vt1 0.859863 0.537842
vt1 0.915039 0.489258
vt1 0.906250 0.480469
vt1 0.966797 0.417969
vt1 0.955566 0.412598
vt1 0.981934 0.333008
vt1 0.999512 0.332031
vt1 0.982910 0.250488
vt1 0.985352 0.200195
vt1 0.958496 0.167969
vt1 0.906738 0.101562
vt1 0.915039 0.092773
vt1 0.844238 0.041504
vt1 0.838867 0.052246
vt1 0.762207 0.025391
vt1 0.733398 0.008301
vt1 0.589355 0.733887
vt1 0.556641 0.571777
vt1 0.584961 0.659424
vt1 0.541992 0.579102
vt1 0.498291 0.494141
vt1 0.549805 0.606201
vt1 0.472656 0.491699
vt1 0.564453 0.750854
vt1 0.337158 0.437012
vt1 0.338135 0.431152
vt1 0.383545 0.423340
vt1 0.248535 0.414551
vt1 0.206421 0.435547
vt1 0.161011 0.443359
vt1 0.069519 0.519531
vt1 0.208496 0.438965
vt1 0.074036 0.539795
vt1 0.030670 0.612305
vt1 0.025879 0.583984
vt1 -0.001179 0.707764
vt1 0.291504 0.673340
vt1 0.265625 0.697266
vt1 0.324219 0.687744
vt1 0.328125 0.718262
vt1 0.305664 0.736572
vt1 0.025772 0.662842
vt1 0.020111 0.748779
vt1 0.032410 0.838989
vt1 0.125610 0.926819
vt1 0.274170 0.734131
vt1 0.026306 0.747803
vt1 0.046967 0.831543
vt1 0.052582 0.828735
vt1 0.126831 0.937805
vt1 0.086548 0.913452
vt1 0.161011 0.967590
vt1 0.294434 1.000389
vt1 0.250977 0.979889
vt1 0.251953 0.973694
vt1 0.383545 0.976822
vt1 0.428223 0.967590
vt1 0.535156 0.880798
vt1 0.475830 0.911560
vt1 0.537109 0.850342
vt1 0.536621 0.828735
vn -0.952756 -0.212598 -0.204724
vn -0.858268 -0.251969 -0.440945
vn -0.622047 -0.212598 -0.755905
vn -0.055118 -0.259843 -0.960630
vn 0.433071 -0.212599 -0.874016
vn 0.716535 -0.251969 -0.645669
vn 0.960630 -0.220472 -0.165354
vn 0.952756 -0.259842 0.141732
vn 0.755906 -0.212598 0.614173
vn 0.480315 -0.251968 0.842520
vn 0.023622 -0.212598 0.976378
vn -0.669291 -0.259842 0.700787
vn -0.677165 -0.220472 0.700787
vn -0.952756 -0.204724 -0.228346
vn -0.905512 -0.259843 -0.330709
vn -0.858268 0.503937 -0.102362
vn -0.204724 0.937008 -0.291339
vn -0.228346 0.944882 0.244094
vn 0.102362 0.944882 -0.307087
vn 0.275591 0.937008 0.204724
vn 0.724409 0.677165 -0.110236
vn 0.000000 0.692913 0.724409
vn 0.448819 -0.881890 0.149606
vn 0.472441 -0.881890 0.000000
vn 0.385827 -0.913386 -0.118110
vn 0.299213 -0.929134 0.212599
vn 0.393701 -0.866142 -0.307086
vn 0.149606 -0.921260 -0.362205
vn 0.000000 -1.000000 -0.039370
vn 0.000000 -0.881890 -0.472441
vn -0.110236 -0.929134 -0.354331
vn -0.385827 -0.881890 -0.275590
vn -0.275591 -0.881890 -0.385827
vn -0.346457 -0.929134 -0.102362
vn -0.472441 -0.881890 0.000000
vn -0.377953 -0.913386 0.125984
vn -0.102362 -0.952756 0.283465
vn -0.385827 -0.881890 0.275591
vn 0.251969 -0.905512 0.346457
vn -0.275591 -0.881890 0.385827
vn 0.149606 -0.881890 0.448819
vn -0.149606 -0.881890 0.448819
vn 0.000000 -0.881890 0.472441
vn 0.000000 -1.000000 0.000000
vn 0.000000 -1.000000 0.000000
vn 0.000000 -1.000000 0.000000
vn 0.000000 -1.000000 0.000000
vn 0.000000 -1.000000 0.000000
vn 0.000000 -1.000000 0.000000
vn 0.000000 -1.000000 0.000000
vn 0.000000 -1.000000 0.000000
vn 0.000000 -1.000000 0.000000
vn 0.000000 -1.000000 0.000000
vn 0.000000 -1.000000 0.000000
vn 0.000000 -1.000000 0.000000
vn 0.000000 -1.000000 0.000000
vn 0.000000 -1.000000 0.000000
vn 0.000000 -1.000000 0.000000
vn 0.000000 -1.000000 0.000000
vn 0.000000 -1.000000 0.000000
vn 0.000000 -1.000000 0.000000
vn 0.000000 -1.000000 0.000000
vn 0.000000 -1.000000 0.000000
vn 0.000000 -1.000000 0.000000
vn 0.000000 -1.000000 0.000000
vn 0.000000 -1.000000 0.000000
vn 0.000000 -1.000000 0.000000
vn 0.000000 -1.000000 0.000000
vn 0.000000 -1.000000 0.000000
vn 0.000000 -1.000000 0.000000
vn 0.000000 -1.000000 0.000000
vn 0.000000 -1.000000 0.000000
vn 0.000000 -1.000000 0.000000
vn 0.000000 -1.000000 0.000000
vn 0.000000 -1.000000 0.000000
vn 0.000000 -1.000000 0.000000
vn 0.000000 -1.000000 0.000000
vn 0.527559 -0.007874 -0.850394
vn 0.000000 -0.000000 -1.000000
vn 0.307087 -0.000000 -0.952756
vn 0.000000 0.181102 -0.984252
vn -0.338583 0.015748 -0.937008
vn 0.007874 0.952756 -0.299213
vn -0.094488 0.976378 -0.188976
vn 0.125984 0.976378 -0.173228
vn -0.220472 0.960630 -0.157480
vn -0.795276 0.181102 -0.574803
vn -0.708661 0.015748 -0.700787
vn -0.952756 -0.000000 -0.307087
vn -0.976378 0.149606 -0.157480
vn -1.000000 0.000000 0.000000
vn -0.913386 0.015748 0.401575
vn -0.212598 0.976378 -0.039370
vn -0.251969 0.960630 0.110236
vn -0.708661 0.181102 0.677165
vn -0.779528 -0.039370 0.622047
vn -0.440945 0.007874 0.897638
vn -0.070866 0.992126 -0.078740
vn -0.055118 0.992126 0.078740
vn 0.000000 0.992126 -0.094488
vn 0.070866 0.992126 -0.062992
vn 0.110236 0.992126 0.015748
vn -0.118110 0.976378 0.165354
vn -0.307087 0.181102 0.937008
vn 0.000000 0.000000 1.000000
vn 0.086614 0.976378 0.188976
vn 0.047244 0.992126 0.086614
vn -0.086614 0.960630 0.259842
vn 0.000000 0.181102 0.984252
vn 0.000000 0.960630 0.275590
vn 0.464567 0.125984 0.874016
vn 0.307087 0.000000 0.952756
vn 0.590551 0.000000 0.811023
vn 0.889764 0.023622 0.456693
vn 0.795276 0.181102 0.574803
vn 0.220472 0.960630 0.157480
vn 0.976378 0.133858 0.149606
vn 1.000000 0.000000 0.000000
vn 0.889764 0.007874 -0.448819
vn 0.196850 0.976378 -0.062992
vn 0.834646 0.204724 -0.511811
vn 0.220472 0.960630 -0.157480
tan -0.291773 0.780209 0.547647 1.000000
tan -0.508401 0.368219 0.779155 1.000000
tan -0.754975 0.103974 0.592039 1.000000
tan -0.794222 0.537045 -0.099696 1.000000
tan -0.825842 0.275280 -0.476161 1.000000
tan -0.643685 0.056482 -0.736375 1.000000
tan -0.143220 0.090768 -0.953066 1.000000
tan 0.165168 0.090024 -0.945254 1.000000
tan 0.617521 0.007068 -0.757579 1.000000
tan 0.831236 -0.148800 -0.518383 1.000000
tan 0.891810 -0.407465 -0.110298 1.000000
tan 0.730051 -0.139252 0.645607 1.000000
tan 0.714365 -0.091760 0.661417 1.000000
tan 0.032984 -0.772707 0.555149 1.000000
tan -0.068820 -0.618389 0.674313 1.000000
tan 0.507657 0.798561 -0.325129 1.000000
tan 0.346767 -0.194928 -0.870606 1.000000
tan 0.416641 0.319797 -0.848162 1.000000
tan 0.364561 -0.322401 -0.870482 1.000000
tan 0.457437 0.044392 -0.818959 1.000000
tan 0.632277 -0.720193 -0.269080 1.000000
tan 0.056048 0.724409 -0.692913 1.000000
tan -0.839296 -0.368715 0.344411 1.000000
tan -0.826338 -0.442681 0.324633 1.000000
tan -0.863042 -0.402691 0.294873 1.000000
tan -0.863290 -0.199330 0.343853 1.000000
tan -0.779900 -0.488809 0.378821 1.000000
tan -0.718147 -0.344783 0.580321 1.000000
tan -0.889764 -0.017670 0.448819 1.000000
tan -0.760866 -0.282720 0.527745 1.000000
tan -0.719759 -0.140926 0.593465 1.000000
tan -0.838056 0.243909 0.392771 1.000000
tan -0.815488 0.056420 0.453531 1.000000
tan -0.885238 0.300267 0.270692 1.000000
tan -0.826338 0.442681 0.324633 1.000000
tan -0.870234 0.398785 0.280488 1.000000
tan -0.780210 0.246761 0.547647 1.000000
tan -0.795958 0.470023 0.389733 1.000000
tan -0.782628 -0.038936 0.467419 1.000000
tan -0.771220 0.437907 0.450059 1.000000
tan -0.785789 0.124868 0.507285 1.000000
tan -0.750697 0.381673 0.499721 1.000000
tan -0.760866 0.282721 0.527745 1.000000
tan -0.897638 0.000000 0.448819 1.000000
tan -0.889764 0.000000 0.448819 1.000000
tan -0.897638 0.000000 0.448819 1.000000
tan -0.897638 0.000000 0.448819 1.000000
tan -0.897638 0.000000 0.448819 1.000000
tan -0.889764 0.000000 0.448819 1.000000
tan -0.889764 0.000000 0.448819 1.000000
tan -0.889764 0.000000 0.456693 1.000000
tan -0.889764 0.000000 0.456693 1.000000
tan -0.889764 0.000000 0.464567 1.000000
tan -0.889764 0.000000 0.464567 1.000000
tan -0.889764 0.000000 0.464567 1.000000
tan -0.889764 0.000000 0.464567 1.000000
tan -0.889764 0.000000 0.464567 1.000000
tan -0.889764 0.000000 0.456693 1.000000
tan -0.889764 0.000000 0.456693 1.000000
tan -0.889764 0.000000 0.448819 1.000000
tan -0.897638 0.000000 0.448819 1.000000
tan -0.897638 0.000000 0.448819 1.000000
tan -0.897638 0.000000 0.440945 1.000000
tan -0.897638 0.000000 0.448819 1.000000
tan -0.897638 0.000000 0.448819 1.000000
tan -0.897638 0.000000 0.448819 1.000000
tan -0.889764 0.000000 0.456693 1.000000
tan -0.897638 0.000000 0.448819 1.000000
tan -0.889764 0.000000 0.456693 1.000000
tan -0.889764 0.000000 0.456693 1.000000
tan -0.889764 0.000000 0.464567 1.000000
tan -0.889764 0.000000 0.464567 1.000000
tan -0.889764 0.000000 0.464567 1.000000
tan -0.889764 0.000000 0.464567 1.000000
tan -0.889764 0.000000 0.464567 1.000000
tan -0.889764 0.000000 0.456693 1.000000
tan -0.889764 0.000000 0.456693 1.000000
tan -0.850518 0.018476 -0.527807 1.000000
tan -0.866142 -0.503937 0.000000 1.000000
tan -0.930250 -0.197470 -0.299833 1.000000
tan -0.892678 -0.426251 -0.078430 1.000000
tan -0.767190 -0.535929 0.268213 1.000000
tan -0.772708 -0.170314 -0.562651 1.000000
tan -0.837994 -0.177816 -0.499721 1.000000
tan -0.861058 0.027900 -0.468969 1.000000
tan -0.854734 -0.268089 -0.438713 1.000000
tan -0.334553 -0.903962 0.178064 1.000000
tan -0.504805 -0.699361 0.494761 1.000000
tan 0.079794 -0.932420 -0.247566 1.000000
tan -0.099076 -0.937938 -0.276768 1.000000
tan 0.000000 -0.842520 -0.535433 1.000000
tan -0.364499 -0.420299 -0.812573 1.000000
tan -0.907186 -0.212102 -0.361337 1.000000
tan -0.892554 -0.192448 -0.363073 1.000000
tan -0.697501 -0.132432 -0.694525 1.000000
tan -0.613429 -0.088350 -0.774319 1.000000
tan -0.897576 0.038812 -0.441255 1.000000
tan -0.882758 -0.099014 -0.453097 1.000000
tan -0.882758 -0.013082 -0.453097 1.000000
tan -0.874946 -0.043896 -0.460909 1.000000
tan -0.882758 0.034782 -0.445285 1.000000
tan -0.898382 0.106640 -0.429661 1.000000
tan -0.861058 -0.026040 -0.461281 1.000000
tan -0.932482 0.127968 -0.330337 1.000000
tan -0.866142 0.503937 -0.000000 1.000000
tan -0.830306 0.173352 -0.515097 1.000000
tan -0.882758 0.082274 -0.460909 1.000000
tan -0.830616 0.058652 -0.493707 1.000000
tan -0.892678 0.426251 -0.078430 1.000000
tan -0.813690 0.149730 -0.521917 1.000000
tan -0.692169 0.551429 0.288424 1.000000
tan -0.690185 0.659929 0.222456 1.000000
tan -0.510881 0.750263 0.372001 1.000000
tan -0.009238 0.907744 -0.028954 1.000000
tan -0.334553 0.903962 0.178064 1.000000
tan -0.854734 0.268088 -0.438713 1.000000
tan -0.083948 0.930250 -0.284457 1.000000
tan 0.000000 0.842520 -0.535433 1.000000
tan -0.426623 0.290780 -0.840660 1.000000
tan -0.907186 0.160084 -0.353649 1.000000
tan -0.548887 0.356377 -0.752557 1.000000
tan -0.879906 0.135656 -0.404365 1.000000
f 3/3/3 2/2/2 1/1/1
f 3/3/3 4/4/4 2/2/2
f 5/5/5 4/4/4 3/3/3
f 4/4/4 5/5/5 6/6/6
f 7/7/7 6/6/6 5/5/5
f 6/6/6 7/7/7 8/8/8
f 9/9/9 8/8/8 7/7/7
f 8/8/8 9/9/9 10/10/10
f 9/9/9 11/11/11 10/10/10
f 10/10/10 11/11/11 12/12/12
f 13/13/13 12/12/12 11/11/11
f 13/13/13 14/14/14 12/12/12
f 12/12/12 14/14/14 15/15/15
f 18/18/18 17/17/17 16/16/16
f 18/18/18 19/19/19 17/17/17
f 18/18/18 20/20/20 19/19/19
f 21/21/21 19/19/19 20/20/20
f 20/20/20 18/18/18 22/22/22
f 25/25/25 24/24/24 23/23/23
f 23/23/23 26/26/26 25/25/25
f 28/28/28 27/27/27 25/25/25
f 29/29/29 25/25/25 26/26/26
f 25/25/25 29/29/29 28/28/28
f 31/31/31 30/30/30 28/28/28
f 29/29/29 31/31/31 28/28/28
f 33/33/33 31/31/31 32/32/32
f 34/34/34 32/32/32 31/31/31
f 31/31/31 29/29/29 34/34/34
f 36/36/36 35/35/35 34/34/34
f 34/34/34 29/29/29 37/37/37
f 37/37/37 36/36/36 34/34/34
f 37/37/37 29/29/29 26/26/26
f 38/38/38 36/36/36 37/37/37
f 26/26/26 39/39/39 37/37/37
f 37/37/37 40/40/40 38/38/38
f 39/39/39 41/41/41 37/37/37
f 37/37/37 42/42/42 40/40/40
f 43/43/43 37/37/37 41/41/41
f 37/37/37 43/43/43 42/42/42
f 46/46/46 45/45/45 44/44/44
f 46/46/46 44/44/44 47/47/47
f 48/48/48 47/47/47 44/44/44
f 47/47/47 48/48/48 49/49/49
f 50/50/50 49/49/49 48/48/48
f 49/49/49 50/50/50 51/51/51
f 51/51/51 52/52/52 49/49/49
f 52/52/52 51/51/51 53/53/53
f 53/53/53 54/54/54 52/52/52
f 53/53/53 55/55/55 54/54/54
f 54/54/54 55/55/55 56/56/56
f 57/57/57 56/56/56 55/55/55
f 57/57/57 58/58/58 56/56/56
f 59/59/59 56/56/56 58/58/58
f 60/60/60 59/59/59 58/58/58
f 59/59/59 60/60/60 61/61/61
f 61/61/61 62/62/62 59/59/59
f 62/62/62 61/61/61 63/63/63
f 64/64/64 63/63/63 61/61/61
f 63/63/63 64/64/64 65/65/65
f 66/66/66 65/65/65 64/64/64
f 66/66/66 67/67/67 65/65/65
f 68/68/68 65/65/65 67/67/67
f 67/67/67 69/69/69 68/68/68
f 70/70/70 68/68/68 69/69/69
f 71/71/71 70/70/70 69/69/69
f 70/70/70 71/71/71 72/72/72
f 73/73/73 70/70/70 72/72/72
f 73/73/73 72/72/72 74/74/74
f 75/75/75 74/74/74 72/72/72
f 74/74/74 75/75/75 76/76/76
f 76/76/76 77/77/77 74/74/74
f 77/77/77 76/76/76 45/45/45
f 80/80/80 79/79/79 78/78/78
f 79/79/79 81/81/81 78/78/78
f 79/79/79 82/82/82 81/81/81
f 78/78/78 81/81/81 83/83/83
f 84/84/84 81/81/81 82/82/82
f 81/81/81 84/84/84 83/83/83
f 83/83/83 85/85/85 78/78/78
f 85/85/85 83/83/83 84/84/84
f 84/84/84 82/82/82 86/86/86
f 86/86/86 82/82/82 87/87/87
f 82/82/82 88/88/88 87/87/87
f 88/88/88 89/89/89 87/87/87
f 90/90/90 87/87/87 89/89/89
f 87/87/87 90/90/90 86/86/86
f 89/89/89 91/91/91 90/90/90
f 90/90/90 91/91/91 92/92/92
f 86/86/86 93/93/93 84/84/84
f 93/93/93 86/86/86 90/90/90
f 92/92/92 94/94/94 90/90/90
f 90/90/90 94/94/94 93/93/93
f 95/95/95 94/94/94 92/92/92
f 95/95/95 92/92/92 96/96/96
f 96/96/96 97/97/97 95/95/95
f 98/98/98 84/84/84 93/93/93
f 98/98/98 85/85/85 84/84/84
f 99/99/99 98/98/98 93/93/93
f 98/98/98 100/100/100 85/85/85
f 101/101/101 85/85/85 100/100/100
f 85/85/85 101/101/101 102/102/102
f 99/99/99 93/93/93 103/103/103
f 93/93/93 94/94/94 103/103/103
f 103/103/103 94/94/94 95/95/95
f 95/95/95 97/97/97 104/104/104
f 95/95/95 104/104/104 103/103/103
f 104/104/104 97/97/97 105/105/105
f 99/99/99 103/103/103 106/106/106
f 106/106/106 107/107/107 99/99/99
f 102/102/102 107/107/107 106/106/106
f 108/108/108 103/103/103 104/104/104
f 103/103/103 108/108/108 106/106/106
f 109/109/109 104/104/104 105/105/105
f 104/104/104 109/109/109 108/108/108
f 110/110/110 106/106/106 108/108/108
f 110/110/110 108/108/108 109/109/109
f 110/110/110 109/109/109 106/106/106
f 109/109/109 105/105/105 111/111/111
f 111/111/111 106/106/106 109/109/109
f 112/112/112 111/111/111 105/105/105
f 112/112/112 113/113/113 111/111/111
f 113/113/113 114/114/114 111/111/111
f 115/115/115 111/111/111 114/114/114
f 111/111/111 116/116/116 106/106/106
f 115/115/115 116/116/116 111/111/111
f 115/115/115 114/114/114 117/117/117
f 115/115/115 117/117/117 116/116/116
f 117/117/117 114/114/114 118/118/118
f 117/117/117 118/118/118 119/119/119
f 120/120/120 106/106/106 116/116/116
f 120/120/120 116/116/116 117/117/117
f 102/102/102 106/106/106 120/120/120
f 102/102/102 120/120/120 85/85/85
f 119/119/119 121/121/121 117/117/117
f 120/120/120 117/117/117 121/121/121
f 121/121/121 119/119/119 78/78/78
f 85/85/85 121/121/121 78/78/78
f 120/120/120 121/121/121 122/122/122
f 121/121/121 85/85/85 122/122/122
f 122/122/122 85/85/85 120/120/120
