mtllib SM_Shelf_LOD3.mtl
g SM_Shelf_LOD3
#Vertices 20
#Indices 42
#Section 0 Offset 0 NumIndices 42 MaterialIndex 0 MI_Shelf
v -0.403921 0.036664 -0.134129
v -0.403500 -0.000666 0.132090
v -0.402799 -0.002470 -0.129041
v -0.402347 0.037737 0.129658
v 0.404195 -0.002443 0.138022
v -0.403500 -0.000666 0.132090
v -0.402347 0.037737 0.129658
v 0.401089 0.036143 0.127951
v -0.403921 0.036664 -0.134129
v 0.402904 0.035836 -0.136347
v 0.410670 0.026622 -0.145945
v -0.402799 -0.002470 -0.129041
v 0.401089 -0.000000 -0.127951
v -0.403500 -0.000666 0.132090
v 0.404195 -0.002443 0.138022
v 0.401089 -0.000000 -0.127951
v 0.404195 -0.002443 0.138022
v 0.410670 0.026622 -0.145945
v 0.402904 0.035836 -0.136347
v 0.401089 0.036143 0.127951
vt 0.862305 0.349121
vt 0.912598 0.018066
vt 0.914551 0.343262
vt 0.854980 0.018555
vt 0.009003 1.003811
vt 0.005623 -0.001953
vt 0.062622 -0.000977
vt 0.065735 0.999991
vt 0.392334 -0.002930
vt 0.395020 1.002205
vt 0.408691 1.011864
vt 0.447754 -0.001953
vt 0.450195 0.999937
vt 0.773926 -0.002930
vt 0.781738 1.003759
vt 0.841797 0.020508
vt 0.840332 0.354980
vt 0.803223 0.000488
vt 0.784180 0.010742
vt 0.783691 0.344238
vt1 0.902832 0.759644
vt1 0.977539 0.266602
vt1 0.979980 0.750977
vt1 0.891602 0.267578
vt1 0.016922 0.995686
vt1 0.013596 0.005371
vt1 0.069702 0.006836
vt1 0.072754 0.991928
vt1 0.394043 0.004883
vt1 0.396729 0.994110
vt1 0.410156 1.003611
vt1 0.448730 0.006348
vt1 0.450928 0.991875
vt1 0.769531 0.005371
vt1 0.776855 0.995636
vt1 0.874512 0.479980
vt1 0.872559 0.978043
vt1 0.816895 0.450195
vt1 0.788086 0.465820
vt1 0.787598 0.962006
vn -0.763780 0.645669 -0.039370
vn -0.700787 -0.716535 0.039370
vn -0.622047 -0.779527 -0.055118
vn 0.031496 1.000000 0.023622
vn 0.000000 -0.716535 0.700787
vn 0.000000 -0.905512 0.425197
vn 0.000000 0.984252 0.165354
vn 0.000000 1.000000 0.007874
vn 0.000000 1.000000 -0.070866
vn 0.000000 1.000000 -0.039370
vn 0.007874 0.110236 -0.992126
vn 0.000000 -0.984252 -0.188976
vn 0.000000 -1.000000 -0.007874
vn 0.000000 -1.000000 0.007874
vn 0.000000 -1.000000 0.007874
vn 0.000000 -1.000000 -0.007874
vn 0.803150 -0.590551 0.055118
vn 0.968504 0.212598 -0.110236
vn 0.188976 0.984252 -0.023622
vn 0.000000 1.000000 0.007874
tan -0.209436 -0.194866 0.867258 1.000000
tan 0.191766 -0.135904 0.939984 1.000000
tan -0.423585 0.278629 0.839853 1.000000
tan 0.228346 -0.030256 0.976378 1.000000
tan -0.999752 0.000000 0.000000 1.000000
tan -0.961560 0.000000 0.000000 1.000000
tan -0.985554 0.000000 0.000000 1.000000
tan -1.000000 0.000000 0.000000 1.000000
tan -1.000000 0.000000 0.000000 1.000000
tan -1.000000 0.000000 0.000000 1.000000
tan -0.992126 -0.000000 -0.007874 1.000000
tan -0.985740 0.000000 0.000000 1.000000
tan -1.000000 0.000000 0.000000 1.000000
tan -1.000000 0.000000 0.000000 1.000000
tan -1.000000 0.000000 0.000000 1.000000
tan -0.141732 0.007812 -0.992126 1.000000
tan 0.236344 0.238638 -0.887036 1.000000
tan -0.071672 -0.168640 -0.954926 1.000000
tan -0.209436 0.017112 -0.962490 1.000000
tan 0.141732 0.007812 -0.992126 1.000000
f 3/3/3 2/2/2 1/1/1
f 1/1/1 2/2/2 4/4/4
f 7/7/7 6/6/6 5/5/5
f 5/5/5 8/8/8 7/7/7
f 7/7/7 8/8/8 9/9/9
f 8/8/8 10/10/10 9/9/9
f 11/11/11 9/9/9 10/10/10
f 12/12/12 9/9/9 11/11/11
f 13/13/13 12/12/12 11/11/11
f 14/14/14 12/12/12 13/13/13
f 15/15/15 14/14/14 13/13/13
f 18/18/18 17/17/17 16/16/16
f 19/19/19 17/17/17 18/18/18
f 20/20/20 17/17/17 19/19/19
