mtllib SM_Soap_02_LOD1.mtl
g SM_Soap_02_LOD1
#Vertices 28
#Indices 66
#Section 0 Offset 0 NumIndices 66 MaterialIndex 0 MI_Soap
v 0.033935 -0.000000 -0.033935
v 0.036155 0.000303 0.038143
v 0.037777 0.002122 -0.036800
v 0.037768 0.073303 0.036824
v 0.035906 0.074660 -0.038496
v 0.033935 0.075410 0.033935
v -0.037768 0.073304 -0.036823
v -0.037316 0.000256 -0.035754
v -0.033935 0.003770 -0.037705
v -0.036933 -0.000910 0.036301
v -0.037314 0.075156 0.035755
v -0.033935 0.071640 0.037705
v -0.033935 0.075410 -0.033935
v 0.036155 0.000303 0.038143
v -0.036933 -0.000910 0.036301
v -0.033935 0.071640 0.037705
v 0.037768 0.073303 0.036824
v 0.033935 0.075410 0.033935
v -0.037314 0.075156 0.035755
v -0.033935 0.075410 -0.033935
v 0.035906 0.074660 -0.038496
v -0.037768 0.073304 -0.036823
v -0.033935 0.003770 -0.037705
v 0.037777 0.002122 -0.036800
v 0.033935 -0.000000 -0.033935
v -0.037316 0.000256 -0.035754
v -0.036933 -0.000910 0.036301
v 0.036155 0.000303 0.038143
vt 0.694824 0.741699
vt 0.697754 0.506592
vt 0.706543 0.748535
vt 0.933594 0.507812
vt 0.941406 0.750854
vt 0.945312 0.514648
vt 0.668457 0.585449
vt 0.432861 0.588867
vt 0.441650 0.577637
vt 0.428955 0.821777
vt 0.674316 0.819946
vt 0.665527 0.831055
vt 0.680176 0.592529
vt 0.234741 0.940338
vt -0.001513 0.946442
vt 0.006153 0.712158
vt 0.237915 0.704590
vt 0.225342 0.692871
vt -0.004871 0.700684
vt 0.004101 0.475586
vt 0.229736 0.463867
vt -0.008392 0.463867
vt 0.002050 0.238770
vt 0.233765 0.231445
vt 0.221313 0.219727
vt -0.008980 0.227539
vt -0.009758 -0.004883
vt 0.226440 -0.012695
vt1 0.013412 0.964020
vt1 0.018799 0.520508
vt1 0.035889 0.977020
vt1 0.463867 0.522705
vt1 0.478516 0.981537
vt1 0.486328 0.535889
vt1 0.464111 0.028320
vt1 0.019409 0.034668
vt1 0.036224 0.013672
vt1 0.012344 0.474121
vt1 0.475098 0.471191
vt1 0.458252 0.491699
vt1 0.486328 0.041992
vt1 0.751465 0.983292
vt1 0.506348 0.989624
vt1 0.514160 0.746582
vt1 0.754395 0.738770
vt1 0.741699 0.726807
vt1 0.502930 0.734863
vt1 0.512207 0.501221
vt1 0.746094 0.488770
vt1 0.499268 0.489258
vt1 0.509766 0.255859
vt1 0.750488 0.248047
vt1 0.737305 0.235840
vt1 0.498535 0.244141
vt1 0.497803 0.002441
vt1 0.742676 -0.005859
vn 0.047244 -1.000000 -0.047244
vn 0.976378 -0.157480 0.141732
vn 0.992126 -0.070866 -0.094488
vn 0.992126 0.070866 0.094488
vn 0.976378 0.157480 -0.149606
vn 0.047244 1.000000 0.047244
vn -0.992126 0.070866 -0.094488
vn -0.984252 -0.141732 -0.078740
vn -0.047244 -0.047244 -1.000000
vn -0.992126 -0.102362 0.102362
vn -0.984252 0.141732 0.078740
vn -0.047244 0.047244 1.000000
vn -0.047244 1.000000 -0.047244
vn 0.055118 -0.094488 0.992126
vn -0.062992 -0.141732 0.992126
vn -0.047244 0.047244 1.000000
vn 0.055118 0.078740 0.992126
vn 0.047244 1.000000 0.047244
vn -0.055118 0.992126 0.070866
vn -0.047244 1.000000 -0.047244
vn 0.070866 0.456693 -0.889764
vn -0.055118 0.078740 -0.992126
vn -0.047244 -0.047244 -1.000000
vn 0.055118 -0.078740 -0.992126
vn 0.047244 -1.000000 -0.047244
vn -0.055118 -0.992126 -0.070866
vn -0.055118 -1.000000 0.055118
vn 0.055118 -1.000000 0.055118
tan 0.102362 -0.042036 0.992126 1.000000
tan -0.142972 -0.007688 0.976378 1.000000
tan 0.097836 0.046872 0.992126 1.000000
tan -0.097836 0.046872 0.992126 1.000000
tan 0.150846 -0.007688 0.976378 1.000000
tan -0.102362 -0.042036 0.992126 1.000000
tan 0.096720 0.031248 -0.992126 1.000000
tan 0.082088 -0.023250 -0.984252 1.000000
tan 0.968504 0.236220 -0.056916 1.000000
tan -0.106392 0.039060 -0.992126 1.000000
tan -0.082088 -0.023250 -0.984252 1.000000
tan -0.968504 0.236220 -0.056916 1.000000
tan 0.086614 -0.043152 -1.000000 1.000000
tan 0.007812 0.992126 0.094054 1.000000
tan 0.007812 0.992126 0.142228 1.000000
tan 0.007874 1.000000 -0.046872 1.000000
tan 0.007812 0.992126 -0.079174 1.000000
tan 0.007874 0.046872 -1.000000 1.000000
tan 0.007812 0.071300 -0.992126 1.000000
tan 0.007874 -0.046872 -1.000000 1.000000
tan 0.000000 -0.889764 -0.456693 1.000000
tan 0.007812 -0.992126 -0.079174 1.000000
tan 0.007874 -1.000000 0.046872 1.000000
tan 0.007812 -0.992126 0.079174 1.000000
tan 0.007874 -0.046872 1.000000 1.000000
tan 0.007812 -0.071300 0.992126 1.000000
tan 0.007874 0.054684 1.000000 1.000000
tan 0.007874 0.055552 1.000000 1.000000
f 3/3/3 2/2/2 1/1/1
f 4/4/4 2/2/2 3/3/3
f 4/4/4 3/3/3 5/5/5
f 6/6/6 4/4/4 5/5/5
f 9/9/9 8/8/8 7/7/7
f 8/8/8 10/10/10 7/7/7
f 11/11/11 7/7/7 10/10/10
f 12/12/12 11/11/11 10/10/10
f 7/7/7 11/11/11 13/13/13
f 16/16/16 15/15/15 14/14/14
f 17/17/17 16/16/16 14/14/14
f 17/17/17 18/18/18 16/16/16
f 19/19/19 16/16/16 18/18/18
f 19/19/19 18/18/18 20/20/20
f 20/20/20 18/18/18 21/21/21
f 22/22/22 20/20/20 21/21/21
f 23/23/23 22/22/22 21/21/21
f 24/24/24 23/23/23 21/21/21
f 25/25/25 23/23/23 24/24/24
f 23/23/23 25/25/25 26/26/26
f 27/27/27 26/26/26 25/25/25
f 28/28/28 27/27/27 25/25/25
