mtllib SM_SaucePan_Copper_03_LOD3.mtl
g SM_SaucePan_Copper_03_LOD3
#Vertices 99
#Indices 336
#Section 0 Offset 0 NumIndices 336 MaterialIndex 0 MI_SaucePan
v 0.359165 0.127649 -0.015802
v 0.117268 0.106878 -0.013649
v 0.352232 0.120313 -0.018550
v 0.129496 0.116603 0.014722
v 0.326639 0.127672 0.016060
v 0.351715 0.121378 0.017748
v 0.127640 0.064606 -0.006429
v 0.112059 0.070558 0.010106
v 0.117268 0.106878 -0.013649
v 0.129496 0.116603 0.014722
v 0.112059 0.070558 0.010106
v 0.127640 0.064606 -0.006429
v 0.351715 0.121378 0.017748
v 0.326639 0.127672 0.016060
v 0.359165 0.127649 -0.015802
v 0.129496 0.116603 0.014722
v 0.117268 0.106878 -0.013649
v 0.129496 0.116603 0.014722
v 0.117268 0.106878 -0.013649
v 0.127640 0.064606 -0.006429
v 0.351715 0.121378 0.017748
v 0.352232 0.120313 -0.018550
v 0.359165 0.127649 -0.015802
v 0.359165 0.127649 -0.015802
v 0.119554 0.017710 -0.000000
v 0.094728 -0.000950 -0.047073
v 0.104249 -0.000453 0.000157
v 0.073431 0.017522 -0.107257
v 0.033912 -0.000779 -0.105209
v 0.120061 0.117429 -0.000132
v -0.058469 0.016629 -0.109294
v -0.048988 0.000260 -0.090928
v -0.095922 -0.000436 -0.046302
v 0.093724 0.111603 -0.082852
v -0.126229 0.016583 -0.009678
v -0.102646 -0.001196 0.036143
v 0.017370 0.117125 -0.121719
v -0.108309 0.112786 -0.066478
v -0.064916 0.016113 0.107641
v -0.048030 0.000047 0.091447
v 0.027113 0.000221 0.104599
v -0.117589 0.113249 0.035115
v 0.061057 0.016939 0.115385
v 0.091881 -0.000623 0.053906
v 0.104249 -0.000453 0.000157
v 0.119554 0.017710 -0.000000
v 0.098968 0.111451 0.076163
v 0.120061 0.117429 -0.000132
v 0.014321 0.118503 0.123744
v 0.065744 0.122579 0.102489
v -0.079059 0.114969 0.091224
v -0.016656 0.122297 0.119663
v 0.107561 0.112813 0.042569
v 0.113133 0.113471 -0.000099
v 0.028551 0.110809 0.117694
v -0.098204 0.115339 0.065997
v 0.097992 0.022483 0.065116
v 0.113249 0.023129 -0.000000
v 0.095328 0.003657 -0.000131
v 0.081217 0.002805 0.046010
v 0.030452 0.001938 0.091006
v -0.017142 0.019209 0.122190
v -0.041899 0.003825 0.082205
v -0.083789 0.001314 0.046797
v -0.115456 0.020647 0.031891
v -0.093066 0.002165 -0.015553
v -0.123106 0.122565 -0.034964
v -0.107888 0.111173 -0.045525
v -0.087153 0.023184 -0.078172
v -0.056551 0.003149 -0.077467
v -0.063650 0.123097 -0.101364
v -0.010554 0.108496 -0.119015
v 0.052653 0.027622 -0.118543
v 0.023610 0.003746 -0.092650
v 0.080699 0.001605 -0.047580
v 0.095328 0.003657 -0.000131
v 0.113249 0.023129 -0.000000
v 0.086317 0.110497 -0.079025
v 0.113133 0.113471 -0.000099
v 0.056611 0.119469 -0.107204
v 0.108116 0.124546 -0.050985
v 0.095328 0.003657 -0.000131
v 0.081217 0.002805 0.046010
v 0.080699 0.001605 -0.047580
v 0.030452 0.001938 0.091006
v -0.041899 0.003825 0.082205
v -0.083789 0.001314 0.046797
v -0.056551 0.003149 -0.077467
v -0.093066 0.002165 -0.015553
v 0.023610 0.003746 -0.092650
v -0.102646 -0.001196 0.036143
v -0.048030 0.000047 0.091447
v -0.095922 -0.000436 -0.046302
v 0.027113 0.000221 0.104599
v 0.091881 -0.000623 0.053906
v 0.104249 -0.000453 0.000157
v 0.094728 -0.000950 -0.047073
v 0.033912 -0.000779 -0.105209
v -0.048988 0.000260 -0.090928
vt 0.816406 0.312012
vt 0.819824 0.217773
vt 0.818848 0.309082
vt 0.829590 0.222656
vt 0.834473 0.299316
vt 0.831055 0.309570
vt 0.821289 0.207031
vt 0.829102 0.206543
vt 0.980957 0.579346
vt 0.992676 0.575439
vt 0.989258 0.593994
vt 0.981445 0.594971
vt 0.998535 0.489746
vt 0.997070 0.499512
vt 0.985352 0.485840
vt 0.992188 0.576172
vt 0.980469 0.580322
vt 0.025970 0.790405
vt 0.015144 0.785645
vt 0.018036 0.773071
vt 0.028580 0.875671
vt 0.015045 0.875671
vt 0.015915 0.879333
vt 0.016052 0.877747
vt 0.677246 0.481445
vt 0.654785 0.473633
vt 0.674316 0.471680
vt 0.632812 0.482422
vt 0.619141 0.472656
vt 0.676270 0.523438
vt 0.583496 0.479980
vt 0.583496 0.469727
vt 0.555176 0.471191
vt 0.643555 0.519043
vt 0.538086 0.479004
vt 0.519043 0.471680
vt 0.611328 0.519531
vt 0.559570 0.516602
vt 0.488281 0.480469
vt 0.485107 0.470703
vt 0.452637 0.473145
vt 0.522461 0.516846
vt 0.441650 0.483398
vt 0.416992 0.476562
vt 0.395264 0.474609
vt 0.393066 0.484375
vt 0.423828 0.521484
vt 0.393799 0.526855
vt 0.460205 0.521240
vt 0.439697 0.524902
vt 0.497070 0.518555
vt 0.471680 0.523193
vt 0.412354 0.531494
vt 0.395752 0.533936
vt 0.455078 0.528320
vt 0.508789 0.524170
vt 0.427002 0.565186
vt 0.402588 0.570801
vt 0.407715 0.580566
vt 0.426758 0.577148
vt 0.455811 0.572266
vt 0.474365 0.562500
vt 0.489258 0.572754
vt 0.513184 0.570312
vt 0.523926 0.560547
vt 0.541992 0.570312
vt 0.547363 0.521240
vt 0.552734 0.525391
vt 0.566406 0.559570
vt 0.576172 0.571045
vt 0.580078 0.520752
vt 0.600586 0.527100
vt 0.620605 0.559570
vt 0.612305 0.572510
vt 0.644043 0.575195
vt 0.664062 0.578613
vt 0.668945 0.568115
vt 0.642090 0.528564
vt 0.675293 0.530762
vt 0.626465 0.522461
vt 0.655762 0.525391
vt 0.974609 0.259766
vt 0.958008 0.268555
vt 0.983887 0.242676
vt 0.931641 0.266602
vt 0.914062 0.244629
vt 0.912598 0.223145
vt 0.954102 0.196777
vt 0.927246 0.204102
vt 0.979980 0.214355
vt 0.724121 0.025879
vt 0.753906 0.025391
vt 0.703125 0.050293
vt 0.777832 0.042480
vt 0.782227 0.073730
vt 0.770508 0.092285
vt 0.755371 0.102539
vt 0.722656 0.102051
vt 0.703613 0.074707
vt1 0.894531 0.096191
vt1 0.367188 0.114258
vt1 0.877930 0.111328
vt1 0.396240 0.171387
vt1 0.824219 0.198730
vt1 0.878906 0.180664
vt1 0.308838 0.125488
vt1 0.303711 0.167969
vt1 0.522461 0.010254
vt1 0.500488 0.070801
vt1 0.604980 0.054688
vt1 0.609863 0.011719
vt1 0.021988 0.104980
vt1 0.078735 0.099609
vt1 0.002363 0.034668
vt1 0.505371 0.070801
vt1 0.526855 0.006836
vt1 0.914062 0.100098
vt1 0.974121 0.073242
vt1 0.958008 0.003418
vt1 0.899414 0.575684
vt1 0.974609 0.575928
vt1 0.970215 0.596191
vt1 0.969238 0.587402
vt1 0.995605 0.644531
vt1 0.919434 0.617188
vt1 0.985840 0.610107
vt1 0.841309 0.647705
vt1 0.793945 0.614014
vt1 0.993652 0.791870
vt1 0.668945 0.638916
vt1 0.668945 0.603516
vt1 0.571777 0.607422
vt1 0.878906 0.775757
vt1 0.510742 0.636963
vt1 0.444824 0.610596
vt1 0.766602 0.777710
vt1 0.586426 0.767822
vt1 0.336914 0.640869
vt1 0.325684 0.607178
vt1 0.212402 0.615723
vt1 0.455811 0.768066
vt1 0.174072 0.651367
vt1 0.088257 0.626953
vt1 0.012466 0.620361
vt1 0.003967 0.655029
vt1 0.112305 0.784790
vt1 0.006687 0.803589
vt1 0.238892 0.783447
vt1 0.166748 0.796997
vt1 0.367432 0.774292
vt1 0.278809 0.790527
vt1 0.071594 0.819824
vt1 0.013329 0.828125
vt1 0.221069 0.808838
vt1 0.408936 0.794800
vt1 0.122498 0.937134
vt1 0.037140 0.956726
vt1 0.055603 0.991364
vt1 0.121887 0.978790
vt1 0.223755 0.962006
vt1 0.288086 0.927429
vt1 0.340332 0.963562
vt1 0.424072 0.954773
vt1 0.461182 0.920898
vt1 0.526367 0.954529
vt1 0.544434 0.783691
vt1 0.562012 0.798462
vt1 0.610352 0.917542
vt1 0.643555 0.957581
vt1 0.657715 0.782227
vt1 0.728516 0.803833
vt1 0.799805 0.917053
vt1 0.770508 0.962463
vt1 0.880371 0.972000
vt1 0.950684 0.983994
vt1 0.966797 0.947784
vt1 0.874023 0.809204
vt1 0.988770 0.817383
vt1 0.820801 0.788452
vt1 0.921875 0.797607
vt1 0.788574 0.542480
vt1 0.696289 0.591309
vt1 0.838867 0.447754
vt1 0.549805 0.582520
vt1 0.452881 0.458984
vt1 0.443359 0.340332
vt1 0.674316 0.191895
vt1 0.524414 0.231445
vt1 0.820312 0.291016
vt1 0.119629 0.170898
vt1 0.287109 0.169434
vt1 0.003546 0.306641
vt1 0.422119 0.264160
vt1 0.443848 0.440918
vt1 0.380371 0.541504
vt1 0.293701 0.599365
vt1 0.111877 0.595215
vt1 0.007092 0.446777
vn 0.086614 -0.000000 -1.000000
vn -0.039370 -0.000000 -1.000000
vn 0.133858 0.015748 -0.992126
vn -0.070866 0.031496 1.000000
vn -0.023622 0.000000 1.000000
vn 0.133858 0.015748 0.992126
vn 0.078740 -0.984252 0.141732
vn 0.031496 -0.393701 0.921260
vn -0.944882 0.322835 -0.000000
vn -0.913386 0.409449 -0.000000
vn -1.000000 0.047244 -0.000000
vn -1.000000 0.039370 -0.000000
vn -0.078740 1.000000 -0.000000
vn -0.062992 1.000000 -0.000000
vn -0.055118 1.000000 -0.000000
vn -0.102362 0.992126 -0.000000
vn -0.220472 0.976378 -0.000000
vn 0.362205 -0.929134 0.000000
vn 0.165354 -0.984252 0.000000
vn 0.960630 0.267716 -0.000000
vn 0.055118 -1.000000 0.000000
vn 0.062992 -1.000000 0.000000
vn 0.078740 -1.000000 0.000000
vn 0.055118 -1.000000 0.000000
vn 1.000000 -0.023622 0.000000
vn 0.275591 -0.952756 -0.157480
vn 0.251969 -0.968504 -0.015748
vn 0.566929 -0.031496 -0.826772
vn 0.165354 -0.937008 -0.307086
vn 1.000000 -0.007874 0.000000
vn -0.472441 -0.047244 -0.881890
vn -0.015748 -1.000000 -0.055118
vn -0.322835 -0.937008 -0.125984
vn 0.748031 -0.047244 -0.661417
vn -1.000000 -0.023622 -0.070866
vn -0.346457 -0.929134 0.118110
vn 0.133858 -0.000000 -0.992126
vn -0.834646 -0.047244 -0.551181
vn -0.519685 -0.062992 0.850394
vn -0.039370 -1.000000 0.055118
vn 0.094488 -0.984252 0.133858
vn -0.960630 -0.047244 0.283465
vn 0.464567 -0.055118 0.881890
vn 0.291339 -0.937008 0.196850
vn 0.259843 -0.960630 -0.031496
vn 1.000000 -0.023622 0.000000
vn 0.787402 -0.047244 0.614173
vn 1.000000 0.078740 -0.015748
vn 0.102362 -0.055118 0.992126
vn -0.007874 0.992126 0.110236
vn -0.637795 0.070866 0.763779
vn 0.055118 0.944882 -0.314961
vn -0.929134 0.062992 -0.370079
vn -1.000000 0.047244 -0.000000
vn -0.228346 0.023622 -0.976378
vn 0.826772 0.062992 -0.551181
vn -0.826772 0.086614 -0.551181
vn -1.000000 0.055118 -0.000000
vn -0.322835 0.944882 0.047244
vn -0.267717 0.952756 -0.157480
vn -0.110236 0.921260 -0.370079
vn 0.149606 0.070866 -0.984252
vn 0.133858 0.952756 -0.267717
vn 0.338583 0.929134 -0.157480
vn 0.960630 0.047244 -0.259842
vn 0.322835 0.944882 0.055118
vn 0.110236 0.992126 0.055118
vn 0.921260 0.023622 0.393701
vn 0.740157 0.094488 0.669291
vn 0.244094 0.937008 0.267716
vn -0.062992 1.000000 -0.031496
vn 0.110236 0.000000 0.992126
vn -0.417323 0.125984 0.897638
vn -0.062992 0.937008 0.338583
vn -0.275591 0.952756 0.149606
vn -0.338583 0.944882 -0.000000
vn -1.000000 0.055118 -0.000000
vn -0.740157 0.031496 0.669291
vn -1.000000 0.078740 0.007874
vn 0.149606 0.937008 -0.322835
vn -0.181102 0.968504 0.141732
vn -0.370079 0.929134 0.007874
vn -0.173228 0.984252 -0.094488
vn -0.110236 0.992126 0.055118
vn -0.062992 0.984252 -0.149606
vn 0.149606 0.944882 -0.275591
vn 0.118110 0.992126 -0.070866
vn 0.086614 0.984252 0.149606
vn 0.377953 0.921260 0.047244
vn -0.070866 0.960630 0.259842
vn -0.047244 -1.000000 0.015748
vn -0.023622 -1.000000 0.047244
vn -0.047244 -1.000000 -0.023622
vn 0.015748 -1.000000 0.047244
vn 0.047244 -1.000000 0.031496
vn 0.047244 -1.000000 0.000000
vn 0.047244 -1.000000 -0.023622
vn 0.015748 -1.000000 -0.047244
vn -0.023622 -1.000000 -0.047244
tan -0.204724 0.976378 -0.017732 1.000000
tan -0.244094 0.968504 0.009610 1.000000
tan -0.367165 0.921818 -0.034906 1.000000
tan 0.133858 -0.992126 0.040734 1.000000
tan 0.047244 -1.000000 0.001116 1.000000
tan 0.390601 -0.914006 -0.038192 1.000000
tan 0.046500 -0.138012 -0.984252 1.000000
tan 0.576167 -0.725153 -0.329593 1.000000
tan -0.030504 -0.089280 -0.937442 1.000000
tan -0.045136 -0.100688 -0.906194 1.000000
tan -0.002976 -0.062992 -1.000000 1.000000
tan -0.002170 -0.055118 -1.000000 1.000000
tan -0.031496 -0.002480 -1.000000 1.000000
tan -0.078740 -0.004960 -1.000000 1.000000
tan -0.023622 -0.001302 -1.000000 1.000000
tan -0.078120 -0.008060 -0.992126 1.000000
tan -0.092256 -0.020832 -0.968690 1.000000
tan -0.929134 -0.362205 0.007316 1.000000
tan -0.984252 -0.165354 0.007750 1.000000
tan 0.267717 -0.960630 0.015128 1.000000
tan -1.000000 -0.055118 0.000000 1.000000
tan -1.000000 -0.062992 -0.007874 1.000000
tan -1.000000 -0.078740 0.015748 1.000000
tan -1.000000 -0.055118 -0.015748 1.000000
tan -0.023622 -1.000000 0.086614 1.000000
tan -0.915246 -0.308141 0.262571 1.000000
tan -0.953252 -0.250728 0.167772 1.000000
tan -0.303615 -0.914564 -0.173352 1.000000
tan -0.142600 -0.329406 0.928328 1.000000
tan -0.007874 -1.000000 -0.039370 1.000000
tan -0.096472 -0.882386 0.098952 1.000000
tan 0.409449 -0.056792 0.913386 1.000000
tan 0.907496 -0.345403 0.243474 1.000000
tan -0.461653 -0.742203 -0.469093 1.000000
tan 0.024180 -1.000000 -0.007874 1.000000
tan 0.907186 -0.362453 -0.190216 1.000000
tan -0.031248 -0.992126 -0.004216 1.000000
tan -0.094240 -0.914502 0.221093 1.000000
tan -0.210304 -0.856346 -0.191952 1.000000
tan 0.409449 -0.066464 -0.913386 1.000000
tan -0.193750 -0.149296 -0.961002 1.000000
tan 0.036084 -0.958398 -0.037448 1.000000
tan -0.192262 -0.901296 0.044950 1.000000
tan -0.900118 -0.334119 -0.258230 1.000000
tan -0.945502 -0.250542 -0.158844 1.000000
tan -0.023622 -1.000000 -0.039370 1.000000
tan -0.447889 -0.707297 0.519809 1.000000
tan 0.079608 -1.000000 0.055118 1.000000
tan -0.039060 -0.992126 -0.051088 1.000000
tan 0.437473 -0.095480 0.890570 1.000000
tan -0.135470 -0.906504 -0.029016 1.000000
tan -0.089280 0.317689 0.937442 1.000000
tan -0.017174 0.904272 0.197036 1.000000
tan 0.046500 0.984252 0.157480 1.000000
tan -0.076880 0.976378 0.041602 1.000000
tan -0.270197 0.820261 -0.311551 1.000000
tan -0.198400 0.759502 0.416951 1.000000
tan 0.053382 0.968504 0.251968 1.000000
tan 0.892802 0.289417 0.312481 1.000000
tan 0.795214 0.311489 0.532643 1.000000
tan 0.089962 0.377581 0.913138 1.000000
tan -0.007750 0.984252 0.069688 1.000000
tan -0.397607 0.298283 0.862732 1.000000
tan -0.870606 0.373055 0.329221 1.000000
tan -0.053382 0.958584 -0.023064 1.000000
tan -0.944882 0.327609 -0.081840 1.000000
tan -0.984314 0.115878 -0.117180 1.000000
tan -0.029822 0.924360 0.014322 1.000000
tan -0.124682 0.935396 0.005828 1.000000
tan -0.545973 0.359353 -0.759935 1.000000
tan -0.472441 -0.057536 -0.881890 1.000000
tan -0.046872 0.992126 0.005208 1.000000
tan -0.381921 0.844690 -0.296113 1.000000
tan 0.135470 0.344845 -0.929134 1.000000
tan 0.787712 0.312667 -0.540145 1.000000
tan 0.907682 0.325253 -0.267841 1.000000
tan 0.053816 0.976378 -0.212599 1.000000
tan -0.349123 0.746729 -0.421229 1.000000
tan 0.077190 0.992126 -0.118110 1.000000
tan 0.349309 -0.355323 -0.869428 1.000000
tan 0.892244 0.221526 -0.373675 1.000000
tan -0.760927 -0.298531 -0.536983 1.000000
tan -0.720751 -0.190836 -0.666501 1.000000
tan -0.710893 -0.040796 -0.687457 1.000000
tan -0.658751 -0.152892 -0.728501 1.000000
tan -0.617521 -0.110546 -0.714241 1.000000
tan -0.718705 0.037014 -0.679645 1.000000
tan -0.674251 0.168888 -0.720751 1.000000
tan -0.783434 0.345961 -0.478765 1.000000
tan -0.597557 0.160518 -0.756401 1.000000
tan -0.708661 0.044516 0.700787 1.000000
tan -0.700787 0.050034 0.708661 1.000000
tan -0.708661 0.016740 0.708661 1.000000
tan -0.708661 0.022320 0.708661 1.000000
tan -0.708661 -0.011408 0.700787 1.000000
tan -0.708661 -0.033480 0.708661 1.000000
tan -0.708661 -0.050220 0.708661 1.000000
tan -0.700787 -0.044516 0.708661 1.000000
tan -0.700787 -0.016926 0.708661 1.000000
f 3/3/3 2/2/2 1/1/1
f 6/6/6 5/5/5 4/4/4
f 4/4/4 8/8/8 7/7/7
f 11/11/11 10/10/10 9/9/9
f 11/11/11 9/9/9 12/12/12
f 15/15/15 14/14/14 13/13/13
f 15/15/15 16/16/16 14/14/14
f 16/16/16 15/15/15 17/17/17
f 20/20/20 19/19/19 18/18/18
f 18/18/18 19/19/19 21/21/21
f 22/22/22 21/21/21 19/19/19
f 21/21/21 22/22/22 23/23/23
f 24/24/24 21/21/21 22/22/22
f 22/22/22 21/21/21 24/24/24
f 27/27/27 26/26/26 25/25/25
f 28/28/28 25/25/25 26/26/26
f 28/28/28 26/26/26 29/29/29
f 28/28/28 30/30/30 25/25/25
f 29/29/29 31/31/31 28/28/28
f 31/31/31 29/29/29 32/32/32
f 31/31/31 32/32/32 33/33/33
f 30/30/30 28/28/28 34/34/34
f 33/33/33 35/35/35 31/31/31
f 33/33/33 36/36/36 35/35/35
f 28/28/28 31/31/31 37/37/37
f 34/34/34 28/28/28 37/37/37
f 31/31/31 35/35/35 38/38/38
f 37/37/37 31/31/31 38/38/38
f 39/39/39 35/35/35 36/36/36
f 39/39/39 36/36/36 40/40/40
f 39/39/39 40/40/40 41/41/41
f 42/42/42 38/38/38 35/35/35
f 35/35/35 39/39/39 42/42/42
f 43/43/43 39/39/39 41/41/41
f 41/41/41 44/44/44 43/43/43
f 46/46/46 44/44/44 45/45/45
f 43/43/43 44/44/44 46/46/46
f 46/46/46 47/47/47 43/43/43
f 47/47/47 46/46/46 48/48/48
f 43/43/43 49/49/49 39/39/39
f 47/47/47 49/49/49 43/43/43
f 50/50/50 47/47/47 48/48/48
f 47/47/47 50/50/50 49/49/49
f 49/49/49 51/51/51 39/39/39
f 51/51/51 42/42/42 39/39/39
f 52/52/52 49/49/49 50/50/50
f 52/52/52 51/51/51 49/49/49
f 53/53/53 50/50/50 48/48/48
f 48/48/48 54/54/54 53/53/53
f 50/50/50 55/55/55 52/52/52
f 50/50/50 53/53/53 55/55/55
f 56/56/56 51/51/51 52/52/52
f 55/55/55 56/56/56 52/52/52
f 56/56/56 42/42/42 51/51/51
f 54/54/54 57/57/57 53/53/53
f 53/53/53 57/57/57 55/55/55
f 57/57/57 54/54/54 58/58/58
f 59/59/59 57/57/57 58/58/58
f 57/57/57 59/59/59 60/60/60
f 57/57/57 60/60/60 61/61/61
f 57/57/57 62/62/62 55/55/55
f 57/57/57 61/61/61 62/62/62
f 55/55/55 62/62/62 56/56/56
f 62/62/62 61/61/61 63/63/63
f 64/64/64 62/62/62 63/63/63
f 62/62/62 64/64/64 65/65/65
f 62/62/62 65/65/65 56/56/56
f 65/65/65 64/64/64 66/66/66
f 67/67/67 42/42/42 56/56/56
f 38/38/38 42/42/42 67/67/67
f 68/68/68 56/56/56 65/65/65
f 68/68/68 67/67/67 56/56/56
f 69/69/69 65/65/65 66/66/66
f 65/65/65 69/69/69 68/68/68
f 69/69/69 66/66/66 70/70/70
f 71/71/71 38/38/38 67/67/67
f 67/67/67 68/68/68 71/71/71
f 38/38/38 71/71/71 37/37/37
f 71/71/71 68/68/68 72/72/72
f 71/71/71 72/72/72 37/37/37
f 72/72/72 68/68/68 69/69/69
f 73/73/73 69/69/69 70/70/70
f 73/73/73 72/72/72 69/69/69
f 74/74/74 73/73/73 70/70/70
f 74/74/74 75/75/75 73/73/73
f 75/75/75 76/76/76 73/73/73
f 76/76/76 77/77/77 73/73/73
f 77/77/77 78/78/78 73/73/73
f 72/72/72 73/73/73 78/78/78
f 78/78/78 77/77/77 79/79/79
f 37/37/37 72/72/72 80/80/80
f 72/72/72 78/78/78 80/80/80
f 80/80/80 34/34/34 37/37/37
f 81/81/81 78/78/78 79/79/79
f 80/80/80 78/78/78 81/81/81
f 81/81/81 34/34/34 80/80/80
f 79/79/79 30/30/30 81/81/81
f 34/34/34 81/81/81 30/30/30
f 84/84/84 83/83/83 82/82/82
f 84/84/84 85/85/85 83/83/83
f 87/87/87 86/86/86 85/85/85
f 84/84/84 87/87/87 85/85/85
f 84/84/84 88/88/88 87/87/87
f 87/87/87 88/88/88 89/89/89
f 84/84/84 90/90/90 88/88/88
f 93/93/93 92/92/92 91/91/91
f 93/93/93 94/94/94 92/92/92
f 93/93/93 95/95/95 94/94/94
f 93/93/93 96/96/96 95/95/95
f 93/93/93 97/97/97 96/96/96
f 93/93/93 98/98/98 97/97/97
f 93/93/93 99/99/99 98/98/98
