mtllib SM_Soap_02_LOD2.mtl
g SM_Soap_02_LOD2
#Vertices 16
#Indices 30
#Section 0 Offset 0 NumIndices 30 MaterialIndex 0 MI_Soap
v -0.036933 -0.000910 0.036301
v -0.048952 0.046261 -0.059817
v -0.035923 0.074617 0.038479
v 0.035906 0.074660 -0.038496
v 0.036415 -0.001063 -0.036977
v 0.036539 0.076409 0.036750
v 0.036155 0.000303 0.038143
v 0.036155 0.000303 0.038143
v -0.036933 -0.000910 0.036301
v -0.035923 0.074617 0.038479
v 0.036539 0.076409 0.036750
v -0.048952 0.046261 -0.059817
v 0.035906 0.074660 -0.038496
v 0.036415 -0.001063 -0.036977
v -0.036933 -0.000910 0.036301
v 0.036155 0.000303 0.038143
vt 0.428955 0.821777
vt 0.581055 0.511475
vt 0.672852 0.828613
vt 0.941406 0.750854
vt 0.696777 0.749268
vt 0.943359 0.507812
vt 0.697754 0.506592
vt 0.234741 0.940338
vt -0.001513 0.946442
vt -0.000328 0.704834
vt 0.233887 0.699463
vt -0.045685 0.369629
vt 0.229736 0.463867
vt 0.229370 0.226562
vt -0.009758 -0.004883
vt 0.226440 -0.012695
vt1 0.012344 0.474121
vt1 0.298828 -0.111328
vt1 0.472412 0.487305
vt1 0.478516 0.981537
vt1 0.016891 0.978424
vt1 0.482666 0.522705
vt1 0.018799 0.520508
vt1 0.751465 0.983292
vt1 0.506348 0.989624
vt1 0.507324 0.739014
vt1 0.750488 0.733398
vt1 0.460449 0.391602
vt1 0.746094 0.488770
vt1 0.745605 0.243164
vt1 0.497803 0.002441
vt1 0.742676 -0.005859
vn -0.992126 -0.102362 0.102362
vn -0.984252 -0.007874 -0.181102
vn -0.976378 0.157480 0.141732
vn 0.976378 0.157480 -0.149606
vn 0.992126 -0.118110 -0.094488
vn 0.992126 0.110236 0.094488
vn 0.976378 -0.157480 0.141732
vn 0.055118 -0.094488 0.992126
vn -0.062992 -0.141732 0.992126
vn -0.070866 0.440945 0.897638
vn 0.070866 0.866142 0.488189
vn -0.094488 0.440945 -0.889764
vn 0.070866 0.456693 -0.889764
vn 0.070866 -0.874016 -0.480315
vn -0.055118 -1.000000 0.055118
vn 0.055118 -1.000000 0.055118
tan -0.106392 0.039060 -0.992126 1.000000
tan 0.180916 0.023250 -0.984252 1.000000
tan -0.145452 -0.023064 -0.976378 1.000000
tan 0.150846 -0.007688 0.976378 1.000000
tan 0.100068 0.046872 0.992126 1.000000
tan -0.099696 0.046872 0.992126 1.000000
tan -0.142972 -0.007688 0.976378 1.000000
tan 0.007812 0.992126 0.094054 1.000000
tan 0.007812 0.992126 0.142228 1.000000
tan 0.000000 0.897638 -0.440945 1.000000
tan 0.000000 0.488189 -0.866142 1.000000
tan 0.000000 -0.889764 -0.440945 1.000000
tan 0.000000 -0.889764 -0.456693 1.000000
tan 0.000000 -0.480315 0.874016 1.000000
tan 0.007874 0.054684 1.000000 1.000000
tan 0.007874 0.055552 1.000000 1.000000
f 3/3/3 2/2/2 1/1/1
f 6/6/6 5/5/5 4/4/4
f 6/6/6 7/7/7 5/5/5
f 10/10/10 9/9/9 8/8/8
f 11/11/11 10/10/10 8/8/8
f 10/10/10 11/11/11 12/12/12
f 12/12/12 11/11/11 13/13/13
f 14/14/14 12/12/12 13/13/13
f 15/15/15 12/12/12 14/14/14
f 16/16/16 15/15/15 14/14/14
