mtllib SM_Shelf_Support_LOD3.mtl
g SM_Shelf_Support_LOD3
#Vertices 20
#Indices 42
#Section 0 Offset 0 NumIndices 42 MaterialIndex 0 MI_Shelf
v -0.065156 -0.285611 0.156712
v -0.063183 -0.283161 0.429028
v 0.001489 -0.285697 0.421364
v 0.000745 -0.285314 0.150386
v 0.000745 -0.285314 0.150386
v 0.000908 0.288631 -0.426997
v -0.066605 0.285971 -0.421245
v -0.065156 -0.285611 0.156712
v -0.063408 0.286829 -0.150470
v -0.063183 -0.283161 0.429028
v -0.002971 0.290083 -0.151880
v 0.001489 -0.285697 0.421364
v 0.000000 0.282982 -0.157184
v 0.000745 -0.285314 0.150386
v 0.000908 0.288631 -0.426997
v -0.002971 0.290083 -0.151880
v 0.000908 0.288631 -0.426997
v 0.000000 0.282982 -0.157184
v -0.063408 0.286829 -0.150470
v -0.066605 0.285971 -0.421245
vt 0.790039 0.342773
vt 0.787109 0.003418
vt 0.835938 0.011719
vt 0.841309 0.351074
vt 0.008804 1.005882
vt 0.008102 -0.008789
vt 0.058960 -0.002930
vt 0.061218 1.005573
vt 0.396729 -0.005859
vt 0.400391 1.001430
vt 0.437744 -0.011719
vt 0.443359 1.004051
vt 0.450195 0.000488
vt 0.780273 1.004005
vt 0.779297 -0.009766
vt 0.909668 0.348633
vt 0.912598 0.005859
vt 0.919434 0.343750
vt 0.863770 0.350586
vt 0.861816 0.013184
vt1 0.801758 0.963440
vt1 0.795410 0.514648
vt1 0.892578 0.526123
vt1 0.902344 0.974564
vt1 0.016724 0.997725
vt1 0.016037 0.000000
vt1 0.066040 0.005371
vt1 0.068298 0.997423
vt1 0.398438 0.001953
vt1 0.401855 0.993343
vt1 0.438721 -0.002930
vt1 0.444336 0.995926
vt1 0.450928 0.008301
vt1 0.775879 0.995880
vt1 0.774902 -0.000977
vt1 0.885254 0.471191
vt1 0.891113 0.017578
vt1 0.904785 0.464844
vt1 0.795410 0.473633
vt1 0.790527 0.027344
vn -0.519685 -0.629921 0.582677
vn -0.622047 -0.385827 0.677165
vn 0.401575 -0.622047 0.677165
vn 0.614173 -0.614173 0.488189
vn 0.496063 -0.614173 -0.606299
vn 0.732283 -0.480315 -0.488189
vn -0.881890 -0.330709 -0.338583
vn -0.984252 -0.125984 -0.118110
vn -0.984252 0.118110 0.110236
vn -0.889764 0.322835 0.330709
vn 0.220472 0.692913 0.685039
vn 0.968504 0.165354 0.173228
vn 1.000000 0.015748 0.007874
vn 1.000000 -0.015748 -0.007874
vn 1.000000 -0.007874 -0.015748
vn 0.574803 0.622047 -0.535433
vn 0.519685 0.566929 -0.645669
vn 1.000000 0.015748 0.007874
vn -0.456693 0.669291 -0.590551
vn -0.464567 0.543307 -0.700787
tan 0.227044 0.521421 0.766197 1.000000
tan 0.507347 0.456383 0.726083 1.000000
tan -0.160394 0.658999 0.700477 1.000000
tan -0.369769 0.291401 0.831793 1.000000
tan 0.323827 0.775125 -0.520243 1.000000
tan 0.388989 0.872590 -0.275033 1.000000
tan -0.330771 0.922934 -0.039928 1.000000
tan -0.126914 0.985182 0.006758 1.000000
tan 0.118110 0.984252 -0.000000 1.000000
tan 0.315085 0.921818 -0.052142 1.000000
tan -0.157914 0.715915 -0.673321 1.000000
tan -0.165354 0.971232 -0.002604 1.000000
tan -0.015748 1.000000 -0.000000 1.000000
tan 0.015748 1.000000 -0.000000 1.000000
tan 0.007874 1.000000 -0.000000 1.000000
tan -0.280303 -0.450183 -0.823919 1.000000
tan -0.217868 -0.623473 -0.722797 1.000000
tan 0.004216 0.220472 -0.976378 1.000000
tan 0.150040 -0.564759 -0.756091 1.000000
tan 0.252031 -0.656581 -0.676111 1.000000
f 3/3/3 2/2/2 1/1/1
f 1/1/1 4/4/4 3/3/3
f 7/7/7 6/6/6 5/5/5
f 8/8/8 7/7/7 5/5/5
f 7/7/7 8/8/8 9/9/9
f 8/8/8 10/10/10 9/9/9
f 11/11/11 9/9/9 10/10/10
f 12/12/12 11/11/11 10/10/10
f 11/11/11 12/12/12 13/13/13
f 12/12/12 14/14/14 13/13/13
f 15/15/15 13/13/13 14/14/14
f 18/18/18 17/17/17 16/16/16
f 16/16/16 17/17/17 19/19/19
f 20/20/20 19/19/19 17/17/17
