mtllib SM_Sponge_02_LOD2.mtl
g SM_Sponge_02_LOD2
#Vertices 85
#Indices 246
#Section 0 Offset 0 NumIndices 246 MaterialIndex 0 MI_Sponge
v -0.024417 0.025834 0.029052
v -0.005097 0.027318 0.023124
v -0.000000 0.024976 0.024829
v 0.000190 -0.000231 0.022894
v -0.026741 0.000238 0.030831
v -0.023316 0.000019 0.027552
v -0.037259 0.026555 0.030958
v -0.045352 -0.000744 0.026860
v -0.055754 0.025768 0.017935
v -0.053282 0.027415 0.017482
v -0.059525 -0.002813 0.004717
v -0.060160 0.027657 -0.008544
v -0.048382 0.000639 -0.026007
v -0.056069 0.000077 -0.011226
v -0.037769 0.027901 -0.030024
v -0.050629 0.027438 -0.019872
v -0.027290 0.000872 -0.030794
v -0.039531 0.000027 -0.028642
v -0.024417 0.025834 -0.029052
v 0.001881 0.000051 -0.022386
v -0.000078 0.002585 -0.023800
v 0.000125 0.025106 -0.024290
v -0.000615 0.027390 -0.022426
v -0.055754 0.025768 0.017935
v -0.060160 0.027657 -0.008544
v -0.053282 0.027415 0.017482
v -0.050629 0.027438 -0.019872
v -0.033609 0.027446 0.029113
v -0.037259 0.026555 0.030958
v -0.024417 0.025834 0.029052
v -0.037769 0.027901 -0.030024
v -0.005097 0.027318 0.023124
v -0.000615 0.027390 -0.022426
v -0.024417 0.025834 -0.029052
v 0.015931 0.027439 0.025206
v 0.033068 0.027404 -0.029853
v 0.038799 0.028234 0.028642
v 0.024416 0.025834 0.029052
v 0.048434 0.027454 -0.020847
v 0.051333 0.027807 -0.022828
v 0.060226 0.027962 -0.005424
v 0.052862 0.027492 0.016557
v 0.055912 0.027116 0.016828
v 0.024416 0.025834 0.029052
v -0.005097 0.027318 0.023124
v 0.015931 0.027439 0.025206
v -0.000000 0.024976 0.024829
v 0.024270 0.000990 0.029773
v 0.000190 -0.000231 0.022894
v 0.038799 0.028234 0.028642
v 0.046593 0.001511 0.027114
v 0.040058 0.000035 0.028419
v 0.055912 0.027116 0.016828
v 0.058549 0.001049 0.008682
v 0.060226 0.027962 -0.005424
v 0.058135 0.002480 -0.012858
v 0.056616 0.000180 -0.010241
v 0.051333 0.027807 -0.022828
v 0.044171 0.001696 -0.028766
v 0.027868 0.024743 -0.031002
v 0.033068 0.027404 -0.029853
v -0.000615 0.027390 -0.022426
v 0.000125 0.025106 -0.024290
v 0.024016 0.001564 -0.029186
v 0.039066 0.000034 -0.029314
v -0.000078 0.002585 -0.023800
v 0.001881 0.000051 -0.022386
v 0.046593 0.001511 0.027114
v 0.058549 0.001049 0.008682
v 0.040058 0.000035 0.028419
v 0.056616 0.000180 -0.010241
v 0.044171 0.001696 -0.028766
v 0.039066 0.000034 -0.029314
v 0.024270 0.000990 0.029773
v 0.000190 -0.000231 0.022894
v 0.001881 0.000051 -0.022386
v 0.024016 0.001564 -0.029186
v -0.039531 0.000027 -0.028642
v -0.027290 0.000872 -0.030794
v -0.023316 0.000019 0.027552
v -0.045352 -0.000744 0.026860
v -0.026741 0.000238 0.030831
v -0.056069 0.000077 -0.011226
v -0.059525 -0.002813 0.004717
v -0.048382 0.000639 -0.026007
vt 0.853516 0.521729
vt 0.848145 0.449707
vt 0.856445 0.432129
vt 0.946777 0.430176
vt 0.944336 0.530762
vt 0.942383 0.516113
vt 0.851562 0.568359
vt 0.948730 0.601562
vt 0.854004 0.648926
vt 0.849609 0.645264
vt 0.955078 0.698975
vt 0.847168 0.745605
vt 0.943359 0.819336
vt 0.945312 0.759399
vt 0.847168 0.859009
vt 0.850586 0.798218
vt 0.942383 0.897888
vt 0.942383 0.852539
vt 0.853516 0.908752
vt 0.947754 1.005066
vt 0.937500 0.998741
vt 0.855957 0.999273
vt 0.847656 0.996872
vt 0.899414 0.414551
vt 0.804199 0.427734
vt 0.896973 0.403809
vt 0.764160 0.393555
vt 0.938965 0.333496
vt 0.944336 0.346191
vt 0.941895 0.300293
vt 0.728027 0.347656
vt 0.918457 0.230957
vt 0.754395 0.214844
vt 0.728516 0.299805
vt 0.925293 0.155273
vt 0.728516 0.094238
vt 0.937012 0.073242
vt 0.941895 0.125000
vt 0.760742 0.039062
vt 0.755371 0.030762
vt 0.815430 -0.002930
vt 0.894043 0.022949
vt 0.894043 0.013672
vt 0.741211 0.909851
vt 0.738281 1.018356
vt 0.738281 0.942719
vt 0.744141 0.999425
vt 0.829590 0.909912
vt 0.834473 0.999977
vt 0.733398 0.855957
vt 0.827637 0.827881
vt 0.828613 0.851318
vt 0.736816 0.778931
vt 0.830566 0.748047
vt 0.733887 0.697266
vt 0.824707 0.669678
vt 0.833008 0.676758
vt 0.735352 0.626465
vt 0.827148 0.594238
vt 0.745605 0.535889
vt 0.737793 0.555420
vt 0.737305 0.430176
vt 0.743164 0.433594
vt 0.828125 0.520996
vt 0.830078 0.576660
vt 0.824707 0.432617
vt 0.834961 0.438965
vt 0.522461 0.344727
vt 0.589355 0.303223
vt 0.519043 0.369629
vt 0.656738 0.310059
vt 0.724609 0.352539
vt 0.725098 0.372559
vt 0.515625 0.425781
vt 0.538574 0.512451
vt 0.701660 0.505371
vt 0.727539 0.426270
vt 0.724121 0.654053
vt 0.729004 0.610596
vt 0.522949 0.596680
vt 0.525879 0.675293
vt 0.512695 0.608887
vt 0.662109 0.713379
vt 0.604980 0.724609
vt 0.714844 0.685547
vt1 0.730957 0.033691
vt1 0.840332 0.025391
vt1 0.866699 0.038086
vt1 0.870117 0.174805
vt1 0.717285 0.171387
vt1 0.739258 0.167969
vt1 0.660156 0.030762
vt1 0.609863 0.177734
vt1 0.538086 0.034180
vt1 0.543457 0.027344
vt1 0.462158 0.187500
vt1 0.391357 0.023926
vt1 0.279785 0.169922
vt1 0.370361 0.172852
vt1 0.219604 0.023438
vt1 0.311768 0.029297
vt1 0.160645 0.167969
vt1 0.229370 0.168457
vt1 0.144043 0.033691
vt1 -0.001881 0.176758
vt1 0.007710 0.160645
vt1 0.006901 0.037109
vt1 0.010544 0.024902
vt1 0.362305 0.617920
vt1 0.342773 0.762451
vt1 0.379150 0.621582
vt1 0.394043 0.823364
vt1 0.485596 0.558350
vt1 0.465576 0.550049
vt1 0.535645 0.554199
vt1 0.463867 0.877747
vt1 0.640625 0.589355
vt1 0.665039 0.837891
vt1 0.536133 0.877136
vt1 0.754883 0.578613
vt1 0.847656 0.876953
vt1 0.879395 0.561279
vt1 0.801270 0.554199
vt1 0.931152 0.828613
vt1 0.943359 0.836060
vt1 0.994629 0.745361
vt1 0.955566 0.626465
vt1 0.969727 0.626221
vt1 0.144653 0.194824
vt1 -0.019760 0.190430
vt1 0.094849 0.190430
vt1 0.008934 0.199219
vt1 0.144653 0.329102
vt1 0.008095 0.336426
vt1 0.226562 0.183105
vt1 0.269043 0.326172
vt1 0.233521 0.328125
vt1 0.343262 0.188477
vt1 0.389893 0.331055
vt1 0.467041 0.184082
vt1 0.508789 0.321289
vt1 0.498047 0.333984
vt1 0.574219 0.186035
vt1 0.623047 0.325684
vt1 0.711426 0.201660
vt1 0.682129 0.189941
vt1 0.872070 0.188965
vt1 0.866699 0.198242
vt1 0.733887 0.326660
vt1 0.649902 0.329590
vt1 0.868652 0.322266
vt1 0.858398 0.336914
vt1 0.022568 0.416016
vt1 0.123596 0.352539
vt1 0.017700 0.453613
vt1 0.226196 0.362793
vt1 0.328857 0.427734
vt1 0.329590 0.458008
vt1 0.012314 0.538330
vt1 0.047302 0.669922
vt1 0.294189 0.659424
vt1 0.333008 0.539307
vt1 0.327637 0.884277
vt1 0.335449 0.818481
vt1 0.023453 0.797363
vt1 0.028107 0.916626
vt1 0.007458 0.816162
vt1 0.233887 0.974213
vt1 0.147827 0.991241
vt1 0.313721 0.932129
vn 0.220472 0.173228 0.960630
vn 0.078740 0.842520 0.535433
vn 0.000000 0.125984 0.992126
vn 0.102362 -0.181102 0.976378
vn 0.149606 -0.204724 0.968504
vn 0.181102 -0.543307 0.818898
vn -0.220472 0.228347 0.952756
vn -0.519685 -0.291338 0.803150
vn -0.818898 0.244095 0.527559
vn -0.551181 0.763779 0.338583
vn -0.929134 -0.338583 0.118110
vn -0.921260 0.299213 -0.251969
vn -0.590551 -0.251969 -0.763779
vn -0.614173 -0.748031 -0.244094
vn -0.251969 0.244094 -0.937008
vn -0.574803 0.637795 -0.519685
vn 0.149606 -0.204724 -0.968504
vn -0.291339 -0.354331 -0.889764
vn 0.220472 0.173228 -0.960630
vn -0.102362 -0.866142 -0.488189
vn 0.110236 -0.125984 -0.984252
vn 0.000000 0.133858 -0.992126
vn 0.047244 0.874016 -0.480315
vn -0.748031 0.527559 0.401575
vn -0.598425 0.795275 -0.110236
vn -0.055118 1.000000 0.055118
vn -0.055118 1.000000 -0.039370
vn 0.000000 1.000000 0.031496
vn -0.251969 0.598425 0.763779
vn 0.165354 0.637795 0.755905
vn -0.015748 1.000000 -0.055118
vn 0.007874 1.000000 0.062992
vn 0.000000 1.000000 -0.039370
vn 0.165354 0.637795 -0.755905
vn -0.007874 1.000000 0.031496
vn 0.000000 1.000000 -0.055118
vn 0.015748 1.000000 0.062992
vn -0.165354 0.637795 0.755905
vn 0.031496 1.000000 -0.031496
vn 0.614173 0.511811 -0.598425
vn 0.551181 0.834646 -0.078740
vn 0.031496 1.000000 0.039370
vn 0.645669 0.685039 0.346457
vn -0.220472 0.173228 0.960630
vn 0.039370 0.708661 0.700787
vn -0.228346 0.669291 0.708661
vn 0.000000 0.125984 0.992126
vn -0.251969 -0.157480 0.952756
vn 0.000000 -0.251968 0.968504
vn 0.283465 0.267717 0.921260
vn 0.535433 -0.236220 0.811023
vn 0.299213 -0.464567 0.834646
vn 0.818898 0.299213 0.496063
vn 0.913386 -0.307087 0.259843
vn 0.929134 0.330709 -0.157480
vn 0.897638 -0.212598 -0.385827
vn 0.629921 -0.740157 -0.236220
vn 0.669291 0.299212 -0.677165
vn 0.448819 -0.220473 -0.866142
vn -0.133858 0.133858 -0.984252
vn 0.062992 0.692913 -0.716535
vn -0.118110 0.677165 -0.724409
vn -0.070866 0.125984 -0.992126
vn -0.244094 -0.173228 -0.952756
vn 0.236220 -0.590551 -0.771653
vn 0.000000 -0.133858 -0.992126
vn -0.086614 -0.866142 -0.496063
vn 0.590551 -0.480315 0.653543
vn 0.322835 -0.937008 0.133858
vn 0.000000 -1.000000 0.031496
vn 0.141732 -0.992126 -0.047244
vn 0.574803 -0.519685 -0.629921
vn 0.000000 -1.000000 -0.031496
vn -0.157480 -0.700787 0.700787
vn 0.000000 -1.000000 0.031496
vn 0.000000 -1.000000 -0.047244
vn -0.110236 -0.566929 -0.818897
vn 0.000000 -1.000000 -0.031496
vn 0.102362 -0.622047 -0.779527
vn 0.007874 -1.000000 0.031496
vn -0.047244 -1.000000 0.070866
vn 0.102362 -0.519685 0.850394
vn -0.133858 -0.992126 -0.047244
vn -0.440945 -0.897638 0.062992
vn -0.637795 -0.385827 -0.669291
tan 0.960630 -0.022692 -0.216380 1.000000
tan 0.788642 0.256680 -0.519871 1.000000
tan 0.992126 0.023436 -0.002976 1.000000
tan 0.976378 -0.015376 -0.105214 1.000000
tan 0.968504 0.045756 -0.139934 1.000000
tan 0.882944 -0.118358 -0.273793 1.000000
tan 0.945254 -0.082522 0.238514 1.000000
tan 0.807738 0.029760 0.533449 1.000000
tan 0.546779 0.056172 0.822742 1.000000
tan 0.708723 0.262385 0.561845 1.000000
tan 0.120776 -0.007316 0.929134 1.000000
tan -0.282969 -0.099572 0.916362 1.000000
tan -0.769732 -0.016120 0.600471 1.000000
tan -0.669353 0.346085 0.623597 1.000000
tan -0.929630 0.088536 0.273049 1.000000
tan -0.723541 -0.101680 0.675491 1.000000
tan -0.968504 -0.038130 -0.141546 1.000000
tan -0.891128 -0.119226 0.339265 1.000000
tan -0.960630 0.022692 -0.216380 1.000000
tan -0.988034 0.104222 0.022258 1.000000
tan -0.984252 -0.000000 -0.110236 1.000000
tan -0.992126 -0.007812 -0.001054 1.000000
tan -0.895964 -0.119102 -0.304855 1.000000
tan 0.600471 0.755657 0.125798 1.000000
tan 0.795276 0.601029 0.018786 1.000000
tan 1.000000 0.057722 -0.047244 1.000000
tan 1.000000 0.056978 0.047244 1.000000
tan 1.000000 0.000496 -0.015748 1.000000
tan 0.852130 0.392027 -0.026040 1.000000
tan 0.924236 -0.133362 -0.089652 1.000000
tan 1.000000 0.016616 0.015748 1.000000
tan 1.000000 -0.008866 0.015748 1.000000
tan 1.000000 0.000000 0.000000 1.000000
tan 0.924236 -0.145266 0.079608 1.000000
tan 1.000000 0.008122 -0.007874 1.000000
tan 1.000000 -0.000868 -0.015748 1.000000
tan 1.000000 -0.018228 0.039370 1.000000
tan 0.924236 0.133362 0.089652 1.000000
tan 1.000000 -0.032736 -0.039370 1.000000
tan 0.749705 -0.605617 0.251473 1.000000
tan 0.835266 -0.553041 -0.015376 1.000000
tan 1.000000 -0.033046 0.039370 1.000000
tan 0.706863 -0.664765 -0.002914 1.000000
tan 0.960630 0.022692 0.216380 1.000000
tan 0.936574 -0.196726 0.146320 1.000000
tan 0.853432 -0.208010 0.471449 1.000000
tan 0.992126 -0.023436 0.002976 1.000000
tan 0.952756 -0.022506 0.248248 1.000000
tan 0.968504 0.068634 0.017856 1.000000
tan 0.914006 0.094302 -0.308637 1.000000
tan 0.814744 -0.036270 -0.548453 1.000000
tan 0.831794 -0.226176 -0.424081 1.000000
tan 0.527497 -0.085002 -0.819517 1.000000
tan 0.296485 0.113026 -0.908612 1.000000
tan -0.195300 0.108500 -0.924422 1.000000
tan -0.400893 -0.060574 -0.899312 1.000000
tan -0.516461 -0.173600 -0.833282 1.000000
tan -0.693657 -0.005766 -0.688139 1.000000
tan -0.867878 0.071486 -0.467915 1.000000
tan -0.984252 -0.046500 0.127534 1.000000
tan -0.827206 -0.300763 -0.363569 1.000000
tan -0.705933 0.370203 0.461157 1.000000
tan -0.992126 0.007812 0.071858 1.000000
tan -0.952756 0.015004 0.241366 1.000000
tan -0.743195 0.399033 -0.532891 1.000000
tan -0.992126 -0.023436 0.003162 1.000000
tan -0.915246 -0.117056 0.364189 1.000000
tan 0.778412 0.556265 -0.294563 1.000000
tan 0.938062 0.329159 0.041726 1.000000
tan 1.000000 0.000496 0.015748 1.000000
tan 0.992126 0.143220 -0.031248 1.000000
tan 0.778226 0.585033 0.227478 1.000000
tan 1.000000 0.000248 -0.007874 1.000000
tan 0.915990 -0.217186 -0.011346 1.000000
tan 1.000000 -0.000248 -0.007874 1.000000
tan 1.000000 -0.000372 0.007874 1.000000
tan 0.908674 -0.045756 -0.090644 1.000000
tan 1.000000 -0.000496 0.015748 1.000000
tan 0.883564 0.056978 0.070556 1.000000
tan 1.000000 0.007874 -0.000000 1.000000
tan 1.000000 -0.051150 -0.055118 1.000000
tan 0.905078 0.012090 -0.101556 1.000000
tan 0.992126 -0.135346 0.031248 1.000000
tan 0.897638 -0.442433 -0.021204 1.000000
tan 0.747969 -0.519933 -0.413045 1.000000
f 3/3/3 2/2/2 1/1/1
f 4/4/4 3/3/3 1/1/1
f 4/4/4 1/1/1 5/5/5
f 4/4/4 5/5/5 6/6/6
f 1/1/1 7/7/7 5/5/5
f 7/7/7 8/8/8 5/5/5
f 9/9/9 8/8/8 7/7/7
f 9/9/9 7/7/7 10/10/10
f 8/8/8 9/9/9 11/11/11
f 12/12/12 11/11/11 9/9/9
f 14/14/14 11/11/11 13/13/13
f 12/12/12 13/13/13 11/11/11
f 16/16/16 15/15/15 12/12/12
f 13/13/13 12/12/12 15/15/15
f 13/13/13 15/15/15 17/17/17
f 13/13/13 17/17/17 18/18/18
f 19/19/19 17/17/17 15/15/15
f 17/17/17 21/21/21 20/20/20
f 21/21/21 17/17/17 19/19/19
f 21/21/21 19/19/19 22/22/22
f 22/22/22 19/19/19 23/23/23
f 26/26/26 25/25/25 24/24/24
f 25/25/25 26/26/26 27/27/27
f 26/26/26 28/28/28 27/27/27
f 28/28/28 26/26/26 29/29/29
f 29/29/29 30/30/30 28/28/28
f 27/27/27 28/28/28 31/31/31
f 30/30/30 32/32/32 28/28/28
f 31/31/31 28/28/28 33/33/33
f 32/32/32 33/33/33 28/28/28
f 34/34/34 31/31/31 33/33/33
f 32/32/32 35/35/35 33/33/33
f 33/33/33 35/35/35 36/36/36
f 35/35/35 38/38/38 37/37/37
f 37/37/37 36/36/36 35/35/35
f 36/36/36 37/37/37 39/39/39
f 40/40/40 36/36/36 39/39/39
f 39/39/39 41/41/41 40/40/40
f 42/42/42 39/39/39 37/37/37
f 41/41/41 39/39/39 42/42/42
f 43/43/43 42/42/42 37/37/37
f 42/42/42 43/43/43 41/41/41
f 46/46/46 45/45/45 44/44/44
f 47/47/47 44/44/44 45/45/45
f 48/48/48 44/44/44 47/47/47
f 48/48/48 47/47/47 49/49/49
f 44/44/44 48/48/48 50/50/50
f 50/50/50 48/48/48 51/51/51
f 51/51/51 48/48/48 52/52/52
f 51/51/51 53/53/53 50/50/50
f 54/54/54 53/53/53 51/51/51
f 53/53/53 54/54/54 55/55/55
f 55/55/55 54/54/54 56/56/56
f 56/56/56 54/54/54 57/57/57
f 55/55/55 56/56/56 58/58/58
f 57/57/57 59/59/59 56/56/56
f 56/56/56 59/59/59 58/58/58
f 59/59/59 60/60/60 58/58/58
f 58/58/58 60/60/60 61/61/61
f 61/61/61 60/60/60 62/62/62
f 63/63/63 62/62/62 60/60/60
f 64/64/64 60/60/60 59/59/59
f 63/63/63 60/60/60 64/64/64
f 65/65/65 64/64/64 59/59/59
f 66/66/66 63/63/63 64/64/64
f 66/66/66 64/64/64 67/67/67
f 70/70/70 69/69/69 68/68/68
f 69/69/69 70/70/70 71/71/71
f 73/73/73 72/72/72 71/71/71
f 73/73/73 71/71/71 70/70/70
f 75/75/75 70/70/70 74/74/74
f 70/70/70 75/75/75 73/73/73
f 77/77/77 73/73/73 76/76/76
f 76/76/76 73/73/73 75/75/75
f 76/76/76 75/75/75 78/78/78
f 76/76/76 78/78/78 79/79/79
f 80/80/80 78/78/78 75/75/75
f 82/82/82 81/81/81 80/80/80
f 81/81/81 78/78/78 80/80/80
f 83/83/83 78/78/78 81/81/81
f 84/84/84 83/83/83 81/81/81
f 78/78/78 83/83/83 85/85/85
