mtllib SM_Tableware_Plate_02_LOD2.mtl
g SM_Tableware_Plate_02_LOD2
#Vertices 73
#Indices 246
#Section 0 Offset 0 NumIndices 246 MaterialIndex 0 MI_Tableware
v 0.064349 0.032296 -0.106474
v 0.118129 0.032638 -0.037854
v 0.091062 0.034307 -0.078225
v 0.077005 0.002373 -0.016401
v 0.094599 0.022193 0.060163
v 0.119236 0.034431 0.013637
v 0.104189 0.034316 0.059884
v 0.071881 0.034273 0.096187
v 0.029468 0.032267 0.121026
v 0.024443 0.000375 0.067158
v -0.003599 0.000851 -0.072091
v -0.033141 0.021960 -0.109560
v 0.000214 0.034328 -0.120142
v -0.060863 0.034202 -0.105854
v -0.109520 0.034326 -0.055789
v -0.095159 0.016429 -0.043500
v -0.119163 0.034426 0.014411
v -0.069451 0.000965 0.012506
v -0.076477 0.017897 0.083881
v -0.104140 0.034315 0.059967
v -0.023655 0.034209 0.117766
v -0.071731 0.034435 0.096178
v -0.060863 0.034202 -0.105854
v -0.035842 0.036183 -0.110751
v -0.068998 0.036155 -0.094558
v -0.101818 0.036073 -0.058842
v 0.017816 0.036334 -0.117165
v -0.109520 0.034326 -0.055789
v 0.000214 0.034328 -0.120142
v -0.116425 0.036188 -0.012193
v 0.064349 0.032296 -0.106474
v -0.119163 0.034426 0.014411
v 0.068633 0.036156 -0.094821
v -0.113824 0.036183 0.024313
v 0.091062 0.034307 -0.078225
v -0.101638 0.036115 0.057676
v 0.101681 0.036293 -0.059074
v -0.104140 0.034315 0.059967
v 0.118129 0.032638 -0.037854
v -0.077982 0.036183 0.086395
v 0.116361 0.035428 -0.014350
v -0.071731 0.034435 0.096178
v 0.119236 0.034431 0.013637
v -0.045879 0.036171 0.107898
v 0.110201 0.036469 0.044038
v -0.023655 0.034209 0.117766
v 0.104189 0.034316 0.059884
v 0.000374 0.036232 0.117169
v 0.077983 0.036183 0.086395
v 0.029468 0.032267 0.121026
v 0.071881 0.034273 0.096187
v 0.045996 0.036172 0.107836
v 0.014985 0.005195 0.063490
v 0.045996 0.036172 0.107836
v 0.000374 0.036232 0.117169
v -0.045879 0.036171 0.107898
v 0.077983 0.036183 0.086395
v -0.077982 0.036183 0.086395
v 0.091959 0.016034 0.019810
v 0.110201 0.036469 0.044038
v 0.116361 0.035428 -0.014350
v -0.050758 0.006152 0.032901
v -0.101638 0.036115 0.057676
v -0.113824 0.036183 0.024313
v 0.039119 0.005610 -0.049183
v 0.101681 0.036293 -0.059074
v 0.068633 0.036156 -0.094821
v 0.017816 0.036334 -0.117165
v -0.057217 0.006873 -0.046922
v -0.035842 0.036183 -0.110751
v -0.116425 0.036188 -0.012193
v -0.068998 0.036155 -0.094558
v -0.101818 0.036073 -0.058842
vt 0.458496 0.617676
vt 0.373779 0.644287
vt 0.419434 0.623779
vt 0.399658 0.689941
vt 0.339111 0.740479
vt 0.341064 0.686035
vt 0.326904 0.734619
vt 0.333252 0.785034
vt 0.356934 0.829834
vt 0.395996 0.784424
vt 0.493408 0.689453
vt 0.541016 0.672852
vt 0.521973 0.641357
vt 0.565918 0.689453
vt 0.578125 0.760620
vt 0.553223 0.761841
vt 0.545410 0.827148
vt 0.499756 0.791992
vt 0.467529 0.855591
vt 0.505859 0.857178
vt 0.402588 0.859497
vt 0.456543 0.869507
vt 0.736328 0.845947
vt 0.712402 0.835693
vt 0.750000 0.840332
vt 0.797852 0.828247
vt 0.663574 0.810913
vt 0.806152 0.829834
vt 0.676270 0.823853
vt 0.836426 0.796509
vt 0.629395 0.776489
vt 0.854004 0.775757
vt 0.631836 0.763672
vt 0.854492 0.764038
vt 0.621582 0.737061
vt 0.863281 0.728760
vt 0.624023 0.714600
vt 0.866699 0.728271
vt 0.622070 0.687256
vt 0.858887 0.690918
vt 0.636230 0.667969
vt 0.859375 0.678711
vt 0.648926 0.642334
vt 0.843262 0.654541
vt 0.674805 0.622070
vt 0.830078 0.633301
vt 0.687988 0.611084
vt 0.809082 0.620850
vt 0.725586 0.603516
vt 0.786133 0.601562
vt 0.736328 0.598145
vt 0.764648 0.603027
vt 0.765137 0.662598
vt 0.764648 0.603027
vt 0.809082 0.620605
vt 0.843262 0.654541
vt 0.725586 0.603516
vt 0.858887 0.690918
vt 0.679688 0.656006
vt 0.674316 0.621582
vt 0.636230 0.668457
vt 0.801758 0.721191
vt 0.862793 0.728760
vt 0.854492 0.764038
vt 0.687012 0.739990
vt 0.623535 0.714600
vt 0.631836 0.763672
vt 0.663574 0.811646
vt 0.765137 0.788452
vt 0.712402 0.835693
vt 0.836426 0.796509
vt 0.750000 0.840332
vt 0.797363 0.828247
vt1 0.302002 0.430664
vt1 0.112427 0.489746
vt1 0.214478 0.443848
vt1 0.170166 0.591797
vt1 0.034943 0.705078
vt1 0.038910 0.583496
vt1 0.007584 0.692139
vt1 0.021667 0.805054
vt1 0.074768 0.905334
vt1 0.162231 0.803589
vt1 0.380371 0.591064
vt1 0.487305 0.553955
vt1 0.444580 0.483398
vt1 0.541992 0.590820
vt1 0.570312 0.750488
vt1 0.513672 0.753174
vt1 0.497070 0.899414
vt1 0.394531 0.820557
vt1 0.322266 0.963013
vt1 0.408203 0.966583
vt1 0.176758 0.971771
vt1 0.297607 0.994095
vt1 0.701172 0.594727
vt1 0.647461 0.571777
vt1 0.730957 0.582520
vt1 0.838379 0.555176
vt1 0.537598 0.516357
vt1 0.856934 0.558838
vt1 0.565918 0.545410
vt1 0.924805 0.484375
vt1 0.460938 0.439453
vt1 0.964355 0.437500
vt1 0.467041 0.410645
vt1 0.965820 0.411621
vt1 0.443848 0.351074
vt1 0.984863 0.332520
vt1 0.449219 0.300781
vt1 0.992676 0.331055
vt1 0.445068 0.239746
vt1 0.975098 0.247559
vt1 0.476318 0.196289
vt1 0.976074 0.220703
vt1 0.505371 0.138672
vt1 0.940430 0.166016
vt1 0.562500 0.093750
vt1 0.911133 0.118652
vt1 0.592773 0.069336
vt1 0.863281 0.090820
vt1 0.676758 0.051758
vt1 0.812500 0.047852
vt1 0.700684 0.039551
vt1 0.764648 0.051270
vt1 0.765137 0.184570
vt1 0.764648 0.051270
vt1 0.863770 0.090332
vt1 0.940430 0.166016
vt1 0.676758 0.051758
vt1 0.975098 0.247559
vt1 0.573242 0.169434
vt1 0.561523 0.092773
vt1 0.477051 0.197754
vt1 0.846680 0.315430
vt1 0.984375 0.332520
vt1 0.965820 0.411621
vt1 0.589844 0.357422
vt1 0.448486 0.300781
vt1 0.467041 0.410645
vt1 0.537598 0.518066
vt1 0.764648 0.466309
vt1 0.647461 0.571777
vt1 0.924805 0.484375
vt1 0.730957 0.582520
vt1 0.837891 0.555176
vn 0.370079 -0.692913 -0.622047
vn 0.692913 -0.692913 -0.220472
vn 0.488189 -0.740157 -0.456693
vn 0.275591 -0.960630 -0.055118
vn 0.543307 -0.763779 0.354331
vn 0.669291 -0.748031 0.047244
vn 0.582677 -0.740157 0.338583
vn 0.417323 -0.748031 0.519685
vn 0.181102 -0.685039 0.700787
vn 0.070866 -0.976378 0.212599
vn -0.007874 -0.968504 -0.236220
vn -0.204724 -0.755905 -0.622047
vn 0.000000 -0.740157 -0.669291
vn -0.346457 -0.748031 -0.566929
vn -0.574803 -0.748031 -0.338583
vn -0.503937 -0.826772 -0.236220
vn -0.669291 -0.748031 0.047244
vn -0.228346 -0.976378 0.039370
vn -0.401575 -0.795275 0.456693
vn -0.582677 -0.740157 0.338583
vn -0.157480 -0.740157 0.653543
vn -0.409449 -0.748031 0.527559
vn -0.259843 0.850394 -0.456693
vn -0.157480 0.858268 -0.488189
vn -0.307087 0.858268 -0.417323
vn -0.448819 0.850394 -0.259843
vn 0.078740 0.850394 -0.511811
vn -0.464567 0.850394 -0.236221
vn 0.000000 0.858268 -0.519685
vn -0.511811 0.858268 -0.055118
vn 0.275591 0.850394 -0.448819
vn -0.511811 0.858268 0.062992
vn 0.307087 0.858268 -0.417323
vn -0.503937 0.858268 0.110236
vn 0.393701 0.858268 -0.338583
vn -0.448819 0.858268 0.251968
vn 0.448819 0.858268 -0.259843
vn -0.448819 0.858268 0.259842
vn 0.488189 0.858268 -0.157480
vn -0.346457 0.858268 0.385827
vn 0.511811 0.858268 -0.062992
vn -0.307087 0.858268 0.417323
vn 0.511811 0.858268 0.055118
vn -0.204724 0.858268 0.472441
vn 0.480315 0.850394 0.196850
vn -0.102362 0.858268 0.503937
vn 0.448819 0.858268 0.259842
vn 0.000000 0.858268 0.519685
vn 0.346457 0.858268 0.385827
vn 0.125984 0.858268 0.503937
vn 0.307087 0.858268 0.417323
vn 0.204724 0.858268 0.472441
vn -0.039370 0.968504 -0.259843
vn -0.228346 0.818897 -0.519685
vn 0.000000 0.826771 -0.566929
vn 0.228346 0.818897 -0.519685
vn -0.346457 0.818897 -0.448819
vn 0.346457 0.818897 -0.448819
vn -0.448819 0.889764 -0.086614
vn -0.551181 0.811023 -0.188976
vn -0.559055 0.826772 0.094488
vn 0.188976 0.976378 -0.125984
vn 0.503937 0.818897 -0.283465
vn 0.566929 0.818897 -0.078740
vn -0.133858 0.968504 0.196850
vn -0.496063 0.818898 0.283464
vn -0.330709 0.826772 0.456693
vn -0.110236 0.811024 0.566929
vn 0.244094 0.952756 0.196850
vn 0.220472 0.818898 0.527559
vn 0.566929 0.826772 0.055118
vn 0.338583 0.826772 0.456693
vn 0.488189 0.818898 0.299212
tan 0.180048 0.698617 -0.671089 1.000000
tan 0.675305 0.715233 -0.125488 1.000000
tan 0.404737 0.655093 -0.629053 1.000000
tan 0.680761 0.234360 -0.680761 1.000000
tan 0.640461 0.212970 -0.522971 1.000000
tan 0.693657 0.595325 -0.400831 1.000000
tan 0.669787 0.257672 -0.589373 1.000000
tan 0.431335 -0.290719 -0.764833 1.000000
tan 0.049290 -0.696509 -0.693595 1.000000
tan 0.476657 -0.151218 -0.853370 1.000000
tan 0.472813 0.202616 -0.846488 1.000000
tan 0.089962 0.599417 -0.758013 1.000000
tan 0.173972 0.658751 -0.728501 1.000000
tan 0.276149 0.447393 -0.759067 1.000000
tan 0.710211 -0.324323 -0.489181 1.000000
tan 0.734701 -0.332817 -0.402505 1.000000
tan 0.680575 -0.632959 -0.380371 1.000000
tan 0.622729 -0.176018 -0.753425 1.000000
tan 0.425817 -0.599789 -0.670035 1.000000
tan 0.568789 -0.669105 -0.483849 1.000000
tan 0.208816 -0.671585 -0.710273 1.000000
tan 0.366917 -0.660053 -0.651125 1.000000
tan 0.351789 0.523529 0.774691 1.000000
tan 0.384153 0.509021 0.770971 1.000000
tan 0.405481 0.513113 0.756897 1.000000
tan 0.581065 0.499225 0.630169 1.000000
tan 0.219666 0.476471 0.825469 1.000000
tan 0.652489 0.507285 0.542997 1.000000
tan 0.269081 0.495133 0.817719 1.000000
tan 0.679955 0.440015 0.537789 1.000000
tan 0.281233 0.332941 0.803521 1.000000
tan 0.686031 0.368839 0.548577 1.000000
tan 0.391407 0.241615 0.784921 1.000000
tan 0.600285 0.262261 0.702275 1.000000
tan 0.514663 0.050964 0.727633 1.000000
tan 0.601835 0.124930 0.646475 1.000000
tan 0.584041 -0.102486 0.670283 1.000000
tan 0.590799 0.108066 0.663525 1.000000
tan 0.712071 -0.315581 0.487507 1.000000
tan 0.506107 -0.147746 0.783123 1.000000
tan 0.686031 -0.369335 0.541819 1.000000
tan 0.401451 -0.239196 0.787339 1.000000
tan 0.686713 -0.443611 0.531031 1.000000
tan 0.329469 -0.364809 0.805506 1.000000
tan 0.666501 -0.499101 0.529853 1.000000
tan 0.286193 -0.443921 0.814186 1.000000
tan 0.595325 -0.498667 0.618823 1.000000
tan 0.262323 -0.495133 0.817720 1.000000
tan 0.457189 -0.510261 0.724533 1.000000
tan 0.216256 -0.519809 0.831236 1.000000
tan 0.418997 -0.514663 0.750139 1.000000
tan 0.341621 -0.515841 0.789075 1.000000
tan 0.366049 0.254263 0.892244 1.000000
tan 0.298345 0.567859 0.763717 1.000000
tan 0.237150 0.544609 0.794221 1.000000
tan 0.294749 0.419121 0.789943 1.000000
tan 0.408519 0.562527 0.711017 1.000000
tan 0.480005 0.226983 0.784673 1.000000
tan 0.734949 0.419493 0.500961 1.000000
tan 0.672887 0.564077 0.458243 1.000000
tan 0.704755 0.420423 0.491103 1.000000
tan 0.584289 -0.011904 0.784177 1.000000
tan 0.620249 -0.166904 0.620497 1.000000
tan 0.605989 -0.354145 0.680017 1.000000
tan 0.495691 -0.100440 0.831236 1.000000
tan 0.609585 0.146754 0.642817 1.000000
tan 0.384587 -0.275528 0.777296 1.000000
tan 0.158348 -0.538905 0.801724 1.000000
tan 0.600161 -0.307211 0.742700 1.000000
tan 0.386013 -0.570773 0.724657 1.000000
tan 0.692231 -0.507161 0.487321 1.000000
tan 0.387005 -0.562713 0.731787 1.000000
tan 0.574989 -0.557133 0.586645 1.000000
f 3/3/3 2/2/2 1/1/1
f 4/4/4 1/1/1 2/2/2
f 2/2/2 5/5/5 4/4/4
f 5/5/5 2/2/2 6/6/6
f 6/6/6 7/7/7 5/5/5
f 7/7/7 8/8/8 5/5/5
f 8/8/8 9/9/9 5/5/5
f 10/10/10 4/4/4 5/5/5
f 5/5/5 9/9/9 10/10/10
f 4/4/4 11/11/11 1/1/1
f 10/10/10 11/11/11 4/4/4
f 12/12/12 1/1/1 11/11/11
f 13/13/13 1/1/1 12/12/12
f 14/14/14 13/13/13 12/12/12
f 14/14/14 12/12/12 15/15/15
f 15/15/15 12/12/12 16/16/16
f 11/11/11 16/16/16 12/12/12
f 17/17/17 15/15/15 16/16/16
f 18/18/18 16/16/16 11/11/11
f 10/10/10 18/18/18 11/11/11
f 19/19/19 17/17/17 16/16/16
f 16/16/16 18/18/18 19/19/19
f 10/10/10 19/19/19 18/18/18
f 9/9/9 19/19/19 10/10/10
f 20/20/20 17/17/17 19/19/19
f 21/21/21 19/19/19 9/9/9
f 22/22/22 20/20/20 19/19/19
f 21/21/21 22/22/22 19/19/19
f 25/25/25 24/24/24 23/23/23
f 25/25/25 23/23/23 26/26/26
f 24/24/24 27/27/27 23/23/23
f 26/26/26 23/23/23 28/28/28
f 29/29/29 23/23/23 27/27/27
f 30/30/30 26/26/26 28/28/28
f 27/27/27 31/31/31 29/29/29
f 28/28/28 32/32/32 30/30/30
f 31/31/31 27/27/27 33/33/33
f 32/32/32 34/34/34 30/30/30
f 35/35/35 31/31/31 33/33/33
f 32/32/32 36/36/36 34/34/34
f 33/33/33 37/37/37 35/35/35
f 36/36/36 32/32/32 38/38/38
f 39/39/39 35/35/35 37/37/37
f 36/36/36 38/38/38 40/40/40
f 41/41/41 39/39/39 37/37/37
f 42/42/42 40/40/40 38/38/38
f 39/39/39 41/41/41 43/43/43
f 40/40/40 42/42/42 44/44/44
f 41/41/41 45/45/45 43/43/43
f 44/44/44 42/42/42 46/46/46
f 47/47/47 43/43/43 45/45/45
f 44/44/44 46/46/46 48/48/48
f 45/45/45 49/49/49 47/47/47
f 46/46/46 50/50/50 48/48/48
f 51/51/51 47/47/47 49/49/49
f 50/50/50 52/52/52 48/48/48
f 49/49/49 52/52/52 51/51/51
f 52/52/52 50/50/50 51/51/51
f 55/55/55 54/54/54 53/53/53
f 55/55/55 53/53/53 56/56/56
f 54/54/54 57/57/57 53/53/53
f 56/56/56 53/53/53 58/58/58
f 59/59/59 53/53/53 57/57/57
f 59/59/59 57/57/57 60/60/60
f 61/61/61 59/59/59 60/60/60
f 62/62/62 58/58/58 53/53/53
f 62/62/62 63/63/63 58/58/58
f 62/62/62 64/64/64 63/63/63
f 53/53/53 59/59/59 65/65/65
f 59/59/59 61/61/61 65/65/65
f 62/62/62 53/53/53 65/65/65
f 66/66/66 65/65/65 61/61/61
f 66/66/66 67/67/67 65/65/65
f 67/67/67 68/68/68 65/65/65
f 62/62/62 65/65/65 69/69/69
f 69/69/69 65/65/65 68/68/68
f 62/62/62 69/69/69 64/64/64
f 69/69/69 68/68/68 70/70/70
f 71/71/71 64/64/64 69/69/69
f 69/69/69 70/70/70 72/72/72
f 73/73/73 71/71/71 69/69/69
f 72/72/72 73/73/73 69/69/69
