mtllib SM_Tableware_Bowl_01_LOD3.mtl
g SM_Tableware_Bowl_01_LOD3
#Vertices 96
#Indices 384
#Section 0 Offset 0 NumIndices 384 MaterialIndex 0 MI_Tableware
v -0.010410 0.000793 0.081951
v 0.025437 0.003837 0.078805
v 0.054902 0.003602 0.060567
v 0.079530 0.002644 0.027101
v 0.080010 0.003254 -0.020154
v 0.066330 0.000873 -0.048371
v 0.029886 0.003357 -0.078700
v -0.025794 0.002331 -0.079158
v -0.080460 0.000898 -0.021881
v -0.059734 0.003658 -0.056520
v -0.055933 0.002630 0.063325
v -0.079842 0.003755 0.020431
v -0.058477 0.115919 0.129669
v -0.112040 0.116512 0.085135
v -0.128767 0.114369 0.045749
v -0.140029 0.116402 0.007387
v -0.131519 0.112634 -0.044886
v -0.068544 0.104030 0.121618
v -0.118240 0.075437 -0.033931
v 0.004757 0.116803 0.137886
v -0.006867 0.114496 0.139775
v 0.057278 0.115951 0.128824
v 0.050315 0.110174 0.127452
v 0.101108 0.110602 0.102497
v -0.091204 0.029011 0.032275
v 0.090221 0.113195 0.099531
v 0.121478 0.116374 0.070737
v 0.131494 0.112659 0.044879
v -0.019903 0.025960 0.092476
v 0.118241 0.075450 0.033908
v 0.128897 0.113590 -0.048042
v 0.140029 0.116401 -0.007411
v 0.060989 0.030835 0.069584
v 0.088972 0.023584 -0.008105
v 0.043032 0.011832 0.049640
v -0.030289 0.013830 0.046384
v 0.051419 0.013909 -0.021404
v -0.065221 0.012754 0.008626
v -0.022062 0.011698 -0.052908
v 0.059069 0.025552 -0.067613
v -0.068181 0.025993 -0.059136
v 0.004893 0.030648 -0.094242
v -0.057743 0.076963 -0.106054
v 0.067686 0.100065 -0.121431
v -0.090220 0.113195 -0.099549
v -0.121476 0.116375 -0.070765
v -0.101090 0.110611 -0.102524
v -0.048408 0.112655 -0.127203
v -0.057324 0.115954 -0.128825
v 0.061792 0.115489 -0.128786
v 0.112043 0.116511 -0.085153
v 0.019809 0.113286 -0.133179
v -0.008017 0.117051 -0.138679
v 0.006867 0.114498 -0.139797
v 0.080010 0.003254 -0.020154
v 0.099749 0.011547 -0.033463
v 0.066330 0.000873 -0.048371
v 0.079530 0.002644 0.027101
v 0.029886 0.003357 -0.078700
v 0.070352 0.011961 0.076654
v 0.054902 0.003602 0.060567
v 0.025437 0.003837 0.078805
v 0.016732 0.012563 -0.101287
v -0.025794 0.002331 -0.079158
v -0.016678 0.012574 0.101279
v -0.010410 0.000793 0.081951
v -0.055933 0.002630 0.063325
v -0.070488 0.012240 -0.076839
v -0.059734 0.003658 -0.056520
v -0.080460 0.000898 -0.021881
v -0.099850 0.011515 0.033081
v -0.079842 0.003755 0.020431
v -0.074784 0.100419 0.123655
v -0.148873 0.098035 0.009742
v 0.028947 0.100836 0.138369
v -0.006867 0.114496 0.139775
v -0.058477 0.115919 0.129669
v 0.057278 0.115951 0.128824
v -0.112040 0.116512 0.085135
v 0.101108 0.110602 0.102497
v -0.128767 0.114369 0.045749
v -0.140029 0.116402 0.007387
v -0.131519 0.112634 -0.044886
v -0.121476 0.116375 -0.070765
v -0.101090 0.110611 -0.102524
v -0.028946 0.100837 -0.138390
v -0.057324 0.115954 -0.128825
v 0.006867 0.114498 -0.139797
v 0.074788 0.100420 -0.123675
v 0.061792 0.115489 -0.128786
v 0.112043 0.116511 -0.085153
v 0.148867 0.098045 -0.009774
v 0.128897 0.113590 -0.048042
v 0.121478 0.116374 0.070737
v 0.140029 0.116401 -0.007411
v 0.131494 0.112659 0.044879
vt 0.643555 0.843018
vt 0.678711 0.840332
vt 0.709473 0.853516
vt 0.738281 0.882141
vt 0.746094 0.927490
vt 0.736816 0.956696
vt 0.706543 0.991486
vt 0.652832 1.000192
vt 0.591797 0.953308
vt 0.616699 0.983749
vt 0.602539 0.867676
vt 0.585938 0.912537
vt 0.187744 0.736328
vt 0.105347 0.709717
vt 0.068787 0.672119
vt 0.036499 0.633057
vt 0.022552 0.566895
vt 0.177002 0.722900
vt 0.061066 0.572266
vt 0.264648 0.718994
vt 0.252930 0.725830
vt 0.322510 0.682861
vt 0.309570 0.678711
vt 0.356201 0.628418
vt 0.128540 0.617676
vt 0.346191 0.632324
vt 0.368652 0.584229
vt 0.367920 0.551270
vt 0.208862 0.642578
vt 0.329346 0.545898
vt 0.319336 0.443848
vt 0.354004 0.485352
vt 0.271240 0.597656
vt 0.265869 0.522949
vt 0.246094 0.584961
vt 0.185669 0.606201
vt 0.229980 0.525146
vt 0.145386 0.586914
vt 0.160400 0.523193
vt 0.221680 0.482910
vt 0.118774 0.532715
vt 0.167358 0.476562
vt 0.093201 0.473633
vt 0.212524 0.397461
vt 0.044006 0.485840
vt 0.021652 0.533936
vt 0.034027 0.489746
vt 0.080750 0.433594
vt 0.067566 0.435547
vt 0.206543 0.381836
vt 0.285156 0.408203
vt 0.155518 0.395508
vt 0.120605 0.401367
vt 0.137085 0.392090
vt 0.252686 0.158203
vt 0.274902 0.156738
vt 0.257568 0.185059
vt 0.227051 0.126465
vt 0.249756 0.225586
vt 0.194092 0.096191
vt 0.192505 0.115723
vt 0.162354 0.119141
vt 0.252930 0.249023
vt 0.211304 0.254883
vt 0.120850 0.125488
vt 0.136597 0.136719
vt 0.115540 0.173828
vt 0.179810 0.278809
vt 0.175781 0.258301
vt 0.143555 0.244141
vt 0.099060 0.218262
vt 0.120911 0.215820
vt 0.019943 0.123047
vt 0.038300 0.291016
vt 0.109619 0.027832
vt 0.065552 0.044434
vt 0.018631 0.096680
vt 0.141602 0.002441
vt -0.003361 0.188477
vt 0.210205 0.002930
vt 0.008507 0.244629
vt 0.031143 0.294922
vt 0.083191 0.342773
vt 0.114502 0.362793
vt 0.163696 0.371582
vt 0.264404 0.346680
vt 0.232300 0.372070
vt 0.308350 0.330078
vt 0.354004 0.250977
vt 0.356689 0.272949
vt 0.377197 0.185547
vt 0.335449 0.083496
vt 0.365234 0.132812
vt 0.259521 0.011230
vt 0.342773 0.079102
vt 0.290771 0.031250
vt1 0.730469 0.749268
vt1 0.676270 0.744873
vt1 0.627930 0.765259
vt1 0.583984 0.809692
vt1 0.571777 0.879822
vt1 0.585938 0.924927
vt1 0.632812 0.978760
vt1 0.715820 0.992233
vt1 0.810059 0.919739
vt1 0.771973 0.966797
vt1 0.793945 0.787354
vt1 0.819824 0.856689
vt1 0.705566 0.558350
vt1 0.577637 0.517090
vt1 0.520996 0.458496
vt1 0.470947 0.397949
vt1 0.449219 0.295410
vt1 0.688477 0.537354
vt1 0.508789 0.303711
vt1 0.824707 0.531006
vt1 0.806641 0.541992
vt1 0.914551 0.475098
vt1 0.894531 0.468750
vt1 0.966797 0.391113
vt1 0.613281 0.374023
vt1 0.951172 0.396973
vt1 0.986328 0.322266
vt1 0.984863 0.271484
vt1 0.738281 0.413086
vt1 0.925293 0.262695
vt1 0.909668 0.104492
vt1 0.963379 0.168457
vt1 0.834961 0.343262
vt1 0.826660 0.227539
vt1 0.795898 0.323730
vt1 0.702148 0.356445
vt1 0.770996 0.230469
vt1 0.639648 0.326172
vt1 0.663086 0.227539
vt1 0.757812 0.165527
vt1 0.598145 0.242188
vt1 0.673828 0.155273
vt1 0.558594 0.150391
vt1 0.743652 0.032227
vt1 0.482422 0.169922
vt1 0.447754 0.244141
vt1 0.467041 0.175781
vt1 0.539551 0.088379
vt1 0.519043 0.091309
vt1 0.734375 0.008301
vt1 0.856445 0.048828
vt1 0.655273 0.029297
vt1 0.601074 0.038574
vt1 0.626953 0.023926
vt1 0.393066 0.663330
vt1 0.426758 0.660645
vt1 0.400635 0.703857
vt1 0.353760 0.614746
vt1 0.388428 0.765747
vt1 0.303467 0.568359
vt1 0.301270 0.598877
vt1 0.255371 0.603516
vt1 0.393555 0.801270
vt1 0.329834 0.810669
vt1 0.192139 0.613281
vt1 0.216187 0.630859
vt1 0.184082 0.687012
vt1 0.281982 0.846680
vt1 0.275879 0.815430
vt1 0.226807 0.794312
vt1 0.158936 0.754395
vt1 0.192261 0.750977
vt1 0.038422 0.609863
vt1 0.066406 0.865234
vt1 0.175049 0.464355
vt1 0.107910 0.489746
vt1 0.036438 0.569824
vt1 0.223877 0.425781
vt1 0.002945 0.709473
vt1 0.328369 0.426758
vt1 0.021027 0.794800
vt1 0.055511 0.871704
vt1 0.134766 0.944580
vt1 0.182495 0.974930
vt1 0.257324 0.987907
vt1 0.410645 0.950104
vt1 0.361816 0.988838
vt1 0.478027 0.924866
vt1 0.547363 0.804565
vt1 0.551270 0.838257
vt1 0.582520 0.704834
vt1 0.519043 0.549316
vt1 0.564453 0.624268
vt1 0.403320 0.439941
vt1 0.529785 0.542725
vt1 0.450928 0.470215
vn -0.070866 -0.992126 0.110236
vn 0.141732 -0.874016 0.464567
vn 0.314961 -0.881890 0.354331
vn 0.259843 -0.960630 0.070866
vn 0.370079 -0.929134 -0.086614
vn 0.094488 -0.992126 -0.055118
vn 0.157480 -0.889764 -0.425197
vn -0.070866 -0.968504 -0.220472
vn -0.110236 -0.992126 -0.031496
vn -0.338583 -0.881890 -0.330709
vn -0.149606 -0.968504 0.188976
vn -0.464567 -0.874016 0.133858
vn 0.031496 1.000000 0.023622
vn -0.133858 0.984252 0.070866
vn 0.850394 0.425197 -0.299213
vn -0.212598 0.976378 -0.015748
vn 0.834646 0.472441 0.275590
vn 0.440945 0.346457 -0.826772
vn 0.881890 0.409449 0.251968
vn -0.023622 0.803149 -0.598425
vn -0.047244 0.031496 1.000000
vn 0.267717 0.645669 0.708661
vn -0.354331 0.362205 -0.858268
vn 0.102362 0.984252 0.149606
vn 0.732283 0.622047 -0.267717
vn -0.590551 0.464567 -0.653543
vn 0.173228 0.984252 0.078740
vn -0.834646 0.472441 -0.275591
vn 0.157480 0.669291 -0.724409
vn -0.881890 0.409449 -0.251969
vn -0.866142 0.377953 0.322835
vn 0.212598 0.976378 0.015748
vn -0.511811 0.629921 -0.582677
vn -0.724409 0.685039 0.070866
vn -0.157480 0.968504 -0.188976
vn 0.023622 1.000000 -0.015748
vn -0.023622 1.000000 -0.000000
vn 0.275591 0.960630 -0.023622
vn 0.031496 1.000000 0.078740
vn -0.480315 0.677165 0.551181
vn 0.559055 0.677165 0.480315
vn -0.039370 0.622047 0.779527
vn 0.440945 0.409449 0.803149
vn -0.440945 0.362205 0.818897
vn 0.590551 0.464567 0.653543
vn -0.173228 0.984252 -0.078740
vn -0.102362 0.984252 -0.149606
vn 0.322835 0.472441 0.818897
vn -0.267717 0.653543 -0.708661
vn -0.023622 1.000000 -0.047244
vn 0.133858 0.984252 -0.070866
vn -0.133858 0.464567 0.874016
vn 0.023622 0.984252 0.188976
vn 0.047244 0.031496 -1.000000
vn 0.464567 -0.881890 -0.110236
vn 0.748031 -0.614173 -0.251968
vn 0.370079 -0.889764 -0.267716
vn 0.464567 -0.874016 0.149606
vn 0.165354 -0.874016 -0.448819
vn 0.535433 -0.614173 0.582677
vn 0.314961 -0.881890 0.354331
vn 0.141732 -0.874016 0.456693
vn 0.125984 -0.622047 -0.771653
vn -0.141732 -0.881890 -0.448819
vn -0.125984 -0.622047 0.771653
vn -0.062992 -0.889764 0.456693
vn -0.338583 -0.874016 0.354331
vn -0.535433 -0.614173 -0.582677
vn -0.346457 -0.881890 -0.322834
vn -0.440945 -0.889764 -0.110236
vn -0.748031 -0.614173 0.244095
vn -0.464567 -0.874016 0.110236
vn -0.503937 -0.228346 0.834646
vn -0.968504 -0.244094 0.070866
vn 0.196850 -0.228346 0.952756
vn -0.047244 0.031496 1.000000
vn -0.409449 0.047244 0.913386
vn 0.401575 0.062992 0.913386
vn -0.795276 0.070866 0.598425
vn 0.692913 -0.149606 0.700787
vn -0.937008 0.039370 0.338583
vn -1.000000 0.070866 0.047244
vn -0.944882 0.007874 -0.322835
vn -0.866142 0.070866 -0.503937
vn -0.692913 -0.149606 -0.700787
vn -0.196850 -0.228347 -0.952756
vn -0.401575 0.062992 -0.913386
vn 0.047244 0.031496 -1.000000
vn 0.503937 -0.228347 -0.834646
vn 0.433071 0.039370 -0.897638
vn 0.795276 0.070866 -0.598425
vn 0.968504 -0.244094 -0.070866
vn 0.937008 0.015748 -0.354331
vn 0.866142 0.070866 0.503937
vn 1.000000 0.070866 -0.047244
vn 0.944882 0.007874 0.322835
tan 0.124992 0.100440 0.984314 1.000000
tan 0.089466 0.475417 0.867134 1.000000
tan 0.172112 0.415401 0.880898 1.000000
tan 0.226920 0.130014 0.930374 1.000000
tan 0.212846 -0.000062 0.910100 1.000000
tan 0.156240 -0.039370 0.976502 1.000000
tan 0.042036 -0.417757 0.889764 1.000000
tan 0.129642 -0.228222 0.960878 1.000000
tan 0.171864 -0.050096 0.976502 1.000000
tan 0.196168 -0.400211 0.866390 1.000000
tan 0.122016 0.168640 0.960878 1.000000
tan 0.178374 0.039246 0.875318 1.000000
tan 0.259843 0.014694 -0.968504 1.000000
tan 0.572943 0.135470 -0.799305 1.000000
tan -0.015376 -0.459297 -0.696385 1.000000
tan 0.684481 0.137826 -0.695269 1.000000
tan 0.434621 -0.315457 -0.775497 1.000000
tan -0.219666 -0.804638 -0.454337 1.000000
tan 0.390105 -0.346209 -0.802777 1.000000
tan 0.107260 -0.591667 -0.798313 1.000000
tan 0.377953 0.921260 -0.011160 1.000000
tan 0.221216 0.672329 -0.696137 1.000000
tan 0.632401 -0.577221 -0.504681 1.000000
tan 0.193750 0.125922 -0.961002 1.000000
tan 0.520987 -0.741956 -0.298902 1.000000
tan 0.600471 -0.281853 -0.742947 1.000000
tan 0.303491 0.021824 -0.940480 1.000000
tan 0.427181 0.302312 -0.775497 1.000000
tan -0.007006 -0.728129 -0.674251 1.000000
tan 0.393329 0.353153 -0.802777 1.000000
tan -0.078120 0.434869 -0.718705 1.000000
tan 0.676793 -0.136028 -0.702957 1.000000
tan 0.382169 -0.426437 -0.796701 1.000000
tan 0.665881 0.720813 -0.161076 1.000000
tan 0.266911 -0.138136 -0.930374 1.000000
tan 0.362205 -0.023188 -0.929134 1.000000
tan 0.409449 0.009672 -0.913386 1.000000
tan 0.574865 -0.183706 -0.763965 1.000000
tan 0.307087 0.065348 -0.952756 1.000000
tan 0.205840 0.692541 -0.671461 1.000000
tan 0.367475 0.264492 -0.800608 1.000000
tan 0.030690 0.779527 -0.620497 1.000000
tan 0.651373 0.467977 -0.596193 1.000000
tan -0.191332 0.803521 -0.458429 1.000000
tan 0.604129 0.272056 -0.739290 1.000000
tan 0.318991 -0.018476 -0.932730 1.000000
tan 0.201500 -0.125116 -0.961002 1.000000
tan 0.422841 0.700291 -0.570711 1.000000
tan 0.227044 -0.672329 -0.705809 1.000000
tan 0.275591 -0.038874 -0.960630 1.000000
tan 0.572943 -0.135470 -0.799305 1.000000
tan 0.158720 0.862360 -0.434063 1.000000
tan 0.255751 0.176886 -0.953252 1.000000
tan 0.385827 -0.921260 -0.010788 1.000000
tan 0.764710 0.346829 0.448075 1.000000
tan 0.661417 0.710645 0.231384 1.000000
tan 0.637547 0.077562 0.623535 1.000000
tan 0.769607 0.481555 0.423461 1.000000
tan 0.275281 -0.375535 0.832724 1.000000
tan 0.389113 0.788146 0.473185 1.000000
tan 0.531899 0.472751 0.703825 1.000000
tan 0.320169 0.475665 0.810961 1.000000
tan 0.097216 -0.765577 0.633021 1.000000
tan 0.263873 -0.470023 0.840226 1.000000
tan 0.097216 0.765577 0.633021 1.000000
tan 0.224192 0.426437 0.861740 1.000000
tan 0.563023 0.057474 0.679769 1.000000
tan 0.389113 -0.788145 0.473185 1.000000
tan 0.580755 -0.470643 0.662409 1.000000
tan 0.784674 -0.440945 0.420361 1.000000
tan 0.659185 -0.710893 0.231385 1.000000
tan 0.712319 -0.311675 0.530783 1.000000
tan 0.816108 0.149916 0.533759 1.000000
tan 0.198338 -0.557257 0.791183 1.000000
tan 0.510137 0.802716 0.086986 1.000000
tan 0.716535 0.692913 0.012028 1.000000
tan 0.892182 0.190216 0.390105 1.000000
tan 0.402753 0.819889 -0.233617 1.000000
tan 0.600657 0.025048 0.795275 1.000000
tan -0.440077 0.681257 0.580569 1.000000
tan 0.330647 -0.125426 0.929630 1.000000
tan 0.013578 -0.417323 0.913386 1.000000
tan -0.263997 -0.565441 0.758881 1.000000
tan -0.469341 -0.454089 0.742823 1.000000
tan -0.440077 -0.681257 0.580569 1.000000
tan 0.510137 -0.802716 0.086986 1.000000
tan 0.402753 -0.819889 -0.233616 1.000000
tan 0.724409 -0.692913 0.012400 1.000000
tan 0.816108 -0.149916 0.533759 1.000000
tan 0.883812 -0.165974 0.419121 1.000000
tan 0.600657 -0.025048 0.795275 1.000000
tan 0.198338 0.557257 0.791183 1.000000
tan 0.349433 0.125426 0.929630 1.000000
tan -0.469341 0.454089 0.742823 1.000000
tan 0.013578 0.417323 0.913386 1.000000
tan -0.263997 0.565441 0.758881 1.000000
f 3/3/3 2/2/2 1/1/1
f 1/1/1 4/4/4 3/3/3
f 4/4/4 6/6/6 5/5/5
f 4/4/4 1/1/1 6/6/6
f 8/8/8 7/7/7 6/6/6
f 9/9/9 6/6/6 1/1/1
f 9/9/9 8/8/8 6/6/6
f 9/9/9 10/10/10 8/8/8
f 9/9/9 1/1/1 11/11/11
f 9/9/9 11/11/11 12/12/12
f 15/15/15 14/14/14 13/13/13
f 17/17/17 16/16/16 15/15/15
f 18/18/18 15/15/15 13/13/13
f 15/15/15 19/19/19 17/17/17
f 20/20/20 18/18/18 13/13/13
f 20/20/20 13/13/13 21/21/21
f 22/22/22 20/20/20 21/21/21
f 20/20/20 22/22/22 23/23/23
f 23/23/23 18/18/18 20/20/20
f 23/23/23 22/22/22 24/24/24
f 18/18/18 25/25/25 15/15/15
f 15/15/15 25/25/25 19/19/19
f 24/24/24 26/26/26 23/23/23
f 26/26/26 24/24/24 27/27/27
f 28/28/28 26/26/26 27/27/27
f 26/26/26 28/28/28 23/23/23
f 29/29/29 25/25/25 18/18/18
f 23/23/23 29/29/29 18/18/18
f 30/30/30 23/23/23 28/28/28
f 28/28/28 32/32/32 31/31/31
f 31/31/31 30/30/30 28/28/28
f 30/30/30 33/33/33 23/23/23
f 29/29/29 23/23/23 33/33/33
f 33/33/33 30/30/30 34/34/34
f 31/31/31 34/34/34 30/30/30
f 29/29/29 33/33/33 35/35/35
f 34/34/34 35/35/35 33/33/33
f 36/36/36 29/29/29 35/35/35
f 34/34/34 37/37/37 35/35/35
f 37/37/37 36/36/36 35/35/35
f 29/29/29 36/36/36 38/38/38
f 29/29/29 38/38/38 25/25/25
f 36/36/36 37/37/37 39/39/39
f 39/39/39 38/38/38 36/36/36
f 40/40/40 37/37/37 34/34/34
f 37/37/37 40/40/40 39/39/39
f 34/34/34 31/31/31 40/40/40
f 38/38/38 41/41/41 25/25/25
f 39/39/39 41/41/41 38/38/38
f 25/25/25 41/41/41 19/19/19
f 39/39/39 40/40/40 42/42/42
f 39/39/39 42/42/42 41/41/41
f 43/43/43 19/19/19 41/41/41
f 42/42/42 43/43/43 41/41/41
f 17/17/17 19/19/19 43/43/43
f 40/40/40 44/44/44 42/42/42
f 43/43/43 42/42/42 44/44/44
f 40/40/40 31/31/31 44/44/44
f 17/17/17 43/43/43 45/45/45
f 17/17/17 45/45/45 46/46/46
f 47/47/47 46/46/46 45/45/45
f 45/45/45 43/43/43 48/48/48
f 47/47/47 45/45/45 48/48/48
f 44/44/44 48/48/48 43/43/43
f 48/48/48 49/49/49 47/47/47
f 50/50/50 44/44/44 31/31/31
f 31/31/31 51/51/51 50/50/50
f 48/48/48 44/44/44 52/52/52
f 50/50/50 52/52/52 44/44/44
f 53/53/53 49/49/49 48/48/48
f 52/52/52 53/53/53 48/48/48
f 50/50/50 53/53/53 52/52/52
f 49/49/49 53/53/53 54/54/54
f 54/54/54 53/53/53 50/50/50
f 57/57/57 56/56/56 55/55/55
f 55/55/55 56/56/56 58/58/58
f 59/59/59 56/56/56 57/57/57
f 58/58/58 56/56/56 60/60/60
f 61/61/61 58/58/58 60/60/60
f 62/62/62 61/61/61 60/60/60
f 63/63/63 56/56/56 59/59/59
f 59/59/59 64/64/64 63/63/63
f 60/60/60 65/65/65 62/62/62
f 62/62/62 65/65/65 66/66/66
f 66/66/66 65/65/65 67/67/67
f 63/63/63 64/64/64 68/68/68
f 64/64/64 69/69/69 68/68/68
f 69/69/69 70/70/70 68/68/68
f 65/65/65 71/71/71 67/67/67
f 68/68/68 70/70/70 71/71/71
f 72/72/72 67/67/67 71/71/71
f 72/72/72 71/71/71 70/70/70
f 65/65/65 73/73/73 71/71/71
f 71/71/71 74/74/74 68/68/68
f 71/71/71 73/73/73 74/74/74
f 73/73/73 65/65/65 75/75/75
f 65/65/65 60/60/60 75/75/75
f 75/75/75 76/76/76 73/73/73
f 77/77/77 73/73/73 76/76/76
f 78/78/78 76/76/76 75/75/75
f 79/79/79 73/73/73 77/77/77
f 74/74/74 73/73/73 79/79/79
f 75/75/75 80/80/80 78/78/78
f 80/80/80 75/75/75 60/60/60
f 79/79/79 81/81/81 74/74/74
f 81/81/81 82/82/82 74/74/74
f 74/74/74 82/82/82 83/83/83
f 74/74/74 83/83/83 84/84/84
f 74/74/74 84/84/84 85/85/85
f 74/74/74 85/85/85 68/68/68
f 85/85/85 86/86/86 68/68/68
f 86/86/86 85/85/85 87/87/87
f 63/63/63 68/68/68 86/86/86
f 87/87/87 88/88/88 86/86/86
f 63/63/63 86/86/86 89/89/89
f 88/88/88 89/89/89 86/86/86
f 56/56/56 63/63/63 89/89/89
f 89/89/89 88/88/88 90/90/90
f 89/89/89 90/90/90 91/91/91
f 56/56/56 89/89/89 92/92/92
f 92/92/92 89/89/89 91/91/91
f 60/60/60 56/56/56 92/92/92
f 80/80/80 60/60/60 92/92/92
f 91/91/91 93/93/93 92/92/92
f 94/94/94 80/80/80 92/92/92
f 93/93/93 95/95/95 92/92/92
f 94/94/94 92/92/92 96/96/96
f 96/96/96 92/92/92 95/95/95
