mtllib SM_Walls_LOD4.mtl
g SM_Walls_LOD4
#Vertices 36
#Indices 48
#Section 0 Offset 0 NumIndices 48 MaterialIndex 0 MI_Walls
v 0.390404 4.005334 -4.827728
v -3.933681 2.246726 -4.959526
v 0.062510 -0.246382 -4.348677
v 0.062510 -0.246382 -4.348677
v -3.933681 2.246726 -4.959526
v 0.390404 4.005334 -4.827728
v -4.014909 -3.871941 3.671999
v -3.639061 2.503013 5.471948
v -3.933681 2.246726 -4.959526
v -4.014909 -3.871941 3.671999
v -3.933681 2.246726 -4.959526
v -3.639061 2.503013 5.471948
v 8.789520 3.386973 -14.978445
v 0.200088 3.608348 -13.820012
v 0.220084 -0.353434 -14.995358
v 9.473588 -0.133134 -13.614182
v 8.671494 -0.118403 0.848878
v 9.473588 -0.133134 -13.614182
v 8.789520 3.386973 -14.978445
v 8.832151 3.245676 1.147676
v 0.220084 -0.353434 -14.995358
v 0.062510 -0.246382 -4.348677
v 0.200088 3.608348 -13.820012
v 0.390404 4.005334 -4.827728
v 0.062510 -0.246382 -4.348677
v 0.220084 -0.353434 -14.995358
v 0.200088 3.608348 -13.820012
v 0.390404 4.005334 -4.827728
v 9.473588 -0.133134 -13.614182
v 0.220084 -0.353434 -14.995358
v 0.200088 3.608348 -13.820012
v 8.789520 3.386973 -14.978445
v 9.473588 -0.133134 -13.614182
v 8.671494 -0.118403 0.848878
v 8.832151 3.245676 1.147676
v 8.789520 3.386973 -14.978445
vt -0.577637 1.147095
vt 0.541504 0.729492
vt -0.483154 0.132324
vt -0.418945 0.127441
vt 0.571289 0.714600
vt -0.499023 1.147095
vt 1.412109 -0.745117
vt 1.875000 0.785400
vt -0.729492 0.706787
vt 1.434570 -0.749023
vt -0.736328 0.706787
vt 1.904297 0.785522
vt 0.446289 0.999530
vt 2.478516 1.070679
vt 2.464844 0.093262
vt 0.275146 0.120605
vt -0.482666 0.151855
vt 3.535156 0.195801
vt 3.634766 0.999780
vt -0.517090 0.965271
vt 0.166992 0.095703
vt 2.824219 0.110840
vt 0.464355 1.055634
vt 2.710938 1.143677
vt 2.876953 0.109375
vt 0.238159 0.095215
vt 0.533203 1.056122
vt 2.761719 1.143433
vt 0.224487 0.134277
vt 2.527344 0.088867
vt 2.531250 1.039948
vt 0.390381 0.999535
vt 3.695312 0.193359
vt -0.614746 0.149902
vt -0.506836 0.954651
vt 3.375000 0.999314
vt1 0.847168 0.385742
vt1 0.996582 0.329590
vt1 0.859375 0.249512
vt1 0.881348 0.131348
vt1 1.016602 0.211426
vt1 0.870605 0.270508
vt1 0.804199 0.130859
vt1 0.867676 0.339355
vt1 0.511719 0.328125
vt1 0.817871 0.012207
vt1 0.521484 0.210449
vt1 0.882324 0.221191
vt1 0.052307 0.702881
vt1 0.337646 0.712891
vt1 0.335693 0.575439
vt1 0.028244 0.579102
vt1 0.395508 0.655029
vt1 0.943359 0.661133
vt1 0.956543 0.770630
vt1 0.391113 0.765991
vt1 0.586426 0.481934
vt1 0.949219 0.483887
vt1 0.626953 0.612549
vt1 0.933594 0.624512
vt1 0.431885 0.458984
vt1 0.070374 0.457031
vt1 0.110840 0.588379
vt1 0.416016 0.600098
vt1 0.093323 0.341797
vt1 0.407471 0.335938
vt1 0.407959 0.464844
vt1 0.115967 0.459961
vt1 0.571777 0.783936
vt1 -0.024170 0.777832
vt1 -0.009232 0.889099
vt1 0.527344 0.895264
vn 0.000000 -0.000000 -1.000000
vn 0.000000 -0.000000 -1.000000
vn 0.000000 -0.000000 -1.000000
vn 0.000000 0.000000 1.000000
vn 0.000000 0.000000 1.000000
vn 0.000000 0.000000 1.000000
vn 1.000000 0.000000 0.000000
vn 1.000000 0.000000 0.000000
vn 1.000000 0.000000 0.000000
vn -1.000000 0.000000 0.000000
vn -1.000000 0.000000 0.000000
vn -1.000000 0.000000 0.000000
vn 0.000000 -0.000000 -1.000000
vn 0.000000 -0.000000 -1.000000
vn 0.000000 -0.000000 -1.000000
vn 0.000000 -0.000000 -1.000000
vn -1.000000 0.000000 0.000000
vn -1.000000 0.000000 0.000000
vn -1.000000 0.000000 0.000000
vn -1.000000 0.000000 0.000000
vn 1.000000 0.000000 0.000000
vn 1.000000 0.000000 0.000000
vn 1.000000 0.000000 0.000000
vn 1.000000 0.000000 0.000000
vn -1.000000 0.000000 0.000000
vn -1.000000 0.000000 0.000000
vn -1.000000 0.000000 0.000000
vn -1.000000 0.000000 0.000000
vn 0.000000 0.000000 1.000000
vn 0.000000 0.000000 1.000000
vn 0.000000 0.000000 1.000000
vn 0.000000 0.000000 1.000000
vn 1.000000 0.000000 0.000000
vn 1.000000 0.000000 0.000000
vn 1.000000 0.000000 0.000000
vn 1.000000 0.000000 0.000000
tan 0.000000 -1.000000 0.000000 1.000000
tan 0.000000 -1.000000 0.000000 1.000000
tan 0.000000 -1.000000 0.000000 1.000000
tan 0.000000 -1.000000 0.000000 1.000000
tan 0.000000 -1.000000 0.000000 1.000000
tan 0.000000 -1.000000 0.000000 1.000000
tan 0.000000 -1.000000 -0.007874 1.000000
tan 0.000000 -1.000000 -0.007874 1.000000
tan 0.000000 -1.000000 0.007874 1.000000
tan 0.000000 -1.000000 -0.007874 1.000000
tan 0.000000 -1.000000 0.007874 1.000000
tan 0.000000 -1.000000 -0.007874 1.000000
tan 0.000000 -1.000000 0.000000 1.000000
tan 0.000000 -1.000000 0.000000 1.000000
tan 0.000000 -1.000000 0.000000 1.000000
tan 0.000000 -1.000000 0.000000 1.000000
tan 0.000000 -1.000000 0.000000 1.000000
tan 0.000000 -1.000000 0.000000 1.000000
tan 0.000000 -1.000000 0.000000 1.000000
tan 0.000000 -1.000000 0.000000 1.000000
tan 0.000000 -1.000000 0.007874 1.000000
tan 0.000000 -1.000000 0.007874 1.000000
tan 0.000000 -1.000000 0.007874 1.000000
tan 0.000000 -1.000000 0.007874 1.000000
tan 0.000000 -1.000000 0.007874 1.000000
tan 0.000000 -1.000000 0.000000 1.000000
tan 0.000000 -1.000000 0.000000 1.000000
tan 0.000000 -1.000000 0.007874 1.000000
tan 0.000000 -1.000000 0.000000 1.000000
tan 0.000000 -1.000000 0.000000 1.000000
tan 0.000000 -1.000000 0.000000 1.000000
tan 0.000000 -1.000000 0.000000 1.000000
tan 0.000000 -1.000000 0.000000 1.000000
tan 0.000000 -1.000000 0.000000 1.000000
tan 0.000000 -1.000000 0.000000 1.000000
tan 0.000000 -1.000000 0.000000 1.000000
f 3/3/3 2/2/2 1/1/1
f 6/6/6 5/5/5 4/4/4
f 9/9/9 8/8/8 7/7/7
f 12/12/12 11/11/11 10/10/10
f 15/15/15 14/14/14 13/13/13
f 16/16/16 15/15/15 13/13/13
f 19/19/19 18/18/18 17/17/17
f 19/19/19 17/17/17 20/20/20
f 23/23/23 22/22/22 21/21/21
f 24/24/24 22/22/22 23/23/23
f 27/27/27 26/26/26 25/25/25
f 25/25/25 28/28/28 27/27/27
f 31/31/31 30/30/30 29/29/29
f 32/32/32 31/31/31 29/29/29
f 35/35/35 34/34/34 33/33/33
f 35/35/35 33/33/33 36/36/36
