mtllib SM_WoodPart_03_LOD3.mtl
g SM_WoodPart_03_LOD3
#Vertices 48
#Indices 150
#Section 0 Offset 0 NumIndices 150 MaterialIndex 0 MI_WoodPart
v -0.103497 -0.011605 0.039736
v -0.102605 -0.008927 0.019515
v -0.106725 0.008719 0.032528
v -0.105018 -0.006303 -0.022946
v -0.106101 0.031688 0.014287
v -0.102820 0.017650 -0.034622
v -0.099127 -0.006868 -0.037153
v -0.102341 0.037698 -0.004887
v 0.103196 0.015906 0.026958
v 0.103549 -0.013071 -0.033858
v 0.101277 0.000140 0.033422
v 0.100712 -0.006292 -0.039535
v 0.100316 0.038173 -0.021475
v 0.100654 0.035464 0.016364
v 0.038058 -0.000791 0.035176
v -0.102605 -0.008927 0.019515
v -0.103497 -0.011605 0.039736
v -0.105018 -0.006303 -0.022946
v 0.074290 -0.012454 -0.035664
v -0.099127 -0.006868 -0.037153
v 0.047490 -0.008692 -0.019567
v 0.103549 -0.013071 -0.033858
v 0.086580 -0.003135 -0.001814
v 0.101277 0.000140 0.033422
v 0.077902 0.000612 0.018441
v 0.061359 0.004312 0.037401
v 0.074290 -0.012454 -0.035664
v 0.103549 -0.013071 -0.033858
v 0.100712 -0.006292 -0.039535
v -0.099127 -0.006868 -0.037153
v -0.073993 0.004036 -0.036894
v -0.102820 0.017650 -0.034622
v -0.078028 0.028902 -0.025647
v -0.102341 0.037698 -0.004887
v 0.083942 0.019990 -0.032447
v 0.100316 0.038173 -0.021475
v 0.079666 0.043991 -0.006289
v 0.100654 0.035464 0.016364
v 0.050233 0.039124 0.015830
v -0.106101 0.031688 0.014287
v 0.075984 0.016772 0.035917
v 0.103196 0.015906 0.026958
v 0.101277 0.000140 0.033422
v 0.061359 0.004312 0.037401
v 0.038058 -0.000791 0.035176
v -0.069670 0.002513 0.039207
v -0.106725 0.008719 0.032528
v -0.103497 -0.011605 0.039736
vt 0.000670 0.299316
vt 0.008682 0.277832
vt 0.025528 0.296875
vt 0.022888 0.230469
vt 0.056000 0.282227
vt 0.052948 0.223145
vt 0.026016 0.213379
vt 0.068054 0.262207
vt 0.113403 0.944183
vt 0.131348 0.868164
vt 0.132690 0.947906
vt 0.122070 0.863403
vt 0.076233 0.894775
vt 0.088440 0.936890
vt 0.007687 0.700195
vt 0.027542 0.863647
vt 0.004116 0.864990
vt 0.077393 0.865601
vt 0.090942 0.656982
vt 0.093994 0.858765
vt 0.071777 0.688477
vt 0.088928 0.623291
vt 0.049927 0.642822
vt 0.008972 0.623779
vt 0.024948 0.651855
vt 0.002481 0.671631
vt 0.659668 0.514404
vt 0.660645 0.480469
vt 0.669922 0.483887
vt 0.650879 0.718018
vt 0.665039 0.689209
vt 0.680176 0.723877
vt 0.696289 0.695557
vt 0.721191 0.725098
vt 0.699219 0.506348
vt 0.725586 0.489746
vt 0.738770 0.515869
vt 0.769043 0.494629
vt 0.761719 0.552246
vt 0.743164 0.731934
vt 0.798340 0.525391
vt 0.795410 0.492676
vt 0.815430 0.495117
vt 0.811523 0.543457
vt 0.813477 0.572266
vt 0.793457 0.696777
vt 0.775879 0.738037
vt 0.802246 0.738770
vt1 0.974121 0.231934
vt1 0.905273 0.206543
vt1 0.966797 0.152832
vt1 0.754883 0.161133
vt1 0.919922 0.055664
vt1 0.732422 0.065430
vt1 0.700684 0.151367
vt1 0.855469 0.017090
vt1 0.295654 0.070801
vt1 0.537109 0.013672
vt1 0.283691 0.009277
vt1 0.552734 0.043457
vt1 0.452637 0.188965
vt1 0.318604 0.150391
vt1 0.580566 0.460938
vt1 0.644043 0.980545
vt1 0.569336 0.984901
vt1 0.802734 0.986923
vt1 0.845703 0.324219
vt1 0.855469 0.964996
vt1 0.784668 0.423828
vt1 0.839355 0.216309
vt1 0.715332 0.278809
vt1 0.584961 0.218262
vt1 0.635742 0.307617
vt1 0.563965 0.370605
vt1 0.038940 0.270020
vt1 0.043030 0.161621
vt1 0.071228 0.173340
vt1 0.010597 0.916931
vt1 0.055817 0.825439
vt1 0.104065 0.935547
vt1 0.155273 0.845825
vt1 0.234497 0.939270
vt1 0.165771 0.244141
vt1 0.248291 0.191895
vt1 0.291748 0.274902
vt1 0.387451 0.207031
vt1 0.363770 0.390137
vt1 0.304688 0.961060
vt1 0.480957 0.305176
vt1 0.470459 0.200195
vt1 0.534668 0.208008
vt1 0.521973 0.362793
vt1 0.528809 0.454590
vt1 0.464844 0.849854
vt1 0.408936 0.980392
vt1 0.492676 0.983215
vn -0.551181 -0.566929 0.614173
vn -0.763780 -0.629921 -0.125984
vn -0.771654 0.283465 0.574803
vn -0.818898 -0.566929 -0.094488
vn -0.866142 0.456693 0.220472
vn -0.661417 0.275590 -0.692913
vn -0.551181 -0.622047 -0.551181
vn -0.637795 0.771653 -0.047244
vn 0.921260 0.039370 0.385827
vn 0.677165 -0.732283 -0.055118
vn 0.653543 -0.708661 0.275591
vn 0.755906 -0.196850 -0.629921
vn 0.582677 0.692913 -0.425197
vn 0.866142 0.425197 0.251968
vn 0.165354 -0.968504 0.204724
vn 0.007874 -0.992126 -0.133858
vn -0.125984 -0.685039 0.716535
vn -0.181102 -0.984252 0.039370
vn 0.007874 -0.960630 -0.267716
vn -0.236220 -0.763779 -0.606299
vn -0.007874 -0.976378 0.228347
vn 0.708661 -0.700787 0.007874
vn -0.015748 -0.937008 0.346457
vn 0.551181 -0.826772 -0.133858
vn -0.307087 -0.929134 -0.220472
vn 0.015748 -0.732283 0.685039
vn -0.055118 -0.763779 -0.637795
vn 0.614173 -0.566929 -0.551181
vn 0.039370 0.015748 -1.000000
vn -0.062992 -0.677165 -0.732283
vn 0.047244 0.244094 -0.968504
vn -0.614173 0.362205 -0.700787
vn 0.015748 0.582677 -0.811024
vn -0.267717 0.960630 -0.007874
vn -0.070866 0.433071 -0.897638
vn 0.590551 0.677165 -0.440945
vn 0.031496 0.984252 -0.188976
vn 0.543307 0.716535 0.440945
vn -0.007874 0.850394 0.535433
vn -0.220472 0.803150 0.551181
vn -0.047244 0.330709 0.944882
vn 0.716535 0.307087 0.629921
vn 0.354331 -0.740157 0.566929
vn 0.062992 -0.637795 0.763779
vn 0.055118 -0.275590 0.960630
vn 0.007874 0.307087 0.952756
vn -0.692913 0.314961 0.653543
vn -0.283465 -0.669291 0.685039
tan -0.523033 -0.303677 -0.749705 1.000000
tan 0.542625 -0.530535 -0.636989 1.000000
tan -0.623721 -0.165602 -0.755657 1.000000
tan 0.490297 -0.617521 -0.544113 1.000000
tan -0.415649 -0.421105 -0.760617 1.000000
tan 0.705871 -0.057288 -0.696571 1.000000
tan 0.751069 -0.138880 -0.594333 1.000000
tan -0.575113 -0.511873 -0.596565 1.000000
tan 0.381487 -0.259967 -0.884370 1.000000
tan -0.478827 -0.383347 -0.789695 1.000000
tan 0.603261 0.688325 0.339389 1.000000
tan -0.637361 -0.002976 -0.763903 1.000000
tan -0.225556 -0.359477 -0.894910 1.000000
tan 0.413665 -0.379937 -0.780829 1.000000
tan 0.968504 0.166966 0.007626 1.000000
tan 0.992126 0.009982 -0.015624 1.000000
tan 0.980718 0.001674 0.174034 1.000000
tan 0.984252 -0.180792 0.007750 1.000000
tan 0.960630 0.012090 -0.015128 1.000000
tan 0.732779 -0.528675 0.380495 1.000000
tan 0.976378 -0.011470 -0.015376 1.000000
tan 0.700787 0.708537 -0.011036 1.000000
tan 0.939736 -0.013020 0.007502 1.000000
tan 0.821316 0.532085 0.095480 1.000000
tan 0.921818 -0.327237 0.095108 1.000000
tan 0.757021 -0.403931 -0.449191 1.000000
tan 0.966892 -0.142724 0.087358 1.000000
tan 0.722673 0.139128 0.662161 1.000000
tan 1.000000 0.007874 0.039494 1.000000
tan 0.666315 -0.577035 0.476285 1.000000
tan 0.968504 0.015252 0.051088 1.000000
tan 0.752496 0.095356 -0.610205 1.000000
tan 0.635377 -0.576725 -0.402009 1.000000
tan 0.960630 0.267716 -0.000000 1.000000
tan 0.931242 -0.105276 -0.124310 1.000000
tan 0.785418 -0.586893 0.150598 1.000000
tan 0.968752 -0.068200 -0.193750 1.000000
tan 0.804204 -0.469031 -0.228718 1.000000
tan 0.660425 0.347573 -0.542315 1.000000
tan 0.727137 0.488685 -0.421229 1.000000
tan 0.937442 0.119040 0.005208 1.000000
tan 0.680327 -0.142414 -0.704445 1.000000
tan 0.885610 0.130572 -0.383037 1.000000
tan 0.929692 -0.155124 -0.206212 1.000000
tan 0.854734 0.446277 0.078988 1.000000
tan 0.930250 0.187550 -0.068138 1.000000
tan 0.712319 0.205468 0.656209 1.000000
tan 0.742327 0.292207 0.592659 1.000000
f 3/3/3 2/2/2 1/1/1
f 3/3/3 4/4/4 2/2/2
f 3/3/3 5/5/5 4/4/4
f 5/5/5 6/6/6 4/4/4
f 7/7/7 4/4/4 6/6/6
f 5/5/5 8/8/8 6/6/6
f 11/11/11 10/10/10 9/9/9
f 9/9/9 10/10/10 12/12/12
f 9/9/9 12/12/12 13/13/13
f 13/13/13 14/14/14 9/9/9
f 17/17/17 16/16/16 15/15/15
f 18/18/18 15/15/15 16/16/16
f 20/20/20 19/19/19 18/18/18
f 21/21/21 18/18/18 19/19/19
f 15/15/15 18/18/18 21/21/21
f 19/19/19 22/22/22 21/21/21
f 22/22/22 23/23/23 21/21/21
f 23/23/23 15/15/15 21/21/21
f 24/24/24 23/23/23 22/22/22
f 23/23/23 25/25/25 15/15/15
f 23/23/23 24/24/24 25/25/25
f 26/26/26 15/15/15 25/25/25
f 25/25/25 24/24/24 26/26/26
f 29/29/29 28/28/28 27/27/27
f 30/30/30 29/29/29 27/27/27
f 30/30/30 31/31/31 29/29/29
f 31/31/31 30/30/30 32/32/32
f 33/33/33 31/31/31 32/32/32
f 33/33/33 29/29/29 31/31/31
f 32/32/32 34/34/34 33/33/33
f 35/35/35 29/29/29 33/33/33
f 36/36/36 29/29/29 35/35/35
f 37/37/37 35/35/35 33/33/33
f 36/36/36 35/35/35 37/37/37
f 34/34/34 37/37/37 33/33/33
f 36/36/36 37/37/37 38/38/38
f 39/39/39 37/37/37 34/34/34
f 37/37/37 39/39/39 38/38/38
f 40/40/40 39/39/39 34/34/34
f 41/41/41 38/38/38 39/39/39
f 42/42/42 38/38/38 41/41/41
f 42/42/42 41/41/41 43/43/43
f 44/44/44 43/43/43 41/41/41
f 41/41/41 45/45/45 44/44/44
f 46/46/46 39/39/39 40/40/40
f 41/41/41 39/39/39 46/46/46
f 46/46/46 45/45/45 41/41/41
f 47/47/47 46/46/46 40/40/40
f 48/48/48 45/45/45 46/46/46
f 46/46/46 47/47/47 48/48/48
