mtllib SM_Walls_Tile_LOD3.mtl
g SM_Walls_Tile_LOD3
#Vertices 17
#Indices 21
#Section 0 Offset 0 NumIndices 21 MaterialIndex 0 MI_Walls_Tiles
v -4.234646 1.351615 7.202056
v -4.242872 1.215594 8.070218
v -4.241938 1.709242 8.072712
v -4.236372 1.215252 6.238202
v -4.242872 1.215594 8.070218
v -4.234646 1.351615 7.202056
v -3.040647 1.218600 8.071918
v -1.992358 1.463133 8.072014
v -3.042557 1.708349 8.071885
v -4.242872 1.215594 8.070218
v -3.042557 1.708349 8.071885
v -4.241938 1.709242 8.072712
v -3.040647 1.218600 8.071918
v -4.239872 1.219257 4.466825
v -4.235374 1.708451 6.236020
v -4.156054 1.609031 4.374215
v -4.236372 1.215252 6.238202
vt 0.407715 0.743408
vt 0.806152 0.679443
vt 0.808594 0.910278
vt 0.826172 0.839111
vt 0.823730 0.009277
vt 0.855469 0.404297
vt 0.606934 0.293457
vt 0.096008 0.180664
vt 0.607910 0.067383
vt 0.072937 0.294922
vt 0.695312 0.069336
vt 0.073547 0.068848
vt 0.696289 0.293945
vt 0.001658 0.070312
vt 0.810547 0.299316
vt -0.040497 0.252441
vt 0.811523 0.068848
vt1 0.570801 0.629883
vt1 0.955566 0.583740
vt1 0.958008 0.750732
vt1 0.009216 0.167969
vt1 0.821777 0.166016
vt1 0.435059 0.196289
vt1 0.473145 0.508545
vt1 0.008232 0.400391
vt1 0.473877 0.291504
vt1 0.007889 0.751953
vt1 0.540039 0.533447
vt1 0.008377 0.532959
vt1 0.541016 0.750732
vt1 0.009666 0.826782
vt1 0.794434 0.992371
vt1 -0.031235 0.958527
vt1 0.795410 0.825684
vn 1.000000 0.000000 0.007874
vn 1.000000 0.000000 0.007874
vn 1.000000 0.000000 0.007874
vn 0.000000 -1.000000 0.000000
vn 0.000000 -1.000000 0.000000
vn 0.000000 -1.000000 0.000000
vn 0.000000 -0.000000 -1.000000
vn 0.000000 -0.000000 -1.000000
vn 0.000000 -0.000000 -1.000000
vn 0.000000 -0.000000 -1.000000
vn 0.000000 -0.000000 -1.000000
vn 0.000000 -0.000000 -1.000000
vn 0.000000 -0.000000 -1.000000
vn 1.000000 0.000000 0.000000
vn 1.000000 0.000000 0.000000
vn 1.000000 0.000000 0.000000
vn 1.000000 0.000000 0.000000
tan 0.000000 -1.000000 0.000000 1.000000
tan 0.000000 -1.000000 0.000000 1.000000
tan 0.000000 -1.000000 0.000000 1.000000
tan 0.000000 0.000000 1.000000 1.000000
tan 0.047244 0.000000 1.000000 1.000000
tan -0.259843 0.000000 0.968504 1.000000
tan 0.000000 1.000000 -0.000000 1.000000
tan 0.000000 1.000000 -0.000000 1.000000
tan 0.000000 1.000000 -0.000000 1.000000
tan 0.000000 1.000000 -0.000000 1.000000
tan 0.000000 1.000000 -0.000000 1.000000
tan 0.000000 1.000000 -0.000000 1.000000
tan 0.000000 1.000000 -0.000000 1.000000
tan 0.000000 -1.000000 0.000000 1.000000
tan 0.000000 -1.000000 0.000000 1.000000
tan 0.000000 -1.000000 0.000000 1.000000
tan 0.000000 -1.000000 0.000000 1.000000
f 3/3/3 2/2/2 1/1/1
f 6/6/6 5/5/5 4/4/4
f 9/9/9 8/8/8 7/7/7
f 12/12/12 11/11/11 10/10/10
f 13/13/13 10/10/10 11/11/11
f 16/16/16 15/15/15 14/14/14
f 17/17/17 14/14/14 15/15/15
