mtllib SM_WoodenChair04_LOD5.mtl
g SM_WoodenChair04_LOD5
#Vertices 119
#Indices 132
#Section 0 Offset 0 NumIndices 132 MaterialIndex 0 MI_WoodenChair
v 0.244622 0.601523 0.254194
v -0.203961 0.665045 0.245752
v 0.278653 0.605820 0.190326
v -0.120491 0.461429 0.214008
v 0.278653 0.605820 0.190326
v -0.203961 0.665045 0.245752
v -0.116059 -0.005197 0.193864
v -0.058983 0.469338 0.165853
v -0.074918 -0.017332 0.108582
v -0.116059 -0.005197 0.193864
v -0.125557 0.451664 0.151441
v -0.058983 0.469338 0.165853
v -0.074918 -0.017332 0.108582
v -0.125557 0.451664 0.151441
v -0.116059 -0.005197 0.193864
v -0.125557 0.451664 0.151441
v -0.074918 -0.017332 0.108582
v -0.058983 0.469338 0.165853
v 0.187423 -0.022903 0.193238
v 0.252330 0.473569 0.157237
v 0.234443 -0.022545 0.102498
v 0.187423 -0.022903 0.193238
v 0.186916 0.444451 0.149762
v 0.252330 0.473569 0.157237
v 0.186916 0.444451 0.149762
v 0.187423 -0.022903 0.193238
v 0.234443 -0.022545 0.102498
v 0.186916 0.444451 0.149762
v 0.234443 -0.022545 0.102498
v 0.252330 0.473569 0.157237
v -0.144069 0.391732 -0.200409
v 0.316813 0.365479 -0.226542
v -0.168606 0.448534 -0.180146
v -0.054179 0.447978 0.205820
v 0.350539 0.477406 0.231505
v -0.195845 0.400617 0.195398
v -0.168606 0.448534 -0.180146
v -0.195845 0.400617 0.195398
v -0.144069 0.391732 -0.200409
v -0.125112 -0.020451 -0.111197
v -0.136877 0.481961 -0.173119
v -0.072082 0.444425 -0.148042
v -0.060668 -0.029692 -0.183805
v -0.136877 0.481961 -0.173119
v -0.125112 -0.020451 -0.111197
v -0.136877 0.481961 -0.173119
v -0.060668 -0.029692 -0.183805
v -0.072082 0.444425 -0.148042
v -0.125112 -0.020451 -0.111197
v -0.072082 0.444425 -0.148042
v -0.060668 -0.029692 -0.183805
v -0.204240 0.666097 -0.245092
v 0.244655 0.602615 -0.254563
v 0.278613 0.606018 -0.190599
v 0.278613 0.606018 -0.190599
v -0.120373 0.461607 -0.216966
v -0.204240 0.666097 -0.245092
v 0.177320 -0.004836 -0.147379
v 0.221106 0.453924 -0.131185
v 0.257593 -0.014055 -0.185945
v 0.221106 0.453924 -0.131185
v 0.177320 -0.004836 -0.147379
v 0.203196 0.473360 -0.201131
v 0.203196 0.473360 -0.201131
v 0.177320 -0.004836 -0.147379
v 0.257593 -0.014055 -0.185945
v 0.203196 0.473360 -0.201131
v 0.257593 -0.014055 -0.185945
v 0.221106 0.453924 -0.131185
v 0.318420 0.898722 -0.226381
v 0.283106 1.127598 -0.000545
v 0.235047 0.973390 -0.253766
v 0.235047 0.973390 -0.253766
v 0.220778 1.022488 0.141807
v 0.318420 0.898722 -0.226381
v 0.220778 1.022488 0.141807
v 0.235047 0.973390 -0.253766
v 0.283106 1.127598 -0.000545
v 0.220778 1.022488 0.141807
v 0.283106 1.127598 -0.000545
v 0.318420 0.898722 -0.226381
v 0.220778 1.022488 0.141807
v 0.194135 0.560378 0.200218
v 0.328068 0.989784 0.165511
v 0.194135 0.560378 0.200218
v 0.220778 1.022488 0.141807
v 0.199195 0.613085 0.266264
v 0.220778 1.022488 0.141807
v 0.328068 0.989784 0.165511
v 0.199195 0.613085 0.266264
v 0.199195 0.613085 0.266264
v 0.328068 0.989784 0.165511
v 0.194135 0.560378 0.200218
v -0.168606 0.448534 -0.180146
v -0.054179 0.447978 0.205820
v -0.195845 0.400617 0.195398
v -0.168606 0.448534 -0.180146
v 0.350539 0.477406 0.231505
v 0.316813 0.365479 -0.226542
v 0.278653 0.605820 0.190326
v -0.120491 0.461429 0.214008
v 0.244622 0.601523 0.254194
v -0.203961 0.665045 0.245752
v -0.195845 0.400617 0.195398
v 0.316813 0.365479 -0.226542
v -0.144069 0.391732 -0.200409
v 0.350539 0.477406 0.231505
v 0.341920 1.048855 0.162009
v 0.289252 0.426885 -0.084941
v 0.221694 0.429955 0.081774
v 0.263136 1.041890 -0.145577
v 0.263136 1.041890 -0.145577
v 0.221694 0.429955 0.081774
v 0.289252 0.426885 -0.084941
v 0.341920 1.048855 0.162009
v 0.244655 0.602615 -0.254563
v -0.120373 0.461607 -0.216966
v 0.278613 0.606018 -0.190599
v -0.204240 0.666097 -0.245092
vt 0.009758 0.361328
vt 0.004623 0.512451
vt -0.000265 0.349121
vt 0.161987 0.664062
vt 0.294922 0.698486
vt 0.136353 0.708008
vt 0.035370 0.815918
vt 0.050171 0.656738
vt 0.060577 0.820557
vt 0.036285 0.816284
vt 0.028427 0.662842
vt 0.047455 0.656250
vt 0.003864 0.822388
vt 0.027695 0.662354
vt 0.029312 0.815308
vt 0.026413 0.662842
vt 0.004578 0.821411
vt 0.006523 0.655762
vt 0.724609 0.718750
vt 0.746582 0.552002
vt 0.750488 0.718018
vt 0.724609 0.718750
vt 0.723145 0.561523
vt 0.740723 0.551514
vt 0.719727 0.561523
vt 0.726074 0.718506
vt 0.696289 0.721191
vt 0.761719 0.560303
vt 0.756836 0.720215
vt 0.740723 0.551758
vt 0.495117 0.370605
vt 0.501953 0.524170
vt 0.476562 0.362305
vt 0.449707 0.477051
vt 0.437988 0.341797
vt 0.465332 0.523926
vt 0.312988 0.751099
vt 0.299316 0.877258
vt 0.293945 0.743896
vt 0.070557 0.506348
vt 0.071594 0.677734
vt 0.050842 0.663818
vt 0.042145 0.504883
vt 0.024948 0.676514
vt 0.018631 0.507568
vt 0.027786 0.677246
vt 0.045227 0.504639
vt 0.047638 0.664062
vt 0.069763 0.507568
vt 0.050964 0.663818
vt 0.041504 0.504883
vt 0.968750 -0.004883
vt 0.974121 0.145996
vt 0.964355 0.158203
vt 0.587402 0.063965
vt 0.720215 0.029297
vt 0.746094 0.073242
vt 0.729980 0.091797
vt 0.718750 0.247070
vt 0.707031 0.090820
vt 0.678711 0.248535
vt 0.678223 0.093262
vt 0.698242 0.254395
vt 0.701660 0.254395
vt 0.676270 0.092773
vt 0.699219 0.090820
vt 0.696289 0.254395
vt 0.704102 0.089844
vt 0.718750 0.247559
vt 0.506836 0.872192
vt 0.479980 0.981033
vt 0.473389 0.881042
vt 0.969238 0.297852
vt 0.962891 0.180664
vt 0.992676 0.314941
vt 0.635742 0.972733
vt 0.666504 0.858398
vt 0.675781 0.948853
vt 0.955566 0.787842
vt 0.937012 0.763062
vt 0.989258 0.657959
vt 0.128906 0.886658
vt 0.140381 0.722656
vt 0.158813 0.875183
vt 0.967773 0.006836
vt 0.966309 0.151367
vt 0.948242 0.018555
vt 0.937988 0.832153
vt 0.971680 0.842407
vt 0.951172 0.974197
vt 0.959473 0.318359
vt 0.939453 0.447266
vt 0.941406 0.307129
vt 0.318604 0.628174
vt 0.447754 0.589844
vt 0.441406 0.636475
vt 0.318359 0.628174
vt 0.456299 0.454102
vt 0.301270 0.465820
vt 0.270752 0.749268
vt 0.406982 0.713379
vt 0.284180 0.759399
vt 0.429688 0.764404
vt 0.170410 0.647461
vt 0.312744 0.477539
vt 0.302734 0.631104
vt 0.158325 0.465820
vt 0.681641 0.307617
vt 0.596191 0.100098
vt 0.653320 0.098633
vt 0.579102 0.304199
vt 0.694336 0.521973
vt 0.619629 0.315918
vt 0.677734 0.316406
vt 0.590332 0.525391
vt 0.611816 0.757080
vt 0.489258 0.711182
vt 0.625000 0.747070
vt 0.466553 0.762085
vt1 0.281738 0.540039
vt1 0.274414 0.753784
vt1 0.267578 0.522705
vt1 0.381592 0.750122
vt1 0.430420 0.561768
vt1 0.443848 0.786377
vt1 0.452148 0.551270
vt1 0.474609 0.327637
vt1 0.487305 0.556885
vt1 0.453369 0.551514
vt1 0.443848 0.335938
vt1 0.470947 0.327148
vt1 0.407715 0.556885
vt1 0.442871 0.335938
vt1 0.443848 0.551270
vt1 0.441162 0.336426
vt1 0.408447 0.556885
vt1 0.412598 0.326172
vt1 0.832031 0.555420
vt1 0.864746 0.321777
vt1 0.868164 0.554932
vt1 0.831543 0.555420
vt1 0.831543 0.334961
vt1 0.856934 0.321289
vt1 0.826172 0.334961
vt1 0.833984 0.555664
vt1 0.791504 0.554688
vt1 0.886230 0.333984
vt1 0.876953 0.555908
vt1 0.856445 0.321777
vt1 0.809570 0.536865
vt1 0.819336 0.755371
vt1 0.783691 0.525146
vt1 0.383301 0.896362
vt1 0.366699 0.705322
vt1 0.405518 0.963135
vt1 0.156616 0.765747
vt1 0.137085 0.944275
vt1 0.129517 0.755493
vt1 0.767578 0.335938
vt1 0.767578 0.574707
vt1 0.737793 0.555176
vt1 0.727539 0.331543
vt1 0.701172 0.572998
vt1 0.694824 0.336426
vt1 0.705078 0.573486
vt1 0.732422 0.331543
vt1 0.733398 0.555176
vt1 0.766113 0.336426
vt1 0.737793 0.554932
vt1 0.726562 0.331543
vt1 0.865723 0.100586
vt1 0.873047 0.314453
vt1 0.858887 0.331543
vt1 0.218262 0.790527
vt1 0.169189 0.602295
vt1 0.231567 0.565918
vt1 0.390381 0.345215
vt1 0.372314 0.561279
vt1 0.357422 0.340332
vt1 0.315186 0.562256
vt1 0.317383 0.345215
vt1 0.343506 0.570312
vt1 0.347900 0.570068
vt1 0.314697 0.345703
vt1 0.346924 0.340820
vt1 0.340576 0.570557
vt1 0.353516 0.340332
vt1 0.372314 0.561523
vt1 0.691895 0.167480
vt1 0.648926 0.316406
vt1 0.647461 0.173340
vt1 0.766602 0.124023
vt1 0.750488 -0.033203
vt1 0.803223 0.142090
vt1 0.221313 0.361328
vt1 0.289307 0.198242
vt1 0.284668 0.329102
vt1 0.099487 0.364258
vt1 0.064148 0.330078
vt1 0.103821 0.191895
vt1 0.810547 0.232422
vt1 0.820312 0.011230
vt1 0.856934 0.223145
vt1 0.163818 0.018066
vt1 0.136475 0.228027
vt1 0.133423 0.035645
vt1 0.697754 0.115234
vt1 0.744141 0.124023
vt1 0.710938 0.317383
vt1 0.218140 0.030762
vt1 0.214966 0.217773
vt1 0.189697 0.012207
vt1 0.073242 0.561279
vt1 0.256104 0.506836
vt1 0.247192 0.572754
vt1 0.073059 0.561035
vt1 0.268311 0.314941
vt1 0.048737 0.331543
vt1 0.322510 0.979156
vt1 0.271973 0.786377
vt1 0.337158 0.960175
vt1 0.343994 0.754395
vt1 0.500488 0.794312
vt1 0.702148 0.553467
vt1 0.687988 0.771118
vt1 0.483398 0.537109
vt1 0.468506 0.311035
vt1 0.347900 0.017578
vt1 0.428223 0.015137
vt1 0.323486 0.306152
vt1 0.611816 0.307617
vt1 0.506348 0.016113
vt1 0.588867 0.016602
vt1 0.464844 0.312988
vt1 0.863281 0.791138
vt1 0.797852 0.964966
vt1 0.848633 0.772217
vt1 0.870117 0.997093
vn 0.007874 0.850394 0.519685
vn -0.007874 0.960630 0.283464
vn 0.007874 1.000000 0.007874
vn -0.007874 0.181102 -0.984252
vn 0.015748 0.566929 -0.826772
vn -0.007874 0.669291 -0.748031
vn -0.259843 0.007874 0.968504
vn 0.921260 0.023622 0.393701
vn 1.000000 0.007874 0.070866
vn -0.488189 0.007874 0.874016
vn -0.818898 0.015748 0.574803
vn 0.732283 0.015748 0.685039
vn 0.236220 0.007874 -0.968504
vn -0.913386 0.023622 -0.401575
vn -1.000000 0.007874 -0.039370
vn -0.763780 0.015748 -0.645669
vn 0.464567 0.015748 -0.889764
vn 0.842520 0.015748 -0.543307
vn -0.456693 0.007874 0.889764
vn 0.897638 0.015748 0.433071
vn 0.968504 0.007874 0.259842
vn -0.685039 0.015748 0.732283
vn -0.881890 0.023622 0.472441
vn 0.590551 0.015748 0.811023
vn -0.905512 0.023622 -0.417323
vn -0.826772 0.007874 0.566929
vn -0.259843 0.007874 -0.968504
vn -0.818898 0.015748 -0.574803
vn 0.417323 0.007874 -0.905512
vn 0.779528 0.015748 -0.622047
vn -0.031496 -0.511811 -0.858268
vn 0.031496 -0.700787 -0.708661
vn -0.031496 0.503937 -0.866142
vn -0.015748 0.503937 0.858268
vn 0.031496 0.834646 0.543307
vn -0.039370 -0.385827 0.921260
vn -0.858268 0.519685 -0.031496
vn -0.952756 -0.299213 0.039370
vn -0.811024 -0.582677 -0.039370
vn -0.511811 0.015748 0.858268
vn -0.960630 0.015748 0.291339
vn 0.590551 0.007874 0.803149
vn 0.590551 0.007874 -0.803149
vn -0.826772 0.015748 -0.559055
vn -0.889764 0.007874 -0.464567
vn -0.622047 0.007874 -0.779527
vn 0.889764 0.007874 -0.456693
vn 0.929134 0.015748 -0.377953
vn 0.157480 0.000000 0.984252
vn 0.858268 0.023622 0.511811
vn 0.905512 0.007874 -0.425197
vn -0.007874 0.960630 -0.275591
vn 0.007874 0.858268 -0.511811
vn 0.007874 1.000000 -0.007874
vn 0.015748 0.551181 0.834646
vn -0.007874 0.165354 0.984252
vn -0.007874 0.653543 0.755905
vn -0.173228 0.007874 0.984252
vn 0.433071 0.023622 0.897638
vn 1.000000 0.007874 0.039370
vn -0.566929 0.015748 0.826772
vn -0.976378 0.007874 0.220472
vn -0.677165 0.015748 -0.732283
vn -0.346457 0.015748 -0.937008
vn -0.976378 0.007874 0.204724
vn -0.141732 0.007874 -0.992126
vn 0.503937 0.015748 -0.858268
vn 0.858268 0.007874 -0.511811
vn 0.629921 0.015748 0.771653
vn 0.157480 0.362205 -0.921260
vn -0.015748 1.000000 -0.000000
vn -0.055118 0.425197 -0.905512
vn -0.031496 -0.385827 0.921260
vn -0.062992 -0.937008 -0.338583
vn 0.165354 -0.377953 0.913386
vn -0.677165 -0.685039 0.259843
vn -0.984252 0.149606 -0.062992
vn -0.944882 0.330709 0.015748
vn 0.968504 -0.236220 0.062992
vn 0.944882 0.314961 -0.094488
vn 0.519685 -0.850394 0.039370
vn -0.102362 -0.204724 -0.976378
vn 0.000000 -0.031496 -1.000000
vn 0.181102 -0.393701 -0.897638
vn -0.795276 0.094488 -0.598425
vn -0.944882 0.133858 -0.307087
vn -0.984252 0.149606 0.094488
vn -0.078740 0.393701 0.913386
vn 0.133858 0.322835 0.937008
vn 0.000000 0.023622 1.000000
vn 0.968504 -0.133858 0.204724
vn 0.937008 -0.157480 -0.307087
vn 0.826772 -0.141732 -0.551181
vn -0.007874 1.000000 -0.000000
vn 0.000000 1.000000 0.007874
vn -0.007874 1.000000 -0.000000
vn 0.000000 1.000000 -0.000000
vn 0.000000 1.000000 0.007874
vn 0.000000 1.000000 -0.007874
vn 0.015748 -0.582677 0.811024
vn -0.015748 -0.212598 0.976378
vn 0.007874 -0.677165 0.740157
vn -0.007874 -0.732283 0.685039
vn 0.000000 -1.000000 0.000000
vn 0.000000 -1.000000 -0.007874
vn 0.000000 -1.000000 0.000000
vn 0.000000 -1.000000 0.007874
vn 1.000000 -0.062992 0.023622
vn 1.000000 -0.070866 -0.015748
vn 1.000000 -0.070866 0.023622
vn 1.000000 -0.062992 0.000000
vn -1.000000 0.062992 -0.023622
vn -1.000000 0.062992 0.015748
vn -1.000000 0.062992 -0.023622
vn -1.000000 0.070866 0.015748
vn 0.007874 -0.661417 -0.748031
vn -0.015748 -0.196850 -0.984252
vn 0.015748 -0.566929 -0.826771
vn -0.007874 -0.716535 -0.692913
tan 0.931118 0.016802 -0.041602 1.000000
tan 0.960630 0.003410 0.015128 1.000000
tan 1.000000 -0.008184 0.039370 1.000000
tan 0.000000 -0.984252 -0.181102 1.000000
tan 0.000000 -0.826772 -0.566929 1.000000
tan 0.000000 -0.748031 -0.669291 1.000000
tan 0.015438 0.974642 -0.003782 1.000000
tan -0.063736 0.951206 0.092070 1.000000
tan -0.015066 0.992126 0.102362 1.000000
tan -0.013330 0.900924 -0.015562 1.000000
tan -0.010416 0.902164 -0.039556 1.000000
tan 0.104160 0.831050 -0.130448 1.000000
tan 0.137144 0.964598 0.041292 1.000000
tan -0.244590 0.718891 0.598611 1.000000
tan -0.017298 0.795276 0.598425 1.000000
tan -0.088784 0.762725 0.123628 1.000000
tan 0.300639 0.852006 0.172050 1.000000
tan 0.344101 0.704755 0.554033 1.000000
tan -0.160890 0.890136 -0.090458 1.000000
tan 0.349433 0.498047 -0.742389 1.000000
tan 0.212536 0.556327 -0.809040 1.000000
tan -0.044702 0.964412 -0.062558 1.000000
tan -0.002790 0.942402 -0.052328 1.000000
tan 0.061008 0.905202 -0.062000 1.000000
tan -0.058900 0.891252 0.178250 1.000000
tan -0.117304 0.811706 -0.182342 1.000000
tan -0.968442 0.070680 0.260400 1.000000
tan -0.375349 0.645235 0.552421 1.000000
tan 0.263501 0.879162 0.129084 1.000000
tan 0.339017 0.684977 0.442185 1.000000
tan -0.858268 -0.033790 0.051646 1.000000
tan -0.708661 -0.050220 0.018166 1.000000
tan -0.866142 0.006820 0.035464 1.000000
tan 0.858268 -0.013516 0.023684 1.000000
tan 0.549879 -0.038750 0.027652 1.000000
tan 0.921260 0.007254 0.042408 1.000000
tan 0.047864 0.027032 -0.858268 1.000000
tan -0.027590 -0.037510 -0.952756 1.000000
tan 0.057722 -0.025544 -0.811023 1.000000
tan 0.302003 -0.865956 0.195982 1.000000
tan 0.081468 -0.909976 0.317813 1.000000
tan -0.175956 -0.861554 0.137826 1.000000
tan 0.019096 -0.812449 0.006076 1.000000
tan -0.155558 -0.610763 0.212846 1.000000
tan -0.287371 -0.578709 0.540579 1.000000
tan 0.010726 -0.889702 -0.017546 1.000000
tan 0.047244 -0.958646 0.075516 1.000000
tan 0.030628 -0.941038 0.036084 1.000000
tan -0.868002 -0.467481 0.138880 1.000000
tan 0.039742 -0.870358 -0.026474 1.000000
tan -0.059210 -0.901296 -0.142786 1.000000
tan -0.960630 -0.003534 0.015128 1.000000
tan -0.920020 -0.012338 -0.034844 1.000000
tan -1.000000 0.008122 0.031496 1.000000
tan 0.000000 -0.834646 0.551181 1.000000
tan 0.000000 -0.984252 0.165354 1.000000
tan 0.000000 -0.755905 0.653543 1.000000
tan 0.085188 -0.985616 0.022878 1.000000
tan -0.321781 -0.888338 0.178622 1.000000
tan -0.016182 -0.818897 0.574803 1.000000
tan -0.311985 -0.854486 -0.197656 1.000000
tan -0.042470 -0.962738 -0.153698 1.000000
tan -0.170562 -0.812822 0.140244 1.000000
tan -0.362267 -0.879596 0.119164 1.000000
tan -0.022382 -0.979602 -0.069068 1.000000
tan -0.328043 -0.936326 0.039432 1.000000
tan 0.281109 -0.906132 0.148428 1.000000
tan 0.108438 -0.882324 0.168268 1.000000
tan 0.148800 -0.763097 -0.105896 1.000000
tan 0.000000 -0.921260 -0.362205 1.000000
tan 0.007874 0.000124 -1.000000 1.000000
tan 0.000000 -0.905512 -0.425197 1.000000
tan 0.000000 0.921260 0.385827 1.000000
tan -0.014756 -0.337591 0.937008 1.000000
tan -0.007192 0.913386 0.379255 1.000000
tan -0.308389 0.047988 -0.677165 1.000000
tan -0.013950 -0.457251 -0.868002 1.000000
tan -0.197904 -0.528241 -0.781201 1.000000
tan -0.014880 -0.305041 -0.915122 1.000000
tan -0.006448 -0.252961 -0.907682 1.000000
tan -0.849774 -0.519685 -0.008184 1.000000
tan -0.007688 -0.976378 0.205530 1.000000
tan 0.000000 -1.000000 0.031496 1.000000
tan 0.014136 -0.897638 0.396553 1.000000
tan -0.466489 -0.594891 0.526009 1.000000
tan -0.204600 -0.915122 0.230641 1.000000
tan -0.140244 -0.976502 0.085250 1.000000
tan 0.000000 0.913386 -0.393701 1.000000
tan 0.014756 0.937008 -0.324943 1.000000
tan 0.000000 1.000000 -0.023622 1.000000
tan -0.177444 -0.945626 0.221155 1.000000
tan -0.088474 -0.914874 0.199206 1.000000
tan 0.096224 -0.755161 0.338521 1.000000
tan 1.000000 0.007874 -0.000000 1.000000
tan 1.000000 0.000000 0.000000 1.000000
tan 1.000000 0.007874 -0.000000 1.000000
tan 1.000000 0.000000 0.000000 1.000000
tan 1.000000 0.000000 0.000000 1.000000
tan 1.000000 0.000000 0.000000 1.000000
tan 0.000000 -0.811024 -0.582677 1.000000
tan 0.000000 -0.976378 -0.212598 1.000000
tan 0.000000 -0.740157 -0.677165 1.000000
tan 0.000000 -0.685039 -0.732283 1.000000
tan 1.000000 0.000000 0.000000 1.000000
tan 1.000000 0.000000 0.000000 1.000000
tan 1.000000 0.000000 0.000000 1.000000
tan 1.000000 0.000000 0.000000 1.000000
tan -0.063178 -1.000000 0.007874 1.000000
tan -0.070742 -1.000000 0.007874 1.000000
tan -0.071052 -1.000000 0.007874 1.000000
tan -0.062992 -1.000000 0.007874 1.000000
tan -0.063178 -1.000000 0.007874 1.000000
tan -0.062868 -1.000000 0.007874 1.000000
tan -0.063178 -1.000000 0.007874 1.000000
tan -0.070742 -1.000000 0.007874 1.000000
tan 0.000000 -0.748031 0.661417 1.000000
tan 0.000000 -0.984252 0.196850 1.000000
tan 0.000000 -0.826771 0.566929 1.000000
tan 0.000000 -0.692913 0.716535 1.000000
f 3/3/3 2/2/2 1/1/1
f 6/6/6 5/5/5 4/4/4
f 9/9/9 8/8/8 7/7/7
f 12/12/12 11/11/11 10/10/10
f 15/15/15 14/14/14 13/13/13
f 18/18/18 17/17/17 16/16/16
f 21/21/21 20/20/20 19/19/19
f 24/24/24 23/23/23 22/22/22
f 27/27/27 26/26/26 25/25/25
f 30/30/30 29/29/29 28/28/28
f 33/33/33 32/32/32 31/31/31
f 36/36/36 35/35/35 34/34/34
f 39/39/39 38/38/38 37/37/37
f 42/42/42 41/41/41 40/40/40
f 45/45/45 44/44/44 43/43/43
f 48/48/48 47/47/47 46/46/46
f 51/51/51 50/50/50 49/49/49
f 54/54/54 53/53/53 52/52/52
f 57/57/57 56/56/56 55/55/55
f 60/60/60 59/59/59 58/58/58
f 63/63/63 62/62/62 61/61/61
f 66/66/66 65/65/65 64/64/64
f 69/69/69 68/68/68 67/67/67
f 72/72/72 71/71/71 70/70/70
f 75/75/75 74/74/74 73/73/73
f 78/78/78 77/77/77 76/76/76
f 81/81/81 80/80/80 79/79/79
f 84/84/84 83/83/83 82/82/82
f 87/87/87 86/86/86 85/85/85
f 90/90/90 89/89/89 88/88/88
f 93/93/93 92/92/92 91/91/91
f 96/96/96 95/95/95 94/94/94
f 98/98/98 97/97/97 95/95/95
f 97/97/97 98/98/98 99/99/99
f 102/102/102 101/101/101 100/100/100
f 101/101/101 102/102/102 103/103/103
f 106/106/106 105/105/105 104/104/104
f 104/104/104 105/105/105 107/107/107
f 110/110/110 109/109/109 108/108/108
f 109/109/109 111/111/111 108/108/108
f 114/114/114 113/113/113 112/112/112
f 115/115/115 112/112/112 113/113/113
f 118/118/118 117/117/117 116/116/116
f 117/117/117 119/119/119 116/116/116
