mtllib SM_Walls_Tile_LOD5.mtl
g SM_Walls_Tile_LOD5
#Vertices 4
#Indices 6
#Section 0 Offset 0 NumIndices 6 MaterialIndex 0 MI_Walls_Tiles
v -4.239872 1.219257 4.466825
v -4.235374 1.708451 6.236020
v -4.156054 1.609031 4.374215
v -4.232155 1.236003 6.440822
vt 0.001658 0.070312
vt 0.810547 0.299316
vt -0.040497 0.252441
vt 0.904297 0.078613
vt1 0.009666 0.826782
vt1 0.794434 0.992371
vt1 -0.031235 0.958527
vt1 0.885254 0.832642
vn 1.000000 0.000000 0.000000
vn 1.000000 0.000000 0.000000
vn 1.000000 0.000000 0.000000
vn 1.000000 0.000000 0.000000
tan 0.000000 -1.000000 0.000000 1.000000
tan 0.000000 -1.000000 0.000000 1.000000
tan 0.000000 -1.000000 0.000000 1.000000
tan 0.000000 -1.000000 0.000000 1.000000
f 3/3/3 2/2/2 1/1/1
f 4/4/4 1/1/1 2/2/2
