mtllib SM_WoodenChair06_LOD5.mtl
g SM_WoodenChair06_LOD5
#Vertices 100
#Indices 102
#Section 0 Offset 0 NumIndices 102 MaterialIndex 0 MI_Chair_01
v 0.147766 0.300418 -0.007840
v 0.228538 0.283039 -0.186458
v 0.194655 0.252770 0.185798
v 0.147766 0.300418 -0.007840
v 0.194655 0.252770 0.185798
v 0.228538 0.283039 -0.186458
v -0.190744 -0.081992 0.172694
v -0.161298 0.535259 0.118171
v -0.162423 0.525910 0.239156
v -0.161298 0.535259 0.118171
v -0.133966 -0.003136 0.176737
v -0.162423 0.525910 0.239156
v -0.161298 0.535259 0.118171
v -0.190744 -0.081992 0.172694
v -0.133966 -0.003136 0.176737
v -0.190744 -0.081992 0.172694
v -0.162423 0.525910 0.239156
v -0.133966 -0.003136 0.176737
v 0.174591 0.792451 -0.220436
v 0.176190 0.866385 0.213364
v 0.222883 0.845065 0.209388
v 0.176190 0.866385 0.213364
v 0.174591 0.792451 -0.220436
v 0.189462 0.883784 -0.209893
v 0.176190 0.866385 0.213364
v 0.189462 0.883784 -0.209893
v 0.222883 0.845065 0.209388
v 0.174591 0.792451 -0.220436
v 0.222883 0.845065 0.209388
v 0.189462 0.883784 -0.209893
v -0.162025 0.534009 -0.117606
v -0.190678 -0.083056 -0.176731
v -0.160567 0.527581 -0.238923
v -0.134122 -0.002958 -0.176308
v -0.162025 0.534009 -0.117606
v -0.160567 0.527581 -0.238923
v -0.160567 0.527581 -0.238923
v -0.190678 -0.083056 -0.176731
v -0.134122 -0.002958 -0.176308
v -0.190678 -0.083056 -0.176731
v -0.162025 0.534009 -0.117606
v -0.134122 -0.002958 -0.176308
v 0.175990 -0.053917 -0.138413
v 0.238838 0.892789 -0.155056
v 0.201837 0.387301 -0.242456
v 0.201837 0.387301 -0.242456
v 0.127727 0.904258 -0.192100
v 0.175990 -0.053917 -0.138413
v 0.127727 0.904258 -0.192100
v 0.201837 0.387301 -0.242456
v 0.238838 0.892789 -0.155056
v 0.238838 0.892789 -0.155056
v 0.175990 -0.053917 -0.138413
v 0.127727 0.904258 -0.192100
v 0.163764 0.724507 -0.208551
v 0.165828 0.796340 0.214752
v 0.177105 0.707174 0.202842
v 0.165828 0.796340 0.214752
v 0.163764 0.724507 -0.208551
v 0.214192 0.744055 -0.203446
v 0.165828 0.796340 0.214752
v 0.214192 0.744055 -0.203446
v 0.177105 0.707174 0.202842
v 0.163764 0.724507 -0.208551
v 0.177105 0.707174 0.202842
v 0.214192 0.744055 -0.203446
v 0.176979 0.957967 0.148612
v 0.173385 -0.013910 0.183996
v 0.213038 -0.034488 0.163709
v 0.173385 -0.013910 0.183996
v 0.176979 0.957967 0.148612
v 0.205060 0.669798 0.267763
v 0.253877 0.945170 0.184632
v 0.213038 -0.034488 0.163709
v 0.205060 0.669798 0.267763
v 0.176979 0.957967 0.148612
v 0.213038 -0.034488 0.163709
v 0.253877 0.945170 0.184632
v 0.173385 -0.013910 0.183996
v 0.205060 0.669798 0.267763
v 0.213038 -0.034488 0.163709
v 0.205060 0.669798 0.267763
v 0.176979 0.957967 0.148612
v 0.253877 0.945170 0.184632
v 0.191627 0.910176 -0.215638
v 0.194333 0.982336 0.221633
v 0.205452 0.892781 0.209874
v 0.194333 0.982336 0.221633
v 0.191627 0.910176 -0.215638
v 0.243654 0.929637 -0.210763
v 0.194333 0.982336 0.221633
v 0.243654 0.929637 -0.210763
v 0.205452 0.892781 0.209874
v 0.191627 0.910176 -0.215638
v 0.205452 0.892781 0.209874
v 0.243654 0.929637 -0.210763
v 0.226428 0.512070 -0.206006
v -0.198360 0.509815 0.213910
v -0.197336 0.504890 -0.222063
v 0.233478 0.506179 0.214447
vt 0.303955 0.721680
vt 0.305908 0.861450
vt 0.279785 0.576904
vt 0.259521 0.726318
vt 0.282715 0.577393
vt 0.307861 0.861328
vt 0.532227 0.489258
vt 0.485352 0.033203
vt 0.553711 0.038574
vt 0.647949 0.037109
vt 0.564453 0.432617
vt 0.562988 0.037598
vt 0.464355 0.033691
vt 0.528320 0.490723
vt 0.486084 0.434570
vt 0.518066 0.490234
vt 0.565918 0.037598
vt 0.565430 0.433105
vt 0.436035 0.683350
vt 0.395752 0.386230
vt 0.411133 0.388672
vt 0.395752 0.386230
vt 0.450195 0.682617
vt 0.382324 0.673096
vt 0.396973 0.386230
vt 0.387939 0.673584
vt 0.364746 0.388672
vt 0.435303 0.683838
vt 0.468018 0.389160
vt 0.498779 0.673096
vt 0.422119 -0.011719
vt 0.377197 0.444824
vt 0.354004 -0.007812
vt 0.348145 0.387695
vt 0.258789 -0.005859
vt 0.343994 -0.007812
vt 0.340576 -0.007812
vt 0.395996 0.445312
vt 0.346924 0.387695
vt 0.387451 0.446289
vt 0.444336 -0.010742
vt 0.426514 0.388184
vt 0.696289 0.226074
vt 0.727051 0.929688
vt 0.656738 0.554199
vt 0.889648 0.504395
vt 0.951172 0.120117
vt 0.950684 0.831543
vt 0.673340 0.941528
vt 0.644043 0.557129
vt 0.729492 0.930054
vt 0.754883 0.077637
vt 0.727539 0.780273
vt 0.674805 0.068359
vt 0.265381 0.575684
vt 0.212769 0.282715
vt 0.278320 0.289062
vt 0.226074 0.280762
vt 0.265625 0.575928
vt 0.248901 0.572021
vt 0.331055 0.281250
vt 0.300781 0.572998
vt 0.269531 0.289062
vt 0.264648 0.575928
vt 0.274170 0.289062
vt 0.299805 0.572998
vt 0.840332 0.080078
vt 0.901367 0.802734
vt 0.885254 0.817871
vt 0.900391 0.802734
vt 0.848633 0.080566
vt 0.930664 0.294434
vt 0.955566 0.856812
vt 0.977051 0.128906
vt 1.021484 0.651611
vt 0.673340 0.028809
vt 0.626465 0.766968
vt 0.613770 0.039062
vt 0.771973 0.751587
vt 0.767090 0.240723
vt 0.804688 0.767944
vt 0.953125 0.280273
vt 0.853516 0.078613
vt 0.890137 0.083496
vt 0.056763 0.575684
vt 0.003853 0.283203
vt 0.069519 0.289062
vt 0.017227 0.280762
vt 0.056793 0.575928
vt 0.039917 0.572266
vt 0.122131 0.281738
vt 0.092041 0.573242
vt 0.060547 0.289062
vt 0.055969 0.575928
vt 0.065430 0.289062
vt 0.090881 0.573242
vt 0.294922 -0.005859
vt -0.013115 0.298340
vt -0.012375 -0.017578
vt 0.300049 0.298828
vt1 0.818848 0.582031
vt1 0.820312 0.681396
vt1 0.801758 0.479004
vt1 0.787109 0.585449
vt1 0.803711 0.479492
vt1 0.821777 0.681396
vt1 0.593262 0.332520
vt1 0.561035 0.007812
vt1 0.609863 0.011719
vt1 0.676758 0.011230
vt1 0.616211 0.292480
vt1 0.616211 0.011230
vt1 0.545898 0.008301
vt1 0.590332 0.333496
vt1 0.560547 0.293457
vt1 0.583496 0.333496
vt1 0.618164 0.011230
vt1 0.617188 0.292480
vt1 0.671875 0.762695
vt1 0.643066 0.551514
vt1 0.654297 0.552979
vt1 0.643066 0.551270
vt1 0.681641 0.762329
vt1 0.633789 0.755493
vt1 0.644043 0.551514
vt1 0.637695 0.755859
vt1 0.621094 0.552979
vt1 0.671387 0.763062
vt1 0.694336 0.553467
vt1 0.716309 0.755493
vt1 0.780273 0.008301
vt1 0.744629 0.333008
vt1 0.731445 0.011230
vt1 0.724609 0.292480
vt1 0.663574 0.011719
vt1 0.724609 0.010254
vt1 0.722168 0.010254
vt1 0.758301 0.333496
vt1 0.723633 0.292480
vt1 0.751953 0.333984
vt1 0.795898 0.009277
vt1 0.780273 0.293457
vt1 0.441650 -0.012695
vt1 0.463379 0.487793
vt1 0.413330 0.220703
vt1 -0.002670 0.375488
vt1 0.040649 0.102051
vt1 0.040833 0.608154
vt1 0.425293 0.496094
vt1 0.404297 0.222656
vt1 0.465088 0.488281
vt1 0.395508 0.071777
vt1 0.376465 0.571533
vt1 0.338867 0.064941
vt1 0.630859 0.523926
vt1 0.593262 0.315430
vt1 0.640137 0.319824
vt1 0.603027 0.313965
vt1 0.630859 0.523926
vt1 0.619141 0.521240
vt1 0.677246 0.314453
vt1 0.655762 0.521973
vt1 0.633789 0.319824
vt1 0.630371 0.524170
vt1 0.637207 0.320312
vt1 0.655273 0.521973
vt1 0.051514 0.073730
vt1 0.095154 0.587646
vt1 0.083984 0.598633
vt1 0.094727 0.587646
vt1 0.057556 0.074219
vt1 0.116150 0.226074
vt1 0.479980 0.515625
vt1 0.496094 -0.001953
vt1 0.526855 0.369629
vt1 0.312988 0.035156
vt1 0.278320 0.560303
vt1 0.270996 0.042480
vt1 0.154541 0.551270
vt1 0.151733 0.187988
vt1 0.177856 0.562988
vt1 0.131714 0.215820
vt1 0.061066 0.072266
vt1 0.087280 0.075684
vt1 0.736328 0.525635
vt1 0.698730 0.317383
vt1 0.745117 0.321777
vt1 0.708008 0.315918
vt1 0.736328 0.525879
vt1 0.724121 0.523193
vt1 0.782715 0.316406
vt1 0.761230 0.523926
vt1 0.738770 0.321777
vt1 0.735840 0.525879
vt1 0.742188 0.321777
vt1 0.760742 0.523926
vt1 0.525879 0.775635
vt1 0.742676 0.994770
vt1 0.517578 0.994247
vt1 0.743164 0.771973
vn 1.000000 -0.007874 0.000000
vn 1.000000 0.000000 0.000000
vn 1.000000 -0.062992 0.000000
vn -0.409449 -0.913386 0.000000
vn 0.007874 -1.000000 0.000000
vn 0.496063 -0.866142 0.000000
vn -1.000000 -0.031496 0.023622
vn -1.000000 -0.023622 -0.047244
vn -1.000000 -0.023622 0.055118
vn 1.000000 -0.023622 -0.070866
vn 1.000000 -0.023622 0.023622
vn 1.000000 -0.023622 0.055118
vn 0.000000 -0.023622 -1.000000
vn -0.062992 -0.031496 -1.000000
vn 0.062992 -0.023622 -1.000000
vn -0.086614 -0.031496 0.992126
vn -0.007874 -0.023622 1.000000
vn 0.055118 -0.023622 1.000000
vn -1.000000 -0.039370 0.000000
vn -1.000000 0.031496 -0.000000
vn -1.000000 0.007874 -0.000000
vn -1.000000 0.031496 -0.000000
vn -1.000000 -0.062992 0.000000
vn -1.000000 0.055118 -0.000000
vn -0.244094 0.968504 -0.000000
vn -0.007874 1.000000 -0.000000
vn 0.527559 0.850394 -0.000000
vn 1.000000 -0.055118 0.000000
vn 1.000000 0.000000 0.000000
vn 1.000000 0.055118 -0.000000
vn -1.000000 -0.023622 0.047244
vn -1.000000 -0.031496 -0.023622
vn -1.000000 -0.023622 -0.055118
vn 1.000000 -0.023622 -0.023622
vn 1.000000 -0.023622 0.070866
vn 1.000000 -0.023622 -0.055118
vn 0.000000 -0.023622 -1.000000
vn -0.094488 -0.031496 -0.992126
vn 0.055118 -0.023622 -1.000000
vn -0.047244 -0.031496 1.000000
vn 0.007874 -0.023622 1.000000
vn 0.062992 -0.023622 1.000000
vn 1.000000 -0.047244 -0.007874
vn 1.000000 0.047244 0.062992
vn 1.000000 0.039370 -0.055118
vn -0.992126 -0.078740 -0.070866
vn -1.000000 0.031496 0.023622
vn -1.000000 -0.086614 0.015748
vn 1.000000 -0.015748 -0.023622
vn 0.992126 0.062992 -0.062992
vn 1.000000 -0.015748 0.047244
vn 0.062992 0.007874 1.000000
vn -0.047244 -0.039370 1.000000
vn -0.070866 0.000000 1.000000
vn -1.000000 -0.031496 0.000000
vn -1.000000 0.062992 -0.000000
vn -1.000000 -0.055118 0.000000
vn -1.000000 0.039370 -0.000000
vn -1.000000 -0.031496 0.000000
vn -1.000000 0.000000 0.000000
vn 1.000000 0.055118 -0.000000
vn 1.000000 0.000000 0.000000
vn 1.000000 -0.055118 0.000000
vn -0.251969 -0.968504 0.000000
vn 0.000000 -1.000000 0.000000
vn 0.566929 -0.818897 0.000000
vn -0.984252 -0.110236 -0.149606
vn -1.000000 -0.023622 0.055118
vn -1.000000 -0.023622 -0.023622
vn -1.000000 -0.023622 0.031496
vn -1.000000 -0.015748 -0.062992
vn -0.992126 -0.078740 0.062992
vn 1.000000 0.062992 -0.039370
vn 1.000000 -0.039370 0.023622
vn 0.992126 0.078740 0.062992
vn -0.062992 -0.007874 -1.000000
vn 0.070866 -0.023622 -1.000000
vn 0.062992 -0.000000 -1.000000
vn -0.078740 -0.031496 1.000000
vn -0.023622 -0.007874 1.000000
vn 0.157480 -0.031496 0.984252
vn -0.992126 -0.094488 0.078740
vn -0.984252 0.157480 -0.039370
vn -0.992126 0.149606 -0.000000
vn -1.000000 -0.031496 0.000000
vn -1.000000 0.062992 -0.000000
vn -1.000000 -0.055118 0.000000
vn -1.000000 0.039370 -0.000000
vn -1.000000 -0.031496 0.000000
vn -1.000000 0.000000 0.000000
vn 1.000000 0.055118 -0.000000
vn 1.000000 0.000000 0.000000
vn 1.000000 -0.055118 0.000000
vn -0.244094 -0.968504 0.000000
vn 0.000000 -1.000000 0.000000
vn 0.566929 -0.818897 0.000000
vn 0.000000 1.000000 -0.000000
vn 0.000000 1.000000 -0.000000
vn 0.000000 1.000000 -0.000000
vn 0.000000 1.000000 -0.000000
tan -0.000310 -0.039370 1.000000 1.000000
tan 0.000000 -0.039370 1.000000 1.000000
tan -0.002480 -0.039370 1.000000 1.000000
tan 0.000000 0.000000 0.913386 1.000000
tan 0.000000 0.000000 1.000000 1.000000
tan 0.000000 0.000000 0.866142 1.000000
tan -0.030938 1.000000 0.023622 1.000000
tan -0.024738 1.000000 0.023622 1.000000
tan -0.022320 1.000000 0.023622 1.000000
tan 0.029202 1.000000 0.078740 1.000000
tan 0.021948 1.000000 0.070866 1.000000
tan 0.019716 1.000000 0.070866 1.000000
tan -0.078740 1.000000 -0.023622 1.000000
tan -0.078740 1.000000 -0.026536 1.000000
tan -0.086614 1.000000 -0.029078 1.000000
tan -0.023436 0.992126 0.029450 1.000000
tan -0.023622 1.000000 0.023436 1.000000
tan -0.031496 1.000000 0.025358 1.000000
tan 0.001550 -0.039370 1.000000 1.000000
tan -0.001240 -0.039370 1.000000 1.000000
tan -0.000310 -0.039370 1.000000 1.000000
tan 0.001240 0.039370 1.000000 1.000000
tan -0.002480 0.039370 1.000000 1.000000
tan 0.002170 0.039370 1.000000 1.000000
tan 0.000000 0.000000 0.968504 1.000000
tan 0.000000 0.000000 1.000000 1.000000
tan 0.000000 0.000000 0.850394 1.000000
tan 0.002170 0.039370 1.000000 1.000000
tan 0.000000 0.039370 1.000000 1.000000
tan -0.002170 0.039370 1.000000 1.000000
tan -0.024366 1.000000 -0.015748 1.000000
tan -0.031310 1.000000 -0.007874 1.000000
tan -0.023188 1.000000 -0.007874 1.000000
tan 0.021576 1.000000 -0.086614 1.000000
tan 0.029574 0.992126 -0.086614 1.000000
tan 0.018848 1.000000 -0.086614 1.000000
tan -0.039370 1.000000 -0.023622 1.000000
tan -0.039060 0.992126 -0.027776 1.000000
tan -0.047244 1.000000 -0.026226 1.000000
tan -0.062992 1.000000 0.028520 1.000000
tan -0.070866 1.000000 0.024180 1.000000
tan -0.070866 1.000000 0.028086 1.000000
tan -0.047244 -1.000000 0.000000 1.000000
tan 0.047244 -1.000000 0.000000 1.000000
tan 0.039370 -1.000000 0.000000 1.000000
tan -0.079298 0.992126 0.007812 1.000000
tan 0.031496 1.000000 -0.000000 1.000000
tan -0.086614 1.000000 -0.000000 1.000000
tan -0.015562 -1.000000 0.007874 1.000000
tan 0.063488 -0.992126 0.007812 1.000000
tan -0.016120 -1.000000 0.007874 1.000000
tan 0.000000 1.000000 -0.007874 1.000000
tan 0.000000 1.000000 0.039370 1.000000
tan 0.000000 1.000000 -0.000000 1.000000
tan 0.001240 -0.039370 1.000000 1.000000
tan -0.002480 -0.039370 1.000000 1.000000
tan 0.002170 -0.039370 1.000000 1.000000
tan 0.001550 0.039370 1.000000 1.000000
tan -0.001240 0.039370 1.000000 1.000000
tan 0.000000 0.039370 1.000000 1.000000
tan 0.002170 -0.039370 1.000000 1.000000
tan 0.000000 -0.039370 1.000000 1.000000
tan -0.002170 -0.039370 1.000000 1.000000
tan 0.000000 0.000000 0.968504 1.000000
tan 0.000000 0.000000 1.000000 1.000000
tan 0.000000 0.000000 0.818897 1.000000
tan -0.111414 0.984252 0.007750 1.000000
tan -0.023622 1.000000 -0.000000 1.000000
tan -0.023622 1.000000 -0.000000 1.000000
tan -0.023622 1.000000 -0.000000 1.000000
tan -0.016244 1.000000 0.007874 1.000000
tan -0.078740 0.992126 -0.000000 1.000000
tan 0.062992 -1.000000 0.000000 1.000000
tan -0.039370 -1.000000 0.000000 1.000000
tan 0.078740 -0.992126 0.000000 1.000000
tan -0.007874 1.000000 -0.007378 1.000000
tan -0.015748 1.000000 -0.024738 1.000000
tan -0.007874 1.000000 -0.000496 1.000000
tan 0.000000 1.000000 0.031496 1.000000
tan 0.000000 1.000000 0.007874 1.000000
tan -0.007750 0.984252 0.032736 1.000000
tan -0.093868 0.992126 0.007812 1.000000
tan 0.157790 0.984252 -0.007750 1.000000
tan 0.149606 0.992126 -0.000000 1.000000
tan 0.001240 -0.039370 1.000000 1.000000
tan -0.002480 -0.039370 1.000000 1.000000
tan 0.002170 -0.039370 1.000000 1.000000
tan 0.001550 0.039370 1.000000 1.000000
tan -0.001240 0.039370 1.000000 1.000000
tan 0.000000 0.039370 1.000000 1.000000
tan 0.002170 -0.039370 1.000000 1.000000
tan 0.000000 -0.039370 1.000000 1.000000
tan -0.002170 -0.039370 1.000000 1.000000
tan 0.000000 0.000000 0.968504 1.000000
tan 0.000000 0.000000 1.000000 1.000000
tan 0.000000 0.000000 0.818897 1.000000
tan 0.000000 -0.000000 -1.000000 1.000000
tan 0.000000 -0.000000 -1.000000 1.000000
tan 0.000000 -0.000000 -1.000000 1.000000
tan 0.000000 -0.000000 -1.000000 1.000000
f 3/3/3 2/2/2 1/1/1
f 6/6/6 5/5/5 4/4/4
f 9/9/9 8/8/8 7/7/7
f 12/12/12 11/11/11 10/10/10
f 15/15/15 14/14/14 13/13/13
f 18/18/18 17/17/17 16/16/16
f 21/21/21 20/20/20 19/19/19
f 24/24/24 23/23/23 22/22/22
f 27/27/27 26/26/26 25/25/25
f 30/30/30 29/29/29 28/28/28
f 33/33/33 32/32/32 31/31/31
f 36/36/36 35/35/35 34/34/34
f 39/39/39 38/38/38 37/37/37
f 42/42/42 41/41/41 40/40/40
f 45/45/45 44/44/44 43/43/43
f 48/48/48 47/47/47 46/46/46
f 51/51/51 50/50/50 49/49/49
f 54/54/54 53/53/53 52/52/52
f 57/57/57 56/56/56 55/55/55
f 60/60/60 59/59/59 58/58/58
f 63/63/63 62/62/62 61/61/61
f 66/66/66 65/65/65 64/64/64
f 69/69/69 68/68/68 67/67/67
f 72/72/72 71/71/71 70/70/70
f 75/75/75 74/74/74 73/73/73
f 78/78/78 77/77/77 76/76/76
f 81/81/81 80/80/80 79/79/79
f 84/84/84 83/83/83 82/82/82
f 87/87/87 86/86/86 85/85/85
f 90/90/90 89/89/89 88/88/88
f 93/93/93 92/92/92 91/91/91
f 96/96/96 95/95/95 94/94/94
f 99/99/99 98/98/98 97/97/97
f 100/100/100 97/97/97 98/98/98
