mtllib SM_WoodPart_01_LOD3.mtl
g SM_WoodPart_01_LOD3
#Vertices 73
#Indices 258
#Section 0 Offset 0 NumIndices 258 MaterialIndex 0 MI_WoodPart
v 0.102843 -0.013271 -0.022164
v 0.103851 0.016823 -0.017646
v 0.101141 -0.011545 -0.033646
v 0.104054 0.022635 0.006150
v 0.103512 0.002620 0.030402
v 0.102841 0.015901 0.023893
v 0.101283 -0.011388 0.001889
v 0.100096 -0.004969 0.028968
v 0.098060 -0.005388 0.035583
v 0.087046 -0.014821 -0.028780
v 0.102843 -0.013271 -0.022164
v 0.101141 -0.011545 -0.033646
v 0.085479 -0.015847 -0.005231
v 0.080909 -0.011609 -0.032033
v 0.101283 -0.011388 0.001889
v 0.066332 -0.018717 -0.032308
v 0.085243 -0.010093 0.015878
v 0.100096 -0.004969 0.028968
v 0.051394 -0.020919 -0.026607
v 0.046293 -0.016889 -0.036179
v 0.000782 -0.013614 -0.035701
v 0.059815 -0.006954 0.031195
v 0.098060 -0.005388 0.035583
v -0.014882 -0.012528 0.036818
v -0.070926 -0.015986 -0.030676
v -0.090645 -0.013401 -0.034800
v -0.061946 -0.019238 0.021092
v -0.033918 -0.015688 0.036847
v -0.080791 -0.021510 0.037084
v 0.020025 -0.015283 -0.010547
v -0.085721 -0.023253 0.002081
v -0.103578 -0.012056 -0.032008
v -0.099086 -0.023701 0.024230
v -0.097266 -0.021802 0.038583
v -0.103578 -0.012056 -0.032008
v -0.104732 -0.001171 -0.026713
v -0.099086 -0.023701 0.024230
v -0.101686 -0.002839 0.020832
v -0.103465 0.011519 0.006495
v -0.100523 0.000084 0.029030
v -0.097266 -0.021802 0.038583
v 0.066332 -0.018717 -0.032308
v 0.080909 -0.011609 -0.032033
v 0.046293 -0.016889 -0.036179
v 0.087046 -0.014821 -0.028780
v 0.101141 -0.011545 -0.033646
v 0.023451 -0.007328 -0.037424
v 0.000782 -0.013614 -0.035701
v 0.094087 0.018189 -0.017793
v 0.103851 0.016823 -0.017646
v 0.104054 0.022635 0.006150
v -0.086748 -0.009283 -0.036342
v -0.090645 -0.013401 -0.034800
v -0.103578 -0.012056 -0.032008
v -0.104732 -0.001171 -0.026713
v -0.080431 0.001026 -0.026604
v 0.042587 0.012522 -0.021473
v -0.088474 0.010940 -0.005016
v -0.103465 0.011519 0.006495
v 0.083458 0.021744 0.003971
v -0.095027 0.005747 0.024054
v -0.100523 0.000084 0.029030
v -0.097266 -0.021802 0.038583
v 0.087591 0.018054 0.019936
v 0.102841 0.015901 0.023893
v -0.075727 -0.016146 0.036472
v -0.080791 -0.021510 0.037084
v -0.033918 -0.015688 0.036847
v -0.019820 -0.007367 0.035591
v -0.014882 -0.012528 0.036818
v 0.098060 -0.005388 0.035583
v 0.081083 -0.000621 0.033175
v 0.103512 0.002620 0.030402
vt 0.891602 0.556152
vt 0.879883 0.522705
vt 0.904785 0.552246
vt 0.851074 0.521484
vt 0.828125 0.549805
vt 0.832520 0.532959
vt 0.863770 0.560303
vt 0.831055 0.558838
vt 0.823242 0.562012
vt 0.562500 0.887939
vt 0.571777 0.905518
vt 0.558594 0.904907
vt 0.589844 0.883728
vt 0.557617 0.881348
vt 0.599609 0.902039
vt 0.556641 0.863281
vt 0.615723 0.883057
vt 0.631836 0.900452
vt 0.563965 0.844238
vt 0.552734 0.837891
vt 0.553711 0.784668
vt 0.632812 0.853516
vt 0.638672 0.897827
vt 0.639160 0.766724
vt 0.559570 0.701416
vt 0.553711 0.678467
vt 0.620117 0.711670
vt 0.638672 0.744385
vt 0.638672 0.689453
vt 0.583008 0.807129
vt 0.597656 0.684082
vt 0.556152 0.663330
vt 0.623047 0.668213
vt 0.640137 0.670166
vt 0.992676 0.523438
vt 0.989258 0.537354
vt 0.925293 0.524170
vt 0.935059 0.547607
vt 0.955078 0.560791
vt 0.926270 0.552734
vt 0.909668 0.530029
vt 0.964355 0.472168
vt 0.954590 0.488770
vt 0.963379 0.447266
vt 0.958496 0.496094
vt 0.952637 0.512207
vt 0.951660 0.420898
vt 0.957031 0.394531
vt 0.914551 0.501709
vt 0.915039 0.512695
vt 0.886230 0.512451
vt 0.956543 0.292969
vt 0.960938 0.288086
vt 0.957520 0.272461
vt 0.942871 0.270996
vt 0.939453 0.299805
vt 0.922363 0.442383
vt 0.912598 0.289062
vt 0.900391 0.270508
vt 0.889160 0.488770
vt 0.878906 0.278809
vt 0.870605 0.271484
vt 0.842773 0.272461
vt 0.870117 0.492188
vt 0.863281 0.509277
vt 0.847168 0.298340
vt 0.841797 0.291504
vt 0.842773 0.346680
vt 0.850098 0.364258
vt 0.843262 0.369141
vt 0.836426 0.500488
vt 0.844727 0.481934
vt 0.846191 0.508057
vt1 0.845215 0.951172
vt1 0.964355 0.908875
vt1 0.859375 0.997746
vt1 0.968750 0.807373
vt1 0.867676 0.725098
vt1 0.927734 0.740967
vt1 0.830078 0.851929
vt1 0.835449 0.736816
vt1 0.824219 0.708984
vt1 0.767578 0.932800
vt1 0.734375 0.994995
vt1 0.781738 0.992947
vt1 0.669922 0.917786
vt1 0.784668 0.909363
vt1 0.635254 0.982758
vt1 0.787109 0.845215
vt1 0.579102 0.915405
vt1 0.520996 0.977158
vt1 0.761719 0.777710
vt1 0.801758 0.754883
vt1 0.798340 0.566406
vt1 0.516602 0.810425
vt1 0.496338 0.967682
vt1 0.495605 0.502441
vt1 0.778320 0.270996
vt1 0.798340 0.189453
vt1 0.562988 0.307129
vt1 0.496582 0.422852
vt1 0.497314 0.228027
vt1 0.693848 0.645752
vt1 0.641602 0.208984
vt1 0.789062 0.135254
vt1 0.551270 0.152832
vt1 0.491943 0.160156
vt1 0.961426 0.698242
vt1 0.912109 0.687012
vt1 0.958984 0.460938
vt1 0.875000 0.494629
vt1 0.828125 0.565918
vt1 0.856934 0.463867
vt1 0.937988 0.404785
vt1 0.464355 0.842896
vt1 0.429199 0.901489
vt1 0.460205 0.754272
vt1 0.443604 0.927734
vt1 0.422363 0.984734
vt1 0.418945 0.660645
vt1 0.437744 0.566895
vt1 0.287842 0.948303
vt1 0.288086 0.987099
vt1 0.185669 0.986053
vt1 0.437012 0.207031
vt1 0.451904 0.188965
vt1 0.440186 0.133789
vt1 0.387451 0.129883
vt1 0.376221 0.231445
vt1 0.314453 0.737549
vt1 0.279297 0.193359
vt1 0.236694 0.127930
vt1 0.197144 0.901733
vt1 0.160400 0.157715
vt1 0.131226 0.130859
vt1 0.031403 0.134277
vt1 0.129272 0.914062
vt1 0.105652 0.975067
vt1 0.047638 0.225586
vt1 0.027954 0.202637
vt1 0.031525 0.396973
vt1 0.059052 0.458984
vt1 0.034119 0.477051
vt1 0.009163 0.943909
vt1 0.038788 0.876831
vt1 0.045044 0.970749
vn 0.858268 -0.511811 -0.055118
vn 0.811024 0.448819 -0.377953
vn 0.622047 -0.070866 -0.779527
vn 0.937008 0.346457 0.015748
vn 0.944882 -0.188976 0.259843
vn 0.740157 0.503937 0.440945
vn 0.732283 -0.645669 0.220472
vn 0.629921 -0.748031 0.212598
vn 0.362205 -0.307086 0.881890
vn 0.055118 -0.913386 -0.393701
vn 0.322835 -0.937008 -0.157480
vn 0.614173 -0.582677 -0.535433
vn 0.220472 -0.960630 0.165354
vn 0.094488 -0.937008 -0.338583
vn 0.669291 -0.716535 0.220472
vn 0.362205 -0.574803 -0.732283
vn 0.086614 -0.944882 0.314961
vn 0.574803 -0.811023 0.102362
vn -0.204724 -0.976378 0.110236
vn -0.244094 -0.574803 -0.779527
vn 0.086614 -0.677165 -0.732283
vn 0.000000 -1.000000 0.055118
vn 0.173228 -0.669291 0.724409
vn 0.094488 -0.708661 0.700787
vn 0.015748 -0.984252 -0.181102
vn -0.165354 -0.614173 -0.771653
vn 0.125984 -0.984252 0.133858
vn 0.078740 -0.708661 0.700787
vn 0.094488 -0.716535 0.692913
vn 0.023622 -1.000000 -0.039370
vn 0.023622 -0.992126 -0.149606
vn -0.795276 -0.488189 -0.362205
vn -0.527559 -0.850394 -0.007874
vn -0.086614 -0.629921 0.771653
vn -0.732283 -0.559055 -0.385827
vn -0.984252 -0.000000 -0.165354
vn -0.881890 -0.456693 0.149606
vn -0.874016 -0.488189 0.062992
vn -0.826772 0.559055 0.070866
vn -0.763780 0.055118 0.645669
vn -0.582677 -0.362205 0.724409
vn 0.377953 -0.574803 -0.724409
vn 0.023622 -0.204724 -0.976378
vn -0.078740 -0.031496 -1.000000
vn 0.055118 -0.913386 -0.393701
vn 0.622047 -0.086614 -0.779527
vn -0.015748 0.267716 -0.960630
vn 0.094488 -0.165354 -0.984252
vn 0.055118 0.834646 -0.543307
vn 0.448819 0.677165 -0.582677
vn 0.590551 0.811023 0.031496
vn -0.031496 0.291338 -0.952756
vn -0.165354 -0.614173 -0.771653
vn -0.677165 -0.393701 -0.622047
vn -0.661417 0.519685 -0.543307
vn 0.070866 0.826771 -0.559055
vn -0.110236 0.850394 -0.519685
vn 0.007874 0.976378 -0.228347
vn -0.685039 0.724409 0.039370
vn -0.094488 0.992126 -0.000000
vn -0.007874 0.818898 0.574803
vn -0.614173 0.433071 0.661417
vn -0.551181 -0.251968 0.795276
vn -0.078740 0.803150 0.598425
vn 0.267717 0.661417 0.692913
vn 0.031496 0.244095 0.968504
vn 0.062992 -0.661417 0.748031
vn -0.047244 0.007874 1.000000
vn -0.007874 0.322835 0.944882
vn 0.102362 -0.637795 0.763779
vn 0.055118 -0.086614 0.992126
vn -0.031496 0.456693 0.889764
vn 0.637795 0.283465 0.716535
tan 0.508339 0.859136 -0.062124 1.000000
tan -0.532333 0.811830 -0.178250 1.000000
tan -0.649513 0.481059 -0.562031 1.000000
tan -0.341497 0.929630 -0.132804 1.000000
tan 0.251100 0.907682 -0.252961 1.000000
tan -0.489057 0.804886 -0.098952 1.000000
tan 0.663029 0.735755 -0.047492 1.000000
tan 0.759750 0.631595 -0.028830 1.000000
tan 0.553103 0.677661 0.008804 1.000000
tan -0.930002 -0.113150 0.132308 1.000000
tan -0.930870 -0.337653 0.100750 1.000000
tan -0.649141 -0.757269 0.079484 1.000000
tan -0.960630 -0.217868 0.015128 1.000000
tan -0.909542 -0.166904 0.208072 1.000000
tan -0.725215 -0.669291 0.026350 1.000000
tan -0.735384 -0.557939 0.074214 1.000000
tan -0.944882 -0.086614 0.000000 1.000000
tan -0.812636 -0.574803 0.009052 1.000000
tan -0.976378 0.206460 0.015376 1.000000
tan -0.778660 0.470829 -0.103354 1.000000
tan -0.982268 0.035340 -0.148862 1.000000
tan -1.000000 0.001736 0.031496 1.000000
tan -0.930994 -0.337529 -0.089218 1.000000
tan -0.826214 -0.434621 -0.328105 1.000000
tan -0.984252 -0.020026 0.023250 1.000000
tan -0.953686 0.234794 0.017484 1.000000
tan -0.984252 -0.125984 0.000000 1.000000
tan -0.799802 -0.460413 -0.375721 1.000000
tan -0.967202 -0.218736 -0.094302 1.000000
tan -1.000000 -0.023622 0.000000 1.000000
tan -0.992126 -0.025978 0.015624 1.000000
tan -0.594209 0.746357 0.298716 1.000000
tan -0.850456 0.527497 0.010850 1.000000
tan -0.713373 0.490979 0.320727 1.000000
tan 0.637299 -0.727757 -0.155062 1.000000
tan 0.042966 -0.953252 -0.255750 1.000000
tan 0.437783 -0.878480 -0.101060 1.000000
tan 0.477897 -0.867630 -0.093310 1.000000
tan -0.562961 -0.826772 -0.045570 1.000000
tan -0.563333 -0.525885 -0.621489 1.000000
tan 0.228160 -0.874946 -0.253952 1.000000
tan -0.709529 0.321161 -0.625023 1.000000
tan -0.968690 0.123008 -0.049228 1.000000
tan -1.000000 -0.078740 0.081220 1.000000
tan -0.930002 0.007750 -0.148180 1.000000
tan -0.782256 -0.001178 -0.624093 1.000000
tan -0.958522 -0.030132 0.007316 1.000000
tan -0.976502 0.093000 -0.109368 1.000000
tan -0.897886 0.176576 0.180172 1.000000
tan -0.876434 0.444479 -0.158534 1.000000
tan -0.811024 0.591543 -0.025544 1.000000
tan -0.950462 0.022754 0.038378 1.000000
tan -0.918594 -0.167958 0.330523 1.000000
tan -0.630851 -0.080662 0.737801 1.000000
tan -0.750511 -0.422779 0.509269 1.000000
tan -0.813938 0.209498 0.206646 1.000000
tan -0.871226 0.006944 0.196168 1.000000
tan -0.976378 0.020460 0.053816 1.000000
tan -0.725959 -0.685349 -0.021266 1.000000
tan -0.992126 -0.094488 0.046872 1.000000
tan -0.523653 -0.461901 0.650877 1.000000
tan -0.771219 -0.299461 -0.520057 1.000000
tan -0.789014 -0.112716 -0.582553 1.000000
tan -0.671461 -0.449997 0.515593 1.000000
tan -0.862050 -0.144584 0.471077 1.000000
tan -0.968504 0.000000 0.031496 1.000000
tan -0.943394 -0.223634 -0.118296 1.000000
tan -0.992126 -0.141732 -0.045756 1.000000
tan -0.917478 -0.193316 0.058404 1.000000
tan -0.852316 -0.290409 -0.128278 1.000000
tan -0.945254 -0.296857 0.026598 1.000000
tan -0.886540 -0.161882 0.051708 1.000000
tan -0.736623 0.045198 0.637795 1.000000
f 3/3/3 2/2/2 1/1/1
f 1/1/1 2/2/2 4/4/4
f 1/1/1 4/4/4 5/5/5
f 4/4/4 6/6/6 5/5/5
f 5/5/5 7/7/7 1/1/1
f 5/5/5 8/8/8 7/7/7
f 9/9/9 8/8/8 5/5/5
f 12/12/12 11/11/11 10/10/10
f 13/13/13 10/10/10 11/11/11
f 10/10/10 13/13/13 14/14/14
f 11/11/11 15/15/15 13/13/13
f 16/16/16 14/14/14 13/13/13
f 15/15/15 17/17/17 13/13/13
f 18/18/18 17/17/17 15/15/15
f 16/16/16 13/13/13 19/19/19
f 17/17/17 19/19/19 13/13/13
f 20/20/20 16/16/16 19/19/19
f 19/19/19 21/21/21 20/20/20
f 18/18/18 22/22/22 17/17/17
f 23/23/23 22/22/22 18/18/18
f 24/24/24 22/22/22 23/23/23
f 25/25/25 21/21/21 19/19/19
f 26/26/26 21/21/21 25/25/25
f 22/22/22 24/24/24 27/27/27
f 22/22/22 27/27/27 17/17/17
f 27/27/27 24/24/24 28/28/28
f 29/29/29 27/27/27 28/28/28
f 30/30/30 19/19/19 17/17/17
f 17/17/17 27/27/27 30/30/30
f 25/25/25 19/19/19 30/30/30
f 30/30/30 27/27/27 31/31/31
f 30/30/30 31/31/31 25/25/25
f 31/31/31 27/27/27 29/29/29
f 26/26/26 25/25/25 31/31/31
f 32/32/32 26/26/26 31/31/31
f 32/32/32 31/31/31 33/33/33
f 29/29/29 33/33/33 31/31/31
f 34/34/34 33/33/33 29/29/29
f 37/37/37 36/36/36 35/35/35
f 38/38/38 36/36/36 37/37/37
f 39/39/39 36/36/36 38/38/38
f 38/38/38 40/40/40 39/39/39
f 40/40/40 38/38/38 37/37/37
f 41/41/41 40/40/40 37/37/37
f 44/44/44 43/43/43 42/42/42
f 43/43/43 46/46/46 45/45/45
f 44/44/44 47/47/47 43/43/43
f 48/48/48 47/47/47 44/44/44
f 43/43/43 49/49/49 46/46/46
f 43/43/43 47/47/47 49/49/49
f 49/49/49 50/50/50 46/46/46
f 49/49/49 51/51/51 50/50/50
f 47/47/47 48/48/48 52/52/52
f 48/48/48 53/53/53 52/52/52
f 54/54/54 52/52/52 53/53/53
f 55/55/55 52/52/52 54/54/54
f 47/47/47 52/52/52 56/56/56
f 56/56/56 52/52/52 55/55/55
f 47/47/47 56/56/56 57/57/57
f 49/49/49 47/47/47 57/57/57
f 58/58/58 56/56/56 55/55/55
f 58/58/58 57/57/57 56/56/56
f 59/59/59 58/58/58 55/55/55
f 49/49/49 57/57/57 60/60/60
f 57/57/57 58/58/58 60/60/60
f 60/60/60 51/51/51 49/49/49
f 61/61/61 58/58/58 59/59/59
f 58/58/58 61/61/61 60/60/60
f 62/62/62 61/61/61 59/59/59
f 63/63/63 61/61/61 62/62/62
f 60/60/60 64/64/64 51/51/51
f 61/61/61 64/64/64 60/60/60
f 64/64/64 65/65/65 51/51/51
f 61/61/61 63/63/63 66/66/66
f 66/66/66 63/63/63 67/67/67
f 68/68/68 66/66/66 67/67/67
f 69/69/69 61/61/61 66/66/66
f 68/68/68 69/69/69 66/66/66
f 64/64/64 61/61/61 69/69/69
f 69/69/69 68/68/68 70/70/70
f 69/69/69 70/70/70 71/71/71
f 69/69/69 72/72/72 64/64/64
f 71/71/71 72/72/72 69/69/69
f 72/72/72 65/65/65 64/64/64
f 72/72/72 71/71/71 73/73/73
f 73/73/73 65/65/65 72/72/72
