mtllib SM_Walls_Tile_LOD1.mtl
g SM_Walls_Tile_LOD1
#Vertices 59
#Indices 81
#Section 0 Offset 0 NumIndices 81 MaterialIndex 0 MI_Walls_Tiles
v -4.235550 1.709681 7.202928
v -4.242649 1.707165 8.071792
v -4.260342 1.707049 8.093641
v -4.234078 1.227387 7.204639
v -4.235550 1.709681 7.202928
v -4.260297 1.241043 7.204862
v -4.243141 1.708865 4.463646
v -4.235298 1.707165 6.235702
v -4.260297 1.707083 6.235785
v -4.239872 1.219257 4.466825
v -4.260297 1.220044 6.235734
v -4.233842 1.225868 6.236739
v -1.992115 1.708505 8.071922
v -3.042422 1.707067 8.093635
v -3.042581 1.707165 8.071814
v -3.041138 1.220065 8.092341
v -1.991904 1.217363 8.072182
v -3.041024 1.220028 8.071814
v -4.239724 1.220019 8.071671
v -3.042581 1.707165 8.071814
v -4.242649 1.707165 8.071792
v -3.041024 1.220028 8.071814
v -4.239872 1.219257 4.466825
v -3.393333 1.708615 4.470436
v -3.390683 1.216180 4.469778
v -4.243141 1.708865 4.463646
v -4.234078 1.227387 7.204639
v -4.239724 1.220019 8.071671
v -4.235550 1.709681 7.202928
v -4.242649 1.707165 8.071792
v -4.239872 1.219257 4.466825
v -4.235298 1.707165 6.235702
v -4.243141 1.708865 4.463646
v -4.233842 1.225868 6.236739
v -4.242649 1.707165 8.071792
v -3.042581 1.707165 8.071814
v -3.042422 1.707067 8.093635
v -4.260342 1.707049 8.093641
v -4.233842 1.225868 6.236739
v -4.260297 1.707083 6.235785
v -4.235298 1.707165 6.235702
v -4.260297 1.241042 6.235744
v -4.260297 1.241043 7.204862
v -4.260297 1.241042 6.235744
v -4.233842 1.225868 6.236739
v -4.234078 1.227387 7.204639
v -4.239724 1.220019 8.071671
v -3.041138 1.220065 8.092341
v -3.041024 1.220028 8.071814
v -4.258640 1.220054 8.091069
v -3.041024 1.220028 8.071814
v -1.992115 1.708505 8.071922
v -3.042581 1.707165 8.071814
v -1.991904 1.217363 8.072182
v -4.258640 1.220054 8.091069
v -4.233842 1.225868 6.236739
v -4.260297 1.220044 6.235734
v -4.234078 1.227387 7.204639
v -4.239724 1.220019 8.071671
vt 0.938477 0.407715
vt 0.938477 0.008301
vt 0.946289 0.000488
vt 0.253662 0.299316
vt 0.252930 0.520264
vt 0.241821 0.305664
vt 0.844238 0.008789
vt 0.844238 0.819580
vt 0.833008 0.819580
vt 0.859863 0.787964
vt 0.849609 0.000488
vt 0.861328 0.000000
vt 0.886230 0.092285
vt 0.896484 0.279297
vt 0.886719 0.275391
vt 0.869141 0.278809
vt 0.877930 0.091797
vt 0.878906 0.274902
vt 0.074585 0.292969
vt 0.695312 0.069824
vt 0.073181 0.069824
vt 0.696289 0.292969
vt 0.396973 0.683594
vt -0.000604 0.909912
vt -0.001078 0.675293
vt 0.397949 0.911316
vt 0.409180 0.685547
vt 0.806641 0.681396
vt 0.408447 0.910461
vt 0.808105 0.909302
vt 0.001658 0.070312
vt 0.810547 0.298340
vt 0.000202 0.299316
vt 0.811035 0.073730
vt 0.887695 0.550293
vt 0.886719 0.275391
vt 0.896484 0.279297
vt 0.895508 0.558594
vt 0.224365 0.298340
vt 0.236450 0.519043
vt 0.224976 0.519043
vt 0.236450 0.305664
vt 0.921387 0.444336
vt 0.921387 0.000488
vt 0.935059 0.000977
vt 0.933594 0.444336
vt 0.879883 0.549072
vt 0.869141 0.278809
vt 0.878906 0.274902
vt 0.872070 0.557617
vt 0.606934 0.292969
vt 0.095825 0.067383
vt 0.607910 0.067871
vt 0.095825 0.294434
vt 0.817383 0.000000
vt 0.828613 0.839844
vt 0.816406 0.840210
vt 0.828125 0.401855
vt 0.826660 0.008301
vt1 0.975586 0.992142
vt1 0.975586 0.606445
vt1 0.983398 0.598633
vt1 0.858398 0.779175
vt1 0.857422 0.993053
vt1 0.846680 0.785278
vt1 0.793457 0.137207
vt1 0.008064 0.137207
vt1 0.008072 0.125977
vt1 0.016373 0.104004
vt1 0.800293 0.094727
vt1 0.800781 0.105469
vt1 0.991699 0.195312
vt1 0.596680 0.216797
vt1 0.604980 0.196289
vt1 0.596191 0.243652
vt1 0.991699 0.262695
vt1 0.604980 0.264160
vt1 0.009285 0.750000
vt1 0.540039 0.533936
vt1 0.008064 0.533936
vt1 0.541016 0.750122
vt1 0.867188 0.343750
vt1 0.491211 0.507812
vt1 0.490723 0.337891
vt1 0.868164 0.508789
vt1 0.572266 0.588135
vt1 0.956543 0.585205
vt1 0.571289 0.750854
vt1 0.957520 0.750000
vt1 0.009666 0.826782
vt1 0.793945 0.991936
vt1 0.008255 0.992516
vt1 0.794434 0.829224
vt1 0.025208 0.198730
vt1 0.604980 0.196289
vt1 0.596680 0.216797
vt1 0.008064 0.215332
vt1 0.877930 0.778442
vt1 0.889648 0.991905
vt1 0.878906 0.991936
vt1 0.889648 0.785278
vt1 0.008095 0.061523
vt1 0.437988 0.061523
vt1 0.437500 0.074707
vt1 0.008194 0.073242
vt1 0.025528 0.266602
vt1 0.596191 0.243652
vt1 0.605469 0.264160
vt1 0.007626 0.249512
vt1 0.473389 0.508057
vt1 0.008064 0.291504
vt1 0.473877 0.291992
vt1 0.008080 0.509277
vt1 0.830566 0.159668
vt1 0.008522 0.170410
vt1 0.008072 0.158691
vt1 0.437500 0.169922
vt1 0.822754 0.168945
vn -0.007874 1.000000 -0.000000
vn 0.000000 1.000000 -0.000000
vn 0.000000 1.000000 -0.000000
vn 0.007874 -0.000000 -1.000000
vn 0.007874 -0.000000 -1.000000
vn 0.007874 -0.000000 -1.000000
vn 0.000000 1.000000 -0.000000
vn -0.007874 1.000000 -0.000000
vn -0.007874 1.000000 -0.000000
vn 0.000000 -1.000000 0.000000
vn 0.000000 -1.000000 0.000000
vn 0.000000 -1.000000 0.000000
vn 0.000000 1.000000 0.007874
vn 0.000000 1.000000 0.007874
vn 0.000000 1.000000 0.007874
vn 0.000000 -1.000000 0.000000
vn 0.000000 -1.000000 0.000000
vn 0.000000 -1.000000 0.000000
vn 0.000000 -0.000000 -1.000000
vn 0.000000 -0.000000 -1.000000
vn 0.000000 -0.000000 -1.000000
vn 0.000000 -0.000000 -1.000000
vn -0.007874 0.000000 1.000000
vn -0.007874 0.000000 1.000000
vn -0.007874 0.000000 1.000000
vn -0.007874 0.000000 1.000000
vn 1.000000 0.000000 0.007874
vn 1.000000 0.000000 0.007874
vn 1.000000 0.000000 0.007874
vn 1.000000 0.000000 0.007874
vn 1.000000 0.000000 0.000000
vn 1.000000 0.000000 0.000000
vn 1.000000 0.000000 0.000000
vn 1.000000 0.000000 0.000000
vn 0.000000 1.000000 -0.000000
vn 0.000000 1.000000 0.007874
vn 0.000000 1.000000 0.007874
vn 0.000000 1.000000 -0.000000
vn 0.000000 0.000000 1.000000
vn 0.000000 0.000000 1.000000
vn 0.000000 0.000000 1.000000
vn 0.000000 0.000000 1.000000
vn 0.000000 1.000000 -0.000000
vn 0.000000 1.000000 -0.000000
vn 0.000000 1.000000 -0.000000
vn 0.000000 1.000000 -0.000000
vn 0.000000 -1.000000 0.000000
vn 0.000000 -1.000000 0.000000
vn 0.000000 -1.000000 0.000000
vn 0.000000 -1.000000 0.000000
vn 0.000000 -0.000000 -1.000000
vn 0.000000 -0.000000 -1.000000
vn 0.000000 -0.000000 -1.000000
vn 0.000000 -0.000000 -1.000000
vn 0.000000 -1.000000 0.000000
vn 0.000000 -1.000000 0.000000
vn 0.000000 -1.000000 0.000000
vn 0.000000 -1.000000 0.000000
vn 0.000000 -1.000000 0.000000
tan -0.015748 -0.000124 1.000000 1.000000
tan 0.110236 0.000000 0.992126 1.000000
tan 0.220472 0.000000 0.976378 1.000000
tan 0.000000 -1.000000 0.000000 1.000000
tan 0.000000 -1.000000 0.000000 1.000000
tan 0.000000 -1.000000 0.000000 1.000000
tan -0.078740 -0.000000 -1.000000 1.000000
tan -0.007874 -0.000062 -1.000000 1.000000
tan -0.070866 -0.000558 -1.000000 1.000000
tan 0.070866 0.000000 1.000000 1.000000
tan 0.070866 0.000000 1.000000 1.000000
tan -0.007874 0.000000 1.000000 1.000000
tan 0.834646 0.004278 -0.543307 1.000000
tan 0.834646 0.004278 -0.543307 1.000000
tan 0.685039 0.005766 -0.732283 1.000000
tan 0.818898 -0.000000 -0.566929 1.000000
tan 0.826772 -0.000000 -0.566929 1.000000
tan 0.653543 -0.000000 -0.755905 1.000000
tan 0.000000 1.000000 -0.000000 1.000000
tan 0.000000 1.000000 -0.000000 1.000000
tan 0.000000 1.000000 -0.000000 1.000000
tan 0.000000 1.000000 -0.000000 1.000000
tan 0.000000 -1.000000 0.000000 1.000000
tan 0.000000 -1.000000 0.000000 1.000000
tan 0.000000 -1.000000 0.000000 1.000000
tan 0.000000 -1.000000 0.000000 1.000000
tan 0.000000 -1.000000 0.000000 1.000000
tan 0.000000 -1.000000 0.000000 1.000000
tan 0.000000 -1.000000 0.000000 1.000000
tan 0.000000 -1.000000 0.000000 1.000000
tan 0.000000 -1.000000 0.000000 1.000000
tan 0.000000 -1.000000 0.000000 1.000000
tan 0.000000 -1.000000 0.000000 1.000000
tan 0.000000 -1.000000 0.000000 1.000000
tan 0.771654 -0.000000 -0.629921 1.000000
tan 0.771654 0.004960 -0.629921 1.000000
tan 0.771654 0.004960 -0.629921 1.000000
tan 0.779528 -0.000000 -0.629921 1.000000
tan 0.000000 -1.000000 0.000000 1.000000
tan 0.000000 -1.000000 0.000000 1.000000
tan 0.000000 -1.000000 0.000000 1.000000
tan 0.000000 -1.000000 0.000000 1.000000
tan 0.000000 -0.000000 -1.000000 1.000000
tan 0.000000 -0.000000 -1.000000 1.000000
tan 0.000000 -0.000000 -1.000000 1.000000
tan 0.000000 -0.000000 -1.000000 1.000000
tan 0.740157 -0.000000 -0.669291 1.000000
tan 0.740157 -0.000000 -0.669291 1.000000
tan 0.748031 -0.000000 -0.661417 1.000000
tan 0.732283 -0.000000 -0.685039 1.000000
tan 0.000000 1.000000 -0.000000 1.000000
tan 0.000000 1.000000 -0.000000 1.000000
tan 0.000000 1.000000 -0.000000 1.000000
tan 0.000000 1.000000 -0.000000 1.000000
tan 0.055118 0.000000 1.000000 1.000000
tan 0.000000 0.000000 1.000000 1.000000
tan 0.000000 0.000000 1.000000 1.000000
tan 0.000000 0.000000 1.000000 1.000000
tan 0.047244 0.000000 1.000000 1.000000
f 3/3/3 2/2/2 1/1/1
f 6/6/6 5/5/5 4/4/4
f 9/9/9 8/8/8 7/7/7
f 12/12/12 11/11/11 10/10/10
f 15/15/15 14/14/14 13/13/13
f 18/18/18 17/17/17 16/16/16
f 21/21/21 20/20/20 19/19/19
f 22/22/22 19/19/19 20/20/20
f 25/25/25 24/24/24 23/23/23
f 26/26/26 23/23/23 24/24/24
f 29/29/29 28/28/28 27/27/27
f 30/30/30 28/28/28 29/29/29
f 33/33/33 32/32/32 31/31/31
f 34/34/34 31/31/31 32/32/32
f 37/37/37 36/36/36 35/35/35
f 38/38/38 37/37/37 35/35/35
f 41/41/41 40/40/40 39/39/39
f 42/42/42 39/39/39 40/40/40
f 45/45/45 44/44/44 43/43/43
f 43/43/43 46/46/46 45/45/45
f 49/49/49 48/48/48 47/47/47
f 50/50/50 47/47/47 48/48/48
f 53/53/53 52/52/52 51/51/51
f 54/54/54 51/51/51 52/52/52
f 57/57/57 56/56/56 55/55/55
f 58/58/58 55/55/55 56/56/56
f 58/58/58 59/59/59 55/55/55
