mtllib SM_Walls_Tile_LOD2.mtl
g SM_Walls_Tile_LOD2
#Vertices 27
#Indices 39
#Section 0 Offset 0 NumIndices 39 MaterialIndex 0 MI_Walls_Tiles
v -4.239872 1.219257 4.466825
v -4.260297 1.220044 6.235734
v -4.233759 1.229816 6.239419
v -4.242872 1.215594 8.070218
v -3.042557 1.708349 8.071885
v -4.241938 1.709242 8.072712
v -3.040647 1.218600 8.071918
v -4.239872 1.219257 4.466825
v -3.393333 1.708615 4.470436
v -3.390683 1.216180 4.469778
v -4.243141 1.708865 4.463646
v -4.235385 1.234890 7.201781
v -4.242872 1.215594 8.070218
v -4.235550 1.709681 7.202928
v -4.241938 1.709242 8.072712
v -4.239872 1.219257 4.466825
v -4.235374 1.708451 6.236020
v -4.243141 1.708865 4.463646
v -4.233759 1.229816 6.239419
v -4.233759 1.229816 6.239419
v -4.242872 1.215594 8.070218
v -4.235385 1.234890 7.201781
v -4.260297 1.220044 6.235734
v -3.040647 1.218600 8.071918
v -1.992115 1.708505 8.071922
v -3.042557 1.708349 8.071885
v -1.991904 1.217363 8.072182
vt 0.859863 0.787964
vt 0.849609 0.000488
vt 0.861816 -0.000977
vt 0.072937 0.294922
vt 0.695312 0.069336
vt 0.073547 0.068848
vt 0.696289 0.293945
vt 0.396973 0.683594
vt -0.000604 0.909912
vt -0.001078 0.675293
vt 0.397949 0.911316
vt 0.407959 0.689209
vt 0.806152 0.679443
vt 0.408447 0.910461
vt 0.808594 0.910278
vt 0.001658 0.070312
vt 0.810547 0.299316
vt 0.000202 0.299316
vt 0.812012 0.075684
vt 0.829102 0.838623
vt 0.823730 0.009277
vt 0.829590 0.402832
vt 0.816406 0.840210
vt 0.606934 0.293457
vt 0.095825 0.067383
vt 0.607910 0.067383
vt 0.095825 0.294434
vt1 0.016373 0.104004
vt1 0.800293 0.094727
vt1 0.801758 0.105957
vt1 0.007889 0.751953
vt1 0.540039 0.533447
vt1 0.008377 0.532959
vt1 0.541016 0.750732
vt1 0.867188 0.343750
vt1 0.491211 0.507812
vt1 0.490723 0.337891
vt1 0.868164 0.508789
vt1 0.570801 0.590576
vt1 0.955566 0.583740
vt1 0.571289 0.750854
vt1 0.958008 0.750732
vt1 0.009666 0.826782
vt1 0.794434 0.992371
vt1 0.008255 0.992516
vt1 0.795898 0.830566
vt1 0.009682 0.170898
vt1 0.821777 0.166016
vt1 0.436279 0.171387
vt1 0.008072 0.158691
vt1 0.473145 0.508545
vt1 0.008064 0.291504
vt1 0.473877 0.291504
vt1 0.008080 0.509277
vn 0.000000 -1.000000 0.000000
vn 0.000000 -1.000000 0.000000
vn 0.000000 -1.000000 0.000000
vn 0.000000 -0.000000 -1.000000
vn 0.000000 -0.000000 -1.000000
vn 0.000000 -0.000000 -1.000000
vn 0.000000 -0.000000 -1.000000
vn -0.007874 0.000000 1.000000
vn -0.007874 0.000000 1.000000
vn -0.007874 0.000000 1.000000
vn -0.007874 0.000000 1.000000
vn 1.000000 0.000000 0.007874
vn 1.000000 0.000000 0.007874
vn 1.000000 0.000000 0.007874
vn 1.000000 0.000000 0.007874
vn 1.000000 0.000000 0.000000
vn 1.000000 0.000000 0.000000
vn 1.000000 0.000000 0.000000
vn 1.000000 0.000000 0.000000
vn 0.000000 -1.000000 0.000000
vn 0.000000 -1.000000 0.000000
vn 0.000000 -1.000000 0.000000
vn 0.000000 -1.000000 0.000000
vn 0.000000 -0.000000 -1.000000
vn 0.000000 -0.000000 -1.000000
vn 0.000000 -0.000000 -1.000000
vn 0.000000 -0.000000 -1.000000
tan 0.070866 0.000000 1.000000 1.000000
tan 0.070866 0.000000 1.000000 1.000000
tan -0.007874 0.000000 1.000000 1.000000
tan 0.000000 1.000000 -0.000000 1.000000
tan 0.000000 1.000000 -0.000000 1.000000
tan 0.000000 1.000000 -0.000000 1.000000
tan 0.000000 1.000000 -0.000000 1.000000
tan 0.000000 -1.000000 0.000000 1.000000
tan 0.000000 -1.000000 0.000000 1.000000
tan 0.000000 -1.000000 0.000000 1.000000
tan 0.000000 -1.000000 0.000000 1.000000
tan 0.000000 -1.000000 0.000000 1.000000
tan 0.000000 -1.000000 0.000000 1.000000
tan 0.000000 -1.000000 0.000000 1.000000
tan 0.000000 -1.000000 0.000000 1.000000
tan 0.000000 -1.000000 0.000000 1.000000
tan 0.000000 -1.000000 0.000000 1.000000
tan 0.000000 -1.000000 0.000000 1.000000
tan 0.000000 -1.000000 0.000000 1.000000
tan -0.007874 0.000000 1.000000 1.000000
tan 0.047244 0.000000 1.000000 1.000000
tan -0.015748 0.000000 1.000000 1.000000
tan 0.000000 0.000000 1.000000 1.000000
tan 0.000000 1.000000 -0.000000 1.000000
tan 0.000000 1.000000 -0.000000 1.000000
tan 0.000000 1.000000 -0.000000 1.000000
tan 0.000000 1.000000 -0.000000 1.000000
f 3/3/3 2/2/2 1/1/1
f 6/6/6 5/5/5 4/4/4
f 7/7/7 4/4/4 5/5/5
f 10/10/10 9/9/9 8/8/8
f 11/11/11 8/8/8 9/9/9
f 14/14/14 13/13/13 12/12/12
f 15/15/15 13/13/13 14/14/14
f 18/18/18 17/17/17 16/16/16
f 19/19/19 16/16/16 17/17/17
f 22/22/22 21/21/21 20/20/20
f 23/23/23 20/20/20 21/21/21
f 26/26/26 25/25/25 24/24/24
f 27/27/27 24/24/24 25/25/25
