mtllib SM_WoodenChair01_LOD5.mtl
g SM_WoodenChair01_LOD5
#Vertices 113
#Indices 132
#Section 0 Offset 0 NumIndices 132 MaterialIndex 0 MI_WoodenChair
v -0.158793 0.480417 -0.212907
v -0.142699 -0.035711 -0.106066
v -0.211709 0.481379 -0.186327
v -0.163574 -0.007408 -0.175882
v -0.211709 0.481379 -0.186327
v -0.142699 -0.035711 -0.106066
v -0.211709 0.481379 -0.186327
v -0.163574 -0.007408 -0.175882
v -0.158793 0.480417 -0.212907
v -0.142699 -0.035711 -0.106066
v -0.158793 0.480417 -0.212907
v -0.163574 -0.007408 -0.175882
v 0.265282 0.897279 0.041650
v 0.189651 0.561909 -0.133488
v 0.296508 0.870741 -0.046250
v 0.265282 0.897279 0.041650
v 0.318940 0.475100 0.209372
v 0.189651 0.561909 -0.133488
v 0.297574 0.461057 -0.270721
v 0.283835 0.508187 0.246123
v 0.277484 0.497809 -0.081239
v 0.297574 0.461057 -0.270721
v 0.271595 0.440623 -0.010007
v 0.283835 0.508187 0.246123
v -0.186580 0.434446 -0.281985
v 0.297574 0.461057 -0.270721
v -0.145247 0.499557 -0.284292
v -0.321265 0.560662 -0.100026
v -0.248345 0.492187 0.337858
v -0.266226 0.435974 0.081969
v 0.329803 0.952802 -0.173717
v 0.319670 1.098992 0.179935
v 0.225644 0.980924 -0.160697
v 0.319670 1.098992 0.179935
v 0.329803 0.952802 -0.173717
v 0.352508 0.863864 0.155682
v 0.225644 0.980924 -0.160697
v 0.319670 1.098992 0.179935
v 0.244835 0.972111 0.242900
v 0.319670 1.098992 0.179935
v 0.352508 0.863864 0.155682
v 0.244835 0.972111 0.242900
v 0.352508 0.863864 0.155682
v 0.329803 0.952802 -0.173717
v 0.225644 0.980924 -0.160697
v 0.225644 0.980924 -0.160697
v 0.244835 0.972111 0.242900
v 0.352508 0.863864 0.155682
v -0.190469 0.505996 0.148711
v -0.118034 -0.012810 0.145428
v -0.163100 0.480954 0.210383
v -0.190469 0.505996 0.148711
v -0.184650 -0.018222 0.155612
v -0.118034 -0.012810 0.145428
v -0.184650 -0.018222 0.155612
v -0.190469 0.505996 0.148711
v -0.163100 0.480954 0.210383
v -0.163100 0.480954 0.210383
v -0.118034 -0.012810 0.145428
v -0.184650 -0.018222 0.155612
v 0.174838 -0.035927 -0.106121
v 0.190835 0.480431 -0.212912
v 0.243745 0.481427 -0.186368
v 0.243745 0.481427 -0.186368
v 0.195377 -0.010009 -0.175414
v 0.174838 -0.035927 -0.106121
v 0.195377 -0.010009 -0.175414
v 0.243745 0.481427 -0.186368
v 0.190835 0.480431 -0.212912
v 0.195377 -0.010009 -0.175414
v 0.190835 0.480431 -0.212912
v 0.174838 -0.035927 -0.106121
v 0.195873 0.479435 0.211033
v 0.160061 -0.033953 0.103029
v 0.237978 0.482094 0.169865
v 0.200628 -0.009982 0.162855
v 0.237978 0.482094 0.169865
v 0.160061 -0.033953 0.103029
v 0.237978 0.482094 0.169865
v 0.200628 -0.009982 0.162855
v 0.195873 0.479435 0.211033
v 0.195873 0.479435 0.211033
v 0.200628 -0.009982 0.162855
v 0.160061 -0.033953 0.103029
v 0.271595 0.440623 -0.010007
v -0.321265 0.560662 -0.100026
v -0.266226 0.435974 0.081969
v -0.186580 0.434446 -0.281985
v -0.321265 0.560662 -0.100026
v 0.297574 0.461057 -0.270721
v -0.266226 0.435974 0.081969
v -0.248345 0.492187 0.337858
v 0.283835 0.508187 0.246123
v 0.189651 0.561909 -0.133488
v 0.318940 0.475100 0.209372
v 0.296508 0.870741 -0.046250
v 0.265282 0.897279 0.041650
v 0.366554 1.067391 -0.150425
v 0.374084 1.119031 0.152133
v 0.234281 1.133177 -0.147736
v 0.236149 1.077435 0.151489
v 0.234281 1.133177 -0.147736
v 0.236149 1.077435 0.151489
v 0.366554 1.067391 -0.150425
v 0.374084 1.119031 0.152133
v -0.248345 0.492187 0.337858
v -0.321265 0.560662 -0.100026
v 0.283835 0.508187 0.246123
v 0.277484 0.497809 -0.081239
v -0.145247 0.499557 -0.284292
v 0.297574 0.461057 -0.270721
v -0.321265 0.560662 -0.100026
v -0.186580 0.434446 -0.281985
vt 0.832520 0.715088
vt 0.854492 0.539551
vt 0.849609 0.716309
vt 0.823242 0.551758
vt 0.814941 0.716064
vt 0.801758 0.538330
vt 0.814941 0.716064
vt 0.824219 0.551758
vt 0.833008 0.715332
vt 0.836426 0.539551
vt 0.835449 0.715088
vt 0.824219 0.552002
vt 0.970703 0.668701
vt 0.960449 0.547363
vt 0.978027 0.654541
vt 0.110596 0.370605
vt 0.171631 0.507324
vt 0.052582 0.485352
vt 0.563477 0.321289
vt 0.573730 0.147949
vt 0.573730 0.257812
vt 0.554688 0.321289
vt 0.552246 0.233887
vt 0.558594 0.148926
vt 0.375000 0.911438
vt 0.384033 0.749756
vt 0.396484 0.897766
vt 0.230469 0.211914
vt 0.191406 0.346191
vt 0.199097 0.265625
vt 0.647949 0.689453
vt 0.700684 0.570801
vt 0.668457 0.687744
vt 0.700195 0.571289
vt 0.650391 0.691162
vt 0.622559 0.574219
vt 0.114868 0.550049
vt 0.165283 0.664795
vt 0.118896 0.690430
vt 0.693848 0.584961
vt 0.630859 0.560059
vt 0.667480 0.542969
vt 0.613281 0.584229
vt 0.654785 0.687012
vt 0.650391 0.688232
vt 0.120239 0.549805
vt 0.120850 0.690918
vt 0.078064 0.659912
vt 0.819824 0.347168
vt 0.836426 0.172363
vt 0.842285 0.339844
vt 0.823730 0.346191
vt 0.816895 0.170410
vt 0.832520 0.173340
vt 0.854492 0.171875
vt 0.858887 0.347168
vt 0.842285 0.339844
vt 0.839844 0.339844
vt 0.835449 0.172363
vt 0.855957 0.172363
vt 0.799316 0.371094
vt 0.820801 0.547119
vt 0.804199 0.548096
vt 0.838867 0.547852
vt 0.830566 0.382812
vt 0.851562 0.371094
vt 0.829590 0.382812
vt 0.838379 0.547852
vt 0.820312 0.547119
vt 0.829590 0.382812
vt 0.818359 0.546875
vt 0.817383 0.371582
vt 0.851074 0.171387
vt 0.871582 -0.003906
vt 0.867676 0.172363
vt 0.840820 0.006836
vt 0.833008 0.171875
vt 0.820312 -0.003906
vt 0.833008 0.171875
vt 0.842285 0.006836
vt 0.851074 0.171387
vt 0.853516 0.171387
vt 0.842285 0.007324
vt 0.855469 -0.003906
vt 0.096558 0.184570
vt 0.064758 -0.014648
vt 0.125854 0.003906
vt 0.003944 0.030762
vt 0.065186 -0.014648
vt 0.007599 0.192871
vt 0.125854 0.003906
vt 0.211182 0.009766
vt 0.180542 0.185547
vt 0.562988 0.146973
vt 0.446533 0.170410
vt 0.532715 0.039551
vt 0.502441 0.031250
vt 0.809082 0.712646
vt 0.809082 0.814087
vt 0.764160 0.713135
vt 0.766113 0.813599
vt 0.768555 0.713623
vt 0.767090 0.813599
vt 0.723145 0.712402
vt 0.723145 0.813354
vt -0.013916 0.202148
vt 0.130249 0.170410
vt 0.014885 0.374023
vt 0.124390 0.371582
vt 0.192383 0.229980
vt 0.188110 0.378418
vt 0.129395 0.172852
vt 0.192139 0.214844
vt1 0.240479 0.605713
vt1 0.273926 0.328125
vt1 0.267090 0.607666
vt1 0.224854 0.347168
vt1 0.212402 0.606934
vt1 0.191040 0.327637
vt1 0.212646 0.607178
vt1 0.226196 0.347168
vt1 0.241089 0.605957
vt1 0.245728 0.327637
vt1 0.244751 0.605713
vt1 0.226318 0.347168
vt1 0.114258 0.378906
vt1 0.099182 0.186523
vt1 0.126465 0.356445
vt1 0.002888 0.715576
vt1 0.219971 0.618896
vt1 0.185059 0.807495
vt1 0.838379 0.871704
vt1 0.854492 0.597168
vt1 0.854492 0.770996
vt1 0.824707 0.871582
vt1 0.820312 0.732910
vt1 0.830566 0.598389
vt1 0.668945 0.859375
vt1 0.683105 0.603027
vt1 0.702637 0.837646
vt1 0.942871 0.692627
vt1 0.880859 0.904541
vt1 0.893066 0.777466
vt1 0.250000 0.260254
vt1 0.333984 0.071777
vt1 0.281982 0.258789
vt1 0.333496 0.071777
vt1 0.253906 0.262207
vt1 0.206909 0.081055
vt1 0.416748 0.079102
vt1 0.497070 0.261230
vt1 0.420898 0.298340
vt1 0.321533 0.094238
vt1 0.221069 0.055664
vt1 0.278320 0.029297
vt1 0.191772 0.093750
vt1 0.261230 0.256348
vt1 0.254395 0.258789
vt1 0.425293 0.078125
vt1 0.423828 0.298340
vt1 0.354736 0.251953
vt1 0.299316 0.615967
vt1 0.325439 0.339355
vt1 0.335205 0.604492
vt1 0.305420 0.615967
vt1 0.294678 0.338867
vt1 0.319824 0.339355
vt1 0.354004 0.338867
vt1 0.361328 0.616211
vt1 0.334717 0.604492
vt1 0.330811 0.604492
vt1 0.323975 0.339355
vt1 0.355957 0.338867
vt1 0.471924 0.313965
vt1 0.504395 0.592041
vt1 0.477783 0.593750
vt1 0.532227 0.593262
vt1 0.520996 0.331543
vt1 0.554688 0.313965
vt1 0.519531 0.332031
vt1 0.532227 0.593506
vt1 0.503906 0.592041
vt1 0.519531 0.332031
vt1 0.500000 0.592041
vt1 0.500000 0.313965
vt1 0.904297 0.314453
vt1 0.936035 0.037109
vt1 0.931152 0.315918
vt1 0.887695 0.054199
vt1 0.876465 0.315430
vt1 0.854980 0.037109
vt1 0.876465 0.315918
vt1 0.889648 0.054199
vt1 0.904785 0.314453
vt1 0.908691 0.314453
vt1 0.889648 0.054199
vt1 0.910156 0.036621
vt1 0.797363 0.164062
vt1 0.481689 0.214355
vt1 0.510742 0.117676
vt1 0.553223 0.311035
vt1 0.481689 0.213867
vt1 0.810547 0.305176
vt1 0.510742 0.117676
vt1 0.520508 -0.017578
vt1 0.798340 0.031250
vt1 0.563477 0.654785
vt1 0.601074 0.838989
vt1 0.393799 0.702393
vt1 0.380859 0.750366
vt1 0.739746 0.835449
vt1 0.739258 0.996378
vt1 0.667969 0.836182
vt1 0.670898 0.995522
vt1 0.674805 0.837280
vt1 0.672852 0.995609
vt1 0.603516 0.835327
vt1 0.603027 0.995243
vt1 0.662109 0.647217
vt1 0.612305 0.418945
vt1 0.935059 0.601562
vt1 0.930664 0.428223
vt1 0.706543 0.320312
vt1 0.941895 0.327148
vt1 0.616211 0.420410
vt1 0.682617 0.320801
vn 0.992126 0.078740 0.118110
vn 0.448819 0.125984 0.881890
vn 0.251969 0.118110 0.960630
vn -0.929134 -0.094488 -0.346457
vn -0.842520 0.007874 0.543307
vn -0.125984 0.094488 0.984252
vn -0.992126 -0.055118 0.102362
vn -0.637795 -0.110236 -0.763779
vn 0.173228 -0.078740 -0.984252
vn 0.842520 0.007874 -0.535433
vn 0.771654 -0.000000 -0.629921
vn -0.472441 -0.110236 -0.874016
vn -0.007874 -0.047244 -1.000000
vn 0.055118 0.511811 -0.858268
vn 0.000000 -0.031496 -1.000000
vn -0.992126 0.110236 -0.000000
vn -0.992126 0.110236 -0.000000
vn -0.992126 0.110236 -0.000000
vn 0.984252 -0.181102 -0.015748
vn 0.811024 0.582677 0.015748
vn 0.000000 1.000000 -0.000000
vn 0.889764 -0.464567 0.007874
vn 0.125984 -0.992126 0.000000
vn 1.000000 -0.007874 0.015748
vn 0.094488 -0.031496 -0.992126
vn 0.125984 -0.000000 -0.992126
vn 0.094488 0.031496 -0.992126
vn -0.976378 0.055118 -0.212598
vn -0.818898 -0.039370 0.566929
vn -0.992126 -0.023622 0.133858
vn 0.992126 -0.110236 0.000000
vn 0.992126 -0.102362 0.007874
vn 0.992126 -0.102362 -0.007874
vn 0.992126 -0.102362 0.007874
vn 0.992126 -0.110236 0.000000
vn 0.992126 -0.110236 -0.007874
vn -0.992126 0.110236 -0.000000
vn -0.992126 0.110236 0.007874
vn -0.992126 0.110236 -0.000000
vn 1.000000 -0.070866 0.000000
vn 0.992126 -0.141732 0.000000
vn 0.992126 -0.094488 0.015748
vn 0.992126 -0.133858 0.015748
vn 0.992126 -0.102362 -0.007874
vn 0.992126 -0.102362 -0.007874
vn -0.992126 0.110236 -0.007874
vn -0.992126 0.110236 -0.000000
vn -1.000000 0.078740 0.015748
vn 0.338583 0.118110 -0.929134
vn 0.992126 0.078740 -0.118110
vn 0.984252 0.055118 0.165354
vn -0.110236 0.102362 -0.992126
vn -0.582677 0.047244 -0.811023
vn 0.858268 0.110236 -0.503937
vn -0.937008 -0.086614 0.330709
vn -0.937008 -0.023622 -0.338583
vn -0.125984 -0.102362 0.984252
vn 0.566929 -0.031496 0.826772
vn 0.795276 0.000000 0.606299
vn -0.842520 -0.102362 0.535433
vn -0.456693 0.125984 0.881890
vn -0.992126 0.078740 0.118110
vn -0.251969 0.118110 0.960630
vn 0.842520 0.007874 0.543307
vn 0.937008 -0.094488 -0.346457
vn 0.118110 0.094488 0.984252
vn 0.637795 -0.110236 -0.763779
vn 0.992126 -0.055118 0.102362
vn -0.173228 -0.078740 -0.984252
vn 0.464567 -0.110236 -0.881890
vn -0.771654 -0.000000 -0.637795
vn -0.842520 0.007874 -0.543307
vn -0.984252 0.055118 0.173228
vn -0.566929 0.125984 -0.811023
vn -0.551181 0.125984 -0.826772
vn 0.992126 -0.070866 0.062992
vn 0.645669 0.039370 -0.763779
vn -0.196850 0.118110 -0.976378
vn 0.921260 -0.023622 -0.385827
vn 0.818898 -0.102362 0.566929
vn 0.141732 -0.102362 0.984252
vn -0.535433 -0.039370 0.842520
vn 0.724409 -0.110236 0.685039
vn -0.685039 -0.015748 0.732283
vn 0.000000 -1.000000 0.000000
vn 0.000000 -1.000000 0.000000
vn -0.007874 -1.000000 0.000000
vn 0.000000 -1.000000 0.000000
vn -0.007874 -1.000000 0.000000
vn 0.000000 -1.000000 0.000000
vn -0.007874 -1.000000 0.000000
vn 0.000000 -1.000000 0.000000
vn 0.000000 -1.000000 0.000000
vn 0.992126 -0.110236 0.000000
vn 0.992126 -0.110236 0.000000
vn 0.992126 -0.110236 0.000000
vn 0.992126 -0.110236 0.000000
vn 0.125984 0.992126 -0.007874
vn 0.125984 0.992126 0.007874
vn 0.086614 1.000000 -0.007874
vn 0.086614 1.000000 0.007874
vn -0.133858 -0.992126 -0.007874
vn -0.133858 -0.992126 0.007874
vn -0.078740 -1.000000 -0.007874
vn -0.078740 -1.000000 0.007874
vn 0.000000 1.000000 -0.000000
vn -0.007874 1.000000 -0.000000
vn 0.000000 1.000000 -0.000000
vn 0.000000 1.000000 -0.000000
vn 0.000000 1.000000 -0.000000
vn 0.000000 1.000000 -0.000000
vn -0.007874 1.000000 -0.000000
vn 0.000000 1.000000 -0.000000
tan 0.066030 -0.983384 0.100936 1.000000
tan 0.090272 -0.899684 0.082584 1.000000
tan 0.081344 -0.956662 0.096286 1.000000
tan 0.150288 -0.928142 -0.149916 1.000000
tan 0.254077 -0.774877 0.405233 1.000000
tan 0.566495 -0.805009 0.149792 1.000000
tan 0.064356 -0.984314 0.093744 1.000000
tan 0.005394 -0.881332 0.122698 1.000000
tan 0.069130 -0.985616 0.091016 1.000000
tan 0.393019 -0.664455 0.608655 1.000000
tan 0.481121 -0.608469 0.589373 1.000000
tan -0.227912 -0.865646 0.232377 1.000000
tan -0.118110 -0.992126 0.047802 1.000000
tan -0.020274 -0.858268 -0.513113 1.000000
tan -0.110236 -0.992126 0.031248 1.000000
tan 0.110236 0.992126 -0.000000 1.000000
tan 0.110236 0.992126 -0.000000 1.000000
tan 0.110236 0.992126 -0.000000 1.000000
tan 0.038440 0.123876 0.977928 1.000000
tan 0.030504 -0.067208 0.915742 1.000000
tan 0.000000 0.000000 1.000000 1.000000
tan -0.014632 -0.011036 1.002294 1.000000
tan 0.000000 0.000000 0.992126 1.000000
tan -0.015996 -0.031496 1.000000 1.000000
tan 0.992126 0.000000 0.094488 1.000000
tan 0.992126 0.000000 0.125984 1.000000
tan 0.992126 0.000000 0.094488 1.000000
tan 0.211730 -0.015376 -0.976378 1.000000
tan -0.566929 -0.000000 -0.818897 1.000000
tan -0.133858 -0.000000 -0.992126 1.000000
tan 0.007812 0.070308 0.992126 1.000000
tan -0.000620 0.070308 0.992126 1.000000
tan 0.015128 0.070308 0.992126 1.000000
tan -0.015128 -0.070308 0.992126 1.000000
tan -0.007812 -0.070308 0.992126 1.000000
tan 0.000062 -0.070308 0.992126 1.000000
tan 0.008680 0.078120 -0.992126 1.000000
tan 0.000806 0.078120 -0.992126 1.000000
tan 0.008680 0.078120 -0.992126 1.000000
tan -0.013392 -0.188976 0.984252 1.000000
tan -0.029016 -0.203112 0.968690 1.000000
tan -0.033356 -0.187488 0.976502 1.000000
tan -0.033542 -0.132804 0.984314 1.000000
tan -0.005084 -0.124992 0.984314 1.000000
tan -0.005084 -0.124992 0.984314 1.000000
tan 0.002666 -0.046872 -0.992126 1.000000
tan -0.005208 -0.046872 -0.992126 1.000000
tan -0.019468 -0.047244 -1.000000 1.000000
tan -0.044454 -0.975820 -0.140244 1.000000
tan 0.066960 -0.984314 -0.093744 1.000000
tan 0.069440 -0.985554 -0.084816 1.000000
tan 0.117180 -0.984314 -0.114576 1.000000
tan 0.121334 -0.804637 -0.134044 1.000000
tan -0.451485 -0.228967 -0.819022 1.000000
tan -0.005332 -0.900118 -0.250852 1.000000
tan 0.039618 -0.942340 -0.043896 1.000000
tan -0.085250 -0.984252 -0.113274 1.000000
tan 0.266911 -0.781201 -0.212784 1.000000
tan 0.443983 -0.421601 -0.582367 1.000000
tan -0.412363 -0.348131 -0.715419 1.000000
tan -0.090272 -0.900118 0.081840 1.000000
tan -0.066030 -0.983384 0.100936 1.000000
tan -0.081344 -0.956662 0.096286 1.000000
tan -0.185194 -0.825593 0.299151 1.000000
tan -0.137392 -0.945998 -0.113584 1.000000
tan -0.434745 -0.882572 0.136896 1.000000
tan -0.007130 -0.891376 0.122698 1.000000
tan -0.064356 -0.984314 0.093744 1.000000
tan -0.069130 -0.985616 0.091016 1.000000
tan 0.230020 -0.872776 0.230269 1.000000
tan -0.497179 -0.590613 0.601525 1.000000
tan -0.415525 -0.632959 0.635191 1.000000
tan -0.071052 -0.977866 -0.092566 1.000000
tan -0.031930 -0.925972 -0.121520 1.000000
tan -0.014260 -0.985182 -0.140616 1.000000
tan -0.050716 -0.953066 -0.273420 1.000000
tan -0.681071 -0.431459 -0.597991 1.000000
tan 0.059644 -0.979478 -0.130510 1.000000
tan -0.041850 -0.933412 -0.042780 1.000000
tan 0.073718 -0.861058 -0.261950 1.000000
tan 0.108500 -0.976502 -0.117180 1.000000
tan -0.258727 -0.802716 -0.201934 1.000000
tan 0.053940 -0.685039 -0.167276 1.000000
tan -0.369025 -0.634261 -0.358857 1.000000
tan -1.000000 0.000000 0.000000 1.000000
tan -1.000000 0.000000 0.000000 1.000000
tan -1.000000 0.007874 -0.000000 1.000000
tan -1.000000 0.000000 0.000000 1.000000
tan -1.000000 0.007874 -0.000000 1.000000
tan -1.000000 0.000000 0.000000 1.000000
tan -1.000000 0.007874 -0.000000 1.000000
tan -1.000000 0.000000 0.000000 1.000000
tan -1.000000 0.000000 0.000000 1.000000
tan 0.110236 0.992126 -0.000000 1.000000
tan 0.110236 0.992126 -0.000000 1.000000
tan 0.110236 0.992126 -0.000000 1.000000
tan 0.110236 0.992126 -0.000000 1.000000
tan 0.000000 -0.007874 -0.992126 1.000000
tan 0.000000 0.007874 -0.992126 1.000000
tan 0.000000 -0.007874 -1.000000 1.000000
tan 0.000000 0.007874 -1.000000 1.000000
tan 0.000000 0.007874 -0.992126 1.000000
tan 0.000000 -0.007874 -0.992126 1.000000
tan 0.000000 0.007874 -1.000000 1.000000
tan 0.000000 -0.007874 -1.000000 1.000000
tan -1.000000 0.000000 0.000000 1.000000
tan -1.000000 -0.007874 0.000000 1.000000
tan -1.000000 0.000000 0.000000 1.000000
tan -1.000000 0.000000 0.000000 1.000000
tan -1.000000 0.000000 0.000000 1.000000
tan -1.000000 0.000000 0.000000 1.000000
tan -1.000000 -0.007874 0.000000 1.000000
tan -1.000000 0.000000 0.000000 1.000000
f 3/3/3 2/2/2 1/1/1
f 6/6/6 5/5/5 4/4/4
f 9/9/9 8/8/8 7/7/7
f 12/12/12 11/11/11 10/10/10
f 15/15/15 14/14/14 13/13/13
f 18/18/18 17/17/17 16/16/16
f 21/21/21 20/20/20 19/19/19
f 24/24/24 23/23/23 22/22/22
f 27/27/27 26/26/26 25/25/25
f 30/30/30 29/29/29 28/28/28
f 33/33/33 32/32/32 31/31/31
f 36/36/36 35/35/35 34/34/34
f 39/39/39 38/38/38 37/37/37
f 42/42/42 41/41/41 40/40/40
f 45/45/45 44/44/44 43/43/43
f 48/48/48 47/47/47 46/46/46
f 51/51/51 50/50/50 49/49/49
f 54/54/54 53/53/53 52/52/52
f 57/57/57 56/56/56 55/55/55
f 60/60/60 59/59/59 58/58/58
f 63/63/63 62/62/62 61/61/61
f 66/66/66 65/65/65 64/64/64
f 69/69/69 68/68/68 67/67/67
f 72/72/72 71/71/71 70/70/70
f 75/75/75 74/74/74 73/73/73
f 78/78/78 77/77/77 76/76/76
f 81/81/81 80/80/80 79/79/79
f 84/84/84 83/83/83 82/82/82
f 87/87/87 86/86/86 85/85/85
f 85/85/85 89/89/89 88/88/88
f 90/90/90 85/85/85 88/88/88
f 85/85/85 92/92/92 91/91/91
f 93/93/93 92/92/92 85/85/85
f 96/96/96 95/95/95 94/94/94
f 97/97/97 95/95/95 96/96/96
f 100/100/100 99/99/99 98/98/98
f 101/101/101 99/99/99 100/100/100
f 104/104/104 103/103/103 102/102/102
f 105/105/105 103/103/103 104/104/104
f 108/108/108 107/107/107 106/106/106
f 108/108/108 109/109/109 107/107/107
f 111/111/111 110/110/110 109/109/109
f 109/109/109 110/110/110 112/112/112
f 112/112/112 110/110/110 113/113/113
