mtllib SM_WoodPart_03_LOD2.mtl
g SM_WoodPart_03_LOD2
#Vertices 84
#Indices 306
#Section 0 Offset 0 NumIndices 306 MaterialIndex 0 MI_WoodPart
v -0.106047 -0.011810 0.038020
v -0.102605 -0.008927 0.019515
v -0.106725 0.008719 0.032528
v -0.103472 -0.004916 -0.005972
v -0.105789 0.031294 0.011556
v -0.102948 -0.004119 -0.027566
v -0.102820 0.017650 -0.034622
v -0.100197 -0.006614 -0.038946
v -0.104192 0.036016 -0.009208
v 0.102939 0.000089 0.032836
v 0.102906 0.015010 0.030855
v 0.103047 -0.001062 0.019427
v 0.102477 0.013612 0.002636
v 0.100654 0.035464 0.016364
v 0.100387 0.041094 -0.006751
v 0.100036 0.030554 -0.028167
v 0.103327 -0.011206 -0.025530
v 0.102333 0.002721 -0.038178
v 0.101642 -0.012123 -0.037142
v -0.100197 -0.006614 -0.038946
v -0.077140 -0.007393 -0.035662
v -0.055762 -0.007916 -0.036309
v -0.074359 0.003947 -0.035552
v -0.102820 0.017650 -0.034622
v -0.027202 -0.009601 -0.039060
v -0.002733 -0.011631 -0.036287
v -0.083837 0.030546 -0.023914
v -0.104192 0.036016 -0.009208
v -0.024192 0.007755 -0.037727
v -0.076269 0.038740 -0.005266
v -0.105789 0.031294 0.011556
v -0.013369 0.030632 -0.024787
v -0.014391 0.002415 -0.036695
v 0.034446 -0.004173 -0.037485
v 0.074290 -0.012454 -0.035664
v 0.095649 0.000315 -0.039366
v 0.101642 -0.012123 -0.037142
v 0.102333 0.002721 -0.038178
v 0.083942 0.019990 -0.032447
v 0.100036 0.030554 -0.028167
v 0.079666 0.043991 -0.006289
v 0.100387 0.041094 -0.006751
v 0.100654 0.035464 0.016364
v 0.050233 0.039124 0.015830
v -0.083841 0.028335 0.020564
v -0.106725 0.008719 0.032528
v -0.069670 0.002513 0.039207
v -0.106047 -0.011810 0.038020
v -0.079922 -0.009399 0.039825
v 0.016514 0.000853 0.037287
v 0.028589 -0.003118 0.036615
v 0.037106 0.014667 0.037023
v 0.051432 0.003675 0.039718
v 0.084648 0.014962 0.035077
v 0.073087 0.003272 0.032764
v 0.102906 0.015010 0.030855
v 0.089839 0.000011 0.032955
v 0.102939 0.000089 0.032836
v 0.089839 0.000011 0.032955
v 0.102939 0.000089 0.032836
v 0.103047 -0.001062 0.019427
v 0.077902 0.000612 0.018441
v 0.073087 0.003272 0.032764
v 0.086580 -0.003135 -0.001814
v 0.103327 -0.011206 -0.025530
v 0.050058 0.004235 0.028928
v 0.051432 0.003675 0.039718
v 0.028589 -0.003118 0.036615
v 0.047490 -0.008692 -0.019567
v 0.101642 -0.012123 -0.037142
v 0.074290 -0.012454 -0.035664
v -0.011155 -0.005083 0.029691
v -0.079922 -0.009399 0.039825
v -0.001095 -0.012464 -0.029362
v -0.002733 -0.011631 -0.036287
v -0.055762 -0.007916 -0.036309
v -0.046191 -0.008752 -0.017487
v -0.077140 -0.007393 -0.035662
v -0.102605 -0.008927 0.019515
v -0.106047 -0.011810 0.038020
v -0.072176 -0.004375 -0.013675
v -0.103472 -0.004916 -0.005972
v -0.102948 -0.004119 -0.027566
v -0.100197 -0.006614 -0.038946
vt 0.000988 0.297852
vt 0.008682 0.277832
vt 0.025528 0.296875
vt 0.019913 0.249512
vt 0.056244 0.278809
vt 0.026505 0.225586
vt 0.052948 0.223145
vt 0.026825 0.211426
vt 0.067200 0.256836
vt 0.132568 0.947235
vt 0.115173 0.948395
vt 0.130737 0.931702
vt 0.110107 0.916077
vt 0.088440 0.936890
vt 0.076538 0.912109
vt 0.083191 0.885315
vt 0.131226 0.878052
vt 0.112366 0.867188
vt 0.129395 0.864502
vt 0.651855 0.719727
vt 0.651855 0.692383
vt 0.653320 0.667236
vt 0.666016 0.689697
vt 0.680176 0.723877
vt 0.652832 0.633301
vt 0.652832 0.604004
vt 0.699707 0.702393
vt 0.716309 0.727051
vt 0.672852 0.631104
vt 0.723145 0.695068
vt 0.740723 0.731445
vt 0.703613 0.620850
vt 0.667969 0.618896
vt 0.666016 0.561279
vt 0.659668 0.514404
vt 0.676758 0.490723
vt 0.663086 0.482422
vt 0.680664 0.483398
vt 0.699219 0.506348
vt 0.714355 0.488770
vt 0.738770 0.515869
vt 0.741699 0.492188
vt 0.769043 0.494629
vt 0.761719 0.552246
vt 0.753906 0.707520
vt 0.775879 0.738037
vt 0.793457 0.696777
vt 0.800293 0.741699
vt 0.804688 0.711182
vt 0.808594 0.597168
vt 0.814941 0.583740
vt 0.796387 0.571045
vt 0.811523 0.555664
vt 0.799805 0.515381
vt 0.813477 0.528320
vt 0.797852 0.493652
vt 0.815918 0.508301
vt 0.815430 0.493164
vt 0.008781 0.636963
vt 0.009995 0.621582
vt 0.025467 0.622803
vt 0.024948 0.651855
vt 0.007687 0.657227
vt 0.049927 0.642822
vt 0.079041 0.623535
vt 0.013313 0.685303
vt 0.000600 0.683838
vt 0.005779 0.711426
vt 0.071777 0.688477
vt 0.092834 0.625488
vt 0.090942 0.656982
vt 0.014870 0.757446
vt 0.003790 0.837524
vt 0.084595 0.744873
vt 0.092407 0.746582
vt 0.092590 0.808472
vt 0.070740 0.797363
vt 0.092041 0.833252
vt 0.027542 0.863647
vt 0.006081 0.867798
vt 0.066101 0.827759
vt 0.057556 0.864258
vt 0.082642 0.863281
vt 0.096130 0.859863
vt1 0.970215 0.230957
vt1 0.905273 0.206543
vt1 0.966797 0.152832
vt1 0.816406 0.170898
vt1 0.909668 0.054688
vt1 0.739258 0.149902
vt1 0.732422 0.065430
vt1 0.695312 0.148438
vt1 0.839355 0.020020
vt1 0.285889 0.009766
vt1 0.282227 0.065430
vt1 0.335449 0.015625
vt1 0.385010 0.081543
vt1 0.318604 0.150391
vt1 0.397705 0.187988
vt1 0.482910 0.166992
vt1 0.505859 0.013672
vt1 0.540527 0.074219
vt1 0.548828 0.020020
vt1 0.014816 0.922791
vt1 0.014717 0.835815
vt1 0.018280 0.756104
vt1 0.058838 0.827148
vt1 0.104065 0.935547
vt1 0.017197 0.647949
vt1 0.017639 0.554932
vt1 0.166016 0.867432
vt1 0.219238 0.945557
vt1 0.081177 0.640869
vt1 0.241943 0.843872
vt1 0.296387 0.959625
vt1 0.179565 0.608154
vt1 0.066101 0.602295
vt1 0.059692 0.419434
vt1 0.038940 0.270020
vt1 0.093384 0.194336
vt1 0.049347 0.168457
vt1 0.105652 0.170898
vt1 0.165771 0.244141
vt1 0.212891 0.188965
vt1 0.291748 0.274902
vt1 0.300049 0.198242
vt1 0.387451 0.207031
vt1 0.363770 0.390137
vt1 0.339844 0.883423
vt1 0.408936 0.980392
vt1 0.464844 0.849854
vt1 0.486816 0.992310
vt1 0.500488 0.895569
vt1 0.513184 0.533203
vt1 0.533691 0.490723
vt1 0.474121 0.450195
vt1 0.522461 0.401367
vt1 0.484863 0.273438
vt1 0.528320 0.314453
vt1 0.479492 0.204102
vt1 0.536133 0.250977
vt1 0.534668 0.202148
vt1 0.583984 0.259766
vt1 0.587891 0.210938
vt1 0.637207 0.214844
vt1 0.635742 0.307617
vt1 0.580566 0.324707
vt1 0.715332 0.278809
vt1 0.807617 0.217285
vt1 0.598633 0.413574
vt1 0.558105 0.409180
vt1 0.574707 0.497070
vt1 0.784668 0.423828
vt1 0.851562 0.223145
vt1 0.845703 0.324219
vt1 0.603516 0.643066
vt1 0.568359 0.897705
vt1 0.825684 0.602783
vt1 0.850098 0.608398
vt1 0.851074 0.805176
vt1 0.781250 0.769775
vt1 0.849121 0.883911
vt1 0.644043 0.980545
vt1 0.575684 0.993881
vt1 0.766602 0.866821
vt1 0.739258 0.982605
vt1 0.819336 0.979492
vt1 0.862305 0.968506
vn -0.574803 -0.582677 0.574803
vn -0.763780 -0.629921 -0.125984
vn -0.771654 0.283465 0.574803
vn -0.874016 -0.464567 -0.149606
vn -0.874016 0.448819 0.188976
vn -0.858268 -0.519685 -0.007874
vn -0.661417 0.275590 -0.692913
vn -0.496063 -0.598425 -0.629921
vn -0.645669 0.755905 -0.133858
vn 0.582677 -0.511811 0.629921
vn 0.700787 0.251969 0.669291
vn 0.700787 -0.716535 0.039370
vn 1.000000 0.047244 -0.023622
vn 0.866142 0.425197 0.251968
vn 0.685039 0.716535 -0.125984
vn 0.598425 0.566929 -0.566929
vn 0.685039 -0.724409 0.062992
vn 0.732283 0.070866 -0.685039
vn 0.566929 -0.598425 -0.566929
vn -0.188976 -0.401575 -0.897638
vn -0.031496 -0.952756 -0.299212
vn -0.078740 -0.755905 -0.645669
vn 0.086614 0.196850 -0.976378
vn -0.614173 0.362205 -0.700787
vn -0.070866 -0.385827 -0.921260
vn 0.039370 -0.811024 -0.582677
vn -0.039370 0.732283 -0.685039
vn -0.661417 0.740157 -0.125984
vn -0.212598 0.362205 -0.905512
vn -0.118110 0.992126 -0.031496
vn -0.401575 0.795276 0.448819
vn 0.015748 0.543307 -0.834646
vn 0.149606 0.354331 -0.921260
vn -0.039370 0.102362 -0.992126
vn -0.055118 -0.763779 -0.637795
vn 0.047244 0.102362 -0.992126
vn 0.559055 -0.519685 -0.645669
vn 0.669291 0.118110 -0.732283
vn -0.070866 0.433071 -0.897638
vn 0.519685 0.566929 -0.637795
vn 0.031496 0.984252 -0.188976
vn 0.645669 0.755905 -0.102362
vn 0.543307 0.716535 0.440945
vn -0.007874 0.850394 0.535433
vn -0.078740 0.724409 0.685039
vn -0.692913 0.314961 0.653543
vn 0.007874 0.307087 0.952756
vn -0.661417 -0.393701 0.637795
vn 0.070866 -0.724409 0.685039
vn 0.023622 0.110236 0.992126
vn 0.070866 -0.740157 0.669291
vn -0.102362 0.377953 0.921260
vn 0.094488 -0.606299 0.787401
vn 0.102362 0.291339 0.952756
vn -0.070866 -0.842520 0.535433
vn 0.700787 0.251969 0.669291
vn -0.047244 -0.929134 0.370079
vn 0.582677 -0.511811 0.629921
vn 0.015748 -0.984252 -0.165354
vn 0.582677 -0.511811 0.629921
vn 0.716535 -0.700787 -0.047244
vn -0.307087 -0.929134 -0.220472
vn -0.110236 -0.874016 0.464567
vn -0.015748 -0.937008 0.346457
vn 0.677165 -0.708661 0.173228
vn 0.267717 -0.944882 0.173228
vn 0.047244 -0.645669 0.763779
vn 0.062992 -0.755905 0.653543
vn -0.007874 -0.976378 0.228347
vn 0.582677 -0.614173 -0.535433
vn 0.007874 -0.960630 -0.267716
vn 0.047244 -1.000000 0.055118
vn 0.062992 -0.708661 0.700787
vn 0.000000 -1.000000 0.070866
vn 0.015748 -0.787401 -0.614173
vn -0.110236 -0.700787 -0.700787
vn -0.070866 -0.976378 0.196850
vn -0.031496 -0.952756 -0.299212
vn 0.007874 -0.992126 -0.133858
vn -0.598425 -0.661417 0.448819
vn -0.031496 -1.000000 -0.007874
vn -0.307087 -0.944882 -0.133858
vn -0.559055 -0.795275 0.212598
vn -0.511811 -0.590551 -0.622047
tan -0.509083 -0.271561 -0.784363 1.000000
tan 0.542625 -0.530535 -0.636989 1.000000
tan -0.623721 -0.165602 -0.755657 1.000000
tan 0.339141 -0.379503 -0.802839 1.000000
tan -0.358423 -0.357307 -0.809101 1.000000
tan 0.256495 -0.411805 -0.778783 1.000000
tan 0.705871 -0.057288 -0.696571 1.000000
tan 0.761858 0.031992 -0.630355 1.000000
tan -0.338397 -0.434807 -0.823114 1.000000
tan 0.663401 -0.149296 -0.734949 1.000000
tan 0.696447 -0.062682 -0.705623 1.000000
tan -0.518321 -0.543431 -0.664331 1.000000
tan -0.013392 -0.204724 -0.976378 1.000000
tan 0.413665 -0.379937 -0.780829 1.000000
tan 0.231570 -0.379131 -0.897142 1.000000
tan -0.562465 -0.208320 -0.802033 1.000000
tan -0.244528 -0.310869 -0.915742 1.000000
tan -0.683365 -0.033480 -0.733957 1.000000
tan -0.768306 -0.138384 -0.622233 1.000000
tan 0.906380 0.091512 -0.231756 1.000000
tan 0.962180 -0.038564 0.021514 1.000000
tan 0.941286 -0.052824 -0.052948 1.000000
tan 0.976378 -0.023064 0.081964 1.000000
tan 0.752496 0.095356 -0.610205 1.000000
tan 0.941348 -0.055800 -0.049042 1.000000
tan 0.659123 -0.370947 0.560853 1.000000
tan 0.966086 -0.113708 -0.177072 1.000000
tan 0.745117 0.661417 -0.026040 1.000000
tan 0.908364 -0.062496 -0.238266 1.000000
tan 0.992126 0.117366 -0.023436 1.000000
tan 0.811024 0.476533 -0.118730 1.000000
tan 0.702275 -0.507161 -0.316883 1.000000
tan 0.924050 -0.073718 0.121706 1.000000
tan 0.992126 -0.062496 -0.045818 1.000000
tan 0.966892 -0.142724 0.087358 1.000000
tan 0.992126 -0.078120 0.039184 1.000000
tan 0.781078 0.079112 0.612623 1.000000
tan 0.736003 -0.015314 0.670221 1.000000
tan 0.931242 -0.105276 -0.124310 1.000000
tan 0.845930 -0.395437 0.337777 1.000000
tan 0.968752 -0.068200 -0.193750 1.000000
tan 0.755906 -0.649699 -0.029760 1.000000
tan 0.804204 -0.469031 -0.228718 1.000000
tan 0.660425 0.347573 -0.542315 1.000000
tan 0.794470 0.445409 -0.379689 1.000000
tan 0.712319 0.205468 0.656209 1.000000
tan 0.930250 0.187550 -0.068138 1.000000
tan 0.688263 0.010230 0.720069 1.000000
tan 0.841156 0.414781 0.351603 1.000000
tan 0.976502 0.156240 -0.040610 1.000000
tan 0.725339 0.477649 0.451423 1.000000
tan 0.899498 0.181350 0.025544 1.000000
tan 0.954554 -0.001488 -0.115692 1.000000
tan 0.957344 0.028396 -0.111538 1.000000
tan 0.886478 -0.108252 -0.053010 1.000000
tan 0.705065 -0.138198 -0.686217 1.000000
tan 0.943704 -0.032674 0.038440 1.000000
tan 0.700601 -0.067952 -0.703267 1.000000
tan 0.968752 -0.014446 0.178250 1.000000
tan 0.168020 0.832042 0.520615 1.000000
tan 0.700787 0.716163 0.005518 1.000000
tan 0.921818 -0.327237 0.095108 1.000000
tan 0.871660 -0.199082 -0.167710 1.000000
tan 0.939736 -0.013020 0.007502 1.000000
tan 0.716845 0.677165 -0.031992 1.000000
tan 0.944882 0.269080 0.007440 1.000000
tan 0.921756 -0.203918 -0.229400 1.000000
tan 0.933908 0.120280 0.049104 1.000000
tan 0.976378 -0.011470 -0.015376 1.000000
tan 0.758509 0.620373 0.113832 1.000000
tan 0.960630 0.012090 -0.015128 1.000000
tan 1.000000 0.046376 -0.015748 1.000000
tan 0.982454 0.173042 0.086676 1.000000
tan 1.000000 -0.003348 -0.047244 1.000000
tan 0.905698 0.154876 -0.175336 1.000000
tan 0.849774 -0.413541 0.279869 1.000000
tan 0.976378 -0.072416 -0.007688 1.000000
tan 0.962180 -0.029140 -0.008494 1.000000
tan 0.992126 0.009982 -0.015624 1.000000
tan 0.676111 -0.704445 -0.136648 1.000000
tan 1.000000 -0.031434 -0.007874 1.000000
tan 0.944882 -0.307087 0.000000 1.000000
tan 0.796950 -0.560729 -0.001860 1.000000
tan 0.680761 -0.717341 0.120900 1.000000
f 3/3/3 2/2/2 1/1/1
f 3/3/3 4/4/4 2/2/2
f 3/3/3 5/5/5 4/4/4
f 4/4/4 5/5/5 6/6/6
f 5/5/5 7/7/7 6/6/6
f 8/8/8 6/6/6 7/7/7
f 5/5/5 9/9/9 7/7/7
f 12/12/12 11/11/11 10/10/10
f 11/11/11 12/12/12 13/13/13
f 11/11/11 13/13/13 14/14/14
f 15/15/15 14/14/14 13/13/13
f 13/13/13 16/16/16 15/15/15
f 12/12/12 17/17/17 13/13/13
f 13/13/13 18/18/18 16/16/16
f 13/13/13 17/17/17 18/18/18
f 18/18/18 17/17/17 19/19/19
f 22/22/22 21/21/21 20/20/20
f 23/23/23 22/22/22 20/20/20
f 23/23/23 20/20/20 24/24/24
f 23/23/23 25/25/25 22/22/22
f 26/26/26 22/22/22 25/25/25
f 27/27/27 23/23/23 24/24/24
f 24/24/24 28/28/28 27/27/27
f 23/23/23 29/29/29 25/25/25
f 27/27/27 28/28/28 30/30/30
f 31/31/31 30/30/30 28/28/28
f 27/27/27 32/32/32 23/23/23
f 23/23/23 32/32/32 29/29/29
f 30/30/30 32/32/32 27/27/27
f 33/33/33 25/25/25 29/29/29
f 29/29/29 32/32/32 33/33/33
f 26/26/26 25/25/25 33/33/33
f 26/26/26 33/33/33 34/34/34
f 32/32/32 34/34/34 33/33/33
f 26/26/26 34/34/34 35/35/35
f 34/34/34 36/36/36 35/35/35
f 36/36/36 37/37/37 35/35/35
f 37/37/37 36/36/36 38/38/38
f 39/39/39 36/36/36 34/34/34
f 38/38/38 36/36/36 39/39/39
f 39/39/39 34/34/34 32/32/32
f 40/40/40 38/38/38 39/39/39
f 41/41/41 39/39/39 32/32/32
f 40/40/40 39/39/39 41/41/41
f 30/30/30 41/41/41 32/32/32
f 42/42/42 40/40/40 41/41/41
f 42/42/42 41/41/41 43/43/43
f 44/44/44 41/41/41 30/30/30
f 41/41/41 44/44/44 43/43/43
f 30/30/30 31/31/31 45/45/45
f 45/45/45 44/44/44 30/30/30
f 31/31/31 46/46/46 45/45/45
f 46/46/46 47/47/47 45/45/45
f 47/47/47 44/44/44 45/45/45
f 47/47/47 46/46/46 48/48/48
f 49/49/49 47/47/47 48/48/48
f 49/49/49 50/50/50 47/47/47
f 51/51/51 50/50/50 49/49/49
f 47/47/47 50/50/50 52/52/52
f 52/52/52 50/50/50 51/51/51
f 52/52/52 44/44/44 47/47/47
f 52/52/52 51/51/51 53/53/53
f 52/52/52 54/54/54 44/44/44
f 53/53/53 54/54/54 52/52/52
f 54/54/54 43/43/43 44/44/44
f 55/55/55 54/54/54 53/53/53
f 56/56/56 43/43/43 54/54/54
f 55/55/55 57/57/57 54/54/54
f 56/56/56 54/54/54 58/58/58
f 57/57/57 58/58/58 54/54/54
f 61/61/61 60/60/60 59/59/59
f 61/61/61 59/59/59 62/62/62
f 62/62/62 59/59/59 63/63/63
f 64/64/64 61/61/61 62/62/62
f 61/61/61 64/64/64 65/65/65
f 63/63/63 66/66/66 62/62/62
f 64/64/64 62/62/62 66/66/66
f 67/67/67 66/66/66 63/63/63
f 66/66/66 67/67/67 68/68/68
f 65/65/65 64/64/64 69/69/69
f 64/64/64 66/66/66 69/69/69
f 71/71/71 70/70/70 65/65/65
f 71/71/71 65/65/65 69/69/69
f 72/72/72 66/66/66 68/68/68
f 72/72/72 69/69/69 66/66/66
f 73/73/73 72/72/72 68/68/68
f 69/69/69 74/74/74 71/71/71
f 75/75/75 71/71/71 74/74/74
f 74/74/74 76/76/76 75/75/75
f 77/77/77 74/74/74 69/69/69
f 76/76/76 74/74/74 77/77/77
f 72/72/72 77/77/77 69/69/69
f 77/77/77 78/78/78 76/76/76
f 73/73/73 79/79/79 72/72/72
f 80/80/80 79/79/79 73/73/73
f 72/72/72 81/81/81 77/77/77
f 81/81/81 72/72/72 79/79/79
f 81/81/81 78/78/78 77/77/77
f 81/81/81 79/79/79 82/82/82
f 82/82/82 83/83/83 81/81/81
f 78/78/78 81/81/81 83/83/83
f 78/78/78 83/83/83 84/84/84
